<?xml version="1.0" encoding="UTF-8" standalone="no"?>
<!DOCTYPE svg PUBLIC "-//W3C//DTD SVG 1.1//EN"
 "http://www.w3.org/Graphics/SVG/1.1/DTD/svg11.dtd">
<!-- Generated by graphviz version 12.1.0 (20240811.2233)
 -->
<!-- Title: state transitions Pages: 1 -->
<svg width="694pt" height="164pt"
 viewBox="0.00 0.00 693.50 163.50" xmlns="http://www.w3.org/2000/svg" xmlns:xlink="http://www.w3.org/1999/xlink">
<g id="graph0" class="graph" transform="scale(1 1) rotate(0) translate(4 159.5)">
<title>state transitions</title>
<polygon fill="white" stroke="none" points="-4,4 -4,-159.5 689.5,-159.5 689.5,4 -4,4"/>
<!-- finalizing -->
<g id="node1" class="node state regular">
<title>finalizing</title>
<polygon fill="#ffffff" fill-opacity="0.003922" stroke="none" stroke-width="2" points="529.25,-63.25 454.75,-63.25 454.75,-27 529.25,-27 529.25,-63.25"/>
<text text-anchor="start" x="465.75" y="-40.85" font-family="Helvetica,sans-Serif" font-size="12.00">finalizing</text>
<path fill="none" stroke="black" stroke-width="2" d="M467.17,-28C467.17,-28 516.83,-28 516.83,-28 522.54,-28 528.25,-33.71 528.25,-39.42 528.25,-39.42 528.25,-50.83 528.25,-50.83 528.25,-56.54 522.54,-62.25 516.83,-62.25 516.83,-62.25 467.17,-62.25 467.17,-62.25 461.46,-62.25 455.75,-56.54 455.75,-50.83 455.75,-50.83 455.75,-39.42 455.75,-39.42 455.75,-33.71 461.46,-28 467.17,-28"/>
</g>
<!-- finalizing&#45;&gt;finalizing -->
<g id="edge1" class="edge transition">
<title>finalizing&#45;&gt;finalizing</title>
<path fill="none" stroke="black" d="M482.06,-62.97C480.37,-72.53 483.68,-81.25 492,-81.25 496.68,-81.25 499.77,-78.49 501.28,-74.38"/>
<polygon fill="black" stroke="black" points="504.77,-74.66 501.85,-64.48 497.78,-74.26 504.77,-74.66"/>
<text text-anchor="start" x="298.5" y="-84.5" font-family="Helvetica,sans-Serif" font-size="10.00">RefreshStatus &#45; Finalizing stage is taking too long. &#160;Emit an appropriate event &#160;&#160;</text>
</g>
<!-- finalizing&#45;&gt;finalizing -->
<g id="edge2" class="edge transition">
<title>finalizing&#45;&gt;finalizing</title>
<path fill="none" stroke="black" d="M475.38,-63.14C466.48,-80.41 472.02,-99.25 492,-99.25 507.92,-99.25 514.67,-87.28 512.26,-73.69"/>
<polygon fill="black" stroke="black" points="515.68,-72.89 509.12,-64.58 509.07,-75.17 515.68,-72.89"/>
<text text-anchor="start" x="387.38" y="-102.5" font-family="Helvetica,sans-Serif" font-size="10.00">RefreshStatus &#45; Update AMS subscription &#160;&#160;</text>
</g>
<!-- finalizing&#45;&gt;finalizing -->
<g id="edge3" class="edge transition">
<title>finalizing&#45;&gt;finalizing</title>
<path fill="none" stroke="black" d="M471.01,-63.23C452.45,-87.61 459.44,-117.25 492,-117.25 520.36,-117.25 529.33,-94.76 518.89,-72.85"/>
<polygon fill="black" stroke="black" points="521.99,-71.21 513.78,-64.52 516.03,-74.88 521.99,-71.21"/>
<text text-anchor="start" x="389.25" y="-120.5" font-family="Helvetica,sans-Serif" font-size="10.00">RefreshStatus &#45; Maintain finalizing state &#160;&#160;</text>
</g>
<!-- installing -->
<g id="node2" class="node state regular">
<title>installing</title>
<polygon fill="#ffffff" fill-opacity="0.003922" stroke="none" stroke-width="2" points="136,-90.25 61.5,-90.25 61.5,-54 136,-54 136,-90.25"/>
<text text-anchor="start" x="72.5" y="-67.85" font-family="Helvetica,sans-Serif" font-size="12.00">installing</text>
<path fill="none" stroke="black" stroke-width="2" d="M73.92,-55C73.92,-55 123.58,-55 123.58,-55 129.29,-55 135,-60.71 135,-66.42 135,-66.42 135,-77.83 135,-77.83 135,-83.54 129.29,-89.25 123.58,-89.25 123.58,-89.25 73.92,-89.25 73.92,-89.25 68.21,-89.25 62.5,-83.54 62.5,-77.83 62.5,-77.83 62.5,-66.42 62.5,-66.42 62.5,-60.71 68.21,-55 73.92,-55"/>
</g>
<!-- installing&#45;&gt;finalizing -->
<g id="edge4" class="edge transition">
<title>installing&#45;&gt;finalizing</title>
<path fill="none" stroke="black" d="M135.86,-69.63C206.9,-64.73 364.78,-53.84 443.9,-48.38"/>
<polygon fill="black" stroke="black" points="443.74,-51.9 453.47,-47.71 443.25,-44.91 443.74,-51.9"/>
<text text-anchor="start" x="238.75" y="-66.64" font-family="Helvetica,sans-Serif" font-size="10.00">RefreshStatus &#45; Move to finalizing &#160;&#160;</text>
</g>
<!-- installing&#45;pending&#45;user&#45;action -->
<g id="node3" class="node state regular">
<title>installing&#45;pending&#45;user&#45;action</title>
<polygon fill="#ffffff" fill-opacity="0.003922" stroke="none" stroke-width="2" points="197.5,-36.25 0,-36.25 0,0 197.5,0 197.5,-36.25"/>
<text text-anchor="start" x="11" y="-13.85" font-family="Helvetica,sans-Serif" font-size="12.00">installing&#45;pending&#45;user&#45;action</text>
<path fill="none" stroke="black" stroke-width="2" d="M12.42,-1C12.42,-1 185.08,-1 185.08,-1 190.79,-1 196.5,-6.71 196.5,-12.42 196.5,-12.42 196.5,-23.83 196.5,-23.83 196.5,-29.54 190.79,-35.25 185.08,-35.25 185.08,-35.25 12.42,-35.25 12.42,-35.25 6.71,-35.25 1,-29.54 1,-23.83 1,-23.83 1,-12.42 1,-12.42 1,-6.71 6.71,-1 12.42,-1"/>
</g>
<!-- installing&#45;pending&#45;user&#45;action&#45;&gt;finalizing -->
<g id="edge5" class="edge transition">
<title>installing&#45;pending&#45;user&#45;action&#45;&gt;finalizing</title>
<path fill="none" stroke="black" d="M197.15,-17.4C264.68,-18.08 356.55,-21.35 436.75,-32.38 439.07,-32.69 441.44,-33.07 443.82,-33.48"/>
<polygon fill="black" stroke="black" points="443.02,-36.89 453.51,-35.37 444.36,-30.02 443.02,-36.89"/>
<text text-anchor="start" x="215.5" y="-35.62" font-family="Helvetica,sans-Serif" font-size="10.00">RefreshStatus &#45; TODO: Name this transition &#160;&#160;</text>
</g>
</g>
</svg>
