<?xml version="1.0" encoding="UTF-8" standalone="no"?>
<!DOCTYPE svg PUBLIC "-//W3C//DTD SVG 1.1//EN"
 "http://www.w3.org/Graphics/SVG/1.1/DTD/svg11.dtd">
<!-- Generated by graphviz version 12.1.0 (20240811.2233)
 -->
<!-- Title: state transitions Pages: 1 -->
<svg width="656pt" height="102pt"
 viewBox="0.00 0.00 656.38 102.00" xmlns="http://www.w3.org/2000/svg" xmlns:xlink="http://www.w3.org/1999/xlink">
<g id="graph0" class="graph" transform="scale(1 1) rotate(0) translate(4 98)">
<title>state transitions</title>
<polygon fill="white" stroke="none" points="-4,4 -4,-98 652.38,-98 652.38,4 -4,4"/>
<!-- installing -->
<g id="node1" class="node state regular">
<title>installing</title>
<polygon fill="#ffffff" fill-opacity="0.003922" stroke="none" stroke-width="2" points="601.25,-63.25 526.75,-63.25 526.75,-27 601.25,-27 601.25,-63.25"/>
<text text-anchor="start" x="537.75" y="-40.85" font-family="Helvetica,sans-Serif" font-size="12.00">installing</text>
<path fill="none" stroke="black" stroke-width="2" d="M539.17,-28C539.17,-28 588.83,-28 588.83,-28 594.54,-28 600.25,-33.71 600.25,-39.42 600.25,-39.42 600.25,-50.83 600.25,-50.83 600.25,-56.54 594.54,-62.25 588.83,-62.25 588.83,-62.25 539.17,-62.25 539.17,-62.25 533.46,-62.25 527.75,-56.54 527.75,-50.83 527.75,-50.83 527.75,-39.42 527.75,-39.42 527.75,-33.71 533.46,-28 539.17,-28"/>
</g>
<!-- installing&#45;&gt;installing -->
<g id="edge1" class="edge transition">
<title>installing&#45;&gt;installing</title>
<path fill="none" stroke="black" d="M527.71,-62.97C521.54,-72.53 533.64,-81.25 564,-81.25 581.55,-81.25 593,-78.34 598.34,-74.03"/>
<polygon fill="black" stroke="black" points="601.74,-74.91 600.03,-64.46 594.85,-73.7 601.74,-74.91"/>
<text text-anchor="start" x="479.62" y="-84.5" font-family="Helvetica,sans-Serif" font-size="10.00">RefreshStatus &#45; Stay in installing &#160;&#160;</text>
</g>
<!-- installing&#45;pending&#45;user&#45;action -->
<g id="node2" class="node state regular">
<title>installing&#45;pending&#45;user&#45;action</title>
<polygon fill="#ffffff" fill-opacity="0.003922" stroke="none" stroke-width="2" points="197.5,-90.25 0,-90.25 0,-54 197.5,-54 197.5,-90.25"/>
<text text-anchor="start" x="11" y="-67.85" font-family="Helvetica,sans-Serif" font-size="12.00">installing&#45;pending&#45;user&#45;action</text>
<path fill="none" stroke="black" stroke-width="2" d="M12.42,-55C12.42,-55 185.08,-55 185.08,-55 190.79,-55 196.5,-60.71 196.5,-66.42 196.5,-66.42 196.5,-77.83 196.5,-77.83 196.5,-83.54 190.79,-89.25 185.08,-89.25 185.08,-89.25 12.42,-89.25 12.42,-89.25 6.71,-89.25 1,-83.54 1,-77.83 1,-77.83 1,-66.42 1,-66.42 1,-60.71 6.71,-55 12.42,-55"/>
</g>
<!-- installing&#45;pending&#45;user&#45;action&#45;&gt;installing -->
<g id="edge2" class="edge transition">
<title>installing&#45;pending&#45;user&#45;action&#45;&gt;installing</title>
<path fill="none" stroke="black" d="M197.43,-66.43C295.07,-60.74 441.09,-52.23 515.59,-47.89"/>
<polygon fill="black" stroke="black" points="515.62,-51.39 525.4,-47.32 515.21,-44.4 515.62,-51.39"/>
<text text-anchor="start" x="251.5" y="-68.13" font-family="Helvetica,sans-Serif" font-size="10.00">RefreshStatus &#45; TODO: Name this transition &#160;&#160;</text>
</g>
<!-- preparing&#45;for&#45;installation -->
<g id="node3" class="node state regular">
<title>preparing&#45;for&#45;installation</title>
<polygon fill="#ffffff" fill-opacity="0.003922" stroke="none" stroke-width="2" points="183.25,-36.25 14.25,-36.25 14.25,0 183.25,0 183.25,-36.25"/>
<text text-anchor="start" x="25.25" y="-13.85" font-family="Helvetica,sans-Serif" font-size="12.00">preparing&#45;for&#45;installation</text>
<path fill="none" stroke="black" stroke-width="2" d="M26.67,-1C26.67,-1 170.83,-1 170.83,-1 176.54,-1 182.25,-6.71 182.25,-12.42 182.25,-12.42 182.25,-23.83 182.25,-23.83 182.25,-29.54 176.54,-35.25 170.83,-35.25 170.83,-35.25 26.67,-35.25 26.67,-35.25 20.96,-35.25 15.25,-29.54 15.25,-23.83 15.25,-23.83 15.25,-12.42 15.25,-12.42 15.25,-6.71 20.96,-1 26.67,-1"/>
</g>
<!-- preparing&#45;for&#45;installation&#45;&gt;installing -->
<g id="edge3" class="edge transition">
<title>preparing&#45;for&#45;installation&#45;&gt;installing</title>
<path fill="none" stroke="black" d="M183.24,-15.59C266.21,-14.29 396.9,-15.58 508.75,-31.38 511.08,-31.7 513.45,-32.09 515.84,-32.53"/>
<polygon fill="black" stroke="black" points="515.05,-35.94 525.55,-34.55 516.47,-29.09 515.05,-35.94"/>
<text text-anchor="start" x="215.5" y="-34.62" font-family="Helvetica,sans-Serif" font-size="10.00">RefreshStatus &#45; Refresh preparing cluster &#45; done preparing &#160;&#160;</text>
</g>
</g>
</svg>
