<?xml version="1.0" encoding="UTF-8" standalone="no"?>
<!DOCTYPE svg PUBLIC "-//W3C//DTD SVG 1.1//EN"
 "http://www.w3.org/Graphics/SVG/1.1/DTD/svg11.dtd">
<!-- Generated by graphviz version 12.1.0 (20240811.2233)
 -->
<!-- Title: state transitions Pages: 1 -->
<svg width="687pt" height="289pt"
 viewBox="0.00 0.00 686.88 288.66" xmlns="http://www.w3.org/2000/svg" xmlns:xlink="http://www.w3.org/1999/xlink">
<g id="graph0" class="graph" transform="scale(1 1) rotate(0) translate(4 284.66)">
<title>state transitions</title>
<polygon fill="white" stroke="none" points="-4,4 -4,-284.66 682.88,-284.66 682.88,4 -4,4"/>
<!-- error -->
<g id="node1" class="node state regular">
<title>error</title>
<polygon fill="#ffffff" fill-opacity="0.003922" stroke="none" stroke-width="2" points="579,-161.93 523,-161.93 523,-125.68 579,-125.68 579,-161.93"/>
<text text-anchor="start" x="536.38" y="-139.53" font-family="Helvetica,sans-Serif" font-size="12.00">error</text>
<path fill="none" stroke="black" stroke-width="2" d="M535.42,-126.68C535.42,-126.68 566.58,-126.68 566.58,-126.68 572.29,-126.68 578,-132.39 578,-138.1 578,-138.1 578,-149.52 578,-149.52 578,-155.23 572.29,-160.93 566.58,-160.93 566.58,-160.93 535.42,-160.93 535.42,-160.93 529.71,-160.93 524,-155.23 524,-149.52 524,-149.52 524,-138.1 524,-138.1 524,-132.39 529.71,-126.68 535.42,-126.68"/>
</g>
<!-- error&#45;&gt;error -->
<g id="edge1" class="edge transition">
<title>error&#45;&gt;error</title>
<path fill="none" stroke="black" d="M533.89,-161.65C530.98,-171.22 536.68,-179.93 551,-179.93 559.05,-179.93 564.38,-177.18 566.98,-173.06"/>
<polygon fill="black" stroke="black" points="570.46,-173.45 567.96,-163.16 563.49,-172.77 570.46,-173.45"/>
<text text-anchor="start" x="423.12" y="-183.18" font-family="Helvetica,sans-Serif" font-size="10.00">RefreshStatus &#45; Log collection timeout during error &#160;&#160;</text>
</g>
<!-- error&#45;&gt;error -->
<g id="edge2" class="edge transition">
<title>error&#45;&gt;error</title>
<path fill="none" stroke="black" d="M523.15,-160.99C506.76,-178.47 516.05,-197.93 551,-197.93 579.67,-197.93 591.07,-184.84 585.2,-170.48"/>
<polygon fill="black" stroke="black" points="588.16,-168.62 579.69,-162.25 582.34,-172.51 588.16,-168.62"/>
<text text-anchor="start" x="459.12" y="-201.18" font-family="Helvetica,sans-Serif" font-size="10.00">RefreshStatus &#45; Maintain error state &#160;&#160;</text>
</g>
<!-- finalizing -->
<g id="node2" class="node state regular">
<title>finalizing</title>
<polygon fill="#ffffff" fill-opacity="0.003922" stroke="none" stroke-width="2" points="136.38,-233.93 61.88,-233.93 61.88,-197.68 136.38,-197.68 136.38,-233.93"/>
<text text-anchor="start" x="72.88" y="-211.53" font-family="Helvetica,sans-Serif" font-size="12.00">finalizing</text>
<path fill="none" stroke="black" stroke-width="2" d="M74.29,-198.68C74.29,-198.68 123.96,-198.68 123.96,-198.68 129.67,-198.68 135.38,-204.39 135.38,-210.1 135.38,-210.1 135.38,-221.52 135.38,-221.52 135.38,-227.23 129.67,-232.93 123.96,-232.93 123.96,-232.93 74.29,-232.93 74.29,-232.93 68.58,-232.93 62.88,-227.23 62.88,-221.52 62.88,-221.52 62.88,-210.1 62.88,-210.1 62.88,-204.39 68.58,-198.68 74.29,-198.68"/>
</g>
<!-- finalizing&#45;&gt;error -->
<g id="edge3" class="edge transition">
<title>finalizing&#45;&gt;error</title>
<path fill="none" stroke="black" d="M136.13,-229.23C211.05,-254.71 386.62,-301.47 505,-229.81 525.37,-217.48 536.96,-192.57 543.26,-172.72"/>
<polygon fill="black" stroke="black" points="546.59,-173.78 545.97,-163.2 539.86,-171.86 546.59,-173.78"/>
<text text-anchor="start" x="253.75" y="-271.16" font-family="Helvetica,sans-Serif" font-size="10.00">RefreshStatus &#45; Timed out while installing &#160;&#160;</text>
</g>
<!-- finalizing&#45;&gt;error -->
<g id="edge4" class="edge transition">
<title>finalizing&#45;&gt;error</title>
<path fill="none" stroke="black" d="M136.09,-214.6C232.14,-211.27 488.51,-201.7 505,-193.81 515.79,-188.65 525.15,-179.61 532.5,-170.63"/>
<polygon fill="black" stroke="black" points="535.28,-172.76 538.49,-162.66 529.68,-168.55 535.28,-172.76"/>
<text text-anchor="start" x="254.12" y="-214.55" font-family="Helvetica,sans-Serif" font-size="10.00">RefreshStatus &#45; Timed out while finalizing &#160;&#160;</text>
</g>
<!-- finalizing&#45;&gt;error -->
<g id="edge5" class="edge transition">
<title>finalizing&#45;&gt;error</title>
<path fill="none" stroke="black" d="M136.35,-201.06C158.94,-192.53 188.83,-182.46 216.25,-177.06 342.45,-152.22 378.56,-181.35 505,-157.81 507.33,-157.38 509.7,-156.86 512.08,-156.29"/>
<polygon fill="black" stroke="black" points="512.94,-159.69 521.67,-153.69 511.1,-152.93 512.94,-159.69"/>
<text text-anchor="start" x="216.25" y="-180.31" font-family="Helvetica,sans-Serif" font-size="10.00">RefreshStatus &#45; Finalizing stage timed out. &#160;Move to error &#160;&#160;</text>
</g>
<!-- installing -->
<g id="node3" class="node state regular">
<title>installing</title>
<polygon fill="#ffffff" fill-opacity="0.003922" stroke="none" stroke-width="2" points="136.38,-138.93 61.88,-138.93 61.88,-102.68 136.38,-102.68 136.38,-138.93"/>
<text text-anchor="start" x="72.88" y="-116.53" font-family="Helvetica,sans-Serif" font-size="12.00">installing</text>
<path fill="none" stroke="black" stroke-width="2" d="M74.29,-103.68C74.29,-103.68 123.96,-103.68 123.96,-103.68 129.67,-103.68 135.38,-109.39 135.38,-115.1 135.38,-115.1 135.38,-126.52 135.38,-126.52 135.38,-132.23 129.67,-137.93 123.96,-137.93 123.96,-137.93 74.29,-137.93 74.29,-137.93 68.58,-137.93 62.88,-132.23 62.88,-126.52 62.88,-126.52 62.88,-115.1 62.88,-115.1 62.88,-109.39 68.58,-103.68 74.29,-103.68"/>
</g>
<!-- installing&#45;&gt;error -->
<g id="edge6" class="edge transition">
<title>installing&#45;&gt;error</title>
<path fill="none" stroke="black" d="M136.18,-122.65C219.82,-126.93 426.41,-137.49 511.96,-141.86"/>
<polygon fill="black" stroke="black" points="511.52,-145.35 521.69,-142.36 511.88,-138.36 511.52,-145.35"/>
<text text-anchor="start" x="253.75" y="-144.67" font-family="Helvetica,sans-Serif" font-size="10.00">RefreshStatus &#45; Timed out while installing &#160;&#160;</text>
</g>
<!-- installing&#45;&gt;error -->
<g id="edge7" class="edge transition">
<title>installing&#45;&gt;error</title>
<path fill="none" stroke="black" d="M136.16,-116.61C159.06,-114.15 189.35,-111.3 216.25,-110.06 344.45,-104.14 383.25,-69.48 505,-110.06 511.29,-112.16 517.41,-115.52 523.01,-119.32"/>
<polygon fill="black" stroke="black" points="520.57,-121.86 530.66,-125.09 524.78,-116.27 520.57,-121.86"/>
<text text-anchor="start" x="276.62" y="-113.31" font-family="Helvetica,sans-Serif" font-size="10.00">RefreshStatus &#45; Installation error &#160;&#160;</text>
</g>
<!-- installing&#45;pending&#45;user&#45;action -->
<g id="node4" class="node state regular">
<title>installing&#45;pending&#45;user&#45;action</title>
<polygon fill="#ffffff" fill-opacity="0.003922" stroke="none" stroke-width="2" points="198.25,-75.93 0,-75.93 0,-39.68 198.25,-39.68 198.25,-75.93"/>
<text text-anchor="start" x="11" y="-53.53" font-family="Helvetica,sans-Serif" font-size="12.00">installing&#45;pending&#45;user&#45;action</text>
<path fill="none" stroke="black" stroke-width="2" d="M12.42,-40.68C12.42,-40.68 185.83,-40.68 185.83,-40.68 191.54,-40.68 197.25,-46.39 197.25,-52.1 197.25,-52.1 197.25,-63.52 197.25,-63.52 197.25,-69.23 191.54,-74.93 185.83,-74.93 185.83,-74.93 12.42,-74.93 12.42,-74.93 6.71,-74.93 1,-69.23 1,-63.52 1,-63.52 1,-52.1 1,-52.1 1,-46.39 6.71,-40.68 12.42,-40.68"/>
</g>
<!-- installing&#45;pending&#45;user&#45;action&#45;&gt;error -->
<g id="edge8" class="edge transition">
<title>installing&#45;pending&#45;user&#45;action&#45;&gt;error</title>
<path fill="none" stroke="black" d="M198.2,-57.06C309.52,-56.94 479.08,-59.25 505,-74.06 520.91,-83.15 532.12,-100.41 539.37,-115.49"/>
<polygon fill="black" stroke="black" points="536.12,-116.8 543.35,-124.55 542.53,-113.99 536.12,-116.8"/>
<text text-anchor="start" x="250" y="-77.31" font-family="Helvetica,sans-Serif" font-size="10.00">RefreshStatus &#45; TODO: Name this transition &#160;&#160;</text>
</g>
<!-- installing&#45;pending&#45;user&#45;action&#45;&gt;error -->
<g id="edge9" class="edge transition">
<title>installing&#45;pending&#45;user&#45;action&#45;&gt;error</title>
<path fill="none" stroke="black" d="M146.28,-39.69C226.57,-11.43 393.97,32.81 505,-40.06 529.97,-56.44 541.15,-89.99 546.12,-114.51"/>
<polygon fill="black" stroke="black" points="542.65,-114.98 547.83,-124.22 549.54,-113.77 542.65,-114.98"/>
<text text-anchor="start" x="238" y="-43.31" font-family="Helvetica,sans-Serif" font-size="10.00">RefreshStatus &#45; Timed out while waiting for user &#160;&#160;</text>
</g>
</g>
</svg>
