<?xml version="1.0" encoding="UTF-8" standalone="no"?>
<!DOCTYPE svg PUBLIC "-//W3C//DTD SVG 1.1//EN"
 "http://www.w3.org/Graphics/SVG/1.1/DTD/svg11.dtd">
<!-- Generated by graphviz version 12.1.0 (20240811.2233)
 -->
<!-- Title: state transitions Pages: 1 -->
<svg width="686pt" height="220pt"
 viewBox="0.00 0.00 685.75 220.44" xmlns="http://www.w3.org/2000/svg" xmlns:xlink="http://www.w3.org/1999/xlink">
<g id="graph0" class="graph" transform="scale(1 1) rotate(0) translate(4 216.44)">
<title>state transitions</title>
<polygon fill="white" stroke="none" points="-4,4 -4,-216.44 681.75,-216.44 681.75,4 -4,4"/>
<!-- insufficient -->
<g id="node1" class="node state regular">
<title>insufficient</title>
<polygon fill="#ffffff" fill-opacity="0.003922" stroke="none" stroke-width="2" points="128.12,-204.58 41.62,-204.58 41.62,-168.33 128.12,-168.33 128.12,-204.58"/>
<text text-anchor="start" x="52.62" y="-182.18" font-family="Helvetica,sans-Serif" font-size="12.00">insufficient</text>
<path fill="none" stroke="black" stroke-width="2" d="M54.04,-169.33C54.04,-169.33 115.71,-169.33 115.71,-169.33 121.42,-169.33 127.12,-175.04 127.12,-180.75 127.12,-180.75 127.12,-192.17 127.12,-192.17 127.12,-197.88 121.42,-203.58 115.71,-203.58 115.71,-203.58 54.04,-203.58 54.04,-203.58 48.33,-203.58 42.62,-197.88 42.62,-192.17 42.62,-192.17 42.62,-180.75 42.62,-180.75 42.62,-175.04 48.33,-169.33 54.04,-169.33"/>
</g>
<!-- ready -->
<g id="node2" class="node state regular">
<title>ready</title>
<polygon fill="#ffffff" fill-opacity="0.003922" stroke="none" stroke-width="2" points="560.25,-114.58 504.25,-114.58 504.25,-78.33 560.25,-78.33 560.25,-114.58"/>
<text text-anchor="start" x="515.38" y="-92.18" font-family="Helvetica,sans-Serif" font-size="12.00">ready</text>
<path fill="none" stroke="black" stroke-width="2" d="M516.67,-79.33C516.67,-79.33 547.83,-79.33 547.83,-79.33 553.54,-79.33 559.25,-85.04 559.25,-90.75 559.25,-90.75 559.25,-102.17 559.25,-102.17 559.25,-107.88 553.54,-113.58 547.83,-113.58 547.83,-113.58 516.67,-113.58 516.67,-113.58 510.96,-113.58 505.25,-107.88 505.25,-102.17 505.25,-102.17 505.25,-90.75 505.25,-90.75 505.25,-85.04 510.96,-79.33 516.67,-79.33"/>
</g>
<!-- insufficient&#45;&gt;ready -->
<g id="edge1" class="edge transition">
<title>insufficient&#45;&gt;ready</title>
<path fill="none" stroke="black" d="M127.97,-192.72C204.29,-201.98 368.5,-212.19 486.25,-150.46 497.8,-144.4 507.55,-134 514.98,-123.92"/>
<polygon fill="black" stroke="black" points="517.8,-126.01 520.54,-115.77 512.02,-122.07 517.8,-126.01"/>
<text text-anchor="start" x="191.5" y="-202.94" font-family="Helvetica,sans-Serif" font-size="10.00">RefreshStatus &#45; Refresh discovering cluster &#45; detect ready &#160;&#160;</text>
</g>
<!-- ready&#45;&gt;ready -->
<g id="edge6" class="edge transition">
<title>ready&#45;&gt;ready</title>
<path fill="none" stroke="black" d="M504.51,-107.37C486.58,-119.18 495.83,-132.58 532.25,-132.58 560.42,-132.58 572.33,-124.56 567.99,-115.47"/>
<polygon fill="black" stroke="black" points="570.57,-113.1 561.05,-108.45 565.59,-118.02 570.57,-113.1"/>
<text text-anchor="start" x="386.75" y="-135.83" font-family="Helvetica,sans-Serif" font-size="10.00">RefreshStatus &#45; Refresh discovering cluster &#45; detect ready &#160;&#160;</text>
</g>
<!-- pending&#45;for&#45;input -->
<g id="node3" class="node state regular">
<title>pending&#45;for&#45;input</title>
<polygon fill="#ffffff" fill-opacity="0.003922" stroke="none" stroke-width="2" points="147.62,-150.58 22.12,-150.58 22.12,-114.33 147.62,-114.33 147.62,-150.58"/>
<text text-anchor="start" x="33.12" y="-128.18" font-family="Helvetica,sans-Serif" font-size="12.00">pending&#45;for&#45;input</text>
<path fill="none" stroke="black" stroke-width="2" d="M34.54,-115.33C34.54,-115.33 135.21,-115.33 135.21,-115.33 140.92,-115.33 146.62,-121.04 146.62,-126.75 146.62,-126.75 146.62,-138.17 146.62,-138.17 146.62,-143.88 140.92,-149.58 135.21,-149.58 135.21,-149.58 34.54,-149.58 34.54,-149.58 28.83,-149.58 23.12,-143.88 23.12,-138.17 23.12,-138.17 23.12,-126.75 23.12,-126.75 23.12,-121.04 28.83,-115.33 34.54,-115.33"/>
</g>
<!-- pending&#45;for&#45;input&#45;&gt;ready -->
<g id="edge2" class="edge transition">
<title>pending&#45;for&#45;input&#45;&gt;ready</title>
<path fill="none" stroke="black" d="M147.47,-133.75C226.55,-134.35 367.73,-131.81 486.25,-110.46 488.58,-110.04 490.95,-109.54 493.34,-108.97"/>
<polygon fill="black" stroke="black" points="494.18,-112.37 502.93,-106.39 492.36,-105.61 494.18,-112.37"/>
<text text-anchor="start" x="191.5" y="-136.96" font-family="Helvetica,sans-Serif" font-size="10.00">RefreshStatus &#45; Refresh discovering cluster &#45; detect ready &#160;&#160;</text>
</g>
<!-- preparing&#45;for&#45;installation -->
<g id="node4" class="node state regular">
<title>preparing&#45;for&#45;installation</title>
<polygon fill="#ffffff" fill-opacity="0.003922" stroke="none" stroke-width="2" points="169.75,-78.58 0,-78.58 0,-42.33 169.75,-42.33 169.75,-78.58"/>
<text text-anchor="start" x="11" y="-56.18" font-family="Helvetica,sans-Serif" font-size="12.00">preparing&#45;for&#45;installation</text>
<path fill="none" stroke="black" stroke-width="2" d="M12.42,-43.33C12.42,-43.33 157.33,-43.33 157.33,-43.33 163.04,-43.33 168.75,-49.04 168.75,-54.75 168.75,-54.75 168.75,-66.17 168.75,-66.17 168.75,-71.88 163.04,-77.58 157.33,-77.58 157.33,-77.58 12.42,-77.58 12.42,-77.58 6.71,-77.58 1,-71.88 1,-66.17 1,-66.17 1,-54.75 1,-54.75 1,-49.04 6.71,-43.33 12.42,-43.33"/>
</g>
<!-- preparing&#45;for&#45;installation&#45;&gt;ready -->
<g id="edge3" class="edge transition">
<title>preparing&#45;for&#45;installation&#45;&gt;ready</title>
<path fill="none" stroke="black" d="M169.49,-72.45C175.66,-73.18 181.8,-73.86 187.75,-74.46 202.71,-75.96 406.5,-88.7 492.93,-94.08"/>
<polygon fill="black" stroke="black" points="492.61,-97.57 502.81,-94.69 493.04,-90.58 492.61,-97.57"/>
<text text-anchor="start" x="187.75" y="-96.77" font-family="Helvetica,sans-Serif" font-size="10.00">Cancel Installation &#45; Cancel installation of preparing cluster &#160;&#160;</text>
</g>
<!-- preparing&#45;for&#45;installation&#45;&gt;ready -->
<g id="edge4" class="edge transition">
<title>preparing&#45;for&#45;installation&#45;&gt;ready</title>
<path fill="none" stroke="black" d="M169.54,-58.02C175.7,-57.89 181.82,-57.79 187.75,-57.71 254.08,-56.81 424.06,-34.62 486.25,-57.71 494.09,-60.62 501.48,-65.58 507.92,-70.99"/>
<polygon fill="black" stroke="black" points="505.23,-73.27 514.95,-77.48 509.98,-68.13 505.23,-73.27"/>
<text text-anchor="start" x="191.12" y="-60.96" font-family="Helvetica,sans-Serif" font-size="10.00">RefreshStatus &#45; Refresh preparing cluster &#45; detect timeout &#160;&#160;</text>
</g>
<!-- preparing&#45;for&#45;installation&#45;&gt;ready -->
<g id="edge5" class="edge transition">
<title>preparing&#45;for&#45;installation&#45;&gt;ready</title>
<path fill="none" stroke="black" d="M131.08,-42.34C208.75,-14.28 370.34,30.42 486.25,-30.71 501.36,-38.68 512.37,-54.26 519.71,-68.26"/>
<polygon fill="black" stroke="black" points="516.49,-69.63 523.97,-77.14 522.8,-66.61 516.49,-69.63"/>
<text text-anchor="start" x="213.25" y="-33.96" font-family="Helvetica,sans-Serif" font-size="10.00">RefreshStatus &#45; Refresh preparing cluster &#45; failed &#160;&#160;</text>
</g>
</g>
</svg>
