<?xml version="1.0" encoding="UTF-8" standalone="no"?>
<!DOCTYPE svg PUBLIC "-//W3C//DTD SVG 1.1//EN"
 "http://www.w3.org/Graphics/SVG/1.1/DTD/svg11.dtd">
<!-- Generated by graphviz version 7.1.0 (0)
 -->
<!-- Title: state transitions Pages: 1 -->
<svg width="209pt" height="73pt"
 viewBox="0.00 0.00 209.00 73.00" xmlns="http://www.w3.org/2000/svg" xmlns:xlink="http://www.w3.org/1999/xlink">
<g id="graph0" class="graph" transform="scale(1 1) rotate(0) translate(4 69)">
<title>state transitions</title>
<polygon fill="white" stroke="none" points="-4,4 -4,-69 205,-69 205,4 -4,4"/>
<!-- adding&#45;hosts -->
<g id="node1" class="node state regular">
<title>adding&#45;hosts</title>
<polygon fill="#ffffff" fill-opacity="0.003922" stroke="none" stroke-width="2" points="146.5,-36 54.5,-36 54.5,0 146.5,0 146.5,-36"/>
<text text-anchor="start" x="65.5" y="-14.4" font-family="Helvetica,sans-Serif" font-size="12.00">adding&#45;hosts</text>
<path fill="none" stroke="black" stroke-width="2" d="M66.5,-1.5C66.5,-1.5 134.5,-1.5 134.5,-1.5 140,-1.5 145.5,-7 145.5,-12.5 145.5,-12.5 145.5,-23.5 145.5,-23.5 145.5,-29 140,-34.5 134.5,-34.5 134.5,-34.5 66.5,-34.5 66.5,-34.5 61,-34.5 55.5,-29 55.5,-23.5 55.5,-23.5 55.5,-12.5 55.5,-12.5 55.5,-7 61,-1.5 66.5,-1.5"/>
</g>
<!-- adding&#45;hosts&#45;&gt;adding&#45;hosts -->
<g id="edge1" class="edge transition">
<title>adding&#45;hosts&#45;&gt;adding&#45;hosts</title>
<path fill="none" stroke="black" d="M83.96,-35.78C81.15,-45.31 86.66,-54 100.5,-54 108.28,-54 113.43,-51.25 115.95,-47.15"/>
<polygon fill="black" stroke="black" points="119.42,-47.58 116.89,-37.29 112.45,-46.91 119.42,-47.58"/>
<text text-anchor="start" x="0" y="-57" font-family="Helvetica,sans-Serif" font-size="10.00">RefreshStatus &#45; Maintain adding&#45;hosts state &#160;&#160;</text>
</g>
</g>
</svg>
