<?xml version="1.0" encoding="UTF-8" standalone="no"?>
<!DOCTYPE svg PUBLIC "-//W3C//DTD SVG 1.1//EN"
 "http://www.w3.org/Graphics/SVG/1.1/DTD/svg11.dtd">
<!-- Generated by graphviz version 5.0.0 (0)
 -->
<!-- Title: state transitions Pages: 1 -->
<svg width="620pt" height="209pt"
 viewBox="0.00 0.00 620.00 208.86" xmlns="http://www.w3.org/2000/svg" xmlns:xlink="http://www.w3.org/1999/xlink">
<g id="graph0" class="graph" transform="scale(1 1) rotate(0) translate(4 204.86)">
<title>state transitions</title>
<polygon fill="white" stroke="transparent" points="-4,4 -4,-204.86 616,-204.86 616,4 -4,4"/>
<!-- insufficient -->
<g id="node1" class="node state regular">
<title>insufficient</title>
<polygon fill="#ffffff" fill-opacity="0.003922" stroke="transparent" stroke-width="2" points="116,-200.86 36,-200.86 36,-164.86 116,-164.86 116,-200.86"/>
<text text-anchor="start" x="47" y="-179.26" font-family="Helvetica,sans-Serif" font-size="12.00">insufficient</text>
<path fill="none" stroke="black" stroke-width="2" d="M48,-166.36C48,-166.36 104,-166.36 104,-166.36 109.5,-166.36 115,-171.86 115,-177.36 115,-177.36 115,-188.36 115,-188.36 115,-193.86 109.5,-199.36 104,-199.36 104,-199.36 48,-199.36 48,-199.36 42.5,-199.36 37,-193.86 37,-188.36 37,-188.36 37,-177.36 37,-177.36 37,-171.86 42.5,-166.36 48,-166.36"/>
</g>
<!-- ready -->
<g id="node4" class="node state regular">
<title>ready</title>
<polygon fill="#ffffff" fill-opacity="0.003922" stroke="transparent" stroke-width="2" points="509,-112.86 453,-112.86 453,-76.86 509,-76.86 509,-112.86"/>
<text text-anchor="start" x="465.5" y="-91.26" font-family="Helvetica,sans-Serif" font-size="12.00">ready</text>
<path fill="none" stroke="black" stroke-width="2" d="M465,-78.36C465,-78.36 497,-78.36 497,-78.36 502.5,-78.36 508,-83.86 508,-89.36 508,-89.36 508,-100.36 508,-100.36 508,-105.86 502.5,-111.36 497,-111.36 497,-111.36 465,-111.36 465,-111.36 459.5,-111.36 454,-105.86 454,-100.36 454,-100.36 454,-89.36 454,-89.36 454,-83.86 459.5,-78.36 465,-78.36"/>
</g>
<!-- insufficient&#45;&gt;ready -->
<g id="edge4" class="edge transition">
<title>insufficient&#45;&gt;ready</title>
<path fill="none" stroke="black" d="M116.01,-186.96C184.55,-192.38 329.32,-195.81 435,-142.86 445.22,-137.75 454.32,-129.3 461.62,-120.91"/>
<polygon fill="black" stroke="black" points="464.46,-122.96 468.04,-112.99 459.03,-118.55 464.46,-122.96"/>
<text text-anchor="start" x="171.5" y="-191.86" font-family="Helvetica,sans-Serif" font-size="10.00">RefreshStatus &#45; Refresh discovering cluster &#45; detect ready &#160;&#160;</text>
</g>
<!-- pending&#45;for&#45;input -->
<g id="node2" class="node state regular">
<title>pending&#45;for&#45;input</title>
<polygon fill="#ffffff" fill-opacity="0.003922" stroke="transparent" stroke-width="2" points="132.5,-146.86 19.5,-146.86 19.5,-110.86 132.5,-110.86 132.5,-146.86"/>
<text text-anchor="start" x="31" y="-125.26" font-family="Helvetica,sans-Serif" font-size="12.00">pending&#45;for&#45;input</text>
<path fill="none" stroke="black" stroke-width="2" d="M31.5,-112.36C31.5,-112.36 120.5,-112.36 120.5,-112.36 126,-112.36 131.5,-117.86 131.5,-123.36 131.5,-123.36 131.5,-134.36 131.5,-134.36 131.5,-139.86 126,-145.36 120.5,-145.36 120.5,-145.36 31.5,-145.36 31.5,-145.36 26,-145.36 20.5,-139.86 20.5,-134.36 20.5,-134.36 20.5,-123.36 20.5,-123.36 20.5,-117.86 26,-112.36 31.5,-112.36"/>
</g>
<!-- pending&#45;for&#45;input&#45;&gt;ready -->
<g id="edge2" class="edge transition">
<title>pending&#45;for&#45;input&#45;&gt;ready</title>
<path fill="none" stroke="black" d="M132.58,-128.86C203.29,-128.09 328.97,-124.08 435,-106.86 437.51,-106.46 440.09,-105.97 442.68,-105.42"/>
<polygon fill="black" stroke="black" points="443.64,-108.79 452.58,-103.1 442.05,-101.97 443.64,-108.79"/>
<text text-anchor="start" x="171.5" y="-130.86" font-family="Helvetica,sans-Serif" font-size="10.00">RefreshStatus &#45; Refresh discovering cluster &#45; detect ready &#160;&#160;</text>
</g>
<!-- preparing&#45;for&#45;installation -->
<g id="node3" class="node state regular">
<title>preparing&#45;for&#45;installation</title>
<polygon fill="#ffffff" fill-opacity="0.003922" stroke="transparent" stroke-width="2" points="152,-78.86 0,-78.86 0,-42.86 152,-42.86 152,-78.86"/>
<text text-anchor="start" x="11" y="-57.26" font-family="Helvetica,sans-Serif" font-size="12.00">preparing&#45;for&#45;installation</text>
<path fill="none" stroke="black" stroke-width="2" d="M12,-44.36C12,-44.36 140,-44.36 140,-44.36 145.5,-44.36 151,-49.86 151,-55.36 151,-55.36 151,-66.36 151,-66.36 151,-71.86 145.5,-77.36 140,-77.36 140,-77.36 12,-77.36 12,-77.36 6.5,-77.36 1,-71.86 1,-66.36 1,-66.36 1,-55.36 1,-55.36 1,-49.86 6.5,-44.36 12,-44.36"/>
</g>
<!-- preparing&#45;for&#45;installation&#45;&gt;ready -->
<g id="edge1" class="edge transition">
<title>preparing&#45;for&#45;installation&#45;&gt;ready</title>
<path fill="none" stroke="black" d="M152.08,-70.93C158.14,-71.63 164.17,-72.28 170,-72.86 268.05,-82.66 383.98,-89.68 442.37,-92.89"/>
<polygon fill="black" stroke="black" points="442.41,-96.4 452.59,-93.45 442.79,-89.41 442.41,-96.4"/>
<text text-anchor="start" x="170" y="-94.86" font-family="Helvetica,sans-Serif" font-size="10.00">Cancel Installation &#45; Cancel installation of preparing cluster &#160;&#160;</text>
</g>
<!-- preparing&#45;for&#45;installation&#45;&gt;ready -->
<g id="edge5" class="edge transition">
<title>preparing&#45;for&#45;installation&#45;&gt;ready</title>
<path fill="none" stroke="black" d="M152.12,-59.99C158.17,-59.94 164.19,-59.9 170,-59.86 287.78,-59.23 323.6,-21.64 435,-59.86 441.79,-62.2 448.35,-66.02 454.26,-70.3"/>
<polygon fill="black" stroke="black" points="452.4,-73.29 462.41,-76.77 456.76,-67.81 452.4,-73.29"/>
<text text-anchor="start" x="172" y="-62.86" font-family="Helvetica,sans-Serif" font-size="10.00">RefreshStatus &#45; Refresh preparing cluster &#45; detect timeout &#160;&#160;</text>
</g>
<!-- preparing&#45;for&#45;installation&#45;&gt;ready -->
<g id="edge6" class="edge transition">
<title>preparing&#45;for&#45;installation&#45;&gt;ready</title>
<path fill="none" stroke="black" d="M118.31,-42.85C188.16,-15.33 332.02,28.47 435,-26.86 450.96,-35.44 462.21,-52.43 469.47,-67.29"/>
<polygon fill="black" stroke="black" points="466.37,-68.95 473.67,-76.63 472.76,-66.07 466.37,-68.95"/>
<text text-anchor="start" x="191.5" y="-29.86" font-family="Helvetica,sans-Serif" font-size="10.00">RefreshStatus &#45; Refresh preparing cluster &#45; failed &#160;&#160;</text>
</g>
<!-- ready&#45;&gt;ready -->
<g id="edge3" class="edge transition">
<title>ready&#45;&gt;ready</title>
<path fill="none" stroke="black" d="M452.72,-108.16C440.63,-119.26 450.06,-130.86 481,-130.86 503.72,-130.86 514.84,-124.61 514.36,-116.88"/>
<polygon fill="black" stroke="black" points="517.34,-115.04 509.28,-108.16 511.29,-118.56 517.34,-115.04"/>
<text text-anchor="start" x="350" y="-133.86" font-family="Helvetica,sans-Serif" font-size="10.00">RefreshStatus &#45; Refresh discovering cluster &#45; detect ready &#160;&#160;</text>
</g>
</g>
</svg>
