<?xml version="1.0" encoding="UTF-8" standalone="no"?>
<!DOCTYPE svg PUBLIC "-//W3C//DTD SVG 1.1//EN"
 "http://www.w3.org/Graphics/SVG/1.1/DTD/svg11.dtd">
<!-- Generated by graphviz version 12.1.0 (20240811.2233)
 -->
<!-- Title: state transitions Pages: 1 -->
<svg width="718pt" height="206pt"
 viewBox="0.00 0.00 718.25 206.25" xmlns="http://www.w3.org/2000/svg" xmlns:xlink="http://www.w3.org/1999/xlink">
<g id="graph0" class="graph" transform="scale(1 1) rotate(0) translate(4 202.25)">
<title>state transitions</title>
<polygon fill="white" stroke="none" points="-4,4 -4,-202.25 714.25,-202.25 714.25,4 -4,4"/>
<!-- cancelled -->
<g id="node1" class="node state regular">
<title>cancelled</title>
<polygon fill="#ffffff" fill-opacity="0.003922" stroke="none" stroke-width="2" points="610.25,-117.25 531.25,-117.25 531.25,-81 610.25,-81 610.25,-117.25"/>
<text text-anchor="start" x="542.25" y="-94.85" font-family="Helvetica,sans-Serif" font-size="12.00">cancelled</text>
<path fill="none" stroke="black" stroke-width="2" d="M543.67,-82C543.67,-82 597.83,-82 597.83,-82 603.54,-82 609.25,-87.71 609.25,-93.42 609.25,-93.42 609.25,-104.83 609.25,-104.83 609.25,-110.54 603.54,-116.25 597.83,-116.25 597.83,-116.25 543.67,-116.25 543.67,-116.25 537.96,-116.25 532.25,-110.54 532.25,-104.83 532.25,-104.83 532.25,-93.42 532.25,-93.42 532.25,-87.71 537.96,-82 543.67,-82"/>
</g>
<!-- cancelled&#45;&gt;cancelled -->
<g id="edge1" class="edge transition">
<title>cancelled&#45;&gt;cancelled</title>
<path fill="none" stroke="black" d="M552.23,-116.97C549.09,-126.53 555.26,-135.25 570.75,-135.25 579.46,-135.25 585.23,-132.49 588.04,-128.38"/>
<polygon fill="black" stroke="black" points="591.52,-128.79 589.1,-118.47 584.56,-128.04 591.52,-128.79"/>
<text text-anchor="start" x="431.25" y="-138.5" font-family="Helvetica,sans-Serif" font-size="10.00">RefreshStatus &#45; Log collection timeout during cancelled &#160;&#160;</text>
</g>
<!-- cancelled&#45;&gt;cancelled -->
<g id="edge2" class="edge transition">
<title>cancelled&#45;&gt;cancelled</title>
<path fill="none" stroke="black" d="M539.78,-117.14C523.21,-134.41 533.53,-153.25 570.75,-153.25 601.28,-153.25 613.71,-140.57 608.04,-126.48"/>
<polygon fill="black" stroke="black" points="611.07,-124.71 602.56,-118.4 605.28,-128.64 611.07,-124.71"/>
<text text-anchor="start" x="467.25" y="-156.5" font-family="Helvetica,sans-Serif" font-size="10.00">RefreshStatus &#45; Maintain cancelled state &#160;&#160;</text>
</g>
<!-- error -->
<g id="node2" class="node state regular">
<title>error</title>
<polygon fill="#ffffff" fill-opacity="0.003922" stroke="none" stroke-width="2" points="127.12,-198.25 71.12,-198.25 71.12,-162 127.12,-162 127.12,-198.25"/>
<text text-anchor="start" x="84.5" y="-175.85" font-family="Helvetica,sans-Serif" font-size="12.00">error</text>
<path fill="none" stroke="black" stroke-width="2" d="M83.54,-163C83.54,-163 114.71,-163 114.71,-163 120.42,-163 126.12,-168.71 126.12,-174.42 126.12,-174.42 126.12,-185.83 126.12,-185.83 126.12,-191.54 120.42,-197.25 114.71,-197.25 114.71,-197.25 83.54,-197.25 83.54,-197.25 77.83,-197.25 72.12,-191.54 72.12,-185.83 72.12,-185.83 72.12,-174.42 72.12,-174.42 72.12,-168.71 77.83,-163 83.54,-163"/>
</g>
<!-- error&#45;&gt;cancelled -->
<g id="edge3" class="edge transition">
<title>error&#45;&gt;cancelled</title>
<path fill="none" stroke="black" d="M126.69,-181.52C193.73,-184.16 374.34,-185.73 513.25,-136.12 521.87,-133.05 530.48,-128.41 538.3,-123.44"/>
<polygon fill="black" stroke="black" points="540.13,-126.43 546.45,-117.93 536.21,-120.63 540.13,-126.43"/>
<text text-anchor="start" x="216.25" y="-185.29" font-family="Helvetica,sans-Serif" font-size="10.00">Cancel Installation &#45; Cancel installation of installing cluster &#160;&#160;</text>
</g>
<!-- finalizing -->
<g id="node3" class="node state regular">
<title>finalizing</title>
<polygon fill="#ffffff" fill-opacity="0.003922" stroke="none" stroke-width="2" points="136.38,-144.25 61.88,-144.25 61.88,-108 136.38,-108 136.38,-144.25"/>
<text text-anchor="start" x="72.88" y="-121.85" font-family="Helvetica,sans-Serif" font-size="12.00">finalizing</text>
<path fill="none" stroke="black" stroke-width="2" d="M74.29,-109C74.29,-109 123.96,-109 123.96,-109 129.67,-109 135.38,-114.71 135.38,-120.42 135.38,-120.42 135.38,-131.83 135.38,-131.83 135.38,-137.54 129.67,-143.25 123.96,-143.25 123.96,-143.25 74.29,-143.25 74.29,-143.25 68.58,-143.25 62.88,-137.54 62.88,-131.83 62.88,-131.83 62.88,-120.42 62.88,-120.42 62.88,-114.71 68.58,-109 74.29,-109"/>
</g>
<!-- finalizing&#45;&gt;cancelled -->
<g id="edge4" class="edge transition">
<title>finalizing&#45;&gt;cancelled</title>
<path fill="none" stroke="black" d="M136.2,-124.05C219.39,-119.27 424.85,-107.46 519.96,-101.99"/>
<polygon fill="black" stroke="black" points="519.97,-105.49 529.76,-101.42 519.57,-98.5 519.97,-105.49"/>
<text text-anchor="start" x="216.25" y="-122.13" font-family="Helvetica,sans-Serif" font-size="10.00">Cancel Installation &#45; Cancel installation of installing cluster &#160;&#160;</text>
</g>
<!-- installing -->
<g id="node4" class="node state regular">
<title>installing</title>
<polygon fill="#ffffff" fill-opacity="0.003922" stroke="none" stroke-width="2" points="136.38,-90.25 61.88,-90.25 61.88,-54 136.38,-54 136.38,-90.25"/>
<text text-anchor="start" x="72.88" y="-67.85" font-family="Helvetica,sans-Serif" font-size="12.00">installing</text>
<path fill="none" stroke="black" stroke-width="2" d="M74.29,-55C74.29,-55 123.96,-55 123.96,-55 129.67,-55 135.38,-60.71 135.38,-66.42 135.38,-66.42 135.38,-77.83 135.38,-77.83 135.38,-83.54 129.67,-89.25 123.96,-89.25 123.96,-89.25 74.29,-89.25 74.29,-89.25 68.58,-89.25 62.88,-83.54 62.88,-77.83 62.88,-77.83 62.88,-66.42 62.88,-66.42 62.88,-60.71 68.58,-55 74.29,-55"/>
</g>
<!-- installing&#45;&gt;cancelled -->
<g id="edge5" class="edge transition">
<title>installing&#45;&gt;cancelled</title>
<path fill="none" stroke="black" d="M136.25,-70.79C208.33,-68.67 374.95,-66.54 513.25,-85.38 515.56,-85.69 517.9,-86.06 520.27,-86.47"/>
<polygon fill="black" stroke="black" points="519.38,-89.86 529.87,-88.36 520.74,-82.99 519.38,-89.86"/>
<text text-anchor="start" x="216.25" y="-88.62" font-family="Helvetica,sans-Serif" font-size="10.00">Cancel Installation &#45; Cancel installation of installing cluster &#160;&#160;</text>
</g>
<!-- installing&#45;pending&#45;user&#45;action -->
<g id="node5" class="node state regular">
<title>installing&#45;pending&#45;user&#45;action</title>
<polygon fill="#ffffff" fill-opacity="0.003922" stroke="none" stroke-width="2" points="198.25,-36.25 0,-36.25 0,0 198.25,0 198.25,-36.25"/>
<text text-anchor="start" x="11" y="-13.85" font-family="Helvetica,sans-Serif" font-size="12.00">installing&#45;pending&#45;user&#45;action</text>
<path fill="none" stroke="black" stroke-width="2" d="M12.42,-1C12.42,-1 185.83,-1 185.83,-1 191.54,-1 197.25,-6.71 197.25,-12.42 197.25,-12.42 197.25,-23.83 197.25,-23.83 197.25,-29.54 191.54,-35.25 185.83,-35.25 185.83,-35.25 12.42,-35.25 12.42,-35.25 6.71,-35.25 1,-29.54 1,-23.83 1,-23.83 1,-12.42 1,-12.42 1,-6.71 6.71,-1 12.42,-1"/>
</g>
<!-- installing&#45;pending&#45;user&#45;action&#45;&gt;cancelled -->
<g id="edge6" class="edge transition">
<title>installing&#45;pending&#45;user&#45;action&#45;&gt;cancelled</title>
<path fill="none" stroke="black" d="M197.84,-10.1C284.05,-6.72 411.45,-10.89 513.25,-52.38 525.04,-57.18 536.25,-65.37 545.52,-73.56"/>
<polygon fill="black" stroke="black" points="542.99,-75.98 552.67,-80.27 547.78,-70.88 542.99,-75.98"/>
<text text-anchor="start" x="216.25" y="-55.62" font-family="Helvetica,sans-Serif" font-size="10.00">Cancel Installation &#45; Cancel installation of installing cluster &#160;&#160;</text>
</g>
</g>
</svg>
