<?xml version="1.0" encoding="UTF-8" standalone="no"?>
<!DOCTYPE svg PUBLIC "-//W3C//DTD SVG 1.1//EN"
 "http://www.w3.org/Graphics/SVG/1.1/DTD/svg11.dtd">
<!-- Generated by graphviz version 12.1.0 (20240811.2233)
 -->
<!-- Title: state transitions Pages: 1 -->
<svg width="685pt" height="220pt"
 viewBox="0.00 0.00 685.00 220.37" xmlns="http://www.w3.org/2000/svg" xmlns:xlink="http://www.w3.org/1999/xlink">
<g id="graph0" class="graph" transform="scale(1 1) rotate(0) translate(4 216.37)">
<title>state transitions</title>
<polygon fill="white" stroke="none" points="-4,4 -4,-216.37 681,-216.37 681,4 -4,4"/>
<!-- insufficient -->
<g id="node1" class="node state regular">
<title>insufficient</title>
<polygon fill="#ffffff" fill-opacity="0.003922" stroke="none" stroke-width="2" points="128.12,-204.55 40.88,-204.55 40.88,-168.3 128.12,-168.3 128.12,-204.55"/>
<text text-anchor="start" x="51.88" y="-182.15" font-family="Helvetica,sans-Serif" font-size="12.00">insufficient</text>
<path fill="none" stroke="black" stroke-width="2" d="M53.29,-169.3C53.29,-169.3 115.71,-169.3 115.71,-169.3 121.42,-169.3 127.12,-175.01 127.12,-180.72 127.12,-180.72 127.12,-192.13 127.12,-192.13 127.12,-197.84 121.42,-203.55 115.71,-203.55 115.71,-203.55 53.29,-203.55 53.29,-203.55 47.58,-203.55 41.88,-197.84 41.88,-192.13 41.88,-192.13 41.88,-180.72 41.88,-180.72 41.88,-175.01 47.58,-169.3 53.29,-169.3"/>
</g>
<!-- ready -->
<g id="node2" class="node state regular">
<title>ready</title>
<polygon fill="#ffffff" fill-opacity="0.003922" stroke="none" stroke-width="2" points="559.5,-114.55 503.5,-114.55 503.5,-78.3 559.5,-78.3 559.5,-114.55"/>
<text text-anchor="start" x="514.62" y="-92.15" font-family="Helvetica,sans-Serif" font-size="12.00">ready</text>
<path fill="none" stroke="black" stroke-width="2" d="M515.92,-79.3C515.92,-79.3 547.08,-79.3 547.08,-79.3 552.79,-79.3 558.5,-85.01 558.5,-90.72 558.5,-90.72 558.5,-102.13 558.5,-102.13 558.5,-107.84 552.79,-113.55 547.08,-113.55 547.08,-113.55 515.92,-113.55 515.92,-113.55 510.21,-113.55 504.5,-107.84 504.5,-102.13 504.5,-102.13 504.5,-90.72 504.5,-90.72 504.5,-85.01 510.21,-79.3 515.92,-79.3"/>
</g>
<!-- insufficient&#45;&gt;ready -->
<g id="edge1" class="edge transition">
<title>insufficient&#45;&gt;ready</title>
<path fill="none" stroke="black" d="M127.85,-192.71C204.24,-201.95 368.02,-212.02 485.5,-150.43 497.05,-144.37 506.8,-133.96 514.23,-123.89"/>
<polygon fill="black" stroke="black" points="517.05,-125.97 519.79,-115.74 511.27,-122.03 517.05,-125.97"/>
<text text-anchor="start" x="190.75" y="-202.87" font-family="Helvetica,sans-Serif" font-size="10.00">RefreshStatus &#45; Refresh discovering cluster &#45; detect ready &#160;&#160;</text>
</g>
<!-- ready&#45;&gt;ready -->
<g id="edge6" class="edge transition">
<title>ready&#45;&gt;ready</title>
<path fill="none" stroke="black" d="M503.76,-107.34C485.83,-119.14 495.08,-132.55 531.5,-132.55 559.67,-132.55 571.58,-124.53 567.24,-115.43"/>
<polygon fill="black" stroke="black" points="569.82,-113.07 560.3,-108.41 564.84,-117.99 569.82,-113.07"/>
<text text-anchor="start" x="386" y="-135.8" font-family="Helvetica,sans-Serif" font-size="10.00">RefreshStatus &#45; Refresh discovering cluster &#45; detect ready &#160;&#160;</text>
</g>
<!-- pending&#45;for&#45;input -->
<g id="node3" class="node state regular">
<title>pending&#45;for&#45;input</title>
<polygon fill="#ffffff" fill-opacity="0.003922" stroke="none" stroke-width="2" points="146.88,-150.55 22.13,-150.55 22.13,-114.3 146.88,-114.3 146.88,-150.55"/>
<text text-anchor="start" x="33.12" y="-128.15" font-family="Helvetica,sans-Serif" font-size="12.00">pending&#45;for&#45;input</text>
<path fill="none" stroke="black" stroke-width="2" d="M34.54,-115.3C34.54,-115.3 134.46,-115.3 134.46,-115.3 140.17,-115.3 145.88,-121.01 145.88,-126.72 145.88,-126.72 145.88,-138.13 145.88,-138.13 145.88,-143.84 140.17,-149.55 134.46,-149.55 134.46,-149.55 34.54,-149.55 34.54,-149.55 28.83,-149.55 23.12,-143.84 23.12,-138.13 23.12,-138.13 23.12,-126.72 23.12,-126.72 23.12,-121.01 28.83,-115.3 34.54,-115.3"/>
</g>
<!-- pending&#45;for&#45;input&#45;&gt;ready -->
<g id="edge2" class="edge transition">
<title>pending&#45;for&#45;input&#45;&gt;ready</title>
<path fill="none" stroke="black" d="M146.69,-133.71C225.64,-134.32 366.92,-131.79 485.5,-110.43 487.83,-110.01 490.2,-109.5 492.59,-108.94"/>
<polygon fill="black" stroke="black" points="493.43,-112.34 502.18,-106.36 491.61,-105.58 493.43,-112.34"/>
<text text-anchor="start" x="190.75" y="-136.92" font-family="Helvetica,sans-Serif" font-size="10.00">RefreshStatus &#45; Refresh discovering cluster &#45; detect ready &#160;&#160;</text>
</g>
<!-- preparing&#45;for&#45;installation -->
<g id="node4" class="node state regular">
<title>preparing&#45;for&#45;installation</title>
<polygon fill="#ffffff" fill-opacity="0.003922" stroke="none" stroke-width="2" points="169,-78.55 0,-78.55 0,-42.3 169,-42.3 169,-78.55"/>
<text text-anchor="start" x="11" y="-56.15" font-family="Helvetica,sans-Serif" font-size="12.00">preparing&#45;for&#45;installation</text>
<path fill="none" stroke="black" stroke-width="2" d="M12.42,-43.3C12.42,-43.3 156.58,-43.3 156.58,-43.3 162.29,-43.3 168,-49.01 168,-54.72 168,-54.72 168,-66.13 168,-66.13 168,-71.84 162.29,-77.55 156.58,-77.55 156.58,-77.55 12.42,-77.55 12.42,-77.55 6.71,-77.55 1,-71.84 1,-66.13 1,-66.13 1,-54.72 1,-54.72 1,-49.01 6.71,-43.3 12.42,-43.3"/>
</g>
<!-- preparing&#45;for&#45;installation&#45;&gt;ready -->
<g id="edge3" class="edge transition">
<title>preparing&#45;for&#45;installation&#45;&gt;ready</title>
<path fill="none" stroke="black" d="M168.8,-72.41C174.96,-73.15 181.07,-73.83 187,-74.43 201.96,-75.93 405.75,-88.67 492.18,-94.05"/>
<polygon fill="black" stroke="black" points="491.86,-97.53 502.06,-94.66 492.29,-90.55 491.86,-97.53"/>
<text text-anchor="start" x="187" y="-96.73" font-family="Helvetica,sans-Serif" font-size="10.00">Cancel Installation &#45; Cancel installation of preparing cluster &#160;&#160;</text>
</g>
<!-- preparing&#45;for&#45;installation&#45;&gt;ready -->
<g id="edge4" class="edge transition">
<title>preparing&#45;for&#45;installation&#45;&gt;ready</title>
<path fill="none" stroke="black" d="M168.86,-57.99C175,-57.86 181.1,-57.76 187,-57.68 253.33,-56.78 423.31,-34.59 485.5,-57.68 493.34,-60.59 500.73,-65.54 507.17,-70.96"/>
<polygon fill="black" stroke="black" points="504.48,-73.24 514.2,-77.45 509.23,-68.09 504.48,-73.24"/>
<text text-anchor="start" x="190.38" y="-60.93" font-family="Helvetica,sans-Serif" font-size="10.00">RefreshStatus &#45; Refresh preparing cluster &#45; detect timeout &#160;&#160;</text>
</g>
<!-- preparing&#45;for&#45;installation&#45;&gt;ready -->
<g id="edge5" class="edge transition">
<title>preparing&#45;for&#45;installation&#45;&gt;ready</title>
<path fill="none" stroke="black" d="M130.66,-42.32C208.26,-14.28 369.7,30.39 485.5,-30.68 500.61,-38.65 511.62,-54.23 518.96,-68.23"/>
<polygon fill="black" stroke="black" points="515.74,-69.6 523.22,-77.1 522.05,-66.57 515.74,-69.6"/>
<text text-anchor="start" x="212.5" y="-33.93" font-family="Helvetica,sans-Serif" font-size="10.00">RefreshStatus &#45; Refresh preparing cluster &#45; failed &#160;&#160;</text>
</g>
</g>
</svg>
