<?xml version="1.0" encoding="UTF-8" standalone="no"?>
<!DOCTYPE svg PUBLIC "-//W3C//DTD SVG 1.1//EN"
 "http://www.w3.org/Graphics/SVG/1.1/DTD/svg11.dtd">
<!-- Generated by graphviz version 7.1.0 (0)
 -->
<!-- Title: state transitions Pages: 1 -->
<svg width="650pt" height="206pt"
 viewBox="0.00 0.00 650.00 206.00" xmlns="http://www.w3.org/2000/svg" xmlns:xlink="http://www.w3.org/1999/xlink">
<g id="graph0" class="graph" transform="scale(1 1) rotate(0) translate(4 202)">
<title>state transitions</title>
<polygon fill="white" stroke="none" points="-4,4 -4,-202 646,-202 646,4 -4,4"/>
<!-- cancelled -->
<g id="node1" class="node state regular">
<title>cancelled</title>
<polygon fill="#ffffff" fill-opacity="0.003922" stroke="none" stroke-width="2" points="554,-117 480,-117 480,-81 554,-81 554,-117"/>
<text text-anchor="start" x="491" y="-95.4" font-family="Helvetica,sans-Serif" font-size="12.00">cancelled</text>
<path fill="none" stroke="black" stroke-width="2" d="M492,-82.5C492,-82.5 542,-82.5 542,-82.5 547.5,-82.5 553,-88 553,-93.5 553,-93.5 553,-104.5 553,-104.5 553,-110 547.5,-115.5 542,-115.5 542,-115.5 492,-115.5 492,-115.5 486.5,-115.5 481,-110 481,-104.5 481,-104.5 481,-93.5 481,-93.5 481,-88 486.5,-82.5 492,-82.5"/>
</g>
<!-- cancelled&#45;&gt;cancelled -->
<g id="edge5" class="edge transition">
<title>cancelled&#45;&gt;cancelled</title>
<path fill="none" stroke="black" d="M500.24,-116.78C497.39,-126.31 502.98,-135 517,-135 524.89,-135 530.11,-132.25 532.66,-128.15"/>
<polygon fill="black" stroke="black" points="536.13,-128.58 533.62,-118.29 529.17,-127.9 536.13,-128.58"/>
<text text-anchor="start" x="392" y="-138" font-family="Helvetica,sans-Serif" font-size="10.00">RefreshStatus &#45; Log collection timeout during cancelled &#160;&#160;</text>
</g>
<!-- cancelled&#45;&gt;cancelled -->
<g id="edge6" class="edge transition">
<title>cancelled&#45;&gt;cancelled</title>
<path fill="none" stroke="black" d="M488.97,-116.98C473.96,-134.2 483.31,-153 517,-153 544.38,-153 555.68,-140.59 550.91,-126.7"/>
<polygon fill="black" stroke="black" points="553.98,-125.02 545.82,-118.27 547.99,-128.64 553.98,-125.02"/>
<text text-anchor="start" x="423.5" y="-156" font-family="Helvetica,sans-Serif" font-size="10.00">RefreshStatus &#45; Maintain cancelled state &#160;&#160;</text>
</g>
<!-- error -->
<g id="node2" class="node state regular">
<title>error</title>
<polygon fill="#ffffff" fill-opacity="0.003922" stroke="none" stroke-width="2" points="118.5,-198 62.5,-198 62.5,-162 118.5,-162 118.5,-198"/>
<text text-anchor="start" x="78" y="-176.4" font-family="Helvetica,sans-Serif" font-size="12.00">error</text>
<path fill="none" stroke="black" stroke-width="2" d="M74.5,-163.5C74.5,-163.5 106.5,-163.5 106.5,-163.5 112,-163.5 117.5,-169 117.5,-174.5 117.5,-174.5 117.5,-185.5 117.5,-185.5 117.5,-191 112,-196.5 106.5,-196.5 106.5,-196.5 74.5,-196.5 74.5,-196.5 69,-196.5 63.5,-191 63.5,-185.5 63.5,-185.5 63.5,-174.5 63.5,-174.5 63.5,-169 69,-163.5 74.5,-163.5"/>
</g>
<!-- error&#45;&gt;cancelled -->
<g id="edge3" class="edge transition">
<title>error&#45;&gt;cancelled</title>
<path fill="none" stroke="black" d="M118.08,-180.91C180.32,-182.17 339.55,-180.31 462,-135 469.85,-132.1 477.68,-127.85 484.86,-123.28"/>
<polygon fill="black" stroke="black" points="486.61,-126.32 492.91,-117.8 482.68,-120.53 486.61,-126.32"/>
<text text-anchor="start" x="199" y="-182" font-family="Helvetica,sans-Serif" font-size="10.00">Cancel Installation &#45; Cancel installation of installing cluster &#160;&#160;</text>
</g>
<!-- finalizing -->
<g id="node3" class="node state regular">
<title>finalizing</title>
<polygon fill="#ffffff" fill-opacity="0.003922" stroke="none" stroke-width="2" points="125.5,-144 55.5,-144 55.5,-108 125.5,-108 125.5,-144"/>
<text text-anchor="start" x="66.5" y="-122.4" font-family="Helvetica,sans-Serif" font-size="12.00">finalizing</text>
<path fill="none" stroke="black" stroke-width="2" d="M67.5,-109.5C67.5,-109.5 113.5,-109.5 113.5,-109.5 119,-109.5 124.5,-115 124.5,-120.5 124.5,-120.5 124.5,-131.5 124.5,-131.5 124.5,-137 119,-142.5 113.5,-142.5 113.5,-142.5 67.5,-142.5 67.5,-142.5 62,-142.5 56.5,-137 56.5,-131.5 56.5,-131.5 56.5,-120.5 56.5,-120.5 56.5,-115 62,-109.5 67.5,-109.5"/>
</g>
<!-- finalizing&#45;&gt;cancelled -->
<g id="edge4" class="edge transition">
<title>finalizing&#45;&gt;cancelled</title>
<path fill="none" stroke="black" d="M125.49,-124.36C190.77,-121.12 338.16,-113.41 462,-104 464.31,-103.82 466.68,-103.64 469.06,-103.44"/>
<polygon fill="black" stroke="black" points="469.12,-106.95 478.78,-102.6 468.52,-99.97 469.12,-106.95"/>
<text text-anchor="start" x="199" y="-123" font-family="Helvetica,sans-Serif" font-size="10.00">Cancel Installation &#45; Cancel installation of installing cluster &#160;&#160;</text>
</g>
<!-- installing -->
<g id="node4" class="node state regular">
<title>installing</title>
<polygon fill="#ffffff" fill-opacity="0.003922" stroke="none" stroke-width="2" points="126,-90 55,-90 55,-54 126,-54 126,-90"/>
<text text-anchor="start" x="66.5" y="-68.4" font-family="Helvetica,sans-Serif" font-size="12.00">installing</text>
<path fill="none" stroke="black" stroke-width="2" d="M67,-55.5C67,-55.5 114,-55.5 114,-55.5 119.5,-55.5 125,-61 125,-66.5 125,-66.5 125,-77.5 125,-77.5 125,-83 119.5,-88.5 114,-88.5 114,-88.5 67,-88.5 67,-88.5 61.5,-88.5 56,-83 56,-77.5 56,-77.5 56,-66.5 56,-66.5 56,-61 61.5,-55.5 67,-55.5"/>
</g>
<!-- installing&#45;&gt;cancelled -->
<g id="edge1" class="edge transition">
<title>installing&#45;&gt;cancelled</title>
<path fill="none" stroke="black" d="M125.77,-73.32C191.2,-75.99 338.41,-82.64 462,-93 464.19,-93.18 466.42,-93.38 468.67,-93.59"/>
<polygon fill="black" stroke="black" points="468.2,-97.06 478.5,-94.58 468.9,-90.1 468.2,-97.06"/>
<text text-anchor="start" x="199" y="-96" font-family="Helvetica,sans-Serif" font-size="10.00">Cancel Installation &#45; Cancel installation of installing cluster &#160;&#160;</text>
</g>
<!-- installing&#45;pending&#45;user&#45;action -->
<g id="node5" class="node state regular">
<title>installing&#45;pending&#45;user&#45;action</title>
<polygon fill="#ffffff" fill-opacity="0.003922" stroke="none" stroke-width="2" points="181,-36 0,-36 0,0 181,0 181,-36"/>
<text text-anchor="start" x="11.5" y="-14.4" font-family="Helvetica,sans-Serif" font-size="12.00">installing&#45;pending&#45;user&#45;action</text>
<path fill="none" stroke="black" stroke-width="2" d="M12,-1.5C12,-1.5 169,-1.5 169,-1.5 174.5,-1.5 180,-7 180,-12.5 180,-12.5 180,-23.5 180,-23.5 180,-29 174.5,-34.5 169,-34.5 169,-34.5 12,-34.5 12,-34.5 6.5,-34.5 1,-29 1,-23.5 1,-23.5 1,-12.5 1,-12.5 1,-7 6.5,-1.5 12,-1.5"/>
</g>
<!-- installing&#45;pending&#45;user&#45;action&#45;&gt;cancelled -->
<g id="edge2" class="edge transition">
<title>installing&#45;pending&#45;user&#45;action&#45;&gt;cancelled</title>
<path fill="none" stroke="black" d="M180.87,-16.18C257.78,-17.43 370.49,-26.1 462,-61 470.59,-64.27 479.09,-69.22 486.72,-74.48"/>
<polygon fill="black" stroke="black" points="484.51,-77.2 494.64,-80.3 488.65,-71.56 484.51,-77.2"/>
<text text-anchor="start" x="199" y="-64" font-family="Helvetica,sans-Serif" font-size="10.00">Cancel Installation &#45; Cancel installation of installing cluster &#160;&#160;</text>
</g>
</g>
</svg>
