<?xml version="1.0" encoding="UTF-8" standalone="no"?>
<!DOCTYPE svg PUBLIC "-//W3C//DTD SVG 1.1//EN"
 "http://www.w3.org/Graphics/SVG/1.1/DTD/svg11.dtd">
<!-- Generated by graphviz version 5.0.0 (0)
 -->
<!-- Title: state transitions Pages: 1 -->
<svg width="599pt" height="100pt"
 viewBox="0.00 0.00 599.00 100.00" xmlns="http://www.w3.org/2000/svg" xmlns:xlink="http://www.w3.org/1999/xlink">
<g id="graph0" class="graph" transform="scale(1 1) rotate(0) translate(4 96)">
<title>state transitions</title>
<polygon fill="white" stroke="transparent" points="-4,4 -4,-96 595,-96 595,4 -4,4"/>
<!-- installing -->
<g id="node1" class="node state regular">
<title>installing</title>
<polygon fill="#ffffff" fill-opacity="0.003922" stroke="transparent" stroke-width="2" points="550,-63 479,-63 479,-27 550,-27 550,-63"/>
<text text-anchor="start" x="490.5" y="-41.4" font-family="Helvetica,sans-Serif" font-size="12.00">installing</text>
<path fill="none" stroke="black" stroke-width="2" d="M491,-28.5C491,-28.5 538,-28.5 538,-28.5 543.5,-28.5 549,-34 549,-39.5 549,-39.5 549,-50.5 549,-50.5 549,-56 543.5,-61.5 538,-61.5 538,-61.5 491,-61.5 491,-61.5 485.5,-61.5 480,-56 480,-50.5 480,-50.5 480,-39.5 480,-39.5 480,-34 485.5,-28.5 491,-28.5"/>
</g>
<!-- installing&#45;&gt;installing -->
<g id="edge3" class="edge transition">
<title>installing&#45;&gt;installing</title>
<path fill="none" stroke="black" d="M481.21,-63.15C476.09,-72.54 487.19,-81 514.5,-81 531.14,-81 541.77,-77.86 546.36,-73.28"/>
<polygon fill="black" stroke="black" points="549.86,-73.54 547.79,-63.15 542.93,-72.57 549.86,-73.54"/>
<text text-anchor="start" x="438" y="-84" font-family="Helvetica,sans-Serif" font-size="10.00">RefreshStatus &#45; Stay in installing &#160;&#160;</text>
</g>
<!-- installing&#45;pending&#45;user&#45;action -->
<g id="node2" class="node state regular">
<title>installing&#45;pending&#45;user&#45;action</title>
<polygon fill="#ffffff" fill-opacity="0.003922" stroke="transparent" stroke-width="2" points="181,-90 0,-90 0,-54 181,-54 181,-90"/>
<text text-anchor="start" x="11.5" y="-68.4" font-family="Helvetica,sans-Serif" font-size="12.00">installing&#45;pending&#45;user&#45;action</text>
<path fill="none" stroke="black" stroke-width="2" d="M12,-55.5C12,-55.5 169,-55.5 169,-55.5 174.5,-55.5 180,-61 180,-66.5 180,-66.5 180,-77.5 180,-77.5 180,-83 174.5,-88.5 169,-88.5 169,-88.5 12,-88.5 12,-88.5 6.5,-88.5 1,-83 1,-77.5 1,-77.5 1,-66.5 1,-66.5 1,-61 6.5,-55.5 12,-55.5"/>
</g>
<!-- installing&#45;pending&#45;user&#45;action&#45;&gt;installing -->
<g id="edge2" class="edge transition">
<title>installing&#45;pending&#45;user&#45;action&#45;&gt;installing</title>
<path fill="none" stroke="black" d="M181.16,-67.55C256.02,-63.63 365.53,-57.39 461,-50 463.52,-49.81 466.1,-49.59 468.7,-49.37"/>
<polygon fill="black" stroke="black" points="469.13,-52.85 478.78,-48.48 468.51,-45.88 469.13,-52.85"/>
<text text-anchor="start" x="228.5" y="-69" font-family="Helvetica,sans-Serif" font-size="10.00">RefreshStatus &#45; TODO: Name this transition &#160;&#160;</text>
</g>
<!-- preparing&#45;for&#45;installation -->
<g id="node3" class="node state regular">
<title>preparing&#45;for&#45;installation</title>
<polygon fill="#ffffff" fill-opacity="0.003922" stroke="transparent" stroke-width="2" points="166.5,-36 14.5,-36 14.5,0 166.5,0 166.5,-36"/>
<text text-anchor="start" x="25.5" y="-14.4" font-family="Helvetica,sans-Serif" font-size="12.00">preparing&#45;for&#45;installation</text>
<path fill="none" stroke="black" stroke-width="2" d="M26.5,-1.5C26.5,-1.5 154.5,-1.5 154.5,-1.5 160,-1.5 165.5,-7 165.5,-12.5 165.5,-12.5 165.5,-23.5 165.5,-23.5 165.5,-29 160,-34.5 154.5,-34.5 154.5,-34.5 26.5,-34.5 26.5,-34.5 21,-34.5 15.5,-29 15.5,-23.5 15.5,-23.5 15.5,-12.5 15.5,-12.5 15.5,-7 21,-1.5 26.5,-1.5"/>
</g>
<!-- preparing&#45;for&#45;installation&#45;&gt;installing -->
<g id="edge1" class="edge transition">
<title>preparing&#45;for&#45;installation&#45;&gt;installing</title>
<path fill="none" stroke="black" d="M166.6,-21.01C241.32,-24.3 359.21,-30.3 461,-39 463.52,-39.22 466.1,-39.45 468.71,-39.71"/>
<polygon fill="black" stroke="black" points="468.49,-43.2 478.79,-40.75 469.21,-36.24 468.49,-43.2"/>
<text text-anchor="start" x="199" y="-42" font-family="Helvetica,sans-Serif" font-size="10.00">RefreshStatus &#45; Refresh preparing cluster &#45; done preparing &#160;&#160;</text>
</g>
</g>
</svg>
