<?xml version="1.0" encoding="UTF-8" standalone="no"?>
<!DOCTYPE svg PUBLIC "-//W3C//DTD SVG 1.1//EN"
 "http://www.w3.org/Graphics/SVG/1.1/DTD/svg11.dtd">
<!-- Generated by graphviz version 5.0.0 (0)
 -->
<!-- Title: state transitions Pages: 1 -->
<svg width="650pt" height="206pt"
 viewBox="0.00 0.00 650.00 206.00" xmlns="http://www.w3.org/2000/svg" xmlns:xlink="http://www.w3.org/1999/xlink">
<g id="graph0" class="graph" transform="scale(1 1) rotate(0) translate(4 202)">
<title>state transitions</title>
<polygon fill="white" stroke="transparent" points="-4,4 -4,-202 646,-202 646,4 -4,4"/>
<!-- cancelled -->
<g id="node1" class="node state regular">
<title>cancelled</title>
<polygon fill="#ffffff" fill-opacity="0.003922" stroke="transparent" stroke-width="2" points="554,-117 480,-117 480,-81 554,-81 554,-117"/>
<text text-anchor="start" x="491" y="-95.4" font-family="Helvetica,sans-Serif" font-size="12.00">cancelled</text>
<path fill="none" stroke="black" stroke-width="2" d="M492,-82.5C492,-82.5 542,-82.5 542,-82.5 547.5,-82.5 553,-88 553,-93.5 553,-93.5 553,-104.5 553,-104.5 553,-110 547.5,-115.5 542,-115.5 542,-115.5 492,-115.5 492,-115.5 486.5,-115.5 481,-110 481,-104.5 481,-104.5 481,-93.5 481,-93.5 481,-88 486.5,-82.5 492,-82.5"/>
</g>
<!-- cancelled&#45;&gt;cancelled -->
<g id="edge5" class="edge transition">
<title>cancelled&#45;&gt;cancelled</title>
<path fill="none" stroke="black" d="M500.18,-117.15C497.59,-126.54 503.2,-135 517,-135 525.41,-135 530.78,-131.86 533.11,-127.28"/>
<polygon fill="black" stroke="black" points="536.61,-127.38 533.82,-117.15 529.63,-126.88 536.61,-127.38"/>
<text text-anchor="start" x="392" y="-138" font-family="Helvetica,sans-Serif" font-size="10.00">RefreshStatus &#45; Log collection timeout during cancelled &#160;&#160;</text>
</g>
<!-- cancelled&#45;&gt;cancelled -->
<g id="edge6" class="edge transition">
<title>cancelled&#45;&gt;cancelled</title>
<path fill="none" stroke="black" d="M488.8,-117.26C474.18,-134.4 483.58,-153 517,-153 544.68,-153 555.88,-140.25 550.61,-126.12"/>
<polygon fill="black" stroke="black" points="553.4,-123.97 545.2,-117.26 547.42,-127.62 553.4,-123.97"/>
<text text-anchor="start" x="423.5" y="-156" font-family="Helvetica,sans-Serif" font-size="10.00">RefreshStatus &#45; Maintain cancelled state &#160;&#160;</text>
</g>
<!-- error -->
<g id="node2" class="node state regular">
<title>error</title>
<polygon fill="#ffffff" fill-opacity="0.003922" stroke="transparent" stroke-width="2" points="118.5,-198 62.5,-198 62.5,-162 118.5,-162 118.5,-198"/>
<text text-anchor="start" x="78" y="-176.4" font-family="Helvetica,sans-Serif" font-size="12.00">error</text>
<path fill="none" stroke="black" stroke-width="2" d="M74.5,-163.5C74.5,-163.5 106.5,-163.5 106.5,-163.5 112,-163.5 117.5,-169 117.5,-174.5 117.5,-174.5 117.5,-185.5 117.5,-185.5 117.5,-191 112,-196.5 106.5,-196.5 106.5,-196.5 74.5,-196.5 74.5,-196.5 69,-196.5 63.5,-191 63.5,-185.5 63.5,-185.5 63.5,-174.5 63.5,-174.5 63.5,-169 69,-163.5 74.5,-163.5"/>
</g>
<!-- error&#45;&gt;cancelled -->
<g id="edge3" class="edge transition">
<title>error&#45;&gt;cancelled</title>
<path fill="none" stroke="black" d="M118.54,-180.92C181.11,-182.16 339.86,-180.2 462,-135 470.13,-131.99 478.24,-127.54 485.62,-122.79"/>
<polygon fill="black" stroke="black" points="487.62,-125.67 493.91,-117.14 483.67,-119.88 487.62,-125.67"/>
<text text-anchor="start" x="199" y="-182" font-family="Helvetica,sans-Serif" font-size="10.00">Cancel Installation &#45; Cancel installation of installing cluster &#160;&#160;</text>
</g>
<!-- finalizing -->
<g id="node3" class="node state regular">
<title>finalizing</title>
<polygon fill="#ffffff" fill-opacity="0.003922" stroke="transparent" stroke-width="2" points="125.5,-144 55.5,-144 55.5,-108 125.5,-108 125.5,-144"/>
<text text-anchor="start" x="66.5" y="-122.4" font-family="Helvetica,sans-Serif" font-size="12.00">finalizing</text>
<path fill="none" stroke="black" stroke-width="2" d="M67.5,-109.5C67.5,-109.5 113.5,-109.5 113.5,-109.5 119,-109.5 124.5,-115 124.5,-120.5 124.5,-120.5 124.5,-131.5 124.5,-131.5 124.5,-137 119,-142.5 113.5,-142.5 113.5,-142.5 67.5,-142.5 67.5,-142.5 62,-142.5 56.5,-137 56.5,-131.5 56.5,-131.5 56.5,-120.5 56.5,-120.5 56.5,-115 62,-109.5 67.5,-109.5"/>
</g>
<!-- finalizing&#45;&gt;cancelled -->
<g id="edge4" class="edge transition">
<title>finalizing&#45;&gt;cancelled</title>
<path fill="none" stroke="black" d="M125.75,-124.34C191.15,-121.1 338.32,-113.4 462,-104 464.55,-103.81 467.16,-103.6 469.8,-103.38"/>
<polygon fill="black" stroke="black" points="470.33,-106.85 480,-102.5 469.73,-99.87 470.33,-106.85"/>
<text text-anchor="start" x="199" y="-123" font-family="Helvetica,sans-Serif" font-size="10.00">Cancel Installation &#45; Cancel installation of installing cluster &#160;&#160;</text>
</g>
<!-- installing -->
<g id="node4" class="node state regular">
<title>installing</title>
<polygon fill="#ffffff" fill-opacity="0.003922" stroke="transparent" stroke-width="2" points="126,-90 55,-90 55,-54 126,-54 126,-90"/>
<text text-anchor="start" x="66.5" y="-68.4" font-family="Helvetica,sans-Serif" font-size="12.00">installing</text>
<path fill="none" stroke="black" stroke-width="2" d="M67,-55.5C67,-55.5 114,-55.5 114,-55.5 119.5,-55.5 125,-61 125,-66.5 125,-66.5 125,-77.5 125,-77.5 125,-83 119.5,-88.5 114,-88.5 114,-88.5 67,-88.5 67,-88.5 61.5,-88.5 56,-83 56,-77.5 56,-77.5 56,-66.5 56,-66.5 56,-61 61.5,-55.5 67,-55.5"/>
</g>
<!-- installing&#45;&gt;cancelled -->
<g id="edge1" class="edge transition">
<title>installing&#45;&gt;cancelled</title>
<path fill="none" stroke="black" d="M126.02,-73.33C191.58,-76 338.57,-82.65 462,-93 464.51,-93.21 467.08,-93.44 469.68,-93.69"/>
<polygon fill="black" stroke="black" points="469.42,-97.18 479.72,-94.7 470.12,-90.21 469.42,-97.18"/>
<text text-anchor="start" x="199" y="-96" font-family="Helvetica,sans-Serif" font-size="10.00">Cancel Installation &#45; Cancel installation of installing cluster &#160;&#160;</text>
</g>
<!-- installing&#45;pending&#45;user&#45;action -->
<g id="node5" class="node state regular">
<title>installing&#45;pending&#45;user&#45;action</title>
<polygon fill="#ffffff" fill-opacity="0.003922" stroke="transparent" stroke-width="2" points="181,-36 0,-36 0,0 181,0 181,-36"/>
<text text-anchor="start" x="11.5" y="-14.4" font-family="Helvetica,sans-Serif" font-size="12.00">installing&#45;pending&#45;user&#45;action</text>
<path fill="none" stroke="black" stroke-width="2" d="M12,-1.5C12,-1.5 169,-1.5 169,-1.5 174.5,-1.5 180,-7 180,-12.5 180,-12.5 180,-23.5 180,-23.5 180,-29 174.5,-34.5 169,-34.5 169,-34.5 12,-34.5 12,-34.5 6.5,-34.5 1,-29 1,-23.5 1,-23.5 1,-12.5 1,-12.5 1,-7 6.5,-1.5 12,-1.5"/>
</g>
<!-- installing&#45;pending&#45;user&#45;action&#45;&gt;cancelled -->
<g id="edge2" class="edge transition">
<title>installing&#45;pending&#45;user&#45;action&#45;&gt;cancelled</title>
<path fill="none" stroke="black" d="M181.25,-16.18C258.15,-17.46 370.64,-26.15 462,-61 470.89,-64.39 479.69,-69.58 487.52,-75.04"/>
<polygon fill="black" stroke="black" points="485.48,-77.88 495.61,-81 489.64,-72.24 485.48,-77.88"/>
<text text-anchor="start" x="199" y="-64" font-family="Helvetica,sans-Serif" font-size="10.00">Cancel Installation &#45; Cancel installation of installing cluster &#160;&#160;</text>
</g>
</g>
</svg>
