<?xml version="1.0" encoding="UTF-8" standalone="no"?>
<!DOCTYPE svg PUBLIC "-//W3C//DTD SVG 1.1//EN"
 "http://www.w3.org/Graphics/SVG/1.1/DTD/svg11.dtd">
<!-- Generated by graphviz version 7.1.0 (0)
 -->
<!-- Title: state transitions Pages: 1 -->
<svg width="625pt" height="154pt"
 viewBox="0.00 0.00 624.50 153.91" xmlns="http://www.w3.org/2000/svg" xmlns:xlink="http://www.w3.org/1999/xlink">
<g id="graph0" class="graph" transform="scale(1 1) rotate(0) translate(4 149.91)">
<title>state transitions</title>
<polygon fill="white" stroke="none" points="-4,4 -4,-149.91 620.5,-149.91 620.5,4 -4,4"/>
<!-- insufficient -->
<g id="node1" class="node state regular">
<title>insufficient</title>
<polygon fill="#ffffff" fill-opacity="0.003922" stroke="none" stroke-width="2" points="80,-117.91 0,-117.91 0,-81.91 80,-81.91 80,-117.91"/>
<text text-anchor="start" x="11" y="-96.31" font-family="Helvetica,sans-Serif" font-size="12.00">insufficient</text>
<path fill="none" stroke="black" stroke-width="2" d="M12,-83.41C12,-83.41 68,-83.41 68,-83.41 73.5,-83.41 79,-88.91 79,-94.41 79,-94.41 79,-105.41 79,-105.41 79,-110.91 73.5,-116.41 68,-116.41 68,-116.41 12,-116.41 12,-116.41 6.5,-116.41 1,-110.91 1,-105.41 1,-105.41 1,-94.41 1,-94.41 1,-88.91 6.5,-83.41 12,-83.41"/>
</g>
<!-- pending&#45;for&#45;input -->
<g id="node2" class="node state regular">
<title>pending&#45;for&#45;input</title>
<polygon fill="#ffffff" fill-opacity="0.003922" stroke="none" stroke-width="2" points="525,-87.91 412,-87.91 412,-51.91 525,-51.91 525,-87.91"/>
<text text-anchor="start" x="423.5" y="-66.31" font-family="Helvetica,sans-Serif" font-size="12.00">pending&#45;for&#45;input</text>
<path fill="none" stroke="black" stroke-width="2" d="M424,-53.41C424,-53.41 513,-53.41 513,-53.41 518.5,-53.41 524,-58.91 524,-64.41 524,-64.41 524,-75.41 524,-75.41 524,-80.91 518.5,-86.41 513,-86.41 513,-86.41 424,-86.41 424,-86.41 418.5,-86.41 413,-80.91 413,-75.41 413,-75.41 413,-64.41 413,-64.41 413,-58.91 418.5,-53.41 424,-53.41"/>
</g>
<!-- insufficient&#45;&gt;pending&#45;for&#45;input -->
<g id="edge3" class="edge transition">
<title>insufficient&#45;&gt;pending&#45;for&#45;input</title>
<path fill="none" stroke="black" d="M79.84,-104.46C145.34,-111.1 281.6,-120.45 394,-98.91 402.34,-97.32 410.94,-94.8 419.19,-91.89"/>
<polygon fill="black" stroke="black" points="420.24,-95.24 428.37,-88.44 417.77,-88.69 420.24,-95.24"/>
<text text-anchor="start" x="98" y="-114.91" font-family="Helvetica,sans-Serif" font-size="10.00">RefreshStatus &#45; Refresh discovering cluster &#45; detect required input &#160;&#160;</text>
</g>
<!-- insufficient&#45;&gt;pending&#45;for&#45;input -->
<g id="edge6" class="edge transition">
<title>insufficient&#45;&gt;pending&#45;for&#45;input</title>
<path fill="none" stroke="black" d="M79.74,-89.31C85.81,-87.97 92.05,-86.76 98,-85.91 202.98,-70.9 326.3,-68.6 400.6,-68.86"/>
<polygon fill="black" stroke="black" points="400.56,-72.36 410.58,-68.91 400.6,-65.36 400.56,-72.36"/>
<text text-anchor="start" x="144.5" y="-88.91" font-family="Helvetica,sans-Serif" font-size="10.00">RefreshStatus &#45; TODO: Name this transition &#160;&#160;</text>
</g>
<!-- pending&#45;for&#45;input&#45;&gt;pending&#45;for&#45;input -->
<g id="edge1" class="edge transition">
<title>pending&#45;for&#45;input&#45;&gt;pending&#45;for&#45;input</title>
<path fill="none" stroke="black" d="M448.5,-87.69C445.1,-97.23 451.77,-105.91 468.5,-105.91 477.91,-105.91 484.14,-103.16 487.18,-99.06"/>
<polygon fill="black" stroke="black" points="490.65,-99.53 488.32,-89.2 483.7,-98.73 490.65,-99.53"/>
<text text-anchor="start" x="320.5" y="-108.91" font-family="Helvetica,sans-Serif" font-size="10.00">RefreshStatus &#45; Refresh discovering cluster &#45; detect required input &#160;&#160;</text>
</g>
<!-- pending&#45;for&#45;input&#45;&gt;pending&#45;for&#45;input -->
<g id="edge4" class="edge transition">
<title>pending&#45;for&#45;input&#45;&gt;pending&#45;for&#45;input</title>
<path fill="none" stroke="black" d="M435.05,-87.89C417.15,-105.11 428.3,-123.91 468.5,-123.91 501.79,-123.91 515.16,-111.02 508.6,-96.81"/>
<polygon fill="black" stroke="black" points="511.64,-95.02 502.85,-89.1 506.03,-99.21 511.64,-95.02"/>
<text text-anchor="start" x="367" y="-126.91" font-family="Helvetica,sans-Serif" font-size="10.00">RefreshStatus &#45; TODO: Name this transition &#160;&#160;</text>
</g>
<!-- ready -->
<g id="node3" class="node state regular">
<title>ready</title>
<polygon fill="#ffffff" fill-opacity="0.003922" stroke="none" stroke-width="2" points="68,-56.91 12,-56.91 12,-20.91 68,-20.91 68,-56.91"/>
<text text-anchor="start" x="24.5" y="-35.31" font-family="Helvetica,sans-Serif" font-size="12.00">ready</text>
<path fill="none" stroke="black" stroke-width="2" d="M24,-22.41C24,-22.41 56,-22.41 56,-22.41 61.5,-22.41 67,-27.91 67,-33.41 67,-33.41 67,-44.41 67,-44.41 67,-49.91 61.5,-55.41 56,-55.41 56,-55.41 24,-55.41 24,-55.41 18.5,-55.41 13,-49.91 13,-44.41 13,-44.41 13,-33.41 13,-33.41 13,-27.91 18.5,-22.41 24,-22.41"/>
</g>
<!-- ready&#45;&gt;pending&#45;for&#45;input -->
<g id="edge2" class="edge transition">
<title>ready&#45;&gt;pending&#45;for&#45;input</title>
<path fill="none" stroke="black" d="M67.72,-38.27C126.83,-37.22 273.03,-36.67 394,-52.91 396.33,-53.23 398.7,-53.58 401.09,-53.96"/>
<polygon fill="black" stroke="black" points="400.37,-57.39 410.83,-55.71 401.61,-50.5 400.37,-57.39"/>
<text text-anchor="start" x="98" y="-55.91" font-family="Helvetica,sans-Serif" font-size="10.00">RefreshStatus &#45; Refresh discovering cluster &#45; detect required input &#160;&#160;</text>
</g>
<!-- ready&#45;&gt;pending&#45;for&#45;input -->
<g id="edge5" class="edge transition">
<title>ready&#45;&gt;pending&#45;for&#45;input</title>
<path fill="none" stroke="black" d="M67.89,-29.15C77.29,-26.21 87.99,-23.37 98,-21.91 228.18,-2.91 267.91,15.61 394,-21.91 409.83,-26.62 425.43,-35.95 438.16,-45.14"/>
<polygon fill="black" stroke="black" points="436,-47.89 446.08,-51.14 440.23,-42.31 436,-47.89"/>
<text text-anchor="start" x="144.5" y="-24.91" font-family="Helvetica,sans-Serif" font-size="10.00">RefreshStatus &#45; TODO: Name this transition &#160;&#160;</text>
</g>
</g>
</svg>
