<?xml version="1.0" encoding="UTF-8" standalone="no"?>
<!DOCTYPE svg PUBLIC "-//W3C//DTD SVG 1.1//EN"
 "http://www.w3.org/Graphics/SVG/1.1/DTD/svg11.dtd">
<!-- Generated by graphviz version 12.1.0 (20240811.2233)
 -->
<!-- Title: state transitions Pages: 1 -->
<svg width="437pt" height="75pt"
 viewBox="0.00 0.00 437.00 75.00" xmlns="http://www.w3.org/2000/svg" xmlns:xlink="http://www.w3.org/1999/xlink">
<g id="graph0" class="graph" transform="scale(1 1) rotate(0) translate(4 71)">
<title>state transitions</title>
<polygon fill="white" stroke="none" points="-4,4 -4,-71 433,-71 433,4 -4,4"/>
<!-- finalizing -->
<g id="node1" class="node state regular">
<title>finalizing</title>
<polygon fill="#ffffff" fill-opacity="0.003922" stroke="none" stroke-width="2" points="74.5,-36.25 0,-36.25 0,0 74.5,0 74.5,-36.25"/>
<text text-anchor="start" x="11" y="-13.85" font-family="Helvetica,sans-Serif" font-size="12.00">finalizing</text>
<path fill="none" stroke="black" stroke-width="2" d="M12.42,-1C12.42,-1 62.08,-1 62.08,-1 67.79,-1 73.5,-6.71 73.5,-12.42 73.5,-12.42 73.5,-23.83 73.5,-23.83 73.5,-29.54 67.79,-35.25 62.08,-35.25 62.08,-35.25 12.42,-35.25 12.42,-35.25 6.71,-35.25 1,-29.54 1,-23.83 1,-23.83 1,-12.42 1,-12.42 1,-6.71 6.71,-1 12.42,-1"/>
</g>
<!-- installed -->
<g id="node2" class="node state regular">
<title>installed</title>
<polygon fill="#ffffff" fill-opacity="0.003922" stroke="none" stroke-width="2" points="363.5,-36.25 292,-36.25 292,0 363.5,0 363.5,-36.25"/>
<text text-anchor="start" x="303" y="-13.85" font-family="Helvetica,sans-Serif" font-size="12.00">installed</text>
<path fill="none" stroke="black" stroke-width="2" d="M304.42,-1C304.42,-1 351.08,-1 351.08,-1 356.79,-1 362.5,-6.71 362.5,-12.42 362.5,-12.42 362.5,-23.83 362.5,-23.83 362.5,-29.54 356.79,-35.25 351.08,-35.25 351.08,-35.25 304.42,-35.25 304.42,-35.25 298.71,-35.25 293,-29.54 293,-23.83 293,-23.83 293,-12.42 293,-12.42 293,-6.71 298.71,-1 304.42,-1"/>
</g>
<!-- finalizing&#45;&gt;installed -->
<g id="edge1" class="edge transition">
<title>finalizing&#45;&gt;installed</title>
<path fill="none" stroke="black" d="M74.5,-18.12C126.88,-18.12 223.74,-18.12 280.98,-18.12"/>
<polygon fill="black" stroke="black" points="280.71,-21.63 290.71,-18.13 280.71,-14.63 280.71,-21.63"/>
<text text-anchor="start" x="92.5" y="-21.38" font-family="Helvetica,sans-Serif" font-size="10.00">RefreshStatus &#45; Finalizing complete &#160;&#160;</text>
</g>
<!-- installed&#45;&gt;installed -->
<g id="edge2" class="edge transition">
<title>installed&#45;&gt;installed</title>
<path fill="none" stroke="black" d="M301.77,-35.97C297.36,-45.53 306.02,-54.25 327.75,-54.25 340.31,-54.25 348.51,-51.34 352.33,-47.03"/>
<polygon fill="black" stroke="black" points="355.76,-47.83 353.54,-37.47 348.81,-46.95 355.76,-47.83"/>
<text text-anchor="start" x="226.5" y="-57.5" font-family="Helvetica,sans-Serif" font-size="10.00">RefreshStatus &#45; Maintain installed state &#160;&#160;</text>
</g>
</g>
</svg>
