<?xml version="1.0" encoding="UTF-8" standalone="no"?>
<!DOCTYPE svg PUBLIC "-//W3C//DTD SVG 1.1//EN"
 "http://www.w3.org/Graphics/SVG/1.1/DTD/svg11.dtd">
<!-- Generated by graphviz version 5.0.0 (0)
 -->
<!-- Title: state transitions Pages: 1 -->
<svg width="560pt" height="129pt"
 viewBox="0.00 0.00 559.50 129.00" xmlns="http://www.w3.org/2000/svg" xmlns:xlink="http://www.w3.org/1999/xlink">
<g id="graph0" class="graph" transform="scale(1 1) rotate(0) translate(4 125)">
<title>state transitions</title>
<polygon fill="white" stroke="transparent" points="-4,4 -4,-125 555.5,-125 555.5,4 -4,4"/>
<!-- finalizing -->
<g id="node1" class="node state regular">
<title>finalizing</title>
<polygon fill="#ffffff" fill-opacity="0.003922" stroke="transparent" stroke-width="2" points="490,-63 420,-63 420,-27 490,-27 490,-63"/>
<text text-anchor="start" x="431" y="-41.4" font-family="Helvetica,sans-Serif" font-size="12.00">finalizing</text>
<path fill="none" stroke="black" stroke-width="2" d="M432,-28.5C432,-28.5 478,-28.5 478,-28.5 483.5,-28.5 489,-34 489,-39.5 489,-39.5 489,-50.5 489,-50.5 489,-56 483.5,-61.5 478,-61.5 478,-61.5 432,-61.5 432,-61.5 426.5,-61.5 421,-56 421,-50.5 421,-50.5 421,-39.5 421,-39.5 421,-34 426.5,-28.5 432,-28.5"/>
</g>
<!-- finalizing&#45;&gt;finalizing -->
<g id="edge3" class="edge transition">
<title>finalizing&#45;&gt;finalizing</title>
<path fill="none" stroke="black" d="M441.07,-63.15C438.93,-72.54 443.57,-81 455,-81 461.96,-81 466.41,-77.86 468.33,-73.28"/>
<polygon fill="black" stroke="black" points="471.84,-73.34 468.93,-63.15 464.85,-72.93 471.84,-73.34"/>
<text text-anchor="start" x="358.5" y="-84" font-family="Helvetica,sans-Serif" font-size="10.00">RefreshStatus &#45; Update AMS subscription &#160;&#160;</text>
</g>
<!-- finalizing&#45;&gt;finalizing -->
<g id="edge4" class="edge transition">
<title>finalizing&#45;&gt;finalizing</title>
<path fill="none" stroke="black" d="M431.65,-63.26C419.55,-80.4 427.33,-99 455,-99 477.7,-99 487.02,-86.49 482.95,-72.52"/>
<polygon fill="black" stroke="black" points="485.93,-70.66 478.35,-63.26 479.66,-73.77 485.93,-70.66"/>
<text text-anchor="start" x="363.5" y="-102" font-family="Helvetica,sans-Serif" font-size="10.00">RefreshStatus &#45; Maintain finalizing state &#160;&#160;</text>
</g>
<!-- installing -->
<g id="node2" class="node state regular">
<title>installing</title>
<polygon fill="#ffffff" fill-opacity="0.003922" stroke="transparent" stroke-width="2" points="126,-90 55,-90 55,-54 126,-54 126,-90"/>
<text text-anchor="start" x="66.5" y="-68.4" font-family="Helvetica,sans-Serif" font-size="12.00">installing</text>
<path fill="none" stroke="black" stroke-width="2" d="M67,-55.5C67,-55.5 114,-55.5 114,-55.5 119.5,-55.5 125,-61 125,-66.5 125,-66.5 125,-77.5 125,-77.5 125,-83 119.5,-88.5 114,-88.5 114,-88.5 67,-88.5 67,-88.5 61.5,-88.5 56,-83 56,-77.5 56,-77.5 56,-66.5 56,-66.5 56,-61 61.5,-55.5 67,-55.5"/>
</g>
<!-- installing&#45;&gt;finalizing -->
<g id="edge2" class="edge transition">
<title>installing&#45;&gt;finalizing</title>
<path fill="none" stroke="black" d="M126.45,-69.81C183.95,-66.15 302.1,-58.34 402,-50 404.53,-49.79 407.13,-49.56 409.75,-49.33"/>
<polygon fill="black" stroke="black" points="410.25,-52.8 419.89,-48.4 409.61,-45.83 410.25,-52.8"/>
<text text-anchor="start" x="222.5" y="-67" font-family="Helvetica,sans-Serif" font-size="10.00">RefreshStatus &#45; Move to finalizing &#160;&#160;</text>
</g>
<!-- installing&#45;pending&#45;user&#45;action -->
<g id="node3" class="node state regular">
<title>installing&#45;pending&#45;user&#45;action</title>
<polygon fill="#ffffff" fill-opacity="0.003922" stroke="transparent" stroke-width="2" points="181,-36 0,-36 0,0 181,0 181,-36"/>
<text text-anchor="start" x="11.5" y="-14.4" font-family="Helvetica,sans-Serif" font-size="12.00">installing&#45;pending&#45;user&#45;action</text>
<path fill="none" stroke="black" stroke-width="2" d="M12,-1.5C12,-1.5 169,-1.5 169,-1.5 174.5,-1.5 180,-7 180,-12.5 180,-12.5 180,-23.5 180,-23.5 180,-29 174.5,-34.5 169,-34.5 169,-34.5 12,-34.5 12,-34.5 6.5,-34.5 1,-29 1,-23.5 1,-23.5 1,-12.5 1,-12.5 1,-7 6.5,-1.5 12,-1.5"/>
</g>
<!-- installing&#45;pending&#45;user&#45;action&#45;&gt;finalizing -->
<g id="edge1" class="edge transition">
<title>installing&#45;pending&#45;user&#45;action&#45;&gt;finalizing</title>
<path fill="none" stroke="black" d="M181.27,-22.94C243.32,-26.64 327.75,-32.21 402,-39 404.53,-39.23 407.14,-39.48 409.76,-39.75"/>
<polygon fill="black" stroke="black" points="409.58,-43.25 419.9,-40.83 410.33,-36.29 409.58,-43.25"/>
<text text-anchor="start" x="199" y="-42" font-family="Helvetica,sans-Serif" font-size="10.00">RefreshStatus &#45; TODO: Name this transition &#160;&#160;</text>
</g>
</g>
</svg>
