<?xml version="1.0" encoding="UTF-8" standalone="no"?>
<!DOCTYPE svg PUBLIC "-//W3C//DTD SVG 1.1//EN"
 "http://www.w3.org/Graphics/SVG/1.1/DTD/svg11.dtd">
<!-- Generated by graphviz version 7.1.0 (0)
 -->
<!-- Title: state transitions Pages: 1 -->
<svg width="586pt" height="174pt"
 viewBox="0.00 0.00 586.00 173.97" xmlns="http://www.w3.org/2000/svg" xmlns:xlink="http://www.w3.org/1999/xlink">
<g id="graph0" class="graph" transform="scale(1 1) rotate(0) translate(4 169.97)">
<title>state transitions</title>
<polygon fill="white" stroke="none" points="-4,4 -4,-169.97 582,-169.97 582,4 -4,4"/>
<!-- error -->
<g id="node1" class="node state regular">
<title>error</title>
<polygon fill="#ffffff" fill-opacity="0.003922" stroke="none" stroke-width="2" points="492,-94.97 436,-94.97 436,-58.97 492,-58.97 492,-94.97"/>
<text text-anchor="start" x="451.5" y="-73.37" font-family="Helvetica,sans-Serif" font-size="12.00">error</text>
<path fill="none" stroke="black" stroke-width="2" d="M448,-60.47C448,-60.47 480,-60.47 480,-60.47 485.5,-60.47 491,-65.97 491,-71.47 491,-71.47 491,-82.47 491,-82.47 491,-87.97 485.5,-93.47 480,-93.47 480,-93.47 448,-93.47 448,-93.47 442.5,-93.47 437,-87.97 437,-82.47 437,-82.47 437,-71.47 437,-71.47 437,-65.97 442.5,-60.47 448,-60.47"/>
</g>
<!-- error&#45;&gt;error -->
<g id="edge5" class="edge transition">
<title>error&#45;&gt;error</title>
<path fill="none" stroke="black" d="M450.02,-94.76C447.65,-104.29 452.31,-112.97 464,-112.97 470.58,-112.97 474.93,-110.23 477.05,-106.13"/>
<polygon fill="black" stroke="black" points="480.53,-106.52 477.85,-96.26 473.56,-105.95 480.53,-106.52"/>
<text text-anchor="start" x="350" y="-115.97" font-family="Helvetica,sans-Serif" font-size="10.00">RefreshStatus &#45; Log collection timeout during error &#160;&#160;</text>
</g>
<!-- error&#45;&gt;error -->
<g id="edge6" class="edge transition">
<title>error&#45;&gt;error</title>
<path fill="none" stroke="black" d="M440.63,-94.95C428.12,-112.17 435.91,-130.97 464,-130.97 486.61,-130.97 496.07,-118.8 492.38,-105.07"/>
<polygon fill="black" stroke="black" points="495.62,-103.72 488.05,-96.31 489.34,-106.82 495.62,-103.72"/>
<text text-anchor="start" x="381.5" y="-133.97" font-family="Helvetica,sans-Serif" font-size="10.00">RefreshStatus &#45; Maintain error state &#160;&#160;</text>
</g>
<!-- finalizing -->
<g id="node2" class="node state regular">
<title>finalizing</title>
<polygon fill="#ffffff" fill-opacity="0.003922" stroke="none" stroke-width="2" points="125.5,-165.97 55.5,-165.97 55.5,-129.97 125.5,-129.97 125.5,-165.97"/>
<text text-anchor="start" x="66.5" y="-144.37" font-family="Helvetica,sans-Serif" font-size="12.00">finalizing</text>
<path fill="none" stroke="black" stroke-width="2" d="M67.5,-131.47C67.5,-131.47 113.5,-131.47 113.5,-131.47 119,-131.47 124.5,-136.97 124.5,-142.47 124.5,-142.47 124.5,-153.47 124.5,-153.47 124.5,-158.97 119,-164.47 113.5,-164.47 113.5,-164.47 67.5,-164.47 67.5,-164.47 62,-164.47 56.5,-158.97 56.5,-153.47 56.5,-153.47 56.5,-142.47 56.5,-142.47 56.5,-136.97 62,-131.47 67.5,-131.47"/>
</g>
<!-- finalizing&#45;&gt;error -->
<g id="edge3" class="edge transition">
<title>finalizing&#45;&gt;error</title>
<path fill="none" stroke="black" d="M125.39,-147.56C185.81,-145.91 315.43,-138.16 418,-102.97 420.69,-102.05 423.4,-100.96 426.08,-99.76"/>
<polygon fill="black" stroke="black" points="427.47,-102.98 434.85,-95.37 424.34,-96.72 427.47,-102.98"/>
<text text-anchor="start" x="213.5" y="-145.97" font-family="Helvetica,sans-Serif" font-size="10.00">RefreshStatus &#45; Timed out while finalizing &#160;&#160;</text>
</g>
<!-- installing -->
<g id="node3" class="node state regular">
<title>installing</title>
<polygon fill="#ffffff" fill-opacity="0.003922" stroke="none" stroke-width="2" points="126,-111.97 55,-111.97 55,-75.97 126,-75.97 126,-111.97"/>
<text text-anchor="start" x="66.5" y="-90.37" font-family="Helvetica,sans-Serif" font-size="12.00">installing</text>
<path fill="none" stroke="black" stroke-width="2" d="M67,-77.47C67,-77.47 114,-77.47 114,-77.47 119.5,-77.47 125,-82.97 125,-88.47 125,-88.47 125,-99.47 125,-99.47 125,-104.97 119.5,-110.47 114,-110.47 114,-110.47 67,-110.47 67,-110.47 61.5,-110.47 56,-104.97 56,-99.47 56,-99.47 56,-88.47 56,-88.47 56,-82.97 61.5,-77.47 67,-77.47"/>
</g>
<!-- installing&#45;&gt;error -->
<g id="edge4" class="edge transition">
<title>installing&#45;&gt;error</title>
<path fill="none" stroke="black" d="M125.78,-92.41C195.38,-89.22 352.74,-82.02 425.19,-78.7"/>
<polygon fill="black" stroke="black" points="425.13,-82.21 434.96,-78.26 424.81,-75.22 425.13,-82.21"/>
<text text-anchor="start" x="233" y="-90.97" font-family="Helvetica,sans-Serif" font-size="10.00">RefreshStatus &#45; Installation error &#160;&#160;</text>
</g>
<!-- installing&#45;pending&#45;user&#45;action -->
<g id="node4" class="node state regular">
<title>installing&#45;pending&#45;user&#45;action</title>
<polygon fill="#ffffff" fill-opacity="0.003922" stroke="none" stroke-width="2" points="181,-50.97 0,-50.97 0,-14.97 181,-14.97 181,-50.97"/>
<text text-anchor="start" x="11.5" y="-29.37" font-family="Helvetica,sans-Serif" font-size="12.00">installing&#45;pending&#45;user&#45;action</text>
<path fill="none" stroke="black" stroke-width="2" d="M12,-16.47C12,-16.47 169,-16.47 169,-16.47 174.5,-16.47 180,-21.97 180,-27.47 180,-27.47 180,-38.47 180,-38.47 180,-43.97 174.5,-49.47 169,-49.47 169,-49.47 12,-49.47 12,-49.47 6.5,-49.47 1,-43.97 1,-38.47 1,-38.47 1,-27.47 1,-27.47 1,-21.97 6.5,-16.47 12,-16.47"/>
</g>
<!-- installing&#45;pending&#45;user&#45;action&#45;&gt;error -->
<g id="edge1" class="edge transition">
<title>installing&#45;pending&#45;user&#45;action&#45;&gt;error</title>
<path fill="none" stroke="black" d="M180.82,-36.95C246.8,-40.98 338.57,-48.87 418,-63.97 420.31,-64.41 422.67,-64.92 425.04,-65.47"/>
<polygon fill="black" stroke="black" points="424.05,-68.83 434.6,-67.93 425.79,-62.05 424.05,-68.83"/>
<text text-anchor="start" x="207" y="-66.97" font-family="Helvetica,sans-Serif" font-size="10.00">RefreshStatus &#45; TODO: Name this transition &#160;&#160;</text>
</g>
<!-- installing&#45;pending&#45;user&#45;action&#45;&gt;error -->
<g id="edge2" class="edge transition">
<title>installing&#45;pending&#45;user&#45;action&#45;&gt;error</title>
<path fill="none" stroke="black" d="M157.76,-15.02C226.24,-0.1 334.59,13.15 418,-24.97 429.6,-30.28 439.36,-40.21 446.79,-49.99"/>
<polygon fill="black" stroke="black" points="443.73,-51.72 452.32,-57.92 449.47,-47.71 443.73,-51.72"/>
<text text-anchor="start" x="199" y="-27.97" font-family="Helvetica,sans-Serif" font-size="10.00">RefreshStatus &#45; Timed out while waiting for user &#160;&#160;</text>
</g>
</g>
</svg>
