<?xml version="1.0" encoding="UTF-8" standalone="no"?>
<!DOCTYPE svg PUBLIC "-//W3C//DTD SVG 1.1//EN"
 "http://www.w3.org/Graphics/SVG/1.1/DTD/svg11.dtd">
<!-- Generated by graphviz version 5.0.0 (0)
 -->
<!-- Title: state transitions Pages: 1 -->
<svg width="403pt" height="73pt"
 viewBox="0.00 0.00 402.50 73.00" xmlns="http://www.w3.org/2000/svg" xmlns:xlink="http://www.w3.org/1999/xlink">
<g id="graph0" class="graph" transform="scale(1 1) rotate(0) translate(4 69)">
<title>state transitions</title>
<polygon fill="white" stroke="transparent" points="-4,4 -4,-69 398.5,-69 398.5,4 -4,4"/>
<!-- finalizing -->
<g id="node1" class="node state regular">
<title>finalizing</title>
<polygon fill="#ffffff" fill-opacity="0.003922" stroke="transparent" stroke-width="2" points="70,-36 0,-36 0,0 70,0 70,-36"/>
<text text-anchor="start" x="11" y="-14.4" font-family="Helvetica,sans-Serif" font-size="12.00">finalizing</text>
<path fill="none" stroke="black" stroke-width="2" d="M12,-1.5C12,-1.5 58,-1.5 58,-1.5 63.5,-1.5 69,-7 69,-12.5 69,-12.5 69,-23.5 69,-23.5 69,-29 63.5,-34.5 58,-34.5 58,-34.5 12,-34.5 12,-34.5 6.5,-34.5 1,-29 1,-23.5 1,-23.5 1,-12.5 1,-12.5 1,-7 6.5,-1.5 12,-1.5"/>
</g>
<!-- installed -->
<g id="node2" class="node state regular">
<title>installed</title>
<polygon fill="#ffffff" fill-opacity="0.003922" stroke="transparent" stroke-width="2" points="338,-36 270,-36 270,0 338,0 338,-36"/>
<text text-anchor="start" x="281" y="-14.4" font-family="Helvetica,sans-Serif" font-size="12.00">installed</text>
<path fill="none" stroke="black" stroke-width="2" d="M282,-1.5C282,-1.5 326,-1.5 326,-1.5 331.5,-1.5 337,-7 337,-12.5 337,-12.5 337,-23.5 337,-23.5 337,-29 331.5,-34.5 326,-34.5 326,-34.5 282,-34.5 282,-34.5 276.5,-34.5 271,-29 271,-23.5 271,-23.5 271,-12.5 271,-12.5 271,-7 276.5,-1.5 282,-1.5"/>
</g>
<!-- finalizing&#45;&gt;installed -->
<g id="edge1" class="edge transition">
<title>finalizing&#45;&gt;installed</title>
<path fill="none" stroke="black" d="M70.09,-18C118.46,-18 207,-18 259.88,-18"/>
<polygon fill="black" stroke="black" points="259.95,-21.5 269.95,-18 259.95,-14.5 259.95,-21.5"/>
<text text-anchor="start" x="88" y="-21" font-family="Helvetica,sans-Serif" font-size="10.00">RefreshStatus &#45; Finalizing complete &#160;&#160;</text>
</g>
<!-- installed&#45;&gt;installed -->
<g id="edge2" class="edge transition">
<title>installed&#45;&gt;installed</title>
<path fill="none" stroke="black" d="M279.76,-36.15C276.03,-45.54 284.11,-54 304,-54 316.12,-54 323.86,-50.86 327.21,-46.28"/>
<polygon fill="black" stroke="black" points="330.71,-46.46 328.24,-36.15 323.74,-45.74 330.71,-46.46"/>
<text text-anchor="start" x="213.5" y="-57" font-family="Helvetica,sans-Serif" font-size="10.00">RefreshStatus &#45; Maintain installed state &#160;&#160;</text>
</g>
</g>
</svg>
