<?xml version="1.0" encoding="UTF-8" standalone="no"?>
<!DOCTYPE svg PUBLIC "-//W3C//DTD SVG 1.1//EN"
 "http://www.w3.org/Graphics/SVG/1.1/DTD/svg11.dtd">
<!-- Generated by graphviz version 12.1.0 (20240811.2233)
 -->
<!-- Title: state transitions Pages: 1 -->
<svg width="761pt" height="513pt"
 viewBox="0.00 0.00 761.38 512.82" xmlns="http://www.w3.org/2000/svg" xmlns:xlink="http://www.w3.org/1999/xlink">
<g id="graph0" class="graph" transform="scale(1 1) rotate(0) translate(4 508.82)">
<title>state transitions</title>
<polygon fill="white" stroke="none" points="-4,4 -4,-508.82 757.38,-508.82 757.38,4 -4,4"/>
<!-- cancelled -->
<g id="node1" class="node state regular">
<title>cancelled</title>
<polygon fill="#ffffff" fill-opacity="0.003922" stroke="none" stroke-width="2" points="138.62,-478.64 59.62,-478.64 59.62,-442.39 138.62,-442.39 138.62,-478.64"/>
<text text-anchor="start" x="70.62" y="-456.24" font-family="Helvetica,sans-Serif" font-size="12.00">cancelled</text>
<path fill="none" stroke="black" stroke-width="2" d="M72.04,-443.39C72.04,-443.39 126.21,-443.39 126.21,-443.39 131.92,-443.39 137.62,-449.1 137.62,-454.81 137.62,-454.81 137.62,-466.23 137.62,-466.23 137.62,-471.94 131.92,-477.64 126.21,-477.64 126.21,-477.64 72.04,-477.64 72.04,-477.64 66.33,-477.64 60.62,-471.94 60.62,-466.23 60.62,-466.23 60.62,-454.81 60.62,-454.81 60.62,-449.1 66.33,-443.39 72.04,-443.39"/>
</g>
<!-- insufficient -->
<g id="node2" class="node state regular">
<title>insufficient</title>
<polygon fill="#ffffff" fill-opacity="0.003922" stroke="none" stroke-width="2" points="638,-244.64 551.5,-244.64 551.5,-208.39 638,-208.39 638,-244.64"/>
<text text-anchor="start" x="562.5" y="-222.24" font-family="Helvetica,sans-Serif" font-size="12.00">insufficient</text>
<path fill="none" stroke="black" stroke-width="2" d="M563.92,-209.39C563.92,-209.39 625.58,-209.39 625.58,-209.39 631.29,-209.39 637,-215.1 637,-220.81 637,-220.81 637,-232.23 637,-232.23 637,-237.94 631.29,-243.64 625.58,-243.64 625.58,-243.64 563.92,-243.64 563.92,-243.64 558.21,-243.64 552.5,-237.94 552.5,-232.23 552.5,-232.23 552.5,-220.81 552.5,-220.81 552.5,-215.1 558.21,-209.39 563.92,-209.39"/>
</g>
<!-- cancelled&#45;&gt;insufficient -->
<g id="edge1" class="edge transition">
<title>cancelled&#45;&gt;insufficient</title>
<path fill="none" stroke="black" d="M138.54,-470.68C221.01,-490 416.95,-522.25 533.5,-428.52 585.88,-386.4 594.11,-300.74 594.58,-255.7"/>
<polygon fill="black" stroke="black" points="598.08,-255.9 594.55,-245.91 591.08,-255.93 598.08,-255.9"/>
<text text-anchor="start" x="290.12" y="-495.32" font-family="Helvetica,sans-Serif" font-size="10.00">Reset Cluster &#45; Reset installation &#160;&#160;</text>
</g>
<!-- insufficient&#45;&gt;insufficient -->
<g id="edge6" class="edge transition">
<title>insufficient&#45;&gt;insufficient</title>
<path fill="none" stroke="black" d="M574.99,-244.36C571.63,-253.93 578.22,-262.64 594.75,-262.64 604.05,-262.64 610.2,-259.89 613.21,-255.77"/>
<polygon fill="black" stroke="black" points="616.68,-256.2 614.34,-245.87 609.73,-255.4 616.68,-256.2"/>
<text text-anchor="start" x="436.12" y="-265.89" font-family="Helvetica,sans-Serif" font-size="10.00">RefreshStatus &#45; Refresh discovering cluster &#45; detect insufficient &#160;&#160;</text>
</g>
<!-- insufficient&#45;&gt;insufficient -->
<g id="edge7" class="edge transition">
<title>insufficient&#45;&gt;insufficient</title>
<path fill="none" stroke="black" d="M561.7,-244.54C544.01,-261.8 555.03,-280.64 594.75,-280.64 627.65,-280.64 640.86,-267.72 634.38,-253.48"/>
<polygon fill="black" stroke="black" points="637.44,-251.74 628.7,-245.76 631.81,-255.89 637.44,-251.74"/>
<text text-anchor="start" x="484.12" y="-283.89" font-family="Helvetica,sans-Serif" font-size="10.00">RefreshStatus &#45; TODO: Name this transition &#160;&#160;</text>
</g>
<!-- error -->
<g id="node3" class="node state regular">
<title>error</title>
<polygon fill="#ffffff" fill-opacity="0.003922" stroke="none" stroke-width="2" points="127.12,-424.64 71.12,-424.64 71.12,-388.39 127.12,-388.39 127.12,-424.64"/>
<text text-anchor="start" x="84.5" y="-402.24" font-family="Helvetica,sans-Serif" font-size="12.00">error</text>
<path fill="none" stroke="black" stroke-width="2" d="M83.54,-389.39C83.54,-389.39 114.71,-389.39 114.71,-389.39 120.42,-389.39 126.12,-395.1 126.12,-400.81 126.12,-400.81 126.12,-412.23 126.12,-412.23 126.12,-417.94 120.42,-423.64 114.71,-423.64 114.71,-423.64 83.54,-423.64 83.54,-423.64 77.83,-423.64 72.12,-417.94 72.12,-412.23 72.12,-412.23 72.12,-400.81 72.12,-400.81 72.12,-395.1 77.83,-389.39 83.54,-389.39"/>
</g>
<!-- error&#45;&gt;insufficient -->
<g id="edge2" class="edge transition">
<title>error&#45;&gt;insufficient</title>
<path fill="none" stroke="black" d="M126.9,-408.02C211.05,-412.22 468.44,-420.85 533.5,-373.52 571.51,-345.87 585.61,-289.89 590.79,-255.56"/>
<polygon fill="black" stroke="black" points="594.23,-256.27 592.08,-245.89 587.29,-255.34 594.23,-256.27"/>
<text text-anchor="start" x="290.12" y="-414.72" font-family="Helvetica,sans-Serif" font-size="10.00">Reset Cluster &#45; Reset installation &#160;&#160;</text>
</g>
<!-- finalizing -->
<g id="node4" class="node state regular">
<title>finalizing</title>
<polygon fill="#ffffff" fill-opacity="0.003922" stroke="none" stroke-width="2" points="136.38,-370.64 61.88,-370.64 61.88,-334.39 136.38,-334.39 136.38,-370.64"/>
<text text-anchor="start" x="72.88" y="-348.24" font-family="Helvetica,sans-Serif" font-size="12.00">finalizing</text>
<path fill="none" stroke="black" stroke-width="2" d="M74.29,-335.39C74.29,-335.39 123.96,-335.39 123.96,-335.39 129.67,-335.39 135.38,-341.1 135.38,-346.81 135.38,-346.81 135.38,-358.23 135.38,-358.23 135.38,-363.94 129.67,-369.64 123.96,-369.64 123.96,-369.64 74.29,-369.64 74.29,-369.64 68.58,-369.64 62.88,-363.94 62.88,-358.23 62.88,-358.23 62.88,-346.81 62.88,-346.81 62.88,-341.1 68.58,-335.39 74.29,-335.39"/>
</g>
<!-- finalizing&#45;&gt;insufficient -->
<g id="edge3" class="edge transition">
<title>finalizing&#45;&gt;insufficient</title>
<path fill="none" stroke="black" d="M136.32,-354.35C228.06,-358.33 467.14,-364.48 533.5,-324.52 559.23,-309.02 575.52,-277.91 584.59,-254.88"/>
<polygon fill="black" stroke="black" points="587.78,-256.34 587.94,-245.75 581.21,-253.93 587.78,-256.34"/>
<text text-anchor="start" x="290.12" y="-360.51" font-family="Helvetica,sans-Serif" font-size="10.00">Reset Cluster &#45; Reset installation &#160;&#160;</text>
</g>
<!-- installing -->
<g id="node5" class="node state regular">
<title>installing</title>
<polygon fill="#ffffff" fill-opacity="0.003922" stroke="none" stroke-width="2" points="136.38,-316.64 61.88,-316.64 61.88,-280.39 136.38,-280.39 136.38,-316.64"/>
<text text-anchor="start" x="72.88" y="-294.24" font-family="Helvetica,sans-Serif" font-size="12.00">installing</text>
<path fill="none" stroke="black" stroke-width="2" d="M74.29,-281.39C74.29,-281.39 123.96,-281.39 123.96,-281.39 129.67,-281.39 135.38,-287.1 135.38,-292.81 135.38,-292.81 135.38,-304.23 135.38,-304.23 135.38,-309.94 129.67,-315.64 123.96,-315.64 123.96,-315.64 74.29,-315.64 74.29,-315.64 68.58,-315.64 62.88,-309.94 62.88,-304.23 62.88,-304.23 62.88,-292.81 62.88,-292.81 62.88,-287.1 68.58,-281.39 74.29,-281.39"/>
</g>
<!-- installing&#45;&gt;insufficient -->
<g id="edge4" class="edge transition">
<title>installing&#45;&gt;insufficient</title>
<path fill="none" stroke="black" d="M136.24,-302.34C212.28,-309.05 393.38,-317.92 533.5,-268.52 544.59,-264.61 555.52,-258.06 564.95,-251.29"/>
<polygon fill="black" stroke="black" points="566.79,-254.28 572.63,-245.44 562.55,-248.71 566.79,-254.28"/>
<text text-anchor="start" x="290.12" y="-310.86" font-family="Helvetica,sans-Serif" font-size="10.00">Reset Cluster &#45; Reset installation &#160;&#160;</text>
</g>
<!-- installing&#45;pending&#45;user&#45;action -->
<g id="node6" class="node state regular">
<title>installing&#45;pending&#45;user&#45;action</title>
<polygon fill="#ffffff" fill-opacity="0.003922" stroke="none" stroke-width="2" points="198.25,-262.64 0,-262.64 0,-226.39 198.25,-226.39 198.25,-262.64"/>
<text text-anchor="start" x="11" y="-240.24" font-family="Helvetica,sans-Serif" font-size="12.00">installing&#45;pending&#45;user&#45;action</text>
<path fill="none" stroke="black" stroke-width="2" d="M12.42,-227.39C12.42,-227.39 185.83,-227.39 185.83,-227.39 191.54,-227.39 197.25,-233.1 197.25,-238.81 197.25,-238.81 197.25,-250.23 197.25,-250.23 197.25,-255.94 191.54,-261.64 185.83,-261.64 185.83,-261.64 12.42,-261.64 12.42,-261.64 6.71,-261.64 1,-255.94 1,-250.23 1,-250.23 1,-238.81 1,-238.81 1,-233.1 6.71,-227.39 12.42,-227.39"/>
</g>
<!-- installing&#45;pending&#45;user&#45;action&#45;&gt;insufficient -->
<g id="edge5" class="edge transition">
<title>installing&#45;pending&#45;user&#45;action&#45;&gt;insufficient</title>
<path fill="none" stroke="black" d="M198.19,-249.71C286.29,-252.92 419,-254.18 533.5,-240.52 535.83,-240.24 538.21,-239.91 540.6,-239.53"/>
<polygon fill="black" stroke="black" points="541.12,-242.99 550.33,-237.77 539.87,-236.11 541.12,-242.99"/>
<text text-anchor="start" x="290.12" y="-255.06" font-family="Helvetica,sans-Serif" font-size="10.00">Reset Cluster &#45; Reset installation &#160;&#160;</text>
</g>
<!-- pending&#45;for&#45;input -->
<g id="node7" class="node state regular">
<title>pending&#45;for&#45;input</title>
<polygon fill="#ffffff" fill-opacity="0.003922" stroke="none" stroke-width="2" points="161.88,-208.64 36.38,-208.64 36.38,-172.39 161.88,-172.39 161.88,-208.64"/>
<text text-anchor="start" x="47.38" y="-186.24" font-family="Helvetica,sans-Serif" font-size="12.00">pending&#45;for&#45;input</text>
<path fill="none" stroke="black" stroke-width="2" d="M48.79,-173.39C48.79,-173.39 149.46,-173.39 149.46,-173.39 155.17,-173.39 160.88,-179.1 160.88,-184.81 160.88,-184.81 160.88,-196.23 160.88,-196.23 160.88,-201.94 155.17,-207.64 149.46,-207.64 149.46,-207.64 48.79,-207.64 48.79,-207.64 43.08,-207.64 37.38,-201.94 37.38,-196.23 37.38,-196.23 37.38,-184.81 37.38,-184.81 37.38,-179.1 43.08,-173.39 48.79,-173.39"/>
</g>
<!-- pending&#45;for&#45;input&#45;&gt;insufficient -->
<g id="edge8" class="edge transition">
<title>pending&#45;for&#45;input&#45;&gt;insufficient</title>
<path fill="none" stroke="black" d="M161.82,-198.68C179.39,-200.8 198.55,-202.94 216.25,-204.52 277.58,-210 451.71,-219.26 540.41,-223.82"/>
<polygon fill="black" stroke="black" points="540.14,-227.31 550.31,-224.33 540.5,-220.32 540.14,-227.31"/>
<text text-anchor="start" x="216.25" y="-226.43" font-family="Helvetica,sans-Serif" font-size="10.00">RefreshStatus &#45; Refresh discovering cluster &#45; detect insufficient &#160;&#160;</text>
</g>
<!-- pending&#45;for&#45;input&#45;&gt;insufficient -->
<g id="edge9" class="edge transition">
<title>pending&#45;for&#45;input&#45;&gt;insufficient</title>
<path fill="none" stroke="black" d="M161.59,-188.79C179.24,-188.37 198.5,-187.98 216.25,-187.77 357.24,-186.1 398.22,-148.02 533.5,-187.77 543.84,-190.81 554.08,-196.23 563.11,-202.07"/>
<polygon fill="black" stroke="black" points="560.92,-204.81 571.13,-207.62 564.9,-199.05 560.92,-204.81"/>
<text text-anchor="start" x="264.25" y="-191.02" font-family="Helvetica,sans-Serif" font-size="10.00">RefreshStatus &#45; TODO: Name this transition &#160;&#160;</text>
</g>
<!-- preparing&#45;for&#45;installation -->
<g id="node8" class="node state regular">
<title>preparing&#45;for&#45;installation</title>
<polygon fill="#ffffff" fill-opacity="0.003922" stroke="none" stroke-width="2" points="184,-145.64 14.25,-145.64 14.25,-109.39 184,-109.39 184,-145.64"/>
<text text-anchor="start" x="25.25" y="-123.24" font-family="Helvetica,sans-Serif" font-size="12.00">preparing&#45;for&#45;installation</text>
<path fill="none" stroke="black" stroke-width="2" d="M26.67,-110.39C26.67,-110.39 171.58,-110.39 171.58,-110.39 177.29,-110.39 183,-116.1 183,-121.81 183,-121.81 183,-133.23 183,-133.23 183,-138.94 177.29,-144.64 171.58,-144.64 171.58,-144.64 26.67,-144.64 26.67,-144.64 20.96,-144.64 15.25,-138.94 15.25,-133.23 15.25,-133.23 15.25,-121.81 15.25,-121.81 15.25,-116.1 20.96,-110.39 26.67,-110.39"/>
</g>
<!-- preparing&#45;for&#45;installation&#45;&gt;insufficient -->
<g id="edge10" class="edge transition">
<title>preparing&#45;for&#45;installation&#45;&gt;insufficient</title>
<path fill="none" stroke="black" d="M183.87,-131.55C307.67,-137.63 525.82,-148.85 533.5,-152.77 553.13,-162.79 568.66,-182.38 579.03,-198.85"/>
<polygon fill="black" stroke="black" points="575.92,-200.47 584.04,-207.29 581.94,-196.9 575.92,-200.47"/>
<text text-anchor="start" x="238" y="-156.02" font-family="Helvetica,sans-Serif" font-size="10.00">RefreshStatus &#45; Refresh preparing cluster &#45; insufficient &#160;&#160;</text>
</g>
<!-- preparing&#45;for&#45;installation&#45;&gt;insufficient -->
<g id="edge11" class="edge transition">
<title>preparing&#45;for&#45;installation&#45;&gt;insufficient</title>
<path fill="none" stroke="black" d="M183.94,-115.14C293.04,-100.77 476.5,-83.04 533.5,-116.77 562.83,-134.13 578.83,-171.39 586.83,-197.67"/>
<polygon fill="black" stroke="black" points="583.39,-198.37 589.47,-207.05 590.13,-196.48 583.39,-198.37"/>
<text text-anchor="start" x="290.12" y="-120.02" font-family="Helvetica,sans-Serif" font-size="10.00">Reset Cluster &#45; Reset installation &#160;&#160;</text>
</g>
<!-- ready -->
<g id="node9" class="node state regular">
<title>ready</title>
<polygon fill="#ffffff" fill-opacity="0.003922" stroke="none" stroke-width="2" points="127.12,-82.64 71.12,-82.64 71.12,-46.39 127.12,-46.39 127.12,-82.64"/>
<text text-anchor="start" x="82.25" y="-60.24" font-family="Helvetica,sans-Serif" font-size="12.00">ready</text>
<path fill="none" stroke="black" stroke-width="2" d="M83.54,-47.39C83.54,-47.39 114.71,-47.39 114.71,-47.39 120.42,-47.39 126.12,-53.1 126.12,-58.81 126.12,-58.81 126.12,-70.23 126.12,-70.23 126.12,-75.94 120.42,-81.64 114.71,-81.64 114.71,-81.64 83.54,-81.64 83.54,-81.64 77.83,-81.64 72.12,-75.94 72.12,-70.23 72.12,-70.23 72.12,-58.81 72.12,-58.81 72.12,-53.1 77.83,-47.39 83.54,-47.39"/>
</g>
<!-- ready&#45;&gt;insufficient -->
<g id="edge12" class="edge transition">
<title>ready&#45;&gt;insufficient</title>
<path fill="none" stroke="black" d="M127.04,-63.86C216.53,-61.91 500.25,-57.62 533.5,-80.77 571.79,-107.43 585.8,-163.18 590.89,-197.48"/>
<polygon fill="black" stroke="black" points="587.39,-197.66 592.15,-207.13 594.33,-196.76 587.39,-197.66"/>
<text text-anchor="start" x="216.25" y="-84.02" font-family="Helvetica,sans-Serif" font-size="10.00">RefreshStatus &#45; Refresh discovering cluster &#45; detect insufficient &#160;&#160;</text>
</g>
<!-- ready&#45;&gt;insufficient -->
<g id="edge13" class="edge transition">
<title>ready&#45;&gt;insufficient</title>
<path fill="none" stroke="black" d="M126.98,-53.02C200.25,-23.63 406.58,45.71 533.5,-45.77 581.74,-80.53 591.94,-155.6 593.74,-197.22"/>
<polygon fill="black" stroke="black" points="590.23,-197.09 594.01,-206.99 597.23,-196.89 590.23,-197.09"/>
<text text-anchor="start" x="264.25" y="-49.02" font-family="Helvetica,sans-Serif" font-size="10.00">RefreshStatus &#45; TODO: Name this transition &#160;&#160;</text>
</g>
</g>
</svg>
