<?xml version="1.0" encoding="UTF-8" standalone="no"?>
<!DOCTYPE svg PUBLIC "-//W3C//DTD SVG 1.1//EN"
 "http://www.w3.org/Graphics/SVG/1.1/DTD/svg11.dtd">
<!-- Generated by graphviz version 12.1.0 (20240811.2233)
 -->
<!-- Title: state transitions Pages: 1 -->
<svg width="438pt" height="75pt"
 viewBox="0.00 0.00 437.75 75.00" xmlns="http://www.w3.org/2000/svg" xmlns:xlink="http://www.w3.org/1999/xlink">
<g id="graph0" class="graph" transform="scale(1 1) rotate(0) translate(4 71)">
<title>state transitions</title>
<polygon fill="white" stroke="none" points="-4,4 -4,-71 433.75,-71 433.75,4 -4,4"/>
<!-- finalizing -->
<g id="node1" class="node state regular">
<title>finalizing</title>
<polygon fill="#ffffff" fill-opacity="0.003922" stroke="none" stroke-width="2" points="74.5,-36.25 0,-36.25 0,0 74.5,0 74.5,-36.25"/>
<text text-anchor="start" x="11" y="-13.85" font-family="Helvetica,sans-Serif" font-size="12.00">finalizing</text>
<path fill="none" stroke="black" stroke-width="2" d="M12.42,-1C12.42,-1 62.08,-1 62.08,-1 67.79,-1 73.5,-6.71 73.5,-12.42 73.5,-12.42 73.5,-23.83 73.5,-23.83 73.5,-29.54 67.79,-35.25 62.08,-35.25 62.08,-35.25 12.42,-35.25 12.42,-35.25 6.71,-35.25 1,-29.54 1,-23.83 1,-23.83 1,-12.42 1,-12.42 1,-6.71 6.71,-1 12.42,-1"/>
</g>
<!-- installed -->
<g id="node2" class="node state regular">
<title>installed</title>
<polygon fill="#ffffff" fill-opacity="0.003922" stroke="none" stroke-width="2" points="364.25,-36.25 292.75,-36.25 292.75,0 364.25,0 364.25,-36.25"/>
<text text-anchor="start" x="303.75" y="-13.85" font-family="Helvetica,sans-Serif" font-size="12.00">installed</text>
<path fill="none" stroke="black" stroke-width="2" d="M305.17,-1C305.17,-1 351.83,-1 351.83,-1 357.54,-1 363.25,-6.71 363.25,-12.42 363.25,-12.42 363.25,-23.83 363.25,-23.83 363.25,-29.54 357.54,-35.25 351.83,-35.25 351.83,-35.25 305.17,-35.25 305.17,-35.25 299.46,-35.25 293.75,-29.54 293.75,-23.83 293.75,-23.83 293.75,-12.42 293.75,-12.42 293.75,-6.71 299.46,-1 305.17,-1"/>
</g>
<!-- finalizing&#45;&gt;installed -->
<g id="edge1" class="edge transition">
<title>finalizing&#45;&gt;installed</title>
<path fill="none" stroke="black" d="M74.3,-18.12C126.72,-18.12 223.99,-18.12 281.51,-18.12"/>
<polygon fill="black" stroke="black" points="281.29,-21.63 291.29,-18.13 281.29,-14.63 281.29,-21.63"/>
<text text-anchor="start" x="92.5" y="-21.38" font-family="Helvetica,sans-Serif" font-size="10.00">RefreshStatus &#45; Finalizing complete &#160;&#160;</text>
</g>
<!-- installed&#45;&gt;installed -->
<g id="edge2" class="edge transition">
<title>installed&#45;&gt;installed</title>
<path fill="none" stroke="black" d="M302.46,-35.97C298.03,-45.53 306.71,-54.25 328.5,-54.25 341.1,-54.25 349.31,-51.34 353.15,-47.03"/>
<polygon fill="black" stroke="black" points="356.57,-47.83 354.35,-37.47 349.63,-46.95 356.57,-47.83"/>
<text text-anchor="start" x="227.25" y="-57.5" font-family="Helvetica,sans-Serif" font-size="10.00">RefreshStatus &#45; Maintain installed state &#160;&#160;</text>
</g>
</g>
</svg>
