<?xml version="1.0" encoding="UTF-8" standalone="no"?>
<!DOCTYPE svg PUBLIC "-//W3C//DTD SVG 1.1//EN"
 "http://www.w3.org/Graphics/SVG/1.1/DTD/svg11.dtd">
<!-- Generated by graphviz version 5.0.0 (0)
 -->
<!-- Title: state transitions Pages: 1 -->
<svg width="586pt" height="174pt"
 viewBox="0.00 0.00 586.00 173.97" xmlns="http://www.w3.org/2000/svg" xmlns:xlink="http://www.w3.org/1999/xlink">
<g id="graph0" class="graph" transform="scale(1 1) rotate(0) translate(4 169.97)">
<title>state transitions</title>
<polygon fill="white" stroke="transparent" points="-4,4 -4,-169.97 582,-169.97 582,4 -4,4"/>
<!-- error -->
<g id="node1" class="node state regular">
<title>error</title>
<polygon fill="#ffffff" fill-opacity="0.003922" stroke="transparent" stroke-width="2" points="492,-94.97 436,-94.97 436,-58.97 492,-58.97 492,-94.97"/>
<text text-anchor="start" x="451.5" y="-73.37" font-family="Helvetica,sans-Serif" font-size="12.00">error</text>
<path fill="none" stroke="black" stroke-width="2" d="M448,-60.47C448,-60.47 480,-60.47 480,-60.47 485.5,-60.47 491,-65.97 491,-71.47 491,-71.47 491,-82.47 491,-82.47 491,-87.97 485.5,-93.47 480,-93.47 480,-93.47 448,-93.47 448,-93.47 442.5,-93.47 437,-87.97 437,-82.47 437,-82.47 437,-71.47 437,-71.47 437,-65.97 442.5,-60.47 448,-60.47"/>
</g>
<!-- error&#45;&gt;error -->
<g id="edge5" class="edge transition">
<title>error&#45;&gt;error</title>
<path fill="none" stroke="black" d="M450.07,-95.12C447.93,-104.51 452.57,-112.97 464,-112.97 470.96,-112.97 475.41,-109.83 477.33,-105.25"/>
<polygon fill="black" stroke="black" points="480.84,-105.31 477.93,-95.12 473.85,-104.9 480.84,-105.31"/>
<text text-anchor="start" x="350" y="-115.97" font-family="Helvetica,sans-Serif" font-size="10.00">RefreshStatus &#45; Log collection timeout during error &#160;&#160;</text>
</g>
<!-- error&#45;&gt;error -->
<g id="edge6" class="edge transition">
<title>error&#45;&gt;error</title>
<path fill="none" stroke="black" d="M440.65,-95.23C428.55,-112.37 436.33,-130.97 464,-130.97 486.7,-130.97 496.02,-118.46 491.95,-104.5"/>
<polygon fill="black" stroke="black" points="494.93,-102.63 487.35,-95.23 488.66,-105.74 494.93,-102.63"/>
<text text-anchor="start" x="381.5" y="-133.97" font-family="Helvetica,sans-Serif" font-size="10.00">RefreshStatus &#45; Maintain error state &#160;&#160;</text>
</g>
<!-- finalizing -->
<g id="node2" class="node state regular">
<title>finalizing</title>
<polygon fill="#ffffff" fill-opacity="0.003922" stroke="transparent" stroke-width="2" points="125.5,-165.97 55.5,-165.97 55.5,-129.97 125.5,-129.97 125.5,-165.97"/>
<text text-anchor="start" x="66.5" y="-144.37" font-family="Helvetica,sans-Serif" font-size="12.00">finalizing</text>
<path fill="none" stroke="black" stroke-width="2" d="M67.5,-131.47C67.5,-131.47 113.5,-131.47 113.5,-131.47 119,-131.47 124.5,-136.97 124.5,-142.47 124.5,-142.47 124.5,-153.47 124.5,-153.47 124.5,-158.97 119,-164.47 113.5,-164.47 113.5,-164.47 67.5,-164.47 67.5,-164.47 62,-164.47 56.5,-158.97 56.5,-153.47 56.5,-153.47 56.5,-142.47 56.5,-142.47 56.5,-136.97 62,-131.47 67.5,-131.47"/>
</g>
<!-- finalizing&#45;&gt;error -->
<g id="edge3" class="edge transition">
<title>finalizing&#45;&gt;error</title>
<path fill="none" stroke="black" d="M125.87,-147.55C186.49,-145.87 315.71,-138.06 418,-102.97 420.89,-101.98 423.81,-100.79 426.69,-99.48"/>
<polygon fill="black" stroke="black" points="428.35,-102.57 435.71,-94.96 425.21,-96.31 428.35,-102.57"/>
<text text-anchor="start" x="213.5" y="-145.97" font-family="Helvetica,sans-Serif" font-size="10.00">RefreshStatus &#45; Timed out while finalizing &#160;&#160;</text>
</g>
<!-- installing -->
<g id="node3" class="node state regular">
<title>installing</title>
<polygon fill="#ffffff" fill-opacity="0.003922" stroke="transparent" stroke-width="2" points="126,-111.97 55,-111.97 55,-75.97 126,-75.97 126,-111.97"/>
<text text-anchor="start" x="66.5" y="-90.37" font-family="Helvetica,sans-Serif" font-size="12.00">installing</text>
<path fill="none" stroke="black" stroke-width="2" d="M67,-77.47C67,-77.47 114,-77.47 114,-77.47 119.5,-77.47 125,-82.97 125,-88.47 125,-88.47 125,-99.47 125,-99.47 125,-104.97 119.5,-110.47 114,-110.47 114,-110.47 67,-110.47 67,-110.47 61.5,-110.47 56,-104.97 56,-99.47 56,-99.47 56,-88.47 56,-88.47 56,-82.97 61.5,-77.47 67,-77.47"/>
</g>
<!-- installing&#45;&gt;error -->
<g id="edge4" class="edge transition">
<title>installing&#45;&gt;error</title>
<path fill="none" stroke="black" d="M126.12,-92.39C195.99,-89.19 353.37,-81.99 425.55,-78.69"/>
<polygon fill="black" stroke="black" points="425.73,-82.18 435.56,-78.23 425.41,-75.19 425.73,-82.18"/>
<text text-anchor="start" x="233" y="-90.97" font-family="Helvetica,sans-Serif" font-size="10.00">RefreshStatus &#45; Installation error &#160;&#160;</text>
</g>
<!-- installing&#45;pending&#45;user&#45;action -->
<g id="node4" class="node state regular">
<title>installing&#45;pending&#45;user&#45;action</title>
<polygon fill="#ffffff" fill-opacity="0.003922" stroke="transparent" stroke-width="2" points="181,-50.97 0,-50.97 0,-14.97 181,-14.97 181,-50.97"/>
<text text-anchor="start" x="11.5" y="-29.37" font-family="Helvetica,sans-Serif" font-size="12.00">installing&#45;pending&#45;user&#45;action</text>
<path fill="none" stroke="black" stroke-width="2" d="M12,-16.47C12,-16.47 169,-16.47 169,-16.47 174.5,-16.47 180,-21.97 180,-27.47 180,-27.47 180,-38.47 180,-38.47 180,-43.97 174.5,-49.47 169,-49.47 169,-49.47 12,-49.47 12,-49.47 6.5,-49.47 1,-43.97 1,-38.47 1,-38.47 1,-27.47 1,-27.47 1,-21.97 6.5,-16.47 12,-16.47"/>
</g>
<!-- installing&#45;pending&#45;user&#45;action&#45;&gt;error -->
<g id="edge1" class="edge transition">
<title>installing&#45;pending&#45;user&#45;action&#45;&gt;error</title>
<path fill="none" stroke="black" d="M181.17,-36.97C247.12,-41.01 338.71,-48.89 418,-63.97 420.52,-64.45 423.09,-65.01 425.68,-65.62"/>
<polygon fill="black" stroke="black" points="425.03,-69.06 435.59,-68.17 426.78,-62.29 425.03,-69.06"/>
<text text-anchor="start" x="207" y="-66.97" font-family="Helvetica,sans-Serif" font-size="10.00">RefreshStatus &#45; TODO: Name this transition &#160;&#160;</text>
</g>
<!-- installing&#45;pending&#45;user&#45;action&#45;&gt;error -->
<g id="edge2" class="edge transition">
<title>installing&#45;pending&#45;user&#45;action&#45;&gt;error</title>
<path fill="none" stroke="black" d="M158.08,-14.94C226.57,-0.05 334.72,13.1 418,-24.97 429.88,-30.4 439.82,-40.68 447.31,-50.68"/>
<polygon fill="black" stroke="black" points="444.44,-52.68 453.02,-58.9 450.19,-48.69 444.44,-52.68"/>
<text text-anchor="start" x="199" y="-27.97" font-family="Helvetica,sans-Serif" font-size="10.00">RefreshStatus &#45; Timed out while waiting for user &#160;&#160;</text>
</g>
</g>
</svg>
