<?xml version="1.0" encoding="UTF-8" standalone="no"?>
<!DOCTYPE svg PUBLIC "-//W3C//DTD SVG 1.1//EN"
 "http://www.w3.org/Graphics/SVG/1.1/DTD/svg11.dtd">
<!-- Generated by graphviz version 12.1.0 (20240811.2233)
 -->
<!-- Title: state transitions Pages: 1 -->
<svg width="657pt" height="102pt"
 viewBox="0.00 0.00 657.12 102.00" xmlns="http://www.w3.org/2000/svg" xmlns:xlink="http://www.w3.org/1999/xlink">
<g id="graph0" class="graph" transform="scale(1 1) rotate(0) translate(4 98)">
<title>state transitions</title>
<polygon fill="white" stroke="none" points="-4,4 -4,-98 653.12,-98 653.12,4 -4,4"/>
<!-- installing -->
<g id="node1" class="node state regular">
<title>installing</title>
<polygon fill="#ffffff" fill-opacity="0.003922" stroke="none" stroke-width="2" points="602,-63.25 527.5,-63.25 527.5,-27 602,-27 602,-63.25"/>
<text text-anchor="start" x="538.5" y="-40.85" font-family="Helvetica,sans-Serif" font-size="12.00">installing</text>
<path fill="none" stroke="black" stroke-width="2" d="M539.92,-28C539.92,-28 589.58,-28 589.58,-28 595.29,-28 601,-33.71 601,-39.42 601,-39.42 601,-50.83 601,-50.83 601,-56.54 595.29,-62.25 589.58,-62.25 589.58,-62.25 539.92,-62.25 539.92,-62.25 534.21,-62.25 528.5,-56.54 528.5,-50.83 528.5,-50.83 528.5,-39.42 528.5,-39.42 528.5,-33.71 534.21,-28 539.92,-28"/>
</g>
<!-- installing&#45;&gt;installing -->
<g id="edge1" class="edge transition">
<title>installing&#45;&gt;installing</title>
<path fill="none" stroke="black" d="M528.46,-62.97C522.29,-72.53 534.39,-81.25 564.75,-81.25 582.3,-81.25 593.75,-78.34 599.09,-74.03"/>
<polygon fill="black" stroke="black" points="602.49,-74.91 600.78,-64.46 595.6,-73.7 602.49,-74.91"/>
<text text-anchor="start" x="480.38" y="-84.5" font-family="Helvetica,sans-Serif" font-size="10.00">RefreshStatus &#45; Stay in installing &#160;&#160;</text>
</g>
<!-- installing&#45;pending&#45;user&#45;action -->
<g id="node2" class="node state regular">
<title>installing&#45;pending&#45;user&#45;action</title>
<polygon fill="#ffffff" fill-opacity="0.003922" stroke="none" stroke-width="2" points="198.25,-90.25 0,-90.25 0,-54 198.25,-54 198.25,-90.25"/>
<text text-anchor="start" x="11" y="-67.85" font-family="Helvetica,sans-Serif" font-size="12.00">installing&#45;pending&#45;user&#45;action</text>
<path fill="none" stroke="black" stroke-width="2" d="M12.42,-55C12.42,-55 185.83,-55 185.83,-55 191.54,-55 197.25,-60.71 197.25,-66.42 197.25,-66.42 197.25,-77.83 197.25,-77.83 197.25,-83.54 191.54,-89.25 185.83,-89.25 185.83,-89.25 12.42,-89.25 12.42,-89.25 6.71,-89.25 1,-83.54 1,-77.83 1,-77.83 1,-66.42 1,-66.42 1,-60.71 6.71,-55 12.42,-55"/>
</g>
<!-- installing&#45;pending&#45;user&#45;action&#45;&gt;installing -->
<g id="edge2" class="edge transition">
<title>installing&#45;pending&#45;user&#45;action&#45;&gt;installing</title>
<path fill="none" stroke="black" d="M198.16,-66.42C295.91,-60.72 441.89,-52.22 516.36,-47.88"/>
<polygon fill="black" stroke="black" points="516.39,-51.39 526.17,-47.31 515.98,-44.4 516.39,-51.39"/>
<text text-anchor="start" x="252.25" y="-68.13" font-family="Helvetica,sans-Serif" font-size="10.00">RefreshStatus &#45; TODO: Name this transition &#160;&#160;</text>
</g>
<!-- preparing&#45;for&#45;installation -->
<g id="node3" class="node state regular">
<title>preparing&#45;for&#45;installation</title>
<polygon fill="#ffffff" fill-opacity="0.003922" stroke="none" stroke-width="2" points="184,-36.25 14.25,-36.25 14.25,0 184,0 184,-36.25"/>
<text text-anchor="start" x="25.25" y="-13.85" font-family="Helvetica,sans-Serif" font-size="12.00">preparing&#45;for&#45;installation</text>
<path fill="none" stroke="black" stroke-width="2" d="M26.67,-1C26.67,-1 171.58,-1 171.58,-1 177.29,-1 183,-6.71 183,-12.42 183,-12.42 183,-23.83 183,-23.83 183,-29.54 177.29,-35.25 171.58,-35.25 171.58,-35.25 26.67,-35.25 26.67,-35.25 20.96,-35.25 15.25,-29.54 15.25,-23.83 15.25,-23.83 15.25,-12.42 15.25,-12.42 15.25,-6.71 20.96,-1 26.67,-1"/>
</g>
<!-- preparing&#45;for&#45;installation&#45;&gt;installing -->
<g id="edge3" class="edge transition">
<title>preparing&#45;for&#45;installation&#45;&gt;installing</title>
<path fill="none" stroke="black" d="M183.69,-15.58C266.74,-14.28 397.55,-15.57 509.5,-31.38 511.83,-31.7 514.2,-32.09 516.59,-32.53"/>
<polygon fill="black" stroke="black" points="515.8,-35.94 526.3,-34.55 517.22,-29.09 515.8,-35.94"/>
<text text-anchor="start" x="216.25" y="-34.62" font-family="Helvetica,sans-Serif" font-size="10.00">RefreshStatus &#45; Refresh preparing cluster &#45; done preparing &#160;&#160;</text>
</g>
</g>
</svg>
