<?xml version="1.0" encoding="UTF-8" standalone="no"?>
<!DOCTYPE svg PUBLIC "-//W3C//DTD SVG 1.1//EN"
 "http://www.w3.org/Graphics/SVG/1.1/DTD/svg11.dtd">
<!-- Generated by graphviz version 12.1.0 (20240811.2233)
 -->
<!-- Title: state transitions Pages: 1 -->
<svg width="661pt" height="286pt"
 viewBox="0.00 0.00 660.88 286.20" xmlns="http://www.w3.org/2000/svg" xmlns:xlink="http://www.w3.org/1999/xlink">
<g id="graph0" class="graph" transform="scale(1 1) rotate(0) translate(4 282.2)">
<title>state transitions</title>
<polygon fill="white" stroke="none" points="-4,4 -4,-282.2 656.88,-282.2 656.88,4 -4,4"/>
<!-- cancelled -->
<g id="node1" class="node state regular">
<title>cancelled</title>
<polygon fill="#ffffff" fill-opacity="0.003922" stroke="none" stroke-width="2" points="593.25,-261.48 514.25,-261.48 514.25,-225.23 593.25,-225.23 593.25,-261.48"/>
<text text-anchor="start" x="525.25" y="-239.08" font-family="Helvetica,sans-Serif" font-size="12.00">cancelled</text>
<path fill="none" stroke="black" stroke-width="2" d="M526.67,-226.23C526.67,-226.23 580.83,-226.23 580.83,-226.23 586.54,-226.23 592.25,-231.94 592.25,-237.65 592.25,-237.65 592.25,-249.06 592.25,-249.06 592.25,-254.77 586.54,-260.48 580.83,-260.48 580.83,-260.48 526.67,-260.48 526.67,-260.48 520.96,-260.48 515.25,-254.77 515.25,-249.06 515.25,-249.06 515.25,-237.65 515.25,-237.65 515.25,-231.94 520.96,-226.23 526.67,-226.23"/>
</g>
<!-- error -->
<g id="node2" class="node state regular">
<title>error</title>
<polygon fill="#ffffff" fill-opacity="0.003922" stroke="none" stroke-width="2" points="581.75,-207.48 525.75,-207.48 525.75,-171.23 581.75,-171.23 581.75,-207.48"/>
<text text-anchor="start" x="539.12" y="-185.08" font-family="Helvetica,sans-Serif" font-size="12.00">error</text>
<path fill="none" stroke="black" stroke-width="2" d="M538.17,-172.23C538.17,-172.23 569.33,-172.23 569.33,-172.23 575.04,-172.23 580.75,-177.94 580.75,-183.65 580.75,-183.65 580.75,-195.06 580.75,-195.06 580.75,-200.77 575.04,-206.48 569.33,-206.48 569.33,-206.48 538.17,-206.48 538.17,-206.48 532.46,-206.48 526.75,-200.77 526.75,-195.06 526.75,-195.06 526.75,-183.65 526.75,-183.65 526.75,-177.94 532.46,-172.23 538.17,-172.23"/>
</g>
<!-- finalizing -->
<g id="node3" class="node state regular">
<title>finalizing</title>
<polygon fill="#ffffff" fill-opacity="0.003922" stroke="none" stroke-width="2" points="591,-153.48 516.5,-153.48 516.5,-117.23 591,-117.23 591,-153.48"/>
<text text-anchor="start" x="527.5" y="-131.08" font-family="Helvetica,sans-Serif" font-size="12.00">finalizing</text>
<path fill="none" stroke="black" stroke-width="2" d="M528.92,-118.23C528.92,-118.23 578.58,-118.23 578.58,-118.23 584.29,-118.23 590,-123.94 590,-129.65 590,-129.65 590,-141.06 590,-141.06 590,-146.77 584.29,-152.48 578.58,-152.48 578.58,-152.48 528.92,-152.48 528.92,-152.48 523.21,-152.48 517.5,-146.77 517.5,-141.06 517.5,-141.06 517.5,-129.65 517.5,-129.65 517.5,-123.94 523.21,-118.23 528.92,-118.23"/>
</g>
<!-- installing -->
<g id="node4" class="node state regular">
<title>installing</title>
<polygon fill="#ffffff" fill-opacity="0.003922" stroke="none" stroke-width="2" points="121.62,-171.48 47.12,-171.48 47.12,-135.23 121.62,-135.23 121.62,-171.48"/>
<text text-anchor="start" x="58.12" y="-149.08" font-family="Helvetica,sans-Serif" font-size="12.00">installing</text>
<path fill="none" stroke="black" stroke-width="2" d="M59.54,-136.23C59.54,-136.23 109.21,-136.23 109.21,-136.23 114.92,-136.23 120.62,-141.94 120.62,-147.65 120.62,-147.65 120.62,-159.06 120.62,-159.06 120.62,-164.77 114.92,-170.48 109.21,-170.48 109.21,-170.48 59.54,-170.48 59.54,-170.48 53.83,-170.48 48.12,-164.77 48.12,-159.06 48.12,-159.06 48.12,-147.65 48.12,-147.65 48.12,-141.94 53.83,-136.23 59.54,-136.23"/>
</g>
<!-- installing&#45;&gt;cancelled -->
<g id="edge1" class="edge transition">
<title>installing&#45;&gt;cancelled</title>
<path fill="none" stroke="black" d="M94.15,-171.44C103.11,-187.68 118.68,-210.57 139.62,-221.35 258.41,-282.49 422.67,-266.4 503.62,-253.03"/>
<polygon fill="black" stroke="black" points="503.72,-256.57 512.99,-251.43 502.54,-249.67 503.72,-256.57"/>
<text text-anchor="start" x="139.62" y="-268.7" font-family="Helvetica,sans-Serif" font-size="10.00">Cancel Installation &#45; Cancel installation of installing cluster &#160;&#160;</text>
</g>
<!-- installing&#45;&gt;error -->
<g id="edge2" class="edge transition">
<title>installing&#45;&gt;error</title>
<path fill="none" stroke="black" d="M109.79,-171.43C118.72,-177.01 129.2,-182.45 139.62,-185.35 273.44,-222.58 441.19,-205.78 514.97,-195.38"/>
<polygon fill="black" stroke="black" points="515.1,-198.9 524.49,-194 514.09,-191.98 515.1,-198.9"/>
<text text-anchor="start" x="181.25" y="-211.55" font-family="Helvetica,sans-Serif" font-size="10.00">RefreshStatus &#45; Timed out while installing &#160;&#160;</text>
</g>
<!-- installing&#45;&gt;error -->
<g id="edge6" class="edge transition">
<title>installing&#45;&gt;error</title>
<path fill="none" stroke="black" d="M121.4,-153.34C185.15,-153.66 321.96,-155.93 436.62,-168.6 462.97,-171.52 492.36,-176.79 514.99,-181.29"/>
<polygon fill="black" stroke="black" points="514.17,-184.69 524.66,-183.26 515.56,-177.83 514.17,-184.69"/>
<text text-anchor="start" x="204.12" y="-171.85" font-family="Helvetica,sans-Serif" font-size="10.00">RefreshStatus &#45; Installation error &#160;&#160;</text>
</g>
<!-- installing&#45;&gt;finalizing -->
<g id="edge4" class="edge transition">
<title>installing&#45;&gt;finalizing</title>
<path fill="none" stroke="black" d="M121.51,-140.58C127.49,-138.94 133.68,-137.51 139.62,-136.6 270.8,-116.61 428.14,-124.86 505.32,-130.98"/>
<polygon fill="black" stroke="black" points="504.79,-134.44 515.05,-131.77 505.37,-127.47 504.79,-134.44"/>
<text text-anchor="start" x="201.12" y="-139.85" font-family="Helvetica,sans-Serif" font-size="10.00">RefreshStatus &#45; Move to finalizing &#160;&#160;</text>
</g>
<!-- installing&#45;&gt;installing -->
<g id="edge5" class="edge transition">
<title>installing&#45;&gt;installing</title>
<path fill="none" stroke="black" d="M47.75,-171.2C41.52,-180.76 53.73,-189.48 84.38,-189.48 102.09,-189.48 113.64,-186.57 119.04,-182.26"/>
<polygon fill="black" stroke="black" points="122.43,-183.15 120.74,-172.69 115.54,-181.92 122.43,-183.15"/>
<text text-anchor="start" x="0" y="-192.73" font-family="Helvetica,sans-Serif" font-size="10.00">RefreshStatus &#45; Stay in installing &#160;&#160;</text>
</g>
<!-- installing&#45;pending&#45;user&#45;action -->
<g id="node5" class="node state regular">
<title>installing&#45;pending&#45;user&#45;action</title>
<polygon fill="#ffffff" fill-opacity="0.003922" stroke="none" stroke-width="2" points="652.88,-99.48 454.62,-99.48 454.62,-63.23 652.88,-63.23 652.88,-99.48"/>
<text text-anchor="start" x="465.62" y="-77.08" font-family="Helvetica,sans-Serif" font-size="12.00">installing&#45;pending&#45;user&#45;action</text>
<path fill="none" stroke="black" stroke-width="2" d="M467.04,-64.23C467.04,-64.23 640.46,-64.23 640.46,-64.23 646.17,-64.23 651.88,-69.94 651.88,-75.65 651.88,-75.65 651.88,-87.06 651.88,-87.06 651.88,-92.77 646.17,-98.48 640.46,-98.48 640.46,-98.48 467.04,-98.48 467.04,-98.48 461.33,-98.48 455.62,-92.77 455.62,-87.06 455.62,-87.06 455.62,-75.65 455.62,-75.65 455.62,-69.94 461.33,-64.23 467.04,-64.23"/>
</g>
<!-- installing&#45;&gt;installing&#45;pending&#45;user&#45;action -->
<g id="edge3" class="edge transition">
<title>installing&#45;&gt;installing&#45;pending&#45;user&#45;action</title>
<path fill="none" stroke="black" d="M101.06,-135.35C111.01,-125.28 124.76,-113.58 139.62,-107.6 236.95,-68.5 357.58,-65.45 443.31,-70.06"/>
<polygon fill="black" stroke="black" points="442.94,-73.54 453.13,-70.63 443.35,-66.55 442.94,-73.54"/>
<text text-anchor="start" x="177.5" y="-110.85" font-family="Helvetica,sans-Serif" font-size="10.00">RefreshStatus &#45; TODO: Name this transition &#160;&#160;</text>
</g>
<!-- insufficient -->
<g id="node6" class="node state regular">
<title>insufficient</title>
<polygon fill="#ffffff" fill-opacity="0.003922" stroke="none" stroke-width="2" points="597,-45.48 510.5,-45.48 510.5,-9.23 597,-9.23 597,-45.48"/>
<text text-anchor="start" x="521.5" y="-23.08" font-family="Helvetica,sans-Serif" font-size="12.00">insufficient</text>
<path fill="none" stroke="black" stroke-width="2" d="M522.92,-10.23C522.92,-10.23 584.58,-10.23 584.58,-10.23 590.29,-10.23 596,-15.94 596,-21.65 596,-21.65 596,-33.06 596,-33.06 596,-38.77 590.29,-44.48 584.58,-44.48 584.58,-44.48 522.92,-44.48 522.92,-44.48 517.21,-44.48 511.5,-38.77 511.5,-33.06 511.5,-33.06 511.5,-21.65 511.5,-21.65 511.5,-15.94 517.21,-10.23 522.92,-10.23"/>
</g>
<!-- installing&#45;&gt;insufficient -->
<g id="edge7" class="edge transition">
<title>installing&#45;&gt;insufficient</title>
<path fill="none" stroke="black" d="M89.27,-135.32C95.44,-111.58 109.96,-70.61 139.62,-51.6 250.96,19.73 415.73,1.03 499.57,-15.12"/>
<polygon fill="black" stroke="black" points="498.62,-18.5 509.12,-17.02 499.99,-11.63 498.62,-18.5"/>
<text text-anchor="start" x="203.38" y="-54.85" font-family="Helvetica,sans-Serif" font-size="10.00">Reset Cluster &#45; Reset installation &#160;&#160;</text>
</g>
</g>
</svg>
