<?xml version="1.0" encoding="UTF-8" standalone="no"?>
<!DOCTYPE svg PUBLIC "-//W3C//DTD SVG 1.1//EN"
 "http://www.w3.org/Graphics/SVG/1.1/DTD/svg11.dtd">
<!-- Generated by graphviz version 12.1.0 (20240811.2233)
 -->
<!-- Title: state transitions Pages: 1 -->
<svg width="660pt" height="286pt"
 viewBox="0.00 0.00 660.12 286.13" xmlns="http://www.w3.org/2000/svg" xmlns:xlink="http://www.w3.org/1999/xlink">
<g id="graph0" class="graph" transform="scale(1 1) rotate(0) translate(4 282.13)">
<title>state transitions</title>
<polygon fill="white" stroke="none" points="-4,4 -4,-282.13 656.12,-282.13 656.12,4 -4,4"/>
<!-- cancelled -->
<g id="node1" class="node state regular">
<title>cancelled</title>
<polygon fill="#ffffff" fill-opacity="0.003922" stroke="none" stroke-width="2" points="592.88,-261.44 513.88,-261.44 513.88,-225.19 592.88,-225.19 592.88,-261.44"/>
<text text-anchor="start" x="524.88" y="-239.04" font-family="Helvetica,sans-Serif" font-size="12.00">cancelled</text>
<path fill="none" stroke="black" stroke-width="2" d="M526.29,-226.19C526.29,-226.19 580.46,-226.19 580.46,-226.19 586.17,-226.19 591.88,-231.9 591.88,-237.61 591.88,-237.61 591.88,-249.02 591.88,-249.02 591.88,-254.73 586.17,-260.44 580.46,-260.44 580.46,-260.44 526.29,-260.44 526.29,-260.44 520.58,-260.44 514.88,-254.73 514.88,-249.02 514.88,-249.02 514.88,-237.61 514.88,-237.61 514.88,-231.9 520.58,-226.19 526.29,-226.19"/>
</g>
<!-- error -->
<g id="node2" class="node state regular">
<title>error</title>
<polygon fill="#ffffff" fill-opacity="0.003922" stroke="none" stroke-width="2" points="581.38,-207.44 525.38,-207.44 525.38,-171.19 581.38,-171.19 581.38,-207.44"/>
<text text-anchor="start" x="538.75" y="-185.04" font-family="Helvetica,sans-Serif" font-size="12.00">error</text>
<path fill="none" stroke="black" stroke-width="2" d="M537.79,-172.19C537.79,-172.19 568.96,-172.19 568.96,-172.19 574.67,-172.19 580.38,-177.9 580.38,-183.61 580.38,-183.61 580.38,-195.02 580.38,-195.02 580.38,-200.73 574.67,-206.44 568.96,-206.44 568.96,-206.44 537.79,-206.44 537.79,-206.44 532.08,-206.44 526.38,-200.73 526.38,-195.02 526.38,-195.02 526.38,-183.61 526.38,-183.61 526.38,-177.9 532.08,-172.19 537.79,-172.19"/>
</g>
<!-- finalizing -->
<g id="node3" class="node state regular">
<title>finalizing</title>
<polygon fill="#ffffff" fill-opacity="0.003922" stroke="none" stroke-width="2" points="590.62,-153.44 516.12,-153.44 516.12,-117.19 590.62,-117.19 590.62,-153.44"/>
<text text-anchor="start" x="527.12" y="-131.04" font-family="Helvetica,sans-Serif" font-size="12.00">finalizing</text>
<path fill="none" stroke="black" stroke-width="2" d="M528.54,-118.19C528.54,-118.19 578.21,-118.19 578.21,-118.19 583.92,-118.19 589.62,-123.9 589.62,-129.61 589.62,-129.61 589.62,-141.02 589.62,-141.02 589.62,-146.73 583.92,-152.44 578.21,-152.44 578.21,-152.44 528.54,-152.44 528.54,-152.44 522.83,-152.44 517.12,-146.73 517.12,-141.02 517.12,-141.02 517.12,-129.61 517.12,-129.61 517.12,-123.9 522.83,-118.19 528.54,-118.19"/>
</g>
<!-- installing -->
<g id="node4" class="node state regular">
<title>installing</title>
<polygon fill="#ffffff" fill-opacity="0.003922" stroke="none" stroke-width="2" points="121.62,-171.44 47.12,-171.44 47.12,-135.19 121.62,-135.19 121.62,-171.44"/>
<text text-anchor="start" x="58.12" y="-149.04" font-family="Helvetica,sans-Serif" font-size="12.00">installing</text>
<path fill="none" stroke="black" stroke-width="2" d="M59.54,-136.19C59.54,-136.19 109.21,-136.19 109.21,-136.19 114.92,-136.19 120.62,-141.9 120.62,-147.61 120.62,-147.61 120.62,-159.02 120.62,-159.02 120.62,-164.73 114.92,-170.44 109.21,-170.44 109.21,-170.44 59.54,-170.44 59.54,-170.44 53.83,-170.44 48.12,-164.73 48.12,-159.02 48.12,-159.02 48.12,-147.61 48.12,-147.61 48.12,-141.9 53.83,-136.19 59.54,-136.19"/>
</g>
<!-- installing&#45;&gt;cancelled -->
<g id="edge1" class="edge transition">
<title>installing&#45;&gt;cancelled</title>
<path fill="none" stroke="black" d="M94.15,-171.4C103.11,-187.64 118.68,-210.53 139.62,-221.31 258.06,-282.27 421.75,-266.4 502.79,-253.06"/>
<polygon fill="black" stroke="black" points="503.38,-256.51 512.65,-251.38 502.2,-249.61 503.38,-256.51"/>
<text text-anchor="start" x="139.62" y="-268.63" font-family="Helvetica,sans-Serif" font-size="10.00">Cancel Installation &#45; Cancel installation of installing cluster &#160;&#160;</text>
</g>
<!-- installing&#45;&gt;error -->
<g id="edge2" class="edge transition">
<title>installing&#45;&gt;error</title>
<path fill="none" stroke="black" d="M109.79,-171.39C118.72,-176.97 129.2,-182.41 139.62,-185.31 273.31,-222.5 440.91,-205.72 514.63,-195.34"/>
<polygon fill="black" stroke="black" points="514.75,-198.86 524.14,-193.95 513.74,-191.93 514.75,-198.86"/>
<text text-anchor="start" x="181.62" y="-211.49" font-family="Helvetica,sans-Serif" font-size="10.00">RefreshStatus &#45; Timed out while installing &#160;&#160;</text>
</g>
<!-- installing&#45;&gt;error -->
<g id="edge6" class="edge transition">
<title>installing&#45;&gt;error</title>
<path fill="none" stroke="black" d="M121.4,-153.29C185.16,-153.6 321.96,-155.86 436.62,-168.56 462.72,-171.46 491.8,-176.68 514.29,-181.16"/>
<polygon fill="black" stroke="black" points="513.41,-184.55 523.91,-183.12 514.81,-177.69 513.41,-184.55"/>
<text text-anchor="start" x="204.12" y="-171.81" font-family="Helvetica,sans-Serif" font-size="10.00">RefreshStatus &#45; Installation error &#160;&#160;</text>
</g>
<!-- installing&#45;&gt;finalizing -->
<g id="edge4" class="edge transition">
<title>installing&#45;&gt;finalizing</title>
<path fill="none" stroke="black" d="M121.51,-140.54C127.49,-138.9 133.68,-137.47 139.62,-136.56 270.68,-116.59 427.88,-124.83 504.99,-130.94"/>
<polygon fill="black" stroke="black" points="504.45,-134.41 514.7,-131.74 505.02,-127.43 504.45,-134.41"/>
<text text-anchor="start" x="200.75" y="-139.81" font-family="Helvetica,sans-Serif" font-size="10.00">RefreshStatus &#45; Move to finalizing &#160;&#160;</text>
</g>
<!-- installing&#45;&gt;installing -->
<g id="edge5" class="edge transition">
<title>installing&#45;&gt;installing</title>
<path fill="none" stroke="black" d="M47.75,-171.16C41.52,-180.72 53.73,-189.44 84.38,-189.44 102.09,-189.44 113.64,-186.53 119.04,-182.22"/>
<polygon fill="black" stroke="black" points="122.43,-183.11 120.74,-172.65 115.54,-181.88 122.43,-183.11"/>
<text text-anchor="start" x="0" y="-192.69" font-family="Helvetica,sans-Serif" font-size="10.00">RefreshStatus &#45; Stay in installing &#160;&#160;</text>
</g>
<!-- installing&#45;pending&#45;user&#45;action -->
<g id="node5" class="node state regular">
<title>installing&#45;pending&#45;user&#45;action</title>
<polygon fill="#ffffff" fill-opacity="0.003922" stroke="none" stroke-width="2" points="652.12,-99.44 454.62,-99.44 454.62,-63.19 652.12,-63.19 652.12,-99.44"/>
<text text-anchor="start" x="465.62" y="-77.04" font-family="Helvetica,sans-Serif" font-size="12.00">installing&#45;pending&#45;user&#45;action</text>
<path fill="none" stroke="black" stroke-width="2" d="M467.04,-64.19C467.04,-64.19 639.71,-64.19 639.71,-64.19 645.42,-64.19 651.12,-69.9 651.12,-75.61 651.12,-75.61 651.12,-87.02 651.12,-87.02 651.12,-92.73 645.42,-98.44 639.71,-98.44 639.71,-98.44 467.04,-98.44 467.04,-98.44 461.33,-98.44 455.62,-92.73 455.62,-87.02 455.62,-87.02 455.62,-75.61 455.62,-75.61 455.62,-69.9 461.33,-64.19 467.04,-64.19"/>
</g>
<!-- installing&#45;&gt;installing&#45;pending&#45;user&#45;action -->
<g id="edge3" class="edge transition">
<title>installing&#45;&gt;installing&#45;pending&#45;user&#45;action</title>
<path fill="none" stroke="black" d="M101.06,-135.32C111.01,-125.24 124.76,-113.54 139.62,-107.56 237.02,-68.43 357.78,-65.43 443.45,-70.06"/>
<polygon fill="black" stroke="black" points="443.08,-73.54 453.26,-70.64 443.49,-66.55 443.08,-73.54"/>
<text text-anchor="start" x="177.5" y="-110.81" font-family="Helvetica,sans-Serif" font-size="10.00">RefreshStatus &#45; TODO: Name this transition &#160;&#160;</text>
</g>
<!-- insufficient -->
<g id="node6" class="node state regular">
<title>insufficient</title>
<polygon fill="#ffffff" fill-opacity="0.003922" stroke="none" stroke-width="2" points="597,-45.44 509.75,-45.44 509.75,-9.19 597,-9.19 597,-45.44"/>
<text text-anchor="start" x="520.75" y="-23.04" font-family="Helvetica,sans-Serif" font-size="12.00">insufficient</text>
<path fill="none" stroke="black" stroke-width="2" d="M522.17,-10.19C522.17,-10.19 584.58,-10.19 584.58,-10.19 590.29,-10.19 596,-15.9 596,-21.61 596,-21.61 596,-33.02 596,-33.02 596,-38.73 590.29,-44.44 584.58,-44.44 584.58,-44.44 522.17,-44.44 522.17,-44.44 516.46,-44.44 510.75,-38.73 510.75,-33.02 510.75,-33.02 510.75,-21.61 510.75,-21.61 510.75,-15.9 516.46,-10.19 522.17,-10.19"/>
</g>
<!-- installing&#45;&gt;insufficient -->
<g id="edge7" class="edge transition">
<title>installing&#45;&gt;insufficient</title>
<path fill="none" stroke="black" d="M89.27,-135.28C95.44,-111.54 109.96,-70.57 139.62,-51.56 250.71,19.61 415.05,1.08 498.91,-15.03"/>
<polygon fill="black" stroke="black" points="497.98,-18.41 508.47,-16.93 499.34,-11.55 497.98,-18.41"/>
<text text-anchor="start" x="203.38" y="-54.81" font-family="Helvetica,sans-Serif" font-size="10.00">Reset Cluster &#45; Reset installation &#160;&#160;</text>
</g>
</g>
</svg>
