<?xml version="1.0" encoding="UTF-8" standalone="no"?>
<!DOCTYPE svg PUBLIC "-//W3C//DTD SVG 1.1//EN"
 "http://www.w3.org/Graphics/SVG/1.1/DTD/svg11.dtd">
<!-- Generated by graphviz version 7.1.0 (0)
 -->
<!-- Title: state transitions Pages: 1 -->
<svg width="579pt" height="260pt"
 viewBox="0.00 0.00 579.00 260.00" xmlns="http://www.w3.org/2000/svg" xmlns:xlink="http://www.w3.org/1999/xlink">
<g id="graph0" class="graph" transform="scale(1 1) rotate(0) translate(4 256)">
<title>state transitions</title>
<polygon fill="white" stroke="none" points="-4,4 -4,-256 575,-256 575,4 -4,4"/>
<!-- cancelled -->
<g id="node1" class="node state regular">
<title>cancelled</title>
<polygon fill="#ffffff" fill-opacity="0.003922" stroke="none" stroke-width="2" points="568,-252 494,-252 494,-216 568,-216 568,-252"/>
<text text-anchor="start" x="505" y="-230.4" font-family="Helvetica,sans-Serif" font-size="12.00">cancelled</text>
<path fill="none" stroke="black" stroke-width="2" d="M506,-217.5C506,-217.5 556,-217.5 556,-217.5 561.5,-217.5 567,-223 567,-228.5 567,-228.5 567,-239.5 567,-239.5 567,-245 561.5,-250.5 556,-250.5 556,-250.5 506,-250.5 506,-250.5 500.5,-250.5 495,-245 495,-239.5 495,-239.5 495,-228.5 495,-228.5 495,-223 500.5,-217.5 506,-217.5"/>
</g>
<!-- error -->
<g id="node2" class="node state regular">
<title>error</title>
<polygon fill="#ffffff" fill-opacity="0.003922" stroke="none" stroke-width="2" points="559,-198 503,-198 503,-162 559,-162 559,-198"/>
<text text-anchor="start" x="518.5" y="-176.4" font-family="Helvetica,sans-Serif" font-size="12.00">error</text>
<path fill="none" stroke="black" stroke-width="2" d="M515,-163.5C515,-163.5 547,-163.5 547,-163.5 552.5,-163.5 558,-169 558,-174.5 558,-174.5 558,-185.5 558,-185.5 558,-191 552.5,-196.5 547,-196.5 547,-196.5 515,-196.5 515,-196.5 509.5,-196.5 504,-191 504,-185.5 504,-185.5 504,-174.5 504,-174.5 504,-169 509.5,-163.5 515,-163.5"/>
</g>
<!-- finalizing -->
<g id="node3" class="node state regular">
<title>finalizing</title>
<polygon fill="#ffffff" fill-opacity="0.003922" stroke="none" stroke-width="2" points="566,-144 496,-144 496,-108 566,-108 566,-144"/>
<text text-anchor="start" x="507" y="-122.4" font-family="Helvetica,sans-Serif" font-size="12.00">finalizing</text>
<path fill="none" stroke="black" stroke-width="2" d="M508,-109.5C508,-109.5 554,-109.5 554,-109.5 559.5,-109.5 565,-115 565,-120.5 565,-120.5 565,-131.5 565,-131.5 565,-137 559.5,-142.5 554,-142.5 554,-142.5 508,-142.5 508,-142.5 502.5,-142.5 497,-137 497,-131.5 497,-131.5 497,-120.5 497,-120.5 497,-115 502.5,-109.5 508,-109.5"/>
</g>
<!-- installing -->
<g id="node4" class="node state regular">
<title>installing</title>
<polygon fill="#ffffff" fill-opacity="0.003922" stroke="none" stroke-width="2" points="566.5,-90 495.5,-90 495.5,-54 566.5,-54 566.5,-90"/>
<text text-anchor="start" x="507" y="-68.4" font-family="Helvetica,sans-Serif" font-size="12.00">installing</text>
<path fill="none" stroke="black" stroke-width="2" d="M507.5,-55.5C507.5,-55.5 554.5,-55.5 554.5,-55.5 560,-55.5 565.5,-61 565.5,-66.5 565.5,-66.5 565.5,-77.5 565.5,-77.5 565.5,-83 560,-88.5 554.5,-88.5 554.5,-88.5 507.5,-88.5 507.5,-88.5 502,-88.5 496.5,-83 496.5,-77.5 496.5,-77.5 496.5,-66.5 496.5,-66.5 496.5,-61 502,-55.5 507.5,-55.5"/>
</g>
<!-- installing&#45;pending&#45;user&#45;action -->
<g id="node5" class="node state regular">
<title>installing&#45;pending&#45;user&#45;action</title>
<polygon fill="#ffffff" fill-opacity="0.003922" stroke="none" stroke-width="2" points="192,-161 11,-161 11,-125 192,-125 192,-161"/>
<text text-anchor="start" x="22.5" y="-139.4" font-family="Helvetica,sans-Serif" font-size="12.00">installing&#45;pending&#45;user&#45;action</text>
<path fill="none" stroke="black" stroke-width="2" d="M23,-126.5C23,-126.5 180,-126.5 180,-126.5 185.5,-126.5 191,-132 191,-137.5 191,-137.5 191,-148.5 191,-148.5 191,-154 185.5,-159.5 180,-159.5 180,-159.5 23,-159.5 23,-159.5 17.5,-159.5 12,-154 12,-148.5 12,-148.5 12,-137.5 12,-137.5 12,-132 17.5,-126.5 23,-126.5"/>
</g>
<!-- installing&#45;pending&#45;user&#45;action&#45;&gt;cancelled -->
<g id="edge1" class="edge transition">
<title>installing&#45;pending&#45;user&#45;action&#45;&gt;cancelled</title>
<path fill="none" stroke="black" d="M130.51,-160.9C151.54,-173.43 181.5,-189.42 210,-198 303.99,-226.3 419.57,-232.71 482.92,-233.95"/>
<polygon fill="black" stroke="black" points="482.56,-237.45 492.61,-234.1 482.67,-230.45 482.56,-237.45"/>
<text text-anchor="start" x="210" y="-236" font-family="Helvetica,sans-Serif" font-size="10.00">Cancel Installation &#45; Cancel installation of installing cluster &#160;&#160;</text>
</g>
<!-- installing&#45;pending&#45;user&#45;action&#45;&gt;error -->
<g id="edge2" class="edge transition">
<title>installing&#45;pending&#45;user&#45;action&#45;&gt;error</title>
<path fill="none" stroke="black" d="M159.15,-160.99C175.41,-165.41 193.26,-169.57 210,-172 311.05,-186.68 431.9,-184.41 492.07,-181.96"/>
<polygon fill="black" stroke="black" points="491.92,-185.47 501.76,-181.53 491.61,-178.47 491.92,-185.47"/>
<text text-anchor="start" x="240" y="-186" font-family="Helvetica,sans-Serif" font-size="10.00">RefreshStatus &#45; TODO: Name this transition &#160;&#160;</text>
</g>
<!-- installing&#45;pending&#45;user&#45;action&#45;&gt;error -->
<g id="edge3" class="edge transition">
<title>installing&#45;pending&#45;user&#45;action&#45;&gt;error</title>
<path fill="none" stroke="black" d="M191.76,-139.18C267.39,-137.77 378.31,-140 473,-159 479.49,-160.3 486.23,-162.23 492.7,-164.4"/>
<polygon fill="black" stroke="black" points="491.23,-167.59 501.82,-167.69 493.6,-161 491.23,-167.59"/>
<text text-anchor="start" x="232" y="-162" font-family="Helvetica,sans-Serif" font-size="10.00">RefreshStatus &#45; Timed out while waiting for user &#160;&#160;</text>
</g>
<!-- installing&#45;pending&#45;user&#45;action&#45;&gt;finalizing -->
<g id="edge6" class="edge transition">
<title>installing&#45;pending&#45;user&#45;action&#45;&gt;finalizing</title>
<path fill="none" stroke="black" d="M191.84,-128.7C197.98,-128.03 204.07,-127.45 210,-127 307.84,-119.6 422.99,-121.94 485,-124.1"/>
<polygon fill="black" stroke="black" points="484.67,-127.59 494.79,-124.45 484.93,-120.59 484.67,-127.59"/>
<text text-anchor="start" x="240" y="-130" font-family="Helvetica,sans-Serif" font-size="10.00">RefreshStatus &#45; TODO: Name this transition &#160;&#160;</text>
</g>
<!-- installing&#45;pending&#45;user&#45;action&#45;&gt;installing -->
<g id="edge5" class="edge transition">
<title>installing&#45;pending&#45;user&#45;action&#45;&gt;installing</title>
<path fill="none" stroke="black" d="M147.36,-125.03C166.39,-118.07 189,-110.67 210,-106 306.32,-84.59 422.05,-76.54 484.56,-73.61"/>
<polygon fill="black" stroke="black" points="484.62,-77.11 494.45,-73.17 484.31,-70.11 484.62,-77.11"/>
<text text-anchor="start" x="240" y="-109" font-family="Helvetica,sans-Serif" font-size="10.00">RefreshStatus &#45; TODO: Name this transition &#160;&#160;</text>
</g>
<!-- installing&#45;pending&#45;user&#45;action&#45;&gt;installing&#45;pending&#45;user&#45;action -->
<g id="edge4" class="edge transition">
<title>installing&#45;pending&#45;user&#45;action&#45;&gt;installing&#45;pending&#45;user&#45;action</title>
<path fill="none" stroke="black" d="M58.36,-160.78C51.03,-170.31 65.41,-179 101.5,-179 122.37,-179 135.98,-176.1 142.33,-171.81"/>
<polygon fill="black" stroke="black" points="145.7,-172.77 144.33,-162.26 138.85,-171.33 145.7,-172.77"/>
<text text-anchor="start" x="0" y="-182" font-family="Helvetica,sans-Serif" font-size="10.00">RefreshStatus &#45; TODO: Name this transition &#160;&#160;</text>
</g>
<!-- insufficient -->
<g id="node6" class="node state regular">
<title>insufficient</title>
<polygon fill="#ffffff" fill-opacity="0.003922" stroke="none" stroke-width="2" points="571,-36 491,-36 491,0 571,0 571,-36"/>
<text text-anchor="start" x="502" y="-14.4" font-family="Helvetica,sans-Serif" font-size="12.00">insufficient</text>
<path fill="none" stroke="black" stroke-width="2" d="M503,-1.5C503,-1.5 559,-1.5 559,-1.5 564.5,-1.5 570,-7 570,-12.5 570,-12.5 570,-23.5 570,-23.5 570,-29 564.5,-34.5 559,-34.5 559,-34.5 503,-34.5 503,-34.5 497.5,-34.5 492,-29 492,-23.5 492,-23.5 492,-12.5 492,-12.5 492,-7 497.5,-1.5 503,-1.5"/>
</g>
<!-- installing&#45;pending&#45;user&#45;action&#45;&gt;insufficient -->
<g id="edge7" class="edge transition">
<title>installing&#45;pending&#45;user&#45;action&#45;&gt;insufficient</title>
<path fill="none" stroke="black" d="M119.21,-125.13C138.87,-105.34 173.5,-74.23 210,-59 299.84,-21.51 415.2,-16.03 480.01,-16.37"/>
<polygon fill="black" stroke="black" points="479.57,-19.87 489.61,-16.47 479.65,-12.87 479.57,-19.87"/>
<text text-anchor="start" x="264.5" y="-62" font-family="Helvetica,sans-Serif" font-size="10.00">Reset Cluster &#45; Reset installation &#160;&#160;</text>
</g>
</g>
</svg>
