<?xml version="1.0" encoding="UTF-8" standalone="no"?>
<!DOCTYPE svg PUBLIC "-//W3C//DTD SVG 1.1//EN"
 "http://www.w3.org/Graphics/SVG/1.1/DTD/svg11.dtd">
<!-- Generated by graphviz version 7.1.0 (0)
 -->
<!-- Title: state transitions Pages: 1 -->
<svg width="620pt" height="260pt"
 viewBox="0.00 0.00 619.50 260.00" xmlns="http://www.w3.org/2000/svg" xmlns:xlink="http://www.w3.org/1999/xlink">
<g id="graph0" class="graph" transform="scale(1 1) rotate(0) translate(4 256)">
<title>state transitions</title>
<polygon fill="white" stroke="none" points="-4,4 -4,-256 615.5,-256 615.5,4 -4,4"/>
<!-- cancelled -->
<g id="node1" class="node state regular">
<title>cancelled</title>
<polygon fill="#ffffff" fill-opacity="0.003922" stroke="none" stroke-width="2" points="558,-252 484,-252 484,-216 558,-216 558,-252"/>
<text text-anchor="start" x="495" y="-230.4" font-family="Helvetica,sans-Serif" font-size="12.00">cancelled</text>
<path fill="none" stroke="black" stroke-width="2" d="M496,-217.5C496,-217.5 546,-217.5 546,-217.5 551.5,-217.5 557,-223 557,-228.5 557,-228.5 557,-239.5 557,-239.5 557,-245 551.5,-250.5 546,-250.5 546,-250.5 496,-250.5 496,-250.5 490.5,-250.5 485,-245 485,-239.5 485,-239.5 485,-228.5 485,-228.5 485,-223 490.5,-217.5 496,-217.5"/>
</g>
<!-- error -->
<g id="node2" class="node state regular">
<title>error</title>
<polygon fill="#ffffff" fill-opacity="0.003922" stroke="none" stroke-width="2" points="549,-198 493,-198 493,-162 549,-162 549,-198"/>
<text text-anchor="start" x="508.5" y="-176.4" font-family="Helvetica,sans-Serif" font-size="12.00">error</text>
<path fill="none" stroke="black" stroke-width="2" d="M505,-163.5C505,-163.5 537,-163.5 537,-163.5 542.5,-163.5 548,-169 548,-174.5 548,-174.5 548,-185.5 548,-185.5 548,-191 542.5,-196.5 537,-196.5 537,-196.5 505,-196.5 505,-196.5 499.5,-196.5 494,-191 494,-185.5 494,-185.5 494,-174.5 494,-174.5 494,-169 499.5,-163.5 505,-163.5"/>
</g>
<!-- finalizing -->
<g id="node3" class="node state regular">
<title>finalizing</title>
<polygon fill="#ffffff" fill-opacity="0.003922" stroke="none" stroke-width="2" points="131.5,-144 61.5,-144 61.5,-108 131.5,-108 131.5,-144"/>
<text text-anchor="start" x="72.5" y="-122.4" font-family="Helvetica,sans-Serif" font-size="12.00">finalizing</text>
<path fill="none" stroke="black" stroke-width="2" d="M73.5,-109.5C73.5,-109.5 119.5,-109.5 119.5,-109.5 125,-109.5 130.5,-115 130.5,-120.5 130.5,-120.5 130.5,-131.5 130.5,-131.5 130.5,-137 125,-142.5 119.5,-142.5 119.5,-142.5 73.5,-142.5 73.5,-142.5 68,-142.5 62.5,-137 62.5,-131.5 62.5,-131.5 62.5,-120.5 62.5,-120.5 62.5,-115 68,-109.5 73.5,-109.5"/>
</g>
<!-- finalizing&#45;&gt;cancelled -->
<g id="edge1" class="edge transition">
<title>finalizing&#45;&gt;cancelled</title>
<path fill="none" stroke="black" d="M107.34,-143.91C116.32,-158.38 130.99,-177.93 149.5,-188 254.08,-244.89 399.32,-243.82 473.03,-238.68"/>
<polygon fill="black" stroke="black" points="473.02,-242.19 482.72,-237.94 472.49,-235.21 473.02,-242.19"/>
<text text-anchor="start" x="149.5" y="-243" font-family="Helvetica,sans-Serif" font-size="10.00">Cancel Installation &#45; Cancel installation of installing cluster &#160;&#160;</text>
</g>
<!-- finalizing&#45;&gt;error -->
<g id="edge2" class="edge transition">
<title>finalizing&#45;&gt;error</title>
<path fill="none" stroke="black" d="M131.42,-136.71C137.4,-138.33 143.6,-139.85 149.5,-141 269.57,-164.45 414.46,-174.54 481.96,-178.21"/>
<polygon fill="black" stroke="black" points="481.57,-181.69 491.74,-178.72 481.94,-174.7 481.57,-181.69"/>
<text text-anchor="start" x="186" y="-176" font-family="Helvetica,sans-Serif" font-size="10.00">RefreshStatus &#45; Timed out while finalizing &#160;&#160;</text>
</g>
<!-- finalizing&#45;&gt;finalizing -->
<g id="edge4" class="edge transition">
<title>finalizing&#45;&gt;finalizing</title>
<path fill="none" stroke="black" d="M79.92,-143.78C77.1,-153.31 82.63,-162 96.5,-162 104.3,-162 109.47,-159.25 111.99,-155.15"/>
<polygon fill="black" stroke="black" points="115.46,-155.58 112.94,-145.29 108.5,-154.91 115.46,-155.58"/>
<text text-anchor="start" x="0" y="-165" font-family="Helvetica,sans-Serif" font-size="10.00">RefreshStatus &#45; Update AMS subscription &#160;&#160;</text>
</g>
<!-- finalizing&#45;&gt;finalizing -->
<g id="edge6" class="edge transition">
<title>finalizing&#45;&gt;finalizing</title>
<path fill="none" stroke="black" d="M68.77,-143.98C53.92,-161.2 63.17,-180 96.5,-180 123.58,-180 134.76,-167.59 130.04,-153.7"/>
<polygon fill="black" stroke="black" points="133.14,-152.07 125.01,-145.28 127.14,-155.66 133.14,-152.07"/>
<text text-anchor="start" x="5" y="-183" font-family="Helvetica,sans-Serif" font-size="10.00">RefreshStatus &#45; Maintain finalizing state &#160;&#160;</text>
</g>
<!-- installed -->
<g id="node4" class="node state regular">
<title>installed</title>
<polygon fill="#ffffff" fill-opacity="0.003922" stroke="none" stroke-width="2" points="555,-144 487,-144 487,-108 555,-108 555,-144"/>
<text text-anchor="start" x="498" y="-122.4" font-family="Helvetica,sans-Serif" font-size="12.00">installed</text>
<path fill="none" stroke="black" stroke-width="2" d="M499,-109.5C499,-109.5 543,-109.5 543,-109.5 548.5,-109.5 554,-115 554,-120.5 554,-120.5 554,-131.5 554,-131.5 554,-137 548.5,-142.5 543,-142.5 543,-142.5 499,-142.5 499,-142.5 493.5,-142.5 488,-137 488,-131.5 488,-131.5 488,-120.5 488,-120.5 488,-115 493.5,-109.5 499,-109.5"/>
</g>
<!-- finalizing&#45;&gt;installed -->
<g id="edge5" class="edge transition">
<title>finalizing&#45;&gt;installed</title>
<path fill="none" stroke="black" d="M131.36,-126C207.29,-126 391.12,-126 475.87,-126"/>
<polygon fill="black" stroke="black" points="475.63,-129.5 485.63,-126 475.63,-122.5 475.63,-129.5"/>
<text text-anchor="start" x="199" y="-129" font-family="Helvetica,sans-Serif" font-size="10.00">RefreshStatus &#45; Finalizing complete &#160;&#160;</text>
</g>
<!-- installing&#45;pending&#45;user&#45;action -->
<g id="node5" class="node state regular">
<title>installing&#45;pending&#45;user&#45;action</title>
<polygon fill="#ffffff" fill-opacity="0.003922" stroke="none" stroke-width="2" points="611.5,-90 430.5,-90 430.5,-54 611.5,-54 611.5,-90"/>
<text text-anchor="start" x="442" y="-68.4" font-family="Helvetica,sans-Serif" font-size="12.00">installing&#45;pending&#45;user&#45;action</text>
<path fill="none" stroke="black" stroke-width="2" d="M442.5,-55.5C442.5,-55.5 599.5,-55.5 599.5,-55.5 605,-55.5 610.5,-61 610.5,-66.5 610.5,-66.5 610.5,-77.5 610.5,-77.5 610.5,-83 605,-88.5 599.5,-88.5 599.5,-88.5 442.5,-88.5 442.5,-88.5 437,-88.5 431.5,-83 431.5,-77.5 431.5,-77.5 431.5,-66.5 431.5,-66.5 431.5,-61 437,-55.5 442.5,-55.5"/>
</g>
<!-- finalizing&#45;&gt;installing&#45;pending&#45;user&#45;action -->
<g id="edge3" class="edge transition">
<title>finalizing&#45;&gt;installing&#45;pending&#45;user&#45;action</title>
<path fill="none" stroke="black" d="M131.42,-115.29C137.4,-113.67 143.6,-112.15 149.5,-111 239.92,-93.34 344.42,-83.26 419.34,-77.79"/>
<polygon fill="black" stroke="black" points="419.4,-81.3 429.13,-77.09 418.9,-74.31 419.4,-81.3"/>
<text text-anchor="start" x="179.5" y="-114" font-family="Helvetica,sans-Serif" font-size="10.00">RefreshStatus &#45; TODO: Name this transition &#160;&#160;</text>
</g>
<!-- insufficient -->
<g id="node6" class="node state regular">
<title>insufficient</title>
<polygon fill="#ffffff" fill-opacity="0.003922" stroke="none" stroke-width="2" points="561,-36 481,-36 481,0 561,0 561,-36"/>
<text text-anchor="start" x="492" y="-14.4" font-family="Helvetica,sans-Serif" font-size="12.00">insufficient</text>
<path fill="none" stroke="black" stroke-width="2" d="M493,-1.5C493,-1.5 549,-1.5 549,-1.5 554.5,-1.5 560,-7 560,-12.5 560,-12.5 560,-23.5 560,-23.5 560,-29 554.5,-34.5 549,-34.5 549,-34.5 493,-34.5 493,-34.5 487.5,-34.5 482,-29 482,-23.5 482,-23.5 482,-12.5 482,-12.5 482,-7 487.5,-1.5 493,-1.5"/>
</g>
<!-- finalizing&#45;&gt;insufficient -->
<g id="edge7" class="edge transition">
<title>finalizing&#45;&gt;insufficient</title>
<path fill="none" stroke="black" d="M107.09,-108.09C116,-93.35 130.72,-73.28 149.5,-63 252.41,-6.67 395.09,-7.51 469.8,-12.83"/>
<polygon fill="black" stroke="black" points="469.44,-16.31 479.68,-13.6 469.98,-9.33 469.44,-16.31"/>
<text text-anchor="start" x="204" y="-66" font-family="Helvetica,sans-Serif" font-size="10.00">Reset Cluster &#45; Reset installation &#160;&#160;</text>
</g>
</g>
</svg>
