<?xml version="1.0" encoding="UTF-8" standalone="no"?>
<!DOCTYPE svg PUBLIC "-//W3C//DTD SVG 1.1//EN"
 "http://www.w3.org/Graphics/SVG/1.1/DTD/svg11.dtd">
<!-- Generated by graphviz version 12.1.0 (20240811.2233)
 -->
<!-- Title: state transitions Pages: 1 -->
<svg width="677pt" height="142pt"
 viewBox="0.00 0.00 677.38 141.75" xmlns="http://www.w3.org/2000/svg" xmlns:xlink="http://www.w3.org/1999/xlink">
<g id="graph0" class="graph" transform="scale(1 1) rotate(0) translate(4 137.75)">
<title>state transitions</title>
<polygon fill="white" stroke="none" points="-4,4 -4,-137.75 673.38,-137.75 673.38,4 -4,4"/>
<!-- insufficient -->
<g id="node1" class="node state regular">
<title>insufficient</title>
<polygon fill="#ffffff" fill-opacity="0.003922" stroke="none" stroke-width="2" points="669.38,-99.25 582.12,-99.25 582.12,-63 669.38,-63 669.38,-99.25"/>
<text text-anchor="start" x="593.12" y="-76.85" font-family="Helvetica,sans-Serif" font-size="12.00">insufficient</text>
<path fill="none" stroke="black" stroke-width="2" d="M594.54,-64C594.54,-64 656.96,-64 656.96,-64 662.67,-64 668.38,-69.71 668.38,-75.42 668.38,-75.42 668.38,-86.83 668.38,-86.83 668.38,-92.54 662.67,-98.25 656.96,-98.25 656.96,-98.25 594.54,-98.25 594.54,-98.25 588.83,-98.25 583.12,-92.54 583.12,-86.83 583.12,-86.83 583.12,-75.42 583.12,-75.42 583.12,-69.71 588.83,-64 594.54,-64"/>
</g>
<!-- pending&#45;for&#45;input -->
<g id="node2" class="node state regular">
<title>pending&#45;for&#45;input</title>
<polygon fill="#ffffff" fill-opacity="0.003922" stroke="none" stroke-width="2" points="228.12,-72.25 103.38,-72.25 103.38,-36 228.12,-36 228.12,-72.25"/>
<text text-anchor="start" x="114.38" y="-49.85" font-family="Helvetica,sans-Serif" font-size="12.00">pending&#45;for&#45;input</text>
<path fill="none" stroke="black" stroke-width="2" d="M115.79,-37C115.79,-37 215.71,-37 215.71,-37 221.42,-37 227.12,-42.71 227.12,-48.42 227.12,-48.42 227.12,-59.83 227.12,-59.83 227.12,-65.54 221.42,-71.25 215.71,-71.25 215.71,-71.25 115.79,-71.25 115.79,-71.25 110.08,-71.25 104.38,-65.54 104.38,-59.83 104.38,-59.83 104.38,-48.42 104.38,-48.42 104.38,-42.71 110.08,-37 115.79,-37"/>
</g>
<!-- pending&#45;for&#45;input&#45;&gt;insufficient -->
<g id="edge2" class="edge transition">
<title>pending&#45;for&#45;input&#45;&gt;insufficient</title>
<path fill="none" stroke="black" d="M227.73,-65.77C233.93,-66.69 240.14,-67.5 246.12,-68.12 361.46,-80.22 497.53,-81.82 571.06,-81.64"/>
<polygon fill="black" stroke="black" points="570.81,-85.15 580.8,-81.61 570.79,-78.15 570.81,-85.15"/>
<text text-anchor="start" x="246.12" y="-84.91" font-family="Helvetica,sans-Serif" font-size="10.00">RefreshStatus &#45; Refresh discovering cluster &#45; detect insufficient &#160;&#160;</text>
</g>
<!-- pending&#45;for&#45;input&#45;&gt;insufficient -->
<g id="edge4" class="edge transition">
<title>pending&#45;for&#45;input&#45;&gt;insufficient</title>
<path fill="none" stroke="black" d="M227.97,-44.98C306.86,-35.16 447.7,-24.35 564.12,-51.38 571.02,-52.98 578.03,-55.48 584.73,-58.36"/>
<polygon fill="black" stroke="black" points="583.01,-61.42 593.55,-62.5 585.98,-55.09 583.01,-61.42"/>
<text text-anchor="start" x="294.5" y="-54.62" font-family="Helvetica,sans-Serif" font-size="10.00">RefreshStatus &#45; TODO: Name this transition &#160;&#160;</text>
</g>
<!-- pending&#45;for&#45;input&#45;&gt;pending&#45;for&#45;input -->
<g id="edge1" class="edge transition">
<title>pending&#45;for&#45;input&#45;&gt;pending&#45;for&#45;input</title>
<path fill="none" stroke="black" d="M144.23,-71.97C140.58,-81.53 147.75,-90.25 165.75,-90.25 175.87,-90.25 182.57,-87.49 185.85,-83.38"/>
<polygon fill="black" stroke="black" points="189.32,-83.83 187.08,-73.47 182.37,-82.96 189.32,-83.83"/>
<text text-anchor="start" x="0" y="-93.5" font-family="Helvetica,sans-Serif" font-size="10.00">RefreshStatus &#45; Refresh discovering cluster &#45; detect required input &#160;&#160;</text>
</g>
<!-- pending&#45;for&#45;input&#45;&gt;pending&#45;for&#45;input -->
<g id="edge3" class="edge transition">
<title>pending&#45;for&#45;input&#45;&gt;pending&#45;for&#45;input</title>
<path fill="none" stroke="black" d="M129.77,-72.14C110.51,-89.41 122.5,-108.25 165.75,-108.25 201.56,-108.25 215.94,-95.33 208.89,-81.08"/>
<polygon fill="black" stroke="black" points="211.66,-78.94 202.68,-73.33 206.2,-83.32 211.66,-78.94"/>
<text text-anchor="start" x="55.12" y="-111.5" font-family="Helvetica,sans-Serif" font-size="10.00">RefreshStatus &#45; TODO: Name this transition &#160;&#160;</text>
</g>
<!-- ready -->
<g id="node3" class="node state regular">
<title>ready</title>
<polygon fill="#ffffff" fill-opacity="0.003922" stroke="none" stroke-width="2" points="653.75,-36.25 597.75,-36.25 597.75,0 653.75,0 653.75,-36.25"/>
<text text-anchor="start" x="608.88" y="-13.85" font-family="Helvetica,sans-Serif" font-size="12.00">ready</text>
<path fill="none" stroke="black" stroke-width="2" d="M610.17,-1C610.17,-1 641.33,-1 641.33,-1 647.04,-1 652.75,-6.71 652.75,-12.42 652.75,-12.42 652.75,-23.83 652.75,-23.83 652.75,-29.54 647.04,-35.25 641.33,-35.25 641.33,-35.25 610.17,-35.25 610.17,-35.25 604.46,-35.25 598.75,-29.54 598.75,-23.83 598.75,-23.83 598.75,-12.42 598.75,-12.42 598.75,-6.71 604.46,-1 610.17,-1"/>
</g>
<!-- pending&#45;for&#45;input&#45;&gt;ready -->
<g id="edge5" class="edge transition">
<title>pending&#45;for&#45;input&#45;&gt;ready</title>
<path fill="none" stroke="black" d="M197.32,-36.18C211.63,-28.79 229.22,-21.1 246.12,-17.38 368.4,9.56 518.33,-4 587.07,-12.71"/>
<polygon fill="black" stroke="black" points="586.29,-16.14 596.66,-13.97 587.2,-9.2 586.29,-16.14"/>
<text text-anchor="start" x="259.62" y="-20.62" font-family="Helvetica,sans-Serif" font-size="10.00">RefreshStatus &#45; Refresh discovering cluster &#45; detect ready &#160;&#160;</text>
</g>
</g>
</svg>
