<?xml version="1.0" encoding="UTF-8" standalone="no"?>
<!DOCTYPE svg PUBLIC "-//W3C//DTD SVG 1.1//EN"
 "http://www.w3.org/Graphics/SVG/1.1/DTD/svg11.dtd">
<!-- Generated by graphviz version 7.1.0 (0)
 -->
<!-- Title: state transitions Pages: 1 -->
<svg width="64pt" height="44pt"
 viewBox="0.00 0.00 64.00 44.00" xmlns="http://www.w3.org/2000/svg" xmlns:xlink="http://www.w3.org/1999/xlink">
<g id="graph0" class="graph" transform="scale(1 1) rotate(0) translate(4 40)">
<title>state transitions</title>
<polygon fill="white" stroke="none" points="-4,4 -4,-40 60,-40 60,4 -4,4"/>
<!-- initial -->
<g id="node1" class="node state regular">
<title>initial</title>
<polygon fill="#ffffff" fill-opacity="0.003922" stroke="none" stroke-width="2" points="56,-36 0,-36 0,0 56,0 56,-36"/>
<text text-anchor="start" x="13.5" y="-14.4" font-family="Helvetica,sans-Serif" font-size="12.00">initial</text>
<path fill="none" stroke="black" stroke-width="2" d="M12,-1.5C12,-1.5 44,-1.5 44,-1.5 49.5,-1.5 55,-7 55,-12.5 55,-12.5 55,-23.5 55,-23.5 55,-29 49.5,-34.5 44,-34.5 44,-34.5 12,-34.5 12,-34.5 6.5,-34.5 1,-29 1,-23.5 1,-23.5 1,-12.5 1,-12.5 1,-7 6.5,-1.5 12,-1.5"/>
</g>
</g>
</svg>
