<?xml version="1.0" encoding="UTF-8" standalone="no"?>
<!DOCTYPE svg PUBLIC "-//W3C//DTD SVG 1.1//EN"
 "http://www.w3.org/Graphics/SVG/1.1/DTD/svg11.dtd">
<!-- Generated by graphviz version 12.1.0 (20240811.2233)
 -->
<!-- Title: state transitions Pages: 1 -->
<svg width="638pt" height="260pt"
 viewBox="0.00 0.00 637.62 260.25" xmlns="http://www.w3.org/2000/svg" xmlns:xlink="http://www.w3.org/1999/xlink">
<g id="graph0" class="graph" transform="scale(1 1) rotate(0) translate(4 256.25)">
<title>state transitions</title>
<polygon fill="white" stroke="none" points="-4,4 -4,-256.25 633.62,-256.25 633.62,4 -4,4"/>
<!-- cancelled -->
<g id="node1" class="node state regular">
<title>cancelled</title>
<polygon fill="#ffffff" fill-opacity="0.003922" stroke="none" stroke-width="2" points="625.5,-252.25 546.5,-252.25 546.5,-216 625.5,-216 625.5,-252.25"/>
<text text-anchor="start" x="557.5" y="-229.85" font-family="Helvetica,sans-Serif" font-size="12.00">cancelled</text>
<path fill="none" stroke="black" stroke-width="2" d="M558.92,-217C558.92,-217 613.08,-217 613.08,-217 618.79,-217 624.5,-222.71 624.5,-228.42 624.5,-228.42 624.5,-239.83 624.5,-239.83 624.5,-245.54 618.79,-251.25 613.08,-251.25 613.08,-251.25 558.92,-251.25 558.92,-251.25 553.21,-251.25 547.5,-245.54 547.5,-239.83 547.5,-239.83 547.5,-228.42 547.5,-228.42 547.5,-222.71 553.21,-217 558.92,-217"/>
</g>
<!-- error -->
<g id="node2" class="node state regular">
<title>error</title>
<polygon fill="#ffffff" fill-opacity="0.003922" stroke="none" stroke-width="2" points="614,-198.25 558,-198.25 558,-162 614,-162 614,-198.25"/>
<text text-anchor="start" x="571.38" y="-175.85" font-family="Helvetica,sans-Serif" font-size="12.00">error</text>
<path fill="none" stroke="black" stroke-width="2" d="M570.42,-163C570.42,-163 601.58,-163 601.58,-163 607.29,-163 613,-168.71 613,-174.42 613,-174.42 613,-185.83 613,-185.83 613,-191.54 607.29,-197.25 601.58,-197.25 601.58,-197.25 570.42,-197.25 570.42,-197.25 564.71,-197.25 559,-191.54 559,-185.83 559,-185.83 559,-174.42 559,-174.42 559,-168.71 564.71,-163 570.42,-163"/>
</g>
<!-- finalizing -->
<g id="node3" class="node state regular">
<title>finalizing</title>
<polygon fill="#ffffff" fill-opacity="0.003922" stroke="none" stroke-width="2" points="623.25,-144.25 548.75,-144.25 548.75,-108 623.25,-108 623.25,-144.25"/>
<text text-anchor="start" x="559.75" y="-121.85" font-family="Helvetica,sans-Serif" font-size="12.00">finalizing</text>
<path fill="none" stroke="black" stroke-width="2" d="M561.17,-109C561.17,-109 610.83,-109 610.83,-109 616.54,-109 622.25,-114.71 622.25,-120.42 622.25,-120.42 622.25,-131.83 622.25,-131.83 622.25,-137.54 616.54,-143.25 610.83,-143.25 610.83,-143.25 561.17,-143.25 561.17,-143.25 555.46,-143.25 549.75,-137.54 549.75,-131.83 549.75,-131.83 549.75,-120.42 549.75,-120.42 549.75,-114.71 555.46,-109 561.17,-109"/>
</g>
<!-- installing -->
<g id="node4" class="node state regular">
<title>installing</title>
<polygon fill="#ffffff" fill-opacity="0.003922" stroke="none" stroke-width="2" points="623.25,-90.25 548.75,-90.25 548.75,-54 623.25,-54 623.25,-90.25"/>
<text text-anchor="start" x="559.75" y="-67.85" font-family="Helvetica,sans-Serif" font-size="12.00">installing</text>
<path fill="none" stroke="black" stroke-width="2" d="M561.17,-55C561.17,-55 610.83,-55 610.83,-55 616.54,-55 622.25,-60.71 622.25,-66.42 622.25,-66.42 622.25,-77.83 622.25,-77.83 622.25,-83.54 616.54,-89.25 610.83,-89.25 610.83,-89.25 561.17,-89.25 561.17,-89.25 555.46,-89.25 549.75,-83.54 549.75,-77.83 549.75,-77.83 549.75,-66.42 549.75,-66.42 549.75,-60.71 555.46,-55 561.17,-55"/>
</g>
<!-- installing&#45;pending&#45;user&#45;action -->
<g id="node5" class="node state regular">
<title>installing&#45;pending&#45;user&#45;action</title>
<polygon fill="#ffffff" fill-opacity="0.003922" stroke="none" stroke-width="2" points="209.38,-162.25 11.88,-162.25 11.88,-126 209.38,-126 209.38,-162.25"/>
<text text-anchor="start" x="22.88" y="-139.85" font-family="Helvetica,sans-Serif" font-size="12.00">installing&#45;pending&#45;user&#45;action</text>
<path fill="none" stroke="black" stroke-width="2" d="M24.29,-127C24.29,-127 196.96,-127 196.96,-127 202.67,-127 208.38,-132.71 208.38,-138.42 208.38,-138.42 208.38,-149.83 208.38,-149.83 208.38,-155.54 202.67,-161.25 196.96,-161.25 196.96,-161.25 24.29,-161.25 24.29,-161.25 18.58,-161.25 12.88,-155.54 12.88,-149.83 12.88,-149.83 12.88,-138.42 12.88,-138.42 12.88,-132.71 18.58,-127 24.29,-127"/>
</g>
<!-- installing&#45;pending&#45;user&#45;action&#45;&gt;cancelled -->
<g id="edge1" class="edge transition">
<title>installing&#45;pending&#45;user&#45;action&#45;&gt;cancelled</title>
<path fill="none" stroke="black" d="M138.86,-162.19C161.53,-176.23 195.19,-194.84 227.38,-204.12 333.98,-234.89 465.33,-237.37 535.41,-236.03"/>
<polygon fill="black" stroke="black" points="535.1,-239.54 545.02,-235.81 534.94,-232.54 535.1,-239.54"/>
<text text-anchor="start" x="227.38" y="-239.55" font-family="Helvetica,sans-Serif" font-size="10.00">Cancel Installation &#45; Cancel installation of installing cluster &#160;&#160;</text>
</g>
<!-- installing&#45;pending&#45;user&#45;action&#45;&gt;error -->
<g id="edge2" class="edge transition">
<title>installing&#45;pending&#45;user&#45;action&#45;&gt;error</title>
<path fill="none" stroke="black" d="M165.77,-162.21C185,-167.8 206.94,-173.24 227.38,-176.12 342.84,-192.45 481.37,-186.97 546.97,-182.9"/>
<polygon fill="black" stroke="black" points="547.09,-186.4 556.84,-182.26 546.64,-179.41 547.09,-186.4"/>
<text text-anchor="start" x="265.25" y="-190.42" font-family="Helvetica,sans-Serif" font-size="10.00">RefreshStatus &#45; TODO: Name this transition &#160;&#160;</text>
</g>
<!-- installing&#45;pending&#45;user&#45;action&#45;&gt;error -->
<g id="edge3" class="edge transition">
<title>installing&#45;pending&#45;user&#45;action&#45;&gt;error</title>
<path fill="none" stroke="black" d="M208.96,-144.45C311.56,-145.37 466.21,-148.59 524.38,-159.38 532.02,-160.79 540.01,-162.98 547.58,-165.42"/>
<polygon fill="black" stroke="black" points="546.27,-168.67 556.86,-168.61 548.54,-162.05 546.27,-168.67"/>
<text text-anchor="start" x="253.62" y="-162.62" font-family="Helvetica,sans-Serif" font-size="10.00">RefreshStatus &#45; Timed out while waiting for user &#160;&#160;</text>
</g>
<!-- installing&#45;pending&#45;user&#45;action&#45;&gt;finalizing -->
<g id="edge6" class="edge transition">
<title>installing&#45;pending&#45;user&#45;action&#45;&gt;finalizing</title>
<path fill="none" stroke="black" d="M209.09,-129.03C215.27,-128.38 221.4,-127.82 227.38,-127.38 338.3,-119.2 469.1,-121.85 537.64,-124.18"/>
<polygon fill="black" stroke="black" points="537.26,-127.67 547.38,-124.53 537.51,-120.68 537.26,-127.67"/>
<text text-anchor="start" x="265.25" y="-130.62" font-family="Helvetica,sans-Serif" font-size="10.00">RefreshStatus &#45; TODO: Name this transition &#160;&#160;</text>
</g>
<!-- installing&#45;pending&#45;user&#45;action&#45;&gt;installing -->
<g id="edge5" class="edge transition">
<title>installing&#45;pending&#45;user&#45;action&#45;&gt;installing</title>
<path fill="none" stroke="black" d="M157.42,-126.09C178.42,-118.52 203.84,-110.34 227.38,-105.38 336.82,-82.29 468.47,-75.23 537.47,-73.07"/>
<polygon fill="black" stroke="black" points="537.4,-76.58 547.29,-72.79 537.19,-69.58 537.4,-76.58"/>
<text text-anchor="start" x="265.25" y="-108.62" font-family="Helvetica,sans-Serif" font-size="10.00">RefreshStatus &#45; TODO: Name this transition &#160;&#160;</text>
</g>
<!-- installing&#45;pending&#45;user&#45;action&#45;&gt;installing&#45;pending&#45;user&#45;action -->
<g id="edge4" class="edge transition">
<title>installing&#45;pending&#45;user&#45;action&#45;&gt;installing&#45;pending&#45;user&#45;action</title>
<path fill="none" stroke="black" d="M62.94,-161.97C54.84,-171.53 70.73,-180.25 110.62,-180.25 133.69,-180.25 148.73,-177.34 155.75,-173.03"/>
<polygon fill="black" stroke="black" points="159.12,-173.97 157.97,-163.44 152.3,-172.4 159.12,-173.97"/>
<text text-anchor="start" x="0" y="-183.5" font-family="Helvetica,sans-Serif" font-size="10.00">RefreshStatus &#45; TODO: Name this transition &#160;&#160;</text>
</g>
<!-- insufficient -->
<g id="node6" class="node state regular">
<title>insufficient</title>
<polygon fill="#ffffff" fill-opacity="0.003922" stroke="none" stroke-width="2" points="629.62,-36.25 542.38,-36.25 542.38,0 629.62,0 629.62,-36.25"/>
<text text-anchor="start" x="553.38" y="-13.85" font-family="Helvetica,sans-Serif" font-size="12.00">insufficient</text>
<path fill="none" stroke="black" stroke-width="2" d="M554.79,-1C554.79,-1 617.21,-1 617.21,-1 622.92,-1 628.62,-6.71 628.62,-12.42 628.62,-12.42 628.62,-23.83 628.62,-23.83 628.62,-29.54 622.92,-35.25 617.21,-35.25 617.21,-35.25 554.79,-35.25 554.79,-35.25 549.08,-35.25 543.38,-29.54 543.38,-23.83 543.38,-23.83 543.38,-12.42 543.38,-12.42 543.38,-6.71 549.08,-1 554.79,-1"/>
</g>
<!-- installing&#45;pending&#45;user&#45;action&#45;&gt;insufficient -->
<g id="edge7" class="edge transition">
<title>installing&#45;pending&#45;user&#45;action&#45;&gt;insufficient</title>
<path fill="none" stroke="black" d="M128.97,-126.28C150.1,-105.78 187.9,-72.97 227.38,-57.38 329.18,-17.16 459.19,-13.61 531.08,-15.37"/>
<polygon fill="black" stroke="black" points="530.92,-18.87 541.02,-15.67 531.13,-11.87 530.92,-18.87"/>
<text text-anchor="start" x="291.12" y="-60.62" font-family="Helvetica,sans-Serif" font-size="10.00">Reset Cluster &#45; Reset installation &#160;&#160;</text>
</g>
</g>
</svg>
