<?xml version="1.0" encoding="UTF-8" standalone="no"?>
<!DOCTYPE svg PUBLIC "-//W3C//DTD SVG 1.1//EN"
 "http://www.w3.org/Graphics/SVG/1.1/DTD/svg11.dtd">
<!-- Generated by graphviz version 12.1.0 (20240811.2233)
 -->
<!-- Title: state transitions Pages: 1 -->
<svg width="480pt" height="106pt"
 viewBox="0.00 0.00 479.75 105.75" xmlns="http://www.w3.org/2000/svg" xmlns:xlink="http://www.w3.org/1999/xlink">
<g id="graph0" class="graph" transform="scale(1 1) rotate(0) translate(4 101.75)">
<title>state transitions</title>
<polygon fill="white" stroke="none" points="-4,4 -4,-101.75 475.75,-101.75 475.75,4 -4,4"/>
<!-- cancelled -->
<g id="node1" class="node state regular">
<title>cancelled</title>
<polygon fill="#ffffff" fill-opacity="0.003922" stroke="none" stroke-width="2" points="179,-36.25 100,-36.25 100,0 179,0 179,-36.25"/>
<text text-anchor="start" x="111" y="-13.85" font-family="Helvetica,sans-Serif" font-size="12.00">cancelled</text>
<path fill="none" stroke="black" stroke-width="2" d="M112.42,-1C112.42,-1 166.58,-1 166.58,-1 172.29,-1 178,-6.71 178,-12.42 178,-12.42 178,-23.83 178,-23.83 178,-29.54 172.29,-35.25 166.58,-35.25 166.58,-35.25 112.42,-35.25 112.42,-35.25 106.71,-35.25 101,-29.54 101,-23.83 101,-23.83 101,-12.42 101,-12.42 101,-6.71 106.71,-1 112.42,-1"/>
</g>
<!-- cancelled&#45;&gt;cancelled -->
<g id="edge1" class="edge transition">
<title>cancelled&#45;&gt;cancelled</title>
<path fill="none" stroke="black" d="M126.71,-35.97C124.54,-45.53 128.8,-54.25 139.5,-54.25 145.52,-54.25 149.5,-51.49 151.44,-47.38"/>
<polygon fill="black" stroke="black" points="154.93,-47.71 152.17,-37.48 147.95,-47.19 154.93,-47.71"/>
<text text-anchor="start" x="0" y="-57.5" font-family="Helvetica,sans-Serif" font-size="10.00">RefreshStatus &#45; Log collection timeout during cancelled &#160;&#160;</text>
</g>
<!-- cancelled&#45;&gt;cancelled -->
<g id="edge2" class="edge transition">
<title>cancelled&#45;&gt;cancelled</title>
<path fill="none" stroke="black" d="M118.12,-36.14C106.67,-53.41 113.8,-72.25 139.5,-72.25 160.18,-72.25 168.83,-60.05 165.46,-46.29"/>
<polygon fill="black" stroke="black" points="168.81,-45.2 161.51,-37.52 162.43,-48.08 168.81,-45.2"/>
<text text-anchor="start" x="36" y="-75.5" font-family="Helvetica,sans-Serif" font-size="10.00">RefreshStatus &#45; Maintain cancelled state &#160;&#160;</text>
</g>
<!-- insufficient -->
<g id="node2" class="node state regular">
<title>insufficient</title>
<polygon fill="#ffffff" fill-opacity="0.003922" stroke="none" stroke-width="2" points="471.75,-36.25 384.5,-36.25 384.5,0 471.75,0 471.75,-36.25"/>
<text text-anchor="start" x="395.5" y="-13.85" font-family="Helvetica,sans-Serif" font-size="12.00">insufficient</text>
<path fill="none" stroke="black" stroke-width="2" d="M396.92,-1C396.92,-1 459.33,-1 459.33,-1 465.04,-1 470.75,-6.71 470.75,-12.42 470.75,-12.42 470.75,-23.83 470.75,-23.83 470.75,-29.54 465.04,-35.25 459.33,-35.25 459.33,-35.25 396.92,-35.25 396.92,-35.25 391.21,-35.25 385.5,-29.54 385.5,-23.83 385.5,-23.83 385.5,-12.42 385.5,-12.42 385.5,-6.71 391.21,-1 396.92,-1"/>
</g>
<!-- cancelled&#45;&gt;insufficient -->
<g id="edge3" class="edge transition">
<title>cancelled&#45;&gt;insufficient</title>
<path fill="none" stroke="black" d="M178.86,-18.12C228.95,-18.12 316.91,-18.12 373.56,-18.12"/>
<polygon fill="black" stroke="black" points="373.29,-21.63 383.29,-18.13 373.29,-14.63 373.29,-21.63"/>
<text text-anchor="start" x="197" y="-21.38" font-family="Helvetica,sans-Serif" font-size="10.00">Reset Cluster &#45; Reset installation &#160;&#160;</text>
</g>
</g>
</svg>
