<?xml version="1.0" encoding="UTF-8" standalone="no"?>
<!DOCTYPE svg PUBLIC "-//W3C//DTD SVG 1.1//EN"
 "http://www.w3.org/Graphics/SVG/1.1/DTD/svg11.dtd">
<!-- Generated by graphviz version 7.1.0 (0)
 -->
<!-- Title: state transitions Pages: 1 -->
<svg width="651pt" height="189pt"
 viewBox="0.00 0.00 651.00 188.52" xmlns="http://www.w3.org/2000/svg" xmlns:xlink="http://www.w3.org/1999/xlink">
<g id="graph0" class="graph" transform="scale(1 1) rotate(0) translate(4 184.52)">
<title>state transitions</title>
<polygon fill="white" stroke="none" points="-4,4 -4,-184.52 647,-184.52 647,4 -4,4"/>
<!-- insufficient -->
<g id="node1" class="node state regular">
<title>insufficient</title>
<polygon fill="#ffffff" fill-opacity="0.003922" stroke="none" stroke-width="2" points="607,-165.52 527,-165.52 527,-129.52 607,-129.52 607,-165.52"/>
<text text-anchor="start" x="538" y="-143.92" font-family="Helvetica,sans-Serif" font-size="12.00">insufficient</text>
<path fill="none" stroke="black" stroke-width="2" d="M539,-131.02C539,-131.02 595,-131.02 595,-131.02 600.5,-131.02 606,-136.52 606,-142.02 606,-142.02 606,-153.02 606,-153.02 606,-158.52 600.5,-164.02 595,-164.02 595,-164.02 539,-164.02 539,-164.02 533.5,-164.02 528,-158.52 528,-153.02 528,-153.02 528,-142.02 528,-142.02 528,-136.52 533.5,-131.02 539,-131.02"/>
</g>
<!-- pending&#45;for&#45;input -->
<g id="node2" class="node state regular">
<title>pending&#45;for&#45;input</title>
<polygon fill="#ffffff" fill-opacity="0.003922" stroke="none" stroke-width="2" points="623.5,-101.52 510.5,-101.52 510.5,-65.52 623.5,-65.52 623.5,-101.52"/>
<text text-anchor="start" x="522" y="-79.92" font-family="Helvetica,sans-Serif" font-size="12.00">pending&#45;for&#45;input</text>
<path fill="none" stroke="black" stroke-width="2" d="M522.5,-67.02C522.5,-67.02 611.5,-67.02 611.5,-67.02 617,-67.02 622.5,-72.52 622.5,-78.02 622.5,-78.02 622.5,-89.02 622.5,-89.02 622.5,-94.52 617,-100.02 611.5,-100.02 611.5,-100.02 522.5,-100.02 522.5,-100.02 517,-100.02 511.5,-94.52 511.5,-89.02 511.5,-89.02 511.5,-78.02 511.5,-78.02 511.5,-72.52 517,-67.02 522.5,-67.02"/>
</g>
<!-- preparing&#45;for&#45;installation -->
<g id="node3" class="node state regular">
<title>preparing&#45;for&#45;installation</title>
<polygon fill="#ffffff" fill-opacity="0.003922" stroke="none" stroke-width="2" points="643,-40.52 491,-40.52 491,-4.52 643,-4.52 643,-40.52"/>
<text text-anchor="start" x="502" y="-18.92" font-family="Helvetica,sans-Serif" font-size="12.00">preparing&#45;for&#45;installation</text>
<path fill="none" stroke="black" stroke-width="2" d="M503,-6.02C503,-6.02 631,-6.02 631,-6.02 636.5,-6.02 642,-11.52 642,-17.02 642,-17.02 642,-28.02 642,-28.02 642,-33.52 636.5,-39.02 631,-39.02 631,-39.02 503,-39.02 503,-39.02 497.5,-39.02 492,-33.52 492,-28.02 492,-28.02 492,-17.02 492,-17.02 492,-11.52 497.5,-6.02 503,-6.02"/>
</g>
<!-- ready -->
<g id="node4" class="node state regular">
<title>ready</title>
<polygon fill="#ffffff" fill-opacity="0.003922" stroke="none" stroke-width="2" points="159,-108.52 103,-108.52 103,-72.52 159,-72.52 159,-108.52"/>
<text text-anchor="start" x="115.5" y="-86.92" font-family="Helvetica,sans-Serif" font-size="12.00">ready</text>
<path fill="none" stroke="black" stroke-width="2" d="M115,-74.02C115,-74.02 147,-74.02 147,-74.02 152.5,-74.02 158,-79.52 158,-85.02 158,-85.02 158,-96.02 158,-96.02 158,-101.52 152.5,-107.02 147,-107.02 147,-107.02 115,-107.02 115,-107.02 109.5,-107.02 104,-101.52 104,-96.02 104,-96.02 104,-85.02 104,-85.02 104,-79.52 109.5,-74.02 115,-74.02"/>
</g>
<!-- ready&#45;&gt;insufficient -->
<g id="edge3" class="edge transition">
<title>ready&#45;&gt;insufficient</title>
<path fill="none" stroke="black" d="M143.94,-108.28C151.95,-118.56 163.49,-130.61 177,-136.52 289.9,-185.9 439.38,-170.5 516.01,-157.56"/>
<polygon fill="black" stroke="black" points="516.48,-161.03 525.73,-155.86 515.27,-154.14 516.48,-161.03"/>
<text text-anchor="start" x="183" y="-172.52" font-family="Helvetica,sans-Serif" font-size="10.00">RefreshStatus &#45; Refresh discovering cluster &#45; detect insufficient &#160;&#160;</text>
</g>
<!-- ready&#45;&gt;insufficient -->
<g id="edge5" class="edge transition">
<title>ready&#45;&gt;insufficient</title>
<path fill="none" stroke="black" d="M158.95,-98.59C164.85,-100.11 171.1,-101.53 177,-102.52 307.08,-124.28 342.83,-102.29 473,-123.52 487.28,-125.85 502.57,-129.36 516.54,-132.98"/>
<polygon fill="black" stroke="black" points="515.39,-136.29 525.96,-135.5 517.2,-129.53 515.39,-136.29"/>
<text text-anchor="start" x="223.5" y="-126.52" font-family="Helvetica,sans-Serif" font-size="10.00">RefreshStatus &#45; TODO: Name this transition &#160;&#160;</text>
</g>
<!-- ready&#45;&gt;pending&#45;for&#45;input -->
<g id="edge2" class="edge transition">
<title>ready&#45;&gt;pending&#45;for&#45;input</title>
<path fill="none" stroke="black" d="M158.82,-90.09C225.77,-89.01 401.83,-86.17 499.08,-84.6"/>
<polygon fill="black" stroke="black" points="499.08,-88.1 509.02,-84.44 498.97,-81.1 499.08,-88.1"/>
<text text-anchor="start" x="177" y="-92.52" font-family="Helvetica,sans-Serif" font-size="10.00">RefreshStatus &#45; Refresh discovering cluster &#45; detect required input &#160;&#160;</text>
</g>
<!-- ready&#45;&gt;pending&#45;for&#45;input -->
<g id="edge4" class="edge transition">
<title>ready&#45;&gt;pending&#45;for&#45;input</title>
<path fill="none" stroke="black" d="M158.93,-75.65C164.73,-73.11 170.94,-70.86 177,-69.52 305.43,-41.03 341.81,-59.7 473,-69.52 481.59,-70.16 490.58,-71.13 499.45,-72.27"/>
<polygon fill="black" stroke="black" points="498.7,-75.7 509.08,-73.59 499.65,-68.77 498.7,-75.7"/>
<text text-anchor="start" x="223.5" y="-72.52" font-family="Helvetica,sans-Serif" font-size="10.00">RefreshStatus &#45; TODO: Name this transition &#160;&#160;</text>
</g>
<!-- ready&#45;&gt;preparing&#45;for&#45;installation -->
<g id="edge1" class="edge transition">
<title>ready&#45;&gt;preparing&#45;for&#45;installation</title>
<path fill="none" stroke="black" d="M142.07,-72.64C149.9,-60.65 161.94,-45.78 177,-38.52 272.8,7.67 397.79,3.13 479.9,-7.24"/>
<polygon fill="black" stroke="black" points="479.32,-10.69 489.7,-8.54 480.24,-3.75 479.32,-10.69"/>
<text text-anchor="start" x="232.5" y="-41.52" font-family="Helvetica,sans-Serif" font-size="10.00">PrepareForInstallation &#45; Start installation &#160;&#160;</text>
</g>
<!-- ready&#45;&gt;ready -->
<g id="edge6" class="edge transition">
<title>ready&#45;&gt;ready</title>
<path fill="none" stroke="black" d="M103.16,-101.58C85.72,-113.3 95,-126.52 131,-126.52 158.56,-126.52 170.46,-118.77 166.7,-109.88"/>
<polygon fill="black" stroke="black" points="169.3,-107.53 159.88,-102.68 164.21,-112.34 169.3,-107.53"/>
<text text-anchor="start" x="0" y="-129.52" font-family="Helvetica,sans-Serif" font-size="10.00">RefreshStatus &#45; Refresh discovering cluster &#45; detect ready &#160;&#160;</text>
</g>
</g>
</svg>
