<?xml version="1.0" encoding="UTF-8" standalone="no"?>
<!DOCTYPE svg PUBLIC "-//W3C//DTD SVG 1.1//EN"
 "http://www.w3.org/Graphics/SVG/1.1/DTD/svg11.dtd">
<!-- Generated by graphviz version 12.1.0 (20240811.2233)
 -->
<!-- Title: state transitions Pages: 1 -->
<svg width="637pt" height="260pt"
 viewBox="0.00 0.00 637.25 260.25" xmlns="http://www.w3.org/2000/svg" xmlns:xlink="http://www.w3.org/1999/xlink">
<g id="graph0" class="graph" transform="scale(1 1) rotate(0) translate(4 256.25)">
<title>state transitions</title>
<polygon fill="white" stroke="none" points="-4,4 -4,-256.25 633.25,-256.25 633.25,4 -4,4"/>
<!-- cancelled -->
<g id="node1" class="node state regular">
<title>cancelled</title>
<polygon fill="#ffffff" fill-opacity="0.003922" stroke="none" stroke-width="2" points="625.5,-252.25 546.5,-252.25 546.5,-216 625.5,-216 625.5,-252.25"/>
<text text-anchor="start" x="557.5" y="-229.85" font-family="Helvetica,sans-Serif" font-size="12.00">cancelled</text>
<path fill="none" stroke="black" stroke-width="2" d="M558.92,-217C558.92,-217 613.08,-217 613.08,-217 618.79,-217 624.5,-222.71 624.5,-228.42 624.5,-228.42 624.5,-239.83 624.5,-239.83 624.5,-245.54 618.79,-251.25 613.08,-251.25 613.08,-251.25 558.92,-251.25 558.92,-251.25 553.21,-251.25 547.5,-245.54 547.5,-239.83 547.5,-239.83 547.5,-228.42 547.5,-228.42 547.5,-222.71 553.21,-217 558.92,-217"/>
</g>
<!-- error -->
<g id="node2" class="node state regular">
<title>error</title>
<polygon fill="#ffffff" fill-opacity="0.003922" stroke="none" stroke-width="2" points="614,-198.25 558,-198.25 558,-162 614,-162 614,-198.25"/>
<text text-anchor="start" x="571.38" y="-175.85" font-family="Helvetica,sans-Serif" font-size="12.00">error</text>
<path fill="none" stroke="black" stroke-width="2" d="M570.42,-163C570.42,-163 601.58,-163 601.58,-163 607.29,-163 613,-168.71 613,-174.42 613,-174.42 613,-185.83 613,-185.83 613,-191.54 607.29,-197.25 601.58,-197.25 601.58,-197.25 570.42,-197.25 570.42,-197.25 564.71,-197.25 559,-191.54 559,-185.83 559,-185.83 559,-174.42 559,-174.42 559,-168.71 564.71,-163 570.42,-163"/>
</g>
<!-- finalizing -->
<g id="node3" class="node state regular">
<title>finalizing</title>
<polygon fill="#ffffff" fill-opacity="0.003922" stroke="none" stroke-width="2" points="623.25,-144.25 548.75,-144.25 548.75,-108 623.25,-108 623.25,-144.25"/>
<text text-anchor="start" x="559.75" y="-121.85" font-family="Helvetica,sans-Serif" font-size="12.00">finalizing</text>
<path fill="none" stroke="black" stroke-width="2" d="M561.17,-109C561.17,-109 610.83,-109 610.83,-109 616.54,-109 622.25,-114.71 622.25,-120.42 622.25,-120.42 622.25,-131.83 622.25,-131.83 622.25,-137.54 616.54,-143.25 610.83,-143.25 610.83,-143.25 561.17,-143.25 561.17,-143.25 555.46,-143.25 549.75,-137.54 549.75,-131.83 549.75,-131.83 549.75,-120.42 549.75,-120.42 549.75,-114.71 555.46,-109 561.17,-109"/>
</g>
<!-- installing -->
<g id="node4" class="node state regular">
<title>installing</title>
<polygon fill="#ffffff" fill-opacity="0.003922" stroke="none" stroke-width="2" points="623.25,-90.25 548.75,-90.25 548.75,-54 623.25,-54 623.25,-90.25"/>
<text text-anchor="start" x="559.75" y="-67.85" font-family="Helvetica,sans-Serif" font-size="12.00">installing</text>
<path fill="none" stroke="black" stroke-width="2" d="M561.17,-55C561.17,-55 610.83,-55 610.83,-55 616.54,-55 622.25,-60.71 622.25,-66.42 622.25,-66.42 622.25,-77.83 622.25,-77.83 622.25,-83.54 616.54,-89.25 610.83,-89.25 610.83,-89.25 561.17,-89.25 561.17,-89.25 555.46,-89.25 549.75,-83.54 549.75,-77.83 549.75,-77.83 549.75,-66.42 549.75,-66.42 549.75,-60.71 555.46,-55 561.17,-55"/>
</g>
<!-- installing&#45;pending&#45;user&#45;action -->
<g id="node5" class="node state regular">
<title>installing&#45;pending&#45;user&#45;action</title>
<polygon fill="#ffffff" fill-opacity="0.003922" stroke="none" stroke-width="2" points="209.75,-162.25 11.5,-162.25 11.5,-126 209.75,-126 209.75,-162.25"/>
<text text-anchor="start" x="22.5" y="-139.85" font-family="Helvetica,sans-Serif" font-size="12.00">installing&#45;pending&#45;user&#45;action</text>
<path fill="none" stroke="black" stroke-width="2" d="M23.92,-127C23.92,-127 197.33,-127 197.33,-127 203.04,-127 208.75,-132.71 208.75,-138.42 208.75,-138.42 208.75,-149.83 208.75,-149.83 208.75,-155.54 203.04,-161.25 197.33,-161.25 197.33,-161.25 23.92,-161.25 23.92,-161.25 18.21,-161.25 12.5,-155.54 12.5,-149.83 12.5,-149.83 12.5,-138.42 12.5,-138.42 12.5,-132.71 18.21,-127 23.92,-127"/>
</g>
<!-- installing&#45;pending&#45;user&#45;action&#45;&gt;cancelled -->
<g id="edge1" class="edge transition">
<title>installing&#45;pending&#45;user&#45;action&#45;&gt;cancelled</title>
<path fill="none" stroke="black" d="M138.96,-162.19C161.71,-176.23 195.48,-194.83 227.75,-204.12 334.27,-234.79 465.47,-237.31 535.47,-236"/>
<polygon fill="black" stroke="black" points="535.14,-239.51 545.06,-235.79 534.98,-232.51 535.14,-239.51"/>
<text text-anchor="start" x="227.75" y="-239.51" font-family="Helvetica,sans-Serif" font-size="10.00">Cancel Installation &#45; Cancel installation of installing cluster &#160;&#160;</text>
</g>
<!-- installing&#45;pending&#45;user&#45;action&#45;&gt;error -->
<g id="edge2" class="edge transition">
<title>installing&#45;pending&#45;user&#45;action&#45;&gt;error</title>
<path fill="none" stroke="black" d="M165.95,-162.21C185.24,-167.79 207.25,-173.24 227.75,-176.12 343.1,-192.39 481.48,-186.94 547.01,-182.89"/>
<polygon fill="black" stroke="black" points="547.12,-186.39 556.87,-182.25 546.67,-179.4 547.12,-186.39"/>
<text text-anchor="start" x="265.62" y="-190.38" font-family="Helvetica,sans-Serif" font-size="10.00">RefreshStatus &#45; TODO: Name this transition &#160;&#160;</text>
</g>
<!-- installing&#45;pending&#45;user&#45;action&#45;&gt;error -->
<g id="edge3" class="edge transition">
<title>installing&#45;pending&#45;user&#45;action&#45;&gt;error</title>
<path fill="none" stroke="black" d="M209.52,-144.43C312.22,-145.34 466.63,-148.54 524.75,-159.38 532.19,-160.76 539.95,-162.89 547.34,-165.26"/>
<polygon fill="black" stroke="black" points="546.14,-168.55 556.73,-168.49 548.42,-161.93 546.14,-168.55"/>
<text text-anchor="start" x="253.62" y="-162.62" font-family="Helvetica,sans-Serif" font-size="10.00">RefreshStatus &#45; Timed out while waiting for user &#160;&#160;</text>
</g>
<!-- installing&#45;pending&#45;user&#45;action&#45;&gt;finalizing -->
<g id="edge6" class="edge transition">
<title>installing&#45;pending&#45;user&#45;action&#45;&gt;finalizing</title>
<path fill="none" stroke="black" d="M209.72,-128.99C215.81,-128.36 221.86,-127.81 227.75,-127.38 338.56,-119.23 469.22,-121.87 537.69,-124.19"/>
<polygon fill="black" stroke="black" points="537.3,-127.68 547.42,-124.54 537.55,-120.69 537.3,-127.68"/>
<text text-anchor="start" x="265.62" y="-130.62" font-family="Helvetica,sans-Serif" font-size="10.00">RefreshStatus &#45; TODO: Name this transition &#160;&#160;</text>
</g>
<!-- installing&#45;pending&#45;user&#45;action&#45;&gt;installing -->
<g id="edge5" class="edge transition">
<title>installing&#45;pending&#45;user&#45;action&#45;&gt;installing</title>
<path fill="none" stroke="black" d="M157.57,-126.09C178.64,-118.52 204.14,-110.34 227.75,-105.38 337.09,-82.36 468.6,-75.28 537.53,-73.09"/>
<polygon fill="black" stroke="black" points="537.44,-76.6 547.33,-72.81 537.23,-69.6 537.44,-76.6"/>
<text text-anchor="start" x="265.62" y="-108.62" font-family="Helvetica,sans-Serif" font-size="10.00">RefreshStatus &#45; TODO: Name this transition &#160;&#160;</text>
</g>
<!-- installing&#45;pending&#45;user&#45;action&#45;&gt;installing&#45;pending&#45;user&#45;action -->
<g id="edge4" class="edge transition">
<title>installing&#45;pending&#45;user&#45;action&#45;&gt;installing&#45;pending&#45;user&#45;action</title>
<path fill="none" stroke="black" d="M62.88,-161.97C54.76,-171.53 70.68,-180.25 110.62,-180.25 133.72,-180.25 148.78,-177.34 155.81,-173.03"/>
<polygon fill="black" stroke="black" points="159.19,-173.97 158.03,-163.44 152.37,-172.4 159.19,-173.97"/>
<text text-anchor="start" x="0" y="-183.5" font-family="Helvetica,sans-Serif" font-size="10.00">RefreshStatus &#45; TODO: Name this transition &#160;&#160;</text>
</g>
<!-- insufficient -->
<g id="node6" class="node state regular">
<title>insufficient</title>
<polygon fill="#ffffff" fill-opacity="0.003922" stroke="none" stroke-width="2" points="629.25,-36.25 542.75,-36.25 542.75,0 629.25,0 629.25,-36.25"/>
<text text-anchor="start" x="553.75" y="-13.85" font-family="Helvetica,sans-Serif" font-size="12.00">insufficient</text>
<path fill="none" stroke="black" stroke-width="2" d="M555.17,-1C555.17,-1 616.83,-1 616.83,-1 622.54,-1 628.25,-6.71 628.25,-12.42 628.25,-12.42 628.25,-23.83 628.25,-23.83 628.25,-29.54 622.54,-35.25 616.83,-35.25 616.83,-35.25 555.17,-35.25 555.17,-35.25 549.46,-35.25 543.75,-29.54 543.75,-23.83 543.75,-23.83 543.75,-12.42 543.75,-12.42 543.75,-6.71 549.46,-1 555.17,-1"/>
</g>
<!-- installing&#45;pending&#45;user&#45;action&#45;&gt;insufficient -->
<g id="edge7" class="edge transition">
<title>installing&#45;pending&#45;user&#45;action&#45;&gt;insufficient</title>
<path fill="none" stroke="black" d="M129.04,-126.28C150.25,-105.78 188.18,-72.97 227.75,-57.38 329.61,-17.22 459.69,-13.67 531.44,-15.41"/>
<polygon fill="black" stroke="black" points="531.25,-18.91 541.35,-15.7 531.46,-11.91 531.25,-18.91"/>
<text text-anchor="start" x="291.5" y="-60.62" font-family="Helvetica,sans-Serif" font-size="10.00">Reset Cluster &#45; Reset installation &#160;&#160;</text>
</g>
</g>
</svg>
