<?xml version="1.0" encoding="UTF-8" standalone="no"?>
<!DOCTYPE svg PUBLIC "-//W3C//DTD SVG 1.1//EN"
 "http://www.w3.org/Graphics/SVG/1.1/DTD/svg11.dtd">
<!-- Generated by graphviz version 12.1.0 (20240811.2233)
 -->
<!-- Title: state transitions Pages: 1 -->
<svg width="769pt" height="323pt"
 viewBox="0.00 0.00 769.25 323.43" xmlns="http://www.w3.org/2000/svg" xmlns:xlink="http://www.w3.org/1999/xlink">
<g id="graph0" class="graph" transform="scale(1 1) rotate(0) translate(4 319.43)">
<title>state transitions</title>
<polygon fill="white" stroke="none" points="-4,4 -4,-319.43 765.25,-319.43 765.25,4 -4,4"/>
<!-- cancelled -->
<g id="node1" class="node state regular">
<title>cancelled</title>
<polygon fill="#ffffff" fill-opacity="0.003922" stroke="none" stroke-width="2" points="702,-300.05 623,-300.05 623,-263.8 702,-263.8 702,-300.05"/>
<text text-anchor="start" x="634" y="-277.65" font-family="Helvetica,sans-Serif" font-size="12.00">cancelled</text>
<path fill="none" stroke="black" stroke-width="2" d="M635.42,-264.8C635.42,-264.8 689.58,-264.8 689.58,-264.8 695.29,-264.8 701,-270.51 701,-276.22 701,-276.22 701,-287.63 701,-287.63 701,-293.34 695.29,-299.05 689.58,-299.05 689.58,-299.05 635.42,-299.05 635.42,-299.05 629.71,-299.05 624,-293.34 624,-287.63 624,-287.63 624,-276.22 624,-276.22 624,-270.51 629.71,-264.8 635.42,-264.8"/>
</g>
<!-- error -->
<g id="node2" class="node state regular">
<title>error</title>
<polygon fill="#ffffff" fill-opacity="0.003922" stroke="none" stroke-width="2" points="690.5,-228.05 634.5,-228.05 634.5,-191.8 690.5,-191.8 690.5,-228.05"/>
<text text-anchor="start" x="647.88" y="-205.65" font-family="Helvetica,sans-Serif" font-size="12.00">error</text>
<path fill="none" stroke="black" stroke-width="2" d="M646.92,-192.8C646.92,-192.8 678.08,-192.8 678.08,-192.8 683.79,-192.8 689.5,-198.51 689.5,-204.22 689.5,-204.22 689.5,-215.63 689.5,-215.63 689.5,-221.34 683.79,-227.05 678.08,-227.05 678.08,-227.05 646.92,-227.05 646.92,-227.05 641.21,-227.05 635.5,-221.34 635.5,-215.63 635.5,-215.63 635.5,-204.22 635.5,-204.22 635.5,-198.51 641.21,-192.8 646.92,-192.8"/>
</g>
<!-- finalizing -->
<g id="node3" class="node state regular">
<title>finalizing</title>
<polygon fill="#ffffff" fill-opacity="0.003922" stroke="none" stroke-width="2" points="230.75,-192.05 156.25,-192.05 156.25,-155.8 230.75,-155.8 230.75,-192.05"/>
<text text-anchor="start" x="167.25" y="-169.65" font-family="Helvetica,sans-Serif" font-size="12.00">finalizing</text>
<path fill="none" stroke="black" stroke-width="2" d="M168.67,-156.8C168.67,-156.8 218.33,-156.8 218.33,-156.8 224.04,-156.8 229.75,-162.51 229.75,-168.22 229.75,-168.22 229.75,-179.63 229.75,-179.63 229.75,-185.34 224.04,-191.05 218.33,-191.05 218.33,-191.05 168.67,-191.05 168.67,-191.05 162.96,-191.05 157.25,-185.34 157.25,-179.63 157.25,-179.63 157.25,-168.22 157.25,-168.22 157.25,-162.51 162.96,-156.8 168.67,-156.8"/>
</g>
<!-- finalizing&#45;&gt;cancelled -->
<g id="edge1" class="edge transition">
<title>finalizing&#45;&gt;cancelled</title>
<path fill="none" stroke="black" d="M201.31,-191.95C209.46,-210.76 225.07,-239.38 248.75,-252.92 364.88,-319.35 530.49,-304.48 612.13,-291.44"/>
<polygon fill="black" stroke="black" points="612.29,-294.96 621.58,-289.86 611.14,-288.05 612.29,-294.96"/>
<text text-anchor="start" x="248.75" y="-305.93" font-family="Helvetica,sans-Serif" font-size="10.00">Cancel Installation &#45; Cancel installation of installing cluster &#160;&#160;</text>
</g>
<!-- finalizing&#45;&gt;error -->
<g id="edge2" class="edge transition">
<title>finalizing&#45;&gt;error</title>
<path fill="none" stroke="black" d="M207.96,-191.9C217.81,-203.47 232.29,-217.49 248.75,-223.92 316.26,-250.29 534.57,-226.28 623.38,-215.02"/>
<polygon fill="black" stroke="black" points="623.57,-218.52 633.04,-213.78 622.67,-211.58 623.57,-218.52"/>
<text text-anchor="start" x="290.75" y="-239.09" font-family="Helvetica,sans-Serif" font-size="10.00">RefreshStatus &#45; Timed out while installing &#160;&#160;</text>
</g>
<!-- finalizing&#45;&gt;error -->
<g id="edge3" class="edge transition">
<title>finalizing&#45;&gt;error</title>
<path fill="none" stroke="black" d="M230.48,-184.28C236.53,-185.71 242.79,-187.01 248.75,-187.92 320.29,-198.95 535.37,-206.26 623.36,-208.86"/>
<polygon fill="black" stroke="black" points="623.05,-212.36 633.15,-209.15 623.25,-205.36 623.05,-212.36"/>
<text text-anchor="start" x="290.75" y="-209.46" font-family="Helvetica,sans-Serif" font-size="10.00">RefreshStatus &#45; Timed out while finalizing &#160;&#160;</text>
</g>
<!-- finalizing&#45;&gt;error -->
<g id="edge4" class="edge transition">
<title>finalizing&#45;&gt;error</title>
<path fill="none" stroke="black" d="M230.71,-169.65C294.75,-162.97 431.99,-152.64 545.75,-171.17 572.59,-175.55 601.6,-185.27 623.87,-193.89"/>
<polygon fill="black" stroke="black" points="622.54,-197.12 633.13,-197.57 625.13,-190.62 622.54,-197.12"/>
<text text-anchor="start" x="253.25" y="-174.42" font-family="Helvetica,sans-Serif" font-size="10.00">RefreshStatus &#45; Finalizing stage timed out. &#160;Move to error &#160;&#160;</text>
</g>
<!-- finalizing&#45;&gt;finalizing -->
<g id="edge5" class="edge transition">
<title>finalizing&#45;&gt;finalizing</title>
<path fill="none" stroke="black" d="M181.29,-191.77C179.22,-201.33 183.29,-210.05 193.5,-210.05 199.25,-210.05 203.05,-207.29 204.9,-203.18"/>
<polygon fill="black" stroke="black" points="208.39,-203.5 205.6,-193.28 201.41,-203.01 208.39,-203.5"/>
<text text-anchor="start" x="0" y="-213.3" font-family="Helvetica,sans-Serif" font-size="10.00">RefreshStatus &#45; Finalizing stage is taking too long. &#160;Emit an appropriate event &#160;&#160;</text>
</g>
<!-- finalizing&#45;&gt;finalizing -->
<g id="edge7" class="edge transition">
<title>finalizing&#45;&gt;finalizing</title>
<path fill="none" stroke="black" d="M173.08,-191.94C162.15,-209.2 168.96,-228.05 193.5,-228.05 213.06,-228.05 221.35,-216.08 218.38,-202.49"/>
<polygon fill="black" stroke="black" points="221.63,-201.18 214.51,-193.34 215.18,-203.91 221.63,-201.18"/>
<text text-anchor="start" x="88.88" y="-231.3" font-family="Helvetica,sans-Serif" font-size="10.00">RefreshStatus &#45; Update AMS subscription &#160;&#160;</text>
</g>
<!-- finalizing&#45;&gt;finalizing -->
<g id="edge9" class="edge transition">
<title>finalizing&#45;&gt;finalizing</title>
<path fill="none" stroke="black" d="M167.72,-192.03C144.91,-216.41 153.51,-246.05 193.5,-246.05 228.65,-246.05 239.54,-223.15 226.18,-201.06"/>
<polygon fill="black" stroke="black" points="229.05,-199.05 220.2,-193.24 223.49,-203.3 229.05,-199.05"/>
<text text-anchor="start" x="90.75" y="-249.3" font-family="Helvetica,sans-Serif" font-size="10.00">RefreshStatus &#45; Maintain finalizing state &#160;&#160;</text>
</g>
<!-- installing&#45;pending&#45;user&#45;action -->
<g id="node4" class="node state regular">
<title>installing&#45;pending&#45;user&#45;action</title>
<polygon fill="#ffffff" fill-opacity="0.003922" stroke="none" stroke-width="2" points="761.25,-165.05 563.75,-165.05 563.75,-128.8 761.25,-128.8 761.25,-165.05"/>
<text text-anchor="start" x="574.75" y="-142.65" font-family="Helvetica,sans-Serif" font-size="12.00">installing&#45;pending&#45;user&#45;action</text>
<path fill="none" stroke="black" stroke-width="2" d="M576.17,-129.8C576.17,-129.8 748.83,-129.8 748.83,-129.8 754.54,-129.8 760.25,-135.51 760.25,-141.22 760.25,-141.22 760.25,-152.63 760.25,-152.63 760.25,-158.34 754.54,-164.05 748.83,-164.05 748.83,-164.05 576.17,-164.05 576.17,-164.05 570.46,-164.05 564.75,-158.34 564.75,-152.63 564.75,-152.63 564.75,-141.22 564.75,-141.22 564.75,-135.51 570.46,-129.8 576.17,-129.8"/>
</g>
<!-- finalizing&#45;&gt;installing&#45;pending&#45;user&#45;action -->
<g id="edge6" class="edge transition">
<title>finalizing&#45;&gt;installing&#45;pending&#45;user&#45;action</title>
<path fill="none" stroke="black" d="M216.31,-155.91C225.69,-149.28 237.16,-142.57 248.75,-139.17 375.43,-102.08 413.82,-134.76 545.75,-139.17 547.98,-139.25 550.23,-139.33 552.5,-139.42"/>
<polygon fill="black" stroke="black" points="552.3,-142.91 562.44,-139.86 552.6,-135.92 552.3,-142.91"/>
<text text-anchor="start" x="286.62" y="-142.42" font-family="Helvetica,sans-Serif" font-size="10.00">RefreshStatus &#45; TODO: Name this transition &#160;&#160;</text>
</g>
<!-- installed -->
<g id="node5" class="node state regular">
<title>installed</title>
<polygon fill="#ffffff" fill-opacity="0.003922" stroke="none" stroke-width="2" points="698.25,-111.05 626.75,-111.05 626.75,-74.8 698.25,-74.8 698.25,-111.05"/>
<text text-anchor="start" x="637.75" y="-88.65" font-family="Helvetica,sans-Serif" font-size="12.00">installed</text>
<path fill="none" stroke="black" stroke-width="2" d="M639.17,-75.8C639.17,-75.8 685.83,-75.8 685.83,-75.8 691.54,-75.8 697.25,-81.51 697.25,-87.22 697.25,-87.22 697.25,-98.63 697.25,-98.63 697.25,-104.34 691.54,-110.05 685.83,-110.05 685.83,-110.05 639.17,-110.05 639.17,-110.05 633.46,-110.05 627.75,-104.34 627.75,-98.63 627.75,-98.63 627.75,-87.22 627.75,-87.22 627.75,-81.51 633.46,-75.8 639.17,-75.8"/>
</g>
<!-- finalizing&#45;&gt;installed -->
<g id="edge8" class="edge transition">
<title>finalizing&#45;&gt;installed</title>
<path fill="none" stroke="black" d="M203,-155.85C211.85,-139.33 227.43,-115.9 248.75,-105.17 369.45,-44.44 536.16,-66.49 615.7,-82.36"/>
<polygon fill="black" stroke="black" points="614.8,-85.74 625.3,-84.33 616.21,-78.89 614.8,-85.74"/>
<text text-anchor="start" x="306.5" y="-108.42" font-family="Helvetica,sans-Serif" font-size="10.00">RefreshStatus &#45; Finalizing complete &#160;&#160;</text>
</g>
<!-- insufficient -->
<g id="node6" class="node state regular">
<title>insufficient</title>
<polygon fill="#ffffff" fill-opacity="0.003922" stroke="none" stroke-width="2" points="706.12,-57.05 618.88,-57.05 618.88,-20.8 706.12,-20.8 706.12,-57.05"/>
<text text-anchor="start" x="629.88" y="-34.65" font-family="Helvetica,sans-Serif" font-size="12.00">insufficient</text>
<path fill="none" stroke="black" stroke-width="2" d="M631.29,-21.8C631.29,-21.8 693.71,-21.8 693.71,-21.8 699.42,-21.8 705.12,-27.51 705.12,-33.22 705.12,-33.22 705.12,-44.63 705.12,-44.63 705.12,-50.34 699.42,-56.05 693.71,-56.05 693.71,-56.05 631.29,-56.05 631.29,-56.05 625.58,-56.05 619.88,-50.34 619.88,-44.63 619.88,-44.63 619.88,-33.22 619.88,-33.22 619.88,-27.51 625.58,-21.8 631.29,-21.8"/>
</g>
<!-- finalizing&#45;&gt;insufficient -->
<g id="edge10" class="edge transition">
<title>finalizing&#45;&gt;insufficient</title>
<path fill="none" stroke="black" d="M196.29,-155.94C200.19,-127.48 212.27,-72.75 248.75,-48.17 358.14,25.54 523.57,-1.95 607.93,-23.23"/>
<polygon fill="black" stroke="black" points="607.01,-26.61 617.57,-25.74 608.77,-19.83 607.01,-26.61"/>
<text text-anchor="start" x="312.5" y="-51.42" font-family="Helvetica,sans-Serif" font-size="10.00">Reset Cluster &#45; Reset installation &#160;&#160;</text>
</g>
</g>
</svg>
