<?xml version="1.0" encoding="UTF-8" standalone="no"?>
<!DOCTYPE svg PUBLIC "-//W3C//DTD SVG 1.1//EN"
 "http://www.w3.org/Graphics/SVG/1.1/DTD/svg11.dtd">
<!-- Generated by graphviz version 5.0.0 (0)
 -->
<!-- Title: state transitions Pages: 1 -->
<svg width="189pt" height="73pt"
 viewBox="0.00 0.00 189.00 73.00" xmlns="http://www.w3.org/2000/svg" xmlns:xlink="http://www.w3.org/1999/xlink">
<g id="graph0" class="graph" transform="scale(1 1) rotate(0) translate(4 69)">
<title>state transitions</title>
<polygon fill="white" stroke="transparent" points="-4,4 -4,-69 185,-69 185,4 -4,4"/>
<!-- installed -->
<g id="node1" class="node state regular">
<title>installed</title>
<polygon fill="#ffffff" fill-opacity="0.003922" stroke="transparent" stroke-width="2" points="124.5,-36 56.5,-36 56.5,0 124.5,0 124.5,-36"/>
<text text-anchor="start" x="67.5" y="-14.4" font-family="Helvetica,sans-Serif" font-size="12.00">installed</text>
<path fill="none" stroke="black" stroke-width="2" d="M68.5,-1.5C68.5,-1.5 112.5,-1.5 112.5,-1.5 118,-1.5 123.5,-7 123.5,-12.5 123.5,-12.5 123.5,-23.5 123.5,-23.5 123.5,-29 118,-34.5 112.5,-34.5 112.5,-34.5 68.5,-34.5 68.5,-34.5 63,-34.5 57.5,-29 57.5,-23.5 57.5,-23.5 57.5,-12.5 57.5,-12.5 57.5,-7 63,-1.5 68.5,-1.5"/>
</g>
<!-- installed&#45;&gt;installed -->
<g id="edge1" class="edge transition">
<title>installed&#45;&gt;installed</title>
<path fill="none" stroke="black" d="M78.2,-36.15C76.31,-45.54 80.41,-54 90.5,-54 96.65,-54 100.58,-50.86 102.28,-46.28"/>
<polygon fill="black" stroke="black" points="105.78,-46.32 102.8,-36.15 98.79,-45.96 105.78,-46.32"/>
<text text-anchor="start" x="0" y="-57" font-family="Helvetica,sans-Serif" font-size="10.00">RefreshStatus &#45; Maintain installed state &#160;&#160;</text>
</g>
</g>
</svg>
