<?xml version="1.0" encoding="UTF-8" standalone="no"?>
<!DOCTYPE svg PUBLIC "-//W3C//DTD SVG 1.1//EN"
 "http://www.w3.org/Graphics/SVG/1.1/DTD/svg11.dtd">
<!-- Generated by graphviz version 7.1.0 (0)
 -->
<!-- Title: state transitions Pages: 1 -->
<svg width="600pt" height="260pt"
 viewBox="0.00 0.00 600.00 260.00" xmlns="http://www.w3.org/2000/svg" xmlns:xlink="http://www.w3.org/1999/xlink">
<g id="graph0" class="graph" transform="scale(1 1) rotate(0) translate(4 256)">
<title>state transitions</title>
<polygon fill="white" stroke="none" points="-4,4 -4,-256 596,-256 596,4 -4,4"/>
<!-- cancelled -->
<g id="node1" class="node state regular">
<title>cancelled</title>
<polygon fill="#ffffff" fill-opacity="0.003922" stroke="none" stroke-width="2" points="538.5,-252 464.5,-252 464.5,-216 538.5,-216 538.5,-252"/>
<text text-anchor="start" x="475.5" y="-230.4" font-family="Helvetica,sans-Serif" font-size="12.00">cancelled</text>
<path fill="none" stroke="black" stroke-width="2" d="M476.5,-217.5C476.5,-217.5 526.5,-217.5 526.5,-217.5 532,-217.5 537.5,-223 537.5,-228.5 537.5,-228.5 537.5,-239.5 537.5,-239.5 537.5,-245 532,-250.5 526.5,-250.5 526.5,-250.5 476.5,-250.5 476.5,-250.5 471,-250.5 465.5,-245 465.5,-239.5 465.5,-239.5 465.5,-228.5 465.5,-228.5 465.5,-223 471,-217.5 476.5,-217.5"/>
</g>
<!-- error -->
<g id="node2" class="node state regular">
<title>error</title>
<polygon fill="#ffffff" fill-opacity="0.003922" stroke="none" stroke-width="2" points="529.5,-198 473.5,-198 473.5,-162 529.5,-162 529.5,-198"/>
<text text-anchor="start" x="489" y="-176.4" font-family="Helvetica,sans-Serif" font-size="12.00">error</text>
<path fill="none" stroke="black" stroke-width="2" d="M485.5,-163.5C485.5,-163.5 517.5,-163.5 517.5,-163.5 523,-163.5 528.5,-169 528.5,-174.5 528.5,-174.5 528.5,-185.5 528.5,-185.5 528.5,-191 523,-196.5 517.5,-196.5 517.5,-196.5 485.5,-196.5 485.5,-196.5 480,-196.5 474.5,-191 474.5,-185.5 474.5,-185.5 474.5,-174.5 474.5,-174.5 474.5,-169 480,-163.5 485.5,-163.5"/>
</g>
<!-- finalizing -->
<g id="node3" class="node state regular">
<title>finalizing</title>
<polygon fill="#ffffff" fill-opacity="0.003922" stroke="none" stroke-width="2" points="536.5,-144 466.5,-144 466.5,-108 536.5,-108 536.5,-144"/>
<text text-anchor="start" x="477.5" y="-122.4" font-family="Helvetica,sans-Serif" font-size="12.00">finalizing</text>
<path fill="none" stroke="black" stroke-width="2" d="M478.5,-109.5C478.5,-109.5 524.5,-109.5 524.5,-109.5 530,-109.5 535.5,-115 535.5,-120.5 535.5,-120.5 535.5,-131.5 535.5,-131.5 535.5,-137 530,-142.5 524.5,-142.5 524.5,-142.5 478.5,-142.5 478.5,-142.5 473,-142.5 467.5,-137 467.5,-131.5 467.5,-131.5 467.5,-120.5 467.5,-120.5 467.5,-115 473,-109.5 478.5,-109.5"/>
</g>
<!-- installing -->
<g id="node4" class="node state regular">
<title>installing</title>
<polygon fill="#ffffff" fill-opacity="0.003922" stroke="none" stroke-width="2" points="112,-144 41,-144 41,-108 112,-108 112,-144"/>
<text text-anchor="start" x="52.5" y="-122.4" font-family="Helvetica,sans-Serif" font-size="12.00">installing</text>
<path fill="none" stroke="black" stroke-width="2" d="M53,-109.5C53,-109.5 100,-109.5 100,-109.5 105.5,-109.5 111,-115 111,-120.5 111,-120.5 111,-131.5 111,-131.5 111,-137 105.5,-142.5 100,-142.5 100,-142.5 53,-142.5 53,-142.5 47.5,-142.5 42,-137 42,-131.5 42,-131.5 42,-120.5 42,-120.5 42,-115 47.5,-109.5 53,-109.5"/>
</g>
<!-- installing&#45;&gt;cancelled -->
<g id="edge1" class="edge transition">
<title>installing&#45;&gt;cancelled</title>
<path fill="none" stroke="black" d="M87.48,-143.91C96.57,-158.38 111.39,-177.93 130,-188 234.71,-244.64 379.89,-243.69 453.57,-238.62"/>
<polygon fill="black" stroke="black" points="453.54,-242.14 463.25,-237.9 453.02,-235.15 453.54,-242.14"/>
<text text-anchor="start" x="130" y="-243" font-family="Helvetica,sans-Serif" font-size="10.00">Cancel Installation &#45; Cancel installation of installing cluster &#160;&#160;</text>
</g>
<!-- installing&#45;&gt;error -->
<g id="edge5" class="edge transition">
<title>installing&#45;&gt;error</title>
<path fill="none" stroke="black" d="M111.75,-136.71C117.79,-138.33 124.04,-139.84 130,-141 250.1,-164.29 394.98,-174.46 462.46,-178.18"/>
<polygon fill="black" stroke="black" points="462.08,-181.66 472.25,-178.7 462.45,-174.67 462.08,-181.66"/>
<text text-anchor="start" x="186" y="-176" font-family="Helvetica,sans-Serif" font-size="10.00">RefreshStatus &#45; Installation error &#160;&#160;</text>
</g>
<!-- installing&#45;&gt;finalizing -->
<g id="edge3" class="edge transition">
<title>installing&#45;&gt;finalizing</title>
<path fill="none" stroke="black" d="M111.76,-126C187.65,-126 369.94,-126 455.15,-126"/>
<polygon fill="black" stroke="black" points="455,-129.5 465,-126 455,-122.5 455,-129.5"/>
<text text-anchor="start" x="183.5" y="-129" font-family="Helvetica,sans-Serif" font-size="10.00">RefreshStatus &#45; Move to finalizing &#160;&#160;</text>
</g>
<!-- installing&#45;&gt;installing -->
<g id="edge4" class="edge transition">
<title>installing&#45;&gt;installing</title>
<path fill="none" stroke="black" d="M43.24,-143.78C37.59,-153.31 48.68,-162 76.5,-162 92.58,-162 103.08,-159.1 107.97,-154.81"/>
<polygon fill="black" stroke="black" points="111.37,-155.71 109.51,-145.28 104.46,-154.59 111.37,-155.71"/>
<text text-anchor="start" x="0" y="-165" font-family="Helvetica,sans-Serif" font-size="10.00">RefreshStatus &#45; Stay in installing &#160;&#160;</text>
</g>
<!-- installing&#45;pending&#45;user&#45;action -->
<g id="node5" class="node state regular">
<title>installing&#45;pending&#45;user&#45;action</title>
<polygon fill="#ffffff" fill-opacity="0.003922" stroke="none" stroke-width="2" points="592,-90 411,-90 411,-54 592,-54 592,-90"/>
<text text-anchor="start" x="422.5" y="-68.4" font-family="Helvetica,sans-Serif" font-size="12.00">installing&#45;pending&#45;user&#45;action</text>
<path fill="none" stroke="black" stroke-width="2" d="M423,-55.5C423,-55.5 580,-55.5 580,-55.5 585.5,-55.5 591,-61 591,-66.5 591,-66.5 591,-77.5 591,-77.5 591,-83 585.5,-88.5 580,-88.5 580,-88.5 423,-88.5 423,-88.5 417.5,-88.5 412,-83 412,-77.5 412,-77.5 412,-66.5 412,-66.5 412,-61 417.5,-55.5 423,-55.5"/>
</g>
<!-- installing&#45;&gt;installing&#45;pending&#45;user&#45;action -->
<g id="edge2" class="edge transition">
<title>installing&#45;&gt;installing&#45;pending&#45;user&#45;action</title>
<path fill="none" stroke="black" d="M111.75,-115.29C117.79,-113.67 124.04,-112.16 130,-111 220.44,-93.46 324.94,-83.36 399.85,-77.86"/>
<polygon fill="black" stroke="black" points="399.92,-81.36 409.64,-77.16 399.41,-74.38 399.92,-81.36"/>
<text text-anchor="start" x="160" y="-114" font-family="Helvetica,sans-Serif" font-size="10.00">RefreshStatus &#45; TODO: Name this transition &#160;&#160;</text>
</g>
<!-- insufficient -->
<g id="node6" class="node state regular">
<title>insufficient</title>
<polygon fill="#ffffff" fill-opacity="0.003922" stroke="none" stroke-width="2" points="541.5,-36 461.5,-36 461.5,0 541.5,0 541.5,-36"/>
<text text-anchor="start" x="472.5" y="-14.4" font-family="Helvetica,sans-Serif" font-size="12.00">insufficient</text>
<path fill="none" stroke="black" stroke-width="2" d="M473.5,-1.5C473.5,-1.5 529.5,-1.5 529.5,-1.5 535,-1.5 540.5,-7 540.5,-12.5 540.5,-12.5 540.5,-23.5 540.5,-23.5 540.5,-29 535,-34.5 529.5,-34.5 529.5,-34.5 473.5,-34.5 473.5,-34.5 468,-34.5 462.5,-29 462.5,-23.5 462.5,-23.5 462.5,-12.5 462.5,-12.5 462.5,-7 468,-1.5 473.5,-1.5"/>
</g>
<!-- installing&#45;&gt;insufficient -->
<g id="edge6" class="edge transition">
<title>installing&#45;&gt;insufficient</title>
<path fill="none" stroke="black" d="M87.22,-108.09C96.24,-93.35 111.12,-73.28 130,-63 233.05,-6.91 375.67,-7.65 450.33,-12.89"/>
<polygon fill="black" stroke="black" points="449.97,-16.37 460.21,-13.65 450.51,-9.4 449.97,-16.37"/>
<text text-anchor="start" x="184.5" y="-66" font-family="Helvetica,sans-Serif" font-size="10.00">Reset Cluster &#45; Reset installation &#160;&#160;</text>
</g>
</g>
</svg>
