<?xml version="1.0" encoding="UTF-8" standalone="no"?>
<!DOCTYPE svg PUBLIC "-//W3C//DTD SVG 1.1//EN"
 "http://www.w3.org/Graphics/SVG/1.1/DTD/svg11.dtd">
<!-- Generated by graphviz version 12.1.0 (20240811.2233)
 -->
<!-- Title: state transitions Pages: 1 -->
<svg width="718pt" height="211pt"
 viewBox="0.00 0.00 718.00 210.69" xmlns="http://www.w3.org/2000/svg" xmlns:xlink="http://www.w3.org/1999/xlink">
<g id="graph0" class="graph" transform="scale(1 1) rotate(0) translate(4 206.69)">
<title>state transitions</title>
<polygon fill="white" stroke="none" points="-4,4 -4,-206.69 714,-206.69 714,4 -4,4"/>
<!-- insufficient -->
<g id="node1" class="node state regular">
<title>insufficient</title>
<polygon fill="#ffffff" fill-opacity="0.003922" stroke="none" stroke-width="2" points="669.12,-178.34 581.88,-178.34 581.88,-142.09 669.12,-142.09 669.12,-178.34"/>
<text text-anchor="start" x="592.88" y="-155.94" font-family="Helvetica,sans-Serif" font-size="12.00">insufficient</text>
<path fill="none" stroke="black" stroke-width="2" d="M594.29,-143.09C594.29,-143.09 656.71,-143.09 656.71,-143.09 662.42,-143.09 668.12,-148.8 668.12,-154.51 668.12,-154.51 668.12,-165.92 668.12,-165.92 668.12,-171.63 662.42,-177.34 656.71,-177.34 656.71,-177.34 594.29,-177.34 594.29,-177.34 588.58,-177.34 582.88,-171.63 582.88,-165.92 582.88,-165.92 582.88,-154.51 582.88,-154.51 582.88,-148.8 588.58,-143.09 594.29,-143.09"/>
</g>
<!-- pending&#45;for&#45;input -->
<g id="node2" class="node state regular">
<title>pending&#45;for&#45;input</title>
<polygon fill="#ffffff" fill-opacity="0.003922" stroke="none" stroke-width="2" points="687.88,-111.34 563.12,-111.34 563.12,-75.09 687.88,-75.09 687.88,-111.34"/>
<text text-anchor="start" x="574.12" y="-88.94" font-family="Helvetica,sans-Serif" font-size="12.00">pending&#45;for&#45;input</text>
<path fill="none" stroke="black" stroke-width="2" d="M575.54,-76.09C575.54,-76.09 675.46,-76.09 675.46,-76.09 681.17,-76.09 686.88,-81.8 686.88,-87.51 686.88,-87.51 686.88,-98.92 686.88,-98.92 686.88,-104.63 681.17,-110.34 675.46,-110.34 675.46,-110.34 575.54,-110.34 575.54,-110.34 569.83,-110.34 564.12,-104.63 564.12,-98.92 564.12,-98.92 564.12,-87.51 564.12,-87.51 564.12,-81.8 569.83,-76.09 575.54,-76.09"/>
</g>
<!-- preparing&#45;for&#45;installation -->
<g id="node3" class="node state regular">
<title>preparing&#45;for&#45;installation</title>
<polygon fill="#ffffff" fill-opacity="0.003922" stroke="none" stroke-width="2" points="710,-48.34 541,-48.34 541,-12.09 710,-12.09 710,-48.34"/>
<text text-anchor="start" x="552" y="-25.94" font-family="Helvetica,sans-Serif" font-size="12.00">preparing&#45;for&#45;installation</text>
<path fill="none" stroke="black" stroke-width="2" d="M553.42,-13.09C553.42,-13.09 697.58,-13.09 697.58,-13.09 703.29,-13.09 709,-18.8 709,-24.51 709,-24.51 709,-35.92 709,-35.92 709,-41.63 703.29,-47.34 697.58,-47.34 697.58,-47.34 553.42,-47.34 553.42,-47.34 547.71,-47.34 542,-41.63 542,-35.92 542,-35.92 542,-24.51 542,-24.51 542,-18.8 547.71,-13.09 553.42,-13.09"/>
</g>
<!-- ready -->
<g id="node4" class="node state regular">
<title>ready</title>
<polygon fill="#ffffff" fill-opacity="0.003922" stroke="none" stroke-width="2" points="173.5,-120.34 117.5,-120.34 117.5,-84.09 173.5,-84.09 173.5,-120.34"/>
<text text-anchor="start" x="128.62" y="-97.94" font-family="Helvetica,sans-Serif" font-size="12.00">ready</text>
<path fill="none" stroke="black" stroke-width="2" d="M129.92,-85.09C129.92,-85.09 161.08,-85.09 161.08,-85.09 166.79,-85.09 172.5,-90.8 172.5,-96.51 172.5,-96.51 172.5,-107.92 172.5,-107.92 172.5,-113.63 166.79,-119.34 161.08,-119.34 161.08,-119.34 129.92,-119.34 129.92,-119.34 124.21,-119.34 118.5,-113.63 118.5,-107.92 118.5,-107.92 118.5,-96.51 118.5,-96.51 118.5,-90.8 124.21,-85.09 129.92,-85.09"/>
</g>
<!-- ready&#45;&gt;insufficient -->
<g id="edge3" class="edge transition">
<title>ready&#45;&gt;insufficient</title>
<path fill="none" stroke="black" d="M157.02,-120.03C164.91,-131.52 176.84,-145.52 191.5,-152.21 317.38,-209.68 486.05,-188.65 570.93,-172.29"/>
<polygon fill="black" stroke="black" points="571.49,-175.75 580.61,-170.37 570.12,-168.89 571.49,-175.75"/>
<text text-anchor="start" x="198.25" y="-193.19" font-family="Helvetica,sans-Serif" font-size="10.00">RefreshStatus &#45; Refresh discovering cluster &#45; detect insufficient &#160;&#160;</text>
</g>
<!-- ready&#45;&gt;insufficient -->
<g id="edge5" class="edge transition">
<title>ready&#45;&gt;insufficient</title>
<path fill="none" stroke="black" d="M173.36,-111.74C179.27,-113.51 185.54,-115.13 191.5,-116.21 336.7,-142.61 377.04,-113.62 523,-135.46 538.88,-137.84 555.91,-141.53 571.4,-145.35"/>
<polygon fill="black" stroke="black" points="570.35,-148.69 580.9,-147.76 572.07,-141.91 570.35,-148.69"/>
<text text-anchor="start" x="246.62" y="-138.71" font-family="Helvetica,sans-Serif" font-size="10.00">RefreshStatus &#45; TODO: Name this transition &#160;&#160;</text>
</g>
<!-- ready&#45;&gt;pending&#45;for&#45;input -->
<g id="edge2" class="edge transition">
<title>ready&#45;&gt;pending&#45;for&#45;input</title>
<path fill="none" stroke="black" d="M173.22,-101.71C244.93,-100.36 443.46,-96.62 551.75,-94.58"/>
<polygon fill="black" stroke="black" points="551.77,-98.08 561.71,-94.4 551.64,-91.09 551.77,-98.08"/>
<text text-anchor="start" x="191.5" y="-104.53" font-family="Helvetica,sans-Serif" font-size="10.00">RefreshStatus &#45; Refresh discovering cluster &#45; detect required input &#160;&#160;</text>
</g>
<!-- ready&#45;&gt;pending&#45;for&#45;input -->
<g id="edge4" class="edge transition">
<title>ready&#45;&gt;pending&#45;for&#45;input</title>
<path fill="none" stroke="black" d="M173.26,-85.41C179.07,-82.54 185.33,-79.99 191.5,-78.46 334.51,-43.04 376.05,-67.84 523,-78.46 532.38,-79.14 542.21,-80.17 551.91,-81.37"/>
<polygon fill="black" stroke="black" points="551.33,-84.82 561.7,-82.66 552.24,-77.88 551.33,-84.82"/>
<text text-anchor="start" x="246.62" y="-81.71" font-family="Helvetica,sans-Serif" font-size="10.00">RefreshStatus &#45; TODO: Name this transition &#160;&#160;</text>
</g>
<!-- ready&#45;&gt;preparing&#45;for&#45;installation -->
<g id="edge1" class="edge transition">
<title>ready&#45;&gt;preparing&#45;for&#45;installation</title>
<path fill="none" stroke="black" d="M154.74,-84.3C162.18,-70.42 174.58,-52.14 191.5,-43.46 297.5,10.9 438.09,3.06 529.89,-10.82"/>
<polygon fill="black" stroke="black" points="529.2,-14.25 539.62,-12.35 530.29,-7.34 529.2,-14.25"/>
<text text-anchor="start" x="253.75" y="-46.71" font-family="Helvetica,sans-Serif" font-size="10.00">PrepareForInstallation &#45; Start installation &#160;&#160;</text>
</g>
<!-- ready&#45;&gt;ready -->
<g id="edge6" class="edge transition">
<title>ready&#45;&gt;ready</title>
<path fill="none" stroke="black" d="M117.67,-111.83C95.28,-123.93 104.56,-138.34 145.5,-138.34 179.09,-138.34 191.36,-128.65 182.33,-118.48"/>
<polygon fill="black" stroke="black" points="184.67,-115.86 174.55,-112.73 180.51,-121.49 184.67,-115.86"/>
<text text-anchor="start" x="0" y="-141.59" font-family="Helvetica,sans-Serif" font-size="10.00">RefreshStatus &#45; Refresh discovering cluster &#45; detect ready &#160;&#160;</text>
</g>
</g>
</svg>
