<?xml version="1.0" encoding="UTF-8" standalone="no"?>
<!DOCTYPE svg PUBLIC "-//W3C//DTD SVG 1.1//EN"
 "http://www.w3.org/Graphics/SVG/1.1/DTD/svg11.dtd">
<!-- Generated by graphviz version 12.1.0 (20240811.2233)
 -->
<!-- Title: state transitions Pages: 1 -->
<svg width="655pt" height="238pt"
 viewBox="0.00 0.00 655.25 238.39" xmlns="http://www.w3.org/2000/svg" xmlns:xlink="http://www.w3.org/1999/xlink">
<g id="graph0" class="graph" transform="scale(1 1) rotate(0) translate(4 234.39)">
<title>state transitions</title>
<polygon fill="white" stroke="none" points="-4,4 -4,-234.39 651.25,-234.39 651.25,4 -4,4"/>
<!-- installing -->
<g id="node1" class="node state regular">
<title>installing</title>
<polygon fill="#ffffff" fill-opacity="0.003922" stroke="none" stroke-width="2" points="641.25,-230.39 566.75,-230.39 566.75,-194.14 641.25,-194.14 641.25,-230.39"/>
<text text-anchor="start" x="577.75" y="-207.99" font-family="Helvetica,sans-Serif" font-size="12.00">installing</text>
<path fill="none" stroke="black" stroke-width="2" d="M579.17,-195.14C579.17,-195.14 628.83,-195.14 628.83,-195.14 634.54,-195.14 640.25,-200.85 640.25,-206.56 640.25,-206.56 640.25,-217.97 640.25,-217.97 640.25,-223.68 634.54,-229.39 628.83,-229.39 628.83,-229.39 579.17,-229.39 579.17,-229.39 573.46,-229.39 567.75,-223.68 567.75,-217.97 567.75,-217.97 567.75,-206.56 567.75,-206.56 567.75,-200.85 573.46,-195.14 579.17,-195.14"/>
</g>
<!-- insufficient -->
<g id="node2" class="node state regular">
<title>insufficient</title>
<polygon fill="#ffffff" fill-opacity="0.003922" stroke="none" stroke-width="2" points="647.25,-167.39 560.75,-167.39 560.75,-131.14 647.25,-131.14 647.25,-167.39"/>
<text text-anchor="start" x="571.75" y="-144.99" font-family="Helvetica,sans-Serif" font-size="12.00">insufficient</text>
<path fill="none" stroke="black" stroke-width="2" d="M573.17,-132.14C573.17,-132.14 634.83,-132.14 634.83,-132.14 640.54,-132.14 646.25,-137.85 646.25,-143.56 646.25,-143.56 646.25,-154.97 646.25,-154.97 646.25,-160.68 640.54,-166.39 634.83,-166.39 634.83,-166.39 573.17,-166.39 573.17,-166.39 567.46,-166.39 561.75,-160.68 561.75,-154.97 561.75,-154.97 561.75,-143.56 561.75,-143.56 561.75,-137.85 567.46,-132.14 573.17,-132.14"/>
</g>
<!-- preparing&#45;for&#45;installation -->
<g id="node3" class="node state regular">
<title>preparing&#45;for&#45;installation</title>
<polygon fill="#ffffff" fill-opacity="0.003922" stroke="none" stroke-width="2" points="226.25,-140.39 56.5,-140.39 56.5,-104.14 226.25,-104.14 226.25,-140.39"/>
<text text-anchor="start" x="67.5" y="-117.99" font-family="Helvetica,sans-Serif" font-size="12.00">preparing&#45;for&#45;installation</text>
<path fill="none" stroke="black" stroke-width="2" d="M68.92,-105.14C68.92,-105.14 213.83,-105.14 213.83,-105.14 219.54,-105.14 225.25,-110.85 225.25,-116.56 225.25,-116.56 225.25,-127.97 225.25,-127.97 225.25,-133.68 219.54,-139.39 213.83,-139.39 213.83,-139.39 68.92,-139.39 68.92,-139.39 63.21,-139.39 57.5,-133.68 57.5,-127.97 57.5,-127.97 57.5,-116.56 57.5,-116.56 57.5,-110.85 63.21,-105.14 68.92,-105.14"/>
</g>
<!-- preparing&#45;for&#45;installation&#45;&gt;installing -->
<g id="edge3" class="edge transition">
<title>preparing&#45;for&#45;installation&#45;&gt;installing</title>
<path fill="none" stroke="black" d="M166.93,-140.27C186.74,-153.77 215.89,-171.39 244.25,-180.26 351.72,-213.89 485.51,-216.04 555.42,-214.36"/>
<polygon fill="black" stroke="black" points="555.48,-217.86 565.38,-214.08 555.28,-210.86 555.48,-217.86"/>
<text text-anchor="start" x="246.88" y="-218.02" font-family="Helvetica,sans-Serif" font-size="10.00">RefreshStatus &#45; Refresh preparing cluster &#45; done preparing &#160;&#160;</text>
</g>
<!-- preparing&#45;for&#45;installation&#45;&gt;insufficient -->
<g id="edge4" class="edge transition">
<title>preparing&#45;for&#45;installation&#45;&gt;insufficient</title>
<path fill="none" stroke="black" d="M189.6,-140.38C206.57,-146.01 226.02,-151.47 244.25,-154.26 351.71,-170.74 479.39,-162.43 549.78,-155.47"/>
<polygon fill="black" stroke="black" points="549.89,-158.97 559.48,-154.48 549.18,-152.01 549.89,-158.97"/>
<text text-anchor="start" x="256.62" y="-167.09" font-family="Helvetica,sans-Serif" font-size="10.00">RefreshStatus &#45; Refresh preparing cluster &#45; insufficient &#160;&#160;</text>
</g>
<!-- preparing&#45;for&#45;installation&#45;&gt;insufficient -->
<g id="edge7" class="edge transition">
<title>preparing&#45;for&#45;installation&#45;&gt;insufficient</title>
<path fill="none" stroke="black" d="M226.25,-121.7C307.46,-122.04 433.92,-124.91 542.75,-137.51 545.07,-137.78 547.43,-138.09 549.81,-138.43"/>
<polygon fill="black" stroke="black" points="549.07,-141.86 559.5,-139.97 550.17,-134.94 549.07,-141.86"/>
<text text-anchor="start" x="308.75" y="-140.76" font-family="Helvetica,sans-Serif" font-size="10.00">Reset Cluster &#45; Reset installation &#160;&#160;</text>
</g>
<!-- preparing&#45;for&#45;installation&#45;&gt;preparing&#45;for&#45;installation -->
<g id="edge6" class="edge transition">
<title>preparing&#45;for&#45;installation&#45;&gt;preparing&#45;for&#45;installation</title>
<path fill="none" stroke="black" d="M96.05,-140.11C88.35,-149.67 103.46,-158.39 141.38,-158.39 163.3,-158.39 177.59,-155.48 184.27,-151.17"/>
<polygon fill="black" stroke="black" points="187.65,-152.1 186.37,-141.59 180.81,-150.6 187.65,-152.1"/>
<text text-anchor="start" x="0" y="-161.64" font-family="Helvetica,sans-Serif" font-size="10.00">RefreshStatus &#45; Maintain preparing&#45;for&#45;installation state &#160;&#160;</text>
</g>
<!-- ready -->
<g id="node4" class="node state regular">
<title>ready</title>
<polygon fill="#ffffff" fill-opacity="0.003922" stroke="none" stroke-width="2" points="632,-86.39 576,-86.39 576,-50.14 632,-50.14 632,-86.39"/>
<text text-anchor="start" x="587.12" y="-63.99" font-family="Helvetica,sans-Serif" font-size="12.00">ready</text>
<path fill="none" stroke="black" stroke-width="2" d="M588.42,-51.14C588.42,-51.14 619.58,-51.14 619.58,-51.14 625.29,-51.14 631,-56.85 631,-62.56 631,-62.56 631,-73.97 631,-73.97 631,-79.68 625.29,-85.39 619.58,-85.39 619.58,-85.39 588.42,-85.39 588.42,-85.39 582.71,-85.39 577,-79.68 577,-73.97 577,-73.97 577,-62.56 577,-62.56 577,-56.85 582.71,-51.14 588.42,-51.14"/>
</g>
<!-- preparing&#45;for&#45;installation&#45;&gt;ready -->
<g id="edge1" class="edge transition">
<title>preparing&#45;for&#45;installation&#45;&gt;ready</title>
<path fill="none" stroke="black" d="M226.24,-107.89C232.33,-107.03 238.38,-106.22 244.25,-105.51 376.36,-89.54 411.24,-102.55 542.75,-82.26 549.99,-81.15 557.66,-79.63 565,-78.01"/>
<polygon fill="black" stroke="black" points="565.75,-81.43 574.7,-75.75 564.17,-74.61 565.75,-81.43"/>
<text text-anchor="start" x="244.25" y="-108.76" font-family="Helvetica,sans-Serif" font-size="10.00">Cancel Installation &#45; Cancel installation of preparing cluster &#160;&#160;</text>
</g>
<!-- preparing&#45;for&#45;installation&#45;&gt;ready -->
<g id="edge2" class="edge transition">
<title>preparing&#45;for&#45;installation&#45;&gt;ready</title>
<path fill="none" stroke="black" d="M166.39,-104.23C186.13,-90.6 215.44,-73 244.25,-65.51 357.99,-35.97 498.94,-51.47 565.21,-61.66"/>
<polygon fill="black" stroke="black" points="564.4,-65.08 574.82,-63.19 565.5,-58.16 564.4,-65.08"/>
<text text-anchor="start" x="247.62" y="-68.76" font-family="Helvetica,sans-Serif" font-size="10.00">RefreshStatus &#45; Refresh preparing cluster &#45; detect timeout &#160;&#160;</text>
</g>
<!-- preparing&#45;for&#45;installation&#45;&gt;ready -->
<g id="edge5" class="edge transition">
<title>preparing&#45;for&#45;installation&#45;&gt;ready</title>
<path fill="none" stroke="black" d="M155.48,-104.43C172.89,-82.41 205.96,-46.1 244.25,-31.51 368.23,15.7 415.03,4.37 542.75,-31.51 552.33,-34.21 561.9,-38.89 570.49,-44.03"/>
<polygon fill="black" stroke="black" points="568.5,-46.91 578.81,-49.36 572.28,-41.02 568.5,-46.91"/>
<text text-anchor="start" x="269.75" y="-34.76" font-family="Helvetica,sans-Serif" font-size="10.00">RefreshStatus &#45; Refresh preparing cluster &#45; failed &#160;&#160;</text>
</g>
</g>
</svg>
