<?xml version="1.0" encoding="UTF-8" standalone="no"?>
<!DOCTYPE svg PUBLIC "-//W3C//DTD SVG 1.1//EN"
 "http://www.w3.org/Graphics/SVG/1.1/DTD/svg11.dtd">
<!-- Generated by graphviz version 12.1.0 (20240811.2233)
 -->
<!-- Title: state transitions Pages: 1 -->
<svg width="2506pt" height="629pt"
 viewBox="0.00 0.00 2505.75 629.29" xmlns="http://www.w3.org/2000/svg" xmlns:xlink="http://www.w3.org/1999/xlink">
<g id="graph0" class="graph" transform="scale(1 1) rotate(0) translate(4 625.29)">
<title>state transitions</title>
<polygon fill="white" stroke="none" points="-4,4 -4,-625.29 2501.75,-625.29 2501.75,4 -4,4"/>
<!-- adding&#45;hosts -->
<g id="node1" class="node state regular">
<title>adding&#45;hosts</title>
<polygon fill="#ffffff" fill-opacity="0.003922" stroke="none" stroke-width="2" points="242.75,-300.91 144.25,-300.91 144.25,-264.66 242.75,-264.66 242.75,-300.91"/>
<text text-anchor="start" x="155.25" y="-278.51" font-family="Helvetica,sans-Serif" font-size="12.00">adding&#45;hosts</text>
<path fill="none" stroke="black" stroke-width="2" d="M156.67,-265.66C156.67,-265.66 230.33,-265.66 230.33,-265.66 236.04,-265.66 241.75,-271.37 241.75,-277.08 241.75,-277.08 241.75,-288.5 241.75,-288.5 241.75,-294.2 236.04,-299.91 230.33,-299.91 230.33,-299.91 156.67,-299.91 156.67,-299.91 150.96,-299.91 145.25,-294.2 145.25,-288.5 145.25,-288.5 145.25,-277.08 145.25,-277.08 145.25,-271.37 150.96,-265.66 156.67,-265.66"/>
</g>
<!-- adding&#45;hosts&#45;&gt;adding&#45;hosts -->
<g id="edge1" class="edge transition">
<title>adding&#45;hosts&#45;&gt;adding&#45;hosts</title>
<path fill="none" stroke="black" d="M161.52,-300.63C156.09,-310.2 166.75,-318.91 193.5,-318.91 208.97,-318.91 219.05,-316 223.76,-311.69"/>
<polygon fill="black" stroke="black" points="227.17,-312.55 225.24,-302.13 220.25,-311.47 227.17,-312.55"/>
<text text-anchor="start" x="81.75" y="-322.16" font-family="Helvetica,sans-Serif" font-size="10.00">RefreshStatus &#45; Maintain adding&#45;hosts state &#160;&#160;</text>
</g>
<!-- cancelled -->
<g id="node2" class="node state regular">
<title>cancelled</title>
<polygon fill="#ffffff" fill-opacity="0.003922" stroke="none" stroke-width="2" points="233,-385.91 154,-385.91 154,-349.66 233,-349.66 233,-385.91"/>
<text text-anchor="start" x="165" y="-363.51" font-family="Helvetica,sans-Serif" font-size="12.00">cancelled</text>
<path fill="none" stroke="black" stroke-width="2" d="M166.42,-350.66C166.42,-350.66 220.58,-350.66 220.58,-350.66 226.29,-350.66 232,-356.37 232,-362.08 232,-362.08 232,-373.5 232,-373.5 232,-379.2 226.29,-384.91 220.58,-384.91 220.58,-384.91 166.42,-384.91 166.42,-384.91 160.71,-384.91 155,-379.2 155,-373.5 155,-373.5 155,-362.08 155,-362.08 155,-356.37 160.71,-350.66 166.42,-350.66"/>
</g>
<!-- cancelled&#45;&gt;cancelled -->
<g id="edge2" class="edge transition">
<title>cancelled&#45;&gt;cancelled</title>
<path fill="none" stroke="black" d="M177.51,-385.63C174.8,-395.2 180.12,-403.91 193.5,-403.91 201.02,-403.91 206,-401.16 208.43,-397.04"/>
<polygon fill="black" stroke="black" points="211.91,-397.42 209.35,-387.14 204.94,-396.77 211.91,-397.42"/>
<text text-anchor="start" x="54" y="-407.16" font-family="Helvetica,sans-Serif" font-size="10.00">RefreshStatus &#45; Log collection timeout during cancelled &#160;&#160;</text>
</g>
<!-- cancelled&#45;&gt;cancelled -->
<g id="edge3" class="edge transition">
<title>cancelled&#45;&gt;cancelled</title>
<path fill="none" stroke="black" d="M166.76,-385.81C152.45,-403.07 161.36,-421.91 193.5,-421.91 219.61,-421.91 230.39,-409.47 225.84,-395.55"/>
<polygon fill="black" stroke="black" points="229.01,-394.05 220.99,-387.12 222.94,-397.53 229.01,-394.05"/>
<text text-anchor="start" x="90" y="-425.16" font-family="Helvetica,sans-Serif" font-size="10.00">RefreshStatus &#45; Maintain cancelled state &#160;&#160;</text>
</g>
<!-- error -->
<g id="node3" class="node state regular">
<title>error</title>
<polygon fill="#ffffff" fill-opacity="0.003922" stroke="none" stroke-width="2" points="1825.75,-501.91 1769.75,-501.91 1769.75,-465.66 1825.75,-465.66 1825.75,-501.91"/>
<text text-anchor="start" x="1783.12" y="-479.51" font-family="Helvetica,sans-Serif" font-size="12.00">error</text>
<path fill="none" stroke="black" stroke-width="2" d="M1782.17,-466.66C1782.17,-466.66 1813.33,-466.66 1813.33,-466.66 1819.04,-466.66 1824.75,-472.37 1824.75,-478.08 1824.75,-478.08 1824.75,-489.5 1824.75,-489.5 1824.75,-495.2 1819.04,-500.91 1813.33,-500.91 1813.33,-500.91 1782.17,-500.91 1782.17,-500.91 1776.46,-500.91 1770.75,-495.2 1770.75,-489.5 1770.75,-489.5 1770.75,-478.08 1770.75,-478.08 1770.75,-472.37 1776.46,-466.66 1782.17,-466.66"/>
</g>
<!-- error&#45;&gt;error -->
<g id="edge4" class="edge transition">
<title>error&#45;&gt;error</title>
<path fill="none" stroke="black" d="M1769.77,-497.88C1759.3,-508.79 1768.63,-519.91 1797.75,-519.91 1816.86,-519.91 1827.45,-515.12 1829.51,-508.74"/>
<polygon fill="black" stroke="black" points="1832.82,-507.61 1826.23,-499.31 1826.21,-509.9 1832.82,-507.61"/>
<text text-anchor="start" x="1669.88" y="-523.16" font-family="Helvetica,sans-Serif" font-size="10.00">RefreshStatus &#45; Log collection timeout during error &#160;&#160;</text>
</g>
<!-- error&#45;&gt;error -->
<g id="edge5" class="edge transition">
<title>error&#45;&gt;error</title>
<path fill="none" stroke="black" d="M1770.01,-491.17C1713.36,-510.16 1722.61,-537.91 1797.75,-537.91 1867.76,-537.91 1880.57,-513.83 1836.18,-495.17"/>
<polygon fill="black" stroke="black" points="1837.5,-491.93 1826.91,-491.7 1835.04,-498.48 1837.5,-491.93"/>
<text text-anchor="start" x="1705.88" y="-541.16" font-family="Helvetica,sans-Serif" font-size="10.00">RefreshStatus &#45; Maintain error state &#160;&#160;</text>
</g>
<!-- finalizing -->
<g id="node4" class="node state regular">
<title>finalizing</title>
<polygon fill="#ffffff" fill-opacity="0.003922" stroke="none" stroke-width="2" points="230.75,-501.91 156.25,-501.91 156.25,-465.66 230.75,-465.66 230.75,-501.91"/>
<text text-anchor="start" x="167.25" y="-479.51" font-family="Helvetica,sans-Serif" font-size="12.00">finalizing</text>
<path fill="none" stroke="black" stroke-width="2" d="M168.67,-466.66C168.67,-466.66 218.33,-466.66 218.33,-466.66 224.04,-466.66 229.75,-472.37 229.75,-478.08 229.75,-478.08 229.75,-489.5 229.75,-489.5 229.75,-495.2 224.04,-500.91 218.33,-500.91 218.33,-500.91 168.67,-500.91 168.67,-500.91 162.96,-500.91 157.25,-495.2 157.25,-489.5 157.25,-489.5 157.25,-478.08 157.25,-478.08 157.25,-472.37 162.96,-466.66 168.67,-466.66"/>
</g>
<!-- finalizing&#45;&gt;error -->
<g id="edge6" class="edge transition">
<title>finalizing&#45;&gt;error</title>
<path fill="none" stroke="black" d="M201.27,-501.8C210.75,-524.09 230.3,-561.01 260.75,-576.79 440.2,-669.78 513.39,-578.34 715.5,-578.79 1117.83,-579.67 1230.4,-674.26 1620.75,-576.79 1673.85,-563.53 1728.61,-531.08 1762.65,-508.27"/>
<polygon fill="black" stroke="black" points="1764.56,-511.2 1770.85,-502.67 1760.62,-505.41 1764.56,-511.2"/>
<text text-anchor="start" x="755.62" y="-599.7" font-family="Helvetica,sans-Serif" font-size="10.00">RefreshStatus &#45; Timed out while installing &#160;&#160;</text>
</g>
<!-- finalizing&#45;&gt;error -->
<g id="edge7" class="edge transition">
<title>finalizing&#45;&gt;error</title>
<path fill="none" stroke="black" d="M209.57,-501.67C221.83,-514.72 240.38,-531.38 260.75,-538.79 450.7,-607.83 513.39,-540.34 715.5,-540.79 1117.83,-541.67 1223.12,-600.14 1620.75,-538.79 1669.85,-531.21 1724.11,-512.61 1759.22,-499.13"/>
<polygon fill="black" stroke="black" points="1760.46,-502.4 1768.5,-495.51 1757.92,-495.88 1760.46,-502.4"/>
<text text-anchor="start" x="755.62" y="-555.14" font-family="Helvetica,sans-Serif" font-size="10.00">RefreshStatus &#45; Timed out while finalizing &#160;&#160;</text>
</g>
<!-- finalizing&#45;&gt;error -->
<g id="edge8" class="edge transition">
<title>finalizing&#45;&gt;error</title>
<path fill="none" stroke="black" d="M230.47,-491.23C240.25,-493 250.88,-494.69 260.75,-495.79 366.53,-507.52 393.6,-503.57 500,-505.79 997.48,-516.18 1602.4,-492.24 1758.54,-485.49"/>
<polygon fill="black" stroke="black" points="1758.47,-489 1768.31,-485.07 1758.17,-482.01 1758.47,-489"/>
<text text-anchor="start" x="718.12" y="-511.61" font-family="Helvetica,sans-Serif" font-size="10.00">RefreshStatus &#45; Finalizing stage timed out. &#160;Move to error &#160;&#160;</text>
</g>
<!-- finalizing&#45;&gt;finalizing -->
<g id="edge9" class="edge transition">
<title>finalizing&#45;&gt;finalizing</title>
<path fill="none" stroke="black" d="M182.84,-501.63C181.03,-511.2 184.58,-519.91 193.5,-519.91 198.52,-519.91 201.83,-517.16 203.46,-513.04"/>
<polygon fill="black" stroke="black" points="206.94,-513.34 204.07,-503.14 199.96,-512.91 206.94,-513.34"/>
<text text-anchor="start" x="0" y="-523.16" font-family="Helvetica,sans-Serif" font-size="10.00">RefreshStatus &#45; Finalizing stage is taking too long. &#160;Emit an appropriate event &#160;&#160;</text>
</g>
<!-- finalizing&#45;&gt;finalizing -->
<g id="edge11" class="edge transition">
<title>finalizing&#45;&gt;finalizing</title>
<path fill="none" stroke="black" d="M175.67,-501.81C166.13,-519.07 172.08,-537.91 193.5,-537.91 210.57,-537.91 217.81,-525.95 215.22,-512.35"/>
<polygon fill="black" stroke="black" points="218.6,-511.39 211.85,-503.23 212.03,-513.82 218.6,-511.39"/>
<text text-anchor="start" x="88.88" y="-541.16" font-family="Helvetica,sans-Serif" font-size="10.00">RefreshStatus &#45; Update AMS subscription &#160;&#160;</text>
</g>
<!-- finalizing&#45;&gt;finalizing -->
<g id="edge13" class="edge transition">
<title>finalizing&#45;&gt;finalizing</title>
<path fill="none" stroke="black" d="M171,-501.9C151.08,-526.27 158.59,-555.91 193.5,-555.91 223.91,-555.91 233.53,-533.42 222.34,-511.51"/>
<polygon fill="black" stroke="black" points="225.26,-509.59 216.84,-503.16 219.42,-513.44 225.26,-509.59"/>
<text text-anchor="start" x="90.75" y="-559.16" font-family="Helvetica,sans-Serif" font-size="10.00">RefreshStatus &#45; Maintain finalizing state &#160;&#160;</text>
</g>
<!-- installing&#45;pending&#45;user&#45;action -->
<g id="node5" class="node state regular">
<title>installing&#45;pending&#45;user&#45;action</title>
<polygon fill="#ffffff" fill-opacity="0.003922" stroke="none" stroke-width="2" points="697.5,-465.91 500,-465.91 500,-429.66 697.5,-429.66 697.5,-465.91"/>
<text text-anchor="start" x="511" y="-443.51" font-family="Helvetica,sans-Serif" font-size="12.00">installing&#45;pending&#45;user&#45;action</text>
<path fill="none" stroke="black" stroke-width="2" d="M512.42,-430.66C512.42,-430.66 685.08,-430.66 685.08,-430.66 690.79,-430.66 696.5,-436.37 696.5,-442.08 696.5,-442.08 696.5,-453.5 696.5,-453.5 696.5,-459.2 690.79,-464.91 685.08,-464.91 685.08,-464.91 512.42,-464.91 512.42,-464.91 506.71,-464.91 501,-459.2 501,-453.5 501,-453.5 501,-442.08 501,-442.08 501,-436.37 506.71,-430.66 512.42,-430.66"/>
</g>
<!-- finalizing&#45;&gt;installing&#45;pending&#45;user&#45;action -->
<g id="edge10" class="edge transition">
<title>finalizing&#45;&gt;installing&#45;pending&#45;user&#45;action</title>
<path fill="none" stroke="black" d="M230.4,-481.55C284.86,-478.04 391.58,-470.71 482,-461.79 484.32,-461.56 486.67,-461.32 489.03,-461.08"/>
<polygon fill="black" stroke="black" points="489.13,-464.59 498.71,-460.06 488.39,-457.63 489.13,-464.59"/>
<text text-anchor="start" x="260.75" y="-482.52" font-family="Helvetica,sans-Serif" font-size="10.00">RefreshStatus &#45; TODO: Name this transition &#160;&#160;</text>
</g>
<!-- installed -->
<g id="node6" class="node state regular">
<title>installed</title>
<polygon fill="#ffffff" fill-opacity="0.003922" stroke="none" stroke-width="2" points="634.5,-380.91 563,-380.91 563,-344.66 634.5,-344.66 634.5,-380.91"/>
<text text-anchor="start" x="574" y="-358.51" font-family="Helvetica,sans-Serif" font-size="12.00">installed</text>
<path fill="none" stroke="black" stroke-width="2" d="M575.42,-345.66C575.42,-345.66 622.08,-345.66 622.08,-345.66 627.79,-345.66 633.5,-351.37 633.5,-357.08 633.5,-357.08 633.5,-368.5 633.5,-368.5 633.5,-374.2 627.79,-379.91 622.08,-379.91 622.08,-379.91 575.42,-379.91 575.42,-379.91 569.71,-379.91 564,-374.2 564,-368.5 564,-368.5 564,-357.08 564,-357.08 564,-351.37 569.71,-345.66 575.42,-345.66"/>
</g>
<!-- finalizing&#45;&gt;installed -->
<g id="edge12" class="edge transition">
<title>finalizing&#45;&gt;installed</title>
<path fill="none" stroke="black" d="M230.39,-467.54C234.94,-464.43 239.23,-460.85 242.75,-456.79 257.33,-439.96 243.32,-423.89 260.75,-410.04 345.43,-342.77 481.33,-347.54 551.89,-355.73"/>
<polygon fill="black" stroke="black" points="551.19,-359.17 561.54,-356.93 552.05,-352.22 551.19,-359.17"/>
<text text-anchor="start" x="280.62" y="-413.29" font-family="Helvetica,sans-Serif" font-size="10.00">RefreshStatus &#45; Finalizing complete &#160;&#160;</text>
</g>
<!-- installing&#45;pending&#45;user&#45;action&#45;&gt;error -->
<g id="edge20" class="edge transition">
<title>installing&#45;pending&#45;user&#45;action&#45;&gt;error</title>
<path fill="none" stroke="black" d="M697.45,-450.73C945.92,-458.2 1593.88,-477.69 1758.35,-482.63"/>
<polygon fill="black" stroke="black" points="1758.16,-486.13 1768.26,-482.93 1758.37,-479.13 1758.16,-486.13"/>
<text text-anchor="start" x="1038.38" y="-470.84" font-family="Helvetica,sans-Serif" font-size="10.00">RefreshStatus &#45; TODO: Name this transition &#160;&#160;</text>
</g>
<!-- installing&#45;pending&#45;user&#45;action&#45;&gt;error -->
<g id="edge21" class="edge transition">
<title>installing&#45;pending&#45;user&#45;action&#45;&gt;error</title>
<path fill="none" stroke="black" d="M697.26,-446.69C783.81,-445.77 913.7,-444.53 1026.75,-444.04 1135.42,-443.56 1162.63,-440.82 1271.25,-444.04 1426.79,-448.65 1465.68,-451.82 1620.75,-464.79 1668.35,-468.77 1723.03,-474.92 1758.64,-479.14"/>
<polygon fill="black" stroke="black" points="1758.11,-482.6 1768.45,-480.31 1758.94,-475.65 1758.11,-482.6"/>
<text text-anchor="start" x="1026.75" y="-447.29" font-family="Helvetica,sans-Serif" font-size="10.00">RefreshStatus &#45; Timed out while waiting for user &#160;&#160;</text>
</g>
<!-- installing&#45;pending&#45;user&#45;action&#45;&gt;finalizing -->
<g id="edge24" class="edge transition">
<title>installing&#45;pending&#45;user&#45;action&#45;&gt;finalizing</title>
<path fill="none" stroke="black" d="M500.13,-432.1C431.69,-424.66 338.84,-421.81 260.75,-445.04 251.59,-447.76 250.92,-451.84 242.75,-456.79 240.9,-457.91 239.01,-459.04 237.09,-460.17"/>
<polygon fill="black" stroke="black" points="235.59,-456.99 228.69,-465.03 239.09,-463.05 235.59,-456.99"/>
<text text-anchor="start" x="260.75" y="-448.29" font-family="Helvetica,sans-Serif" font-size="10.00">RefreshStatus &#45; TODO: Name this transition &#160;&#160;</text>
</g>
<!-- installing&#45;pending&#45;user&#45;action&#45;&gt;installing&#45;pending&#45;user&#45;action -->
<g id="edge22" class="edge transition">
<title>installing&#45;pending&#45;user&#45;action&#45;&gt;installing&#45;pending&#45;user&#45;action</title>
<path fill="none" stroke="black" d="M557.88,-465.63C550.93,-475.2 564.55,-483.91 598.75,-483.91 618.52,-483.91 631.41,-481 637.43,-476.69"/>
<polygon fill="black" stroke="black" points="640.82,-477.61 639.33,-467.12 633.95,-476.25 640.82,-477.61"/>
<text text-anchor="start" x="488.12" y="-487.16" font-family="Helvetica,sans-Serif" font-size="10.00">RefreshStatus &#45; TODO: Name this transition &#160;&#160;</text>
</g>
<!-- installing -->
<g id="node7" class="node state regular">
<title>installing</title>
<polygon fill="#ffffff" fill-opacity="0.003922" stroke="none" stroke-width="2" points="1186.25,-367.91 1111.75,-367.91 1111.75,-331.66 1186.25,-331.66 1186.25,-367.91"/>
<text text-anchor="start" x="1122.75" y="-345.51" font-family="Helvetica,sans-Serif" font-size="12.00">installing</text>
<path fill="none" stroke="black" stroke-width="2" d="M1124.17,-332.66C1124.17,-332.66 1173.83,-332.66 1173.83,-332.66 1179.54,-332.66 1185.25,-338.37 1185.25,-344.08 1185.25,-344.08 1185.25,-355.5 1185.25,-355.5 1185.25,-361.2 1179.54,-366.91 1173.83,-366.91 1173.83,-366.91 1124.17,-366.91 1124.17,-366.91 1118.46,-366.91 1112.75,-361.2 1112.75,-355.5 1112.75,-355.5 1112.75,-344.08 1112.75,-344.08 1112.75,-338.37 1118.46,-332.66 1124.17,-332.66"/>
</g>
<!-- installing&#45;pending&#45;user&#45;action&#45;&gt;installing -->
<g id="edge23" class="edge transition">
<title>installing&#45;pending&#45;user&#45;action&#45;&gt;installing</title>
<path fill="none" stroke="black" d="M675.43,-429.74C683.02,-427.08 690.5,-424.11 697.5,-420.79 706.36,-416.59 706.31,-411.46 715.5,-408.04 838.22,-362.38 879.37,-399.89 1008.75,-379.79 1039.65,-374.99 1073.99,-367.61 1100.84,-361.37"/>
<polygon fill="black" stroke="black" points="1101.45,-364.83 1110.39,-359.13 1099.85,-358.01 1101.45,-364.83"/>
<text text-anchor="start" x="751.5" y="-411.29" font-family="Helvetica,sans-Serif" font-size="10.00">RefreshStatus &#45; TODO: Name this transition &#160;&#160;</text>
</g>
<!-- installed&#45;&gt;installed -->
<g id="edge14" class="edge transition">
<title>installed&#45;&gt;installed</title>
<path fill="none" stroke="black" d="M563.15,-375.75C546.92,-387.01 558.78,-398.91 598.75,-398.91 627.79,-398.91 641.99,-392.63 641.36,-384.87"/>
<polygon fill="black" stroke="black" points="644.14,-382.74 635.27,-376.95 638.59,-387.01 644.14,-382.74"/>
<text text-anchor="start" x="497.5" y="-402.16" font-family="Helvetica,sans-Serif" font-size="10.00">RefreshStatus &#45; Maintain installed state &#160;&#160;</text>
</g>
<!-- installing&#45;&gt;error -->
<g id="edge15" class="edge transition">
<title>installing&#45;&gt;error</title>
<path fill="none" stroke="black" d="M1185.99,-360.7C1213.9,-368.7 1253.68,-379.12 1289.25,-384.79 1435.1,-408.05 1477.23,-373.18 1620.75,-408.04 1670.99,-420.24 1725.1,-445.55 1759.86,-463.55"/>
<polygon fill="black" stroke="black" points="1758.18,-466.62 1768.66,-468.17 1761.44,-460.42 1758.18,-466.62"/>
<text text-anchor="start" x="1348.5" y="-411.29" font-family="Helvetica,sans-Serif" font-size="10.00">RefreshStatus &#45; Timed out while installing &#160;&#160;</text>
</g>
<!-- installing&#45;&gt;error -->
<g id="edge19" class="edge transition">
<title>installing&#45;&gt;error</title>
<path fill="none" stroke="black" d="M1186.18,-350.07C1289.28,-351.05 1579.86,-354.93 1620.75,-368.04 1678.84,-386.66 1735.96,-430.16 1768.7,-458.21"/>
<polygon fill="black" stroke="black" points="1766.29,-460.76 1776.13,-464.69 1770.89,-455.48 1766.29,-460.76"/>
<text text-anchor="start" x="1371" y="-371.29" font-family="Helvetica,sans-Serif" font-size="10.00">RefreshStatus &#45; Installation error &#160;&#160;</text>
</g>
<!-- installing&#45;&gt;finalizing -->
<g id="edge17" class="edge transition">
<title>installing&#45;&gt;finalizing</title>
<path fill="none" stroke="black" d="M1112.04,-344.13C1083.98,-339.96 1043.99,-334.55 1008.75,-331.79 925.88,-325.28 321.36,-289.9 260.75,-346.79 224.63,-380.69 271.19,-416.22 242.75,-456.79 241.65,-458.36 240.43,-459.84 239.12,-461.25"/>
<polygon fill="black" stroke="black" points="237.14,-458.33 231.85,-467.51 241.71,-463.63 237.14,-458.33"/>
<text text-anchor="start" x="511.38" y="-320.17" font-family="Helvetica,sans-Serif" font-size="10.00">RefreshStatus &#45; Move to finalizing &#160;&#160;</text>
</g>
<!-- installing&#45;&gt;installing&#45;pending&#45;user&#45;action -->
<g id="edge16" class="edge transition">
<title>installing&#45;&gt;installing&#45;pending&#45;user&#45;action</title>
<path fill="none" stroke="black" d="M1112.03,-346.19C1019.74,-337.72 777.41,-320.58 715.5,-367.04 695.35,-382.16 715.79,-403.46 697.5,-420.79 696.61,-421.64 695.69,-422.46 694.75,-423.25"/>
<polygon fill="black" stroke="black" points="693.02,-420.18 686.96,-428.87 697.12,-425.86 693.02,-420.18"/>
<text text-anchor="start" x="751.5" y="-370.29" font-family="Helvetica,sans-Serif" font-size="10.00">RefreshStatus &#45; TODO: Name this transition &#160;&#160;</text>
</g>
<!-- installing&#45;&gt;installing -->
<g id="edge18" class="edge transition">
<title>installing&#45;&gt;installing</title>
<path fill="none" stroke="black" d="M1111.76,-359.22C1080.84,-371.36 1093.25,-385.91 1149,-385.91 1197.35,-385.91 1213.1,-374.97 1196.27,-364.15"/>
<polygon fill="black" stroke="black" points="1198.12,-361.16 1187.6,-359.89 1195.03,-367.44 1198.12,-361.16"/>
<text text-anchor="start" x="1064.62" y="-389.16" font-family="Helvetica,sans-Serif" font-size="10.00">RefreshStatus &#45; Stay in installing &#160;&#160;</text>
</g>
<!-- insufficient -->
<g id="node8" class="node state regular">
<title>insufficient</title>
<polygon fill="#ffffff" fill-opacity="0.003922" stroke="none" stroke-width="2" points="1192.62,-228.91 1105.38,-228.91 1105.38,-192.66 1192.62,-192.66 1192.62,-228.91"/>
<text text-anchor="start" x="1116.38" y="-206.51" font-family="Helvetica,sans-Serif" font-size="12.00">insufficient</text>
<path fill="none" stroke="black" stroke-width="2" d="M1117.79,-193.66C1117.79,-193.66 1180.21,-193.66 1180.21,-193.66 1185.92,-193.66 1191.62,-199.37 1191.62,-205.08 1191.62,-205.08 1191.62,-216.5 1191.62,-216.5 1191.62,-222.2 1185.92,-227.91 1180.21,-227.91 1180.21,-227.91 1117.79,-227.91 1117.79,-227.91 1112.08,-227.91 1106.38,-222.2 1106.38,-216.5 1106.38,-216.5 1106.38,-205.08 1106.38,-205.08 1106.38,-199.37 1112.08,-193.66 1117.79,-193.66"/>
</g>
<!-- insufficient&#45;&gt;insufficient -->
<g id="edge26" class="edge transition">
<title>insufficient&#45;&gt;insufficient</title>
<path fill="none" stroke="black" d="M1123.22,-228.63C1118.83,-238.2 1127.43,-246.91 1149,-246.91 1161.47,-246.91 1169.61,-244 1173.4,-239.69"/>
<polygon fill="black" stroke="black" points="1176.83,-240.49 1174.6,-230.13 1169.88,-239.62 1176.83,-240.49"/>
<text text-anchor="start" x="990" y="-250.16" font-family="Helvetica,sans-Serif" font-size="10.00">RefreshStatus &#45; Refresh discovering cluster &#45; detect insufficient &#160;&#160;</text>
</g>
<!-- insufficient&#45;&gt;insufficient -->
<g id="edge28" class="edge transition">
<title>insufficient&#45;&gt;insufficient</title>
<path fill="none" stroke="black" d="M1105.88,-228.81C1082.8,-246.07 1097.17,-264.91 1149,-264.91 1192.73,-264.91 1209.8,-251.5 1200.2,-236.94"/>
<polygon fill="black" stroke="black" points="1202.72,-234.51 1193.19,-229.88 1197.75,-239.44 1202.72,-234.51"/>
<text text-anchor="start" x="1038.38" y="-268.16" font-family="Helvetica,sans-Serif" font-size="10.00">RefreshStatus &#45; TODO: Name this transition &#160;&#160;</text>
</g>
<!-- pending&#45;for&#45;input -->
<g id="node9" class="node state regular">
<title>pending&#45;for&#45;input</title>
<polygon fill="#ffffff" fill-opacity="0.003922" stroke="none" stroke-width="2" points="1860.12,-286.91 1735.38,-286.91 1735.38,-250.66 1860.12,-250.66 1860.12,-286.91"/>
<text text-anchor="start" x="1746.38" y="-264.51" font-family="Helvetica,sans-Serif" font-size="12.00">pending&#45;for&#45;input</text>
<path fill="none" stroke="black" stroke-width="2" d="M1747.79,-251.66C1747.79,-251.66 1847.71,-251.66 1847.71,-251.66 1853.42,-251.66 1859.12,-257.37 1859.12,-263.08 1859.12,-263.08 1859.12,-274.5 1859.12,-274.5 1859.12,-280.2 1853.42,-285.91 1847.71,-285.91 1847.71,-285.91 1747.79,-285.91 1747.79,-285.91 1742.08,-285.91 1736.38,-280.2 1736.38,-274.5 1736.38,-274.5 1736.38,-263.08 1736.38,-263.08 1736.38,-257.37 1742.08,-251.66 1747.79,-251.66"/>
</g>
<!-- insufficient&#45;&gt;pending&#45;for&#45;input -->
<g id="edge25" class="edge transition">
<title>insufficient&#45;&gt;pending&#45;for&#45;input</title>
<path fill="none" stroke="black" d="M1166.78,-228.81C1191.03,-253.37 1238.55,-296.21 1289.25,-312.79 1442.42,-362.89 1634.68,-319.37 1732.77,-290.13"/>
<polygon fill="black" stroke="black" points="1733.68,-293.51 1742.23,-287.25 1731.64,-286.81 1733.68,-293.51"/>
<text text-anchor="start" x="1289.25" y="-338.92" font-family="Helvetica,sans-Serif" font-size="10.00">RefreshStatus &#45; Refresh discovering cluster &#45; detect required input &#160;&#160;</text>
</g>
<!-- insufficient&#45;&gt;pending&#45;for&#45;input -->
<g id="edge27" class="edge transition">
<title>insufficient&#45;&gt;pending&#45;for&#45;input</title>
<path fill="none" stroke="black" d="M1178.24,-228.78C1205.46,-244.98 1248.4,-267.6 1289.25,-276.79 1369.83,-294.92 1604.51,-282.21 1724.41,-274.1"/>
<polygon fill="black" stroke="black" points="1724.4,-277.61 1734.14,-273.44 1723.92,-270.63 1724.4,-277.61"/>
<text text-anchor="start" x="1344.38" y="-289.29" font-family="Helvetica,sans-Serif" font-size="10.00">RefreshStatus &#45; TODO: Name this transition &#160;&#160;</text>
</g>
<!-- ready -->
<g id="node10" class="node state regular">
<title>ready</title>
<polygon fill="#ffffff" fill-opacity="0.003922" stroke="none" stroke-width="2" points="2380.25,-198.91 2324.25,-198.91 2324.25,-162.66 2380.25,-162.66 2380.25,-198.91"/>
<text text-anchor="start" x="2335.38" y="-176.51" font-family="Helvetica,sans-Serif" font-size="12.00">ready</text>
<path fill="none" stroke="black" stroke-width="2" d="M2336.67,-163.66C2336.67,-163.66 2367.83,-163.66 2367.83,-163.66 2373.54,-163.66 2379.25,-169.37 2379.25,-175.08 2379.25,-175.08 2379.25,-186.5 2379.25,-186.5 2379.25,-192.2 2373.54,-197.91 2367.83,-197.91 2367.83,-197.91 2336.67,-197.91 2336.67,-197.91 2330.96,-197.91 2325.25,-192.2 2325.25,-186.5 2325.25,-186.5 2325.25,-175.08 2325.25,-175.08 2325.25,-169.37 2330.96,-163.66 2336.67,-163.66"/>
</g>
<!-- insufficient&#45;&gt;ready -->
<g id="edge29" class="edge transition">
<title>insufficient&#45;&gt;ready</title>
<path fill="none" stroke="black" d="M1192.4,-209.73C1379.94,-205.05 2133.51,-186.23 2312.82,-181.75"/>
<polygon fill="black" stroke="black" points="2312.84,-185.25 2322.74,-181.5 2312.66,-178.25 2312.84,-185.25"/>
<text text-anchor="start" x="1652.25" y="-201.53" font-family="Helvetica,sans-Serif" font-size="10.00">RefreshStatus &#45; Refresh discovering cluster &#45; detect ready &#160;&#160;</text>
</g>
<!-- pending&#45;for&#45;input&#45;&gt;insufficient -->
<g id="edge31" class="edge transition">
<title>pending&#45;for&#45;input&#45;&gt;insufficient</title>
<path fill="none" stroke="black" d="M1735.71,-265.68C1605.6,-259.01 1311,-243.71 1289.25,-240.79 1260.64,-236.94 1229.17,-230.37 1203.4,-224.35"/>
<polygon fill="black" stroke="black" points="1204.37,-220.98 1193.83,-222.08 1202.75,-227.79 1204.37,-220.98"/>
<text text-anchor="start" x="1296" y="-262.52" font-family="Helvetica,sans-Serif" font-size="10.00">RefreshStatus &#45; Refresh discovering cluster &#45; detect insufficient &#160;&#160;</text>
</g>
<!-- pending&#45;for&#45;input&#45;&gt;insufficient -->
<g id="edge33" class="edge transition">
<title>pending&#45;for&#45;input&#45;&gt;insufficient</title>
<path fill="none" stroke="black" d="M1739.12,-250.71C1705.06,-240.89 1660.87,-229.63 1620.75,-224.04 1470.79,-203.13 1291.45,-205.54 1203.71,-208.47"/>
<polygon fill="black" stroke="black" points="1203.84,-204.96 1193.97,-208.81 1204.09,-211.96 1203.84,-204.96"/>
<text text-anchor="start" x="1344.38" y="-227.29" font-family="Helvetica,sans-Serif" font-size="10.00">RefreshStatus &#45; TODO: Name this transition &#160;&#160;</text>
</g>
<!-- pending&#45;for&#45;input&#45;&gt;pending&#45;for&#45;input -->
<g id="edge30" class="edge transition">
<title>pending&#45;for&#45;input&#45;&gt;pending&#45;for&#45;input</title>
<path fill="none" stroke="black" d="M1766.94,-286.63C1761.71,-296.2 1771.98,-304.91 1797.75,-304.91 1812.65,-304.91 1822.37,-302 1826.9,-297.69"/>
<polygon fill="black" stroke="black" points="1830.32,-298.54 1828.33,-288.13 1823.39,-297.5 1830.32,-298.54"/>
<text text-anchor="start" x="1632" y="-308.16" font-family="Helvetica,sans-Serif" font-size="10.00">RefreshStatus &#45; Refresh discovering cluster &#45; detect required input &#160;&#160;</text>
</g>
<!-- pending&#45;for&#45;input&#45;&gt;pending&#45;for&#45;input -->
<g id="edge32" class="edge transition">
<title>pending&#45;for&#45;input&#45;&gt;pending&#45;for&#45;input</title>
<path fill="none" stroke="black" d="M1746.23,-286.81C1718.65,-304.07 1735.83,-322.91 1797.75,-322.91 1851.45,-322.91 1871.5,-308.74 1857.89,-293.72"/>
<polygon fill="black" stroke="black" points="1860.44,-291.28 1850.45,-287.76 1856.06,-296.74 1860.44,-291.28"/>
<text text-anchor="start" x="1687.12" y="-326.16" font-family="Helvetica,sans-Serif" font-size="10.00">RefreshStatus &#45; TODO: Name this transition &#160;&#160;</text>
</g>
<!-- pending&#45;for&#45;input&#45;&gt;ready -->
<g id="edge34" class="edge transition">
<title>pending&#45;for&#45;input&#45;&gt;ready</title>
<path fill="none" stroke="black" d="M1847.31,-286.91C1943.73,-319.54 2162.45,-376.52 2306.25,-282.79 2330.91,-266.71 2342.16,-233.73 2347.22,-209.61"/>
<polygon fill="black" stroke="black" points="2350.6,-210.55 2348.97,-200.08 2343.72,-209.28 2350.6,-210.55"/>
<text text-anchor="start" x="1995" y="-337.35" font-family="Helvetica,sans-Serif" font-size="10.00">RefreshStatus &#45; Refresh discovering cluster &#45; detect ready &#160;&#160;</text>
</g>
<!-- ready&#45;&gt;insufficient -->
<g id="edge41" class="edge transition">
<title>ready&#45;&gt;insufficient</title>
<path fill="none" stroke="black" d="M2324.61,-178.77C2318.58,-178.38 2312.2,-178.02 2306.25,-177.79 2151.02,-171.79 2112.09,-174.87 1956.75,-174.04 1659.94,-172.45 1584.94,-169.04 1289.25,-194.79 1261.08,-197.24 1229.79,-200.76 1204.02,-203.88"/>
<polygon fill="black" stroke="black" points="1203.6,-200.4 1194.1,-205.09 1204.45,-207.35 1203.6,-200.4"/>
<text text-anchor="start" x="1638.75" y="-177.29" font-family="Helvetica,sans-Serif" font-size="10.00">RefreshStatus &#45; Refresh discovering cluster &#45; detect insufficient &#160;&#160;</text>
</g>
<!-- ready&#45;&gt;insufficient -->
<g id="edge43" class="edge transition">
<title>ready&#45;&gt;insufficient</title>
<path fill="none" stroke="black" d="M2324.29,-173.27C2318.39,-171.88 2312.14,-170.62 2306.25,-169.79 2152.31,-148.17 2112.17,-159.09 1956.75,-156.04 1660.07,-150.2 1582.15,-123.23 1289.25,-170.79 1260.25,-175.5 1228.72,-184.24 1203.01,-192.35"/>
<polygon fill="black" stroke="black" points="1202.26,-188.91 1193.81,-195.31 1204.4,-195.58 1202.26,-188.91"/>
<text text-anchor="start" x="1687.12" y="-159.29" font-family="Helvetica,sans-Serif" font-size="10.00">RefreshStatus &#45; TODO: Name this transition &#160;&#160;</text>
</g>
<!-- ready&#45;&gt;pending&#45;for&#45;input -->
<g id="edge40" class="edge transition">
<title>ready&#45;&gt;pending&#45;for&#45;input</title>
<path fill="none" stroke="black" d="M2344.53,-198.62C2337.57,-214.34 2325.03,-236.33 2306.25,-246.79 2287.6,-257.17 2006.89,-264.43 1871.17,-267.35"/>
<polygon fill="black" stroke="black" points="1871.12,-263.85 1861.2,-267.57 1871.27,-270.85 1871.12,-263.85"/>
<text text-anchor="start" x="1974.75" y="-267.87" font-family="Helvetica,sans-Serif" font-size="10.00">RefreshStatus &#45; Refresh discovering cluster &#45; detect required input &#160;&#160;</text>
</g>
<!-- ready&#45;&gt;pending&#45;for&#45;input -->
<g id="edge42" class="edge transition">
<title>ready&#45;&gt;pending&#45;for&#45;input</title>
<path fill="none" stroke="black" d="M2329.13,-198.89C2322.2,-203.6 2314.26,-208.11 2306.25,-210.79 2236.28,-234.21 2047.85,-219.93 1974.75,-230.04 1940.23,-234.81 1902.44,-242.76 1870.75,-250.23"/>
<polygon fill="black" stroke="black" points="1870.2,-246.76 1861.29,-252.49 1871.83,-253.57 1870.2,-246.76"/>
<text text-anchor="start" x="2029.88" y="-233.29" font-family="Helvetica,sans-Serif" font-size="10.00">RefreshStatus &#45; TODO: Name this transition &#160;&#160;</text>
</g>
<!-- ready&#45;&gt;ready -->
<g id="edge44" class="edge transition">
<title>ready&#45;&gt;ready</title>
<path fill="none" stroke="black" d="M2324.42,-190.41C2302.03,-202.51 2311.31,-216.91 2352.25,-216.91 2385.84,-216.91 2398.11,-207.22 2389.08,-197.06"/>
<polygon fill="black" stroke="black" points="2391.42,-194.43 2381.3,-191.31 2387.26,-200.06 2391.42,-194.43"/>
<text text-anchor="start" x="2206.75" y="-220.16" font-family="Helvetica,sans-Serif" font-size="10.00">RefreshStatus &#45; Refresh discovering cluster &#45; detect ready &#160;&#160;</text>
</g>
<!-- preparing&#45;for&#45;installation -->
<g id="node11" class="node state regular">
<title>preparing&#45;for&#45;installation</title>
<polygon fill="#ffffff" fill-opacity="0.003922" stroke="none" stroke-width="2" points="683.25,-124.91 514.25,-124.91 514.25,-88.66 683.25,-88.66 683.25,-124.91"/>
<text text-anchor="start" x="525.25" y="-102.51" font-family="Helvetica,sans-Serif" font-size="12.00">preparing&#45;for&#45;installation</text>
<path fill="none" stroke="black" stroke-width="2" d="M526.67,-89.66C526.67,-89.66 670.83,-89.66 670.83,-89.66 676.54,-89.66 682.25,-95.37 682.25,-101.08 682.25,-101.08 682.25,-112.5 682.25,-112.5 682.25,-118.2 676.54,-123.91 670.83,-123.91 670.83,-123.91 526.67,-123.91 526.67,-123.91 520.96,-123.91 515.25,-118.2 515.25,-112.5 515.25,-112.5 515.25,-101.08 515.25,-101.08 515.25,-95.37 520.96,-89.66 526.67,-89.66"/>
</g>
<!-- preparing&#45;for&#45;installation&#45;&gt;installing -->
<g id="edge36" class="edge transition">
<title>preparing&#45;for&#45;installation&#45;&gt;installing</title>
<path fill="none" stroke="black" d="M617.4,-124.7C638.83,-145.51 676.92,-179.55 715.5,-199.79 835.92,-262.94 886.47,-227.56 1008.75,-287.04 1017.57,-291.33 1018.16,-295.06 1026.75,-299.79 1050.51,-312.88 1078.41,-324.62 1101.46,-333.42"/>
<polygon fill="black" stroke="black" points="1100,-336.61 1110.59,-336.85 1102.46,-330.06 1100,-336.61"/>
<text text-anchor="start" x="715.5" y="-290.29" font-family="Helvetica,sans-Serif" font-size="10.00">RefreshStatus &#45; Refresh preparing cluster &#45; done preparing &#160;&#160;</text>
</g>
<!-- preparing&#45;for&#45;installation&#45;&gt;insufficient -->
<g id="edge37" class="edge transition">
<title>preparing&#45;for&#45;installation&#45;&gt;insufficient</title>
<path fill="none" stroke="black" d="M683.02,-122.58C797.01,-144.21 998.41,-182.41 1094.32,-200.6"/>
<polygon fill="black" stroke="black" points="1093.51,-204.01 1103.99,-202.44 1094.82,-197.14 1093.51,-204.01"/>
<text text-anchor="start" x="724.88" y="-186.15" font-family="Helvetica,sans-Serif" font-size="10.00">RefreshStatus &#45; Refresh preparing cluster &#45; insufficient &#160;&#160;</text>
</g>
<!-- preparing&#45;for&#45;installation&#45;&gt;ready -->
<g id="edge35" class="edge transition">
<title>preparing&#45;for&#45;installation&#45;&gt;ready</title>
<path fill="none" stroke="black" d="M683.14,-107.83C857.33,-110.13 1272.52,-116.22 1620.75,-126.04 1925.51,-134.63 2015.44,-60.23 2306.25,-151.79 2310.52,-153.13 2314.77,-154.99 2318.86,-157.13"/>
<polygon fill="black" stroke="black" points="2316.93,-160.06 2327.32,-162.12 2320.48,-154.03 2316.93,-160.06"/>
<text text-anchor="start" x="1309.12" y="-129.29" font-family="Helvetica,sans-Serif" font-size="10.00">RefreshStatus &#45; Refresh preparing cluster &#45; detect timeout &#160;&#160;</text>
</g>
<!-- preparing&#45;for&#45;installation&#45;&gt;ready -->
<g id="edge38" class="edge transition">
<title>preparing&#45;for&#45;installation&#45;&gt;ready</title>
<path fill="none" stroke="black" d="M683.2,-104.41C694.07,-104.17 705.05,-103.95 715.5,-103.79 970.47,-99.87 1034.25,-101.65 1289.25,-101.04 1741.25,-99.95 1915.59,125.56 2306.25,-101.79 2324.8,-112.59 2336.34,-134.21 2343.09,-152.1"/>
<polygon fill="black" stroke="black" points="2339.74,-153.13 2346.28,-161.47 2346.37,-150.88 2339.74,-153.13"/>
<text text-anchor="start" x="1331.25" y="-104.29" font-family="Helvetica,sans-Serif" font-size="10.00">RefreshStatus &#45; Refresh preparing cluster &#45; failed &#160;&#160;</text>
</g>
<!-- preparing&#45;for&#45;installation&#45;&gt;preparing&#45;for&#45;installation -->
<g id="edge39" class="edge transition">
<title>preparing&#45;for&#45;installation&#45;&gt;preparing&#45;for&#45;installation</title>
<path fill="none" stroke="black" d="M557.88,-124.63C550.93,-134.2 564.55,-142.91 598.75,-142.91 618.52,-142.91 631.41,-140 637.43,-135.69"/>
<polygon fill="black" stroke="black" points="640.82,-136.61 639.33,-126.12 633.95,-135.25 640.82,-136.61"/>
<text text-anchor="start" x="457.75" y="-146.16" font-family="Helvetica,sans-Serif" font-size="10.00">RefreshStatus &#45; Maintain preparing&#45;for&#45;installation state &#160;&#160;</text>
</g>
</g>
</svg>
