<?xml version="1.0" encoding="UTF-8" standalone="no"?>
<!DOCTYPE svg PUBLIC "-//W3C//DTD SVG 1.1//EN"
 "http://www.w3.org/Graphics/SVG/1.1/DTD/svg11.dtd">
<!-- Generated by graphviz version 12.1.0 (20240811.2233)
 -->
<!-- Title: state transitions Pages: 1 -->
<svg width="620pt" height="260pt"
 viewBox="0.00 0.00 619.75 260.25" xmlns="http://www.w3.org/2000/svg" xmlns:xlink="http://www.w3.org/1999/xlink">
<g id="graph0" class="graph" transform="scale(1 1) rotate(0) translate(4 256.25)">
<title>state transitions</title>
<polygon fill="white" stroke="none" points="-4,4 -4,-256.25 615.75,-256.25 615.75,4 -4,4"/>
<!-- cancelled -->
<g id="node1" class="node state regular">
<title>cancelled</title>
<polygon fill="#ffffff" fill-opacity="0.003922" stroke="none" stroke-width="2" points="611.75,-117.25 532.75,-117.25 532.75,-81 611.75,-81 611.75,-117.25"/>
<text text-anchor="start" x="543.75" y="-94.85" font-family="Helvetica,sans-Serif" font-size="12.00">cancelled</text>
<path fill="none" stroke="black" stroke-width="2" d="M545.17,-82C545.17,-82 599.33,-82 599.33,-82 605.04,-82 610.75,-87.71 610.75,-93.42 610.75,-93.42 610.75,-104.83 610.75,-104.83 610.75,-110.54 605.04,-116.25 599.33,-116.25 599.33,-116.25 545.17,-116.25 545.17,-116.25 539.46,-116.25 533.75,-110.54 533.75,-104.83 533.75,-104.83 533.75,-93.42 533.75,-93.42 533.75,-87.71 539.46,-82 545.17,-82"/>
</g>
<!-- error -->
<g id="node2" class="node state regular">
<title>error</title>
<polygon fill="#ffffff" fill-opacity="0.003922" stroke="none" stroke-width="2" points="127.12,-198.25 71.12,-198.25 71.12,-162 127.12,-162 127.12,-198.25"/>
<text text-anchor="start" x="84.5" y="-175.85" font-family="Helvetica,sans-Serif" font-size="12.00">error</text>
<path fill="none" stroke="black" stroke-width="2" d="M83.54,-163C83.54,-163 114.71,-163 114.71,-163 120.42,-163 126.12,-168.71 126.12,-174.42 126.12,-174.42 126.12,-185.83 126.12,-185.83 126.12,-191.54 120.42,-197.25 114.71,-197.25 114.71,-197.25 83.54,-197.25 83.54,-197.25 77.83,-197.25 72.12,-191.54 72.12,-185.83 72.12,-185.83 72.12,-174.42 72.12,-174.42 72.12,-168.71 77.83,-163 83.54,-163"/>
</g>
<!-- error&#45;&gt;cancelled -->
<g id="edge1" class="edge transition">
<title>error&#45;&gt;cancelled</title>
<path fill="none" stroke="black" d="M126.79,-181.54C194.07,-184.22 375.33,-185.88 514.75,-136.12 523.37,-133.05 531.98,-128.41 539.8,-123.45"/>
<polygon fill="black" stroke="black" points="541.63,-126.43 547.95,-117.93 537.71,-120.63 541.63,-126.43"/>
<text text-anchor="start" x="217" y="-185.36" font-family="Helvetica,sans-Serif" font-size="10.00">Cancel Installation &#45; Cancel installation of installing cluster &#160;&#160;</text>
</g>
<!-- finalizing -->
<g id="node3" class="node state regular">
<title>finalizing</title>
<polygon fill="#ffffff" fill-opacity="0.003922" stroke="none" stroke-width="2" points="136.38,-144.25 61.88,-144.25 61.88,-108 136.38,-108 136.38,-144.25"/>
<text text-anchor="start" x="72.88" y="-121.85" font-family="Helvetica,sans-Serif" font-size="12.00">finalizing</text>
<path fill="none" stroke="black" stroke-width="2" d="M74.29,-109C74.29,-109 123.96,-109 123.96,-109 129.67,-109 135.38,-114.71 135.38,-120.42 135.38,-120.42 135.38,-131.83 135.38,-131.83 135.38,-137.54 129.67,-143.25 123.96,-143.25 123.96,-143.25 74.29,-143.25 74.29,-143.25 68.58,-143.25 62.88,-137.54 62.88,-131.83 62.88,-131.83 62.88,-120.42 62.88,-120.42 62.88,-114.71 68.58,-109 74.29,-109"/>
</g>
<!-- finalizing&#45;&gt;cancelled -->
<g id="edge2" class="edge transition">
<title>finalizing&#45;&gt;cancelled</title>
<path fill="none" stroke="black" d="M136.31,-124.05C219.87,-119.26 426.4,-107.43 521.65,-101.97"/>
<polygon fill="black" stroke="black" points="521.68,-105.47 531.47,-101.41 521.28,-98.48 521.68,-105.47"/>
<text text-anchor="start" x="217" y="-122.13" font-family="Helvetica,sans-Serif" font-size="10.00">Cancel Installation &#45; Cancel installation of installing cluster &#160;&#160;</text>
</g>
<!-- installing -->
<g id="node4" class="node state regular">
<title>installing</title>
<polygon fill="#ffffff" fill-opacity="0.003922" stroke="none" stroke-width="2" points="136.38,-90.25 61.88,-90.25 61.88,-54 136.38,-54 136.38,-90.25"/>
<text text-anchor="start" x="72.88" y="-67.85" font-family="Helvetica,sans-Serif" font-size="12.00">installing</text>
<path fill="none" stroke="black" stroke-width="2" d="M74.29,-55C74.29,-55 123.96,-55 123.96,-55 129.67,-55 135.38,-60.71 135.38,-66.42 135.38,-66.42 135.38,-77.83 135.38,-77.83 135.38,-83.54 129.67,-89.25 123.96,-89.25 123.96,-89.25 74.29,-89.25 74.29,-89.25 68.58,-89.25 62.88,-83.54 62.88,-77.83 62.88,-77.83 62.88,-66.42 62.88,-66.42 62.88,-60.71 68.58,-55 74.29,-55"/>
</g>
<!-- installing&#45;&gt;cancelled -->
<g id="edge3" class="edge transition">
<title>installing&#45;&gt;cancelled</title>
<path fill="none" stroke="black" d="M136.11,-70.79C208.29,-68.65 375.77,-66.45 514.75,-85.38 517.06,-85.69 519.4,-86.06 521.77,-86.47"/>
<polygon fill="black" stroke="black" points="520.88,-89.86 531.37,-88.36 522.24,-82.99 520.88,-89.86"/>
<text text-anchor="start" x="217" y="-88.62" font-family="Helvetica,sans-Serif" font-size="10.00">Cancel Installation &#45; Cancel installation of installing cluster &#160;&#160;</text>
</g>
<!-- installing&#45;pending&#45;user&#45;action -->
<g id="node5" class="node state regular">
<title>installing&#45;pending&#45;user&#45;action</title>
<polygon fill="#ffffff" fill-opacity="0.003922" stroke="none" stroke-width="2" points="198.25,-36.25 0,-36.25 0,0 198.25,0 198.25,-36.25"/>
<text text-anchor="start" x="11" y="-13.85" font-family="Helvetica,sans-Serif" font-size="12.00">installing&#45;pending&#45;user&#45;action</text>
<path fill="none" stroke="black" stroke-width="2" d="M12.42,-1C12.42,-1 185.83,-1 185.83,-1 191.54,-1 197.25,-6.71 197.25,-12.42 197.25,-12.42 197.25,-23.83 197.25,-23.83 197.25,-29.54 191.54,-35.25 185.83,-35.25 185.83,-35.25 12.42,-35.25 12.42,-35.25 6.71,-35.25 1,-29.54 1,-23.83 1,-23.83 1,-12.42 1,-12.42 1,-6.71 6.71,-1 12.42,-1"/>
</g>
<!-- installing&#45;pending&#45;user&#45;action&#45;&gt;cancelled -->
<g id="edge4" class="edge transition">
<title>installing&#45;pending&#45;user&#45;action&#45;&gt;cancelled</title>
<path fill="none" stroke="black" d="M198.2,-10.03C284.71,-6.61 412.57,-10.75 514.75,-52.38 526.54,-57.18 537.75,-65.37 547.02,-73.56"/>
<polygon fill="black" stroke="black" points="544.49,-75.98 554.17,-80.27 549.28,-70.88 544.49,-75.98"/>
<text text-anchor="start" x="217" y="-55.62" font-family="Helvetica,sans-Serif" font-size="10.00">Cancel Installation &#45; Cancel installation of installing cluster &#160;&#160;</text>
</g>
<!-- preparing&#45;for&#45;installation -->
<g id="node6" class="node state regular">
<title>preparing&#45;for&#45;installation</title>
<polygon fill="#ffffff" fill-opacity="0.003922" stroke="none" stroke-width="2" points="184,-252.25 14.25,-252.25 14.25,-216 184,-216 184,-252.25"/>
<text text-anchor="start" x="25.25" y="-229.85" font-family="Helvetica,sans-Serif" font-size="12.00">preparing&#45;for&#45;installation</text>
<path fill="none" stroke="black" stroke-width="2" d="M26.67,-217C26.67,-217 171.58,-217 171.58,-217 177.29,-217 183,-222.71 183,-228.42 183,-228.42 183,-239.83 183,-239.83 183,-245.54 177.29,-251.25 171.58,-251.25 171.58,-251.25 26.67,-251.25 26.67,-251.25 20.96,-251.25 15.25,-245.54 15.25,-239.83 15.25,-239.83 15.25,-228.42 15.25,-228.42 15.25,-222.71 20.96,-217 26.67,-217"/>
</g>
<!-- ready -->
<g id="node7" class="node state regular">
<title>ready</title>
<polygon fill="#ffffff" fill-opacity="0.003922" stroke="none" stroke-width="2" points="600.25,-252.25 544.25,-252.25 544.25,-216 600.25,-216 600.25,-252.25"/>
<text text-anchor="start" x="555.38" y="-229.85" font-family="Helvetica,sans-Serif" font-size="12.00">ready</text>
<path fill="none" stroke="black" stroke-width="2" d="M556.67,-217C556.67,-217 587.83,-217 587.83,-217 593.54,-217 599.25,-222.71 599.25,-228.42 599.25,-228.42 599.25,-239.83 599.25,-239.83 599.25,-245.54 593.54,-251.25 587.83,-251.25 587.83,-251.25 556.67,-251.25 556.67,-251.25 550.96,-251.25 545.25,-245.54 545.25,-239.83 545.25,-239.83 545.25,-228.42 545.25,-228.42 545.25,-222.71 550.96,-217 556.67,-217"/>
</g>
<!-- preparing&#45;for&#45;installation&#45;&gt;ready -->
<g id="edge5" class="edge transition">
<title>preparing&#45;for&#45;installation&#45;&gt;ready</title>
<path fill="none" stroke="black" d="M183.81,-234.12C286.84,-234.12 457.45,-234.12 533.1,-234.12"/>
<polygon fill="black" stroke="black" points="532.89,-237.63 542.89,-234.13 532.89,-230.63 532.89,-237.63"/>
<text text-anchor="start" x="216.25" y="-237.38" font-family="Helvetica,sans-Serif" font-size="10.00">Cancel Installation &#45; Cancel installation of preparing cluster &#160;&#160;</text>
</g>
</g>
</svg>
