<?xml version="1.0" encoding="UTF-8" standalone="no"?>
<!DOCTYPE svg PUBLIC "-//W3C//DTD SVG 1.1//EN"
 "http://www.w3.org/Graphics/SVG/1.1/DTD/svg11.dtd">
<!-- Generated by graphviz version 12.1.0 (20240811.2233)
 -->
<!-- Title: state transitions Pages: 1 -->
<svg width="498pt" height="314pt"
 viewBox="0.00 0.00 498.25 314.25" xmlns="http://www.w3.org/2000/svg" xmlns:xlink="http://www.w3.org/1999/xlink">
<g id="graph0" class="graph" transform="scale(1 1) rotate(0) translate(4 310.25)">
<title>state transitions</title>
<polygon fill="white" stroke="none" points="-4,4 -4,-310.25 494.25,-310.25 494.25,4 -4,4"/>
<!-- cancelled -->
<g id="node1" class="node state regular">
<title>cancelled</title>
<polygon fill="#ffffff" fill-opacity="0.003922" stroke="none" stroke-width="2" points="138.25,-306.25 59.25,-306.25 59.25,-270 138.25,-270 138.25,-306.25"/>
<text text-anchor="start" x="70.25" y="-283.85" font-family="Helvetica,sans-Serif" font-size="12.00">cancelled</text>
<path fill="none" stroke="black" stroke-width="2" d="M71.67,-271C71.67,-271 125.83,-271 125.83,-271 131.54,-271 137.25,-276.71 137.25,-282.42 137.25,-282.42 137.25,-293.83 137.25,-293.83 137.25,-299.54 131.54,-305.25 125.83,-305.25 125.83,-305.25 71.67,-305.25 71.67,-305.25 65.96,-305.25 60.25,-299.54 60.25,-293.83 60.25,-293.83 60.25,-282.42 60.25,-282.42 60.25,-276.71 65.96,-271 71.67,-271"/>
</g>
<!-- insufficient -->
<g id="node2" class="node state regular">
<title>insufficient</title>
<polygon fill="#ffffff" fill-opacity="0.003922" stroke="none" stroke-width="2" points="490.25,-171.25 403,-171.25 403,-135 490.25,-135 490.25,-171.25"/>
<text text-anchor="start" x="414" y="-148.85" font-family="Helvetica,sans-Serif" font-size="12.00">insufficient</text>
<path fill="none" stroke="black" stroke-width="2" d="M415.42,-136C415.42,-136 477.83,-136 477.83,-136 483.54,-136 489.25,-141.71 489.25,-147.42 489.25,-147.42 489.25,-158.83 489.25,-158.83 489.25,-164.54 483.54,-170.25 477.83,-170.25 477.83,-170.25 415.42,-170.25 415.42,-170.25 409.71,-170.25 404,-164.54 404,-158.83 404,-158.83 404,-147.42 404,-147.42 404,-141.71 409.71,-136 415.42,-136"/>
</g>
<!-- cancelled&#45;&gt;insufficient -->
<g id="edge1" class="edge transition">
<title>cancelled&#45;&gt;insufficient</title>
<path fill="none" stroke="black" d="M138.14,-290.88C196.24,-293.17 307.87,-290.07 385,-241.12 407.34,-226.95 423.6,-201.26 433.62,-181.29"/>
<polygon fill="black" stroke="black" points="436.79,-182.79 437.9,-172.25 430.46,-179.79 436.79,-182.79"/>
<text text-anchor="start" x="215.5" y="-292.76" font-family="Helvetica,sans-Serif" font-size="10.00">Reset Cluster &#45; Reset installation &#160;&#160;</text>
</g>
<!-- error -->
<g id="node3" class="node state regular">
<title>error</title>
<polygon fill="#ffffff" fill-opacity="0.003922" stroke="none" stroke-width="2" points="126.75,-252.25 70.75,-252.25 70.75,-216 126.75,-216 126.75,-252.25"/>
<text text-anchor="start" x="84.12" y="-229.85" font-family="Helvetica,sans-Serif" font-size="12.00">error</text>
<path fill="none" stroke="black" stroke-width="2" d="M83.17,-217C83.17,-217 114.33,-217 114.33,-217 120.04,-217 125.75,-222.71 125.75,-228.42 125.75,-228.42 125.75,-239.83 125.75,-239.83 125.75,-245.54 120.04,-251.25 114.33,-251.25 114.33,-251.25 83.17,-251.25 83.17,-251.25 77.46,-251.25 71.75,-245.54 71.75,-239.83 71.75,-239.83 71.75,-228.42 71.75,-228.42 71.75,-222.71 77.46,-217 83.17,-217"/>
</g>
<!-- error&#45;&gt;insufficient -->
<g id="edge2" class="edge transition">
<title>error&#45;&gt;insufficient</title>
<path fill="none" stroke="black" d="M126.47,-232.81C177.88,-229.61 293.59,-219.17 385,-187.12 392.83,-184.38 400.83,-180.66 408.33,-176.68"/>
<polygon fill="black" stroke="black" points="409.86,-179.83 416.89,-171.9 406.45,-173.72 409.86,-179.83"/>
<text text-anchor="start" x="215.5" y="-227.26" font-family="Helvetica,sans-Serif" font-size="10.00">Reset Cluster &#45; Reset installation &#160;&#160;</text>
</g>
<!-- finalizing -->
<g id="node4" class="node state regular">
<title>finalizing</title>
<polygon fill="#ffffff" fill-opacity="0.003922" stroke="none" stroke-width="2" points="136,-198.25 61.5,-198.25 61.5,-162 136,-162 136,-198.25"/>
<text text-anchor="start" x="72.5" y="-175.85" font-family="Helvetica,sans-Serif" font-size="12.00">finalizing</text>
<path fill="none" stroke="black" stroke-width="2" d="M73.92,-163C73.92,-163 123.58,-163 123.58,-163 129.29,-163 135,-168.71 135,-174.42 135,-174.42 135,-185.83 135,-185.83 135,-191.54 129.29,-197.25 123.58,-197.25 123.58,-197.25 73.92,-197.25 73.92,-197.25 68.21,-197.25 62.5,-191.54 62.5,-185.83 62.5,-185.83 62.5,-174.42 62.5,-174.42 62.5,-168.71 68.21,-163 73.92,-163"/>
</g>
<!-- finalizing&#45;&gt;insufficient -->
<g id="edge3" class="edge transition">
<title>finalizing&#45;&gt;insufficient</title>
<path fill="none" stroke="black" d="M135.79,-177.31C196.76,-172.55 320.57,-162.89 391.84,-157.32"/>
<polygon fill="black" stroke="black" points="392.03,-160.82 401.72,-156.55 391.48,-153.84 392.03,-160.82"/>
<text text-anchor="start" x="215.5" y="-173.87" font-family="Helvetica,sans-Serif" font-size="10.00">Reset Cluster &#45; Reset installation &#160;&#160;</text>
</g>
<!-- installing -->
<g id="node5" class="node state regular">
<title>installing</title>
<polygon fill="#ffffff" fill-opacity="0.003922" stroke="none" stroke-width="2" points="136,-144.25 61.5,-144.25 61.5,-108 136,-108 136,-144.25"/>
<text text-anchor="start" x="72.5" y="-121.85" font-family="Helvetica,sans-Serif" font-size="12.00">installing</text>
<path fill="none" stroke="black" stroke-width="2" d="M73.92,-109C73.92,-109 123.58,-109 123.58,-109 129.29,-109 135,-114.71 135,-120.42 135,-120.42 135,-131.83 135,-131.83 135,-137.54 129.29,-143.25 123.58,-143.25 123.58,-143.25 73.92,-143.25 73.92,-143.25 68.21,-143.25 62.5,-137.54 62.5,-131.83 62.5,-131.83 62.5,-120.42 62.5,-120.42 62.5,-114.71 68.21,-109 73.92,-109"/>
</g>
<!-- installing&#45;&gt;insufficient -->
<g id="edge4" class="edge transition">
<title>installing&#45;&gt;insufficient</title>
<path fill="none" stroke="black" d="M135.91,-126.46C190.2,-127.33 295.91,-130.41 385,-141.38 387.19,-141.65 389.43,-141.95 391.68,-142.28"/>
<polygon fill="black" stroke="black" points="391.09,-145.73 401.52,-143.86 392.21,-138.82 391.09,-145.73"/>
<text text-anchor="start" x="215.5" y="-144.62" font-family="Helvetica,sans-Serif" font-size="10.00">Reset Cluster &#45; Reset installation &#160;&#160;</text>
</g>
<!-- installing&#45;pending&#45;user&#45;action -->
<g id="node6" class="node state regular">
<title>installing&#45;pending&#45;user&#45;action</title>
<polygon fill="#ffffff" fill-opacity="0.003922" stroke="none" stroke-width="2" points="197.5,-90.25 0,-90.25 0,-54 197.5,-54 197.5,-90.25"/>
<text text-anchor="start" x="11" y="-67.85" font-family="Helvetica,sans-Serif" font-size="12.00">installing&#45;pending&#45;user&#45;action</text>
<path fill="none" stroke="black" stroke-width="2" d="M12.42,-55C12.42,-55 185.08,-55 185.08,-55 190.79,-55 196.5,-60.71 196.5,-66.42 196.5,-66.42 196.5,-77.83 196.5,-77.83 196.5,-83.54 190.79,-89.25 185.08,-89.25 185.08,-89.25 12.42,-89.25 12.42,-89.25 6.71,-89.25 1,-83.54 1,-77.83 1,-77.83 1,-66.42 1,-66.42 1,-60.71 6.71,-55 12.42,-55"/>
</g>
<!-- installing&#45;pending&#45;user&#45;action&#45;&gt;insufficient -->
<g id="edge5" class="edge transition">
<title>installing&#45;pending&#45;user&#45;action&#45;&gt;insufficient</title>
<path fill="none" stroke="black" d="M197.21,-75.04C253.63,-79.36 325.11,-89.42 385,-112.38 395.26,-116.31 405.52,-122.25 414.61,-128.38"/>
<polygon fill="black" stroke="black" points="412.54,-131.21 422.72,-134.16 416.6,-125.51 412.54,-131.21"/>
<text text-anchor="start" x="215.5" y="-115.62" font-family="Helvetica,sans-Serif" font-size="10.00">Reset Cluster &#45; Reset installation &#160;&#160;</text>
</g>
<!-- preparing&#45;for&#45;installation -->
<g id="node7" class="node state regular">
<title>preparing&#45;for&#45;installation</title>
<polygon fill="#ffffff" fill-opacity="0.003922" stroke="none" stroke-width="2" points="183.25,-36.25 14.25,-36.25 14.25,0 183.25,0 183.25,-36.25"/>
<text text-anchor="start" x="25.25" y="-13.85" font-family="Helvetica,sans-Serif" font-size="12.00">preparing&#45;for&#45;installation</text>
<path fill="none" stroke="black" stroke-width="2" d="M26.67,-1C26.67,-1 170.83,-1 170.83,-1 176.54,-1 182.25,-6.71 182.25,-12.42 182.25,-12.42 182.25,-23.83 182.25,-23.83 182.25,-29.54 176.54,-35.25 170.83,-35.25 170.83,-35.25 26.67,-35.25 26.67,-35.25 20.96,-35.25 15.25,-29.54 15.25,-23.83 15.25,-23.83 15.25,-12.42 15.25,-12.42 15.25,-6.71 20.96,-1 26.67,-1"/>
</g>
<!-- preparing&#45;for&#45;installation&#45;&gt;insufficient -->
<g id="edge6" class="edge transition">
<title>preparing&#45;for&#45;installation&#45;&gt;insufficient</title>
<path fill="none" stroke="black" d="M183.13,-12.99C243.63,-13.21 325.02,-21.98 385,-60.38 408.59,-75.48 424.96,-103.41 434.69,-124.69"/>
<polygon fill="black" stroke="black" points="431.41,-125.91 438.58,-133.72 437.84,-123.15 431.41,-125.91"/>
<text text-anchor="start" x="215.5" y="-63.62" font-family="Helvetica,sans-Serif" font-size="10.00">Reset Cluster &#45; Reset installation &#160;&#160;</text>
</g>
</g>
</svg>
