<?xml version="1.0" encoding="UTF-8" standalone="no"?>
<!DOCTYPE svg PUBLIC "-//W3C//DTD SVG 1.1//EN"
 "http://www.w3.org/Graphics/SVG/1.1/DTD/svg11.dtd">
<!-- Generated by graphviz version 5.0.0 (0)
 -->
<!-- Title: state transitions Pages: 1 -->
<svg width="437pt" height="44pt"
 viewBox="0.00 0.00 437.00 44.00" xmlns="http://www.w3.org/2000/svg" xmlns:xlink="http://www.w3.org/1999/xlink">
<g id="graph0" class="graph" transform="scale(1 1) rotate(0) translate(4 40)">
<title>state transitions</title>
<polygon fill="white" stroke="transparent" points="-4,4 -4,-40 433,-40 433,4 -4,4"/>
<!-- preparing&#45;for&#45;installation -->
<g id="node1" class="node state regular">
<title>preparing&#45;for&#45;installation</title>
<polygon fill="#ffffff" fill-opacity="0.003922" stroke="transparent" stroke-width="2" points="429,-36 277,-36 277,0 429,0 429,-36"/>
<text text-anchor="start" x="288" y="-14.4" font-family="Helvetica,sans-Serif" font-size="12.00">preparing&#45;for&#45;installation</text>
<path fill="none" stroke="black" stroke-width="2" d="M289,-1.5C289,-1.5 417,-1.5 417,-1.5 422.5,-1.5 428,-7 428,-12.5 428,-12.5 428,-23.5 428,-23.5 428,-29 422.5,-34.5 417,-34.5 417,-34.5 289,-34.5 289,-34.5 283.5,-34.5 278,-29 278,-23.5 278,-23.5 278,-12.5 278,-12.5 278,-7 283.5,-1.5 289,-1.5"/>
</g>
<!-- ready -->
<g id="node2" class="node state regular">
<title>ready</title>
<polygon fill="#ffffff" fill-opacity="0.003922" stroke="transparent" stroke-width="2" points="56,-36 0,-36 0,0 56,0 56,-36"/>
<text text-anchor="start" x="12.5" y="-14.4" font-family="Helvetica,sans-Serif" font-size="12.00">ready</text>
<path fill="none" stroke="black" stroke-width="2" d="M12,-1.5C12,-1.5 44,-1.5 44,-1.5 49.5,-1.5 55,-7 55,-12.5 55,-12.5 55,-23.5 55,-23.5 55,-29 49.5,-34.5 44,-34.5 44,-34.5 12,-34.5 12,-34.5 6.5,-34.5 1,-29 1,-23.5 1,-23.5 1,-12.5 1,-12.5 1,-7 6.5,-1.5 12,-1.5"/>
</g>
<!-- ready&#45;&gt;preparing&#45;for&#45;installation -->
<g id="edge1" class="edge transition">
<title>ready&#45;&gt;preparing&#45;for&#45;installation</title>
<path fill="none" stroke="black" d="M56.26,-18C102.21,-18 196.92,-18 266.84,-18"/>
<polygon fill="black" stroke="black" points="266.96,-21.5 276.96,-18 266.96,-14.5 266.96,-21.5"/>
<text text-anchor="start" x="74" y="-21" font-family="Helvetica,sans-Serif" font-size="10.00">PrepareForInstallation &#45; Start installation &#160;&#160;</text>
</g>
</g>
</svg>
