<?xml version="1.0" encoding="UTF-8" standalone="no"?>
<!DOCTYPE svg PUBLIC "-//W3C//DTD SVG 1.1//EN"
 "http://www.w3.org/Graphics/SVG/1.1/DTD/svg11.dtd">
<!-- Generated by graphviz version 7.1.0 (0)
 -->
<!-- Title: state transitions Pages: 1 -->
<svg width="459pt" height="314pt"
 viewBox="0.00 0.00 459.00 314.00" xmlns="http://www.w3.org/2000/svg" xmlns:xlink="http://www.w3.org/1999/xlink">
<g id="graph0" class="graph" transform="scale(1 1) rotate(0) translate(4 310)">
<title>state transitions</title>
<polygon fill="white" stroke="none" points="-4,4 -4,-310 455,-310 455,4 -4,4"/>
<!-- cancelled -->
<g id="node1" class="node state regular">
<title>cancelled</title>
<polygon fill="#ffffff" fill-opacity="0.003922" stroke="none" stroke-width="2" points="127.5,-306 53.5,-306 53.5,-270 127.5,-270 127.5,-306"/>
<text text-anchor="start" x="64.5" y="-284.4" font-family="Helvetica,sans-Serif" font-size="12.00">cancelled</text>
<path fill="none" stroke="black" stroke-width="2" d="M65.5,-271.5C65.5,-271.5 115.5,-271.5 115.5,-271.5 121,-271.5 126.5,-277 126.5,-282.5 126.5,-282.5 126.5,-293.5 126.5,-293.5 126.5,-299 121,-304.5 115.5,-304.5 115.5,-304.5 65.5,-304.5 65.5,-304.5 60,-304.5 54.5,-299 54.5,-293.5 54.5,-293.5 54.5,-282.5 54.5,-282.5 54.5,-277 60,-271.5 65.5,-271.5"/>
</g>
<!-- insufficient -->
<g id="node6" class="node state regular">
<title>insufficient</title>
<polygon fill="#ffffff" fill-opacity="0.003922" stroke="none" stroke-width="2" points="451,-171 371,-171 371,-135 451,-135 451,-171"/>
<text text-anchor="start" x="382" y="-149.4" font-family="Helvetica,sans-Serif" font-size="12.00">insufficient</text>
<path fill="none" stroke="black" stroke-width="2" d="M383,-136.5C383,-136.5 439,-136.5 439,-136.5 444.5,-136.5 450,-142 450,-147.5 450,-147.5 450,-158.5 450,-158.5 450,-164 444.5,-169.5 439,-169.5 439,-169.5 383,-169.5 383,-169.5 377.5,-169.5 372,-164 372,-158.5 372,-158.5 372,-147.5 372,-147.5 372,-142 377.5,-136.5 383,-136.5"/>
</g>
<!-- cancelled&#45;&gt;insufficient -->
<g id="edge5" class="edge transition">
<title>cancelled&#45;&gt;insufficient</title>
<path fill="none" stroke="black" d="M127.23,-289.1C180.72,-289.04 282.85,-282.23 353,-236 373.13,-222.73 388.12,-199.67 397.66,-181.21"/>
<polygon fill="black" stroke="black" points="400.74,-182.87 401.98,-172.35 394.45,-179.81 400.74,-182.87"/>
<text text-anchor="start" x="199" y="-287" font-family="Helvetica,sans-Serif" font-size="10.00">Reset Cluster &#45; Reset installation &#160;&#160;</text>
</g>
<!-- error -->
<g id="node2" class="node state regular">
<title>error</title>
<polygon fill="#ffffff" fill-opacity="0.003922" stroke="none" stroke-width="2" points="118.5,-252 62.5,-252 62.5,-216 118.5,-216 118.5,-252"/>
<text text-anchor="start" x="78" y="-230.4" font-family="Helvetica,sans-Serif" font-size="12.00">error</text>
<path fill="none" stroke="black" stroke-width="2" d="M74.5,-217.5C74.5,-217.5 106.5,-217.5 106.5,-217.5 112,-217.5 117.5,-223 117.5,-228.5 117.5,-228.5 117.5,-239.5 117.5,-239.5 117.5,-245 112,-250.5 106.5,-250.5 106.5,-250.5 74.5,-250.5 74.5,-250.5 69,-250.5 63.5,-245 63.5,-239.5 63.5,-239.5 63.5,-228.5 63.5,-228.5 63.5,-223 69,-217.5 74.5,-217.5"/>
</g>
<!-- error&#45;&gt;insufficient -->
<g id="edge4" class="edge transition">
<title>error&#45;&gt;insufficient</title>
<path fill="none" stroke="black" d="M118.23,-231.88C166.42,-227.44 270.51,-214.96 353,-185 359.58,-182.61 366.3,-179.51 372.71,-176.19"/>
<polygon fill="black" stroke="black" points="374.04,-179.45 381.13,-171.58 370.68,-173.31 374.04,-179.45"/>
<text text-anchor="start" x="199" y="-224" font-family="Helvetica,sans-Serif" font-size="10.00">Reset Cluster &#45; Reset installation &#160;&#160;</text>
</g>
<!-- finalizing -->
<g id="node3" class="node state regular">
<title>finalizing</title>
<polygon fill="#ffffff" fill-opacity="0.003922" stroke="none" stroke-width="2" points="125.5,-198 55.5,-198 55.5,-162 125.5,-162 125.5,-198"/>
<text text-anchor="start" x="66.5" y="-176.4" font-family="Helvetica,sans-Serif" font-size="12.00">finalizing</text>
<path fill="none" stroke="black" stroke-width="2" d="M67.5,-163.5C67.5,-163.5 113.5,-163.5 113.5,-163.5 119,-163.5 124.5,-169 124.5,-174.5 124.5,-174.5 124.5,-185.5 124.5,-185.5 124.5,-191 119,-196.5 113.5,-196.5 113.5,-196.5 67.5,-196.5 67.5,-196.5 62,-196.5 56.5,-191 56.5,-185.5 56.5,-185.5 56.5,-174.5 56.5,-174.5 56.5,-169 62,-163.5 67.5,-163.5"/>
</g>
<!-- finalizing&#45;&gt;insufficient -->
<g id="edge6" class="edge transition">
<title>finalizing&#45;&gt;insufficient</title>
<path fill="none" stroke="black" d="M125.35,-177.19C175.21,-173.04 271.29,-165.02 353,-158 355.19,-157.81 357.43,-157.62 359.69,-157.42"/>
<polygon fill="black" stroke="black" points="359.89,-160.92 369.55,-156.57 359.29,-153.94 359.89,-160.92"/>
<text text-anchor="start" x="199" y="-173" font-family="Helvetica,sans-Serif" font-size="10.00">Reset Cluster &#45; Reset installation &#160;&#160;</text>
</g>
<!-- installing -->
<g id="node4" class="node state regular">
<title>installing</title>
<polygon fill="#ffffff" fill-opacity="0.003922" stroke="none" stroke-width="2" points="126,-144 55,-144 55,-108 126,-108 126,-144"/>
<text text-anchor="start" x="66.5" y="-122.4" font-family="Helvetica,sans-Serif" font-size="12.00">installing</text>
<path fill="none" stroke="black" stroke-width="2" d="M67,-109.5C67,-109.5 114,-109.5 114,-109.5 119.5,-109.5 125,-115 125,-120.5 125,-120.5 125,-131.5 125,-131.5 125,-137 119.5,-142.5 114,-142.5 114,-142.5 67,-142.5 67,-142.5 61.5,-142.5 56,-137 56,-131.5 56,-131.5 56,-120.5 56,-120.5 56,-115 61.5,-109.5 67,-109.5"/>
</g>
<!-- installing&#45;&gt;insufficient -->
<g id="edge2" class="edge transition">
<title>installing&#45;&gt;insufficient</title>
<path fill="none" stroke="black" d="M125.79,-128.48C175.78,-132.16 271.6,-139.45 353,-147 355.19,-147.2 357.43,-147.42 359.69,-147.64"/>
<polygon fill="black" stroke="black" points="359.27,-151.11 369.57,-148.62 359.96,-144.15 359.27,-151.11"/>
<text text-anchor="start" x="199" y="-150" font-family="Helvetica,sans-Serif" font-size="10.00">Reset Cluster &#45; Reset installation &#160;&#160;</text>
</g>
<!-- installing&#45;pending&#45;user&#45;action -->
<g id="node5" class="node state regular">
<title>installing&#45;pending&#45;user&#45;action</title>
<polygon fill="#ffffff" fill-opacity="0.003922" stroke="none" stroke-width="2" points="181,-90 0,-90 0,-54 181,-54 181,-90"/>
<text text-anchor="start" x="11.5" y="-68.4" font-family="Helvetica,sans-Serif" font-size="12.00">installing&#45;pending&#45;user&#45;action</text>
<path fill="none" stroke="black" stroke-width="2" d="M12,-55.5C12,-55.5 169,-55.5 169,-55.5 174.5,-55.5 180,-61 180,-66.5 180,-66.5 180,-77.5 180,-77.5 180,-83 174.5,-88.5 169,-88.5 169,-88.5 12,-88.5 12,-88.5 6.5,-88.5 1,-83 1,-77.5 1,-77.5 1,-66.5 1,-66.5 1,-61 6.5,-55.5 12,-55.5"/>
</g>
<!-- installing&#45;pending&#45;user&#45;action&#45;&gt;insufficient -->
<g id="edge3" class="edge transition">
<title>installing&#45;pending&#45;user&#45;action&#45;&gt;insufficient</title>
<path fill="none" stroke="black" d="M180.77,-79.99C232.32,-86.57 297.7,-98.32 353,-119 360.25,-121.71 367.62,-125.34 374.55,-129.22"/>
<polygon fill="black" stroke="black" points="372.63,-132.15 383.02,-134.24 376.2,-126.13 372.63,-132.15"/>
<text text-anchor="start" x="199" y="-122" font-family="Helvetica,sans-Serif" font-size="10.00">Reset Cluster &#45; Reset installation &#160;&#160;</text>
</g>
<!-- preparing&#45;for&#45;installation -->
<g id="node7" class="node state regular">
<title>preparing&#45;for&#45;installation</title>
<polygon fill="#ffffff" fill-opacity="0.003922" stroke="none" stroke-width="2" points="166.5,-36 14.5,-36 14.5,0 166.5,0 166.5,-36"/>
<text text-anchor="start" x="25.5" y="-14.4" font-family="Helvetica,sans-Serif" font-size="12.00">preparing&#45;for&#45;installation</text>
<path fill="none" stroke="black" stroke-width="2" d="M26.5,-1.5C26.5,-1.5 154.5,-1.5 154.5,-1.5 160,-1.5 165.5,-7 165.5,-12.5 165.5,-12.5 165.5,-23.5 165.5,-23.5 165.5,-29 160,-34.5 154.5,-34.5 154.5,-34.5 26.5,-34.5 26.5,-34.5 21,-34.5 15.5,-29 15.5,-23.5 15.5,-23.5 15.5,-12.5 15.5,-12.5 15.5,-7 21,-1.5 26.5,-1.5"/>
</g>
<!-- preparing&#45;for&#45;installation&#45;&gt;insufficient -->
<g id="edge1" class="edge transition">
<title>preparing&#45;for&#45;installation&#45;&gt;insufficient</title>
<path fill="none" stroke="black" d="M166.32,-16.84C222.01,-19.38 297.66,-30.32 353,-67 373.94,-80.88 389.04,-105.36 398.42,-124.67"/>
<polygon fill="black" stroke="black" points="395.19,-126.02 402.53,-133.66 401.56,-123.11 395.19,-126.02"/>
<text text-anchor="start" x="199" y="-70" font-family="Helvetica,sans-Serif" font-size="10.00">Reset Cluster &#45; Reset installation &#160;&#160;</text>
</g>
</g>
</svg>
