<?xml version="1.0" encoding="UTF-8" standalone="no"?>
<!DOCTYPE svg PUBLIC "-//W3C//DTD SVG 1.1//EN"
 "http://www.w3.org/Graphics/SVG/1.1/DTD/svg11.dtd">
<!-- Generated by graphviz version 5.0.0 (0)
 -->
<!-- Title: state transitions Pages: 1 -->
<svg width="618pt" height="504pt"
 viewBox="0.00 0.00 617.50 503.64" xmlns="http://www.w3.org/2000/svg" xmlns:xlink="http://www.w3.org/1999/xlink">
<g id="graph0" class="graph" transform="scale(1 1) rotate(0) translate(4 499.64)">
<title>state transitions</title>
<polygon fill="white" stroke="transparent" points="-4,4 -4,-499.64 613.5,-499.64 613.5,4 -4,4"/>
<!-- binding -->
<g id="node1" class="node state regular">
<title>binding</title>
<polygon fill="#ffffff" fill-opacity="0.003922" stroke="transparent" stroke-width="2" points="120.5,-483.64 58.5,-483.64 58.5,-447.64 120.5,-447.64 120.5,-483.64"/>
<text text-anchor="start" x="69.5" y="-462.04" font-family="Helvetica,sans-Serif" font-size="12.00">binding</text>
<path fill="none" stroke="black" stroke-width="2" d="M70.5,-449.14C70.5,-449.14 108.5,-449.14 108.5,-449.14 114,-449.14 119.5,-454.64 119.5,-460.14 119.5,-460.14 119.5,-471.14 119.5,-471.14 119.5,-476.64 114,-482.14 108.5,-482.14 108.5,-482.14 70.5,-482.14 70.5,-482.14 65,-482.14 59.5,-476.64 59.5,-471.14 59.5,-471.14 59.5,-460.14 59.5,-460.14 59.5,-454.64 65,-449.14 70.5,-449.14"/>
</g>
<!-- discovering -->
<g id="node3" class="node state regular">
<title>discovering</title>
<polygon fill="#ffffff" fill-opacity="0.003922" stroke="transparent" stroke-width="2" points="548,-294.64 464,-294.64 464,-258.64 548,-258.64 548,-294.64"/>
<text text-anchor="start" x="475" y="-273.04" font-family="Helvetica,sans-Serif" font-size="12.00">discovering</text>
<path fill="none" stroke="black" stroke-width="2" d="M476,-260.14C476,-260.14 536,-260.14 536,-260.14 541.5,-260.14 547,-265.64 547,-271.14 547,-271.14 547,-282.14 547,-282.14 547,-287.64 541.5,-293.14 536,-293.14 536,-293.14 476,-293.14 476,-293.14 470.5,-293.14 465,-287.64 465,-282.14 465,-282.14 465,-271.14 465,-271.14 465,-265.64 470.5,-260.14 476,-260.14"/>
</g>
<!-- binding&#45;&gt;discovering -->
<g id="edge11" class="edge transition">
<title>binding&#45;&gt;discovering</title>
<path fill="none" stroke="black" d="M120.93,-472.46C187.49,-485.49 347.87,-506.43 446,-431.64 485.74,-401.35 498.72,-340.89 502.95,-305.09"/>
<polygon fill="black" stroke="black" points="506.46,-305.14 504,-294.83 499.5,-304.42 506.46,-305.14"/>
<text text-anchor="start" x="250.5" y="-487.64" font-family="Helvetica,sans-Serif" font-size="10.00">Register Host &#45; Re&#45;registration &#160;&#160;</text>
</g>
<!-- disconnected -->
<g id="node2" class="node state regular">
<title>disconnected</title>
<polygon fill="#ffffff" fill-opacity="0.003922" stroke="transparent" stroke-width="2" points="136.5,-429.64 42.5,-429.64 42.5,-393.64 136.5,-393.64 136.5,-429.64"/>
<text text-anchor="start" x="53.5" y="-408.04" font-family="Helvetica,sans-Serif" font-size="12.00">disconnected</text>
<path fill="none" stroke="black" stroke-width="2" d="M54.5,-395.14C54.5,-395.14 124.5,-395.14 124.5,-395.14 130,-395.14 135.5,-400.64 135.5,-406.14 135.5,-406.14 135.5,-417.14 135.5,-417.14 135.5,-422.64 130,-428.14 124.5,-428.14 124.5,-428.14 54.5,-428.14 54.5,-428.14 49,-428.14 43.5,-422.64 43.5,-417.14 43.5,-417.14 43.5,-406.14 43.5,-406.14 43.5,-400.64 49,-395.14 54.5,-395.14"/>
</g>
<!-- disconnected&#45;&gt;discovering -->
<g id="edge1" class="edge transition">
<title>disconnected&#45;&gt;discovering</title>
<path fill="none" stroke="black" d="M136.71,-414.26C221.13,-418.17 396.21,-421.96 446,-389.64 475.5,-370.49 491.11,-331.58 498.71,-304.81"/>
<polygon fill="black" stroke="black" points="502.16,-305.43 501.32,-294.87 495.39,-303.65 502.16,-305.43"/>
<text text-anchor="start" x="218" y="-419.64" font-family="Helvetica,sans-Serif" font-size="10.00">Refresh &#45; Host reconnected without inventory &#160;&#160;</text>
</g>
<!-- disconnected&#45;&gt;discovering -->
<g id="edge6" class="edge transition">
<title>disconnected&#45;&gt;discovering</title>
<path fill="none" stroke="black" d="M136.79,-398.68C150.5,-394.53 165.46,-389.69 179,-384.64 187.2,-381.58 188.52,-378.81 197,-376.64 250.79,-362.84 397.45,-382.59 446,-355.64 466.77,-344.11 482.37,-321.86 492.29,-303.9"/>
<polygon fill="black" stroke="black" points="495.42,-305.46 496.96,-294.98 489.22,-302.22 495.42,-305.46"/>
<text text-anchor="start" x="250.5" y="-379.64" font-family="Helvetica,sans-Serif" font-size="10.00">Register Host &#45; Re&#45;registration &#160;&#160;</text>
</g>
<!-- discovering&#45;&gt;discovering -->
<g id="edge2" class="edge transition">
<title>discovering&#45;&gt;discovering</title>
<path fill="none" stroke="black" d="M489.36,-294.79C486.8,-304.18 492.34,-312.64 506,-312.64 514.32,-312.64 519.63,-309.5 521.93,-304.92"/>
<polygon fill="black" stroke="black" points="525.43,-305.01 522.64,-294.79 518.45,-304.52 525.43,-305.01"/>
<text text-anchor="start" x="402.5" y="-315.64" font-family="Helvetica,sans-Serif" font-size="10.00">Refresh &#45; Host reconnected without inventory &#160;&#160;</text>
</g>
<!-- discovering&#45;&gt;discovering -->
<g id="edge4" class="edge transition">
<title>discovering&#45;&gt;discovering</title>
<path fill="none" stroke="black" d="M478.1,-294.9C463.64,-312.04 472.94,-330.64 506,-330.64 533.38,-330.64 544.46,-317.88 539.25,-303.76"/>
<polygon fill="black" stroke="black" points="542.06,-301.65 533.9,-294.9 536.07,-305.27 542.06,-301.65"/>
<text text-anchor="start" x="435" y="-333.64" font-family="Helvetica,sans-Serif" font-size="10.00">Register Host &#45; Re&#45;registration &#160;&#160;</text>
</g>
<!-- initial -->
<g id="node4" class="node state regular">
<title>initial</title>
<polygon fill="#ffffff" fill-opacity="0.003922" stroke="transparent" stroke-width="2" points="117.5,-375.64 61.5,-375.64 61.5,-339.64 117.5,-339.64 117.5,-375.64"/>
<text text-anchor="start" x="75" y="-354.04" font-family="Helvetica,sans-Serif" font-size="12.00">initial</text>
<path fill="none" stroke="black" stroke-width="2" d="M73.5,-341.14C73.5,-341.14 105.5,-341.14 105.5,-341.14 111,-341.14 116.5,-346.64 116.5,-352.14 116.5,-352.14 116.5,-363.14 116.5,-363.14 116.5,-368.64 111,-374.14 105.5,-374.14 105.5,-374.14 73.5,-374.14 73.5,-374.14 68,-374.14 62.5,-368.64 62.5,-363.14 62.5,-363.14 62.5,-352.14 62.5,-352.14 62.5,-346.64 68,-341.14 73.5,-341.14"/>
</g>
<!-- initial&#45;&gt;discovering -->
<g id="edge3" class="edge transition">
<title>initial&#45;&gt;discovering</title>
<path fill="none" stroke="black" d="M117.7,-354.27C199.52,-344.11 438.2,-314.33 446,-311.64 454.51,-308.7 463.13,-304.45 471.07,-299.92"/>
<polygon fill="black" stroke="black" points="472.92,-302.89 479.68,-294.73 469.31,-296.89 472.92,-302.89"/>
<text text-anchor="start" x="245" y="-345.64" font-family="Helvetica,sans-Serif" font-size="10.00">Register Host &#45; Initial registration &#160;&#160;</text>
</g>
<!-- insufficient -->
<g id="node5" class="node state regular">
<title>insufficient</title>
<polygon fill="#ffffff" fill-opacity="0.003922" stroke="transparent" stroke-width="2" points="129.5,-321.64 49.5,-321.64 49.5,-285.64 129.5,-285.64 129.5,-321.64"/>
<text text-anchor="start" x="60.5" y="-300.04" font-family="Helvetica,sans-Serif" font-size="12.00">insufficient</text>
<path fill="none" stroke="black" stroke-width="2" d="M61.5,-287.14C61.5,-287.14 117.5,-287.14 117.5,-287.14 123,-287.14 128.5,-292.64 128.5,-298.14 128.5,-298.14 128.5,-309.14 128.5,-309.14 128.5,-314.64 123,-320.14 117.5,-320.14 117.5,-320.14 61.5,-320.14 61.5,-320.14 56,-320.14 50.5,-314.64 50.5,-309.14 50.5,-309.14 50.5,-298.14 50.5,-298.14 50.5,-292.64 56,-287.14 61.5,-287.14"/>
</g>
<!-- insufficient&#45;&gt;discovering -->
<g id="edge7" class="edge transition">
<title>insufficient&#45;&gt;discovering</title>
<path fill="none" stroke="black" d="M129.71,-301.5C195.24,-297.87 331.14,-290.06 446,-281.64 448.51,-281.45 451.08,-281.26 453.68,-281.06"/>
<polygon fill="black" stroke="black" points="454.06,-284.54 463.75,-280.25 453.5,-277.56 454.06,-284.54"/>
<text text-anchor="start" x="250.5" y="-299.64" font-family="Helvetica,sans-Serif" font-size="10.00">Register Host &#45; Re&#45;registration &#160;&#160;</text>
</g>
<!-- known -->
<g id="node6" class="node state regular">
<title>known</title>
<polygon fill="#ffffff" fill-opacity="0.003922" stroke="transparent" stroke-width="2" points="118.5,-267.64 60.5,-267.64 60.5,-231.64 118.5,-231.64 118.5,-267.64"/>
<text text-anchor="start" x="71.5" y="-246.04" font-family="Helvetica,sans-Serif" font-size="12.00">known</text>
<path fill="none" stroke="black" stroke-width="2" d="M72.5,-233.14C72.5,-233.14 106.5,-233.14 106.5,-233.14 112,-233.14 117.5,-238.64 117.5,-244.14 117.5,-244.14 117.5,-255.14 117.5,-255.14 117.5,-260.64 112,-266.14 106.5,-266.14 106.5,-266.14 72.5,-266.14 72.5,-266.14 67,-266.14 61.5,-260.64 61.5,-255.14 61.5,-255.14 61.5,-244.14 61.5,-244.14 61.5,-238.64 67,-233.14 72.5,-233.14"/>
</g>
<!-- known&#45;&gt;discovering -->
<g id="edge5" class="edge transition">
<title>known&#45;&gt;discovering</title>
<path fill="none" stroke="black" d="M118.64,-250.9C178.78,-253.67 324.29,-260.86 446,-270.64 448.51,-270.84 451.09,-271.06 453.69,-271.29"/>
<polygon fill="black" stroke="black" points="453.48,-274.78 463.76,-272.22 454.12,-267.81 453.48,-274.78"/>
<text text-anchor="start" x="250.5" y="-273.64" font-family="Helvetica,sans-Serif" font-size="10.00">Register Host &#45; Re&#45;registration &#160;&#160;</text>
</g>
<!-- preparing&#45;for&#45;installation -->
<g id="node7" class="node state regular">
<title>preparing&#45;for&#45;installation</title>
<polygon fill="#ffffff" fill-opacity="0.003922" stroke="transparent" stroke-width="2" points="165.5,-213.64 13.5,-213.64 13.5,-177.64 165.5,-177.64 165.5,-213.64"/>
<text text-anchor="start" x="24.5" y="-192.04" font-family="Helvetica,sans-Serif" font-size="12.00">preparing&#45;for&#45;installation</text>
<path fill="none" stroke="black" stroke-width="2" d="M25.5,-179.14C25.5,-179.14 153.5,-179.14 153.5,-179.14 159,-179.14 164.5,-184.64 164.5,-190.14 164.5,-190.14 164.5,-201.14 164.5,-201.14 164.5,-206.64 159,-212.14 153.5,-212.14 153.5,-212.14 25.5,-212.14 25.5,-212.14 20,-212.14 14.5,-206.64 14.5,-201.14 14.5,-201.14 14.5,-190.14 14.5,-190.14 14.5,-184.64 20,-179.14 25.5,-179.14"/>
</g>
<!-- preparing&#45;for&#45;installation&#45;&gt;discovering -->
<g id="edge9" class="edge transition">
<title>preparing&#45;for&#45;installation&#45;&gt;discovering</title>
<path fill="none" stroke="black" d="M165.51,-195.55C238.98,-197.62 353.13,-206.61 446,-239.64 455.3,-242.95 464.67,-247.91 473.12,-253.13"/>
<polygon fill="black" stroke="black" points="471.25,-256.09 481.55,-258.61 475.07,-250.22 471.25,-256.09"/>
<text text-anchor="start" x="250.5" y="-242.64" font-family="Helvetica,sans-Serif" font-size="10.00">Register Host &#45; Re&#45;registration &#160;&#160;</text>
</g>
<!-- preparing&#45;successful -->
<g id="node8" class="node state regular">
<title>preparing&#45;successful</title>
<polygon fill="#ffffff" fill-opacity="0.003922" stroke="transparent" stroke-width="2" points="156.5,-159.64 22.5,-159.64 22.5,-123.64 156.5,-123.64 156.5,-159.64"/>
<text text-anchor="start" x="33.5" y="-138.04" font-family="Helvetica,sans-Serif" font-size="12.00">preparing&#45;successful</text>
<path fill="none" stroke="black" stroke-width="2" d="M34.5,-125.14C34.5,-125.14 144.5,-125.14 144.5,-125.14 150,-125.14 155.5,-130.64 155.5,-136.14 155.5,-136.14 155.5,-147.14 155.5,-147.14 155.5,-152.64 150,-158.14 144.5,-158.14 144.5,-158.14 34.5,-158.14 34.5,-158.14 29,-158.14 23.5,-152.64 23.5,-147.14 23.5,-147.14 23.5,-136.14 23.5,-136.14 23.5,-130.64 29,-125.14 34.5,-125.14"/>
</g>
<!-- preparing&#45;successful&#45;&gt;discovering -->
<g id="edge10" class="edge transition">
<title>preparing&#45;successful&#45;&gt;discovering</title>
<path fill="none" stroke="black" d="M156.71,-132.78C232.63,-126.09 357.92,-125.98 446,-181.64 470.48,-197.11 486.46,-226.8 495.54,-248.89"/>
<polygon fill="black" stroke="black" points="492.36,-250.36 499.23,-258.43 498.89,-247.84 492.36,-250.36"/>
<text text-anchor="start" x="250.5" y="-184.64" font-family="Helvetica,sans-Serif" font-size="10.00">Register Host &#45; Re&#45;registration &#160;&#160;</text>
</g>
<!-- resetting -->
<g id="node9" class="node state regular">
<title>resetting</title>
<polygon fill="#ffffff" fill-opacity="0.003922" stroke="transparent" stroke-width="2" points="124,-105.64 55,-105.64 55,-69.64 124,-69.64 124,-105.64"/>
<text text-anchor="start" x="66.5" y="-84.04" font-family="Helvetica,sans-Serif" font-size="12.00">resetting</text>
<path fill="none" stroke="black" stroke-width="2" d="M67,-71.14C67,-71.14 112,-71.14 112,-71.14 117.5,-71.14 123,-76.64 123,-82.14 123,-82.14 123,-93.14 123,-93.14 123,-98.64 117.5,-104.14 112,-104.14 112,-104.14 67,-104.14 67,-104.14 61.5,-104.14 56,-98.64 56,-93.14 56,-93.14 56,-82.14 56,-82.14 56,-76.64 61.5,-71.14 67,-71.14"/>
</g>
<!-- resetting&#45;&gt;discovering -->
<g id="edge12" class="edge transition">
<title>resetting&#45;&gt;discovering</title>
<path fill="none" stroke="black" d="M124.26,-79.26C192.7,-64.4 349.45,-41.44 446,-114.64 487.9,-146.4 500.08,-210.85 503.59,-248.17"/>
<polygon fill="black" stroke="black" points="500.12,-248.68 504.4,-258.37 507.1,-248.13 500.12,-248.68"/>
<text text-anchor="start" x="197" y="-117.64" font-family="Helvetica,sans-Serif" font-size="10.00">Register Host &#45; Register non&#45;rebooting host in resetting &#160;&#160;</text>
</g>
<!-- resetting&#45;pending&#45;user&#45;action -->
<g id="node10" class="node state regular">
<title>resetting&#45;pending&#45;user&#45;action</title>
<polygon fill="#ffffff" fill-opacity="0.003922" stroke="transparent" stroke-width="2" points="179,-51.64 0,-51.64 0,-15.64 179,-15.64 179,-51.64"/>
<text text-anchor="start" x="11.5" y="-30.04" font-family="Helvetica,sans-Serif" font-size="12.00">resetting&#45;pending&#45;user&#45;action</text>
<path fill="none" stroke="black" stroke-width="2" d="M12,-17.14C12,-17.14 167,-17.14 167,-17.14 172.5,-17.14 178,-22.64 178,-28.14 178,-28.14 178,-39.14 178,-39.14 178,-44.64 172.5,-50.14 167,-50.14 167,-50.14 12,-50.14 12,-50.14 6.5,-50.14 1,-44.64 1,-39.14 1,-39.14 1,-28.14 1,-28.14 1,-22.64 6.5,-17.14 12,-17.14"/>
</g>
<!-- resetting&#45;pending&#45;user&#45;action&#45;&gt;discovering -->
<g id="edge8" class="edge transition">
<title>resetting&#45;pending&#45;user&#45;action&#45;&gt;discovering</title>
<path fill="none" stroke="black" d="M154.54,-15.61C232.45,2.11 363.73,17.87 446,-48.64 477,-73.7 495.01,-192.87 501.83,-248.24"/>
<polygon fill="black" stroke="black" points="498.38,-248.9 503.04,-258.42 505.33,-248.07 498.38,-248.9"/>
<text text-anchor="start" x="250.5" y="-51.64" font-family="Helvetica,sans-Serif" font-size="10.00">Register Host &#45; Re&#45;registration &#160;&#160;</text>
</g>
</g>
</svg>
