<?xml version="1.0" encoding="UTF-8" standalone="no"?>
<!DOCTYPE svg PUBLIC "-//W3C//DTD SVG 1.1//EN"
 "http://www.w3.org/Graphics/SVG/1.1/DTD/svg11.dtd">
<!-- Generated by graphviz version 12.1.0 (20240811.2233)
 -->
<!-- Title: state transitions Pages: 1 -->
<svg width="937pt" height="546pt"
 viewBox="0.00 0.00 936.50 545.91" xmlns="http://www.w3.org/2000/svg" xmlns:xlink="http://www.w3.org/1999/xlink">
<g id="graph0" class="graph" transform="scale(1 1) rotate(0) translate(4 541.91)">
<title>state transitions</title>
<polygon fill="white" stroke="none" points="-4,4 -4,-541.91 932.5,-541.91 932.5,4 -4,4"/>
<!-- binding -->
<g id="node1" class="node state regular">
<title>binding</title>
<polygon fill="#ffffff" fill-opacity="0.003922" stroke="none" stroke-width="2" points="117.25,-500.48 51.75,-500.48 51.75,-464.23 117.25,-464.23 117.25,-500.48"/>
<text text-anchor="start" x="62.75" y="-478.08" font-family="Helvetica,sans-Serif" font-size="12.00">binding</text>
<path fill="none" stroke="black" stroke-width="2" d="M64.17,-465.23C64.17,-465.23 104.83,-465.23 104.83,-465.23 110.54,-465.23 116.25,-470.94 116.25,-476.65 116.25,-476.65 116.25,-488.06 116.25,-488.06 116.25,-493.77 110.54,-499.48 104.83,-499.48 104.83,-499.48 64.17,-499.48 64.17,-499.48 58.46,-499.48 52.75,-493.77 52.75,-488.06 52.75,-488.06 52.75,-476.65 52.75,-476.65 52.75,-470.94 58.46,-465.23 64.17,-465.23"/>
</g>
<!-- disconnected -->
<g id="node2" class="node state regular">
<title>disconnected</title>
<polygon fill="#ffffff" fill-opacity="0.003922" stroke="none" stroke-width="2" points="755,-302.48 653.5,-302.48 653.5,-266.23 755,-266.23 755,-302.48"/>
<text text-anchor="start" x="664.5" y="-280.08" font-family="Helvetica,sans-Serif" font-size="12.00">disconnected</text>
<path fill="none" stroke="black" stroke-width="2" d="M665.92,-267.23C665.92,-267.23 742.58,-267.23 742.58,-267.23 748.29,-267.23 754,-272.94 754,-278.65 754,-278.65 754,-290.06 754,-290.06 754,-295.77 748.29,-301.48 742.58,-301.48 742.58,-301.48 665.92,-301.48 665.92,-301.48 660.21,-301.48 654.5,-295.77 654.5,-290.06 654.5,-290.06 654.5,-278.65 654.5,-278.65 654.5,-272.94 660.21,-267.23 665.92,-267.23"/>
</g>
<!-- binding&#45;&gt;disconnected -->
<g id="edge1" class="edge transition">
<title>binding&#45;&gt;disconnected</title>
<path fill="none" stroke="black" d="M117.22,-491.37C207.98,-515.13 472.59,-569.93 635.5,-453.36 680.83,-420.92 695.86,-352.98 700.82,-313.84"/>
<polygon fill="black" stroke="black" points="704.29,-314.29 701.91,-303.96 697.33,-313.52 704.29,-314.29"/>
<text text-anchor="start" x="187" y="-528.41" font-family="Helvetica,sans-Serif" font-size="10.00">Media Disconnect &#45; Move to disconnected when virtual media disconnects pre&#45;installation &#160;&#160;</text>
</g>
<!-- disconnected&#45;&gt;disconnected -->
<g id="edge2" class="edge transition">
<title>disconnected&#45;&gt;disconnected</title>
<path fill="none" stroke="black" d="M677.91,-302.2C673.44,-311.77 682.22,-320.48 704.25,-320.48 716.99,-320.48 725.29,-317.57 729.17,-313.26"/>
<polygon fill="black" stroke="black" points="732.6,-314.06 730.39,-303.7 725.66,-313.18 732.6,-314.06"/>
<text text-anchor="start" x="480" y="-323.73" font-family="Helvetica,sans-Serif" font-size="10.00">Media Disconnect &#45; Move to disconnected when virtual media disconnects pre&#45;installation &#160;&#160;</text>
</g>
<!-- disconnected&#45;&gt;disconnected -->
<g id="edge3" class="edge transition">
<title>disconnected&#45;&gt;disconnected</title>
<path fill="none" stroke="black" d="M660.21,-302.38C636.63,-319.64 651.32,-338.48 704.25,-338.48 749.33,-338.48 766.66,-324.82 756.26,-310.1"/>
<polygon fill="black" stroke="black" points="759,-307.88 749.38,-303.43 754.12,-312.9 759,-307.88"/>
<text text-anchor="start" x="544.5" y="-341.73" font-family="Helvetica,sans-Serif" font-size="10.00">Refresh &#45; Move host to disconnected when connected times out &#160;&#160;</text>
</g>
<!-- discovering -->
<g id="node3" class="node state regular">
<title>discovering</title>
<polygon fill="#ffffff" fill-opacity="0.003922" stroke="none" stroke-width="2" points="129.62,-434.48 39.38,-434.48 39.38,-398.23 129.62,-398.23 129.62,-434.48"/>
<text text-anchor="start" x="50.38" y="-412.08" font-family="Helvetica,sans-Serif" font-size="12.00">discovering</text>
<path fill="none" stroke="black" stroke-width="2" d="M51.79,-399.23C51.79,-399.23 117.21,-399.23 117.21,-399.23 122.92,-399.23 128.62,-404.94 128.62,-410.65 128.62,-410.65 128.62,-422.06 128.62,-422.06 128.62,-427.77 122.92,-433.48 117.21,-433.48 117.21,-433.48 51.79,-433.48 51.79,-433.48 46.08,-433.48 40.38,-427.77 40.38,-422.06 40.38,-422.06 40.38,-410.65 40.38,-410.65 40.38,-404.94 46.08,-399.23 51.79,-399.23"/>
</g>
<!-- discovering&#45;&gt;disconnected -->
<g id="edge4" class="edge transition">
<title>discovering&#45;&gt;disconnected</title>
<path fill="none" stroke="black" d="M129.42,-420.58C147.27,-422.09 168.1,-423.61 187,-424.36 236.79,-426.32 593.28,-450.83 635.5,-424.36 674.38,-399.98 691.5,-346.26 698.61,-312.91"/>
<polygon fill="black" stroke="black" points="701.96,-314.01 700.44,-303.53 695.09,-312.67 701.96,-314.01"/>
<text text-anchor="start" x="187" y="-439.82" font-family="Helvetica,sans-Serif" font-size="10.00">Media Disconnect &#45; Move to disconnected when virtual media disconnects pre&#45;installation &#160;&#160;</text>
</g>
<!-- discovering&#45;&gt;disconnected -->
<g id="edge5" class="edge transition">
<title>discovering&#45;&gt;disconnected</title>
<path fill="none" stroke="black" d="M129.43,-412.15C147.28,-410.55 168.11,-408.82 187,-407.61 236.78,-404.39 592.17,-413.06 635.5,-388.36 664.4,-371.88 683.08,-337.46 693.36,-312.73"/>
<polygon fill="black" stroke="black" points="696.56,-314.14 696.94,-303.56 690.04,-311.59 696.56,-314.14"/>
<text text-anchor="start" x="251.5" y="-410.86" font-family="Helvetica,sans-Serif" font-size="10.00">Refresh &#45; Move host to disconnected when connected times out &#160;&#160;</text>
</g>
<!-- insufficient -->
<g id="node4" class="node state regular">
<title>insufficient</title>
<polygon fill="#ffffff" fill-opacity="0.003922" stroke="none" stroke-width="2" points="128.12,-376.48 40.88,-376.48 40.88,-340.23 128.12,-340.23 128.12,-376.48"/>
<text text-anchor="start" x="51.88" y="-354.08" font-family="Helvetica,sans-Serif" font-size="12.00">insufficient</text>
<path fill="none" stroke="black" stroke-width="2" d="M53.29,-341.23C53.29,-341.23 115.71,-341.23 115.71,-341.23 121.42,-341.23 127.12,-346.94 127.12,-352.65 127.12,-352.65 127.12,-364.06 127.12,-364.06 127.12,-369.77 121.42,-375.48 115.71,-375.48 115.71,-375.48 53.29,-375.48 53.29,-375.48 47.58,-375.48 41.88,-369.77 41.88,-364.06 41.88,-364.06 41.88,-352.65 41.88,-352.65 41.88,-346.94 47.58,-341.23 53.29,-341.23"/>
</g>
<!-- insufficient&#45;&gt;disconnected -->
<g id="edge6" class="edge transition">
<title>insufficient&#45;&gt;disconnected</title>
<path fill="none" stroke="black" d="M127.82,-361.97C240.3,-370.93 544.32,-390.81 635.5,-352.36 655.46,-343.94 672.63,-326.53 684.68,-311.44"/>
<polygon fill="black" stroke="black" points="687.34,-313.73 690.59,-303.64 681.76,-309.5 687.34,-313.73"/>
<text text-anchor="start" x="187" y="-378.39" font-family="Helvetica,sans-Serif" font-size="10.00">Media Disconnect &#45; Move to disconnected when virtual media disconnects pre&#45;installation &#160;&#160;</text>
</g>
<!-- insufficient&#45;&gt;disconnected -->
<g id="edge7" class="edge transition">
<title>insufficient&#45;&gt;disconnected</title>
<path fill="none" stroke="black" d="M127.69,-347.27C145.82,-342.93 167.33,-338.35 187,-335.61 384.74,-308.07 440.29,-352.24 635.5,-310.36 640.77,-309.23 646.16,-307.75 651.5,-306.07"/>
<polygon fill="black" stroke="black" points="652.54,-309.42 660.88,-302.88 650.28,-302.79 652.54,-309.42"/>
<text text-anchor="start" x="251.5" y="-338.86" font-family="Helvetica,sans-Serif" font-size="10.00">Refresh &#45; Move host to disconnected when connected times out &#160;&#160;</text>
</g>
<!-- known -->
<g id="node5" class="node state regular">
<title>known</title>
<polygon fill="#ffffff" fill-opacity="0.003922" stroke="none" stroke-width="2" points="115,-313.48 54,-313.48 54,-277.23 115,-277.23 115,-313.48"/>
<text text-anchor="start" x="65" y="-291.08" font-family="Helvetica,sans-Serif" font-size="12.00">known</text>
<path fill="none" stroke="black" stroke-width="2" d="M66.42,-278.23C66.42,-278.23 102.58,-278.23 102.58,-278.23 108.29,-278.23 114,-283.94 114,-289.65 114,-289.65 114,-301.06 114,-301.06 114,-306.77 108.29,-312.48 102.58,-312.48 102.58,-312.48 66.42,-312.48 66.42,-312.48 60.71,-312.48 55,-306.77 55,-301.06 55,-301.06 55,-289.65 55,-289.65 55,-283.94 60.71,-278.23 66.42,-278.23"/>
</g>
<!-- known&#45;&gt;disconnected -->
<g id="edge8" class="edge transition">
<title>known&#45;&gt;disconnected</title>
<path fill="none" stroke="black" d="M114.88,-294.83C210.19,-293.14 512.15,-287.76 642.44,-285.44"/>
<polygon fill="black" stroke="black" points="642.31,-288.94 652.24,-285.26 642.18,-281.94 642.31,-288.94"/>
<text text-anchor="start" x="187" y="-296.76" font-family="Helvetica,sans-Serif" font-size="10.00">Media Disconnect &#45; Move to disconnected when virtual media disconnects pre&#45;installation &#160;&#160;</text>
</g>
<!-- known&#45;&gt;disconnected -->
<g id="edge9" class="edge transition">
<title>known&#45;&gt;disconnected</title>
<path fill="none" stroke="black" d="M114.86,-285.47C134.91,-279.25 162.24,-271.81 187,-268.61 384.68,-242.99 437.47,-245.89 635.5,-268.61 637.7,-268.86 639.94,-269.16 642.2,-269.49"/>
<polygon fill="black" stroke="black" points="641.59,-272.94 652.04,-271.18 642.77,-266.04 641.59,-272.94"/>
<text text-anchor="start" x="251.5" y="-271.86" font-family="Helvetica,sans-Serif" font-size="10.00">Refresh &#45; Move host to disconnected when connected times out &#160;&#160;</text>
</g>
<!-- pending&#45;for&#45;input -->
<g id="node6" class="node state regular">
<title>pending&#45;for&#45;input</title>
<polygon fill="#ffffff" fill-opacity="0.003922" stroke="none" stroke-width="2" points="146.88,-244.48 22.13,-244.48 22.13,-208.23 146.88,-208.23 146.88,-244.48"/>
<text text-anchor="start" x="33.12" y="-222.08" font-family="Helvetica,sans-Serif" font-size="12.00">pending&#45;for&#45;input</text>
<path fill="none" stroke="black" stroke-width="2" d="M34.54,-209.23C34.54,-209.23 134.46,-209.23 134.46,-209.23 140.17,-209.23 145.88,-214.94 145.88,-220.65 145.88,-220.65 145.88,-232.06 145.88,-232.06 145.88,-237.77 140.17,-243.48 134.46,-243.48 134.46,-243.48 34.54,-243.48 34.54,-243.48 28.83,-243.48 23.12,-237.77 23.12,-232.06 23.12,-232.06 23.12,-220.65 23.12,-220.65 23.12,-214.94 28.83,-209.23 34.54,-209.23"/>
</g>
<!-- pending&#45;for&#45;input&#45;&gt;disconnected -->
<g id="edge10" class="edge transition">
<title>pending&#45;for&#45;input&#45;&gt;disconnected</title>
<path fill="none" stroke="black" d="M146.43,-222.45C270.17,-215.28 546.68,-203.38 635.5,-233.61 650.91,-238.85 665.67,-249.06 677.45,-258.95"/>
<polygon fill="black" stroke="black" points="674.9,-261.37 684.71,-265.37 679.54,-256.12 674.9,-261.37"/>
<text text-anchor="start" x="187" y="-236.86" font-family="Helvetica,sans-Serif" font-size="10.00">Media Disconnect &#45; Move to disconnected when virtual media disconnects pre&#45;installation &#160;&#160;</text>
</g>
<!-- pending&#45;for&#45;input&#45;&gt;disconnected -->
<g id="edge11" class="edge transition">
<title>pending&#45;for&#45;input&#45;&gt;disconnected</title>
<path fill="none" stroke="black" d="M138.9,-208.25C154.25,-203.87 171.13,-199.81 187,-197.61 285.72,-183.89 545.92,-153.91 635.5,-197.61 660.36,-209.74 678.77,-235.89 690.07,-256.32"/>
<polygon fill="black" stroke="black" points="686.9,-257.8 694.63,-265.04 693.1,-254.56 686.9,-257.8"/>
<text text-anchor="start" x="251.5" y="-200.86" font-family="Helvetica,sans-Serif" font-size="10.00">Refresh &#45; Move host to disconnected when connected times out &#160;&#160;</text>
</g>
<!-- preparing&#45;failed -->
<g id="node7" class="node state regular">
<title>preparing&#45;failed</title>
<polygon fill="#ffffff" fill-opacity="0.003922" stroke="none" stroke-width="2" points="143.12,-185.48 25.88,-185.48 25.88,-149.23 143.12,-149.23 143.12,-185.48"/>
<text text-anchor="start" x="36.88" y="-163.08" font-family="Helvetica,sans-Serif" font-size="12.00">preparing&#45;failed</text>
<path fill="none" stroke="black" stroke-width="2" d="M38.29,-150.23C38.29,-150.23 130.71,-150.23 130.71,-150.23 136.42,-150.23 142.12,-155.94 142.12,-161.65 142.12,-161.65 142.12,-173.06 142.12,-173.06 142.12,-178.77 136.42,-184.48 130.71,-184.48 130.71,-184.48 38.29,-184.48 38.29,-184.48 32.58,-184.48 26.88,-178.77 26.88,-173.06 26.88,-173.06 26.88,-161.65 26.88,-161.65 26.88,-155.94 32.58,-150.23 38.29,-150.23"/>
</g>
<!-- preparing&#45;failed&#45;&gt;disconnected -->
<g id="edge12" class="edge transition">
<title>preparing&#45;failed&#45;&gt;disconnected</title>
<path fill="none" stroke="black" d="M143.04,-158.86C266.86,-141.74 554,-108.75 635.5,-157.61 670.8,-178.76 688.73,-225.27 697.03,-255.68"/>
<polygon fill="black" stroke="black" points="693.54,-256.15 699.38,-264.99 700.33,-254.44 693.54,-256.15"/>
<text text-anchor="start" x="251.5" y="-160.86" font-family="Helvetica,sans-Serif" font-size="10.00">Refresh &#45; Move host to disconnected when connected times out &#160;&#160;</text>
</g>
<!-- preparing&#45;for&#45;installation -->
<g id="node8" class="node state regular">
<title>preparing&#45;for&#45;installation</title>
<polygon fill="#ffffff" fill-opacity="0.003922" stroke="none" stroke-width="2" points="169,-131.48 0,-131.48 0,-95.23 169,-95.23 169,-131.48"/>
<text text-anchor="start" x="11" y="-109.08" font-family="Helvetica,sans-Serif" font-size="12.00">preparing&#45;for&#45;installation</text>
<path fill="none" stroke="black" stroke-width="2" d="M12.42,-96.23C12.42,-96.23 156.58,-96.23 156.58,-96.23 162.29,-96.23 168,-101.94 168,-107.65 168,-107.65 168,-119.06 168,-119.06 168,-124.77 162.29,-130.48 156.58,-130.48 156.58,-130.48 12.42,-130.48 12.42,-130.48 6.71,-130.48 1,-124.77 1,-119.06 1,-119.06 1,-107.65 1,-107.65 1,-101.94 6.71,-96.23 12.42,-96.23"/>
</g>
<!-- preparing&#45;for&#45;installation&#45;&gt;disconnected -->
<g id="edge13" class="edge transition">
<title>preparing&#45;for&#45;installation&#45;&gt;disconnected</title>
<path fill="none" stroke="black" d="M168.81,-102.7C303.6,-87.25 561.84,-65.58 635.5,-115.61 681.77,-147.03 696.45,-215.78 701.1,-255.15"/>
<polygon fill="black" stroke="black" points="697.59,-255.25 702.09,-264.84 704.55,-254.54 697.59,-255.25"/>
<text text-anchor="start" x="225.25" y="-118.86" font-family="Helvetica,sans-Serif" font-size="10.00">Refresh &#45; Move preparing host to disconnected when connection times out &#160;&#160;</text>
</g>
<!-- preparing&#45;successful -->
<g id="node9" class="node state regular">
<title>preparing&#45;successful</title>
<polygon fill="#ffffff" fill-opacity="0.003922" stroke="none" stroke-width="2" points="157.38,-77.48 11.62,-77.48 11.62,-41.23 157.38,-41.23 157.38,-77.48"/>
<text text-anchor="start" x="22.62" y="-55.08" font-family="Helvetica,sans-Serif" font-size="12.00">preparing&#45;successful</text>
<path fill="none" stroke="black" stroke-width="2" d="M24.04,-42.23C24.04,-42.23 144.96,-42.23 144.96,-42.23 150.67,-42.23 156.38,-47.94 156.38,-53.65 156.38,-53.65 156.38,-65.06 156.38,-65.06 156.38,-70.77 150.67,-76.48 144.96,-76.48 144.96,-76.48 24.04,-76.48 24.04,-76.48 18.33,-76.48 12.62,-70.77 12.62,-65.06 12.62,-65.06 12.62,-53.65 12.62,-53.65 12.62,-47.94 18.33,-42.23 24.04,-42.23"/>
</g>
<!-- preparing&#45;successful&#45;&gt;disconnected -->
<g id="edge14" class="edge transition">
<title>preparing&#45;successful&#45;&gt;disconnected</title>
<path fill="none" stroke="black" d="M139.71,-41.31C246.51,-9.45 486.68,43.53 635.5,-67.61 694.49,-111.66 703.47,-206.78 704.01,-255.02"/>
<polygon fill="black" stroke="black" points="700.51,-254.97 703.99,-264.98 707.51,-254.98 700.51,-254.97"/>
<text text-anchor="start" x="225.25" y="-70.86" font-family="Helvetica,sans-Serif" font-size="10.00">Refresh &#45; Move preparing host to disconnected when connection times out &#160;&#160;</text>
</g>
</g>
</svg>
