<?xml version="1.0" encoding="UTF-8" standalone="no"?>
<!DOCTYPE svg PUBLIC "-//W3C//DTD SVG 1.1//EN"
 "http://www.w3.org/Graphics/SVG/1.1/DTD/svg11.dtd">
<!-- Generated by graphviz version 7.1.0 (0)
 -->
<!-- Title: state transitions Pages: 1 -->
<svg width="614pt" height="368pt"
 viewBox="0.00 0.00 614.00 367.54" xmlns="http://www.w3.org/2000/svg" xmlns:xlink="http://www.w3.org/1999/xlink">
<g id="graph0" class="graph" transform="scale(1 1) rotate(0) translate(4 363.54)">
<title>state transitions</title>
<polygon fill="white" stroke="none" points="-4,4 -4,-363.54 610,-363.54 610,4 -4,4"/>
<!-- added&#45;to&#45;existing&#45;cluster -->
<g id="node1" class="node state regular">
<title>added&#45;to&#45;existing&#45;cluster</title>
<polygon fill="#ffffff" fill-opacity="0.003922" stroke="none" stroke-width="2" points="153,-352.54 0,-352.54 0,-316.54 153,-316.54 153,-352.54"/>
<text text-anchor="start" x="11.5" y="-330.94" font-family="Helvetica,sans-Serif" font-size="12.00">added&#45;to&#45;existing&#45;cluster</text>
<path fill="none" stroke="black" stroke-width="2" d="M12,-318.04C12,-318.04 141,-318.04 141,-318.04 146.5,-318.04 152,-323.54 152,-329.04 152,-329.04 152,-340.04 152,-340.04 152,-345.54 146.5,-351.04 141,-351.04 141,-351.04 12,-351.04 12,-351.04 6.5,-351.04 1,-345.54 1,-340.04 1,-340.04 1,-329.04 1,-329.04 1,-323.54 6.5,-318.04 12,-318.04"/>
</g>
<!-- unbinding&#45;pending&#45;user&#45;action -->
<g id="node7" class="node state regular">
<title>unbinding&#45;pending&#45;user&#45;action</title>
<polygon fill="#ffffff" fill-opacity="0.003922" stroke="none" stroke-width="2" points="606,-199.54 420,-199.54 420,-163.54 606,-163.54 606,-199.54"/>
<text text-anchor="start" x="431" y="-177.94" font-family="Helvetica,sans-Serif" font-size="12.00">unbinding&#45;pending&#45;user&#45;action</text>
<path fill="none" stroke="black" stroke-width="2" d="M432,-165.04C432,-165.04 594,-165.04 594,-165.04 599.5,-165.04 605,-170.54 605,-176.04 605,-176.04 605,-187.04 605,-187.04 605,-192.54 599.5,-198.04 594,-198.04 594,-198.04 432,-198.04 432,-198.04 426.5,-198.04 421,-192.54 421,-187.04 421,-187.04 421,-176.04 421,-176.04 421,-170.54 426.5,-165.04 432,-165.04"/>
</g>
<!-- added&#45;to&#45;existing&#45;cluster&#45;&gt;unbinding&#45;pending&#45;user&#45;action -->
<g id="edge8" class="edge transition">
<title>added&#45;to&#45;existing&#45;cluster&#45;&gt;unbinding&#45;pending&#45;user&#45;action</title>
<path fill="none" stroke="black" d="M152.74,-345.47C221.47,-351.88 323.97,-352.17 402,-312.54 446.48,-289.94 479.96,-240.58 497.71,-209.32"/>
<polygon fill="black" stroke="black" points="500.64,-211.25 502.4,-200.8 494.51,-207.88 500.64,-211.25"/>
<text text-anchor="start" x="178" y="-351.54" font-family="Helvetica,sans-Serif" font-size="10.00">Unbind Host &#45; Unbind during or after installation &#160;&#160;</text>
</g>
<!-- cancelled -->
<g id="node2" class="node state regular">
<title>cancelled</title>
<polygon fill="#ffffff" fill-opacity="0.003922" stroke="none" stroke-width="2" points="113.5,-296.54 39.5,-296.54 39.5,-260.54 113.5,-260.54 113.5,-296.54"/>
<text text-anchor="start" x="50.5" y="-274.94" font-family="Helvetica,sans-Serif" font-size="12.00">cancelled</text>
<path fill="none" stroke="black" stroke-width="2" d="M51.5,-262.04C51.5,-262.04 101.5,-262.04 101.5,-262.04 107,-262.04 112.5,-267.54 112.5,-273.04 112.5,-273.04 112.5,-284.04 112.5,-284.04 112.5,-289.54 107,-295.04 101.5,-295.04 101.5,-295.04 51.5,-295.04 51.5,-295.04 46,-295.04 40.5,-289.54 40.5,-284.04 40.5,-284.04 40.5,-273.04 40.5,-273.04 40.5,-267.54 46,-262.04 51.5,-262.04"/>
</g>
<!-- cancelled&#45;&gt;unbinding&#45;pending&#45;user&#45;action -->
<g id="edge2" class="edge transition">
<title>cancelled&#45;&gt;unbinding&#45;pending&#45;user&#45;action</title>
<path fill="none" stroke="black" d="M113.05,-286.46C174.36,-298.43 302.93,-315.98 402,-278.54 439.01,-264.55 471.61,-231.81 491.53,-208.23"/>
<polygon fill="black" stroke="black" points="494.18,-210.52 497.81,-200.56 488.76,-206.08 494.18,-210.52"/>
<text text-anchor="start" x="206" y="-303.54" font-family="Helvetica,sans-Serif" font-size="10.00">Reclaim Host &#45; Reclaim failed host &#160;&#160;</text>
</g>
<!-- cancelled&#45;&gt;unbinding&#45;pending&#45;user&#45;action -->
<g id="edge10" class="edge transition">
<title>cancelled&#45;&gt;unbinding&#45;pending&#45;user&#45;action</title>
<path fill="none" stroke="black" d="M113.44,-273.39C130.82,-270.94 151.99,-268.01 171,-265.54 273.55,-252.19 303.07,-267.68 402,-237.54 427.08,-229.89 453.31,-216.77 473.86,-205.14"/>
<polygon fill="black" stroke="black" points="475.55,-208.21 482.45,-200.17 472.04,-202.15 475.55,-208.21"/>
<text text-anchor="start" x="178" y="-268.54" font-family="Helvetica,sans-Serif" font-size="10.00">Unbind Host &#45; Unbind during or after installation &#160;&#160;</text>
</g>
<!-- error -->
<g id="node3" class="node state regular">
<title>error</title>
<polygon fill="#ffffff" fill-opacity="0.003922" stroke="none" stroke-width="2" points="104.5,-238.54 48.5,-238.54 48.5,-202.54 104.5,-202.54 104.5,-238.54"/>
<text text-anchor="start" x="64" y="-216.94" font-family="Helvetica,sans-Serif" font-size="12.00">error</text>
<path fill="none" stroke="black" stroke-width="2" d="M60.5,-204.04C60.5,-204.04 92.5,-204.04 92.5,-204.04 98,-204.04 103.5,-209.54 103.5,-215.04 103.5,-215.04 103.5,-226.04 103.5,-226.04 103.5,-231.54 98,-237.04 92.5,-237.04 92.5,-237.04 60.5,-237.04 60.5,-237.04 55,-237.04 49.5,-231.54 49.5,-226.04 49.5,-226.04 49.5,-215.04 49.5,-215.04 49.5,-209.54 55,-204.04 60.5,-204.04"/>
</g>
<!-- error&#45;&gt;unbinding&#45;pending&#45;user&#45;action -->
<g id="edge1" class="edge transition">
<title>error&#45;&gt;unbinding&#45;pending&#45;user&#45;action</title>
<path fill="none" stroke="black" d="M104.18,-221.75C159.86,-223.83 292.4,-226.46 402,-210.54 415.28,-208.61 429.27,-205.66 442.64,-202.36"/>
<polygon fill="black" stroke="black" points="443.42,-205.78 452.24,-199.91 441.69,-199 443.42,-205.78"/>
<text text-anchor="start" x="206" y="-225.54" font-family="Helvetica,sans-Serif" font-size="10.00">Reclaim Host &#45; Reclaim failed host &#160;&#160;</text>
</g>
<!-- error&#45;&gt;unbinding&#45;pending&#45;user&#45;action -->
<g id="edge9" class="edge transition">
<title>error&#45;&gt;unbinding&#45;pending&#45;user&#45;action</title>
<path fill="none" stroke="black" d="M104.23,-212.49C122.78,-207.27 148.17,-200.85 171,-197.54 250.45,-186.01 341.3,-182.2 409.23,-181.17"/>
<polygon fill="black" stroke="black" points="408.89,-184.68 418.85,-181.04 408.8,-177.68 408.89,-184.68"/>
<text text-anchor="start" x="178" y="-200.54" font-family="Helvetica,sans-Serif" font-size="10.00">Unbind Host &#45; Unbind during or after installation &#160;&#160;</text>
</g>
<!-- installed -->
<g id="node4" class="node state regular">
<title>installed</title>
<polygon fill="#ffffff" fill-opacity="0.003922" stroke="none" stroke-width="2" points="110.5,-182.54 42.5,-182.54 42.5,-146.54 110.5,-146.54 110.5,-182.54"/>
<text text-anchor="start" x="53.5" y="-160.94" font-family="Helvetica,sans-Serif" font-size="12.00">installed</text>
<path fill="none" stroke="black" stroke-width="2" d="M54.5,-148.04C54.5,-148.04 98.5,-148.04 98.5,-148.04 104,-148.04 109.5,-153.54 109.5,-159.04 109.5,-159.04 109.5,-170.04 109.5,-170.04 109.5,-175.54 104,-181.04 98.5,-181.04 98.5,-181.04 54.5,-181.04 54.5,-181.04 49,-181.04 43.5,-175.54 43.5,-170.04 43.5,-170.04 43.5,-159.04 43.5,-159.04 43.5,-153.54 49,-148.04 54.5,-148.04"/>
</g>
<!-- installed&#45;&gt;unbinding&#45;pending&#45;user&#45;action -->
<g id="edge7" class="edge transition">
<title>installed&#45;&gt;unbinding&#45;pending&#45;user&#45;action</title>
<path fill="none" stroke="black" d="M110.26,-163.11C168.88,-160.9 295.53,-157.67 402,-165.54 404.33,-165.71 406.69,-165.9 409.06,-166.11"/>
<polygon fill="black" stroke="black" points="408.48,-169.57 418.77,-167.06 409.16,-162.6 408.48,-169.57"/>
<text text-anchor="start" x="178" y="-168.54" font-family="Helvetica,sans-Serif" font-size="10.00">Unbind Host &#45; Unbind during or after installation &#160;&#160;</text>
</g>
<!-- reclaiming -->
<g id="node5" class="node state regular">
<title>reclaiming</title>
<polygon fill="#ffffff" fill-opacity="0.003922" stroke="none" stroke-width="2" points="115.5,-121.54 37.5,-121.54 37.5,-85.54 115.5,-85.54 115.5,-121.54"/>
<text text-anchor="start" x="48.5" y="-99.94" font-family="Helvetica,sans-Serif" font-size="12.00">reclaiming</text>
<path fill="none" stroke="black" stroke-width="2" d="M49.5,-87.04C49.5,-87.04 103.5,-87.04 103.5,-87.04 109,-87.04 114.5,-92.54 114.5,-98.04 114.5,-98.04 114.5,-109.04 114.5,-109.04 114.5,-114.54 109,-120.04 103.5,-120.04 103.5,-120.04 49.5,-120.04 49.5,-120.04 44,-120.04 38.5,-114.54 38.5,-109.04 38.5,-109.04 38.5,-98.04 38.5,-98.04 38.5,-92.54 44,-87.04 49.5,-87.04"/>
</g>
<!-- reclaiming&#45;&gt;unbinding&#45;pending&#45;user&#45;action -->
<g id="edge3" class="edge transition">
<title>reclaiming&#45;&gt;unbinding&#45;pending&#45;user&#45;action</title>
<path fill="none" stroke="black" d="M115.38,-106.12C176.35,-110.8 299.78,-122.41 402,-145.54 418.88,-149.35 436.85,-154.68 453.28,-160.06"/>
<polygon fill="black" stroke="black" points="451.79,-163.26 462.38,-163.11 454.01,-156.62 451.79,-163.26"/>
<text text-anchor="start" x="171" y="-148.54" font-family="Helvetica,sans-Serif" font-size="10.00">Reclaim Failed &#45; Reclaim failure for reclaiming host &#160;&#160;</text>
</g>
<!-- reclaiming&#45;&gt;unbinding&#45;pending&#45;user&#45;action -->
<g id="edge5" class="edge transition">
<title>reclaiming&#45;&gt;unbinding&#45;pending&#45;user&#45;action</title>
<path fill="none" stroke="black" d="M115.29,-94.3C177.18,-80.98 303.16,-61.49 402,-95.54 436.45,-107.4 468.36,-134.98 488.84,-155.73"/>
<polygon fill="black" stroke="black" points="486.14,-157.96 495.59,-162.76 491.19,-153.12 486.14,-157.96"/>
<text text-anchor="start" x="209" y="-98.54" font-family="Helvetica,sans-Serif" font-size="10.00">Refresh &#45; Refresh reclaiming host &#160;&#160;</text>
</g>
<!-- reclaiming&#45;rebooting -->
<g id="node6" class="node state regular">
<title>reclaiming&#45;rebooting</title>
<polygon fill="#ffffff" fill-opacity="0.003922" stroke="none" stroke-width="2" points="142.5,-53.54 10.5,-53.54 10.5,-17.54 142.5,-17.54 142.5,-53.54"/>
<text text-anchor="start" x="21.5" y="-31.94" font-family="Helvetica,sans-Serif" font-size="12.00">reclaiming&#45;rebooting</text>
<path fill="none" stroke="black" stroke-width="2" d="M22.5,-19.04C22.5,-19.04 130.5,-19.04 130.5,-19.04 136,-19.04 141.5,-24.54 141.5,-30.04 141.5,-30.04 141.5,-41.04 141.5,-41.04 141.5,-46.54 136,-52.04 130.5,-52.04 130.5,-52.04 22.5,-52.04 22.5,-52.04 17,-52.04 11.5,-46.54 11.5,-41.04 11.5,-41.04 11.5,-30.04 11.5,-30.04 11.5,-24.54 17,-19.04 22.5,-19.04"/>
</g>
<!-- reclaiming&#45;rebooting&#45;&gt;unbinding&#45;pending&#45;user&#45;action -->
<g id="edge4" class="edge transition">
<title>reclaiming&#45;rebooting&#45;&gt;unbinding&#45;pending&#45;user&#45;action</title>
<path fill="none" stroke="black" d="M142.16,-39.5C233.49,-45.28 390.53,-55.93 402,-61.54 443.8,-81.95 477.32,-125.72 495.93,-154.37"/>
<polygon fill="black" stroke="black" points="492.78,-155.94 501.07,-162.53 498.7,-152.21 492.78,-155.94"/>
<text text-anchor="start" x="171" y="-64.54" font-family="Helvetica,sans-Serif" font-size="10.00">Reclaim Failed &#45; Reclaim failure for reclaiming host &#160;&#160;</text>
</g>
<!-- reclaiming&#45;rebooting&#45;&gt;unbinding&#45;pending&#45;user&#45;action -->
<g id="edge6" class="edge transition">
<title>reclaiming&#45;rebooting&#45;&gt;unbinding&#45;pending&#45;user&#45;action</title>
<path fill="none" stroke="black" d="M138.16,-17.54C206.4,-0.9 318.57,15.4 402,-27.54 453.23,-53.9 485.89,-116.4 501.38,-153.17"/>
<polygon fill="black" stroke="black" points="498.07,-154.32 505.07,-162.28 504.56,-151.7 498.07,-154.32"/>
<text text-anchor="start" x="209" y="-30.54" font-family="Helvetica,sans-Serif" font-size="10.00">Refresh &#45; Refresh reclaiming host &#160;&#160;</text>
</g>
</g>
</svg>
