<?xml version="1.0" encoding="UTF-8" standalone="no"?>
<!DOCTYPE svg PUBLIC "-//W3C//DTD SVG 1.1//EN"
 "http://www.w3.org/Graphics/SVG/1.1/DTD/svg11.dtd">
<!-- Generated by graphviz version 5.0.0 (0)
 -->
<!-- Title: state transitions Pages: 1 -->
<svg width="913pt" height="785pt"
 viewBox="0.00 0.00 912.50 784.94" xmlns="http://www.w3.org/2000/svg" xmlns:xlink="http://www.w3.org/1999/xlink">
<g id="graph0" class="graph" transform="scale(1 1) rotate(0) translate(4 780.94)">
<title>state transitions</title>
<polygon fill="white" stroke="transparent" points="-4,4 -4,-780.94 908.5,-780.94 908.5,4 -4,4"/>
<!-- added&#45;to&#45;existing&#45;cluster -->
<g id="node1" class="node state regular">
<title>added&#45;to&#45;existing&#45;cluster</title>
<polygon fill="#ffffff" fill-opacity="0.003922" stroke="transparent" stroke-width="2" points="167,-756.94 14,-756.94 14,-720.94 167,-720.94 167,-756.94"/>
<text text-anchor="start" x="25.5" y="-735.34" font-family="Helvetica,sans-Serif" font-size="12.00">added&#45;to&#45;existing&#45;cluster</text>
<path fill="none" stroke="black" stroke-width="2" d="M26,-722.44C26,-722.44 155,-722.44 155,-722.44 160.5,-722.44 166,-727.94 166,-733.44 166,-733.44 166,-744.44 166,-744.44 166,-749.94 160.5,-755.44 155,-755.44 155,-755.44 26,-755.44 26,-755.44 20.5,-755.44 15,-749.94 15,-744.44 15,-744.44 15,-733.44 15,-733.44 15,-727.94 20.5,-722.44 26,-722.44"/>
</g>
<!-- resetting&#45;pending&#45;user&#45;action -->
<g id="node15" class="node state regular">
<title>resetting&#45;pending&#45;user&#45;action</title>
<polygon fill="#ffffff" fill-opacity="0.003922" stroke="transparent" stroke-width="2" points="707,-405.94 528,-405.94 528,-369.94 707,-369.94 707,-405.94"/>
<text text-anchor="start" x="539.5" y="-384.34" font-family="Helvetica,sans-Serif" font-size="12.00">resetting&#45;pending&#45;user&#45;action</text>
<path fill="none" stroke="black" stroke-width="2" d="M540,-371.44C540,-371.44 695,-371.44 695,-371.44 700.5,-371.44 706,-376.94 706,-382.44 706,-382.44 706,-393.44 706,-393.44 706,-398.94 700.5,-404.44 695,-404.44 695,-404.44 540,-404.44 540,-404.44 534.5,-404.44 529,-398.94 529,-393.44 529,-393.44 529,-382.44 529,-382.44 529,-376.94 534.5,-371.44 540,-371.44"/>
</g>
<!-- added&#45;to&#45;existing&#45;cluster&#45;&gt;resetting&#45;pending&#45;user&#45;action -->
<g id="edge16" class="edge transition">
<title>added&#45;to&#45;existing&#45;cluster&#45;&gt;resetting&#45;pending&#45;user&#45;action</title>
<path fill="none" stroke="black" d="M167.2,-755.66C258.53,-771.15 411.97,-781.64 510,-704.94 601.64,-633.25 615.07,-479.54 616.58,-416.16"/>
<polygon fill="black" stroke="black" points="620.08,-416.15 616.73,-406.1 613.08,-416.04 620.08,-416.15"/>
<text text-anchor="start" x="199" y="-768.94" font-family="Helvetica,sans-Serif" font-size="10.00">Resetting, Pending User Action &#45; Reset pending user action all states &#160;&#160;</text>
</g>
<!-- cancelled -->
<g id="node2" class="node state regular">
<title>cancelled</title>
<polygon fill="#ffffff" fill-opacity="0.003922" stroke="transparent" stroke-width="2" points="127.5,-702.94 53.5,-702.94 53.5,-666.94 127.5,-666.94 127.5,-702.94"/>
<text text-anchor="start" x="64.5" y="-681.34" font-family="Helvetica,sans-Serif" font-size="12.00">cancelled</text>
<path fill="none" stroke="black" stroke-width="2" d="M65.5,-668.44C65.5,-668.44 115.5,-668.44 115.5,-668.44 121,-668.44 126.5,-673.94 126.5,-679.44 126.5,-679.44 126.5,-690.44 126.5,-690.44 126.5,-695.94 121,-701.44 115.5,-701.44 115.5,-701.44 65.5,-701.44 65.5,-701.44 60,-701.44 54.5,-695.94 54.5,-690.44 54.5,-690.44 54.5,-679.44 54.5,-679.44 54.5,-673.94 60,-668.44 65.5,-668.44"/>
</g>
<!-- cancelled&#45;&gt;resetting&#45;pending&#45;user&#45;action -->
<g id="edge15" class="edge transition">
<title>cancelled&#45;&gt;resetting&#45;pending&#45;user&#45;action</title>
<path fill="none" stroke="black" d="M127.54,-687C217.63,-691.4 449.75,-698.06 510,-653.94 588.27,-596.64 609.09,-472.3 614.57,-416.29"/>
<polygon fill="black" stroke="black" points="618.08,-416.31 615.48,-406.05 611.11,-415.7 618.08,-416.31"/>
<text text-anchor="start" x="199" y="-692.94" font-family="Helvetica,sans-Serif" font-size="10.00">Resetting, Pending User Action &#45; Reset pending user action all states &#160;&#160;</text>
</g>
<!-- discovering -->
<g id="node3" class="node state regular">
<title>discovering</title>
<polygon fill="#ffffff" fill-opacity="0.003922" stroke="transparent" stroke-width="2" points="132.5,-648.94 48.5,-648.94 48.5,-612.94 132.5,-612.94 132.5,-648.94"/>
<text text-anchor="start" x="59.5" y="-627.34" font-family="Helvetica,sans-Serif" font-size="12.00">discovering</text>
<path fill="none" stroke="black" stroke-width="2" d="M60.5,-614.44C60.5,-614.44 120.5,-614.44 120.5,-614.44 126,-614.44 131.5,-619.94 131.5,-625.44 131.5,-625.44 131.5,-636.44 131.5,-636.44 131.5,-641.94 126,-647.44 120.5,-647.44 120.5,-647.44 60.5,-647.44 60.5,-647.44 55,-647.44 49.5,-641.94 49.5,-636.44 49.5,-636.44 49.5,-625.44 49.5,-625.44 49.5,-619.94 55,-614.44 60.5,-614.44"/>
</g>
<!-- discovering&#45;&gt;resetting&#45;pending&#45;user&#45;action -->
<g id="edge3" class="edge transition">
<title>discovering&#45;&gt;resetting&#45;pending&#45;user&#45;action</title>
<path fill="none" stroke="black" d="M132.72,-633.94C225.85,-639.91 449.12,-649.45 510,-608.94 577.23,-564.21 603.29,-464.53 612.29,-415.81"/>
<polygon fill="black" stroke="black" points="615.74,-416.41 614,-405.96 608.84,-415.21 615.74,-416.41"/>
<text text-anchor="start" x="199" y="-641.94" font-family="Helvetica,sans-Serif" font-size="10.00">Resetting, Pending User Action &#45; Reset pending user action all states &#160;&#160;</text>
</g>
<!-- error -->
<g id="node4" class="node state regular">
<title>error</title>
<polygon fill="#ffffff" fill-opacity="0.003922" stroke="transparent" stroke-width="2" points="118.5,-594.94 62.5,-594.94 62.5,-558.94 118.5,-558.94 118.5,-594.94"/>
<text text-anchor="start" x="78" y="-573.34" font-family="Helvetica,sans-Serif" font-size="12.00">error</text>
<path fill="none" stroke="black" stroke-width="2" d="M74.5,-560.44C74.5,-560.44 106.5,-560.44 106.5,-560.44 112,-560.44 117.5,-565.94 117.5,-571.44 117.5,-571.44 117.5,-582.44 117.5,-582.44 117.5,-587.94 112,-593.44 106.5,-593.44 106.5,-593.44 74.5,-593.44 74.5,-593.44 69,-593.44 63.5,-587.94 63.5,-582.44 63.5,-582.44 63.5,-571.44 63.5,-571.44 63.5,-565.94 69,-560.44 74.5,-560.44"/>
</g>
<!-- error&#45;&gt;resetting&#45;pending&#45;user&#45;action -->
<g id="edge14" class="edge transition">
<title>error&#45;&gt;resetting&#45;pending&#45;user&#45;action</title>
<path fill="none" stroke="black" d="M118.54,-582.22C188.72,-594.41 380.21,-618.11 510,-542.94 559.71,-514.15 591.4,-451.71 606.36,-415.48"/>
<polygon fill="black" stroke="black" points="609.68,-416.59 610.13,-406.01 603.18,-414 609.68,-416.59"/>
<text text-anchor="start" x="199" y="-597.94" font-family="Helvetica,sans-Serif" font-size="10.00">Resetting, Pending User Action &#45; Reset pending user action all states &#160;&#160;</text>
</g>
<!-- installed -->
<g id="node5" class="node state regular">
<title>installed</title>
<polygon fill="#ffffff" fill-opacity="0.003922" stroke="transparent" stroke-width="2" points="124.5,-540.94 56.5,-540.94 56.5,-504.94 124.5,-504.94 124.5,-540.94"/>
<text text-anchor="start" x="67.5" y="-519.34" font-family="Helvetica,sans-Serif" font-size="12.00">installed</text>
<path fill="none" stroke="black" stroke-width="2" d="M68.5,-506.44C68.5,-506.44 112.5,-506.44 112.5,-506.44 118,-506.44 123.5,-511.94 123.5,-517.44 123.5,-517.44 123.5,-528.44 123.5,-528.44 123.5,-533.94 118,-539.44 112.5,-539.44 112.5,-539.44 68.5,-539.44 68.5,-539.44 63,-539.44 57.5,-533.94 57.5,-528.44 57.5,-528.44 57.5,-517.44 57.5,-517.44 57.5,-511.94 63,-506.44 68.5,-506.44"/>
</g>
<!-- installed&#45;&gt;resetting&#45;pending&#45;user&#45;action -->
<g id="edge13" class="edge transition">
<title>installed&#45;&gt;resetting&#45;pending&#45;user&#45;action</title>
<path fill="none" stroke="black" d="M124.62,-525.75C197.58,-530.61 376.31,-535.16 510,-477.94 543.7,-463.52 574.79,-434.68 594.57,-413.52"/>
<polygon fill="black" stroke="black" points="597.17,-415.85 601.33,-406.11 592,-411.14 597.17,-415.85"/>
<text text-anchor="start" x="199" y="-530.94" font-family="Helvetica,sans-Serif" font-size="10.00">Resetting, Pending User Action &#45; Reset pending user action all states &#160;&#160;</text>
</g>
<!-- installing -->
<g id="node6" class="node state regular">
<title>installing</title>
<polygon fill="#ffffff" fill-opacity="0.003922" stroke="transparent" stroke-width="2" points="126,-486.94 55,-486.94 55,-450.94 126,-450.94 126,-486.94"/>
<text text-anchor="start" x="66.5" y="-465.34" font-family="Helvetica,sans-Serif" font-size="12.00">installing</text>
<path fill="none" stroke="black" stroke-width="2" d="M67,-452.44C67,-452.44 114,-452.44 114,-452.44 119.5,-452.44 125,-457.94 125,-463.44 125,-463.44 125,-474.44 125,-474.44 125,-479.94 119.5,-485.44 114,-485.44 114,-485.44 67,-485.44 67,-485.44 61.5,-485.44 56,-479.94 56,-474.44 56,-474.44 56,-463.44 56,-463.44 56,-457.94 61.5,-452.44 67,-452.44"/>
</g>
<!-- installing&#45;&gt;resetting&#45;pending&#45;user&#45;action -->
<g id="edge6" class="edge transition">
<title>installing&#45;&gt;resetting&#45;pending&#45;user&#45;action</title>
<path fill="none" stroke="black" d="M126.09,-467.78C198.24,-464.8 369.76,-454.8 510,-423.94 526.73,-420.26 544.51,-414.87 560.65,-409.38"/>
<polygon fill="black" stroke="black" points="562.18,-412.56 570.47,-405.96 559.87,-405.95 562.18,-412.56"/>
<text text-anchor="start" x="199" y="-465.94" font-family="Helvetica,sans-Serif" font-size="10.00">Resetting, Pending User Action &#45; Reset pending user action all states &#160;&#160;</text>
</g>
<!-- installing&#45;in&#45;progress -->
<g id="node7" class="node state regular">
<title>installing&#45;in&#45;progress</title>
<polygon fill="#ffffff" fill-opacity="0.003922" stroke="transparent" stroke-width="2" points="157.5,-432.94 23.5,-432.94 23.5,-396.94 157.5,-396.94 157.5,-432.94"/>
<text text-anchor="start" x="34.5" y="-411.34" font-family="Helvetica,sans-Serif" font-size="12.00">installing&#45;in&#45;progress</text>
<path fill="none" stroke="black" stroke-width="2" d="M35.5,-398.44C35.5,-398.44 145.5,-398.44 145.5,-398.44 151,-398.44 156.5,-403.94 156.5,-409.44 156.5,-409.44 156.5,-420.44 156.5,-420.44 156.5,-425.94 151,-431.44 145.5,-431.44 145.5,-431.44 35.5,-431.44 35.5,-431.44 30,-431.44 24.5,-425.94 24.5,-420.44 24.5,-420.44 24.5,-409.44 24.5,-409.44 24.5,-403.94 30,-398.44 35.5,-398.44"/>
</g>
<!-- installing&#45;in&#45;progress&#45;&gt;resetting&#45;pending&#45;user&#45;action -->
<g id="edge12" class="edge transition">
<title>installing&#45;in&#45;progress&#45;&gt;resetting&#45;pending&#45;user&#45;action</title>
<path fill="none" stroke="black" d="M157.73,-411.54C248.52,-406.87 412.36,-398.44 517.69,-393.03"/>
<polygon fill="black" stroke="black" points="517.89,-396.52 527.69,-392.51 517.53,-389.53 517.89,-396.52"/>
<text text-anchor="start" x="199" y="-411.94" font-family="Helvetica,sans-Serif" font-size="10.00">Resetting, Pending User Action &#45; Reset pending user action all states &#160;&#160;</text>
</g>
<!-- installing&#45;pending&#45;user&#45;action -->
<g id="node8" class="node state regular">
<title>installing&#45;pending&#45;user&#45;action</title>
<polygon fill="#ffffff" fill-opacity="0.003922" stroke="transparent" stroke-width="2" points="181,-378.94 0,-378.94 0,-342.94 181,-342.94 181,-378.94"/>
<text text-anchor="start" x="11.5" y="-357.34" font-family="Helvetica,sans-Serif" font-size="12.00">installing&#45;pending&#45;user&#45;action</text>
<path fill="none" stroke="black" stroke-width="2" d="M12,-344.44C12,-344.44 169,-344.44 169,-344.44 174.5,-344.44 180,-349.94 180,-355.44 180,-355.44 180,-366.44 180,-366.44 180,-371.94 174.5,-377.44 169,-377.44 169,-377.44 12,-377.44 12,-377.44 6.5,-377.44 1,-371.94 1,-366.44 1,-366.44 1,-355.44 1,-355.44 1,-349.94 6.5,-344.44 12,-344.44"/>
</g>
<!-- installing&#45;pending&#45;user&#45;action&#45;&gt;resetting&#45;pending&#45;user&#45;action -->
<g id="edge5" class="edge transition">
<title>installing&#45;pending&#45;user&#45;action&#45;&gt;resetting&#45;pending&#45;user&#45;action</title>
<path fill="none" stroke="black" d="M181.31,-365.29C266.06,-369.43 396.67,-375.91 510,-381.94 512.55,-382.08 515.13,-382.22 517.74,-382.36"/>
<polygon fill="black" stroke="black" points="517.7,-385.86 527.88,-382.91 518.08,-378.87 517.7,-385.86"/>
<text text-anchor="start" x="199" y="-384.94" font-family="Helvetica,sans-Serif" font-size="10.00">Resetting, Pending User Action &#45; Reset pending user action all states &#160;&#160;</text>
</g>
<!-- known -->
<g id="node9" class="node state regular">
<title>known</title>
<polygon fill="#ffffff" fill-opacity="0.003922" stroke="transparent" stroke-width="2" points="119.5,-324.94 61.5,-324.94 61.5,-288.94 119.5,-288.94 119.5,-324.94"/>
<text text-anchor="start" x="72.5" y="-303.34" font-family="Helvetica,sans-Serif" font-size="12.00">known</text>
<path fill="none" stroke="black" stroke-width="2" d="M73.5,-290.44C73.5,-290.44 107.5,-290.44 107.5,-290.44 113,-290.44 118.5,-295.94 118.5,-301.44 118.5,-301.44 118.5,-312.44 118.5,-312.44 118.5,-317.94 113,-323.44 107.5,-323.44 107.5,-323.44 73.5,-323.44 73.5,-323.44 68,-323.44 62.5,-317.94 62.5,-312.44 62.5,-312.44 62.5,-301.44 62.5,-301.44 62.5,-295.94 68,-290.44 73.5,-290.44"/>
</g>
<!-- known&#45;&gt;resetting&#45;pending&#45;user&#45;action -->
<g id="edge4" class="edge transition">
<title>known&#45;&gt;resetting&#45;pending&#45;user&#45;action</title>
<path fill="none" stroke="black" d="M119.52,-307.68C187.35,-309.92 365.43,-318.68 510,-350.94 527.33,-354.81 545.74,-360.58 562.31,-366.42"/>
<polygon fill="black" stroke="black" points="561.22,-369.75 571.82,-369.86 563.6,-363.17 561.22,-369.75"/>
<text text-anchor="start" x="199" y="-353.94" font-family="Helvetica,sans-Serif" font-size="10.00">Resetting, Pending User Action &#45; Reset pending user action all states &#160;&#160;</text>
</g>
<!-- pending&#45;for&#45;input -->
<g id="node10" class="node state regular">
<title>pending&#45;for&#45;input</title>
<polygon fill="#ffffff" fill-opacity="0.003922" stroke="transparent" stroke-width="2" points="147,-270.94 34,-270.94 34,-234.94 147,-234.94 147,-270.94"/>
<text text-anchor="start" x="45.5" y="-249.34" font-family="Helvetica,sans-Serif" font-size="12.00">pending&#45;for&#45;input</text>
<path fill="none" stroke="black" stroke-width="2" d="M46,-236.44C46,-236.44 135,-236.44 135,-236.44 140.5,-236.44 146,-241.94 146,-247.44 146,-247.44 146,-258.44 146,-258.44 146,-263.94 140.5,-269.44 135,-269.44 135,-269.44 46,-269.44 46,-269.44 40.5,-269.44 35,-263.94 35,-258.44 35,-258.44 35,-247.44 35,-247.44 35,-241.94 40.5,-236.44 46,-236.44"/>
</g>
<!-- pending&#45;for&#45;input&#45;&gt;resetting&#45;pending&#45;user&#45;action -->
<g id="edge10" class="edge transition">
<title>pending&#45;for&#45;input&#45;&gt;resetting&#45;pending&#45;user&#45;action</title>
<path fill="none" stroke="black" d="M147.3,-248.35C230.11,-243.75 388.79,-243.63 510,-295.94 544.16,-310.69 575.37,-340.45 595.05,-362.14"/>
<polygon fill="black" stroke="black" points="592.51,-364.56 601.76,-369.73 597.75,-359.92 592.51,-364.56"/>
<text text-anchor="start" x="199" y="-298.94" font-family="Helvetica,sans-Serif" font-size="10.00">Resetting, Pending User Action &#45; Reset pending user action all states &#160;&#160;</text>
</g>
<!-- preparing&#45;failed -->
<g id="node11" class="node state regular">
<title>preparing&#45;failed</title>
<polygon fill="#ffffff" fill-opacity="0.003922" stroke="transparent" stroke-width="2" points="144,-216.94 37,-216.94 37,-180.94 144,-180.94 144,-216.94"/>
<text text-anchor="start" x="48.5" y="-195.34" font-family="Helvetica,sans-Serif" font-size="12.00">preparing&#45;failed</text>
<path fill="none" stroke="black" stroke-width="2" d="M49,-182.44C49,-182.44 132,-182.44 132,-182.44 137.5,-182.44 143,-187.94 143,-193.44 143,-193.44 143,-204.44 143,-204.44 143,-209.94 137.5,-215.44 132,-215.44 132,-215.44 49,-215.44 49,-215.44 43.5,-215.44 38,-209.94 38,-204.44 38,-204.44 38,-193.44 38,-193.44 38,-187.94 43.5,-182.44 49,-182.44"/>
</g>
<!-- preparing&#45;failed&#45;&gt;resetting&#45;pending&#45;user&#45;action -->
<g id="edge9" class="edge transition">
<title>preparing&#45;failed&#45;&gt;resetting&#45;pending&#45;user&#45;action</title>
<path fill="none" stroke="black" d="M144.33,-189.2C228.11,-176.61 393.86,-163.59 510,-230.94 560.26,-260.09 591.83,-323.62 606.59,-360.31"/>
<polygon fill="black" stroke="black" points="603.43,-361.84 610.32,-369.89 609.96,-359.3 603.43,-361.84"/>
<text text-anchor="start" x="199" y="-233.94" font-family="Helvetica,sans-Serif" font-size="10.00">Resetting, Pending User Action &#45; Reset pending user action all states &#160;&#160;</text>
</g>
<!-- preparing&#45;for&#45;installation -->
<g id="node12" class="node state regular">
<title>preparing&#45;for&#45;installation</title>
<polygon fill="#ffffff" fill-opacity="0.003922" stroke="transparent" stroke-width="2" points="166.5,-162.94 14.5,-162.94 14.5,-126.94 166.5,-126.94 166.5,-162.94"/>
<text text-anchor="start" x="25.5" y="-141.34" font-family="Helvetica,sans-Serif" font-size="12.00">preparing&#45;for&#45;installation</text>
<path fill="none" stroke="black" stroke-width="2" d="M26.5,-128.44C26.5,-128.44 154.5,-128.44 154.5,-128.44 160,-128.44 165.5,-133.94 165.5,-139.44 165.5,-139.44 165.5,-150.44 165.5,-150.44 165.5,-155.94 160,-161.44 154.5,-161.44 154.5,-161.44 26.5,-161.44 26.5,-161.44 21,-161.44 15.5,-155.94 15.5,-150.44 15.5,-150.44 15.5,-139.44 15.5,-139.44 15.5,-133.94 21,-128.44 26.5,-128.44"/>
</g>
<!-- preparing&#45;for&#45;installation&#45;&gt;resetting&#45;pending&#45;user&#45;action -->
<g id="edge7" class="edge transition">
<title>preparing&#45;for&#45;installation&#45;&gt;resetting&#45;pending&#45;user&#45;action</title>
<path fill="none" stroke="black" d="M165.79,-126.93C255.36,-109.69 406.69,-95.35 510,-163.94 578.01,-209.1 603.7,-310.23 612.45,-359.66"/>
<polygon fill="black" stroke="black" points="609.02,-360.37 614.11,-369.66 615.92,-359.22 609.02,-360.37"/>
<text text-anchor="start" x="199" y="-166.94" font-family="Helvetica,sans-Serif" font-size="10.00">Resetting, Pending User Action &#45; Reset pending user action all states &#160;&#160;</text>
</g>
<!-- preparing&#45;successful -->
<g id="node13" class="node state regular">
<title>preparing&#45;successful</title>
<polygon fill="#ffffff" fill-opacity="0.003922" stroke="transparent" stroke-width="2" points="157.5,-108.94 23.5,-108.94 23.5,-72.94 157.5,-72.94 157.5,-108.94"/>
<text text-anchor="start" x="34.5" y="-87.34" font-family="Helvetica,sans-Serif" font-size="12.00">preparing&#45;successful</text>
<path fill="none" stroke="black" stroke-width="2" d="M35.5,-74.44C35.5,-74.44 145.5,-74.44 145.5,-74.44 151,-74.44 156.5,-79.94 156.5,-85.44 156.5,-85.44 156.5,-96.44 156.5,-96.44 156.5,-101.94 151,-107.44 145.5,-107.44 145.5,-107.44 35.5,-107.44 35.5,-107.44 30,-107.44 24.5,-101.94 24.5,-96.44 24.5,-96.44 24.5,-85.44 24.5,-85.44 24.5,-79.94 30,-74.44 35.5,-74.44"/>
</g>
<!-- preparing&#45;successful&#45;&gt;resetting&#45;pending&#45;user&#45;action -->
<g id="edge8" class="edge transition">
<title>preparing&#45;successful&#45;&gt;resetting&#45;pending&#45;user&#45;action</title>
<path fill="none" stroke="black" d="M157.57,-83.1C261.04,-72.23 455.18,-58.05 510,-96.94 596.94,-158.64 613.1,-299.19 615.96,-359.55"/>
<polygon fill="black" stroke="black" points="612.48,-359.99 616.36,-369.84 619.47,-359.72 612.48,-359.99"/>
<text text-anchor="start" x="199" y="-99.94" font-family="Helvetica,sans-Serif" font-size="10.00">Resetting, Pending User Action &#45; Reset pending user action all states &#160;&#160;</text>
</g>
<!-- resetting -->
<g id="node14" class="node state regular">
<title>resetting</title>
<polygon fill="#ffffff" fill-opacity="0.003922" stroke="transparent" stroke-width="2" points="125,-54.94 56,-54.94 56,-18.94 125,-18.94 125,-54.94"/>
<text text-anchor="start" x="67.5" y="-33.34" font-family="Helvetica,sans-Serif" font-size="12.00">resetting</text>
<path fill="none" stroke="black" stroke-width="2" d="M68,-20.44C68,-20.44 113,-20.44 113,-20.44 118.5,-20.44 124,-25.94 124,-31.44 124,-31.44 124,-42.44 124,-42.44 124,-47.94 118.5,-53.44 113,-53.44 113,-53.44 68,-53.44 68,-53.44 62.5,-53.44 57,-47.94 57,-42.44 57,-42.44 57,-31.44 57,-31.44 57,-25.94 62.5,-20.44 68,-20.44"/>
</g>
<!-- resetting&#45;&gt;resetting&#45;pending&#45;user&#45;action -->
<g id="edge2" class="edge transition">
<title>resetting&#45;&gt;resetting&#45;pending&#45;user&#45;action</title>
<path fill="none" stroke="black" d="M125.07,-26.9C202.11,-6.07 393.88,32.86 510,-55.94 607.02,-130.14 617.26,-293.61 617.25,-359.55"/>
<polygon fill="black" stroke="black" points="613.75,-359.59 617.16,-369.62 620.75,-359.65 613.75,-359.59"/>
<text text-anchor="start" x="199" y="-58.94" font-family="Helvetica,sans-Serif" font-size="10.00">Resetting, Pending User Action &#45; Reset pending user action all states &#160;&#160;</text>
</g>
<!-- resetting&#45;pending&#45;user&#45;action&#45;&gt;resetting&#45;pending&#45;user&#45;action -->
<g id="edge1" class="edge transition">
<title>resetting&#45;pending&#45;user&#45;action&#45;&gt;resetting&#45;pending&#45;user&#45;action</title>
<path fill="none" stroke="black" d="M593.8,-406.1C590.16,-415.48 598.05,-423.94 617.5,-423.94 629.35,-423.94 636.91,-420.8 640.19,-416.22"/>
<polygon fill="black" stroke="black" points="643.69,-416.4 641.2,-406.1 636.72,-415.7 643.69,-416.4"/>
<text text-anchor="start" x="330.5" y="-426.94" font-family="Helvetica,sans-Serif" font-size="10.00">Refresh &#45; Refresh during resetting&#45;pending&#45;user&#45;action state without cluster error should stay in resetting&#45;pending&#45;user&#45;action state &#160;&#160;</text>
</g>
<!-- resetting&#45;pending&#45;user&#45;action&#45;&gt;resetting&#45;pending&#45;user&#45;action -->
<g id="edge11" class="edge transition">
<title>resetting&#45;pending&#45;user&#45;action&#45;&gt;resetting&#45;pending&#45;user&#45;action</title>
<path fill="none" stroke="black" d="M577.78,-406.2C557.18,-423.35 570.42,-441.94 617.5,-441.94 657.59,-441.94 673.14,-428.46 664.16,-413.87"/>
<polygon fill="black" stroke="black" points="666.53,-411.27 657.22,-406.2 661.34,-415.96 666.53,-411.27"/>
<text text-anchor="start" x="462" y="-444.94" font-family="Helvetica,sans-Serif" font-size="10.00">Resetting, Pending User Action &#45; Reset pending user action all states &#160;&#160;</text>
</g>
</g>
</svg>
