<?xml version="1.0" encoding="UTF-8" standalone="no"?>
<!DOCTYPE svg PUBLIC "-//W3C//DTD SVG 1.1//EN"
 "http://www.w3.org/Graphics/SVG/1.1/DTD/svg11.dtd">
<!-- Generated by graphviz version 12.1.0 (20240811.2233)
 -->
<!-- Title: state transitions Pages: 1 -->
<svg width="450pt" height="384pt"
 viewBox="0.00 0.00 450.25 383.85" xmlns="http://www.w3.org/2000/svg" xmlns:xlink="http://www.w3.org/1999/xlink">
<g id="graph0" class="graph" transform="scale(1 1) rotate(0) translate(4 379.85)">
<title>state transitions</title>
<polygon fill="white" stroke="none" points="-4,4 -4,-379.85 446.25,-379.85 446.25,4 -4,4"/>
<!-- disconnected -->
<g id="node1" class="node state regular">
<title>disconnected</title>
<polygon fill="#ffffff" fill-opacity="0.003922" stroke="none" stroke-width="2" points="113.12,-352.95 11.62,-352.95 11.62,-316.7 113.12,-316.7 113.12,-352.95"/>
<text text-anchor="start" x="22.62" y="-330.55" font-family="Helvetica,sans-Serif" font-size="12.00">disconnected</text>
<path fill="none" stroke="black" stroke-width="2" d="M24.04,-317.7C24.04,-317.7 100.71,-317.7 100.71,-317.7 106.42,-317.7 112.12,-323.41 112.12,-329.12 112.12,-329.12 112.12,-340.54 112.12,-340.54 112.12,-346.25 106.42,-351.95 100.71,-351.95 100.71,-351.95 24.04,-351.95 24.04,-351.95 18.33,-351.95 12.62,-346.25 12.62,-340.54 12.62,-340.54 12.62,-329.12 12.62,-329.12 12.62,-323.41 18.33,-317.7 24.04,-317.7"/>
</g>
<!-- unbinding -->
<g id="node2" class="node state regular">
<title>unbinding</title>
<polygon fill="#ffffff" fill-opacity="0.003922" stroke="none" stroke-width="2" points="442.25,-208.95 361.75,-208.95 361.75,-172.7 442.25,-172.7 442.25,-208.95"/>
<text text-anchor="start" x="372.75" y="-186.55" font-family="Helvetica,sans-Serif" font-size="12.00">unbinding</text>
<path fill="none" stroke="black" stroke-width="2" d="M374.17,-173.7C374.17,-173.7 429.83,-173.7 429.83,-173.7 435.54,-173.7 441.25,-179.41 441.25,-185.12 441.25,-185.12 441.25,-196.54 441.25,-196.54 441.25,-202.25 435.54,-207.95 429.83,-207.95 429.83,-207.95 374.17,-207.95 374.17,-207.95 368.46,-207.95 362.75,-202.25 362.75,-196.54 362.75,-196.54 362.75,-185.12 362.75,-185.12 362.75,-179.41 368.46,-173.7 374.17,-173.7"/>
</g>
<!-- disconnected&#45;&gt;unbinding -->
<g id="edge1" class="edge transition">
<title>disconnected&#45;&gt;unbinding</title>
<path fill="none" stroke="black" d="M113.1,-349.37C173.28,-363.8 275.07,-377.66 343.75,-330.83 380.27,-305.93 393.52,-253.24 398.31,-220.08"/>
<polygon fill="black" stroke="black" points="401.76,-220.69 399.53,-210.33 394.81,-219.82 401.76,-220.69"/>
<text text-anchor="start" x="142.75" y="-366.35" font-family="Helvetica,sans-Serif" font-size="10.00">Reclaim Host &#45; Reclaim pre&#45;installation &#160;&#160;</text>
</g>
<!-- disconnected&#45;&gt;unbinding -->
<g id="edge2" class="edge transition">
<title>disconnected&#45;&gt;unbinding</title>
<path fill="none" stroke="black" d="M113.07,-320.54C122.85,-318.09 133.07,-315.8 142.75,-314.08 186.93,-306.24 306.25,-319.48 343.75,-294.83 370.07,-277.53 385.36,-243.83 393.42,-219.47"/>
<polygon fill="black" stroke="black" points="396.69,-220.74 396.27,-210.15 390,-218.69 396.69,-220.74"/>
<text text-anchor="start" x="148" y="-317.33" font-family="Helvetica,sans-Serif" font-size="10.00">Unbind Host &#45; Unbind pre&#45;installation &#160;&#160;</text>
</g>
<!-- discovering -->
<g id="node3" class="node state regular">
<title>discovering</title>
<polygon fill="#ffffff" fill-opacity="0.003922" stroke="none" stroke-width="2" points="107.5,-271.95 17.25,-271.95 17.25,-235.7 107.5,-235.7 107.5,-271.95"/>
<text text-anchor="start" x="28.25" y="-249.55" font-family="Helvetica,sans-Serif" font-size="12.00">discovering</text>
<path fill="none" stroke="black" stroke-width="2" d="M29.67,-236.7C29.67,-236.7 95.08,-236.7 95.08,-236.7 100.79,-236.7 106.5,-242.41 106.5,-248.12 106.5,-248.12 106.5,-259.54 106.5,-259.54 106.5,-265.25 100.79,-270.95 95.08,-270.95 95.08,-270.95 29.67,-270.95 29.67,-270.95 23.96,-270.95 18.25,-265.25 18.25,-259.54 18.25,-259.54 18.25,-248.12 18.25,-248.12 18.25,-242.41 23.96,-236.7 29.67,-236.7"/>
</g>
<!-- discovering&#45;&gt;unbinding -->
<g id="edge3" class="edge transition">
<title>discovering&#45;&gt;unbinding</title>
<path fill="none" stroke="black" d="M107.11,-265.92C164.44,-279.33 266.73,-294.67 343.75,-258.83 361.77,-250.44 376.15,-233.29 385.99,-218.3"/>
<polygon fill="black" stroke="black" points="388.73,-220.52 391,-210.17 382.77,-216.85 388.73,-220.52"/>
<text text-anchor="start" x="142.75" y="-284.21" font-family="Helvetica,sans-Serif" font-size="10.00">Reclaim Host &#45; Reclaim pre&#45;installation &#160;&#160;</text>
</g>
<!-- discovering&#45;&gt;unbinding -->
<g id="edge4" class="edge transition">
<title>discovering&#45;&gt;unbinding</title>
<path fill="none" stroke="black" d="M107.49,-247.29C174.71,-237.2 299.64,-217.95 343.75,-207.83 346.04,-207.3 348.37,-206.74 350.72,-206.14"/>
<polygon fill="black" stroke="black" points="351.54,-209.55 360.29,-203.58 349.73,-202.79 351.54,-209.55"/>
<text text-anchor="start" x="148" y="-244.96" font-family="Helvetica,sans-Serif" font-size="10.00">Unbind Host &#45; Unbind pre&#45;installation &#160;&#160;</text>
</g>
<!-- insufficient -->
<g id="node4" class="node state regular">
<title>insufficient</title>
<polygon fill="#ffffff" fill-opacity="0.003922" stroke="none" stroke-width="2" points="106,-199.95 18.75,-199.95 18.75,-163.7 106,-163.7 106,-199.95"/>
<text text-anchor="start" x="29.75" y="-177.55" font-family="Helvetica,sans-Serif" font-size="12.00">insufficient</text>
<path fill="none" stroke="black" stroke-width="2" d="M31.17,-164.7C31.17,-164.7 93.58,-164.7 93.58,-164.7 99.29,-164.7 105,-170.41 105,-176.12 105,-176.12 105,-187.54 105,-187.54 105,-193.25 99.29,-198.95 93.58,-198.95 93.58,-198.95 31.17,-198.95 31.17,-198.95 25.46,-198.95 19.75,-193.25 19.75,-187.54 19.75,-187.54 19.75,-176.12 19.75,-176.12 19.75,-170.41 25.46,-164.7 31.17,-164.7"/>
</g>
<!-- insufficient&#45;&gt;unbinding -->
<g id="edge5" class="edge transition">
<title>insufficient&#45;&gt;unbinding</title>
<path fill="none" stroke="black" d="M105.79,-184.87C117.73,-185.63 130.75,-186.36 142.75,-186.83 215.02,-189.66 298.75,-190.51 350.8,-190.76"/>
<polygon fill="black" stroke="black" points="350.52,-194.25 360.53,-190.79 350.55,-187.25 350.52,-194.25"/>
<text text-anchor="start" x="142.75" y="-193.97" font-family="Helvetica,sans-Serif" font-size="10.00">Reclaim Host &#45; Reclaim pre&#45;installation &#160;&#160;</text>
</g>
<!-- insufficient&#45;&gt;unbinding -->
<g id="edge6" class="edge transition">
<title>insufficient&#45;&gt;unbinding</title>
<path fill="none" stroke="black" d="M105.55,-174.47C160.74,-166.11 260.26,-155.42 343.75,-170.08 346.07,-170.49 348.42,-170.98 350.77,-171.54"/>
<polygon fill="black" stroke="black" points="349.73,-174.88 360.3,-174.19 351.61,-168.14 349.73,-174.88"/>
<text text-anchor="start" x="148" y="-173.33" font-family="Helvetica,sans-Serif" font-size="10.00">Unbind Host &#45; Unbind pre&#45;installation &#160;&#160;</text>
</g>
<!-- known -->
<g id="node5" class="node state regular">
<title>known</title>
<polygon fill="#ffffff" fill-opacity="0.003922" stroke="none" stroke-width="2" points="92.88,-127.95 31.87,-127.95 31.87,-91.7 92.88,-91.7 92.88,-127.95"/>
<text text-anchor="start" x="42.88" y="-105.55" font-family="Helvetica,sans-Serif" font-size="12.00">known</text>
<path fill="none" stroke="black" stroke-width="2" d="M44.29,-92.7C44.29,-92.7 80.46,-92.7 80.46,-92.7 86.17,-92.7 91.88,-98.41 91.88,-104.12 91.88,-104.12 91.88,-115.54 91.88,-115.54 91.88,-121.25 86.17,-126.95 80.46,-126.95 80.46,-126.95 44.29,-126.95 44.29,-126.95 38.58,-126.95 32.88,-121.25 32.88,-115.54 32.88,-115.54 32.88,-104.12 32.88,-104.12 32.88,-98.41 38.58,-92.7 44.29,-92.7"/>
</g>
<!-- known&#45;&gt;unbinding -->
<g id="edge7" class="edge transition">
<title>known&#45;&gt;unbinding</title>
<path fill="none" stroke="black" d="M92.65,-111.65C154.99,-115.84 298.81,-127.29 343.75,-146.08 354.84,-150.71 365.6,-158.1 374.74,-165.54"/>
<polygon fill="black" stroke="black" points="372.29,-168.04 382.15,-171.91 376.85,-162.74 372.29,-168.04"/>
<text text-anchor="start" x="142.75" y="-149.33" font-family="Helvetica,sans-Serif" font-size="10.00">Reclaim Host &#45; Reclaim pre&#45;installation &#160;&#160;</text>
</g>
<!-- known&#45;&gt;unbinding -->
<g id="edge8" class="edge transition">
<title>known&#45;&gt;unbinding</title>
<path fill="none" stroke="black" d="M92.58,-104.97C155.46,-95.11 301.37,-75.57 343.75,-99.08 367.8,-112.42 383.07,-140.53 391.73,-162.14"/>
<polygon fill="black" stroke="black" points="388.38,-163.17 395.15,-171.32 394.94,-160.73 388.38,-163.17"/>
<text text-anchor="start" x="148" y="-102.33" font-family="Helvetica,sans-Serif" font-size="10.00">Unbind Host &#45; Unbind pre&#45;installation &#160;&#160;</text>
</g>
<!-- pending&#45;for&#45;input -->
<g id="node6" class="node state regular">
<title>pending&#45;for&#45;input</title>
<polygon fill="#ffffff" fill-opacity="0.003922" stroke="none" stroke-width="2" points="124.75,-64.95 0,-64.95 0,-28.7 124.75,-28.7 124.75,-64.95"/>
<text text-anchor="start" x="11" y="-42.55" font-family="Helvetica,sans-Serif" font-size="12.00">pending&#45;for&#45;input</text>
<path fill="none" stroke="black" stroke-width="2" d="M12.42,-29.7C12.42,-29.7 112.33,-29.7 112.33,-29.7 118.04,-29.7 123.75,-35.41 123.75,-41.12 123.75,-41.12 123.75,-52.54 123.75,-52.54 123.75,-58.25 118.04,-63.95 112.33,-63.95 112.33,-63.95 12.42,-63.95 12.42,-63.95 6.71,-63.95 1,-58.25 1,-52.54 1,-52.54 1,-41.12 1,-41.12 1,-35.41 6.71,-29.7 12.42,-29.7"/>
</g>
<!-- pending&#45;for&#45;input&#45;&gt;unbinding -->
<g id="edge9" class="edge transition">
<title>pending&#45;for&#45;input&#45;&gt;unbinding</title>
<path fill="none" stroke="black" d="M124.53,-45.21C196.18,-44.48 309.45,-47.34 343.75,-71.08 374.09,-92.08 388.87,-133.66 395.69,-161.86"/>
<polygon fill="black" stroke="black" points="392.25,-162.53 397.82,-171.55 399.09,-161.03 392.25,-162.53"/>
<text text-anchor="start" x="142.75" y="-74.33" font-family="Helvetica,sans-Serif" font-size="10.00">Reclaim Host &#45; Reclaim pre&#45;installation &#160;&#160;</text>
</g>
<!-- pending&#45;for&#45;input&#45;&gt;unbinding -->
<g id="edge10" class="edge transition">
<title>pending&#45;for&#45;input&#45;&gt;unbinding</title>
<path fill="none" stroke="black" d="M105.37,-28.88C164.41,-6.72 272.69,22.25 343.75,-28.08 386.54,-58.39 397.58,-123.35 400.28,-161.39"/>
<polygon fill="black" stroke="black" points="396.78,-161.42 400.81,-171.21 403.77,-161.04 396.78,-161.42"/>
<text text-anchor="start" x="148" y="-31.33" font-family="Helvetica,sans-Serif" font-size="10.00">Unbind Host &#45; Unbind pre&#45;installation &#160;&#160;</text>
</g>
</g>
</svg>
