<?xml version="1.0" encoding="UTF-8" standalone="no"?>
<!DOCTYPE svg PUBLIC "-//W3C//DTD SVG 1.1//EN"
 "http://www.w3.org/Graphics/SVG/1.1/DTD/svg11.dtd">
<!-- Generated by graphviz version 5.0.0 (0)
 -->
<!-- Title: state transitions Pages: 1 -->
<svg width="821pt" height="791pt"
 viewBox="0.00 0.00 821.00 791.18" xmlns="http://www.w3.org/2000/svg" xmlns:xlink="http://www.w3.org/1999/xlink">
<g id="graph0" class="graph" transform="scale(1 1) rotate(0) translate(4 787.18)">
<title>state transitions</title>
<polygon fill="white" stroke="transparent" points="-4,4 -4,-787.18 817,-787.18 817,4 -4,4"/>
<!-- error -->
<g id="node1" class="node state regular">
<title>error</title>
<polygon fill="#ffffff" fill-opacity="0.003922" stroke="transparent" stroke-width="2" points="658,-438.18 602,-438.18 602,-402.18 658,-402.18 658,-438.18"/>
<text text-anchor="start" x="617.5" y="-416.58" font-family="Helvetica,sans-Serif" font-size="12.00">error</text>
<path fill="none" stroke="black" stroke-width="2" d="M614,-403.68C614,-403.68 646,-403.68 646,-403.68 651.5,-403.68 657,-409.18 657,-414.68 657,-414.68 657,-425.68 657,-425.68 657,-431.18 651.5,-436.68 646,-436.68 646,-436.68 614,-436.68 614,-436.68 608.5,-436.68 603,-431.18 603,-425.68 603,-425.68 603,-414.68 603,-414.68 603,-409.18 608.5,-403.68 614,-403.68"/>
</g>
<!-- error&#45;&gt;error -->
<g id="edge8" class="edge transition">
<title>error&#45;&gt;error</title>
<path fill="none" stroke="black" d="M619.24,-438.33C617.58,-447.71 621.17,-456.18 630,-456.18 635.38,-456.18 638.82,-453.03 640.3,-448.46"/>
<polygon fill="black" stroke="black" points="643.81,-448.48 640.76,-438.33 636.81,-448.16 643.81,-448.48"/>
<text text-anchor="start" x="447" y="-459.18" font-family="Helvetica,sans-Serif" font-size="10.00">Media Disconnect &#45; Move to error when virtual media disconnects post&#45;installation &#160;&#160;</text>
</g>
<!-- error&#45;&gt;error -->
<g id="edge19" class="edge transition">
<title>error&#45;&gt;error</title>
<path fill="none" stroke="black" d="M611.96,-438.43C602.6,-455.58 608.62,-474.18 630,-474.18 647.37,-474.18 654.6,-461.9 651.68,-448.1"/>
<polygon fill="black" stroke="black" points="654.84,-446.56 648.04,-438.43 648.29,-449.03 654.84,-446.56"/>
<text text-anchor="start" x="483" y="-477.18" font-family="Helvetica,sans-Serif" font-size="10.00">Refresh &#45; Log collection timed out during error should stay in error &#160;&#160;</text>
</g>
<!-- error&#45;&gt;error -->
<g id="edge20" class="edge transition">
<title>error&#45;&gt;error</title>
<path fill="none" stroke="black" d="M607.42,-438.25C587.43,-462.58 594.96,-492.18 630,-492.18 661.07,-492.18 670.51,-468.91 658.31,-446.67"/>
<polygon fill="black" stroke="black" points="661.1,-444.55 652.58,-438.25 655.32,-448.49 661.1,-444.55"/>
<text text-anchor="start" x="518" y="-495.18" font-family="Helvetica,sans-Serif" font-size="10.00">Refresh &#45; Refresh during error should stay in error &#160;&#160;</text>
</g>
<!-- error&#45;&gt;error -->
<g id="edge23" class="edge transition">
<title>error&#45;&gt;error</title>
<path fill="none" stroke="black" d="M604.14,-438.29C572.34,-469.42 580.96,-510.18 630,-510.18 675.21,-510.18 686.07,-475.54 662.57,-445.74"/>
<polygon fill="black" stroke="black" points="665.16,-443.37 655.86,-438.29 659.96,-448.06 665.16,-443.37"/>
<text text-anchor="start" x="547" y="-513.18" font-family="Helvetica,sans-Serif" font-size="10.00">Register Host &#45; Register during error &#160;&#160;</text>
</g>
<!-- installed -->
<g id="node2" class="node state regular">
<title>installed</title>
<polygon fill="#ffffff" fill-opacity="0.003922" stroke="transparent" stroke-width="2" points="124.5,-744.18 56.5,-744.18 56.5,-708.18 124.5,-708.18 124.5,-744.18"/>
<text text-anchor="start" x="67.5" y="-722.58" font-family="Helvetica,sans-Serif" font-size="12.00">installed</text>
<path fill="none" stroke="black" stroke-width="2" d="M68.5,-709.68C68.5,-709.68 112.5,-709.68 112.5,-709.68 118,-709.68 123.5,-715.18 123.5,-720.68 123.5,-720.68 123.5,-731.68 123.5,-731.68 123.5,-737.18 118,-742.68 112.5,-742.68 112.5,-742.68 68.5,-742.68 68.5,-742.68 63,-742.68 57.5,-737.18 57.5,-731.68 57.5,-731.68 57.5,-720.68 57.5,-720.68 57.5,-715.18 63,-709.68 68.5,-709.68"/>
</g>
<!-- installed&#45;&gt;error -->
<g id="edge11" class="edge transition">
<title>installed&#45;&gt;error</title>
<path fill="none" stroke="black" d="M124.55,-736.8C212.11,-762.66 452.33,-818.5 584,-700.18 620.87,-667.04 627.58,-512.81 628.76,-448.48"/>
<polygon fill="black" stroke="black" points="632.27,-448.31 628.92,-438.25 625.27,-448.2 632.27,-448.31"/>
<text text-anchor="start" x="275" y="-775.18" font-family="Helvetica,sans-Serif" font-size="10.00">Refresh &#45; Move host to error when cluster is in error &#160;&#160;</text>
</g>
<!-- installing -->
<g id="node3" class="node state regular">
<title>installing</title>
<polygon fill="#ffffff" fill-opacity="0.003922" stroke="transparent" stroke-width="2" points="126,-608.18 55,-608.18 55,-572.18 126,-572.18 126,-608.18"/>
<text text-anchor="start" x="66.5" y="-586.58" font-family="Helvetica,sans-Serif" font-size="12.00">installing</text>
<path fill="none" stroke="black" stroke-width="2" d="M67,-573.68C67,-573.68 114,-573.68 114,-573.68 119.5,-573.68 125,-579.18 125,-584.68 125,-584.68 125,-595.68 125,-595.68 125,-601.18 119.5,-606.68 114,-606.68 114,-606.68 67,-606.68 67,-606.68 61.5,-606.68 56,-601.18 56,-595.68 56,-595.68 56,-584.68 56,-584.68 56,-579.18 61.5,-573.68 67,-573.68"/>
</g>
<!-- installing&#45;&gt;error -->
<g id="edge1" class="edge transition">
<title>installing&#45;&gt;error</title>
<path fill="none" stroke="black" d="M108.42,-608.38C128.02,-628 162.34,-658.03 199,-670.18 239.61,-683.63 551.18,-697.61 584,-670.18 617.52,-642.15 626.11,-507.71 628.28,-448.4"/>
<polygon fill="black" stroke="black" points="631.78,-448.35 628.62,-438.24 624.79,-448.12 631.78,-448.35"/>
<text text-anchor="start" x="257.5" y="-688.18" font-family="Helvetica,sans-Serif" font-size="10.00">Installation Failed &#45; Installation failed while host is installing &#160;&#160;</text>
</g>
<!-- installing&#45;&gt;error -->
<g id="edge6" class="edge transition">
<title>installing&#45;&gt;error</title>
<path fill="none" stroke="black" d="M124.25,-608.31C144.99,-618.73 172.75,-630.8 199,-636.18 240.91,-644.76 550.81,-663.16 584,-636.18 612.71,-612.83 623.71,-501.71 627.39,-448.59"/>
<polygon fill="black" stroke="black" points="630.89,-448.69 628.05,-438.48 623.9,-448.23 630.89,-448.69"/>
<text text-anchor="start" x="208.5" y="-653.18" font-family="Helvetica,sans-Serif" font-size="10.00">Media Disconnect &#45; Move to error when virtual media disconnects post&#45;installation &#160;&#160;</text>
</g>
<!-- installing&#45;&gt;error -->
<g id="edge9" class="edge transition">
<title>installing&#45;&gt;error</title>
<path fill="none" stroke="black" d="M126.28,-595.05C147.28,-597.75 174.62,-600.82 199,-602.18 241.71,-604.55 550.32,-628.55 584,-602.18 608.01,-583.38 620.98,-494.57 626.21,-448.33"/>
<polygon fill="black" stroke="black" points="629.69,-448.67 627.29,-438.35 622.74,-447.91 629.69,-448.67"/>
<text text-anchor="start" x="275" y="-617.18" font-family="Helvetica,sans-Serif" font-size="10.00">Refresh &#45; Move host to error when cluster is in error &#160;&#160;</text>
</g>
<!-- installing&#45;&gt;error -->
<g id="edge14" class="edge transition">
<title>installing&#45;&gt;error</title>
<path fill="none" stroke="black" d="M126.22,-589.72C235.46,-588.13 565.96,-582.18 584,-568.18 620.37,-539.94 628.21,-483.14 629.42,-448.71"/>
<polygon fill="black" stroke="black" points="632.92,-448.44 629.61,-438.38 625.93,-448.31 632.92,-448.44"/>
<text text-anchor="start" x="266.5" y="-591.18" font-family="Helvetica,sans-Serif" font-size="10.00">Refresh &#45; Move host to error when installation times out &#160;&#160;</text>
</g>
<!-- installing&#45;&gt;error -->
<g id="edge15" class="edge transition">
<title>installing&#45;&gt;error</title>
<path fill="none" stroke="black" d="M126.24,-576.31C147.01,-568.67 174.11,-559.82 199,-555.18 241.11,-547.31 549.25,-559.23 584,-534.18 611.43,-514.4 622.14,-475.25 626.33,-448.4"/>
<polygon fill="black" stroke="black" points="629.8,-448.81 627.67,-438.43 622.87,-447.87 629.8,-448.81"/>
<text text-anchor="start" x="245.5" y="-558.18" font-family="Helvetica,sans-Serif" font-size="10.00">Refresh &#45; Move installing host to error when connection times out &#160;&#160;</text>
</g>
<!-- installing&#45;&gt;error -->
<g id="edge16" class="edge transition">
<title>installing&#45;&gt;error</title>
<path fill="none" stroke="black" d="M112.43,-572C132.94,-555.41 165.87,-531.88 199,-521.18 280.53,-494.83 511.24,-545.43 584,-500.18 602.72,-488.53 614.35,-466.1 621.09,-447.95"/>
<polygon fill="black" stroke="black" points="624.43,-448.99 624.34,-438.4 617.8,-446.74 624.43,-448.99"/>
<text text-anchor="start" x="245.5" y="-524.18" font-family="Helvetica,sans-Serif" font-size="10.00">Refresh &#45; Move installing host to error when connection times out &#160;&#160;</text>
</g>
<!-- installing&#45;&gt;error -->
<g id="edge21" class="edge transition">
<title>installing&#45;&gt;error</title>
<path fill="none" stroke="black" d="M103.95,-572.11C121.81,-547.88 157.2,-505.76 199,-487.18 355.77,-417.48 425.54,-524.93 584,-459.18 591.79,-455.94 599.18,-450.81 605.64,-445.32"/>
<polygon fill="black" stroke="black" points="608.3,-447.63 613.28,-438.29 603.56,-442.48 608.3,-447.63"/>
<text text-anchor="start" x="295" y="-490.18" font-family="Helvetica,sans-Serif" font-size="10.00">Register Host &#45; Register during installation &#160;&#160;</text>
</g>
<!-- installing&#45;in&#45;progress -->
<g id="node4" class="node state regular">
<title>installing&#45;in&#45;progress</title>
<polygon fill="#ffffff" fill-opacity="0.003922" stroke="transparent" stroke-width="2" points="157.5,-387.18 23.5,-387.18 23.5,-351.18 157.5,-351.18 157.5,-387.18"/>
<text text-anchor="start" x="34.5" y="-365.58" font-family="Helvetica,sans-Serif" font-size="12.00">installing&#45;in&#45;progress</text>
<path fill="none" stroke="black" stroke-width="2" d="M35.5,-352.68C35.5,-352.68 145.5,-352.68 145.5,-352.68 151,-352.68 156.5,-358.18 156.5,-363.68 156.5,-363.68 156.5,-374.68 156.5,-374.68 156.5,-380.18 151,-385.68 145.5,-385.68 145.5,-385.68 35.5,-385.68 35.5,-385.68 30,-385.68 24.5,-380.18 24.5,-374.68 24.5,-374.68 24.5,-363.68 24.5,-363.68 24.5,-358.18 30,-352.68 35.5,-352.68"/>
</g>
<!-- installing&#45;in&#45;progress&#45;&gt;error -->
<g id="edge2" class="edge transition">
<title>installing&#45;in&#45;progress&#45;&gt;error</title>
<path fill="none" stroke="black" d="M114.19,-387.35C134.9,-402.7 167.06,-423.51 199,-432.18 281.57,-454.59 499.17,-443.29 584,-432.18 586.53,-431.84 589.11,-431.41 591.7,-430.91"/>
<polygon fill="black" stroke="black" points="592.63,-434.29 601.62,-428.69 591.1,-427.46 592.63,-434.29"/>
<text text-anchor="start" x="257.5" y="-447.18" font-family="Helvetica,sans-Serif" font-size="10.00">Installation Failed &#45; Installation failed while host is installing &#160;&#160;</text>
</g>
<!-- installing&#45;in&#45;progress&#45;&gt;error -->
<g id="edge7" class="edge transition">
<title>installing&#45;in&#45;progress&#45;&gt;error</title>
<path fill="none" stroke="black" d="M149.31,-387.19C165.27,-391.49 182.68,-395.59 199,-398.18 274.19,-410.1 501.94,-416.98 591.89,-419.29"/>
<polygon fill="black" stroke="black" points="591.82,-422.79 601.91,-419.54 592,-415.79 591.82,-422.79"/>
<text text-anchor="start" x="208.5" y="-421.18" font-family="Helvetica,sans-Serif" font-size="10.00">Media Disconnect &#45; Move to error when virtual media disconnects post&#45;installation &#160;&#160;</text>
</g>
<!-- installing&#45;in&#45;progress&#45;&gt;error -->
<g id="edge10" class="edge transition">
<title>installing&#45;in&#45;progress&#45;&gt;error</title>
<path fill="none" stroke="black" d="M157.79,-369.06C282.94,-369.16 545.03,-371.09 584,-385.18 590.63,-387.57 597.05,-391.34 602.87,-395.54"/>
<polygon fill="black" stroke="black" points="600.9,-398.44 610.92,-401.88 605.23,-392.94 600.9,-398.44"/>
<text text-anchor="start" x="275" y="-388.18" font-family="Helvetica,sans-Serif" font-size="10.00">Refresh &#45; Move host to error when cluster is in error &#160;&#160;</text>
</g>
<!-- installing&#45;in&#45;progress&#45;&gt;error -->
<g id="edge17" class="edge transition">
<title>installing&#45;in&#45;progress&#45;&gt;error</title>
<path fill="none" stroke="black" d="M157.56,-357.77C171.22,-355.86 185.55,-354.17 199,-353.18 284.32,-346.86 508.5,-312.94 584,-353.18 599.72,-361.56 610.93,-378.14 618.22,-392.71"/>
<polygon fill="black" stroke="black" points="615.09,-394.28 622.46,-401.89 621.45,-391.34 615.09,-394.28"/>
<text text-anchor="start" x="245.5" y="-356.18" font-family="Helvetica,sans-Serif" font-size="10.00">Refresh &#45; Move installing host to error when connection times out &#160;&#160;</text>
</g>
<!-- installing&#45;in&#45;progress&#45;&gt;error -->
<g id="edge18" class="edge transition">
<title>installing&#45;in&#45;progress&#45;&gt;error</title>
<path fill="none" stroke="black" d="M120.34,-351.16C141.28,-339.19 170.79,-324.53 199,-318.18 240.73,-308.78 548.16,-294.82 584,-318.18 608.86,-334.38 620.08,-367.76 625.09,-391.93"/>
<polygon fill="black" stroke="black" points="621.68,-392.76 626.92,-401.97 628.57,-391.5 621.68,-392.76"/>
<text text-anchor="start" x="199" y="-321.18" font-family="Helvetica,sans-Serif" font-size="10.00">Refresh &#45; Move to error on timeout if host is in particular installation in progress stages &#160;&#160;</text>
</g>
<!-- installing&#45;in&#45;progress&#45;&gt;error -->
<g id="edge22" class="edge transition">
<title>installing&#45;in&#45;progress&#45;&gt;error</title>
<path fill="none" stroke="black" d="M108.83,-350.84C128.53,-331.46 162.69,-302.08 199,-290.18 239.65,-276.85 549.15,-265.36 584,-290.18 616.37,-313.23 625.67,-361.23 628.22,-392.01"/>
<polygon fill="black" stroke="black" points="624.73,-392.35 628.86,-402.11 631.72,-391.91 624.73,-392.35"/>
<text text-anchor="start" x="295" y="-293.18" font-family="Helvetica,sans-Serif" font-size="10.00">Register Host &#45; Register during installation &#160;&#160;</text>
</g>
<!-- installing&#45;pending&#45;user&#45;action -->
<g id="node5" class="node state regular">
<title>installing&#45;pending&#45;user&#45;action</title>
<polygon fill="#ffffff" fill-opacity="0.003922" stroke="transparent" stroke-width="2" points="181,-288.18 0,-288.18 0,-252.18 181,-252.18 181,-288.18"/>
<text text-anchor="start" x="11.5" y="-266.58" font-family="Helvetica,sans-Serif" font-size="12.00">installing&#45;pending&#45;user&#45;action</text>
<path fill="none" stroke="black" stroke-width="2" d="M12,-253.68C12,-253.68 169,-253.68 169,-253.68 174.5,-253.68 180,-259.18 180,-264.68 180,-264.68 180,-275.68 180,-275.68 180,-281.18 174.5,-286.68 169,-286.68 169,-286.68 12,-286.68 12,-286.68 6.5,-286.68 1,-281.18 1,-275.68 1,-275.68 1,-264.68 1,-264.68 1,-259.18 6.5,-253.68 12,-253.68"/>
</g>
<!-- installing&#45;pending&#45;user&#45;action&#45;&gt;error -->
<g id="edge13" class="edge transition">
<title>installing&#45;pending&#45;user&#45;action&#45;&gt;error</title>
<path fill="none" stroke="black" d="M181.02,-255.58C305.6,-237.36 522.86,-213.86 584,-260.18 604.95,-276.04 618.87,-350.33 625.16,-391.87"/>
<polygon fill="black" stroke="black" points="621.71,-392.53 626.62,-401.91 628.64,-391.51 621.71,-392.53"/>
<text text-anchor="start" x="275" y="-263.18" font-family="Helvetica,sans-Serif" font-size="10.00">Refresh &#45; Move host to error when cluster is in error &#160;&#160;</text>
</g>
<!-- preparing&#45;failed -->
<g id="node6" class="node state regular">
<title>preparing&#45;failed</title>
<polygon fill="#ffffff" fill-opacity="0.003922" stroke="transparent" stroke-width="2" points="144,-234.18 37,-234.18 37,-198.18 144,-198.18 144,-234.18"/>
<text text-anchor="start" x="48.5" y="-212.58" font-family="Helvetica,sans-Serif" font-size="12.00">preparing&#45;failed</text>
<path fill="none" stroke="black" stroke-width="2" d="M49,-199.68C49,-199.68 132,-199.68 132,-199.68 137.5,-199.68 143,-205.18 143,-210.68 143,-210.68 143,-221.68 143,-221.68 143,-227.18 137.5,-232.68 132,-232.68 132,-232.68 49,-232.68 49,-232.68 43.5,-232.68 38,-227.18 38,-221.68 38,-221.68 38,-210.68 38,-210.68 38,-205.18 43.5,-199.68 49,-199.68"/>
</g>
<!-- preparing&#45;failed&#45;&gt;error -->
<g id="edge4" class="edge transition">
<title>preparing&#45;failed&#45;&gt;error</title>
<path fill="none" stroke="black" d="M144.02,-208.49C256.89,-193.21 517.73,-164.82 584,-218.18 610.73,-239.69 622.62,-341.53 626.94,-391.87"/>
<polygon fill="black" stroke="black" points="623.47,-392.39 627.77,-402.07 630.45,-391.82 623.47,-392.39"/>
<text text-anchor="start" x="208.5" y="-221.18" font-family="Helvetica,sans-Serif" font-size="10.00">Media Disconnect &#45; Move to error when virtual media disconnects post&#45;installation &#160;&#160;</text>
</g>
<!-- preparing&#45;for&#45;installation -->
<g id="node7" class="node state regular">
<title>preparing&#45;for&#45;installation</title>
<polygon fill="#ffffff" fill-opacity="0.003922" stroke="transparent" stroke-width="2" points="166.5,-180.18 14.5,-180.18 14.5,-144.18 166.5,-144.18 166.5,-180.18"/>
<text text-anchor="start" x="25.5" y="-158.58" font-family="Helvetica,sans-Serif" font-size="12.00">preparing&#45;for&#45;installation</text>
<path fill="none" stroke="black" stroke-width="2" d="M26.5,-145.68C26.5,-145.68 154.5,-145.68 154.5,-145.68 160,-145.68 165.5,-151.18 165.5,-156.68 165.5,-156.68 165.5,-167.68 165.5,-167.68 165.5,-173.18 160,-178.68 154.5,-178.68 154.5,-178.68 26.5,-178.68 26.5,-178.68 21,-178.68 15.5,-173.18 15.5,-167.68 15.5,-167.68 15.5,-156.68 15.5,-156.68 15.5,-151.18 21,-145.68 26.5,-145.68"/>
</g>
<!-- preparing&#45;for&#45;installation&#45;&gt;error -->
<g id="edge3" class="edge transition">
<title>preparing&#45;for&#45;installation&#45;&gt;error</title>
<path fill="none" stroke="black" d="M166.77,-152.43C289.01,-138.39 523.19,-119.42 584,-171.18 617.07,-199.32 625.9,-332.49 628.21,-391.69"/>
<polygon fill="black" stroke="black" points="624.71,-391.97 628.57,-401.84 631.71,-391.72 624.71,-391.97"/>
<text text-anchor="start" x="208.5" y="-174.18" font-family="Helvetica,sans-Serif" font-size="10.00">Media Disconnect &#45; Move to error when virtual media disconnects post&#45;installation &#160;&#160;</text>
</g>
<!-- preparing&#45;successful -->
<g id="node8" class="node state regular">
<title>preparing&#45;successful</title>
<polygon fill="#ffffff" fill-opacity="0.003922" stroke="transparent" stroke-width="2" points="157.5,-126.18 23.5,-126.18 23.5,-90.18 157.5,-90.18 157.5,-126.18"/>
<text text-anchor="start" x="34.5" y="-104.58" font-family="Helvetica,sans-Serif" font-size="12.00">preparing&#45;successful</text>
<path fill="none" stroke="black" stroke-width="2" d="M35.5,-91.68C35.5,-91.68 145.5,-91.68 145.5,-91.68 151,-91.68 156.5,-97.18 156.5,-102.68 156.5,-102.68 156.5,-113.68 156.5,-113.68 156.5,-119.18 151,-124.68 145.5,-124.68 145.5,-124.68 35.5,-124.68 35.5,-124.68 30,-124.68 24.5,-119.18 24.5,-113.68 24.5,-113.68 24.5,-102.68 24.5,-102.68 24.5,-97.18 30,-91.68 35.5,-91.68"/>
</g>
<!-- preparing&#45;successful&#45;&gt;error -->
<g id="edge5" class="edge transition">
<title>preparing&#45;successful&#45;&gt;error</title>
<path fill="none" stroke="black" d="M157.85,-99.91C277.49,-86.57 522.64,-66.93 584,-121.18 623.96,-156.5 628.83,-324.11 629.15,-391.76"/>
<polygon fill="black" stroke="black" points="625.65,-392.1 629.16,-402.09 632.65,-392.09 625.65,-392.1"/>
<text text-anchor="start" x="208.5" y="-124.18" font-family="Helvetica,sans-Serif" font-size="10.00">Media Disconnect &#45; Move to error when virtual media disconnects post&#45;installation &#160;&#160;</text>
</g>
<!-- resetting&#45;pending&#45;user&#45;action -->
<g id="node9" class="node state regular">
<title>resetting&#45;pending&#45;user&#45;action</title>
<polygon fill="#ffffff" fill-opacity="0.003922" stroke="transparent" stroke-width="2" points="180,-72.18 1,-72.18 1,-36.18 180,-36.18 180,-72.18"/>
<text text-anchor="start" x="12.5" y="-50.58" font-family="Helvetica,sans-Serif" font-size="12.00">resetting&#45;pending&#45;user&#45;action</text>
<path fill="none" stroke="black" stroke-width="2" d="M13,-37.68C13,-37.68 168,-37.68 168,-37.68 173.5,-37.68 179,-43.18 179,-48.68 179,-48.68 179,-59.68 179,-59.68 179,-65.18 173.5,-70.68 168,-70.68 168,-70.68 13,-70.68 13,-70.68 7.5,-70.68 2,-65.18 2,-59.68 2,-59.68 2,-48.68 2,-48.68 2,-43.18 7.5,-37.68 13,-37.68"/>
</g>
<!-- resetting&#45;pending&#45;user&#45;action&#45;&gt;error -->
<g id="edge12" class="edge transition">
<title>resetting&#45;pending&#45;user&#45;action&#45;&gt;error</title>
<path fill="none" stroke="black" d="M145.27,-36.08C245.63,-6.06 462.29,40.44 584,-70.18 607.71,-91.72 622.71,-311.7 627.41,-391.48"/>
<polygon fill="black" stroke="black" points="623.94,-391.99 628.01,-401.77 630.92,-391.58 623.94,-391.99"/>
<text text-anchor="start" x="275" y="-73.18" font-family="Helvetica,sans-Serif" font-size="10.00">Refresh &#45; Move host to error when cluster is in error &#160;&#160;</text>
</g>
</g>
</svg>
