<?xml version="1.0" encoding="UTF-8" standalone="no"?>
<!DOCTYPE svg PUBLIC "-//W3C//DTD SVG 1.1//EN"
 "http://www.w3.org/Graphics/SVG/1.1/DTD/svg11.dtd">
<!-- Generated by graphviz version 5.0.0 (0)
 -->
<!-- Title: state transitions Pages: 1 -->
<svg width="662pt" height="100pt"
 viewBox="0.00 0.00 661.50 100.00" xmlns="http://www.w3.org/2000/svg" xmlns:xlink="http://www.w3.org/1999/xlink">
<g id="graph0" class="graph" transform="scale(1 1) rotate(0) translate(4 96)">
<title>state transitions</title>
<polygon fill="white" stroke="transparent" points="-4,4 -4,-96 657.5,-96 657.5,4 -4,4"/>
<!-- installing -->
<g id="node1" class="node state regular">
<title>installing</title>
<polygon fill="#ffffff" fill-opacity="0.003922" stroke="transparent" stroke-width="2" points="489,-63 418,-63 418,-27 489,-27 489,-63"/>
<text text-anchor="start" x="429.5" y="-41.4" font-family="Helvetica,sans-Serif" font-size="12.00">installing</text>
<path fill="none" stroke="black" stroke-width="2" d="M430,-28.5C430,-28.5 477,-28.5 477,-28.5 482.5,-28.5 488,-34 488,-39.5 488,-39.5 488,-50.5 488,-50.5 488,-56 482.5,-61.5 477,-61.5 477,-61.5 430,-61.5 430,-61.5 424.5,-61.5 419,-56 419,-50.5 419,-50.5 419,-39.5 419,-39.5 419,-34 424.5,-28.5 430,-28.5"/>
</g>
<!-- installing&#45;&gt;installing -->
<g id="edge3" class="edge transition">
<title>installing&#45;&gt;installing</title>
<path fill="none" stroke="black" d="M421.66,-63.15C416.76,-72.54 427.38,-81 453.5,-81 469.42,-81 479.58,-77.86 483.98,-73.28"/>
<polygon fill="black" stroke="black" points="487.48,-73.53 485.34,-63.15 480.54,-72.6 487.48,-73.53"/>
<text text-anchor="start" x="253.5" y="-84" font-family="Helvetica,sans-Serif" font-size="10.00">Refresh &#45; Refresh during installing state without cluster error should stay in installing state &#160;&#160;</text>
</g>
<!-- known -->
<g id="node2" class="node state regular">
<title>known</title>
<polygon fill="#ffffff" fill-opacity="0.003922" stroke="transparent" stroke-width="2" points="96,-90 38,-90 38,-54 96,-54 96,-90"/>
<text text-anchor="start" x="49" y="-68.4" font-family="Helvetica,sans-Serif" font-size="12.00">known</text>
<path fill="none" stroke="black" stroke-width="2" d="M50,-55.5C50,-55.5 84,-55.5 84,-55.5 89.5,-55.5 95,-61 95,-66.5 95,-66.5 95,-77.5 95,-77.5 95,-83 89.5,-88.5 84,-88.5 84,-88.5 50,-88.5 50,-88.5 44.5,-88.5 39,-83 39,-77.5 39,-77.5 39,-66.5 39,-66.5 39,-61 44.5,-55.5 50,-55.5"/>
</g>
<!-- known&#45;&gt;installing -->
<g id="edge1" class="edge transition">
<title>known&#45;&gt;installing</title>
<path fill="none" stroke="black" d="M96.27,-70.01C162.41,-65.37 327.67,-53.77 407.69,-48.15"/>
<polygon fill="black" stroke="black" points="408.2,-51.62 417.93,-47.43 407.71,-44.64 408.2,-51.62"/>
<text text-anchor="start" x="202" y="-68" font-family="Helvetica,sans-Serif" font-size="10.00">Install Host &#45; Install known host &#160;&#160;</text>
</g>
<!-- preparing&#45;successful -->
<g id="node3" class="node state regular">
<title>preparing&#45;successful</title>
<polygon fill="#ffffff" fill-opacity="0.003922" stroke="transparent" stroke-width="2" points="134,-36 0,-36 0,0 134,0 134,-36"/>
<text text-anchor="start" x="11" y="-14.4" font-family="Helvetica,sans-Serif" font-size="12.00">preparing&#45;successful</text>
<path fill="none" stroke="black" stroke-width="2" d="M12,-1.5C12,-1.5 122,-1.5 122,-1.5 127.5,-1.5 133,-7 133,-12.5 133,-12.5 133,-23.5 133,-23.5 133,-29 127.5,-34.5 122,-34.5 122,-34.5 12,-34.5 12,-34.5 6.5,-34.5 1,-29 1,-23.5 1,-23.5 1,-12.5 1,-12.5 1,-7 6.5,-1.5 12,-1.5"/>
</g>
<!-- preparing&#45;successful&#45;&gt;installing -->
<g id="edge2" class="edge transition">
<title>preparing&#45;successful&#45;&gt;installing</title>
<path fill="none" stroke="black" d="M134.14,-17.51C201.37,-17.82 308.38,-20.56 400,-33 402.64,-33.36 405.35,-33.79 408.08,-34.26"/>
<polygon fill="black" stroke="black" points="407.44,-37.71 417.93,-36.17 408.77,-30.83 407.44,-37.71"/>
<text text-anchor="start" x="152" y="-36" font-family="Helvetica,sans-Serif" font-size="10.00">Refresh &#45; Move successfully prepared host to installing &#160;&#160;</text>
</g>
</g>
</svg>
