<?xml version="1.0" encoding="UTF-8" standalone="no"?>
<!DOCTYPE svg PUBLIC "-//W3C//DTD SVG 1.1//EN"
 "http://www.w3.org/Graphics/SVG/1.1/DTD/svg11.dtd">
<!-- Generated by graphviz version 12.1.0 (20240811.2233)
 -->
<!-- Title: state transitions Pages: 1 -->
<svg width="679pt" height="384pt"
 viewBox="0.00 0.00 679.00 383.82" xmlns="http://www.w3.org/2000/svg" xmlns:xlink="http://www.w3.org/1999/xlink">
<g id="graph0" class="graph" transform="scale(1 1) rotate(0) translate(4 379.82)">
<title>state transitions</title>
<polygon fill="white" stroke="none" points="-4,4 -4,-379.82 675,-379.82 675,4 -4,4"/>
<!-- added&#45;to&#45;existing&#45;cluster -->
<g id="node1" class="node state regular">
<title>added&#45;to&#45;existing&#45;cluster</title>
<polygon fill="#ffffff" fill-opacity="0.003922" stroke="none" stroke-width="2" points="171.25,-368.58 0,-368.58 0,-332.33 171.25,-332.33 171.25,-368.58"/>
<text text-anchor="start" x="11" y="-346.18" font-family="Helvetica,sans-Serif" font-size="12.00">added&#45;to&#45;existing&#45;cluster</text>
<path fill="none" stroke="black" stroke-width="2" d="M12.42,-333.33C12.42,-333.33 158.83,-333.33 158.83,-333.33 164.54,-333.33 170.25,-339.04 170.25,-344.75 170.25,-344.75 170.25,-356.16 170.25,-356.16 170.25,-361.87 164.54,-367.58 158.83,-367.58 158.83,-367.58 12.42,-367.58 12.42,-367.58 6.71,-367.58 1,-361.87 1,-356.16 1,-356.16 1,-344.75 1,-344.75 1,-339.04 6.71,-333.33 12.42,-333.33"/>
</g>
<!-- unbinding&#45;pending&#45;user&#45;action -->
<g id="node2" class="node state regular">
<title>unbinding&#45;pending&#45;user&#45;action</title>
<polygon fill="#ffffff" fill-opacity="0.003922" stroke="none" stroke-width="2" points="671,-206.58 466.75,-206.58 466.75,-170.33 671,-170.33 671,-206.58"/>
<text text-anchor="start" x="477.75" y="-184.18" font-family="Helvetica,sans-Serif" font-size="12.00">unbinding&#45;pending&#45;user&#45;action</text>
<path fill="none" stroke="black" stroke-width="2" d="M479.17,-171.33C479.17,-171.33 658.58,-171.33 658.58,-171.33 664.29,-171.33 670,-177.04 670,-182.75 670,-182.75 670,-194.16 670,-194.16 670,-199.87 664.29,-205.58 658.58,-205.58 658.58,-205.58 479.17,-205.58 479.17,-205.58 473.46,-205.58 467.75,-199.87 467.75,-194.16 467.75,-194.16 467.75,-182.75 467.75,-182.75 467.75,-177.04 473.46,-171.33 479.17,-171.33"/>
</g>
<!-- added&#45;to&#45;existing&#45;cluster&#45;&gt;unbinding&#45;pending&#45;user&#45;action -->
<g id="edge1" class="edge transition">
<title>added&#45;to&#45;existing&#45;cluster&#45;&gt;unbinding&#45;pending&#45;user&#45;action</title>
<path fill="none" stroke="black" d="M171.09,-360.8C247.62,-366.33 361.44,-364.73 448.75,-321.46 495.87,-298.1 532.85,-247.3 552.44,-215.68"/>
<polygon fill="black" stroke="black" points="555.24,-217.81 557.4,-207.44 549.24,-214.2 555.24,-217.81"/>
<text text-anchor="start" x="197.5" y="-366.32" font-family="Helvetica,sans-Serif" font-size="10.00">Unbind Host &#45; Unbind during or after installation &#160;&#160;</text>
</g>
<!-- cancelled -->
<g id="node3" class="node state regular">
<title>cancelled</title>
<polygon fill="#ffffff" fill-opacity="0.003922" stroke="none" stroke-width="2" points="125.12,-310.58 46.12,-310.58 46.12,-274.33 125.12,-274.33 125.12,-310.58"/>
<text text-anchor="start" x="57.12" y="-288.18" font-family="Helvetica,sans-Serif" font-size="12.00">cancelled</text>
<path fill="none" stroke="black" stroke-width="2" d="M58.54,-275.33C58.54,-275.33 112.71,-275.33 112.71,-275.33 118.42,-275.33 124.12,-281.04 124.12,-286.75 124.12,-286.75 124.12,-298.16 124.12,-298.16 124.12,-303.87 118.42,-309.58 112.71,-309.58 112.71,-309.58 58.54,-309.58 58.54,-309.58 52.83,-309.58 47.12,-303.87 47.12,-298.16 47.12,-298.16 47.12,-286.75 47.12,-286.75 47.12,-281.04 52.83,-275.33 58.54,-275.33"/>
</g>
<!-- cancelled&#45;&gt;unbinding&#45;pending&#45;user&#45;action -->
<g id="edge2" class="edge transition">
<title>cancelled&#45;&gt;unbinding&#45;pending&#45;user&#45;action</title>
<path fill="none" stroke="black" d="M124.99,-295.82C205.72,-302.36 390.47,-314.31 448.75,-292.46 489.73,-277.08 525.87,-240.53 547.3,-215.13"/>
<polygon fill="black" stroke="black" points="549.92,-217.46 553.55,-207.51 544.51,-213.02 549.92,-217.46"/>
<text text-anchor="start" x="229.75" y="-308.26" font-family="Helvetica,sans-Serif" font-size="10.00">Reclaim Host &#45; Reclaim failed host &#160;&#160;</text>
</g>
<!-- cancelled&#45;&gt;unbinding&#45;pending&#45;user&#45;action -->
<g id="edge3" class="edge transition">
<title>cancelled&#45;&gt;unbinding&#45;pending&#45;user&#45;action</title>
<path fill="none" stroke="black" d="M125.04,-285.58C144.27,-282.29 167.95,-278.48 189.25,-275.71 304.16,-260.75 337.66,-283.42 448.75,-250.46 477.96,-241.79 508.38,-225.82 531.17,-212.26"/>
<polygon fill="black" stroke="black" points="532.74,-215.4 539.47,-207.21 529.11,-209.42 532.74,-215.4"/>
<text text-anchor="start" x="197.5" y="-278.96" font-family="Helvetica,sans-Serif" font-size="10.00">Unbind Host &#45; Unbind during or after installation &#160;&#160;</text>
</g>
<!-- error -->
<g id="node4" class="node state regular">
<title>error</title>
<polygon fill="#ffffff" fill-opacity="0.003922" stroke="none" stroke-width="2" points="113.62,-247.58 57.62,-247.58 57.62,-211.33 113.62,-211.33 113.62,-247.58"/>
<text text-anchor="start" x="71" y="-225.18" font-family="Helvetica,sans-Serif" font-size="12.00">error</text>
<path fill="none" stroke="black" stroke-width="2" d="M70.04,-212.33C70.04,-212.33 101.21,-212.33 101.21,-212.33 106.92,-212.33 112.62,-218.04 112.62,-223.75 112.62,-223.75 112.62,-235.16 112.62,-235.16 112.62,-240.87 106.92,-246.58 101.21,-246.58 101.21,-246.58 70.04,-246.58 70.04,-246.58 64.33,-246.58 58.62,-240.87 58.62,-235.16 58.62,-235.16 58.62,-223.75 58.62,-223.75 58.62,-218.04 64.33,-212.33 70.04,-212.33"/>
</g>
<!-- error&#45;&gt;unbinding&#45;pending&#45;user&#45;action -->
<g id="edge4" class="edge transition">
<title>error&#45;&gt;unbinding&#45;pending&#45;user&#45;action</title>
<path fill="none" stroke="black" d="M113.61,-230.96C174.02,-233.85 324.58,-238.41 448.75,-220.46 465.79,-217.99 483.87,-213.92 500.67,-209.49"/>
<polygon fill="black" stroke="black" points="501.3,-212.95 510.03,-206.94 499.46,-206.19 501.3,-212.95"/>
<text text-anchor="start" x="229.75" y="-236.94" font-family="Helvetica,sans-Serif" font-size="10.00">Reclaim Host &#45; Reclaim failed host &#160;&#160;</text>
</g>
<!-- error&#45;&gt;unbinding&#45;pending&#45;user&#45;action -->
<g id="edge5" class="edge transition">
<title>error&#45;&gt;unbinding&#45;pending&#45;user&#45;action</title>
<path fill="none" stroke="black" d="M113.33,-221.15C133.87,-215.15 163.07,-207.48 189.25,-203.71 278.13,-190.9 379.86,-187.42 455.48,-186.95"/>
<polygon fill="black" stroke="black" points="455.42,-190.45 465.4,-186.91 455.39,-183.45 455.42,-190.45"/>
<text text-anchor="start" x="197.5" y="-206.96" font-family="Helvetica,sans-Serif" font-size="10.00">Unbind Host &#45; Unbind during or after installation &#160;&#160;</text>
</g>
<!-- installed -->
<g id="node5" class="node state regular">
<title>installed</title>
<polygon fill="#ffffff" fill-opacity="0.003922" stroke="none" stroke-width="2" points="121.38,-188.58 49.88,-188.58 49.88,-152.33 121.38,-152.33 121.38,-188.58"/>
<text text-anchor="start" x="60.88" y="-166.18" font-family="Helvetica,sans-Serif" font-size="12.00">installed</text>
<path fill="none" stroke="black" stroke-width="2" d="M62.29,-153.33C62.29,-153.33 108.96,-153.33 108.96,-153.33 114.67,-153.33 120.38,-159.04 120.38,-164.75 120.38,-164.75 120.38,-176.16 120.38,-176.16 120.38,-181.87 114.67,-187.58 108.96,-187.58 108.96,-187.58 62.29,-187.58 62.29,-187.58 56.58,-187.58 50.88,-181.87 50.88,-176.16 50.88,-176.16 50.88,-164.75 50.88,-164.75 50.88,-159.04 56.58,-153.33 62.29,-153.33"/>
</g>
<!-- installed&#45;&gt;unbinding&#45;pending&#45;user&#45;action -->
<g id="edge6" class="edge transition">
<title>installed&#45;&gt;unbinding&#45;pending&#45;user&#45;action</title>
<path fill="none" stroke="black" d="M121.14,-169.01C185.6,-166.67 328.66,-163.1 448.75,-171.71 450.98,-171.86 453.22,-172.04 455.49,-172.23"/>
<polygon fill="black" stroke="black" points="455.13,-175.71 465.41,-173.15 455.78,-168.74 455.13,-175.71"/>
<text text-anchor="start" x="197.5" y="-174.96" font-family="Helvetica,sans-Serif" font-size="10.00">Unbind Host &#45; Unbind during or after installation &#160;&#160;</text>
</g>
<!-- reclaiming -->
<g id="node6" class="node state regular">
<title>reclaiming</title>
<polygon fill="#ffffff" fill-opacity="0.003922" stroke="none" stroke-width="2" points="127.75,-125.58 43.5,-125.58 43.5,-89.33 127.75,-89.33 127.75,-125.58"/>
<text text-anchor="start" x="54.5" y="-103.18" font-family="Helvetica,sans-Serif" font-size="12.00">reclaiming</text>
<path fill="none" stroke="black" stroke-width="2" d="M55.92,-90.33C55.92,-90.33 115.33,-90.33 115.33,-90.33 121.04,-90.33 126.75,-96.04 126.75,-101.75 126.75,-101.75 126.75,-113.16 126.75,-113.16 126.75,-118.87 121.04,-124.58 115.33,-124.58 115.33,-124.58 55.92,-124.58 55.92,-124.58 50.21,-124.58 44.5,-118.87 44.5,-113.16 44.5,-113.16 44.5,-101.75 44.5,-101.75 44.5,-96.04 50.21,-90.33 55.92,-90.33"/>
</g>
<!-- reclaiming&#45;&gt;unbinding&#45;pending&#45;user&#45;action -->
<g id="edge7" class="edge transition">
<title>reclaiming&#45;&gt;unbinding&#45;pending&#45;user&#45;action</title>
<path fill="none" stroke="black" d="M127.52,-109.58C195.06,-113.67 333.89,-124.58 448.75,-149.71 468.64,-154.06 489.92,-160.41 508.9,-166.71"/>
<polygon fill="black" stroke="black" points="507.76,-170.02 518.36,-169.92 510.01,-163.39 507.76,-170.02"/>
<text text-anchor="start" x="189.25" y="-152.96" font-family="Helvetica,sans-Serif" font-size="10.00">Reclaim Failed &#45; Reclaim failure for reclaiming host &#160;&#160;</text>
</g>
<!-- reclaiming&#45;&gt;unbinding&#45;pending&#45;user&#45;action -->
<g id="edge8" class="edge transition">
<title>reclaiming&#45;&gt;unbinding&#45;pending&#45;user&#45;action</title>
<path fill="none" stroke="black" d="M127.63,-97.4C196.22,-82.51 337.62,-60.2 448.75,-97.71 486.54,-110.46 521.81,-140.51 544.02,-162.56"/>
<polygon fill="black" stroke="black" points="541.31,-164.79 550.81,-169.48 546.3,-159.89 541.31,-164.79"/>
<text text-anchor="start" x="232.75" y="-100.96" font-family="Helvetica,sans-Serif" font-size="10.00">Refresh &#45; Refresh reclaiming host &#160;&#160;</text>
</g>
<!-- reclaiming&#45;rebooting -->
<g id="node7" class="node state regular">
<title>reclaiming&#45;rebooting</title>
<polygon fill="#ffffff" fill-opacity="0.003922" stroke="none" stroke-width="2" points="158.5,-62.58 12.75,-62.58 12.75,-26.33 158.5,-26.33 158.5,-62.58"/>
<text text-anchor="start" x="23.75" y="-40.18" font-family="Helvetica,sans-Serif" font-size="12.00">reclaiming&#45;rebooting</text>
<path fill="none" stroke="black" stroke-width="2" d="M25.17,-27.33C25.17,-27.33 146.08,-27.33 146.08,-27.33 151.79,-27.33 157.5,-33.04 157.5,-38.75 157.5,-38.75 157.5,-50.16 157.5,-50.16 157.5,-55.87 151.79,-61.58 146.08,-61.58 146.08,-61.58 25.17,-61.58 25.17,-61.58 19.46,-61.58 13.75,-55.87 13.75,-50.16 13.75,-50.16 13.75,-38.75 13.75,-38.75 13.75,-33.04 19.46,-27.33 25.17,-27.33"/>
</g>
<!-- reclaiming&#45;rebooting&#45;&gt;unbinding&#45;pending&#45;user&#45;action -->
<g id="edge9" class="edge transition">
<title>reclaiming&#45;rebooting&#45;&gt;unbinding&#45;pending&#45;user&#45;action</title>
<path fill="none" stroke="black" d="M158.26,-44.78C256.32,-45.66 423.18,-48.9 448.75,-60.71 495.01,-82.06 531.86,-130.41 551.72,-161.12"/>
<polygon fill="black" stroke="black" points="548.71,-162.91 556.99,-169.52 554.64,-159.19 548.71,-162.91"/>
<text text-anchor="start" x="189.25" y="-63.96" font-family="Helvetica,sans-Serif" font-size="10.00">Reclaim Failed &#45; Reclaim failure for reclaiming host &#160;&#160;</text>
</g>
<!-- reclaiming&#45;rebooting&#45;&gt;unbinding&#45;pending&#45;user&#45;action -->
<g id="edge10" class="edge transition">
<title>reclaiming&#45;rebooting&#45;&gt;unbinding&#45;pending&#45;user&#45;action</title>
<path fill="none" stroke="black" d="M141.3,-26.34C215.34,-5.18 349.62,21.03 448.75,-28.71 503.49,-56.17 539.49,-122.04 556.49,-160.07"/>
<polygon fill="black" stroke="black" points="553.19,-161.27 560.37,-169.06 559.62,-158.49 553.19,-161.27"/>
<text text-anchor="start" x="232.75" y="-31.96" font-family="Helvetica,sans-Serif" font-size="10.00">Refresh &#45; Refresh reclaiming host &#160;&#160;</text>
</g>
</g>
</svg>
