<?xml version="1.0" encoding="UTF-8" standalone="no"?>
<!DOCTYPE svg PUBLIC "-//W3C//DTD SVG 1.1//EN"
 "http://www.w3.org/Graphics/SVG/1.1/DTD/svg11.dtd">
<!-- Generated by graphviz version 5.0.0 (0)
 -->
<!-- Title: state transitions Pages: 1 -->
<svg width="843pt" height="509pt"
 viewBox="0.00 0.00 843.00 509.40" xmlns="http://www.w3.org/2000/svg" xmlns:xlink="http://www.w3.org/1999/xlink">
<g id="graph0" class="graph" transform="scale(1 1) rotate(0) translate(4 505.4)">
<title>state transitions</title>
<polygon fill="white" stroke="transparent" points="-4,4 -4,-505.4 839,-505.4 839,4 -4,4"/>
<!-- binding -->
<g id="node1" class="node state regular">
<title>binding</title>
<polygon fill="#ffffff" fill-opacity="0.003922" stroke="transparent" stroke-width="2" points="107,-472.4 45,-472.4 45,-436.4 107,-436.4 107,-472.4"/>
<text text-anchor="start" x="56" y="-450.8" font-family="Helvetica,sans-Serif" font-size="12.00">binding</text>
<path fill="none" stroke="black" stroke-width="2" d="M57,-437.9C57,-437.9 95,-437.9 95,-437.9 100.5,-437.9 106,-443.4 106,-448.9 106,-448.9 106,-459.9 106,-459.9 106,-465.4 100.5,-470.9 95,-470.9 95,-470.9 57,-470.9 57,-470.9 51.5,-470.9 46,-465.4 46,-459.9 46,-459.9 46,-448.9 46,-448.9 46,-443.4 51.5,-437.9 57,-437.9"/>
</g>
<!-- disconnected -->
<g id="node2" class="node state regular">
<title>disconnected</title>
<polygon fill="#ffffff" fill-opacity="0.003922" stroke="transparent" stroke-width="2" points="682,-285.4 588,-285.4 588,-249.4 682,-249.4 682,-285.4"/>
<text text-anchor="start" x="599" y="-263.8" font-family="Helvetica,sans-Serif" font-size="12.00">disconnected</text>
<path fill="none" stroke="black" stroke-width="2" d="M600,-250.9C600,-250.9 670,-250.9 670,-250.9 675.5,-250.9 681,-256.4 681,-261.9 681,-261.9 681,-272.9 681,-272.9 681,-278.4 675.5,-283.9 670,-283.9 670,-283.9 600,-283.9 600,-283.9 594.5,-283.9 589,-278.4 589,-272.9 589,-272.9 589,-261.9 589,-261.9 589,-256.4 594.5,-250.9 600,-250.9"/>
</g>
<!-- binding&#45;&gt;disconnected -->
<g id="edge6" class="edge transition">
<title>binding&#45;&gt;disconnected</title>
<path fill="none" stroke="black" d="M107.21,-462.69C190.21,-483.53 425.1,-529.36 570,-425.4 612.13,-395.17 626.57,-332.31 631.49,-295.64"/>
<polygon fill="black" stroke="black" points="634.98,-295.95 632.68,-285.61 628.03,-295.12 634.98,-295.95"/>
<text text-anchor="start" x="170" y="-493.4" font-family="Helvetica,sans-Serif" font-size="10.00">Media Disconnect &#45; Move to disconnected when virtual media disconnects pre&#45;installation &#160;&#160;</text>
</g>
<!-- disconnected&#45;&gt;disconnected -->
<g id="edge5" class="edge transition">
<title>disconnected&#45;&gt;disconnected</title>
<path fill="none" stroke="black" d="M611.12,-285.55C607.45,-294.94 615.41,-303.4 635,-303.4 646.94,-303.4 654.56,-300.26 657.86,-295.68"/>
<polygon fill="black" stroke="black" points="661.36,-295.85 658.88,-285.55 654.4,-295.15 661.36,-295.85"/>
<text text-anchor="start" x="435" y="-306.4" font-family="Helvetica,sans-Serif" font-size="10.00">Media Disconnect &#45; Move to disconnected when virtual media disconnects pre&#45;installation &#160;&#160;</text>
</g>
<!-- disconnected&#45;&gt;disconnected -->
<g id="edge11" class="edge transition">
<title>disconnected&#45;&gt;disconnected</title>
<path fill="none" stroke="black" d="M594.97,-285.66C574.22,-302.8 587.56,-321.4 635,-321.4 675.4,-321.4 691.07,-307.91 682.01,-293.32"/>
<polygon fill="black" stroke="black" points="684.35,-290.69 675.03,-285.66 679.18,-295.4 684.35,-290.69"/>
<text text-anchor="start" x="491.5" y="-324.4" font-family="Helvetica,sans-Serif" font-size="10.00">Refresh &#45; Move host to disconnected when connected times out &#160;&#160;</text>
</g>
<!-- discovering -->
<g id="node3" class="node state regular">
<title>discovering</title>
<polygon fill="#ffffff" fill-opacity="0.003922" stroke="transparent" stroke-width="2" points="118,-416.4 34,-416.4 34,-380.4 118,-380.4 118,-416.4"/>
<text text-anchor="start" x="45" y="-394.8" font-family="Helvetica,sans-Serif" font-size="12.00">discovering</text>
<path fill="none" stroke="black" stroke-width="2" d="M46,-381.9C46,-381.9 106,-381.9 106,-381.9 111.5,-381.9 117,-387.4 117,-392.9 117,-392.9 117,-403.9 117,-403.9 117,-409.4 111.5,-414.9 106,-414.9 106,-414.9 46,-414.9 46,-414.9 40.5,-414.9 35,-409.4 35,-403.9 35,-403.9 35,-392.9 35,-392.9 35,-387.4 40.5,-381.9 46,-381.9"/>
</g>
<!-- discovering&#45;&gt;disconnected -->
<g id="edge1" class="edge transition">
<title>discovering&#45;&gt;disconnected</title>
<path fill="none" stroke="black" d="M118.11,-400.86C229.66,-407.2 532.2,-422 570,-398.4 605.88,-375.99 622.19,-327.02 629.19,-295.71"/>
<polygon fill="black" stroke="black" points="632.63,-296.33 631.22,-285.83 625.78,-294.92 632.63,-296.33"/>
<text text-anchor="start" x="170" y="-413.4" font-family="Helvetica,sans-Serif" font-size="10.00">Media Disconnect &#45; Move to disconnected when virtual media disconnects pre&#45;installation &#160;&#160;</text>
</g>
<!-- discovering&#45;&gt;disconnected -->
<g id="edge7" class="edge transition">
<title>discovering&#45;&gt;disconnected</title>
<path fill="none" stroke="black" d="M118.11,-391.87C134.25,-389.51 152.96,-387.03 170,-385.4 214.3,-381.15 531.38,-386.51 570,-364.4 596.54,-349.2 614.09,-318 623.99,-295.07"/>
<polygon fill="black" stroke="black" points="627.35,-296.09 627.88,-285.51 620.87,-293.45 627.35,-296.09"/>
<text text-anchor="start" x="226.5" y="-388.4" font-family="Helvetica,sans-Serif" font-size="10.00">Refresh &#45; Move host to disconnected when connected times out &#160;&#160;</text>
</g>
<!-- insufficient -->
<g id="node4" class="node state regular">
<title>insufficient</title>
<polygon fill="#ffffff" fill-opacity="0.003922" stroke="transparent" stroke-width="2" points="116,-358.4 36,-358.4 36,-322.4 116,-322.4 116,-358.4"/>
<text text-anchor="start" x="47" y="-336.8" font-family="Helvetica,sans-Serif" font-size="12.00">insufficient</text>
<path fill="none" stroke="black" stroke-width="2" d="M48,-323.9C48,-323.9 104,-323.9 104,-323.9 109.5,-323.9 115,-329.4 115,-334.9 115,-334.9 115,-345.9 115,-345.9 115,-351.4 109.5,-356.9 104,-356.9 104,-356.9 48,-356.9 48,-356.9 42.5,-356.9 37,-351.4 37,-345.9 37,-345.9 37,-334.9 37,-334.9 37,-329.4 42.5,-323.9 48,-323.9"/>
</g>
<!-- insufficient&#45;&gt;disconnected -->
<g id="edge2" class="edge transition">
<title>insufficient&#45;&gt;disconnected</title>
<path fill="none" stroke="black" d="M116.03,-343.27C217.72,-350.18 488.55,-364.73 570,-330.4 588.08,-322.78 603.86,-307.42 615.22,-293.77"/>
<polygon fill="black" stroke="black" points="618.24,-295.6 621.71,-285.58 612.75,-291.25 618.24,-295.6"/>
<text text-anchor="start" x="170" y="-354.4" font-family="Helvetica,sans-Serif" font-size="10.00">Media Disconnect &#45; Move to disconnected when virtual media disconnects pre&#45;installation &#160;&#160;</text>
</g>
<!-- insufficient&#45;&gt;disconnected -->
<g id="edge8" class="edge transition">
<title>insufficient&#45;&gt;disconnected</title>
<path fill="none" stroke="black" d="M116.06,-329.15C132.57,-324.81 152.09,-320.22 170,-317.4 346.04,-289.68 395.36,-324.89 570,-289.4 572.66,-288.86 575.36,-288.23 578.08,-287.55"/>
<polygon fill="black" stroke="black" points="579.2,-290.87 587.9,-284.83 577.33,-284.12 579.2,-290.87"/>
<text text-anchor="start" x="226.5" y="-320.4" font-family="Helvetica,sans-Serif" font-size="10.00">Refresh &#45; Move host to disconnected when connected times out &#160;&#160;</text>
</g>
<!-- known -->
<g id="node5" class="node state regular">
<title>known</title>
<polygon fill="#ffffff" fill-opacity="0.003922" stroke="transparent" stroke-width="2" points="105,-294.4 47,-294.4 47,-258.4 105,-258.4 105,-294.4"/>
<text text-anchor="start" x="58" y="-272.8" font-family="Helvetica,sans-Serif" font-size="12.00">known</text>
<path fill="none" stroke="black" stroke-width="2" d="M59,-259.9C59,-259.9 93,-259.9 93,-259.9 98.5,-259.9 104,-265.4 104,-270.9 104,-270.9 104,-281.9 104,-281.9 104,-287.4 98.5,-292.9 93,-292.9 93,-292.9 59,-292.9 59,-292.9 53.5,-292.9 48,-287.4 48,-281.9 48,-281.9 48,-270.9 48,-270.9 48,-265.4 53.5,-259.9 59,-259.9"/>
</g>
<!-- known&#45;&gt;disconnected -->
<g id="edge3" class="edge transition">
<title>known&#45;&gt;disconnected</title>
<path fill="none" stroke="black" d="M105,-275.95C192.16,-274.54 459.78,-270.21 577.47,-268.31"/>
<polygon fill="black" stroke="black" points="577.77,-271.81 587.71,-268.15 577.65,-264.81 577.77,-271.81"/>
<text text-anchor="start" x="170" y="-277.4" font-family="Helvetica,sans-Serif" font-size="10.00">Media Disconnect &#45; Move to disconnected when virtual media disconnects pre&#45;installation &#160;&#160;</text>
</g>
<!-- known&#45;&gt;disconnected -->
<g id="edge9" class="edge transition">
<title>known&#45;&gt;disconnected</title>
<path fill="none" stroke="black" d="M105.16,-267.54C123.43,-262.27 147.88,-256.09 170,-253.4 346.47,-231.9 393.25,-234.29 570,-253.4 572.52,-253.67 575.09,-254 577.68,-254.38"/>
<polygon fill="black" stroke="black" points="577.26,-257.86 587.7,-256.04 578.41,-250.95 577.26,-257.86"/>
<text text-anchor="start" x="226.5" y="-256.4" font-family="Helvetica,sans-Serif" font-size="10.00">Refresh &#45; Move host to disconnected when connected times out &#160;&#160;</text>
</g>
<!-- pending&#45;for&#45;input -->
<g id="node6" class="node state regular">
<title>pending&#45;for&#45;input</title>
<polygon fill="#ffffff" fill-opacity="0.003922" stroke="transparent" stroke-width="2" points="132.5,-231.4 19.5,-231.4 19.5,-195.4 132.5,-195.4 132.5,-231.4"/>
<text text-anchor="start" x="31" y="-209.8" font-family="Helvetica,sans-Serif" font-size="12.00">pending&#45;for&#45;input</text>
<path fill="none" stroke="black" stroke-width="2" d="M31.5,-196.9C31.5,-196.9 120.5,-196.9 120.5,-196.9 126,-196.9 131.5,-202.4 131.5,-207.9 131.5,-207.9 131.5,-218.9 131.5,-218.9 131.5,-224.4 126,-229.9 120.5,-229.9 120.5,-229.9 31.5,-229.9 31.5,-229.9 26,-229.9 20.5,-224.4 20.5,-218.9 20.5,-218.9 20.5,-207.9 20.5,-207.9 20.5,-202.4 26,-196.9 31.5,-196.9"/>
</g>
<!-- pending&#45;for&#45;input&#45;&gt;disconnected -->
<g id="edge4" class="edge transition">
<title>pending&#45;for&#45;input&#45;&gt;disconnected</title>
<path fill="none" stroke="black" d="M132.83,-210.34C244.26,-204.9 490.35,-196.4 570,-222.4 583.14,-226.69 595.95,-234.68 606.62,-242.75"/>
<polygon fill="black" stroke="black" points="604.67,-245.68 614.67,-249.18 609.03,-240.21 604.67,-245.68"/>
<text text-anchor="start" x="170" y="-225.4" font-family="Helvetica,sans-Serif" font-size="10.00">Media Disconnect &#45; Move to disconnected when virtual media disconnects pre&#45;installation &#160;&#160;</text>
</g>
<!-- pending&#45;for&#45;input&#45;&gt;disconnected -->
<g id="edge10" class="edge transition">
<title>pending&#45;for&#45;input&#45;&gt;disconnected</title>
<path fill="none" stroke="black" d="M132.62,-196.61C144.82,-193.61 157.76,-190.95 170,-189.4 258.18,-178.2 489.65,-151.39 570,-189.4 592.11,-199.86 609.15,-222.12 620.06,-240.19"/>
<polygon fill="black" stroke="black" points="617.2,-242.24 625.21,-249.18 623.27,-238.76 617.2,-242.24"/>
<text text-anchor="start" x="226.5" y="-192.4" font-family="Helvetica,sans-Serif" font-size="10.00">Refresh &#45; Move host to disconnected when connected times out &#160;&#160;</text>
</g>
<!-- preparing&#45;failed -->
<g id="node7" class="node state regular">
<title>preparing&#45;failed</title>
<polygon fill="#ffffff" fill-opacity="0.003922" stroke="transparent" stroke-width="2" points="129.5,-170.4 22.5,-170.4 22.5,-134.4 129.5,-134.4 129.5,-170.4"/>
<text text-anchor="start" x="34" y="-148.8" font-family="Helvetica,sans-Serif" font-size="12.00">preparing&#45;failed</text>
<path fill="none" stroke="black" stroke-width="2" d="M34.5,-135.9C34.5,-135.9 117.5,-135.9 117.5,-135.9 123,-135.9 128.5,-141.4 128.5,-146.9 128.5,-146.9 128.5,-157.9 128.5,-157.9 128.5,-163.4 123,-168.9 117.5,-168.9 117.5,-168.9 34.5,-168.9 34.5,-168.9 29,-168.9 23.5,-163.4 23.5,-157.9 23.5,-157.9 23.5,-146.9 23.5,-146.9 23.5,-141.4 29,-135.9 34.5,-135.9"/>
</g>
<!-- preparing&#45;failed&#45;&gt;disconnected -->
<g id="edge12" class="edge transition">
<title>preparing&#45;failed&#45;&gt;disconnected</title>
<path fill="none" stroke="black" d="M129.77,-146.11C241.31,-133.86 496.79,-111.52 570,-154.4 601.23,-172.68 618.45,-212.46 626.96,-239.59"/>
<polygon fill="black" stroke="black" points="623.64,-240.68 629.81,-249.29 630.35,-238.71 623.64,-240.68"/>
<text text-anchor="start" x="226.5" y="-157.4" font-family="Helvetica,sans-Serif" font-size="10.00">Refresh &#45; Move host to disconnected when connected times out &#160;&#160;</text>
</g>
<!-- preparing&#45;for&#45;installation -->
<g id="node8" class="node state regular">
<title>preparing&#45;for&#45;installation</title>
<polygon fill="#ffffff" fill-opacity="0.003922" stroke="transparent" stroke-width="2" points="152,-116.4 0,-116.4 0,-80.4 152,-80.4 152,-116.4"/>
<text text-anchor="start" x="11" y="-94.8" font-family="Helvetica,sans-Serif" font-size="12.00">preparing&#45;for&#45;installation</text>
<path fill="none" stroke="black" stroke-width="2" d="M12,-81.9C12,-81.9 140,-81.9 140,-81.9 145.5,-81.9 151,-87.4 151,-92.9 151,-92.9 151,-103.9 151,-103.9 151,-109.4 145.5,-114.9 140,-114.9 140,-114.9 12,-114.9 12,-114.9 6.5,-114.9 1,-109.4 1,-103.9 1,-103.9 1,-92.9 1,-92.9 1,-87.4 6.5,-81.9 12,-81.9"/>
</g>
<!-- preparing&#45;for&#45;installation&#45;&gt;disconnected -->
<g id="edge13" class="edge transition">
<title>preparing&#45;for&#45;installation&#45;&gt;disconnected</title>
<path fill="none" stroke="black" d="M152.23,-91.05C273.28,-80.79 504.35,-68.13 570,-113.4 611.47,-142 626.14,-202.86 631.27,-238.92"/>
<polygon fill="black" stroke="black" points="627.85,-239.77 632.58,-249.25 634.8,-238.89 627.85,-239.77"/>
<text text-anchor="start" x="204" y="-116.4" font-family="Helvetica,sans-Serif" font-size="10.00">Refresh &#45; Move preparing host to disconnected when connection times out &#160;&#160;</text>
</g>
<!-- preparing&#45;successful -->
<g id="node9" class="node state regular">
<title>preparing&#45;successful</title>
<polygon fill="#ffffff" fill-opacity="0.003922" stroke="transparent" stroke-width="2" points="143,-62.4 9,-62.4 9,-26.4 143,-26.4 143,-62.4"/>
<text text-anchor="start" x="20" y="-40.8" font-family="Helvetica,sans-Serif" font-size="12.00">preparing&#45;successful</text>
<path fill="none" stroke="black" stroke-width="2" d="M21,-27.9C21,-27.9 131,-27.9 131,-27.9 136.5,-27.9 142,-33.4 142,-38.9 142,-38.9 142,-49.9 142,-49.9 142,-55.4 136.5,-60.9 131,-60.9 131,-60.9 21,-60.9 21,-60.9 15.5,-60.9 10,-55.4 10,-49.9 10,-49.9 10,-38.9 10,-38.9 10,-33.4 15.5,-27.9 21,-27.9"/>
</g>
<!-- preparing&#45;successful&#45;&gt;disconnected -->
<g id="edge14" class="edge transition">
<title>preparing&#45;successful&#45;&gt;disconnected</title>
<path fill="none" stroke="black" d="M139.86,-26.32C241.64,-1.17 443.81,31.19 570,-65.4 624.11,-106.81 633.42,-194.05 634.44,-239.11"/>
<polygon fill="black" stroke="black" points="630.94,-239.39 634.54,-249.35 637.94,-239.32 630.94,-239.39"/>
<text text-anchor="start" x="204" y="-68.4" font-family="Helvetica,sans-Serif" font-size="10.00">Refresh &#45; Move preparing host to disconnected when connection times out &#160;&#160;</text>
</g>
</g>
</svg>
