<?xml version="1.0" encoding="UTF-8" standalone="no"?>
<!DOCTYPE svg PUBLIC "-//W3C//DTD SVG 1.1//EN"
 "http://www.w3.org/Graphics/SVG/1.1/DTD/svg11.dtd">
<!-- Generated by graphviz version 12.1.0 (20240811.2233)
 -->
<!-- Title: state transitions Pages: 1 -->
<svg width="431pt" height="206pt"
 viewBox="0.00 0.00 431.00 206.25" xmlns="http://www.w3.org/2000/svg" xmlns:xlink="http://www.w3.org/1999/xlink">
<g id="graph0" class="graph" transform="scale(1 1) rotate(0) translate(4 202.25)">
<title>state transitions</title>
<polygon fill="white" stroke="none" points="-4,4 -4,-202.25 427,-202.25 427,4 -4,4"/>
<!-- disconnected -->
<g id="node1" class="node state regular">
<title>disconnected</title>
<polygon fill="#ffffff" fill-opacity="0.003922" stroke="none" stroke-width="2" points="101.5,-198.25 0,-198.25 0,-162 101.5,-162 101.5,-198.25"/>
<text text-anchor="start" x="11" y="-175.85" font-family="Helvetica,sans-Serif" font-size="12.00">disconnected</text>
<path fill="none" stroke="black" stroke-width="2" d="M12.42,-163C12.42,-163 89.08,-163 89.08,-163 94.79,-163 100.5,-168.71 100.5,-174.42 100.5,-174.42 100.5,-185.83 100.5,-185.83 100.5,-191.54 94.79,-197.25 89.08,-197.25 89.08,-197.25 12.42,-197.25 12.42,-197.25 6.71,-197.25 1,-191.54 1,-185.83 1,-185.83 1,-174.42 1,-174.42 1,-168.71 6.71,-163 12.42,-163"/>
</g>
<!-- pending&#45;for&#45;input -->
<g id="node2" class="node state regular">
<title>pending&#45;for&#45;input</title>
<polygon fill="#ffffff" fill-opacity="0.003922" stroke="none" stroke-width="2" points="411.5,-117.25 286,-117.25 286,-81 411.5,-81 411.5,-117.25"/>
<text text-anchor="start" x="297" y="-94.85" font-family="Helvetica,sans-Serif" font-size="12.00">pending&#45;for&#45;input</text>
<path fill="none" stroke="black" stroke-width="2" d="M298.42,-82C298.42,-82 399.08,-82 399.08,-82 404.79,-82 410.5,-87.71 410.5,-93.42 410.5,-93.42 410.5,-104.83 410.5,-104.83 410.5,-110.54 404.79,-116.25 399.08,-116.25 399.08,-116.25 298.42,-116.25 298.42,-116.25 292.71,-116.25 287,-110.54 287,-104.83 287,-104.83 287,-93.42 287,-93.42 287,-87.71 292.71,-82 298.42,-82"/>
</g>
<!-- disconnected&#45;&gt;pending&#45;for&#45;input -->
<g id="edge1" class="edge transition">
<title>disconnected&#45;&gt;pending&#45;for&#45;input</title>
<path fill="none" stroke="black" d="M101.12,-173.44C145.51,-166.65 212.13,-154.49 268,-136.12 279.77,-132.26 292.09,-127.12 303.43,-121.91"/>
<polygon fill="black" stroke="black" points="304.61,-125.23 312.16,-117.79 301.62,-118.9 304.61,-125.23"/>
<text text-anchor="start" x="119.5" y="-173.7" font-family="Helvetica,sans-Serif" font-size="10.00">Refresh &#45; Host pending input &#160;&#160;</text>
</g>
<!-- pending&#45;for&#45;input&#45;&gt;pending&#45;for&#45;input -->
<g id="edge5" class="edge transition">
<title>pending&#45;for&#45;input&#45;&gt;pending&#45;for&#45;input</title>
<path fill="none" stroke="black" d="M320.89,-116.97C316.15,-126.53 325.44,-135.25 348.75,-135.25 362.23,-135.25 371.02,-132.34 375.12,-128.03"/>
<polygon fill="black" stroke="black" points="378.54,-128.85 376.41,-118.47 371.6,-127.91 378.54,-128.85"/>
<text text-anchor="start" x="274.5" y="-138.5" font-family="Helvetica,sans-Serif" font-size="10.00">Refresh &#45; Host pending input &#160;&#160;</text>
</g>
<!-- discovering -->
<g id="node3" class="node state regular">
<title>discovering</title>
<polygon fill="#ffffff" fill-opacity="0.003922" stroke="none" stroke-width="2" points="95.88,-144.25 5.62,-144.25 5.62,-108 95.88,-108 95.88,-144.25"/>
<text text-anchor="start" x="16.62" y="-121.85" font-family="Helvetica,sans-Serif" font-size="12.00">discovering</text>
<path fill="none" stroke="black" stroke-width="2" d="M18.04,-109C18.04,-109 83.46,-109 83.46,-109 89.17,-109 94.88,-114.71 94.88,-120.42 94.88,-120.42 94.88,-131.83 94.88,-131.83 94.88,-137.54 89.17,-143.25 83.46,-143.25 83.46,-143.25 18.04,-143.25 18.04,-143.25 12.33,-143.25 6.62,-137.54 6.62,-131.83 6.62,-131.83 6.62,-120.42 6.62,-120.42 6.62,-114.71 12.33,-109 18.04,-109"/>
</g>
<!-- discovering&#45;&gt;pending&#45;for&#45;input -->
<g id="edge2" class="edge transition">
<title>discovering&#45;&gt;pending&#45;for&#45;input</title>
<path fill="none" stroke="black" d="M95.74,-122.11C142.98,-117.8 218.79,-110.89 274.94,-105.77"/>
<polygon fill="black" stroke="black" points="275.1,-109.27 284.74,-104.87 274.47,-102.3 275.1,-109.27"/>
<text text-anchor="start" x="119.5" y="-122.85" font-family="Helvetica,sans-Serif" font-size="10.00">Refresh &#45; Host pending input &#160;&#160;</text>
</g>
<!-- insufficient -->
<g id="node4" class="node state regular">
<title>insufficient</title>
<polygon fill="#ffffff" fill-opacity="0.003922" stroke="none" stroke-width="2" points="94,-90.25 7.5,-90.25 7.5,-54 94,-54 94,-90.25"/>
<text text-anchor="start" x="18.5" y="-67.85" font-family="Helvetica,sans-Serif" font-size="12.00">insufficient</text>
<path fill="none" stroke="black" stroke-width="2" d="M19.92,-55C19.92,-55 81.58,-55 81.58,-55 87.29,-55 93,-60.71 93,-66.42 93,-66.42 93,-77.83 93,-77.83 93,-83.54 87.29,-89.25 81.58,-89.25 81.58,-89.25 19.92,-89.25 19.92,-89.25 14.21,-89.25 8.5,-83.54 8.5,-77.83 8.5,-77.83 8.5,-66.42 8.5,-66.42 8.5,-60.71 14.21,-55 19.92,-55"/>
</g>
<!-- insufficient&#45;&gt;pending&#45;for&#45;input -->
<g id="edge3" class="edge transition">
<title>insufficient&#45;&gt;pending&#45;for&#45;input</title>
<path fill="none" stroke="black" d="M93.64,-75.35C137.22,-78.77 207.44,-84.5 268,-90.38 270.33,-90.6 272.7,-90.83 275.08,-91.07"/>
<polygon fill="black" stroke="black" points="274.56,-94.54 284.87,-92.08 275.28,-87.58 274.56,-94.54"/>
<text text-anchor="start" x="119.5" y="-93.62" font-family="Helvetica,sans-Serif" font-size="10.00">Refresh &#45; Host pending input &#160;&#160;</text>
</g>
<!-- known -->
<g id="node5" class="node state regular">
<title>known</title>
<polygon fill="#ffffff" fill-opacity="0.003922" stroke="none" stroke-width="2" points="81.25,-36.25 20.25,-36.25 20.25,0 81.25,0 81.25,-36.25"/>
<text text-anchor="start" x="31.25" y="-13.85" font-family="Helvetica,sans-Serif" font-size="12.00">known</text>
<path fill="none" stroke="black" stroke-width="2" d="M32.67,-1C32.67,-1 68.83,-1 68.83,-1 74.54,-1 80.25,-6.71 80.25,-12.42 80.25,-12.42 80.25,-23.83 80.25,-23.83 80.25,-29.54 74.54,-35.25 68.83,-35.25 68.83,-35.25 32.67,-35.25 32.67,-35.25 26.96,-35.25 21.25,-29.54 21.25,-23.83 21.25,-23.83 21.25,-12.42 21.25,-12.42 21.25,-6.71 26.96,-1 32.67,-1"/>
</g>
<!-- known&#45;&gt;pending&#45;for&#45;input -->
<g id="edge4" class="edge transition">
<title>known&#45;&gt;pending&#45;for&#45;input</title>
<path fill="none" stroke="black" d="M81.02,-21.66C123.14,-27.27 202.94,-39.83 268,-61.38 280.02,-65.36 292.6,-70.7 304.12,-76.12"/>
<polygon fill="black" stroke="black" points="302.46,-79.21 312.99,-80.42 305.52,-72.91 302.46,-79.21"/>
<text text-anchor="start" x="119.5" y="-64.62" font-family="Helvetica,sans-Serif" font-size="10.00">Refresh &#45; Host pending input &#160;&#160;</text>
</g>
</g>
</svg>
