<?xml version="1.0" encoding="UTF-8" standalone="no"?>
<!DOCTYPE svg PUBLIC "-//W3C//DTD SVG 1.1//EN"
 "http://www.w3.org/Graphics/SVG/1.1/DTD/svg11.dtd">
<!-- Generated by graphviz version 7.1.0 (0)
 -->
<!-- Title: state transitions Pages: 1 -->
<svg width="679pt" height="100pt"
 viewBox="0.00 0.00 679.00 100.00" xmlns="http://www.w3.org/2000/svg" xmlns:xlink="http://www.w3.org/1999/xlink">
<g id="graph0" class="graph" transform="scale(1 1) rotate(0) translate(4 96)">
<title>state transitions</title>
<polygon fill="white" stroke="none" points="-4,4 -4,-96 675,-96 675,4 -4,4"/>
<!-- added&#45;to&#45;existing&#45;cluster -->
<g id="node1" class="node state regular">
<title>added&#45;to&#45;existing&#45;cluster</title>
<polygon fill="#ffffff" fill-opacity="0.003922" stroke="none" stroke-width="2" points="636,-63 483,-63 483,-27 636,-27 636,-63"/>
<text text-anchor="start" x="494.5" y="-41.4" font-family="Helvetica,sans-Serif" font-size="12.00">added&#45;to&#45;existing&#45;cluster</text>
<path fill="none" stroke="black" stroke-width="2" d="M495,-28.5C495,-28.5 624,-28.5 624,-28.5 629.5,-28.5 635,-34 635,-39.5 635,-39.5 635,-50.5 635,-50.5 635,-56 629.5,-61.5 624,-61.5 624,-61.5 495,-61.5 495,-61.5 489.5,-61.5 484,-56 484,-50.5 484,-50.5 484,-39.5 484,-39.5 484,-34 489.5,-28.5 495,-28.5"/>
</g>
<!-- added&#45;to&#45;existing&#45;cluster&#45;&gt;added&#45;to&#45;existing&#45;cluster -->
<g id="edge3" class="edge transition">
<title>added&#45;to&#45;existing&#45;cluster&#45;&gt;added&#45;to&#45;existing&#45;cluster</title>
<path fill="none" stroke="black" d="M514.38,-62.78C506.71,-72.31 521.75,-81 559.5,-81 581.32,-81 595.56,-78.1 602.2,-73.81"/>
<polygon fill="black" stroke="black" points="605.57,-74.78 604.3,-64.26 598.73,-73.28 605.57,-74.78"/>
<text text-anchor="start" x="448" y="-84" font-family="Helvetica,sans-Serif" font-size="10.00">Refresh &#45; Day 2 hosts should stay in added state &#160;&#160;</text>
</g>
<!-- installing -->
<g id="node2" class="node state regular">
<title>installing</title>
<polygon fill="#ffffff" fill-opacity="0.003922" stroke="none" stroke-width="2" points="102.5,-90 31.5,-90 31.5,-54 102.5,-54 102.5,-90"/>
<text text-anchor="start" x="43" y="-68.4" font-family="Helvetica,sans-Serif" font-size="12.00">installing</text>
<path fill="none" stroke="black" stroke-width="2" d="M43.5,-55.5C43.5,-55.5 90.5,-55.5 90.5,-55.5 96,-55.5 101.5,-61 101.5,-66.5 101.5,-66.5 101.5,-77.5 101.5,-77.5 101.5,-83 96,-88.5 90.5,-88.5 90.5,-88.5 43.5,-88.5 43.5,-88.5 38,-88.5 32.5,-83 32.5,-77.5 32.5,-77.5 32.5,-66.5 32.5,-66.5 32.5,-61 38,-55.5 43.5,-55.5"/>
</g>
<!-- installing&#45;&gt;added&#45;to&#45;existing&#45;cluster -->
<g id="edge2" class="edge transition">
<title>installing&#45;&gt;added&#45;to&#45;existing&#45;cluster</title>
<path fill="none" stroke="black" d="M102.49,-70.1C178.52,-65.92 362.47,-55.79 472.1,-49.76"/>
<polygon fill="black" stroke="black" points="472.14,-53.26 481.94,-49.21 471.76,-46.27 472.14,-53.26"/>
<text text-anchor="start" x="152" y="-69" font-family="Helvetica,sans-Serif" font-size="10.00">null &#45; host progress changed to added&#45;to&#45;existing&#45;cluster for day2 host &#160;&#160;</text>
</g>
<!-- installing&#45;in&#45;progress -->
<g id="node3" class="node state regular">
<title>installing&#45;in&#45;progress</title>
<polygon fill="#ffffff" fill-opacity="0.003922" stroke="none" stroke-width="2" points="134,-36 0,-36 0,0 134,0 134,-36"/>
<text text-anchor="start" x="11" y="-14.4" font-family="Helvetica,sans-Serif" font-size="12.00">installing&#45;in&#45;progress</text>
<path fill="none" stroke="black" stroke-width="2" d="M12,-1.5C12,-1.5 122,-1.5 122,-1.5 127.5,-1.5 133,-7 133,-12.5 133,-12.5 133,-23.5 133,-23.5 133,-29 127.5,-34.5 122,-34.5 122,-34.5 12,-34.5 12,-34.5 6.5,-34.5 1,-29 1,-23.5 1,-23.5 1,-12.5 1,-12.5 1,-7 6.5,-1.5 12,-1.5"/>
</g>
<!-- installing&#45;in&#45;progress&#45;&gt;added&#45;to&#45;existing&#45;cluster -->
<g id="edge1" class="edge transition">
<title>installing&#45;in&#45;progress&#45;&gt;added&#45;to&#45;existing&#45;cluster</title>
<path fill="none" stroke="black" d="M133.69,-21.25C212.44,-25.19 348.38,-32.17 465,-39 467.22,-39.13 469.47,-39.26 471.75,-39.4"/>
<polygon fill="black" stroke="black" points="471.53,-42.89 481.72,-40 471.95,-35.91 471.53,-42.89"/>
<text text-anchor="start" x="152" y="-42" font-family="Helvetica,sans-Serif" font-size="10.00">null &#45; host progress changed to added&#45;to&#45;existing&#45;cluster for day2 host &#160;&#160;</text>
</g>
</g>
</svg>
