<?xml version="1.0" encoding="UTF-8" standalone="no"?>
<!DOCTYPE svg PUBLIC "-//W3C//DTD SVG 1.1//EN"
 "http://www.w3.org/Graphics/SVG/1.1/DTD/svg11.dtd">
<!-- Generated by graphviz version 5.0.0 (0)
 -->
<!-- Title: state transitions Pages: 1 -->
<svg width="853pt" height="129pt"
 viewBox="0.00 0.00 852.50 129.00" xmlns="http://www.w3.org/2000/svg" xmlns:xlink="http://www.w3.org/1999/xlink">
<g id="graph0" class="graph" transform="scale(1 1) rotate(0) translate(4 125)">
<title>state transitions</title>
<polygon fill="white" stroke="transparent" points="-4,4 -4,-125 848.5,-125 848.5,4 -4,4"/>
<!-- added&#45;to&#45;existing&#45;cluster -->
<g id="node1" class="node state regular">
<title>added&#45;to&#45;existing&#45;cluster</title>
<polygon fill="#ffffff" fill-opacity="0.003922" stroke="transparent" stroke-width="2" points="153,-97 0,-97 0,-61 153,-61 153,-97"/>
<text text-anchor="start" x="11.5" y="-75.4" font-family="Helvetica,sans-Serif" font-size="12.00">added&#45;to&#45;existing&#45;cluster</text>
<path fill="none" stroke="black" stroke-width="2" d="M12,-62.5C12,-62.5 141,-62.5 141,-62.5 146.5,-62.5 152,-68 152,-73.5 152,-73.5 152,-84.5 152,-84.5 152,-90 146.5,-95.5 141,-95.5 141,-95.5 12,-95.5 12,-95.5 6.5,-95.5 1,-90 1,-84.5 1,-84.5 1,-73.5 1,-73.5 1,-68 6.5,-62.5 12,-62.5"/>
</g>
<!-- installing&#45;pending&#45;user&#45;action -->
<g id="node3" class="node state regular">
<title>installing&#45;pending&#45;user&#45;action</title>
<polygon fill="#ffffff" fill-opacity="0.003922" stroke="transparent" stroke-width="2" points="647,-63 466,-63 466,-27 647,-27 647,-63"/>
<text text-anchor="start" x="477.5" y="-41.4" font-family="Helvetica,sans-Serif" font-size="12.00">installing&#45;pending&#45;user&#45;action</text>
<path fill="none" stroke="black" stroke-width="2" d="M478,-28.5C478,-28.5 635,-28.5 635,-28.5 640.5,-28.5 646,-34 646,-39.5 646,-39.5 646,-50.5 646,-50.5 646,-56 640.5,-61.5 635,-61.5 635,-61.5 478,-61.5 478,-61.5 472.5,-61.5 467,-56 467,-50.5 467,-50.5 467,-39.5 467,-39.5 467,-34 472.5,-28.5 478,-28.5"/>
</g>
<!-- added&#45;to&#45;existing&#45;cluster&#45;&gt;installing&#45;pending&#45;user&#45;action -->
<g id="edge5" class="edge transition">
<title>added&#45;to&#45;existing&#45;cluster&#45;&gt;installing&#45;pending&#45;user&#45;action</title>
<path fill="none" stroke="black" d="M153.08,-73.79C227.96,-68.61 345.9,-60.38 448,-53 450.53,-52.82 453.1,-52.63 455.68,-52.44"/>
<polygon fill="black" stroke="black" points="456.04,-55.93 465.76,-51.71 455.53,-48.94 456.04,-55.93"/>
<text text-anchor="start" x="211.5" y="-75" font-family="Helvetica,sans-Serif" font-size="10.00">Register Host &#45; Wrong boot order detection &#160;&#160;</text>
</g>
<!-- installing&#45;in&#45;progress -->
<g id="node2" class="node state regular">
<title>installing&#45;in&#45;progress</title>
<polygon fill="#ffffff" fill-opacity="0.003922" stroke="transparent" stroke-width="2" points="143.5,-36 9.5,-36 9.5,0 143.5,0 143.5,-36"/>
<text text-anchor="start" x="20.5" y="-14.4" font-family="Helvetica,sans-Serif" font-size="12.00">installing&#45;in&#45;progress</text>
<path fill="none" stroke="black" stroke-width="2" d="M21.5,-1.5C21.5,-1.5 131.5,-1.5 131.5,-1.5 137,-1.5 142.5,-7 142.5,-12.5 142.5,-12.5 142.5,-23.5 142.5,-23.5 142.5,-29 137,-34.5 131.5,-34.5 131.5,-34.5 21.5,-34.5 21.5,-34.5 16,-34.5 10.5,-29 10.5,-23.5 10.5,-23.5 10.5,-12.5 10.5,-12.5 10.5,-7 16,-1.5 21.5,-1.5"/>
</g>
<!-- installing&#45;in&#45;progress&#45;&gt;installing&#45;pending&#45;user&#45;action -->
<g id="edge1" class="edge transition">
<title>installing&#45;in&#45;progress&#45;&gt;installing&#45;pending&#45;user&#45;action</title>
<path fill="none" stroke="black" d="M143.71,-21.74C224.58,-26.31 362.15,-34.08 455.83,-39.37"/>
<polygon fill="black" stroke="black" points="455.71,-42.87 465.89,-39.94 456.11,-35.88 455.71,-42.87"/>
<text text-anchor="start" x="171" y="-41" font-family="Helvetica,sans-Serif" font-size="10.00">Refresh &#45; Tell user about boot order wen reboot takes too long &#160;&#160;</text>
</g>
<!-- installing&#45;in&#45;progress&#45;&gt;installing&#45;pending&#45;user&#45;action -->
<g id="edge3" class="edge transition">
<title>installing&#45;in&#45;progress&#45;&gt;installing&#45;pending&#45;user&#45;action</title>
<path fill="none" stroke="black" d="M143.57,-9.52C218.05,-1.59 342.52,6.74 448,-10 465.66,-12.8 484.37,-18.04 501.14,-23.63"/>
<polygon fill="black" stroke="black" points="500.18,-27 510.77,-26.95 502.46,-20.38 500.18,-27"/>
<text text-anchor="start" x="211.5" y="-13" font-family="Helvetica,sans-Serif" font-size="10.00">Register Host &#45; Wrong boot order detection &#160;&#160;</text>
</g>
<!-- installing&#45;pending&#45;user&#45;action&#45;&gt;installing&#45;pending&#45;user&#45;action -->
<g id="edge2" class="edge transition">
<title>installing&#45;pending&#45;user&#45;action&#45;&gt;installing&#45;pending&#45;user&#45;action</title>
<path fill="none" stroke="black" d="M534.25,-63.15C530.82,-72.54 538.24,-81 556.5,-81 567.63,-81 574.73,-77.86 577.8,-73.28"/>
<polygon fill="black" stroke="black" points="581.3,-73.44 578.75,-63.15 574.33,-72.78 581.3,-73.44"/>
<text text-anchor="start" x="268.5" y="-84" font-family="Helvetica,sans-Serif" font-size="10.00">Refresh &#45; Refresh during installing&#45;pending&#45;user&#45;action state without cluster error should stay in installing&#45;pending&#45;user&#45;action state &#160;&#160;</text>
</g>
<!-- installing&#45;pending&#45;user&#45;action&#45;&gt;installing&#45;pending&#45;user&#45;action -->
<g id="edge4" class="edge transition">
<title>installing&#45;pending&#45;user&#45;action&#45;&gt;installing&#45;pending&#45;user&#45;action</title>
<path fill="none" stroke="black" d="M519.2,-63.26C499.86,-80.4 512.3,-99 556.5,-99 594.14,-99 608.74,-85.51 600.31,-70.92"/>
<polygon fill="black" stroke="black" points="602.94,-68.61 593.8,-63.26 597.6,-73.14 602.94,-68.61"/>
<text text-anchor="start" x="458.5" y="-102" font-family="Helvetica,sans-Serif" font-size="10.00">Register Host &#45; Wrong boot order detection &#160;&#160;</text>
</g>
</g>
</svg>
