<?xml version="1.0" encoding="UTF-8" standalone="no"?>
<!DOCTYPE svg PUBLIC "-//W3C//DTD SVG 1.1//EN"
 "http://www.w3.org/Graphics/SVG/1.1/DTD/svg11.dtd">
<!-- Generated by graphviz version 7.1.0 (0)
 -->
<!-- Title: state transitions Pages: 1 -->
<svg width="821pt" height="756pt"
 viewBox="0.00 0.00 821.00 755.95" xmlns="http://www.w3.org/2000/svg" xmlns:xlink="http://www.w3.org/1999/xlink">
<g id="graph0" class="graph" transform="scale(1 1) rotate(0) translate(4 751.95)">
<title>state transitions</title>
<polygon fill="white" stroke="none" points="-4,4 -4,-751.95 817,-751.95 817,4 -4,4"/>
<!-- error -->
<g id="node1" class="node state regular">
<title>error</title>
<polygon fill="#ffffff" fill-opacity="0.003922" stroke="none" stroke-width="2" points="658,-420.95 602,-420.95 602,-384.95 658,-384.95 658,-420.95"/>
<text text-anchor="start" x="617.5" y="-399.35" font-family="Helvetica,sans-Serif" font-size="12.00">error</text>
<path fill="none" stroke="black" stroke-width="2" d="M614,-386.45C614,-386.45 646,-386.45 646,-386.45 651.5,-386.45 657,-391.95 657,-397.45 657,-397.45 657,-408.45 657,-408.45 657,-413.95 651.5,-419.45 646,-419.45 646,-419.45 614,-419.45 614,-419.45 608.5,-419.45 603,-413.95 603,-408.45 603,-408.45 603,-397.45 603,-397.45 603,-391.95 608.5,-386.45 614,-386.45"/>
</g>
<!-- error&#45;&gt;error -->
<g id="edge8" class="edge transition">
<title>error&#45;&gt;error</title>
<path fill="none" stroke="black" d="M619.28,-420.73C617.46,-430.26 621.03,-438.95 630,-438.95 635.04,-438.95 638.38,-436.2 640.01,-432.1"/>
<polygon fill="black" stroke="black" points="643.5,-432.44 640.62,-422.24 636.51,-432 643.5,-432.44"/>
<text text-anchor="start" x="447" y="-441.95" font-family="Helvetica,sans-Serif" font-size="10.00">Media Disconnect &#45; Move to error when virtual media disconnects post&#45;installation &#160;&#160;</text>
</g>
<!-- error&#45;&gt;error -->
<g id="edge18" class="edge transition">
<title>error&#45;&gt;error</title>
<path fill="none" stroke="black" d="M612.07,-420.93C602.48,-438.15 608.46,-456.95 630,-456.95 647.17,-456.95 654.45,-445.01 651.84,-431.44"/>
<polygon fill="black" stroke="black" points="655.23,-430.49 648.45,-422.34 648.67,-432.94 655.23,-430.49"/>
<text text-anchor="start" x="483" y="-459.95" font-family="Helvetica,sans-Serif" font-size="10.00">Refresh &#45; Log collection timed out during error should stay in error &#160;&#160;</text>
</g>
<!-- error&#45;&gt;error -->
<g id="edge19" class="edge transition">
<title>error&#45;&gt;error</title>
<path fill="none" stroke="black" d="M607.67,-420.66C587.27,-445.06 594.71,-474.95 630,-474.95 660.88,-474.95 670.43,-452.07 658.67,-430"/>
<polygon fill="black" stroke="black" points="661.7,-428.22 653.18,-421.91 655.91,-432.15 661.7,-428.22"/>
<text text-anchor="start" x="518" y="-477.95" font-family="Helvetica,sans-Serif" font-size="10.00">Refresh &#45; Refresh during error should stay in error &#160;&#160;</text>
</g>
<!-- error&#45;&gt;error -->
<g id="edge22" class="edge transition">
<title>error&#45;&gt;error</title>
<path fill="none" stroke="black" d="M604.54,-420.62C572.14,-451.8 580.62,-492.95 630,-492.95 675.13,-492.95 686.1,-458.57 662.91,-428.85"/>
<polygon fill="black" stroke="black" points="665.78,-426.8 656.48,-421.74 660.59,-431.5 665.78,-426.8"/>
<text text-anchor="start" x="547" y="-495.95" font-family="Helvetica,sans-Serif" font-size="10.00">Register Host &#45; Register during error &#160;&#160;</text>
</g>
<!-- installed -->
<g id="node2" class="node state regular">
<title>installed</title>
<polygon fill="#ffffff" fill-opacity="0.003922" stroke="none" stroke-width="2" points="124.5,-709.95 56.5,-709.95 56.5,-673.95 124.5,-673.95 124.5,-709.95"/>
<text text-anchor="start" x="67.5" y="-688.35" font-family="Helvetica,sans-Serif" font-size="12.00">installed</text>
<path fill="none" stroke="black" stroke-width="2" d="M68.5,-675.45C68.5,-675.45 112.5,-675.45 112.5,-675.45 118,-675.45 123.5,-680.95 123.5,-686.45 123.5,-686.45 123.5,-697.45 123.5,-697.45 123.5,-702.95 118,-708.45 112.5,-708.45 112.5,-708.45 68.5,-708.45 68.5,-708.45 63,-708.45 57.5,-702.95 57.5,-697.45 57.5,-697.45 57.5,-686.45 57.5,-686.45 57.5,-680.95 63,-675.45 68.5,-675.45"/>
</g>
<!-- installed&#45;&gt;error -->
<g id="edge11" class="edge transition">
<title>installed&#45;&gt;error</title>
<path fill="none" stroke="black" d="M124.49,-702.41C211.9,-727.87 451.8,-782.71 584,-664.95 618.25,-634.44 626.44,-493.38 628.39,-431.82"/>
<polygon fill="black" stroke="black" points="631.88,-432.23 628.66,-422.14 624.89,-432.03 631.88,-432.23"/>
<text text-anchor="start" x="275" y="-739.95" font-family="Helvetica,sans-Serif" font-size="10.00">Refresh &#45; Move host to error when cluster is in error &#160;&#160;</text>
</g>
<!-- installing -->
<g id="node3" class="node state regular">
<title>installing</title>
<polygon fill="#ffffff" fill-opacity="0.003922" stroke="none" stroke-width="2" points="126,-590.95 55,-590.95 55,-554.95 126,-554.95 126,-590.95"/>
<text text-anchor="start" x="66.5" y="-569.35" font-family="Helvetica,sans-Serif" font-size="12.00">installing</text>
<path fill="none" stroke="black" stroke-width="2" d="M67,-556.45C67,-556.45 114,-556.45 114,-556.45 119.5,-556.45 125,-561.95 125,-567.45 125,-567.45 125,-578.45 125,-578.45 125,-583.95 119.5,-589.45 114,-589.45 114,-589.45 67,-589.45 67,-589.45 61.5,-589.45 56,-583.95 56,-578.45 56,-578.45 56,-567.45 56,-567.45 56,-561.95 61.5,-556.45 67,-556.45"/>
</g>
<!-- installing&#45;&gt;error -->
<g id="edge1" class="edge transition">
<title>installing&#45;&gt;error</title>
<path fill="none" stroke="black" d="M113.79,-590.83C134.48,-606.2 166.85,-627.22 199,-635.95 240.28,-647.15 551.01,-663.18 584,-635.95 614.93,-610.42 624.84,-488.93 627.82,-432.23"/>
<polygon fill="black" stroke="black" points="631.31,-432.52 628.29,-422.37 624.31,-432.19 631.31,-432.52"/>
<text text-anchor="start" x="257.5" y="-652.95" font-family="Helvetica,sans-Serif" font-size="10.00">Installation Failed &#45; Installation failed while host is installing &#160;&#160;</text>
</g>
<!-- installing&#45;&gt;error -->
<g id="edge6" class="edge transition">
<title>installing&#45;&gt;error</title>
<path fill="none" stroke="black" d="M125.89,-584.71C146.76,-591.22 174.09,-598.65 199,-601.95 241.41,-607.57 550.58,-628.65 584,-601.95 610.2,-581.01 622.26,-482.14 626.77,-432.11"/>
<polygon fill="black" stroke="black" points="630.24,-432.56 627.6,-422.3 623.27,-431.97 630.24,-432.56"/>
<text text-anchor="start" x="208.5" y="-617.95" font-family="Helvetica,sans-Serif" font-size="10.00">Media Disconnect &#45; Move to error when virtual media disconnects post&#45;installation &#160;&#160;</text>
</g>
<!-- installing&#45;&gt;error -->
<g id="edge9" class="edge transition">
<title>installing&#45;&gt;error</title>
<path fill="none" stroke="black" d="M125.84,-574.95C231.69,-580.79 548,-595.74 584,-567.95 605.39,-551.44 619.1,-475.04 625.25,-432.22"/>
<polygon fill="black" stroke="black" points="628.71,-432.75 626.61,-422.37 621.78,-431.79 628.71,-432.75"/>
<text text-anchor="start" x="275" y="-586.95" font-family="Helvetica,sans-Serif" font-size="10.00">Refresh &#45; Move host to error when cluster is in error &#160;&#160;</text>
</g>
<!-- installing&#45;&gt;error -->
<g id="edge14" class="edge transition">
<title>installing&#45;&gt;error</title>
<path fill="none" stroke="black" d="M125.74,-566.21C146.79,-562.32 174.36,-557.67 199,-554.95 241.58,-550.24 549.82,-559.78 584,-533.95 615.5,-510.14 625.11,-462.98 627.94,-432.22"/>
<polygon fill="black" stroke="black" points="631.42,-432.66 628.64,-422.44 624.44,-432.16 631.42,-432.66"/>
<text text-anchor="start" x="266.5" y="-557.95" font-family="Helvetica,sans-Serif" font-size="10.00">Refresh &#45; Move host to error when installation times out &#160;&#160;</text>
</g>
<!-- installing&#45;&gt;error -->
<g id="edge15" class="edge transition">
<title>installing&#45;&gt;error</title>
<path fill="none" stroke="black" d="M120.4,-555.06C141.38,-543.07 170.9,-528.2 199,-520.95 240.48,-510.24 548.53,-523.98 584,-499.95 606.77,-484.52 618.26,-454.46 623.9,-431.87"/>
<polygon fill="black" stroke="black" points="627.26,-432.85 626.01,-422.33 620.43,-431.33 627.26,-432.85"/>
<text text-anchor="start" x="245.5" y="-523.95" font-family="Helvetica,sans-Serif" font-size="10.00">Refresh &#45; Move installing host to error when connection times out &#160;&#160;</text>
</g>
<!-- installing&#45;&gt;error -->
<g id="edge20" class="edge transition">
<title>installing&#45;&gt;error</title>
<path fill="none" stroke="black" d="M106.91,-555.29C126.12,-534.67 161.08,-501.53 199,-486.95 278.99,-456.18 508.68,-504.85 584,-463.95 597.55,-456.59 608.13,-443.18 615.61,-430.81"/>
<polygon fill="black" stroke="black" points="618.63,-432.58 620.43,-422.14 612.51,-429.18 618.63,-432.58"/>
<text text-anchor="start" x="295" y="-489.95" font-family="Helvetica,sans-Serif" font-size="10.00">Register Host &#45; Register during installation &#160;&#160;</text>
</g>
<!-- installing&#45;in&#45;progress -->
<g id="node4" class="node state regular">
<title>installing&#45;in&#45;progress</title>
<polygon fill="#ffffff" fill-opacity="0.003922" stroke="none" stroke-width="2" points="157.5,-386.95 23.5,-386.95 23.5,-350.95 157.5,-350.95 157.5,-386.95"/>
<text text-anchor="start" x="34.5" y="-365.35" font-family="Helvetica,sans-Serif" font-size="12.00">installing&#45;in&#45;progress</text>
<path fill="none" stroke="black" stroke-width="2" d="M35.5,-352.45C35.5,-352.45 145.5,-352.45 145.5,-352.45 151,-352.45 156.5,-357.95 156.5,-363.45 156.5,-363.45 156.5,-374.45 156.5,-374.45 156.5,-379.95 151,-385.45 145.5,-385.45 145.5,-385.45 35.5,-385.45 35.5,-385.45 30,-385.45 24.5,-379.95 24.5,-374.45 24.5,-374.45 24.5,-363.45 24.5,-363.45 24.5,-357.95 30,-352.45 35.5,-352.45"/>
</g>
<!-- installing&#45;in&#45;progress&#45;&gt;error -->
<g id="edge2" class="edge transition">
<title>installing&#45;in&#45;progress&#45;&gt;error</title>
<path fill="none" stroke="black" d="M113.79,-386.83C134.48,-402.2 166.85,-423.22 199,-431.95 281.57,-454.36 501.93,-456.1 584,-431.95 588.51,-430.62 593,-428.68 597.3,-426.43"/>
<polygon fill="black" stroke="black" points="598.78,-429.62 605.6,-421.51 595.21,-423.6 598.78,-429.62"/>
<text text-anchor="start" x="257.5" y="-451.95" font-family="Helvetica,sans-Serif" font-size="10.00">Installation Failed &#45; Installation failed while host is installing &#160;&#160;</text>
</g>
<!-- installing&#45;in&#45;progress&#45;&gt;error -->
<g id="edge7" class="edge transition">
<title>installing&#45;in&#45;progress&#45;&gt;error</title>
<path fill="none" stroke="black" d="M147.58,-386.93C163.98,-391.41 182.05,-395.6 199,-397.95 342.55,-417.82 515.64,-410.43 590.93,-405.7"/>
<polygon fill="black" stroke="black" points="590.9,-409.21 600.65,-405.06 590.44,-402.22 590.9,-409.21"/>
<text text-anchor="start" x="208.5" y="-413.95" font-family="Helvetica,sans-Serif" font-size="10.00">Media Disconnect &#45; Move to error when virtual media disconnects post&#45;installation &#160;&#160;</text>
</g>
<!-- installing&#45;in&#45;progress&#45;&gt;error -->
<g id="edge10" class="edge transition">
<title>installing&#45;in&#45;progress&#45;&gt;error</title>
<path fill="none" stroke="black" d="M157.42,-368.26C272.31,-367.54 504.56,-368.31 584,-384.95 586.48,-385.47 588.99,-386.11 591.5,-386.85"/>
<polygon fill="black" stroke="black" points="590.32,-390.14 600.91,-390.04 592.57,-383.51 590.32,-390.14"/>
<text text-anchor="start" x="275" y="-387.95" font-family="Helvetica,sans-Serif" font-size="10.00">Refresh &#45; Move host to error when cluster is in error &#160;&#160;</text>
</g>
<!-- installing&#45;in&#45;progress&#45;&gt;error -->
<g id="edge16" class="edge transition">
<title>installing&#45;in&#45;progress&#45;&gt;error</title>
<path fill="none" stroke="black" d="M157.28,-357.59C171.02,-355.65 185.45,-353.95 199,-352.95 284.32,-346.63 505.84,-318.14 584,-352.95 595.04,-357.87 604.51,-366.98 611.87,-376.09"/>
<polygon fill="black" stroke="black" points="608.85,-377.89 617.61,-383.83 614.47,-373.72 608.85,-377.89"/>
<text text-anchor="start" x="245.5" y="-355.95" font-family="Helvetica,sans-Serif" font-size="10.00">Refresh &#45; Move installing host to error when connection times out &#160;&#160;</text>
</g>
<!-- installing&#45;in&#45;progress&#45;&gt;error -->
<g id="edge17" class="edge transition">
<title>installing&#45;in&#45;progress&#45;&gt;error</title>
<path fill="none" stroke="black" d="M122.3,-351.01C143.17,-339.93 171.81,-326.74 199,-320.95 282.68,-303.11 510.38,-277.37 584,-320.95 603.33,-332.39 614.9,-355.4 621.47,-374.14"/>
<polygon fill="black" stroke="black" points="618.13,-375.19 624.47,-383.67 624.8,-373.08 618.13,-375.19"/>
<text text-anchor="start" x="199" y="-323.95" font-family="Helvetica,sans-Serif" font-size="10.00">Refresh &#45; Move to error on timeout if host is in particular installation in progress stages &#160;&#160;</text>
</g>
<!-- installing&#45;in&#45;progress&#45;&gt;error -->
<g id="edge21" class="edge transition">
<title>installing&#45;in&#45;progress&#45;&gt;error</title>
<path fill="none" stroke="black" d="M113.7,-351.04C144.81,-325.96 197.73,-283.39 199,-282.95 239.37,-268.79 548.84,-258.58 584,-282.95 613.44,-303.35 623.65,-345.55 627.17,-374.07"/>
<polygon fill="black" stroke="black" points="623.67,-374.24 628.16,-383.84 630.64,-373.54 623.67,-374.24"/>
<text text-anchor="start" x="295" y="-285.95" font-family="Helvetica,sans-Serif" font-size="10.00">Register Host &#45; Register during installation &#160;&#160;</text>
</g>
<!-- installing&#45;pending&#45;user&#45;action -->
<g id="node5" class="node state regular">
<title>installing&#45;pending&#45;user&#45;action</title>
<polygon fill="#ffffff" fill-opacity="0.003922" stroke="none" stroke-width="2" points="181,-287.95 0,-287.95 0,-251.95 181,-251.95 181,-287.95"/>
<text text-anchor="start" x="11.5" y="-266.35" font-family="Helvetica,sans-Serif" font-size="12.00">installing&#45;pending&#45;user&#45;action</text>
<path fill="none" stroke="black" stroke-width="2" d="M12,-253.45C12,-253.45 169,-253.45 169,-253.45 174.5,-253.45 180,-258.95 180,-264.45 180,-264.45 180,-275.45 180,-275.45 180,-280.95 174.5,-286.45 169,-286.45 169,-286.45 12,-286.45 12,-286.45 6.5,-286.45 1,-280.95 1,-275.45 1,-275.45 1,-264.45 1,-264.45 1,-258.95 6.5,-253.45 12,-253.45"/>
</g>
<!-- installing&#45;pending&#45;user&#45;action&#45;&gt;error -->
<g id="edge13" class="edge transition">
<title>installing&#45;pending&#45;user&#45;action&#45;&gt;error</title>
<path fill="none" stroke="black" d="M180.83,-254.73C186.97,-254.02 193.07,-253.41 199,-252.95 284.29,-246.25 515.36,-201.88 584,-252.95 621.37,-280.75 628.87,-338.51 629.75,-373.68"/>
<polygon fill="black" stroke="black" points="626.25,-373.61 629.82,-383.58 633.25,-373.56 626.25,-373.61"/>
<text text-anchor="start" x="275" y="-255.95" font-family="Helvetica,sans-Serif" font-size="10.00">Refresh &#45; Move host to error when cluster is in error &#160;&#160;</text>
</g>
<!-- preparing&#45;failed -->
<g id="node6" class="node state regular">
<title>preparing&#45;failed</title>
<polygon fill="#ffffff" fill-opacity="0.003922" stroke="none" stroke-width="2" points="144,-233.95 37,-233.95 37,-197.95 144,-197.95 144,-233.95"/>
<text text-anchor="start" x="48.5" y="-212.35" font-family="Helvetica,sans-Serif" font-size="12.00">preparing&#45;failed</text>
<path fill="none" stroke="black" stroke-width="2" d="M49,-199.45C49,-199.45 132,-199.45 132,-199.45 137.5,-199.45 143,-204.95 143,-210.45 143,-210.45 143,-221.45 143,-221.45 143,-226.95 137.5,-232.45 132,-232.45 132,-232.45 49,-232.45 49,-232.45 43.5,-232.45 38,-226.95 38,-221.45 38,-221.45 38,-210.45 38,-210.45 38,-204.95 43.5,-199.45 49,-199.45"/>
</g>
<!-- preparing&#45;failed&#45;&gt;error -->
<g id="edge4" class="edge transition">
<title>preparing&#45;failed&#45;&gt;error</title>
<path fill="none" stroke="black" d="M143.94,-207.98C256.66,-192.09 517.21,-162.25 584,-214.95 608.66,-234.4 621.32,-325.94 626.34,-373.73"/>
<polygon fill="black" stroke="black" points="622.85,-374.03 627.33,-383.63 629.82,-373.33 622.85,-374.03"/>
<text text-anchor="start" x="208.5" y="-217.95" font-family="Helvetica,sans-Serif" font-size="10.00">Media Disconnect &#45; Move to error when virtual media disconnects post&#45;installation &#160;&#160;</text>
</g>
<!-- preparing&#45;for&#45;installation -->
<g id="node7" class="node state regular">
<title>preparing&#45;for&#45;installation</title>
<polygon fill="#ffffff" fill-opacity="0.003922" stroke="none" stroke-width="2" points="166.5,-179.95 14.5,-179.95 14.5,-143.95 166.5,-143.95 166.5,-179.95"/>
<text text-anchor="start" x="25.5" y="-158.35" font-family="Helvetica,sans-Serif" font-size="12.00">preparing&#45;for&#45;installation</text>
<path fill="none" stroke="black" stroke-width="2" d="M26.5,-145.45C26.5,-145.45 154.5,-145.45 154.5,-145.45 160,-145.45 165.5,-150.95 165.5,-156.45 165.5,-156.45 165.5,-167.45 165.5,-167.45 165.5,-172.95 160,-178.45 154.5,-178.45 154.5,-178.45 26.5,-178.45 26.5,-178.45 21,-178.45 15.5,-172.95 15.5,-167.45 15.5,-167.45 15.5,-156.45 15.5,-156.45 15.5,-150.95 21,-145.45 26.5,-145.45"/>
</g>
<!-- preparing&#45;for&#45;installation&#45;&gt;error -->
<g id="edge3" class="edge transition">
<title>preparing&#45;for&#45;installation&#45;&gt;error</title>
<path fill="none" stroke="black" d="M166.2,-152.18C288.19,-137.97 522.75,-118.55 584,-169.95 614.73,-195.73 624.74,-317.08 627.78,-373.71"/>
<polygon fill="black" stroke="black" points="624.28,-373.74 628.27,-383.56 631.27,-373.4 624.28,-373.74"/>
<text text-anchor="start" x="208.5" y="-172.95" font-family="Helvetica,sans-Serif" font-size="10.00">Media Disconnect &#45; Move to error when virtual media disconnects post&#45;installation &#160;&#160;</text>
</g>
<!-- preparing&#45;successful -->
<g id="node8" class="node state regular">
<title>preparing&#45;successful</title>
<polygon fill="#ffffff" fill-opacity="0.003922" stroke="none" stroke-width="2" points="157.5,-125.95 23.5,-125.95 23.5,-89.95 157.5,-89.95 157.5,-125.95"/>
<text text-anchor="start" x="34.5" y="-104.35" font-family="Helvetica,sans-Serif" font-size="12.00">preparing&#45;successful</text>
<path fill="none" stroke="black" stroke-width="2" d="M35.5,-91.45C35.5,-91.45 145.5,-91.45 145.5,-91.45 151,-91.45 156.5,-96.95 156.5,-102.45 156.5,-102.45 156.5,-113.45 156.5,-113.45 156.5,-118.95 151,-124.45 145.5,-124.45 145.5,-124.45 35.5,-124.45 35.5,-124.45 30,-124.45 24.5,-118.95 24.5,-113.45 24.5,-113.45 24.5,-102.45 24.5,-102.45 24.5,-96.95 30,-91.45 35.5,-91.45"/>
</g>
<!-- preparing&#45;successful&#45;&gt;error -->
<g id="edge5" class="edge transition">
<title>preparing&#45;successful&#45;&gt;error</title>
<path fill="none" stroke="black" d="M157.34,-99.78C276.73,-86.53 522.32,-66.91 584,-120.95 621.4,-153.71 627.82,-308.24 628.84,-373.62"/>
<polygon fill="black" stroke="black" points="625.34,-373.62 628.96,-383.58 632.34,-373.54 625.34,-373.62"/>
<text text-anchor="start" x="208.5" y="-123.95" font-family="Helvetica,sans-Serif" font-size="10.00">Media Disconnect &#45; Move to error when virtual media disconnects post&#45;installation &#160;&#160;</text>
</g>
<!-- resetting&#45;pending&#45;user&#45;action -->
<g id="node9" class="node state regular">
<title>resetting&#45;pending&#45;user&#45;action</title>
<polygon fill="#ffffff" fill-opacity="0.003922" stroke="none" stroke-width="2" points="180,-71.95 1,-71.95 1,-35.95 180,-35.95 180,-71.95"/>
<text text-anchor="start" x="12.5" y="-50.35" font-family="Helvetica,sans-Serif" font-size="12.00">resetting&#45;pending&#45;user&#45;action</text>
<path fill="none" stroke="black" stroke-width="2" d="M13,-37.45C13,-37.45 168,-37.45 168,-37.45 173.5,-37.45 179,-42.95 179,-48.45 179,-48.45 179,-59.45 179,-59.45 179,-64.95 173.5,-70.45 168,-70.45 168,-70.45 13,-70.45 13,-70.45 7.5,-70.45 2,-64.95 2,-59.45 2,-59.45 2,-48.45 2,-48.45 2,-42.95 7.5,-37.45 13,-37.45"/>
</g>
<!-- resetting&#45;pending&#45;user&#45;action&#45;&gt;error -->
<g id="edge12" class="edge transition">
<title>resetting&#45;pending&#45;user&#45;action&#45;&gt;error</title>
<path fill="none" stroke="black" d="M144.81,-36.04C244.89,-6.15 461.78,40.42 584,-69.95 628.5,-110.13 630.55,-300.48 629.63,-373.94"/>
<polygon fill="black" stroke="black" points="626.14,-373.5 629.48,-383.56 633.14,-373.61 626.14,-373.5"/>
<text text-anchor="start" x="275" y="-72.95" font-family="Helvetica,sans-Serif" font-size="10.00">Refresh &#45; Move host to error when cluster is in error &#160;&#160;</text>
</g>
</g>
</svg>
