<?xml version="1.0" encoding="UTF-8" standalone="no"?>
<!DOCTYPE svg PUBLIC "-//W3C//DTD SVG 1.1//EN"
 "http://www.w3.org/Graphics/SVG/1.1/DTD/svg11.dtd">
<!-- Generated by graphviz version 5.0.0 (0)
 -->
<!-- Title: state transitions Pages: 1 -->
<svg width="510pt" height="102pt"
 viewBox="0.00 0.00 510.00 102.00" xmlns="http://www.w3.org/2000/svg" xmlns:xlink="http://www.w3.org/1999/xlink">
<g id="graph0" class="graph" transform="scale(1 1) rotate(0) translate(4 98)">
<title>state transitions</title>
<polygon fill="white" stroke="transparent" points="-4,4 -4,-98 506,-98 506,4 -4,4"/>
<!-- installing&#45;in&#45;progress -->
<g id="node1" class="node state regular">
<title>installing&#45;in&#45;progress</title>
<polygon fill="#ffffff" fill-opacity="0.003922" stroke="transparent" stroke-width="2" points="318,-36 184,-36 184,0 318,0 318,-36"/>
<text text-anchor="start" x="195" y="-14.4" font-family="Helvetica,sans-Serif" font-size="12.00">installing&#45;in&#45;progress</text>
<path fill="none" stroke="black" stroke-width="2" d="M196,-1.5C196,-1.5 306,-1.5 306,-1.5 311.5,-1.5 317,-7 317,-12.5 317,-12.5 317,-23.5 317,-23.5 317,-29 311.5,-34.5 306,-34.5 306,-34.5 196,-34.5 196,-34.5 190.5,-34.5 185,-29 185,-23.5 185,-23.5 185,-12.5 185,-12.5 185,-7 190.5,-1.5 196,-1.5"/>
</g>
<!-- installing&#45;in&#45;progress&#45;&gt;installing&#45;in&#45;progress -->
<g id="edge1" class="edge transition">
<title>installing&#45;in&#45;progress&#45;&gt;installing&#45;in&#45;progress</title>
<path fill="none" stroke="black" d="M238.88,-36.15C237.01,-45.54 241.05,-54 251,-54 257.06,-54 260.93,-50.86 262.6,-46.28"/>
<polygon fill="black" stroke="black" points="266.11,-46.32 263.12,-36.15 259.11,-45.96 266.11,-46.32"/>
<text text-anchor="start" x="80" y="-57" font-family="Helvetica,sans-Serif" font-size="10.00">Refresh &#45; Ignore timeout if host is in particular installation in progress stages &#160;&#160;</text>
</g>
<!-- installing&#45;in&#45;progress&#45;&gt;installing&#45;in&#45;progress -->
<g id="edge2" class="edge transition">
<title>installing&#45;in&#45;progress&#45;&gt;installing&#45;in&#45;progress</title>
<path fill="none" stroke="black" d="M230.68,-36.26C220.15,-53.4 226.92,-72 251,-72 270.75,-72 278.86,-59.49 275.32,-45.52"/>
<polygon fill="black" stroke="black" points="278.49,-44.05 271.32,-36.26 272.07,-46.83 278.49,-44.05"/>
<text text-anchor="start" x="0" y="-75" font-family="Helvetica,sans-Serif" font-size="10.00">Refresh &#45; Refresh during installing&#45;in&#45;progress state without cluster error should stay in installing&#45;in&#45;progress state &#160;&#160;</text>
</g>
</g>
</svg>
