<?xml version="1.0" encoding="UTF-8" standalone="no"?>
<!DOCTYPE svg PUBLIC "-//W3C//DTD SVG 1.1//EN"
 "http://www.w3.org/Graphics/SVG/1.1/DTD/svg11.dtd">
<!-- Generated by graphviz version 12.1.0 (20240811.2233)
 -->
<!-- Title: state transitions Pages: 1 -->
<svg width="613pt" height="75pt"
 viewBox="0.00 0.00 612.88 75.00" xmlns="http://www.w3.org/2000/svg" xmlns:xlink="http://www.w3.org/1999/xlink">
<g id="graph0" class="graph" transform="scale(1 1) rotate(0) translate(4 71)">
<title>state transitions</title>
<polygon fill="white" stroke="none" points="-4,4 -4,-71 608.88,-71 608.88,4 -4,4"/>
<!-- preparing&#45;for&#45;installation -->
<g id="node1" class="node state regular">
<title>preparing&#45;for&#45;installation</title>
<polygon fill="#ffffff" fill-opacity="0.003922" stroke="none" stroke-width="2" points="169,-36.25 0,-36.25 0,0 169,0 169,-36.25"/>
<text text-anchor="start" x="11" y="-13.85" font-family="Helvetica,sans-Serif" font-size="12.00">preparing&#45;for&#45;installation</text>
<path fill="none" stroke="black" stroke-width="2" d="M12.42,-1C12.42,-1 156.58,-1 156.58,-1 162.29,-1 168,-6.71 168,-12.42 168,-12.42 168,-23.83 168,-23.83 168,-29.54 162.29,-35.25 156.58,-35.25 156.58,-35.25 12.42,-35.25 12.42,-35.25 6.71,-35.25 1,-29.54 1,-23.83 1,-23.83 1,-12.42 1,-12.42 1,-6.71 6.71,-1 12.42,-1"/>
</g>
<!-- preparing&#45;successful -->
<g id="node2" class="node state regular">
<title>preparing&#45;successful</title>
<polygon fill="#ffffff" fill-opacity="0.003922" stroke="none" stroke-width="2" points="581,-36.25 435.25,-36.25 435.25,0 581,0 581,-36.25"/>
<text text-anchor="start" x="446.25" y="-13.85" font-family="Helvetica,sans-Serif" font-size="12.00">preparing&#45;successful</text>
<path fill="none" stroke="black" stroke-width="2" d="M447.67,-1C447.67,-1 568.58,-1 568.58,-1 574.29,-1 580,-6.71 580,-12.42 580,-12.42 580,-23.83 580,-23.83 580,-29.54 574.29,-35.25 568.58,-35.25 568.58,-35.25 447.67,-35.25 447.67,-35.25 441.96,-35.25 436.25,-29.54 436.25,-23.83 436.25,-23.83 436.25,-12.42 436.25,-12.42 436.25,-6.71 441.96,-1 447.67,-1"/>
</g>
<!-- preparing&#45;for&#45;installation&#45;&gt;preparing&#45;successful -->
<g id="edge1" class="edge transition">
<title>preparing&#45;for&#45;installation&#45;&gt;preparing&#45;successful</title>
<path fill="none" stroke="black" d="M168.8,-18.12C242.87,-18.12 350.59,-18.12 424.47,-18.12"/>
<polygon fill="black" stroke="black" points="424.06,-21.63 434.06,-18.13 424.06,-14.63 424.06,-21.63"/>
<text text-anchor="start" x="187" y="-21.38" font-family="Helvetica,sans-Serif" font-size="10.00">Refresh &#45; Refresh successfully preparing host &#160;&#160;</text>
</g>
<!-- preparing&#45;successful&#45;&gt;preparing&#45;successful -->
<g id="edge2" class="edge transition">
<title>preparing&#45;successful&#45;&gt;preparing&#45;successful</title>
<path fill="none" stroke="black" d="M471.09,-35.97C464.8,-45.53 477.14,-54.25 508.12,-54.25 526.04,-54.25 537.72,-51.34 543.17,-47.03"/>
<polygon fill="black" stroke="black" points="546.57,-47.92 544.89,-37.46 539.68,-46.68 546.57,-47.92"/>
<text text-anchor="start" x="411.38" y="-57.5" font-family="Helvetica,sans-Serif" font-size="10.00">Refresh &#45; Stay in preparing successful &#160;&#160;</text>
</g>
</g>
</svg>
