<?xml version="1.0" encoding="UTF-8" standalone="no"?>
<!DOCTYPE svg PUBLIC "-//W3C//DTD SVG 1.1//EN"
 "http://www.w3.org/Graphics/SVG/1.1/DTD/svg11.dtd">
<!-- Generated by graphviz version 12.1.0 (20240811.2233)
 -->
<!-- Title: state transitions Pages: 1 -->
<svg width="666pt" height="54pt"
 viewBox="0.00 0.00 666.25 53.79" xmlns="http://www.w3.org/2000/svg" xmlns:xlink="http://www.w3.org/1999/xlink">
<g id="graph0" class="graph" transform="scale(1 1) rotate(0) translate(4 49.79)">
<title>state transitions</title>
<polygon fill="white" stroke="none" points="-4,4 -4,-49.79 662.25,-49.79 662.25,4 -4,4"/>
<!-- preparing&#45;failed -->
<g id="node1" class="node state regular">
<title>preparing&#45;failed</title>
<polygon fill="#ffffff" fill-opacity="0.003922" stroke="none" stroke-width="2" points="658.25,-45.79 541,-45.79 541,-9.54 658.25,-9.54 658.25,-45.79"/>
<text text-anchor="start" x="552" y="-23.39" font-family="Helvetica,sans-Serif" font-size="12.00">preparing&#45;failed</text>
<path fill="none" stroke="black" stroke-width="2" d="M553.42,-10.54C553.42,-10.54 645.83,-10.54 645.83,-10.54 651.54,-10.54 657.25,-16.25 657.25,-21.96 657.25,-21.96 657.25,-33.38 657.25,-33.38 657.25,-39.08 651.54,-44.79 645.83,-44.79 645.83,-44.79 553.42,-44.79 553.42,-44.79 547.71,-44.79 542,-39.08 542,-33.38 542,-33.38 542,-21.96 542,-21.96 542,-16.25 547.71,-10.54 553.42,-10.54"/>
</g>
<!-- preparing&#45;for&#45;installation -->
<g id="node2" class="node state regular">
<title>preparing&#45;for&#45;installation</title>
<polygon fill="#ffffff" fill-opacity="0.003922" stroke="none" stroke-width="2" points="169,-45.79 0,-45.79 0,-9.54 169,-9.54 169,-45.79"/>
<text text-anchor="start" x="11" y="-23.39" font-family="Helvetica,sans-Serif" font-size="12.00">preparing&#45;for&#45;installation</text>
<path fill="none" stroke="black" stroke-width="2" d="M12.42,-10.54C12.42,-10.54 156.58,-10.54 156.58,-10.54 162.29,-10.54 168,-16.25 168,-21.96 168,-21.96 168,-33.38 168,-33.38 168,-39.08 162.29,-44.79 156.58,-44.79 156.58,-44.79 12.42,-44.79 12.42,-44.79 6.71,-44.79 1,-39.08 1,-33.38 1,-33.38 1,-21.96 1,-21.96 1,-16.25 6.71,-10.54 12.42,-10.54"/>
</g>
<!-- preparing&#45;for&#45;installation&#45;&gt;preparing&#45;failed -->
<g id="edge1" class="edge transition">
<title>preparing&#45;for&#45;installation&#45;&gt;preparing&#45;failed</title>
<path fill="none" stroke="black" d="M168.8,-27.67C269.33,-27.67 436.5,-27.67 529.97,-27.67"/>
<polygon fill="black" stroke="black" points="529.76,-31.17 539.76,-27.67 529.76,-24.17 529.76,-31.17"/>
<text text-anchor="start" x="227.12" y="-30.92" font-family="Helvetica,sans-Serif" font-size="10.00">Refresh &#45; Preparing timed out host move to known &#160;&#160;</text>
</g>
<!-- preparing&#45;for&#45;installation&#45;&gt;preparing&#45;failed -->
<g id="edge2" class="edge transition">
<title>preparing&#45;for&#45;installation&#45;&gt;preparing&#45;failed</title>
<path fill="none" stroke="black" d="M168.73,-12.81C174.9,-12.05 181.04,-11.41 187,-10.92 335.83,1.28 374.55,5.32 523,-10.92 525.21,-11.16 527.44,-11.44 529.69,-11.75"/>
<polygon fill="black" stroke="black" points="529.11,-15.2 539.54,-13.32 530.21,-8.29 529.11,-15.2"/>
<text text-anchor="start" x="187" y="-14.17" font-family="Helvetica,sans-Serif" font-size="10.00">Refresh &#45; Preparing failed image pull host move to preparing failed &#160;&#160;</text>
</g>
</g>
</svg>
