<?xml version="1.0" encoding="UTF-8" standalone="no"?>
<!DOCTYPE svg PUBLIC "-//W3C//DTD SVG 1.1//EN"
 "http://www.w3.org/Graphics/SVG/1.1/DTD/svg11.dtd">
<!-- Generated by graphviz version 12.1.0 (20240811.2233)
 -->
<!-- Title: state transitions Pages: 1 -->
<svg width="673pt" height="465pt"
 viewBox="0.00 0.00 672.88 464.56" xmlns="http://www.w3.org/2000/svg" xmlns:xlink="http://www.w3.org/1999/xlink">
<g id="graph0" class="graph" transform="scale(1 1) rotate(0) translate(4 460.56)">
<title>state transitions</title>
<polygon fill="white" stroke="none" points="-4,4 -4,-460.56 668.88,-460.56 668.88,4 -4,4"/>
<!-- disconnected -->
<g id="node1" class="node state regular">
<title>disconnected</title>
<polygon fill="#ffffff" fill-opacity="0.003922" stroke="none" stroke-width="2" points="135.62,-418 34.12,-418 34.12,-381.75 135.62,-381.75 135.62,-418"/>
<text text-anchor="start" x="45.12" y="-395.6" font-family="Helvetica,sans-Serif" font-size="12.00">disconnected</text>
<path fill="none" stroke="black" stroke-width="2" d="M46.54,-382.75C46.54,-382.75 123.21,-382.75 123.21,-382.75 128.92,-382.75 134.62,-388.46 134.62,-394.16 134.62,-394.16 134.62,-405.58 134.62,-405.58 134.62,-411.29 128.92,-417 123.21,-417 123.21,-417 46.54,-417 46.54,-417 40.83,-417 35.12,-411.29 35.12,-405.58 35.12,-405.58 35.12,-394.16 35.12,-394.16 35.12,-388.46 40.83,-382.75 46.54,-382.75"/>
</g>
<!-- insufficient -->
<g id="node2" class="node state regular">
<title>insufficient</title>
<polygon fill="#ffffff" fill-opacity="0.003922" stroke="none" stroke-width="2" points="605.75,-256 519.25,-256 519.25,-219.75 605.75,-219.75 605.75,-256"/>
<text text-anchor="start" x="530.25" y="-233.6" font-family="Helvetica,sans-Serif" font-size="12.00">insufficient</text>
<path fill="none" stroke="black" stroke-width="2" d="M531.67,-220.75C531.67,-220.75 593.33,-220.75 593.33,-220.75 599.04,-220.75 604.75,-226.46 604.75,-232.16 604.75,-232.16 604.75,-243.58 604.75,-243.58 604.75,-249.29 599.04,-255 593.33,-255 593.33,-255 531.67,-255 531.67,-255 525.96,-255 520.25,-249.29 520.25,-243.58 520.25,-243.58 520.25,-232.16 520.25,-232.16 520.25,-226.46 525.96,-220.75 531.67,-220.75"/>
</g>
<!-- disconnected&#45;&gt;insufficient -->
<g id="edge1" class="edge transition">
<title>disconnected&#45;&gt;insufficient</title>
<path fill="none" stroke="black" d="M135.34,-415.76C219.03,-439.36 390.27,-473.12 501.25,-395.87 543.21,-366.67 555.96,-304.08 559.83,-267.04"/>
<polygon fill="black" stroke="black" points="563.28,-267.76 560.67,-257.5 556.31,-267.15 563.28,-267.76"/>
<text text-anchor="start" x="242.12" y="-447.06" font-family="Helvetica,sans-Serif" font-size="10.00">Refresh &#45; Host has insufficient hardware &#160;&#160;</text>
</g>
<!-- disconnected&#45;&gt;insufficient -->
<g id="edge2" class="edge transition">
<title>disconnected&#45;&gt;insufficient</title>
<path fill="none" stroke="black" d="M135.38,-388.34C151.95,-384.87 170.57,-381.39 187.75,-379.12 222.35,-374.56 472.19,-379.19 501.25,-359.87 533.06,-338.72 548.73,-295.61 555.95,-266.72"/>
<polygon fill="black" stroke="black" points="559.32,-267.69 558.14,-257.16 552.49,-266.13 559.32,-267.69"/>
<text text-anchor="start" x="280.38" y="-382.37" font-family="Helvetica,sans-Serif" font-size="10.00">Refresh &#45; Host not ready &#160;&#160;</text>
</g>
<!-- insufficient&#45;&gt;insufficient -->
<g id="edge5" class="edge transition">
<title>insufficient&#45;&gt;insufficient</title>
<path fill="none" stroke="black" d="M542.91,-255.72C539.58,-265.28 546.11,-274 562.5,-274 571.72,-274 577.82,-271.24 580.8,-267.12"/>
<polygon fill="black" stroke="black" points="584.28,-267.55 581.92,-257.22 577.32,-266.76 584.28,-267.55"/>
<text text-anchor="start" x="460.12" y="-277.25" font-family="Helvetica,sans-Serif" font-size="10.00">Refresh &#45; Host has insufficient hardware &#160;&#160;</text>
</g>
<!-- insufficient&#45;&gt;insufficient -->
<g id="edge6" class="edge transition">
<title>insufficient&#45;&gt;insufficient</title>
<path fill="none" stroke="black" d="M529.73,-255.89C512.19,-273.15 523.12,-292 562.5,-292 594.81,-292 607.96,-279.32 601.97,-265.23"/>
<polygon fill="black" stroke="black" points="604.82,-263.21 596.15,-257.12 599.13,-267.29 604.82,-263.21"/>
<text text-anchor="start" x="498.38" y="-295.25" font-family="Helvetica,sans-Serif" font-size="10.00">Refresh &#45; Host not ready &#160;&#160;</text>
</g>
<!-- discovering -->
<g id="node3" class="node state regular">
<title>discovering</title>
<polygon fill="#ffffff" fill-opacity="0.003922" stroke="none" stroke-width="2" points="130,-346 39.75,-346 39.75,-309.75 130,-309.75 130,-346"/>
<text text-anchor="start" x="50.75" y="-323.6" font-family="Helvetica,sans-Serif" font-size="12.00">discovering</text>
<path fill="none" stroke="black" stroke-width="2" d="M52.17,-310.75C52.17,-310.75 117.58,-310.75 117.58,-310.75 123.29,-310.75 129,-316.46 129,-322.16 129,-322.16 129,-333.58 129,-333.58 129,-339.29 123.29,-345 117.58,-345 117.58,-345 52.17,-345 52.17,-345 46.46,-345 40.75,-339.29 40.75,-333.58 40.75,-333.58 40.75,-322.16 40.75,-322.16 40.75,-316.46 46.46,-310.75 52.17,-310.75"/>
</g>
<!-- discovering&#45;&gt;insufficient -->
<g id="edge3" class="edge transition">
<title>discovering&#45;&gt;insufficient</title>
<path fill="none" stroke="black" d="M129.74,-332.41C223.06,-341.26 437.92,-357.22 501.25,-323.87 524.25,-311.76 540.32,-286.46 550.05,-266.42"/>
<polygon fill="black" stroke="black" points="553.23,-267.88 554.17,-257.32 546.85,-264.98 553.23,-267.88"/>
<text text-anchor="start" x="242.12" y="-347.33" font-family="Helvetica,sans-Serif" font-size="10.00">Refresh &#45; Host has insufficient hardware &#160;&#160;</text>
</g>
<!-- discovering&#45;&gt;insufficient -->
<g id="edge4" class="edge transition">
<title>discovering&#45;&gt;insufficient</title>
<path fill="none" stroke="black" d="M129.82,-317.84C147.71,-314.04 168.64,-309.95 187.75,-307.12 326.18,-286.63 369.3,-324.48 501.25,-277.87 511.51,-274.25 521.73,-268.5 530.75,-262.47"/>
<polygon fill="black" stroke="black" points="532.65,-265.41 538.79,-256.78 528.61,-259.7 532.65,-265.41"/>
<text text-anchor="start" x="280.38" y="-310.37" font-family="Helvetica,sans-Serif" font-size="10.00">Refresh &#45; Host not ready &#160;&#160;</text>
</g>
<!-- known -->
<g id="node4" class="node state regular">
<title>known</title>
<polygon fill="#ffffff" fill-opacity="0.003922" stroke="none" stroke-width="2" points="115.38,-256 54.38,-256 54.38,-219.75 115.38,-219.75 115.38,-256"/>
<text text-anchor="start" x="65.38" y="-233.6" font-family="Helvetica,sans-Serif" font-size="12.00">known</text>
<path fill="none" stroke="black" stroke-width="2" d="M66.79,-220.75C66.79,-220.75 102.96,-220.75 102.96,-220.75 108.67,-220.75 114.38,-226.46 114.38,-232.16 114.38,-232.16 114.38,-243.58 114.38,-243.58 114.38,-249.29 108.67,-255 102.96,-255 102.96,-255 66.79,-255 66.79,-255 61.08,-255 55.38,-249.29 55.38,-243.58 55.38,-243.58 55.38,-232.16 55.38,-232.16 55.38,-226.46 61.08,-220.75 66.79,-220.75"/>
</g>
<!-- known&#45;&gt;insufficient -->
<g id="edge7" class="edge transition">
<title>known&#45;&gt;insufficient</title>
<path fill="none" stroke="black" d="M115.19,-242.98C135.49,-246.25 163.17,-250.19 187.75,-251.87 326.76,-261.38 362.82,-267.74 501.25,-251.87 503.45,-251.62 505.69,-251.32 507.94,-250.97"/>
<polygon fill="black" stroke="black" points="508.53,-254.43 517.76,-249.23 507.3,-247.53 508.53,-254.43"/>
<text text-anchor="start" x="187.75" y="-264.78" font-family="Helvetica,sans-Serif" font-size="10.00">Refresh &#45; Preparing failed disk speed host move to insufficient &#160;&#160;</text>
</g>
<!-- known&#45;&gt;insufficient -->
<g id="edge8" class="edge transition">
<title>known&#45;&gt;insufficient</title>
<path fill="none" stroke="black" d="M115.29,-236.87C135.64,-236.23 163.34,-235.45 187.75,-235.12 327.07,-233.24 361.95,-231.95 501.25,-235.12 503.45,-235.17 505.69,-235.23 507.96,-235.3"/>
<polygon fill="black" stroke="black" points="507.74,-238.8 517.86,-235.65 507.99,-231.8 507.74,-238.8"/>
<text text-anchor="start" x="242.12" y="-238.37" font-family="Helvetica,sans-Serif" font-size="10.00">Refresh &#45; Host has insufficient hardware &#160;&#160;</text>
</g>
<!-- known&#45;&gt;insufficient -->
<g id="edge9" class="edge transition">
<title>known&#45;&gt;insufficient</title>
<path fill="none" stroke="black" d="M115.04,-229.94C135.27,-224.86 162.93,-218.74 187.75,-216.12 326.31,-201.5 364,-192.11 501.25,-216.12 503.7,-216.55 506.18,-217.07 508.66,-217.66"/>
<polygon fill="black" stroke="black" points="507.51,-220.97 518.08,-220.25 509.37,-214.22 507.51,-220.97"/>
<text text-anchor="start" x="280.38" y="-219.37" font-family="Helvetica,sans-Serif" font-size="10.00">Refresh &#45; Host not ready &#160;&#160;</text>
</g>
<!-- pending&#45;for&#45;input -->
<g id="node5" class="node state regular">
<title>pending&#45;for&#45;input</title>
<polygon fill="#ffffff" fill-opacity="0.003922" stroke="none" stroke-width="2" points="147.62,-175 22.12,-175 22.12,-138.75 147.62,-138.75 147.62,-175"/>
<text text-anchor="start" x="33.12" y="-152.6" font-family="Helvetica,sans-Serif" font-size="12.00">pending&#45;for&#45;input</text>
<path fill="none" stroke="black" stroke-width="2" d="M34.54,-139.75C34.54,-139.75 135.21,-139.75 135.21,-139.75 140.92,-139.75 146.62,-145.46 146.62,-151.16 146.62,-151.16 146.62,-162.58 146.62,-162.58 146.62,-168.29 140.92,-174 135.21,-174 135.21,-174 34.54,-174 34.54,-174 28.83,-174 23.12,-168.29 23.12,-162.58 23.12,-162.58 23.12,-151.16 23.12,-151.16 23.12,-145.46 28.83,-139.75 34.54,-139.75"/>
</g>
<!-- pending&#45;for&#45;input&#45;&gt;insufficient -->
<g id="edge10" class="edge transition">
<title>pending&#45;for&#45;input&#45;&gt;insufficient</title>
<path fill="none" stroke="black" d="M147.44,-149.17C231.06,-141.3 383.59,-136.28 501.25,-185.12 515.29,-190.95 528.34,-201.43 538.67,-211.52"/>
<polygon fill="black" stroke="black" points="536.15,-213.95 545.62,-218.71 541.18,-209.08 536.15,-213.95"/>
<text text-anchor="start" x="242.12" y="-188.37" font-family="Helvetica,sans-Serif" font-size="10.00">Refresh &#45; Host has insufficient hardware &#160;&#160;</text>
</g>
<!-- pending&#45;for&#45;input&#45;&gt;insufficient -->
<g id="edge11" class="edge transition">
<title>pending&#45;for&#45;input&#45;&gt;insufficient</title>
<path fill="none" stroke="black" d="M137.34,-138.76C153.29,-133.99 171.06,-129.51 187.75,-127.12 256.71,-117.26 441.36,-91.53 501.25,-127.12 530.92,-144.76 546.89,-182.68 554.79,-209.21"/>
<polygon fill="black" stroke="black" points="551.37,-209.96 557.39,-218.68 558.12,-208.11 551.37,-209.96"/>
<text text-anchor="start" x="280.38" y="-130.37" font-family="Helvetica,sans-Serif" font-size="10.00">Refresh &#45; Host not ready &#160;&#160;</text>
</g>
<!-- preparing&#45;failed -->
<g id="node6" class="node state regular">
<title>preparing&#45;failed</title>
<polygon fill="#ffffff" fill-opacity="0.003922" stroke="none" stroke-width="2" points="143.5,-112 26.25,-112 26.25,-75.75 143.5,-75.75 143.5,-112"/>
<text text-anchor="start" x="37.25" y="-89.6" font-family="Helvetica,sans-Serif" font-size="12.00">preparing&#45;failed</text>
<path fill="none" stroke="black" stroke-width="2" d="M38.67,-76.75C38.67,-76.75 131.08,-76.75 131.08,-76.75 136.79,-76.75 142.5,-82.46 142.5,-88.16 142.5,-88.16 142.5,-99.58 142.5,-99.58 142.5,-105.29 136.79,-111 131.08,-111 131.08,-111 38.67,-111 38.67,-111 32.96,-111 27.25,-105.29 27.25,-99.58 27.25,-99.58 27.25,-88.16 27.25,-88.16 27.25,-82.46 32.96,-76.75 38.67,-76.75"/>
</g>
<!-- preparing&#45;failed&#45;&gt;insufficient -->
<g id="edge12" class="edge transition">
<title>preparing&#45;failed&#45;&gt;insufficient</title>
<path fill="none" stroke="black" d="M143.11,-85.99C243.08,-73.45 444.3,-54.04 501.25,-92.12 540.04,-118.06 553.88,-174.05 558.81,-208.59"/>
<polygon fill="black" stroke="black" points="555.31,-208.83 560.01,-218.32 562.26,-207.97 555.31,-208.83"/>
<text text-anchor="start" x="187.75" y="-95.37" font-family="Helvetica,sans-Serif" font-size="10.00">Refresh &#45; Preparing failed disk speed host move to insufficient &#160;&#160;</text>
</g>
<!-- preparing&#45;for&#45;installation -->
<g id="node7" class="node state regular">
<title>preparing&#45;for&#45;installation</title>
<polygon fill="#ffffff" fill-opacity="0.003922" stroke="none" stroke-width="2" points="169.75,-58 0,-58 0,-21.75 169.75,-21.75 169.75,-58"/>
<text text-anchor="start" x="11" y="-35.6" font-family="Helvetica,sans-Serif" font-size="12.00">preparing&#45;for&#45;installation</text>
<path fill="none" stroke="black" stroke-width="2" d="M12.42,-22.75C12.42,-22.75 157.33,-22.75 157.33,-22.75 163.04,-22.75 168.75,-28.46 168.75,-34.16 168.75,-34.16 168.75,-45.58 168.75,-45.58 168.75,-51.29 163.04,-57 157.33,-57 157.33,-57 12.42,-57 12.42,-57 6.71,-57 1,-51.29 1,-45.58 1,-45.58 1,-34.16 1,-34.16 1,-28.46 6.71,-22.75 12.42,-22.75"/>
</g>
<!-- preparing&#45;for&#45;installation&#45;&gt;insufficient -->
<g id="edge13" class="edge transition">
<title>preparing&#45;for&#45;installation&#45;&gt;insufficient</title>
<path fill="none" stroke="black" d="M147.6,-21.8C235.58,-0.08 397.8,24.5 501.25,-53.12 549.88,-89.61 559.9,-166.28 561.57,-208.48"/>
<polygon fill="black" stroke="black" points="558.07,-208.47 561.81,-218.38 565.07,-208.3 558.07,-208.47"/>
<text text-anchor="start" x="187.75" y="-56.37" font-family="Helvetica,sans-Serif" font-size="10.00">Refresh &#45; Preparing failed disk speed host move to insufficient &#160;&#160;</text>
</g>
</g>
</svg>
