<?xml version="1.0" encoding="UTF-8" standalone="no"?>
<!DOCTYPE svg PUBLIC "-//W3C//DTD SVG 1.1//EN"
 "http://www.w3.org/Graphics/SVG/1.1/DTD/svg11.dtd">
<!-- Generated by graphviz version 12.1.0 (20240811.2233)
 -->
<!-- Title: state transitions Pages: 1 -->
<svg width="1056pt" height="167pt"
 viewBox="0.00 0.00 1056.12 166.95" xmlns="http://www.w3.org/2000/svg" xmlns:xlink="http://www.w3.org/1999/xlink">
<g id="graph0" class="graph" transform="scale(1 1) rotate(0) translate(4 162.95)">
<title>state transitions</title>
<polygon fill="white" stroke="none" points="-4,4 -4,-162.95 1052.12,-162.95 1052.12,4 -4,4"/>
<!-- added&#45;to&#45;existing&#45;cluster -->
<g id="node1" class="node state regular">
<title>added&#45;to&#45;existing&#45;cluster</title>
<polygon fill="#ffffff" fill-opacity="0.003922" stroke="none" stroke-width="2" points="171.25,-102.7 0,-102.7 0,-66.45 171.25,-66.45 171.25,-102.7"/>
<text text-anchor="start" x="11" y="-80.3" font-family="Helvetica,sans-Serif" font-size="12.00">added&#45;to&#45;existing&#45;cluster</text>
<path fill="none" stroke="black" stroke-width="2" d="M12.42,-67.45C12.42,-67.45 158.83,-67.45 158.83,-67.45 164.54,-67.45 170.25,-73.16 170.25,-78.87 170.25,-78.87 170.25,-90.29 170.25,-90.29 170.25,-95.99 164.54,-101.7 158.83,-101.7 158.83,-101.7 12.42,-101.7 12.42,-101.7 6.71,-101.7 1,-95.99 1,-90.29 1,-90.29 1,-78.87 1,-78.87 1,-73.16 6.71,-67.45 12.42,-67.45"/>
</g>
<!-- installing&#45;pending&#45;user&#45;action -->
<g id="node2" class="node state regular">
<title>installing&#45;pending&#45;user&#45;action</title>
<polygon fill="#ffffff" fill-opacity="0.003922" stroke="none" stroke-width="2" points="715.25,-66.7 517.75,-66.7 517.75,-30.45 715.25,-30.45 715.25,-66.7"/>
<text text-anchor="start" x="528.75" y="-44.3" font-family="Helvetica,sans-Serif" font-size="12.00">installing&#45;pending&#45;user&#45;action</text>
<path fill="none" stroke="black" stroke-width="2" d="M530.17,-31.45C530.17,-31.45 702.83,-31.45 702.83,-31.45 708.54,-31.45 714.25,-37.16 714.25,-42.87 714.25,-42.87 714.25,-54.29 714.25,-54.29 714.25,-59.99 708.54,-65.7 702.83,-65.7 702.83,-65.7 530.17,-65.7 530.17,-65.7 524.46,-65.7 518.75,-59.99 518.75,-54.29 518.75,-54.29 518.75,-42.87 518.75,-42.87 518.75,-37.16 524.46,-31.45 530.17,-31.45"/>
</g>
<!-- added&#45;to&#45;existing&#45;cluster&#45;&gt;installing&#45;pending&#45;user&#45;action -->
<g id="edge1" class="edge transition">
<title>added&#45;to&#45;existing&#45;cluster&#45;&gt;installing&#45;pending&#45;user&#45;action</title>
<path fill="none" stroke="black" d="M170.93,-79.85C254.45,-75.03 385.98,-67.07 499.75,-58.58 501.98,-58.41 504.22,-58.24 506.49,-58.07"/>
<polygon fill="black" stroke="black" points="506.74,-61.56 516.43,-57.29 506.19,-54.58 506.74,-61.56"/>
<text text-anchor="start" x="235.38" y="-81.61" font-family="Helvetica,sans-Serif" font-size="10.00">Register Host &#45; Wrong boot order detection &#160;&#160;</text>
</g>
<!-- installing&#45;pending&#45;user&#45;action&#45;&gt;installing&#45;pending&#45;user&#45;action -->
<g id="edge4" class="edge transition">
<title>installing&#45;pending&#45;user&#45;action&#45;&gt;installing&#45;pending&#45;user&#45;action</title>
<path fill="none" stroke="black" d="M600.2,-66.42C597.43,-75.99 602.86,-84.7 616.5,-84.7 624.17,-84.7 629.24,-81.94 631.72,-77.83"/>
<polygon fill="black" stroke="black" points="635.2,-78.21 632.66,-67.93 628.23,-77.56 635.2,-78.21"/>
<text text-anchor="start" x="184.88" y="-87.95" font-family="Helvetica,sans-Serif" font-size="10.00">null &#45; Host progress change during installing&#45;pending&#45;user&#45;action state when host is not in state Done (or Rebooting in day2) should stay in installing&#45;pending&#45;user&#45;action state &#160;&#160;</text>
</g>
<!-- installing&#45;pending&#45;user&#45;action&#45;&gt;installing&#45;pending&#45;user&#45;action -->
<g id="edge5" class="edge transition">
<title>installing&#45;pending&#45;user&#45;action&#45;&gt;installing&#45;pending&#45;user&#45;action</title>
<path fill="none" stroke="black" d="M589.24,-66.6C574.65,-83.86 583.74,-102.7 616.5,-102.7 643.12,-102.7 654.11,-90.26 649.47,-76.34"/>
<polygon fill="black" stroke="black" points="652.6,-74.76 644.52,-67.9 646.56,-78.3 652.6,-74.76"/>
<text text-anchor="start" x="289.88" y="-105.95" font-family="Helvetica,sans-Serif" font-size="10.00">Refresh &#45; Refresh during installing&#45;pending&#45;user&#45;action state without cluster error should stay in installing&#45;pending&#45;user&#45;action state &#160;&#160;</text>
</g>
<!-- installing&#45;pending&#45;user&#45;action&#45;&gt;installing&#45;pending&#45;user&#45;action -->
<g id="edge6" class="edge transition">
<title>installing&#45;pending&#45;user&#45;action&#45;&gt;installing&#45;pending&#45;user&#45;action</title>
<path fill="none" stroke="black" d="M582.09,-66.69C551.64,-91.06 563.11,-120.7 616.5,-120.7 664.26,-120.7 678.48,-96.98 659.15,-74.53"/>
<polygon fill="black" stroke="black" points="661.66,-72.1 652.01,-67.73 656.83,-77.16 661.66,-72.1"/>
<text text-anchor="start" x="507.38" y="-123.95" font-family="Helvetica,sans-Serif" font-size="10.00">Register Host &#45; Wrong boot order detection &#160;&#160;</text>
</g>
<!-- installing&#45;in&#45;progress -->
<g id="node3" class="node state regular">
<title>installing&#45;in&#45;progress</title>
<polygon fill="#ffffff" fill-opacity="0.003922" stroke="none" stroke-width="2" points="158.12,-39.7 13.12,-39.7 13.12,-3.45 158.12,-3.45 158.12,-39.7"/>
<text text-anchor="start" x="24.12" y="-17.3" font-family="Helvetica,sans-Serif" font-size="12.00">installing&#45;in&#45;progress</text>
<path fill="none" stroke="black" stroke-width="2" d="M25.54,-4.45C25.54,-4.45 145.71,-4.45 145.71,-4.45 151.42,-4.45 157.12,-10.16 157.12,-15.87 157.12,-15.87 157.12,-27.29 157.12,-27.29 157.12,-32.99 151.42,-38.7 145.71,-38.7 145.71,-38.7 25.54,-38.7 25.54,-38.7 19.83,-38.7 14.12,-32.99 14.12,-27.29 14.12,-27.29 14.12,-15.87 14.12,-15.87 14.12,-10.16 19.83,-4.45 25.54,-4.45"/>
</g>
<!-- installing&#45;in&#45;progress&#45;&gt;installing&#45;pending&#45;user&#45;action -->
<g id="edge2" class="edge transition">
<title>installing&#45;in&#45;progress&#45;&gt;installing&#45;pending&#45;user&#45;action</title>
<path fill="none" stroke="black" d="M157.95,-25.22C247.59,-29.8 402.32,-37.69 506.75,-43.03"/>
<polygon fill="black" stroke="black" points="506.28,-46.51 516.44,-43.52 506.63,-39.52 506.28,-46.51"/>
<text text-anchor="start" x="189.25" y="-45.3" font-family="Helvetica,sans-Serif" font-size="10.00">Refresh &#45; Tell user about boot order wen reboot takes too long &#160;&#160;</text>
</g>
<!-- installing&#45;in&#45;progress&#45;&gt;installing&#45;pending&#45;user&#45;action -->
<g id="edge3" class="edge transition">
<title>installing&#45;in&#45;progress&#45;&gt;installing&#45;pending&#45;user&#45;action</title>
<path fill="none" stroke="black" d="M158.05,-11.85C240.83,-2.39 381.06,8.04 499.75,-10.83 519.99,-14.04 541.51,-20.24 560.43,-26.7"/>
<polygon fill="black" stroke="black" points="559.21,-29.98 569.81,-30.01 561.54,-23.38 559.21,-29.98"/>
<text text-anchor="start" x="235.38" y="-14.08" font-family="Helvetica,sans-Serif" font-size="10.00">Register Host &#45; Wrong boot order detection &#160;&#160;</text>
</g>
</g>
</svg>
