<?xml version="1.0" encoding="UTF-8" standalone="no"?>
<!DOCTYPE svg PUBLIC "-//W3C//DTD SVG 1.1//EN"
 "http://www.w3.org/Graphics/SVG/1.1/DTD/svg11.dtd">
<!-- Generated by graphviz version 5.0.0 (0)
 -->
<!-- Title: state transitions Pages: 1 -->
<svg width="290pt" height="102pt"
 viewBox="0.00 0.00 290.00 102.00" xmlns="http://www.w3.org/2000/svg" xmlns:xlink="http://www.w3.org/1999/xlink">
<g id="graph0" class="graph" transform="scale(1 1) rotate(0) translate(4 98)">
<title>state transitions</title>
<polygon fill="white" stroke="transparent" points="-4,4 -4,-98 286,-98 286,4 -4,4"/>
<!-- resetting -->
<g id="node1" class="node state regular">
<title>resetting</title>
<polygon fill="#ffffff" fill-opacity="0.003922" stroke="transparent" stroke-width="2" points="175.5,-36 106.5,-36 106.5,0 175.5,0 175.5,-36"/>
<text text-anchor="start" x="118" y="-14.4" font-family="Helvetica,sans-Serif" font-size="12.00">resetting</text>
<path fill="none" stroke="black" stroke-width="2" d="M118.5,-1.5C118.5,-1.5 163.5,-1.5 163.5,-1.5 169,-1.5 174.5,-7 174.5,-12.5 174.5,-12.5 174.5,-23.5 174.5,-23.5 174.5,-29 169,-34.5 163.5,-34.5 163.5,-34.5 118.5,-34.5 118.5,-34.5 113,-34.5 107.5,-29 107.5,-23.5 107.5,-23.5 107.5,-12.5 107.5,-12.5 107.5,-7 113,-1.5 118.5,-1.5"/>
</g>
<!-- resetting&#45;&gt;resetting -->
<g id="edge1" class="edge transition">
<title>resetting&#45;&gt;resetting</title>
<path fill="none" stroke="black" d="M134.85,-36.15C133.9,-45.54 135.95,-54 141,-54 144.08,-54 146.04,-50.86 146.89,-46.28"/>
<polygon fill="black" stroke="black" points="150.39,-46.24 147.15,-36.15 143.39,-46.06 150.39,-46.24"/>
<text text-anchor="start" x="11" y="-57" font-family="Helvetica,sans-Serif" font-size="10.00">Refresh &#45; Refresh during resetting should stay in resetting &#160;&#160;</text>
</g>
<!-- resetting&#45;&gt;resetting -->
<g id="edge2" class="edge transition">
<title>resetting&#45;&gt;resetting</title>
<path fill="none" stroke="black" d="M130.69,-36.26C125.34,-53.4 128.78,-72 141,-72 150.83,-72 154.98,-59.96 153.44,-46.32"/>
<polygon fill="black" stroke="black" points="156.8,-45.32 151.31,-36.26 149.95,-46.77 156.8,-45.32"/>
<text text-anchor="start" x="0" y="-75" font-family="Helvetica,sans-Serif" font-size="10.00">Register Host &#45; Ignore register while rebooting host in resetting &#160;&#160;</text>
</g>
</g>
</svg>
