<?xml version="1.0" encoding="UTF-8" standalone="no"?>
<!DOCTYPE svg PUBLIC "-//W3C//DTD SVG 1.1//EN"
 "http://www.w3.org/Graphics/SVG/1.1/DTD/svg11.dtd">
<!-- Generated by graphviz version 12.1.0 (20240811.2233)
 -->
<!-- Title: state transitions Pages: 1 -->
<svg width="667pt" height="54pt"
 viewBox="0.00 0.00 667.00 53.78" xmlns="http://www.w3.org/2000/svg" xmlns:xlink="http://www.w3.org/1999/xlink">
<g id="graph0" class="graph" transform="scale(1 1) rotate(0) translate(4 49.78)">
<title>state transitions</title>
<polygon fill="white" stroke="none" points="-4,4 -4,-49.78 663,-49.78 663,4 -4,4"/>
<!-- preparing&#45;failed -->
<g id="node1" class="node state regular">
<title>preparing&#45;failed</title>
<polygon fill="#ffffff" fill-opacity="0.003922" stroke="none" stroke-width="2" points="659,-45.78 541.75,-45.78 541.75,-9.53 659,-9.53 659,-45.78"/>
<text text-anchor="start" x="552.75" y="-23.38" font-family="Helvetica,sans-Serif" font-size="12.00">preparing&#45;failed</text>
<path fill="none" stroke="black" stroke-width="2" d="M554.17,-10.53C554.17,-10.53 646.58,-10.53 646.58,-10.53 652.29,-10.53 658,-16.24 658,-21.95 658,-21.95 658,-33.36 658,-33.36 658,-39.07 652.29,-44.78 646.58,-44.78 646.58,-44.78 554.17,-44.78 554.17,-44.78 548.46,-44.78 542.75,-39.07 542.75,-33.36 542.75,-33.36 542.75,-21.95 542.75,-21.95 542.75,-16.24 548.46,-10.53 554.17,-10.53"/>
</g>
<!-- preparing&#45;for&#45;installation -->
<g id="node2" class="node state regular">
<title>preparing&#45;for&#45;installation</title>
<polygon fill="#ffffff" fill-opacity="0.003922" stroke="none" stroke-width="2" points="169.75,-45.78 0,-45.78 0,-9.53 169.75,-9.53 169.75,-45.78"/>
<text text-anchor="start" x="11" y="-23.38" font-family="Helvetica,sans-Serif" font-size="12.00">preparing&#45;for&#45;installation</text>
<path fill="none" stroke="black" stroke-width="2" d="M12.42,-10.53C12.42,-10.53 157.33,-10.53 157.33,-10.53 163.04,-10.53 168.75,-16.24 168.75,-21.95 168.75,-21.95 168.75,-33.36 168.75,-33.36 168.75,-39.07 163.04,-44.78 157.33,-44.78 157.33,-44.78 12.42,-44.78 12.42,-44.78 6.71,-44.78 1,-39.07 1,-33.36 1,-33.36 1,-21.95 1,-21.95 1,-16.24 6.71,-10.53 12.42,-10.53"/>
</g>
<!-- preparing&#45;for&#45;installation&#45;&gt;preparing&#45;failed -->
<g id="edge1" class="edge transition">
<title>preparing&#45;for&#45;installation&#45;&gt;preparing&#45;failed</title>
<path fill="none" stroke="black" d="M169.52,-27.65C270.19,-27.65 437.31,-27.65 530.75,-27.65"/>
<polygon fill="black" stroke="black" points="530.54,-31.15 540.54,-27.65 530.54,-24.15 530.54,-31.15"/>
<text text-anchor="start" x="227.88" y="-30.9" font-family="Helvetica,sans-Serif" font-size="10.00">Refresh &#45; Preparing timed out host move to known &#160;&#160;</text>
</g>
<!-- preparing&#45;for&#45;installation&#45;&gt;preparing&#45;failed -->
<g id="edge2" class="edge transition">
<title>preparing&#45;for&#45;installation&#45;&gt;preparing&#45;failed</title>
<path fill="none" stroke="black" d="M169.69,-12.76C175.79,-12.02 181.85,-11.39 187.75,-10.9 336.59,1.25 375.3,5.34 523.75,-10.9 525.96,-11.15 528.19,-11.43 530.44,-11.74"/>
<polygon fill="black" stroke="black" points="529.86,-15.19 540.29,-13.3 530.96,-8.28 529.86,-15.19"/>
<text text-anchor="start" x="187.75" y="-14.15" font-family="Helvetica,sans-Serif" font-size="10.00">Refresh &#45; Preparing failed image pull host move to preparing failed &#160;&#160;</text>
</g>
</g>
</svg>
