<?xml version="1.0" encoding="UTF-8" standalone="no"?>
<!DOCTYPE svg PUBLIC "-//W3C//DTD SVG 1.1//EN"
 "http://www.w3.org/Graphics/SVG/1.1/DTD/svg11.dtd">
<!-- Generated by graphviz version 12.1.0 (20240811.2233)
 -->
<!-- Title: state transitions Pages: 1 -->
<svg width="803pt" height="152pt"
 viewBox="0.00 0.00 803.38 152.25" xmlns="http://www.w3.org/2000/svg" xmlns:xlink="http://www.w3.org/1999/xlink">
<g id="graph0" class="graph" transform="scale(1 1) rotate(0) translate(4 148.25)">
<title>state transitions</title>
<polygon fill="white" stroke="none" points="-4,4 -4,-148.25 799.38,-148.25 799.38,4 -4,4"/>
<!-- added&#45;to&#45;existing&#45;cluster -->
<g id="node1" class="node state regular">
<title>added&#45;to&#45;existing&#45;cluster</title>
<polygon fill="#ffffff" fill-opacity="0.003922" stroke="none" stroke-width="2" points="758,-90.25 586.75,-90.25 586.75,-54 758,-54 758,-90.25"/>
<text text-anchor="start" x="597.75" y="-67.85" font-family="Helvetica,sans-Serif" font-size="12.00">added&#45;to&#45;existing&#45;cluster</text>
<path fill="none" stroke="black" stroke-width="2" d="M599.17,-55C599.17,-55 745.58,-55 745.58,-55 751.29,-55 757,-60.71 757,-66.42 757,-66.42 757,-77.83 757,-77.83 757,-83.54 751.29,-89.25 745.58,-89.25 745.58,-89.25 599.17,-89.25 599.17,-89.25 593.46,-89.25 587.75,-83.54 587.75,-77.83 587.75,-77.83 587.75,-66.42 587.75,-66.42 587.75,-60.71 593.46,-55 599.17,-55"/>
</g>
<!-- added&#45;to&#45;existing&#45;cluster&#45;&gt;added&#45;to&#45;existing&#45;cluster -->
<g id="edge1" class="edge transition">
<title>added&#45;to&#45;existing&#45;cluster&#45;&gt;added&#45;to&#45;existing&#45;cluster</title>
<path fill="none" stroke="black" d="M622,-89.97C613.44,-99.53 630.23,-108.25 672.38,-108.25 696.74,-108.25 712.63,-105.34 720.05,-101.03"/>
<polygon fill="black" stroke="black" points="723.42,-101.98 722.39,-91.44 716.62,-100.32 723.42,-101.98"/>
<text text-anchor="start" x="549.38" y="-111.5" font-family="Helvetica,sans-Serif" font-size="10.00">Refresh &#45; Day 2 hosts should stay in added state &#160;&#160;</text>
</g>
<!-- installing -->
<g id="node2" class="node state regular">
<title>installing</title>
<polygon fill="#ffffff" fill-opacity="0.003922" stroke="none" stroke-width="2" points="136,-144.25 61.5,-144.25 61.5,-108 136,-108 136,-144.25"/>
<text text-anchor="start" x="72.5" y="-121.85" font-family="Helvetica,sans-Serif" font-size="12.00">installing</text>
<path fill="none" stroke="black" stroke-width="2" d="M73.92,-109C73.92,-109 123.58,-109 123.58,-109 129.29,-109 135,-114.71 135,-120.42 135,-120.42 135,-131.83 135,-131.83 135,-137.54 129.29,-143.25 123.58,-143.25 123.58,-143.25 73.92,-143.25 73.92,-143.25 68.21,-143.25 62.5,-137.54 62.5,-131.83 62.5,-131.83 62.5,-120.42 62.5,-120.42 62.5,-114.71 68.21,-109 73.92,-109"/>
</g>
<!-- installing&#45;&gt;added&#45;to&#45;existing&#45;cluster -->
<g id="edge2" class="edge transition">
<title>installing&#45;&gt;added&#45;to&#45;existing&#45;cluster</title>
<path fill="none" stroke="black" d="M135.75,-124.34C214.48,-120.19 407.82,-108.77 568.75,-89.12 571.06,-88.84 573.4,-88.55 575.76,-88.24"/>
<polygon fill="black" stroke="black" points="575.96,-91.74 585.39,-86.91 575.01,-84.81 575.96,-91.74"/>
<text text-anchor="start" x="215.5" y="-122.43" font-family="Helvetica,sans-Serif" font-size="10.00">null &#45; host progress changed to added&#45;to&#45;existing&#45;cluster for day2 host &#160;&#160;</text>
</g>
<!-- installing&#45;in&#45;progress -->
<g id="node3" class="node state regular">
<title>installing&#45;in&#45;progress</title>
<polygon fill="#ffffff" fill-opacity="0.003922" stroke="none" stroke-width="2" points="171.25,-90.25 26.25,-90.25 26.25,-54 171.25,-54 171.25,-90.25"/>
<text text-anchor="start" x="37.25" y="-67.85" font-family="Helvetica,sans-Serif" font-size="12.00">installing&#45;in&#45;progress</text>
<path fill="none" stroke="black" stroke-width="2" d="M38.67,-55C38.67,-55 158.83,-55 158.83,-55 164.54,-55 170.25,-60.71 170.25,-66.42 170.25,-66.42 170.25,-77.83 170.25,-77.83 170.25,-83.54 164.54,-89.25 158.83,-89.25 158.83,-89.25 38.67,-89.25 38.67,-89.25 32.96,-89.25 27.25,-83.54 27.25,-77.83 27.25,-77.83 27.25,-66.42 27.25,-66.42 27.25,-60.71 32.96,-55 38.67,-55"/>
</g>
<!-- installing&#45;in&#45;progress&#45;&gt;added&#45;to&#45;existing&#45;cluster -->
<g id="edge3" class="edge transition">
<title>installing&#45;in&#45;progress&#45;&gt;added&#45;to&#45;existing&#45;cluster</title>
<path fill="none" stroke="black" d="M170.99,-72.12C273.13,-72.12 461.43,-72.12 575.64,-72.12"/>
<polygon fill="black" stroke="black" points="575.63,-75.63 585.63,-72.13 575.63,-68.63 575.63,-75.63"/>
<text text-anchor="start" x="215.5" y="-75.38" font-family="Helvetica,sans-Serif" font-size="10.00">null &#45; host progress changed to added&#45;to&#45;existing&#45;cluster for day2 host &#160;&#160;</text>
</g>
<!-- installing&#45;pending&#45;user&#45;action -->
<g id="node4" class="node state regular">
<title>installing&#45;pending&#45;user&#45;action</title>
<polygon fill="#ffffff" fill-opacity="0.003922" stroke="none" stroke-width="2" points="197.5,-36.25 0,-36.25 0,0 197.5,0 197.5,-36.25"/>
<text text-anchor="start" x="11" y="-13.85" font-family="Helvetica,sans-Serif" font-size="12.00">installing&#45;pending&#45;user&#45;action</text>
<path fill="none" stroke="black" stroke-width="2" d="M12.42,-1C12.42,-1 185.08,-1 185.08,-1 190.79,-1 196.5,-6.71 196.5,-12.42 196.5,-12.42 196.5,-23.83 196.5,-23.83 196.5,-29.54 190.79,-35.25 185.08,-35.25 185.08,-35.25 12.42,-35.25 12.42,-35.25 6.71,-35.25 1,-29.54 1,-23.83 1,-23.83 1,-12.42 1,-12.42 1,-6.71 6.71,-1 12.42,-1"/>
</g>
<!-- installing&#45;pending&#45;user&#45;action&#45;&gt;added&#45;to&#45;existing&#45;cluster -->
<g id="edge4" class="edge transition">
<title>installing&#45;pending&#45;user&#45;action&#45;&gt;added&#45;to&#45;existing&#45;cluster</title>
<path fill="none" stroke="black" d="M197.44,-23.53C292.48,-29.34 440.83,-39.88 568.75,-55.38 571.06,-55.65 573.4,-55.95 575.75,-56.26"/>
<polygon fill="black" stroke="black" points="575.01,-59.69 585.39,-57.56 575.95,-52.75 575.01,-59.69"/>
<text text-anchor="start" x="215.5" y="-58.62" font-family="Helvetica,sans-Serif" font-size="10.00">null &#45; host progress changed to added&#45;to&#45;existing&#45;cluster for day2 host &#160;&#160;</text>
</g>
</g>
</svg>
