<?xml version="1.0" encoding="UTF-8" standalone="no"?>
<!DOCTYPE svg PUBLIC "-//W3C//DTD SVG 1.1//EN"
 "http://www.w3.org/Graphics/SVG/1.1/DTD/svg11.dtd">
<!-- Generated by graphviz version 12.1.0 (20240811.2233)
 -->
<!-- Title: state transitions Pages: 1 -->
<svg width="679pt" height="384pt"
 viewBox="0.00 0.00 679.00 384.04" xmlns="http://www.w3.org/2000/svg" xmlns:xlink="http://www.w3.org/1999/xlink">
<g id="graph0" class="graph" transform="scale(1 1) rotate(0) translate(4 380.04)">
<title>state transitions</title>
<polygon fill="white" stroke="none" points="-4,4 -4,-380.04 675,-380.04 675,4 -4,4"/>
<!-- added&#45;to&#45;existing&#45;cluster -->
<g id="node1" class="node state regular">
<title>added&#45;to&#45;existing&#45;cluster</title>
<polygon fill="#ffffff" fill-opacity="0.003922" stroke="none" stroke-width="2" points="171.25,-368.7 0,-368.7 0,-332.45 171.25,-332.45 171.25,-368.7"/>
<text text-anchor="start" x="11" y="-346.3" font-family="Helvetica,sans-Serif" font-size="12.00">added&#45;to&#45;existing&#45;cluster</text>
<path fill="none" stroke="black" stroke-width="2" d="M12.42,-333.45C12.42,-333.45 158.83,-333.45 158.83,-333.45 164.54,-333.45 170.25,-339.15 170.25,-344.86 170.25,-344.86 170.25,-356.28 170.25,-356.28 170.25,-361.99 164.54,-367.7 158.83,-367.7 158.83,-367.7 12.42,-367.7 12.42,-367.7 6.71,-367.7 1,-361.99 1,-356.28 1,-356.28 1,-344.86 1,-344.86 1,-339.15 6.71,-333.45 12.42,-333.45"/>
</g>
<!-- unbinding&#45;pending&#45;user&#45;action -->
<g id="node2" class="node state regular">
<title>unbinding&#45;pending&#45;user&#45;action</title>
<polygon fill="#ffffff" fill-opacity="0.003922" stroke="none" stroke-width="2" points="671,-206.7 467.5,-206.7 467.5,-170.45 671,-170.45 671,-206.7"/>
<text text-anchor="start" x="478.5" y="-184.3" font-family="Helvetica,sans-Serif" font-size="12.00">unbinding&#45;pending&#45;user&#45;action</text>
<path fill="none" stroke="black" stroke-width="2" d="M479.92,-171.45C479.92,-171.45 658.58,-171.45 658.58,-171.45 664.29,-171.45 670,-177.15 670,-182.86 670,-182.86 670,-194.28 670,-194.28 670,-199.99 664.29,-205.7 658.58,-205.7 658.58,-205.7 479.92,-205.7 479.92,-205.7 474.21,-205.7 468.5,-199.99 468.5,-194.28 468.5,-194.28 468.5,-182.86 468.5,-182.86 468.5,-177.15 474.21,-171.45 479.92,-171.45"/>
</g>
<!-- added&#45;to&#45;existing&#45;cluster&#45;&gt;unbinding&#45;pending&#45;user&#45;action -->
<g id="edge1" class="edge transition">
<title>added&#45;to&#45;existing&#45;cluster&#45;&gt;unbinding&#45;pending&#45;user&#45;action</title>
<path fill="none" stroke="black" d="M170.91,-360.96C247.61,-366.57 361.9,-365.06 449.5,-321.57 496.53,-298.22 533.38,-247.41 552.88,-215.79"/>
<polygon fill="black" stroke="black" points="555.68,-217.93 557.82,-207.56 549.68,-214.33 555.68,-217.93"/>
<text text-anchor="start" x="197.5" y="-366.54" font-family="Helvetica,sans-Serif" font-size="10.00">Unbind Host &#45; Unbind during or after installation &#160;&#160;</text>
</g>
<!-- cancelled -->
<g id="node3" class="node state regular">
<title>cancelled</title>
<polygon fill="#ffffff" fill-opacity="0.003922" stroke="none" stroke-width="2" points="125.12,-310.7 46.12,-310.7 46.12,-274.45 125.12,-274.45 125.12,-310.7"/>
<text text-anchor="start" x="57.12" y="-288.3" font-family="Helvetica,sans-Serif" font-size="12.00">cancelled</text>
<path fill="none" stroke="black" stroke-width="2" d="M58.54,-275.45C58.54,-275.45 112.71,-275.45 112.71,-275.45 118.42,-275.45 124.12,-281.15 124.12,-286.86 124.12,-286.86 124.12,-298.28 124.12,-298.28 124.12,-303.99 118.42,-309.7 112.71,-309.7 112.71,-309.7 58.54,-309.7 58.54,-309.7 52.83,-309.7 47.12,-303.99 47.12,-298.28 47.12,-298.28 47.12,-286.86 47.12,-286.86 47.12,-281.15 52.83,-275.45 58.54,-275.45"/>
</g>
<!-- cancelled&#45;&gt;unbinding&#45;pending&#45;user&#45;action -->
<g id="edge2" class="edge transition">
<title>cancelled&#45;&gt;unbinding&#45;pending&#45;user&#45;action</title>
<path fill="none" stroke="black" d="M125.07,-295.95C205.97,-302.52 391.12,-314.52 449.5,-292.57 490.39,-277.19 526.41,-240.64 547.76,-215.24"/>
<polygon fill="black" stroke="black" points="550.37,-217.58 553.99,-207.62 544.95,-213.15 550.37,-217.58"/>
<text text-anchor="start" x="230.12" y="-308.43" font-family="Helvetica,sans-Serif" font-size="10.00">Reclaim Host &#45; Reclaim failed host &#160;&#160;</text>
</g>
<!-- cancelled&#45;&gt;unbinding&#45;pending&#45;user&#45;action -->
<g id="edge3" class="edge transition">
<title>cancelled&#45;&gt;unbinding&#45;pending&#45;user&#45;action</title>
<path fill="none" stroke="black" d="M125.04,-285.69C144.27,-282.4 167.95,-278.59 189.25,-275.82 304.49,-260.84 338.11,-283.68 449.5,-250.57 478.63,-241.91 508.96,-225.94 531.68,-212.38"/>
<polygon fill="black" stroke="black" points="533.23,-215.53 539.94,-207.33 529.58,-209.55 533.23,-215.53"/>
<text text-anchor="start" x="197.5" y="-279.07" font-family="Helvetica,sans-Serif" font-size="10.00">Unbind Host &#45; Unbind during or after installation &#160;&#160;</text>
</g>
<!-- error -->
<g id="node4" class="node state regular">
<title>error</title>
<polygon fill="#ffffff" fill-opacity="0.003922" stroke="none" stroke-width="2" points="113.62,-247.7 57.62,-247.7 57.62,-211.45 113.62,-211.45 113.62,-247.7"/>
<text text-anchor="start" x="71" y="-225.3" font-family="Helvetica,sans-Serif" font-size="12.00">error</text>
<path fill="none" stroke="black" stroke-width="2" d="M70.04,-212.45C70.04,-212.45 101.21,-212.45 101.21,-212.45 106.92,-212.45 112.62,-218.15 112.62,-223.86 112.62,-223.86 112.62,-235.28 112.62,-235.28 112.62,-240.99 106.92,-246.7 101.21,-246.7 101.21,-246.7 70.04,-246.7 70.04,-246.7 64.33,-246.7 58.62,-240.99 58.62,-235.28 58.62,-235.28 58.62,-223.86 58.62,-223.86 58.62,-218.15 64.33,-212.45 70.04,-212.45"/>
</g>
<!-- error&#45;&gt;unbinding&#45;pending&#45;user&#45;action -->
<g id="edge4" class="edge transition">
<title>error&#45;&gt;unbinding&#45;pending&#45;user&#45;action</title>
<path fill="none" stroke="black" d="M113.21,-231.06C173.45,-233.98 324.77,-238.66 449.5,-220.57 466.49,-218.11 484.52,-214.04 501.26,-209.61"/>
<polygon fill="black" stroke="black" points="501.86,-213.07 510.59,-207.06 500.02,-206.32 501.86,-213.07"/>
<text text-anchor="start" x="230.12" y="-237.1" font-family="Helvetica,sans-Serif" font-size="10.00">Reclaim Host &#45; Reclaim failed host &#160;&#160;</text>
</g>
<!-- error&#45;&gt;unbinding&#45;pending&#45;user&#45;action -->
<g id="edge5" class="edge transition">
<title>error&#45;&gt;unbinding&#45;pending&#45;user&#45;action</title>
<path fill="none" stroke="black" d="M113.33,-221.26C133.87,-215.27 163.07,-207.59 189.25,-203.82 278.37,-190.99 380.41,-187.51 456.14,-187.06"/>
<polygon fill="black" stroke="black" points="456.09,-190.56 466.08,-187.02 456.06,-183.56 456.09,-190.56"/>
<text text-anchor="start" x="197.5" y="-207.07" font-family="Helvetica,sans-Serif" font-size="10.00">Unbind Host &#45; Unbind during or after installation &#160;&#160;</text>
</g>
<!-- installed -->
<g id="node5" class="node state regular">
<title>installed</title>
<polygon fill="#ffffff" fill-opacity="0.003922" stroke="none" stroke-width="2" points="121.38,-188.7 49.88,-188.7 49.88,-152.45 121.38,-152.45 121.38,-188.7"/>
<text text-anchor="start" x="60.88" y="-166.3" font-family="Helvetica,sans-Serif" font-size="12.00">installed</text>
<path fill="none" stroke="black" stroke-width="2" d="M62.29,-153.45C62.29,-153.45 108.96,-153.45 108.96,-153.45 114.67,-153.45 120.38,-159.15 120.38,-164.86 120.38,-164.86 120.38,-176.28 120.38,-176.28 120.38,-181.99 114.67,-187.7 108.96,-187.7 108.96,-187.7 62.29,-187.7 62.29,-187.7 56.58,-187.7 50.88,-181.99 50.88,-176.28 50.88,-176.28 50.88,-164.86 50.88,-164.86 50.88,-159.15 56.58,-153.45 62.29,-153.45"/>
</g>
<!-- installed&#45;&gt;unbinding&#45;pending&#45;user&#45;action -->
<g id="edge6" class="edge transition">
<title>installed&#45;&gt;unbinding&#45;pending&#45;user&#45;action</title>
<path fill="none" stroke="black" d="M121.21,-169.12C185.81,-166.76 329.17,-163.17 449.5,-171.82 451.72,-171.98 453.96,-172.16 456.22,-172.35"/>
<polygon fill="black" stroke="black" points="455.82,-175.82 466.1,-173.27 456.47,-168.85 455.82,-175.82"/>
<text text-anchor="start" x="197.5" y="-175.07" font-family="Helvetica,sans-Serif" font-size="10.00">Unbind Host &#45; Unbind during or after installation &#160;&#160;</text>
</g>
<!-- reclaiming -->
<g id="node6" class="node state regular">
<title>reclaiming</title>
<polygon fill="#ffffff" fill-opacity="0.003922" stroke="none" stroke-width="2" points="127.75,-125.7 43.5,-125.7 43.5,-89.45 127.75,-89.45 127.75,-125.7"/>
<text text-anchor="start" x="54.5" y="-103.3" font-family="Helvetica,sans-Serif" font-size="12.00">reclaiming</text>
<path fill="none" stroke="black" stroke-width="2" d="M55.92,-90.45C55.92,-90.45 115.33,-90.45 115.33,-90.45 121.04,-90.45 126.75,-96.15 126.75,-101.86 126.75,-101.86 126.75,-113.28 126.75,-113.28 126.75,-118.99 121.04,-124.7 115.33,-124.7 115.33,-124.7 55.92,-124.7 55.92,-124.7 50.21,-124.7 44.5,-118.99 44.5,-113.28 44.5,-113.28 44.5,-101.86 44.5,-101.86 44.5,-96.15 50.21,-90.45 55.92,-90.45"/>
</g>
<!-- reclaiming&#45;&gt;unbinding&#45;pending&#45;user&#45;action -->
<g id="edge7" class="edge transition">
<title>reclaiming&#45;&gt;unbinding&#45;pending&#45;user&#45;action</title>
<path fill="none" stroke="black" d="M127.61,-109.67C195.3,-113.74 334.42,-124.61 449.5,-149.82 469.33,-154.17 490.54,-160.52 509.47,-166.82"/>
<polygon fill="black" stroke="black" points="508.29,-170.12 518.89,-170.03 510.55,-163.49 508.29,-170.12"/>
<text text-anchor="start" x="189.25" y="-153.07" font-family="Helvetica,sans-Serif" font-size="10.00">Reclaim Failed &#45; Reclaim failure for reclaiming host &#160;&#160;</text>
</g>
<!-- reclaiming&#45;&gt;unbinding&#45;pending&#45;user&#45;action -->
<g id="edge8" class="edge transition">
<title>reclaiming&#45;&gt;unbinding&#45;pending&#45;user&#45;action</title>
<path fill="none" stroke="black" d="M127.72,-97.48C196.46,-82.54 338.16,-60.15 449.5,-97.82 487.2,-110.58 522.36,-140.63 544.49,-162.67"/>
<polygon fill="black" stroke="black" points="541.76,-164.89 551.25,-169.59 546.76,-159.99 541.76,-164.89"/>
<text text-anchor="start" x="233.12" y="-101.07" font-family="Helvetica,sans-Serif" font-size="10.00">Refresh &#45; Refresh reclaiming host &#160;&#160;</text>
</g>
<!-- reclaiming&#45;rebooting -->
<g id="node7" class="node state regular">
<title>reclaiming&#45;rebooting</title>
<polygon fill="#ffffff" fill-opacity="0.003922" stroke="none" stroke-width="2" points="158.5,-62.7 12.75,-62.7 12.75,-26.45 158.5,-26.45 158.5,-62.7"/>
<text text-anchor="start" x="23.75" y="-40.3" font-family="Helvetica,sans-Serif" font-size="12.00">reclaiming&#45;rebooting</text>
<path fill="none" stroke="black" stroke-width="2" d="M25.17,-27.45C25.17,-27.45 146.08,-27.45 146.08,-27.45 151.79,-27.45 157.5,-33.15 157.5,-38.86 157.5,-38.86 157.5,-50.28 157.5,-50.28 157.5,-55.99 151.79,-61.7 146.08,-61.7 146.08,-61.7 25.17,-61.7 25.17,-61.7 19.46,-61.7 13.75,-55.99 13.75,-50.28 13.75,-50.28 13.75,-38.86 13.75,-38.86 13.75,-33.15 19.46,-27.45 25.17,-27.45"/>
</g>
<!-- reclaiming&#45;rebooting&#45;&gt;unbinding&#45;pending&#45;user&#45;action -->
<g id="edge9" class="edge transition">
<title>reclaiming&#45;rebooting&#45;&gt;unbinding&#45;pending&#45;user&#45;action</title>
<path fill="none" stroke="black" d="M158.41,-44.88C256.68,-45.75 423.89,-48.97 449.5,-60.82 495.67,-82.18 532.39,-130.53 552.17,-161.24"/>
<polygon fill="black" stroke="black" points="549.15,-163.01 557.42,-169.63 555.08,-159.3 549.15,-163.01"/>
<text text-anchor="start" x="189.25" y="-64.07" font-family="Helvetica,sans-Serif" font-size="10.00">Reclaim Failed &#45; Reclaim failure for reclaiming host &#160;&#160;</text>
</g>
<!-- reclaiming&#45;rebooting&#45;&gt;unbinding&#45;pending&#45;user&#45;action -->
<g id="edge10" class="edge transition">
<title>reclaiming&#45;rebooting&#45;&gt;unbinding&#45;pending&#45;user&#45;action</title>
<path fill="none" stroke="black" d="M141.11,-26.5C215.25,-5.26 350.06,21.17 449.5,-28.82 504.16,-56.3 540.01,-122.16 556.92,-160.19"/>
<polygon fill="black" stroke="black" points="553.62,-161.37 560.78,-169.18 560.06,-158.61 553.62,-161.37"/>
<text text-anchor="start" x="233.12" y="-32.07" font-family="Helvetica,sans-Serif" font-size="10.00">Refresh &#45; Refresh reclaiming host &#160;&#160;</text>
</g>
</g>
</svg>
