<?xml version="1.0" encoding="UTF-8" standalone="no"?>
<!DOCTYPE svg PUBLIC "-//W3C//DTD SVG 1.1//EN"
 "http://www.w3.org/Graphics/SVG/1.1/DTD/svg11.dtd">
<!-- Generated by graphviz version 12.1.0 (20240811.2233)
 -->
<!-- Title: state transitions Pages: 1 -->
<svg width="1134pt" height="796pt"
 viewBox="0.00 0.00 1133.50 795.76" xmlns="http://www.w3.org/2000/svg" xmlns:xlink="http://www.w3.org/1999/xlink">
<g id="graph0" class="graph" transform="scale(1 1) rotate(0) translate(4 791.76)">
<title>state transitions</title>
<polygon fill="white" stroke="none" points="-4,4 -4,-791.76 1129.5,-791.76 1129.5,4 -4,4"/>
<!-- error -->
<g id="node1" class="node state regular">
<title>error</title>
<polygon fill="#ffffff" fill-opacity="0.003922" stroke="none" stroke-width="2" points="947.25,-437.86 891.25,-437.86 891.25,-401.61 947.25,-401.61 947.25,-437.86"/>
<text text-anchor="start" x="904.62" y="-415.46" font-family="Helvetica,sans-Serif" font-size="12.00">error</text>
<path fill="none" stroke="black" stroke-width="2" d="M903.67,-402.61C903.67,-402.61 934.83,-402.61 934.83,-402.61 940.54,-402.61 946.25,-408.32 946.25,-414.03 946.25,-414.03 946.25,-425.44 946.25,-425.44 946.25,-431.15 940.54,-436.86 934.83,-436.86 934.83,-436.86 903.67,-436.86 903.67,-436.86 897.96,-436.86 892.25,-431.15 892.25,-425.44 892.25,-425.44 892.25,-414.03 892.25,-414.03 892.25,-408.32 897.96,-402.61 903.67,-402.61"/>
</g>
<!-- error&#45;&gt;error -->
<g id="edge1" class="edge transition">
<title>error&#45;&gt;error</title>
<path fill="none" stroke="black" d="M902.42,-437.58C899.56,-447.14 905.17,-455.86 919.25,-455.86 927.17,-455.86 932.41,-453.1 934.97,-448.99"/>
<polygon fill="black" stroke="black" points="938.45,-449.38 935.93,-439.08 931.48,-448.7 938.45,-449.38"/>
<text text-anchor="start" x="713" y="-459.11" font-family="Helvetica,sans-Serif" font-size="10.00">Media Disconnect &#45; Move to error when virtual media disconnects post&#45;installation &#160;&#160;</text>
</g>
<!-- error&#45;&gt;error -->
<g id="edge2" class="edge transition">
<title>error&#45;&gt;error</title>
<path fill="none" stroke="black" d="M891.35,-437.47C875.94,-454.81 885.24,-473.86 919.25,-473.86 947.15,-473.86 958.42,-461.04 953.06,-446.87"/>
<polygon fill="black" stroke="black" points="956.25,-445.35 947.96,-438.76 950.32,-449.08 956.25,-445.35"/>
<text text-anchor="start" x="753.5" y="-477.11" font-family="Helvetica,sans-Serif" font-size="10.00">Refresh &#45; Log collection timed out during error should stay in error &#160;&#160;</text>
</g>
<!-- error&#45;&gt;error -->
<g id="edge3" class="edge transition">
<title>error&#45;&gt;error</title>
<path fill="none" stroke="black" d="M891.48,-432.49C850.75,-457.63 860,-491.86 919.25,-491.86 973.41,-491.86 985.79,-463.26 956.42,-439.15"/>
<polygon fill="black" stroke="black" points="958.44,-436.29 948.26,-433.36 954.39,-442 958.44,-436.29"/>
<text text-anchor="start" x="793.62" y="-495.11" font-family="Helvetica,sans-Serif" font-size="10.00">Refresh &#45; Refresh during error should stay in error &#160;&#160;</text>
</g>
<!-- error&#45;&gt;error -->
<g id="edge4" class="edge transition">
<title>error&#45;&gt;error</title>
<path fill="none" stroke="black" d="M891.46,-430.76C826.79,-462.41 836.05,-509.86 919.25,-509.86 997.9,-509.86 1010.48,-467.46 956.99,-436.08"/>
<polygon fill="black" stroke="black" points="958.84,-433.11 948.37,-431.48 955.54,-439.28 958.84,-433.11"/>
<text text-anchor="start" x="826.62" y="-513.11" font-family="Helvetica,sans-Serif" font-size="10.00">Register Host &#45; Register during error &#160;&#160;</text>
</g>
<!-- installed -->
<g id="node2" class="node state regular">
<title>installed</title>
<polygon fill="#ffffff" fill-opacity="0.003922" stroke="none" stroke-width="2" points="134.88,-761.86 63.38,-761.86 63.38,-725.61 134.88,-725.61 134.88,-761.86"/>
<text text-anchor="start" x="74.38" y="-739.46" font-family="Helvetica,sans-Serif" font-size="12.00">installed</text>
<path fill="none" stroke="black" stroke-width="2" d="M75.79,-726.61C75.79,-726.61 122.46,-726.61 122.46,-726.61 128.17,-726.61 133.88,-732.32 133.88,-738.03 133.88,-738.03 133.88,-749.44 133.88,-749.44 133.88,-755.15 128.17,-760.86 122.46,-760.86 122.46,-760.86 75.79,-760.86 75.79,-760.86 70.08,-760.86 64.38,-755.15 64.38,-749.44 64.38,-749.44 64.38,-738.03 64.38,-738.03 64.38,-732.32 70.08,-726.61 75.79,-726.61"/>
</g>
<!-- installed&#45;&gt;error -->
<g id="edge5" class="edge transition">
<title>installed&#45;&gt;error</title>
<path fill="none" stroke="black" d="M134.69,-748.01C270.14,-763.95 762.84,-814.16 873.25,-715.73 912.43,-680.81 917.8,-516.81 918.32,-449.1"/>
<polygon fill="black" stroke="black" points="921.82,-449.15 918.36,-439.14 914.82,-449.12 921.82,-449.15"/>
<text text-anchor="start" x="414.25" y="-778.26" font-family="Helvetica,sans-Serif" font-size="10.00">Refresh &#45; Move host to error when cluster is in error &#160;&#160;</text>
</g>
<!-- installing -->
<g id="node3" class="node state regular">
<title>installing</title>
<polygon fill="#ffffff" fill-opacity="0.003922" stroke="none" stroke-width="2" points="136.38,-635.86 61.88,-635.86 61.88,-599.61 136.38,-599.61 136.38,-635.86"/>
<text text-anchor="start" x="72.88" y="-613.46" font-family="Helvetica,sans-Serif" font-size="12.00">installing</text>
<path fill="none" stroke="black" stroke-width="2" d="M74.29,-600.61C74.29,-600.61 123.96,-600.61 123.96,-600.61 129.67,-600.61 135.38,-606.32 135.38,-612.03 135.38,-612.03 135.38,-623.44 135.38,-623.44 135.38,-629.15 129.67,-634.86 123.96,-634.86 123.96,-634.86 74.29,-634.86 74.29,-634.86 68.58,-634.86 62.88,-629.15 62.88,-623.44 62.88,-623.44 62.88,-612.03 62.88,-612.03 62.88,-606.32 68.58,-600.61 74.29,-600.61"/>
</g>
<!-- installing&#45;&gt;error -->
<g id="edge6" class="edge transition">
<title>installing&#45;&gt;error</title>
<path fill="none" stroke="black" d="M122.49,-635.75C144.74,-652.43 180.62,-676.07 216.25,-685.73 251.48,-695.29 845.37,-709.29 873.25,-685.73 908.8,-655.69 916.27,-511.97 917.84,-449.19"/>
<polygon fill="black" stroke="black" points="921.34,-449.35 918.05,-439.28 914.34,-449.2 921.34,-449.35"/>
<text text-anchor="start" x="393.25" y="-701.91" font-family="Helvetica,sans-Serif" font-size="10.00">Installation Failed &#45; Installation failed while host is installing &#160;&#160;</text>
</g>
<!-- installing&#45;&gt;error -->
<g id="edge7" class="edge transition">
<title>installing&#45;&gt;error</title>
<path fill="none" stroke="black" d="M136.21,-630.38C158.88,-637.64 188.9,-646.03 216.25,-649.73 252.42,-654.63 845.07,-672.93 873.25,-649.73 903.76,-624.62 913.88,-505.2 916.98,-449.04"/>
<polygon fill="black" stroke="black" points="920.47,-449.44 917.48,-439.28 913.48,-449.09 920.47,-449.44"/>
<text text-anchor="start" x="338.5" y="-664.47" font-family="Helvetica,sans-Serif" font-size="10.00">Media Disconnect &#45; Move to error when virtual media disconnects post&#45;installation &#160;&#160;</text>
</g>
<!-- installing&#45;&gt;error -->
<g id="edge8" class="edge transition">
<title>installing&#45;&gt;error</title>
<path fill="none" stroke="black" d="M136.13,-618.78C284.75,-622.93 844.16,-636.97 873.25,-613.73 898.65,-593.44 911.02,-498.27 915.79,-449.18"/>
<polygon fill="black" stroke="black" points="919.27,-449.56 916.71,-439.28 912.3,-448.91 919.27,-449.56"/>
<text text-anchor="start" x="414.25" y="-630.03" font-family="Helvetica,sans-Serif" font-size="10.00">Refresh &#45; Move host to error when cluster is in error &#160;&#160;</text>
</g>
<!-- installing&#45;&gt;error -->
<g id="edge9" class="edge transition">
<title>installing&#45;&gt;error</title>
<path fill="none" stroke="black" d="M136.28,-609.86C159.1,-605.24 189.26,-599.78 216.25,-596.98 252.57,-593.23 844.43,-600.16 873.25,-577.73 893.53,-561.95 907.56,-490.09 914.09,-448.93"/>
<polygon fill="black" stroke="black" points="917.52,-449.63 915.57,-439.22 910.6,-448.57 917.52,-449.63"/>
<text text-anchor="start" x="403.38" y="-600.23" font-family="Helvetica,sans-Serif" font-size="10.00">Refresh &#45; Move host to error when installation times out &#160;&#160;</text>
</g>
<!-- installing&#45;&gt;error -->
<g id="edge10" class="edge transition">
<title>installing&#45;&gt;error</title>
<path fill="none" stroke="black" d="M128.4,-599.65C151.15,-586.19 184.44,-568.83 216.25,-560.98 251.7,-552.24 843.6,-563.05 873.25,-541.73 902.76,-520.52 912.95,-477.73 916.45,-448.9"/>
<polygon fill="black" stroke="black" points="919.93,-449.31 917.43,-439.01 912.96,-448.62 919.93,-449.31"/>
<text text-anchor="start" x="380.12" y="-564.23" font-family="Helvetica,sans-Serif" font-size="10.00">Refresh &#45; Move installing host to error when connection times out &#160;&#160;</text>
</g>
<!-- installing&#45;&gt;error -->
<g id="edge11" class="edge transition">
<title>installing&#45;&gt;error</title>
<path fill="none" stroke="black" d="M115.61,-599.66C136.04,-577.31 174.34,-540.36 216.25,-524.98 284.81,-499.83 811.34,-544.47 873.25,-505.73 893.43,-493.11 905.04,-468.23 911.4,-448.46"/>
<polygon fill="black" stroke="black" points="914.72,-449.58 914.14,-439 907.99,-447.64 914.72,-449.58"/>
<text text-anchor="start" x="436.38" y="-528.23" font-family="Helvetica,sans-Serif" font-size="10.00">Register Host &#45; Register during installation &#160;&#160;</text>
</g>
<!-- installing&#45;in&#45;progress -->
<g id="node4" class="node state regular">
<title>installing&#45;in&#45;progress</title>
<polygon fill="#ffffff" fill-opacity="0.003922" stroke="none" stroke-width="2" points="171.62,-401.86 26.62,-401.86 26.62,-365.61 171.62,-365.61 171.62,-401.86"/>
<text text-anchor="start" x="37.62" y="-379.46" font-family="Helvetica,sans-Serif" font-size="12.00">installing&#45;in&#45;progress</text>
<path fill="none" stroke="black" stroke-width="2" d="M39.04,-366.61C39.04,-366.61 159.21,-366.61 159.21,-366.61 164.92,-366.61 170.62,-372.32 170.62,-378.03 170.62,-378.03 170.62,-389.44 170.62,-389.44 170.62,-395.15 164.92,-400.86 159.21,-400.86 159.21,-400.86 39.04,-400.86 39.04,-400.86 33.33,-400.86 27.62,-395.15 27.62,-389.44 27.62,-389.44 27.62,-378.03 27.62,-378.03 27.62,-372.32 33.33,-366.61 39.04,-366.61"/>
</g>
<!-- installing&#45;in&#45;progress&#45;&gt;error -->
<g id="edge12" class="edge transition">
<title>installing&#45;in&#45;progress&#45;&gt;error</title>
<path fill="none" stroke="black" d="M116.92,-401.81C137.83,-422.83 175.75,-456.37 216.25,-469.73 285.57,-492.61 806.56,-499.43 873.25,-469.73 884.29,-464.82 893.76,-455.7 901.12,-446.59"/>
<polygon fill="black" stroke="black" points="903.72,-448.97 906.86,-438.85 898.1,-444.8 903.72,-448.97"/>
<text text-anchor="start" x="393.25" y="-492.78" font-family="Helvetica,sans-Serif" font-size="10.00">Installation Failed &#45; Installation failed while host is installing &#160;&#160;</text>
</g>
<!-- installing&#45;in&#45;progress&#45;&gt;error -->
<g id="edge13" class="edge transition">
<title>installing&#45;in&#45;progress&#45;&gt;error</title>
<path fill="none" stroke="black" d="M132,-401.66C154.7,-413.36 186.37,-427.57 216.25,-433.73 287.75,-448.47 801.08,-444.7 873.25,-433.73 875.59,-433.38 877.97,-432.93 880.36,-432.4"/>
<polygon fill="black" stroke="black" points="881.17,-435.81 889.97,-429.9 879.41,-429.03 881.17,-435.81"/>
<text text-anchor="start" x="338.5" y="-446.68" font-family="Helvetica,sans-Serif" font-size="10.00">Media Disconnect &#45; Move to error when virtual media disconnects post&#45;installation &#160;&#160;</text>
</g>
<!-- installing&#45;in&#45;progress&#45;&gt;error -->
<g id="edge14" class="edge transition">
<title>installing&#45;in&#45;progress&#45;&gt;error</title>
<path fill="none" stroke="black" d="M171.57,-393.38C186.32,-395.08 201.77,-396.65 216.25,-397.73 507.56,-419.52 581.42,-403.8 873.25,-416.98 875.57,-417.09 877.96,-417.21 880.37,-417.33"/>
<polygon fill="black" stroke="black" points="879.91,-420.81 890.1,-417.88 880.31,-413.82 879.91,-420.81"/>
<text text-anchor="start" x="414.25" y="-420.23" font-family="Helvetica,sans-Serif" font-size="10.00">Refresh &#45; Move host to error when cluster is in error &#160;&#160;</text>
</g>
<!-- installing&#45;in&#45;progress&#45;&gt;error -->
<g id="edge15" class="edge transition">
<title>installing&#45;in&#45;progress&#45;&gt;error</title>
<path fill="none" stroke="black" d="M171.36,-381.78C186.19,-381.45 201.73,-381.16 216.25,-380.98 289.24,-380.12 804.81,-355.58 873.25,-380.98 881.09,-383.9 888.48,-388.85 894.92,-394.27"/>
<polygon fill="black" stroke="black" points="892.23,-396.55 901.95,-400.76 896.98,-391.4 892.23,-396.55"/>
<text text-anchor="start" x="380.12" y="-384.23" font-family="Helvetica,sans-Serif" font-size="10.00">Refresh &#45; Move installing host to error when connection times out &#160;&#160;</text>
</g>
<!-- installing&#45;in&#45;progress&#45;&gt;error -->
<g id="edge16" class="edge transition">
<title>installing&#45;in&#45;progress&#45;&gt;error</title>
<path fill="none" stroke="black" d="M156.54,-365.66C175.32,-360.49 196.5,-355.56 216.25,-352.98 288.64,-343.56 808.8,-318.71 873.25,-352.98 888.59,-361.14 899.64,-377.12 906.95,-391.39"/>
<polygon fill="black" stroke="black" points="903.78,-392.87 911.19,-400.45 910.12,-389.91 903.78,-392.87"/>
<text text-anchor="start" x="216.25" y="-356.23" font-family="Helvetica,sans-Serif" font-size="10.00">Refresh &#45; Move to error on timeout if host is in particular installation in progress stages other than [writing&#45;image&#45;to&#45;disk, rebooting] &#160;&#160;</text>
</g>
<!-- installing&#45;in&#45;progress&#45;&gt;error -->
<g id="edge17" class="edge transition">
<title>installing&#45;in&#45;progress&#45;&gt;error</title>
<path fill="none" stroke="black" d="M123.92,-365.65C146.36,-349.82 181.62,-327.99 216.25,-318.98 286.9,-300.62 812,-279.26 873.25,-318.98 897.45,-334.68 908.75,-366.76 913.95,-390.53"/>
<polygon fill="black" stroke="black" points="910.5,-391.09 915.82,-400.26 917.37,-389.78 910.5,-391.09"/>
<text text-anchor="start" x="275.5" y="-322.23" font-family="Helvetica,sans-Serif" font-size="10.00">Refresh &#45; Move to error on timeout if host is in particular installation in progress stage writing&#45;image&#45;to&#45;disk &#160;&#160;</text>
</g>
<!-- installing&#45;in&#45;progress&#45;&gt;error -->
<g id="edge18" class="edge transition">
<title>installing&#45;in&#45;progress&#45;&gt;error</title>
<path fill="none" stroke="black" d="M113.05,-365.91C132.28,-341.09 171.04,-297.24 216.25,-279.98 250.35,-266.97 843.75,-258.49 873.25,-279.98 907.93,-305.25 916.46,-357.71 918.23,-390.68"/>
<polygon fill="black" stroke="black" points="914.72,-390.47 918.57,-400.34 921.72,-390.23 914.72,-390.47"/>
<text text-anchor="start" x="436.38" y="-283.23" font-family="Helvetica,sans-Serif" font-size="10.00">Register Host &#45; Register during installation &#160;&#160;</text>
</g>
<!-- installing&#45;pending&#45;user&#45;action -->
<g id="node5" class="node state regular">
<title>installing&#45;pending&#45;user&#45;action</title>
<polygon fill="#ffffff" fill-opacity="0.003922" stroke="none" stroke-width="2" points="198.25,-275.86 0,-275.86 0,-239.61 198.25,-239.61 198.25,-275.86"/>
<text text-anchor="start" x="11" y="-253.46" font-family="Helvetica,sans-Serif" font-size="12.00">installing&#45;pending&#45;user&#45;action</text>
<path fill="none" stroke="black" stroke-width="2" d="M12.42,-240.61C12.42,-240.61 185.83,-240.61 185.83,-240.61 191.54,-240.61 197.25,-246.32 197.25,-252.03 197.25,-252.03 197.25,-263.44 197.25,-263.44 197.25,-269.15 191.54,-274.86 185.83,-274.86 185.83,-274.86 12.42,-274.86 12.42,-274.86 6.71,-274.86 1,-269.15 1,-263.44 1,-263.44 1,-252.03 1,-252.03 1,-246.32 6.71,-240.61 12.42,-240.61"/>
</g>
<!-- installing&#45;pending&#45;user&#45;action&#45;&gt;error -->
<g id="edge19" class="edge transition">
<title>installing&#45;pending&#45;user&#45;action&#45;&gt;error</title>
<path fill="none" stroke="black" d="M197.91,-250.13C393.99,-235.83 821.02,-209.8 873.25,-249.98 895.39,-267.02 908.89,-346.66 914.78,-390.54"/>
<polygon fill="black" stroke="black" points="911.3,-390.91 916.04,-400.39 918.24,-390.02 911.3,-390.91"/>
<text text-anchor="start" x="414.25" y="-253.23" font-family="Helvetica,sans-Serif" font-size="10.00">Refresh &#45; Move host to error when cluster is in error &#160;&#160;</text>
</g>
<!-- preparing&#45;failed -->
<g id="node6" class="node state regular">
<title>preparing&#45;failed</title>
<polygon fill="#ffffff" fill-opacity="0.003922" stroke="none" stroke-width="2" points="157.75,-221.86 40.5,-221.86 40.5,-185.61 157.75,-185.61 157.75,-221.86"/>
<text text-anchor="start" x="51.5" y="-199.46" font-family="Helvetica,sans-Serif" font-size="12.00">preparing&#45;failed</text>
<path fill="none" stroke="black" stroke-width="2" d="M52.92,-186.61C52.92,-186.61 145.33,-186.61 145.33,-186.61 151.04,-186.61 156.75,-192.32 156.75,-198.03 156.75,-198.03 156.75,-209.44 156.75,-209.44 156.75,-215.15 151.04,-220.86 145.33,-220.86 145.33,-220.86 52.92,-220.86 52.92,-220.86 47.21,-220.86 41.5,-215.15 41.5,-209.44 41.5,-209.44 41.5,-198.03 41.5,-198.03 41.5,-192.32 47.21,-186.61 52.92,-186.61"/>
</g>
<!-- preparing&#45;failed&#45;&gt;error -->
<g id="edge20" class="edge transition">
<title>preparing&#45;failed&#45;&gt;error</title>
<path fill="none" stroke="black" d="M157.7,-200.3C327.58,-190.7 818.31,-167.18 873.25,-211.98 900.52,-234.22 912.13,-338.62 916.28,-390.43"/>
<polygon fill="black" stroke="black" points="912.79,-390.59 917.03,-400.3 919.77,-390.06 912.79,-390.59"/>
<text text-anchor="start" x="338.5" y="-215.23" font-family="Helvetica,sans-Serif" font-size="10.00">Media Disconnect &#45; Move to error when virtual media disconnects post&#45;installation &#160;&#160;</text>
</g>
<!-- preparing&#45;for&#45;installation -->
<g id="node7" class="node state regular">
<title>preparing&#45;for&#45;installation</title>
<polygon fill="#ffffff" fill-opacity="0.003922" stroke="none" stroke-width="2" points="184,-167.86 14.25,-167.86 14.25,-131.61 184,-131.61 184,-167.86"/>
<text text-anchor="start" x="25.25" y="-145.46" font-family="Helvetica,sans-Serif" font-size="12.00">preparing&#45;for&#45;installation</text>
<path fill="none" stroke="black" stroke-width="2" d="M26.67,-132.61C26.67,-132.61 171.58,-132.61 171.58,-132.61 177.29,-132.61 183,-138.32 183,-144.03 183,-144.03 183,-155.44 183,-155.44 183,-161.15 177.29,-166.86 171.58,-166.86 171.58,-166.86 26.67,-166.86 26.67,-166.86 20.96,-166.86 15.25,-161.15 15.25,-155.44 15.25,-155.44 15.25,-144.03 15.25,-144.03 15.25,-138.32 20.96,-132.61 26.67,-132.61"/>
</g>
<!-- preparing&#45;for&#45;installation&#45;&gt;error -->
<g id="edge21" class="edge transition">
<title>preparing&#45;for&#45;installation&#45;&gt;error</title>
<path fill="none" stroke="black" d="M183.97,-139.12C362.47,-118.48 772.05,-82.16 873.25,-168.98 906.3,-197.34 915.13,-330.46 917.45,-390.38"/>
<polygon fill="black" stroke="black" points="913.94,-390.27 917.79,-400.15 920.94,-390.03 913.94,-390.27"/>
<text text-anchor="start" x="338.5" y="-172.23" font-family="Helvetica,sans-Serif" font-size="10.00">Media Disconnect &#45; Move to error when virtual media disconnects post&#45;installation &#160;&#160;</text>
</g>
<!-- preparing&#45;successful -->
<g id="node8" class="node state regular">
<title>preparing&#45;successful</title>
<polygon fill="#ffffff" fill-opacity="0.003922" stroke="none" stroke-width="2" points="172,-113.86 26.25,-113.86 26.25,-77.61 172,-77.61 172,-113.86"/>
<text text-anchor="start" x="37.25" y="-91.46" font-family="Helvetica,sans-Serif" font-size="12.00">preparing&#45;successful</text>
<path fill="none" stroke="black" stroke-width="2" d="M38.67,-78.61C38.67,-78.61 159.58,-78.61 159.58,-78.61 165.29,-78.61 171,-84.32 171,-90.03 171,-90.03 171,-101.44 171,-101.44 171,-107.15 165.29,-112.86 159.58,-112.86 159.58,-112.86 38.67,-112.86 38.67,-112.86 32.96,-112.86 27.25,-107.15 27.25,-101.44 27.25,-101.44 27.25,-90.03 27.25,-90.03 27.25,-84.32 32.96,-78.61 38.67,-78.61"/>
</g>
<!-- preparing&#45;successful&#45;&gt;error -->
<g id="edge22" class="edge transition">
<title>preparing&#45;successful&#45;&gt;error</title>
<path fill="none" stroke="black" d="M171.78,-90.62C353.42,-78.37 821.21,-51.62 873.25,-96.98 916.89,-135.03 919.51,-318.52 918.81,-390.59"/>
<polygon fill="black" stroke="black" points="915.31,-390.37 918.68,-400.42 922.31,-390.46 915.31,-390.37"/>
<text text-anchor="start" x="338.5" y="-100.23" font-family="Helvetica,sans-Serif" font-size="10.00">Media Disconnect &#45; Move to error when virtual media disconnects post&#45;installation &#160;&#160;</text>
</g>
<!-- resetting&#45;pending&#45;user&#45;action -->
<g id="node9" class="node state regular">
<title>resetting&#45;pending&#45;user&#45;action</title>
<polygon fill="#ffffff" fill-opacity="0.003922" stroke="none" stroke-width="2" points="198.25,-59.86 0,-59.86 0,-23.61 198.25,-23.61 198.25,-59.86"/>
<text text-anchor="start" x="11" y="-37.46" font-family="Helvetica,sans-Serif" font-size="12.00">resetting&#45;pending&#45;user&#45;action</text>
<path fill="none" stroke="black" stroke-width="2" d="M12.42,-24.61C12.42,-24.61 185.83,-24.61 185.83,-24.61 191.54,-24.61 197.25,-30.32 197.25,-36.03 197.25,-36.03 197.25,-47.44 197.25,-47.44 197.25,-53.15 191.54,-58.86 185.83,-58.86 185.83,-58.86 12.42,-58.86 12.42,-58.86 6.71,-58.86 1,-53.15 1,-47.44 1,-47.44 1,-36.03 1,-36.03 1,-30.32 6.71,-24.61 12.42,-24.61"/>
</g>
<!-- resetting&#45;pending&#45;user&#45;action&#45;&gt;error -->
<g id="edge23" class="edge transition">
<title>resetting&#45;pending&#45;user&#45;action&#45;&gt;error</title>
<path fill="none" stroke="black" d="M198.24,-28.23C383.89,-5.05 776.63,31.93 873.25,-54.98 898.15,-77.38 912.47,-308.37 916.82,-390.75"/>
<polygon fill="black" stroke="black" points="913.31,-390.68 917.32,-400.48 920.3,-390.32 913.31,-390.68"/>
<text text-anchor="start" x="414.25" y="-58.23" font-family="Helvetica,sans-Serif" font-size="10.00">Refresh &#45; Move host to error when cluster is in error &#160;&#160;</text>
</g>
</g>
</svg>
