<?xml version="1.0" encoding="UTF-8" standalone="no"?>
<!DOCTYPE svg PUBLIC "-//W3C//DTD SVG 1.1//EN"
 "http://www.w3.org/Graphics/SVG/1.1/DTD/svg11.dtd">
<!-- Generated by graphviz version 12.1.0 (20240811.2233)
 -->
<!-- Title: state transitions Pages: 1 -->
<svg width="681pt" height="568pt"
 viewBox="0.00 0.00 681.12 568.23" xmlns="http://www.w3.org/2000/svg" xmlns:xlink="http://www.w3.org/1999/xlink">
<g id="graph0" class="graph" transform="scale(1 1) rotate(0) translate(4 564.23)">
<title>state transitions</title>
<polygon fill="white" stroke="none" points="-4,4 -4,-564.23 677.12,-564.23 677.12,4 -4,4"/>
<!-- binding -->
<g id="node1" class="node state regular">
<title>binding</title>
<polygon fill="#ffffff" fill-opacity="0.003922" stroke="none" stroke-width="2" points="131.5,-537.7 66,-537.7 66,-501.45 131.5,-501.45 131.5,-537.7"/>
<text text-anchor="start" x="77" y="-515.3" font-family="Helvetica,sans-Serif" font-size="12.00">binding</text>
<path fill="none" stroke="black" stroke-width="2" d="M78.42,-502.45C78.42,-502.45 119.08,-502.45 119.08,-502.45 124.79,-502.45 130.5,-508.15 130.5,-513.86 130.5,-513.86 130.5,-525.28 130.5,-525.28 130.5,-530.99 124.79,-536.7 119.08,-536.7 119.08,-536.7 78.42,-536.7 78.42,-536.7 72.71,-536.7 67,-530.99 67,-525.28 67,-525.28 67,-513.86 67,-513.86 67,-508.15 72.71,-502.45 78.42,-502.45"/>
</g>
<!-- discovering -->
<g id="node2" class="node state regular">
<title>discovering</title>
<polygon fill="#ffffff" fill-opacity="0.003922" stroke="none" stroke-width="2" points="602.75,-321.7 512.5,-321.7 512.5,-285.45 602.75,-285.45 602.75,-321.7"/>
<text text-anchor="start" x="523.5" y="-299.3" font-family="Helvetica,sans-Serif" font-size="12.00">discovering</text>
<path fill="none" stroke="black" stroke-width="2" d="M524.92,-286.45C524.92,-286.45 590.33,-286.45 590.33,-286.45 596.04,-286.45 601.75,-292.15 601.75,-297.86 601.75,-297.86 601.75,-309.28 601.75,-309.28 601.75,-314.99 596.04,-320.7 590.33,-320.7 590.33,-320.7 524.92,-320.7 524.92,-320.7 519.21,-320.7 513.5,-314.99 513.5,-309.28 513.5,-309.28 513.5,-297.86 513.5,-297.86 513.5,-292.15 519.21,-286.45 524.92,-286.45"/>
</g>
<!-- binding&#45;&gt;discovering -->
<g id="edge1" class="edge transition">
<title>binding&#45;&gt;discovering</title>
<path fill="none" stroke="black" d="M131.49,-527.88C204.32,-544.92 385.53,-575.44 494.5,-490.57 543.14,-452.69 554.09,-375.48 556.3,-333.08"/>
<polygon fill="black" stroke="black" points="559.8,-333.25 556.68,-323.12 552.8,-332.98 559.8,-333.25"/>
<text text-anchor="start" x="276.25" y="-550.73" font-family="Helvetica,sans-Serif" font-size="10.00">Register Host &#45; Re&#45;registration &#160;&#160;</text>
</g>
<!-- discovering&#45;&gt;discovering -->
<g id="edge4" class="edge transition">
<title>discovering&#45;&gt;discovering</title>
<path fill="none" stroke="black" d="M539.41,-321.41C536.32,-330.98 542.39,-339.7 557.62,-339.7 566.2,-339.7 571.87,-336.94 574.64,-332.82"/>
<polygon fill="black" stroke="black" points="578.11,-333.23 575.68,-322.92 571.15,-332.5 578.11,-333.23"/>
<text text-anchor="start" x="442.12" y="-342.95" font-family="Helvetica,sans-Serif" font-size="10.00">Refresh &#45; Host reconnected without inventory &#160;&#160;</text>
</g>
<!-- discovering&#45;&gt;discovering -->
<g id="edge5" class="edge transition">
<title>discovering&#45;&gt;discovering</title>
<path fill="none" stroke="black" d="M527.17,-321.59C510.87,-338.85 521.02,-357.7 557.62,-357.7 587.65,-357.7 599.88,-345.02 594.31,-330.93"/>
<polygon fill="black" stroke="black" points="597.38,-329.23 588.92,-322.85 591.56,-333.11 597.38,-329.23"/>
<text text-anchor="start" x="478.88" y="-360.95" font-family="Helvetica,sans-Serif" font-size="10.00">Register Host &#45; Re&#45;registration &#160;&#160;</text>
</g>
<!-- disconnected -->
<g id="node3" class="node state regular">
<title>disconnected</title>
<polygon fill="#ffffff" fill-opacity="0.003922" stroke="none" stroke-width="2" points="149.5,-483.7 48,-483.7 48,-447.45 149.5,-447.45 149.5,-483.7"/>
<text text-anchor="start" x="59" y="-461.3" font-family="Helvetica,sans-Serif" font-size="12.00">disconnected</text>
<path fill="none" stroke="black" stroke-width="2" d="M60.42,-448.45C60.42,-448.45 137.08,-448.45 137.08,-448.45 142.79,-448.45 148.5,-454.15 148.5,-459.86 148.5,-459.86 148.5,-471.28 148.5,-471.28 148.5,-476.99 142.79,-482.7 137.08,-482.7 137.08,-482.7 60.42,-482.7 60.42,-482.7 54.71,-482.7 49,-476.99 49,-471.28 49,-471.28 49,-459.86 49,-459.86 49,-454.15 54.71,-448.45 60.42,-448.45"/>
</g>
<!-- disconnected&#45;&gt;discovering -->
<g id="edge2" class="edge transition">
<title>disconnected&#45;&gt;discovering</title>
<path fill="none" stroke="black" d="M149.44,-469.05C242.8,-474.58 439.93,-481.26 494.5,-443.57 531.33,-418.14 546.59,-365.62 552.72,-332.63"/>
<polygon fill="black" stroke="black" points="556.14,-333.38 554.33,-322.94 549.23,-332.23 556.14,-333.38"/>
<text text-anchor="start" x="239.5" y="-476.6" font-family="Helvetica,sans-Serif" font-size="10.00">Refresh &#45; Host reconnected without inventory &#160;&#160;</text>
</g>
<!-- disconnected&#45;&gt;discovering -->
<g id="edge3" class="edge transition">
<title>disconnected&#45;&gt;discovering</title>
<path fill="none" stroke="black" d="M149.27,-455.06C165.05,-450.89 182.34,-445.42 197.5,-438.57 206.21,-434.64 206.44,-429.86 215.5,-426.82 274.42,-407.06 441.54,-440.09 494.5,-407.57 521.89,-390.76 538.71,-356.96 547.83,-332.45"/>
<polygon fill="black" stroke="black" points="551.12,-333.63 551.1,-323.04 544.51,-331.34 551.12,-333.63"/>
<text text-anchor="start" x="276.25" y="-430.07" font-family="Helvetica,sans-Serif" font-size="10.00">Register Host &#45; Re&#45;registration &#160;&#160;</text>
</g>
<!-- initial -->
<g id="node4" class="node state regular">
<title>initial</title>
<polygon fill="#ffffff" fill-opacity="0.003922" stroke="none" stroke-width="2" points="126.75,-429.7 70.75,-429.7 70.75,-393.45 126.75,-393.45 126.75,-429.7"/>
<text text-anchor="start" x="83" y="-407.3" font-family="Helvetica,sans-Serif" font-size="12.00">initial</text>
<path fill="none" stroke="black" stroke-width="2" d="M83.17,-394.45C83.17,-394.45 114.33,-394.45 114.33,-394.45 120.04,-394.45 125.75,-400.15 125.75,-405.86 125.75,-405.86 125.75,-417.28 125.75,-417.28 125.75,-422.99 120.04,-428.7 114.33,-428.7 114.33,-428.7 83.17,-428.7 83.17,-428.7 77.46,-428.7 71.75,-422.99 71.75,-417.28 71.75,-417.28 71.75,-405.86 71.75,-405.86 71.75,-400.15 77.46,-394.45 83.17,-394.45"/>
</g>
<!-- initial&#45;&gt;discovering -->
<g id="edge6" class="edge transition">
<title>initial&#45;&gt;discovering</title>
<path fill="none" stroke="black" d="M126.37,-407.33C149.79,-403.7 184.85,-398.48 215.5,-394.82 277.34,-387.44 438.45,-395.71 494.5,-368.57 511.97,-360.11 527.12,-344.54 538.09,-330.76"/>
<polygon fill="black" stroke="black" points="540.85,-332.92 544.07,-322.82 535.26,-328.7 540.85,-332.92"/>
<text text-anchor="start" x="269.12" y="-398.07" font-family="Helvetica,sans-Serif" font-size="10.00">Register Host &#45; Initial registration &#160;&#160;</text>
</g>
<!-- insufficient -->
<g id="node5" class="node state regular">
<title>insufficient</title>
<polygon fill="#ffffff" fill-opacity="0.003922" stroke="none" stroke-width="2" points="142.38,-375.7 55.12,-375.7 55.12,-339.45 142.38,-339.45 142.38,-375.7"/>
<text text-anchor="start" x="66.12" y="-353.3" font-family="Helvetica,sans-Serif" font-size="12.00">insufficient</text>
<path fill="none" stroke="black" stroke-width="2" d="M67.54,-340.45C67.54,-340.45 129.96,-340.45 129.96,-340.45 135.67,-340.45 141.38,-346.15 141.38,-351.86 141.38,-351.86 141.38,-363.28 141.38,-363.28 141.38,-368.99 135.67,-374.7 129.96,-374.7 129.96,-374.7 67.54,-374.7 67.54,-374.7 61.83,-374.7 56.12,-368.99 56.12,-363.28 56.12,-363.28 56.12,-351.86 56.12,-351.86 56.12,-346.15 61.83,-340.45 67.54,-340.45"/>
</g>
<!-- insufficient&#45;&gt;discovering -->
<g id="edge7" class="edge transition">
<title>insufficient&#45;&gt;discovering</title>
<path fill="none" stroke="black" d="M142.14,-356.01C214.79,-352.8 367.53,-343.71 494.5,-320.57 496.82,-320.15 499.18,-319.68 501.56,-319.18"/>
<polygon fill="black" stroke="black" points="502.29,-322.6 511.25,-316.94 500.72,-315.78 502.29,-322.6"/>
<text text-anchor="start" x="276.25" y="-354.79" font-family="Helvetica,sans-Serif" font-size="10.00">Register Host &#45; Re&#45;registration &#160;&#160;</text>
</g>
<!-- known -->
<g id="node6" class="node state regular">
<title>known</title>
<polygon fill="#ffffff" fill-opacity="0.003922" stroke="none" stroke-width="2" points="129.25,-321.7 68.25,-321.7 68.25,-285.45 129.25,-285.45 129.25,-321.7"/>
<text text-anchor="start" x="79.25" y="-299.3" font-family="Helvetica,sans-Serif" font-size="12.00">known</text>
<path fill="none" stroke="black" stroke-width="2" d="M80.67,-286.45C80.67,-286.45 116.83,-286.45 116.83,-286.45 122.54,-286.45 128.25,-292.15 128.25,-297.86 128.25,-297.86 128.25,-309.28 128.25,-309.28 128.25,-314.99 122.54,-320.7 116.83,-320.7 116.83,-320.7 80.67,-320.7 80.67,-320.7 74.96,-320.7 69.25,-314.99 69.25,-309.28 69.25,-309.28 69.25,-297.86 69.25,-297.86 69.25,-292.15 74.96,-286.45 80.67,-286.45"/>
</g>
<!-- known&#45;&gt;discovering -->
<g id="edge8" class="edge transition">
<title>known&#45;&gt;discovering</title>
<path fill="none" stroke="black" d="M129.02,-303.57C203.97,-303.57 403.71,-303.57 501.35,-303.57"/>
<polygon fill="black" stroke="black" points="501.22,-307.07 511.22,-303.57 501.22,-300.07 501.22,-307.07"/>
<text text-anchor="start" x="276.25" y="-306.82" font-family="Helvetica,sans-Serif" font-size="10.00">Register Host &#45; Re&#45;registration &#160;&#160;</text>
</g>
<!-- pending&#45;for&#45;input -->
<g id="node7" class="node state regular">
<title>pending&#45;for&#45;input</title>
<polygon fill="#ffffff" fill-opacity="0.003922" stroke="none" stroke-width="2" points="161.12,-267.7 36.38,-267.7 36.38,-231.45 161.12,-231.45 161.12,-267.7"/>
<text text-anchor="start" x="47.38" y="-245.3" font-family="Helvetica,sans-Serif" font-size="12.00">pending&#45;for&#45;input</text>
<path fill="none" stroke="black" stroke-width="2" d="M48.79,-232.45C48.79,-232.45 148.71,-232.45 148.71,-232.45 154.42,-232.45 160.12,-238.15 160.12,-243.86 160.12,-243.86 160.12,-255.28 160.12,-255.28 160.12,-260.99 154.42,-266.7 148.71,-266.7 148.71,-266.7 48.79,-266.7 48.79,-266.7 43.08,-266.7 37.38,-260.99 37.38,-255.28 37.38,-255.28 37.38,-243.86 37.38,-243.86 37.38,-238.15 43.08,-232.45 48.79,-232.45"/>
</g>
<!-- pending&#45;for&#45;input&#45;&gt;discovering -->
<g id="edge9" class="edge transition">
<title>pending&#45;for&#45;input&#45;&gt;discovering</title>
<path fill="none" stroke="black" d="M161.05,-252.14C239.04,-256.14 377.65,-265.71 494.5,-286.82 496.82,-287.24 499.18,-287.7 501.55,-288.2"/>
<polygon fill="black" stroke="black" points="500.71,-291.6 511.24,-290.41 502.27,-284.77 500.71,-291.6"/>
<text text-anchor="start" x="276.25" y="-290.07" font-family="Helvetica,sans-Serif" font-size="10.00">Register Host &#45; Re&#45;registration &#160;&#160;</text>
</g>
<!-- preparing&#45;for&#45;installation -->
<g id="node8" class="node state regular">
<title>preparing&#45;for&#45;installation</title>
<polygon fill="#ffffff" fill-opacity="0.003922" stroke="none" stroke-width="2" points="183.25,-213.7 14.25,-213.7 14.25,-177.45 183.25,-177.45 183.25,-213.7"/>
<text text-anchor="start" x="25.25" y="-191.3" font-family="Helvetica,sans-Serif" font-size="12.00">preparing&#45;for&#45;installation</text>
<path fill="none" stroke="black" stroke-width="2" d="M26.67,-178.45C26.67,-178.45 170.83,-178.45 170.83,-178.45 176.54,-178.45 182.25,-184.15 182.25,-189.86 182.25,-189.86 182.25,-201.28 182.25,-201.28 182.25,-206.99 176.54,-212.7 170.83,-212.7 170.83,-212.7 26.67,-212.7 26.67,-212.7 20.96,-212.7 15.25,-206.99 15.25,-201.28 15.25,-201.28 15.25,-189.86 15.25,-189.86 15.25,-184.15 20.96,-178.45 26.67,-178.45"/>
</g>
<!-- preparing&#45;for&#45;installation&#45;&gt;discovering -->
<g id="edge10" class="edge transition">
<title>preparing&#45;for&#45;installation&#45;&gt;discovering</title>
<path fill="none" stroke="black" d="M182.9,-188.7C266.08,-185.38 395.54,-190.09 494.5,-238.82 511.87,-247.38 527.02,-262.89 538.01,-276.59"/>
<polygon fill="black" stroke="black" points="535.17,-278.64 544.01,-284.47 540.74,-274.39 535.17,-278.64"/>
<text text-anchor="start" x="276.25" y="-242.07" font-family="Helvetica,sans-Serif" font-size="10.00">Register Host &#45; Re&#45;registration &#160;&#160;</text>
</g>
<!-- preparing&#45;successful -->
<g id="node9" class="node state regular">
<title>preparing&#45;successful</title>
<polygon fill="#ffffff" fill-opacity="0.003922" stroke="none" stroke-width="2" points="171.62,-159.7 25.88,-159.7 25.88,-123.45 171.62,-123.45 171.62,-159.7"/>
<text text-anchor="start" x="36.88" y="-137.3" font-family="Helvetica,sans-Serif" font-size="12.00">preparing&#45;successful</text>
<path fill="none" stroke="black" stroke-width="2" d="M38.29,-124.45C38.29,-124.45 159.21,-124.45 159.21,-124.45 164.92,-124.45 170.62,-130.15 170.62,-135.86 170.62,-135.86 170.62,-147.28 170.62,-147.28 170.62,-152.99 164.92,-158.7 159.21,-158.7 159.21,-158.7 38.29,-158.7 38.29,-158.7 32.58,-158.7 26.88,-152.99 26.88,-147.28 26.88,-147.28 26.88,-135.86 26.88,-135.86 26.88,-130.15 32.58,-124.45 38.29,-124.45"/>
</g>
<!-- preparing&#45;successful&#45;&gt;discovering -->
<g id="edge11" class="edge transition">
<title>preparing&#45;successful&#45;&gt;discovering</title>
<path fill="none" stroke="black" d="M171.28,-126.75C256.22,-113.35 398.45,-104.61 494.5,-170.82 529.24,-194.77 545.04,-243.39 551.86,-274.67"/>
<polygon fill="black" stroke="black" points="548.38,-275.11 553.76,-284.24 555.25,-273.75 548.38,-275.11"/>
<text text-anchor="start" x="276.25" y="-174.07" font-family="Helvetica,sans-Serif" font-size="10.00">Register Host &#45; Re&#45;registration &#160;&#160;</text>
</g>
<!-- resetting -->
<g id="node10" class="node state regular">
<title>resetting</title>
<polygon fill="#ffffff" fill-opacity="0.003922" stroke="none" stroke-width="2" points="136,-105.7 61.5,-105.7 61.5,-69.45 136,-69.45 136,-105.7"/>
<text text-anchor="start" x="72.5" y="-83.3" font-family="Helvetica,sans-Serif" font-size="12.00">resetting</text>
<path fill="none" stroke="black" stroke-width="2" d="M73.92,-70.45C73.92,-70.45 123.58,-70.45 123.58,-70.45 129.29,-70.45 135,-76.15 135,-81.86 135,-81.86 135,-93.28 135,-93.28 135,-98.99 129.29,-104.7 123.58,-104.7 123.58,-104.7 73.92,-104.7 73.92,-104.7 68.21,-104.7 62.5,-98.99 62.5,-93.28 62.5,-93.28 62.5,-81.86 62.5,-81.86 62.5,-76.15 68.21,-70.45 73.92,-70.45"/>
</g>
<!-- resetting&#45;&gt;discovering -->
<g id="edge12" class="edge transition">
<title>resetting&#45;&gt;discovering</title>
<path fill="none" stroke="black" d="M135.76,-83.66C222.34,-75.05 439.1,-58.4 494.5,-100.82 548.32,-142.03 556.86,-228.84 557.41,-274.34"/>
<polygon fill="black" stroke="black" points="553.91,-274.23 557.39,-284.23 560.91,-274.24 553.91,-274.23"/>
<text text-anchor="start" x="215.5" y="-104.07" font-family="Helvetica,sans-Serif" font-size="10.00">Register Host &#45; Register non&#45;rebooting host in resetting &#160;&#160;</text>
</g>
<!-- resetting&#45;pending&#45;user&#45;action -->
<g id="node11" class="node state regular">
<title>resetting&#45;pending&#45;user&#45;action</title>
<polygon fill="#ffffff" fill-opacity="0.003922" stroke="none" stroke-width="2" points="197.5,-51.7 0,-51.7 0,-15.45 197.5,-15.45 197.5,-51.7"/>
<text text-anchor="start" x="11" y="-29.3" font-family="Helvetica,sans-Serif" font-size="12.00">resetting&#45;pending&#45;user&#45;action</text>
<path fill="none" stroke="black" stroke-width="2" d="M12.42,-16.45C12.42,-16.45 185.08,-16.45 185.08,-16.45 190.79,-16.45 196.5,-22.15 196.5,-27.86 196.5,-27.86 196.5,-39.28 196.5,-39.28 196.5,-44.99 190.79,-50.7 185.08,-50.7 185.08,-50.7 12.42,-50.7 12.42,-50.7 6.71,-50.7 1,-44.99 1,-39.28 1,-39.28 1,-27.86 1,-27.86 1,-22.15 6.71,-16.45 12.42,-16.45"/>
</g>
<!-- resetting&#45;pending&#45;user&#45;action&#45;&gt;discovering -->
<g id="edge13" class="edge transition">
<title>resetting&#45;pending&#45;user&#45;action&#45;&gt;discovering</title>
<path fill="none" stroke="black" d="M168.1,-15.51C254.47,2.86 402.88,19.02 494.5,-56.82 528.01,-84.56 546.73,-215.64 553.58,-274.65"/>
<polygon fill="black" stroke="black" points="550.07,-274.72 554.66,-284.26 557.02,-273.94 550.07,-274.72"/>
<text text-anchor="start" x="276.25" y="-60.07" font-family="Helvetica,sans-Serif" font-size="10.00">Register Host &#45; Re&#45;registration &#160;&#160;</text>
</g>
</g>
</svg>
