<?xml version="1.0" encoding="UTF-8" standalone="no"?>
<!DOCTYPE svg PUBLIC "-//W3C//DTD SVG 1.1//EN"
 "http://www.w3.org/Graphics/SVG/1.1/DTD/svg11.dtd">
<!-- Generated by graphviz version 7.1.0 (0)
 -->
<!-- Title: state transitions Pages: 1 -->
<svg width="659pt" height="435pt"
 viewBox="0.00 0.00 659.00 435.41" xmlns="http://www.w3.org/2000/svg" xmlns:xlink="http://www.w3.org/1999/xlink">
<g id="graph0" class="graph" transform="scale(1 1) rotate(0) translate(4 431.41)">
<title>state transitions</title>
<polygon fill="white" stroke="none" points="-4,4 -4,-431.41 655,-431.41 655,4 -4,4"/>
<!-- disconnected -->
<g id="node1" class="node state regular">
<title>disconnected</title>
<polygon fill="#ffffff" fill-opacity="0.003922" stroke="none" stroke-width="2" points="123,-402.41 29,-402.41 29,-366.41 123,-366.41 123,-402.41"/>
<text text-anchor="start" x="40" y="-380.81" font-family="Helvetica,sans-Serif" font-size="12.00">disconnected</text>
<path fill="none" stroke="black" stroke-width="2" d="M41,-367.91C41,-367.91 111,-367.91 111,-367.91 116.5,-367.91 122,-373.41 122,-378.91 122,-378.91 122,-389.91 122,-389.91 122,-395.41 116.5,-400.91 111,-400.91 111,-400.91 41,-400.91 41,-400.91 35.5,-400.91 30,-395.41 30,-389.91 30,-389.91 30,-378.91 30,-378.91 30,-373.41 35.5,-367.91 41,-367.91"/>
</g>
<!-- known -->
<g id="node4" class="node state regular">
<title>known</title>
<polygon fill="#ffffff" fill-opacity="0.003922" stroke="none" stroke-width="2" points="587,-203.41 529,-203.41 529,-167.41 587,-167.41 587,-203.41"/>
<text text-anchor="start" x="540" y="-181.81" font-family="Helvetica,sans-Serif" font-size="12.00">known</text>
<path fill="none" stroke="black" stroke-width="2" d="M541,-168.91C541,-168.91 575,-168.91 575,-168.91 580.5,-168.91 586,-174.41 586,-179.91 586,-179.91 586,-190.91 586,-190.91 586,-196.41 580.5,-201.91 575,-201.91 575,-201.91 541,-201.91 541,-201.91 535.5,-201.91 530,-196.41 530,-190.91 530,-190.91 530,-179.91 530,-179.91 530,-174.41 535.5,-168.91 541,-168.91"/>
</g>
<!-- disconnected&#45;&gt;known -->
<g id="edge7" class="edge transition">
<title>disconnected&#45;&gt;known</title>
<path fill="none" stroke="black" d="M122.78,-396.59C209.36,-416.64 398.47,-445.8 511,-353.41 532.36,-335.87 546.67,-257.71 553.11,-214.45"/>
<polygon fill="black" stroke="black" points="556.54,-215.15 554.5,-204.76 549.62,-214.16 556.54,-215.15"/>
<text text-anchor="start" x="290.5" y="-419.41" font-family="Helvetica,sans-Serif" font-size="10.00">Refresh &#45; Host ready &#160;&#160;</text>
</g>
<!-- discovering -->
<g id="node2" class="node state regular">
<title>discovering</title>
<polygon fill="#ffffff" fill-opacity="0.003922" stroke="none" stroke-width="2" points="118,-348.41 34,-348.41 34,-312.41 118,-312.41 118,-348.41"/>
<text text-anchor="start" x="45" y="-326.81" font-family="Helvetica,sans-Serif" font-size="12.00">discovering</text>
<path fill="none" stroke="black" stroke-width="2" d="M46,-313.91C46,-313.91 106,-313.91 106,-313.91 111.5,-313.91 117,-319.41 117,-324.91 117,-324.91 117,-335.91 117,-335.91 117,-341.41 111.5,-346.91 106,-346.91 106,-346.91 46,-346.91 46,-346.91 40.5,-346.91 35,-341.41 35,-335.91 35,-335.91 35,-324.91 35,-324.91 35,-319.41 40.5,-313.91 46,-313.91"/>
</g>
<!-- discovering&#45;&gt;known -->
<g id="edge10" class="edge transition">
<title>discovering&#45;&gt;known</title>
<path fill="none" stroke="black" d="M117.86,-333.39C213.65,-339.52 449.29,-349.49 511,-304.41 539.64,-283.49 550.45,-242.19 554.53,-214.18"/>
<polygon fill="black" stroke="black" points="557.96,-214.95 555.71,-204.59 551.01,-214.09 557.96,-214.95"/>
<text text-anchor="start" x="290.5" y="-341.41" font-family="Helvetica,sans-Serif" font-size="10.00">Refresh &#45; Host ready &#160;&#160;</text>
</g>
<!-- insufficient -->
<g id="node3" class="node state regular">
<title>insufficient</title>
<polygon fill="#ffffff" fill-opacity="0.003922" stroke="none" stroke-width="2" points="116,-294.41 36,-294.41 36,-258.41 116,-258.41 116,-294.41"/>
<text text-anchor="start" x="47" y="-272.81" font-family="Helvetica,sans-Serif" font-size="12.00">insufficient</text>
<path fill="none" stroke="black" stroke-width="2" d="M48,-259.91C48,-259.91 104,-259.91 104,-259.91 109.5,-259.91 115,-265.41 115,-270.91 115,-270.91 115,-281.91 115,-281.91 115,-287.41 109.5,-292.91 104,-292.91 104,-292.91 48,-292.91 48,-292.91 42.5,-292.91 37,-287.41 37,-281.91 37,-281.91 37,-270.91 37,-270.91 37,-265.41 42.5,-259.91 48,-259.91"/>
</g>
<!-- insufficient&#45;&gt;known -->
<g id="edge8" class="edge transition">
<title>insufficient&#45;&gt;known</title>
<path fill="none" stroke="black" d="M115.84,-282.05C195.04,-291.66 378.84,-304.23 511,-237.41 522.21,-231.74 531.92,-222.07 539.49,-212.59"/>
<polygon fill="black" stroke="black" points="542.3,-214.67 545.43,-204.55 536.67,-210.52 542.3,-214.67"/>
<text text-anchor="start" x="290.5" y="-292.41" font-family="Helvetica,sans-Serif" font-size="10.00">Refresh &#45; Host ready &#160;&#160;</text>
</g>
<!-- known&#45;&gt;known -->
<g id="edge3" class="edge transition">
<title>known&#45;&gt;known</title>
<path fill="none" stroke="black" d="M538.45,-203.19C535.13,-212.73 541.65,-221.41 558,-221.41 567.2,-221.41 573.29,-218.66 576.26,-214.56"/>
<polygon fill="black" stroke="black" points="579.73,-215.03 577.38,-204.7 572.77,-214.24 579.73,-215.03"/>
<text text-anchor="start" x="465" y="-224.41" font-family="Helvetica,sans-Serif" font-size="10.00">Cancel Installation &#45; Cancel while known &#160;&#160;</text>
</g>
<!-- known&#45;&gt;known -->
<g id="edge11" class="edge transition">
<title>known&#45;&gt;known</title>
<path fill="none" stroke="black" d="M529.07,-200.06C506.51,-218.09 516.16,-239.41 558,-239.41 593.63,-239.41 605.91,-223.95 594.85,-208.23"/>
<polygon fill="black" stroke="black" points="597.46,-205.89 587.98,-201.15 592.43,-210.77 597.46,-205.89"/>
<text text-anchor="start" x="497" y="-242.41" font-family="Helvetica,sans-Serif" font-size="10.00">Refresh &#45; Host stay ready &#160;&#160;</text>
</g>
<!-- pending&#45;for&#45;input -->
<g id="node5" class="node state regular">
<title>pending&#45;for&#45;input</title>
<polygon fill="#ffffff" fill-opacity="0.003922" stroke="none" stroke-width="2" points="132.5,-240.41 19.5,-240.41 19.5,-204.41 132.5,-204.41 132.5,-240.41"/>
<text text-anchor="start" x="31" y="-218.81" font-family="Helvetica,sans-Serif" font-size="12.00">pending&#45;for&#45;input</text>
<path fill="none" stroke="black" stroke-width="2" d="M31.5,-205.91C31.5,-205.91 120.5,-205.91 120.5,-205.91 126,-205.91 131.5,-211.41 131.5,-216.91 131.5,-216.91 131.5,-227.91 131.5,-227.91 131.5,-233.41 126,-238.91 120.5,-238.91 120.5,-238.91 31.5,-238.91 31.5,-238.91 26,-238.91 20.5,-233.41 20.5,-227.91 20.5,-227.91 20.5,-216.91 20.5,-216.91 20.5,-211.41 26,-205.91 31.5,-205.91"/>
</g>
<!-- pending&#45;for&#45;input&#45;&gt;known -->
<g id="edge9" class="edge transition">
<title>pending&#45;for&#45;input&#45;&gt;known</title>
<path fill="none" stroke="black" d="M132.23,-223.23C215.11,-223.58 376.28,-220.89 511,-198.41 513.3,-198.03 515.65,-197.57 518.02,-197.06"/>
<polygon fill="black" stroke="black" points="518.65,-200.51 527.53,-194.74 516.99,-193.71 518.65,-200.51"/>
<text text-anchor="start" x="290.5" y="-225.41" font-family="Helvetica,sans-Serif" font-size="10.00">Refresh &#45; Host ready &#160;&#160;</text>
</g>
<!-- preparing&#45;failed -->
<g id="node6" class="node state regular">
<title>preparing&#45;failed</title>
<polygon fill="#ffffff" fill-opacity="0.003922" stroke="none" stroke-width="2" points="129.5,-186.41 22.5,-186.41 22.5,-150.41 129.5,-150.41 129.5,-186.41"/>
<text text-anchor="start" x="34" y="-164.81" font-family="Helvetica,sans-Serif" font-size="12.00">preparing&#45;failed</text>
<path fill="none" stroke="black" stroke-width="2" d="M34.5,-151.91C34.5,-151.91 117.5,-151.91 117.5,-151.91 123,-151.91 128.5,-157.41 128.5,-162.91 128.5,-162.91 128.5,-173.91 128.5,-173.91 128.5,-179.41 123,-184.91 117.5,-184.91 117.5,-184.91 34.5,-184.91 34.5,-184.91 29,-184.91 23.5,-179.41 23.5,-173.91 23.5,-173.91 23.5,-162.91 23.5,-162.91 23.5,-157.41 29,-151.91 34.5,-151.91"/>
</g>
<!-- preparing&#45;failed&#45;&gt;known -->
<g id="edge5" class="edge transition">
<title>preparing&#45;failed&#45;&gt;known</title>
<path fill="none" stroke="black" d="M129.28,-170.26C226.17,-173.7 431.57,-180.97 517.7,-184.02"/>
<polygon fill="black" stroke="black" points="517.4,-187.51 527.52,-184.37 517.65,-180.52 517.4,-187.51"/>
<text text-anchor="start" x="181" y="-186.41" font-family="Helvetica,sans-Serif" font-size="10.00">Refresh &#45; Failed preparing to known when cluster is no longer preparing &#160;&#160;</text>
</g>
<!-- preparing&#45;for&#45;installation -->
<g id="node7" class="node state regular">
<title>preparing&#45;for&#45;installation</title>
<polygon fill="#ffffff" fill-opacity="0.003922" stroke="none" stroke-width="2" points="152,-132.41 0,-132.41 0,-96.41 152,-96.41 152,-132.41"/>
<text text-anchor="start" x="11" y="-110.81" font-family="Helvetica,sans-Serif" font-size="12.00">preparing&#45;for&#45;installation</text>
<path fill="none" stroke="black" stroke-width="2" d="M12,-97.91C12,-97.91 140,-97.91 140,-97.91 145.5,-97.91 151,-103.41 151,-108.91 151,-108.91 151,-119.91 151,-119.91 151,-125.41 145.5,-130.91 140,-130.91 140,-130.91 12,-130.91 12,-130.91 6.5,-130.91 1,-125.41 1,-119.91 1,-119.91 1,-108.91 1,-108.91 1,-103.41 6.5,-97.91 12,-97.91"/>
</g>
<!-- preparing&#45;for&#45;installation&#45;&gt;known -->
<g id="edge1" class="edge transition">
<title>preparing&#45;for&#45;installation&#45;&gt;known</title>
<path fill="none" stroke="black" d="M151.8,-127.02C157.95,-127.89 164.07,-128.7 170,-129.41 320.95,-147.53 366.72,-108.48 511,-156.41 515.21,-157.81 519.43,-159.68 523.51,-161.79"/>
<polygon fill="black" stroke="black" points="521.56,-164.7 531.97,-166.66 525.05,-158.64 521.56,-164.7"/>
<text text-anchor="start" x="242" y="-159.41" font-family="Helvetica,sans-Serif" font-size="10.00">Cancel Installation &#45; Cancel while preparing &#160;&#160;</text>
</g>
<!-- preparing&#45;for&#45;installation&#45;&gt;known -->
<g id="edge4" class="edge transition">
<title>preparing&#45;for&#45;installation&#45;&gt;known</title>
<path fill="none" stroke="black" d="M151.91,-106.46C259.39,-96.44 451.04,-84.14 511,-116.41 527.12,-125.09 538.57,-142.16 546.02,-157.16"/>
<polygon fill="black" stroke="black" points="542.8,-158.52 550.12,-166.18 549.17,-155.63 542.8,-158.52"/>
<text text-anchor="start" x="185" y="-119.41" font-family="Helvetica,sans-Serif" font-size="10.00">Refresh &#45; Move preparing host to known when cluster stops preparing &#160;&#160;</text>
</g>
<!-- preparing&#45;successful -->
<g id="node8" class="node state regular">
<title>preparing&#45;successful</title>
<polygon fill="#ffffff" fill-opacity="0.003922" stroke="none" stroke-width="2" points="143,-74.41 9,-74.41 9,-38.41 143,-38.41 143,-74.41"/>
<text text-anchor="start" x="20" y="-52.81" font-family="Helvetica,sans-Serif" font-size="12.00">preparing&#45;successful</text>
<path fill="none" stroke="black" stroke-width="2" d="M21,-39.91C21,-39.91 131,-39.91 131,-39.91 136.5,-39.91 142,-45.41 142,-50.91 142,-50.91 142,-61.91 142,-61.91 142,-67.41 136.5,-72.91 131,-72.91 131,-72.91 21,-72.91 21,-72.91 15.5,-72.91 10,-67.41 10,-61.91 10,-61.91 10,-50.91 10,-50.91 10,-45.41 15.5,-39.91 21,-39.91"/>
</g>
<!-- preparing&#45;successful&#45;&gt;known -->
<g id="edge2" class="edge transition">
<title>preparing&#45;successful&#45;&gt;known</title>
<path fill="none" stroke="black" d="M142.58,-60.13C263.4,-67 509.13,-81.12 511,-82.41 535.5,-99.36 547.12,-132.53 552.52,-156.67"/>
<polygon fill="black" stroke="black" points="549.03,-157.06 554.41,-166.19 555.9,-155.7 549.03,-157.06"/>
<text text-anchor="start" x="242" y="-85.41" font-family="Helvetica,sans-Serif" font-size="10.00">Cancel Installation &#45; Cancel while preparing &#160;&#160;</text>
</g>
<!-- preparing&#45;successful&#45;&gt;known -->
<g id="edge6" class="edge transition">
<title>preparing&#45;successful&#45;&gt;known</title>
<path fill="none" stroke="black" d="M125.49,-38.42C211.99,-9.72 394.75,35.18 511,-48.41 545.14,-72.96 554.29,-124.08 556.55,-156.46"/>
<polygon fill="black" stroke="black" points="553.04,-156.53 557.03,-166.35 560.04,-156.19 553.04,-156.53"/>
<text text-anchor="start" x="170" y="-51.41" font-family="Helvetica,sans-Serif" font-size="10.00">Refresh &#45; Successful preparing to known when cluster is no longer preparing &#160;&#160;</text>
</g>
</g>
</svg>
