<?xml version="1.0" encoding="UTF-8" standalone="no"?>
<!DOCTYPE svg PUBLIC "-//W3C//DTD SVG 1.1//EN"
 "http://www.w3.org/Graphics/SVG/1.1/DTD/svg11.dtd">
<!-- Generated by graphviz version 7.1.0 (0)
 -->
<!-- Title: state transitions Pages: 1 -->
<svg width="947pt" height="158pt"
 viewBox="0.00 0.00 947.00 158.00" xmlns="http://www.w3.org/2000/svg" xmlns:xlink="http://www.w3.org/1999/xlink">
<g id="graph0" class="graph" transform="scale(1 1) rotate(0) translate(4 154)">
<title>state transitions</title>
<polygon fill="white" stroke="none" points="-4,4 -4,-154 943,-154 943,4 -4,4"/>
<!-- added&#45;to&#45;existing&#45;cluster -->
<g id="node1" class="node state regular">
<title>added&#45;to&#45;existing&#45;cluster</title>
<polygon fill="#ffffff" fill-opacity="0.003922" stroke="none" stroke-width="2" points="153,-97 0,-97 0,-61 153,-61 153,-97"/>
<text text-anchor="start" x="11.5" y="-75.4" font-family="Helvetica,sans-Serif" font-size="12.00">added&#45;to&#45;existing&#45;cluster</text>
<path fill="none" stroke="black" stroke-width="2" d="M12,-62.5C12,-62.5 141,-62.5 141,-62.5 146.5,-62.5 152,-68 152,-73.5 152,-73.5 152,-84.5 152,-84.5 152,-90 146.5,-95.5 141,-95.5 141,-95.5 12,-95.5 12,-95.5 6.5,-95.5 1,-90 1,-84.5 1,-84.5 1,-73.5 1,-73.5 1,-68 6.5,-62.5 12,-62.5"/>
</g>
<!-- installing&#45;pending&#45;user&#45;action -->
<g id="node3" class="node state regular">
<title>installing&#45;pending&#45;user&#45;action</title>
<polygon fill="#ffffff" fill-opacity="0.003922" stroke="none" stroke-width="2" points="647,-63 466,-63 466,-27 647,-27 647,-63"/>
<text text-anchor="start" x="477.5" y="-41.4" font-family="Helvetica,sans-Serif" font-size="12.00">installing&#45;pending&#45;user&#45;action</text>
<path fill="none" stroke="black" stroke-width="2" d="M478,-28.5C478,-28.5 635,-28.5 635,-28.5 640.5,-28.5 646,-34 646,-39.5 646,-39.5 646,-50.5 646,-50.5 646,-56 640.5,-61.5 635,-61.5 635,-61.5 478,-61.5 478,-61.5 472.5,-61.5 467,-56 467,-50.5 467,-50.5 467,-39.5 467,-39.5 467,-34 472.5,-28.5 478,-28.5"/>
</g>
<!-- added&#45;to&#45;existing&#45;cluster&#45;&gt;installing&#45;pending&#45;user&#45;action -->
<g id="edge6" class="edge transition">
<title>added&#45;to&#45;existing&#45;cluster&#45;&gt;installing&#45;pending&#45;user&#45;action</title>
<path fill="none" stroke="black" d="M152.72,-73.81C227.58,-68.63 345.74,-60.39 448,-53 450.2,-52.84 452.44,-52.68 454.68,-52.52"/>
<polygon fill="black" stroke="black" points="454.82,-56.01 464.54,-51.8 454.31,-49.03 454.82,-56.01"/>
<text text-anchor="start" x="211.5" y="-75" font-family="Helvetica,sans-Serif" font-size="10.00">Register Host &#45; Wrong boot order detection &#160;&#160;</text>
</g>
<!-- installing&#45;in&#45;progress -->
<g id="node2" class="node state regular">
<title>installing&#45;in&#45;progress</title>
<polygon fill="#ffffff" fill-opacity="0.003922" stroke="none" stroke-width="2" points="143.5,-36 9.5,-36 9.5,0 143.5,0 143.5,-36"/>
<text text-anchor="start" x="20.5" y="-14.4" font-family="Helvetica,sans-Serif" font-size="12.00">installing&#45;in&#45;progress</text>
<path fill="none" stroke="black" stroke-width="2" d="M21.5,-1.5C21.5,-1.5 131.5,-1.5 131.5,-1.5 137,-1.5 142.5,-7 142.5,-12.5 142.5,-12.5 142.5,-23.5 142.5,-23.5 142.5,-29 137,-34.5 131.5,-34.5 131.5,-34.5 21.5,-34.5 21.5,-34.5 16,-34.5 10.5,-29 10.5,-23.5 10.5,-23.5 10.5,-12.5 10.5,-12.5 10.5,-7 16,-1.5 21.5,-1.5"/>
</g>
<!-- installing&#45;in&#45;progress&#45;&gt;installing&#45;pending&#45;user&#45;action -->
<g id="edge2" class="edge transition">
<title>installing&#45;in&#45;progress&#45;&gt;installing&#45;pending&#45;user&#45;action</title>
<path fill="none" stroke="black" d="M143.46,-21.73C224.06,-26.28 361.25,-34.03 455.01,-39.32"/>
<polygon fill="black" stroke="black" points="454.53,-42.8 464.71,-39.87 454.92,-35.81 454.53,-42.8"/>
<text text-anchor="start" x="171" y="-41" font-family="Helvetica,sans-Serif" font-size="10.00">Refresh &#45; Tell user about boot order wen reboot takes too long &#160;&#160;</text>
</g>
<!-- installing&#45;in&#45;progress&#45;&gt;installing&#45;pending&#45;user&#45;action -->
<g id="edge4" class="edge transition">
<title>installing&#45;in&#45;progress&#45;&gt;installing&#45;pending&#45;user&#45;action</title>
<path fill="none" stroke="black" d="M143.23,-9.56C217.67,-1.62 342.36,6.76 448,-10 465.41,-12.76 483.84,-17.9 500.43,-23.4"/>
<polygon fill="black" stroke="black" points="499.01,-26.61 509.6,-26.55 501.28,-19.99 499.01,-26.61"/>
<text text-anchor="start" x="211.5" y="-13" font-family="Helvetica,sans-Serif" font-size="10.00">Register Host &#45; Wrong boot order detection &#160;&#160;</text>
</g>
<!-- installing&#45;pending&#45;user&#45;action&#45;&gt;installing&#45;pending&#45;user&#45;action -->
<g id="edge1" class="edge transition">
<title>installing&#45;pending&#45;user&#45;action&#45;&gt;installing&#45;pending&#45;user&#45;action</title>
<path fill="none" stroke="black" d="M541.7,-62.78C539.18,-72.31 544.12,-81 556.5,-81 563.46,-81 568.07,-78.25 570.32,-74.15"/>
<polygon fill="black" stroke="black" points="573.8,-74.55 571.17,-64.29 566.83,-73.95 573.8,-74.55"/>
<text text-anchor="start" x="174" y="-84" font-family="Helvetica,sans-Serif" font-size="10.00">null &#45; Host progress change during installing&#45;pending&#45;user&#45;action state when host is not in state Done (or Rebooting in day2) should stay in installing&#45;pending&#45;user&#45;action state &#160;&#160;</text>
</g>
<!-- installing&#45;pending&#45;user&#45;action&#45;&gt;installing&#45;pending&#45;user&#45;action -->
<g id="edge3" class="edge transition">
<title>installing&#45;pending&#45;user&#45;action&#45;&gt;installing&#45;pending&#45;user&#45;action</title>
<path fill="none" stroke="black" d="M531.75,-62.98C518.5,-80.2 526.75,-99 556.5,-99 580.44,-99 590.46,-86.83 586.55,-73.1"/>
<polygon fill="black" stroke="black" points="589.7,-71.55 581.95,-64.32 583.5,-74.8 589.7,-71.55"/>
<text text-anchor="start" x="268.5" y="-102" font-family="Helvetica,sans-Serif" font-size="10.00">Refresh &#45; Refresh during installing&#45;pending&#45;user&#45;action state without cluster error should stay in installing&#45;pending&#45;user&#45;action state &#160;&#160;</text>
</g>
<!-- installing&#45;pending&#45;user&#45;action&#45;&gt;installing&#45;pending&#45;user&#45;action -->
<g id="edge5" class="edge transition">
<title>installing&#45;pending&#45;user&#45;action&#45;&gt;installing&#45;pending&#45;user&#45;action</title>
<path fill="none" stroke="black" d="M525.67,-62.72C497.5,-87.11 507.78,-117 556.5,-117 599.9,-117 612.79,-93.29 595.2,-70.87"/>
<polygon fill="black" stroke="black" points="597.84,-68.58 588.38,-63.81 592.8,-73.43 597.84,-68.58"/>
<text text-anchor="start" x="458.5" y="-120" font-family="Helvetica,sans-Serif" font-size="10.00">Register Host &#45; Wrong boot order detection &#160;&#160;</text>
</g>
</g>
</svg>
