<?xml version="1.0" encoding="UTF-8" standalone="no"?>
<!DOCTYPE svg PUBLIC "-//W3C//DTD SVG 1.1//EN"
 "http://www.w3.org/Graphics/SVG/1.1/DTD/svg11.dtd">
<!-- Generated by graphviz version 12.1.0 (20240811.2233)
 -->
<!-- Title: state transitions Pages: 1 -->
<svg width="614pt" height="75pt"
 viewBox="0.00 0.00 613.62 75.00" xmlns="http://www.w3.org/2000/svg" xmlns:xlink="http://www.w3.org/1999/xlink">
<g id="graph0" class="graph" transform="scale(1 1) rotate(0) translate(4 71)">
<title>state transitions</title>
<polygon fill="white" stroke="none" points="-4,4 -4,-71 609.62,-71 609.62,4 -4,4"/>
<!-- preparing&#45;for&#45;installation -->
<g id="node1" class="node state regular">
<title>preparing&#45;for&#45;installation</title>
<polygon fill="#ffffff" fill-opacity="0.003922" stroke="none" stroke-width="2" points="169.75,-36.25 0,-36.25 0,0 169.75,0 169.75,-36.25"/>
<text text-anchor="start" x="11" y="-13.85" font-family="Helvetica,sans-Serif" font-size="12.00">preparing&#45;for&#45;installation</text>
<path fill="none" stroke="black" stroke-width="2" d="M12.42,-1C12.42,-1 157.33,-1 157.33,-1 163.04,-1 168.75,-6.71 168.75,-12.42 168.75,-12.42 168.75,-23.83 168.75,-23.83 168.75,-29.54 163.04,-35.25 157.33,-35.25 157.33,-35.25 12.42,-35.25 12.42,-35.25 6.71,-35.25 1,-29.54 1,-23.83 1,-23.83 1,-12.42 1,-12.42 1,-6.71 6.71,-1 12.42,-1"/>
</g>
<!-- preparing&#45;successful -->
<g id="node2" class="node state regular">
<title>preparing&#45;successful</title>
<polygon fill="#ffffff" fill-opacity="0.003922" stroke="none" stroke-width="2" points="581.75,-36.25 436,-36.25 436,0 581.75,0 581.75,-36.25"/>
<text text-anchor="start" x="447" y="-13.85" font-family="Helvetica,sans-Serif" font-size="12.00">preparing&#45;successful</text>
<path fill="none" stroke="black" stroke-width="2" d="M448.42,-1C448.42,-1 569.33,-1 569.33,-1 575.04,-1 580.75,-6.71 580.75,-12.42 580.75,-12.42 580.75,-23.83 580.75,-23.83 580.75,-29.54 575.04,-35.25 569.33,-35.25 569.33,-35.25 448.42,-35.25 448.42,-35.25 442.71,-35.25 437,-29.54 437,-23.83 437,-23.83 437,-12.42 437,-12.42 437,-6.71 442.71,-1 448.42,-1"/>
</g>
<!-- preparing&#45;for&#45;installation&#45;&gt;preparing&#45;successful -->
<g id="edge1" class="edge transition">
<title>preparing&#45;for&#45;installation&#45;&gt;preparing&#45;successful</title>
<path fill="none" stroke="black" d="M169.5,-18.12C243.55,-18.12 351.05,-18.12 424.9,-18.12"/>
<polygon fill="black" stroke="black" points="424.49,-21.63 434.49,-18.13 424.49,-14.63 424.49,-21.63"/>
<text text-anchor="start" x="187.75" y="-21.38" font-family="Helvetica,sans-Serif" font-size="10.00">Refresh &#45; Refresh successfully preparing host &#160;&#160;</text>
</g>
<!-- preparing&#45;successful&#45;&gt;preparing&#45;successful -->
<g id="edge2" class="edge transition">
<title>preparing&#45;successful&#45;&gt;preparing&#45;successful</title>
<path fill="none" stroke="black" d="M471.84,-35.97C465.55,-45.53 477.89,-54.25 508.88,-54.25 526.79,-54.25 538.47,-51.34 543.92,-47.03"/>
<polygon fill="black" stroke="black" points="547.32,-47.92 545.64,-37.46 540.43,-46.68 547.32,-47.92"/>
<text text-anchor="start" x="412.12" y="-57.5" font-family="Helvetica,sans-Serif" font-size="10.00">Refresh &#45; Stay in preparing successful &#160;&#160;</text>
</g>
</g>
</svg>
