<?xml version="1.0" encoding="UTF-8" standalone="no"?>
<!DOCTYPE svg PUBLIC "-//W3C//DTD SVG 1.1//EN"
 "http://www.w3.org/Graphics/SVG/1.1/DTD/svg11.dtd">
<!-- Generated by graphviz version 12.1.0 (20240811.2233)
 -->
<!-- Title: state transitions Pages: 1 -->
<svg width="431pt" height="206pt"
 viewBox="0.00 0.00 430.62 206.25" xmlns="http://www.w3.org/2000/svg" xmlns:xlink="http://www.w3.org/1999/xlink">
<g id="graph0" class="graph" transform="scale(1 1) rotate(0) translate(4 202.25)">
<title>state transitions</title>
<polygon fill="white" stroke="none" points="-4,4 -4,-202.25 426.62,-202.25 426.62,4 -4,4"/>
<!-- disconnected -->
<g id="node1" class="node state regular">
<title>disconnected</title>
<polygon fill="#ffffff" fill-opacity="0.003922" stroke="none" stroke-width="2" points="101.5,-198.25 0,-198.25 0,-162 101.5,-162 101.5,-198.25"/>
<text text-anchor="start" x="11" y="-175.85" font-family="Helvetica,sans-Serif" font-size="12.00">disconnected</text>
<path fill="none" stroke="black" stroke-width="2" d="M12.42,-163C12.42,-163 89.08,-163 89.08,-163 94.79,-163 100.5,-168.71 100.5,-174.42 100.5,-174.42 100.5,-185.83 100.5,-185.83 100.5,-191.54 94.79,-197.25 89.08,-197.25 89.08,-197.25 12.42,-197.25 12.42,-197.25 6.71,-197.25 1,-191.54 1,-185.83 1,-185.83 1,-174.42 1,-174.42 1,-168.71 6.71,-163 12.42,-163"/>
</g>
<!-- pending&#45;for&#45;input -->
<g id="node2" class="node state regular">
<title>pending&#45;for&#45;input</title>
<polygon fill="#ffffff" fill-opacity="0.003922" stroke="none" stroke-width="2" points="410.75,-117.25 286,-117.25 286,-81 410.75,-81 410.75,-117.25"/>
<text text-anchor="start" x="297" y="-94.85" font-family="Helvetica,sans-Serif" font-size="12.00">pending&#45;for&#45;input</text>
<path fill="none" stroke="black" stroke-width="2" d="M298.42,-82C298.42,-82 398.33,-82 398.33,-82 404.04,-82 409.75,-87.71 409.75,-93.42 409.75,-93.42 409.75,-104.83 409.75,-104.83 409.75,-110.54 404.04,-116.25 398.33,-116.25 398.33,-116.25 298.42,-116.25 298.42,-116.25 292.71,-116.25 287,-110.54 287,-104.83 287,-104.83 287,-93.42 287,-93.42 287,-87.71 292.71,-82 298.42,-82"/>
</g>
<!-- disconnected&#45;&gt;pending&#45;for&#45;input -->
<g id="edge1" class="edge transition">
<title>disconnected&#45;&gt;pending&#45;for&#45;input</title>
<path fill="none" stroke="black" d="M101.13,-173.47C145.53,-166.69 212.15,-154.54 268,-136.12 279.6,-132.3 291.73,-127.23 302.93,-122.08"/>
<polygon fill="black" stroke="black" points="304.42,-125.25 311.95,-117.8 301.42,-118.92 304.42,-125.25"/>
<text text-anchor="start" x="119.5" y="-173.73" font-family="Helvetica,sans-Serif" font-size="10.00">Refresh &#45; Host pending input &#160;&#160;</text>
</g>
<!-- pending&#45;for&#45;input&#45;&gt;pending&#45;for&#45;input -->
<g id="edge5" class="edge transition">
<title>pending&#45;for&#45;input&#45;&gt;pending&#45;for&#45;input</title>
<path fill="none" stroke="black" d="M320.58,-116.97C315.86,-126.53 325.12,-135.25 348.38,-135.25 361.82,-135.25 370.59,-132.34 374.68,-128.03"/>
<polygon fill="black" stroke="black" points="378.1,-128.85 375.97,-118.47 371.16,-127.91 378.1,-128.85"/>
<text text-anchor="start" x="274.12" y="-138.5" font-family="Helvetica,sans-Serif" font-size="10.00">Refresh &#45; Host pending input &#160;&#160;</text>
</g>
<!-- discovering -->
<g id="node3" class="node state regular">
<title>discovering</title>
<polygon fill="#ffffff" fill-opacity="0.003922" stroke="none" stroke-width="2" points="95.88,-144.25 5.62,-144.25 5.62,-108 95.88,-108 95.88,-144.25"/>
<text text-anchor="start" x="16.62" y="-121.85" font-family="Helvetica,sans-Serif" font-size="12.00">discovering</text>
<path fill="none" stroke="black" stroke-width="2" d="M18.04,-109C18.04,-109 83.46,-109 83.46,-109 89.17,-109 94.88,-114.71 94.88,-120.42 94.88,-120.42 94.88,-131.83 94.88,-131.83 94.88,-137.54 89.17,-143.25 83.46,-143.25 83.46,-143.25 18.04,-143.25 18.04,-143.25 12.33,-143.25 6.62,-137.54 6.62,-131.83 6.62,-131.83 6.62,-120.42 6.62,-120.42 6.62,-114.71 12.33,-109 18.04,-109"/>
</g>
<!-- discovering&#45;&gt;pending&#45;for&#45;input -->
<g id="edge2" class="edge transition">
<title>discovering&#45;&gt;pending&#45;for&#45;input</title>
<path fill="none" stroke="black" d="M95.69,-122.11C142.94,-117.8 218.82,-110.87 274.93,-105.74"/>
<polygon fill="black" stroke="black" points="275.08,-109.24 284.72,-104.85 274.44,-102.27 275.08,-109.24"/>
<text text-anchor="start" x="119.5" y="-122.85" font-family="Helvetica,sans-Serif" font-size="10.00">Refresh &#45; Host pending input &#160;&#160;</text>
</g>
<!-- insufficient -->
<g id="node4" class="node state regular">
<title>insufficient</title>
<polygon fill="#ffffff" fill-opacity="0.003922" stroke="none" stroke-width="2" points="94.38,-90.25 7.12,-90.25 7.12,-54 94.38,-54 94.38,-90.25"/>
<text text-anchor="start" x="18.12" y="-67.85" font-family="Helvetica,sans-Serif" font-size="12.00">insufficient</text>
<path fill="none" stroke="black" stroke-width="2" d="M19.54,-55C19.54,-55 81.96,-55 81.96,-55 87.67,-55 93.38,-60.71 93.38,-66.42 93.38,-66.42 93.38,-77.83 93.38,-77.83 93.38,-83.54 87.67,-89.25 81.96,-89.25 81.96,-89.25 19.54,-89.25 19.54,-89.25 13.83,-89.25 8.12,-83.54 8.12,-77.83 8.12,-77.83 8.12,-66.42 8.12,-66.42 8.12,-60.71 13.83,-55 19.54,-55"/>
</g>
<!-- insufficient&#45;&gt;pending&#45;for&#45;input -->
<g id="edge3" class="edge transition">
<title>insufficient&#45;&gt;pending&#45;for&#45;input</title>
<path fill="none" stroke="black" d="M94.04,-75.37C137.66,-78.8 207.63,-84.5 268,-90.38 270.32,-90.6 272.67,-90.83 275.05,-91.07"/>
<polygon fill="black" stroke="black" points="274.48,-94.53 284.78,-92.08 275.19,-87.57 274.48,-94.53"/>
<text text-anchor="start" x="119.5" y="-93.62" font-family="Helvetica,sans-Serif" font-size="10.00">Refresh &#45; Host pending input &#160;&#160;</text>
</g>
<!-- known -->
<g id="node5" class="node state regular">
<title>known</title>
<polygon fill="#ffffff" fill-opacity="0.003922" stroke="none" stroke-width="2" points="81.25,-36.25 20.25,-36.25 20.25,0 81.25,0 81.25,-36.25"/>
<text text-anchor="start" x="31.25" y="-13.85" font-family="Helvetica,sans-Serif" font-size="12.00">known</text>
<path fill="none" stroke="black" stroke-width="2" d="M32.67,-1C32.67,-1 68.83,-1 68.83,-1 74.54,-1 80.25,-6.71 80.25,-12.42 80.25,-12.42 80.25,-23.83 80.25,-23.83 80.25,-29.54 74.54,-35.25 68.83,-35.25 68.83,-35.25 32.67,-35.25 32.67,-35.25 26.96,-35.25 21.25,-29.54 21.25,-23.83 21.25,-23.83 21.25,-12.42 21.25,-12.42 21.25,-6.71 26.96,-1 32.67,-1"/>
</g>
<!-- known&#45;&gt;pending&#45;for&#45;input -->
<g id="edge4" class="edge transition">
<title>known&#45;&gt;pending&#45;for&#45;input</title>
<path fill="none" stroke="black" d="M81.02,-21.65C123.15,-27.24 202.96,-39.77 268,-61.38 279.97,-65.35 292.49,-70.7 303.96,-76.11"/>
<polygon fill="black" stroke="black" points="302.26,-79.18 312.78,-80.41 305.32,-72.89 302.26,-79.18"/>
<text text-anchor="start" x="119.5" y="-64.62" font-family="Helvetica,sans-Serif" font-size="10.00">Refresh &#45; Host pending input &#160;&#160;</text>
</g>
</g>
</svg>
