<?xml version="1.0" encoding="UTF-8" standalone="no"?>
<!DOCTYPE svg PUBLIC "-//W3C//DTD SVG 1.1//EN"
 "http://www.w3.org/Graphics/SVG/1.1/DTD/svg11.dtd">
<!-- Generated by graphviz version 5.0.0 (0)
 -->
<!-- Title: state transitions Pages: 1 -->
<svg width="117pt" height="44pt"
 viewBox="0.00 0.00 117.00 44.00" xmlns="http://www.w3.org/2000/svg" xmlns:xlink="http://www.w3.org/1999/xlink">
<g id="graph0" class="graph" transform="scale(1 1) rotate(0) translate(4 40)">
<title>state transitions</title>
<polygon fill="white" stroke="transparent" points="-4,4 -4,-40 113,-40 113,4 -4,4"/>
<!-- known&#45;unbound -->
<g id="node1" class="node state regular">
<title>known&#45;unbound</title>
<polygon fill="#ffffff" fill-opacity="0.003922" stroke="transparent" stroke-width="2" points="109,-36 0,-36 0,0 109,0 109,-36"/>
<text text-anchor="start" x="11.5" y="-14.4" font-family="Helvetica,sans-Serif" font-size="12.00">known&#45;unbound</text>
<path fill="none" stroke="black" stroke-width="2" d="M12,-1.5C12,-1.5 97,-1.5 97,-1.5 102.5,-1.5 108,-7 108,-12.5 108,-12.5 108,-23.5 108,-23.5 108,-29 102.5,-34.5 97,-34.5 97,-34.5 12,-34.5 12,-34.5 6.5,-34.5 1,-29 1,-23.5 1,-23.5 1,-12.5 1,-12.5 1,-7 6.5,-1.5 12,-1.5"/>
</g>
</g>
</svg>
