<?xml version="1.0" encoding="UTF-8" standalone="no"?>
<!DOCTYPE svg PUBLIC "-//W3C//DTD SVG 1.1//EN"
 "http://www.w3.org/Graphics/SVG/1.1/DTD/svg11.dtd">
<!-- Generated by graphviz version 12.1.0 (20240811.2233)
 -->
<!-- Title: state transitions Pages: 1 -->
<svg width="654pt" height="102pt"
 viewBox="0.00 0.00 653.75 102.00" xmlns="http://www.w3.org/2000/svg" xmlns:xlink="http://www.w3.org/1999/xlink">
<g id="graph0" class="graph" transform="scale(1 1) rotate(0) translate(4 98)">
<title>state transitions</title>
<polygon fill="white" stroke="none" points="-4,4 -4,-98 649.75,-98 649.75,4 -4,4"/>
<!-- added&#45;to&#45;existing&#45;cluster -->
<g id="node1" class="node state regular">
<title>added&#45;to&#45;existing&#45;cluster</title>
<polygon fill="#ffffff" fill-opacity="0.003922" stroke="none" stroke-width="2" points="171.25,-90.25 0,-90.25 0,-54 171.25,-54 171.25,-90.25"/>
<text text-anchor="start" x="11" y="-67.85" font-family="Helvetica,sans-Serif" font-size="12.00">added&#45;to&#45;existing&#45;cluster</text>
<path fill="none" stroke="black" stroke-width="2" d="M12.42,-55C12.42,-55 158.83,-55 158.83,-55 164.54,-55 170.25,-60.71 170.25,-66.42 170.25,-66.42 170.25,-77.83 170.25,-77.83 170.25,-83.54 164.54,-89.25 158.83,-89.25 158.83,-89.25 12.42,-89.25 12.42,-89.25 6.71,-89.25 1,-83.54 1,-77.83 1,-77.83 1,-66.42 1,-66.42 1,-60.71 6.71,-55 12.42,-55"/>
</g>
<!-- reclaiming -->
<g id="node2" class="node state regular">
<title>reclaiming</title>
<polygon fill="#ffffff" fill-opacity="0.003922" stroke="none" stroke-width="2" points="493.25,-63.25 409,-63.25 409,-27 493.25,-27 493.25,-63.25"/>
<text text-anchor="start" x="420" y="-40.85" font-family="Helvetica,sans-Serif" font-size="12.00">reclaiming</text>
<path fill="none" stroke="black" stroke-width="2" d="M421.42,-28C421.42,-28 480.83,-28 480.83,-28 486.54,-28 492.25,-33.71 492.25,-39.42 492.25,-39.42 492.25,-50.83 492.25,-50.83 492.25,-56.54 486.54,-62.25 480.83,-62.25 480.83,-62.25 421.42,-62.25 421.42,-62.25 415.71,-62.25 410,-56.54 410,-50.83 410,-50.83 410,-39.42 410,-39.42 410,-33.71 415.71,-28 421.42,-28"/>
</g>
<!-- added&#45;to&#45;existing&#45;cluster&#45;&gt;reclaiming -->
<g id="edge1" class="edge transition">
<title>added&#45;to&#45;existing&#45;cluster&#45;&gt;reclaiming</title>
<path fill="none" stroke="black" d="M170.93,-65.86C241.13,-60.65 338.85,-53.39 398.12,-48.99"/>
<polygon fill="black" stroke="black" points="398.22,-52.49 407.93,-48.26 397.7,-45.51 398.22,-52.49"/>
<text text-anchor="start" x="189.25" y="-67.4" font-family="Helvetica,sans-Serif" font-size="10.00">Reclaim Host &#45; Reclaim successful host &#160;&#160;</text>
</g>
<!-- reclaiming&#45;&gt;reclaiming -->
<g id="edge3" class="edge transition">
<title>reclaiming&#45;&gt;reclaiming</title>
<path fill="none" stroke="black" d="M422.18,-62.97C417.26,-72.53 426.91,-81.25 451.12,-81.25 465.12,-81.25 474.25,-78.34 478.51,-74.03"/>
<polygon fill="black" stroke="black" points="481.93,-74.86 479.86,-64.47 475,-73.88 481.93,-74.86"/>
<text text-anchor="start" x="256.5" y="-84.5" font-family="Helvetica,sans-Serif" font-size="10.00">Refresh &#45; Refresh without timeout during reclaiming should stay in reclaiming &#160;&#160;</text>
</g>
<!-- installed -->
<g id="node3" class="node state regular">
<title>installed</title>
<polygon fill="#ffffff" fill-opacity="0.003922" stroke="none" stroke-width="2" points="121.38,-36.25 49.88,-36.25 49.88,0 121.38,0 121.38,-36.25"/>
<text text-anchor="start" x="60.88" y="-13.85" font-family="Helvetica,sans-Serif" font-size="12.00">installed</text>
<path fill="none" stroke="black" stroke-width="2" d="M62.29,-1C62.29,-1 108.96,-1 108.96,-1 114.67,-1 120.38,-6.71 120.38,-12.42 120.38,-12.42 120.38,-23.83 120.38,-23.83 120.38,-29.54 114.67,-35.25 108.96,-35.25 108.96,-35.25 62.29,-35.25 62.29,-35.25 56.58,-35.25 50.88,-29.54 50.88,-23.83 50.88,-23.83 50.88,-12.42 50.88,-12.42 50.88,-6.71 56.58,-1 62.29,-1"/>
</g>
<!-- installed&#45;&gt;reclaiming -->
<g id="edge2" class="edge transition">
<title>installed&#45;&gt;reclaiming</title>
<path fill="none" stroke="black" d="M121,-18.22C177.54,-18.73 293.6,-21.32 391,-33.38 393.31,-33.66 395.67,-33.99 398.05,-34.34"/>
<polygon fill="black" stroke="black" points="397.29,-37.76 407.73,-35.94 398.43,-30.86 397.29,-37.76"/>
<text text-anchor="start" x="189.25" y="-36.62" font-family="Helvetica,sans-Serif" font-size="10.00">Reclaim Host &#45; Reclaim successful host &#160;&#160;</text>
</g>
</g>
</svg>
