<?xml version="1.0" encoding="UTF-8" standalone="no"?>
<!DOCTYPE svg PUBLIC "-//W3C//DTD SVG 1.1//EN"
 "http://www.w3.org/Graphics/SVG/1.1/DTD/svg11.dtd">
<!-- Generated by graphviz version 7.1.0 (0)
 -->
<!-- Title: state transitions Pages: 1 -->
<svg width="618pt" height="564pt"
 viewBox="0.00 0.00 617.50 563.52" xmlns="http://www.w3.org/2000/svg" xmlns:xlink="http://www.w3.org/1999/xlink">
<g id="graph0" class="graph" transform="scale(1 1) rotate(0) translate(4 559.52)">
<title>state transitions</title>
<polygon fill="white" stroke="none" points="-4,4 -4,-559.52 613.5,-559.52 613.5,4 -4,4"/>
<!-- binding -->
<g id="node1" class="node state regular">
<title>binding</title>
<polygon fill="#ffffff" fill-opacity="0.003922" stroke="none" stroke-width="2" points="120.5,-541.52 58.5,-541.52 58.5,-505.52 120.5,-505.52 120.5,-541.52"/>
<text text-anchor="start" x="69.5" y="-519.92" font-family="Helvetica,sans-Serif" font-size="12.00">binding</text>
<path fill="none" stroke="black" stroke-width="2" d="M70.5,-507.02C70.5,-507.02 108.5,-507.02 108.5,-507.02 114,-507.02 119.5,-512.52 119.5,-518.02 119.5,-518.02 119.5,-529.02 119.5,-529.02 119.5,-534.52 114,-540.02 108.5,-540.02 108.5,-540.02 70.5,-540.02 70.5,-540.02 65,-540.02 59.5,-534.52 59.5,-529.02 59.5,-529.02 59.5,-518.02 59.5,-518.02 59.5,-512.52 65,-507.02 70.5,-507.02"/>
</g>
<!-- discovering -->
<g id="node3" class="node state regular">
<title>discovering</title>
<polygon fill="#ffffff" fill-opacity="0.003922" stroke="none" stroke-width="2" points="548,-325.52 464,-325.52 464,-289.52 548,-289.52 548,-325.52"/>
<text text-anchor="start" x="475" y="-303.92" font-family="Helvetica,sans-Serif" font-size="12.00">discovering</text>
<path fill="none" stroke="black" stroke-width="2" d="M476,-291.02C476,-291.02 536,-291.02 536,-291.02 541.5,-291.02 547,-296.52 547,-302.02 547,-302.02 547,-313.02 547,-313.02 547,-318.52 541.5,-324.02 536,-324.02 536,-324.02 476,-324.02 476,-324.02 470.5,-324.02 465,-318.52 465,-313.02 465,-313.02 465,-302.02 465,-302.02 465,-296.52 470.5,-291.02 476,-291.02"/>
</g>
<!-- binding&#45;&gt;discovering -->
<g id="edge11" class="edge transition">
<title>binding&#45;&gt;discovering</title>
<path fill="none" stroke="black" d="M120.46,-530.65C187.11,-544.64 349.4,-567.96 446,-490.52 492.72,-453.07 502.93,-378.26 504.86,-336.83"/>
<polygon fill="black" stroke="black" points="508.36,-336.98 505.18,-326.87 501.36,-336.76 508.36,-336.98"/>
<text text-anchor="start" x="250.5" y="-547.52" font-family="Helvetica,sans-Serif" font-size="10.00">Register Host &#45; Re&#45;registration &#160;&#160;</text>
</g>
<!-- disconnected -->
<g id="node2" class="node state regular">
<title>disconnected</title>
<polygon fill="#ffffff" fill-opacity="0.003922" stroke="none" stroke-width="2" points="136.5,-487.52 42.5,-487.52 42.5,-451.52 136.5,-451.52 136.5,-487.52"/>
<text text-anchor="start" x="53.5" y="-465.92" font-family="Helvetica,sans-Serif" font-size="12.00">disconnected</text>
<path fill="none" stroke="black" stroke-width="2" d="M54.5,-453.02C54.5,-453.02 124.5,-453.02 124.5,-453.02 130,-453.02 135.5,-458.52 135.5,-464.02 135.5,-464.02 135.5,-475.02 135.5,-475.02 135.5,-480.52 130,-486.02 124.5,-486.02 124.5,-486.02 54.5,-486.02 54.5,-486.02 49,-486.02 43.5,-480.52 43.5,-475.02 43.5,-475.02 43.5,-464.02 43.5,-464.02 43.5,-458.52 49,-453.02 54.5,-453.02"/>
</g>
<!-- disconnected&#45;&gt;discovering -->
<g id="edge1" class="edge transition">
<title>disconnected&#45;&gt;discovering</title>
<path fill="none" stroke="black" d="M136.31,-472.48C220.9,-477.04 397.45,-481.95 446,-447.52 482.21,-421.83 496.31,-369.4 501.72,-336.49"/>
<polygon fill="black" stroke="black" points="505.15,-337.24 503.13,-326.84 498.22,-336.23 505.15,-337.24"/>
<text text-anchor="start" x="218" y="-478.52" font-family="Helvetica,sans-Serif" font-size="10.00">Refresh &#45; Host reconnected without inventory &#160;&#160;</text>
</g>
<!-- disconnected&#45;&gt;discovering -->
<g id="edge6" class="edge transition">
<title>disconnected&#45;&gt;discovering</title>
<path fill="none" stroke="black" d="M136.33,-456.7C150.16,-452.52 165.3,-447.63 179,-442.52 187.2,-439.46 188.52,-436.69 197,-434.52 250.79,-420.72 399.36,-443.65 446,-413.52 473.19,-395.96 488.99,-361.29 497.29,-336.37"/>
<polygon fill="black" stroke="black" points="500.63,-337.41 500.23,-326.82 493.94,-335.35 500.63,-337.41"/>
<text text-anchor="start" x="250.5" y="-437.52" font-family="Helvetica,sans-Serif" font-size="10.00">Register Host &#45; Re&#45;registration &#160;&#160;</text>
</g>
<!-- discovering&#45;&gt;discovering -->
<g id="edge2" class="edge transition">
<title>discovering&#45;&gt;discovering</title>
<path fill="none" stroke="black" d="M489.42,-325.3C486.6,-334.83 492.13,-343.52 506,-343.52 513.8,-343.52 518.97,-340.77 521.49,-336.67"/>
<polygon fill="black" stroke="black" points="524.96,-337.09 522.44,-326.81 518,-336.42 524.96,-337.09"/>
<text text-anchor="start" x="402.5" y="-346.52" font-family="Helvetica,sans-Serif" font-size="10.00">Refresh &#45; Host reconnected without inventory &#160;&#160;</text>
</g>
<!-- discovering&#45;&gt;discovering -->
<g id="edge4" class="edge transition">
<title>discovering&#45;&gt;discovering</title>
<path fill="none" stroke="black" d="M478.27,-325.5C463.42,-342.72 472.67,-361.52 506,-361.52 533.08,-361.52 544.26,-349.11 539.54,-335.21"/>
<polygon fill="black" stroke="black" points="542.64,-333.58 534.51,-326.79 536.64,-337.17 542.64,-333.58"/>
<text text-anchor="start" x="435" y="-364.52" font-family="Helvetica,sans-Serif" font-size="10.00">Register Host &#45; Re&#45;registration &#160;&#160;</text>
</g>
<!-- initial -->
<g id="node4" class="node state regular">
<title>initial</title>
<polygon fill="#ffffff" fill-opacity="0.003922" stroke="none" stroke-width="2" points="117.5,-433.52 61.5,-433.52 61.5,-397.52 117.5,-397.52 117.5,-433.52"/>
<text text-anchor="start" x="75" y="-411.92" font-family="Helvetica,sans-Serif" font-size="12.00">initial</text>
<path fill="none" stroke="black" stroke-width="2" d="M73.5,-399.02C73.5,-399.02 105.5,-399.02 105.5,-399.02 111,-399.02 116.5,-404.52 116.5,-410.02 116.5,-410.02 116.5,-421.02 116.5,-421.02 116.5,-426.52 111,-432.02 105.5,-432.02 105.5,-432.02 73.5,-432.02 73.5,-432.02 68,-432.02 62.5,-426.52 62.5,-421.02 62.5,-421.02 62.5,-410.02 62.5,-410.02 62.5,-404.52 68,-399.02 73.5,-399.02"/>
</g>
<!-- initial&#45;&gt;discovering -->
<g id="edge3" class="edge transition">
<title>initial&#45;&gt;discovering</title>
<path fill="none" stroke="black" d="M117.45,-412.11C199.1,-401.78 438.61,-371.21 446,-367.52 461.41,-359.81 475.14,-346.47 485.47,-334.32"/>
<polygon fill="black" stroke="black" points="488.18,-336.54 491.73,-326.55 482.73,-332.14 488.18,-336.54"/>
<text text-anchor="start" x="245" y="-403.52" font-family="Helvetica,sans-Serif" font-size="10.00">Register Host &#45; Initial registration &#160;&#160;</text>
</g>
<!-- insufficient -->
<g id="node5" class="node state regular">
<title>insufficient</title>
<polygon fill="#ffffff" fill-opacity="0.003922" stroke="none" stroke-width="2" points="129.5,-379.52 49.5,-379.52 49.5,-343.52 129.5,-343.52 129.5,-379.52"/>
<text text-anchor="start" x="60.5" y="-357.92" font-family="Helvetica,sans-Serif" font-size="12.00">insufficient</text>
<path fill="none" stroke="black" stroke-width="2" d="M61.5,-345.02C61.5,-345.02 117.5,-345.02 117.5,-345.02 123,-345.02 128.5,-350.52 128.5,-356.02 128.5,-356.02 128.5,-367.02 128.5,-367.02 128.5,-372.52 123,-378.02 117.5,-378.02 117.5,-378.02 61.5,-378.02 61.5,-378.02 56,-378.02 50.5,-372.52 50.5,-367.02 50.5,-367.02 50.5,-356.02 50.5,-356.02 50.5,-350.52 56,-345.02 61.5,-345.02"/>
</g>
<!-- insufficient&#45;&gt;discovering -->
<g id="edge7" class="edge transition">
<title>insufficient&#45;&gt;discovering</title>
<path fill="none" stroke="black" d="M129.42,-359.03C195.09,-354.45 331.9,-343.17 446,-322.52 448.32,-322.1 450.67,-321.64 453.05,-321.15"/>
<polygon fill="black" stroke="black" points="453.74,-324.58 462.74,-319 452.22,-317.75 453.74,-324.58"/>
<text text-anchor="start" x="250.5" y="-355.52" font-family="Helvetica,sans-Serif" font-size="10.00">Register Host &#45; Re&#45;registration &#160;&#160;</text>
</g>
<!-- known -->
<g id="node6" class="node state regular">
<title>known</title>
<polygon fill="#ffffff" fill-opacity="0.003922" stroke="none" stroke-width="2" points="118.5,-325.52 60.5,-325.52 60.5,-289.52 118.5,-289.52 118.5,-325.52"/>
<text text-anchor="start" x="71.5" y="-303.92" font-family="Helvetica,sans-Serif" font-size="12.00">known</text>
<path fill="none" stroke="black" stroke-width="2" d="M72.5,-291.02C72.5,-291.02 106.5,-291.02 106.5,-291.02 112,-291.02 117.5,-296.52 117.5,-302.02 117.5,-302.02 117.5,-313.02 117.5,-313.02 117.5,-318.52 112,-324.02 106.5,-324.02 106.5,-324.02 72.5,-324.02 72.5,-324.02 67,-324.02 61.5,-318.52 61.5,-313.02 61.5,-313.02 61.5,-302.02 61.5,-302.02 61.5,-296.52 67,-291.02 72.5,-291.02"/>
</g>
<!-- known&#45;&gt;discovering -->
<g id="edge5" class="edge transition">
<title>known&#45;&gt;discovering</title>
<path fill="none" stroke="black" d="M118.34,-307.52C186.78,-307.52 364.13,-307.52 452.85,-307.52"/>
<polygon fill="black" stroke="black" points="452.74,-311.02 462.74,-307.52 452.74,-304.02 452.74,-311.02"/>
<text text-anchor="start" x="250.5" y="-310.52" font-family="Helvetica,sans-Serif" font-size="10.00">Register Host &#45; Re&#45;registration &#160;&#160;</text>
</g>
<!-- pending&#45;for&#45;input -->
<g id="node7" class="node state regular">
<title>pending&#45;for&#45;input</title>
<polygon fill="#ffffff" fill-opacity="0.003922" stroke="none" stroke-width="2" points="146,-271.52 33,-271.52 33,-235.52 146,-235.52 146,-271.52"/>
<text text-anchor="start" x="44.5" y="-249.92" font-family="Helvetica,sans-Serif" font-size="12.00">pending&#45;for&#45;input</text>
<path fill="none" stroke="black" stroke-width="2" d="M45,-237.02C45,-237.02 134,-237.02 134,-237.02 139.5,-237.02 145,-242.52 145,-248.02 145,-248.02 145,-259.02 145,-259.02 145,-264.52 139.5,-270.02 134,-270.02 134,-270.02 45,-270.02 45,-270.02 39.5,-270.02 34,-264.52 34,-259.02 34,-259.02 34,-248.02 34,-248.02 34,-242.52 39.5,-237.02 45,-237.02"/>
</g>
<!-- pending&#45;for&#45;input&#45;&gt;discovering -->
<g id="edge12" class="edge transition">
<title>pending&#45;for&#45;input&#45;&gt;discovering</title>
<path fill="none" stroke="black" d="M145.96,-257.19C216.2,-262.39 340.76,-273.46 446,-292.52 448.32,-292.94 450.67,-293.4 453.05,-293.89"/>
<polygon fill="black" stroke="black" points="452.22,-297.29 462.74,-296.03 453.74,-290.45 452.22,-297.29"/>
<text text-anchor="start" x="250.5" y="-295.52" font-family="Helvetica,sans-Serif" font-size="10.00">Register Host &#45; Re&#45;registration &#160;&#160;</text>
</g>
<!-- preparing&#45;for&#45;installation -->
<g id="node8" class="node state regular">
<title>preparing&#45;for&#45;installation</title>
<polygon fill="#ffffff" fill-opacity="0.003922" stroke="none" stroke-width="2" points="165.5,-217.52 13.5,-217.52 13.5,-181.52 165.5,-181.52 165.5,-217.52"/>
<text text-anchor="start" x="24.5" y="-195.92" font-family="Helvetica,sans-Serif" font-size="12.00">preparing&#45;for&#45;installation</text>
<path fill="none" stroke="black" stroke-width="2" d="M25.5,-183.02C25.5,-183.02 153.5,-183.02 153.5,-183.02 159,-183.02 164.5,-188.52 164.5,-194.02 164.5,-194.02 164.5,-205.02 164.5,-205.02 164.5,-210.52 159,-216.02 153.5,-216.02 153.5,-216.02 25.5,-216.02 25.5,-216.02 20,-216.02 14.5,-210.52 14.5,-205.02 14.5,-205.02 14.5,-194.02 14.5,-194.02 14.5,-188.52 20,-183.02 25.5,-183.02"/>
</g>
<!-- preparing&#45;for&#45;installation&#45;&gt;discovering -->
<g id="edge9" class="edge transition">
<title>preparing&#45;for&#45;installation&#45;&gt;discovering</title>
<path fill="none" stroke="black" d="M165.45,-195.48C240.42,-194.54 357.05,-201.69 446,-246.52 461.78,-254.47 475.72,-268.35 486.08,-280.87"/>
<polygon fill="black" stroke="black" points="483.1,-282.74 492.03,-288.44 488.61,-278.42 483.1,-282.74"/>
<text text-anchor="start" x="250.5" y="-249.52" font-family="Helvetica,sans-Serif" font-size="10.00">Register Host &#45; Re&#45;registration &#160;&#160;</text>
</g>
<!-- preparing&#45;successful -->
<g id="node9" class="node state regular">
<title>preparing&#45;successful</title>
<polygon fill="#ffffff" fill-opacity="0.003922" stroke="none" stroke-width="2" points="156.5,-163.52 22.5,-163.52 22.5,-127.52 156.5,-127.52 156.5,-163.52"/>
<text text-anchor="start" x="33.5" y="-141.92" font-family="Helvetica,sans-Serif" font-size="12.00">preparing&#45;successful</text>
<path fill="none" stroke="black" stroke-width="2" d="M34.5,-129.02C34.5,-129.02 144.5,-129.02 144.5,-129.02 150,-129.02 155.5,-134.52 155.5,-140.02 155.5,-140.02 155.5,-151.02 155.5,-151.02 155.5,-156.52 150,-162.02 144.5,-162.02 144.5,-162.02 34.5,-162.02 34.5,-162.02 29,-162.02 23.5,-156.52 23.5,-151.02 23.5,-151.02 23.5,-140.02 23.5,-140.02 23.5,-134.52 29,-129.02 34.5,-129.02"/>
</g>
<!-- preparing&#45;successful&#45;&gt;discovering -->
<g id="edge10" class="edge transition">
<title>preparing&#45;successful&#45;&gt;discovering</title>
<path fill="none" stroke="black" d="M156.49,-133.84C233.35,-124.03 360.64,-119.96 446,-180.52 478.38,-203.49 493.46,-248.84 500.13,-278.67"/>
<polygon fill="black" stroke="black" points="496.64,-279.05 502.07,-288.15 503.5,-277.65 496.64,-279.05"/>
<text text-anchor="start" x="250.5" y="-183.52" font-family="Helvetica,sans-Serif" font-size="10.00">Register Host &#45; Re&#45;registration &#160;&#160;</text>
</g>
<!-- resetting -->
<g id="node10" class="node state regular">
<title>resetting</title>
<polygon fill="#ffffff" fill-opacity="0.003922" stroke="none" stroke-width="2" points="124,-109.52 55,-109.52 55,-73.52 124,-73.52 124,-109.52"/>
<text text-anchor="start" x="66.5" y="-87.92" font-family="Helvetica,sans-Serif" font-size="12.00">resetting</text>
<path fill="none" stroke="black" stroke-width="2" d="M67,-75.02C67,-75.02 112,-75.02 112,-75.02 117.5,-75.02 123,-80.52 123,-86.02 123,-86.02 123,-97.02 123,-97.02 123,-102.52 117.5,-108.02 112,-108.02 112,-108.02 67,-108.02 67,-108.02 61.5,-108.02 56,-102.52 56,-97.02 56,-97.02 56,-86.02 56,-86.02 56,-80.52 61.5,-75.02 67,-75.02"/>
</g>
<!-- resetting&#45;&gt;discovering -->
<g id="edge13" class="edge transition">
<title>resetting&#45;&gt;discovering</title>
<path fill="none" stroke="black" d="M123.99,-82.13C192.62,-65.09 350.74,-37.36 446,-112.52 496.64,-152.47 505.07,-234.45 505.73,-278.31"/>
<polygon fill="black" stroke="black" points="502.23,-278.09 505.74,-288.09 509.23,-278.09 502.23,-278.09"/>
<text text-anchor="start" x="197" y="-115.52" font-family="Helvetica,sans-Serif" font-size="10.00">Register Host &#45; Register non&#45;rebooting host in resetting &#160;&#160;</text>
</g>
<!-- resetting&#45;pending&#45;user&#45;action -->
<g id="node11" class="node state regular">
<title>resetting&#45;pending&#45;user&#45;action</title>
<polygon fill="#ffffff" fill-opacity="0.003922" stroke="none" stroke-width="2" points="179,-55.52 0,-55.52 0,-19.52 179,-19.52 179,-55.52"/>
<text text-anchor="start" x="11.5" y="-33.92" font-family="Helvetica,sans-Serif" font-size="12.00">resetting&#45;pending&#45;user&#45;action</text>
<path fill="none" stroke="black" stroke-width="2" d="M12,-21.02C12,-21.02 167,-21.02 167,-21.02 172.5,-21.02 178,-26.52 178,-32.02 178,-32.02 178,-43.02 178,-43.02 178,-48.52 172.5,-54.02 167,-54.02 167,-54.02 12,-54.02 12,-54.02 6.5,-54.02 1,-48.52 1,-43.02 1,-43.02 1,-32.02 1,-32.02 1,-26.52 6.5,-21.02 12,-21.02"/>
</g>
<!-- resetting&#45;pending&#45;user&#45;action&#45;&gt;discovering -->
<g id="edge8" class="edge transition">
<title>resetting&#45;pending&#45;user&#45;action&#45;&gt;discovering</title>
<path fill="none" stroke="black" d="M148.69,-19.54C225.89,0.39 362.16,21.38 446,-47.52 481.54,-76.72 497.46,-217.29 502.8,-278.71"/>
<polygon fill="black" stroke="black" points="499.29,-278.69 503.6,-288.37 506.26,-278.11 499.29,-278.69"/>
<text text-anchor="start" x="250.5" y="-50.52" font-family="Helvetica,sans-Serif" font-size="10.00">Register Host &#45; Re&#45;registration &#160;&#160;</text>
</g>
</g>
</svg>
