<?xml version="1.0" encoding="UTF-8" standalone="no"?>
<!DOCTYPE svg PUBLIC "-//W3C//DTD SVG 1.1//EN"
 "http://www.w3.org/Graphics/SVG/1.1/DTD/svg11.dtd">
<!-- Generated by graphviz version 7.1.0 (0)
 -->
<!-- Title: state transitions Pages: 1 -->
<svg width="498pt" height="73pt"
 viewBox="0.00 0.00 498.00 73.00" xmlns="http://www.w3.org/2000/svg" xmlns:xlink="http://www.w3.org/1999/xlink">
<g id="graph0" class="graph" transform="scale(1 1) rotate(0) translate(4 69)">
<title>state transitions</title>
<polygon fill="white" stroke="none" points="-4,4 -4,-69 494,-69 494,4 -4,4"/>
<!-- known -->
<g id="node1" class="node state regular">
<title>known</title>
<polygon fill="#ffffff" fill-opacity="0.003922" stroke="none" stroke-width="2" points="58,-36 0,-36 0,0 58,0 58,-36"/>
<text text-anchor="start" x="11" y="-14.4" font-family="Helvetica,sans-Serif" font-size="12.00">known</text>
<path fill="none" stroke="black" stroke-width="2" d="M12,-1.5C12,-1.5 46,-1.5 46,-1.5 51.5,-1.5 57,-7 57,-12.5 57,-12.5 57,-23.5 57,-23.5 57,-29 51.5,-34.5 46,-34.5 46,-34.5 12,-34.5 12,-34.5 6.5,-34.5 1,-29 1,-23.5 1,-23.5 1,-12.5 1,-12.5 1,-7 6.5,-1.5 12,-1.5"/>
</g>
<!-- preparing&#45;for&#45;installation -->
<g id="node2" class="node state regular">
<title>preparing&#45;for&#45;installation</title>
<polygon fill="#ffffff" fill-opacity="0.003922" stroke="none" stroke-width="2" points="471,-36 319,-36 319,0 471,0 471,-36"/>
<text text-anchor="start" x="330" y="-14.4" font-family="Helvetica,sans-Serif" font-size="12.00">preparing&#45;for&#45;installation</text>
<path fill="none" stroke="black" stroke-width="2" d="M331,-1.5C331,-1.5 459,-1.5 459,-1.5 464.5,-1.5 470,-7 470,-12.5 470,-12.5 470,-23.5 470,-23.5 470,-29 464.5,-34.5 459,-34.5 459,-34.5 331,-34.5 331,-34.5 325.5,-34.5 320,-29 320,-23.5 320,-23.5 320,-12.5 320,-12.5 320,-7 325.5,-1.5 331,-1.5"/>
</g>
<!-- known&#45;&gt;preparing&#45;for&#45;installation -->
<g id="edge1" class="edge transition">
<title>known&#45;&gt;preparing&#45;for&#45;installation</title>
<path fill="none" stroke="black" d="M57.96,-18C110.74,-18 227.04,-18 307.93,-18"/>
<polygon fill="black" stroke="black" points="307.58,-21.5 317.58,-18 307.58,-14.5 307.58,-21.5"/>
<text text-anchor="start" x="76" y="-21" font-family="Helvetica,sans-Serif" font-size="10.00">Refresh &#45; Refresh known host in preparing cluster &#160;&#160;</text>
</g>
<!-- preparing&#45;for&#45;installation&#45;&gt;preparing&#45;for&#45;installation -->
<g id="edge2" class="edge transition">
<title>preparing&#45;for&#45;installation&#45;&gt;preparing&#45;for&#45;installation</title>
<path fill="none" stroke="black" d="M357.88,-35.78C351.57,-45.31 363.94,-54 395,-54 412.95,-54 424.66,-51.1 430.13,-46.81"/>
<polygon fill="black" stroke="black" points="433.52,-47.73 431.85,-37.27 426.63,-46.49 433.52,-47.73"/>
<text text-anchor="start" x="300" y="-57" font-family="Helvetica,sans-Serif" font-size="10.00">Refresh &#45; Stay in preparing for installation &#160;&#160;</text>
</g>
</g>
</svg>
