<?xml version="1.0" encoding="UTF-8" standalone="no"?>
<!DOCTYPE svg PUBLIC "-//W3C//DTD SVG 1.1//EN"
 "http://www.w3.org/Graphics/SVG/1.1/DTD/svg11.dtd">
<!-- Generated by graphviz version 5.0.0 (0)
 -->
<!-- Title: state transitions Pages: 1 -->
<svg width="231pt" height="73pt"
 viewBox="0.00 0.00 231.00 73.00" xmlns="http://www.w3.org/2000/svg" xmlns:xlink="http://www.w3.org/1999/xlink">
<g id="graph0" class="graph" transform="scale(1 1) rotate(0) translate(4 69)">
<title>state transitions</title>
<polygon fill="white" stroke="transparent" points="-4,4 -4,-69 227,-69 227,4 -4,4"/>
<!-- added&#45;to&#45;existing&#45;cluster -->
<g id="node1" class="node state regular">
<title>added&#45;to&#45;existing&#45;cluster</title>
<polygon fill="#ffffff" fill-opacity="0.003922" stroke="transparent" stroke-width="2" points="188,-36 35,-36 35,0 188,0 188,-36"/>
<text text-anchor="start" x="46.5" y="-14.4" font-family="Helvetica,sans-Serif" font-size="12.00">added&#45;to&#45;existing&#45;cluster</text>
<path fill="none" stroke="black" stroke-width="2" d="M47,-1.5C47,-1.5 176,-1.5 176,-1.5 181.5,-1.5 187,-7 187,-12.5 187,-12.5 187,-23.5 187,-23.5 187,-29 181.5,-34.5 176,-34.5 176,-34.5 47,-34.5 47,-34.5 41.5,-34.5 36,-29 36,-23.5 36,-23.5 36,-12.5 36,-12.5 36,-7 41.5,-1.5 47,-1.5"/>
</g>
<!-- added&#45;to&#45;existing&#45;cluster&#45;&gt;added&#45;to&#45;existing&#45;cluster -->
<g id="edge1" class="edge transition">
<title>added&#45;to&#45;existing&#45;cluster&#45;&gt;added&#45;to&#45;existing&#45;cluster</title>
<path fill="none" stroke="black" d="M84,-36.15C79.77,-45.54 88.94,-54 111.5,-54 125.25,-54 134.02,-50.86 137.82,-46.28"/>
<polygon fill="black" stroke="black" points="141.32,-46.49 139,-36.15 134.37,-45.68 141.32,-46.49"/>
<text text-anchor="start" x="0" y="-57" font-family="Helvetica,sans-Serif" font-size="10.00">Refresh &#45; Day 2 hosts should stay in added state &#160;&#160;</text>
</g>
</g>
</svg>
