<?xml version="1.0" encoding="UTF-8" standalone="no"?>
<!DOCTYPE svg PUBLIC "-//W3C//DTD SVG 1.1//EN"
 "http://www.w3.org/Graphics/SVG/1.1/DTD/svg11.dtd">
<!-- Generated by graphviz version 12.1.0 (20240811.2233)
 -->
<!-- Title: state transitions Pages: 1 -->
<svg width="937pt" height="546pt"
 viewBox="0.00 0.00 937.25 545.99" xmlns="http://www.w3.org/2000/svg" xmlns:xlink="http://www.w3.org/1999/xlink">
<g id="graph0" class="graph" transform="scale(1 1) rotate(0) translate(4 541.99)">
<title>state transitions</title>
<polygon fill="white" stroke="none" points="-4,4 -4,-541.99 933.25,-541.99 933.25,4 -4,4"/>
<!-- binding -->
<g id="node1" class="node state regular">
<title>binding</title>
<polygon fill="#ffffff" fill-opacity="0.003922" stroke="none" stroke-width="2" points="117.62,-500.53 52.12,-500.53 52.12,-464.28 117.62,-464.28 117.62,-500.53"/>
<text text-anchor="start" x="63.12" y="-478.13" font-family="Helvetica,sans-Serif" font-size="12.00">binding</text>
<path fill="none" stroke="black" stroke-width="2" d="M64.54,-465.28C64.54,-465.28 105.21,-465.28 105.21,-465.28 110.92,-465.28 116.62,-470.98 116.62,-476.69 116.62,-476.69 116.62,-488.11 116.62,-488.11 116.62,-493.82 110.92,-499.53 105.21,-499.53 105.21,-499.53 64.54,-499.53 64.54,-499.53 58.83,-499.53 53.12,-493.82 53.12,-488.11 53.12,-488.11 53.12,-476.69 53.12,-476.69 53.12,-470.98 58.83,-465.28 64.54,-465.28"/>
</g>
<!-- disconnected -->
<g id="node2" class="node state regular">
<title>disconnected</title>
<polygon fill="#ffffff" fill-opacity="0.003922" stroke="none" stroke-width="2" points="755.75,-302.53 654.25,-302.53 654.25,-266.28 755.75,-266.28 755.75,-302.53"/>
<text text-anchor="start" x="665.25" y="-280.13" font-family="Helvetica,sans-Serif" font-size="12.00">disconnected</text>
<path fill="none" stroke="black" stroke-width="2" d="M666.67,-267.28C666.67,-267.28 743.33,-267.28 743.33,-267.28 749.04,-267.28 754.75,-272.98 754.75,-278.69 754.75,-278.69 754.75,-290.11 754.75,-290.11 754.75,-295.82 749.04,-301.53 743.33,-301.53 743.33,-301.53 666.67,-301.53 666.67,-301.53 660.96,-301.53 655.25,-295.82 655.25,-290.11 655.25,-290.11 655.25,-278.69 655.25,-278.69 655.25,-272.98 660.96,-267.28 666.67,-267.28"/>
</g>
<!-- binding&#45;&gt;disconnected -->
<g id="edge1" class="edge transition">
<title>binding&#45;&gt;disconnected</title>
<path fill="none" stroke="black" d="M117.62,-491.42C208.43,-515.2 473.23,-570.05 636.25,-453.4 681.58,-420.96 696.61,-353.03 701.57,-313.89"/>
<polygon fill="black" stroke="black" points="705.04,-314.33 702.66,-304.01 698.08,-313.56 705.04,-314.33"/>
<text text-anchor="start" x="187.75" y="-528.49" font-family="Helvetica,sans-Serif" font-size="10.00">Media Disconnect &#45; Move to disconnected when virtual media disconnects pre&#45;installation &#160;&#160;</text>
</g>
<!-- disconnected&#45;&gt;disconnected -->
<g id="edge2" class="edge transition">
<title>disconnected&#45;&gt;disconnected</title>
<path fill="none" stroke="black" d="M678.66,-302.24C674.19,-311.81 682.97,-320.53 705,-320.53 717.74,-320.53 726.04,-317.61 729.92,-313.31"/>
<polygon fill="black" stroke="black" points="733.35,-314.11 731.14,-303.74 726.41,-313.22 733.35,-314.11"/>
<text text-anchor="start" x="480.75" y="-323.78" font-family="Helvetica,sans-Serif" font-size="10.00">Media Disconnect &#45; Move to disconnected when virtual media disconnects pre&#45;installation &#160;&#160;</text>
</g>
<!-- disconnected&#45;&gt;disconnected -->
<g id="edge3" class="edge transition">
<title>disconnected&#45;&gt;disconnected</title>
<path fill="none" stroke="black" d="M660.96,-302.42C637.38,-319.68 652.07,-338.53 705,-338.53 750.08,-338.53 767.41,-324.86 757.01,-310.14"/>
<polygon fill="black" stroke="black" points="759.75,-307.92 750.13,-303.47 754.87,-312.95 759.75,-307.92"/>
<text text-anchor="start" x="545.25" y="-341.78" font-family="Helvetica,sans-Serif" font-size="10.00">Refresh &#45; Move host to disconnected when connected times out &#160;&#160;</text>
</g>
<!-- discovering -->
<g id="node3" class="node state regular">
<title>discovering</title>
<polygon fill="#ffffff" fill-opacity="0.003922" stroke="none" stroke-width="2" points="130,-434.53 39.75,-434.53 39.75,-398.28 130,-398.28 130,-434.53"/>
<text text-anchor="start" x="50.75" y="-412.13" font-family="Helvetica,sans-Serif" font-size="12.00">discovering</text>
<path fill="none" stroke="black" stroke-width="2" d="M52.17,-399.28C52.17,-399.28 117.58,-399.28 117.58,-399.28 123.29,-399.28 129,-404.98 129,-410.69 129,-410.69 129,-422.11 129,-422.11 129,-427.82 123.29,-433.53 117.58,-433.53 117.58,-433.53 52.17,-433.53 52.17,-433.53 46.46,-433.53 40.75,-427.82 40.75,-422.11 40.75,-422.11 40.75,-410.69 40.75,-410.69 40.75,-404.98 46.46,-399.28 52.17,-399.28"/>
</g>
<!-- discovering&#45;&gt;disconnected -->
<g id="edge4" class="edge transition">
<title>discovering&#45;&gt;disconnected</title>
<path fill="none" stroke="black" d="M129.96,-420.62C147.87,-422.14 168.78,-423.66 187.75,-424.4 237.55,-426.35 594.03,-450.87 636.25,-424.4 675.13,-400.02 692.25,-346.3 699.36,-312.95"/>
<polygon fill="black" stroke="black" points="702.71,-314.05 701.19,-303.57 695.84,-312.72 702.71,-314.05"/>
<text text-anchor="start" x="187.75" y="-439.86" font-family="Helvetica,sans-Serif" font-size="10.00">Media Disconnect &#45; Move to disconnected when virtual media disconnects pre&#45;installation &#160;&#160;</text>
</g>
<!-- discovering&#45;&gt;disconnected -->
<g id="edge5" class="edge transition">
<title>discovering&#45;&gt;disconnected</title>
<path fill="none" stroke="black" d="M129.97,-412.2C147.89,-410.6 168.79,-408.87 187.75,-407.65 237.53,-404.45 592.92,-413.1 636.25,-388.4 665.15,-371.93 683.83,-337.51 694.11,-312.77"/>
<polygon fill="black" stroke="black" points="697.31,-314.19 697.69,-303.6 690.79,-311.64 697.31,-314.19"/>
<text text-anchor="start" x="252.25" y="-410.9" font-family="Helvetica,sans-Serif" font-size="10.00">Refresh &#45; Move host to disconnected when connected times out &#160;&#160;</text>
</g>
<!-- insufficient -->
<g id="node4" class="node state regular">
<title>insufficient</title>
<polygon fill="#ffffff" fill-opacity="0.003922" stroke="none" stroke-width="2" points="128.12,-376.53 41.62,-376.53 41.62,-340.28 128.12,-340.28 128.12,-376.53"/>
<text text-anchor="start" x="52.62" y="-354.13" font-family="Helvetica,sans-Serif" font-size="12.00">insufficient</text>
<path fill="none" stroke="black" stroke-width="2" d="M54.04,-341.28C54.04,-341.28 115.71,-341.28 115.71,-341.28 121.42,-341.28 127.12,-346.98 127.12,-352.69 127.12,-352.69 127.12,-364.11 127.12,-364.11 127.12,-369.82 121.42,-375.53 115.71,-375.53 115.71,-375.53 54.04,-375.53 54.04,-375.53 48.33,-375.53 42.62,-369.82 42.62,-364.11 42.62,-364.11 42.62,-352.69 42.62,-352.69 42.62,-346.98 48.33,-341.28 54.04,-341.28"/>
</g>
<!-- insufficient&#45;&gt;disconnected -->
<g id="edge6" class="edge transition">
<title>insufficient&#45;&gt;disconnected</title>
<path fill="none" stroke="black" d="M127.82,-361.98C240.05,-370.94 544.9,-390.92 636.25,-352.4 656.21,-343.98 673.38,-326.57 685.43,-311.48"/>
<polygon fill="black" stroke="black" points="688.09,-313.77 691.34,-303.69 682.51,-309.54 688.09,-313.77"/>
<text text-anchor="start" x="187.75" y="-378.45" font-family="Helvetica,sans-Serif" font-size="10.00">Media Disconnect &#45; Move to disconnected when virtual media disconnects pre&#45;installation &#160;&#160;</text>
</g>
<!-- insufficient&#45;&gt;disconnected -->
<g id="edge7" class="edge transition">
<title>insufficient&#45;&gt;disconnected</title>
<path fill="none" stroke="black" d="M127.72,-347.44C146.03,-343.06 167.83,-338.42 187.75,-335.65 385.5,-308.19 441.04,-352.28 636.25,-310.4 641.52,-309.27 646.91,-307.79 652.25,-306.12"/>
<polygon fill="black" stroke="black" points="653.29,-309.46 661.63,-302.93 651.03,-302.83 653.29,-309.46"/>
<text text-anchor="start" x="252.25" y="-338.9" font-family="Helvetica,sans-Serif" font-size="10.00">Refresh &#45; Move host to disconnected when connected times out &#160;&#160;</text>
</g>
<!-- known -->
<g id="node5" class="node state regular">
<title>known</title>
<polygon fill="#ffffff" fill-opacity="0.003922" stroke="none" stroke-width="2" points="115.38,-313.53 54.38,-313.53 54.38,-277.28 115.38,-277.28 115.38,-313.53"/>
<text text-anchor="start" x="65.38" y="-291.13" font-family="Helvetica,sans-Serif" font-size="12.00">known</text>
<path fill="none" stroke="black" stroke-width="2" d="M66.79,-278.28C66.79,-278.28 102.96,-278.28 102.96,-278.28 108.67,-278.28 114.38,-283.98 114.38,-289.69 114.38,-289.69 114.38,-301.11 114.38,-301.11 114.38,-306.82 108.67,-312.53 102.96,-312.53 102.96,-312.53 66.79,-312.53 66.79,-312.53 61.08,-312.53 55.38,-306.82 55.38,-301.11 55.38,-301.11 55.38,-289.69 55.38,-289.69 55.38,-283.98 61.08,-278.28 66.79,-278.28"/>
</g>
<!-- known&#45;&gt;disconnected -->
<g id="edge8" class="edge transition">
<title>known&#45;&gt;disconnected</title>
<path fill="none" stroke="black" d="M115.27,-294.88C210.64,-293.18 512.79,-287.8 643.15,-285.48"/>
<polygon fill="black" stroke="black" points="643.03,-288.99 652.96,-285.31 642.9,-281.99 643.03,-288.99"/>
<text text-anchor="start" x="187.75" y="-296.81" font-family="Helvetica,sans-Serif" font-size="10.00">Media Disconnect &#45; Move to disconnected when virtual media disconnects pre&#45;installation &#160;&#160;</text>
</g>
<!-- known&#45;&gt;disconnected -->
<g id="edge9" class="edge transition">
<title>known&#45;&gt;disconnected</title>
<path fill="none" stroke="black" d="M115.34,-285.51C135.47,-279.29 162.9,-271.86 187.75,-268.65 385.44,-243.13 438.22,-245.93 636.25,-268.65 638.45,-268.9 640.69,-269.2 642.95,-269.54"/>
<polygon fill="black" stroke="black" points="642.34,-272.98 652.79,-271.23 643.52,-266.08 642.34,-272.98"/>
<text text-anchor="start" x="252.25" y="-271.9" font-family="Helvetica,sans-Serif" font-size="10.00">Refresh &#45; Move host to disconnected when connected times out &#160;&#160;</text>
</g>
<!-- pending&#45;for&#45;input -->
<g id="node6" class="node state regular">
<title>pending&#45;for&#45;input</title>
<polygon fill="#ffffff" fill-opacity="0.003922" stroke="none" stroke-width="2" points="147.62,-244.53 22.12,-244.53 22.12,-208.28 147.62,-208.28 147.62,-244.53"/>
<text text-anchor="start" x="33.12" y="-222.13" font-family="Helvetica,sans-Serif" font-size="12.00">pending&#45;for&#45;input</text>
<path fill="none" stroke="black" stroke-width="2" d="M34.54,-209.28C34.54,-209.28 135.21,-209.28 135.21,-209.28 140.92,-209.28 146.62,-214.98 146.62,-220.69 146.62,-220.69 146.62,-232.11 146.62,-232.11 146.62,-237.82 140.92,-243.53 135.21,-243.53 135.21,-243.53 34.54,-243.53 34.54,-243.53 28.83,-243.53 23.12,-237.82 23.12,-232.11 23.12,-232.11 23.12,-220.69 23.12,-220.69 23.12,-214.98 28.83,-209.28 34.54,-209.28"/>
</g>
<!-- pending&#45;for&#45;input&#45;&gt;disconnected -->
<g id="edge10" class="edge transition">
<title>pending&#45;for&#45;input&#45;&gt;disconnected</title>
<path fill="none" stroke="black" d="M147.32,-222.46C271.37,-215.29 547.48,-203.44 636.25,-233.65 651.66,-238.89 666.42,-249.1 678.2,-259"/>
<polygon fill="black" stroke="black" points="675.65,-261.41 685.46,-265.41 680.29,-256.17 675.65,-261.41"/>
<text text-anchor="start" x="187.75" y="-236.9" font-family="Helvetica,sans-Serif" font-size="10.00">Media Disconnect &#45; Move to disconnected when virtual media disconnects pre&#45;installation &#160;&#160;</text>
</g>
<!-- pending&#45;for&#45;input&#45;&gt;disconnected -->
<g id="edge11" class="edge transition">
<title>pending&#45;for&#45;input&#45;&gt;disconnected</title>
<path fill="none" stroke="black" d="M139.48,-208.3C154.88,-203.91 171.82,-199.85 187.75,-197.65 286.48,-183.99 546.67,-153.95 636.25,-197.65 661.11,-209.78 679.52,-235.93 690.82,-256.37"/>
<polygon fill="black" stroke="black" points="687.65,-257.85 695.38,-265.09 693.85,-254.61 687.65,-257.85"/>
<text text-anchor="start" x="252.25" y="-200.9" font-family="Helvetica,sans-Serif" font-size="10.00">Refresh &#45; Move host to disconnected when connected times out &#160;&#160;</text>
</g>
<!-- preparing&#45;failed -->
<g id="node7" class="node state regular">
<title>preparing&#45;failed</title>
<polygon fill="#ffffff" fill-opacity="0.003922" stroke="none" stroke-width="2" points="143.5,-185.53 26.25,-185.53 26.25,-149.28 143.5,-149.28 143.5,-185.53"/>
<text text-anchor="start" x="37.25" y="-163.13" font-family="Helvetica,sans-Serif" font-size="12.00">preparing&#45;failed</text>
<path fill="none" stroke="black" stroke-width="2" d="M38.67,-150.28C38.67,-150.28 131.08,-150.28 131.08,-150.28 136.79,-150.28 142.5,-155.98 142.5,-161.69 142.5,-161.69 142.5,-173.11 142.5,-173.11 142.5,-178.82 136.79,-184.53 131.08,-184.53 131.08,-184.53 38.67,-184.53 38.67,-184.53 32.96,-184.53 27.25,-178.82 27.25,-173.11 27.25,-173.11 27.25,-161.69 27.25,-161.69 27.25,-155.98 32.96,-150.28 38.67,-150.28"/>
</g>
<!-- preparing&#45;failed&#45;&gt;disconnected -->
<g id="edge12" class="edge transition">
<title>preparing&#45;failed&#45;&gt;disconnected</title>
<path fill="none" stroke="black" d="M143.45,-158.89C267.36,-141.77 554.69,-108.77 636.25,-157.65 671.55,-178.81 689.48,-225.31 697.78,-255.72"/>
<polygon fill="black" stroke="black" points="694.29,-256.2 700.13,-265.04 701.08,-254.48 694.29,-256.2"/>
<text text-anchor="start" x="252.25" y="-160.9" font-family="Helvetica,sans-Serif" font-size="10.00">Refresh &#45; Move host to disconnected when connected times out &#160;&#160;</text>
</g>
<!-- preparing&#45;for&#45;installation -->
<g id="node8" class="node state regular">
<title>preparing&#45;for&#45;installation</title>
<polygon fill="#ffffff" fill-opacity="0.003922" stroke="none" stroke-width="2" points="169.75,-131.53 0,-131.53 0,-95.28 169.75,-95.28 169.75,-131.53"/>
<text text-anchor="start" x="11" y="-109.13" font-family="Helvetica,sans-Serif" font-size="12.00">preparing&#45;for&#45;installation</text>
<path fill="none" stroke="black" stroke-width="2" d="M12.42,-96.28C12.42,-96.28 157.33,-96.28 157.33,-96.28 163.04,-96.28 168.75,-101.98 168.75,-107.69 168.75,-107.69 168.75,-119.11 168.75,-119.11 168.75,-124.82 163.04,-130.53 157.33,-130.53 157.33,-130.53 12.42,-130.53 12.42,-130.53 6.71,-130.53 1,-124.82 1,-119.11 1,-119.11 1,-107.69 1,-107.69 1,-101.98 6.71,-96.28 12.42,-96.28"/>
</g>
<!-- preparing&#45;for&#45;installation&#45;&gt;disconnected -->
<g id="edge13" class="edge transition">
<title>preparing&#45;for&#45;installation&#45;&gt;disconnected</title>
<path fill="none" stroke="black" d="M169.52,-102.71C304.47,-87.25 562.59,-65.63 636.25,-115.65 682.52,-147.07 697.2,-215.83 701.85,-255.19"/>
<polygon fill="black" stroke="black" points="698.34,-255.29 702.84,-264.88 705.3,-254.58 698.34,-255.29"/>
<text text-anchor="start" x="226" y="-118.9" font-family="Helvetica,sans-Serif" font-size="10.00">Refresh &#45; Move preparing host to disconnected when connection times out &#160;&#160;</text>
</g>
<!-- preparing&#45;successful -->
<g id="node9" class="node state regular">
<title>preparing&#45;successful</title>
<polygon fill="#ffffff" fill-opacity="0.003922" stroke="none" stroke-width="2" points="157.75,-77.53 12,-77.53 12,-41.28 157.75,-41.28 157.75,-77.53"/>
<text text-anchor="start" x="23" y="-55.13" font-family="Helvetica,sans-Serif" font-size="12.00">preparing&#45;successful</text>
<path fill="none" stroke="black" stroke-width="2" d="M24.42,-42.28C24.42,-42.28 145.33,-42.28 145.33,-42.28 151.04,-42.28 156.75,-47.98 156.75,-53.69 156.75,-53.69 156.75,-65.11 156.75,-65.11 156.75,-70.82 151.04,-76.53 145.33,-76.53 145.33,-76.53 24.42,-76.53 24.42,-76.53 18.71,-76.53 13,-70.82 13,-65.11 13,-65.11 13,-53.69 13,-53.69 13,-47.98 18.71,-42.28 24.42,-42.28"/>
</g>
<!-- preparing&#45;successful&#45;&gt;disconnected -->
<g id="edge14" class="edge transition">
<title>preparing&#45;successful&#45;&gt;disconnected</title>
<path fill="none" stroke="black" d="M140.12,-41.35C246.99,-9.45 487.32,43.56 636.25,-67.65 695.24,-111.7 704.22,-206.82 704.76,-255.07"/>
<polygon fill="black" stroke="black" points="701.26,-255.01 704.74,-265.02 708.26,-255.03 701.26,-255.01"/>
<text text-anchor="start" x="226" y="-70.9" font-family="Helvetica,sans-Serif" font-size="10.00">Refresh &#45; Move preparing host to disconnected when connection times out &#160;&#160;</text>
</g>
</g>
</svg>
