<?xml version="1.0" encoding="UTF-8" standalone="no"?>
<!DOCTYPE svg PUBLIC "-//W3C//DTD SVG 1.1//EN"
 "http://www.w3.org/Graphics/SVG/1.1/DTD/svg11.dtd">
<!-- Generated by graphviz version 7.1.0 (0)
 -->
<!-- Title: state transitions Pages: 1 -->
<svg width="413pt" height="355pt"
 viewBox="0.00 0.00 413.00 355.10" xmlns="http://www.w3.org/2000/svg" xmlns:xlink="http://www.w3.org/1999/xlink">
<g id="graph0" class="graph" transform="scale(1 1) rotate(0) translate(4 351.1)">
<title>state transitions</title>
<polygon fill="white" stroke="none" points="-4,4 -4,-351.1 409,-351.1 409,4 -4,4"/>
<!-- disconnected -->
<g id="node1" class="node state regular">
<title>disconnected</title>
<polygon fill="#ffffff" fill-opacity="0.003922" stroke="none" stroke-width="2" points="103.5,-324.1 9.5,-324.1 9.5,-288.1 103.5,-288.1 103.5,-324.1"/>
<text text-anchor="start" x="20.5" y="-302.5" font-family="Helvetica,sans-Serif" font-size="12.00">disconnected</text>
<path fill="none" stroke="black" stroke-width="2" d="M21.5,-289.6C21.5,-289.6 91.5,-289.6 91.5,-289.6 97,-289.6 102.5,-295.1 102.5,-300.6 102.5,-300.6 102.5,-311.6 102.5,-311.6 102.5,-317.1 97,-322.6 91.5,-322.6 91.5,-322.6 21.5,-322.6 21.5,-322.6 16,-322.6 10.5,-317.1 10.5,-311.6 10.5,-311.6 10.5,-300.6 10.5,-300.6 10.5,-295.1 16,-289.6 21.5,-289.6"/>
</g>
<!-- unbinding -->
<g id="node6" class="node state regular">
<title>unbinding</title>
<polygon fill="#ffffff" fill-opacity="0.003922" stroke="none" stroke-width="2" points="405,-197.1 329,-197.1 329,-161.1 405,-161.1 405,-197.1"/>
<text text-anchor="start" x="340" y="-175.5" font-family="Helvetica,sans-Serif" font-size="12.00">unbinding</text>
<path fill="none" stroke="black" stroke-width="2" d="M341,-162.6C341,-162.6 393,-162.6 393,-162.6 398.5,-162.6 404,-168.1 404,-173.6 404,-173.6 404,-184.6 404,-184.6 404,-190.1 398.5,-195.6 393,-195.6 393,-195.6 341,-195.6 341,-195.6 335.5,-195.6 330,-190.1 330,-184.6 330,-184.6 330,-173.6 330,-173.6 330,-168.1 335.5,-162.6 341,-162.6"/>
</g>
<!-- disconnected&#45;&gt;unbinding -->
<g id="edge3" class="edge transition">
<title>disconnected&#45;&gt;unbinding</title>
<path fill="none" stroke="black" d="M103.49,-321.31C157.88,-336.26 248.87,-351.4 311,-310.1 345.06,-287.46 358.07,-239.19 363.01,-207.99"/>
<polygon fill="black" stroke="black" points="366.43,-208.84 364.33,-198.45 359.5,-207.88 366.43,-208.84"/>
<text text-anchor="start" x="131" y="-339.1" font-family="Helvetica,sans-Serif" font-size="10.00">Reclaim Host &#45; Reclaim pre&#45;installation &#160;&#160;</text>
</g>
<!-- disconnected&#45;&gt;unbinding -->
<g id="edge8" class="edge transition">
<title>disconnected&#45;&gt;unbinding</title>
<path fill="none" stroke="black" d="M103.37,-300.44C112.52,-299.32 122.06,-298.17 131,-297.1 170.99,-292.32 277.44,-298.36 311,-276.1 335.02,-260.17 349.7,-229.97 357.78,-207.48"/>
<polygon fill="black" stroke="black" points="361.01,-208.88 360.85,-198.29 354.36,-206.66 361.01,-208.88"/>
<text text-anchor="start" x="135.5" y="-300.1" font-family="Helvetica,sans-Serif" font-size="10.00">Unbind Host &#45; Unbind pre&#45;installation &#160;&#160;</text>
</g>
<!-- discovering -->
<g id="node2" class="node state regular">
<title>discovering</title>
<polygon fill="#ffffff" fill-opacity="0.003922" stroke="none" stroke-width="2" points="98.5,-263.1 14.5,-263.1 14.5,-227.1 98.5,-227.1 98.5,-263.1"/>
<text text-anchor="start" x="25.5" y="-241.5" font-family="Helvetica,sans-Serif" font-size="12.00">discovering</text>
<path fill="none" stroke="black" stroke-width="2" d="M26.5,-228.6C26.5,-228.6 86.5,-228.6 86.5,-228.6 92,-228.6 97.5,-234.1 97.5,-239.6 97.5,-239.6 97.5,-250.6 97.5,-250.6 97.5,-256.1 92,-261.6 86.5,-261.6 86.5,-261.6 26.5,-261.6 26.5,-261.6 21,-261.6 15.5,-256.1 15.5,-250.6 15.5,-250.6 15.5,-239.6 15.5,-239.6 15.5,-234.1 21,-228.6 26.5,-228.6"/>
</g>
<!-- discovering&#45;&gt;unbinding -->
<g id="edge2" class="edge transition">
<title>discovering&#45;&gt;unbinding</title>
<path fill="none" stroke="black" d="M98.36,-254.42C150.4,-264.16 241.87,-274.01 311,-242.1 327.23,-234.61 340.57,-219.75 350.05,-206.34"/>
<polygon fill="black" stroke="black" points="352.82,-208.5 355.41,-198.23 346.98,-204.64 352.82,-208.5"/>
<text text-anchor="start" x="131" y="-266.1" font-family="Helvetica,sans-Serif" font-size="10.00">Reclaim Host &#45; Reclaim pre&#45;installation &#160;&#160;</text>
</g>
<!-- discovering&#45;&gt;unbinding -->
<g id="edge7" class="edge transition">
<title>discovering&#45;&gt;unbinding</title>
<path fill="none" stroke="black" d="M98.24,-235.82C108.88,-233.5 120.35,-231.11 131,-229.1 210.62,-214.03 232.74,-221.11 311,-200.1 313.41,-199.45 315.85,-198.74 318.31,-197.98"/>
<polygon fill="black" stroke="black" points="319.25,-201.35 327.63,-194.86 317.03,-194.71 319.25,-201.35"/>
<text text-anchor="start" x="135.5" y="-232.1" font-family="Helvetica,sans-Serif" font-size="10.00">Unbind Host &#45; Unbind pre&#45;installation &#160;&#160;</text>
</g>
<!-- insufficient -->
<g id="node3" class="node state regular">
<title>insufficient</title>
<polygon fill="#ffffff" fill-opacity="0.003922" stroke="none" stroke-width="2" points="96.5,-205.1 16.5,-205.1 16.5,-169.1 96.5,-169.1 96.5,-205.1"/>
<text text-anchor="start" x="27.5" y="-183.5" font-family="Helvetica,sans-Serif" font-size="12.00">insufficient</text>
<path fill="none" stroke="black" stroke-width="2" d="M28.5,-170.6C28.5,-170.6 84.5,-170.6 84.5,-170.6 90,-170.6 95.5,-176.1 95.5,-181.6 95.5,-181.6 95.5,-192.6 95.5,-192.6 95.5,-198.1 90,-203.6 84.5,-203.6 84.5,-203.6 28.5,-203.6 28.5,-203.6 23,-203.6 17.5,-198.1 17.5,-192.6 17.5,-192.6 17.5,-181.6 17.5,-181.6 17.5,-176.1 23,-170.6 28.5,-170.6"/>
</g>
<!-- insufficient&#45;&gt;unbinding -->
<g id="edge4" class="edge transition">
<title>insufficient&#45;&gt;unbinding</title>
<path fill="none" stroke="black" d="M96.26,-186.09C152.51,-184.63 256.71,-181.93 317.83,-180.35"/>
<polygon fill="black" stroke="black" points="317.66,-183.85 327.57,-180.1 317.48,-176.86 317.66,-183.85"/>
<text text-anchor="start" x="131" y="-188.1" font-family="Helvetica,sans-Serif" font-size="10.00">Reclaim Host &#45; Reclaim pre&#45;installation &#160;&#160;</text>
</g>
<!-- insufficient&#45;&gt;unbinding -->
<g id="edge9" class="edge transition">
<title>insufficient&#45;&gt;unbinding</title>
<path fill="none" stroke="black" d="M96.31,-173.19C107.37,-169.86 119.53,-166.78 131,-165.1 210.16,-153.51 231.62,-155.15 311,-165.1 313.33,-165.39 315.7,-165.75 318.09,-166.16"/>
<polygon fill="black" stroke="black" points="317.28,-169.57 327.78,-168.11 318.66,-162.71 317.28,-169.57"/>
<text text-anchor="start" x="135.5" y="-168.1" font-family="Helvetica,sans-Serif" font-size="10.00">Unbind Host &#45; Unbind pre&#45;installation &#160;&#160;</text>
</g>
<!-- known -->
<g id="node4" class="node state regular">
<title>known</title>
<polygon fill="#ffffff" fill-opacity="0.003922" stroke="none" stroke-width="2" points="85.5,-131.1 27.5,-131.1 27.5,-95.1 85.5,-95.1 85.5,-131.1"/>
<text text-anchor="start" x="38.5" y="-109.5" font-family="Helvetica,sans-Serif" font-size="12.00">known</text>
<path fill="none" stroke="black" stroke-width="2" d="M39.5,-96.6C39.5,-96.6 73.5,-96.6 73.5,-96.6 79,-96.6 84.5,-102.1 84.5,-107.6 84.5,-107.6 84.5,-118.6 84.5,-118.6 84.5,-124.1 79,-129.6 73.5,-129.6 73.5,-129.6 39.5,-129.6 39.5,-129.6 34,-129.6 28.5,-124.1 28.5,-118.6 28.5,-118.6 28.5,-107.6 28.5,-107.6 28.5,-102.1 34,-96.6 39.5,-96.6"/>
</g>
<!-- known&#45;&gt;unbinding -->
<g id="edge1" class="edge transition">
<title>known&#45;&gt;unbinding</title>
<path fill="none" stroke="black" d="M85.15,-111.81C132.86,-110.53 233.01,-111.98 311,-141.1 319.72,-144.35 328.37,-149.29 336.14,-154.55"/>
<polygon fill="black" stroke="black" points="334.06,-157.37 344.22,-160.38 338.16,-151.69 334.06,-157.37"/>
<text text-anchor="start" x="131" y="-144.1" font-family="Helvetica,sans-Serif" font-size="10.00">Reclaim Host &#45; Reclaim pre&#45;installation &#160;&#160;</text>
</g>
<!-- known&#45;&gt;unbinding -->
<g id="edge6" class="edge transition">
<title>known&#45;&gt;unbinding</title>
<path fill="none" stroke="black" d="M85.41,-102.11C134.38,-84.72 237.55,-56.66 311,-96.1 332.49,-107.64 347,-131.67 355.69,-150.92"/>
<polygon fill="black" stroke="black" points="352.36,-152.02 359.46,-159.89 358.82,-149.32 352.36,-152.02"/>
<text text-anchor="start" x="135.5" y="-99.1" font-family="Helvetica,sans-Serif" font-size="10.00">Unbind Host &#45; Unbind pre&#45;installation &#160;&#160;</text>
</g>
<!-- pending&#45;for&#45;input -->
<g id="node5" class="node state regular">
<title>pending&#45;for&#45;input</title>
<polygon fill="#ffffff" fill-opacity="0.003922" stroke="none" stroke-width="2" points="113,-61.1 0,-61.1 0,-25.1 113,-25.1 113,-61.1"/>
<text text-anchor="start" x="11.5" y="-39.5" font-family="Helvetica,sans-Serif" font-size="12.00">pending&#45;for&#45;input</text>
<path fill="none" stroke="black" stroke-width="2" d="M12,-26.6C12,-26.6 101,-26.6 101,-26.6 106.5,-26.6 112,-32.1 112,-37.6 112,-37.6 112,-48.6 112,-48.6 112,-54.1 106.5,-59.6 101,-59.6 101,-59.6 12,-59.6 12,-59.6 6.5,-59.6 1,-54.1 1,-48.6 1,-48.6 1,-37.6 1,-37.6 1,-32.1 6.5,-26.6 12,-26.6"/>
</g>
<!-- pending&#45;for&#45;input&#45;&gt;unbinding -->
<g id="edge5" class="edge transition">
<title>pending&#45;for&#45;input&#45;&gt;unbinding</title>
<path fill="none" stroke="black" d="M112.79,-40.4C177.56,-38.32 279.97,-38.76 311,-60.1 341.03,-80.75 355.01,-122.12 361.27,-150.22"/>
<polygon fill="black" stroke="black" points="357.81,-150.75 363.21,-159.86 364.67,-149.37 357.81,-150.75"/>
<text text-anchor="start" x="131" y="-63.1" font-family="Helvetica,sans-Serif" font-size="10.00">Reclaim Host &#45; Reclaim pre&#45;installation &#160;&#160;</text>
</g>
<!-- pending&#45;for&#45;input&#45;&gt;unbinding -->
<g id="edge10" class="edge transition">
<title>pending&#45;for&#45;input&#45;&gt;unbinding</title>
<path fill="none" stroke="black" d="M99.55,-25.13C153.69,-5.08 248.25,19.13 311,-25.1 351.14,-53.38 362.14,-113.74 365.06,-149.92"/>
<polygon fill="black" stroke="black" points="361.55,-149.91 365.68,-159.67 368.54,-149.47 361.55,-149.91"/>
<text text-anchor="start" x="135.5" y="-28.1" font-family="Helvetica,sans-Serif" font-size="10.00">Unbind Host &#45; Unbind pre&#45;installation &#160;&#160;</text>
</g>
</g>
</svg>
