<?xml version="1.0" encoding="UTF-8" standalone="no"?>
<!DOCTYPE svg PUBLIC "-//W3C//DTD SVG 1.1//EN"
 "http://www.w3.org/Graphics/SVG/1.1/DTD/svg11.dtd">
<!-- Generated by graphviz version 5.0.0 (0)
 -->
<!-- Title: state transitions Pages: 1 -->
<svg width="718pt" height="260pt"
 viewBox="0.00 0.00 717.50 260.00" xmlns="http://www.w3.org/2000/svg" xmlns:xlink="http://www.w3.org/1999/xlink">
<g id="graph0" class="graph" transform="scale(1 1) rotate(0) translate(4 256)">
<title>state transitions</title>
<polygon fill="white" stroke="transparent" points="-4,4 -4,-256 713.5,-256 713.5,4 -4,4"/>
<!-- cancelled -->
<g id="node1" class="node state regular">
<title>cancelled</title>
<polygon fill="#ffffff" fill-opacity="0.003922" stroke="transparent" stroke-width="2" points="578,-144 504,-144 504,-108 578,-108 578,-144"/>
<text text-anchor="start" x="515" y="-122.4" font-family="Helvetica,sans-Serif" font-size="12.00">cancelled</text>
<path fill="none" stroke="black" stroke-width="2" d="M516,-109.5C516,-109.5 566,-109.5 566,-109.5 571.5,-109.5 577,-115 577,-120.5 577,-120.5 577,-131.5 577,-131.5 577,-137 571.5,-142.5 566,-142.5 566,-142.5 516,-142.5 516,-142.5 510.5,-142.5 505,-137 505,-131.5 505,-131.5 505,-120.5 505,-120.5 505,-115 510.5,-109.5 516,-109.5"/>
</g>
<!-- cancelled&#45;&gt;cancelled -->
<g id="edge6" class="edge transition">
<title>cancelled&#45;&gt;cancelled</title>
<path fill="none" stroke="black" d="M523.09,-144.15C520.33,-153.54 526.3,-162 541,-162 549.95,-162 555.67,-158.86 558.14,-154.28"/>
<polygon fill="black" stroke="black" points="561.65,-154.39 558.91,-144.15 554.67,-153.86 561.65,-154.39"/>
<text text-anchor="start" x="372.5" y="-165" font-family="Helvetica,sans-Serif" font-size="10.00">Refresh &#45; Log collection timed out during cancelled should stay in cancelled &#160;&#160;</text>
</g>
<!-- cancelled&#45;&gt;cancelled -->
<g id="edge7" class="edge transition">
<title>cancelled&#45;&gt;cancelled</title>
<path fill="none" stroke="black" d="M510.98,-144.26C495.42,-161.4 505.42,-180 541,-180 570.74,-180 582.61,-167 576.62,-152.72"/>
<polygon fill="black" stroke="black" points="579.45,-150.67 571.02,-144.26 573.61,-154.53 579.45,-150.67"/>
<text text-anchor="start" x="407" y="-183" font-family="Helvetica,sans-Serif" font-size="10.00">Refresh &#45; Refresh during cancelled should stay in cancelled &#160;&#160;</text>
</g>
<!-- error -->
<g id="node2" class="node state regular">
<title>error</title>
<polygon fill="#ffffff" fill-opacity="0.003922" stroke="transparent" stroke-width="2" points="118.5,-252 62.5,-252 62.5,-216 118.5,-216 118.5,-252"/>
<text text-anchor="start" x="78" y="-230.4" font-family="Helvetica,sans-Serif" font-size="12.00">error</text>
<path fill="none" stroke="black" stroke-width="2" d="M74.5,-217.5C74.5,-217.5 106.5,-217.5 106.5,-217.5 112,-217.5 117.5,-223 117.5,-228.5 117.5,-228.5 117.5,-239.5 117.5,-239.5 117.5,-245 112,-250.5 106.5,-250.5 106.5,-250.5 74.5,-250.5 74.5,-250.5 69,-250.5 63.5,-245 63.5,-239.5 63.5,-239.5 63.5,-228.5 63.5,-228.5 63.5,-223 69,-217.5 74.5,-217.5"/>
</g>
<!-- error&#45;&gt;cancelled -->
<g id="edge5" class="edge transition">
<title>error&#45;&gt;cancelled</title>
<path fill="none" stroke="black" d="M118.81,-237.25C185.8,-243.91 361.87,-253.44 486,-188 501.29,-179.94 514.19,-165.64 523.55,-152.8"/>
<polygon fill="black" stroke="black" points="526.65,-154.46 529.45,-144.24 520.89,-150.49 526.65,-154.46"/>
<text text-anchor="start" x="199" y="-244" font-family="Helvetica,sans-Serif" font-size="10.00">Cancel Installation &#45; Installation canceled while host is installing &#160;&#160;</text>
</g>
<!-- installed -->
<g id="node3" class="node state regular">
<title>installed</title>
<polygon fill="#ffffff" fill-opacity="0.003922" stroke="transparent" stroke-width="2" points="124.5,-198 56.5,-198 56.5,-162 124.5,-162 124.5,-198"/>
<text text-anchor="start" x="67.5" y="-176.4" font-family="Helvetica,sans-Serif" font-size="12.00">installed</text>
<path fill="none" stroke="black" stroke-width="2" d="M68.5,-163.5C68.5,-163.5 112.5,-163.5 112.5,-163.5 118,-163.5 123.5,-169 123.5,-174.5 123.5,-174.5 123.5,-185.5 123.5,-185.5 123.5,-191 118,-196.5 112.5,-196.5 112.5,-196.5 68.5,-196.5 68.5,-196.5 63,-196.5 57.5,-191 57.5,-185.5 57.5,-185.5 57.5,-174.5 57.5,-174.5 57.5,-169 63,-163.5 68.5,-163.5"/>
</g>
<!-- installed&#45;&gt;cancelled -->
<g id="edge4" class="edge transition">
<title>installed&#45;&gt;cancelled</title>
<path fill="none" stroke="black" d="M124.5,-178.66C192.6,-175.48 353.4,-165.78 486,-141 488.64,-140.51 491.35,-139.94 494.06,-139.33"/>
<polygon fill="black" stroke="black" points="495,-142.71 503.89,-136.95 493.35,-135.91 495,-142.71"/>
<text text-anchor="start" x="199" y="-176" font-family="Helvetica,sans-Serif" font-size="10.00">Cancel Installation &#45; Installation canceled while host is installing &#160;&#160;</text>
</g>
<!-- installing -->
<g id="node4" class="node state regular">
<title>installing</title>
<polygon fill="#ffffff" fill-opacity="0.003922" stroke="transparent" stroke-width="2" points="126,-144 55,-144 55,-108 126,-108 126,-144"/>
<text text-anchor="start" x="66.5" y="-122.4" font-family="Helvetica,sans-Serif" font-size="12.00">installing</text>
<path fill="none" stroke="black" stroke-width="2" d="M67,-109.5C67,-109.5 114,-109.5 114,-109.5 119.5,-109.5 125,-115 125,-120.5 125,-120.5 125,-131.5 125,-131.5 125,-137 119.5,-142.5 114,-142.5 114,-142.5 67,-142.5 67,-142.5 61.5,-142.5 56,-137 56,-131.5 56,-131.5 56,-120.5 56,-120.5 56,-115 61.5,-109.5 67,-109.5"/>
</g>
<!-- installing&#45;&gt;cancelled -->
<g id="edge2" class="edge transition">
<title>installing&#45;&gt;cancelled</title>
<path fill="none" stroke="black" d="M126.32,-126C206.4,-126 403.68,-126 493.77,-126"/>
<polygon fill="black" stroke="black" points="493.96,-129.5 503.96,-126 493.96,-122.5 493.96,-129.5"/>
<text text-anchor="start" x="199" y="-129" font-family="Helvetica,sans-Serif" font-size="10.00">Cancel Installation &#45; Installation canceled while host is installing &#160;&#160;</text>
</g>
<!-- installing&#45;in&#45;progress -->
<g id="node5" class="node state regular">
<title>installing&#45;in&#45;progress</title>
<polygon fill="#ffffff" fill-opacity="0.003922" stroke="transparent" stroke-width="2" points="157.5,-90 23.5,-90 23.5,-54 157.5,-54 157.5,-90"/>
<text text-anchor="start" x="34.5" y="-68.4" font-family="Helvetica,sans-Serif" font-size="12.00">installing&#45;in&#45;progress</text>
<path fill="none" stroke="black" stroke-width="2" d="M35.5,-55.5C35.5,-55.5 145.5,-55.5 145.5,-55.5 151,-55.5 156.5,-61 156.5,-66.5 156.5,-66.5 156.5,-77.5 156.5,-77.5 156.5,-83 151,-88.5 145.5,-88.5 145.5,-88.5 35.5,-88.5 35.5,-88.5 30,-88.5 24.5,-83 24.5,-77.5 24.5,-77.5 24.5,-66.5 24.5,-66.5 24.5,-61 30,-55.5 35.5,-55.5"/>
</g>
<!-- installing&#45;in&#45;progress&#45;&gt;cancelled -->
<g id="edge3" class="edge transition">
<title>installing&#45;in&#45;progress&#45;&gt;cancelled</title>
<path fill="none" stroke="black" d="M157.6,-75.05C236.36,-79.48 371.67,-89.63 486,-111 488.64,-111.49 491.35,-112.06 494.06,-112.67"/>
<polygon fill="black" stroke="black" points="493.35,-116.09 503.89,-115.05 495,-109.29 493.35,-116.09"/>
<text text-anchor="start" x="199" y="-114" font-family="Helvetica,sans-Serif" font-size="10.00">Cancel Installation &#45; Installation canceled while host is installing &#160;&#160;</text>
</g>
<!-- installing&#45;pending&#45;user&#45;action -->
<g id="node6" class="node state regular">
<title>installing&#45;pending&#45;user&#45;action</title>
<polygon fill="#ffffff" fill-opacity="0.003922" stroke="transparent" stroke-width="2" points="181,-36 0,-36 0,0 181,0 181,-36"/>
<text text-anchor="start" x="11.5" y="-14.4" font-family="Helvetica,sans-Serif" font-size="12.00">installing&#45;pending&#45;user&#45;action</text>
<path fill="none" stroke="black" stroke-width="2" d="M12,-1.5C12,-1.5 169,-1.5 169,-1.5 174.5,-1.5 180,-7 180,-12.5 180,-12.5 180,-23.5 180,-23.5 180,-29 174.5,-34.5 169,-34.5 169,-34.5 12,-34.5 12,-34.5 6.5,-34.5 1,-29 1,-23.5 1,-23.5 1,-12.5 1,-12.5 1,-7 6.5,-1.5 12,-1.5"/>
</g>
<!-- installing&#45;pending&#45;user&#45;action&#45;&gt;cancelled -->
<g id="edge1" class="edge transition">
<title>installing&#45;pending&#45;user&#45;action&#45;&gt;cancelled</title>
<path fill="none" stroke="black" d="M181.17,-10.18C264.89,-6.89 390.86,-12.51 486,-63 501.66,-71.31 514.74,-86.19 524.1,-99.4"/>
<polygon fill="black" stroke="black" points="521.23,-101.4 529.71,-107.75 527.04,-97.5 521.23,-101.4"/>
<text text-anchor="start" x="199" y="-66" font-family="Helvetica,sans-Serif" font-size="10.00">Cancel Installation &#45; Installation canceled while host is installing &#160;&#160;</text>
</g>
</g>
</svg>
