<?xml version="1.0" encoding="UTF-8" standalone="no"?>
<!DOCTYPE svg PUBLIC "-//W3C//DTD SVG 1.1//EN"
 "http://www.w3.org/Graphics/SVG/1.1/DTD/svg11.dtd">
<!-- Generated by graphviz version 7.1.0 (0)
 -->
<!-- Title: state transitions Pages: 1 -->
<svg width="718pt" height="260pt"
 viewBox="0.00 0.00 717.50 260.00" xmlns="http://www.w3.org/2000/svg" xmlns:xlink="http://www.w3.org/1999/xlink">
<g id="graph0" class="graph" transform="scale(1 1) rotate(0) translate(4 256)">
<title>state transitions</title>
<polygon fill="white" stroke="none" points="-4,4 -4,-256 713.5,-256 713.5,4 -4,4"/>
<!-- cancelled -->
<g id="node1" class="node state regular">
<title>cancelled</title>
<polygon fill="#ffffff" fill-opacity="0.003922" stroke="none" stroke-width="2" points="578,-144 504,-144 504,-108 578,-108 578,-144"/>
<text text-anchor="start" x="515" y="-122.4" font-family="Helvetica,sans-Serif" font-size="12.00">cancelled</text>
<path fill="none" stroke="black" stroke-width="2" d="M516,-109.5C516,-109.5 566,-109.5 566,-109.5 571.5,-109.5 577,-115 577,-120.5 577,-120.5 577,-131.5 577,-131.5 577,-137 571.5,-142.5 566,-142.5 566,-142.5 516,-142.5 516,-142.5 510.5,-142.5 505,-137 505,-131.5 505,-131.5 505,-120.5 505,-120.5 505,-115 510.5,-109.5 516,-109.5"/>
</g>
<!-- cancelled&#45;&gt;cancelled -->
<g id="edge6" class="edge transition">
<title>cancelled&#45;&gt;cancelled</title>
<path fill="none" stroke="black" d="M523.16,-143.78C520.13,-153.31 526.07,-162 541,-162 549.4,-162 554.95,-159.25 557.66,-155.15"/>
<polygon fill="black" stroke="black" points="561.14,-155.59 558.69,-145.29 554.17,-154.87 561.14,-155.59"/>
<text text-anchor="start" x="372.5" y="-165" font-family="Helvetica,sans-Serif" font-size="10.00">Refresh &#45; Log collection timed out during cancelled should stay in cancelled &#160;&#160;</text>
</g>
<!-- cancelled&#45;&gt;cancelled -->
<g id="edge7" class="edge transition">
<title>cancelled&#45;&gt;cancelled</title>
<path fill="none" stroke="black" d="M511.16,-143.98C495.19,-161.2 505.14,-180 541,-180 570.42,-180 582.4,-167.35 576.94,-153.3"/>
<polygon fill="black" stroke="black" points="580.07,-151.7 571.67,-145.24 574.21,-155.53 580.07,-151.7"/>
<text text-anchor="start" x="407" y="-183" font-family="Helvetica,sans-Serif" font-size="10.00">Refresh &#45; Refresh during cancelled should stay in cancelled &#160;&#160;</text>
</g>
<!-- error -->
<g id="node2" class="node state regular">
<title>error</title>
<polygon fill="#ffffff" fill-opacity="0.003922" stroke="none" stroke-width="2" points="118.5,-252 62.5,-252 62.5,-216 118.5,-216 118.5,-252"/>
<text text-anchor="start" x="78" y="-230.4" font-family="Helvetica,sans-Serif" font-size="12.00">error</text>
<path fill="none" stroke="black" stroke-width="2" d="M74.5,-217.5C74.5,-217.5 106.5,-217.5 106.5,-217.5 112,-217.5 117.5,-223 117.5,-228.5 117.5,-228.5 117.5,-239.5 117.5,-239.5 117.5,-245 112,-250.5 106.5,-250.5 106.5,-250.5 74.5,-250.5 74.5,-250.5 69,-250.5 63.5,-245 63.5,-239.5 63.5,-239.5 63.5,-228.5 63.5,-228.5 63.5,-223 69,-217.5 74.5,-217.5"/>
</g>
<!-- error&#45;&gt;cancelled -->
<g id="edge5" class="edge transition">
<title>error&#45;&gt;cancelled</title>
<path fill="none" stroke="black" d="M118.32,-237.2C184.94,-243.86 361.57,-253.6 486,-188 501.09,-180.04 513.86,-166 523.19,-153.29"/>
<polygon fill="black" stroke="black" points="525.98,-155.42 528.77,-145.2 520.21,-151.44 525.98,-155.42"/>
<text text-anchor="start" x="199" y="-244" font-family="Helvetica,sans-Serif" font-size="10.00">Cancel Installation &#45; Installation canceled while host is installing &#160;&#160;</text>
</g>
<!-- installed -->
<g id="node3" class="node state regular">
<title>installed</title>
<polygon fill="#ffffff" fill-opacity="0.003922" stroke="none" stroke-width="2" points="124.5,-198 56.5,-198 56.5,-162 124.5,-162 124.5,-198"/>
<text text-anchor="start" x="67.5" y="-176.4" font-family="Helvetica,sans-Serif" font-size="12.00">installed</text>
<path fill="none" stroke="black" stroke-width="2" d="M68.5,-163.5C68.5,-163.5 112.5,-163.5 112.5,-163.5 118,-163.5 123.5,-169 123.5,-174.5 123.5,-174.5 123.5,-185.5 123.5,-185.5 123.5,-191 118,-196.5 112.5,-196.5 112.5,-196.5 68.5,-196.5 68.5,-196.5 63,-196.5 57.5,-191 57.5,-185.5 57.5,-185.5 57.5,-174.5 57.5,-174.5 57.5,-169 63,-163.5 68.5,-163.5"/>
</g>
<!-- installed&#45;&gt;cancelled -->
<g id="edge4" class="edge transition">
<title>installed&#45;&gt;cancelled</title>
<path fill="none" stroke="black" d="M124.24,-178.67C192.19,-175.5 353.23,-165.81 486,-141 488.32,-140.57 490.68,-140.08 493.05,-139.56"/>
<polygon fill="black" stroke="black" points="493.81,-142.98 502.71,-137.23 492.17,-136.17 493.81,-142.98"/>
<text text-anchor="start" x="199" y="-176" font-family="Helvetica,sans-Serif" font-size="10.00">Cancel Installation &#45; Installation canceled while host is installing &#160;&#160;</text>
</g>
<!-- installing -->
<g id="node4" class="node state regular">
<title>installing</title>
<polygon fill="#ffffff" fill-opacity="0.003922" stroke="none" stroke-width="2" points="126,-144 55,-144 55,-108 126,-108 126,-144"/>
<text text-anchor="start" x="66.5" y="-122.4" font-family="Helvetica,sans-Serif" font-size="12.00">installing</text>
<path fill="none" stroke="black" stroke-width="2" d="M67,-109.5C67,-109.5 114,-109.5 114,-109.5 119.5,-109.5 125,-115 125,-120.5 125,-120.5 125,-131.5 125,-131.5 125,-137 119.5,-142.5 114,-142.5 114,-142.5 67,-142.5 67,-142.5 61.5,-142.5 56,-137 56,-131.5 56,-131.5 56,-120.5 56,-120.5 56,-115 61.5,-109.5 67,-109.5"/>
</g>
<!-- installing&#45;&gt;cancelled -->
<g id="edge2" class="edge transition">
<title>installing&#45;&gt;cancelled</title>
<path fill="none" stroke="black" d="M125.95,-126C205.53,-126 402.27,-126 492.9,-126"/>
<polygon fill="black" stroke="black" points="492.68,-129.5 502.68,-126 492.68,-122.5 492.68,-129.5"/>
<text text-anchor="start" x="199" y="-129" font-family="Helvetica,sans-Serif" font-size="10.00">Cancel Installation &#45; Installation canceled while host is installing &#160;&#160;</text>
</g>
<!-- installing&#45;in&#45;progress -->
<g id="node5" class="node state regular">
<title>installing&#45;in&#45;progress</title>
<polygon fill="#ffffff" fill-opacity="0.003922" stroke="none" stroke-width="2" points="157.5,-90 23.5,-90 23.5,-54 157.5,-54 157.5,-90"/>
<text text-anchor="start" x="34.5" y="-68.4" font-family="Helvetica,sans-Serif" font-size="12.00">installing&#45;in&#45;progress</text>
<path fill="none" stroke="black" stroke-width="2" d="M35.5,-55.5C35.5,-55.5 145.5,-55.5 145.5,-55.5 151,-55.5 156.5,-61 156.5,-66.5 156.5,-66.5 156.5,-77.5 156.5,-77.5 156.5,-83 151,-88.5 145.5,-88.5 145.5,-88.5 35.5,-88.5 35.5,-88.5 30,-88.5 24.5,-83 24.5,-77.5 24.5,-77.5 24.5,-66.5 24.5,-66.5 24.5,-61 30,-55.5 35.5,-55.5"/>
</g>
<!-- installing&#45;in&#45;progress&#45;&gt;cancelled -->
<g id="edge3" class="edge transition">
<title>installing&#45;in&#45;progress&#45;&gt;cancelled</title>
<path fill="none" stroke="black" d="M157.26,-75.03C235.96,-79.45 371.5,-89.6 486,-111 488.32,-111.43 490.68,-111.92 493.05,-112.44"/>
<polygon fill="black" stroke="black" points="492.17,-115.83 502.71,-114.77 493.81,-109.02 492.17,-115.83"/>
<text text-anchor="start" x="199" y="-114" font-family="Helvetica,sans-Serif" font-size="10.00">Cancel Installation &#45; Installation canceled while host is installing &#160;&#160;</text>
</g>
<!-- installing&#45;pending&#45;user&#45;action -->
<g id="node6" class="node state regular">
<title>installing&#45;pending&#45;user&#45;action</title>
<polygon fill="#ffffff" fill-opacity="0.003922" stroke="none" stroke-width="2" points="181,-36 0,-36 0,0 181,0 181,-36"/>
<text text-anchor="start" x="11.5" y="-14.4" font-family="Helvetica,sans-Serif" font-size="12.00">installing&#45;pending&#45;user&#45;action</text>
<path fill="none" stroke="black" stroke-width="2" d="M12,-1.5C12,-1.5 169,-1.5 169,-1.5 174.5,-1.5 180,-7 180,-12.5 180,-12.5 180,-23.5 180,-23.5 180,-29 174.5,-34.5 169,-34.5 169,-34.5 12,-34.5 12,-34.5 6.5,-34.5 1,-29 1,-23.5 1,-23.5 1,-12.5 1,-12.5 1,-7 6.5,-1.5 12,-1.5"/>
</g>
<!-- installing&#45;pending&#45;user&#45;action&#45;&gt;cancelled -->
<g id="edge1" class="edge transition">
<title>installing&#45;pending&#45;user&#45;action&#45;&gt;cancelled</title>
<path fill="none" stroke="black" d="M180.77,-10.19C264.49,-6.87 390.71,-12.43 486,-63 501.31,-71.13 514.16,-85.53 523.48,-98.52"/>
<polygon fill="black" stroke="black" points="520.56,-100.45 529.05,-106.79 526.37,-96.54 520.56,-100.45"/>
<text text-anchor="start" x="199" y="-66" font-family="Helvetica,sans-Serif" font-size="10.00">Cancel Installation &#45; Installation canceled while host is installing &#160;&#160;</text>
</g>
</g>
</svg>
