<?xml version="1.0" encoding="UTF-8" standalone="no"?>
<!DOCTYPE svg PUBLIC "-//W3C//DTD SVG 1.1//EN"
 "http://www.w3.org/Graphics/SVG/1.1/DTD/svg11.dtd">
<!-- Generated by graphviz version 7.1.0 (0)
 -->
<!-- Title: state transitions Pages: 1 -->
<svg width="607pt" height="419pt"
 viewBox="0.00 0.00 607.00 419.18" xmlns="http://www.w3.org/2000/svg" xmlns:xlink="http://www.w3.org/1999/xlink">
<g id="graph0" class="graph" transform="scale(1 1) rotate(0) translate(4 415.18)">
<title>state transitions</title>
<polygon fill="white" stroke="none" points="-4,4 -4,-415.18 603,-415.18 603,4 -4,4"/>
<!-- disconnected -->
<g id="node1" class="node state regular">
<title>disconnected</title>
<polygon fill="#ffffff" fill-opacity="0.003922" stroke="none" stroke-width="2" points="123,-379.18 29,-379.18 29,-343.18 123,-343.18 123,-379.18"/>
<text text-anchor="start" x="40" y="-357.58" font-family="Helvetica,sans-Serif" font-size="12.00">disconnected</text>
<path fill="none" stroke="black" stroke-width="2" d="M41,-344.68C41,-344.68 111,-344.68 111,-344.68 116.5,-344.68 122,-350.18 122,-355.68 122,-355.68 122,-366.68 122,-366.68 122,-372.18 116.5,-377.68 111,-377.68 111,-377.68 41,-377.68 41,-377.68 35.5,-377.68 30,-372.18 30,-366.68 30,-366.68 30,-355.68 30,-355.68 30,-350.18 35.5,-344.68 41,-344.68"/>
</g>
<!-- insufficient -->
<g id="node3" class="node state regular">
<title>insufficient</title>
<polygon fill="#ffffff" fill-opacity="0.003922" stroke="none" stroke-width="2" points="547,-247.18 467,-247.18 467,-211.18 547,-211.18 547,-247.18"/>
<text text-anchor="start" x="478" y="-225.58" font-family="Helvetica,sans-Serif" font-size="12.00">insufficient</text>
<path fill="none" stroke="black" stroke-width="2" d="M479,-212.68C479,-212.68 535,-212.68 535,-212.68 540.5,-212.68 546,-218.18 546,-223.68 546,-223.68 546,-234.68 546,-234.68 546,-240.18 540.5,-245.68 535,-245.68 535,-245.68 479,-245.68 479,-245.68 473.5,-245.68 468,-240.18 468,-234.68 468,-234.68 468,-223.68 468,-223.68 468,-218.18 473.5,-212.68 479,-212.68"/>
</g>
<!-- disconnected&#45;&gt;insufficient -->
<g id="edge4" class="edge transition">
<title>disconnected&#45;&gt;insufficient</title>
<path fill="none" stroke="black" d="M122.72,-375.8C197.73,-396.8 348.62,-426.17 449,-360.18 483.37,-337.59 497.13,-289.3 502.56,-258.09"/>
<polygon fill="black" stroke="black" points="505.96,-258.96 504.03,-248.55 499.05,-257.9 505.96,-258.96"/>
<text text-anchor="start" x="217.5" y="-403.18" font-family="Helvetica,sans-Serif" font-size="10.00">Refresh &#45; Host has insufficient hardware &#160;&#160;</text>
</g>
<!-- disconnected&#45;&gt;insufficient -->
<g id="edge8" class="edge transition">
<title>disconnected&#45;&gt;insufficient</title>
<path fill="none" stroke="black" d="M122.8,-353.66C137.81,-351.36 154.59,-348.97 170,-347.18 231.79,-339.99 396.17,-357.03 449,-324.18 473.06,-309.22 488.31,-280.02 496.91,-257.92"/>
<polygon fill="black" stroke="black" points="500.19,-259.14 500.31,-248.55 493.61,-256.76 500.19,-259.14"/>
<text text-anchor="start" x="251" y="-350.18" font-family="Helvetica,sans-Serif" font-size="10.00">Refresh &#45; Host not ready &#160;&#160;</text>
</g>
<!-- discovering -->
<g id="node2" class="node state regular">
<title>discovering</title>
<polygon fill="#ffffff" fill-opacity="0.003922" stroke="none" stroke-width="2" points="118,-318.18 34,-318.18 34,-282.18 118,-282.18 118,-318.18"/>
<text text-anchor="start" x="45" y="-296.58" font-family="Helvetica,sans-Serif" font-size="12.00">discovering</text>
<path fill="none" stroke="black" stroke-width="2" d="M46,-283.68C46,-283.68 106,-283.68 106,-283.68 111.5,-283.68 117,-289.18 117,-294.68 117,-294.68 117,-305.68 117,-305.68 117,-311.18 111.5,-316.68 106,-316.68 106,-316.68 46,-316.68 46,-316.68 40.5,-316.68 35,-311.18 35,-305.68 35,-305.68 35,-294.68 35,-294.68 35,-289.18 40.5,-283.68 46,-283.68"/>
</g>
<!-- discovering&#45;&gt;insufficient -->
<g id="edge5" class="edge transition">
<title>discovering&#45;&gt;insufficient</title>
<path fill="none" stroke="black" d="M117.95,-303.32C202.03,-309.1 391.12,-318.62 449,-292.18 465.52,-284.64 479.33,-269.78 489.22,-256.39"/>
<polygon fill="black" stroke="black" points="492.03,-258.47 494.85,-248.26 486.28,-254.49 492.03,-258.47"/>
<text text-anchor="start" x="217.5" y="-312.18" font-family="Helvetica,sans-Serif" font-size="10.00">Refresh &#45; Host has insufficient hardware &#160;&#160;</text>
</g>
<!-- discovering&#45;&gt;insufficient -->
<g id="edge11" class="edge transition">
<title>discovering&#45;&gt;insufficient</title>
<path fill="none" stroke="black" d="M117.56,-290.09C133.8,-286.29 152.71,-282.18 170,-279.18 293.08,-257.84 326.51,-269.69 449,-245.18 451.32,-244.72 453.69,-244.21 456.07,-243.66"/>
<polygon fill="black" stroke="black" points="456.91,-247.06 465.78,-241.27 455.23,-240.26 456.91,-247.06"/>
<text text-anchor="start" x="251" y="-282.18" font-family="Helvetica,sans-Serif" font-size="10.00">Refresh &#45; Host not ready &#160;&#160;</text>
</g>
<!-- insufficient&#45;&gt;insufficient -->
<g id="edge6" class="edge transition">
<title>insufficient&#45;&gt;insufficient</title>
<path fill="none" stroke="black" d="M489.25,-246.96C486.23,-256.5 492.15,-265.18 507,-265.18 515.35,-265.18 520.88,-262.43 523.58,-258.33"/>
<polygon fill="black" stroke="black" points="527.05,-258.78 524.6,-248.47 520.09,-258.06 527.05,-258.78"/>
<text text-anchor="start" x="415" y="-268.18" font-family="Helvetica,sans-Serif" font-size="10.00">Refresh &#45; Host has insufficient hardware &#160;&#160;</text>
</g>
<!-- insufficient&#45;&gt;insufficient -->
<g id="edge9" class="edge transition">
<title>insufficient&#45;&gt;insufficient</title>
<path fill="none" stroke="black" d="M477.31,-247.16C461.42,-264.38 471.32,-283.18 507,-283.18 536.27,-283.18 548.19,-270.53 542.76,-256.48"/>
<polygon fill="black" stroke="black" points="545.9,-254.9 537.51,-248.43 540.04,-258.72 545.9,-254.9"/>
<text text-anchor="start" x="448.5" y="-286.18" font-family="Helvetica,sans-Serif" font-size="10.00">Refresh &#45; Host not ready &#160;&#160;</text>
</g>
<!-- known -->
<g id="node4" class="node state regular">
<title>known</title>
<polygon fill="#ffffff" fill-opacity="0.003922" stroke="none" stroke-width="2" points="105,-230.18 47,-230.18 47,-194.18 105,-194.18 105,-230.18"/>
<text text-anchor="start" x="58" y="-208.58" font-family="Helvetica,sans-Serif" font-size="12.00">known</text>
<path fill="none" stroke="black" stroke-width="2" d="M59,-195.68C59,-195.68 93,-195.68 93,-195.68 98.5,-195.68 104,-201.18 104,-206.68 104,-206.68 104,-217.68 104,-217.68 104,-223.18 98.5,-228.68 93,-228.68 93,-228.68 59,-228.68 59,-228.68 53.5,-228.68 48,-223.18 48,-217.68 48,-217.68 48,-206.68 48,-206.68 48,-201.18 53.5,-195.68 59,-195.68"/>
</g>
<!-- known&#45;&gt;insufficient -->
<g id="edge3" class="edge transition">
<title>known&#45;&gt;insufficient</title>
<path fill="none" stroke="black" d="M105,-216.64C123.42,-219.36 148.08,-222.61 170,-224.18 271.28,-231.45 390.16,-231.14 455.89,-230.21"/>
<polygon fill="black" stroke="black" points="455.68,-233.71 465.62,-230.06 455.57,-226.71 455.68,-233.71"/>
<text text-anchor="start" x="170" y="-233.18" font-family="Helvetica,sans-Serif" font-size="10.00">Refresh &#45; Preparing failed disk speed host move to insufficient &#160;&#160;</text>
</g>
<!-- known&#45;&gt;insufficient -->
<g id="edge7" class="edge transition">
<title>known&#45;&gt;insufficient</title>
<path fill="none" stroke="black" d="M104.67,-211.81C123.17,-211.57 148.04,-211.3 170,-211.18 294,-210.52 326.45,-192.29 449,-211.18 451.32,-211.54 453.68,-211.98 456.05,-212.47"/>
<polygon fill="black" stroke="black" points="455.11,-215.85 465.66,-214.82 456.77,-209.05 455.11,-215.85"/>
<text text-anchor="start" x="217.5" y="-214.18" font-family="Helvetica,sans-Serif" font-size="10.00">Refresh &#45; Host has insufficient hardware &#160;&#160;</text>
</g>
<!-- known&#45;&gt;insufficient -->
<g id="edge12" class="edge transition">
<title>known&#45;&gt;insufficient</title>
<path fill="none" stroke="black" d="M104.69,-202.69C122.98,-196.93 147.62,-190.14 170,-187.18 292.93,-170.95 331.2,-148.47 449,-187.18 459.83,-190.74 470.3,-197.24 479.24,-204.07"/>
<polygon fill="black" stroke="black" points="476.84,-206.63 486.79,-210.25 481.27,-201.21 476.84,-206.63"/>
<text text-anchor="start" x="251" y="-190.18" font-family="Helvetica,sans-Serif" font-size="10.00">Refresh &#45; Host not ready &#160;&#160;</text>
</g>
<!-- pending&#45;for&#45;input -->
<g id="node5" class="node state regular">
<title>pending&#45;for&#45;input</title>
<polygon fill="#ffffff" fill-opacity="0.003922" stroke="none" stroke-width="2" points="132.5,-169.18 19.5,-169.18 19.5,-133.18 132.5,-133.18 132.5,-169.18"/>
<text text-anchor="start" x="31" y="-147.58" font-family="Helvetica,sans-Serif" font-size="12.00">pending&#45;for&#45;input</text>
<path fill="none" stroke="black" stroke-width="2" d="M31.5,-134.68C31.5,-134.68 120.5,-134.68 120.5,-134.68 126,-134.68 131.5,-140.18 131.5,-145.68 131.5,-145.68 131.5,-156.68 131.5,-156.68 131.5,-162.18 126,-167.68 120.5,-167.68 120.5,-167.68 31.5,-167.68 31.5,-167.68 26,-167.68 20.5,-162.18 20.5,-156.68 20.5,-156.68 20.5,-145.68 20.5,-145.68 20.5,-140.18 26,-134.68 31.5,-134.68"/>
</g>
<!-- pending&#45;for&#45;input&#45;&gt;insufficient -->
<g id="edge10" class="edge transition">
<title>pending&#45;for&#45;input&#45;&gt;insufficient</title>
<path fill="none" stroke="black" d="M132.34,-136.08C208.36,-118.53 347.23,-98.12 449,-150.18 469.8,-160.82 484.74,-182.98 494.1,-201.12"/>
<polygon fill="black" stroke="black" points="490.94,-202.64 498.43,-210.13 497.25,-199.6 490.94,-202.64"/>
<text text-anchor="start" x="251" y="-153.18" font-family="Helvetica,sans-Serif" font-size="10.00">Refresh &#45; Host not ready &#160;&#160;</text>
</g>
<!-- preparing&#45;failed -->
<g id="node6" class="node state regular">
<title>preparing&#45;failed</title>
<polygon fill="#ffffff" fill-opacity="0.003922" stroke="none" stroke-width="2" points="129.5,-115.18 22.5,-115.18 22.5,-79.18 129.5,-79.18 129.5,-115.18"/>
<text text-anchor="start" x="34" y="-93.58" font-family="Helvetica,sans-Serif" font-size="12.00">preparing&#45;failed</text>
<path fill="none" stroke="black" stroke-width="2" d="M34.5,-80.68C34.5,-80.68 117.5,-80.68 117.5,-80.68 123,-80.68 128.5,-86.18 128.5,-91.68 128.5,-91.68 128.5,-102.68 128.5,-102.68 128.5,-108.18 123,-113.68 117.5,-113.68 117.5,-113.68 34.5,-113.68 34.5,-113.68 29,-113.68 23.5,-108.18 23.5,-102.68 23.5,-102.68 23.5,-91.68 23.5,-91.68 23.5,-86.18 29,-80.68 34.5,-80.68"/>
</g>
<!-- preparing&#45;failed&#45;&gt;insufficient -->
<g id="edge2" class="edge transition">
<title>preparing&#45;failed&#45;&gt;insufficient</title>
<path fill="none" stroke="black" d="M129.24,-81.4C206.19,-61.5 351.43,-37.08 449,-101.18 482.38,-123.12 496.39,-169.57 502.15,-200.07"/>
<polygon fill="black" stroke="black" points="498.67,-200.5 503.78,-209.78 505.57,-199.34 498.67,-200.5"/>
<text text-anchor="start" x="170" y="-104.18" font-family="Helvetica,sans-Serif" font-size="10.00">Refresh &#45; Preparing failed disk speed host move to insufficient &#160;&#160;</text>
</g>
<!-- preparing&#45;for&#45;installation -->
<g id="node7" class="node state regular">
<title>preparing&#45;for&#45;installation</title>
<polygon fill="#ffffff" fill-opacity="0.003922" stroke="none" stroke-width="2" points="152,-61.18 0,-61.18 0,-25.18 152,-25.18 152,-61.18"/>
<text text-anchor="start" x="11" y="-39.58" font-family="Helvetica,sans-Serif" font-size="12.00">preparing&#45;for&#45;installation</text>
<path fill="none" stroke="black" stroke-width="2" d="M12,-26.68C12,-26.68 140,-26.68 140,-26.68 145.5,-26.68 151,-32.18 151,-37.68 151,-37.68 151,-48.68 151,-48.68 151,-54.18 145.5,-59.68 140,-59.68 140,-59.68 12,-59.68 12,-59.68 6.5,-59.68 1,-54.18 1,-48.68 1,-48.68 1,-37.68 1,-37.68 1,-32.18 6.5,-26.68 12,-26.68"/>
</g>
<!-- preparing&#45;for&#45;installation&#45;&gt;insufficient -->
<g id="edge1" class="edge transition">
<title>preparing&#45;for&#45;installation&#45;&gt;insufficient</title>
<path fill="none" stroke="black" d="M130.86,-25.2C209.21,-2.69 355.44,25.09 449,-44.18 497.8,-80.31 506.11,-157.58 506.77,-199.94"/>
<polygon fill="black" stroke="black" points="503.27,-199.87 506.78,-209.87 510.27,-199.87 503.27,-199.87"/>
<text text-anchor="start" x="170" y="-47.18" font-family="Helvetica,sans-Serif" font-size="10.00">Refresh &#45; Preparing failed disk speed host move to insufficient &#160;&#160;</text>
</g>
</g>
</svg>
