<?xml version="1.0" encoding="UTF-8" standalone="no"?>
<!DOCTYPE svg PUBLIC "-//W3C//DTD SVG 1.1//EN"
 "http://www.w3.org/Graphics/SVG/1.1/DTD/svg11.dtd">
<!-- Generated by graphviz version 12.1.0 (20240811.2233)
 -->
<!-- Title: state transitions Pages: 1 -->
<svg width="794pt" height="269pt"
 viewBox="0.00 0.00 794.00 268.52" xmlns="http://www.w3.org/2000/svg" xmlns:xlink="http://www.w3.org/1999/xlink">
<g id="graph0" class="graph" transform="scale(1 1) rotate(0) translate(4 264.52)">
<title>state transitions</title>
<polygon fill="white" stroke="none" points="-4,4 -4,-264.52 790,-264.52 790,4 -4,4"/>
<!-- cancelled -->
<g id="node1" class="node state regular">
<title>cancelled</title>
<polygon fill="#ffffff" fill-opacity="0.003922" stroke="none" stroke-width="2" points="636.5,-144.25 557.5,-144.25 557.5,-108 636.5,-108 636.5,-144.25"/>
<text text-anchor="start" x="568.5" y="-121.85" font-family="Helvetica,sans-Serif" font-size="12.00">cancelled</text>
<path fill="none" stroke="black" stroke-width="2" d="M569.92,-109C569.92,-109 624.08,-109 624.08,-109 629.79,-109 635.5,-114.71 635.5,-120.42 635.5,-120.42 635.5,-131.83 635.5,-131.83 635.5,-137.54 629.79,-143.25 624.08,-143.25 624.08,-143.25 569.92,-143.25 569.92,-143.25 564.21,-143.25 558.5,-137.54 558.5,-131.83 558.5,-131.83 558.5,-120.42 558.5,-120.42 558.5,-114.71 564.21,-109 569.92,-109"/>
</g>
<!-- cancelled&#45;&gt;cancelled -->
<g id="edge1" class="edge transition">
<title>cancelled&#45;&gt;cancelled</title>
<path fill="none" stroke="black" d="M577.3,-143.97C573.96,-153.53 580.52,-162.25 597,-162.25 606.27,-162.25 612.4,-159.49 615.4,-155.38"/>
<polygon fill="black" stroke="black" points="618.87,-155.8 616.52,-145.47 611.92,-155.01 618.87,-155.8"/>
<text text-anchor="start" x="408" y="-165.5" font-family="Helvetica,sans-Serif" font-size="10.00">Refresh &#45; Log collection timed out during cancelled should stay in cancelled &#160;&#160;</text>
</g>
<!-- cancelled&#45;&gt;cancelled -->
<g id="edge2" class="edge transition">
<title>cancelled&#45;&gt;cancelled</title>
<path fill="none" stroke="black" d="M564.06,-144.14C546.43,-161.41 557.41,-180.25 597,-180.25 629.47,-180.25 642.7,-167.57 636.67,-153.48"/>
<polygon fill="black" stroke="black" points="639.51,-151.44 630.82,-145.37 633.83,-155.53 639.51,-151.44"/>
<text text-anchor="start" x="448.12" y="-183.5" font-family="Helvetica,sans-Serif" font-size="10.00">Refresh &#45; Refresh during cancelled should stay in cancelled &#160;&#160;</text>
</g>
<!-- error -->
<g id="node2" class="node state regular">
<title>error</title>
<polygon fill="#ffffff" fill-opacity="0.003922" stroke="none" stroke-width="2" points="127.12,-252.25 71.12,-252.25 71.12,-216 127.12,-216 127.12,-252.25"/>
<text text-anchor="start" x="84.5" y="-229.85" font-family="Helvetica,sans-Serif" font-size="12.00">error</text>
<path fill="none" stroke="black" stroke-width="2" d="M83.54,-217C83.54,-217 114.71,-217 114.71,-217 120.42,-217 126.12,-222.71 126.12,-228.42 126.12,-228.42 126.12,-239.83 126.12,-239.83 126.12,-245.54 120.42,-251.25 114.71,-251.25 114.71,-251.25 83.54,-251.25 83.54,-251.25 77.83,-251.25 72.12,-245.54 72.12,-239.83 72.12,-239.83 72.12,-228.42 72.12,-228.42 72.12,-222.71 77.83,-217 83.54,-217"/>
</g>
<!-- error&#45;&gt;cancelled -->
<g id="edge3" class="edge transition">
<title>error&#45;&gt;cancelled</title>
<path fill="none" stroke="black" d="M127.07,-238.3C198.91,-248.1 399.12,-266.5 539.5,-193.12 556.48,-184.25 570.43,-167.89 580.22,-153.56"/>
<polygon fill="black" stroke="black" points="583.03,-155.66 585.5,-145.35 577.14,-151.87 583.03,-155.66"/>
<text text-anchor="start" x="216.25" y="-251.02" font-family="Helvetica,sans-Serif" font-size="10.00">Cancel Installation &#45; Installation canceled while host is installing &#160;&#160;</text>
</g>
<!-- installed -->
<g id="node3" class="node state regular">
<title>installed</title>
<polygon fill="#ffffff" fill-opacity="0.003922" stroke="none" stroke-width="2" points="134.88,-198.25 63.38,-198.25 63.38,-162 134.88,-162 134.88,-198.25"/>
<text text-anchor="start" x="74.38" y="-175.85" font-family="Helvetica,sans-Serif" font-size="12.00">installed</text>
<path fill="none" stroke="black" stroke-width="2" d="M75.79,-163C75.79,-163 122.46,-163 122.46,-163 128.17,-163 133.88,-168.71 133.88,-174.42 133.88,-174.42 133.88,-185.83 133.88,-185.83 133.88,-191.54 128.17,-197.25 122.46,-197.25 122.46,-197.25 75.79,-197.25 75.79,-197.25 70.08,-197.25 64.38,-191.54 64.38,-185.83 64.38,-185.83 64.38,-174.42 64.38,-174.42 64.38,-168.71 70.08,-163 75.79,-163"/>
</g>
<!-- installed&#45;&gt;cancelled -->
<g id="edge4" class="edge transition">
<title>installed&#45;&gt;cancelled</title>
<path fill="none" stroke="black" d="M134.64,-179.65C209.2,-178.1 390.6,-171.47 539.5,-143.12 541.82,-142.68 544.18,-142.18 546.55,-141.64"/>
<polygon fill="black" stroke="black" points="547.37,-145.04 556.2,-139.2 545.65,-138.26 547.37,-145.04"/>
<text text-anchor="start" x="216.25" y="-180.11" font-family="Helvetica,sans-Serif" font-size="10.00">Cancel Installation &#45; Installation canceled while host is installing &#160;&#160;</text>
</g>
<!-- installing -->
<g id="node4" class="node state regular">
<title>installing</title>
<polygon fill="#ffffff" fill-opacity="0.003922" stroke="none" stroke-width="2" points="136.38,-144.25 61.88,-144.25 61.88,-108 136.38,-108 136.38,-144.25"/>
<text text-anchor="start" x="72.88" y="-121.85" font-family="Helvetica,sans-Serif" font-size="12.00">installing</text>
<path fill="none" stroke="black" stroke-width="2" d="M74.29,-109C74.29,-109 123.96,-109 123.96,-109 129.67,-109 135.38,-114.71 135.38,-120.42 135.38,-120.42 135.38,-131.83 135.38,-131.83 135.38,-137.54 129.67,-143.25 123.96,-143.25 123.96,-143.25 74.29,-143.25 74.29,-143.25 68.58,-143.25 62.88,-137.54 62.88,-131.83 62.88,-131.83 62.88,-120.42 62.88,-120.42 62.88,-114.71 68.58,-109 74.29,-109"/>
</g>
<!-- installing&#45;&gt;cancelled -->
<g id="edge5" class="edge transition">
<title>installing&#45;&gt;cancelled</title>
<path fill="none" stroke="black" d="M136.19,-126.12C223.55,-126.12 446.65,-126.12 546.45,-126.12"/>
<polygon fill="black" stroke="black" points="546.19,-129.63 556.19,-126.13 546.19,-122.63 546.19,-129.63"/>
<text text-anchor="start" x="216.25" y="-129.38" font-family="Helvetica,sans-Serif" font-size="10.00">Cancel Installation &#45; Installation canceled while host is installing &#160;&#160;</text>
</g>
<!-- installing&#45;in&#45;progress -->
<g id="node5" class="node state regular">
<title>installing&#45;in&#45;progress</title>
<polygon fill="#ffffff" fill-opacity="0.003922" stroke="none" stroke-width="2" points="171.62,-90.25 26.62,-90.25 26.62,-54 171.62,-54 171.62,-90.25"/>
<text text-anchor="start" x="37.62" y="-67.85" font-family="Helvetica,sans-Serif" font-size="12.00">installing&#45;in&#45;progress</text>
<path fill="none" stroke="black" stroke-width="2" d="M39.04,-55C39.04,-55 159.21,-55 159.21,-55 164.92,-55 170.62,-60.71 170.62,-66.42 170.62,-66.42 170.62,-77.83 170.62,-77.83 170.62,-83.54 164.92,-89.25 159.21,-89.25 159.21,-89.25 39.04,-89.25 39.04,-89.25 33.33,-89.25 27.62,-83.54 27.62,-77.83 27.62,-77.83 27.62,-66.42 27.62,-66.42 27.62,-60.71 33.33,-55 39.04,-55"/>
</g>
<!-- installing&#45;in&#45;progress&#45;&gt;cancelled -->
<g id="edge6" class="edge transition">
<title>installing&#45;in&#45;progress&#45;&gt;cancelled</title>
<path fill="none" stroke="black" d="M171.5,-73.72C258.93,-76.69 411.24,-85.19 539.5,-109.38 541.82,-109.81 544.17,-110.31 546.55,-110.84"/>
<polygon fill="black" stroke="black" points="545.64,-114.22 556.19,-113.25 547.34,-107.43 545.64,-114.22"/>
<text text-anchor="start" x="216.25" y="-112.62" font-family="Helvetica,sans-Serif" font-size="10.00">Cancel Installation &#45; Installation canceled while host is installing &#160;&#160;</text>
</g>
<!-- installing&#45;pending&#45;user&#45;action -->
<g id="node6" class="node state regular">
<title>installing&#45;pending&#45;user&#45;action</title>
<polygon fill="#ffffff" fill-opacity="0.003922" stroke="none" stroke-width="2" points="198.25,-36.25 0,-36.25 0,0 198.25,0 198.25,-36.25"/>
<text text-anchor="start" x="11" y="-13.85" font-family="Helvetica,sans-Serif" font-size="12.00">installing&#45;pending&#45;user&#45;action</text>
<path fill="none" stroke="black" stroke-width="2" d="M12.42,-1C12.42,-1 185.83,-1 185.83,-1 191.54,-1 197.25,-6.71 197.25,-12.42 197.25,-12.42 197.25,-23.83 197.25,-23.83 197.25,-29.54 191.54,-35.25 185.83,-35.25 185.83,-35.25 12.42,-35.25 12.42,-35.25 6.71,-35.25 1,-29.54 1,-23.83 1,-23.83 1,-12.42 1,-12.42 1,-6.71 6.71,-1 12.42,-1"/>
</g>
<!-- installing&#45;pending&#45;user&#45;action&#45;&gt;cancelled -->
<g id="edge7" class="edge transition">
<title>installing&#45;pending&#45;user&#45;action&#45;&gt;cancelled</title>
<path fill="none" stroke="black" d="M198.21,-6.47C291.44,0.01 432.86,-2.38 539.5,-58.38 556.69,-67.4 570.71,-84.1 580.48,-98.66"/>
<polygon fill="black" stroke="black" points="577.45,-100.41 585.75,-106.99 583.36,-96.67 577.45,-100.41"/>
<text text-anchor="start" x="216.25" y="-61.62" font-family="Helvetica,sans-Serif" font-size="10.00">Cancel Installation &#45; Installation canceled while host is installing &#160;&#160;</text>
</g>
</g>
</svg>
