<?xml version="1.0" encoding="UTF-8" standalone="no"?>
<!DOCTYPE svg PUBLIC "-//W3C//DTD SVG 1.1//EN"
 "http://www.w3.org/Graphics/SVG/1.1/DTD/svg11.dtd">
<!-- Generated by graphviz version 12.1.0 (20240811.2233)
 -->
<!-- Title: state transitions Pages: 1 -->
<svg width="1057pt" height="167pt"
 viewBox="0.00 0.00 1057.25 166.91" xmlns="http://www.w3.org/2000/svg" xmlns:xlink="http://www.w3.org/1999/xlink">
<g id="graph0" class="graph" transform="scale(1 1) rotate(0) translate(4 162.91)">
<title>state transitions</title>
<polygon fill="white" stroke="none" points="-4,4 -4,-162.91 1053.25,-162.91 1053.25,4 -4,4"/>
<!-- added&#45;to&#45;existing&#45;cluster -->
<g id="node1" class="node state regular">
<title>added&#45;to&#45;existing&#45;cluster</title>
<polygon fill="#ffffff" fill-opacity="0.003922" stroke="none" stroke-width="2" points="171.25,-102.66 0,-102.66 0,-66.41 171.25,-66.41 171.25,-102.66"/>
<text text-anchor="start" x="11" y="-80.26" font-family="Helvetica,sans-Serif" font-size="12.00">added&#45;to&#45;existing&#45;cluster</text>
<path fill="none" stroke="black" stroke-width="2" d="M12.42,-67.41C12.42,-67.41 158.83,-67.41 158.83,-67.41 164.54,-67.41 170.25,-73.12 170.25,-78.83 170.25,-78.83 170.25,-90.25 170.25,-90.25 170.25,-95.96 164.54,-101.66 158.83,-101.66 158.83,-101.66 12.42,-101.66 12.42,-101.66 6.71,-101.66 1,-95.96 1,-90.25 1,-90.25 1,-78.83 1,-78.83 1,-73.12 6.71,-67.41 12.42,-67.41"/>
</g>
<!-- installing&#45;pending&#45;user&#45;action -->
<g id="node2" class="node state regular">
<title>installing&#45;pending&#45;user&#45;action</title>
<polygon fill="#ffffff" fill-opacity="0.003922" stroke="none" stroke-width="2" points="716,-66.66 517.75,-66.66 517.75,-30.41 716,-30.41 716,-66.66"/>
<text text-anchor="start" x="528.75" y="-44.26" font-family="Helvetica,sans-Serif" font-size="12.00">installing&#45;pending&#45;user&#45;action</text>
<path fill="none" stroke="black" stroke-width="2" d="M530.17,-31.41C530.17,-31.41 703.58,-31.41 703.58,-31.41 709.29,-31.41 715,-37.12 715,-42.83 715,-42.83 715,-54.25 715,-54.25 715,-59.96 709.29,-65.66 703.58,-65.66 703.58,-65.66 530.17,-65.66 530.17,-65.66 524.46,-65.66 518.75,-59.96 518.75,-54.25 518.75,-54.25 518.75,-42.83 518.75,-42.83 518.75,-37.12 524.46,-31.41 530.17,-31.41"/>
</g>
<!-- added&#45;to&#45;existing&#45;cluster&#45;&gt;installing&#45;pending&#45;user&#45;action -->
<g id="edge1" class="edge transition">
<title>added&#45;to&#45;existing&#45;cluster&#45;&gt;installing&#45;pending&#45;user&#45;action</title>
<path fill="none" stroke="black" d="M170.93,-79.8C254.45,-74.98 385.98,-67.02 499.75,-58.54 502.08,-58.37 504.43,-58.19 506.8,-58.01"/>
<polygon fill="black" stroke="black" points="506.8,-61.52 516.49,-57.25 506.25,-54.54 506.8,-61.52"/>
<text text-anchor="start" x="235.38" y="-81.56" font-family="Helvetica,sans-Serif" font-size="10.00">Register Host &#45; Wrong boot order detection &#160;&#160;</text>
</g>
<!-- installing&#45;pending&#45;user&#45;action&#45;&gt;installing&#45;pending&#45;user&#45;action -->
<g id="edge4" class="edge transition">
<title>installing&#45;pending&#45;user&#45;action&#45;&gt;installing&#45;pending&#45;user&#45;action</title>
<path fill="none" stroke="black" d="M600.55,-66.38C597.78,-75.95 603.22,-84.66 616.88,-84.66 624.56,-84.66 629.64,-81.91 632.12,-77.79"/>
<polygon fill="black" stroke="black" points="635.6,-78.17 633.05,-67.89 628.63,-77.52 635.6,-78.17"/>
<text text-anchor="start" x="184.5" y="-87.91" font-family="Helvetica,sans-Serif" font-size="10.00">null &#45; Host progress change during installing&#45;pending&#45;user&#45;action state when host is not in state Done (or Rebooting in day2) should stay in installing&#45;pending&#45;user&#45;action state &#160;&#160;</text>
</g>
<!-- installing&#45;pending&#45;user&#45;action&#45;&gt;installing&#45;pending&#45;user&#45;action -->
<g id="edge5" class="edge transition">
<title>installing&#45;pending&#45;user&#45;action&#45;&gt;installing&#45;pending&#45;user&#45;action</title>
<path fill="none" stroke="black" d="M589.58,-66.56C574.97,-83.82 584.07,-102.66 616.88,-102.66 643.53,-102.66 654.53,-90.22 649.89,-76.3"/>
<polygon fill="black" stroke="black" points="653.02,-74.72 644.94,-67.86 646.98,-78.26 653.02,-74.72"/>
<text text-anchor="start" x="289.5" y="-105.91" font-family="Helvetica,sans-Serif" font-size="10.00">Refresh &#45; Refresh during installing&#45;pending&#45;user&#45;action state without cluster error should stay in installing&#45;pending&#45;user&#45;action state &#160;&#160;</text>
</g>
<!-- installing&#45;pending&#45;user&#45;action&#45;&gt;installing&#45;pending&#45;user&#45;action -->
<g id="edge6" class="edge transition">
<title>installing&#45;pending&#45;user&#45;action&#45;&gt;installing&#45;pending&#45;user&#45;action</title>
<path fill="none" stroke="black" d="M582.42,-66.65C551.92,-91.02 563.41,-120.66 616.88,-120.66 664.7,-120.66 678.94,-96.95 659.58,-74.5"/>
<polygon fill="black" stroke="black" points="662.09,-72.05 652.43,-67.69 657.26,-77.12 662.09,-72.05"/>
<text text-anchor="start" x="507.75" y="-123.91" font-family="Helvetica,sans-Serif" font-size="10.00">Register Host &#45; Wrong boot order detection &#160;&#160;</text>
</g>
<!-- installing&#45;in&#45;progress -->
<g id="node3" class="node state regular">
<title>installing&#45;in&#45;progress</title>
<polygon fill="#ffffff" fill-opacity="0.003922" stroke="none" stroke-width="2" points="158.12,-39.66 13.12,-39.66 13.12,-3.41 158.12,-3.41 158.12,-39.66"/>
<text text-anchor="start" x="24.12" y="-17.26" font-family="Helvetica,sans-Serif" font-size="12.00">installing&#45;in&#45;progress</text>
<path fill="none" stroke="black" stroke-width="2" d="M25.54,-4.41C25.54,-4.41 145.71,-4.41 145.71,-4.41 151.42,-4.41 157.12,-10.12 157.12,-15.83 157.12,-15.83 157.12,-27.25 157.12,-27.25 157.12,-32.96 151.42,-38.66 145.71,-38.66 145.71,-38.66 25.54,-38.66 25.54,-38.66 19.83,-38.66 14.12,-32.96 14.12,-27.25 14.12,-27.25 14.12,-15.83 14.12,-15.83 14.12,-10.12 19.83,-4.41 25.54,-4.41"/>
</g>
<!-- installing&#45;in&#45;progress&#45;&gt;installing&#45;pending&#45;user&#45;action -->
<g id="edge2" class="edge transition">
<title>installing&#45;in&#45;progress&#45;&gt;installing&#45;pending&#45;user&#45;action</title>
<path fill="none" stroke="black" d="M158,-25.18C247.57,-29.75 402.07,-37.63 506.57,-42.96"/>
<polygon fill="black" stroke="black" points="506.11,-46.44 516.27,-43.46 506.46,-39.45 506.11,-46.44"/>
<text text-anchor="start" x="189.25" y="-45.26" font-family="Helvetica,sans-Serif" font-size="10.00">Refresh &#45; Tell user about boot order wen reboot takes too long &#160;&#160;</text>
</g>
<!-- installing&#45;in&#45;progress&#45;&gt;installing&#45;pending&#45;user&#45;action -->
<g id="edge3" class="edge transition">
<title>installing&#45;in&#45;progress&#45;&gt;installing&#45;pending&#45;user&#45;action</title>
<path fill="none" stroke="black" d="M158.05,-11.83C240.82,-2.39 381.05,8.02 499.75,-10.79 520.05,-14.01 541.64,-20.2 560.62,-26.66"/>
<polygon fill="black" stroke="black" points="559.44,-29.96 570.03,-29.97 561.76,-23.35 559.44,-29.96"/>
<text text-anchor="start" x="235.38" y="-14.04" font-family="Helvetica,sans-Serif" font-size="10.00">Register Host &#45; Wrong boot order detection &#160;&#160;</text>
</g>
</g>
</svg>
