<?xml version="1.0" encoding="UTF-8" standalone="no"?>
<!DOCTYPE svg PUBLIC "-//W3C//DTD SVG 1.1//EN"
 "http://www.w3.org/Graphics/SVG/1.1/DTD/svg11.dtd">
<!-- Generated by graphviz version 7.1.0 (0)
 -->
<!-- Title: state transitions Pages: 1 -->
<svg width="396pt" height="206pt"
 viewBox="0.00 0.00 395.50 206.00" xmlns="http://www.w3.org/2000/svg" xmlns:xlink="http://www.w3.org/1999/xlink">
<g id="graph0" class="graph" transform="scale(1 1) rotate(0) translate(4 202)">
<title>state transitions</title>
<polygon fill="white" stroke="none" points="-4,4 -4,-202 391.5,-202 391.5,4 -4,4"/>
<!-- disconnected -->
<g id="node1" class="node state regular">
<title>disconnected</title>
<polygon fill="#ffffff" fill-opacity="0.003922" stroke="none" stroke-width="2" points="94,-198 0,-198 0,-162 94,-162 94,-198"/>
<text text-anchor="start" x="11" y="-176.4" font-family="Helvetica,sans-Serif" font-size="12.00">disconnected</text>
<path fill="none" stroke="black" stroke-width="2" d="M12,-163.5C12,-163.5 82,-163.5 82,-163.5 87.5,-163.5 93,-169 93,-174.5 93,-174.5 93,-185.5 93,-185.5 93,-191 87.5,-196.5 82,-196.5 82,-196.5 12,-196.5 12,-196.5 6.5,-196.5 1,-191 1,-185.5 1,-185.5 1,-174.5 1,-174.5 1,-169 6.5,-163.5 12,-163.5"/>
</g>
<!-- pending&#45;for&#45;input -->
<g id="node5" class="node state regular">
<title>pending&#45;for&#45;input</title>
<polygon fill="#ffffff" fill-opacity="0.003922" stroke="none" stroke-width="2" points="377,-117 264,-117 264,-81 377,-81 377,-117"/>
<text text-anchor="start" x="275.5" y="-95.4" font-family="Helvetica,sans-Serif" font-size="12.00">pending&#45;for&#45;input</text>
<path fill="none" stroke="black" stroke-width="2" d="M276,-82.5C276,-82.5 365,-82.5 365,-82.5 370.5,-82.5 376,-88 376,-93.5 376,-93.5 376,-104.5 376,-104.5 376,-110 370.5,-115.5 365,-115.5 365,-115.5 276,-115.5 276,-115.5 270.5,-115.5 265,-110 265,-104.5 265,-104.5 265,-93.5 265,-93.5 265,-88 270.5,-82.5 276,-82.5"/>
</g>
<!-- disconnected&#45;&gt;pending&#45;for&#45;input -->
<g id="edge1" class="edge transition">
<title>disconnected&#45;&gt;pending&#45;for&#45;input</title>
<path fill="none" stroke="black" d="M93.61,-172.31C134.26,-164.77 195.03,-151.82 246,-134 255.8,-130.57 266.02,-126.23 275.62,-121.79"/>
<polygon fill="black" stroke="black" points="276.86,-125.07 284.38,-117.61 273.85,-118.75 276.86,-125.07"/>
<text text-anchor="start" x="112" y="-171" font-family="Helvetica,sans-Serif" font-size="10.00">Refresh &#45; Host pending input &#160;&#160;</text>
</g>
<!-- discovering -->
<g id="node2" class="node state regular">
<title>discovering</title>
<polygon fill="#ffffff" fill-opacity="0.003922" stroke="none" stroke-width="2" points="89,-144 5,-144 5,-108 89,-108 89,-144"/>
<text text-anchor="start" x="16" y="-122.4" font-family="Helvetica,sans-Serif" font-size="12.00">discovering</text>
<path fill="none" stroke="black" stroke-width="2" d="M17,-109.5C17,-109.5 77,-109.5 77,-109.5 82.5,-109.5 88,-115 88,-120.5 88,-120.5 88,-131.5 88,-131.5 88,-137 82.5,-142.5 77,-142.5 77,-142.5 17,-142.5 17,-142.5 11.5,-142.5 6,-137 6,-131.5 6,-131.5 6,-120.5 6,-120.5 6,-115 11.5,-109.5 17,-109.5"/>
</g>
<!-- discovering&#45;&gt;pending&#45;for&#45;input -->
<g id="edge2" class="edge transition">
<title>discovering&#45;&gt;pending&#45;for&#45;input</title>
<path fill="none" stroke="black" d="M88.94,-121.93C132.32,-117.61 201.51,-110.73 252.78,-105.63"/>
<polygon fill="black" stroke="black" points="252.98,-109.13 262.59,-104.66 252.29,-102.17 252.98,-109.13"/>
<text text-anchor="start" x="112" y="-122" font-family="Helvetica,sans-Serif" font-size="10.00">Refresh &#45; Host pending input &#160;&#160;</text>
</g>
<!-- insufficient -->
<g id="node3" class="node state regular">
<title>insufficient</title>
<polygon fill="#ffffff" fill-opacity="0.003922" stroke="none" stroke-width="2" points="87,-90 7,-90 7,-54 87,-54 87,-90"/>
<text text-anchor="start" x="18" y="-68.4" font-family="Helvetica,sans-Serif" font-size="12.00">insufficient</text>
<path fill="none" stroke="black" stroke-width="2" d="M19,-55.5C19,-55.5 75,-55.5 75,-55.5 80.5,-55.5 86,-61 86,-66.5 86,-66.5 86,-77.5 86,-77.5 86,-83 80.5,-88.5 75,-88.5 75,-88.5 19,-88.5 19,-88.5 13.5,-88.5 8,-83 8,-77.5 8,-77.5 8,-66.5 8,-66.5 8,-61 13.5,-55.5 19,-55.5"/>
</g>
<!-- insufficient&#45;&gt;pending&#45;for&#45;input -->
<g id="edge3" class="edge transition">
<title>insufficient&#45;&gt;pending&#45;for&#45;input</title>
<path fill="none" stroke="black" d="M86.71,-75.57C126.64,-79.28 190.69,-85.34 246,-91 248.2,-91.23 250.44,-91.46 252.7,-91.69"/>
<polygon fill="black" stroke="black" points="252.31,-95.17 262.62,-92.74 253.04,-88.21 252.31,-95.17"/>
<text text-anchor="start" x="112" y="-94" font-family="Helvetica,sans-Serif" font-size="10.00">Refresh &#45; Host pending input &#160;&#160;</text>
</g>
<!-- known -->
<g id="node4" class="node state regular">
<title>known</title>
<polygon fill="#ffffff" fill-opacity="0.003922" stroke="none" stroke-width="2" points="76,-36 18,-36 18,0 76,0 76,-36"/>
<text text-anchor="start" x="29" y="-14.4" font-family="Helvetica,sans-Serif" font-size="12.00">known</text>
<path fill="none" stroke="black" stroke-width="2" d="M30,-1.5C30,-1.5 64,-1.5 64,-1.5 69.5,-1.5 75,-7 75,-12.5 75,-12.5 75,-23.5 75,-23.5 75,-29 69.5,-34.5 64,-34.5 64,-34.5 30,-34.5 30,-34.5 24.5,-34.5 19,-29 19,-23.5 19,-23.5 19,-12.5 19,-12.5 19,-7 24.5,-1.5 30,-1.5"/>
</g>
<!-- known&#45;&gt;pending&#45;for&#45;input -->
<g id="edge4" class="edge transition">
<title>known&#45;&gt;pending&#45;for&#45;input</title>
<path fill="none" stroke="black" d="M75.79,-22.22C114.63,-28.59 187,-42.16 246,-63 256.24,-66.62 266.92,-71.28 276.86,-76.05"/>
<polygon fill="black" stroke="black" points="275.04,-79.05 285.55,-80.35 278.14,-72.78 275.04,-79.05"/>
<text text-anchor="start" x="112" y="-66" font-family="Helvetica,sans-Serif" font-size="10.00">Refresh &#45; Host pending input &#160;&#160;</text>
</g>
<!-- pending&#45;for&#45;input&#45;&gt;pending&#45;for&#45;input -->
<g id="edge5" class="edge transition">
<title>pending&#45;for&#45;input&#45;&gt;pending&#45;for&#45;input</title>
<path fill="none" stroke="black" d="M295.06,-116.78C290.74,-126.31 299.22,-135 320.5,-135 332.47,-135 340.39,-132.25 344.26,-128.15"/>
<polygon fill="black" stroke="black" points="347.72,-128.68 345.72,-118.28 340.79,-127.66 347.72,-128.68"/>
<text text-anchor="start" x="253.5" y="-138" font-family="Helvetica,sans-Serif" font-size="10.00">Refresh &#45; Host pending input &#160;&#160;</text>
</g>
</g>
</svg>
