<?xml version="1.0" encoding="UTF-8" standalone="no"?>
<!DOCTYPE svg PUBLIC "-//W3C//DTD SVG 1.1//EN"
 "http://www.w3.org/Graphics/SVG/1.1/DTD/svg11.dtd">
<!-- Generated by graphviz version 7.1.0 (0)
 -->
<!-- Title: state transitions Pages: 1 -->
<svg width="593pt" height="100pt"
 viewBox="0.00 0.00 592.50 100.00" xmlns="http://www.w3.org/2000/svg" xmlns:xlink="http://www.w3.org/1999/xlink">
<g id="graph0" class="graph" transform="scale(1 1) rotate(0) translate(4 96)">
<title>state transitions</title>
<polygon fill="white" stroke="none" points="-4,4 -4,-96 588.5,-96 588.5,4 -4,4"/>
<!-- added&#45;to&#45;existing&#45;cluster -->
<g id="node1" class="node state regular">
<title>added&#45;to&#45;existing&#45;cluster</title>
<polygon fill="#ffffff" fill-opacity="0.003922" stroke="none" stroke-width="2" points="153,-90 0,-90 0,-54 153,-54 153,-90"/>
<text text-anchor="start" x="11.5" y="-68.4" font-family="Helvetica,sans-Serif" font-size="12.00">added&#45;to&#45;existing&#45;cluster</text>
<path fill="none" stroke="black" stroke-width="2" d="M12,-55.5C12,-55.5 141,-55.5 141,-55.5 146.5,-55.5 152,-61 152,-66.5 152,-66.5 152,-77.5 152,-77.5 152,-83 146.5,-88.5 141,-88.5 141,-88.5 12,-88.5 12,-88.5 6.5,-88.5 1,-83 1,-77.5 1,-77.5 1,-66.5 1,-66.5 1,-61 6.5,-55.5 12,-55.5"/>
</g>
<!-- reclaiming -->
<g id="node3" class="node state regular">
<title>reclaiming</title>
<polygon fill="#ffffff" fill-opacity="0.003922" stroke="none" stroke-width="2" points="452,-63 374,-63 374,-27 452,-27 452,-63"/>
<text text-anchor="start" x="385" y="-41.4" font-family="Helvetica,sans-Serif" font-size="12.00">reclaiming</text>
<path fill="none" stroke="black" stroke-width="2" d="M386,-28.5C386,-28.5 440,-28.5 440,-28.5 445.5,-28.5 451,-34 451,-39.5 451,-39.5 451,-50.5 451,-50.5 451,-56 445.5,-61.5 440,-61.5 440,-61.5 386,-61.5 386,-61.5 380.5,-61.5 375,-56 375,-50.5 375,-50.5 375,-39.5 375,-39.5 375,-34 380.5,-28.5 386,-28.5"/>
</g>
<!-- added&#45;to&#45;existing&#45;cluster&#45;&gt;reclaiming -->
<g id="edge2" class="edge transition">
<title>added&#45;to&#45;existing&#45;cluster&#45;&gt;reclaiming</title>
<path fill="none" stroke="black" d="M152.87,-66.26C208.91,-61.93 287.25,-55.78 356,-50 358.19,-49.82 360.42,-49.63 362.68,-49.43"/>
<polygon fill="black" stroke="black" points="362.88,-52.93 372.54,-48.57 362.28,-45.95 362.88,-52.93"/>
<text text-anchor="start" x="171" y="-67" font-family="Helvetica,sans-Serif" font-size="10.00">Reclaim Host &#45; Reclaim successful host &#160;&#160;</text>
</g>
<!-- installed -->
<g id="node2" class="node state regular">
<title>installed</title>
<polygon fill="#ffffff" fill-opacity="0.003922" stroke="none" stroke-width="2" points="110.5,-36 42.5,-36 42.5,0 110.5,0 110.5,-36"/>
<text text-anchor="start" x="53.5" y="-14.4" font-family="Helvetica,sans-Serif" font-size="12.00">installed</text>
<path fill="none" stroke="black" stroke-width="2" d="M54.5,-1.5C54.5,-1.5 98.5,-1.5 98.5,-1.5 104,-1.5 109.5,-7 109.5,-12.5 109.5,-12.5 109.5,-23.5 109.5,-23.5 109.5,-29 104,-34.5 98.5,-34.5 98.5,-34.5 54.5,-34.5 54.5,-34.5 49,-34.5 43.5,-29 43.5,-23.5 43.5,-23.5 43.5,-12.5 43.5,-12.5 43.5,-7 49,-1.5 54.5,-1.5"/>
</g>
<!-- installed&#45;&gt;reclaiming -->
<g id="edge1" class="edge transition">
<title>installed&#45;&gt;reclaiming</title>
<path fill="none" stroke="black" d="M110.11,-20.13C162.15,-23.59 267.15,-30.89 356,-39 358.19,-39.2 360.43,-39.41 362.69,-39.63"/>
<polygon fill="black" stroke="black" points="362.26,-43.1 372.55,-40.62 362.95,-36.14 362.26,-43.1"/>
<text text-anchor="start" x="171" y="-42" font-family="Helvetica,sans-Serif" font-size="10.00">Reclaim Host &#45; Reclaim successful host &#160;&#160;</text>
</g>
<!-- reclaiming&#45;&gt;reclaiming -->
<g id="edge3" class="edge transition">
<title>reclaiming&#45;&gt;reclaiming</title>
<path fill="none" stroke="black" d="M386.13,-62.78C381.56,-72.31 390.52,-81 413,-81 425.65,-81 434.01,-78.25 438.1,-74.15"/>
<polygon fill="black" stroke="black" points="441.56,-74.7 439.64,-64.28 434.64,-73.62 441.56,-74.7"/>
<text text-anchor="start" x="241.5" y="-84" font-family="Helvetica,sans-Serif" font-size="10.00">Refresh &#45; Refresh without timeout during reclaiming should stay in reclaiming &#160;&#160;</text>
</g>
</g>
</svg>
