<?xml version="1.0" encoding="UTF-8" standalone="no"?>
<!DOCTYPE svg PUBLIC "-//W3C//DTD SVG 1.1//EN"
 "http://www.w3.org/Graphics/SVG/1.1/DTD/svg11.dtd">
<!-- Generated by graphviz version 12.1.0 (20240811.2233)
 -->
<!-- Title: state transitions Pages: 1 -->
<svg width="731pt" height="164pt"
 viewBox="0.00 0.00 730.62 163.50" xmlns="http://www.w3.org/2000/svg" xmlns:xlink="http://www.w3.org/1999/xlink">
<g id="graph0" class="graph" transform="scale(1 1) rotate(0) translate(4 159.5)">
<title>state transitions</title>
<polygon fill="white" stroke="none" points="-4,4 -4,-159.5 726.62,-159.5 726.62,4 -4,4"/>
<!-- installing -->
<g id="node1" class="node state regular">
<title>installing</title>
<polygon fill="#ffffff" fill-opacity="0.003922" stroke="none" stroke-width="2" points="533.75,-63.25 459.25,-63.25 459.25,-27 533.75,-27 533.75,-63.25"/>
<text text-anchor="start" x="470.25" y="-40.85" font-family="Helvetica,sans-Serif" font-size="12.00">installing</text>
<path fill="none" stroke="black" stroke-width="2" d="M471.67,-28C471.67,-28 521.33,-28 521.33,-28 527.04,-28 532.75,-33.71 532.75,-39.42 532.75,-39.42 532.75,-50.83 532.75,-50.83 532.75,-56.54 527.04,-62.25 521.33,-62.25 521.33,-62.25 471.67,-62.25 471.67,-62.25 465.96,-62.25 460.25,-56.54 460.25,-50.83 460.25,-50.83 460.25,-39.42 460.25,-39.42 460.25,-33.71 465.96,-28 471.67,-28"/>
</g>
<!-- installing&#45;&gt;installing -->
<g id="edge1" class="edge transition">
<title>installing&#45;&gt;installing</title>
<path fill="none" stroke="black" d="M484.88,-62.97C482.9,-72.53 486.77,-81.25 496.5,-81.25 501.97,-81.25 505.59,-78.49 507.36,-74.38"/>
<polygon fill="black" stroke="black" points="510.84,-74.69 508.02,-64.48 503.86,-74.22 510.84,-74.69"/>
<text text-anchor="start" x="352.88" y="-84.5" font-family="Helvetica,sans-Serif" font-size="10.00">Refresh &#45; Keep installing host when connection times out &#160;&#160;</text>
</g>
<!-- installing&#45;&gt;installing -->
<g id="edge2" class="edge transition">
<title>installing&#45;&gt;installing</title>
<path fill="none" stroke="black" d="M477.06,-63.14C466.65,-80.41 473.13,-99.25 496.5,-99.25 515.12,-99.25 523.02,-87.28 520.19,-73.69"/>
<polygon fill="black" stroke="black" points="523.49,-72.51 516.51,-64.55 517,-75.13 523.49,-72.51"/>
<text text-anchor="start" x="322.88" y="-102.5" font-family="Helvetica,sans-Serif" font-size="10.00">Refresh &#45; Keep installing host when host recovers from disconnection &#160;&#160;</text>
</g>
<!-- installing&#45;&gt;installing -->
<g id="edge3" class="edge transition">
<title>installing&#45;&gt;installing</title>
<path fill="none" stroke="black" d="M471.96,-63.23C450.24,-87.61 458.42,-117.25 496.5,-117.25 529.82,-117.25 540.25,-94.56 527.79,-72.55"/>
<polygon fill="black" stroke="black" points="530.63,-70.51 521.93,-64.46 524.96,-74.61 530.63,-70.51"/>
<text text-anchor="start" x="270.38" y="-120.5" font-family="Helvetica,sans-Serif" font-size="10.00">Refresh &#45; Refresh during installing state without cluster error should stay in installing state &#160;&#160;</text>
</g>
<!-- known -->
<g id="node2" class="node state regular">
<title>known</title>
<polygon fill="#ffffff" fill-opacity="0.003922" stroke="none" stroke-width="2" points="103.38,-90.25 42.38,-90.25 42.38,-54 103.38,-54 103.38,-90.25"/>
<text text-anchor="start" x="53.38" y="-67.85" font-family="Helvetica,sans-Serif" font-size="12.00">known</text>
<path fill="none" stroke="black" stroke-width="2" d="M54.79,-55C54.79,-55 90.96,-55 90.96,-55 96.67,-55 102.38,-60.71 102.38,-66.42 102.38,-66.42 102.38,-77.83 102.38,-77.83 102.38,-83.54 96.67,-89.25 90.96,-89.25 90.96,-89.25 54.79,-89.25 54.79,-89.25 49.08,-89.25 43.38,-83.54 43.38,-77.83 43.38,-77.83 43.38,-66.42 43.38,-66.42 43.38,-60.71 49.08,-55 54.79,-55"/>
</g>
<!-- known&#45;&gt;installing -->
<g id="edge4" class="edge transition">
<title>known&#45;&gt;installing</title>
<path fill="none" stroke="black" d="M103.19,-70.25C174.96,-65.65 360.04,-53.8 447.88,-48.17"/>
<polygon fill="black" stroke="black" points="448.09,-51.67 457.84,-47.54 447.64,-44.68 448.09,-51.67"/>
<text text-anchor="start" x="220.75" y="-69.54" font-family="Helvetica,sans-Serif" font-size="10.00">Install Host &#45; Install known host &#160;&#160;</text>
</g>
<!-- preparing&#45;successful -->
<g id="node3" class="node state regular">
<title>preparing&#45;successful</title>
<polygon fill="#ffffff" fill-opacity="0.003922" stroke="none" stroke-width="2" points="145.75,-36.25 0,-36.25 0,0 145.75,0 145.75,-36.25"/>
<text text-anchor="start" x="11" y="-13.85" font-family="Helvetica,sans-Serif" font-size="12.00">preparing&#45;successful</text>
<path fill="none" stroke="black" stroke-width="2" d="M12.42,-1C12.42,-1 133.33,-1 133.33,-1 139.04,-1 144.75,-6.71 144.75,-12.42 144.75,-12.42 144.75,-23.83 144.75,-23.83 144.75,-29.54 139.04,-35.25 133.33,-35.25 133.33,-35.25 12.42,-35.25 12.42,-35.25 6.71,-35.25 1,-29.54 1,-23.83 1,-23.83 1,-12.42 1,-12.42 1,-6.71 6.71,-1 12.42,-1"/>
</g>
<!-- preparing&#45;successful&#45;&gt;installing -->
<g id="edge5" class="edge transition">
<title>preparing&#45;successful&#45;&gt;installing</title>
<path fill="none" stroke="black" d="M145.69,-16.85C220,-16.48 339.26,-18.54 441.25,-32.38 443.57,-32.69 445.94,-33.06 448.32,-33.47"/>
<polygon fill="black" stroke="black" points="447.53,-36.88 458.01,-35.36 448.86,-30.01 447.53,-36.88"/>
<text text-anchor="start" x="163.75" y="-35.62" font-family="Helvetica,sans-Serif" font-size="10.00">Refresh &#45; Move successfully prepared host to installing &#160;&#160;</text>
</g>
</g>
</svg>
