<?xml version="1.0" encoding="UTF-8" standalone="no"?>
<!DOCTYPE svg PUBLIC "-//W3C//DTD SVG 1.1//EN"
 "http://www.w3.org/Graphics/SVG/1.1/DTD/svg11.dtd">
<!-- Generated by graphviz version 12.1.0 (20240811.2233)
 -->
<!-- Title: state transitions Pages: 1 -->
<svg width="758pt" height="164pt"
 viewBox="0.00 0.00 757.62 163.50" xmlns="http://www.w3.org/2000/svg" xmlns:xlink="http://www.w3.org/1999/xlink">
<g id="graph0" class="graph" transform="scale(1 1) rotate(0) translate(4 159.5)">
<title>state transitions</title>
<polygon fill="white" stroke="none" points="-4,4 -4,-159.5 753.62,-159.5 753.62,4 -4,4"/>
<!-- installed -->
<g id="node1" class="node state regular">
<title>installed</title>
<polygon fill="#ffffff" fill-opacity="0.003922" stroke="none" stroke-width="2" points="457.25,-63.25 385.75,-63.25 385.75,-27 457.25,-27 457.25,-63.25"/>
<text text-anchor="start" x="396.75" y="-40.85" font-family="Helvetica,sans-Serif" font-size="12.00">installed</text>
<path fill="none" stroke="black" stroke-width="2" d="M398.17,-28C398.17,-28 444.83,-28 444.83,-28 450.54,-28 456.25,-33.71 456.25,-39.42 456.25,-39.42 456.25,-50.83 456.25,-50.83 456.25,-56.54 450.54,-62.25 444.83,-62.25 444.83,-62.25 398.17,-62.25 398.17,-62.25 392.46,-62.25 386.75,-56.54 386.75,-50.83 386.75,-50.83 386.75,-39.42 386.75,-39.42 386.75,-33.71 392.46,-28 398.17,-28"/>
</g>
<!-- installed&#45;&gt;installed -->
<g id="edge1" class="edge transition">
<title>installed&#45;&gt;installed</title>
<path fill="none" stroke="black" d="M412.14,-62.97C410.56,-72.53 413.67,-81.25 421.5,-81.25 425.9,-81.25 428.82,-78.49 430.24,-74.38"/>
<polygon fill="black" stroke="black" points="433.73,-74.65 430.77,-64.48 426.74,-74.28 433.73,-74.65"/>
<text text-anchor="start" x="93.38" y="-84.5" font-family="Helvetica,sans-Serif" font-size="10.00">null &#45; Host progress change during installed state when host is not in state Done (or Rebooting in day2) should stay in installed state &#160;&#160;</text>
</g>
<!-- installed&#45;&gt;installed -->
<g id="edge2" class="edge transition">
<title>installed&#45;&gt;installed</title>
<path fill="none" stroke="black" d="M405.85,-63.14C397.48,-80.41 402.7,-99.25 421.5,-99.25 436.34,-99.25 442.71,-87.52 440.63,-74.09"/>
<polygon fill="black" stroke="black" points="443.97,-73.05 437.6,-64.59 437.3,-75.18 443.97,-73.05"/>
<text text-anchor="start" x="198.38" y="-102.5" font-family="Helvetica,sans-Serif" font-size="10.00">Refresh &#45; Refresh during installed state without cluster error should stay in installed state &#160;&#160;</text>
</g>
<!-- installed&#45;&gt;installed -->
<g id="edge3" class="edge transition">
<title>installed&#45;&gt;installed</title>
<path fill="none" stroke="black" d="M401.75,-63.23C384.27,-87.61 390.85,-117.25 421.5,-117.25 448.08,-117.25 456.56,-94.96 446.94,-73.14"/>
<polygon fill="black" stroke="black" points="450.02,-71.48 442.01,-64.55 443.95,-74.96 450.02,-71.48"/>
<text text-anchor="start" x="317.62" y="-120.5" font-family="Helvetica,sans-Serif" font-size="10.00">Register Host &#45; Register post&#45;installation &#160;&#160;</text>
</g>
<!-- installing -->
<g id="node2" class="node state regular">
<title>installing</title>
<polygon fill="#ffffff" fill-opacity="0.003922" stroke="none" stroke-width="2" points="109.75,-90.25 35.25,-90.25 35.25,-54 109.75,-54 109.75,-90.25"/>
<text text-anchor="start" x="46.25" y="-67.85" font-family="Helvetica,sans-Serif" font-size="12.00">installing</text>
<path fill="none" stroke="black" stroke-width="2" d="M47.67,-55C47.67,-55 97.33,-55 97.33,-55 103.04,-55 108.75,-60.71 108.75,-66.42 108.75,-66.42 108.75,-77.83 108.75,-77.83 108.75,-83.54 103.04,-89.25 97.33,-89.25 97.33,-89.25 47.67,-89.25 47.67,-89.25 41.96,-89.25 36.25,-83.54 36.25,-77.83 36.25,-77.83 36.25,-66.42 36.25,-66.42 36.25,-60.71 41.96,-55 47.67,-55"/>
</g>
<!-- installing&#45;&gt;installed -->
<g id="edge4" class="edge transition">
<title>installing&#45;&gt;installed</title>
<path fill="none" stroke="black" d="M109.65,-69.31C173.29,-64.36 305.16,-54.1 374.92,-48.67"/>
<polygon fill="black" stroke="black" points="374.77,-52.19 384.47,-47.93 374.22,-45.22 374.77,-52.19"/>
<text text-anchor="start" x="163" y="-68.13" font-family="Helvetica,sans-Serif" font-size="10.00">null &#45; host progress changed to installed &#160;&#160;</text>
</g>
<!-- installing&#45;in&#45;progress -->
<g id="node3" class="node state regular">
<title>installing&#45;in&#45;progress</title>
<polygon fill="#ffffff" fill-opacity="0.003922" stroke="none" stroke-width="2" points="145,-36.25 0,-36.25 0,0 145,0 145,-36.25"/>
<text text-anchor="start" x="11" y="-13.85" font-family="Helvetica,sans-Serif" font-size="12.00">installing&#45;in&#45;progress</text>
<path fill="none" stroke="black" stroke-width="2" d="M12.42,-1C12.42,-1 132.58,-1 132.58,-1 138.29,-1 144,-6.71 144,-12.42 144,-12.42 144,-23.83 144,-23.83 144,-29.54 138.29,-35.25 132.58,-35.25 132.58,-35.25 12.42,-35.25 12.42,-35.25 6.71,-35.25 1,-29.54 1,-23.83 1,-23.83 1,-12.42 1,-12.42 1,-6.71 6.71,-1 12.42,-1"/>
</g>
<!-- installing&#45;in&#45;progress&#45;&gt;installed -->
<g id="edge5" class="edge transition">
<title>installing&#45;in&#45;progress&#45;&gt;installed</title>
<path fill="none" stroke="black" d="M144.86,-18.49C204.65,-19.59 292.1,-23.06 367.75,-33.38 370.07,-33.69 372.45,-34.06 374.84,-34.46"/>
<polygon fill="black" stroke="black" points="374.07,-37.88 384.55,-36.3 375.37,-31 374.07,-37.88"/>
<text text-anchor="start" x="163" y="-36.62" font-family="Helvetica,sans-Serif" font-size="10.00">null &#45; host progress changed to installed &#160;&#160;</text>
</g>
</g>
</svg>
