<?xml version="1.0" encoding="UTF-8" standalone="no"?>
<!DOCTYPE svg PUBLIC "-//W3C//DTD SVG 1.1//EN"
 "http://www.w3.org/Graphics/SVG/1.1/DTD/svg11.dtd">
<!-- Generated by graphviz version 5.0.0 (0)
 -->
<!-- Title: state transitions Pages: 1 -->
<svg width="413pt" height="355pt"
 viewBox="0.00 0.00 413.00 355.10" xmlns="http://www.w3.org/2000/svg" xmlns:xlink="http://www.w3.org/1999/xlink">
<g id="graph0" class="graph" transform="scale(1 1) rotate(0) translate(4 351.1)">
<title>state transitions</title>
<polygon fill="white" stroke="transparent" points="-4,4 -4,-351.1 409,-351.1 409,4 -4,4"/>
<!-- disconnected -->
<g id="node1" class="node state regular">
<title>disconnected</title>
<polygon fill="#ffffff" fill-opacity="0.003922" stroke="transparent" stroke-width="2" points="103.5,-324.1 9.5,-324.1 9.5,-288.1 103.5,-288.1 103.5,-324.1"/>
<text text-anchor="start" x="20.5" y="-302.5" font-family="Helvetica,sans-Serif" font-size="12.00">disconnected</text>
<path fill="none" stroke="black" stroke-width="2" d="M21.5,-289.6C21.5,-289.6 91.5,-289.6 91.5,-289.6 97,-289.6 102.5,-295.1 102.5,-300.6 102.5,-300.6 102.5,-311.6 102.5,-311.6 102.5,-317.1 97,-322.6 91.5,-322.6 91.5,-322.6 21.5,-322.6 21.5,-322.6 16,-322.6 10.5,-317.1 10.5,-311.6 10.5,-311.6 10.5,-300.6 10.5,-300.6 10.5,-295.1 16,-289.6 21.5,-289.6"/>
</g>
<!-- unbinding -->
<g id="node6" class="node state regular">
<title>unbinding</title>
<polygon fill="#ffffff" fill-opacity="0.003922" stroke="transparent" stroke-width="2" points="405,-197.1 329,-197.1 329,-161.1 405,-161.1 405,-197.1"/>
<text text-anchor="start" x="340" y="-175.5" font-family="Helvetica,sans-Serif" font-size="12.00">unbinding</text>
<path fill="none" stroke="black" stroke-width="2" d="M341,-162.6C341,-162.6 393,-162.6 393,-162.6 398.5,-162.6 404,-168.1 404,-173.6 404,-173.6 404,-184.6 404,-184.6 404,-190.1 398.5,-195.6 393,-195.6 393,-195.6 341,-195.6 341,-195.6 335.5,-195.6 330,-190.1 330,-184.6 330,-184.6 330,-173.6 330,-173.6 330,-168.1 335.5,-162.6 341,-162.6"/>
</g>
<!-- disconnected&#45;&gt;unbinding -->
<g id="edge3" class="edge transition">
<title>disconnected&#45;&gt;unbinding</title>
<path fill="none" stroke="black" d="M103.97,-321.44C158.42,-336.34 249.05,-351.28 311,-310.1 345.18,-287.38 358.16,-238.86 363.06,-207.67"/>
<polygon fill="black" stroke="black" points="366.58,-207.81 364.48,-197.43 359.64,-206.85 366.58,-207.81"/>
<text text-anchor="start" x="131" y="-339.1" font-family="Helvetica,sans-Serif" font-size="10.00">Reclaim Host &#45; Reclaim pre&#45;installation &#160;&#160;</text>
</g>
<!-- disconnected&#45;&gt;unbinding -->
<g id="edge8" class="edge transition">
<title>disconnected&#45;&gt;unbinding</title>
<path fill="none" stroke="black" d="M103.76,-300.39C112.79,-299.29 122.19,-298.15 131,-297.1 170.99,-292.32 277.44,-298.36 311,-276.1 335.2,-260.05 349.93,-229.5 357.97,-206.95"/>
<polygon fill="black" stroke="black" points="361.37,-207.83 361.21,-197.24 354.73,-205.62 361.37,-207.83"/>
<text text-anchor="start" x="135.5" y="-300.1" font-family="Helvetica,sans-Serif" font-size="10.00">Unbind Host &#45; Unbind pre&#45;installation &#160;&#160;</text>
</g>
<!-- discovering -->
<g id="node2" class="node state regular">
<title>discovering</title>
<polygon fill="#ffffff" fill-opacity="0.003922" stroke="transparent" stroke-width="2" points="98.5,-263.1 14.5,-263.1 14.5,-227.1 98.5,-227.1 98.5,-263.1"/>
<text text-anchor="start" x="25.5" y="-241.5" font-family="Helvetica,sans-Serif" font-size="12.00">discovering</text>
<path fill="none" stroke="black" stroke-width="2" d="M26.5,-228.6C26.5,-228.6 86.5,-228.6 86.5,-228.6 92,-228.6 97.5,-234.1 97.5,-239.6 97.5,-239.6 97.5,-250.6 97.5,-250.6 97.5,-256.1 92,-261.6 86.5,-261.6 86.5,-261.6 26.5,-261.6 26.5,-261.6 21,-261.6 15.5,-256.1 15.5,-250.6 15.5,-250.6 15.5,-239.6 15.5,-239.6 15.5,-234.1 21,-228.6 26.5,-228.6"/>
</g>
<!-- discovering&#45;&gt;unbinding -->
<g id="edge2" class="edge transition">
<title>discovering&#45;&gt;unbinding</title>
<path fill="none" stroke="black" d="M98.81,-254.5C150.93,-264.22 242.07,-273.92 311,-242.1 327.44,-234.51 340.91,-219.37 350.41,-205.83"/>
<polygon fill="black" stroke="black" points="353.48,-207.54 356.06,-197.26 347.63,-203.68 353.48,-207.54"/>
<text text-anchor="start" x="131" y="-266.1" font-family="Helvetica,sans-Serif" font-size="10.00">Reclaim Host &#45; Reclaim pre&#45;installation &#160;&#160;</text>
</g>
<!-- discovering&#45;&gt;unbinding -->
<g id="edge7" class="edge transition">
<title>discovering&#45;&gt;unbinding</title>
<path fill="none" stroke="black" d="M98.63,-235.73C109.16,-233.45 120.48,-231.09 131,-229.1 210.62,-214.03 232.74,-221.11 311,-200.1 313.64,-199.39 316.33,-198.6 319.02,-197.75"/>
<polygon fill="black" stroke="black" points="320.4,-200.99 328.76,-194.49 318.17,-194.35 320.4,-200.99"/>
<text text-anchor="start" x="135.5" y="-232.1" font-family="Helvetica,sans-Serif" font-size="10.00">Unbind Host &#45; Unbind pre&#45;installation &#160;&#160;</text>
</g>
<!-- insufficient -->
<g id="node3" class="node state regular">
<title>insufficient</title>
<polygon fill="#ffffff" fill-opacity="0.003922" stroke="transparent" stroke-width="2" points="96.5,-205.1 16.5,-205.1 16.5,-169.1 96.5,-169.1 96.5,-205.1"/>
<text text-anchor="start" x="27.5" y="-183.5" font-family="Helvetica,sans-Serif" font-size="12.00">insufficient</text>
<path fill="none" stroke="black" stroke-width="2" d="M28.5,-170.6C28.5,-170.6 84.5,-170.6 84.5,-170.6 90,-170.6 95.5,-176.1 95.5,-181.6 95.5,-181.6 95.5,-192.6 95.5,-192.6 95.5,-198.1 90,-203.6 84.5,-203.6 84.5,-203.6 28.5,-203.6 28.5,-203.6 23,-203.6 17.5,-198.1 17.5,-192.6 17.5,-192.6 17.5,-181.6 17.5,-181.6 17.5,-176.1 23,-170.6 28.5,-170.6"/>
</g>
<!-- insufficient&#45;&gt;unbinding -->
<g id="edge4" class="edge transition">
<title>insufficient&#45;&gt;unbinding</title>
<path fill="none" stroke="black" d="M96.57,-186.09C153.13,-184.62 257.68,-181.91 318.58,-180.33"/>
<polygon fill="black" stroke="black" points="318.78,-183.82 328.69,-180.07 318.6,-176.83 318.78,-183.82"/>
<text text-anchor="start" x="131" y="-188.1" font-family="Helvetica,sans-Serif" font-size="10.00">Reclaim Host &#45; Reclaim pre&#45;installation &#160;&#160;</text>
</g>
<!-- insufficient&#45;&gt;unbinding -->
<g id="edge9" class="edge transition">
<title>insufficient&#45;&gt;unbinding</title>
<path fill="none" stroke="black" d="M96.69,-173.07C107.65,-169.79 119.67,-166.76 131,-165.1 210.16,-153.51 231.62,-155.15 311,-165.1 313.66,-165.43 316.37,-165.85 319.1,-166.34"/>
<polygon fill="black" stroke="black" points="318.47,-169.78 328.96,-168.34 319.86,-162.92 318.47,-169.78"/>
<text text-anchor="start" x="135.5" y="-168.1" font-family="Helvetica,sans-Serif" font-size="10.00">Unbind Host &#45; Unbind pre&#45;installation &#160;&#160;</text>
</g>
<!-- known -->
<g id="node4" class="node state regular">
<title>known</title>
<polygon fill="#ffffff" fill-opacity="0.003922" stroke="transparent" stroke-width="2" points="85.5,-131.1 27.5,-131.1 27.5,-95.1 85.5,-95.1 85.5,-131.1"/>
<text text-anchor="start" x="38.5" y="-109.5" font-family="Helvetica,sans-Serif" font-size="12.00">known</text>
<path fill="none" stroke="black" stroke-width="2" d="M39.5,-96.6C39.5,-96.6 73.5,-96.6 73.5,-96.6 79,-96.6 84.5,-102.1 84.5,-107.6 84.5,-107.6 84.5,-118.6 84.5,-118.6 84.5,-124.1 79,-129.6 73.5,-129.6 73.5,-129.6 39.5,-129.6 39.5,-129.6 34,-129.6 28.5,-124.1 28.5,-118.6 28.5,-118.6 28.5,-107.6 28.5,-107.6 28.5,-102.1 34,-96.6 39.5,-96.6"/>
</g>
<!-- known&#45;&gt;unbinding -->
<g id="edge1" class="edge transition">
<title>known&#45;&gt;unbinding</title>
<path fill="none" stroke="black" d="M85.53,-111.8C133.39,-110.54 233.22,-112.06 311,-141.1 320.02,-144.47 328.98,-149.64 336.96,-155.1"/>
<polygon fill="black" stroke="black" points="335.04,-158.04 345.19,-161.07 339.14,-152.37 335.04,-158.04"/>
<text text-anchor="start" x="131" y="-144.1" font-family="Helvetica,sans-Serif" font-size="10.00">Reclaim Host &#45; Reclaim pre&#45;installation &#160;&#160;</text>
</g>
<!-- known&#45;&gt;unbinding -->
<g id="edge6" class="edge transition">
<title>known&#45;&gt;unbinding</title>
<path fill="none" stroke="black" d="M85.8,-101.97C134.93,-84.57 237.75,-56.76 311,-96.1 332.76,-107.78 347.36,-132.27 356.02,-151.64"/>
<polygon fill="black" stroke="black" points="352.81,-153.05 359.9,-160.93 359.27,-150.35 352.81,-153.05"/>
<text text-anchor="start" x="135.5" y="-99.1" font-family="Helvetica,sans-Serif" font-size="10.00">Unbind Host &#45; Unbind pre&#45;installation &#160;&#160;</text>
</g>
<!-- pending&#45;for&#45;input -->
<g id="node5" class="node state regular">
<title>pending&#45;for&#45;input</title>
<polygon fill="#ffffff" fill-opacity="0.003922" stroke="transparent" stroke-width="2" points="113,-61.1 0,-61.1 0,-25.1 113,-25.1 113,-61.1"/>
<text text-anchor="start" x="11.5" y="-39.5" font-family="Helvetica,sans-Serif" font-size="12.00">pending&#45;for&#45;input</text>
<path fill="none" stroke="black" stroke-width="2" d="M12,-26.6C12,-26.6 101,-26.6 101,-26.6 106.5,-26.6 112,-32.1 112,-37.6 112,-37.6 112,-48.6 112,-48.6 112,-54.1 106.5,-59.6 101,-59.6 101,-59.6 12,-59.6 12,-59.6 6.5,-59.6 1,-54.1 1,-48.6 1,-48.6 1,-37.6 1,-37.6 1,-32.1 6.5,-26.6 12,-26.6"/>
</g>
<!-- pending&#45;for&#45;input&#45;&gt;unbinding -->
<g id="edge5" class="edge transition">
<title>pending&#45;for&#45;input&#45;&gt;unbinding</title>
<path fill="none" stroke="black" d="M113.07,-40.39C177.86,-38.33 280.02,-38.79 311,-60.1 341.26,-80.91 355.23,-122.77 361.42,-150.88"/>
<polygon fill="black" stroke="black" points="358.03,-151.78 363.43,-160.9 364.89,-150.41 358.03,-151.78"/>
<text text-anchor="start" x="131" y="-63.1" font-family="Helvetica,sans-Serif" font-size="10.00">Reclaim Host &#45; Reclaim pre&#45;installation &#160;&#160;</text>
</g>
<!-- pending&#45;for&#45;input&#45;&gt;unbinding -->
<g id="edge10" class="edge transition">
<title>pending&#45;for&#45;input&#45;&gt;unbinding</title>
<path fill="none" stroke="black" d="M100.02,-24.96C154.23,-4.94 248.43,19 311,-25.1 351.38,-53.55 362.28,-114.47 365.11,-150.58"/>
<polygon fill="black" stroke="black" points="361.64,-151.16 365.76,-160.92 368.63,-150.72 361.64,-151.16"/>
<text text-anchor="start" x="135.5" y="-28.1" font-family="Helvetica,sans-Serif" font-size="10.00">Unbind Host &#45; Unbind pre&#45;installation &#160;&#160;</text>
</g>
</g>
</svg>
