<?xml version="1.0" encoding="UTF-8" standalone="no"?>
<!DOCTYPE svg PUBLIC "-//W3C//DTD SVG 1.1//EN"
 "http://www.w3.org/Graphics/SVG/1.1/DTD/svg11.dtd">
<!-- Generated by graphviz version 12.1.0 (20240811.2233)
 -->
<!-- Title: state transitions Pages: 1 -->
<svg width="547pt" height="75pt"
 viewBox="0.00 0.00 546.88 75.00" xmlns="http://www.w3.org/2000/svg" xmlns:xlink="http://www.w3.org/1999/xlink">
<g id="graph0" class="graph" transform="scale(1 1) rotate(0) translate(4 71)">
<title>state transitions</title>
<polygon fill="white" stroke="none" points="-4,4 -4,-71 542.88,-71 542.88,4 -4,4"/>
<!-- known -->
<g id="node1" class="node state regular">
<title>known</title>
<polygon fill="#ffffff" fill-opacity="0.003922" stroke="none" stroke-width="2" points="61,-36.25 0,-36.25 0,0 61,0 61,-36.25"/>
<text text-anchor="start" x="11" y="-13.85" font-family="Helvetica,sans-Serif" font-size="12.00">known</text>
<path fill="none" stroke="black" stroke-width="2" d="M12.42,-1C12.42,-1 48.58,-1 48.58,-1 54.29,-1 60,-6.71 60,-12.42 60,-12.42 60,-23.83 60,-23.83 60,-29.54 54.29,-35.25 48.58,-35.25 48.58,-35.25 12.42,-35.25 12.42,-35.25 6.71,-35.25 1,-29.54 1,-23.83 1,-23.83 1,-12.42 1,-12.42 1,-6.71 6.71,-1 12.42,-1"/>
</g>
<!-- preparing&#45;for&#45;installation -->
<g id="node2" class="node state regular">
<title>preparing&#45;for&#45;installation</title>
<polygon fill="#ffffff" fill-opacity="0.003922" stroke="none" stroke-width="2" points="516.5,-36.25 347.5,-36.25 347.5,0 516.5,0 516.5,-36.25"/>
<text text-anchor="start" x="358.5" y="-13.85" font-family="Helvetica,sans-Serif" font-size="12.00">preparing&#45;for&#45;installation</text>
<path fill="none" stroke="black" stroke-width="2" d="M359.92,-1C359.92,-1 504.08,-1 504.08,-1 509.79,-1 515.5,-6.71 515.5,-12.42 515.5,-12.42 515.5,-23.83 515.5,-23.83 515.5,-29.54 509.79,-35.25 504.08,-35.25 504.08,-35.25 359.92,-35.25 359.92,-35.25 354.21,-35.25 348.5,-29.54 348.5,-23.83 348.5,-23.83 348.5,-12.42 348.5,-12.42 348.5,-6.71 354.21,-1 359.92,-1"/>
</g>
<!-- known&#45;&gt;preparing&#45;for&#45;installation -->
<g id="edge1" class="edge transition">
<title>known&#45;&gt;preparing&#45;for&#45;installation</title>
<path fill="none" stroke="black" d="M60.88,-18.12C118.16,-18.12 247,-18.12 336.45,-18.12"/>
<polygon fill="black" stroke="black" points="336.19,-21.63 346.19,-18.13 336.19,-14.63 336.19,-21.63"/>
<text text-anchor="start" x="79" y="-21.38" font-family="Helvetica,sans-Serif" font-size="10.00">Refresh &#45; Refresh known host in preparing cluster &#160;&#160;</text>
</g>
<!-- preparing&#45;for&#45;installation&#45;&gt;preparing&#45;for&#45;installation -->
<g id="edge2" class="edge transition">
<title>preparing&#45;for&#45;installation&#45;&gt;preparing&#45;for&#45;installation</title>
<path fill="none" stroke="black" d="M391.06,-35.97C384.1,-45.53 397.75,-54.25 432,-54.25 451.8,-54.25 464.72,-51.34 470.75,-47.03"/>
<polygon fill="black" stroke="black" points="474.13,-47.94 472.65,-37.45 467.27,-46.58 474.13,-47.94"/>
<text text-anchor="start" x="325.12" y="-57.5" font-family="Helvetica,sans-Serif" font-size="10.00">Refresh &#45; Stay in preparing for installation &#160;&#160;</text>
</g>
</g>
</svg>
