<?xml version="1.0" encoding="UTF-8" standalone="no"?>
<!DOCTYPE svg PUBLIC "-//W3C//DTD SVG 1.1//EN"
 "http://www.w3.org/Graphics/SVG/1.1/DTD/svg11.dtd">
<!-- Generated by graphviz version 12.1.0 (20240811.2233)
 -->
<!-- Title: state transitions Pages: 1 -->
<svg width="1133pt" height="796pt"
 viewBox="0.00 0.00 1132.75 795.72" xmlns="http://www.w3.org/2000/svg" xmlns:xlink="http://www.w3.org/1999/xlink">
<g id="graph0" class="graph" transform="scale(1 1) rotate(0) translate(4 791.72)">
<title>state transitions</title>
<polygon fill="white" stroke="none" points="-4,4 -4,-791.72 1128.75,-791.72 1128.75,4 -4,4"/>
<!-- error -->
<g id="node1" class="node state regular">
<title>error</title>
<polygon fill="#ffffff" fill-opacity="0.003922" stroke="none" stroke-width="2" points="946.5,-437.84 890.5,-437.84 890.5,-401.59 946.5,-401.59 946.5,-437.84"/>
<text text-anchor="start" x="903.88" y="-415.44" font-family="Helvetica,sans-Serif" font-size="12.00">error</text>
<path fill="none" stroke="black" stroke-width="2" d="M902.92,-402.59C902.92,-402.59 934.08,-402.59 934.08,-402.59 939.79,-402.59 945.5,-408.3 945.5,-414 945.5,-414 945.5,-425.42 945.5,-425.42 945.5,-431.13 939.79,-436.84 934.08,-436.84 934.08,-436.84 902.92,-436.84 902.92,-436.84 897.21,-436.84 891.5,-431.13 891.5,-425.42 891.5,-425.42 891.5,-414 891.5,-414 891.5,-408.3 897.21,-402.59 902.92,-402.59"/>
</g>
<!-- error&#45;&gt;error -->
<g id="edge1" class="edge transition">
<title>error&#45;&gt;error</title>
<path fill="none" stroke="black" d="M901.67,-437.56C898.81,-447.12 904.42,-455.84 918.5,-455.84 926.42,-455.84 931.66,-453.08 934.22,-448.96"/>
<polygon fill="black" stroke="black" points="937.7,-449.35 935.18,-439.06 930.73,-448.68 937.7,-449.35"/>
<text text-anchor="start" x="712.25" y="-459.09" font-family="Helvetica,sans-Serif" font-size="10.00">Media Disconnect &#45; Move to error when virtual media disconnects post&#45;installation &#160;&#160;</text>
</g>
<!-- error&#45;&gt;error -->
<g id="edge2" class="edge transition">
<title>error&#45;&gt;error</title>
<path fill="none" stroke="black" d="M890.6,-437.45C875.19,-454.79 884.49,-473.84 918.5,-473.84 946.4,-473.84 957.67,-461.02 952.31,-446.84"/>
<polygon fill="black" stroke="black" points="955.5,-445.33 947.21,-438.73 949.57,-449.06 955.5,-445.33"/>
<text text-anchor="start" x="752.75" y="-477.09" font-family="Helvetica,sans-Serif" font-size="10.00">Refresh &#45; Log collection timed out during error should stay in error &#160;&#160;</text>
</g>
<!-- error&#45;&gt;error -->
<g id="edge3" class="edge transition">
<title>error&#45;&gt;error</title>
<path fill="none" stroke="black" d="M890.73,-432.47C850,-457.61 859.25,-491.84 918.5,-491.84 972.66,-491.84 985.04,-463.24 955.67,-439.12"/>
<polygon fill="black" stroke="black" points="957.69,-436.27 947.51,-433.34 953.64,-441.98 957.69,-436.27"/>
<text text-anchor="start" x="792.88" y="-495.09" font-family="Helvetica,sans-Serif" font-size="10.00">Refresh &#45; Refresh during error should stay in error &#160;&#160;</text>
</g>
<!-- error&#45;&gt;error -->
<g id="edge4" class="edge transition">
<title>error&#45;&gt;error</title>
<path fill="none" stroke="black" d="M890.71,-430.74C826.04,-462.39 835.3,-509.84 918.5,-509.84 997.15,-509.84 1009.73,-467.44 956.24,-436.06"/>
<polygon fill="black" stroke="black" points="958.09,-433.09 947.62,-431.45 954.79,-439.26 958.09,-433.09"/>
<text text-anchor="start" x="825.88" y="-513.09" font-family="Helvetica,sans-Serif" font-size="10.00">Register Host &#45; Register during error &#160;&#160;</text>
</g>
<!-- installed -->
<g id="node2" class="node state regular">
<title>installed</title>
<polygon fill="#ffffff" fill-opacity="0.003922" stroke="none" stroke-width="2" points="134.5,-761.84 63,-761.84 63,-725.59 134.5,-725.59 134.5,-761.84"/>
<text text-anchor="start" x="74" y="-739.44" font-family="Helvetica,sans-Serif" font-size="12.00">installed</text>
<path fill="none" stroke="black" stroke-width="2" d="M75.42,-726.59C75.42,-726.59 122.08,-726.59 122.08,-726.59 127.79,-726.59 133.5,-732.3 133.5,-738 133.5,-738 133.5,-749.42 133.5,-749.42 133.5,-755.13 127.79,-760.84 122.08,-760.84 122.08,-760.84 75.42,-760.84 75.42,-760.84 69.71,-760.84 64,-755.13 64,-749.42 64,-749.42 64,-738 64,-738 64,-732.3 69.71,-726.59 75.42,-726.59"/>
</g>
<!-- installed&#45;&gt;error -->
<g id="edge5" class="edge transition">
<title>installed&#45;&gt;error</title>
<path fill="none" stroke="black" d="M134.29,-747.98C269.68,-763.91 762.14,-814.09 872.5,-715.71 911.68,-680.79 917.05,-516.79 917.57,-449.07"/>
<polygon fill="black" stroke="black" points="921.07,-449.13 917.61,-439.12 914.07,-449.1 921.07,-449.13"/>
<text text-anchor="start" x="413.5" y="-778.22" font-family="Helvetica,sans-Serif" font-size="10.00">Refresh &#45; Move host to error when cluster is in error &#160;&#160;</text>
</g>
<!-- installing -->
<g id="node3" class="node state regular">
<title>installing</title>
<polygon fill="#ffffff" fill-opacity="0.003922" stroke="none" stroke-width="2" points="136,-635.84 61.5,-635.84 61.5,-599.59 136,-599.59 136,-635.84"/>
<text text-anchor="start" x="72.5" y="-613.44" font-family="Helvetica,sans-Serif" font-size="12.00">installing</text>
<path fill="none" stroke="black" stroke-width="2" d="M73.92,-600.59C73.92,-600.59 123.58,-600.59 123.58,-600.59 129.29,-600.59 135,-606.3 135,-612 135,-612 135,-623.42 135,-623.42 135,-629.13 129.29,-634.84 123.58,-634.84 123.58,-634.84 73.92,-634.84 73.92,-634.84 68.21,-634.84 62.5,-629.13 62.5,-623.42 62.5,-623.42 62.5,-612 62.5,-612 62.5,-606.3 68.21,-600.59 73.92,-600.59"/>
</g>
<!-- installing&#45;&gt;error -->
<g id="edge6" class="edge transition">
<title>installing&#45;&gt;error</title>
<path fill="none" stroke="black" d="M122.03,-635.73C144.2,-652.41 179.97,-676.05 215.5,-685.71 250.72,-695.29 844.62,-709.27 872.5,-685.71 908.05,-655.67 915.52,-511.95 917.09,-449.16"/>
<polygon fill="black" stroke="black" points="920.59,-449.33 917.3,-439.26 913.59,-449.18 920.59,-449.33"/>
<text text-anchor="start" x="392.12" y="-701.9" font-family="Helvetica,sans-Serif" font-size="10.00">Installation Failed &#45; Installation failed while host is installing &#160;&#160;</text>
</g>
<!-- installing&#45;&gt;error -->
<g id="edge7" class="edge transition">
<title>installing&#45;&gt;error</title>
<path fill="none" stroke="black" d="M135.97,-630.44C158.53,-637.68 188.33,-646.03 215.5,-649.71 251.67,-654.62 844.32,-672.91 872.5,-649.71 903.01,-624.59 913.13,-505.17 916.23,-449.02"/>
<polygon fill="black" stroke="black" points="919.72,-449.42 916.73,-439.26 912.73,-449.06 919.72,-449.42"/>
<text text-anchor="start" x="337.75" y="-664.45" font-family="Helvetica,sans-Serif" font-size="10.00">Media Disconnect &#45; Move to error when virtual media disconnects post&#45;installation &#160;&#160;</text>
</g>
<!-- installing&#45;&gt;error -->
<g id="edge8" class="edge transition">
<title>installing&#45;&gt;error</title>
<path fill="none" stroke="black" d="M135.98,-618.76C284.91,-622.92 843.44,-636.92 872.5,-613.71 897.9,-593.42 910.27,-498.25 915.04,-449.16"/>
<polygon fill="black" stroke="black" points="918.52,-449.54 915.96,-439.26 911.55,-448.89 918.52,-449.54"/>
<text text-anchor="start" x="413.5" y="-630" font-family="Helvetica,sans-Serif" font-size="10.00">Refresh &#45; Move host to error when cluster is in error &#160;&#160;</text>
</g>
<!-- installing&#45;&gt;error -->
<g id="edge9" class="edge transition">
<title>installing&#45;&gt;error</title>
<path fill="none" stroke="black" d="M135.79,-609.83C158.53,-605.21 188.59,-599.75 215.5,-596.96 251.82,-593.2 843.68,-600.14 872.5,-577.71 892.78,-561.93 906.81,-490.07 913.34,-448.91"/>
<polygon fill="black" stroke="black" points="916.77,-449.61 914.82,-439.19 909.85,-448.55 916.77,-449.61"/>
<text text-anchor="start" x="402.62" y="-600.21" font-family="Helvetica,sans-Serif" font-size="10.00">Refresh &#45; Move host to error when installation times out &#160;&#160;</text>
</g>
<!-- installing&#45;&gt;error -->
<g id="edge10" class="edge transition">
<title>installing&#45;&gt;error</title>
<path fill="none" stroke="black" d="M127.93,-599.63C150.59,-586.17 183.78,-568.81 215.5,-560.96 250.95,-552.19 842.85,-563.03 872.5,-541.71 902.01,-520.49 912.2,-477.71 915.7,-448.88"/>
<polygon fill="black" stroke="black" points="919.18,-449.28 916.68,-438.99 912.21,-448.59 919.18,-449.28"/>
<text text-anchor="start" x="379.38" y="-564.21" font-family="Helvetica,sans-Serif" font-size="10.00">Refresh &#45; Move installing host to error when connection times out &#160;&#160;</text>
</g>
<!-- installing&#45;&gt;error -->
<g id="edge11" class="edge transition">
<title>installing&#45;&gt;error</title>
<path fill="none" stroke="black" d="M115.18,-599.63C135.53,-577.29 173.69,-540.34 215.5,-524.96 284.04,-499.75 810.59,-544.44 872.5,-505.71 892.68,-493.09 904.29,-468.21 910.65,-448.44"/>
<polygon fill="black" stroke="black" points="913.97,-449.56 913.39,-438.98 907.24,-447.61 913.97,-449.56"/>
<text text-anchor="start" x="435.62" y="-528.21" font-family="Helvetica,sans-Serif" font-size="10.00">Register Host &#45; Register during installation &#160;&#160;</text>
</g>
<!-- installing&#45;in&#45;progress -->
<g id="node4" class="node state regular">
<title>installing&#45;in&#45;progress</title>
<polygon fill="#ffffff" fill-opacity="0.003922" stroke="none" stroke-width="2" points="171.25,-401.84 26.25,-401.84 26.25,-365.59 171.25,-365.59 171.25,-401.84"/>
<text text-anchor="start" x="37.25" y="-379.44" font-family="Helvetica,sans-Serif" font-size="12.00">installing&#45;in&#45;progress</text>
<path fill="none" stroke="black" stroke-width="2" d="M38.67,-366.59C38.67,-366.59 158.83,-366.59 158.83,-366.59 164.54,-366.59 170.25,-372.3 170.25,-378 170.25,-378 170.25,-389.42 170.25,-389.42 170.25,-395.13 164.54,-400.84 158.83,-400.84 158.83,-400.84 38.67,-400.84 38.67,-400.84 32.96,-400.84 27.25,-395.13 27.25,-389.42 27.25,-389.42 27.25,-378 27.25,-378 27.25,-372.3 32.96,-366.59 38.67,-366.59"/>
</g>
<!-- installing&#45;in&#45;progress&#45;&gt;error -->
<g id="edge12" class="edge transition">
<title>installing&#45;in&#45;progress&#45;&gt;error</title>
<path fill="none" stroke="black" d="M116.48,-401.78C137.31,-422.81 175.09,-456.34 215.5,-469.71 284.81,-492.64 805.81,-499.41 872.5,-469.71 883.54,-464.79 893.01,-455.68 900.37,-446.57"/>
<polygon fill="black" stroke="black" points="902.97,-448.94 906.11,-438.83 897.35,-444.77 902.97,-448.94"/>
<text text-anchor="start" x="392.12" y="-492.77" font-family="Helvetica,sans-Serif" font-size="10.00">Installation Failed &#45; Installation failed while host is installing &#160;&#160;</text>
</g>
<!-- installing&#45;in&#45;progress&#45;&gt;error -->
<g id="edge13" class="edge transition">
<title>installing&#45;in&#45;progress&#45;&gt;error</title>
<path fill="none" stroke="black" d="M131.51,-401.64C154.14,-413.34 185.7,-427.55 215.5,-433.71 286.99,-448.49 800.33,-444.68 872.5,-433.71 874.84,-433.36 877.22,-432.9 879.61,-432.38"/>
<polygon fill="black" stroke="black" points="880.42,-435.78 889.22,-429.88 878.66,-429.01 880.42,-435.78"/>
<text text-anchor="start" x="337.75" y="-446.67" font-family="Helvetica,sans-Serif" font-size="10.00">Media Disconnect &#45; Move to error when virtual media disconnects post&#45;installation &#160;&#160;</text>
</g>
<!-- installing&#45;in&#45;progress&#45;&gt;error -->
<g id="edge14" class="edge transition">
<title>installing&#45;in&#45;progress&#45;&gt;error</title>
<path fill="none" stroke="black" d="M170.97,-393.36C185.67,-395.06 201.07,-396.63 215.5,-397.71 506.81,-419.55 580.67,-403.77 872.5,-416.96 874.82,-417.07 877.21,-417.18 879.62,-417.31"/>
<polygon fill="black" stroke="black" points="879.16,-420.79 889.35,-417.86 879.56,-413.8 879.16,-420.79"/>
<text text-anchor="start" x="413.5" y="-420.21" font-family="Helvetica,sans-Serif" font-size="10.00">Refresh &#45; Move host to error when cluster is in error &#160;&#160;</text>
</g>
<!-- installing&#45;in&#45;progress&#45;&gt;error -->
<g id="edge15" class="edge transition">
<title>installing&#45;in&#45;progress&#45;&gt;error</title>
<path fill="none" stroke="black" d="M171.06,-381.75C185.76,-381.42 201.13,-381.13 215.5,-380.96 288.49,-380.1 804.06,-355.56 872.5,-380.96 880.34,-383.87 887.73,-388.83 894.17,-394.24"/>
<polygon fill="black" stroke="black" points="891.48,-396.52 901.2,-400.74 896.23,-391.38 891.48,-396.52"/>
<text text-anchor="start" x="379.38" y="-384.21" font-family="Helvetica,sans-Serif" font-size="10.00">Refresh &#45; Move installing host to error when connection times out &#160;&#160;</text>
</g>
<!-- installing&#45;in&#45;progress&#45;&gt;error -->
<g id="edge16" class="edge transition">
<title>installing&#45;in&#45;progress&#45;&gt;error</title>
<path fill="none" stroke="black" d="M155.98,-365.64C174.7,-360.47 195.81,-355.53 215.5,-352.96 287.89,-343.51 808.05,-318.68 872.5,-352.96 887.84,-361.12 898.89,-377.1 906.2,-391.37"/>
<polygon fill="black" stroke="black" points="903.03,-392.85 910.44,-400.43 909.37,-389.89 903.03,-392.85"/>
<text text-anchor="start" x="215.5" y="-356.21" font-family="Helvetica,sans-Serif" font-size="10.00">Refresh &#45; Move to error on timeout if host is in particular installation in progress stages other than [writing&#45;image&#45;to&#45;disk, rebooting] &#160;&#160;</text>
</g>
<!-- installing&#45;in&#45;progress&#45;&gt;error -->
<g id="edge17" class="edge transition">
<title>installing&#45;in&#45;progress&#45;&gt;error</title>
<path fill="none" stroke="black" d="M123.46,-365.63C145.82,-349.8 180.96,-327.97 215.5,-318.96 286.14,-300.55 811.25,-279.24 872.5,-318.96 896.7,-334.66 908,-366.74 913.2,-390.51"/>
<polygon fill="black" stroke="black" points="909.75,-391.07 915.07,-400.23 916.62,-389.75 909.75,-391.07"/>
<text text-anchor="start" x="274.75" y="-322.21" font-family="Helvetica,sans-Serif" font-size="10.00">Refresh &#45; Move to error on timeout if host is in particular installation in progress stage writing&#45;image&#45;to&#45;disk &#160;&#160;</text>
</g>
<!-- installing&#45;in&#45;progress&#45;&gt;error -->
<g id="edge18" class="edge transition">
<title>installing&#45;in&#45;progress&#45;&gt;error</title>
<path fill="none" stroke="black" d="M112.62,-365.88C131.77,-341.07 170.38,-297.22 215.5,-279.96 249.59,-266.92 843,-258.47 872.5,-279.96 907.18,-305.23 915.71,-357.69 917.48,-390.66"/>
<polygon fill="black" stroke="black" points="913.97,-390.45 917.82,-400.32 920.97,-390.21 913.97,-390.45"/>
<text text-anchor="start" x="435.62" y="-283.21" font-family="Helvetica,sans-Serif" font-size="10.00">Register Host &#45; Register during installation &#160;&#160;</text>
</g>
<!-- installing&#45;pending&#45;user&#45;action -->
<g id="node5" class="node state regular">
<title>installing&#45;pending&#45;user&#45;action</title>
<polygon fill="#ffffff" fill-opacity="0.003922" stroke="none" stroke-width="2" points="197.5,-275.84 0,-275.84 0,-239.59 197.5,-239.59 197.5,-275.84"/>
<text text-anchor="start" x="11" y="-253.44" font-family="Helvetica,sans-Serif" font-size="12.00">installing&#45;pending&#45;user&#45;action</text>
<path fill="none" stroke="black" stroke-width="2" d="M12.42,-240.59C12.42,-240.59 185.08,-240.59 185.08,-240.59 190.79,-240.59 196.5,-246.3 196.5,-252 196.5,-252 196.5,-263.42 196.5,-263.42 196.5,-269.13 190.79,-274.84 185.08,-274.84 185.08,-274.84 12.42,-274.84 12.42,-274.84 6.71,-274.84 1,-269.13 1,-263.42 1,-263.42 1,-252 1,-252 1,-246.3 6.71,-240.59 12.42,-240.59"/>
</g>
<!-- installing&#45;pending&#45;user&#45;action&#45;&gt;error -->
<g id="edge19" class="edge transition">
<title>installing&#45;pending&#45;user&#45;action&#45;&gt;error</title>
<path fill="none" stroke="black" d="M197.49,-250.11C393.48,-235.81 820.3,-209.8 872.5,-249.96 894.64,-267 908.14,-346.64 914.03,-390.52"/>
<polygon fill="black" stroke="black" points="910.55,-390.89 915.29,-400.36 917.49,-390 910.55,-390.89"/>
<text text-anchor="start" x="413.5" y="-253.21" font-family="Helvetica,sans-Serif" font-size="10.00">Refresh &#45; Move host to error when cluster is in error &#160;&#160;</text>
</g>
<!-- preparing&#45;failed -->
<g id="node6" class="node state regular">
<title>preparing&#45;failed</title>
<polygon fill="#ffffff" fill-opacity="0.003922" stroke="none" stroke-width="2" points="157.38,-221.84 40.13,-221.84 40.13,-185.59 157.38,-185.59 157.38,-221.84"/>
<text text-anchor="start" x="51.12" y="-199.44" font-family="Helvetica,sans-Serif" font-size="12.00">preparing&#45;failed</text>
<path fill="none" stroke="black" stroke-width="2" d="M52.54,-186.59C52.54,-186.59 144.96,-186.59 144.96,-186.59 150.67,-186.59 156.38,-192.3 156.38,-198 156.38,-198 156.38,-209.42 156.38,-209.42 156.38,-215.13 150.67,-220.84 144.96,-220.84 144.96,-220.84 52.54,-220.84 52.54,-220.84 46.83,-220.84 41.12,-215.13 41.12,-209.42 41.12,-209.42 41.12,-198 41.12,-198 41.12,-192.3 46.83,-186.59 52.54,-186.59"/>
</g>
<!-- preparing&#45;failed&#45;&gt;error -->
<g id="edge20" class="edge transition">
<title>preparing&#45;failed&#45;&gt;error</title>
<path fill="none" stroke="black" d="M157.3,-200.28C327.1,-190.69 817.59,-167.18 872.5,-211.96 899.77,-234.2 911.38,-338.6 915.53,-390.41"/>
<polygon fill="black" stroke="black" points="912.04,-390.56 916.28,-400.27 919.02,-390.04 912.04,-390.56"/>
<text text-anchor="start" x="337.75" y="-215.21" font-family="Helvetica,sans-Serif" font-size="10.00">Media Disconnect &#45; Move to error when virtual media disconnects post&#45;installation &#160;&#160;</text>
</g>
<!-- preparing&#45;for&#45;installation -->
<g id="node7" class="node state regular">
<title>preparing&#45;for&#45;installation</title>
<polygon fill="#ffffff" fill-opacity="0.003922" stroke="none" stroke-width="2" points="183.25,-167.84 14.25,-167.84 14.25,-131.59 183.25,-131.59 183.25,-167.84"/>
<text text-anchor="start" x="25.25" y="-145.44" font-family="Helvetica,sans-Serif" font-size="12.00">preparing&#45;for&#45;installation</text>
<path fill="none" stroke="black" stroke-width="2" d="M26.67,-132.59C26.67,-132.59 170.83,-132.59 170.83,-132.59 176.54,-132.59 182.25,-138.3 182.25,-144 182.25,-144 182.25,-155.42 182.25,-155.42 182.25,-161.13 176.54,-166.84 170.83,-166.84 170.83,-166.84 26.67,-166.84 26.67,-166.84 20.96,-166.84 15.25,-161.13 15.25,-155.42 15.25,-155.42 15.25,-144 15.25,-144 15.25,-138.3 20.96,-132.59 26.67,-132.59"/>
</g>
<!-- preparing&#45;for&#45;installation&#45;&gt;error -->
<g id="edge21" class="edge transition">
<title>preparing&#45;for&#45;installation&#45;&gt;error</title>
<path fill="none" stroke="black" d="M183.22,-139.14C361.46,-118.52 771.28,-82.13 872.5,-168.96 905.55,-197.32 914.38,-330.43 916.7,-390.35"/>
<polygon fill="black" stroke="black" points="913.19,-390.25 917.04,-400.12 920.19,-390.01 913.19,-390.25"/>
<text text-anchor="start" x="337.75" y="-172.21" font-family="Helvetica,sans-Serif" font-size="10.00">Media Disconnect &#45; Move to error when virtual media disconnects post&#45;installation &#160;&#160;</text>
</g>
<!-- preparing&#45;successful -->
<g id="node8" class="node state regular">
<title>preparing&#45;successful</title>
<polygon fill="#ffffff" fill-opacity="0.003922" stroke="none" stroke-width="2" points="171.62,-113.84 25.88,-113.84 25.88,-77.59 171.62,-77.59 171.62,-113.84"/>
<text text-anchor="start" x="36.88" y="-91.44" font-family="Helvetica,sans-Serif" font-size="12.00">preparing&#45;successful</text>
<path fill="none" stroke="black" stroke-width="2" d="M38.29,-78.59C38.29,-78.59 159.21,-78.59 159.21,-78.59 164.92,-78.59 170.62,-84.3 170.62,-90 170.62,-90 170.62,-101.42 170.62,-101.42 170.62,-107.13 164.92,-112.84 159.21,-112.84 159.21,-112.84 38.29,-112.84 38.29,-112.84 32.58,-112.84 26.88,-107.13 26.88,-101.42 26.88,-101.42 26.88,-90 26.88,-90 26.88,-84.3 32.58,-78.59 38.29,-78.59"/>
</g>
<!-- preparing&#45;successful&#45;&gt;error -->
<g id="edge22" class="edge transition">
<title>preparing&#45;successful&#45;&gt;error</title>
<path fill="none" stroke="black" d="M171.37,-90.6C352.92,-78.35 820.48,-51.62 872.5,-96.96 916.14,-135 918.76,-318.5 918.06,-390.57"/>
<polygon fill="black" stroke="black" points="914.56,-390.35 917.93,-400.39 921.56,-390.44 914.56,-390.35"/>
<text text-anchor="start" x="337.75" y="-100.21" font-family="Helvetica,sans-Serif" font-size="10.00">Media Disconnect &#45; Move to error when virtual media disconnects post&#45;installation &#160;&#160;</text>
</g>
<!-- resetting&#45;pending&#45;user&#45;action -->
<g id="node9" class="node state regular">
<title>resetting&#45;pending&#45;user&#45;action</title>
<polygon fill="#ffffff" fill-opacity="0.003922" stroke="none" stroke-width="2" points="197.5,-59.84 0,-59.84 0,-23.59 197.5,-23.59 197.5,-59.84"/>
<text text-anchor="start" x="11" y="-37.44" font-family="Helvetica,sans-Serif" font-size="12.00">resetting&#45;pending&#45;user&#45;action</text>
<path fill="none" stroke="black" stroke-width="2" d="M12.42,-24.59C12.42,-24.59 185.08,-24.59 185.08,-24.59 190.79,-24.59 196.5,-30.3 196.5,-36 196.5,-36 196.5,-47.42 196.5,-47.42 196.5,-53.13 190.79,-58.84 185.08,-58.84 185.08,-58.84 12.42,-58.84 12.42,-58.84 6.71,-58.84 1,-53.13 1,-47.42 1,-47.42 1,-36 1,-36 1,-30.3 6.71,-24.59 12.42,-24.59"/>
</g>
<!-- resetting&#45;pending&#45;user&#45;action&#45;&gt;error -->
<g id="edge23" class="edge transition">
<title>resetting&#45;pending&#45;user&#45;action&#45;&gt;error</title>
<path fill="none" stroke="black" d="M197.46,-28.26C382.87,-5.09 775.86,31.97 872.5,-54.96 897.4,-77.36 911.72,-308.35 916.07,-390.72"/>
<polygon fill="black" stroke="black" points="912.56,-390.65 916.57,-400.46 919.55,-390.29 912.56,-390.65"/>
<text text-anchor="start" x="413.5" y="-58.21" font-family="Helvetica,sans-Serif" font-size="10.00">Refresh &#45; Move host to error when cluster is in error &#160;&#160;</text>
</g>
</g>
</svg>
