<?xml version="1.0" encoding="UTF-8" standalone="no"?>
<!DOCTYPE svg PUBLIC "-//W3C//DTD SVG 1.1//EN"
 "http://www.w3.org/Graphics/SVG/1.1/DTD/svg11.dtd">
<!-- Generated by graphviz version 5.0.0 (0)
 -->
<!-- Title: state transitions Pages: 1 -->
<svg width="659pt" height="435pt"
 viewBox="0.00 0.00 659.00 435.41" xmlns="http://www.w3.org/2000/svg" xmlns:xlink="http://www.w3.org/1999/xlink">
<g id="graph0" class="graph" transform="scale(1 1) rotate(0) translate(4 431.41)">
<title>state transitions</title>
<polygon fill="white" stroke="transparent" points="-4,4 -4,-431.41 655,-431.41 655,4 -4,4"/>
<!-- disconnected -->
<g id="node1" class="node state regular">
<title>disconnected</title>
<polygon fill="#ffffff" fill-opacity="0.003922" stroke="transparent" stroke-width="2" points="123,-402.41 29,-402.41 29,-366.41 123,-366.41 123,-402.41"/>
<text text-anchor="start" x="40" y="-380.81" font-family="Helvetica,sans-Serif" font-size="12.00">disconnected</text>
<path fill="none" stroke="black" stroke-width="2" d="M41,-367.91C41,-367.91 111,-367.91 111,-367.91 116.5,-367.91 122,-373.41 122,-378.91 122,-378.91 122,-389.91 122,-389.91 122,-395.41 116.5,-400.91 111,-400.91 111,-400.91 41,-400.91 41,-400.91 35.5,-400.91 30,-395.41 30,-389.91 30,-389.91 30,-378.91 30,-378.91 30,-373.41 35.5,-367.91 41,-367.91"/>
</g>
<!-- known -->
<g id="node4" class="node state regular">
<title>known</title>
<polygon fill="#ffffff" fill-opacity="0.003922" stroke="transparent" stroke-width="2" points="587,-203.41 529,-203.41 529,-167.41 587,-167.41 587,-203.41"/>
<text text-anchor="start" x="540" y="-181.81" font-family="Helvetica,sans-Serif" font-size="12.00">known</text>
<path fill="none" stroke="black" stroke-width="2" d="M541,-168.91C541,-168.91 575,-168.91 575,-168.91 580.5,-168.91 586,-174.41 586,-179.91 586,-179.91 586,-190.91 586,-190.91 586,-196.41 580.5,-201.91 575,-201.91 575,-201.91 541,-201.91 541,-201.91 535.5,-201.91 530,-196.41 530,-190.91 530,-190.91 530,-179.91 530,-179.91 530,-174.41 535.5,-168.91 541,-168.91"/>
</g>
<!-- disconnected&#45;&gt;known -->
<g id="edge7" class="edge transition">
<title>disconnected&#45;&gt;known</title>
<path fill="none" stroke="black" d="M123.12,-396.66C209.85,-416.71 398.61,-445.68 511,-353.41 532.49,-335.76 546.85,-256.76 553.22,-213.67"/>
<polygon fill="black" stroke="black" points="556.72,-213.94 554.67,-203.55 549.79,-212.95 556.72,-213.94"/>
<text text-anchor="start" x="290.5" y="-419.41" font-family="Helvetica,sans-Serif" font-size="10.00">Refresh &#45; Host ready &#160;&#160;</text>
</g>
<!-- discovering -->
<g id="node2" class="node state regular">
<title>discovering</title>
<polygon fill="#ffffff" fill-opacity="0.003922" stroke="transparent" stroke-width="2" points="118,-348.41 34,-348.41 34,-312.41 118,-312.41 118,-348.41"/>
<text text-anchor="start" x="45" y="-326.81" font-family="Helvetica,sans-Serif" font-size="12.00">discovering</text>
<path fill="none" stroke="black" stroke-width="2" d="M46,-313.91C46,-313.91 106,-313.91 106,-313.91 111.5,-313.91 117,-319.41 117,-324.91 117,-324.91 117,-335.91 117,-335.91 117,-341.41 111.5,-346.91 106,-346.91 106,-346.91 46,-346.91 46,-346.91 40.5,-346.91 35,-341.41 35,-335.91 35,-335.91 35,-324.91 35,-324.91 35,-319.41 40.5,-313.91 46,-313.91"/>
</g>
<!-- discovering&#45;&gt;known -->
<g id="edge10" class="edge transition">
<title>discovering&#45;&gt;known</title>
<path fill="none" stroke="black" d="M118.21,-333.41C214.23,-339.54 449.36,-349.43 511,-304.41 539.86,-283.32 550.62,-241.53 554.62,-213.52"/>
<polygon fill="black" stroke="black" points="558.1,-213.88 555.85,-203.53 551.16,-213.03 558.1,-213.88"/>
<text text-anchor="start" x="290.5" y="-341.41" font-family="Helvetica,sans-Serif" font-size="10.00">Refresh &#45; Host ready &#160;&#160;</text>
</g>
<!-- insufficient -->
<g id="node3" class="node state regular">
<title>insufficient</title>
<polygon fill="#ffffff" fill-opacity="0.003922" stroke="transparent" stroke-width="2" points="116,-294.41 36,-294.41 36,-258.41 116,-258.41 116,-294.41"/>
<text text-anchor="start" x="47" y="-272.81" font-family="Helvetica,sans-Serif" font-size="12.00">insufficient</text>
<path fill="none" stroke="black" stroke-width="2" d="M48,-259.91C48,-259.91 104,-259.91 104,-259.91 109.5,-259.91 115,-265.41 115,-270.91 115,-270.91 115,-281.91 115,-281.91 115,-287.41 109.5,-292.91 104,-292.91 104,-292.91 48,-292.91 48,-292.91 42.5,-292.91 37,-287.41 37,-281.91 37,-281.91 37,-270.91 37,-270.91 37,-265.41 42.5,-259.91 48,-259.91"/>
</g>
<!-- insufficient&#45;&gt;known -->
<g id="edge8" class="edge transition">
<title>insufficient&#45;&gt;known</title>
<path fill="none" stroke="black" d="M116.15,-282.08C195.51,-291.69 379.01,-304.14 511,-237.41 522.48,-231.6 532.38,-221.6 540.03,-211.91"/>
<polygon fill="black" stroke="black" points="543.05,-213.71 546.15,-203.58 537.41,-209.57 543.05,-213.71"/>
<text text-anchor="start" x="290.5" y="-292.41" font-family="Helvetica,sans-Serif" font-size="10.00">Refresh &#45; Host ready &#160;&#160;</text>
</g>
<!-- known&#45;&gt;known -->
<g id="edge3" class="edge transition">
<title>known&#45;&gt;known</title>
<path fill="none" stroke="black" d="M538.46,-203.56C535.46,-212.95 541.97,-221.41 558,-221.41 567.77,-221.41 574,-218.27 576.7,-213.69"/>
<polygon fill="black" stroke="black" points="580.2,-213.82 577.54,-203.56 573.23,-213.24 580.2,-213.82"/>
<text text-anchor="start" x="465" y="-224.41" font-family="Helvetica,sans-Serif" font-size="10.00">Cancel Installation &#45; Cancel while known &#160;&#160;</text>
</g>
<!-- known&#45;&gt;known -->
<g id="edge11" class="edge transition">
<title>known&#45;&gt;known</title>
<path fill="none" stroke="black" d="M528.93,-200.34C506.97,-218.31 516.66,-239.41 558,-239.41 593.85,-239.41 605.9,-223.54 594.15,-207.6"/>
<polygon fill="black" stroke="black" points="596.55,-205.06 587.07,-200.34 591.54,-209.94 596.55,-205.06"/>
<text text-anchor="start" x="497" y="-242.41" font-family="Helvetica,sans-Serif" font-size="10.00">Refresh &#45; Host stay ready &#160;&#160;</text>
</g>
<!-- pending&#45;for&#45;input -->
<g id="node5" class="node state regular">
<title>pending&#45;for&#45;input</title>
<polygon fill="#ffffff" fill-opacity="0.003922" stroke="transparent" stroke-width="2" points="132.5,-240.41 19.5,-240.41 19.5,-204.41 132.5,-204.41 132.5,-240.41"/>
<text text-anchor="start" x="31" y="-218.81" font-family="Helvetica,sans-Serif" font-size="12.00">pending&#45;for&#45;input</text>
<path fill="none" stroke="black" stroke-width="2" d="M31.5,-205.91C31.5,-205.91 120.5,-205.91 120.5,-205.91 126,-205.91 131.5,-211.41 131.5,-216.91 131.5,-216.91 131.5,-227.91 131.5,-227.91 131.5,-233.41 126,-238.91 120.5,-238.91 120.5,-238.91 31.5,-238.91 31.5,-238.91 26,-238.91 20.5,-233.41 20.5,-227.91 20.5,-227.91 20.5,-216.91 20.5,-216.91 20.5,-211.41 26,-205.91 31.5,-205.91"/>
</g>
<!-- pending&#45;for&#45;input&#45;&gt;known -->
<g id="edge9" class="edge transition">
<title>pending&#45;for&#45;input&#45;&gt;known</title>
<path fill="none" stroke="black" d="M132.58,-223.23C215.55,-223.57 376.46,-220.86 511,-198.41 513.51,-197.99 516.07,-197.49 518.65,-196.92"/>
<polygon fill="black" stroke="black" points="519.63,-200.29 528.51,-194.51 517.97,-193.49 519.63,-200.29"/>
<text text-anchor="start" x="290.5" y="-225.41" font-family="Helvetica,sans-Serif" font-size="10.00">Refresh &#45; Host ready &#160;&#160;</text>
</g>
<!-- preparing&#45;failed -->
<g id="node6" class="node state regular">
<title>preparing&#45;failed</title>
<polygon fill="#ffffff" fill-opacity="0.003922" stroke="transparent" stroke-width="2" points="129.5,-186.41 22.5,-186.41 22.5,-150.41 129.5,-150.41 129.5,-186.41"/>
<text text-anchor="start" x="34" y="-164.81" font-family="Helvetica,sans-Serif" font-size="12.00">preparing&#45;failed</text>
<path fill="none" stroke="black" stroke-width="2" d="M34.5,-151.91C34.5,-151.91 117.5,-151.91 117.5,-151.91 123,-151.91 128.5,-157.41 128.5,-162.91 128.5,-162.91 128.5,-173.91 128.5,-173.91 128.5,-179.41 123,-184.91 117.5,-184.91 117.5,-184.91 34.5,-184.91 34.5,-184.91 29,-184.91 23.5,-179.41 23.5,-173.91 23.5,-173.91 23.5,-162.91 23.5,-162.91 23.5,-157.41 29,-151.91 34.5,-151.91"/>
</g>
<!-- preparing&#45;failed&#45;&gt;known -->
<g id="edge5" class="edge transition">
<title>preparing&#45;failed&#45;&gt;known</title>
<path fill="none" stroke="black" d="M129.74,-170.28C227.23,-173.73 433.45,-181.03 518.79,-184.06"/>
<polygon fill="black" stroke="black" points="518.7,-187.55 528.82,-184.41 518.95,-180.56 518.7,-187.55"/>
<text text-anchor="start" x="181" y="-186.41" font-family="Helvetica,sans-Serif" font-size="10.00">Refresh &#45; Failed preparing to known when cluster is no longer preparing &#160;&#160;</text>
</g>
<!-- preparing&#45;for&#45;installation -->
<g id="node7" class="node state regular">
<title>preparing&#45;for&#45;installation</title>
<polygon fill="#ffffff" fill-opacity="0.003922" stroke="transparent" stroke-width="2" points="152,-132.41 0,-132.41 0,-96.41 152,-96.41 152,-132.41"/>
<text text-anchor="start" x="11" y="-110.81" font-family="Helvetica,sans-Serif" font-size="12.00">preparing&#45;for&#45;installation</text>
<path fill="none" stroke="black" stroke-width="2" d="M12,-97.91C12,-97.91 140,-97.91 140,-97.91 145.5,-97.91 151,-103.41 151,-108.91 151,-108.91 151,-119.91 151,-119.91 151,-125.41 145.5,-130.91 140,-130.91 140,-130.91 12,-130.91 12,-130.91 6.5,-130.91 1,-125.41 1,-119.91 1,-119.91 1,-108.91 1,-108.91 1,-103.41 6.5,-97.91 12,-97.91"/>
</g>
<!-- preparing&#45;for&#45;installation&#45;&gt;known -->
<g id="edge1" class="edge transition">
<title>preparing&#45;for&#45;installation&#45;&gt;known</title>
<path fill="none" stroke="black" d="M152.05,-127.05C158.11,-127.91 164.15,-128.71 170,-129.41 320.95,-147.53 366.72,-108.48 511,-156.41 515.35,-157.85 519.71,-159.79 523.91,-161.99"/>
<polygon fill="black" stroke="black" points="522.39,-165.15 532.8,-167.11 525.88,-159.09 522.39,-165.15"/>
<text text-anchor="start" x="242" y="-159.41" font-family="Helvetica,sans-Serif" font-size="10.00">Cancel Installation &#45; Cancel while preparing &#160;&#160;</text>
</g>
<!-- preparing&#45;for&#45;installation&#45;&gt;known -->
<g id="edge4" class="edge transition">
<title>preparing&#45;for&#45;installation&#45;&gt;known</title>
<path fill="none" stroke="black" d="M152.36,-106.42C259.92,-96.41 451.12,-84.18 511,-116.41 527.33,-125.2 538.87,-142.6 546.31,-157.74"/>
<polygon fill="black" stroke="black" points="543.3,-159.57 550.61,-167.24 549.67,-156.69 543.3,-159.57"/>
<text text-anchor="start" x="185" y="-119.41" font-family="Helvetica,sans-Serif" font-size="10.00">Refresh &#45; Move preparing host to known when cluster stops preparing &#160;&#160;</text>
</g>
<!-- preparing&#45;successful -->
<g id="node8" class="node state regular">
<title>preparing&#45;successful</title>
<polygon fill="#ffffff" fill-opacity="0.003922" stroke="transparent" stroke-width="2" points="143,-74.41 9,-74.41 9,-38.41 143,-38.41 143,-74.41"/>
<text text-anchor="start" x="20" y="-52.81" font-family="Helvetica,sans-Serif" font-size="12.00">preparing&#45;successful</text>
<path fill="none" stroke="black" stroke-width="2" d="M21,-39.91C21,-39.91 131,-39.91 131,-39.91 136.5,-39.91 142,-45.41 142,-50.91 142,-50.91 142,-61.91 142,-61.91 142,-67.41 136.5,-72.91 131,-72.91 131,-72.91 21,-72.91 21,-72.91 15.5,-72.91 10,-67.41 10,-61.91 10,-61.91 10,-50.91 10,-50.91 10,-45.41 15.5,-39.91 21,-39.91"/>
</g>
<!-- preparing&#45;successful&#45;&gt;known -->
<g id="edge2" class="edge transition">
<title>preparing&#45;successful&#45;&gt;known</title>
<path fill="none" stroke="black" d="M143.05,-60.15C264.04,-67.03 509.13,-81.12 511,-82.41 535.69,-99.49 547.31,-133.06 552.65,-157.23"/>
<polygon fill="black" stroke="black" points="549.26,-158.13 554.64,-167.27 556.13,-156.78 549.26,-158.13"/>
<text text-anchor="start" x="242" y="-85.41" font-family="Helvetica,sans-Serif" font-size="10.00">Cancel Installation &#45; Cancel while preparing &#160;&#160;</text>
</g>
<!-- preparing&#45;successful&#45;&gt;known -->
<g id="edge6" class="edge transition">
<title>preparing&#45;successful&#45;&gt;known</title>
<path fill="none" stroke="black" d="M125.83,-38.31C212.47,-9.59 394.9,35.08 511,-48.41 545.41,-73.15 554.44,-124.88 556.6,-157.22"/>
<polygon fill="black" stroke="black" points="553.11,-157.56 557.09,-167.37 560.1,-157.22 553.11,-157.56"/>
<text text-anchor="start" x="170" y="-51.41" font-family="Helvetica,sans-Serif" font-size="10.00">Refresh &#45; Successful preparing to known when cluster is no longer preparing &#160;&#160;</text>
</g>
</g>
</svg>
