<?xml version="1.0" encoding="UTF-8" standalone="no"?>
<!DOCTYPE svg PUBLIC "-//W3C//DTD SVG 1.1//EN"
 "http://www.w3.org/Graphics/SVG/1.1/DTD/svg11.dtd">
<!-- Generated by graphviz version 12.1.0 (20240811.2233)
 -->
<!-- Title: state transitions Pages: 1 -->
<svg width="804pt" height="152pt"
 viewBox="0.00 0.00 804.12 152.25" xmlns="http://www.w3.org/2000/svg" xmlns:xlink="http://www.w3.org/1999/xlink">
<g id="graph0" class="graph" transform="scale(1 1) rotate(0) translate(4 148.25)">
<title>state transitions</title>
<polygon fill="white" stroke="none" points="-4,4 -4,-148.25 800.12,-148.25 800.12,4 -4,4"/>
<!-- added&#45;to&#45;existing&#45;cluster -->
<g id="node1" class="node state regular">
<title>added&#45;to&#45;existing&#45;cluster</title>
<polygon fill="#ffffff" fill-opacity="0.003922" stroke="none" stroke-width="2" points="758.75,-90.25 587.5,-90.25 587.5,-54 758.75,-54 758.75,-90.25"/>
<text text-anchor="start" x="598.5" y="-67.85" font-family="Helvetica,sans-Serif" font-size="12.00">added&#45;to&#45;existing&#45;cluster</text>
<path fill="none" stroke="black" stroke-width="2" d="M599.92,-55C599.92,-55 746.33,-55 746.33,-55 752.04,-55 757.75,-60.71 757.75,-66.42 757.75,-66.42 757.75,-77.83 757.75,-77.83 757.75,-83.54 752.04,-89.25 746.33,-89.25 746.33,-89.25 599.92,-89.25 599.92,-89.25 594.21,-89.25 588.5,-83.54 588.5,-77.83 588.5,-77.83 588.5,-66.42 588.5,-66.42 588.5,-60.71 594.21,-55 599.92,-55"/>
</g>
<!-- added&#45;to&#45;existing&#45;cluster&#45;&gt;added&#45;to&#45;existing&#45;cluster -->
<g id="edge1" class="edge transition">
<title>added&#45;to&#45;existing&#45;cluster&#45;&gt;added&#45;to&#45;existing&#45;cluster</title>
<path fill="none" stroke="black" d="M622.75,-89.97C614.19,-99.53 630.98,-108.25 673.12,-108.25 697.49,-108.25 713.38,-105.34 720.8,-101.03"/>
<polygon fill="black" stroke="black" points="724.17,-101.98 723.14,-91.44 717.37,-100.32 724.17,-101.98"/>
<text text-anchor="start" x="550.12" y="-111.5" font-family="Helvetica,sans-Serif" font-size="10.00">Refresh &#45; Day 2 hosts should stay in added state &#160;&#160;</text>
</g>
<!-- installing -->
<g id="node2" class="node state regular">
<title>installing</title>
<polygon fill="#ffffff" fill-opacity="0.003922" stroke="none" stroke-width="2" points="136.38,-144.25 61.88,-144.25 61.88,-108 136.38,-108 136.38,-144.25"/>
<text text-anchor="start" x="72.88" y="-121.85" font-family="Helvetica,sans-Serif" font-size="12.00">installing</text>
<path fill="none" stroke="black" stroke-width="2" d="M74.29,-109C74.29,-109 123.96,-109 123.96,-109 129.67,-109 135.38,-114.71 135.38,-120.42 135.38,-120.42 135.38,-131.83 135.38,-131.83 135.38,-137.54 129.67,-143.25 123.96,-143.25 123.96,-143.25 74.29,-143.25 74.29,-143.25 68.58,-143.25 62.88,-137.54 62.88,-131.83 62.88,-131.83 62.88,-120.42 62.88,-120.42 62.88,-114.71 68.58,-109 74.29,-109"/>
</g>
<!-- installing&#45;&gt;added&#45;to&#45;existing&#45;cluster -->
<g id="edge2" class="edge transition">
<title>installing&#45;&gt;added&#45;to&#45;existing&#45;cluster</title>
<path fill="none" stroke="black" d="M136.15,-124.34C214.95,-120.2 408.44,-108.78 569.5,-89.12 571.81,-88.84 574.15,-88.55 576.51,-88.24"/>
<polygon fill="black" stroke="black" points="576.71,-91.74 586.14,-86.91 575.76,-84.81 576.71,-91.74"/>
<text text-anchor="start" x="216.25" y="-122.43" font-family="Helvetica,sans-Serif" font-size="10.00">null &#45; host progress changed to added&#45;to&#45;existing&#45;cluster for day2 host &#160;&#160;</text>
</g>
<!-- installing&#45;in&#45;progress -->
<g id="node3" class="node state regular">
<title>installing&#45;in&#45;progress</title>
<polygon fill="#ffffff" fill-opacity="0.003922" stroke="none" stroke-width="2" points="171.62,-90.25 26.62,-90.25 26.62,-54 171.62,-54 171.62,-90.25"/>
<text text-anchor="start" x="37.62" y="-67.85" font-family="Helvetica,sans-Serif" font-size="12.00">installing&#45;in&#45;progress</text>
<path fill="none" stroke="black" stroke-width="2" d="M39.04,-55C39.04,-55 159.21,-55 159.21,-55 164.92,-55 170.62,-60.71 170.62,-66.42 170.62,-66.42 170.62,-77.83 170.62,-77.83 170.62,-83.54 164.92,-89.25 159.21,-89.25 159.21,-89.25 39.04,-89.25 39.04,-89.25 33.33,-89.25 27.62,-83.54 27.62,-77.83 27.62,-77.83 27.62,-66.42 27.62,-66.42 27.62,-60.71 33.33,-55 39.04,-55"/>
</g>
<!-- installing&#45;in&#45;progress&#45;&gt;added&#45;to&#45;existing&#45;cluster -->
<g id="edge3" class="edge transition">
<title>installing&#45;in&#45;progress&#45;&gt;added&#45;to&#45;existing&#45;cluster</title>
<path fill="none" stroke="black" d="M171.41,-72.12C273.62,-72.12 462.04,-72.12 576.33,-72.12"/>
<polygon fill="black" stroke="black" points="576.32,-75.63 586.32,-72.13 576.32,-68.63 576.32,-75.63"/>
<text text-anchor="start" x="216.25" y="-75.38" font-family="Helvetica,sans-Serif" font-size="10.00">null &#45; host progress changed to added&#45;to&#45;existing&#45;cluster for day2 host &#160;&#160;</text>
</g>
<!-- installing&#45;pending&#45;user&#45;action -->
<g id="node4" class="node state regular">
<title>installing&#45;pending&#45;user&#45;action</title>
<polygon fill="#ffffff" fill-opacity="0.003922" stroke="none" stroke-width="2" points="198.25,-36.25 0,-36.25 0,0 198.25,0 198.25,-36.25"/>
<text text-anchor="start" x="11" y="-13.85" font-family="Helvetica,sans-Serif" font-size="12.00">installing&#45;pending&#45;user&#45;action</text>
<path fill="none" stroke="black" stroke-width="2" d="M12.42,-1C12.42,-1 185.83,-1 185.83,-1 191.54,-1 197.25,-6.71 197.25,-12.42 197.25,-12.42 197.25,-23.83 197.25,-23.83 197.25,-29.54 191.54,-35.25 185.83,-35.25 185.83,-35.25 12.42,-35.25 12.42,-35.25 6.71,-35.25 1,-29.54 1,-23.83 1,-23.83 1,-12.42 1,-12.42 1,-6.71 6.71,-1 12.42,-1"/>
</g>
<!-- installing&#45;pending&#45;user&#45;action&#45;&gt;added&#45;to&#45;existing&#45;cluster -->
<g id="edge4" class="edge transition">
<title>installing&#45;pending&#45;user&#45;action&#45;&gt;added&#45;to&#45;existing&#45;cluster</title>
<path fill="none" stroke="black" d="M197.9,-23.52C293.01,-29.33 441.48,-39.87 569.5,-55.38 571.81,-55.65 574.15,-55.95 576.5,-56.25"/>
<polygon fill="black" stroke="black" points="575.76,-59.69 586.14,-57.56 576.7,-52.75 575.76,-59.69"/>
<text text-anchor="start" x="216.25" y="-58.62" font-family="Helvetica,sans-Serif" font-size="10.00">null &#45; host progress changed to added&#45;to&#45;existing&#45;cluster for day2 host &#160;&#160;</text>
</g>
</g>
</svg>
