<?xml version="1.0" encoding="UTF-8" standalone="no"?>
<!DOCTYPE svg PUBLIC "-//W3C//DTD SVG 1.1//EN"
 "http://www.w3.org/Graphics/SVG/1.1/DTD/svg11.dtd">
<!-- Generated by graphviz version 7.1.0 (0)
 -->
<!-- Title: state transitions Pages: 1 -->
<svg width="843pt" height="509pt"
 viewBox="0.00 0.00 843.00 509.39" xmlns="http://www.w3.org/2000/svg" xmlns:xlink="http://www.w3.org/1999/xlink">
<g id="graph0" class="graph" transform="scale(1 1) rotate(0) translate(4 505.39)">
<title>state transitions</title>
<polygon fill="white" stroke="none" points="-4,4 -4,-505.39 839,-505.39 839,4 -4,4"/>
<!-- binding -->
<g id="node1" class="node state regular">
<title>binding</title>
<polygon fill="#ffffff" fill-opacity="0.003922" stroke="none" stroke-width="2" points="107,-472.39 45,-472.39 45,-436.39 107,-436.39 107,-472.39"/>
<text text-anchor="start" x="56" y="-450.79" font-family="Helvetica,sans-Serif" font-size="12.00">binding</text>
<path fill="none" stroke="black" stroke-width="2" d="M57,-437.89C57,-437.89 95,-437.89 95,-437.89 100.5,-437.89 106,-443.39 106,-448.89 106,-448.89 106,-459.89 106,-459.89 106,-465.39 100.5,-470.89 95,-470.89 95,-470.89 57,-470.89 57,-470.89 51.5,-470.89 46,-465.39 46,-459.89 46,-459.89 46,-448.89 46,-448.89 46,-443.39 51.5,-437.89 57,-437.89"/>
</g>
<!-- disconnected -->
<g id="node2" class="node state regular">
<title>disconnected</title>
<polygon fill="#ffffff" fill-opacity="0.003922" stroke="none" stroke-width="2" points="682,-285.39 588,-285.39 588,-249.39 682,-249.39 682,-285.39"/>
<text text-anchor="start" x="599" y="-263.79" font-family="Helvetica,sans-Serif" font-size="12.00">disconnected</text>
<path fill="none" stroke="black" stroke-width="2" d="M600,-250.89C600,-250.89 670,-250.89 670,-250.89 675.5,-250.89 681,-256.39 681,-261.89 681,-261.89 681,-272.89 681,-272.89 681,-278.39 675.5,-283.89 670,-283.89 670,-283.89 600,-283.89 600,-283.89 594.5,-283.89 589,-278.39 589,-272.89 589,-272.89 589,-261.89 589,-261.89 589,-256.39 594.5,-250.89 600,-250.89"/>
</g>
<!-- binding&#45;&gt;disconnected -->
<g id="edge6" class="edge transition">
<title>binding&#45;&gt;disconnected</title>
<path fill="none" stroke="black" d="M106.92,-462.6C189.64,-483.41 424.93,-529.48 570,-425.39 611.88,-395.35 626.4,-333.06 631.4,-296.3"/>
<polygon fill="black" stroke="black" points="634.82,-297.19 632.53,-286.84 627.87,-296.35 634.82,-297.19"/>
<text text-anchor="start" x="170" y="-493.39" font-family="Helvetica,sans-Serif" font-size="10.00">Media Disconnect &#45; Move to disconnected when virtual media disconnects pre&#45;installation &#160;&#160;</text>
</g>
<!-- disconnected&#45;&gt;disconnected -->
<g id="edge5" class="edge transition">
<title>disconnected&#45;&gt;disconnected</title>
<path fill="none" stroke="black" d="M611.18,-285.17C607.13,-294.71 615.07,-303.39 635,-303.39 646.21,-303.39 653.62,-300.64 657.25,-296.54"/>
<polygon fill="black" stroke="black" points="660.71,-297.06 658.61,-286.67 653.78,-296.1 660.71,-297.06"/>
<text text-anchor="start" x="435" y="-306.39" font-family="Helvetica,sans-Serif" font-size="10.00">Media Disconnect &#45; Move to disconnected when virtual media disconnects pre&#45;installation &#160;&#160;</text>
</g>
<!-- disconnected&#45;&gt;disconnected -->
<g id="edge11" class="edge transition">
<title>disconnected&#45;&gt;disconnected</title>
<path fill="none" stroke="black" d="M595.17,-285.37C573.85,-302.59 587.12,-321.39 635,-321.39 675.02,-321.39 690.87,-308.25 682.53,-293.88"/>
<polygon fill="black" stroke="black" points="685.15,-291.56 675.85,-286.49 679.96,-296.26 685.15,-291.56"/>
<text text-anchor="start" x="491.5" y="-324.39" font-family="Helvetica,sans-Serif" font-size="10.00">Refresh &#45; Move host to disconnected when connected times out &#160;&#160;</text>
</g>
<!-- discovering -->
<g id="node3" class="node state regular">
<title>discovering</title>
<polygon fill="#ffffff" fill-opacity="0.003922" stroke="none" stroke-width="2" points="118,-416.39 34,-416.39 34,-380.39 118,-380.39 118,-416.39"/>
<text text-anchor="start" x="45" y="-394.79" font-family="Helvetica,sans-Serif" font-size="12.00">discovering</text>
<path fill="none" stroke="black" stroke-width="2" d="M46,-381.89C46,-381.89 106,-381.89 106,-381.89 111.5,-381.89 117,-387.39 117,-392.89 117,-392.89 117,-403.89 117,-403.89 117,-409.39 111.5,-414.89 106,-414.89 106,-414.89 46,-414.89 46,-414.89 40.5,-414.89 35,-409.39 35,-403.89 35,-403.89 35,-392.89 35,-392.89 35,-387.39 40.5,-381.89 46,-381.89"/>
</g>
<!-- discovering&#45;&gt;disconnected -->
<g id="edge1" class="edge transition">
<title>discovering&#45;&gt;disconnected</title>
<path fill="none" stroke="black" d="M117.71,-400.83C228.93,-407.16 532.16,-422.02 570,-398.39 605.6,-376.16 621.93,-327.77 629.02,-296.43"/>
<polygon fill="black" stroke="black" points="632.41,-297.33 631,-286.83 625.56,-295.92 632.41,-297.33"/>
<text text-anchor="start" x="170" y="-413.39" font-family="Helvetica,sans-Serif" font-size="10.00">Media Disconnect &#45; Move to disconnected when virtual media disconnects pre&#45;installation &#160;&#160;</text>
</g>
<!-- discovering&#45;&gt;disconnected -->
<g id="edge7" class="edge transition">
<title>discovering&#45;&gt;disconnected</title>
<path fill="none" stroke="black" d="M117.65,-391.93C133.9,-389.55 152.8,-387.04 170,-385.39 214.3,-381.14 531.38,-386.51 570,-364.39 596.33,-349.31 613.81,-318.48 623.75,-295.6"/>
<polygon fill="black" stroke="black" points="626.92,-297.09 627.46,-286.51 620.44,-294.45 626.92,-297.09"/>
<text text-anchor="start" x="226.5" y="-388.39" font-family="Helvetica,sans-Serif" font-size="10.00">Refresh &#45; Move host to disconnected when connected times out &#160;&#160;</text>
</g>
<!-- insufficient -->
<g id="node4" class="node state regular">
<title>insufficient</title>
<polygon fill="#ffffff" fill-opacity="0.003922" stroke="none" stroke-width="2" points="116,-358.39 36,-358.39 36,-322.39 116,-322.39 116,-358.39"/>
<text text-anchor="start" x="47" y="-336.79" font-family="Helvetica,sans-Serif" font-size="12.00">insufficient</text>
<path fill="none" stroke="black" stroke-width="2" d="M48,-323.89C48,-323.89 104,-323.89 104,-323.89 109.5,-323.89 115,-329.39 115,-334.89 115,-334.89 115,-345.89 115,-345.89 115,-351.39 109.5,-356.89 104,-356.89 104,-356.89 48,-356.89 48,-356.89 42.5,-356.89 37,-351.39 37,-345.89 37,-345.89 37,-334.89 37,-334.89 37,-329.39 42.5,-323.89 48,-323.89"/>
</g>
<!-- insufficient&#45;&gt;disconnected -->
<g id="edge2" class="edge transition">
<title>insufficient&#45;&gt;disconnected</title>
<path fill="none" stroke="black" d="M115.66,-343.24C217.07,-350.14 488.45,-364.76 570,-330.39 587.86,-322.86 603.47,-307.79 614.8,-294.28"/>
<polygon fill="black" stroke="black" points="617.52,-296.48 620.99,-286.47 612.03,-292.13 617.52,-296.48"/>
<text text-anchor="start" x="170" y="-354.39" font-family="Helvetica,sans-Serif" font-size="10.00">Media Disconnect &#45; Move to disconnected when virtual media disconnects pre&#45;installation &#160;&#160;</text>
</g>
<!-- insufficient&#45;&gt;disconnected -->
<g id="edge8" class="edge transition">
<title>insufficient&#45;&gt;disconnected</title>
<path fill="none" stroke="black" d="M115.61,-329.26C132.21,-324.88 151.93,-320.24 170,-317.39 346.04,-289.67 395.36,-324.88 570,-289.39 572.43,-288.9 574.9,-288.33 577.38,-287.72"/>
<polygon fill="black" stroke="black" points="578.09,-291.15 586.8,-285.12 576.23,-284.41 578.09,-291.15"/>
<text text-anchor="start" x="226.5" y="-320.39" font-family="Helvetica,sans-Serif" font-size="10.00">Refresh &#45; Move host to disconnected when connected times out &#160;&#160;</text>
</g>
<!-- known -->
<g id="node5" class="node state regular">
<title>known</title>
<polygon fill="#ffffff" fill-opacity="0.003922" stroke="none" stroke-width="2" points="105,-294.39 47,-294.39 47,-258.39 105,-258.39 105,-294.39"/>
<text text-anchor="start" x="58" y="-272.79" font-family="Helvetica,sans-Serif" font-size="12.00">known</text>
<path fill="none" stroke="black" stroke-width="2" d="M59,-259.89C59,-259.89 93,-259.89 93,-259.89 98.5,-259.89 104,-265.39 104,-270.89 104,-270.89 104,-281.89 104,-281.89 104,-287.39 98.5,-292.89 93,-292.89 93,-292.89 59,-292.89 59,-292.89 53.5,-292.89 48,-287.39 48,-281.89 48,-281.89 48,-270.89 48,-270.89 48,-265.39 53.5,-259.89 59,-259.89"/>
</g>
<!-- known&#45;&gt;disconnected -->
<g id="edge3" class="edge transition">
<title>known&#45;&gt;disconnected</title>
<path fill="none" stroke="black" d="M104.62,-275.94C191.19,-274.55 458.47,-270.23 576.72,-268.32"/>
<polygon fill="black" stroke="black" points="576.57,-271.82 586.51,-268.16 576.45,-264.82 576.57,-271.82"/>
<text text-anchor="start" x="170" y="-277.39" font-family="Helvetica,sans-Serif" font-size="10.00">Media Disconnect &#45; Move to disconnected when virtual media disconnects pre&#45;installation &#160;&#160;</text>
</g>
<!-- known&#45;&gt;disconnected -->
<g id="edge9" class="edge transition">
<title>known&#45;&gt;disconnected</title>
<path fill="none" stroke="black" d="M104.75,-267.65C123.07,-262.35 147.71,-256.11 170,-253.39 346.47,-231.89 393.25,-234.29 570,-253.39 572.21,-253.63 574.45,-253.91 576.7,-254.23"/>
<polygon fill="black" stroke="black" points="576.12,-257.68 586.56,-255.85 577.26,-250.78 576.12,-257.68"/>
<text text-anchor="start" x="226.5" y="-256.39" font-family="Helvetica,sans-Serif" font-size="10.00">Refresh &#45; Move host to disconnected when connected times out &#160;&#160;</text>
</g>
<!-- pending&#45;for&#45;input -->
<g id="node6" class="node state regular">
<title>pending&#45;for&#45;input</title>
<polygon fill="#ffffff" fill-opacity="0.003922" stroke="none" stroke-width="2" points="132.5,-231.39 19.5,-231.39 19.5,-195.39 132.5,-195.39 132.5,-231.39"/>
<text text-anchor="start" x="31" y="-209.79" font-family="Helvetica,sans-Serif" font-size="12.00">pending&#45;for&#45;input</text>
<path fill="none" stroke="black" stroke-width="2" d="M31.5,-196.89C31.5,-196.89 120.5,-196.89 120.5,-196.89 126,-196.89 131.5,-202.39 131.5,-207.89 131.5,-207.89 131.5,-218.89 131.5,-218.89 131.5,-224.39 126,-229.89 120.5,-229.89 120.5,-229.89 31.5,-229.89 31.5,-229.89 26,-229.89 20.5,-224.39 20.5,-218.89 20.5,-218.89 20.5,-207.89 20.5,-207.89 20.5,-202.39 26,-196.89 31.5,-196.89"/>
</g>
<!-- pending&#45;for&#45;input&#45;&gt;disconnected -->
<g id="edge4" class="edge transition">
<title>pending&#45;for&#45;input&#45;&gt;disconnected</title>
<path fill="none" stroke="black" d="M132.41,-210.35C243.63,-204.91 490.25,-196.36 570,-222.39 582.98,-226.63 595.64,-234.48 606.22,-242.45"/>
<polygon fill="black" stroke="black" points="603.76,-244.97 613.77,-248.46 608.12,-239.49 603.76,-244.97"/>
<text text-anchor="start" x="170" y="-225.39" font-family="Helvetica,sans-Serif" font-size="10.00">Media Disconnect &#45; Move to disconnected when virtual media disconnects pre&#45;installation &#160;&#160;</text>
</g>
<!-- pending&#45;for&#45;input&#45;&gt;disconnected -->
<g id="edge10" class="edge transition">
<title>pending&#45;for&#45;input&#45;&gt;disconnected</title>
<path fill="none" stroke="black" d="M132.12,-196.73C144.47,-193.68 157.59,-190.97 170,-189.39 258.18,-178.2 489.65,-151.38 570,-189.39 591.94,-199.77 608.88,-221.77 619.81,-239.76"/>
<polygon fill="black" stroke="black" points="616.63,-241.26 624.64,-248.2 622.71,-237.78 616.63,-241.26"/>
<text text-anchor="start" x="226.5" y="-192.39" font-family="Helvetica,sans-Serif" font-size="10.00">Refresh &#45; Move host to disconnected when connected times out &#160;&#160;</text>
</g>
<!-- preparing&#45;failed -->
<g id="node7" class="node state regular">
<title>preparing&#45;failed</title>
<polygon fill="#ffffff" fill-opacity="0.003922" stroke="none" stroke-width="2" points="129.5,-170.39 22.5,-170.39 22.5,-134.39 129.5,-134.39 129.5,-170.39"/>
<text text-anchor="start" x="34" y="-148.79" font-family="Helvetica,sans-Serif" font-size="12.00">preparing&#45;failed</text>
<path fill="none" stroke="black" stroke-width="2" d="M34.5,-135.89C34.5,-135.89 117.5,-135.89 117.5,-135.89 123,-135.89 128.5,-141.39 128.5,-146.89 128.5,-146.89 128.5,-157.89 128.5,-157.89 128.5,-163.39 123,-168.89 117.5,-168.89 117.5,-168.89 34.5,-168.89 34.5,-168.89 29,-168.89 23.5,-163.39 23.5,-157.89 23.5,-157.89 23.5,-146.89 23.5,-146.89 23.5,-141.39 29,-135.89 34.5,-135.89"/>
</g>
<!-- preparing&#45;failed&#45;&gt;disconnected -->
<g id="edge12" class="edge transition">
<title>preparing&#45;failed&#45;&gt;disconnected</title>
<path fill="none" stroke="black" d="M129.35,-146.15C240.66,-133.9 496.7,-111.46 570,-154.39 600.98,-172.53 618.18,-211.83 626.76,-238.95"/>
<polygon fill="black" stroke="black" points="623.32,-239.66 629.5,-248.27 630.04,-237.69 623.32,-239.66"/>
<text text-anchor="start" x="226.5" y="-157.39" font-family="Helvetica,sans-Serif" font-size="10.00">Refresh &#45; Move host to disconnected when connected times out &#160;&#160;</text>
</g>
<!-- preparing&#45;for&#45;installation -->
<g id="node8" class="node state regular">
<title>preparing&#45;for&#45;installation</title>
<polygon fill="#ffffff" fill-opacity="0.003922" stroke="none" stroke-width="2" points="152,-116.39 0,-116.39 0,-80.39 152,-80.39 152,-116.39"/>
<text text-anchor="start" x="11" y="-94.79" font-family="Helvetica,sans-Serif" font-size="12.00">preparing&#45;for&#45;installation</text>
<path fill="none" stroke="black" stroke-width="2" d="M12,-81.89C12,-81.89 140,-81.89 140,-81.89 145.5,-81.89 151,-87.39 151,-92.89 151,-92.89 151,-103.89 151,-103.89 151,-109.39 145.5,-114.89 140,-114.89 140,-114.89 12,-114.89 12,-114.89 6.5,-114.89 1,-109.39 1,-103.89 1,-103.89 1,-92.89 1,-92.89 1,-87.39 6.5,-81.89 12,-81.89"/>
</g>
<!-- preparing&#45;for&#45;installation&#45;&gt;disconnected -->
<g id="edge13" class="edge transition">
<title>preparing&#45;for&#45;installation&#45;&gt;disconnected</title>
<path fill="none" stroke="black" d="M151.74,-91.08C272.65,-80.82 504.26,-68.06 570,-113.39 611.22,-141.82 625.96,-202.12 631.18,-238.26"/>
<polygon fill="black" stroke="black" points="627.68,-238.53 632.42,-248 634.63,-237.64 627.68,-238.53"/>
<text text-anchor="start" x="204" y="-116.39" font-family="Helvetica,sans-Serif" font-size="10.00">Refresh &#45; Move preparing host to disconnected when connection times out &#160;&#160;</text>
</g>
<!-- preparing&#45;successful -->
<g id="node9" class="node state regular">
<title>preparing&#45;successful</title>
<polygon fill="#ffffff" fill-opacity="0.003922" stroke="none" stroke-width="2" points="143,-62.39 9,-62.39 9,-26.39 143,-26.39 143,-62.39"/>
<text text-anchor="start" x="20" y="-40.79" font-family="Helvetica,sans-Serif" font-size="12.00">preparing&#45;successful</text>
<path fill="none" stroke="black" stroke-width="2" d="M21,-27.89C21,-27.89 131,-27.89 131,-27.89 136.5,-27.89 142,-33.39 142,-38.89 142,-38.89 142,-49.89 142,-49.89 142,-55.39 136.5,-60.89 131,-60.89 131,-60.89 21,-60.89 21,-60.89 15.5,-60.89 10,-55.39 10,-49.89 10,-49.89 10,-38.89 10,-38.89 10,-33.39 15.5,-27.89 21,-27.89"/>
</g>
<!-- preparing&#45;successful&#45;&gt;disconnected -->
<g id="edge14" class="edge transition">
<title>preparing&#45;successful&#45;&gt;disconnected</title>
<path fill="none" stroke="black" d="M139.45,-26.42C241.1,-1.25 443.64,31.32 570,-65.39 623.79,-106.56 633.31,-193 634.42,-238.29"/>
<polygon fill="black" stroke="black" points="630.92,-238.17 634.52,-248.14 637.92,-238.1 630.92,-238.17"/>
<text text-anchor="start" x="204" y="-68.39" font-family="Helvetica,sans-Serif" font-size="10.00">Refresh &#45; Move preparing host to disconnected when connection times out &#160;&#160;</text>
</g>
</g>
</svg>
