<?xml version="1.0" encoding="UTF-8" standalone="no"?>
<!DOCTYPE svg PUBLIC "-//W3C//DTD SVG 1.1//EN"
 "http://www.w3.org/Graphics/SVG/1.1/DTD/svg11.dtd">
<!-- Generated by graphviz version 5.0.0 (0)
 -->
<!-- Title: state transitions Pages: 1 -->
<svg width="404pt" height="73pt"
 viewBox="0.00 0.00 404.00 73.00" xmlns="http://www.w3.org/2000/svg" xmlns:xlink="http://www.w3.org/1999/xlink">
<g id="graph0" class="graph" transform="scale(1 1) rotate(0) translate(4 69)">
<title>state transitions</title>
<polygon fill="white" stroke="transparent" points="-4,4 -4,-69 400,-69 400,4 -4,4"/>
<!-- installed -->
<g id="node1" class="node state regular">
<title>installed</title>
<polygon fill="#ffffff" fill-opacity="0.003922" stroke="transparent" stroke-width="2" points="232,-36 164,-36 164,0 232,0 232,-36"/>
<text text-anchor="start" x="175" y="-14.4" font-family="Helvetica,sans-Serif" font-size="12.00">installed</text>
<path fill="none" stroke="black" stroke-width="2" d="M176,-1.5C176,-1.5 220,-1.5 220,-1.5 225.5,-1.5 231,-7 231,-12.5 231,-12.5 231,-23.5 231,-23.5 231,-29 225.5,-34.5 220,-34.5 220,-34.5 176,-34.5 176,-34.5 170.5,-34.5 165,-29 165,-23.5 165,-23.5 165,-12.5 165,-12.5 165,-7 170.5,-1.5 176,-1.5"/>
</g>
<!-- installed&#45;&gt;installed -->
<g id="edge1" class="edge transition">
<title>installed&#45;&gt;installed</title>
<path fill="none" stroke="black" d="M185.7,-36.15C183.81,-45.54 187.91,-54 198,-54 204.15,-54 208.08,-50.86 209.78,-46.28"/>
<polygon fill="black" stroke="black" points="213.28,-46.32 210.3,-36.15 206.29,-45.96 213.28,-46.32"/>
<text text-anchor="start" x="0" y="-57" font-family="Helvetica,sans-Serif" font-size="10.00">Refresh &#45; Refresh during installed state without cluster error should stay in installed state &#160;&#160;</text>
</g>
</g>
</svg>
