<?xml version="1.0" encoding="UTF-8" standalone="no"?>
<!DOCTYPE svg PUBLIC "-//W3C//DTD SVG 1.1//EN"
 "http://www.w3.org/Graphics/SVG/1.1/DTD/svg11.dtd">
<!-- Generated by graphviz version 12.1.0 (20240811.2233)
 -->
<!-- Title: state transitions Pages: 1 -->
<svg width="728pt" height="456pt"
 viewBox="0.00 0.00 728.00 455.77" xmlns="http://www.w3.org/2000/svg" xmlns:xlink="http://www.w3.org/1999/xlink">
<g id="graph0" class="graph" transform="scale(1 1) rotate(0) translate(4 451.77)">
<title>state transitions</title>
<polygon fill="white" stroke="none" points="-4,4 -4,-451.77 724,-451.77 724,4 -4,4"/>
<!-- disconnected -->
<g id="node1" class="node state regular">
<title>disconnected</title>
<polygon fill="#ffffff" fill-opacity="0.003922" stroke="none" stroke-width="2" points="135.62,-415.61 34.12,-415.61 34.12,-379.36 135.62,-379.36 135.62,-415.61"/>
<text text-anchor="start" x="45.12" y="-393.21" font-family="Helvetica,sans-Serif" font-size="12.00">disconnected</text>
<path fill="none" stroke="black" stroke-width="2" d="M46.54,-380.36C46.54,-380.36 123.21,-380.36 123.21,-380.36 128.92,-380.36 134.62,-386.07 134.62,-391.78 134.62,-391.78 134.62,-403.19 134.62,-403.19 134.62,-408.9 128.92,-414.61 123.21,-414.61 123.21,-414.61 46.54,-414.61 46.54,-414.61 40.83,-414.61 35.12,-408.9 35.12,-403.19 35.12,-403.19 35.12,-391.78 35.12,-391.78 35.12,-386.07 40.83,-380.36 46.54,-380.36"/>
</g>
<!-- known -->
<g id="node2" class="node state regular">
<title>known</title>
<polygon fill="#ffffff" fill-opacity="0.003922" stroke="none" stroke-width="2" points="647,-217.61 586,-217.61 586,-181.36 647,-181.36 647,-217.61"/>
<text text-anchor="start" x="597" y="-195.21" font-family="Helvetica,sans-Serif" font-size="12.00">known</text>
<path fill="none" stroke="black" stroke-width="2" d="M598.42,-182.36C598.42,-182.36 634.58,-182.36 634.58,-182.36 640.29,-182.36 646,-188.07 646,-193.78 646,-193.78 646,-205.19 646,-205.19 646,-210.9 640.29,-216.61 634.58,-216.61 634.58,-216.61 598.42,-216.61 598.42,-216.61 592.71,-216.61 587,-210.9 587,-205.19 587,-205.19 587,-193.78 587,-193.78 587,-188.07 592.71,-182.36 598.42,-182.36"/>
</g>
<!-- disconnected&#45;&gt;known -->
<g id="edge1" class="edge transition">
<title>disconnected&#45;&gt;known</title>
<path fill="none" stroke="black" d="M135.47,-410.93C230.88,-433.55 441.7,-467.45 568,-365.48 589.27,-348.32 604.34,-271.38 611.25,-228.53"/>
<polygon fill="black" stroke="black" points="614.66,-229.34 612.75,-218.92 607.75,-228.26 614.66,-229.34"/>
<text text-anchor="start" x="323.12" y="-438.27" font-family="Helvetica,sans-Serif" font-size="10.00">Refresh &#45; Host ready &#160;&#160;</text>
</g>
<!-- known&#45;&gt;known -->
<g id="edge4" class="edge transition">
<title>known&#45;&gt;known</title>
<path fill="none" stroke="black" d="M595.05,-217.33C591.41,-226.89 598.56,-235.61 616.5,-235.61 626.59,-235.61 633.27,-232.85 636.53,-228.74"/>
<polygon fill="black" stroke="black" points="640,-229.18 637.76,-218.83 633.06,-228.32 640,-229.18"/>
<text text-anchor="start" x="513" y="-238.86" font-family="Helvetica,sans-Serif" font-size="10.00">Cancel Installation &#45; Cancel while known &#160;&#160;</text>
</g>
<!-- known&#45;&gt;known -->
<g id="edge5" class="edge transition">
<title>known&#45;&gt;known</title>
<path fill="none" stroke="black" d="M586.31,-213.07C559.6,-231.37 569.66,-253.61 616.5,-253.61 657.12,-253.61 670.08,-236.88 655.39,-220.51"/>
<polygon fill="black" stroke="black" points="657.72,-217.9 647.84,-214.06 653.17,-223.22 657.72,-217.9"/>
<text text-anchor="start" x="549.75" y="-256.86" font-family="Helvetica,sans-Serif" font-size="10.00">Refresh &#45; Host stay ready &#160;&#160;</text>
</g>
<!-- discovering -->
<g id="node3" class="node state regular">
<title>discovering</title>
<polygon fill="#ffffff" fill-opacity="0.003922" stroke="none" stroke-width="2" points="130,-361.61 39.75,-361.61 39.75,-325.36 130,-325.36 130,-361.61"/>
<text text-anchor="start" x="50.75" y="-339.21" font-family="Helvetica,sans-Serif" font-size="12.00">discovering</text>
<path fill="none" stroke="black" stroke-width="2" d="M52.17,-326.36C52.17,-326.36 117.58,-326.36 117.58,-326.36 123.29,-326.36 129,-332.07 129,-337.78 129,-337.78 129,-349.19 129,-349.19 129,-354.9 123.29,-360.61 117.58,-360.61 117.58,-360.61 52.17,-360.61 52.17,-360.61 46.46,-360.61 40.75,-354.9 40.75,-349.19 40.75,-349.19 40.75,-337.78 40.75,-337.78 40.75,-332.07 46.46,-326.36 52.17,-326.36"/>
</g>
<!-- discovering&#45;&gt;known -->
<g id="edge2" class="edge transition">
<title>discovering&#45;&gt;known</title>
<path fill="none" stroke="black" d="M129.98,-345.8C235.39,-350.47 498.35,-356.73 568,-307.48 593.7,-289.31 605.66,-254.04 611.12,-228.75"/>
<polygon fill="black" stroke="black" points="614.53,-229.56 612.97,-219.08 607.65,-228.24 614.53,-229.56"/>
<text text-anchor="start" x="323.12" y="-352.15" font-family="Helvetica,sans-Serif" font-size="10.00">Refresh &#45; Host ready &#160;&#160;</text>
</g>
<!-- insufficient -->
<g id="node4" class="node state regular">
<title>insufficient</title>
<polygon fill="#ffffff" fill-opacity="0.003922" stroke="none" stroke-width="2" points="128.12,-307.61 41.62,-307.61 41.62,-271.36 128.12,-271.36 128.12,-307.61"/>
<text text-anchor="start" x="52.62" y="-285.21" font-family="Helvetica,sans-Serif" font-size="12.00">insufficient</text>
<path fill="none" stroke="black" stroke-width="2" d="M54.04,-272.36C54.04,-272.36 115.71,-272.36 115.71,-272.36 121.42,-272.36 127.12,-278.07 127.12,-283.78 127.12,-283.78 127.12,-295.19 127.12,-295.19 127.12,-300.9 121.42,-306.61 115.71,-306.61 115.71,-306.61 54.04,-306.61 54.04,-306.61 48.33,-306.61 42.62,-300.9 42.62,-295.19 42.62,-295.19 42.62,-283.78 42.62,-283.78 42.62,-278.07 48.33,-272.36 54.04,-272.36"/>
</g>
<!-- insufficient&#45;&gt;known -->
<g id="edge3" class="edge transition">
<title>insufficient&#45;&gt;known</title>
<path fill="none" stroke="black" d="M128,-290.49C230.77,-292.32 491.51,-292.9 568,-254.48 580.34,-248.28 590.82,-237.33 598.76,-226.82"/>
<polygon fill="black" stroke="black" points="601.59,-228.88 604.46,-218.68 595.86,-224.86 601.59,-228.88"/>
<text text-anchor="start" x="323.12" y="-294.39" font-family="Helvetica,sans-Serif" font-size="10.00">Refresh &#45; Host ready &#160;&#160;</text>
</g>
<!-- pending&#45;for&#45;input -->
<g id="node5" class="node state regular">
<title>pending&#45;for&#45;input</title>
<polygon fill="#ffffff" fill-opacity="0.003922" stroke="none" stroke-width="2" points="147.62,-253.61 22.12,-253.61 22.12,-217.36 147.62,-217.36 147.62,-253.61"/>
<text text-anchor="start" x="33.12" y="-231.21" font-family="Helvetica,sans-Serif" font-size="12.00">pending&#45;for&#45;input</text>
<path fill="none" stroke="black" stroke-width="2" d="M34.54,-218.36C34.54,-218.36 135.21,-218.36 135.21,-218.36 140.92,-218.36 146.62,-224.07 146.62,-229.78 146.62,-229.78 146.62,-241.19 146.62,-241.19 146.62,-246.9 140.92,-252.61 135.21,-252.61 135.21,-252.61 34.54,-252.61 34.54,-252.61 28.83,-252.61 23.12,-246.9 23.12,-241.19 23.12,-241.19 23.12,-229.78 23.12,-229.78 23.12,-224.07 28.83,-218.36 34.54,-218.36"/>
</g>
<!-- pending&#45;for&#45;input&#45;&gt;known -->
<g id="edge6" class="edge transition">
<title>pending&#45;for&#45;input&#45;&gt;known</title>
<path fill="none" stroke="black" d="M147.26,-237.38C239.35,-239.18 418.43,-238.56 568,-213.48 570.32,-213.1 572.68,-212.63 575.06,-212.11"/>
<polygon fill="black" stroke="black" points="575.79,-215.53 584.64,-209.71 574.09,-208.74 575.79,-215.53"/>
<text text-anchor="start" x="323.12" y="-241.24" font-family="Helvetica,sans-Serif" font-size="10.00">Refresh &#45; Host ready &#160;&#160;</text>
</g>
<!-- preparing&#45;failed -->
<g id="node6" class="node state regular">
<title>preparing&#45;failed</title>
<polygon fill="#ffffff" fill-opacity="0.003922" stroke="none" stroke-width="2" points="143.5,-199.61 26.25,-199.61 26.25,-163.36 143.5,-163.36 143.5,-199.61"/>
<text text-anchor="start" x="37.25" y="-177.21" font-family="Helvetica,sans-Serif" font-size="12.00">preparing&#45;failed</text>
<path fill="none" stroke="black" stroke-width="2" d="M38.67,-164.36C38.67,-164.36 131.08,-164.36 131.08,-164.36 136.79,-164.36 142.5,-170.07 142.5,-175.78 142.5,-175.78 142.5,-187.19 142.5,-187.19 142.5,-192.9 136.79,-198.61 131.08,-198.61 131.08,-198.61 38.67,-198.61 38.67,-198.61 32.96,-198.61 27.25,-192.9 27.25,-187.19 27.25,-187.19 27.25,-175.78 27.25,-175.78 27.25,-170.07 32.96,-164.36 38.67,-164.36"/>
</g>
<!-- preparing&#45;failed&#45;&gt;known -->
<g id="edge7" class="edge transition">
<title>preparing&#45;failed&#45;&gt;known</title>
<path fill="none" stroke="black" d="M143.31,-183.44C251.06,-187.1 481.07,-194.92 574.64,-198.1"/>
<polygon fill="black" stroke="black" points="574.51,-201.59 584.62,-198.43 574.75,-194.6 574.51,-201.59"/>
<text text-anchor="start" x="199.38" y="-200.86" font-family="Helvetica,sans-Serif" font-size="10.00">Refresh &#45; Failed preparing to known when cluster is no longer preparing &#160;&#160;</text>
</g>
<!-- preparing&#45;for&#45;installation -->
<g id="node7" class="node state regular">
<title>preparing&#45;for&#45;installation</title>
<polygon fill="#ffffff" fill-opacity="0.003922" stroke="none" stroke-width="2" points="169.75,-145.61 0,-145.61 0,-109.36 169.75,-109.36 169.75,-145.61"/>
<text text-anchor="start" x="11" y="-123.21" font-family="Helvetica,sans-Serif" font-size="12.00">preparing&#45;for&#45;installation</text>
<path fill="none" stroke="black" stroke-width="2" d="M12.42,-110.36C12.42,-110.36 157.33,-110.36 157.33,-110.36 163.04,-110.36 168.75,-116.07 168.75,-121.78 168.75,-121.78 168.75,-133.19 168.75,-133.19 168.75,-138.9 163.04,-144.61 157.33,-144.61 157.33,-144.61 12.42,-144.61 12.42,-144.61 6.71,-144.61 1,-138.9 1,-133.19 1,-133.19 1,-121.78 1,-121.78 1,-116.07 6.71,-110.36 12.42,-110.36"/>
</g>
<!-- preparing&#45;for&#45;installation&#45;&gt;known -->
<g id="edge8" class="edge transition">
<title>preparing&#45;for&#45;installation&#45;&gt;known</title>
<path fill="none" stroke="black" d="M169.49,-139.42C175.67,-140.16 181.8,-140.86 187.75,-141.48 272.01,-150.28 487.67,-141.84 568,-168.73 573.2,-170.47 578.39,-172.92 583.33,-175.67"/>
<polygon fill="black" stroke="black" points="581.39,-178.59 591.74,-180.86 585.06,-172.63 581.39,-178.59"/>
<text text-anchor="start" x="267.25" y="-171.98" font-family="Helvetica,sans-Serif" font-size="10.00">Cancel Installation &#45; Cancel while preparing &#160;&#160;</text>
</g>
<!-- preparing&#45;for&#45;installation&#45;&gt;known -->
<g id="edge9" class="edge transition">
<title>preparing&#45;for&#45;installation&#45;&gt;known</title>
<path fill="none" stroke="black" d="M169.51,-122.62C298.36,-115.79 534.14,-106.13 568,-124.73 585.91,-134.57 598.02,-154.34 605.54,-171.08"/>
<polygon fill="black" stroke="black" points="602.21,-172.18 609.25,-180.1 608.68,-169.52 602.21,-172.18"/>
<text text-anchor="start" x="203.5" y="-127.98" font-family="Helvetica,sans-Serif" font-size="10.00">Refresh &#45; Move preparing host to known when cluster stops preparing &#160;&#160;</text>
</g>
<!-- preparing&#45;successful -->
<g id="node8" class="node state regular">
<title>preparing&#45;successful</title>
<polygon fill="#ffffff" fill-opacity="0.003922" stroke="none" stroke-width="2" points="157.75,-82.61 12,-82.61 12,-46.36 157.75,-46.36 157.75,-82.61"/>
<text text-anchor="start" x="23" y="-60.21" font-family="Helvetica,sans-Serif" font-size="12.00">preparing&#45;successful</text>
<path fill="none" stroke="black" stroke-width="2" d="M24.42,-47.36C24.42,-47.36 145.33,-47.36 145.33,-47.36 151.04,-47.36 156.75,-53.07 156.75,-58.78 156.75,-58.78 156.75,-70.19 156.75,-70.19 156.75,-75.9 151.04,-81.61 145.33,-81.61 145.33,-81.61 24.42,-81.61 24.42,-81.61 18.71,-81.61 13,-75.9 13,-70.19 13,-70.19 13,-58.78 13,-58.78 13,-53.07 18.71,-47.36 24.42,-47.36"/>
</g>
<!-- preparing&#45;successful&#45;&gt;known -->
<g id="edge10" class="edge transition">
<title>preparing&#45;successful&#45;&gt;known</title>
<path fill="none" stroke="black" d="M157.58,-68.34C289.87,-75.58 559.66,-91 568,-96.73 592.49,-113.57 604.63,-146.38 610.45,-170.41"/>
<polygon fill="black" stroke="black" points="606.97,-170.88 612.51,-179.91 613.81,-169.4 606.97,-170.88"/>
<text text-anchor="start" x="267.25" y="-99.98" font-family="Helvetica,sans-Serif" font-size="10.00">Cancel Installation &#45; Cancel while preparing &#160;&#160;</text>
</g>
<!-- preparing&#45;successful&#45;&gt;known -->
<g id="edge11" class="edge transition">
<title>preparing&#45;successful&#45;&gt;known</title>
<path fill="none" stroke="black" d="M132.8,-46.48C225.84,-14.12 436.05,42.05 568,-53.73 604.7,-80.38 613.59,-136.13 615.43,-170.44"/>
<polygon fill="black" stroke="black" points="611.92,-170.21 615.77,-180.08 618.92,-169.96 611.92,-170.21"/>
<text text-anchor="start" x="187.75" y="-56.98" font-family="Helvetica,sans-Serif" font-size="10.00">Refresh &#45; Successful preparing to known when cluster is no longer preparing &#160;&#160;</text>
</g>
</g>
</svg>
