<?xml version="1.0" encoding="UTF-8" standalone="no"?>
<!DOCTYPE svg PUBLIC "-//W3C//DTD SVG 1.1//EN"
 "http://www.w3.org/Graphics/SVG/1.1/DTD/svg11.dtd">
<!-- Generated by graphviz version 12.1.0 (20240811.2233)
 -->
<!-- Title: state transitions Pages: 1 -->
<svg width="325pt" height="106pt"
 viewBox="0.00 0.00 325.25 105.75" xmlns="http://www.w3.org/2000/svg" xmlns:xlink="http://www.w3.org/1999/xlink">
<g id="graph0" class="graph" transform="scale(1 1) rotate(0) translate(4 101.75)">
<title>state transitions</title>
<polygon fill="white" stroke="none" points="-4,4 -4,-101.75 321.25,-101.75 321.25,4 -4,4"/>
<!-- resetting -->
<g id="node1" class="node state regular">
<title>resetting</title>
<polygon fill="#ffffff" fill-opacity="0.003922" stroke="none" stroke-width="2" points="195.88,-36.25 121.38,-36.25 121.38,0 195.88,0 195.88,-36.25"/>
<text text-anchor="start" x="132.38" y="-13.85" font-family="Helvetica,sans-Serif" font-size="12.00">resetting</text>
<path fill="none" stroke="black" stroke-width="2" d="M133.79,-1C133.79,-1 183.46,-1 183.46,-1 189.17,-1 194.88,-6.71 194.88,-12.42 194.88,-12.42 194.88,-23.83 194.88,-23.83 194.88,-29.54 189.17,-35.25 183.46,-35.25 183.46,-35.25 133.79,-35.25 133.79,-35.25 128.08,-35.25 122.38,-29.54 122.38,-23.83 122.38,-23.83 122.38,-12.42 122.38,-12.42 122.38,-6.71 128.08,-1 133.79,-1"/>
</g>
<!-- resetting&#45;&gt;resetting -->
<g id="edge1" class="edge transition">
<title>resetting&#45;&gt;resetting</title>
<path fill="none" stroke="black" d="M151.93,-35.97C150.79,-45.53 153.02,-54.25 158.62,-54.25 161.78,-54.25 163.86,-51.49 164.88,-47.38"/>
<polygon fill="black" stroke="black" points="168.37,-47.61 165.26,-37.48 161.38,-47.34 168.37,-47.61"/>
<text text-anchor="start" x="12.75" y="-57.5" font-family="Helvetica,sans-Serif" font-size="10.00">Refresh &#45; Refresh during resetting should stay in resetting &#160;&#160;</text>
</g>
<!-- resetting&#45;&gt;resetting -->
<g id="edge2" class="edge transition">
<title>resetting&#45;&gt;resetting</title>
<path fill="none" stroke="black" d="M147.43,-36.14C141.43,-53.41 145.17,-72.25 158.62,-72.25 169.25,-72.25 173.81,-60.52 172.32,-47.09"/>
<polygon fill="black" stroke="black" points="175.8,-46.59 170.16,-37.62 168.97,-48.15 175.8,-46.59"/>
<text text-anchor="start" x="0" y="-75.5" font-family="Helvetica,sans-Serif" font-size="10.00">Register Host &#45; Ignore register while rebooting host in resetting &#160;&#160;</text>
</g>
</g>
</svg>
