<?xml version="1.0" encoding="UTF-8" standalone="no"?>
<!DOCTYPE svg PUBLIC "-//W3C//DTD SVG 1.1//EN"
 "http://www.w3.org/Graphics/SVG/1.1/DTD/svg11.dtd">
<!-- Generated by graphviz version 12.1.0 (20240811.2233)
 -->
<!-- Title: state transitions Pages: 1 -->
<svg width="1057pt" height="326pt"
 viewBox="0.00 0.00 1056.88 326.25" xmlns="http://www.w3.org/2000/svg" xmlns:xlink="http://www.w3.org/1999/xlink">
<g id="graph0" class="graph" transform="scale(1 1) rotate(0) translate(4 322.25)">
<title>state transitions</title>
<polygon fill="white" stroke="none" points="-4,4 -4,-322.25 1052.88,-322.25 1052.88,4 -4,4"/>
<!-- installing -->
<g id="node1" class="node state regular">
<title>installing</title>
<polygon fill="#ffffff" fill-opacity="0.003922" stroke="none" stroke-width="2" points="136,-99.25 61.5,-99.25 61.5,-63 136,-63 136,-99.25"/>
<text text-anchor="start" x="72.5" y="-76.85" font-family="Helvetica,sans-Serif" font-size="12.00">installing</text>
<path fill="none" stroke="black" stroke-width="2" d="M73.92,-64C73.92,-64 123.58,-64 123.58,-64 129.29,-64 135,-69.71 135,-75.42 135,-75.42 135,-86.83 135,-86.83 135,-92.54 129.29,-98.25 123.58,-98.25 123.58,-98.25 73.92,-98.25 73.92,-98.25 68.21,-98.25 62.5,-92.54 62.5,-86.83 62.5,-86.83 62.5,-75.42 62.5,-75.42 62.5,-69.71 68.21,-64 73.92,-64"/>
</g>
<!-- installing&#45;in&#45;progress -->
<g id="node2" class="node state regular">
<title>installing&#45;in&#45;progress</title>
<polygon fill="#ffffff" fill-opacity="0.003922" stroke="none" stroke-width="2" points="740.75,-72.25 595.75,-72.25 595.75,-36 740.75,-36 740.75,-72.25"/>
<text text-anchor="start" x="606.75" y="-49.85" font-family="Helvetica,sans-Serif" font-size="12.00">installing&#45;in&#45;progress</text>
<path fill="none" stroke="black" stroke-width="2" d="M608.17,-37C608.17,-37 728.33,-37 728.33,-37 734.04,-37 739.75,-42.71 739.75,-48.42 739.75,-48.42 739.75,-59.83 739.75,-59.83 739.75,-65.54 734.04,-71.25 728.33,-71.25 728.33,-71.25 608.17,-71.25 608.17,-71.25 602.46,-71.25 596.75,-65.54 596.75,-59.83 596.75,-59.83 596.75,-48.42 596.75,-48.42 596.75,-42.71 602.46,-37 608.17,-37"/>
</g>
<!-- installing&#45;&gt;installing&#45;in&#45;progress -->
<g id="edge1" class="edge transition">
<title>installing&#45;&gt;installing&#45;in&#45;progress</title>
<path fill="none" stroke="black" d="M135.82,-81.72C215.65,-82.68 413.23,-83.17 577.75,-68.12 580.07,-67.91 582.43,-67.68 584.81,-67.42"/>
<polygon fill="black" stroke="black" points="585,-70.92 594.52,-66.28 584.19,-63.97 585,-70.92"/>
<text text-anchor="start" x="215.5" y="-85.36" font-family="Helvetica,sans-Serif" font-size="10.00">null &#45; host progress installing&#45;in&#45;progress on rebooting in kube&#45;api mode &#160;&#160;</text>
</g>
<!-- installing&#45;&gt;installing&#45;in&#45;progress -->
<g id="edge2" class="edge transition">
<title>installing&#45;&gt;installing&#45;in&#45;progress</title>
<path fill="none" stroke="black" d="M135.79,-69.37C158.4,-62.61 188.33,-54.81 215.5,-51.38 343.66,-35.17 493.9,-40.95 584.77,-47.14"/>
<polygon fill="black" stroke="black" points="584.36,-50.62 594.58,-47.83 584.85,-43.64 584.36,-50.62"/>
<text text-anchor="start" x="304.38" y="-54.62" font-family="Helvetica,sans-Serif" font-size="10.00">null &#45; default host progress changed &#160;&#160;</text>
</g>
<!-- installing&#45;in&#45;progress&#45;&gt;installing&#45;in&#45;progress -->
<g id="edge3" class="edge transition">
<title>installing&#45;in&#45;progress&#45;&gt;installing&#45;in&#45;progress</title>
<path fill="none" stroke="black" d="M662.15,-71.97C661.11,-81.53 663.14,-90.25 668.25,-90.25 671.12,-90.25 673.02,-87.49 673.95,-83.38"/>
<polygon fill="black" stroke="black" points="677.45,-83.6 674.3,-73.48 670.45,-83.35 677.45,-83.6"/>
<text text-anchor="start" x="487.12" y="-93.5" font-family="Helvetica,sans-Serif" font-size="10.00">null &#45; host progress installing&#45;in&#45;progress on rebooting in kube&#45;api mode &#160;&#160;</text>
</g>
<!-- installing&#45;in&#45;progress&#45;&gt;installing&#45;in&#45;progress -->
<g id="edge4" class="edge transition">
<title>installing&#45;in&#45;progress&#45;&gt;installing&#45;in&#45;progress</title>
<path fill="none" stroke="black" d="M658.04,-72.14C652.58,-89.41 655.98,-108.25 668.25,-108.25 677.93,-108.25 682.09,-96.52 680.73,-83.09"/>
<polygon fill="black" stroke="black" points="684.23,-82.71 678.77,-73.63 677.37,-84.13 684.23,-82.71"/>
<text text-anchor="start" x="576" y="-111.5" font-family="Helvetica,sans-Serif" font-size="10.00">null &#45; default host progress changed &#160;&#160;</text>
</g>
<!-- installing&#45;in&#45;progress&#45;&gt;installing&#45;in&#45;progress -->
<g id="edge5" class="edge transition">
<title>installing&#45;in&#45;progress&#45;&gt;installing&#45;in&#45;progress</title>
<path fill="none" stroke="black" d="M655.36,-72.23C643.96,-96.61 648.26,-126.25 668.25,-126.25 685.35,-126.25 690.97,-104.56 685.1,-83.03"/>
<polygon fill="black" stroke="black" points="688.39,-81.84 681.66,-73.66 681.82,-84.25 688.39,-81.84"/>
<text text-anchor="start" x="524.62" y="-129.5" font-family="Helvetica,sans-Serif" font-size="10.00">Refresh &#45; Keep installing host when connection times out &#160;&#160;</text>
</g>
<!-- installing&#45;in&#45;progress&#45;&gt;installing&#45;in&#45;progress -->
<g id="edge6" class="edge transition">
<title>installing&#45;in&#45;progress&#45;&gt;installing&#45;in&#45;progress</title>
<path fill="none" stroke="black" d="M653.75,-71.82C635.3,-103.05 640.13,-144.25 668.25,-144.25 693.4,-144.25 699.92,-111.28 687.81,-81.97"/>
<polygon fill="black" stroke="black" points="691.02,-80.56 683.42,-73.17 684.75,-83.69 691.02,-80.56"/>
<text text-anchor="start" x="494.62" y="-147.5" font-family="Helvetica,sans-Serif" font-size="10.00">Refresh &#45; Keep installing host when host recovers from disconnection &#160;&#160;</text>
</g>
<!-- installing&#45;in&#45;progress&#45;&gt;installing&#45;in&#45;progress -->
<g id="edge7" class="edge transition">
<title>installing&#45;in&#45;progress&#45;&gt;installing&#45;in&#45;progress</title>
<path fill="none" stroke="black" d="M652.16,-72.2C626.74,-109.98 632.11,-162.25 668.25,-162.25 701.43,-162.25 708.67,-118.2 689.98,-81.76"/>
<polygon fill="black" stroke="black" points="693.21,-80.34 685.11,-73.51 687.18,-83.9 693.21,-80.34"/>
<text text-anchor="start" x="475.88" y="-165.5" font-family="Helvetica,sans-Serif" font-size="10.00">Refresh &#45; Ignore timeout if host is in particular installation in progress stages &#160;&#160;</text>
</g>
<!-- installing&#45;in&#45;progress&#45;&gt;installing&#45;in&#45;progress -->
<g id="edge8" class="edge transition">
<title>installing&#45;in&#45;progress&#45;&gt;installing&#45;in&#45;progress</title>
<path fill="none" stroke="black" d="M651.09,-72.21C618.17,-116.45 623.89,-180.25 668.25,-180.25 709.58,-180.25 717.37,-124.87 691.62,-81.53"/>
<polygon fill="black" stroke="black" points="694.7,-79.85 686.25,-73.47 688.88,-83.73 694.7,-79.85"/>
<text text-anchor="start" x="287.62" y="-183.5" font-family="Helvetica,sans-Serif" font-size="10.00">Refresh &#45; Indicate that timeout occurred and continue installation in particular installation in progress stages other than [writing&#45;image&#45;to&#45;disk, rebooting] &#160;&#160;</text>
</g>
<!-- installing&#45;in&#45;progress&#45;&gt;installing&#45;in&#45;progress -->
<g id="edge9" class="edge transition">
<title>installing&#45;in&#45;progress&#45;&gt;installing&#45;in&#45;progress</title>
<path fill="none" stroke="black" d="M650.34,-72.09C609.59,-122.7 615.56,-198.25 668.25,-198.25 717.85,-198.25 726.05,-131.3 692.84,-81.22"/>
<polygon fill="black" stroke="black" points="695.78,-79.32 687.05,-73.31 690.13,-83.45 695.78,-79.32"/>
<text text-anchor="start" x="346.88" y="-201.5" font-family="Helvetica,sans-Serif" font-size="10.00">Refresh &#45; Indicate that timeout occurred and continue installation in particular installation in progress stage writing&#45;image&#45;to&#45;disk &#160;&#160;</text>
</g>
<!-- installing&#45;in&#45;progress&#45;&gt;installing&#45;in&#45;progress -->
<g id="edge10" class="edge transition">
<title>installing&#45;in&#45;progress&#45;&gt;installing&#45;in&#45;progress</title>
<path fill="none" stroke="black" d="M649.66,-72.09C601.04,-129.01 607.24,-216.25 668.25,-216.25 726.16,-216.25 734.69,-137.64 693.82,-80.98"/>
<polygon fill="black" stroke="black" points="696.7,-78.99 687.77,-73.28 691.2,-83.31 696.7,-78.99"/>
<text text-anchor="start" x="383.62" y="-219.5" font-family="Helvetica,sans-Serif" font-size="10.00">Refresh &#45; Refresh during installing&#45;in&#45;progress state without cluster error should stay in installing&#45;in&#45;progress state &#160;&#160;</text>
</g>
<!-- installing&#45;pending&#45;user&#45;action -->
<g id="node3" class="node state regular">
<title>installing&#45;pending&#45;user&#45;action</title>
<polygon fill="#ffffff" fill-opacity="0.003922" stroke="none" stroke-width="2" points="197.5,-36.25 0,-36.25 0,0 197.5,0 197.5,-36.25"/>
<text text-anchor="start" x="11" y="-13.85" font-family="Helvetica,sans-Serif" font-size="12.00">installing&#45;pending&#45;user&#45;action</text>
<path fill="none" stroke="black" stroke-width="2" d="M12.42,-1C12.42,-1 185.08,-1 185.08,-1 190.79,-1 196.5,-6.71 196.5,-12.42 196.5,-12.42 196.5,-23.83 196.5,-23.83 196.5,-29.54 190.79,-35.25 185.08,-35.25 185.08,-35.25 12.42,-35.25 12.42,-35.25 6.71,-35.25 1,-29.54 1,-23.83 1,-23.83 1,-12.42 1,-12.42 1,-6.71 6.71,-1 12.42,-1"/>
</g>
<!-- installing&#45;pending&#45;user&#45;action&#45;&gt;installing&#45;in&#45;progress -->
<g id="edge11" class="edge transition">
<title>installing&#45;pending&#45;user&#45;action&#45;&gt;installing&#45;in&#45;progress</title>
<path fill="none" stroke="black" d="M197.12,-10.71C294.27,-5.35 447.42,-2.41 577.75,-24.38 588.77,-26.23 600.28,-29.21 611.22,-32.59"/>
<polygon fill="black" stroke="black" points="609.92,-35.84 620.51,-35.6 612.08,-29.19 609.92,-35.84"/>
<text text-anchor="start" x="304.38" y="-27.62" font-family="Helvetica,sans-Serif" font-size="10.00">null &#45; default host progress changed &#160;&#160;</text>
</g>
</g>
</svg>
