<?xml version="1.0" encoding="UTF-8" standalone="no"?>
<!DOCTYPE svg PUBLIC "-//W3C//DTD SVG 1.1//EN"
 "http://www.w3.org/Graphics/SVG/1.1/DTD/svg11.dtd">
<!-- Generated by graphviz version 12.1.0 (20240811.2233)
 -->
<!-- Title: state transitions Pages: 1 -->
<svg width="682pt" height="568pt"
 viewBox="0.00 0.00 681.88 568.31" xmlns="http://www.w3.org/2000/svg" xmlns:xlink="http://www.w3.org/1999/xlink">
<g id="graph0" class="graph" transform="scale(1 1) rotate(0) translate(4 564.31)">
<title>state transitions</title>
<polygon fill="white" stroke="none" points="-4,4 -4,-564.31 677.88,-564.31 677.88,4 -4,4"/>
<!-- binding -->
<g id="node1" class="node state regular">
<title>binding</title>
<polygon fill="#ffffff" fill-opacity="0.003922" stroke="none" stroke-width="2" points="131.88,-537.74 66.38,-537.74 66.38,-501.49 131.88,-501.49 131.88,-537.74"/>
<text text-anchor="start" x="77.38" y="-515.34" font-family="Helvetica,sans-Serif" font-size="12.00">binding</text>
<path fill="none" stroke="black" stroke-width="2" d="M78.79,-502.49C78.79,-502.49 119.46,-502.49 119.46,-502.49 125.17,-502.49 130.88,-508.2 130.88,-513.91 130.88,-513.91 130.88,-525.32 130.88,-525.32 130.88,-531.03 125.17,-536.74 119.46,-536.74 119.46,-536.74 78.79,-536.74 78.79,-536.74 73.08,-536.74 67.38,-531.03 67.38,-525.32 67.38,-525.32 67.38,-513.91 67.38,-513.91 67.38,-508.2 73.08,-502.49 78.79,-502.49"/>
</g>
<!-- discovering -->
<g id="node2" class="node state regular">
<title>discovering</title>
<polygon fill="#ffffff" fill-opacity="0.003922" stroke="none" stroke-width="2" points="603.5,-321.74 513.25,-321.74 513.25,-285.49 603.5,-285.49 603.5,-321.74"/>
<text text-anchor="start" x="524.25" y="-299.34" font-family="Helvetica,sans-Serif" font-size="12.00">discovering</text>
<path fill="none" stroke="black" stroke-width="2" d="M525.67,-286.49C525.67,-286.49 591.08,-286.49 591.08,-286.49 596.79,-286.49 602.5,-292.2 602.5,-297.91 602.5,-297.91 602.5,-309.32 602.5,-309.32 602.5,-315.03 596.79,-320.74 591.08,-320.74 591.08,-320.74 525.67,-320.74 525.67,-320.74 519.96,-320.74 514.25,-315.03 514.25,-309.32 514.25,-309.32 514.25,-297.91 514.25,-297.91 514.25,-292.2 519.96,-286.49 525.67,-286.49"/>
</g>
<!-- binding&#45;&gt;discovering -->
<g id="edge1" class="edge transition">
<title>binding&#45;&gt;discovering</title>
<path fill="none" stroke="black" d="M131.63,-527.87C204.35,-544.92 386.04,-575.67 495.25,-490.62 543.89,-452.74 554.84,-375.52 557.05,-333.12"/>
<polygon fill="black" stroke="black" points="560.55,-333.29 557.43,-323.17 553.55,-333.03 560.55,-333.29"/>
<text text-anchor="start" x="277" y="-550.81" font-family="Helvetica,sans-Serif" font-size="10.00">Register Host &#45; Re&#45;registration &#160;&#160;</text>
</g>
<!-- discovering&#45;&gt;discovering -->
<g id="edge4" class="edge transition">
<title>discovering&#45;&gt;discovering</title>
<path fill="none" stroke="black" d="M540.16,-321.46C537.07,-331.03 543.14,-339.74 558.38,-339.74 566.95,-339.74 572.62,-336.98 575.39,-332.87"/>
<polygon fill="black" stroke="black" points="578.86,-333.28 576.43,-322.96 571.9,-332.54 578.86,-333.28"/>
<text text-anchor="start" x="442.88" y="-342.99" font-family="Helvetica,sans-Serif" font-size="10.00">Refresh &#45; Host reconnected without inventory &#160;&#160;</text>
</g>
<!-- discovering&#45;&gt;discovering -->
<g id="edge5" class="edge transition">
<title>discovering&#45;&gt;discovering</title>
<path fill="none" stroke="black" d="M527.92,-321.64C511.62,-338.9 521.77,-357.74 558.38,-357.74 588.4,-357.74 600.63,-345.06 595.06,-330.98"/>
<polygon fill="black" stroke="black" points="598.13,-329.28 589.67,-322.9 592.31,-333.16 598.13,-329.28"/>
<text text-anchor="start" x="479.62" y="-360.99" font-family="Helvetica,sans-Serif" font-size="10.00">Register Host &#45; Re&#45;registration &#160;&#160;</text>
</g>
<!-- disconnected -->
<g id="node3" class="node state regular">
<title>disconnected</title>
<polygon fill="#ffffff" fill-opacity="0.003922" stroke="none" stroke-width="2" points="149.88,-483.74 48.38,-483.74 48.38,-447.49 149.88,-447.49 149.88,-483.74"/>
<text text-anchor="start" x="59.38" y="-461.34" font-family="Helvetica,sans-Serif" font-size="12.00">disconnected</text>
<path fill="none" stroke="black" stroke-width="2" d="M60.79,-448.49C60.79,-448.49 137.46,-448.49 137.46,-448.49 143.17,-448.49 148.88,-454.2 148.88,-459.91 148.88,-459.91 148.88,-471.32 148.88,-471.32 148.88,-477.03 143.17,-482.74 137.46,-482.74 137.46,-482.74 60.79,-482.74 60.79,-482.74 55.08,-482.74 49.38,-477.03 49.38,-471.32 49.38,-471.32 49.38,-459.91 49.38,-459.91 49.38,-454.2 55.08,-448.49 60.79,-448.49"/>
</g>
<!-- disconnected&#45;&gt;discovering -->
<g id="edge2" class="edge transition">
<title>disconnected&#45;&gt;discovering</title>
<path fill="none" stroke="black" d="M149.86,-469.1C243.31,-474.65 440.62,-481.34 495.25,-443.62 532.08,-418.18 547.34,-365.67 553.47,-332.68"/>
<polygon fill="black" stroke="black" points="556.89,-333.43 555.08,-322.99 549.98,-332.28 556.89,-333.43"/>
<text text-anchor="start" x="240.25" y="-476.66" font-family="Helvetica,sans-Serif" font-size="10.00">Refresh &#45; Host reconnected without inventory &#160;&#160;</text>
</g>
<!-- disconnected&#45;&gt;discovering -->
<g id="edge3" class="edge transition">
<title>disconnected&#45;&gt;discovering</title>
<path fill="none" stroke="black" d="M149.83,-455.13C165.67,-450.95 183.03,-445.48 198.25,-438.62 206.96,-434.69 207.19,-429.9 216.25,-426.87 275.17,-407.1 442.29,-440.13 495.25,-407.62 522.64,-390.8 539.46,-357.01 548.58,-332.5"/>
<polygon fill="black" stroke="black" points="551.87,-333.68 551.85,-323.08 545.26,-331.38 551.87,-333.68"/>
<text text-anchor="start" x="277" y="-430.12" font-family="Helvetica,sans-Serif" font-size="10.00">Register Host &#45; Re&#45;registration &#160;&#160;</text>
</g>
<!-- initial -->
<g id="node4" class="node state regular">
<title>initial</title>
<polygon fill="#ffffff" fill-opacity="0.003922" stroke="none" stroke-width="2" points="127.12,-429.74 71.12,-429.74 71.12,-393.49 127.12,-393.49 127.12,-429.74"/>
<text text-anchor="start" x="83.38" y="-407.34" font-family="Helvetica,sans-Serif" font-size="12.00">initial</text>
<path fill="none" stroke="black" stroke-width="2" d="M83.54,-394.49C83.54,-394.49 114.71,-394.49 114.71,-394.49 120.42,-394.49 126.12,-400.2 126.12,-405.91 126.12,-405.91 126.12,-417.32 126.12,-417.32 126.12,-423.03 120.42,-428.74 114.71,-428.74 114.71,-428.74 83.54,-428.74 83.54,-428.74 77.83,-428.74 72.12,-423.03 72.12,-417.32 72.12,-417.32 72.12,-405.91 72.12,-405.91 72.12,-400.2 77.83,-394.49 83.54,-394.49"/>
</g>
<!-- initial&#45;&gt;discovering -->
<g id="edge6" class="edge transition">
<title>initial&#45;&gt;discovering</title>
<path fill="none" stroke="black" d="M126.83,-407.38C150.33,-403.75 185.51,-398.53 216.25,-394.87 278.09,-387.5 439.2,-395.75 495.25,-368.62 512.72,-360.16 527.87,-344.59 538.84,-330.81"/>
<polygon fill="black" stroke="black" points="541.6,-332.96 544.82,-322.87 536.01,-328.74 541.6,-332.96"/>
<text text-anchor="start" x="269.88" y="-398.12" font-family="Helvetica,sans-Serif" font-size="10.00">Register Host &#45; Initial registration &#160;&#160;</text>
</g>
<!-- insufficient -->
<g id="node5" class="node state regular">
<title>insufficient</title>
<polygon fill="#ffffff" fill-opacity="0.003922" stroke="none" stroke-width="2" points="142.38,-375.74 55.88,-375.74 55.88,-339.49 142.38,-339.49 142.38,-375.74"/>
<text text-anchor="start" x="66.88" y="-353.34" font-family="Helvetica,sans-Serif" font-size="12.00">insufficient</text>
<path fill="none" stroke="black" stroke-width="2" d="M68.29,-340.49C68.29,-340.49 129.96,-340.49 129.96,-340.49 135.67,-340.49 141.38,-346.2 141.38,-351.91 141.38,-351.91 141.38,-363.32 141.38,-363.32 141.38,-369.03 135.67,-374.74 129.96,-374.74 129.96,-374.74 68.29,-374.74 68.29,-374.74 62.58,-374.74 56.88,-369.03 56.88,-363.32 56.88,-363.32 56.88,-351.91 56.88,-351.91 56.88,-346.2 62.58,-340.49 68.29,-340.49"/>
</g>
<!-- insufficient&#45;&gt;discovering -->
<g id="edge7" class="edge transition">
<title>insufficient&#45;&gt;discovering</title>
<path fill="none" stroke="black" d="M142.27,-356.07C214.87,-352.88 367.99,-343.8 495.25,-320.62 497.57,-320.19 499.93,-319.72 502.31,-319.22"/>
<polygon fill="black" stroke="black" points="503.04,-322.64 512,-316.98 501.47,-315.82 503.04,-322.64"/>
<text text-anchor="start" x="277" y="-354.84" font-family="Helvetica,sans-Serif" font-size="10.00">Register Host &#45; Re&#45;registration &#160;&#160;</text>
</g>
<!-- known -->
<g id="node6" class="node state regular">
<title>known</title>
<polygon fill="#ffffff" fill-opacity="0.003922" stroke="none" stroke-width="2" points="129.62,-321.74 68.62,-321.74 68.62,-285.49 129.62,-285.49 129.62,-321.74"/>
<text text-anchor="start" x="79.62" y="-299.34" font-family="Helvetica,sans-Serif" font-size="12.00">known</text>
<path fill="none" stroke="black" stroke-width="2" d="M81.04,-286.49C81.04,-286.49 117.21,-286.49 117.21,-286.49 122.92,-286.49 128.62,-292.2 128.62,-297.91 128.62,-297.91 128.62,-309.32 128.62,-309.32 128.62,-315.03 122.92,-320.74 117.21,-320.74 117.21,-320.74 81.04,-320.74 81.04,-320.74 75.33,-320.74 69.62,-315.03 69.62,-309.32 69.62,-309.32 69.62,-297.91 69.62,-297.91 69.62,-292.2 75.33,-286.49 81.04,-286.49"/>
</g>
<!-- known&#45;&gt;discovering -->
<g id="edge8" class="edge transition">
<title>known&#45;&gt;discovering</title>
<path fill="none" stroke="black" d="M129.42,-303.62C204.43,-303.62 404.34,-303.62 502.05,-303.62"/>
<polygon fill="black" stroke="black" points="501.93,-307.12 511.93,-303.62 501.93,-300.12 501.93,-307.12"/>
<text text-anchor="start" x="277" y="-306.87" font-family="Helvetica,sans-Serif" font-size="10.00">Register Host &#45; Re&#45;registration &#160;&#160;</text>
</g>
<!-- pending&#45;for&#45;input -->
<g id="node7" class="node state regular">
<title>pending&#45;for&#45;input</title>
<polygon fill="#ffffff" fill-opacity="0.003922" stroke="none" stroke-width="2" points="161.88,-267.74 36.38,-267.74 36.38,-231.49 161.88,-231.49 161.88,-267.74"/>
<text text-anchor="start" x="47.38" y="-245.34" font-family="Helvetica,sans-Serif" font-size="12.00">pending&#45;for&#45;input</text>
<path fill="none" stroke="black" stroke-width="2" d="M48.79,-232.49C48.79,-232.49 149.46,-232.49 149.46,-232.49 155.17,-232.49 160.88,-238.2 160.88,-243.91 160.88,-243.91 160.88,-255.32 160.88,-255.32 160.88,-261.03 155.17,-266.74 149.46,-266.74 149.46,-266.74 48.79,-266.74 48.79,-266.74 43.08,-266.74 37.38,-261.03 37.38,-255.32 37.38,-255.32 37.38,-243.91 37.38,-243.91 37.38,-238.2 43.08,-232.49 48.79,-232.49"/>
</g>
<!-- pending&#45;for&#45;input&#45;&gt;discovering -->
<g id="edge9" class="edge transition">
<title>pending&#45;for&#45;input&#45;&gt;discovering</title>
<path fill="none" stroke="black" d="M161.82,-252.2C239.95,-256.2 378.46,-265.77 495.25,-286.87 497.57,-287.28 499.93,-287.75 502.3,-288.25"/>
<polygon fill="black" stroke="black" points="501.46,-291.64 511.99,-290.45 503.02,-284.82 501.46,-291.64"/>
<text text-anchor="start" x="277" y="-290.12" font-family="Helvetica,sans-Serif" font-size="10.00">Register Host &#45; Re&#45;registration &#160;&#160;</text>
</g>
<!-- preparing&#45;for&#45;installation -->
<g id="node8" class="node state regular">
<title>preparing&#45;for&#45;installation</title>
<polygon fill="#ffffff" fill-opacity="0.003922" stroke="none" stroke-width="2" points="184,-213.74 14.25,-213.74 14.25,-177.49 184,-177.49 184,-213.74"/>
<text text-anchor="start" x="25.25" y="-191.34" font-family="Helvetica,sans-Serif" font-size="12.00">preparing&#45;for&#45;installation</text>
<path fill="none" stroke="black" stroke-width="2" d="M26.67,-178.49C26.67,-178.49 171.58,-178.49 171.58,-178.49 177.29,-178.49 183,-184.2 183,-189.91 183,-189.91 183,-201.32 183,-201.32 183,-207.03 177.29,-212.74 171.58,-212.74 171.58,-212.74 26.67,-212.74 26.67,-212.74 20.96,-212.74 15.25,-207.03 15.25,-201.32 15.25,-201.32 15.25,-189.91 15.25,-189.91 15.25,-184.2 20.96,-178.49 26.67,-178.49"/>
</g>
<!-- preparing&#45;for&#45;installation&#45;&gt;discovering -->
<g id="edge10" class="edge transition">
<title>preparing&#45;for&#45;installation&#45;&gt;discovering</title>
<path fill="none" stroke="black" d="M183.75,-188.71C267.02,-185.4 396.35,-190.17 495.25,-238.87 512.62,-247.42 527.77,-262.94 538.76,-276.63"/>
<polygon fill="black" stroke="black" points="535.92,-278.68 544.76,-284.51 541.49,-274.44 535.92,-278.68"/>
<text text-anchor="start" x="277" y="-242.12" font-family="Helvetica,sans-Serif" font-size="10.00">Register Host &#45; Re&#45;registration &#160;&#160;</text>
</g>
<!-- preparing&#45;successful -->
<g id="node9" class="node state regular">
<title>preparing&#45;successful</title>
<polygon fill="#ffffff" fill-opacity="0.003922" stroke="none" stroke-width="2" points="172,-159.74 26.25,-159.74 26.25,-123.49 172,-123.49 172,-159.74"/>
<text text-anchor="start" x="37.25" y="-137.34" font-family="Helvetica,sans-Serif" font-size="12.00">preparing&#45;successful</text>
<path fill="none" stroke="black" stroke-width="2" d="M38.67,-124.49C38.67,-124.49 159.58,-124.49 159.58,-124.49 165.29,-124.49 171,-130.2 171,-135.91 171,-135.91 171,-147.32 171,-147.32 171,-153.03 165.29,-158.74 159.58,-158.74 159.58,-158.74 38.67,-158.74 38.67,-158.74 32.96,-158.74 27.25,-153.03 27.25,-147.32 27.25,-147.32 27.25,-135.91 27.25,-135.91 27.25,-130.2 32.96,-124.49 38.67,-124.49"/>
</g>
<!-- preparing&#45;successful&#45;&gt;discovering -->
<g id="edge11" class="edge transition">
<title>preparing&#45;successful&#45;&gt;discovering</title>
<path fill="none" stroke="black" d="M171.72,-126.77C256.74,-113.35 399.11,-104.6 495.25,-170.87 529.99,-194.81 545.79,-243.43 552.61,-274.72"/>
<polygon fill="black" stroke="black" points="549.13,-275.16 554.51,-284.28 556,-273.79 549.13,-275.16"/>
<text text-anchor="start" x="277" y="-174.12" font-family="Helvetica,sans-Serif" font-size="10.00">Register Host &#45; Re&#45;registration &#160;&#160;</text>
</g>
<!-- resetting -->
<g id="node10" class="node state regular">
<title>resetting</title>
<polygon fill="#ffffff" fill-opacity="0.003922" stroke="none" stroke-width="2" points="136.38,-105.74 61.88,-105.74 61.88,-69.49 136.38,-69.49 136.38,-105.74"/>
<text text-anchor="start" x="72.88" y="-83.34" font-family="Helvetica,sans-Serif" font-size="12.00">resetting</text>
<path fill="none" stroke="black" stroke-width="2" d="M74.29,-70.49C74.29,-70.49 123.96,-70.49 123.96,-70.49 129.67,-70.49 135.38,-76.2 135.38,-81.91 135.38,-81.91 135.38,-93.32 135.38,-93.32 135.38,-99.03 129.67,-104.74 123.96,-104.74 123.96,-104.74 74.29,-104.74 74.29,-104.74 68.58,-104.74 62.88,-99.03 62.88,-93.32 62.88,-93.32 62.88,-81.91 62.88,-81.91 62.88,-76.2 68.58,-70.49 74.29,-70.49"/>
</g>
<!-- resetting&#45;&gt;discovering -->
<g id="edge12" class="edge transition">
<title>resetting&#45;&gt;discovering</title>
<path fill="none" stroke="black" d="M136.17,-83.7C222.83,-75.08 439.8,-58.41 495.25,-100.87 549.07,-142.08 557.61,-228.88 558.16,-274.39"/>
<polygon fill="black" stroke="black" points="554.66,-274.27 558.14,-284.28 561.66,-274.28 554.66,-274.27"/>
<text text-anchor="start" x="216.25" y="-104.12" font-family="Helvetica,sans-Serif" font-size="10.00">Register Host &#45; Register non&#45;rebooting host in resetting &#160;&#160;</text>
</g>
<!-- resetting&#45;pending&#45;user&#45;action -->
<g id="node11" class="node state regular">
<title>resetting&#45;pending&#45;user&#45;action</title>
<polygon fill="#ffffff" fill-opacity="0.003922" stroke="none" stroke-width="2" points="198.25,-51.74 0,-51.74 0,-15.49 198.25,-15.49 198.25,-51.74"/>
<text text-anchor="start" x="11" y="-29.34" font-family="Helvetica,sans-Serif" font-size="12.00">resetting&#45;pending&#45;user&#45;action</text>
<path fill="none" stroke="black" stroke-width="2" d="M12.42,-16.49C12.42,-16.49 185.83,-16.49 185.83,-16.49 191.54,-16.49 197.25,-22.2 197.25,-27.91 197.25,-27.91 197.25,-39.32 197.25,-39.32 197.25,-45.03 191.54,-50.74 185.83,-50.74 185.83,-50.74 12.42,-50.74 12.42,-50.74 6.71,-50.74 1,-45.03 1,-39.32 1,-39.32 1,-27.91 1,-27.91 1,-22.2 6.71,-16.49 12.42,-16.49"/>
</g>
<!-- resetting&#45;pending&#45;user&#45;action&#45;&gt;discovering -->
<g id="edge13" class="edge transition">
<title>resetting&#45;pending&#45;user&#45;action&#45;&gt;discovering</title>
<path fill="none" stroke="black" d="M168.54,-15.54C254.99,2.86 403.54,19.05 495.25,-56.87 528.76,-84.6 547.48,-215.69 554.33,-274.7"/>
<polygon fill="black" stroke="black" points="550.82,-274.76 555.41,-284.31 557.77,-273.98 550.82,-274.76"/>
<text text-anchor="start" x="277" y="-60.12" font-family="Helvetica,sans-Serif" font-size="10.00">Register Host &#45; Re&#45;registration &#160;&#160;</text>
</g>
</g>
</svg>
