<?xml version="1.0" encoding="UTF-8" standalone="no"?>
<!DOCTYPE svg PUBLIC "-//W3C//DTD SVG 1.1//EN"
 "http://www.w3.org/Graphics/SVG/1.1/DTD/svg11.dtd">
<!-- Generated by graphviz version 5.0.0 (0)
 -->
<!-- Title: state transitions Pages: 1 -->
<svg width="614pt" height="368pt"
 viewBox="0.00 0.00 614.00 367.53" xmlns="http://www.w3.org/2000/svg" xmlns:xlink="http://www.w3.org/1999/xlink">
<g id="graph0" class="graph" transform="scale(1 1) rotate(0) translate(4 363.53)">
<title>state transitions</title>
<polygon fill="white" stroke="transparent" points="-4,4 -4,-363.53 610,-363.53 610,4 -4,4"/>
<!-- added&#45;to&#45;existing&#45;cluster -->
<g id="node1" class="node state regular">
<title>added&#45;to&#45;existing&#45;cluster</title>
<polygon fill="#ffffff" fill-opacity="0.003922" stroke="transparent" stroke-width="2" points="153,-352.53 0,-352.53 0,-316.53 153,-316.53 153,-352.53"/>
<text text-anchor="start" x="11.5" y="-330.93" font-family="Helvetica,sans-Serif" font-size="12.00">added&#45;to&#45;existing&#45;cluster</text>
<path fill="none" stroke="black" stroke-width="2" d="M12,-318.03C12,-318.03 141,-318.03 141,-318.03 146.5,-318.03 152,-323.53 152,-329.03 152,-329.03 152,-340.03 152,-340.03 152,-345.53 146.5,-351.03 141,-351.03 141,-351.03 12,-351.03 12,-351.03 6.5,-351.03 1,-345.53 1,-340.03 1,-340.03 1,-329.03 1,-329.03 1,-323.53 6.5,-318.03 12,-318.03"/>
</g>
<!-- unbinding&#45;pending&#45;user&#45;action -->
<g id="node7" class="node state regular">
<title>unbinding&#45;pending&#45;user&#45;action</title>
<polygon fill="#ffffff" fill-opacity="0.003922" stroke="transparent" stroke-width="2" points="606,-199.53 420,-199.53 420,-163.53 606,-163.53 606,-199.53"/>
<text text-anchor="start" x="431" y="-177.93" font-family="Helvetica,sans-Serif" font-size="12.00">unbinding&#45;pending&#45;user&#45;action</text>
<path fill="none" stroke="black" stroke-width="2" d="M432,-165.03C432,-165.03 594,-165.03 594,-165.03 599.5,-165.03 605,-170.53 605,-176.03 605,-176.03 605,-187.03 605,-187.03 605,-192.53 599.5,-198.03 594,-198.03 594,-198.03 432,-198.03 432,-198.03 426.5,-198.03 421,-192.53 421,-187.03 421,-187.03 421,-176.03 421,-176.03 421,-170.53 426.5,-165.03 432,-165.03"/>
</g>
<!-- added&#45;to&#45;existing&#45;cluster&#45;&gt;unbinding&#45;pending&#45;user&#45;action -->
<g id="edge8" class="edge transition">
<title>added&#45;to&#45;existing&#45;cluster&#45;&gt;unbinding&#45;pending&#45;user&#45;action</title>
<path fill="none" stroke="black" d="M153.07,-345.5C221.8,-351.88 324.09,-352.11 402,-312.53 446.63,-289.86 480.18,-240.25 497.89,-209.01"/>
<polygon fill="black" stroke="black" points="501.12,-210.4 502.87,-199.95 494.98,-207.02 501.12,-210.4"/>
<text text-anchor="start" x="178" y="-351.53" font-family="Helvetica,sans-Serif" font-size="10.00">Unbind Host &#45; Unbind during or after installation &#160;&#160;</text>
</g>
<!-- cancelled -->
<g id="node2" class="node state regular">
<title>cancelled</title>
<polygon fill="#ffffff" fill-opacity="0.003922" stroke="transparent" stroke-width="2" points="113.5,-296.53 39.5,-296.53 39.5,-260.53 113.5,-260.53 113.5,-296.53"/>
<text text-anchor="start" x="50.5" y="-274.93" font-family="Helvetica,sans-Serif" font-size="12.00">cancelled</text>
<path fill="none" stroke="black" stroke-width="2" d="M51.5,-262.03C51.5,-262.03 101.5,-262.03 101.5,-262.03 107,-262.03 112.5,-267.53 112.5,-273.03 112.5,-273.03 112.5,-284.03 112.5,-284.03 112.5,-289.53 107,-295.03 101.5,-295.03 101.5,-295.03 51.5,-295.03 51.5,-295.03 46,-295.03 40.5,-289.53 40.5,-284.03 40.5,-284.03 40.5,-273.03 40.5,-273.03 40.5,-267.53 46,-262.03 51.5,-262.03"/>
</g>
<!-- cancelled&#45;&gt;unbinding&#45;pending&#45;user&#45;action -->
<g id="edge2" class="edge transition">
<title>cancelled&#45;&gt;unbinding&#45;pending&#45;user&#45;action</title>
<path fill="none" stroke="black" d="M113.54,-286.55C175.05,-298.52 303.19,-315.88 402,-278.53 439.28,-264.44 472.1,-231.31 491.97,-207.7"/>
<polygon fill="black" stroke="black" points="494.82,-209.74 498.45,-199.79 489.41,-205.31 494.82,-209.74"/>
<text text-anchor="start" x="206" y="-303.53" font-family="Helvetica,sans-Serif" font-size="10.00">Reclaim Host &#45; Reclaim failed host &#160;&#160;</text>
</g>
<!-- cancelled&#45;&gt;unbinding&#45;pending&#45;user&#45;action -->
<g id="edge10" class="edge transition">
<title>cancelled&#45;&gt;unbinding&#45;pending&#45;user&#45;action</title>
<path fill="none" stroke="black" d="M113.89,-273.32C131.18,-270.89 152.15,-267.99 171,-265.53 273.55,-252.19 303.07,-267.68 402,-237.53 427.36,-229.81 453.89,-216.47 474.54,-204.75"/>
<polygon fill="black" stroke="black" points="476.4,-207.72 483.3,-199.68 472.9,-201.66 476.4,-207.72"/>
<text text-anchor="start" x="178" y="-268.53" font-family="Helvetica,sans-Serif" font-size="10.00">Unbind Host &#45; Unbind during or after installation &#160;&#160;</text>
</g>
<!-- error -->
<g id="node3" class="node state regular">
<title>error</title>
<polygon fill="#ffffff" fill-opacity="0.003922" stroke="transparent" stroke-width="2" points="104.5,-238.53 48.5,-238.53 48.5,-202.53 104.5,-202.53 104.5,-238.53"/>
<text text-anchor="start" x="64" y="-216.93" font-family="Helvetica,sans-Serif" font-size="12.00">error</text>
<path fill="none" stroke="black" stroke-width="2" d="M60.5,-204.03C60.5,-204.03 92.5,-204.03 92.5,-204.03 98,-204.03 103.5,-209.53 103.5,-215.03 103.5,-215.03 103.5,-226.03 103.5,-226.03 103.5,-231.53 98,-237.03 92.5,-237.03 92.5,-237.03 60.5,-237.03 60.5,-237.03 55,-237.03 49.5,-231.53 49.5,-226.03 49.5,-226.03 49.5,-215.03 49.5,-215.03 49.5,-209.53 55,-204.03 60.5,-204.03"/>
</g>
<!-- error&#45;&gt;unbinding&#45;pending&#45;user&#45;action -->
<g id="edge1" class="edge transition">
<title>error&#45;&gt;unbinding&#45;pending&#45;user&#45;action</title>
<path fill="none" stroke="black" d="M104.6,-221.76C160.54,-223.84 292.68,-226.42 402,-210.53 415.6,-208.56 429.94,-205.51 443.61,-202.12"/>
<polygon fill="black" stroke="black" points="444.61,-205.48 453.42,-199.61 442.87,-198.7 444.61,-205.48"/>
<text text-anchor="start" x="206" y="-225.53" font-family="Helvetica,sans-Serif" font-size="10.00">Reclaim Host &#45; Reclaim failed host &#160;&#160;</text>
</g>
<!-- error&#45;&gt;unbinding&#45;pending&#45;user&#45;action -->
<g id="edge9" class="edge transition">
<title>error&#45;&gt;unbinding&#45;pending&#45;user&#45;action</title>
<path fill="none" stroke="black" d="M104.64,-212.37C123.15,-207.18 148.34,-200.82 171,-197.53 250.64,-185.98 341.73,-182.18 409.71,-181.16"/>
<polygon fill="black" stroke="black" points="410.04,-184.66 420,-181.03 409.95,-177.66 410.04,-184.66"/>
<text text-anchor="start" x="178" y="-200.53" font-family="Helvetica,sans-Serif" font-size="10.00">Unbind Host &#45; Unbind during or after installation &#160;&#160;</text>
</g>
<!-- installed -->
<g id="node4" class="node state regular">
<title>installed</title>
<polygon fill="#ffffff" fill-opacity="0.003922" stroke="transparent" stroke-width="2" points="110.5,-182.53 42.5,-182.53 42.5,-146.53 110.5,-146.53 110.5,-182.53"/>
<text text-anchor="start" x="53.5" y="-160.93" font-family="Helvetica,sans-Serif" font-size="12.00">installed</text>
<path fill="none" stroke="black" stroke-width="2" d="M54.5,-148.03C54.5,-148.03 98.5,-148.03 98.5,-148.03 104,-148.03 109.5,-153.53 109.5,-159.03 109.5,-159.03 109.5,-170.03 109.5,-170.03 109.5,-175.53 104,-181.03 98.5,-181.03 98.5,-181.03 54.5,-181.03 54.5,-181.03 49,-181.03 43.5,-175.53 43.5,-170.03 43.5,-170.03 43.5,-159.03 43.5,-159.03 43.5,-153.53 49,-148.03 54.5,-148.03"/>
</g>
<!-- installed&#45;&gt;unbinding&#45;pending&#45;user&#45;action -->
<g id="edge7" class="edge transition">
<title>installed&#45;&gt;unbinding&#45;pending&#45;user&#45;action</title>
<path fill="none" stroke="black" d="M110.73,-163.09C169.55,-160.88 295.81,-157.69 402,-165.53 404.57,-165.72 407.17,-165.94 409.79,-166.17"/>
<polygon fill="black" stroke="black" points="409.68,-169.68 419.98,-167.17 410.37,-162.71 409.68,-169.68"/>
<text text-anchor="start" x="178" y="-168.53" font-family="Helvetica,sans-Serif" font-size="10.00">Unbind Host &#45; Unbind during or after installation &#160;&#160;</text>
</g>
<!-- reclaiming -->
<g id="node5" class="node state regular">
<title>reclaiming</title>
<polygon fill="#ffffff" fill-opacity="0.003922" stroke="transparent" stroke-width="2" points="115.5,-121.53 37.5,-121.53 37.5,-85.53 115.5,-85.53 115.5,-121.53"/>
<text text-anchor="start" x="48.5" y="-99.93" font-family="Helvetica,sans-Serif" font-size="12.00">reclaiming</text>
<path fill="none" stroke="black" stroke-width="2" d="M49.5,-87.03C49.5,-87.03 103.5,-87.03 103.5,-87.03 109,-87.03 114.5,-92.53 114.5,-98.03 114.5,-98.03 114.5,-109.03 114.5,-109.03 114.5,-114.53 109,-120.03 103.5,-120.03 103.5,-120.03 49.5,-120.03 49.5,-120.03 44,-120.03 38.5,-114.53 38.5,-109.03 38.5,-109.03 38.5,-98.03 38.5,-98.03 38.5,-92.53 44,-87.03 49.5,-87.03"/>
</g>
<!-- reclaiming&#45;&gt;unbinding&#45;pending&#45;user&#45;action -->
<g id="edge3" class="edge transition">
<title>reclaiming&#45;&gt;unbinding&#45;pending&#45;user&#45;action</title>
<path fill="none" stroke="black" d="M115.87,-106.16C177.02,-110.86 300.05,-122.47 402,-145.53 419.12,-149.41 437.37,-154.83 453.97,-160.29"/>
<polygon fill="black" stroke="black" points="452.95,-163.64 463.54,-163.5 455.17,-157 452.95,-163.64"/>
<text text-anchor="start" x="171" y="-148.53" font-family="Helvetica,sans-Serif" font-size="10.00">Reclaim Failed &#45; Reclaim failure for reclaiming host &#160;&#160;</text>
</g>
<!-- reclaiming&#45;&gt;unbinding&#45;pending&#45;user&#45;action -->
<g id="edge5" class="edge transition">
<title>reclaiming&#45;&gt;unbinding&#45;pending&#45;user&#45;action</title>
<path fill="none" stroke="black" d="M115.54,-94.25C177.52,-80.93 303.3,-61.53 402,-95.53 436.7,-107.49 468.83,-135.38 489.3,-156.18"/>
<polygon fill="black" stroke="black" points="486.84,-158.68 496.29,-163.48 491.9,-153.84 486.84,-158.68"/>
<text text-anchor="start" x="209" y="-98.53" font-family="Helvetica,sans-Serif" font-size="10.00">Refresh &#45; Refresh reclaiming host &#160;&#160;</text>
</g>
<!-- reclaiming&#45;rebooting -->
<g id="node6" class="node state regular">
<title>reclaiming&#45;rebooting</title>
<polygon fill="#ffffff" fill-opacity="0.003922" stroke="transparent" stroke-width="2" points="142.5,-53.53 10.5,-53.53 10.5,-17.53 142.5,-17.53 142.5,-53.53"/>
<text text-anchor="start" x="21.5" y="-31.93" font-family="Helvetica,sans-Serif" font-size="12.00">reclaiming&#45;rebooting</text>
<path fill="none" stroke="black" stroke-width="2" d="M22.5,-19.03C22.5,-19.03 130.5,-19.03 130.5,-19.03 136,-19.03 141.5,-24.53 141.5,-30.03 141.5,-30.03 141.5,-41.03 141.5,-41.03 141.5,-46.53 136,-52.03 130.5,-52.03 130.5,-52.03 22.5,-52.03 22.5,-52.03 17,-52.03 11.5,-46.53 11.5,-41.03 11.5,-41.03 11.5,-30.03 11.5,-30.03 11.5,-24.53 17,-19.03 22.5,-19.03"/>
</g>
<!-- reclaiming&#45;rebooting&#45;&gt;unbinding&#45;pending&#45;user&#45;action -->
<g id="edge4" class="edge transition">
<title>reclaiming&#45;rebooting&#45;&gt;unbinding&#45;pending&#45;user&#45;action</title>
<path fill="none" stroke="black" d="M142.54,-39.52C233.92,-45.31 390.54,-55.94 402,-61.53 443.93,-82.02 477.54,-126 496.11,-154.65"/>
<polygon fill="black" stroke="black" points="493.31,-156.77 501.6,-163.36 499.23,-153.04 493.31,-156.77"/>
<text text-anchor="start" x="171" y="-64.53" font-family="Helvetica,sans-Serif" font-size="10.00">Reclaim Failed &#45; Reclaim failure for reclaiming host &#160;&#160;</text>
</g>
<!-- reclaiming&#45;rebooting&#45;&gt;unbinding&#45;pending&#45;user&#45;action -->
<g id="edge6" class="edge transition">
<title>reclaiming&#45;rebooting&#45;&gt;unbinding&#45;pending&#45;user&#45;action</title>
<path fill="none" stroke="black" d="M138.47,-17.46C206.73,-0.85 318.7,15.34 402,-27.53 453.54,-54.06 486.28,-117.16 501.66,-153.83"/>
<polygon fill="black" stroke="black" points="498.54,-155.46 505.54,-163.42 505.03,-152.83 498.54,-155.46"/>
<text text-anchor="start" x="209" y="-30.53" font-family="Helvetica,sans-Serif" font-size="10.00">Refresh &#45; Refresh reclaiming host &#160;&#160;</text>
</g>
</g>
</svg>
