<?xml version="1.0" encoding="UTF-8" standalone="no"?>
<!DOCTYPE svg PUBLIC "-//W3C//DTD SVG 1.1//EN"
 "http://www.w3.org/Graphics/SVG/1.1/DTD/svg11.dtd">
<!-- Generated by graphviz version 5.0.0 (0)
 -->
<!-- Title: state transitions Pages: 1 -->
<svg width="607pt" height="419pt"
 viewBox="0.00 0.00 607.00 419.18" xmlns="http://www.w3.org/2000/svg" xmlns:xlink="http://www.w3.org/1999/xlink">
<g id="graph0" class="graph" transform="scale(1 1) rotate(0) translate(4 415.18)">
<title>state transitions</title>
<polygon fill="white" stroke="transparent" points="-4,4 -4,-415.18 603,-415.18 603,4 -4,4"/>
<!-- disconnected -->
<g id="node1" class="node state regular">
<title>disconnected</title>
<polygon fill="#ffffff" fill-opacity="0.003922" stroke="transparent" stroke-width="2" points="123,-379.18 29,-379.18 29,-343.18 123,-343.18 123,-379.18"/>
<text text-anchor="start" x="40" y="-357.58" font-family="Helvetica,sans-Serif" font-size="12.00">disconnected</text>
<path fill="none" stroke="black" stroke-width="2" d="M41,-344.68C41,-344.68 111,-344.68 111,-344.68 116.5,-344.68 122,-350.18 122,-355.68 122,-355.68 122,-366.68 122,-366.68 122,-372.18 116.5,-377.68 111,-377.68 111,-377.68 41,-377.68 41,-377.68 35.5,-377.68 30,-372.18 30,-366.68 30,-366.68 30,-355.68 30,-355.68 30,-350.18 35.5,-344.68 41,-344.68"/>
</g>
<!-- insufficient -->
<g id="node3" class="node state regular">
<title>insufficient</title>
<polygon fill="#ffffff" fill-opacity="0.003922" stroke="transparent" stroke-width="2" points="547,-247.18 467,-247.18 467,-211.18 547,-211.18 547,-247.18"/>
<text text-anchor="start" x="478" y="-225.58" font-family="Helvetica,sans-Serif" font-size="12.00">insufficient</text>
<path fill="none" stroke="black" stroke-width="2" d="M479,-212.68C479,-212.68 535,-212.68 535,-212.68 540.5,-212.68 546,-218.18 546,-223.68 546,-223.68 546,-234.68 546,-234.68 546,-240.18 540.5,-245.68 535,-245.68 535,-245.68 479,-245.68 479,-245.68 473.5,-245.68 468,-240.18 468,-234.68 468,-234.68 468,-223.68 468,-223.68 468,-218.18 473.5,-212.68 479,-212.68"/>
</g>
<!-- disconnected&#45;&gt;insufficient -->
<g id="edge4" class="edge transition">
<title>disconnected&#45;&gt;insufficient</title>
<path fill="none" stroke="black" d="M123.02,-375.88C198.13,-396.87 348.76,-426.08 449,-360.18 483.48,-337.51 497.22,-288.97 502.61,-257.77"/>
<polygon fill="black" stroke="black" points="506.13,-257.94 504.19,-247.52 499.21,-256.87 506.13,-257.94"/>
<text text-anchor="start" x="217.5" y="-403.18" font-family="Helvetica,sans-Serif" font-size="10.00">Refresh &#45; Host has insufficient hardware &#160;&#160;</text>
</g>
<!-- disconnected&#45;&gt;insufficient -->
<g id="edge8" class="edge transition">
<title>disconnected&#45;&gt;insufficient</title>
<path fill="none" stroke="black" d="M123.28,-353.59C138.17,-351.31 154.75,-348.95 170,-347.18 231.79,-339.99 396.17,-357.03 449,-324.18 473.36,-309.03 488.69,-279.28 497.23,-257.09"/>
<polygon fill="black" stroke="black" points="500.59,-258.1 500.69,-247.51 494,-255.73 500.59,-258.1"/>
<text text-anchor="start" x="251" y="-350.18" font-family="Helvetica,sans-Serif" font-size="10.00">Refresh &#45; Host not ready &#160;&#160;</text>
</g>
<!-- discovering -->
<g id="node2" class="node state regular">
<title>discovering</title>
<polygon fill="#ffffff" fill-opacity="0.003922" stroke="transparent" stroke-width="2" points="118,-318.18 34,-318.18 34,-282.18 118,-282.18 118,-318.18"/>
<text text-anchor="start" x="45" y="-296.58" font-family="Helvetica,sans-Serif" font-size="12.00">discovering</text>
<path fill="none" stroke="black" stroke-width="2" d="M46,-283.68C46,-283.68 106,-283.68 106,-283.68 111.5,-283.68 117,-289.18 117,-294.68 117,-294.68 117,-305.68 117,-305.68 117,-311.18 111.5,-316.68 106,-316.68 106,-316.68 46,-316.68 46,-316.68 40.5,-316.68 35,-311.18 35,-305.68 35,-305.68 35,-294.68 35,-294.68 35,-289.18 40.5,-283.68 46,-283.68"/>
</g>
<!-- discovering&#45;&gt;insufficient -->
<g id="edge5" class="edge transition">
<title>discovering&#45;&gt;insufficient</title>
<path fill="none" stroke="black" d="M118.27,-303.33C202.51,-309.12 391.2,-318.58 449,-292.18 465.73,-284.54 479.68,-269.39 489.6,-255.87"/>
<polygon fill="black" stroke="black" points="492.71,-257.53 495.52,-247.31 486.95,-253.54 492.71,-257.53"/>
<text text-anchor="start" x="217.5" y="-312.18" font-family="Helvetica,sans-Serif" font-size="10.00">Refresh &#45; Host has insufficient hardware &#160;&#160;</text>
</g>
<!-- discovering&#45;&gt;insufficient -->
<g id="edge11" class="edge transition">
<title>discovering&#45;&gt;insufficient</title>
<path fill="none" stroke="black" d="M118.02,-289.98C134.15,-286.21 152.88,-282.15 170,-279.18 293.08,-257.84 326.51,-269.68 449,-245.18 451.65,-244.65 454.35,-244.06 457.08,-243.43"/>
<polygon fill="black" stroke="black" points="458.07,-246.79 466.94,-240.99 456.39,-239.99 458.07,-246.79"/>
<text text-anchor="start" x="251" y="-282.18" font-family="Helvetica,sans-Serif" font-size="10.00">Refresh &#45; Host not ready &#160;&#160;</text>
</g>
<!-- insufficient&#45;&gt;insufficient -->
<g id="edge6" class="edge transition">
<title>insufficient&#45;&gt;insufficient</title>
<path fill="none" stroke="black" d="M489.27,-247.33C486.54,-256.72 492.45,-265.18 507,-265.18 515.86,-265.18 521.52,-262.04 523.97,-257.46"/>
<polygon fill="black" stroke="black" points="527.47,-257.56 524.73,-247.33 520.49,-257.04 527.47,-257.56"/>
<text text-anchor="start" x="415" y="-268.18" font-family="Helvetica,sans-Serif" font-size="10.00">Refresh &#45; Host has insufficient hardware &#160;&#160;</text>
</g>
<!-- insufficient&#45;&gt;insufficient -->
<g id="edge9" class="edge transition">
<title>insufficient&#45;&gt;insufficient</title>
<path fill="none" stroke="black" d="M477.28,-247.44C461.88,-264.58 471.78,-283.18 507,-283.18 536.44,-283.18 548.19,-270.18 542.26,-255.9"/>
<polygon fill="black" stroke="black" points="545.12,-253.89 536.72,-247.44 539.26,-257.72 545.12,-253.89"/>
<text text-anchor="start" x="448.5" y="-286.18" font-family="Helvetica,sans-Serif" font-size="10.00">Refresh &#45; Host not ready &#160;&#160;</text>
</g>
<!-- known -->
<g id="node4" class="node state regular">
<title>known</title>
<polygon fill="#ffffff" fill-opacity="0.003922" stroke="transparent" stroke-width="2" points="105,-230.18 47,-230.18 47,-194.18 105,-194.18 105,-230.18"/>
<text text-anchor="start" x="58" y="-208.58" font-family="Helvetica,sans-Serif" font-size="12.00">known</text>
<path fill="none" stroke="black" stroke-width="2" d="M59,-195.68C59,-195.68 93,-195.68 93,-195.68 98.5,-195.68 104,-201.18 104,-206.68 104,-206.68 104,-217.68 104,-217.68 104,-223.18 98.5,-228.68 93,-228.68 93,-228.68 59,-228.68 59,-228.68 53.5,-228.68 48,-223.18 48,-217.68 48,-217.68 48,-206.68 48,-206.68 48,-201.18 53.5,-195.68 59,-195.68"/>
</g>
<!-- known&#45;&gt;insufficient -->
<g id="edge3" class="edge transition">
<title>known&#45;&gt;insufficient</title>
<path fill="none" stroke="black" d="M105.41,-216.69C123.78,-219.4 148.24,-222.62 170,-224.18 271.77,-231.48 391.31,-231.14 456.84,-230.19"/>
<polygon fill="black" stroke="black" points="456.94,-233.69 466.88,-230.03 456.83,-226.69 456.94,-233.69"/>
<text text-anchor="start" x="170" y="-233.18" font-family="Helvetica,sans-Serif" font-size="10.00">Refresh &#45; Preparing failed disk speed host move to insufficient &#160;&#160;</text>
</g>
<!-- known&#45;&gt;insufficient -->
<g id="edge7" class="edge transition">
<title>known&#45;&gt;insufficient</title>
<path fill="none" stroke="black" d="M105.08,-211.8C123.53,-211.57 148.2,-211.3 170,-211.18 294,-210.51 326.45,-192.29 449,-211.18 451.65,-211.59 454.34,-212.1 457.05,-212.68"/>
<polygon fill="black" stroke="black" points="456.27,-216.09 466.82,-215.09 457.95,-209.3 456.27,-216.09"/>
<text text-anchor="start" x="217.5" y="-214.18" font-family="Helvetica,sans-Serif" font-size="10.00">Refresh &#45; Host has insufficient hardware &#160;&#160;</text>
</g>
<!-- known&#45;&gt;insufficient -->
<g id="edge12" class="edge transition">
<title>known&#45;&gt;insufficient</title>
<path fill="none" stroke="black" d="M105.1,-202.55C123.35,-196.82 147.79,-190.11 170,-187.18 292.93,-170.94 331.2,-148.46 449,-187.18 460.09,-190.82 470.79,-197.54 479.87,-204.55"/>
<polygon fill="black" stroke="black" points="477.76,-207.35 487.71,-210.99 482.21,-201.94 477.76,-207.35"/>
<text text-anchor="start" x="251" y="-190.18" font-family="Helvetica,sans-Serif" font-size="10.00">Refresh &#45; Host not ready &#160;&#160;</text>
</g>
<!-- pending&#45;for&#45;input -->
<g id="node5" class="node state regular">
<title>pending&#45;for&#45;input</title>
<polygon fill="#ffffff" fill-opacity="0.003922" stroke="transparent" stroke-width="2" points="132.5,-169.18 19.5,-169.18 19.5,-133.18 132.5,-133.18 132.5,-169.18"/>
<text text-anchor="start" x="31" y="-147.58" font-family="Helvetica,sans-Serif" font-size="12.00">pending&#45;for&#45;input</text>
<path fill="none" stroke="black" stroke-width="2" d="M31.5,-134.68C31.5,-134.68 120.5,-134.68 120.5,-134.68 126,-134.68 131.5,-140.18 131.5,-145.68 131.5,-145.68 131.5,-156.68 131.5,-156.68 131.5,-162.18 126,-167.68 120.5,-167.68 120.5,-167.68 31.5,-167.68 31.5,-167.68 26,-167.68 20.5,-162.18 20.5,-156.68 20.5,-156.68 20.5,-145.68 20.5,-145.68 20.5,-140.18 26,-134.68 31.5,-134.68"/>
</g>
<!-- pending&#45;for&#45;input&#45;&gt;insufficient -->
<g id="edge10" class="edge transition">
<title>pending&#45;for&#45;input&#45;&gt;insufficient</title>
<path fill="none" stroke="black" d="M132.66,-136C208.75,-118.46 347.38,-98.19 449,-150.18 470.16,-161 485.26,-183.74 494.58,-202.06"/>
<polygon fill="black" stroke="black" points="491.46,-203.64 498.93,-211.15 497.77,-200.61 491.46,-203.64"/>
<text text-anchor="start" x="251" y="-153.18" font-family="Helvetica,sans-Serif" font-size="10.00">Refresh &#45; Host not ready &#160;&#160;</text>
</g>
<!-- preparing&#45;failed -->
<g id="node6" class="node state regular">
<title>preparing&#45;failed</title>
<polygon fill="#ffffff" fill-opacity="0.003922" stroke="transparent" stroke-width="2" points="129.5,-115.18 22.5,-115.18 22.5,-79.18 129.5,-79.18 129.5,-115.18"/>
<text text-anchor="start" x="34" y="-93.58" font-family="Helvetica,sans-Serif" font-size="12.00">preparing&#45;failed</text>
<path fill="none" stroke="black" stroke-width="2" d="M34.5,-80.68C34.5,-80.68 117.5,-80.68 117.5,-80.68 123,-80.68 128.5,-86.18 128.5,-91.68 128.5,-91.68 128.5,-102.68 128.5,-102.68 128.5,-108.18 123,-113.68 117.5,-113.68 117.5,-113.68 34.5,-113.68 34.5,-113.68 29,-113.68 23.5,-108.18 23.5,-102.68 23.5,-102.68 23.5,-91.68 23.5,-91.68 23.5,-86.18 29,-80.68 34.5,-80.68"/>
</g>
<!-- preparing&#45;failed&#45;&gt;insufficient -->
<g id="edge2" class="edge transition">
<title>preparing&#45;failed&#45;&gt;insufficient</title>
<path fill="none" stroke="black" d="M129.56,-81.31C206.6,-61.43 351.57,-37.16 449,-101.18 482.64,-123.28 496.61,-170.3 502.28,-200.78"/>
<polygon fill="black" stroke="black" points="498.85,-201.52 503.96,-210.8 505.76,-200.36 498.85,-201.52"/>
<text text-anchor="start" x="170" y="-104.18" font-family="Helvetica,sans-Serif" font-size="10.00">Refresh &#45; Preparing failed disk speed host move to insufficient &#160;&#160;</text>
</g>
<!-- preparing&#45;for&#45;installation -->
<g id="node7" class="node state regular">
<title>preparing&#45;for&#45;installation</title>
<polygon fill="#ffffff" fill-opacity="0.003922" stroke="transparent" stroke-width="2" points="152,-61.18 0,-61.18 0,-25.18 152,-25.18 152,-61.18"/>
<text text-anchor="start" x="11" y="-39.58" font-family="Helvetica,sans-Serif" font-size="12.00">preparing&#45;for&#45;installation</text>
<path fill="none" stroke="black" stroke-width="2" d="M12,-26.68C12,-26.68 140,-26.68 140,-26.68 145.5,-26.68 151,-32.18 151,-37.68 151,-37.68 151,-48.68 151,-48.68 151,-54.18 145.5,-59.68 140,-59.68 140,-59.68 12,-59.68 12,-59.68 6.5,-59.68 1,-54.18 1,-48.68 1,-48.68 1,-37.68 1,-37.68 1,-32.18 6.5,-26.68 12,-26.68"/>
</g>
<!-- preparing&#45;for&#45;installation&#45;&gt;insufficient -->
<g id="edge1" class="edge transition">
<title>preparing&#45;for&#45;installation&#45;&gt;insufficient</title>
<path fill="none" stroke="black" d="M131.19,-25.1C209.61,-2.61 355.57,24.99 449,-44.18 498.2,-80.6 506.24,-158.85 506.79,-200.96"/>
<polygon fill="black" stroke="black" points="503.29,-201.09 506.78,-211.09 510.29,-201.09 503.29,-201.09"/>
<text text-anchor="start" x="170" y="-47.18" font-family="Helvetica,sans-Serif" font-size="10.00">Refresh &#45; Preparing failed disk speed host move to insufficient &#160;&#160;</text>
</g>
</g>
</svg>
