<?xml version="1.0" encoding="UTF-8" standalone="no"?>
<!DOCTYPE svg PUBLIC "-//W3C//DTD SVG 1.1//EN"
 "http://www.w3.org/Graphics/SVG/1.1/DTD/svg11.dtd">
<!-- Generated by graphviz version 12.1.0 (20240811.2233)
 -->
<!-- Title: state transitions Pages: 1 -->
<svg width="451pt" height="384pt"
 viewBox="0.00 0.00 451.00 383.93" xmlns="http://www.w3.org/2000/svg" xmlns:xlink="http://www.w3.org/1999/xlink">
<g id="graph0" class="graph" transform="scale(1 1) rotate(0) translate(4 379.93)">
<title>state transitions</title>
<polygon fill="white" stroke="none" points="-4,4 -4,-379.93 447,-379.93 447,4 -4,4"/>
<!-- disconnected -->
<g id="node1" class="node state regular">
<title>disconnected</title>
<polygon fill="#ffffff" fill-opacity="0.003922" stroke="none" stroke-width="2" points="113.5,-353 12,-353 12,-316.75 113.5,-316.75 113.5,-353"/>
<text text-anchor="start" x="23" y="-330.6" font-family="Helvetica,sans-Serif" font-size="12.00">disconnected</text>
<path fill="none" stroke="black" stroke-width="2" d="M24.42,-317.75C24.42,-317.75 101.08,-317.75 101.08,-317.75 106.79,-317.75 112.5,-323.45 112.5,-329.16 112.5,-329.16 112.5,-340.58 112.5,-340.58 112.5,-346.29 106.79,-352 101.08,-352 101.08,-352 24.42,-352 24.42,-352 18.71,-352 13,-346.29 13,-340.58 13,-340.58 13,-329.16 13,-329.16 13,-323.45 18.71,-317.75 24.42,-317.75"/>
</g>
<!-- unbinding -->
<g id="node2" class="node state regular">
<title>unbinding</title>
<polygon fill="#ffffff" fill-opacity="0.003922" stroke="none" stroke-width="2" points="443,-209 362.5,-209 362.5,-172.75 443,-172.75 443,-209"/>
<text text-anchor="start" x="373.5" y="-186.6" font-family="Helvetica,sans-Serif" font-size="12.00">unbinding</text>
<path fill="none" stroke="black" stroke-width="2" d="M374.92,-173.75C374.92,-173.75 430.58,-173.75 430.58,-173.75 436.29,-173.75 442,-179.45 442,-185.16 442,-185.16 442,-196.58 442,-196.58 442,-202.29 436.29,-208 430.58,-208 430.58,-208 374.92,-208 374.92,-208 369.21,-208 363.5,-202.29 363.5,-196.58 363.5,-196.58 363.5,-185.16 363.5,-185.16 363.5,-179.45 369.21,-173.75 374.92,-173.75"/>
</g>
<!-- disconnected&#45;&gt;unbinding -->
<g id="edge1" class="edge transition">
<title>disconnected&#45;&gt;unbinding</title>
<path fill="none" stroke="black" d="M113.27,-349.37C173.5,-363.84 275.63,-377.83 344.5,-330.87 381.02,-305.97 394.27,-253.29 399.06,-220.12"/>
<polygon fill="black" stroke="black" points="402.51,-220.73 400.28,-210.38 395.56,-219.86 402.51,-220.73"/>
<text text-anchor="start" x="143.5" y="-366.43" font-family="Helvetica,sans-Serif" font-size="10.00">Reclaim Host &#45; Reclaim pre&#45;installation &#160;&#160;</text>
</g>
<!-- disconnected&#45;&gt;unbinding -->
<g id="edge2" class="edge transition">
<title>disconnected&#45;&gt;unbinding</title>
<path fill="none" stroke="black" d="M113.26,-320.69C123.21,-318.21 133.64,-315.87 143.5,-314.12 187.69,-306.31 307,-319.52 344.5,-294.87 370.82,-277.57 386.11,-243.87 394.17,-219.51"/>
<polygon fill="black" stroke="black" points="397.44,-220.78 397.02,-210.19 390.75,-218.73 397.44,-220.78"/>
<text text-anchor="start" x="148.75" y="-317.37" font-family="Helvetica,sans-Serif" font-size="10.00">Unbind Host &#45; Unbind pre&#45;installation &#160;&#160;</text>
</g>
<!-- discovering -->
<g id="node3" class="node state regular">
<title>discovering</title>
<polygon fill="#ffffff" fill-opacity="0.003922" stroke="none" stroke-width="2" points="107.88,-272 17.62,-272 17.62,-235.75 107.88,-235.75 107.88,-272"/>
<text text-anchor="start" x="28.62" y="-249.6" font-family="Helvetica,sans-Serif" font-size="12.00">discovering</text>
<path fill="none" stroke="black" stroke-width="2" d="M30.04,-236.75C30.04,-236.75 95.46,-236.75 95.46,-236.75 101.17,-236.75 106.88,-242.45 106.88,-248.16 106.88,-248.16 106.88,-259.58 106.88,-259.58 106.88,-265.29 101.17,-271 95.46,-271 95.46,-271 30.04,-271 30.04,-271 24.33,-271 18.62,-265.29 18.62,-259.58 18.62,-259.58 18.62,-248.16 18.62,-248.16 18.62,-242.45 24.33,-236.75 30.04,-236.75"/>
</g>
<!-- discovering&#45;&gt;unbinding -->
<g id="edge3" class="edge transition">
<title>discovering&#45;&gt;unbinding</title>
<path fill="none" stroke="black" d="M107.55,-265.98C164.95,-279.4 267.37,-294.76 344.5,-258.87 362.52,-250.49 376.9,-233.33 386.74,-218.35"/>
<polygon fill="black" stroke="black" points="389.48,-220.57 391.75,-210.22 383.52,-216.89 389.48,-220.57"/>
<text text-anchor="start" x="143.5" y="-284.28" font-family="Helvetica,sans-Serif" font-size="10.00">Reclaim Host &#45; Reclaim pre&#45;installation &#160;&#160;</text>
</g>
<!-- discovering&#45;&gt;unbinding -->
<g id="edge4" class="edge transition">
<title>discovering&#45;&gt;unbinding</title>
<path fill="none" stroke="black" d="M107.65,-247.37C174.89,-237.3 300.27,-218.02 344.5,-207.87 346.79,-207.35 349.12,-206.78 351.47,-206.19"/>
<polygon fill="black" stroke="black" points="352.29,-209.59 361.04,-203.63 350.48,-202.83 352.29,-209.59"/>
<text text-anchor="start" x="148.75" y="-245" font-family="Helvetica,sans-Serif" font-size="10.00">Unbind Host &#45; Unbind pre&#45;installation &#160;&#160;</text>
</g>
<!-- insufficient -->
<g id="node4" class="node state regular">
<title>insufficient</title>
<polygon fill="#ffffff" fill-opacity="0.003922" stroke="none" stroke-width="2" points="106,-200 19.5,-200 19.5,-163.75 106,-163.75 106,-200"/>
<text text-anchor="start" x="30.5" y="-177.6" font-family="Helvetica,sans-Serif" font-size="12.00">insufficient</text>
<path fill="none" stroke="black" stroke-width="2" d="M31.92,-164.75C31.92,-164.75 93.58,-164.75 93.58,-164.75 99.29,-164.75 105,-170.45 105,-176.16 105,-176.16 105,-187.58 105,-187.58 105,-193.29 99.29,-199 93.58,-199 93.58,-199 31.92,-199 31.92,-199 26.21,-199 20.5,-193.29 20.5,-187.58 20.5,-187.58 20.5,-176.16 20.5,-176.16 20.5,-170.45 26.21,-164.75 31.92,-164.75"/>
</g>
<!-- insufficient&#45;&gt;unbinding -->
<g id="edge5" class="edge transition">
<title>insufficient&#45;&gt;unbinding</title>
<path fill="none" stroke="black" d="M105.95,-184.89C118.07,-185.66 131.3,-186.4 143.5,-186.87 215.77,-189.7 299.5,-190.55 351.55,-190.79"/>
<polygon fill="black" stroke="black" points="351.27,-194.29 361.28,-190.83 351.3,-187.29 351.27,-194.29"/>
<text text-anchor="start" x="143.5" y="-194" font-family="Helvetica,sans-Serif" font-size="10.00">Reclaim Host &#45; Reclaim pre&#45;installation &#160;&#160;</text>
</g>
<!-- insufficient&#45;&gt;unbinding -->
<g id="edge6" class="edge transition">
<title>insufficient&#45;&gt;unbinding</title>
<path fill="none" stroke="black" d="M105.98,-174.51C161.24,-166.14 260.9,-155.44 344.5,-170.12 346.82,-170.53 349.17,-171.02 351.52,-171.58"/>
<polygon fill="black" stroke="black" points="350.48,-174.93 361.05,-174.23 352.36,-168.18 350.48,-174.93"/>
<text text-anchor="start" x="148.75" y="-173.37" font-family="Helvetica,sans-Serif" font-size="10.00">Unbind Host &#45; Unbind pre&#45;installation &#160;&#160;</text>
</g>
<!-- known -->
<g id="node5" class="node state regular">
<title>known</title>
<polygon fill="#ffffff" fill-opacity="0.003922" stroke="none" stroke-width="2" points="93.25,-128 32.25,-128 32.25,-91.75 93.25,-91.75 93.25,-128"/>
<text text-anchor="start" x="43.25" y="-105.6" font-family="Helvetica,sans-Serif" font-size="12.00">known</text>
<path fill="none" stroke="black" stroke-width="2" d="M44.67,-92.75C44.67,-92.75 80.83,-92.75 80.83,-92.75 86.54,-92.75 92.25,-98.45 92.25,-104.16 92.25,-104.16 92.25,-115.58 92.25,-115.58 92.25,-121.29 86.54,-127 80.83,-127 80.83,-127 44.67,-127 44.67,-127 38.96,-127 33.25,-121.29 33.25,-115.58 33.25,-115.58 33.25,-104.16 33.25,-104.16 33.25,-98.45 38.96,-92.75 44.67,-92.75"/>
</g>
<!-- known&#45;&gt;unbinding -->
<g id="edge7" class="edge transition">
<title>known&#45;&gt;unbinding</title>
<path fill="none" stroke="black" d="M93.07,-111.69C155.49,-115.88 299.5,-127.31 344.5,-146.12 355.59,-150.76 366.35,-158.14 375.49,-165.58"/>
<polygon fill="black" stroke="black" points="373.04,-168.08 382.9,-171.95 377.61,-162.78 373.04,-168.08"/>
<text text-anchor="start" x="143.5" y="-149.37" font-family="Helvetica,sans-Serif" font-size="10.00">Reclaim Host &#45; Reclaim pre&#45;installation &#160;&#160;</text>
</g>
<!-- known&#45;&gt;unbinding -->
<g id="edge8" class="edge transition">
<title>known&#45;&gt;unbinding</title>
<path fill="none" stroke="black" d="M93,-105.01C155.95,-95.13 302.06,-75.58 344.5,-99.12 368.55,-112.46 383.82,-140.57 392.48,-162.18"/>
<polygon fill="black" stroke="black" points="389.13,-163.21 395.9,-171.36 395.69,-160.77 389.13,-163.21"/>
<text text-anchor="start" x="148.75" y="-102.37" font-family="Helvetica,sans-Serif" font-size="10.00">Unbind Host &#45; Unbind pre&#45;installation &#160;&#160;</text>
</g>
<!-- pending&#45;for&#45;input -->
<g id="node6" class="node state regular">
<title>pending&#45;for&#45;input</title>
<polygon fill="#ffffff" fill-opacity="0.003922" stroke="none" stroke-width="2" points="125.5,-65 0,-65 0,-28.75 125.5,-28.75 125.5,-65"/>
<text text-anchor="start" x="11" y="-42.6" font-family="Helvetica,sans-Serif" font-size="12.00">pending&#45;for&#45;input</text>
<path fill="none" stroke="black" stroke-width="2" d="M12.42,-29.75C12.42,-29.75 113.08,-29.75 113.08,-29.75 118.79,-29.75 124.5,-35.45 124.5,-41.16 124.5,-41.16 124.5,-52.58 124.5,-52.58 124.5,-58.29 118.79,-64 113.08,-64 113.08,-64 12.42,-64 12.42,-64 6.71,-64 1,-58.29 1,-52.58 1,-52.58 1,-41.16 1,-41.16 1,-35.45 6.71,-29.75 12.42,-29.75"/>
</g>
<!-- pending&#45;for&#45;input&#45;&gt;unbinding -->
<g id="edge9" class="edge transition">
<title>pending&#45;for&#45;input&#45;&gt;unbinding</title>
<path fill="none" stroke="black" d="M125.31,-45.24C197.06,-44.51 310.21,-47.38 344.5,-71.12 374.84,-92.12 389.62,-133.7 396.44,-161.9"/>
<polygon fill="black" stroke="black" points="393.01,-162.58 398.57,-171.59 399.84,-161.07 393.01,-162.58"/>
<text text-anchor="start" x="143.5" y="-74.37" font-family="Helvetica,sans-Serif" font-size="10.00">Reclaim Host &#45; Reclaim pre&#45;installation &#160;&#160;</text>
</g>
<!-- pending&#45;for&#45;input&#45;&gt;unbinding -->
<g id="edge10" class="edge transition">
<title>pending&#45;for&#45;input&#45;&gt;unbinding</title>
<path fill="none" stroke="black" d="M105.8,-28.9C164.92,-6.72 273.34,22.28 344.5,-28.12 387.29,-58.43 398.33,-123.39 401.03,-161.44"/>
<polygon fill="black" stroke="black" points="397.53,-161.46 401.56,-171.26 404.52,-161.08 397.53,-161.46"/>
<text text-anchor="start" x="148.75" y="-31.37" font-family="Helvetica,sans-Serif" font-size="10.00">Unbind Host &#45; Unbind pre&#45;installation &#160;&#160;</text>
</g>
</g>
</svg>
