<?xml version="1.0" encoding="UTF-8" standalone="no"?>
<!DOCTYPE svg PUBLIC "-//W3C//DTD SVG 1.1//EN"
 "http://www.w3.org/Graphics/SVG/1.1/DTD/svg11.dtd">
<!-- Generated by graphviz version 7.1.0 (0)
 -->
<!-- Title: state transitions Pages: 1 -->
<svg width="862pt" height="194pt"
 viewBox="0.00 0.00 862.00 194.00" xmlns="http://www.w3.org/2000/svg" xmlns:xlink="http://www.w3.org/1999/xlink">
<g id="graph0" class="graph" transform="scale(1 1) rotate(0) translate(4 190)">
<title>state transitions</title>
<polygon fill="white" stroke="none" points="-4,4 -4,-190 858,-190 858,4 -4,4"/>
<!-- installing -->
<g id="node1" class="node state regular">
<title>installing</title>
<polygon fill="#ffffff" fill-opacity="0.003922" stroke="none" stroke-width="2" points="126,-97 55,-97 55,-61 126,-61 126,-97"/>
<text text-anchor="start" x="66.5" y="-75.4" font-family="Helvetica,sans-Serif" font-size="12.00">installing</text>
<path fill="none" stroke="black" stroke-width="2" d="M67,-62.5C67,-62.5 114,-62.5 114,-62.5 119.5,-62.5 125,-68 125,-73.5 125,-73.5 125,-84.5 125,-84.5 125,-90 119.5,-95.5 114,-95.5 114,-95.5 67,-95.5 67,-95.5 61.5,-95.5 56,-90 56,-84.5 56,-84.5 56,-73.5 56,-73.5 56,-68 61.5,-62.5 67,-62.5"/>
</g>
<!-- installing&#45;in&#45;progress -->
<g id="node2" class="node state regular">
<title>installing&#45;in&#45;progress</title>
<polygon fill="#ffffff" fill-opacity="0.003922" stroke="none" stroke-width="2" points="670,-70 536,-70 536,-34 670,-34 670,-70"/>
<text text-anchor="start" x="547" y="-48.4" font-family="Helvetica,sans-Serif" font-size="12.00">installing&#45;in&#45;progress</text>
<path fill="none" stroke="black" stroke-width="2" d="M548,-35.5C548,-35.5 658,-35.5 658,-35.5 663.5,-35.5 669,-41 669,-46.5 669,-46.5 669,-57.5 669,-57.5 669,-63 663.5,-68.5 658,-68.5 658,-68.5 548,-68.5 548,-68.5 542.5,-68.5 537,-63 537,-57.5 537,-57.5 537,-46.5 537,-46.5 537,-41 542.5,-35.5 548,-35.5"/>
</g>
<!-- installing&#45;&gt;installing&#45;in&#45;progress -->
<g id="edge2" class="edge transition">
<title>installing&#45;&gt;installing&#45;in&#45;progress</title>
<path fill="none" stroke="black" d="M125.85,-79.03C198.42,-78.83 372.61,-76.9 518,-64 520.2,-63.8 522.43,-63.59 524.68,-63.36"/>
<polygon fill="black" stroke="black" points="524.99,-66.85 534.54,-62.27 524.22,-59.89 524.99,-66.85"/>
<text text-anchor="start" x="199" y="-81" font-family="Helvetica,sans-Serif" font-size="10.00">null &#45; host progress installing&#45;in&#45;progress on rebooting in kube&#45;api mode &#160;&#160;</text>
</g>
<!-- installing&#45;&gt;installing&#45;in&#45;progress -->
<g id="edge4" class="edge transition">
<title>installing&#45;&gt;installing&#45;in&#45;progress</title>
<path fill="none" stroke="black" d="M125.92,-67.64C146.8,-61.36 174.13,-54.19 199,-51 311.68,-36.57 443.53,-40.84 524.92,-45.9"/>
<polygon fill="black" stroke="black" points="524.34,-49.37 534.55,-46.52 524.79,-42.39 524.34,-49.37"/>
<text text-anchor="start" x="276" y="-54" font-family="Helvetica,sans-Serif" font-size="10.00">null &#45; default host progress changed &#160;&#160;</text>
</g>
<!-- installing&#45;in&#45;progress&#45;&gt;installing&#45;in&#45;progress -->
<g id="edge1" class="edge transition">
<title>installing&#45;in&#45;progress&#45;&gt;installing&#45;in&#45;progress</title>
<path fill="none" stroke="black" d="M592.01,-69.78C590.14,-79.31 593.81,-88 603,-88 608.17,-88 611.59,-85.25 613.26,-81.15"/>
<polygon fill="black" stroke="black" points="616.75,-81.49 613.89,-71.29 609.76,-81.05 616.75,-81.49"/>
<text text-anchor="start" x="443.5" y="-91" font-family="Helvetica,sans-Serif" font-size="10.00">null &#45; host progress installing&#45;in&#45;progress on rebooting in kube&#45;api mode &#160;&#160;</text>
</g>
<!-- installing&#45;in&#45;progress&#45;&gt;installing&#45;in&#45;progress -->
<g id="edge3" class="edge transition">
<title>installing&#45;in&#45;progress&#45;&gt;installing&#45;in&#45;progress</title>
<path fill="none" stroke="black" d="M584.62,-69.98C574.79,-87.2 580.91,-106 603,-106 620.6,-106 628.06,-94.06 625.39,-80.5"/>
<polygon fill="black" stroke="black" points="628.75,-79.49 621.92,-71.39 622.22,-81.98 628.75,-79.49"/>
<text text-anchor="start" x="520.5" y="-109" font-family="Helvetica,sans-Serif" font-size="10.00">null &#45; default host progress changed &#160;&#160;</text>
</g>
<!-- installing&#45;in&#45;progress&#45;&gt;installing&#45;in&#45;progress -->
<g id="edge6" class="edge transition">
<title>installing&#45;in&#45;progress&#45;&gt;installing&#45;in&#45;progress</title>
<path fill="none" stroke="black" d="M580.11,-69.72C559.2,-94.11 566.83,-124 603,-124 634.65,-124 644.45,-101.12 632.4,-79.05"/>
<polygon fill="black" stroke="black" points="635.34,-77.16 626.76,-70.96 629.6,-81.16 635.34,-77.16"/>
<text text-anchor="start" x="432" y="-127" font-family="Helvetica,sans-Serif" font-size="10.00">Refresh &#45; Ignore timeout if host is in particular installation in progress stages &#160;&#160;</text>
</g>
<!-- installing&#45;in&#45;progress&#45;&gt;installing&#45;in&#45;progress -->
<g id="edge7" class="edge transition">
<title>installing&#45;in&#45;progress&#45;&gt;installing&#45;in&#45;progress</title>
<path fill="none" stroke="black" d="M576.9,-69.67C543.68,-100.85 552.38,-142 603,-142 649.27,-142 660.51,-107.62 636.74,-77.9"/>
<polygon fill="black" stroke="black" points="639.5,-75.73 630.13,-70.78 634.37,-80.49 639.5,-75.73"/>
<text text-anchor="start" x="352" y="-145" font-family="Helvetica,sans-Serif" font-size="10.00">Refresh &#45; Refresh during installing&#45;in&#45;progress state without cluster error should stay in installing&#45;in&#45;progress state &#160;&#160;</text>
</g>
<!-- installing&#45;pending&#45;user&#45;action -->
<g id="node3" class="node state regular">
<title>installing&#45;pending&#45;user&#45;action</title>
<polygon fill="#ffffff" fill-opacity="0.003922" stroke="none" stroke-width="2" points="181,-36 0,-36 0,0 181,0 181,-36"/>
<text text-anchor="start" x="11.5" y="-14.4" font-family="Helvetica,sans-Serif" font-size="12.00">installing&#45;pending&#45;user&#45;action</text>
<path fill="none" stroke="black" stroke-width="2" d="M12,-1.5C12,-1.5 169,-1.5 169,-1.5 174.5,-1.5 180,-7 180,-12.5 180,-12.5 180,-23.5 180,-23.5 180,-29 174.5,-34.5 169,-34.5 169,-34.5 12,-34.5 12,-34.5 6.5,-34.5 1,-29 1,-23.5 1,-23.5 1,-12.5 1,-12.5 1,-7 6.5,-1.5 12,-1.5"/>
</g>
<!-- installing&#45;pending&#45;user&#45;action&#45;&gt;installing&#45;in&#45;progress -->
<g id="edge5" class="edge transition">
<title>installing&#45;pending&#45;user&#45;action&#45;&gt;installing&#45;in&#45;progress</title>
<path fill="none" stroke="black" d="M180.77,-12.43C267.52,-8.72 402.66,-7.45 518,-26 525.68,-27.24 533.64,-29.01 541.45,-31.06"/>
<polygon fill="black" stroke="black" points="540.33,-34.38 550.9,-33.71 542.21,-27.64 540.33,-34.38"/>
<text text-anchor="start" x="276" y="-29" font-family="Helvetica,sans-Serif" font-size="10.00">null &#45; default host progress changed &#160;&#160;</text>
</g>
</g>
</svg>
