<?xml version="1.0" encoding="UTF-8" standalone="no"?>
<!DOCTYPE svg PUBLIC "-//W3C//DTD SVG 1.1//EN"
 "http://www.w3.org/Graphics/SVG/1.1/DTD/svg11.dtd">
<!-- Generated by graphviz version 7.1.0 (0)
 -->
<!-- Title: state transitions Pages: 1 -->
<svg width="598pt" height="44pt"
 viewBox="0.00 0.00 598.00 44.00" xmlns="http://www.w3.org/2000/svg" xmlns:xlink="http://www.w3.org/1999/xlink">
<g id="graph0" class="graph" transform="scale(1 1) rotate(0) translate(4 40)">
<title>state transitions</title>
<polygon fill="white" stroke="none" points="-4,4 -4,-40 594,-40 594,4 -4,4"/>
<!-- preparing&#45;failed -->
<g id="node1" class="node state regular">
<title>preparing&#45;failed</title>
<polygon fill="#ffffff" fill-opacity="0.003922" stroke="none" stroke-width="2" points="590,-36 483,-36 483,0 590,0 590,-36"/>
<text text-anchor="start" x="494.5" y="-14.4" font-family="Helvetica,sans-Serif" font-size="12.00">preparing&#45;failed</text>
<path fill="none" stroke="black" stroke-width="2" d="M495,-1.5C495,-1.5 578,-1.5 578,-1.5 583.5,-1.5 589,-7 589,-12.5 589,-12.5 589,-23.5 589,-23.5 589,-29 583.5,-34.5 578,-34.5 578,-34.5 495,-34.5 495,-34.5 489.5,-34.5 484,-29 484,-23.5 484,-23.5 484,-12.5 484,-12.5 484,-7 489.5,-1.5 495,-1.5"/>
</g>
<!-- preparing&#45;for&#45;installation -->
<g id="node2" class="node state regular">
<title>preparing&#45;for&#45;installation</title>
<polygon fill="#ffffff" fill-opacity="0.003922" stroke="none" stroke-width="2" points="152,-36 0,-36 0,0 152,0 152,-36"/>
<text text-anchor="start" x="11" y="-14.4" font-family="Helvetica,sans-Serif" font-size="12.00">preparing&#45;for&#45;installation</text>
<path fill="none" stroke="black" stroke-width="2" d="M12,-1.5C12,-1.5 140,-1.5 140,-1.5 145.5,-1.5 151,-7 151,-12.5 151,-12.5 151,-23.5 151,-23.5 151,-29 145.5,-34.5 140,-34.5 140,-34.5 12,-34.5 12,-34.5 6.5,-34.5 1,-29 1,-23.5 1,-23.5 1,-12.5 1,-12.5 1,-7 6.5,-1.5 12,-1.5"/>
</g>
<!-- preparing&#45;for&#45;installation&#45;&gt;preparing&#45;failed -->
<g id="edge1" class="edge transition">
<title>preparing&#45;for&#45;installation&#45;&gt;preparing&#45;failed</title>
<path fill="none" stroke="black" d="M151.94,-18C240.94,-18 387.85,-18 471.66,-18"/>
<polygon fill="black" stroke="black" points="471.54,-21.5 481.54,-18 471.54,-14.5 471.54,-21.5"/>
<text text-anchor="start" x="170" y="-21" font-family="Helvetica,sans-Serif" font-size="10.00">Refresh &#45; Preparing failed image pull host move to preparing failed &#160;&#160;</text>
</g>
</g>
</svg>
