<?xml version="1.0" encoding="UTF-8" standalone="no"?>
<!DOCTYPE svg PUBLIC "-//W3C//DTD SVG 1.1//EN"
 "http://www.w3.org/Graphics/SVG/1.1/DTD/svg11.dtd">
<!-- Generated by graphviz version 12.1.0 (20240811.2233)
 -->
<!-- Title: state transitions Pages: 1 -->
<svg width="1057pt" height="326pt"
 viewBox="0.00 0.00 1056.88 326.25" xmlns="http://www.w3.org/2000/svg" xmlns:xlink="http://www.w3.org/1999/xlink">
<g id="graph0" class="graph" transform="scale(1 1) rotate(0) translate(4 322.25)">
<title>state transitions</title>
<polygon fill="white" stroke="none" points="-4,4 -4,-322.25 1052.88,-322.25 1052.88,4 -4,4"/>
<!-- installing -->
<g id="node1" class="node state regular">
<title>installing</title>
<polygon fill="#ffffff" fill-opacity="0.003922" stroke="none" stroke-width="2" points="136.38,-99.25 61.88,-99.25 61.88,-63 136.38,-63 136.38,-99.25"/>
<text text-anchor="start" x="72.88" y="-76.85" font-family="Helvetica,sans-Serif" font-size="12.00">installing</text>
<path fill="none" stroke="black" stroke-width="2" d="M74.29,-64C74.29,-64 123.96,-64 123.96,-64 129.67,-64 135.38,-69.71 135.38,-75.42 135.38,-75.42 135.38,-86.83 135.38,-86.83 135.38,-92.54 129.67,-98.25 123.96,-98.25 123.96,-98.25 74.29,-98.25 74.29,-98.25 68.58,-98.25 62.88,-92.54 62.88,-86.83 62.88,-86.83 62.88,-75.42 62.88,-75.42 62.88,-69.71 68.58,-64 74.29,-64"/>
</g>
<!-- installing&#45;in&#45;progress -->
<g id="node2" class="node state regular">
<title>installing&#45;in&#45;progress</title>
<polygon fill="#ffffff" fill-opacity="0.003922" stroke="none" stroke-width="2" points="740.75,-72.25 595.75,-72.25 595.75,-36 740.75,-36 740.75,-72.25"/>
<text text-anchor="start" x="606.75" y="-49.85" font-family="Helvetica,sans-Serif" font-size="12.00">installing&#45;in&#45;progress</text>
<path fill="none" stroke="black" stroke-width="2" d="M608.17,-37C608.17,-37 728.33,-37 728.33,-37 734.04,-37 739.75,-42.71 739.75,-48.42 739.75,-48.42 739.75,-59.83 739.75,-59.83 739.75,-65.54 734.04,-71.25 728.33,-71.25 728.33,-71.25 608.17,-71.25 608.17,-71.25 602.46,-71.25 596.75,-65.54 596.75,-59.83 596.75,-59.83 596.75,-48.42 596.75,-48.42 596.75,-42.71 602.46,-37 608.17,-37"/>
</g>
<!-- installing&#45;&gt;installing&#45;in&#45;progress -->
<g id="edge1" class="edge transition">
<title>installing&#45;&gt;installing&#45;in&#45;progress</title>
<path fill="none" stroke="black" d="M136.17,-81.71C215.93,-82.67 413.36,-83.16 577.75,-68.12 580.07,-67.91 582.43,-67.68 584.81,-67.42"/>
<polygon fill="black" stroke="black" points="585,-70.92 594.52,-66.28 584.19,-63.97 585,-70.92"/>
<text text-anchor="start" x="216.25" y="-85.36" font-family="Helvetica,sans-Serif" font-size="10.00">null &#45; host progress installing&#45;in&#45;progress on rebooting in kube&#45;api mode &#160;&#160;</text>
</g>
<!-- installing&#45;&gt;installing&#45;in&#45;progress -->
<g id="edge2" class="edge transition">
<title>installing&#45;&gt;installing&#45;in&#45;progress</title>
<path fill="none" stroke="black" d="M136.28,-69.37C158.97,-62.61 188.99,-54.81 216.25,-51.38 344.02,-35.27 493.76,-40.99 584.51,-47.14"/>
<polygon fill="black" stroke="black" points="584.09,-50.62 594.31,-47.83 584.58,-43.64 584.09,-50.62"/>
<text text-anchor="start" x="304.75" y="-54.62" font-family="Helvetica,sans-Serif" font-size="10.00">null &#45; default host progress changed &#160;&#160;</text>
</g>
<!-- installing&#45;in&#45;progress&#45;&gt;installing&#45;in&#45;progress -->
<g id="edge3" class="edge transition">
<title>installing&#45;in&#45;progress&#45;&gt;installing&#45;in&#45;progress</title>
<path fill="none" stroke="black" d="M662.15,-71.97C661.12,-81.53 663.15,-90.25 668.25,-90.25 671.12,-90.25 673.02,-87.49 673.94,-83.38"/>
<polygon fill="black" stroke="black" points="677.44,-83.6 674.29,-73.48 670.44,-83.35 677.44,-83.6"/>
<text text-anchor="start" x="487.5" y="-93.5" font-family="Helvetica,sans-Serif" font-size="10.00">null &#45; host progress installing&#45;in&#45;progress on rebooting in kube&#45;api mode &#160;&#160;</text>
</g>
<!-- installing&#45;in&#45;progress&#45;&gt;installing&#45;in&#45;progress -->
<g id="edge4" class="edge transition">
<title>installing&#45;in&#45;progress&#45;&gt;installing&#45;in&#45;progress</title>
<path fill="none" stroke="black" d="M658.06,-72.14C652.6,-89.41 656,-108.25 668.25,-108.25 677.92,-108.25 682.07,-96.52 680.71,-83.09"/>
<polygon fill="black" stroke="black" points="684.21,-82.71 678.75,-73.63 677.36,-84.13 684.21,-82.71"/>
<text text-anchor="start" x="576" y="-111.5" font-family="Helvetica,sans-Serif" font-size="10.00">null &#45; default host progress changed &#160;&#160;</text>
</g>
<!-- installing&#45;in&#45;progress&#45;&gt;installing&#45;in&#45;progress -->
<g id="edge5" class="edge transition">
<title>installing&#45;in&#45;progress&#45;&gt;installing&#45;in&#45;progress</title>
<path fill="none" stroke="black" d="M655.38,-72.23C643.99,-96.61 648.28,-126.25 668.25,-126.25 685.33,-126.25 690.94,-104.56 685.07,-83.03"/>
<polygon fill="black" stroke="black" points="688.37,-81.84 681.64,-73.66 681.79,-84.25 688.37,-81.84"/>
<text text-anchor="start" x="524.62" y="-129.5" font-family="Helvetica,sans-Serif" font-size="10.00">Refresh &#45; Keep installing host when connection times out &#160;&#160;</text>
</g>
<!-- installing&#45;in&#45;progress&#45;&gt;installing&#45;in&#45;progress -->
<g id="edge6" class="edge transition">
<title>installing&#45;in&#45;progress&#45;&gt;installing&#45;in&#45;progress</title>
<path fill="none" stroke="black" d="M653.77,-71.82C635.35,-103.05 640.17,-144.25 668.25,-144.25 693.37,-144.25 699.88,-111.28 687.78,-81.97"/>
<polygon fill="black" stroke="black" points="690.99,-80.57 683.4,-73.17 684.73,-83.69 690.99,-80.57"/>
<text text-anchor="start" x="494.62" y="-147.5" font-family="Helvetica,sans-Serif" font-size="10.00">Refresh &#45; Keep installing host when host recovers from disconnection &#160;&#160;</text>
</g>
<!-- installing&#45;in&#45;progress&#45;&gt;installing&#45;in&#45;progress -->
<g id="edge7" class="edge transition">
<title>installing&#45;in&#45;progress&#45;&gt;installing&#45;in&#45;progress</title>
<path fill="none" stroke="black" d="M652.18,-72.2C626.8,-109.98 632.16,-162.25 668.25,-162.25 701.38,-162.25 708.61,-118.2 689.95,-81.76"/>
<polygon fill="black" stroke="black" points="693.18,-80.35 685.09,-73.51 687.15,-83.9 693.18,-80.35"/>
<text text-anchor="start" x="475.88" y="-165.5" font-family="Helvetica,sans-Serif" font-size="10.00">Refresh &#45; Ignore timeout if host is in particular installation in progress stages &#160;&#160;</text>
</g>
<!-- installing&#45;in&#45;progress&#45;&gt;installing&#45;in&#45;progress -->
<g id="edge8" class="edge transition">
<title>installing&#45;in&#45;progress&#45;&gt;installing&#45;in&#45;progress</title>
<path fill="none" stroke="black" d="M651.12,-72.21C618.24,-116.45 623.95,-180.25 668.25,-180.25 709.44,-180.25 717.27,-125.1 691.75,-81.8"/>
<polygon fill="black" stroke="black" points="694.66,-79.87 686.22,-73.47 688.83,-83.74 694.66,-79.87"/>
<text text-anchor="start" x="287.62" y="-183.5" font-family="Helvetica,sans-Serif" font-size="10.00">Refresh &#45; Indicate that timeout occurred and continue installation in particular installation in progress stages other than [writing&#45;image&#45;to&#45;disk, rebooting] &#160;&#160;</text>
</g>
<!-- installing&#45;in&#45;progress&#45;&gt;installing&#45;in&#45;progress -->
<g id="edge9" class="edge transition">
<title>installing&#45;in&#45;progress&#45;&gt;installing&#45;in&#45;progress</title>
<path fill="none" stroke="black" d="M650.37,-72.09C609.68,-122.7 615.64,-198.25 668.25,-198.25 717.78,-198.25 725.97,-131.3 692.8,-81.22"/>
<polygon fill="black" stroke="black" points="695.75,-79.32 687.02,-73.31 690.1,-83.45 695.75,-79.32"/>
<text text-anchor="start" x="346.88" y="-201.5" font-family="Helvetica,sans-Serif" font-size="10.00">Refresh &#45; Indicate that timeout occurred and continue installation in particular installation in progress stage writing&#45;image&#45;to&#45;disk &#160;&#160;</text>
</g>
<!-- installing&#45;in&#45;progress&#45;&gt;installing&#45;in&#45;progress -->
<g id="edge10" class="edge transition">
<title>installing&#45;in&#45;progress&#45;&gt;installing&#45;in&#45;progress</title>
<path fill="none" stroke="black" d="M649.69,-72.09C601.14,-129.01 607.32,-216.25 668.25,-216.25 726.08,-216.25 734.59,-137.64 693.79,-80.98"/>
<polygon fill="black" stroke="black" points="696.67,-78.99 687.75,-73.28 691.17,-83.31 696.67,-78.99"/>
<text text-anchor="start" x="383.62" y="-219.5" font-family="Helvetica,sans-Serif" font-size="10.00">Refresh &#45; Refresh during installing&#45;in&#45;progress state without cluster error should stay in installing&#45;in&#45;progress state &#160;&#160;</text>
</g>
<!-- installing&#45;pending&#45;user&#45;action -->
<g id="node3" class="node state regular">
<title>installing&#45;pending&#45;user&#45;action</title>
<polygon fill="#ffffff" fill-opacity="0.003922" stroke="none" stroke-width="2" points="198.25,-36.25 0,-36.25 0,0 198.25,0 198.25,-36.25"/>
<text text-anchor="start" x="11" y="-13.85" font-family="Helvetica,sans-Serif" font-size="12.00">installing&#45;pending&#45;user&#45;action</text>
<path fill="none" stroke="black" stroke-width="2" d="M12.42,-1C12.42,-1 185.83,-1 185.83,-1 191.54,-1 197.25,-6.71 197.25,-12.42 197.25,-12.42 197.25,-23.83 197.25,-23.83 197.25,-29.54 191.54,-35.25 185.83,-35.25 185.83,-35.25 12.42,-35.25 12.42,-35.25 6.71,-35.25 1,-29.54 1,-23.83 1,-23.83 1,-12.42 1,-12.42 1,-6.71 6.71,-1 12.42,-1"/>
</g>
<!-- installing&#45;pending&#45;user&#45;action&#45;&gt;installing&#45;in&#45;progress -->
<g id="edge11" class="edge transition">
<title>installing&#45;pending&#45;user&#45;action&#45;&gt;installing&#45;in&#45;progress</title>
<path fill="none" stroke="black" d="M197.88,-10.7C294.97,-5.35 447.73,-2.46 577.75,-24.38 588.77,-26.23 600.28,-29.21 611.22,-32.59"/>
<polygon fill="black" stroke="black" points="609.92,-35.84 620.51,-35.6 612.08,-29.19 609.92,-35.84"/>
<text text-anchor="start" x="304.75" y="-27.62" font-family="Helvetica,sans-Serif" font-size="10.00">null &#45; default host progress changed &#160;&#160;</text>
</g>
</g>
</svg>
