<?xml version="1.0" encoding="UTF-8" standalone="no"?>
<!DOCTYPE svg PUBLIC "-//W3C//DTD SVG 1.1//EN"
 "http://www.w3.org/Graphics/SVG/1.1/DTD/svg11.dtd">
<!-- Generated by graphviz version 12.1.0 (20240811.2233)
 -->
<!-- Title: state transitions Pages: 1 -->
<svg width="674pt" height="465pt"
 viewBox="0.00 0.00 673.62 464.51" xmlns="http://www.w3.org/2000/svg" xmlns:xlink="http://www.w3.org/1999/xlink">
<g id="graph0" class="graph" transform="scale(1 1) rotate(0) translate(4 460.51)">
<title>state transitions</title>
<polygon fill="white" stroke="none" points="-4,4 -4,-460.51 669.62,-460.51 669.62,4 -4,4"/>
<!-- disconnected -->
<g id="node1" class="node state regular">
<title>disconnected</title>
<polygon fill="#ffffff" fill-opacity="0.003922" stroke="none" stroke-width="2" points="135.25,-417.98 33.75,-417.98 33.75,-381.73 135.25,-381.73 135.25,-417.98"/>
<text text-anchor="start" x="44.75" y="-395.58" font-family="Helvetica,sans-Serif" font-size="12.00">disconnected</text>
<path fill="none" stroke="black" stroke-width="2" d="M46.17,-382.73C46.17,-382.73 122.83,-382.73 122.83,-382.73 128.54,-382.73 134.25,-388.44 134.25,-394.15 134.25,-394.15 134.25,-405.56 134.25,-405.56 134.25,-411.27 128.54,-416.98 122.83,-416.98 122.83,-416.98 46.17,-416.98 46.17,-416.98 40.46,-416.98 34.75,-411.27 34.75,-405.56 34.75,-405.56 34.75,-394.15 34.75,-394.15 34.75,-388.44 40.46,-382.73 46.17,-382.73"/>
</g>
<!-- insufficient -->
<g id="node2" class="node state regular">
<title>insufficient</title>
<polygon fill="#ffffff" fill-opacity="0.003922" stroke="none" stroke-width="2" points="606.5,-255.98 519.25,-255.98 519.25,-219.73 606.5,-219.73 606.5,-255.98"/>
<text text-anchor="start" x="530.25" y="-233.58" font-family="Helvetica,sans-Serif" font-size="12.00">insufficient</text>
<path fill="none" stroke="black" stroke-width="2" d="M531.67,-220.73C531.67,-220.73 594.08,-220.73 594.08,-220.73 599.79,-220.73 605.5,-226.44 605.5,-232.15 605.5,-232.15 605.5,-243.56 605.5,-243.56 605.5,-249.27 599.79,-254.98 594.08,-254.98 594.08,-254.98 531.67,-254.98 531.67,-254.98 525.96,-254.98 520.25,-249.27 520.25,-243.56 520.25,-243.56 520.25,-232.15 520.25,-232.15 520.25,-226.44 525.96,-220.73 531.67,-220.73"/>
</g>
<!-- disconnected&#45;&gt;insufficient -->
<g id="edge1" class="edge transition">
<title>disconnected&#45;&gt;insufficient</title>
<path fill="none" stroke="black" d="M134.99,-415.73C218.73,-439.32 390.09,-473.06 501.25,-395.86 543.28,-366.67 556.18,-304.07 560.13,-267.03"/>
<polygon fill="black" stroke="black" points="563.58,-267.76 560.99,-257.48 556.61,-267.13 563.58,-267.76"/>
<text text-anchor="start" x="241.38" y="-447.01" font-family="Helvetica,sans-Serif" font-size="10.00">Refresh &#45; Host has insufficient hardware &#160;&#160;</text>
</g>
<!-- disconnected&#45;&gt;insufficient -->
<g id="edge2" class="edge transition">
<title>disconnected&#45;&gt;insufficient</title>
<path fill="none" stroke="black" d="M135.08,-388.27C151.52,-384.82 169.97,-381.36 187,-379.11 221.68,-374.52 472.09,-379.18 501.25,-359.86 533.13,-338.72 548.93,-295.6 556.24,-266.71"/>
<polygon fill="black" stroke="black" points="559.6,-267.68 558.45,-257.15 552.78,-266.1 559.6,-267.68"/>
<text text-anchor="start" x="280" y="-382.36" font-family="Helvetica,sans-Serif" font-size="10.00">Refresh &#45; Host not ready &#160;&#160;</text>
</g>
<!-- insufficient&#45;&gt;insufficient -->
<g id="edge5" class="edge transition">
<title>insufficient&#45;&gt;insufficient</title>
<path fill="none" stroke="black" d="M543.21,-255.7C539.87,-265.27 546.43,-273.98 562.88,-273.98 572.13,-273.98 578.25,-271.22 581.24,-267.11"/>
<polygon fill="black" stroke="black" points="584.71,-267.53 582.37,-257.2 577.76,-266.74 584.71,-267.53"/>
<text text-anchor="start" x="460.12" y="-277.23" font-family="Helvetica,sans-Serif" font-size="10.00">Refresh &#45; Host has insufficient hardware &#160;&#160;</text>
</g>
<!-- insufficient&#45;&gt;insufficient -->
<g id="edge6" class="edge transition">
<title>insufficient&#45;&gt;insufficient</title>
<path fill="none" stroke="black" d="M529.99,-255.88C512.39,-273.14 523.35,-291.98 562.88,-291.98 595.29,-291.98 608.49,-279.3 602.48,-265.22"/>
<polygon fill="black" stroke="black" points="605.32,-263.18 596.64,-257.1 599.64,-267.27 605.32,-263.18"/>
<text text-anchor="start" x="498.75" y="-295.23" font-family="Helvetica,sans-Serif" font-size="10.00">Refresh &#45; Host not ready &#160;&#160;</text>
</g>
<!-- discovering -->
<g id="node3" class="node state regular">
<title>discovering</title>
<polygon fill="#ffffff" fill-opacity="0.003922" stroke="none" stroke-width="2" points="129.62,-345.98 39.38,-345.98 39.38,-309.73 129.62,-309.73 129.62,-345.98"/>
<text text-anchor="start" x="50.38" y="-323.58" font-family="Helvetica,sans-Serif" font-size="12.00">discovering</text>
<path fill="none" stroke="black" stroke-width="2" d="M51.79,-310.73C51.79,-310.73 117.21,-310.73 117.21,-310.73 122.92,-310.73 128.62,-316.44 128.62,-322.15 128.62,-322.15 128.62,-333.56 128.62,-333.56 128.62,-339.27 122.92,-344.98 117.21,-344.98 117.21,-344.98 51.79,-344.98 51.79,-344.98 46.08,-344.98 40.38,-339.27 40.38,-333.56 40.38,-333.56 40.38,-322.15 40.38,-322.15 40.38,-316.44 46.08,-310.73 51.79,-310.73"/>
</g>
<!-- discovering&#45;&gt;insufficient -->
<g id="edge3" class="edge transition">
<title>discovering&#45;&gt;insufficient</title>
<path fill="none" stroke="black" d="M129.4,-332.38C222.79,-341.21 437.81,-357.14 501.25,-323.86 524.42,-311.7 540.65,-286.22 550.44,-266.13"/>
<polygon fill="black" stroke="black" points="553.5,-267.86 554.47,-257.31 547.13,-264.95 553.5,-267.86"/>
<text text-anchor="start" x="241.38" y="-347.28" font-family="Helvetica,sans-Serif" font-size="10.00">Refresh &#45; Host has insufficient hardware &#160;&#160;</text>
</g>
<!-- discovering&#45;&gt;insufficient -->
<g id="edge4" class="edge transition">
<title>discovering&#45;&gt;insufficient</title>
<path fill="none" stroke="black" d="M129.53,-317.77C147.3,-313.98 168.05,-309.92 187,-307.11 325.75,-286.53 368.92,-324.37 501.25,-277.86 511.56,-274.23 521.84,-268.48 530.92,-262.45"/>
<polygon fill="black" stroke="black" points="532.85,-265.38 539.02,-256.76 528.82,-259.65 532.85,-265.38"/>
<text text-anchor="start" x="280" y="-310.36" font-family="Helvetica,sans-Serif" font-size="10.00">Refresh &#45; Host not ready &#160;&#160;</text>
</g>
<!-- known -->
<g id="node4" class="node state regular">
<title>known</title>
<polygon fill="#ffffff" fill-opacity="0.003922" stroke="none" stroke-width="2" points="115,-255.98 54,-255.98 54,-219.73 115,-219.73 115,-255.98"/>
<text text-anchor="start" x="65" y="-233.58" font-family="Helvetica,sans-Serif" font-size="12.00">known</text>
<path fill="none" stroke="black" stroke-width="2" d="M66.42,-220.73C66.42,-220.73 102.58,-220.73 102.58,-220.73 108.29,-220.73 114,-226.44 114,-232.15 114,-232.15 114,-243.56 114,-243.56 114,-249.27 108.29,-254.98 102.58,-254.98 102.58,-254.98 66.42,-254.98 66.42,-254.98 60.71,-254.98 55,-249.27 55,-243.56 55,-243.56 55,-232.15 55,-232.15 55,-226.44 60.71,-220.73 66.42,-220.73"/>
</g>
<!-- known&#45;&gt;insufficient -->
<g id="edge7" class="edge transition">
<title>known&#45;&gt;insufficient</title>
<path fill="none" stroke="black" d="M114.7,-242.97C134.93,-246.24 162.51,-250.18 187,-251.86 326.34,-261.42 362.48,-267.67 501.25,-251.86 503.56,-251.59 505.9,-251.28 508.26,-250.92"/>
<polygon fill="black" stroke="black" points="508.63,-254.4 517.87,-249.21 507.41,-247.51 508.63,-254.4"/>
<text text-anchor="start" x="187" y="-264.76" font-family="Helvetica,sans-Serif" font-size="10.00">Refresh &#45; Preparing failed disk speed host move to insufficient &#160;&#160;</text>
</g>
<!-- known&#45;&gt;insufficient -->
<g id="edge8" class="edge transition">
<title>known&#45;&gt;insufficient</title>
<path fill="none" stroke="black" d="M114.81,-236.85C135.08,-236.21 162.68,-235.44 187,-235.11 326.65,-233.21 361.62,-231.94 501.25,-235.11 503.46,-235.16 505.72,-235.22 508,-235.29"/>
<polygon fill="black" stroke="black" points="507.86,-238.78 517.97,-235.64 508.1,-231.79 507.86,-238.78"/>
<text text-anchor="start" x="241.38" y="-238.36" font-family="Helvetica,sans-Serif" font-size="10.00">Refresh &#45; Host has insufficient hardware &#160;&#160;</text>
</g>
<!-- known&#45;&gt;insufficient -->
<g id="edge9" class="edge transition">
<title>known&#45;&gt;insufficient</title>
<path fill="none" stroke="black" d="M114.99,-229.81C135.11,-224.75 162.45,-218.71 187,-216.11 325.89,-201.39 363.65,-192.17 501.25,-216.11 503.57,-216.51 505.93,-217 508.29,-217.55"/>
<polygon fill="black" stroke="black" points="507.29,-220.9 517.86,-220.14 509.12,-214.15 507.29,-220.9"/>
<text text-anchor="start" x="280" y="-219.36" font-family="Helvetica,sans-Serif" font-size="10.00">Refresh &#45; Host not ready &#160;&#160;</text>
</g>
<!-- pending&#45;for&#45;input -->
<g id="node5" class="node state regular">
<title>pending&#45;for&#45;input</title>
<polygon fill="#ffffff" fill-opacity="0.003922" stroke="none" stroke-width="2" points="146.88,-174.98 22.13,-174.98 22.13,-138.73 146.88,-138.73 146.88,-174.98"/>
<text text-anchor="start" x="33.12" y="-152.58" font-family="Helvetica,sans-Serif" font-size="12.00">pending&#45;for&#45;input</text>
<path fill="none" stroke="black" stroke-width="2" d="M34.54,-139.73C34.54,-139.73 134.46,-139.73 134.46,-139.73 140.17,-139.73 145.88,-145.44 145.88,-151.15 145.88,-151.15 145.88,-162.56 145.88,-162.56 145.88,-168.27 140.17,-173.98 134.46,-173.98 134.46,-173.98 34.54,-173.98 34.54,-173.98 28.83,-173.98 23.12,-168.27 23.12,-162.56 23.12,-162.56 23.12,-151.15 23.12,-151.15 23.12,-145.44 28.83,-139.73 34.54,-139.73"/>
</g>
<!-- pending&#45;for&#45;input&#45;&gt;insufficient -->
<g id="edge10" class="edge transition">
<title>pending&#45;for&#45;input&#45;&gt;insufficient</title>
<path fill="none" stroke="black" d="M146.74,-149.23C230.33,-141.38 383.24,-136.33 501.25,-185.11 515.49,-190.99 528.73,-201.62 539.18,-211.8"/>
<polygon fill="black" stroke="black" points="536.4,-213.96 545.88,-218.69 541.42,-209.08 536.4,-213.96"/>
<text text-anchor="start" x="241.38" y="-188.36" font-family="Helvetica,sans-Serif" font-size="10.00">Refresh &#45; Host has insufficient hardware &#160;&#160;</text>
</g>
<!-- pending&#45;for&#45;input&#45;&gt;insufficient -->
<g id="edge11" class="edge transition">
<title>pending&#45;for&#45;input&#45;&gt;insufficient</title>
<path fill="none" stroke="black" d="M136.77,-138.75C152.66,-133.97 170.37,-129.49 187,-127.11 256.12,-117.18 441.17,-91.5 501.25,-127.11 530.98,-144.73 547.09,-182.65 555.07,-209.19"/>
<polygon fill="black" stroke="black" points="551.65,-209.96 557.7,-218.66 558.4,-208.09 551.65,-209.96"/>
<text text-anchor="start" x="280" y="-130.36" font-family="Helvetica,sans-Serif" font-size="10.00">Refresh &#45; Host not ready &#160;&#160;</text>
</g>
<!-- preparing&#45;failed -->
<g id="node6" class="node state regular">
<title>preparing&#45;failed</title>
<polygon fill="#ffffff" fill-opacity="0.003922" stroke="none" stroke-width="2" points="143.12,-111.98 25.88,-111.98 25.88,-75.73 143.12,-75.73 143.12,-111.98"/>
<text text-anchor="start" x="36.88" y="-89.58" font-family="Helvetica,sans-Serif" font-size="12.00">preparing&#45;failed</text>
<path fill="none" stroke="black" stroke-width="2" d="M38.29,-76.73C38.29,-76.73 130.71,-76.73 130.71,-76.73 136.42,-76.73 142.12,-82.44 142.12,-88.15 142.12,-88.15 142.12,-99.56 142.12,-99.56 142.12,-105.27 136.42,-110.98 130.71,-110.98 130.71,-110.98 38.29,-110.98 38.29,-110.98 32.58,-110.98 26.88,-105.27 26.88,-99.56 26.88,-99.56 26.88,-88.15 26.88,-88.15 26.88,-82.44 32.58,-76.73 38.29,-76.73"/>
</g>
<!-- preparing&#45;failed&#45;&gt;insufficient -->
<g id="edge12" class="edge transition">
<title>preparing&#45;failed&#45;&gt;insufficient</title>
<path fill="none" stroke="black" d="M142.78,-85.98C242.82,-73.45 444.21,-54.05 501.25,-92.11 540.1,-118.02 554.09,-174.02 559.1,-208.56"/>
<polygon fill="black" stroke="black" points="555.61,-208.82 560.34,-218.3 562.55,-207.94 555.61,-208.82"/>
<text text-anchor="start" x="187" y="-95.36" font-family="Helvetica,sans-Serif" font-size="10.00">Refresh &#45; Preparing failed disk speed host move to insufficient &#160;&#160;</text>
</g>
<!-- preparing&#45;for&#45;installation -->
<g id="node7" class="node state regular">
<title>preparing&#45;for&#45;installation</title>
<polygon fill="#ffffff" fill-opacity="0.003922" stroke="none" stroke-width="2" points="169,-57.98 0,-57.98 0,-21.73 169,-21.73 169,-57.98"/>
<text text-anchor="start" x="11" y="-35.58" font-family="Helvetica,sans-Serif" font-size="12.00">preparing&#45;for&#45;installation</text>
<path fill="none" stroke="black" stroke-width="2" d="M12.42,-22.73C12.42,-22.73 156.58,-22.73 156.58,-22.73 162.29,-22.73 168,-28.44 168,-34.15 168,-34.15 168,-45.56 168,-45.56 168,-51.27 162.29,-56.98 156.58,-56.98 156.58,-56.98 12.42,-56.98 12.42,-56.98 6.71,-56.98 1,-51.27 1,-45.56 1,-45.56 1,-34.15 1,-34.15 1,-28.44 6.71,-22.73 12.42,-22.73"/>
</g>
<!-- preparing&#45;for&#45;installation&#45;&gt;insufficient -->
<g id="edge13" class="edge transition">
<title>preparing&#45;for&#45;installation&#45;&gt;insufficient</title>
<path fill="none" stroke="black" d="M147.26,-21.79C235.29,-0.08 397.64,24.49 501.25,-53.11 549.94,-89.57 560.12,-166.25 561.88,-208.45"/>
<polygon fill="black" stroke="black" points="558.38,-208.46 562.15,-218.36 565.38,-208.27 558.38,-208.46"/>
<text text-anchor="start" x="187" y="-56.36" font-family="Helvetica,sans-Serif" font-size="10.00">Refresh &#45; Preparing failed disk speed host move to insufficient &#160;&#160;</text>
</g>
</g>
</svg>
