<?xml version="1.0" encoding="UTF-8" standalone="no"?>
<!DOCTYPE svg PUBLIC "-//W3C//DTD SVG 1.1//EN"
 "http://www.w3.org/Graphics/SVG/1.1/DTD/svg11.dtd">
<!-- Generated by graphviz version 12.1.0 (20240811.2233)
 -->
<!-- Title: state transitions Pages: 1 -->
<svg width="727pt" height="456pt"
 viewBox="0.00 0.00 727.25 455.69" xmlns="http://www.w3.org/2000/svg" xmlns:xlink="http://www.w3.org/1999/xlink">
<g id="graph0" class="graph" transform="scale(1 1) rotate(0) translate(4 451.69)">
<title>state transitions</title>
<polygon fill="white" stroke="none" points="-4,4 -4,-451.69 723.25,-451.69 723.25,4 -4,4"/>
<!-- disconnected -->
<g id="node1" class="node state regular">
<title>disconnected</title>
<polygon fill="#ffffff" fill-opacity="0.003922" stroke="none" stroke-width="2" points="135.25,-415.57 33.75,-415.57 33.75,-379.32 135.25,-379.32 135.25,-415.57"/>
<text text-anchor="start" x="44.75" y="-393.17" font-family="Helvetica,sans-Serif" font-size="12.00">disconnected</text>
<path fill="none" stroke="black" stroke-width="2" d="M46.17,-380.32C46.17,-380.32 122.83,-380.32 122.83,-380.32 128.54,-380.32 134.25,-386.02 134.25,-391.73 134.25,-391.73 134.25,-403.15 134.25,-403.15 134.25,-408.86 128.54,-414.57 122.83,-414.57 122.83,-414.57 46.17,-414.57 46.17,-414.57 40.46,-414.57 34.75,-408.86 34.75,-403.15 34.75,-403.15 34.75,-391.73 34.75,-391.73 34.75,-386.02 40.46,-380.32 46.17,-380.32"/>
</g>
<!-- known -->
<g id="node2" class="node state regular">
<title>known</title>
<polygon fill="#ffffff" fill-opacity="0.003922" stroke="none" stroke-width="2" points="646.25,-217.57 585.25,-217.57 585.25,-181.32 646.25,-181.32 646.25,-217.57"/>
<text text-anchor="start" x="596.25" y="-195.17" font-family="Helvetica,sans-Serif" font-size="12.00">known</text>
<path fill="none" stroke="black" stroke-width="2" d="M597.67,-182.32C597.67,-182.32 633.83,-182.32 633.83,-182.32 639.54,-182.32 645.25,-188.02 645.25,-193.73 645.25,-193.73 645.25,-205.15 645.25,-205.15 645.25,-210.86 639.54,-216.57 633.83,-216.57 633.83,-216.57 597.67,-216.57 597.67,-216.57 591.96,-216.57 586.25,-210.86 586.25,-205.15 586.25,-205.15 586.25,-193.73 586.25,-193.73 586.25,-188.02 591.96,-182.32 597.67,-182.32"/>
</g>
<!-- disconnected&#45;&gt;known -->
<g id="edge1" class="edge transition">
<title>disconnected&#45;&gt;known</title>
<path fill="none" stroke="black" d="M135.06,-410.87C230.39,-433.47 441.05,-467.33 567.25,-365.44 588.52,-348.27 603.59,-271.33 610.5,-228.49"/>
<polygon fill="black" stroke="black" points="613.91,-229.3 612,-218.88 607,-228.22 613.91,-229.3"/>
<text text-anchor="start" x="322.38" y="-438.19" font-family="Helvetica,sans-Serif" font-size="10.00">Refresh &#45; Host ready &#160;&#160;</text>
</g>
<!-- known&#45;&gt;known -->
<g id="edge4" class="edge transition">
<title>known&#45;&gt;known</title>
<path fill="none" stroke="black" d="M594.3,-217.28C590.66,-226.85 597.81,-235.57 615.75,-235.57 625.84,-235.57 632.52,-232.81 635.78,-228.69"/>
<polygon fill="black" stroke="black" points="639.25,-229.14 637.01,-218.79 632.31,-228.28 639.25,-229.14"/>
<text text-anchor="start" x="512.25" y="-238.82" font-family="Helvetica,sans-Serif" font-size="10.00">Cancel Installation &#45; Cancel while known &#160;&#160;</text>
</g>
<!-- known&#45;&gt;known -->
<g id="edge5" class="edge transition">
<title>known&#45;&gt;known</title>
<path fill="none" stroke="black" d="M585.56,-213.03C558.85,-231.32 568.91,-253.57 615.75,-253.57 656.37,-253.57 669.33,-236.84 654.64,-220.47"/>
<polygon fill="black" stroke="black" points="656.97,-217.85 647.09,-214.01 652.42,-223.17 656.97,-217.85"/>
<text text-anchor="start" x="549" y="-256.82" font-family="Helvetica,sans-Serif" font-size="10.00">Refresh &#45; Host stay ready &#160;&#160;</text>
</g>
<!-- discovering -->
<g id="node3" class="node state regular">
<title>discovering</title>
<polygon fill="#ffffff" fill-opacity="0.003922" stroke="none" stroke-width="2" points="129.62,-361.57 39.38,-361.57 39.38,-325.32 129.62,-325.32 129.62,-361.57"/>
<text text-anchor="start" x="50.38" y="-339.17" font-family="Helvetica,sans-Serif" font-size="12.00">discovering</text>
<path fill="none" stroke="black" stroke-width="2" d="M51.79,-326.32C51.79,-326.32 117.21,-326.32 117.21,-326.32 122.92,-326.32 128.62,-332.02 128.62,-337.73 128.62,-337.73 128.62,-349.15 128.62,-349.15 128.62,-354.86 122.92,-360.57 117.21,-360.57 117.21,-360.57 51.79,-360.57 51.79,-360.57 46.08,-360.57 40.38,-354.86 40.38,-349.15 40.38,-349.15 40.38,-337.73 40.38,-337.73 40.38,-332.02 46.08,-326.32 51.79,-326.32"/>
</g>
<!-- discovering&#45;&gt;known -->
<g id="edge2" class="edge transition">
<title>discovering&#45;&gt;known</title>
<path fill="none" stroke="black" d="M129.57,-345.75C234.9,-350.41 497.66,-356.65 567.25,-307.44 592.95,-289.27 604.91,-254 610.37,-228.71"/>
<polygon fill="black" stroke="black" points="613.78,-229.51 612.21,-219.03 606.9,-228.2 613.78,-229.51"/>
<text text-anchor="start" x="322.38" y="-352.09" font-family="Helvetica,sans-Serif" font-size="10.00">Refresh &#45; Host ready &#160;&#160;</text>
</g>
<!-- insufficient -->
<g id="node4" class="node state regular">
<title>insufficient</title>
<polygon fill="#ffffff" fill-opacity="0.003922" stroke="none" stroke-width="2" points="128.12,-307.57 40.88,-307.57 40.88,-271.32 128.12,-271.32 128.12,-307.57"/>
<text text-anchor="start" x="51.88" y="-285.17" font-family="Helvetica,sans-Serif" font-size="12.00">insufficient</text>
<path fill="none" stroke="black" stroke-width="2" d="M53.29,-272.32C53.29,-272.32 115.71,-272.32 115.71,-272.32 121.42,-272.32 127.12,-278.02 127.12,-283.73 127.12,-283.73 127.12,-295.15 127.12,-295.15 127.12,-300.86 121.42,-306.57 115.71,-306.57 115.71,-306.57 53.29,-306.57 53.29,-306.57 47.58,-306.57 41.88,-300.86 41.88,-295.15 41.88,-295.15 41.88,-283.73 41.88,-283.73 41.88,-278.02 47.58,-272.32 53.29,-272.32"/>
</g>
<!-- insufficient&#45;&gt;known -->
<g id="edge3" class="edge transition">
<title>insufficient&#45;&gt;known</title>
<path fill="none" stroke="black" d="M127.97,-290.45C230.92,-292.26 490.91,-292.79 567.25,-254.44 579.59,-248.24 590.07,-237.28 598.01,-226.77"/>
<polygon fill="black" stroke="black" points="600.84,-228.83 603.71,-218.63 595.11,-224.82 600.84,-228.83"/>
<text text-anchor="start" x="322.38" y="-294.34" font-family="Helvetica,sans-Serif" font-size="10.00">Refresh &#45; Host ready &#160;&#160;</text>
</g>
<!-- pending&#45;for&#45;input -->
<g id="node5" class="node state regular">
<title>pending&#45;for&#45;input</title>
<polygon fill="#ffffff" fill-opacity="0.003922" stroke="none" stroke-width="2" points="146.88,-253.57 22.13,-253.57 22.13,-217.32 146.88,-217.32 146.88,-253.57"/>
<text text-anchor="start" x="33.12" y="-231.17" font-family="Helvetica,sans-Serif" font-size="12.00">pending&#45;for&#45;input</text>
<path fill="none" stroke="black" stroke-width="2" d="M34.54,-218.32C34.54,-218.32 134.46,-218.32 134.46,-218.32 140.17,-218.32 145.88,-224.02 145.88,-229.73 145.88,-229.73 145.88,-241.15 145.88,-241.15 145.88,-246.86 140.17,-252.57 134.46,-252.57 134.46,-252.57 34.54,-252.57 34.54,-252.57 28.83,-252.57 23.12,-246.86 23.12,-241.15 23.12,-241.15 23.12,-229.73 23.12,-229.73 23.12,-224.02 28.83,-218.32 34.54,-218.32"/>
</g>
<!-- pending&#45;for&#45;input&#45;&gt;known -->
<g id="edge6" class="edge transition">
<title>pending&#45;for&#45;input&#45;&gt;known</title>
<path fill="none" stroke="black" d="M146.84,-237.33C238.86,-239.12 417.8,-238.5 567.25,-213.44 569.57,-213.05 571.93,-212.59 574.31,-212.06"/>
<polygon fill="black" stroke="black" points="575.04,-215.49 583.89,-209.66 573.34,-208.7 575.04,-215.49"/>
<text text-anchor="start" x="322.38" y="-241.19" font-family="Helvetica,sans-Serif" font-size="10.00">Refresh &#45; Host ready &#160;&#160;</text>
</g>
<!-- preparing&#45;failed -->
<g id="node6" class="node state regular">
<title>preparing&#45;failed</title>
<polygon fill="#ffffff" fill-opacity="0.003922" stroke="none" stroke-width="2" points="143.12,-199.57 25.88,-199.57 25.88,-163.32 143.12,-163.32 143.12,-199.57"/>
<text text-anchor="start" x="36.88" y="-177.17" font-family="Helvetica,sans-Serif" font-size="12.00">preparing&#45;failed</text>
<path fill="none" stroke="black" stroke-width="2" d="M38.29,-164.32C38.29,-164.32 130.71,-164.32 130.71,-164.32 136.42,-164.32 142.12,-170.02 142.12,-175.73 142.12,-175.73 142.12,-187.15 142.12,-187.15 142.12,-192.86 136.42,-198.57 130.71,-198.57 130.71,-198.57 38.29,-198.57 38.29,-198.57 32.58,-198.57 26.88,-192.86 26.88,-187.15 26.88,-187.15 26.88,-175.73 26.88,-175.73 26.88,-170.02 32.58,-164.32 38.29,-164.32"/>
</g>
<!-- preparing&#45;failed&#45;&gt;known -->
<g id="edge7" class="edge transition">
<title>preparing&#45;failed&#45;&gt;known</title>
<path fill="none" stroke="black" d="M142.89,-183.39C250.57,-187.05 480.42,-194.87 573.92,-198.05"/>
<polygon fill="black" stroke="black" points="573.78,-201.55 583.89,-198.39 574.02,-194.55 573.78,-201.55"/>
<text text-anchor="start" x="198.25" y="-200.82" font-family="Helvetica,sans-Serif" font-size="10.00">Refresh &#45; Failed preparing to known when cluster is no longer preparing &#160;&#160;</text>
</g>
<!-- preparing&#45;for&#45;installation -->
<g id="node7" class="node state regular">
<title>preparing&#45;for&#45;installation</title>
<polygon fill="#ffffff" fill-opacity="0.003922" stroke="none" stroke-width="2" points="169,-145.57 0,-145.57 0,-109.32 169,-109.32 169,-145.57"/>
<text text-anchor="start" x="11" y="-123.17" font-family="Helvetica,sans-Serif" font-size="12.00">preparing&#45;for&#45;installation</text>
<path fill="none" stroke="black" stroke-width="2" d="M12.42,-110.32C12.42,-110.32 156.58,-110.32 156.58,-110.32 162.29,-110.32 168,-116.02 168,-121.73 168,-121.73 168,-133.15 168,-133.15 168,-138.86 162.29,-144.57 156.58,-144.57 156.58,-144.57 12.42,-144.57 12.42,-144.57 6.71,-144.57 1,-138.86 1,-133.15 1,-133.15 1,-121.73 1,-121.73 1,-116.02 6.71,-110.32 12.42,-110.32"/>
</g>
<!-- preparing&#45;for&#45;installation&#45;&gt;known -->
<g id="edge8" class="edge transition">
<title>preparing&#45;for&#45;installation&#45;&gt;known</title>
<path fill="none" stroke="black" d="M168.81,-139.38C174.96,-140.12 181.07,-140.82 187,-141.44 271.26,-150.26 486.92,-141.8 567.25,-168.69 572.45,-170.43 577.64,-172.87 582.58,-175.63"/>
<polygon fill="black" stroke="black" points="580.64,-178.55 590.99,-180.81 584.31,-172.59 580.64,-178.55"/>
<text text-anchor="start" x="266.5" y="-171.94" font-family="Helvetica,sans-Serif" font-size="10.00">Cancel Installation &#45; Cancel while preparing &#160;&#160;</text>
</g>
<!-- preparing&#45;for&#45;installation&#45;&gt;known -->
<g id="edge9" class="edge transition">
<title>preparing&#45;for&#45;installation&#45;&gt;known</title>
<path fill="none" stroke="black" d="M168.81,-122.6C297.5,-115.77 533.39,-106.09 567.25,-124.69 585.16,-134.53 597.27,-154.3 604.79,-171.03"/>
<polygon fill="black" stroke="black" points="601.46,-172.14 608.5,-180.06 607.93,-169.48 601.46,-172.14"/>
<text text-anchor="start" x="202.75" y="-127.94" font-family="Helvetica,sans-Serif" font-size="10.00">Refresh &#45; Move preparing host to known when cluster stops preparing &#160;&#160;</text>
</g>
<!-- preparing&#45;successful -->
<g id="node8" class="node state regular">
<title>preparing&#45;successful</title>
<polygon fill="#ffffff" fill-opacity="0.003922" stroke="none" stroke-width="2" points="157.38,-82.57 11.62,-82.57 11.62,-46.32 157.38,-46.32 157.38,-82.57"/>
<text text-anchor="start" x="22.62" y="-60.17" font-family="Helvetica,sans-Serif" font-size="12.00">preparing&#45;successful</text>
<path fill="none" stroke="black" stroke-width="2" d="M24.04,-47.32C24.04,-47.32 144.96,-47.32 144.96,-47.32 150.67,-47.32 156.38,-53.02 156.38,-58.73 156.38,-58.73 156.38,-70.15 156.38,-70.15 156.38,-75.86 150.67,-81.57 144.96,-81.57 144.96,-81.57 24.04,-81.57 24.04,-81.57 18.33,-81.57 12.62,-75.86 12.62,-70.15 12.62,-70.15 12.62,-58.73 12.62,-58.73 12.62,-53.02 18.33,-47.32 24.04,-47.32"/>
</g>
<!-- preparing&#45;successful&#45;&gt;known -->
<g id="edge10" class="edge transition">
<title>preparing&#45;successful&#45;&gt;known</title>
<path fill="none" stroke="black" d="M157.15,-68.3C289.33,-75.54 558.92,-90.96 567.25,-96.69 591.74,-113.53 603.88,-146.34 609.7,-170.37"/>
<polygon fill="black" stroke="black" points="606.22,-170.84 611.76,-179.87 613.06,-169.36 606.22,-170.84"/>
<text text-anchor="start" x="266.5" y="-99.94" font-family="Helvetica,sans-Serif" font-size="10.00">Cancel Installation &#45; Cancel while preparing &#160;&#160;</text>
</g>
<!-- preparing&#45;successful&#45;&gt;known -->
<g id="edge11" class="edge transition">
<title>preparing&#45;successful&#45;&gt;known</title>
<path fill="none" stroke="black" d="M132.75,-46.33C225.89,-13.97 435.57,41.89 567.25,-53.69 603.95,-80.33 612.84,-136.09 614.68,-170.39"/>
<polygon fill="black" stroke="black" points="611.17,-170.16 615.02,-180.04 618.17,-169.92 611.17,-170.16"/>
<text text-anchor="start" x="187" y="-56.94" font-family="Helvetica,sans-Serif" font-size="10.00">Refresh &#45; Successful preparing to known when cluster is no longer preparing &#160;&#160;</text>
</g>
</g>
</svg>
