<?xml version="1.0" encoding="UTF-8" standalone="no"?>
<!DOCTYPE svg PUBLIC "-//W3C//DTD SVG 1.1//EN"
 "http://www.w3.org/Graphics/SVG/1.1/DTD/svg11.dtd">
<!-- Generated by graphviz version 7.1.0 (0)
 -->
<!-- Title: state transitions Pages: 1 -->
<svg width="559pt" height="73pt"
 viewBox="0.00 0.00 559.00 73.00" xmlns="http://www.w3.org/2000/svg" xmlns:xlink="http://www.w3.org/1999/xlink">
<g id="graph0" class="graph" transform="scale(1 1) rotate(0) translate(4 69)">
<title>state transitions</title>
<polygon fill="white" stroke="none" points="-4,4 -4,-69 555,-69 555,4 -4,4"/>
<!-- preparing&#45;for&#45;installation -->
<g id="node1" class="node state regular">
<title>preparing&#45;for&#45;installation</title>
<polygon fill="#ffffff" fill-opacity="0.003922" stroke="none" stroke-width="2" points="152,-36 0,-36 0,0 152,0 152,-36"/>
<text text-anchor="start" x="11" y="-14.4" font-family="Helvetica,sans-Serif" font-size="12.00">preparing&#45;for&#45;installation</text>
<path fill="none" stroke="black" stroke-width="2" d="M12,-1.5C12,-1.5 140,-1.5 140,-1.5 145.5,-1.5 151,-7 151,-12.5 151,-12.5 151,-23.5 151,-23.5 151,-29 145.5,-34.5 140,-34.5 140,-34.5 12,-34.5 12,-34.5 6.5,-34.5 1,-29 1,-23.5 1,-23.5 1,-12.5 1,-12.5 1,-7 6.5,-1.5 12,-1.5"/>
</g>
<!-- preparing&#45;successful -->
<g id="node2" class="node state regular">
<title>preparing&#45;successful</title>
<polygon fill="#ffffff" fill-opacity="0.003922" stroke="none" stroke-width="2" points="530,-36 396,-36 396,0 530,0 530,-36"/>
<text text-anchor="start" x="407" y="-14.4" font-family="Helvetica,sans-Serif" font-size="12.00">preparing&#45;successful</text>
<path fill="none" stroke="black" stroke-width="2" d="M408,-1.5C408,-1.5 518,-1.5 518,-1.5 523.5,-1.5 529,-7 529,-12.5 529,-12.5 529,-23.5 529,-23.5 529,-29 523.5,-34.5 518,-34.5 518,-34.5 408,-34.5 408,-34.5 402.5,-34.5 397,-29 397,-23.5 397,-23.5 397,-12.5 397,-12.5 397,-7 402.5,-1.5 408,-1.5"/>
</g>
<!-- preparing&#45;for&#45;installation&#45;&gt;preparing&#45;successful -->
<g id="edge1" class="edge transition">
<title>preparing&#45;for&#45;installation&#45;&gt;preparing&#45;successful</title>
<path fill="none" stroke="black" d="M151.69,-18C218.77,-18 316.86,-18 384.72,-18"/>
<polygon fill="black" stroke="black" points="384.67,-21.5 394.67,-18 384.67,-14.5 384.67,-21.5"/>
<text text-anchor="start" x="170" y="-21" font-family="Helvetica,sans-Serif" font-size="10.00">Refresh &#45; Refresh successfully preparing host &#160;&#160;</text>
</g>
<!-- preparing&#45;successful&#45;&gt;preparing&#45;successful -->
<g id="edge2" class="edge transition">
<title>preparing&#45;successful&#45;&gt;preparing&#45;successful</title>
<path fill="none" stroke="black" d="M429.02,-35.78C423.25,-45.31 434.58,-54 463,-54 479.43,-54 490.15,-51.1 495.15,-46.81"/>
<polygon fill="black" stroke="black" points="498.55,-47.71 496.73,-37.28 491.64,-46.57 498.55,-47.71"/>
<text text-anchor="start" x="375" y="-57" font-family="Helvetica,sans-Serif" font-size="10.00">Refresh &#45; Stay in preparing successful &#160;&#160;</text>
</g>
</g>
</svg>
