<?xml version="1.0" encoding="UTF-8" standalone="no"?>
<!DOCTYPE svg PUBLIC "-//W3C//DTD SVG 1.1//EN"
 "http://www.w3.org/Graphics/SVG/1.1/DTD/svg11.dtd">
<!-- Generated by graphviz version 7.1.0 (0)
 -->
<!-- Title: state transitions Pages: 1 -->
<svg width="290pt" height="102pt"
 viewBox="0.00 0.00 290.00 102.00" xmlns="http://www.w3.org/2000/svg" xmlns:xlink="http://www.w3.org/1999/xlink">
<g id="graph0" class="graph" transform="scale(1 1) rotate(0) translate(4 98)">
<title>state transitions</title>
<polygon fill="white" stroke="none" points="-4,4 -4,-98 286,-98 286,4 -4,4"/>
<!-- resetting -->
<g id="node1" class="node state regular">
<title>resetting</title>
<polygon fill="#ffffff" fill-opacity="0.003922" stroke="none" stroke-width="2" points="175.5,-36 106.5,-36 106.5,0 175.5,0 175.5,-36"/>
<text text-anchor="start" x="118" y="-14.4" font-family="Helvetica,sans-Serif" font-size="12.00">resetting</text>
<path fill="none" stroke="black" stroke-width="2" d="M118.5,-1.5C118.5,-1.5 163.5,-1.5 163.5,-1.5 169,-1.5 174.5,-7 174.5,-12.5 174.5,-12.5 174.5,-23.5 174.5,-23.5 174.5,-29 169,-34.5 163.5,-34.5 163.5,-34.5 118.5,-34.5 118.5,-34.5 113,-34.5 107.5,-29 107.5,-23.5 107.5,-23.5 107.5,-12.5 107.5,-12.5 107.5,-7 113,-1.5 118.5,-1.5"/>
</g>
<!-- resetting&#45;&gt;resetting -->
<g id="edge1" class="edge transition">
<title>resetting&#45;&gt;resetting</title>
<path fill="none" stroke="black" d="M134.8,-35.78C133.74,-45.31 135.81,-54 141,-54 143.92,-54 145.85,-51.25 146.79,-47.15"/>
<polygon fill="black" stroke="black" points="150.29,-47.41 147.15,-37.29 143.29,-47.16 150.29,-47.41"/>
<text text-anchor="start" x="11" y="-57" font-family="Helvetica,sans-Serif" font-size="10.00">Refresh &#45; Refresh during resetting should stay in resetting &#160;&#160;</text>
</g>
<!-- resetting&#45;&gt;resetting -->
<g id="edge2" class="edge transition">
<title>resetting&#45;&gt;resetting</title>
<path fill="none" stroke="black" d="M130.63,-35.98C125.08,-53.2 128.53,-72 141,-72 150.84,-72 155.06,-60.29 153.68,-46.9"/>
<polygon fill="black" stroke="black" points="157.18,-46.52 151.69,-37.46 150.33,-47.97 157.18,-46.52"/>
<text text-anchor="start" x="0" y="-75" font-family="Helvetica,sans-Serif" font-size="10.00">Register Host &#45; Ignore register while rebooting host in resetting &#160;&#160;</text>
</g>
</g>
</svg>
