<?xml version="1.0" encoding="UTF-8" standalone="no"?>
<!DOCTYPE svg PUBLIC "-//W3C//DTD SVG 1.1//EN"
 "http://www.w3.org/Graphics/SVG/1.1/DTD/svg11.dtd">
<!-- Generated by graphviz version 7.1.0 (0)
 -->
<!-- Title: state transitions Pages: 1 -->
<svg width="688pt" height="158pt"
 viewBox="0.00 0.00 687.50 158.00" xmlns="http://www.w3.org/2000/svg" xmlns:xlink="http://www.w3.org/1999/xlink">
<g id="graph0" class="graph" transform="scale(1 1) rotate(0) translate(4 154)">
<title>state transitions</title>
<polygon fill="white" stroke="none" points="-4,4 -4,-154 683.5,-154 683.5,4 -4,4"/>
<!-- installed -->
<g id="node1" class="node state regular">
<title>installed</title>
<polygon fill="#ffffff" fill-opacity="0.003922" stroke="none" stroke-width="2" points="421,-63 353,-63 353,-27 421,-27 421,-63"/>
<text text-anchor="start" x="364" y="-41.4" font-family="Helvetica,sans-Serif" font-size="12.00">installed</text>
<path fill="none" stroke="black" stroke-width="2" d="M365,-28.5C365,-28.5 409,-28.5 409,-28.5 414.5,-28.5 420,-34 420,-39.5 420,-39.5 420,-50.5 420,-50.5 420,-56 414.5,-61.5 409,-61.5 409,-61.5 365,-61.5 365,-61.5 359.5,-61.5 354,-56 354,-50.5 354,-50.5 354,-39.5 354,-39.5 354,-34 359.5,-28.5 365,-28.5"/>
</g>
<!-- installed&#45;&gt;installed -->
<g id="edge3" class="edge transition">
<title>installed&#45;&gt;installed</title>
<path fill="none" stroke="black" d="M378.4,-62.78C376.94,-72.31 379.81,-81 387,-81 391.05,-81 393.72,-78.25 395.03,-74.15"/>
<polygon fill="black" stroke="black" points="398.52,-74.46 395.52,-64.29 391.53,-74.11 398.52,-74.46"/>
<text text-anchor="start" x="94.5" y="-84" font-family="Helvetica,sans-Serif" font-size="10.00">null &#45; Host progress change during installed state when host is not in state Done (or Rebooting in day2) should stay in installed state &#160;&#160;</text>
</g>
<!-- installed&#45;&gt;installed -->
<g id="edge4" class="edge transition">
<title>installed&#45;&gt;installed</title>
<path fill="none" stroke="black" d="M372.62,-62.98C364.92,-80.2 369.72,-99 387,-99 400.64,-99 406.5,-87.29 404.58,-73.9"/>
<polygon fill="black" stroke="black" points="407.98,-73.04 401.81,-64.43 401.26,-75.01 407.98,-73.04"/>
<text text-anchor="start" x="189" y="-102" font-family="Helvetica,sans-Serif" font-size="10.00">Refresh &#45; Refresh during installed state without cluster error should stay in installed state &#160;&#160;</text>
</g>
<!-- installed&#45;&gt;installed -->
<g id="edge5" class="edge transition">
<title>installed&#45;&gt;installed</title>
<path fill="none" stroke="black" d="M369.09,-62.72C352.72,-87.11 358.69,-117 387,-117 411.55,-117 419.3,-94.53 410.25,-72.64"/>
<polygon fill="black" stroke="black" points="413.45,-71.2 405.63,-64.05 407.28,-74.51 413.45,-71.2"/>
<text text-anchor="start" x="294.5" y="-120" font-family="Helvetica,sans-Serif" font-size="10.00">Register Host &#45; Register post&#45;installation &#160;&#160;</text>
</g>
<!-- installing -->
<g id="node2" class="node state regular">
<title>installing</title>
<polygon fill="#ffffff" fill-opacity="0.003922" stroke="none" stroke-width="2" points="102.5,-90 31.5,-90 31.5,-54 102.5,-54 102.5,-90"/>
<text text-anchor="start" x="43" y="-68.4" font-family="Helvetica,sans-Serif" font-size="12.00">installing</text>
<path fill="none" stroke="black" stroke-width="2" d="M43.5,-55.5C43.5,-55.5 90.5,-55.5 90.5,-55.5 96,-55.5 101.5,-61 101.5,-66.5 101.5,-66.5 101.5,-77.5 101.5,-77.5 101.5,-83 96,-88.5 90.5,-88.5 90.5,-88.5 43.5,-88.5 43.5,-88.5 38,-88.5 32.5,-83 32.5,-77.5 32.5,-77.5 32.5,-66.5 32.5,-66.5 32.5,-61 38,-55.5 43.5,-55.5"/>
</g>
<!-- installing&#45;&gt;installed -->
<g id="edge2" class="edge transition">
<title>installing&#45;&gt;installed</title>
<path fill="none" stroke="black" d="M102.15,-69.36C152.95,-65.39 251.39,-57.54 335,-50 337.19,-49.8 339.44,-49.6 341.71,-49.38"/>
<polygon fill="black" stroke="black" points="341.96,-52.88 351.58,-48.45 341.29,-45.91 341.96,-52.88"/>
<text text-anchor="start" x="152" y="-68" font-family="Helvetica,sans-Serif" font-size="10.00">null &#45; host progress changed to installed &#160;&#160;</text>
</g>
<!-- installing&#45;in&#45;progress -->
<g id="node3" class="node state regular">
<title>installing&#45;in&#45;progress</title>
<polygon fill="#ffffff" fill-opacity="0.003922" stroke="none" stroke-width="2" points="134,-36 0,-36 0,0 134,0 134,-36"/>
<text text-anchor="start" x="11" y="-14.4" font-family="Helvetica,sans-Serif" font-size="12.00">installing&#45;in&#45;progress</text>
<path fill="none" stroke="black" stroke-width="2" d="M12,-1.5C12,-1.5 122,-1.5 122,-1.5 127.5,-1.5 133,-7 133,-12.5 133,-12.5 133,-23.5 133,-23.5 133,-29 127.5,-34.5 122,-34.5 122,-34.5 12,-34.5 12,-34.5 6.5,-34.5 1,-29 1,-23.5 1,-23.5 1,-12.5 1,-12.5 1,-7 6.5,-1.5 12,-1.5"/>
</g>
<!-- installing&#45;in&#45;progress&#45;&gt;installed -->
<g id="edge1" class="edge transition">
<title>installing&#45;in&#45;progress&#45;&gt;installed</title>
<path fill="none" stroke="black" d="M133.9,-22.47C187.97,-26.31 266.51,-32.28 335,-39 337.2,-39.22 339.44,-39.45 341.71,-39.68"/>
<polygon fill="black" stroke="black" points="341.27,-43.16 351.59,-40.77 342.04,-36.2 341.27,-43.16"/>
<text text-anchor="start" x="152" y="-42" font-family="Helvetica,sans-Serif" font-size="10.00">null &#45; host progress changed to installed &#160;&#160;</text>
</g>
</g>
</svg>
