<?xml version="1.0" encoding="UTF-8" standalone="no"?>
<!DOCTYPE svg PUBLIC "-//W3C//DTD SVG 1.1//EN"
 "http://www.w3.org/Graphics/SVG/1.1/DTD/svg11.dtd">
<!-- Generated by graphviz version 12.1.0 (20240811.2233)
 -->
<!-- Title: state transitions Pages: 1 -->
<svg width="824pt" height="496pt"
 viewBox="0.00 0.00 824.00 496.22" xmlns="http://www.w3.org/2000/svg" xmlns:xlink="http://www.w3.org/1999/xlink">
<g id="graph0" class="graph" transform="scale(1 1) rotate(0) translate(4 492.22)">
<title>state transitions</title>
<polygon fill="white" stroke="none" points="-4,4 -4,-492.22 820,-492.22 820,4 -4,4"/>
<!-- disconnected -->
<g id="node1" class="node state regular">
<title>disconnected</title>
<polygon fill="#ffffff" fill-opacity="0.003922" stroke="none" stroke-width="2" points="768,-471.01 666.5,-471.01 666.5,-434.76 768,-434.76 768,-471.01"/>
<text text-anchor="start" x="677.5" y="-448.61" font-family="Helvetica,sans-Serif" font-size="12.00">disconnected</text>
<path fill="none" stroke="black" stroke-width="2" d="M678.92,-435.76C678.92,-435.76 755.58,-435.76 755.58,-435.76 761.29,-435.76 767,-441.47 767,-447.18 767,-447.18 767,-458.59 767,-458.59 767,-464.3 761.29,-470.01 755.58,-470.01 755.58,-470.01 678.92,-470.01 678.92,-470.01 673.21,-470.01 667.5,-464.3 667.5,-458.59 667.5,-458.59 667.5,-447.18 667.5,-447.18 667.5,-441.47 673.21,-435.76 678.92,-435.76"/>
</g>
<!-- discovering -->
<g id="node2" class="node state regular">
<title>discovering</title>
<polygon fill="#ffffff" fill-opacity="0.003922" stroke="none" stroke-width="2" points="762.38,-413.01 672.12,-413.01 672.12,-376.76 762.38,-376.76 762.38,-413.01"/>
<text text-anchor="start" x="683.12" y="-390.61" font-family="Helvetica,sans-Serif" font-size="12.00">discovering</text>
<path fill="none" stroke="black" stroke-width="2" d="M684.54,-377.76C684.54,-377.76 749.96,-377.76 749.96,-377.76 755.67,-377.76 761.38,-383.47 761.38,-389.18 761.38,-389.18 761.38,-400.59 761.38,-400.59 761.38,-406.3 755.67,-412.01 749.96,-412.01 749.96,-412.01 684.54,-412.01 684.54,-412.01 678.83,-412.01 673.12,-406.3 673.12,-400.59 673.12,-400.59 673.12,-389.18 673.12,-389.18 673.12,-383.47 678.83,-377.76 684.54,-377.76"/>
</g>
<!-- installing -->
<g id="node3" class="node state regular">
<title>installing</title>
<polygon fill="#ffffff" fill-opacity="0.003922" stroke="none" stroke-width="2" points="754.5,-359.01 680,-359.01 680,-322.76 754.5,-322.76 754.5,-359.01"/>
<text text-anchor="start" x="691" y="-336.61" font-family="Helvetica,sans-Serif" font-size="12.00">installing</text>
<path fill="none" stroke="black" stroke-width="2" d="M692.42,-323.76C692.42,-323.76 742.08,-323.76 742.08,-323.76 747.79,-323.76 753.5,-329.47 753.5,-335.18 753.5,-335.18 753.5,-346.59 753.5,-346.59 753.5,-352.3 747.79,-358.01 742.08,-358.01 742.08,-358.01 692.42,-358.01 692.42,-358.01 686.71,-358.01 681,-352.3 681,-346.59 681,-346.59 681,-335.18 681,-335.18 681,-329.47 686.71,-323.76 692.42,-323.76"/>
</g>
<!-- insufficient -->
<g id="node4" class="node state regular">
<title>insufficient</title>
<polygon fill="#ffffff" fill-opacity="0.003922" stroke="none" stroke-width="2" points="760.88,-296.01 673.62,-296.01 673.62,-259.76 760.88,-259.76 760.88,-296.01"/>
<text text-anchor="start" x="684.62" y="-273.61" font-family="Helvetica,sans-Serif" font-size="12.00">insufficient</text>
<path fill="none" stroke="black" stroke-width="2" d="M686.04,-260.76C686.04,-260.76 748.46,-260.76 748.46,-260.76 754.17,-260.76 759.88,-266.47 759.88,-272.18 759.88,-272.18 759.88,-283.59 759.88,-283.59 759.88,-289.3 754.17,-295.01 748.46,-295.01 748.46,-295.01 686.04,-295.01 686.04,-295.01 680.33,-295.01 674.62,-289.3 674.62,-283.59 674.62,-283.59 674.62,-272.18 674.62,-272.18 674.62,-266.47 680.33,-260.76 686.04,-260.76"/>
</g>
<!-- known -->
<g id="node5" class="node state regular">
<title>known</title>
<polygon fill="#ffffff" fill-opacity="0.003922" stroke="none" stroke-width="2" points="134,-278.01 73,-278.01 73,-241.76 134,-241.76 134,-278.01"/>
<text text-anchor="start" x="84" y="-255.61" font-family="Helvetica,sans-Serif" font-size="12.00">known</text>
<path fill="none" stroke="black" stroke-width="2" d="M85.42,-242.76C85.42,-242.76 121.58,-242.76 121.58,-242.76 127.29,-242.76 133,-248.47 133,-254.18 133,-254.18 133,-265.59 133,-265.59 133,-271.3 127.29,-277.01 121.58,-277.01 121.58,-277.01 85.42,-277.01 85.42,-277.01 79.71,-277.01 74,-271.3 74,-265.59 74,-265.59 74,-254.18 74,-254.18 74,-248.47 79.71,-242.76 85.42,-242.76"/>
</g>
<!-- known&#45;&gt;disconnected -->
<g id="edge3" class="edge transition">
<title>known&#45;&gt;disconnected</title>
<path fill="none" stroke="black" d="M106.64,-277.73C111.92,-318.43 126.98,-416.12 152,-435.89 228.42,-496.26 526.28,-473.14 655.68,-459.77"/>
<polygon fill="black" stroke="black" points="655.84,-463.28 665.42,-458.75 655.11,-456.31 655.84,-463.28"/>
<text text-anchor="start" x="152" y="-478.72" font-family="Helvetica,sans-Serif" font-size="10.00">Media Disconnect &#45; Move to disconnected when virtual media disconnects pre&#45;installation &#160;&#160;</text>
</g>
<!-- known&#45;&gt;disconnected -->
<g id="edge7" class="edge transition">
<title>known&#45;&gt;disconnected</title>
<path fill="none" stroke="black" d="M104.58,-277.66C105.79,-308.35 113.19,-370.79 152,-399.89 191.91,-429.81 551.28,-411.03 600.5,-419.14 618.71,-422.14 638.12,-427.08 655.73,-432.26"/>
<polygon fill="black" stroke="black" points="654.69,-435.6 665.27,-435.16 656.72,-428.9 654.69,-435.6"/>
<text text-anchor="start" x="216.5" y="-422.39" font-family="Helvetica,sans-Serif" font-size="10.00">Refresh &#45; Move host to disconnected when connected times out &#160;&#160;</text>
</g>
<!-- known&#45;&gt;discovering -->
<g id="edge12" class="edge transition">
<title>known&#45;&gt;discovering</title>
<path fill="none" stroke="black" d="M107.39,-277.93C112.16,-301.24 124.13,-341.06 152,-359.89 193.37,-387.83 550.68,-383.95 600.5,-387.14 620.23,-388.4 641.86,-389.83 661.02,-391.12"/>
<polygon fill="black" stroke="black" points="660.56,-394.6 670.77,-391.78 661.03,-387.61 660.56,-394.6"/>
<text text-anchor="start" x="297.5" y="-390.39" font-family="Helvetica,sans-Serif" font-size="10.00">Register Host &#45; Re&#45;registration &#160;&#160;</text>
</g>
<!-- known&#45;&gt;installing -->
<g id="edge2" class="edge transition">
<title>known&#45;&gt;installing</title>
<path fill="none" stroke="black" d="M112.5,-277.89C120.24,-292.89 133.52,-313.3 152,-322.89 197.25,-346.35 541.48,-343.57 668.96,-341.7"/>
<polygon fill="black" stroke="black" points="668.79,-345.2 678.74,-341.55 668.69,-338.2 668.79,-345.2"/>
<text text-anchor="start" x="294.5" y="-346.14" font-family="Helvetica,sans-Serif" font-size="10.00">Install Host &#45; Install known host &#160;&#160;</text>
</g>
<!-- known&#45;&gt;insufficient -->
<g id="edge6" class="edge transition">
<title>known&#45;&gt;insufficient</title>
<path fill="none" stroke="black" d="M125.32,-277.82C133.16,-283.46 142.49,-288.98 152,-291.89 247.32,-321 501.01,-297.88 600.5,-291.89 620.76,-290.67 642.9,-288.25 662.35,-285.77"/>
<polygon fill="black" stroke="black" points="662.8,-289.24 672.26,-284.47 661.89,-282.3 662.8,-289.24"/>
<text text-anchor="start" x="219.12" y="-309.51" font-family="Helvetica,sans-Serif" font-size="10.00">Refresh &#45; Preparing failed disk speed host move to insufficient &#160;&#160;</text>
</g>
<!-- known&#45;&gt;insufficient -->
<g id="edge8" class="edge transition">
<title>known&#45;&gt;insufficient</title>
<path fill="none" stroke="black" d="M133.59,-260.74C229.61,-263.57 537.41,-272.62 662.57,-276.31"/>
<polygon fill="black" stroke="black" points="662.13,-279.8 672.23,-276.59 662.34,-272.8 662.13,-279.8"/>
<text text-anchor="start" x="273.5" y="-277.69" font-family="Helvetica,sans-Serif" font-size="10.00">Refresh &#45; Host has insufficient hardware &#160;&#160;</text>
</g>
<!-- known&#45;&gt;insufficient -->
<g id="edge10" class="edge transition">
<title>known&#45;&gt;insufficient</title>
<path fill="none" stroke="black" d="M133.82,-249.28C139.76,-247.56 146.02,-246.04 152,-245.14 349.08,-215.24 403.06,-217.74 600.5,-245.14 621.26,-248.02 643.53,-253.67 662.94,-259.48"/>
<polygon fill="black" stroke="black" points="661.67,-262.75 672.26,-262.36 663.73,-256.07 661.67,-262.75"/>
<text text-anchor="start" x="312.12" y="-248.39" font-family="Helvetica,sans-Serif" font-size="10.00">Refresh &#45; Host not ready &#160;&#160;</text>
</g>
<!-- known&#45;&gt;known -->
<g id="edge1" class="edge transition">
<title>known&#45;&gt;known</title>
<path fill="none" stroke="black" d="M78.98,-277.73C74.82,-287.3 82.99,-296.01 103.5,-296.01 115.36,-296.01 123.09,-293.1 126.7,-288.79"/>
<polygon fill="black" stroke="black" points="130.13,-289.58 127.84,-279.23 123.18,-288.75 130.13,-289.58"/>
<text text-anchor="start" x="0" y="-299.26" font-family="Helvetica,sans-Serif" font-size="10.00">Cancel Installation &#45; Cancel while known &#160;&#160;</text>
</g>
<!-- known&#45;&gt;known -->
<g id="edge11" class="edge transition">
<title>known&#45;&gt;known</title>
<path fill="none" stroke="black" d="M73.09,-271.18C37.56,-289.85 47.7,-314.01 103.5,-314.01 153.42,-314.01 166.79,-294.67 143.63,-277.23"/>
<polygon fill="black" stroke="black" points="145.53,-274.3 135.19,-271.98 141.83,-280.24 145.53,-274.3"/>
<text text-anchor="start" x="36.75" y="-317.26" font-family="Helvetica,sans-Serif" font-size="10.00">Refresh &#45; Host stay ready &#160;&#160;</text>
</g>
<!-- unbinding -->
<g id="node6" class="node state regular">
<title>unbinding</title>
<polygon fill="#ffffff" fill-opacity="0.003922" stroke="none" stroke-width="2" points="757.5,-220.01 677,-220.01 677,-183.76 757.5,-183.76 757.5,-220.01"/>
<text text-anchor="start" x="688" y="-197.61" font-family="Helvetica,sans-Serif" font-size="12.00">unbinding</text>
<path fill="none" stroke="black" stroke-width="2" d="M689.42,-184.76C689.42,-184.76 745.08,-184.76 745.08,-184.76 750.79,-184.76 756.5,-190.47 756.5,-196.18 756.5,-196.18 756.5,-207.59 756.5,-207.59 756.5,-213.3 750.79,-219.01 745.08,-219.01 745.08,-219.01 689.42,-219.01 689.42,-219.01 683.71,-219.01 678,-213.3 678,-207.59 678,-207.59 678,-196.18 678,-196.18 678,-190.47 683.71,-184.76 689.42,-184.76"/>
</g>
<!-- known&#45;&gt;unbinding -->
<g id="edge4" class="edge transition">
<title>known&#45;&gt;unbinding</title>
<path fill="none" stroke="black" d="M115.05,-241.84C123.36,-229.55 136.16,-214.28 152,-207.14 198.06,-186.37 536.23,-195.66 665.87,-200.05"/>
<polygon fill="black" stroke="black" points="665.39,-203.54 675.51,-200.38 665.63,-196.54 665.39,-203.54"/>
<text text-anchor="start" x="275.75" y="-210.39" font-family="Helvetica,sans-Serif" font-size="10.00">Reclaim Host &#45; Reclaim pre&#45;installation &#160;&#160;</text>
</g>
<!-- known&#45;&gt;unbinding -->
<g id="edge14" class="edge transition">
<title>known&#45;&gt;unbinding</title>
<path fill="none" stroke="black" d="M109.05,-241.86C115.14,-221.99 128.06,-191 152,-177.14 238.25,-127.19 501.39,-166.66 600.5,-177.14 622.21,-179.43 645.84,-184.08 666.05,-188.74"/>
<polygon fill="black" stroke="black" points="665.19,-192.14 675.73,-191.04 666.81,-185.33 665.19,-192.14"/>
<text text-anchor="start" x="281" y="-180.39" font-family="Helvetica,sans-Serif" font-size="10.00">Unbind Host &#45; Unbind pre&#45;installation &#160;&#160;</text>
</g>
<!-- preparing&#45;for&#45;installation -->
<g id="node7" class="node state regular">
<title>preparing&#45;for&#45;installation</title>
<polygon fill="#ffffff" fill-opacity="0.003922" stroke="none" stroke-width="2" points="801.75,-157.01 632.75,-157.01 632.75,-120.76 801.75,-120.76 801.75,-157.01"/>
<text text-anchor="start" x="643.75" y="-134.61" font-family="Helvetica,sans-Serif" font-size="12.00">preparing&#45;for&#45;installation</text>
<path fill="none" stroke="black" stroke-width="2" d="M645.17,-121.76C645.17,-121.76 789.33,-121.76 789.33,-121.76 795.04,-121.76 800.75,-127.47 800.75,-133.18 800.75,-133.18 800.75,-144.59 800.75,-144.59 800.75,-150.3 795.04,-156.01 789.33,-156.01 789.33,-156.01 645.17,-156.01 645.17,-156.01 639.46,-156.01 633.75,-150.3 633.75,-144.59 633.75,-144.59 633.75,-133.18 633.75,-133.18 633.75,-127.47 639.46,-121.76 645.17,-121.76"/>
</g>
<!-- known&#45;&gt;preparing&#45;for&#45;installation -->
<g id="edge5" class="edge transition">
<title>known&#45;&gt;preparing&#45;for&#45;installation</title>
<path fill="none" stroke="black" d="M105.34,-242.17C107.73,-214.14 116.91,-160.25 152,-136.14 225.69,-85.49 481.22,-108.47 621.77,-125.83"/>
<polygon fill="black" stroke="black" points="621.07,-129.27 631.43,-127.04 621.94,-122.33 621.07,-129.27"/>
<text text-anchor="start" x="251" y="-139.39" font-family="Helvetica,sans-Serif" font-size="10.00">Refresh &#45; Refresh known host in preparing cluster &#160;&#160;</text>
</g>
<!-- pending&#45;for&#45;input -->
<g id="node8" class="node state regular">
<title>pending&#45;for&#45;input</title>
<polygon fill="#ffffff" fill-opacity="0.003922" stroke="none" stroke-width="2" points="779.62,-103.01 654.88,-103.01 654.88,-66.76 779.62,-66.76 779.62,-103.01"/>
<text text-anchor="start" x="665.88" y="-80.61" font-family="Helvetica,sans-Serif" font-size="12.00">pending&#45;for&#45;input</text>
<path fill="none" stroke="black" stroke-width="2" d="M667.29,-67.76C667.29,-67.76 767.21,-67.76 767.21,-67.76 772.92,-67.76 778.62,-73.47 778.62,-79.18 778.62,-79.18 778.62,-90.59 778.62,-90.59 778.62,-96.3 772.92,-102.01 767.21,-102.01 767.21,-102.01 667.29,-102.01 667.29,-102.01 661.58,-102.01 655.88,-96.3 655.88,-90.59 655.88,-90.59 655.88,-79.18 655.88,-79.18 655.88,-73.47 661.58,-67.76 667.29,-67.76"/>
</g>
<!-- known&#45;&gt;pending&#45;for&#45;input -->
<g id="edge9" class="edge transition">
<title>known&#45;&gt;pending&#45;for&#45;input</title>
<path fill="none" stroke="black" d="M106.76,-241.83C112.19,-201.66 127.37,-106.99 152,-88.14 227.02,-30.71 509.29,-57.97 643.94,-74.91"/>
<polygon fill="black" stroke="black" points="643.46,-78.37 653.82,-76.17 644.35,-71.43 643.46,-78.37"/>
<text text-anchor="start" x="302" y="-91.39" font-family="Helvetica,sans-Serif" font-size="10.00">Refresh &#45; Host pending input &#160;&#160;</text>
</g>
<!-- resetting&#45;pending&#45;user&#45;action -->
<g id="node9" class="node state regular">
<title>resetting&#45;pending&#45;user&#45;action</title>
<polygon fill="#ffffff" fill-opacity="0.003922" stroke="none" stroke-width="2" points="816,-49.01 618.5,-49.01 618.5,-12.76 816,-12.76 816,-49.01"/>
<text text-anchor="start" x="629.5" y="-26.61" font-family="Helvetica,sans-Serif" font-size="12.00">resetting&#45;pending&#45;user&#45;action</text>
<path fill="none" stroke="black" stroke-width="2" d="M630.92,-13.76C630.92,-13.76 803.58,-13.76 803.58,-13.76 809.29,-13.76 815,-19.47 815,-25.18 815,-25.18 815,-36.59 815,-36.59 815,-42.3 809.29,-48.01 803.58,-48.01 803.58,-48.01 630.92,-48.01 630.92,-48.01 625.21,-48.01 619.5,-42.3 619.5,-36.59 619.5,-36.59 619.5,-25.18 619.5,-25.18 619.5,-19.47 625.21,-13.76 630.92,-13.76"/>
</g>
<!-- known&#45;&gt;resetting&#45;pending&#45;user&#45;action -->
<g id="edge13" class="edge transition">
<title>known&#45;&gt;resetting&#45;pending&#45;user&#45;action</title>
<path fill="none" stroke="black" d="M105.53,-242.08C108.71,-193.95 120.18,-63.18 152,-37.14 219.14,17.82 463.52,-0.28 607.71,-16.65"/>
<polygon fill="black" stroke="black" points="606.93,-20.09 617.27,-17.76 607.73,-13.13 606.93,-20.09"/>
<text text-anchor="start" x="204.12" y="-40.39" font-family="Helvetica,sans-Serif" font-size="10.00">Resetting, Pending User Action &#45; Reset pending user action all states &#160;&#160;</text>
</g>
</g>
</svg>
