<?xml version="1.0" encoding="UTF-8" standalone="no"?>
<!DOCTYPE svg PUBLIC "-//W3C//DTD SVG 1.1//EN"
 "http://www.w3.org/Graphics/SVG/1.1/DTD/svg11.dtd">
<!-- Generated by graphviz version 12.1.0 (20240811.2233)
 -->
<!-- Title: state transitions Pages: 1 -->
<svg width="782pt" height="133pt"
 viewBox="0.00 0.00 781.62 132.75" xmlns="http://www.w3.org/2000/svg" xmlns:xlink="http://www.w3.org/1999/xlink">
<g id="graph0" class="graph" transform="scale(1 1) rotate(0) translate(4 128.75)">
<title>state transitions</title>
<polygon fill="white" stroke="none" points="-4,4 -4,-128.75 777.62,-128.75 777.62,4 -4,4"/>
<!-- discovering -->
<g id="node1" class="node state regular">
<title>discovering</title>
<polygon fill="#ffffff" fill-opacity="0.003922" stroke="none" stroke-width="2" points="720,-90.25 629.75,-90.25 629.75,-54 720,-54 720,-90.25"/>
<text text-anchor="start" x="640.75" y="-67.85" font-family="Helvetica,sans-Serif" font-size="12.00">discovering</text>
<path fill="none" stroke="black" stroke-width="2" d="M642.17,-55C642.17,-55 707.58,-55 707.58,-55 713.29,-55 719,-60.71 719,-66.42 719,-66.42 719,-77.83 719,-77.83 719,-83.54 713.29,-89.25 707.58,-89.25 707.58,-89.25 642.17,-89.25 642.17,-89.25 636.46,-89.25 630.75,-83.54 630.75,-77.83 630.75,-77.83 630.75,-66.42 630.75,-66.42 630.75,-60.71 636.46,-55 642.17,-55"/>
</g>
<!-- resetting -->
<g id="node2" class="node state regular">
<title>resetting</title>
<polygon fill="#ffffff" fill-opacity="0.003922" stroke="none" stroke-width="2" points="195.88,-63.25 121.38,-63.25 121.38,-27 195.88,-27 195.88,-63.25"/>
<text text-anchor="start" x="132.38" y="-40.85" font-family="Helvetica,sans-Serif" font-size="12.00">resetting</text>
<path fill="none" stroke="black" stroke-width="2" d="M133.79,-28C133.79,-28 183.46,-28 183.46,-28 189.17,-28 194.88,-33.71 194.88,-39.42 194.88,-39.42 194.88,-50.83 194.88,-50.83 194.88,-56.54 189.17,-62.25 183.46,-62.25 183.46,-62.25 133.79,-62.25 133.79,-62.25 128.08,-62.25 122.38,-56.54 122.38,-50.83 122.38,-50.83 122.38,-39.42 122.38,-39.42 122.38,-33.71 128.08,-28 133.79,-28"/>
</g>
<!-- resetting&#45;&gt;discovering -->
<g id="edge3" class="edge transition">
<title>resetting&#45;&gt;discovering</title>
<path fill="none" stroke="black" d="M195.79,-47.02C284.37,-51.67 512.69,-63.66 618.51,-69.22"/>
<polygon fill="black" stroke="black" points="618.2,-72.71 628.37,-69.74 618.57,-65.72 618.2,-72.71"/>
<text text-anchor="start" x="246.5" y="-68.85" font-family="Helvetica,sans-Serif" font-size="10.00">Register Host &#45; Register non&#45;rebooting host in resetting &#160;&#160;</text>
</g>
<!-- resetting&#45;&gt;resetting -->
<g id="edge1" class="edge transition">
<title>resetting&#45;&gt;resetting</title>
<path fill="none" stroke="black" d="M138.19,-62.97C134.72,-72.53 141.53,-81.25 158.62,-81.25 168.24,-81.25 174.61,-78.49 177.71,-74.38"/>
<polygon fill="black" stroke="black" points="181.19,-74.81 178.88,-64.47 174.24,-73.99 181.19,-74.81"/>
<text text-anchor="start" x="12.75" y="-84.5" font-family="Helvetica,sans-Serif" font-size="10.00">Refresh &#45; Refresh during resetting should stay in resetting &#160;&#160;</text>
</g>
<!-- resetting&#45;&gt;resetting -->
<g id="edge2" class="edge transition">
<title>resetting&#45;&gt;resetting</title>
<path fill="none" stroke="black" d="M124.45,-63.14C106.15,-80.41 117.55,-99.25 158.62,-99.25 192.64,-99.25 206.3,-86.33 199.6,-72.08"/>
<polygon fill="black" stroke="black" points="202.56,-70.19 193.72,-64.35 196.99,-74.43 202.56,-70.19"/>
<text text-anchor="start" x="0" y="-102.5" font-family="Helvetica,sans-Serif" font-size="10.00">Register Host &#45; Ignore register while rebooting host in resetting &#160;&#160;</text>
</g>
<!-- resetting&#45;pending&#45;user&#45;action -->
<g id="node3" class="node state regular">
<title>resetting&#45;pending&#45;user&#45;action</title>
<polygon fill="#ffffff" fill-opacity="0.003922" stroke="none" stroke-width="2" points="773.62,-36.25 576.12,-36.25 576.12,0 773.62,0 773.62,-36.25"/>
<text text-anchor="start" x="587.12" y="-13.85" font-family="Helvetica,sans-Serif" font-size="12.00">resetting&#45;pending&#45;user&#45;action</text>
<path fill="none" stroke="black" stroke-width="2" d="M588.54,-1C588.54,-1 761.21,-1 761.21,-1 766.92,-1 772.62,-6.71 772.62,-12.42 772.62,-12.42 772.62,-23.83 772.62,-23.83 772.62,-29.54 766.92,-35.25 761.21,-35.25 761.21,-35.25 588.54,-35.25 588.54,-35.25 582.83,-35.25 577.12,-29.54 577.12,-23.83 577.12,-23.83 577.12,-12.42 577.12,-12.42 577.12,-6.71 582.83,-1 588.54,-1"/>
</g>
<!-- resetting&#45;&gt;resetting&#45;pending&#45;user&#45;action -->
<g id="edge4" class="edge transition">
<title>resetting&#45;&gt;resetting&#45;pending&#45;user&#45;action</title>
<path fill="none" stroke="black" d="M195.59,-34.84C201.65,-33.44 207.91,-32.21 213.88,-31.38 333.13,-14.75 471.41,-13.11 564.97,-14.57"/>
<polygon fill="black" stroke="black" points="564.87,-18.07 574.93,-14.74 564.99,-11.07 564.87,-18.07"/>
<text text-anchor="start" x="213.88" y="-34.62" font-family="Helvetica,sans-Serif" font-size="10.00">Resetting, Pending User Action &#45; Reset pending user action all states &#160;&#160;</text>
</g>
</g>
</svg>
