<?xml version="1.0" encoding="UTF-8" standalone="no"?>
<!DOCTYPE svg PUBLIC "-//W3C//DTD SVG 1.1//EN"
 "http://www.w3.org/Graphics/SVG/1.1/DTD/svg11.dtd">
<!-- Generated by graphviz version 12.1.0 (20240811.2233)
 -->
<!-- Title: state transitions Pages: 1 -->
<svg width="851pt" height="371pt"
 viewBox="0.00 0.00 851.38 371.37" xmlns="http://www.w3.org/2000/svg" xmlns:xlink="http://www.w3.org/1999/xlink">
<g id="graph0" class="graph" transform="scale(1 1) rotate(0) translate(4 367.37)">
<title>state transitions</title>
<polygon fill="white" stroke="none" points="-4,4 -4,-367.37 847.38,-367.37 847.38,4 -4,4"/>
<!-- disconnected -->
<g id="node1" class="node state regular">
<title>disconnected</title>
<polygon fill="#ffffff" fill-opacity="0.003922" stroke="none" stroke-width="2" points="795,-342.37 693.5,-342.37 693.5,-306.12 795,-306.12 795,-342.37"/>
<text text-anchor="start" x="704.5" y="-319.97" font-family="Helvetica,sans-Serif" font-size="12.00">disconnected</text>
<path fill="none" stroke="black" stroke-width="2" d="M705.92,-307.12C705.92,-307.12 782.58,-307.12 782.58,-307.12 788.29,-307.12 794,-312.83 794,-318.53 794,-318.53 794,-329.95 794,-329.95 794,-335.66 788.29,-341.37 782.58,-341.37 782.58,-341.37 705.92,-341.37 705.92,-341.37 700.21,-341.37 694.5,-335.66 694.5,-329.95 694.5,-329.95 694.5,-318.53 694.5,-318.53 694.5,-312.83 700.21,-307.12 705.92,-307.12"/>
</g>
<!-- discovering -->
<g id="node2" class="node state regular">
<title>discovering</title>
<polygon fill="#ffffff" fill-opacity="0.003922" stroke="none" stroke-width="2" points="160.62,-216.37 70.38,-216.37 70.38,-180.12 160.62,-180.12 160.62,-216.37"/>
<text text-anchor="start" x="81.38" y="-193.97" font-family="Helvetica,sans-Serif" font-size="12.00">discovering</text>
<path fill="none" stroke="black" stroke-width="2" d="M82.79,-181.12C82.79,-181.12 148.21,-181.12 148.21,-181.12 153.92,-181.12 159.62,-186.83 159.62,-192.53 159.62,-192.53 159.62,-203.95 159.62,-203.95 159.62,-209.66 153.92,-215.37 148.21,-215.37 148.21,-215.37 82.79,-215.37 82.79,-215.37 77.08,-215.37 71.38,-209.66 71.38,-203.95 71.38,-203.95 71.38,-192.53 71.38,-192.53 71.38,-186.83 77.08,-181.12 82.79,-181.12"/>
</g>
<!-- discovering&#45;&gt;disconnected -->
<g id="edge1" class="edge transition">
<title>discovering&#45;&gt;disconnected</title>
<path fill="none" stroke="black" d="M119.65,-216.31C125.6,-244.29 141.42,-297.26 178.62,-320.24 261.3,-371.32 554.58,-345.68 682.67,-331.52"/>
<polygon fill="black" stroke="black" points="682.75,-335.03 692.3,-330.44 681.97,-328.07 682.75,-335.03"/>
<text text-anchor="start" x="178.62" y="-353.87" font-family="Helvetica,sans-Serif" font-size="10.00">Media Disconnect &#45; Move to disconnected when virtual media disconnects pre&#45;installation &#160;&#160;</text>
</g>
<!-- discovering&#45;&gt;disconnected -->
<g id="edge3" class="edge transition">
<title>discovering&#45;&gt;disconnected</title>
<path fill="none" stroke="black" d="M123.65,-216.17C132.92,-236.73 151.22,-269.48 178.62,-284.24 222.54,-307.9 577.55,-298.02 627.12,-303.49 645.25,-305.49 664.8,-308.61 682.61,-311.83"/>
<polygon fill="black" stroke="black" points="681.78,-315.23 692.25,-313.61 683.05,-308.35 681.78,-315.23"/>
<text text-anchor="start" x="243.12" y="-306.74" font-family="Helvetica,sans-Serif" font-size="10.00">Refresh &#45; Move host to disconnected when connected times out &#160;&#160;</text>
</g>
<!-- discovering&#45;&gt;discovering -->
<g id="edge4" class="edge transition">
<title>discovering&#45;&gt;discovering</title>
<path fill="none" stroke="black" d="M89.67,-216.09C85.28,-225.65 93.89,-234.37 115.5,-234.37 127.99,-234.37 136.14,-231.45 139.94,-227.15"/>
<polygon fill="black" stroke="black" points="143.37,-227.95 141.14,-217.59 136.43,-227.08 143.37,-227.95"/>
<text text-anchor="start" x="0" y="-237.62" font-family="Helvetica,sans-Serif" font-size="10.00">Refresh &#45; Host reconnected without inventory &#160;&#160;</text>
</g>
<!-- discovering&#45;&gt;discovering -->
<g id="edge9" class="edge transition">
<title>discovering&#45;&gt;discovering</title>
<path fill="none" stroke="black" d="M72.3,-216.26C49.18,-233.52 63.58,-252.37 115.5,-252.37 159.31,-252.37 176.4,-238.95 166.79,-224.39"/>
<polygon fill="black" stroke="black" points="169.3,-221.95 159.77,-217.34 164.34,-226.89 169.3,-221.95"/>
<text text-anchor="start" x="36.75" y="-255.62" font-family="Helvetica,sans-Serif" font-size="10.00">Register Host &#45; Re&#45;registration &#160;&#160;</text>
</g>
<!-- unbinding -->
<g id="node3" class="node state regular">
<title>unbinding</title>
<polygon fill="#ffffff" fill-opacity="0.003922" stroke="none" stroke-width="2" points="784.5,-279.37 704,-279.37 704,-243.12 784.5,-243.12 784.5,-279.37"/>
<text text-anchor="start" x="715" y="-256.97" font-family="Helvetica,sans-Serif" font-size="12.00">unbinding</text>
<path fill="none" stroke="black" stroke-width="2" d="M716.42,-244.12C716.42,-244.12 772.08,-244.12 772.08,-244.12 777.79,-244.12 783.5,-249.83 783.5,-255.53 783.5,-255.53 783.5,-266.95 783.5,-266.95 783.5,-272.66 777.79,-278.37 772.08,-278.37 772.08,-278.37 716.42,-278.37 716.42,-278.37 710.71,-278.37 705,-272.66 705,-266.95 705,-266.95 705,-255.53 705,-255.53 705,-249.83 710.71,-244.12 716.42,-244.12"/>
</g>
<!-- discovering&#45;&gt;unbinding -->
<g id="edge2" class="edge transition">
<title>discovering&#45;&gt;unbinding</title>
<path fill="none" stroke="black" d="M132.49,-216.14C144.03,-227.67 160.68,-241.68 178.62,-248.24 272.1,-282.4 572.34,-270.56 692.67,-264.19"/>
<polygon fill="black" stroke="black" points="692.77,-267.69 702.57,-263.66 692.39,-260.7 692.77,-267.69"/>
<text text-anchor="start" x="302.38" y="-274.7" font-family="Helvetica,sans-Serif" font-size="10.00">Reclaim Host &#45; Reclaim pre&#45;installation &#160;&#160;</text>
</g>
<!-- discovering&#45;&gt;unbinding -->
<g id="edge11" class="edge transition">
<title>discovering&#45;&gt;unbinding</title>
<path fill="none" stroke="black" d="M160.44,-209.17C166.52,-210.38 172.71,-211.46 178.62,-212.24 376.4,-238.56 429.76,-202.3 627.12,-231.49 649.1,-234.74 672.94,-240.45 693.26,-246.01"/>
<polygon fill="black" stroke="black" points="692.13,-249.33 702.7,-248.65 694.02,-242.59 692.13,-249.33"/>
<text text-anchor="start" x="307.62" y="-234.74" font-family="Helvetica,sans-Serif" font-size="10.00">Unbind Host &#45; Unbind pre&#45;installation &#160;&#160;</text>
</g>
<!-- insufficient -->
<g id="node4" class="node state regular">
<title>insufficient</title>
<polygon fill="#ffffff" fill-opacity="0.003922" stroke="none" stroke-width="2" points="787.5,-212.37 701,-212.37 701,-176.12 787.5,-176.12 787.5,-212.37"/>
<text text-anchor="start" x="712" y="-189.97" font-family="Helvetica,sans-Serif" font-size="12.00">insufficient</text>
<path fill="none" stroke="black" stroke-width="2" d="M713.42,-177.12C713.42,-177.12 775.08,-177.12 775.08,-177.12 780.79,-177.12 786.5,-182.83 786.5,-188.53 786.5,-188.53 786.5,-199.95 786.5,-199.95 786.5,-205.66 780.79,-211.37 775.08,-211.37 775.08,-211.37 713.42,-211.37 713.42,-211.37 707.71,-211.37 702,-205.66 702,-199.95 702,-199.95 702,-188.53 702,-188.53 702,-182.83 707.71,-177.12 713.42,-177.12"/>
</g>
<!-- discovering&#45;&gt;insufficient -->
<g id="edge5" class="edge transition">
<title>discovering&#45;&gt;insufficient</title>
<path fill="none" stroke="black" d="M160.57,-197.96C272.73,-197.25 568.66,-195.36 690.1,-194.58"/>
<polygon fill="black" stroke="black" points="689.8,-198.08 699.78,-194.52 689.76,-191.08 689.8,-198.08"/>
<text text-anchor="start" x="300.5" y="-201.08" font-family="Helvetica,sans-Serif" font-size="10.00">Refresh &#45; Host has insufficient hardware &#160;&#160;</text>
</g>
<!-- discovering&#45;&gt;insufficient -->
<g id="edge7" class="edge transition">
<title>discovering&#45;&gt;insufficient</title>
<path fill="none" stroke="black" d="M160.56,-182.42C166.56,-180.8 172.7,-179.41 178.62,-178.49 375.6,-147.94 428.24,-165.07 627.12,-178.49 647.74,-179.88 670.28,-182.65 689.97,-185.48"/>
<polygon fill="black" stroke="black" points="689.29,-188.92 699.7,-186.92 690.32,-182 689.29,-188.92"/>
<text text-anchor="start" x="338.75" y="-181.74" font-family="Helvetica,sans-Serif" font-size="10.00">Refresh &#45; Host not ready &#160;&#160;</text>
</g>
<!-- pending&#45;for&#45;input -->
<g id="node5" class="node state regular">
<title>pending&#45;for&#45;input</title>
<polygon fill="#ffffff" fill-opacity="0.003922" stroke="none" stroke-width="2" points="807,-149.37 681.5,-149.37 681.5,-113.12 807,-113.12 807,-149.37"/>
<text text-anchor="start" x="692.5" y="-126.97" font-family="Helvetica,sans-Serif" font-size="12.00">pending&#45;for&#45;input</text>
<path fill="none" stroke="black" stroke-width="2" d="M693.92,-114.12C693.92,-114.12 794.58,-114.12 794.58,-114.12 800.29,-114.12 806,-119.83 806,-125.53 806,-125.53 806,-136.95 806,-136.95 806,-142.66 800.29,-148.37 794.58,-148.37 794.58,-148.37 693.92,-148.37 693.92,-148.37 688.21,-148.37 682.5,-142.66 682.5,-136.95 682.5,-136.95 682.5,-125.53 682.5,-125.53 682.5,-119.83 688.21,-114.12 693.92,-114.12"/>
</g>
<!-- discovering&#45;&gt;pending&#45;for&#45;input -->
<g id="edge6" class="edge transition">
<title>discovering&#45;&gt;pending&#45;for&#45;input</title>
<path fill="none" stroke="black" d="M131.01,-180.36C142.44,-167.75 159.6,-151.84 178.62,-144.49 344.94,-80.3 559.82,-100.61 670.39,-117.76"/>
<polygon fill="black" stroke="black" points="669.81,-121.22 680.23,-119.33 670.91,-114.3 669.81,-121.22"/>
<text text-anchor="start" x="328.62" y="-147.74" font-family="Helvetica,sans-Serif" font-size="10.00">Refresh &#45; Host pending input &#160;&#160;</text>
</g>
<!-- known -->
<g id="node6" class="node state regular">
<title>known</title>
<polygon fill="#ffffff" fill-opacity="0.003922" stroke="none" stroke-width="2" points="774.75,-95.37 713.75,-95.37 713.75,-59.12 774.75,-59.12 774.75,-95.37"/>
<text text-anchor="start" x="724.75" y="-72.97" font-family="Helvetica,sans-Serif" font-size="12.00">known</text>
<path fill="none" stroke="black" stroke-width="2" d="M726.17,-60.12C726.17,-60.12 762.33,-60.12 762.33,-60.12 768.04,-60.12 773.75,-65.83 773.75,-71.53 773.75,-71.53 773.75,-82.95 773.75,-82.95 773.75,-88.66 768.04,-94.37 762.33,-94.37 762.33,-94.37 726.17,-94.37 726.17,-94.37 720.46,-94.37 714.75,-88.66 714.75,-82.95 714.75,-82.95 714.75,-71.53 714.75,-71.53 714.75,-65.83 720.46,-60.12 726.17,-60.12"/>
</g>
<!-- discovering&#45;&gt;known -->
<g id="edge8" class="edge transition">
<title>discovering&#45;&gt;known</title>
<path fill="none" stroke="black" d="M120.22,-180.36C126.82,-153.8 143.32,-104.79 178.62,-83.49 266.49,-30.49 588.22,-59.99 702.57,-72.51"/>
<polygon fill="black" stroke="black" points="702.09,-75.97 712.41,-73.6 702.86,-69.02 702.09,-75.97"/>
<text text-anchor="start" x="348.12" y="-86.74" font-family="Helvetica,sans-Serif" font-size="10.00">Refresh &#45; Host ready &#160;&#160;</text>
</g>
<!-- resetting&#45;pending&#45;user&#45;action -->
<g id="node7" class="node state regular">
<title>resetting&#45;pending&#45;user&#45;action</title>
<polygon fill="#ffffff" fill-opacity="0.003922" stroke="none" stroke-width="2" points="843.38,-41.37 645.12,-41.37 645.12,-5.12 843.38,-5.12 843.38,-41.37"/>
<text text-anchor="start" x="656.12" y="-18.97" font-family="Helvetica,sans-Serif" font-size="12.00">resetting&#45;pending&#45;user&#45;action</text>
<path fill="none" stroke="black" stroke-width="2" d="M657.54,-6.12C657.54,-6.12 830.96,-6.12 830.96,-6.12 836.67,-6.12 842.38,-11.83 842.38,-17.53 842.38,-17.53 842.38,-28.95 842.38,-28.95 842.38,-34.66 836.67,-40.37 830.96,-40.37 830.96,-40.37 657.54,-40.37 657.54,-40.37 651.83,-40.37 646.12,-34.66 646.12,-28.95 646.12,-28.95 646.12,-17.53 646.12,-17.53 646.12,-11.83 651.83,-6.12 657.54,-6.12"/>
</g>
<!-- discovering&#45;&gt;resetting&#45;pending&#45;user&#45;action -->
<g id="edge10" class="edge transition">
<title>discovering&#45;&gt;resetting&#45;pending&#45;user&#45;action</title>
<path fill="none" stroke="black" d="M117.27,-180.29C119.84,-145.66 130.92,-70.1 178.62,-36.49 249.3,13.3 490.54,0.78 633.81,-11.83"/>
<polygon fill="black" stroke="black" points="633.45,-15.31 643.72,-12.72 634.08,-8.34 633.45,-15.31"/>
<text text-anchor="start" x="230.75" y="-39.74" font-family="Helvetica,sans-Serif" font-size="10.00">Resetting, Pending User Action &#45; Reset pending user action all states &#160;&#160;</text>
</g>
</g>
</svg>
