<?xml version="1.0" encoding="UTF-8" standalone="no"?>
<!DOCTYPE svg PUBLIC "-//W3C//DTD SVG 1.1//EN"
 "http://www.w3.org/Graphics/SVG/1.1/DTD/svg11.dtd">
<!-- Generated by graphviz version 5.0.0 (0)
 -->
<!-- Title: state transitions Pages: 1 -->
<svg width="744pt" height="352pt"
 viewBox="0.00 0.00 744.00 352.46" xmlns="http://www.w3.org/2000/svg" xmlns:xlink="http://www.w3.org/1999/xlink">
<g id="graph0" class="graph" transform="scale(1 1) rotate(0) translate(4 348.46)">
<title>state transitions</title>
<polygon fill="white" stroke="transparent" points="-4,4 -4,-348.46 740,-348.46 740,4 -4,4"/>
<!-- disconnected -->
<g id="node1" class="node state regular">
<title>disconnected</title>
<polygon fill="#ffffff" fill-opacity="0.003922" stroke="transparent" stroke-width="2" points="693.5,-329.46 599.5,-329.46 599.5,-293.46 693.5,-293.46 693.5,-329.46"/>
<text text-anchor="start" x="610.5" y="-307.86" font-family="Helvetica,sans-Serif" font-size="12.00">disconnected</text>
<path fill="none" stroke="black" stroke-width="2" d="M611.5,-294.96C611.5,-294.96 681.5,-294.96 681.5,-294.96 687,-294.96 692.5,-300.46 692.5,-305.96 692.5,-305.96 692.5,-316.96 692.5,-316.96 692.5,-322.46 687,-327.96 681.5,-327.96 681.5,-327.96 611.5,-327.96 611.5,-327.96 606,-327.96 600.5,-322.46 600.5,-316.96 600.5,-316.96 600.5,-305.96 600.5,-305.96 600.5,-300.46 606,-294.96 611.5,-294.96"/>
</g>
<!-- discovering -->
<g id="node2" class="node state regular">
<title>discovering</title>
<polygon fill="#ffffff" fill-opacity="0.003922" stroke="transparent" stroke-width="2" points="688.5,-275.46 604.5,-275.46 604.5,-239.46 688.5,-239.46 688.5,-275.46"/>
<text text-anchor="start" x="615.5" y="-253.86" font-family="Helvetica,sans-Serif" font-size="12.00">discovering</text>
<path fill="none" stroke="black" stroke-width="2" d="M616.5,-240.96C616.5,-240.96 676.5,-240.96 676.5,-240.96 682,-240.96 687.5,-246.46 687.5,-251.96 687.5,-251.96 687.5,-262.96 687.5,-262.96 687.5,-268.46 682,-273.96 676.5,-273.96 676.5,-273.96 616.5,-273.96 616.5,-273.96 611,-273.96 605.5,-268.46 605.5,-262.96 605.5,-262.96 605.5,-251.96 605.5,-251.96 605.5,-246.46 611,-240.96 616.5,-240.96"/>
</g>
<!-- error -->
<g id="node3" class="node state regular">
<title>error</title>
<polygon fill="#ffffff" fill-opacity="0.003922" stroke="transparent" stroke-width="2" points="674.5,-221.46 618.5,-221.46 618.5,-185.46 674.5,-185.46 674.5,-221.46"/>
<text text-anchor="start" x="634" y="-199.86" font-family="Helvetica,sans-Serif" font-size="12.00">error</text>
<path fill="none" stroke="black" stroke-width="2" d="M630.5,-186.96C630.5,-186.96 662.5,-186.96 662.5,-186.96 668,-186.96 673.5,-192.46 673.5,-197.96 673.5,-197.96 673.5,-208.96 673.5,-208.96 673.5,-214.46 668,-219.96 662.5,-219.96 662.5,-219.96 630.5,-219.96 630.5,-219.96 625,-219.96 619.5,-214.46 619.5,-208.96 619.5,-208.96 619.5,-197.96 619.5,-197.96 619.5,-192.46 625,-186.96 630.5,-186.96"/>
</g>
<!-- installing -->
<g id="node4" class="node state regular">
<title>installing</title>
<polygon fill="#ffffff" fill-opacity="0.003922" stroke="transparent" stroke-width="2" points="682,-167.46 611,-167.46 611,-131.46 682,-131.46 682,-167.46"/>
<text text-anchor="start" x="622.5" y="-145.86" font-family="Helvetica,sans-Serif" font-size="12.00">installing</text>
<path fill="none" stroke="black" stroke-width="2" d="M623,-132.96C623,-132.96 670,-132.96 670,-132.96 675.5,-132.96 681,-138.46 681,-143.96 681,-143.96 681,-154.96 681,-154.96 681,-160.46 675.5,-165.96 670,-165.96 670,-165.96 623,-165.96 623,-165.96 617.5,-165.96 612,-160.46 612,-154.96 612,-154.96 612,-143.96 612,-143.96 612,-138.46 617.5,-132.96 623,-132.96"/>
</g>
<!-- known -->
<g id="node5" class="node state regular">
<title>known</title>
<polygon fill="#ffffff" fill-opacity="0.003922" stroke="transparent" stroke-width="2" points="675.5,-113.46 617.5,-113.46 617.5,-77.46 675.5,-77.46 675.5,-113.46"/>
<text text-anchor="start" x="628.5" y="-91.86" font-family="Helvetica,sans-Serif" font-size="12.00">known</text>
<path fill="none" stroke="black" stroke-width="2" d="M629.5,-78.96C629.5,-78.96 663.5,-78.96 663.5,-78.96 669,-78.96 674.5,-84.46 674.5,-89.96 674.5,-89.96 674.5,-100.96 674.5,-100.96 674.5,-106.46 669,-111.96 663.5,-111.96 663.5,-111.96 629.5,-111.96 629.5,-111.96 624,-111.96 618.5,-106.46 618.5,-100.96 618.5,-100.96 618.5,-89.96 618.5,-89.96 618.5,-84.46 624,-78.96 629.5,-78.96"/>
</g>
<!-- preparing&#45;successful -->
<g id="node6" class="node state regular">
<title>preparing&#45;successful</title>
<polygon fill="#ffffff" fill-opacity="0.003922" stroke="transparent" stroke-width="2" points="155,-174.46 21,-174.46 21,-138.46 155,-138.46 155,-174.46"/>
<text text-anchor="start" x="32" y="-152.86" font-family="Helvetica,sans-Serif" font-size="12.00">preparing&#45;successful</text>
<path fill="none" stroke="black" stroke-width="2" d="M33,-139.96C33,-139.96 143,-139.96 143,-139.96 148.5,-139.96 154,-145.46 154,-150.96 154,-150.96 154,-161.96 154,-161.96 154,-167.46 148.5,-172.96 143,-172.96 143,-172.96 33,-172.96 33,-172.96 27.5,-172.96 22,-167.46 22,-161.96 22,-161.96 22,-150.96 22,-150.96 22,-145.46 27.5,-139.96 33,-139.96"/>
</g>
<!-- preparing&#45;successful&#45;&gt;disconnected -->
<g id="edge6" class="edge transition">
<title>preparing&#45;successful&#45;&gt;disconnected</title>
<path fill="none" stroke="black" d="M95.73,-174.55C107,-202.02 132.54,-253.45 173,-276.46 306.19,-352.19 495.71,-336.24 589.07,-321.94"/>
<polygon fill="black" stroke="black" points="589.83,-325.36 599.16,-320.34 588.73,-318.45 589.83,-325.36"/>
<text text-anchor="start" x="190" y="-336.46" font-family="Helvetica,sans-Serif" font-size="10.00">Refresh &#45; Move preparing host to disconnected when connection times out &#160;&#160;</text>
</g>
<!-- preparing&#45;successful&#45;&gt;discovering -->
<g id="edge7" class="edge transition">
<title>preparing&#45;successful&#45;&gt;discovering</title>
<path fill="none" stroke="black" d="M109.85,-174.65C125.94,-187.57 149.38,-204.06 173,-212.46 319.01,-264.35 505.48,-264.29 594.17,-260.6"/>
<polygon fill="black" stroke="black" points="594.41,-264.09 604.24,-260.14 594.09,-257.1 594.41,-264.09"/>
<text text-anchor="start" x="285" y="-264.46" font-family="Helvetica,sans-Serif" font-size="10.00">Register Host &#45; Re&#45;registration &#160;&#160;</text>
</g>
<!-- preparing&#45;successful&#45;&gt;error -->
<g id="edge2" class="edge transition">
<title>preparing&#45;successful&#45;&gt;error</title>
<path fill="none" stroke="black" d="M155.42,-167.25C161.36,-168.06 167.28,-168.81 173,-169.46 334.5,-187.73 528.24,-198.05 608.19,-201.81"/>
<polygon fill="black" stroke="black" points="608.11,-205.31 618.26,-202.28 608.44,-198.32 608.11,-205.31"/>
<text text-anchor="start" x="173" y="-200.46" font-family="Helvetica,sans-Serif" font-size="10.00">Media Disconnect &#45; Move to error when virtual media disconnects post&#45;installation &#160;&#160;</text>
</g>
<!-- preparing&#45;successful&#45;&gt;installing -->
<g id="edge4" class="edge transition">
<title>preparing&#45;successful&#45;&gt;installing</title>
<path fill="none" stroke="black" d="M155.02,-155.63C269.75,-154.18 502.99,-151.25 600.78,-150.02"/>
<polygon fill="black" stroke="black" points="600.96,-153.52 610.92,-149.89 600.87,-146.52 600.96,-153.52"/>
<text text-anchor="start" x="232" y="-157.46" font-family="Helvetica,sans-Serif" font-size="10.00">Refresh &#45; Move successfully prepared host to installing &#160;&#160;</text>
</g>
<!-- preparing&#45;successful&#45;&gt;known -->
<g id="edge1" class="edge transition">
<title>preparing&#45;successful&#45;&gt;known</title>
<path fill="none" stroke="black" d="M155.28,-138.84C161.25,-137.57 167.22,-136.42 173,-135.46 256.36,-121.6 509.91,-104.24 607.06,-97.91"/>
<polygon fill="black" stroke="black" points="607.55,-101.39 617.31,-97.25 607.1,-94.4 607.55,-101.39"/>
<text text-anchor="start" x="257.5" y="-138.46" font-family="Helvetica,sans-Serif" font-size="10.00">Cancel Installation &#45; Cancel while preparing &#160;&#160;</text>
</g>
<!-- preparing&#45;successful&#45;&gt;known -->
<g id="edge5" class="edge transition">
<title>preparing&#45;successful&#45;&gt;known</title>
<path fill="none" stroke="black" d="M104.16,-138.28C119.51,-121.44 144.93,-97.51 173,-87.46 326.15,-32.62 525.49,-67.52 607.62,-86.05"/>
<polygon fill="black" stroke="black" points="606.97,-89.5 617.5,-88.33 608.54,-82.67 606.97,-89.5"/>
<text text-anchor="start" x="185.5" y="-90.46" font-family="Helvetica,sans-Serif" font-size="10.00">Refresh &#45; Successful preparing to known when cluster is no longer preparing &#160;&#160;</text>
</g>
<!-- preparing&#45;successful&#45;&gt;preparing&#45;successful -->
<g id="edge3" class="edge transition">
<title>preparing&#45;successful&#45;&gt;preparing&#45;successful</title>
<path fill="none" stroke="black" d="M39.52,-174.61C32.06,-184 48.22,-192.46 88,-192.46 112.55,-192.46 128.11,-189.23 134.67,-184.56"/>
<polygon fill="black" stroke="black" points="138.13,-185.08 136.48,-174.61 131.24,-183.82 138.13,-185.08"/>
<text text-anchor="start" x="0" y="-195.46" font-family="Helvetica,sans-Serif" font-size="10.00">Refresh &#45; Stay in preparing successful &#160;&#160;</text>
</g>
<!-- resetting&#45;pending&#45;user&#45;action -->
<g id="node7" class="node state regular">
<title>resetting&#45;pending&#45;user&#45;action</title>
<polygon fill="#ffffff" fill-opacity="0.003922" stroke="transparent" stroke-width="2" points="736,-59.46 557,-59.46 557,-23.46 736,-23.46 736,-59.46"/>
<text text-anchor="start" x="568.5" y="-37.86" font-family="Helvetica,sans-Serif" font-size="12.00">resetting&#45;pending&#45;user&#45;action</text>
<path fill="none" stroke="black" stroke-width="2" d="M569,-24.96C569,-24.96 724,-24.96 724,-24.96 729.5,-24.96 735,-30.46 735,-35.96 735,-35.96 735,-46.96 735,-46.96 735,-52.46 729.5,-57.96 724,-57.96 724,-57.96 569,-57.96 569,-57.96 563.5,-57.96 558,-52.46 558,-46.96 558,-46.96 558,-35.96 558,-35.96 558,-30.46 563.5,-24.96 569,-24.96"/>
</g>
<!-- preparing&#45;successful&#45;&gt;resetting&#45;pending&#45;user&#45;action -->
<g id="edge8" class="edge transition">
<title>preparing&#45;successful&#45;&gt;resetting&#45;pending&#45;user&#45;action</title>
<path fill="none" stroke="black" d="M95.99,-138.46C107.47,-111.77 133.09,-62.68 173,-42.46 299.11,21.43 469.55,-0.24 567.49,-21.23"/>
<polygon fill="black" stroke="black" points="566.8,-24.67 577.32,-23.39 568.3,-17.83 566.8,-24.67"/>
<text text-anchor="start" x="200.5" y="-45.46" font-family="Helvetica,sans-Serif" font-size="10.00">Resetting, Pending User Action &#45; Reset pending user action all states &#160;&#160;</text>
</g>
</g>
</svg>
