<?xml version="1.0" encoding="UTF-8" standalone="no"?>
<!DOCTYPE svg PUBLIC "-//W3C//DTD SVG 1.1//EN"
 "http://www.w3.org/Graphics/SVG/1.1/DTD/svg11.dtd">
<!-- Generated by graphviz version 7.1.0 (0)
 -->
<!-- Title: state transitions Pages: 1 -->
<svg width="1007pt" height="212pt"
 viewBox="0.00 0.00 1007.00 212.00" xmlns="http://www.w3.org/2000/svg" xmlns:xlink="http://www.w3.org/1999/xlink">
<g id="graph0" class="graph" transform="scale(1 1) rotate(0) translate(4 208)">
<title>state transitions</title>
<polygon fill="white" stroke="none" points="-4,4 -4,-208 1003,-208 1003,4 -4,4"/>
<!-- cancelled -->
<g id="node1" class="node state regular">
<title>cancelled</title>
<polygon fill="#ffffff" fill-opacity="0.003922" stroke="none" stroke-width="2" points="946.5,-198 872.5,-198 872.5,-162 946.5,-162 946.5,-198"/>
<text text-anchor="start" x="883.5" y="-176.4" font-family="Helvetica,sans-Serif" font-size="12.00">cancelled</text>
<path fill="none" stroke="black" stroke-width="2" d="M884.5,-163.5C884.5,-163.5 934.5,-163.5 934.5,-163.5 940,-163.5 945.5,-169 945.5,-174.5 945.5,-174.5 945.5,-185.5 945.5,-185.5 945.5,-191 940,-196.5 934.5,-196.5 934.5,-196.5 884.5,-196.5 884.5,-196.5 879,-196.5 873.5,-191 873.5,-185.5 873.5,-185.5 873.5,-174.5 873.5,-174.5 873.5,-169 879,-163.5 884.5,-163.5"/>
</g>
<!-- error -->
<g id="node2" class="node state regular">
<title>error</title>
<polygon fill="#ffffff" fill-opacity="0.003922" stroke="none" stroke-width="2" points="937.5,-144 881.5,-144 881.5,-108 937.5,-108 937.5,-144"/>
<text text-anchor="start" x="897" y="-122.4" font-family="Helvetica,sans-Serif" font-size="12.00">error</text>
<path fill="none" stroke="black" stroke-width="2" d="M893.5,-109.5C893.5,-109.5 925.5,-109.5 925.5,-109.5 931,-109.5 936.5,-115 936.5,-120.5 936.5,-120.5 936.5,-131.5 936.5,-131.5 936.5,-137 931,-142.5 925.5,-142.5 925.5,-142.5 893.5,-142.5 893.5,-142.5 888,-142.5 882.5,-137 882.5,-131.5 882.5,-131.5 882.5,-120.5 882.5,-120.5 882.5,-115 888,-109.5 893.5,-109.5"/>
</g>
<!-- installing&#45;in&#45;progress -->
<g id="node3" class="node state regular">
<title>installing&#45;in&#45;progress</title>
<polygon fill="#ffffff" fill-opacity="0.003922" stroke="none" stroke-width="2" points="976.5,-90 842.5,-90 842.5,-54 976.5,-54 976.5,-90"/>
<text text-anchor="start" x="853.5" y="-68.4" font-family="Helvetica,sans-Serif" font-size="12.00">installing&#45;in&#45;progress</text>
<path fill="none" stroke="black" stroke-width="2" d="M854.5,-55.5C854.5,-55.5 964.5,-55.5 964.5,-55.5 970,-55.5 975.5,-61 975.5,-66.5 975.5,-66.5 975.5,-77.5 975.5,-77.5 975.5,-83 970,-88.5 964.5,-88.5 964.5,-88.5 854.5,-88.5 854.5,-88.5 849,-88.5 843.5,-83 843.5,-77.5 843.5,-77.5 843.5,-66.5 843.5,-66.5 843.5,-61 849,-55.5 854.5,-55.5"/>
</g>
<!-- installing&#45;pending&#45;user&#45;action -->
<g id="node4" class="node state regular">
<title>installing&#45;pending&#45;user&#45;action</title>
<polygon fill="#ffffff" fill-opacity="0.003922" stroke="none" stroke-width="2" points="473,-117 292,-117 292,-81 473,-81 473,-117"/>
<text text-anchor="start" x="303.5" y="-95.4" font-family="Helvetica,sans-Serif" font-size="12.00">installing&#45;pending&#45;user&#45;action</text>
<path fill="none" stroke="black" stroke-width="2" d="M304,-82.5C304,-82.5 461,-82.5 461,-82.5 466.5,-82.5 472,-88 472,-93.5 472,-93.5 472,-104.5 472,-104.5 472,-110 466.5,-115.5 461,-115.5 461,-115.5 304,-115.5 304,-115.5 298.5,-115.5 293,-110 293,-104.5 293,-104.5 293,-93.5 293,-93.5 293,-88 298.5,-82.5 304,-82.5"/>
</g>
<!-- installing&#45;pending&#45;user&#45;action&#45;&gt;cancelled -->
<g id="edge1" class="edge transition">
<title>installing&#45;pending&#45;user&#45;action&#45;&gt;cancelled</title>
<path fill="none" stroke="black" d="M429.71,-116.91C448.48,-123.54 470.52,-130.52 491,-135 623.27,-163.92 783.35,-174.56 861.28,-178.23"/>
<polygon fill="black" stroke="black" points="860.96,-181.72 871.11,-178.67 861.27,-174.72 860.96,-181.72"/>
<text text-anchor="start" x="503" y="-177" font-family="Helvetica,sans-Serif" font-size="10.00">Cancel Installation &#45; Installation canceled while host is installing &#160;&#160;</text>
</g>
<!-- installing&#45;pending&#45;user&#45;action&#45;&gt;error -->
<g id="edge4" class="edge transition">
<title>installing&#45;pending&#45;user&#45;action&#45;&gt;error</title>
<path fill="none" stroke="black" d="M472.86,-103.6C589.19,-109.58 787.43,-119.77 870.31,-124.04"/>
<polygon fill="black" stroke="black" points="870,-127.52 880.17,-124.54 870.36,-120.53 870,-127.52"/>
<text text-anchor="start" x="530" y="-123" font-family="Helvetica,sans-Serif" font-size="10.00">Refresh &#45; Move host to error when cluster is in error &#160;&#160;</text>
</g>
<!-- installing&#45;pending&#45;user&#45;action&#45;&gt;installing&#45;in&#45;progress -->
<g id="edge2" class="edge transition">
<title>installing&#45;pending&#45;user&#45;action&#45;&gt;installing&#45;in&#45;progress</title>
<path fill="none" stroke="black" d="M472.95,-93.97C479.06,-93.64 485.12,-93.31 491,-93 609.71,-86.7 747.43,-79.87 831.23,-75.76"/>
<polygon fill="black" stroke="black" points="831.36,-79.26 841.18,-75.27 831.02,-72.27 831.36,-79.26"/>
<text text-anchor="start" x="564" y="-96" font-family="Helvetica,sans-Serif" font-size="10.00">null &#45; default host progress changed &#160;&#160;</text>
</g>
<!-- installing&#45;pending&#45;user&#45;action&#45;&gt;installing&#45;pending&#45;user&#45;action -->
<g id="edge3" class="edge transition">
<title>installing&#45;pending&#45;user&#45;action&#45;&gt;installing&#45;pending&#45;user&#45;action</title>
<path fill="none" stroke="black" d="M366.68,-116.78C363.99,-126.31 369.27,-135 382.5,-135 389.94,-135 394.87,-132.25 397.28,-128.15"/>
<polygon fill="black" stroke="black" points="400.75,-128.57 398.18,-118.29 393.78,-127.93 400.75,-128.57"/>
<text text-anchor="start" x="0" y="-138" font-family="Helvetica,sans-Serif" font-size="10.00">null &#45; Host progress change during installing&#45;pending&#45;user&#45;action state when host is not in state Done (or Rebooting in day2) should stay in installing&#45;pending&#45;user&#45;action state &#160;&#160;</text>
</g>
<!-- installing&#45;pending&#45;user&#45;action&#45;&gt;installing&#45;pending&#45;user&#45;action -->
<g id="edge5" class="edge transition">
<title>installing&#45;pending&#45;user&#45;action&#45;&gt;installing&#45;pending&#45;user&#45;action</title>
<path fill="none" stroke="black" d="M356.04,-116.98C341.88,-134.2 350.7,-153 382.5,-153 408.33,-153 419,-140.59 414.5,-126.7"/>
<polygon fill="black" stroke="black" points="417.7,-125.25 409.71,-118.29 411.62,-128.71 417.7,-125.25"/>
<text text-anchor="start" x="94.5" y="-156" font-family="Helvetica,sans-Serif" font-size="10.00">Refresh &#45; Refresh during installing&#45;pending&#45;user&#45;action state without cluster error should stay in installing&#45;pending&#45;user&#45;action state &#160;&#160;</text>
</g>
<!-- installing&#45;pending&#45;user&#45;action&#45;&gt;installing&#45;pending&#45;user&#45;action -->
<g id="edge6" class="edge transition">
<title>installing&#45;pending&#45;user&#45;action&#45;&gt;installing&#45;pending&#45;user&#45;action</title>
<path fill="none" stroke="black" d="M349.54,-116.72C319.44,-141.11 330.42,-171 382.5,-171 429.09,-171 442.79,-147.09 423.61,-124.58"/>
<polygon fill="black" stroke="black" points="426.17,-122.19 416.55,-117.77 421.32,-127.23 426.17,-122.19"/>
<text text-anchor="start" x="284.5" y="-174" font-family="Helvetica,sans-Serif" font-size="10.00">Register Host &#45; Wrong boot order detection &#160;&#160;</text>
</g>
<!-- resetting&#45;pending&#45;user&#45;action -->
<g id="node5" class="node state regular">
<title>resetting&#45;pending&#45;user&#45;action</title>
<polygon fill="#ffffff" fill-opacity="0.003922" stroke="none" stroke-width="2" points="999,-36 820,-36 820,0 999,0 999,-36"/>
<text text-anchor="start" x="831.5" y="-14.4" font-family="Helvetica,sans-Serif" font-size="12.00">resetting&#45;pending&#45;user&#45;action</text>
<path fill="none" stroke="black" stroke-width="2" d="M832,-1.5C832,-1.5 987,-1.5 987,-1.5 992.5,-1.5 998,-7 998,-12.5 998,-12.5 998,-23.5 998,-23.5 998,-29 992.5,-34.5 987,-34.5 987,-34.5 832,-34.5 832,-34.5 826.5,-34.5 821,-29 821,-23.5 821,-23.5 821,-12.5 821,-12.5 821,-7 826.5,-1.5 832,-1.5"/>
</g>
<!-- installing&#45;pending&#45;user&#45;action&#45;&gt;resetting&#45;pending&#45;user&#45;action -->
<g id="edge7" class="edge transition">
<title>installing&#45;pending&#45;user&#45;action&#45;&gt;resetting&#45;pending&#45;user&#45;action</title>
<path fill="none" stroke="black" d="M428.35,-81.02C447.39,-74.06 470,-66.66 491,-62 597.97,-38.28 723.29,-27.24 808.51,-22.17"/>
<polygon fill="black" stroke="black" points="808.71,-25.67 818.49,-21.6 808.31,-18.68 808.71,-25.67"/>
<text text-anchor="start" x="491" y="-65" font-family="Helvetica,sans-Serif" font-size="10.00">Resetting, Pending User Action &#45; Reset pending user action all states &#160;&#160;</text>
</g>
</g>
</svg>
