<?xml version="1.0" encoding="UTF-8" standalone="no"?>
<!DOCTYPE svg PUBLIC "-//W3C//DTD SVG 1.1//EN"
 "http://www.w3.org/Graphics/SVG/1.1/DTD/svg11.dtd">
<!-- Generated by graphviz version 5.0.0 (0)
 -->
<!-- Title: state transitions Pages: 1 -->
<svg width="600pt" height="98pt"
 viewBox="0.00 0.00 600.00 98.00" xmlns="http://www.w3.org/2000/svg" xmlns:xlink="http://www.w3.org/1999/xlink">
<g id="graph0" class="graph" transform="scale(1 1) rotate(0) translate(4 94)">
<title>state transitions</title>
<polygon fill="white" stroke="transparent" points="-4,4 -4,-94 596,-94 596,4 -4,4"/>
<!-- binding -->
<g id="node1" class="node state regular">
<title>binding</title>
<polygon fill="#ffffff" fill-opacity="0.003922" stroke="transparent" stroke-width="2" points="62,-63 0,-63 0,-27 62,-27 62,-63"/>
<text text-anchor="start" x="11" y="-41.4" font-family="Helvetica,sans-Serif" font-size="12.00">binding</text>
<path fill="none" stroke="black" stroke-width="2" d="M12,-28.5C12,-28.5 50,-28.5 50,-28.5 55.5,-28.5 61,-34 61,-39.5 61,-39.5 61,-50.5 61,-50.5 61,-56 55.5,-61.5 50,-61.5 50,-61.5 12,-61.5 12,-61.5 6.5,-61.5 1,-56 1,-50.5 1,-50.5 1,-39.5 1,-39.5 1,-34 6.5,-28.5 12,-28.5"/>
</g>
<!-- disconnected -->
<g id="node2" class="node state regular">
<title>disconnected</title>
<polygon fill="#ffffff" fill-opacity="0.003922" stroke="transparent" stroke-width="2" points="592,-90 498,-90 498,-54 592,-54 592,-90"/>
<text text-anchor="start" x="509" y="-68.4" font-family="Helvetica,sans-Serif" font-size="12.00">disconnected</text>
<path fill="none" stroke="black" stroke-width="2" d="M510,-55.5C510,-55.5 580,-55.5 580,-55.5 585.5,-55.5 591,-61 591,-66.5 591,-66.5 591,-77.5 591,-77.5 591,-83 585.5,-88.5 580,-88.5 580,-88.5 510,-88.5 510,-88.5 504.5,-88.5 499,-83 499,-77.5 499,-77.5 499,-66.5 499,-66.5 499,-61 504.5,-55.5 510,-55.5"/>
</g>
<!-- binding&#45;&gt;disconnected -->
<g id="edge1" class="edge transition">
<title>binding&#45;&gt;disconnected</title>
<path fill="none" stroke="black" d="M62.12,-46.59C145.39,-50.98 379.7,-63.34 487.92,-69.04"/>
<polygon fill="black" stroke="black" points="487.82,-72.54 497.99,-69.57 488.19,-65.55 487.82,-72.54"/>
<text text-anchor="start" x="80" y="-71" font-family="Helvetica,sans-Serif" font-size="10.00">Media Disconnect &#45; Move to disconnected when virtual media disconnects pre&#45;installation &#160;&#160;</text>
</g>
<!-- discovering -->
<g id="node3" class="node state regular">
<title>discovering</title>
<polygon fill="#ffffff" fill-opacity="0.003922" stroke="transparent" stroke-width="2" points="587,-36 503,-36 503,0 587,0 587,-36"/>
<text text-anchor="start" x="514" y="-14.4" font-family="Helvetica,sans-Serif" font-size="12.00">discovering</text>
<path fill="none" stroke="black" stroke-width="2" d="M515,-1.5C515,-1.5 575,-1.5 575,-1.5 580.5,-1.5 586,-7 586,-12.5 586,-12.5 586,-23.5 586,-23.5 586,-29 580.5,-34.5 575,-34.5 575,-34.5 515,-34.5 515,-34.5 509.5,-34.5 504,-29 504,-23.5 504,-23.5 504,-12.5 504,-12.5 504,-7 509.5,-1.5 515,-1.5"/>
</g>
<!-- binding&#45;&gt;discovering -->
<g id="edge2" class="edge transition">
<title>binding&#45;&gt;discovering</title>
<path fill="none" stroke="black" d="M62.24,-35.66C68.08,-34.18 74.19,-32.86 80,-32 228.61,-9.95 406.84,-12.59 492.74,-15.65"/>
<polygon fill="black" stroke="black" points="492.63,-19.15 502.75,-16.03 492.89,-12.16 492.63,-19.15"/>
<text text-anchor="start" x="209" y="-35" font-family="Helvetica,sans-Serif" font-size="10.00">Register Host &#45; Re&#45;registration &#160;&#160;</text>
</g>
</g>
</svg>
