<?xml version="1.0" encoding="UTF-8" standalone="no"?>
<!DOCTYPE svg PUBLIC "-//W3C//DTD SVG 1.1//EN"
 "http://www.w3.org/Graphics/SVG/1.1/DTD/svg11.dtd">
<!-- Generated by graphviz version 12.1.0 (20240811.2233)
 -->
<!-- Title: state transitions Pages: 1 -->
<svg width="827pt" height="237pt"
 viewBox="0.00 0.00 826.75 237.06" xmlns="http://www.w3.org/2000/svg" xmlns:xlink="http://www.w3.org/1999/xlink">
<g id="graph0" class="graph" transform="scale(1 1) rotate(0) translate(4 233.06)">
<title>state transitions</title>
<polygon fill="white" stroke="none" points="-4,4 -4,-233.06 822.75,-233.06 822.75,4 -4,4"/>
<!-- cancelled -->
<g id="node1" class="node state regular">
<title>cancelled</title>
<polygon fill="#ffffff" fill-opacity="0.003922" stroke="none" stroke-width="2" points="756.12,-160.06 677.12,-160.06 677.12,-123.81 756.12,-123.81 756.12,-160.06"/>
<text text-anchor="start" x="688.12" y="-137.66" font-family="Helvetica,sans-Serif" font-size="12.00">cancelled</text>
<path fill="none" stroke="black" stroke-width="2" d="M689.54,-124.81C689.54,-124.81 743.71,-124.81 743.71,-124.81 749.42,-124.81 755.12,-130.52 755.12,-136.23 755.12,-136.23 755.12,-147.65 755.12,-147.65 755.12,-153.35 749.42,-159.06 743.71,-159.06 743.71,-159.06 689.54,-159.06 689.54,-159.06 683.83,-159.06 678.12,-153.35 678.12,-147.65 678.12,-147.65 678.12,-136.23 678.12,-136.23 678.12,-130.52 683.83,-124.81 689.54,-124.81"/>
</g>
<!-- error -->
<g id="node2" class="node state regular">
<title>error</title>
<polygon fill="#ffffff" fill-opacity="0.003922" stroke="none" stroke-width="2" points="234.25,-106.06 178.25,-106.06 178.25,-69.81 234.25,-69.81 234.25,-106.06"/>
<text text-anchor="start" x="191.62" y="-83.66" font-family="Helvetica,sans-Serif" font-size="12.00">error</text>
<path fill="none" stroke="black" stroke-width="2" d="M190.67,-70.81C190.67,-70.81 221.83,-70.81 221.83,-70.81 227.54,-70.81 233.25,-76.52 233.25,-82.23 233.25,-82.23 233.25,-93.65 233.25,-93.65 233.25,-99.35 227.54,-105.06 221.83,-105.06 221.83,-105.06 190.67,-105.06 190.67,-105.06 184.96,-105.06 179.25,-99.35 179.25,-93.65 179.25,-93.65 179.25,-82.23 179.25,-82.23 179.25,-76.52 184.96,-70.81 190.67,-70.81"/>
</g>
<!-- error&#45;&gt;cancelled -->
<g id="edge1" class="edge transition">
<title>error&#45;&gt;cancelled</title>
<path fill="none" stroke="black" d="M234,-99.45C239.92,-101.6 246.22,-103.59 252.25,-104.94 400.04,-138.06 580.17,-142.5 665.8,-142.52"/>
<polygon fill="black" stroke="black" points="665.74,-146.02 675.73,-142.49 665.72,-139.02 665.74,-146.02"/>
<text text-anchor="start" x="262.75" y="-144.7" font-family="Helvetica,sans-Serif" font-size="10.00">Cancel Installation &#45; Installation canceled while host is installing &#160;&#160;</text>
</g>
<!-- error&#45;&gt;error -->
<g id="edge2" class="edge transition">
<title>error&#45;&gt;error</title>
<path fill="none" stroke="black" d="M196.45,-105.78C194.78,-115.35 198.05,-124.06 206.25,-124.06 210.86,-124.06 213.92,-121.31 215.41,-117.19"/>
<polygon fill="black" stroke="black" points="218.9,-117.47 215.97,-107.29 211.91,-117.08 218.9,-117.47"/>
<text text-anchor="start" x="0" y="-127.31" font-family="Helvetica,sans-Serif" font-size="10.00">Media Disconnect &#45; Move to error when virtual media disconnects post&#45;installation &#160;&#160;</text>
</g>
<!-- error&#45;&gt;error -->
<g id="edge4" class="edge transition">
<title>error&#45;&gt;error</title>
<path fill="none" stroke="black" d="M189.86,-105.96C181.08,-123.22 186.55,-142.06 206.25,-142.06 221.95,-142.06 228.61,-130.1 226.23,-116.5"/>
<polygon fill="black" stroke="black" points="229.66,-115.73 223.13,-107.39 223.04,-117.99 229.66,-115.73"/>
<text text-anchor="start" x="40.5" y="-145.31" font-family="Helvetica,sans-Serif" font-size="10.00">Refresh &#45; Log collection timed out during error should stay in error &#160;&#160;</text>
</g>
<!-- error&#45;&gt;error -->
<g id="edge5" class="edge transition">
<title>error&#45;&gt;error</title>
<path fill="none" stroke="black" d="M185.55,-106.05C167.24,-130.42 174.14,-160.06 206.25,-160.06 234.22,-160.06 243.06,-137.57 232.77,-115.66"/>
<polygon fill="black" stroke="black" points="235.91,-114.08 227.73,-107.34 229.92,-117.71 235.91,-114.08"/>
<text text-anchor="start" x="80.62" y="-163.31" font-family="Helvetica,sans-Serif" font-size="10.00">Refresh &#45; Refresh during error should stay in error &#160;&#160;</text>
</g>
<!-- error&#45;&gt;error -->
<g id="edge6" class="edge transition">
<title>error&#45;&gt;error</title>
<path fill="none" stroke="black" d="M182.97,-105.63C153.33,-136.86 161.09,-178.06 206.25,-178.06 247.35,-178.06 257.47,-143.93 236.62,-114.25"/>
<polygon fill="black" stroke="black" points="239.55,-112.31 230.5,-106.8 234.14,-116.75 239.55,-112.31"/>
<text text-anchor="start" x="113.62" y="-181.31" font-family="Helvetica,sans-Serif" font-size="10.00">Register Host &#45; Register during error &#160;&#160;</text>
</g>
<!-- unbinding&#45;pending&#45;user&#45;action -->
<g id="node3" class="node state regular">
<title>unbinding&#45;pending&#45;user&#45;action</title>
<polygon fill="#ffffff" fill-opacity="0.003922" stroke="none" stroke-width="2" points="818.75,-106.06 614.5,-106.06 614.5,-69.81 818.75,-69.81 818.75,-106.06"/>
<text text-anchor="start" x="625.5" y="-83.66" font-family="Helvetica,sans-Serif" font-size="12.00">unbinding&#45;pending&#45;user&#45;action</text>
<path fill="none" stroke="black" stroke-width="2" d="M626.92,-70.81C626.92,-70.81 806.33,-70.81 806.33,-70.81 812.04,-70.81 817.75,-76.52 817.75,-82.23 817.75,-82.23 817.75,-93.65 817.75,-93.65 817.75,-99.35 812.04,-105.06 806.33,-105.06 806.33,-105.06 626.92,-105.06 626.92,-105.06 621.21,-105.06 615.5,-99.35 615.5,-93.65 615.5,-93.65 615.5,-82.23 615.5,-82.23 615.5,-76.52 621.21,-70.81 626.92,-70.81"/>
</g>
<!-- error&#45;&gt;unbinding&#45;pending&#45;user&#45;action -->
<g id="edge3" class="edge transition">
<title>error&#45;&gt;unbinding&#45;pending&#45;user&#45;action</title>
<path fill="none" stroke="black" d="M234.22,-87.94C302.18,-87.94 483.54,-87.94 603.23,-87.94"/>
<polygon fill="black" stroke="black" points="603.1,-91.44 613.1,-87.94 603.1,-84.44 603.1,-91.44"/>
<text text-anchor="start" x="335.12" y="-91.19" font-family="Helvetica,sans-Serif" font-size="10.00">Reclaim Host &#45; Reclaim failed host &#160;&#160;</text>
</g>
<!-- error&#45;&gt;unbinding&#45;pending&#45;user&#45;action -->
<g id="edge8" class="edge transition">
<title>error&#45;&gt;unbinding&#45;pending&#45;user&#45;action</title>
<path fill="none" stroke="black" d="M233.94,-76.24C239.86,-74.14 246.18,-72.28 252.25,-71.19 402.83,-44.07 443.87,-60.51 596.5,-71.19 598.73,-71.34 600.97,-71.52 603.24,-71.7"/>
<polygon fill="black" stroke="black" points="602.88,-75.18 613.16,-72.61 603.52,-68.21 602.88,-75.18"/>
<text text-anchor="start" x="302.88" y="-74.44" font-family="Helvetica,sans-Serif" font-size="10.00">Unbind Host &#45; Unbind during or after installation &#160;&#160;</text>
</g>
<!-- resetting&#45;pending&#45;user&#45;action -->
<g id="node4" class="node state regular">
<title>resetting&#45;pending&#45;user&#45;action</title>
<polygon fill="#ffffff" fill-opacity="0.003922" stroke="none" stroke-width="2" points="815.75,-52.06 617.5,-52.06 617.5,-15.81 815.75,-15.81 815.75,-52.06"/>
<text text-anchor="start" x="628.5" y="-29.66" font-family="Helvetica,sans-Serif" font-size="12.00">resetting&#45;pending&#45;user&#45;action</text>
<path fill="none" stroke="black" stroke-width="2" d="M629.92,-16.81C629.92,-16.81 803.33,-16.81 803.33,-16.81 809.04,-16.81 814.75,-22.52 814.75,-28.23 814.75,-28.23 814.75,-39.65 814.75,-39.65 814.75,-45.35 809.04,-51.06 803.33,-51.06 803.33,-51.06 629.92,-51.06 629.92,-51.06 624.21,-51.06 618.5,-45.35 618.5,-39.65 618.5,-39.65 618.5,-28.23 618.5,-28.23 618.5,-22.52 624.21,-16.81 629.92,-16.81"/>
</g>
<!-- error&#45;&gt;resetting&#45;pending&#45;user&#45;action -->
<g id="edge7" class="edge transition">
<title>error&#45;&gt;resetting&#45;pending&#45;user&#45;action</title>
<path fill="none" stroke="black" d="M218.21,-70.04C226.13,-58.91 237.94,-45.55 252.25,-39.19 370.87,13.55 524.05,1.89 621.1,-13.94"/>
<polygon fill="black" stroke="black" points="620.42,-17.37 630.86,-15.58 621.59,-10.47 620.42,-17.37"/>
<text text-anchor="start" x="252.25" y="-42.44" font-family="Helvetica,sans-Serif" font-size="10.00">Resetting, Pending User Action &#45; Reset pending user action all states &#160;&#160;</text>
</g>
</g>
</svg>
