<?xml version="1.0" encoding="UTF-8" standalone="no"?>
<!DOCTYPE svg PUBLIC "-//W3C//DTD SVG 1.1//EN"
 "http://www.w3.org/Graphics/SVG/1.1/DTD/svg11.dtd">
<!-- Generated by graphviz version 5.0.0 (0)
 -->
<!-- Title: state transitions Pages: 1 -->
<svg width="773pt" height="264pt"
 viewBox="0.00 0.00 773.00 264.00" xmlns="http://www.w3.org/2000/svg" xmlns:xlink="http://www.w3.org/1999/xlink">
<g id="graph0" class="graph" transform="scale(1 1) rotate(0) translate(4 260)">
<title>state transitions</title>
<polygon fill="white" stroke="transparent" points="-4,4 -4,-260 769,-260 769,4 -4,4"/>
<!-- cancelled -->
<g id="node1" class="node state regular">
<title>cancelled</title>
<polygon fill="#ffffff" fill-opacity="0.003922" stroke="transparent" stroke-width="2" points="709,-252 635,-252 635,-216 709,-216 709,-252"/>
<text text-anchor="start" x="646" y="-230.4" font-family="Helvetica,sans-Serif" font-size="12.00">cancelled</text>
<path fill="none" stroke="black" stroke-width="2" d="M647,-217.5C647,-217.5 697,-217.5 697,-217.5 702.5,-217.5 708,-223 708,-228.5 708,-228.5 708,-239.5 708,-239.5 708,-245 702.5,-250.5 697,-250.5 697,-250.5 647,-250.5 647,-250.5 641.5,-250.5 636,-245 636,-239.5 636,-239.5 636,-228.5 636,-228.5 636,-223 641.5,-217.5 647,-217.5"/>
</g>
<!-- error -->
<g id="node2" class="node state regular">
<title>error</title>
<polygon fill="#ffffff" fill-opacity="0.003922" stroke="transparent" stroke-width="2" points="700,-198 644,-198 644,-162 700,-162 700,-198"/>
<text text-anchor="start" x="659.5" y="-176.4" font-family="Helvetica,sans-Serif" font-size="12.00">error</text>
<path fill="none" stroke="black" stroke-width="2" d="M656,-163.5C656,-163.5 688,-163.5 688,-163.5 693.5,-163.5 699,-169 699,-174.5 699,-174.5 699,-185.5 699,-185.5 699,-191 693.5,-196.5 688,-196.5 688,-196.5 656,-196.5 656,-196.5 650.5,-196.5 645,-191 645,-185.5 645,-185.5 645,-174.5 645,-174.5 645,-169 650.5,-163.5 656,-163.5"/>
</g>
<!-- installed -->
<g id="node3" class="node state regular">
<title>installed</title>
<polygon fill="#ffffff" fill-opacity="0.003922" stroke="transparent" stroke-width="2" points="232,-144 164,-144 164,-108 232,-108 232,-144"/>
<text text-anchor="start" x="175" y="-122.4" font-family="Helvetica,sans-Serif" font-size="12.00">installed</text>
<path fill="none" stroke="black" stroke-width="2" d="M176,-109.5C176,-109.5 220,-109.5 220,-109.5 225.5,-109.5 231,-115 231,-120.5 231,-120.5 231,-131.5 231,-131.5 231,-137 225.5,-142.5 220,-142.5 220,-142.5 176,-142.5 176,-142.5 170.5,-142.5 165,-137 165,-131.5 165,-131.5 165,-120.5 165,-120.5 165,-115 170.5,-109.5 176,-109.5"/>
</g>
<!-- installed&#45;&gt;cancelled -->
<g id="edge1" class="edge transition">
<title>installed&#45;&gt;cancelled</title>
<path fill="none" stroke="black" d="M208.2,-144.27C216.82,-159.28 231.18,-179.69 250,-190 371.67,-256.64 542.83,-248.92 624.32,-240.28"/>
<polygon fill="black" stroke="black" points="625.2,-243.7 634.75,-239.11 624.42,-236.74 625.2,-243.7"/>
<text text-anchor="start" x="262" y="-248" font-family="Helvetica,sans-Serif" font-size="10.00">Cancel Installation &#45; Installation canceled while host is installing &#160;&#160;</text>
</g>
<!-- installed&#45;&gt;error -->
<g id="edge3" class="edge transition">
<title>installed&#45;&gt;error</title>
<path fill="none" stroke="black" d="M232.24,-136.78C238.11,-138.4 244.2,-139.89 250,-141 389.83,-167.78 559.45,-176.37 633.45,-178.96"/>
<polygon fill="black" stroke="black" points="633.54,-182.46 643.65,-179.3 633.78,-175.47 633.54,-182.46"/>
<text text-anchor="start" x="289" y="-178" font-family="Helvetica,sans-Serif" font-size="10.00">Refresh &#45; Move host to error when cluster is in error &#160;&#160;</text>
</g>
<!-- installed&#45;&gt;installed -->
<g id="edge4" class="edge transition">
<title>installed&#45;&gt;installed</title>
<path fill="none" stroke="black" d="M163.94,-140.42C152.04,-151.17 163.4,-162 198,-162 222.33,-162 235.17,-156.64 236.51,-149.73"/>
<polygon fill="black" stroke="black" points="239.53,-147.93 232.06,-140.42 233.21,-150.95 239.53,-147.93"/>
<text text-anchor="start" x="0" y="-165" font-family="Helvetica,sans-Serif" font-size="10.00">Refresh &#45; Refresh during installed state without cluster error should stay in installed state &#160;&#160;</text>
</g>
<!-- reclaiming -->
<g id="node4" class="node state regular">
<title>reclaiming</title>
<polygon fill="#ffffff" fill-opacity="0.003922" stroke="transparent" stroke-width="2" points="711,-144 633,-144 633,-108 711,-108 711,-144"/>
<text text-anchor="start" x="644" y="-122.4" font-family="Helvetica,sans-Serif" font-size="12.00">reclaiming</text>
<path fill="none" stroke="black" stroke-width="2" d="M645,-109.5C645,-109.5 699,-109.5 699,-109.5 704.5,-109.5 710,-115 710,-120.5 710,-120.5 710,-131.5 710,-131.5 710,-137 704.5,-142.5 699,-142.5 699,-142.5 645,-142.5 645,-142.5 639.5,-142.5 634,-137 634,-131.5 634,-131.5 634,-120.5 634,-120.5 634,-115 639.5,-109.5 645,-109.5"/>
</g>
<!-- installed&#45;&gt;reclaiming -->
<g id="edge2" class="edge transition">
<title>installed&#45;&gt;reclaiming</title>
<path fill="none" stroke="black" d="M232.19,-126C314.21,-126 526.72,-126 622.7,-126"/>
<polygon fill="black" stroke="black" points="622.99,-129.5 632.98,-126 622.98,-122.5 622.99,-129.5"/>
<text text-anchor="start" x="313" y="-129" font-family="Helvetica,sans-Serif" font-size="10.00">Reclaim Host &#45; Reclaim successful host &#160;&#160;</text>
</g>
<!-- resetting&#45;pending&#45;user&#45;action -->
<g id="node5" class="node state regular">
<title>resetting&#45;pending&#45;user&#45;action</title>
<polygon fill="#ffffff" fill-opacity="0.003922" stroke="transparent" stroke-width="2" points="761.5,-90 582.5,-90 582.5,-54 761.5,-54 761.5,-90"/>
<text text-anchor="start" x="594" y="-68.4" font-family="Helvetica,sans-Serif" font-size="12.00">resetting&#45;pending&#45;user&#45;action</text>
<path fill="none" stroke="black" stroke-width="2" d="M594.5,-55.5C594.5,-55.5 749.5,-55.5 749.5,-55.5 755,-55.5 760.5,-61 760.5,-66.5 760.5,-66.5 760.5,-77.5 760.5,-77.5 760.5,-83 755,-88.5 749.5,-88.5 749.5,-88.5 594.5,-88.5 594.5,-88.5 589,-88.5 583.5,-83 583.5,-77.5 583.5,-77.5 583.5,-66.5 583.5,-66.5 583.5,-61 589,-55.5 594.5,-55.5"/>
</g>
<!-- installed&#45;&gt;resetting&#45;pending&#45;user&#45;action -->
<g id="edge5" class="edge transition">
<title>installed&#45;&gt;resetting&#45;pending&#45;user&#45;action</title>
<path fill="none" stroke="black" d="M232.24,-115.22C238.11,-113.6 244.2,-112.11 250,-111 359.22,-90.08 486.62,-80.26 572.42,-75.73"/>
<polygon fill="black" stroke="black" points="572.6,-79.23 582.41,-75.22 572.25,-72.24 572.6,-79.23"/>
<text text-anchor="start" x="250" y="-114" font-family="Helvetica,sans-Serif" font-size="10.00">Resetting, Pending User Action &#45; Reset pending user action all states &#160;&#160;</text>
</g>
<!-- unbinding&#45;pending&#45;user&#45;action -->
<g id="node6" class="node state regular">
<title>unbinding&#45;pending&#45;user&#45;action</title>
<polygon fill="#ffffff" fill-opacity="0.003922" stroke="transparent" stroke-width="2" points="765,-36 579,-36 579,0 765,0 765,-36"/>
<text text-anchor="start" x="590" y="-14.4" font-family="Helvetica,sans-Serif" font-size="12.00">unbinding&#45;pending&#45;user&#45;action</text>
<path fill="none" stroke="black" stroke-width="2" d="M591,-1.5C591,-1.5 753,-1.5 753,-1.5 758.5,-1.5 764,-7 764,-12.5 764,-12.5 764,-23.5 764,-23.5 764,-29 758.5,-34.5 753,-34.5 753,-34.5 591,-34.5 591,-34.5 585.5,-34.5 580,-29 580,-23.5 580,-23.5 580,-12.5 580,-12.5 580,-7 585.5,-1.5 591,-1.5"/>
</g>
<!-- installed&#45;&gt;unbinding&#45;pending&#45;user&#45;action -->
<g id="edge6" class="edge transition">
<title>installed&#45;&gt;unbinding&#45;pending&#45;user&#45;action</title>
<path fill="none" stroke="black" d="M207.96,-107.74C216.51,-92.46 230.9,-71.52 250,-61 348.21,-6.88 478.95,-2.01 568.53,-6.9"/>
<polygon fill="black" stroke="black" points="568.51,-10.4 578.7,-7.5 568.92,-3.41 568.51,-10.4"/>
<text text-anchor="start" x="297" y="-64" font-family="Helvetica,sans-Serif" font-size="10.00">Unbind Host &#45; Unbind during or after installation &#160;&#160;</text>
</g>
</g>
</svg>
