<?xml version="1.0" encoding="UTF-8" standalone="no"?>
<!DOCTYPE svg PUBLIC "-//W3C//DTD SVG 1.1//EN"
 "http://www.w3.org/Graphics/SVG/1.1/DTD/svg11.dtd">
<!-- Generated by graphviz version 5.0.0 (0)
 -->
<!-- Title: state transitions Pages: 1 -->
<svg width="139pt" height="44pt"
 viewBox="0.00 0.00 139.00 44.00" xmlns="http://www.w3.org/2000/svg" xmlns:xlink="http://www.w3.org/1999/xlink">
<g id="graph0" class="graph" transform="scale(1 1) rotate(0) translate(4 40)">
<title>state transitions</title>
<polygon fill="white" stroke="transparent" points="-4,4 -4,-40 135,-40 135,4 -4,4"/>
<!-- insufficient&#45;unbound -->
<g id="node1" class="node state regular">
<title>insufficient&#45;unbound</title>
<polygon fill="#ffffff" fill-opacity="0.003922" stroke="transparent" stroke-width="2" points="131,-36 0,-36 0,0 131,0 131,-36"/>
<text text-anchor="start" x="11.5" y="-14.4" font-family="Helvetica,sans-Serif" font-size="12.00">insufficient&#45;unbound</text>
<path fill="none" stroke="black" stroke-width="2" d="M12,-1.5C12,-1.5 119,-1.5 119,-1.5 124.5,-1.5 130,-7 130,-12.5 130,-12.5 130,-23.5 130,-23.5 130,-29 124.5,-34.5 119,-34.5 119,-34.5 12,-34.5 12,-34.5 6.5,-34.5 1,-29 1,-23.5 1,-23.5 1,-12.5 1,-12.5 1,-7 6.5,-1.5 12,-1.5"/>
</g>
</g>
</svg>
