<?xml version="1.0" encoding="UTF-8" standalone="no"?>
<!DOCTYPE svg PUBLIC "-//W3C//DTD SVG 1.1//EN"
 "http://www.w3.org/Graphics/SVG/1.1/DTD/svg11.dtd">
<!-- Generated by graphviz version 7.1.0 (0)
 -->
<!-- Title: state transitions Pages: 1 -->
<svg width="710pt" height="129pt"
 viewBox="0.00 0.00 709.50 129.00" xmlns="http://www.w3.org/2000/svg" xmlns:xlink="http://www.w3.org/1999/xlink">
<g id="graph0" class="graph" transform="scale(1 1) rotate(0) translate(4 125)">
<title>state transitions</title>
<polygon fill="white" stroke="none" points="-4,4 -4,-125 705.5,-125 705.5,4 -4,4"/>
<!-- discovering -->
<g id="node1" class="node state regular">
<title>discovering</title>
<polygon fill="#ffffff" fill-opacity="0.003922" stroke="none" stroke-width="2" points="654,-90 570,-90 570,-54 654,-54 654,-90"/>
<text text-anchor="start" x="581" y="-68.4" font-family="Helvetica,sans-Serif" font-size="12.00">discovering</text>
<path fill="none" stroke="black" stroke-width="2" d="M582,-55.5C582,-55.5 642,-55.5 642,-55.5 647.5,-55.5 653,-61 653,-66.5 653,-66.5 653,-77.5 653,-77.5 653,-83 647.5,-88.5 642,-88.5 642,-88.5 582,-88.5 582,-88.5 576.5,-88.5 571,-83 571,-77.5 571,-77.5 571,-66.5 571,-66.5 571,-61 576.5,-55.5 582,-55.5"/>
</g>
<!-- resetting -->
<g id="node2" class="node state regular">
<title>resetting</title>
<polygon fill="#ffffff" fill-opacity="0.003922" stroke="none" stroke-width="2" points="175.5,-63 106.5,-63 106.5,-27 175.5,-27 175.5,-63"/>
<text text-anchor="start" x="118" y="-41.4" font-family="Helvetica,sans-Serif" font-size="12.00">resetting</text>
<path fill="none" stroke="black" stroke-width="2" d="M118.5,-28.5C118.5,-28.5 163.5,-28.5 163.5,-28.5 169,-28.5 174.5,-34 174.5,-39.5 174.5,-39.5 174.5,-50.5 174.5,-50.5 174.5,-56 169,-61.5 163.5,-61.5 163.5,-61.5 118.5,-61.5 118.5,-61.5 113,-61.5 107.5,-56 107.5,-50.5 107.5,-50.5 107.5,-39.5 107.5,-39.5 107.5,-34 113,-28.5 118.5,-28.5"/>
</g>
<!-- resetting&#45;&gt;discovering -->
<g id="edge3" class="edge transition">
<title>resetting&#45;&gt;discovering</title>
<path fill="none" stroke="black" d="M175.35,-46.92C255.99,-51.56 462.01,-63.42 559.01,-69.01"/>
<polygon fill="black" stroke="black" points="558.59,-72.49 568.77,-69.57 558.99,-65.5 558.59,-72.49"/>
<text text-anchor="start" x="224.5" y="-68" font-family="Helvetica,sans-Serif" font-size="10.00">Register Host &#45; Register non&#45;rebooting host in resetting &#160;&#160;</text>
</g>
<!-- resetting&#45;&gt;resetting -->
<g id="edge1" class="edge transition">
<title>resetting&#45;&gt;resetting</title>
<path fill="none" stroke="black" d="M122.3,-62.78C119.13,-72.31 125.36,-81 141,-81 149.8,-81 155.62,-78.25 158.46,-74.15"/>
<polygon fill="black" stroke="black" points="161.93,-74.61 159.53,-64.29 154.97,-73.85 161.93,-74.61"/>
<text text-anchor="start" x="11" y="-84" font-family="Helvetica,sans-Serif" font-size="10.00">Refresh &#45; Refresh during resetting should stay in resetting &#160;&#160;</text>
</g>
<!-- resetting&#45;&gt;resetting -->
<g id="edge2" class="edge transition">
<title>resetting&#45;&gt;resetting</title>
<path fill="none" stroke="black" d="M109.73,-62.98C93,-80.2 103.42,-99 141,-99 171.83,-99 184.38,-86.35 178.66,-72.3"/>
<polygon fill="black" stroke="black" points="181.66,-70.49 173.12,-64.23 175.89,-74.45 181.66,-70.49"/>
<text text-anchor="start" x="0" y="-102" font-family="Helvetica,sans-Serif" font-size="10.00">Register Host &#45; Ignore register while rebooting host in resetting &#160;&#160;</text>
</g>
<!-- resetting&#45;pending&#45;user&#45;action -->
<g id="node3" class="node state regular">
<title>resetting&#45;pending&#45;user&#45;action</title>
<polygon fill="#ffffff" fill-opacity="0.003922" stroke="none" stroke-width="2" points="701.5,-36 522.5,-36 522.5,0 701.5,0 701.5,-36"/>
<text text-anchor="start" x="534" y="-14.4" font-family="Helvetica,sans-Serif" font-size="12.00">resetting&#45;pending&#45;user&#45;action</text>
<path fill="none" stroke="black" stroke-width="2" d="M534.5,-1.5C534.5,-1.5 689.5,-1.5 689.5,-1.5 695,-1.5 700.5,-7 700.5,-12.5 700.5,-12.5 700.5,-23.5 700.5,-23.5 700.5,-29 695,-34.5 689.5,-34.5 689.5,-34.5 534.5,-34.5 534.5,-34.5 529,-34.5 523.5,-29 523.5,-23.5 523.5,-23.5 523.5,-12.5 523.5,-12.5 523.5,-7 529,-1.5 534.5,-1.5"/>
</g>
<!-- resetting&#45;&gt;resetting&#45;pending&#45;user&#45;action -->
<g id="edge4" class="edge transition">
<title>resetting&#45;&gt;resetting&#45;pending&#45;user&#45;action</title>
<path fill="none" stroke="black" d="M175.35,-36.24C181.35,-34.95 187.58,-33.79 193.5,-33 301.41,-18.63 426.31,-15.95 511.18,-16.2"/>
<polygon fill="black" stroke="black" points="511.09,-19.7 521.11,-16.24 511.12,-12.7 511.09,-19.7"/>
<text text-anchor="start" x="193.5" y="-36" font-family="Helvetica,sans-Serif" font-size="10.00">Resetting, Pending User Action &#45; Reset pending user action all states &#160;&#160;</text>
</g>
</g>
</svg>
