<?xml version="1.0" encoding="UTF-8" standalone="no"?>
<!DOCTYPE svg PUBLIC "-//W3C//DTD SVG 1.1//EN"
 "http://www.w3.org/Graphics/SVG/1.1/DTD/svg11.dtd">
<!-- Generated by graphviz version 5.0.0 (0)
 -->
<!-- Title: state transitions Pages: 1 -->
<svg width="745pt" height="446pt"
 viewBox="0.00 0.00 745.00 446.01" xmlns="http://www.w3.org/2000/svg" xmlns:xlink="http://www.w3.org/1999/xlink">
<g id="graph0" class="graph" transform="scale(1 1) rotate(0) translate(4 442.01)">
<title>state transitions</title>
<polygon fill="white" stroke="transparent" points="-4,4 -4,-442.01 741,-442.01 741,4 -4,4"/>
<!-- disconnected -->
<g id="node1" class="node state regular">
<title>disconnected</title>
<polygon fill="#ffffff" fill-opacity="0.003922" stroke="transparent" stroke-width="2" points="694.5,-429.01 600.5,-429.01 600.5,-393.01 694.5,-393.01 694.5,-429.01"/>
<text text-anchor="start" x="611.5" y="-407.41" font-family="Helvetica,sans-Serif" font-size="12.00">disconnected</text>
<path fill="none" stroke="black" stroke-width="2" d="M612.5,-394.51C612.5,-394.51 682.5,-394.51 682.5,-394.51 688,-394.51 693.5,-400.01 693.5,-405.51 693.5,-405.51 693.5,-416.51 693.5,-416.51 693.5,-422.01 688,-427.51 682.5,-427.51 682.5,-427.51 612.5,-427.51 612.5,-427.51 607,-427.51 601.5,-422.01 601.5,-416.51 601.5,-416.51 601.5,-405.51 601.5,-405.51 601.5,-400.01 607,-394.51 612.5,-394.51"/>
</g>
<!-- discovering -->
<g id="node2" class="node state regular">
<title>discovering</title>
<polygon fill="#ffffff" fill-opacity="0.003922" stroke="transparent" stroke-width="2" points="689.5,-375.01 605.5,-375.01 605.5,-339.01 689.5,-339.01 689.5,-375.01"/>
<text text-anchor="start" x="616.5" y="-353.41" font-family="Helvetica,sans-Serif" font-size="12.00">discovering</text>
<path fill="none" stroke="black" stroke-width="2" d="M617.5,-340.51C617.5,-340.51 677.5,-340.51 677.5,-340.51 683,-340.51 688.5,-346.01 688.5,-351.51 688.5,-351.51 688.5,-362.51 688.5,-362.51 688.5,-368.01 683,-373.51 677.5,-373.51 677.5,-373.51 617.5,-373.51 617.5,-373.51 612,-373.51 606.5,-368.01 606.5,-362.51 606.5,-362.51 606.5,-351.51 606.5,-351.51 606.5,-346.01 612,-340.51 617.5,-340.51"/>
</g>
<!-- installing -->
<g id="node3" class="node state regular">
<title>installing</title>
<polygon fill="#ffffff" fill-opacity="0.003922" stroke="transparent" stroke-width="2" points="683,-321.01 612,-321.01 612,-285.01 683,-285.01 683,-321.01"/>
<text text-anchor="start" x="623.5" y="-299.41" font-family="Helvetica,sans-Serif" font-size="12.00">installing</text>
<path fill="none" stroke="black" stroke-width="2" d="M624,-286.51C624,-286.51 671,-286.51 671,-286.51 676.5,-286.51 682,-292.01 682,-297.51 682,-297.51 682,-308.51 682,-308.51 682,-314.01 676.5,-319.51 671,-319.51 671,-319.51 624,-319.51 624,-319.51 618.5,-319.51 613,-314.01 613,-308.51 613,-308.51 613,-297.51 613,-297.51 613,-292.01 618.5,-286.51 624,-286.51"/>
</g>
<!-- insufficient -->
<g id="node4" class="node state regular">
<title>insufficient</title>
<polygon fill="#ffffff" fill-opacity="0.003922" stroke="transparent" stroke-width="2" points="687.5,-266.01 607.5,-266.01 607.5,-230.01 687.5,-230.01 687.5,-266.01"/>
<text text-anchor="start" x="618.5" y="-244.41" font-family="Helvetica,sans-Serif" font-size="12.00">insufficient</text>
<path fill="none" stroke="black" stroke-width="2" d="M619.5,-231.51C619.5,-231.51 675.5,-231.51 675.5,-231.51 681,-231.51 686.5,-237.01 686.5,-242.51 686.5,-242.51 686.5,-253.51 686.5,-253.51 686.5,-259.01 681,-264.51 675.5,-264.51 675.5,-264.51 619.5,-264.51 619.5,-264.51 614,-264.51 608.5,-259.01 608.5,-253.51 608.5,-253.51 608.5,-242.51 608.5,-242.51 608.5,-237.01 614,-231.51 619.5,-231.51"/>
</g>
<!-- known -->
<g id="node5" class="node state regular">
<title>known</title>
<polygon fill="#ffffff" fill-opacity="0.003922" stroke="transparent" stroke-width="2" points="122,-243.01 64,-243.01 64,-207.01 122,-207.01 122,-243.01"/>
<text text-anchor="start" x="75" y="-221.41" font-family="Helvetica,sans-Serif" font-size="12.00">known</text>
<path fill="none" stroke="black" stroke-width="2" d="M76,-208.51C76,-208.51 110,-208.51 110,-208.51 115.5,-208.51 121,-214.01 121,-219.51 121,-219.51 121,-230.51 121,-230.51 121,-236.01 115.5,-241.51 110,-241.51 110,-241.51 76,-241.51 76,-241.51 70.5,-241.51 65,-236.01 65,-230.51 65,-230.51 65,-219.51 65,-219.51 65,-214.01 70.5,-208.51 76,-208.51"/>
</g>
<!-- known&#45;&gt;disconnected -->
<g id="edge3" class="edge transition">
<title>known&#45;&gt;disconnected</title>
<path fill="none" stroke="black" d="M96.38,-243.18C101.88,-282.13 116.81,-371.64 140,-390.01 208.13,-444.01 472.69,-427.18 589.98,-416.68"/>
<polygon fill="black" stroke="black" points="590.55,-420.14 600.19,-415.75 589.91,-413.17 590.55,-420.14"/>
<text text-anchor="start" x="140" y="-430.01" font-family="Helvetica,sans-Serif" font-size="10.00">Media Disconnect &#45; Move to disconnected when virtual media disconnects pre&#45;installation &#160;&#160;</text>
</g>
<!-- known&#45;&gt;disconnected -->
<g id="edge7" class="edge transition">
<title>known&#45;&gt;disconnected</title>
<path fill="none" stroke="black" d="M94.42,-243.49C96.18,-272.78 104.31,-329.28 140,-356.01 175.62,-382.69 496.49,-367.66 540,-377.01 548.39,-378.82 549.89,-381.2 558,-384.01 568.46,-387.64 579.7,-391.27 590.54,-394.64"/>
<polygon fill="black" stroke="black" points="589.77,-398.06 600.36,-397.65 591.82,-391.37 589.77,-398.06"/>
<text text-anchor="start" x="196.5" y="-380.01" font-family="Helvetica,sans-Serif" font-size="10.00">Refresh &#45; Move host to disconnected when connected times out &#160;&#160;</text>
</g>
<!-- known&#45;&gt;discovering -->
<g id="edge12" class="edge transition">
<title>known&#45;&gt;discovering</title>
<path fill="none" stroke="black" d="M96.94,-243.31C101.65,-266.04 113.26,-304 140,-322.01 176.92,-346.88 495.64,-341.24 540,-345.01 558.06,-346.55 577.79,-348.65 595.3,-350.67"/>
<polygon fill="black" stroke="black" points="594.99,-354.16 605.33,-351.84 595.81,-347.21 594.99,-354.16"/>
<text text-anchor="start" x="269" y="-348.01" font-family="Helvetica,sans-Serif" font-size="10.00">Register Host &#45; Re&#45;registration &#160;&#160;</text>
</g>
<!-- known&#45;&gt;installing -->
<g id="edge2" class="edge transition">
<title>known&#45;&gt;installing</title>
<path fill="none" stroke="black" d="M103.65,-243.09C111.56,-255.88 124.05,-272.12 140,-280.01 220.25,-319.76 492.91,-310.85 601.42,-305.53"/>
<polygon fill="black" stroke="black" points="601.89,-309.01 611.7,-305.01 601.53,-302.02 601.89,-309.01"/>
<text text-anchor="start" x="266" y="-313.01" font-family="Helvetica,sans-Serif" font-size="10.00">Install Host &#45; Install known host &#160;&#160;</text>
</g>
<!-- known&#45;&gt;insufficient -->
<g id="edge6" class="edge transition">
<title>known&#45;&gt;insufficient</title>
<path fill="none" stroke="black" d="M117.12,-243.11C124.09,-247.56 132.02,-251.71 140,-254.01 225.4,-278.69 451.15,-256.52 540,-254.01 558.57,-253.49 578.94,-252.46 596.85,-251.39"/>
<polygon fill="black" stroke="black" points="597.31,-254.87 607.07,-250.77 596.88,-247.88 597.31,-254.87"/>
<text text-anchor="start" x="200.5" y="-268.01" font-family="Helvetica,sans-Serif" font-size="10.00">Refresh &#45; Preparing failed disk speed host move to insufficient &#160;&#160;</text>
</g>
<!-- known&#45;&gt;insufficient -->
<g id="edge8" class="edge transition">
<title>known&#45;&gt;insufficient</title>
<path fill="none" stroke="black" d="M122.19,-225.73C192.66,-227.6 382.14,-233 540,-241.01 558.56,-241.96 578.93,-243.24 596.84,-244.44"/>
<polygon fill="black" stroke="black" points="596.85,-247.95 607.07,-245.14 597.33,-240.97 596.85,-247.95"/>
<text text-anchor="start" x="248" y="-244.01" font-family="Helvetica,sans-Serif" font-size="10.00">Refresh &#45; Host has insufficient hardware &#160;&#160;</text>
</g>
<!-- known&#45;&gt;insufficient -->
<g id="edge10" class="edge transition">
<title>known&#45;&gt;insufficient</title>
<path fill="none" stroke="black" d="M122.41,-214.94C128.16,-213.31 134.22,-211.87 140,-211.01 227.92,-197.93 453.95,-188.72 540,-211.01 548.86,-213.31 549.58,-217.44 558,-221.01 570.49,-226.32 584.37,-231.06 597.37,-235.04"/>
<polygon fill="black" stroke="black" points="596.51,-238.43 607.1,-237.92 598.51,-231.72 596.51,-238.43"/>
<text text-anchor="start" x="281.5" y="-214.01" font-family="Helvetica,sans-Serif" font-size="10.00">Refresh &#45; Host not ready &#160;&#160;</text>
</g>
<!-- known&#45;&gt;known -->
<g id="edge1" class="edge transition">
<title>known&#45;&gt;known</title>
<path fill="none" stroke="black" d="M70.75,-243.17C67.32,-252.55 74.74,-261.01 93,-261.01 104.13,-261.01 111.23,-257.87 114.3,-253.29"/>
<polygon fill="black" stroke="black" points="117.8,-253.45 115.25,-243.17 110.83,-252.8 117.8,-253.45"/>
<text text-anchor="start" x="0" y="-264.01" font-family="Helvetica,sans-Serif" font-size="10.00">Cancel Installation &#45; Cancel while known &#160;&#160;</text>
</g>
<!-- known&#45;&gt;known -->
<g id="edge11" class="edge transition">
<title>known&#45;&gt;known</title>
<path fill="none" stroke="black" d="M63.57,-237.49C33.94,-255.93 43.75,-279.01 93,-279.01 136.86,-279.01 149.44,-260.7 130.74,-243.67"/>
<polygon fill="black" stroke="black" points="132.55,-240.65 122.43,-237.49 128.37,-246.27 132.55,-240.65"/>
<text text-anchor="start" x="32" y="-282.01" font-family="Helvetica,sans-Serif" font-size="10.00">Refresh &#45; Host stay ready &#160;&#160;</text>
</g>
<!-- pending&#45;for&#45;input -->
<g id="node6" class="node state regular">
<title>pending&#45;for&#45;input</title>
<polygon fill="#ffffff" fill-opacity="0.003922" stroke="transparent" stroke-width="2" points="704,-212.01 591,-212.01 591,-176.01 704,-176.01 704,-212.01"/>
<text text-anchor="start" x="602.5" y="-190.41" font-family="Helvetica,sans-Serif" font-size="12.00">pending&#45;for&#45;input</text>
<path fill="none" stroke="black" stroke-width="2" d="M603,-177.51C603,-177.51 692,-177.51 692,-177.51 697.5,-177.51 703,-183.01 703,-188.51 703,-188.51 703,-199.51 703,-199.51 703,-205.01 697.5,-210.51 692,-210.51 692,-210.51 603,-210.51 603,-210.51 597.5,-210.51 592,-205.01 592,-199.51 592,-199.51 592,-188.51 592,-188.51 592,-183.01 597.5,-177.51 603,-177.51"/>
</g>
<!-- known&#45;&gt;pending&#45;for&#45;input -->
<g id="edge9" class="edge transition">
<title>known&#45;&gt;pending&#45;for&#45;input</title>
<path fill="none" stroke="black" d="M107.63,-206.92C115.84,-197.57 127.19,-187.07 140,-182.01 222.68,-149.39 451.25,-177.03 540,-182.01 553.18,-182.75 567.22,-184.01 580.65,-185.43"/>
<polygon fill="black" stroke="black" points="580.45,-188.93 590.77,-186.54 581.22,-181.97 580.45,-188.93"/>
<text text-anchor="start" x="273" y="-185.01" font-family="Helvetica,sans-Serif" font-size="10.00">Refresh &#45; Host pending input &#160;&#160;</text>
</g>
<!-- preparing&#45;for&#45;installation -->
<g id="node7" class="node state regular">
<title>preparing&#45;for&#45;installation</title>
<polygon fill="#ffffff" fill-opacity="0.003922" stroke="transparent" stroke-width="2" points="723.5,-158.01 571.5,-158.01 571.5,-122.01 723.5,-122.01 723.5,-158.01"/>
<text text-anchor="start" x="582.5" y="-136.41" font-family="Helvetica,sans-Serif" font-size="12.00">preparing&#45;for&#45;installation</text>
<path fill="none" stroke="black" stroke-width="2" d="M583.5,-123.51C583.5,-123.51 711.5,-123.51 711.5,-123.51 717,-123.51 722.5,-129.01 722.5,-134.51 722.5,-134.51 722.5,-145.51 722.5,-145.51 722.5,-151.01 717,-156.51 711.5,-156.51 711.5,-156.51 583.5,-156.51 583.5,-156.51 578,-156.51 572.5,-151.01 572.5,-145.51 572.5,-145.51 572.5,-134.51 572.5,-134.51 572.5,-129.01 578,-123.51 583.5,-123.51"/>
</g>
<!-- known&#45;&gt;preparing&#45;for&#45;installation -->
<g id="edge5" class="edge transition">
<title>known&#45;&gt;preparing&#45;for&#45;installation</title>
<path fill="none" stroke="black" d="M99.56,-206.99C106.1,-189.24 118.84,-163.08 140,-151.01 209.4,-111.45 435.31,-122.49 560.69,-132.25"/>
<polygon fill="black" stroke="black" points="560.78,-135.76 571.03,-133.06 561.33,-128.79 560.78,-135.76"/>
<text text-anchor="start" x="227.5" y="-154.01" font-family="Helvetica,sans-Serif" font-size="10.00">Refresh &#45; Refresh known host in preparing cluster &#160;&#160;</text>
</g>
<!-- resetting&#45;pending&#45;user&#45;action -->
<g id="node8" class="node state regular">
<title>resetting&#45;pending&#45;user&#45;action</title>
<polygon fill="#ffffff" fill-opacity="0.003922" stroke="transparent" stroke-width="2" points="737,-104.01 558,-104.01 558,-68.01 737,-68.01 737,-104.01"/>
<text text-anchor="start" x="569.5" y="-82.41" font-family="Helvetica,sans-Serif" font-size="12.00">resetting&#45;pending&#45;user&#45;action</text>
<path fill="none" stroke="black" stroke-width="2" d="M570,-69.51C570,-69.51 725,-69.51 725,-69.51 730.5,-69.51 736,-75.01 736,-80.51 736,-80.51 736,-91.51 736,-91.51 736,-97.01 730.5,-102.51 725,-102.51 725,-102.51 570,-102.51 570,-102.51 564.5,-102.51 559,-97.01 559,-91.51 559,-91.51 559,-80.51 559,-80.51 559,-75.01 564.5,-69.51 570,-69.51"/>
</g>
<!-- known&#45;&gt;resetting&#45;pending&#45;user&#45;action -->
<g id="edge13" class="edge transition">
<title>known&#45;&gt;resetting&#45;pending&#45;user&#45;action</title>
<path fill="none" stroke="black" d="M95.25,-206.68C98.16,-179.95 107.84,-130.96 140,-108.01 172.24,-85.01 409.54,-83.48 547.6,-84.6"/>
<polygon fill="black" stroke="black" points="547.74,-88.1 557.77,-84.69 547.8,-81.1 547.74,-88.1"/>
<text text-anchor="start" x="184.5" y="-111.01" font-family="Helvetica,sans-Serif" font-size="10.00">Resetting, Pending User Action &#45; Reset pending user action all states &#160;&#160;</text>
</g>
<!-- unbinding -->
<g id="node9" class="node state regular">
<title>unbinding</title>
<polygon fill="#ffffff" fill-opacity="0.003922" stroke="transparent" stroke-width="2" points="685.5,-50.01 609.5,-50.01 609.5,-14.01 685.5,-14.01 685.5,-50.01"/>
<text text-anchor="start" x="620.5" y="-28.41" font-family="Helvetica,sans-Serif" font-size="12.00">unbinding</text>
<path fill="none" stroke="black" stroke-width="2" d="M621.5,-15.51C621.5,-15.51 673.5,-15.51 673.5,-15.51 679,-15.51 684.5,-21.01 684.5,-26.51 684.5,-26.51 684.5,-37.51 684.5,-37.51 684.5,-43.01 679,-48.51 673.5,-48.51 673.5,-48.51 621.5,-48.51 621.5,-48.51 616,-48.51 610.5,-43.01 610.5,-37.51 610.5,-37.51 610.5,-26.51 610.5,-26.51 610.5,-21.01 616,-15.51 621.5,-15.51"/>
</g>
<!-- known&#45;&gt;unbinding -->
<g id="edge4" class="edge transition">
<title>known&#45;&gt;unbinding</title>
<path fill="none" stroke="black" d="M93.24,-206.98C92.93,-173.67 97.62,-102.82 140,-69.01 174.81,-41.25 495.64,-47.9 540,-44.01 559.3,-42.33 580.53,-40.02 598.91,-37.89"/>
<polygon fill="black" stroke="black" points="599.56,-41.34 609.09,-36.69 598.75,-34.38 599.56,-41.34"/>
<text text-anchor="start" x="250" y="-72.01" font-family="Helvetica,sans-Serif" font-size="10.00">Reclaim Host &#45; Reclaim pre&#45;installation &#160;&#160;</text>
</g>
<!-- known&#45;&gt;unbinding -->
<g id="edge14" class="edge transition">
<title>known&#45;&gt;unbinding</title>
<path fill="none" stroke="black" d="M95.49,-206.96C99.54,-163.1 112.3,-52.91 140,-31.01 209.99,24.32 487.25,-8.7 599.22,-24.77"/>
<polygon fill="black" stroke="black" points="598.82,-28.24 609.22,-26.22 599.82,-21.32 598.82,-28.24"/>
<text text-anchor="start" x="254.5" y="-34.01" font-family="Helvetica,sans-Serif" font-size="10.00">Unbind Host &#45; Unbind pre&#45;installation &#160;&#160;</text>
</g>
</g>
</svg>
