<?xml version="1.0" encoding="UTF-8" standalone="no"?>
<!DOCTYPE svg PUBLIC "-//W3C//DTD SVG 1.1//EN"
 "http://www.w3.org/Graphics/SVG/1.1/DTD/svg11.dtd">
<!-- Generated by graphviz version 12.1.0 (20240811.2233)
 -->
<!-- Title: state transitions Pages: 1 -->
<svg width="764pt" height="331pt"
 viewBox="0.00 0.00 763.62 330.88" xmlns="http://www.w3.org/2000/svg" xmlns:xlink="http://www.w3.org/1999/xlink">
<g id="graph0" class="graph" transform="scale(1 1) rotate(0) translate(4 326.88)">
<title>state transitions</title>
<polygon fill="white" stroke="none" points="-4,4 -4,-326.88 759.62,-326.88 759.62,4 -4,4"/>
<!-- disconnected -->
<g id="node1" class="node state regular">
<title>disconnected</title>
<polygon fill="#ffffff" fill-opacity="0.003922" stroke="none" stroke-width="2" points="744,-288.49 642.5,-288.49 642.5,-252.24 744,-252.24 744,-288.49"/>
<text text-anchor="start" x="653.5" y="-266.09" font-family="Helvetica,sans-Serif" font-size="12.00">disconnected</text>
<path fill="none" stroke="black" stroke-width="2" d="M654.92,-253.24C654.92,-253.24 731.58,-253.24 731.58,-253.24 737.29,-253.24 743,-258.95 743,-264.66 743,-264.66 743,-276.08 743,-276.08 743,-281.79 737.29,-287.49 731.58,-287.49 731.58,-287.49 654.92,-287.49 654.92,-287.49 649.21,-287.49 643.5,-281.79 643.5,-276.08 643.5,-276.08 643.5,-264.66 643.5,-264.66 643.5,-258.95 649.21,-253.24 654.92,-253.24"/>
</g>
<!-- discovering -->
<g id="node2" class="node state regular">
<title>discovering</title>
<polygon fill="#ffffff" fill-opacity="0.003922" stroke="none" stroke-width="2" points="738.38,-225.49 648.12,-225.49 648.12,-189.24 738.38,-189.24 738.38,-225.49"/>
<text text-anchor="start" x="659.12" y="-203.09" font-family="Helvetica,sans-Serif" font-size="12.00">discovering</text>
<path fill="none" stroke="black" stroke-width="2" d="M660.54,-190.24C660.54,-190.24 725.96,-190.24 725.96,-190.24 731.67,-190.24 737.38,-195.95 737.38,-201.66 737.38,-201.66 737.38,-213.08 737.38,-213.08 737.38,-218.79 731.67,-224.49 725.96,-224.49 725.96,-224.49 660.54,-224.49 660.54,-224.49 654.83,-224.49 649.12,-218.79 649.12,-213.08 649.12,-213.08 649.12,-201.66 649.12,-201.66 649.12,-195.95 654.83,-190.24 660.54,-190.24"/>
</g>
<!-- insufficient -->
<g id="node3" class="node state regular">
<title>insufficient</title>
<polygon fill="#ffffff" fill-opacity="0.003922" stroke="none" stroke-width="2" points="146.38,-189.49 59.12,-189.49 59.12,-153.24 146.38,-153.24 146.38,-189.49"/>
<text text-anchor="start" x="70.12" y="-167.09" font-family="Helvetica,sans-Serif" font-size="12.00">insufficient</text>
<path fill="none" stroke="black" stroke-width="2" d="M71.54,-154.24C71.54,-154.24 133.96,-154.24 133.96,-154.24 139.67,-154.24 145.38,-159.95 145.38,-165.66 145.38,-165.66 145.38,-177.08 145.38,-177.08 145.38,-182.79 139.67,-188.49 133.96,-188.49 133.96,-188.49 71.54,-188.49 71.54,-188.49 65.83,-188.49 60.12,-182.79 60.12,-177.08 60.12,-177.08 60.12,-165.66 60.12,-165.66 60.12,-159.95 65.83,-154.24 71.54,-154.24"/>
</g>
<!-- insufficient&#45;&gt;disconnected -->
<g id="edge1" class="edge transition">
<title>insufficient&#45;&gt;disconnected</title>
<path fill="none" stroke="black" d="M110.56,-189.37C119.45,-210 137.15,-242.82 164.38,-257.37 315.96,-338.36 528.62,-307.7 631.61,-285.48"/>
<polygon fill="black" stroke="black" points="632.23,-288.93 641.24,-283.35 630.72,-282.09 632.23,-288.93"/>
<text text-anchor="start" x="164.38" y="-313.38" font-family="Helvetica,sans-Serif" font-size="10.00">Media Disconnect &#45; Move to disconnected when virtual media disconnects pre&#45;installation &#160;&#160;</text>
</g>
<!-- insufficient&#45;&gt;disconnected -->
<g id="edge3" class="edge transition">
<title>insufficient&#45;&gt;disconnected</title>
<path fill="none" stroke="black" d="M119.31,-189.15C130.55,-200.62 146.8,-214.63 164.38,-221.37 257.52,-257.1 515.12,-220.73 612.88,-240.62 622.2,-242.52 631.89,-245.36 641.15,-248.54"/>
<polygon fill="black" stroke="black" points="639.76,-251.76 650.36,-251.88 642.15,-245.18 639.76,-251.76"/>
<text text-anchor="start" x="228.88" y="-243.87" font-family="Helvetica,sans-Serif" font-size="10.00">Refresh &#45; Move host to disconnected when connected times out &#160;&#160;</text>
</g>
<!-- insufficient&#45;&gt;discovering -->
<g id="edge8" class="edge transition">
<title>insufficient&#45;&gt;discovering</title>
<path fill="none" stroke="black" d="M146.29,-182.24C152.33,-183.47 158.49,-184.57 164.38,-185.37 254.34,-197.53 520.8,-204.04 637.01,-206.36"/>
<polygon fill="black" stroke="black" points="636.86,-209.86 646.93,-206.56 637,-202.86 636.86,-209.86"/>
<text text-anchor="start" x="309.88" y="-209.07" font-family="Helvetica,sans-Serif" font-size="10.00">Register Host &#45; Re&#45;registration &#160;&#160;</text>
</g>
<!-- insufficient&#45;&gt;insufficient -->
<g id="edge4" class="edge transition">
<title>insufficient&#45;&gt;insufficient</title>
<path fill="none" stroke="black" d="M77.06,-189.21C72.69,-198.78 81.25,-207.49 102.75,-207.49 115.18,-207.49 123.28,-204.58 127.07,-200.28"/>
<polygon fill="black" stroke="black" points="130.49,-201.07 128.26,-190.71 123.55,-200.21 130.49,-201.07"/>
<text text-anchor="start" x="0" y="-210.74" font-family="Helvetica,sans-Serif" font-size="10.00">Refresh &#45; Host has insufficient hardware &#160;&#160;</text>
</g>
<!-- insufficient&#45;&gt;insufficient -->
<g id="edge6" class="edge transition">
<title>insufficient&#45;&gt;insufficient</title>
<path fill="none" stroke="black" d="M59.78,-189.39C36.78,-206.65 51.1,-225.49 102.75,-225.49 146.33,-225.49 163.33,-212.08 153.77,-197.52"/>
<polygon fill="black" stroke="black" points="156.31,-195.11 146.79,-190.46 151.33,-200.03 156.31,-195.11"/>
<text text-anchor="start" x="38.62" y="-228.74" font-family="Helvetica,sans-Serif" font-size="10.00">Refresh &#45; Host not ready &#160;&#160;</text>
</g>
<!-- unbinding -->
<g id="node4" class="node state regular">
<title>unbinding</title>
<polygon fill="#ffffff" fill-opacity="0.003922" stroke="none" stroke-width="2" points="733.5,-171.49 653,-171.49 653,-135.24 733.5,-135.24 733.5,-171.49"/>
<text text-anchor="start" x="664" y="-149.09" font-family="Helvetica,sans-Serif" font-size="12.00">unbinding</text>
<path fill="none" stroke="black" stroke-width="2" d="M665.42,-136.24C665.42,-136.24 721.08,-136.24 721.08,-136.24 726.79,-136.24 732.5,-141.95 732.5,-147.66 732.5,-147.66 732.5,-159.08 732.5,-159.08 732.5,-164.79 726.79,-170.49 721.08,-170.49 721.08,-170.49 665.42,-170.49 665.42,-170.49 659.71,-170.49 654,-164.79 654,-159.08 654,-159.08 654,-147.66 654,-147.66 654,-141.95 659.71,-136.24 665.42,-136.24"/>
</g>
<!-- insufficient&#45;&gt;unbinding -->
<g id="edge2" class="edge transition">
<title>insufficient&#45;&gt;unbinding</title>
<path fill="none" stroke="black" d="M146.07,-170.07C251.84,-166.84 527.34,-158.41 641.52,-154.92"/>
<polygon fill="black" stroke="black" points="641.63,-158.42 651.51,-154.62 641.41,-151.42 641.63,-158.42"/>
<text text-anchor="start" x="288.12" y="-172.75" font-family="Helvetica,sans-Serif" font-size="10.00">Reclaim Host &#45; Reclaim pre&#45;installation &#160;&#160;</text>
</g>
<!-- insufficient&#45;&gt;unbinding -->
<g id="edge9" class="edge transition">
<title>insufficient&#45;&gt;unbinding</title>
<path fill="none" stroke="black" d="M131.3,-153.36C141.3,-147.81 152.95,-142.43 164.38,-139.62 357.94,-92 414.27,-122.54 612.88,-139.62 622.39,-140.44 632.48,-141.8 642.15,-143.35"/>
<polygon fill="black" stroke="black" points="641.32,-146.76 651.77,-144.99 642.5,-139.86 641.32,-146.76"/>
<text text-anchor="start" x="293.38" y="-142.87" font-family="Helvetica,sans-Serif" font-size="10.00">Unbind Host &#45; Unbind pre&#45;installation &#160;&#160;</text>
</g>
<!-- pending&#45;for&#45;input -->
<g id="node5" class="node state regular">
<title>pending&#45;for&#45;input</title>
<polygon fill="#ffffff" fill-opacity="0.003922" stroke="none" stroke-width="2" points="755.62,-117.49 630.88,-117.49 630.88,-81.24 755.62,-81.24 755.62,-117.49"/>
<text text-anchor="start" x="641.88" y="-95.09" font-family="Helvetica,sans-Serif" font-size="12.00">pending&#45;for&#45;input</text>
<path fill="none" stroke="black" stroke-width="2" d="M643.29,-82.24C643.29,-82.24 743.21,-82.24 743.21,-82.24 748.92,-82.24 754.62,-87.95 754.62,-93.66 754.62,-93.66 754.62,-105.08 754.62,-105.08 754.62,-110.79 748.92,-116.49 743.21,-116.49 743.21,-116.49 643.29,-116.49 643.29,-116.49 637.58,-116.49 631.88,-110.79 631.88,-105.08 631.88,-105.08 631.88,-93.66 631.88,-93.66 631.88,-87.95 637.58,-82.24 643.29,-82.24"/>
</g>
<!-- insufficient&#45;&gt;pending&#45;for&#45;input -->
<g id="edge5" class="edge transition">
<title>insufficient&#45;&gt;pending&#45;for&#45;input</title>
<path fill="none" stroke="black" d="M112.45,-153.48C122.27,-135.58 140.1,-109.09 164.38,-97.62 242.92,-60.51 494.63,-79.32 619.95,-91.58"/>
<polygon fill="black" stroke="black" points="619.51,-95.06 629.8,-92.56 620.2,-88.09 619.51,-95.06"/>
<text text-anchor="start" x="314.38" y="-100.87" font-family="Helvetica,sans-Serif" font-size="10.00">Refresh &#45; Host pending input &#160;&#160;</text>
</g>
<!-- known -->
<g id="node6" class="node state regular">
<title>known</title>
<polygon fill="#ffffff" fill-opacity="0.003922" stroke="none" stroke-width="2" points="723.75,-63.49 662.75,-63.49 662.75,-27.24 723.75,-27.24 723.75,-63.49"/>
<text text-anchor="start" x="673.75" y="-41.09" font-family="Helvetica,sans-Serif" font-size="12.00">known</text>
<path fill="none" stroke="black" stroke-width="2" d="M675.17,-28.24C675.17,-28.24 711.33,-28.24 711.33,-28.24 717.04,-28.24 722.75,-33.95 722.75,-39.66 722.75,-39.66 722.75,-51.08 722.75,-51.08 722.75,-56.79 717.04,-62.49 711.33,-62.49 711.33,-62.49 675.17,-62.49 675.17,-62.49 669.46,-62.49 663.75,-56.79 663.75,-51.08 663.75,-51.08 663.75,-39.66 663.75,-39.66 663.75,-33.95 669.46,-28.24 675.17,-28.24"/>
</g>
<!-- insufficient&#45;&gt;known -->
<g id="edge7" class="edge transition">
<title>insufficient&#45;&gt;known</title>
<path fill="none" stroke="black" d="M107.49,-153.43C113.99,-127.33 130.11,-79.69 164.38,-58.62 321.62,38.06 558.07,-9.15 651.85,-33.71"/>
<polygon fill="black" stroke="black" points="650.8,-37.05 661.36,-36.26 652.61,-30.29 650.8,-37.05"/>
<text text-anchor="start" x="333.88" y="-61.87" font-family="Helvetica,sans-Serif" font-size="10.00">Refresh &#45; Host ready &#160;&#160;</text>
</g>
</g>
</svg>
