<?xml version="1.0" encoding="UTF-8" standalone="no"?>
<!DOCTYPE svg PUBLIC "-//W3C//DTD SVG 1.1//EN"
 "http://www.w3.org/Graphics/SVG/1.1/DTD/svg11.dtd">
<!-- Generated by graphviz version 12.1.0 (20240811.2233)
 -->
<!-- Title: state transitions Pages: 1 -->
<svg width="925pt" height="164pt"
 viewBox="0.00 0.00 925.25 163.50" xmlns="http://www.w3.org/2000/svg" xmlns:xlink="http://www.w3.org/1999/xlink">
<g id="graph0" class="graph" transform="scale(1 1) rotate(0) translate(4 159.5)">
<title>state transitions</title>
<polygon fill="white" stroke="none" points="-4,4 -4,-159.5 921.25,-159.5 921.25,4 -4,4"/>
<!-- discovering -->
<g id="node1" class="node state regular">
<title>discovering</title>
<polygon fill="#ffffff" fill-opacity="0.003922" stroke="none" stroke-width="2" points="917.25,-90.25 827,-90.25 827,-54 917.25,-54 917.25,-90.25"/>
<text text-anchor="start" x="838" y="-67.85" font-family="Helvetica,sans-Serif" font-size="12.00">discovering</text>
<path fill="none" stroke="black" stroke-width="2" d="M839.42,-55C839.42,-55 904.83,-55 904.83,-55 910.54,-55 916.25,-60.71 916.25,-66.42 916.25,-66.42 916.25,-77.83 916.25,-77.83 916.25,-83.54 910.54,-89.25 904.83,-89.25 904.83,-89.25 839.42,-89.25 839.42,-89.25 833.71,-89.25 828,-83.54 828,-77.83 828,-77.83 828,-66.42 828,-66.42 828,-60.71 833.71,-55 839.42,-55"/>
</g>
<!-- error -->
<g id="node2" class="node state regular">
<title>error</title>
<polygon fill="#ffffff" fill-opacity="0.003922" stroke="none" stroke-width="2" points="900.12,-36.25 844.12,-36.25 844.12,0 900.12,0 900.12,-36.25"/>
<text text-anchor="start" x="857.5" y="-13.85" font-family="Helvetica,sans-Serif" font-size="12.00">error</text>
<path fill="none" stroke="black" stroke-width="2" d="M856.54,-1C856.54,-1 887.71,-1 887.71,-1 893.42,-1 899.12,-6.71 899.12,-12.42 899.12,-12.42 899.12,-23.83 899.12,-23.83 899.12,-29.54 893.42,-35.25 887.71,-35.25 887.71,-35.25 856.54,-35.25 856.54,-35.25 850.83,-35.25 845.12,-29.54 845.12,-23.83 845.12,-23.83 845.12,-12.42 845.12,-12.42 845.12,-6.71 850.83,-1 856.54,-1"/>
</g>
<!-- resetting&#45;pending&#45;user&#45;action -->
<g id="node3" class="node state regular">
<title>resetting&#45;pending&#45;user&#45;action</title>
<polygon fill="#ffffff" fill-opacity="0.003922" stroke="none" stroke-width="2" points="530,-63.25 331.75,-63.25 331.75,-27 530,-27 530,-63.25"/>
<text text-anchor="start" x="342.75" y="-40.85" font-family="Helvetica,sans-Serif" font-size="12.00">resetting&#45;pending&#45;user&#45;action</text>
<path fill="none" stroke="black" stroke-width="2" d="M344.17,-28C344.17,-28 517.58,-28 517.58,-28 523.29,-28 529,-33.71 529,-39.42 529,-39.42 529,-50.83 529,-50.83 529,-56.54 523.29,-62.25 517.58,-62.25 517.58,-62.25 344.17,-62.25 344.17,-62.25 338.46,-62.25 332.75,-56.54 332.75,-50.83 332.75,-50.83 332.75,-39.42 332.75,-39.42 332.75,-33.71 338.46,-28 344.17,-28"/>
</g>
<!-- resetting&#45;pending&#45;user&#45;action&#45;&gt;discovering -->
<g id="edge4" class="edge transition">
<title>resetting&#45;pending&#45;user&#45;action&#45;&gt;discovering</title>
<path fill="none" stroke="black" d="M529.9,-51.15C617.93,-56.56 744,-64.31 815.68,-68.72"/>
<polygon fill="black" stroke="black" points="815.43,-72.21 825.62,-69.33 815.86,-65.22 815.43,-72.21"/>
<text text-anchor="start" x="599.75" y="-71.46" font-family="Helvetica,sans-Serif" font-size="10.00">Register Host &#45; Re&#45;registration &#160;&#160;</text>
</g>
<!-- resetting&#45;pending&#45;user&#45;action&#45;&gt;error -->
<g id="edge2" class="edge transition">
<title>resetting&#45;pending&#45;user&#45;action&#45;&gt;error</title>
<path fill="none" stroke="black" d="M529.76,-38.54C535.93,-38.14 542.05,-37.75 548,-37.38 651.06,-30.87 772.64,-23.78 833.07,-20.3"/>
<polygon fill="black" stroke="black" points="833.02,-23.81 842.8,-19.74 832.62,-16.82 833.02,-23.81"/>
<text text-anchor="start" x="548" y="-40.62" font-family="Helvetica,sans-Serif" font-size="10.00">Refresh &#45; Move host to error when cluster is in error &#160;&#160;</text>
</g>
<!-- resetting&#45;pending&#45;user&#45;action&#45;&gt;resetting&#45;pending&#45;user&#45;action -->
<g id="edge1" class="edge transition">
<title>resetting&#45;pending&#45;user&#45;action&#45;&gt;resetting&#45;pending&#45;user&#45;action</title>
<path fill="none" stroke="black" d="M416.04,-62.97C413.52,-72.53 418.46,-81.25 430.88,-81.25 437.86,-81.25 442.48,-78.49 444.73,-74.38"/>
<polygon fill="black" stroke="black" points="448.22,-74.74 445.58,-64.48 441.24,-74.14 448.22,-74.74"/>
<text text-anchor="start" x="0" y="-84.5" font-family="Helvetica,sans-Serif" font-size="10.00">null &#45; Host progress change during resetting&#45;pending&#45;user&#45;action state when host is not in state Done (or Rebooting in day2) should stay in resetting&#45;pending&#45;user&#45;action state &#160;&#160;</text>
</g>
<!-- resetting&#45;pending&#45;user&#45;action&#45;&gt;resetting&#45;pending&#45;user&#45;action -->
<g id="edge3" class="edge transition">
<title>resetting&#45;pending&#45;user&#45;action&#45;&gt;resetting&#45;pending&#45;user&#45;action</title>
<path fill="none" stroke="black" d="M406.06,-63.14C392.78,-80.41 401.05,-99.25 430.88,-99.25 454.87,-99.25 464.92,-87.05 461.01,-73.29"/>
<polygon fill="black" stroke="black" points="464.13,-71.72 456.39,-64.49 457.93,-74.97 464.13,-71.72"/>
<text text-anchor="start" x="105" y="-102.5" font-family="Helvetica,sans-Serif" font-size="10.00">Refresh &#45; Refresh during resetting&#45;pending&#45;user&#45;action state without cluster error should stay in resetting&#45;pending&#45;user&#45;action state &#160;&#160;</text>
</g>
<!-- resetting&#45;pending&#45;user&#45;action&#45;&gt;resetting&#45;pending&#45;user&#45;action -->
<g id="edge5" class="edge transition">
<title>resetting&#45;pending&#45;user&#45;action&#45;&gt;resetting&#45;pending&#45;user&#45;action</title>
<path fill="none" stroke="black" d="M399.55,-63.23C371.83,-87.61 382.27,-117.25 430.88,-117.25 474.16,-117.25 487.18,-93.74 469.93,-71.38"/>
<polygon fill="black" stroke="black" points="472.67,-69.18 463.25,-64.33 467.59,-74 472.67,-69.18"/>
<text text-anchor="start" x="258.75" y="-120.5" font-family="Helvetica,sans-Serif" font-size="10.00">Resetting, Pending User Action &#45; Reset pending user action all states &#160;&#160;</text>
</g>
</g>
</svg>
