<?xml version="1.0" encoding="UTF-8" standalone="no"?>
<!DOCTYPE svg PUBLIC "-//W3C//DTD SVG 1.1//EN"
 "http://www.w3.org/Graphics/SVG/1.1/DTD/svg11.dtd">
<!-- Generated by graphviz version 12.1.0 (20240811.2233)
 -->
<!-- Title: state transitions Pages: 1 -->
<svg width="797pt" height="117pt"
 viewBox="0.00 0.00 797.00 117.23" xmlns="http://www.w3.org/2000/svg" xmlns:xlink="http://www.w3.org/1999/xlink">
<g id="graph0" class="graph" transform="scale(1 1) rotate(0) translate(4 113.23)">
<title>state transitions</title>
<polygon fill="white" stroke="none" points="-4,4 -4,-113.23 793,-113.23 793,4 -4,4"/>
<!-- reclaiming -->
<g id="node1" class="node state regular">
<title>reclaiming</title>
<polygon fill="#ffffff" fill-opacity="0.003922" stroke="none" stroke-width="2" points="236.75,-73.23 152.5,-73.23 152.5,-36.98 236.75,-36.98 236.75,-73.23"/>
<text text-anchor="start" x="163.5" y="-50.83" font-family="Helvetica,sans-Serif" font-size="12.00">reclaiming</text>
<path fill="none" stroke="black" stroke-width="2" d="M164.92,-37.98C164.92,-37.98 224.33,-37.98 224.33,-37.98 230.04,-37.98 235.75,-43.69 235.75,-49.4 235.75,-49.4 235.75,-60.82 235.75,-60.82 235.75,-66.53 230.04,-72.23 224.33,-72.23 224.33,-72.23 164.92,-72.23 164.92,-72.23 159.21,-72.23 153.5,-66.53 153.5,-60.82 153.5,-60.82 153.5,-49.4 153.5,-49.4 153.5,-43.69 159.21,-37.98 164.92,-37.98"/>
</g>
<!-- reclaiming&#45;&gt;reclaiming -->
<g id="edge4" class="edge transition">
<title>reclaiming&#45;&gt;reclaiming</title>
<path fill="none" stroke="black" d="M155.77,-72.95C149.17,-82.52 162.12,-91.23 194.62,-91.23 213.42,-91.23 225.67,-88.32 231.39,-84.01"/>
<polygon fill="black" stroke="black" points="234.78,-84.91 233.2,-74.44 227.91,-83.62 234.78,-84.91"/>
<text text-anchor="start" x="0" y="-94.48" font-family="Helvetica,sans-Serif" font-size="10.00">Refresh &#45; Refresh without timeout during reclaiming should stay in reclaiming &#160;&#160;</text>
</g>
<!-- reclaiming&#45;rebooting -->
<g id="node2" class="node state regular">
<title>reclaiming&#45;rebooting</title>
<polygon fill="#ffffff" fill-opacity="0.003922" stroke="none" stroke-width="2" points="759.75,-109.23 614,-109.23 614,-72.98 759.75,-72.98 759.75,-109.23"/>
<text text-anchor="start" x="625" y="-86.83" font-family="Helvetica,sans-Serif" font-size="12.00">reclaiming&#45;rebooting</text>
<path fill="none" stroke="black" stroke-width="2" d="M626.42,-73.98C626.42,-73.98 747.33,-73.98 747.33,-73.98 753.04,-73.98 758.75,-79.69 758.75,-85.4 758.75,-85.4 758.75,-96.82 758.75,-96.82 758.75,-102.53 753.04,-108.23 747.33,-108.23 747.33,-108.23 626.42,-108.23 626.42,-108.23 620.71,-108.23 615,-102.53 615,-96.82 615,-96.82 615,-85.4 615,-85.4 615,-79.69 620.71,-73.98 626.42,-73.98"/>
</g>
<!-- reclaiming&#45;&gt;reclaiming&#45;rebooting -->
<g id="edge1" class="edge transition">
<title>reclaiming&#45;&gt;reclaiming&#45;rebooting</title>
<path fill="none" stroke="black" d="M236.5,-65C242.59,-66.21 248.81,-67.3 254.75,-68.11 375.06,-84.43 515.72,-89.31 602.81,-90.69"/>
<polygon fill="black" stroke="black" points="602.65,-94.18 612.7,-90.83 602.75,-87.19 602.65,-94.18"/>
<text text-anchor="start" x="254.75" y="-93.08" font-family="Helvetica,sans-Serif" font-size="10.00">Rebooting for Reclaim &#45; Rebooting for reclaim reclaiming host &#160;&#160;</text>
</g>
<!-- unbinding&#45;pending&#45;user&#45;action -->
<g id="node3" class="node state regular">
<title>unbinding&#45;pending&#45;user&#45;action</title>
<polygon fill="#ffffff" fill-opacity="0.003922" stroke="none" stroke-width="2" points="789,-46.23 584.75,-46.23 584.75,-9.98 789,-9.98 789,-46.23"/>
<text text-anchor="start" x="595.75" y="-23.83" font-family="Helvetica,sans-Serif" font-size="12.00">unbinding&#45;pending&#45;user&#45;action</text>
<path fill="none" stroke="black" stroke-width="2" d="M597.17,-10.98C597.17,-10.98 776.58,-10.98 776.58,-10.98 782.29,-10.98 788,-16.69 788,-22.4 788,-22.4 788,-33.82 788,-33.82 788,-39.53 782.29,-45.23 776.58,-45.23 776.58,-45.23 597.17,-45.23 597.17,-45.23 591.46,-45.23 585.75,-39.53 585.75,-33.82 585.75,-33.82 585.75,-22.4 585.75,-22.4 585.75,-16.69 591.46,-10.98 597.17,-10.98"/>
</g>
<!-- reclaiming&#45;&gt;unbinding&#45;pending&#45;user&#45;action -->
<g id="edge2" class="edge transition">
<title>reclaiming&#45;&gt;unbinding&#45;pending&#45;user&#45;action</title>
<path fill="none" stroke="black" d="M236.58,-52.85C310.04,-48.81 466.54,-40.19 573.98,-34.27"/>
<polygon fill="black" stroke="black" points="573.89,-37.78 583.69,-33.74 573.51,-30.79 573.89,-37.78"/>
<text text-anchor="start" x="281" y="-55.01" font-family="Helvetica,sans-Serif" font-size="10.00">Reclaim Failed &#45; Reclaim failure for reclaiming host &#160;&#160;</text>
</g>
<!-- reclaiming&#45;&gt;unbinding&#45;pending&#45;user&#45;action -->
<g id="edge3" class="edge transition">
<title>reclaiming&#45;&gt;unbinding&#45;pending&#45;user&#45;action</title>
<path fill="none" stroke="black" d="M218.07,-37.03C228.56,-29.71 241.62,-22.11 254.75,-18.36 388.09,19.7 428.2,-12.7 566.75,-18.36 568.97,-18.45 571.2,-18.55 573.46,-18.66"/>
<polygon fill="black" stroke="black" points="573.17,-22.15 583.34,-19.19 573.54,-15.16 573.17,-22.15"/>
<text text-anchor="start" x="324.5" y="-21.61" font-family="Helvetica,sans-Serif" font-size="10.00">Refresh &#45; Refresh reclaiming host &#160;&#160;</text>
</g>
</g>
</svg>
