<?xml version="1.0" encoding="UTF-8" standalone="no"?>
<!DOCTYPE svg PUBLIC "-//W3C//DTD SVG 1.1//EN"
 "http://www.w3.org/Graphics/SVG/1.1/DTD/svg11.dtd">
<!-- Generated by graphviz version 12.1.0 (20240811.2233)
 -->
<!-- Title: state transitions Pages: 1 -->
<svg width="827pt" height="346pt"
 viewBox="0.00 0.00 826.62 345.95" xmlns="http://www.w3.org/2000/svg" xmlns:xlink="http://www.w3.org/1999/xlink">
<g id="graph0" class="graph" transform="scale(1 1) rotate(0) translate(4 341.95)">
<title>state transitions</title>
<polygon fill="white" stroke="none" points="-4,4 -4,-341.95 822.62,-341.95 822.62,4 -4,4"/>
<!-- disconnected -->
<g id="node1" class="node state regular">
<title>disconnected</title>
<polygon fill="#ffffff" fill-opacity="0.003922" stroke="none" stroke-width="2" points="770.62,-325.36 669.12,-325.36 669.12,-289.11 770.62,-289.11 770.62,-325.36"/>
<text text-anchor="start" x="680.12" y="-302.96" font-family="Helvetica,sans-Serif" font-size="12.00">disconnected</text>
<path fill="none" stroke="black" stroke-width="2" d="M681.54,-290.11C681.54,-290.11 758.21,-290.11 758.21,-290.11 763.92,-290.11 769.62,-295.82 769.62,-301.53 769.62,-301.53 769.62,-312.94 769.62,-312.94 769.62,-318.65 763.92,-324.36 758.21,-324.36 758.21,-324.36 681.54,-324.36 681.54,-324.36 675.83,-324.36 670.12,-318.65 670.12,-312.94 670.12,-312.94 670.12,-301.53 670.12,-301.53 670.12,-295.82 675.83,-290.11 681.54,-290.11"/>
</g>
<!-- discovering -->
<g id="node2" class="node state regular">
<title>discovering</title>
<polygon fill="#ffffff" fill-opacity="0.003922" stroke="none" stroke-width="2" points="765,-262.36 674.75,-262.36 674.75,-226.11 765,-226.11 765,-262.36"/>
<text text-anchor="start" x="685.75" y="-239.96" font-family="Helvetica,sans-Serif" font-size="12.00">discovering</text>
<path fill="none" stroke="black" stroke-width="2" d="M687.17,-227.11C687.17,-227.11 752.58,-227.11 752.58,-227.11 758.29,-227.11 764,-232.82 764,-238.53 764,-238.53 764,-249.94 764,-249.94 764,-255.65 758.29,-261.36 752.58,-261.36 752.58,-261.36 687.17,-261.36 687.17,-261.36 681.46,-261.36 675.75,-255.65 675.75,-249.94 675.75,-249.94 675.75,-238.53 675.75,-238.53 675.75,-232.82 681.46,-227.11 687.17,-227.11"/>
</g>
<!-- insufficient -->
<g id="node3" class="node state regular">
<title>insufficient</title>
<polygon fill="#ffffff" fill-opacity="0.003922" stroke="none" stroke-width="2" points="763.5,-208.36 676.25,-208.36 676.25,-172.11 763.5,-172.11 763.5,-208.36"/>
<text text-anchor="start" x="687.25" y="-185.96" font-family="Helvetica,sans-Serif" font-size="12.00">insufficient</text>
<path fill="none" stroke="black" stroke-width="2" d="M688.67,-173.11C688.67,-173.11 751.08,-173.11 751.08,-173.11 756.79,-173.11 762.5,-178.82 762.5,-184.53 762.5,-184.53 762.5,-195.94 762.5,-195.94 762.5,-201.65 756.79,-207.36 751.08,-207.36 751.08,-207.36 688.67,-207.36 688.67,-207.36 682.96,-207.36 677.25,-201.65 677.25,-195.94 677.25,-195.94 677.25,-184.53 677.25,-184.53 677.25,-178.82 682.96,-173.11 688.67,-173.11"/>
</g>
<!-- known -->
<g id="node4" class="node state regular">
<title>known</title>
<polygon fill="#ffffff" fill-opacity="0.003922" stroke="none" stroke-width="2" points="750.38,-154.36 689.38,-154.36 689.38,-118.11 750.38,-118.11 750.38,-154.36"/>
<text text-anchor="start" x="700.38" y="-131.96" font-family="Helvetica,sans-Serif" font-size="12.00">known</text>
<path fill="none" stroke="black" stroke-width="2" d="M701.79,-119.11C701.79,-119.11 737.96,-119.11 737.96,-119.11 743.67,-119.11 749.38,-124.82 749.38,-130.53 749.38,-130.53 749.38,-141.94 749.38,-141.94 749.38,-147.65 743.67,-153.36 737.96,-153.36 737.96,-153.36 701.79,-153.36 701.79,-153.36 696.08,-153.36 690.38,-147.65 690.38,-141.94 690.38,-141.94 690.38,-130.53 690.38,-130.53 690.38,-124.82 696.08,-119.11 701.79,-119.11"/>
</g>
<!-- pending&#45;for&#45;input -->
<g id="node5" class="node state regular">
<title>pending&#45;for&#45;input</title>
<polygon fill="#ffffff" fill-opacity="0.003922" stroke="none" stroke-width="2" points="136.62,-190.36 11.88,-190.36 11.88,-154.11 136.62,-154.11 136.62,-190.36"/>
<text text-anchor="start" x="22.88" y="-167.96" font-family="Helvetica,sans-Serif" font-size="12.00">pending&#45;for&#45;input</text>
<path fill="none" stroke="black" stroke-width="2" d="M24.29,-155.11C24.29,-155.11 124.21,-155.11 124.21,-155.11 129.92,-155.11 135.62,-160.82 135.62,-166.53 135.62,-166.53 135.62,-177.94 135.62,-177.94 135.62,-183.65 129.92,-189.36 124.21,-189.36 124.21,-189.36 24.29,-189.36 24.29,-189.36 18.58,-189.36 12.88,-183.65 12.88,-177.94 12.88,-177.94 12.88,-166.53 12.88,-166.53 12.88,-160.82 18.58,-155.11 24.29,-155.11"/>
</g>
<!-- pending&#45;for&#45;input&#45;&gt;disconnected -->
<g id="edge1" class="edge transition">
<title>pending&#45;for&#45;input&#45;&gt;disconnected</title>
<path fill="none" stroke="black" d="M80.76,-189.93C90.52,-217.9 113.79,-271.48 154.62,-294.24 239.37,-341.47 530.63,-323.41 658.2,-312.81"/>
<polygon fill="black" stroke="black" points="658.12,-316.33 667.79,-312 657.53,-309.35 658.12,-316.33"/>
<text text-anchor="start" x="154.62" y="-328.45" font-family="Helvetica,sans-Serif" font-size="10.00">Media Disconnect &#45; Move to disconnected when virtual media disconnects pre&#45;installation &#160;&#160;</text>
</g>
<!-- pending&#45;for&#45;input&#45;&gt;disconnected -->
<g id="edge3" class="edge transition">
<title>pending&#45;for&#45;input&#45;&gt;disconnected</title>
<path fill="none" stroke="black" d="M85.73,-190.28C98.86,-210.94 123.47,-243.79 154.62,-258.24 199.88,-279.22 553.79,-270.17 603.12,-277.49 621.23,-280.17 640.59,-284.54 658.2,-289.11"/>
<polygon fill="black" stroke="black" points="657.18,-292.45 667.74,-291.65 658.98,-285.69 657.18,-292.45"/>
<text text-anchor="start" x="219.12" y="-280.74" font-family="Helvetica,sans-Serif" font-size="10.00">Refresh &#45; Move host to disconnected when connected times out &#160;&#160;</text>
</g>
<!-- pending&#45;for&#45;input&#45;&gt;discovering -->
<g id="edge8" class="edge transition">
<title>pending&#45;for&#45;input&#45;&gt;discovering</title>
<path fill="none" stroke="black" d="M102.3,-190.33C117.1,-199.23 136.14,-209.12 154.62,-214.24 249.31,-240.43 541.22,-244 663.79,-244.31"/>
<polygon fill="black" stroke="black" points="663.59,-247.81 673.6,-244.33 663.6,-240.81 663.59,-247.81"/>
<text text-anchor="start" x="300.12" y="-247.1" font-family="Helvetica,sans-Serif" font-size="10.00">Register Host &#45; Re&#45;registration &#160;&#160;</text>
</g>
<!-- pending&#45;for&#45;input&#45;&gt;insufficient -->
<g id="edge4" class="edge transition">
<title>pending&#45;for&#45;input&#45;&gt;insufficient</title>
<path fill="none" stroke="black" d="M136.21,-184.05C142.41,-184.93 148.63,-185.69 154.62,-186.24 341.37,-203.25 564.32,-197.05 664.92,-192.85"/>
<polygon fill="black" stroke="black" points="664.93,-196.35 674.77,-192.42 664.63,-189.36 664.93,-196.35"/>
<text text-anchor="start" x="276.12" y="-200.75" font-family="Helvetica,sans-Serif" font-size="10.00">Refresh &#45; Host has insufficient hardware &#160;&#160;</text>
</g>
<!-- pending&#45;for&#45;input&#45;&gt;insufficient -->
<g id="edge6" class="edge transition">
<title>pending&#45;for&#45;input&#45;&gt;insufficient</title>
<path fill="none" stroke="black" d="M136.37,-168.21C234.86,-162.55 434.7,-154.51 603.12,-169.49 623.61,-171.31 645.89,-174.91 665.39,-178.61"/>
<polygon fill="black" stroke="black" points="664.54,-182.01 675.03,-180.49 665.89,-175.14 664.54,-182.01"/>
<text text-anchor="start" x="314.75" y="-172.74" font-family="Helvetica,sans-Serif" font-size="10.00">Refresh &#45; Host not ready &#160;&#160;</text>
</g>
<!-- pending&#45;for&#45;input&#45;&gt;known -->
<g id="edge7" class="edge transition">
<title>pending&#45;for&#45;input&#45;&gt;known</title>
<path fill="none" stroke="black" d="M118.66,-154.24C130.16,-150.26 142.69,-146.6 154.62,-144.49 348,-110.2 584.52,-124.55 678.03,-132.39"/>
<polygon fill="black" stroke="black" points="677.72,-135.88 687.98,-133.25 678.32,-128.9 677.72,-135.88"/>
<text text-anchor="start" x="324.12" y="-147.74" font-family="Helvetica,sans-Serif" font-size="10.00">Refresh &#45; Host ready &#160;&#160;</text>
</g>
<!-- pending&#45;for&#45;input&#45;&gt;pending&#45;for&#45;input -->
<g id="edge5" class="edge transition">
<title>pending&#45;for&#45;input&#45;&gt;pending&#45;for&#45;input</title>
<path fill="none" stroke="black" d="M19.49,-190.08C10.18,-199.65 28.44,-208.36 74.25,-208.36 100.74,-208.36 118.01,-205.45 126.07,-201.14"/>
<polygon fill="black" stroke="black" points="129.44,-202.11 128.62,-191.54 122.67,-200.31 129.44,-202.11"/>
<text text-anchor="start" x="0" y="-211.61" font-family="Helvetica,sans-Serif" font-size="10.00">Refresh &#45; Host pending input &#160;&#160;</text>
</g>
<!-- unbinding -->
<g id="node6" class="node state regular">
<title>unbinding</title>
<polygon fill="#ffffff" fill-opacity="0.003922" stroke="none" stroke-width="2" points="760.12,-100.36 679.62,-100.36 679.62,-64.11 760.12,-64.11 760.12,-100.36"/>
<text text-anchor="start" x="690.62" y="-77.96" font-family="Helvetica,sans-Serif" font-size="12.00">unbinding</text>
<path fill="none" stroke="black" stroke-width="2" d="M692.04,-65.11C692.04,-65.11 747.71,-65.11 747.71,-65.11 753.42,-65.11 759.12,-70.82 759.12,-76.53 759.12,-76.53 759.12,-87.94 759.12,-87.94 759.12,-93.65 753.42,-99.36 747.71,-99.36 747.71,-99.36 692.04,-99.36 692.04,-99.36 686.33,-99.36 680.62,-93.65 680.62,-87.94 680.62,-87.94 680.62,-76.53 680.62,-76.53 680.62,-70.82 686.33,-65.11 692.04,-65.11"/>
</g>
<!-- pending&#45;for&#45;input&#45;&gt;unbinding -->
<g id="edge2" class="edge transition">
<title>pending&#45;for&#45;input&#45;&gt;unbinding</title>
<path fill="none" stroke="black" d="M90.14,-154.29C104.69,-138.21 128.44,-115.65 154.62,-105.49 201.76,-87.19 539.27,-83.28 668.61,-82.46"/>
<polygon fill="black" stroke="black" points="668.25,-85.96 678.23,-82.4 668.21,-78.96 668.25,-85.96"/>
<text text-anchor="start" x="278.38" y="-108.74" font-family="Helvetica,sans-Serif" font-size="10.00">Reclaim Host &#45; Reclaim pre&#45;installation &#160;&#160;</text>
</g>
<!-- pending&#45;for&#45;input&#45;&gt;unbinding -->
<g id="edge10" class="edge transition">
<title>pending&#45;for&#45;input&#45;&gt;unbinding</title>
<path fill="none" stroke="black" d="M82.5,-154.28C93.71,-129.24 117.87,-84.86 154.62,-66.49 243.79,-21.92 547.57,-58.13 668.56,-74.88"/>
<polygon fill="black" stroke="black" points="667.8,-78.31 678.18,-76.23 668.77,-71.38 667.8,-78.31"/>
<text text-anchor="start" x="283.62" y="-69.74" font-family="Helvetica,sans-Serif" font-size="10.00">Unbind Host &#45; Unbind pre&#45;installation &#160;&#160;</text>
</g>
<!-- resetting&#45;pending&#45;user&#45;action -->
<g id="node7" class="node state regular">
<title>resetting&#45;pending&#45;user&#45;action</title>
<polygon fill="#ffffff" fill-opacity="0.003922" stroke="none" stroke-width="2" points="818.62,-46.36 621.12,-46.36 621.12,-10.11 818.62,-10.11 818.62,-46.36"/>
<text text-anchor="start" x="632.12" y="-23.96" font-family="Helvetica,sans-Serif" font-size="12.00">resetting&#45;pending&#45;user&#45;action</text>
<path fill="none" stroke="black" stroke-width="2" d="M633.54,-11.11C633.54,-11.11 806.21,-11.11 806.21,-11.11 811.92,-11.11 817.62,-16.82 817.62,-22.53 817.62,-22.53 817.62,-33.94 817.62,-33.94 817.62,-39.65 811.92,-45.36 806.21,-45.36 806.21,-45.36 633.54,-45.36 633.54,-45.36 627.83,-45.36 622.12,-39.65 622.12,-33.94 622.12,-33.94 622.12,-22.53 622.12,-22.53 622.12,-16.82 627.83,-11.11 633.54,-11.11"/>
</g>
<!-- pending&#45;for&#45;input&#45;&gt;resetting&#45;pending&#45;user&#45;action -->
<g id="edge9" class="edge transition">
<title>pending&#45;for&#45;input&#45;&gt;resetting&#45;pending&#45;user&#45;action</title>
<path fill="none" stroke="black" d="M79,-154.24C86.74,-122.22 107.86,-56.1 154.62,-28.49 228.9,15.37 468,-0.99 610.01,-15.48"/>
<polygon fill="black" stroke="black" points="609.52,-18.95 619.82,-16.5 610.24,-11.98 609.52,-18.95"/>
<text text-anchor="start" x="206.75" y="-31.74" font-family="Helvetica,sans-Serif" font-size="10.00">Resetting, Pending User Action &#45; Reset pending user action all states &#160;&#160;</text>
</g>
</g>
</svg>
