<?xml version="1.0" encoding="UTF-8" standalone="no"?>
<!DOCTYPE svg PUBLIC "-//W3C//DTD SVG 1.1//EN"
 "http://www.w3.org/Graphics/SVG/1.1/DTD/svg11.dtd">
<!-- Generated by graphviz version 5.0.0 (0)
 -->
<!-- Title: state transitions Pages: 1 -->
<svg width="729pt" height="206pt"
 viewBox="0.00 0.00 729.00 206.00" xmlns="http://www.w3.org/2000/svg" xmlns:xlink="http://www.w3.org/1999/xlink">
<g id="graph0" class="graph" transform="scale(1 1) rotate(0) translate(4 202)">
<title>state transitions</title>
<polygon fill="white" stroke="transparent" points="-4,4 -4,-202 725,-202 725,4 -4,4"/>
<!-- added&#45;to&#45;existing&#45;cluster -->
<g id="node1" class="node state regular">
<title>added&#45;to&#45;existing&#45;cluster</title>
<polygon fill="#ffffff" fill-opacity="0.003922" stroke="transparent" stroke-width="2" points="188,-117 35,-117 35,-81 188,-81 188,-117"/>
<text text-anchor="start" x="46.5" y="-95.4" font-family="Helvetica,sans-Serif" font-size="12.00">added&#45;to&#45;existing&#45;cluster</text>
<path fill="none" stroke="black" stroke-width="2" d="M47,-82.5C47,-82.5 176,-82.5 176,-82.5 181.5,-82.5 187,-88 187,-93.5 187,-93.5 187,-104.5 187,-104.5 187,-110 181.5,-115.5 176,-115.5 176,-115.5 47,-115.5 47,-115.5 41.5,-115.5 36,-110 36,-104.5 36,-104.5 36,-93.5 36,-93.5 36,-88 41.5,-82.5 47,-82.5"/>
</g>
<!-- added&#45;to&#45;existing&#45;cluster&#45;&gt;added&#45;to&#45;existing&#45;cluster -->
<g id="edge2" class="edge transition">
<title>added&#45;to&#45;existing&#45;cluster&#45;&gt;added&#45;to&#45;existing&#45;cluster</title>
<path fill="none" stroke="black" d="M66.27,-117.15C59.31,-126.54 74.39,-135 111.5,-135 134.11,-135 148.55,-131.86 154.79,-127.28"/>
<polygon fill="black" stroke="black" points="158.29,-127.63 156.73,-117.15 151.41,-126.32 158.29,-127.63"/>
<text text-anchor="start" x="0" y="-138" font-family="Helvetica,sans-Serif" font-size="10.00">Refresh &#45; Day 2 hosts should stay in added state &#160;&#160;</text>
</g>
<!-- installing&#45;pending&#45;user&#45;action -->
<g id="node2" class="node state regular">
<title>installing&#45;pending&#45;user&#45;action</title>
<polygon fill="#ffffff" fill-opacity="0.003922" stroke="transparent" stroke-width="2" points="718.5,-198 537.5,-198 537.5,-162 718.5,-162 718.5,-198"/>
<text text-anchor="start" x="549" y="-176.4" font-family="Helvetica,sans-Serif" font-size="12.00">installing&#45;pending&#45;user&#45;action</text>
<path fill="none" stroke="black" stroke-width="2" d="M549.5,-163.5C549.5,-163.5 706.5,-163.5 706.5,-163.5 712,-163.5 717.5,-169 717.5,-174.5 717.5,-174.5 717.5,-185.5 717.5,-185.5 717.5,-191 712,-196.5 706.5,-196.5 706.5,-196.5 549.5,-196.5 549.5,-196.5 544,-196.5 538.5,-191 538.5,-185.5 538.5,-185.5 538.5,-174.5 538.5,-174.5 538.5,-169 544,-163.5 549.5,-163.5"/>
</g>
<!-- added&#45;to&#45;existing&#45;cluster&#45;&gt;installing&#45;pending&#45;user&#45;action -->
<g id="edge3" class="edge transition">
<title>added&#45;to&#45;existing&#45;cluster&#45;&gt;installing&#45;pending&#45;user&#45;action</title>
<path fill="none" stroke="black" d="M152.72,-117.14C168.97,-123.75 188.08,-130.67 206,-135 313.91,-161.06 441.01,-172.04 527.11,-176.65"/>
<polygon fill="black" stroke="black" points="526.98,-180.15 537.14,-177.17 527.34,-173.16 526.98,-180.15"/>
<text text-anchor="start" x="263.5" y="-178" font-family="Helvetica,sans-Serif" font-size="10.00">Register Host &#45; Wrong boot order detection &#160;&#160;</text>
</g>
<!-- reclaiming -->
<g id="node3" class="node state regular">
<title>reclaiming</title>
<polygon fill="#ffffff" fill-opacity="0.003922" stroke="transparent" stroke-width="2" points="667,-144 589,-144 589,-108 667,-108 667,-144"/>
<text text-anchor="start" x="600" y="-122.4" font-family="Helvetica,sans-Serif" font-size="12.00">reclaiming</text>
<path fill="none" stroke="black" stroke-width="2" d="M601,-109.5C601,-109.5 655,-109.5 655,-109.5 660.5,-109.5 666,-115 666,-120.5 666,-120.5 666,-131.5 666,-131.5 666,-137 660.5,-142.5 655,-142.5 655,-142.5 601,-142.5 601,-142.5 595.5,-142.5 590,-137 590,-131.5 590,-131.5 590,-120.5 590,-120.5 590,-115 595.5,-109.5 601,-109.5"/>
</g>
<!-- added&#45;to&#45;existing&#45;cluster&#45;&gt;reclaiming -->
<g id="edge1" class="edge transition">
<title>added&#45;to&#45;existing&#45;cluster&#45;&gt;reclaiming</title>
<path fill="none" stroke="black" d="M188.14,-102.97C295.48,-108.6 488.91,-118.75 578.74,-123.47"/>
<polygon fill="black" stroke="black" points="578.74,-126.97 588.91,-124 579.11,-119.98 578.74,-126.97"/>
<text text-anchor="start" x="269" y="-123" font-family="Helvetica,sans-Serif" font-size="10.00">Reclaim Host &#45; Reclaim successful host &#160;&#160;</text>
</g>
<!-- resetting&#45;pending&#45;user&#45;action -->
<g id="node4" class="node state regular">
<title>resetting&#45;pending&#45;user&#45;action</title>
<polygon fill="#ffffff" fill-opacity="0.003922" stroke="transparent" stroke-width="2" points="717.5,-90 538.5,-90 538.5,-54 717.5,-54 717.5,-90"/>
<text text-anchor="start" x="550" y="-68.4" font-family="Helvetica,sans-Serif" font-size="12.00">resetting&#45;pending&#45;user&#45;action</text>
<path fill="none" stroke="black" stroke-width="2" d="M550.5,-55.5C550.5,-55.5 705.5,-55.5 705.5,-55.5 711,-55.5 716.5,-61 716.5,-66.5 716.5,-66.5 716.5,-77.5 716.5,-77.5 716.5,-83 711,-88.5 705.5,-88.5 705.5,-88.5 550.5,-88.5 550.5,-88.5 545,-88.5 539.5,-83 539.5,-77.5 539.5,-77.5 539.5,-66.5 539.5,-66.5 539.5,-61 545,-55.5 550.5,-55.5"/>
</g>
<!-- added&#45;to&#45;existing&#45;cluster&#45;&gt;resetting&#45;pending&#45;user&#45;action -->
<g id="edge4" class="edge transition">
<title>added&#45;to&#45;existing&#45;cluster&#45;&gt;resetting&#45;pending&#45;user&#45;action</title>
<path fill="none" stroke="black" d="M188.24,-90.47C194.25,-89.92 200.22,-89.43 206,-89 316.06,-80.9 442.61,-76.44 528,-74.15"/>
<polygon fill="black" stroke="black" points="528.3,-77.64 538.2,-73.88 528.11,-70.64 528.3,-77.64"/>
<text text-anchor="start" x="206" y="-92" font-family="Helvetica,sans-Serif" font-size="10.00">Resetting, Pending User Action &#45; Reset pending user action all states &#160;&#160;</text>
</g>
<!-- unbinding&#45;pending&#45;user&#45;action -->
<g id="node5" class="node state regular">
<title>unbinding&#45;pending&#45;user&#45;action</title>
<polygon fill="#ffffff" fill-opacity="0.003922" stroke="transparent" stroke-width="2" points="721,-36 535,-36 535,0 721,0 721,-36"/>
<text text-anchor="start" x="546" y="-14.4" font-family="Helvetica,sans-Serif" font-size="12.00">unbinding&#45;pending&#45;user&#45;action</text>
<path fill="none" stroke="black" stroke-width="2" d="M547,-1.5C547,-1.5 709,-1.5 709,-1.5 714.5,-1.5 720,-7 720,-12.5 720,-12.5 720,-23.5 720,-23.5 720,-29 714.5,-34.5 709,-34.5 709,-34.5 547,-34.5 547,-34.5 541.5,-34.5 536,-29 536,-23.5 536,-23.5 536,-12.5 536,-12.5 536,-7 541.5,-1.5 547,-1.5"/>
</g>
<!-- added&#45;to&#45;existing&#45;cluster&#45;&gt;unbinding&#45;pending&#45;user&#45;action -->
<g id="edge5" class="edge transition">
<title>added&#45;to&#45;existing&#45;cluster&#45;&gt;unbinding&#45;pending&#45;user&#45;action</title>
<path fill="none" stroke="black" d="M147.56,-80.96C164.74,-72.92 185.99,-64.12 206,-59 312.58,-31.71 438.6,-22.32 524.81,-19.22"/>
<polygon fill="black" stroke="black" points="524.98,-22.72 534.86,-18.89 524.74,-15.72 524.98,-22.72"/>
<text text-anchor="start" x="253" y="-62" font-family="Helvetica,sans-Serif" font-size="10.00">Unbind Host &#45; Unbind during or after installation &#160;&#160;</text>
</g>
</g>
</svg>
