<?xml version="1.0" encoding="UTF-8" standalone="no"?>
<!DOCTYPE svg PUBLIC "-//W3C//DTD SVG 1.1//EN"
 "http://www.w3.org/Graphics/SVG/1.1/DTD/svg11.dtd">
<!-- Generated by graphviz version 7.1.0 (0)
 -->
<!-- Title: state transitions Pages: 1 -->
<svg width="825pt" height="456pt"
 viewBox="0.00 0.00 824.50 456.38" xmlns="http://www.w3.org/2000/svg" xmlns:xlink="http://www.w3.org/1999/xlink">
<g id="graph0" class="graph" transform="scale(1 1) rotate(0) translate(4 452.38)">
<title>state transitions</title>
<polygon fill="white" stroke="none" points="-4,4 -4,-452.38 820.5,-452.38 820.5,4 -4,4"/>
<!-- added&#45;to&#45;existing&#45;cluster -->
<g id="node1" class="node state regular">
<title>added&#45;to&#45;existing&#45;cluster</title>
<polygon fill="#ffffff" fill-opacity="0.003922" stroke="none" stroke-width="2" points="803.5,-446.38 650.5,-446.38 650.5,-410.38 803.5,-410.38 803.5,-446.38"/>
<text text-anchor="start" x="662" y="-424.78" font-family="Helvetica,sans-Serif" font-size="12.00">added&#45;to&#45;existing&#45;cluster</text>
<path fill="none" stroke="black" stroke-width="2" d="M662.5,-411.88C662.5,-411.88 791.5,-411.88 791.5,-411.88 797,-411.88 802.5,-417.38 802.5,-422.88 802.5,-422.88 802.5,-433.88 802.5,-433.88 802.5,-439.38 797,-444.88 791.5,-444.88 791.5,-444.88 662.5,-444.88 662.5,-444.88 657,-444.88 651.5,-439.38 651.5,-433.88 651.5,-433.88 651.5,-422.88 651.5,-422.88 651.5,-417.38 657,-411.88 662.5,-411.88"/>
</g>
<!-- cancelled -->
<g id="node2" class="node state regular">
<title>cancelled</title>
<polygon fill="#ffffff" fill-opacity="0.003922" stroke="none" stroke-width="2" points="764,-392.38 690,-392.38 690,-356.38 764,-356.38 764,-392.38"/>
<text text-anchor="start" x="701" y="-370.78" font-family="Helvetica,sans-Serif" font-size="12.00">cancelled</text>
<path fill="none" stroke="black" stroke-width="2" d="M702,-357.88C702,-357.88 752,-357.88 752,-357.88 757.5,-357.88 763,-363.38 763,-368.88 763,-368.88 763,-379.88 763,-379.88 763,-385.38 757.5,-390.88 752,-390.88 752,-390.88 702,-390.88 702,-390.88 696.5,-390.88 691,-385.38 691,-379.88 691,-379.88 691,-368.88 691,-368.88 691,-363.38 696.5,-357.88 702,-357.88"/>
</g>
<!-- error -->
<g id="node3" class="node state regular">
<title>error</title>
<polygon fill="#ffffff" fill-opacity="0.003922" stroke="none" stroke-width="2" points="755,-273.38 699,-273.38 699,-237.38 755,-237.38 755,-273.38"/>
<text text-anchor="start" x="714.5" y="-251.78" font-family="Helvetica,sans-Serif" font-size="12.00">error</text>
<path fill="none" stroke="black" stroke-width="2" d="M711,-238.88C711,-238.88 743,-238.88 743,-238.88 748.5,-238.88 754,-244.38 754,-249.88 754,-249.88 754,-260.88 754,-260.88 754,-266.38 748.5,-271.88 743,-271.88 743,-271.88 711,-271.88 711,-271.88 705.5,-271.88 700,-266.38 700,-260.88 700,-260.88 700,-249.88 700,-249.88 700,-244.38 705.5,-238.88 711,-238.88"/>
</g>
<!-- installed -->
<g id="node4" class="node state regular">
<title>installed</title>
<polygon fill="#ffffff" fill-opacity="0.003922" stroke="none" stroke-width="2" points="761,-154.38 693,-154.38 693,-118.38 761,-118.38 761,-154.38"/>
<text text-anchor="start" x="704" y="-132.78" font-family="Helvetica,sans-Serif" font-size="12.00">installed</text>
<path fill="none" stroke="black" stroke-width="2" d="M705,-119.88C705,-119.88 749,-119.88 749,-119.88 754.5,-119.88 760,-125.38 760,-130.88 760,-130.88 760,-141.88 760,-141.88 760,-147.38 754.5,-152.88 749,-152.88 749,-152.88 705,-152.88 705,-152.88 699.5,-152.88 694,-147.38 694,-141.88 694,-141.88 694,-130.88 694,-130.88 694,-125.38 699.5,-119.88 705,-119.88"/>
</g>
<!-- installing -->
<g id="node5" class="node state regular">
<title>installing</title>
<polygon fill="#ffffff" fill-opacity="0.003922" stroke="none" stroke-width="2" points="235.5,-239.38 164.5,-239.38 164.5,-203.38 235.5,-203.38 235.5,-239.38"/>
<text text-anchor="start" x="176" y="-217.78" font-family="Helvetica,sans-Serif" font-size="12.00">installing</text>
<path fill="none" stroke="black" stroke-width="2" d="M176.5,-204.88C176.5,-204.88 223.5,-204.88 223.5,-204.88 229,-204.88 234.5,-210.38 234.5,-215.88 234.5,-215.88 234.5,-226.88 234.5,-226.88 234.5,-232.38 229,-237.88 223.5,-237.88 223.5,-237.88 176.5,-237.88 176.5,-237.88 171,-237.88 165.5,-232.38 165.5,-226.88 165.5,-226.88 165.5,-215.88 165.5,-215.88 165.5,-210.38 171,-204.88 176.5,-204.88"/>
</g>
<!-- installing&#45;&gt;added&#45;to&#45;existing&#45;cluster -->
<g id="edge4" class="edge transition">
<title>installing&#45;&gt;added&#45;to&#45;existing&#45;cluster</title>
<path fill="none" stroke="black" d="M200.25,-239.15C199.8,-275.52 204.51,-358.31 253.5,-397.38 311.09,-443.31 519.62,-440.12 639.53,-434.08"/>
<polygon fill="black" stroke="black" points="639.53,-437.59 649.33,-433.57 639.16,-430.59 639.53,-437.59"/>
<text text-anchor="start" x="280" y="-440.38" font-family="Helvetica,sans-Serif" font-size="10.00">null &#45; host progress changed to added&#45;to&#45;existing&#45;cluster for day2 host &#160;&#160;</text>
</g>
<!-- installing&#45;&gt;cancelled -->
<g id="edge1" class="edge transition">
<title>installing&#45;&gt;cancelled</title>
<path fill="none" stroke="black" d="M202.73,-238.94C206.5,-266.77 218.2,-320.4 253.5,-345.38 320.83,-393.02 573.06,-383.78 678.85,-377.57"/>
<polygon fill="black" stroke="black" points="678.83,-381.08 688.6,-376.98 678.4,-374.09 678.83,-381.08"/>
<text text-anchor="start" x="293" y="-385.38" font-family="Helvetica,sans-Serif" font-size="10.00">Cancel Installation &#45; Installation canceled while host is installing &#160;&#160;</text>
</g>
<!-- installing&#45;&gt;error -->
<g id="edge2" class="edge transition">
<title>installing&#45;&gt;error</title>
<path fill="none" stroke="black" d="M204.8,-239.21C210.75,-262.2 224.71,-301.23 253.5,-318.38 288.44,-339.19 580.28,-329.11 619.5,-318.38 646.92,-310.87 674.45,-294.29 694.65,-280.02"/>
<polygon fill="black" stroke="black" points="696.7,-282.86 702.73,-274.15 692.58,-277.2 696.7,-282.86"/>
<text text-anchor="start" x="302.5" y="-333.38" font-family="Helvetica,sans-Serif" font-size="10.00">Installation Failed &#45; Installation failed while host is installing &#160;&#160;</text>
</g>
<!-- installing&#45;&gt;error -->
<g id="edge7" class="edge transition">
<title>installing&#45;&gt;error</title>
<path fill="none" stroke="black" d="M210.08,-239.28C218.87,-254.44 233.77,-275.14 253.5,-284.38 327.15,-318.88 538.88,-295.16 619.5,-284.38 642.79,-281.26 668.2,-274.48 688.36,-268.26"/>
<polygon fill="black" stroke="black" points="689.36,-271.61 697.83,-265.25 687.24,-264.94 689.36,-271.61"/>
<text text-anchor="start" x="253.5" y="-305.38" font-family="Helvetica,sans-Serif" font-size="10.00">Media Disconnect &#45; Move to error when virtual media disconnects post&#45;installation &#160;&#160;</text>
</g>
<!-- installing&#45;&gt;error -->
<g id="edge8" class="edge transition">
<title>installing&#45;&gt;error</title>
<path fill="none" stroke="black" d="M227.44,-239.29C235.46,-243.79 244.54,-248.02 253.5,-250.38 335.08,-271.87 590.56,-262.06 687.85,-257.37"/>
<polygon fill="black" stroke="black" points="687.85,-260.87 697.67,-256.88 687.51,-253.88 687.85,-260.87"/>
<text text-anchor="start" x="320" y="-266.38" font-family="Helvetica,sans-Serif" font-size="10.00">Refresh &#45; Move host to error when cluster is in error &#160;&#160;</text>
</g>
<!-- installing&#45;&gt;error -->
<g id="edge9" class="edge transition">
<title>installing&#45;&gt;error</title>
<path fill="none" stroke="black" d="M235.28,-221.19C306.87,-221.13 477.38,-222.71 619.5,-237.38 642.42,-239.74 667.88,-243.99 688.15,-247.76"/>
<polygon fill="black" stroke="black" points="687.47,-251.19 697.95,-249.62 688.78,-244.31 687.47,-251.19"/>
<text text-anchor="start" x="311.5" y="-240.38" font-family="Helvetica,sans-Serif" font-size="10.00">Refresh &#45; Move host to error when installation times out &#160;&#160;</text>
</g>
<!-- installing&#45;&gt;error -->
<g id="edge10" class="edge transition">
<title>installing&#45;&gt;error</title>
<path fill="none" stroke="black" d="M235.4,-209.32C241.37,-207.68 247.56,-206.26 253.5,-205.38 414.39,-181.41 460.74,-169.96 619.5,-205.38 643.95,-210.83 669.41,-222.53 689.3,-233.25"/>
<polygon fill="black" stroke="black" points="687.4,-236.19 697.84,-237.98 690.8,-230.07 687.4,-236.19"/>
<text text-anchor="start" x="290.5" y="-208.38" font-family="Helvetica,sans-Serif" font-size="10.00">Refresh &#45; Move installing host to error when connection times out &#160;&#160;</text>
</g>
<!-- installing&#45;&gt;error -->
<g id="edge12" class="edge transition">
<title>installing&#45;&gt;error</title>
<path fill="none" stroke="black" d="M213.14,-203.49C222.54,-191.34 236.77,-176.26 253.5,-169.38 291.11,-153.91 581.16,-155.83 619.5,-169.38 653.03,-181.23 683.74,-208.6 703.48,-229.31"/>
<polygon fill="black" stroke="black" points="700.86,-231.63 710.22,-236.6 706,-226.88 700.86,-231.63"/>
<text text-anchor="start" x="340" y="-172.38" font-family="Helvetica,sans-Serif" font-size="10.00">Register Host &#45; Register during installation &#160;&#160;</text>
</g>
<!-- installing&#45;&gt;installed -->
<g id="edge5" class="edge transition">
<title>installing&#45;&gt;installed</title>
<path fill="none" stroke="black" d="M207.21,-203.68C214.86,-184.9 229.82,-156.21 253.5,-143.38 326.43,-103.86 578.94,-122.4 681.84,-131.94"/>
<polygon fill="black" stroke="black" points="681.26,-135.4 691.54,-132.86 681.92,-128.43 681.26,-135.4"/>
<text text-anchor="start" x="345" y="-146.38" font-family="Helvetica,sans-Serif" font-size="10.00">null &#45; host progress changed to installed &#160;&#160;</text>
</g>
<!-- installing&#45;&gt;installing -->
<g id="edge11" class="edge transition">
<title>installing&#45;&gt;installing</title>
<path fill="none" stroke="black" d="M164.76,-233.18C145.3,-244.71 157.04,-257.38 200,-257.38 233.56,-257.38 248.07,-249.65 243.53,-240.76"/>
<polygon fill="black" stroke="black" points="246.1,-238.37 236.36,-234.2 241.37,-243.53 246.1,-238.37"/>
<text text-anchor="start" x="0" y="-260.38" font-family="Helvetica,sans-Serif" font-size="10.00">Refresh &#45; Refresh during installing state without cluster error should stay in installing state &#160;&#160;</text>
</g>
<!-- installing&#45;in&#45;progress -->
<g id="node6" class="node state regular">
<title>installing&#45;in&#45;progress</title>
<polygon fill="#ffffff" fill-opacity="0.003922" stroke="none" stroke-width="2" points="794,-100.38 660,-100.38 660,-64.38 794,-64.38 794,-100.38"/>
<text text-anchor="start" x="671" y="-78.78" font-family="Helvetica,sans-Serif" font-size="12.00">installing&#45;in&#45;progress</text>
<path fill="none" stroke="black" stroke-width="2" d="M672,-65.88C672,-65.88 782,-65.88 782,-65.88 787.5,-65.88 793,-71.38 793,-76.88 793,-76.88 793,-87.88 793,-87.88 793,-93.38 787.5,-98.88 782,-98.88 782,-98.88 672,-98.88 672,-98.88 666.5,-98.88 661,-93.38 661,-87.88 661,-87.88 661,-76.88 661,-76.88 661,-71.38 666.5,-65.88 672,-65.88"/>
</g>
<!-- installing&#45;&gt;installing&#45;in&#45;progress -->
<g id="edge3" class="edge transition">
<title>installing&#45;&gt;installing&#45;in&#45;progress</title>
<path fill="none" stroke="black" d="M203.1,-203.7C207.34,-176.86 219.59,-126.49 253.5,-103.38 285.25,-81.74 523.12,-80.52 648.76,-81.42"/>
<polygon fill="black" stroke="black" points="648.64,-84.92 658.67,-81.5 648.7,-77.92 648.64,-84.92"/>
<text text-anchor="start" x="277" y="-106.38" font-family="Helvetica,sans-Serif" font-size="10.00">null &#45; host progress installing&#45;in&#45;progress on rebooting in kube&#45;api mode &#160;&#160;</text>
</g>
<!-- installing&#45;&gt;installing&#45;in&#45;progress -->
<g id="edge6" class="edge transition">
<title>installing&#45;&gt;installing&#45;in&#45;progress</title>
<path fill="none" stroke="black" d="M200.93,-203.49C201.88,-170.15 209.28,-99.02 253.5,-67.38 314.84,-23.48 531.71,-50.36 649.12,-69"/>
<polygon fill="black" stroke="black" points="648.25,-72.41 658.67,-70.54 649.36,-65.5 648.25,-72.41"/>
<text text-anchor="start" x="354" y="-70.38" font-family="Helvetica,sans-Serif" font-size="10.00">null &#45; default host progress changed &#160;&#160;</text>
</g>
<!-- resetting&#45;pending&#45;user&#45;action -->
<g id="node7" class="node state regular">
<title>resetting&#45;pending&#45;user&#45;action</title>
<polygon fill="#ffffff" fill-opacity="0.003922" stroke="none" stroke-width="2" points="816.5,-46.38 637.5,-46.38 637.5,-10.38 816.5,-10.38 816.5,-46.38"/>
<text text-anchor="start" x="649" y="-24.78" font-family="Helvetica,sans-Serif" font-size="12.00">resetting&#45;pending&#45;user&#45;action</text>
<path fill="none" stroke="black" stroke-width="2" d="M649.5,-11.88C649.5,-11.88 804.5,-11.88 804.5,-11.88 810,-11.88 815.5,-17.38 815.5,-22.88 815.5,-22.88 815.5,-33.88 815.5,-33.88 815.5,-39.38 810,-44.88 804.5,-44.88 804.5,-44.88 649.5,-44.88 649.5,-44.88 644,-44.88 638.5,-39.38 638.5,-33.88 638.5,-33.88 638.5,-22.88 638.5,-22.88 638.5,-17.38 644,-11.88 649.5,-11.88"/>
</g>
<!-- installing&#45;&gt;resetting&#45;pending&#45;user&#45;action -->
<g id="edge13" class="edge transition">
<title>installing&#45;&gt;resetting&#45;pending&#45;user&#45;action</title>
<path fill="none" stroke="black" d="M203.14,-203.39C208.73,-159.67 225.36,-49.89 253.5,-28.38 309.79,14.64 505.23,-0.39 626.42,-14.72"/>
<polygon fill="black" stroke="black" points="625.7,-18.16 636.04,-15.88 626.53,-11.21 625.7,-18.16"/>
<text text-anchor="start" x="281" y="-31.38" font-family="Helvetica,sans-Serif" font-size="10.00">Resetting, Pending User Action &#45; Reset pending user action all states &#160;&#160;</text>
</g>
</g>
</svg>
