<?xml version="1.0" encoding="UTF-8" standalone="no"?>
<!DOCTYPE svg PUBLIC "-//W3C//DTD SVG 1.1//EN"
 "http://www.w3.org/Graphics/SVG/1.1/DTD/svg11.dtd">
<!-- Generated by graphviz version 12.1.0 (20240811.2233)
 -->
<!-- Title: state transitions Pages: 1 -->
<svg width="1125pt" height="260pt"
 viewBox="0.00 0.00 1125.12 260.25" xmlns="http://www.w3.org/2000/svg" xmlns:xlink="http://www.w3.org/1999/xlink">
<g id="graph0" class="graph" transform="scale(1 1) rotate(0) translate(4 256.25)">
<title>state transitions</title>
<polygon fill="white" stroke="none" points="-4,4 -4,-256.25 1121.12,-256.25 1121.12,4 -4,4"/>
<!-- added&#45;to&#45;existing&#45;cluster -->
<g id="node1" class="node state regular">
<title>added&#45;to&#45;existing&#45;cluster</title>
<polygon fill="#ffffff" fill-opacity="0.003922" stroke="none" stroke-width="2" points="1104,-252.25 932.75,-252.25 932.75,-216 1104,-216 1104,-252.25"/>
<text text-anchor="start" x="943.75" y="-229.85" font-family="Helvetica,sans-Serif" font-size="12.00">added&#45;to&#45;existing&#45;cluster</text>
<path fill="none" stroke="black" stroke-width="2" d="M945.17,-217C945.17,-217 1091.58,-217 1091.58,-217 1097.29,-217 1103,-222.71 1103,-228.42 1103,-228.42 1103,-239.83 1103,-239.83 1103,-245.54 1097.29,-251.25 1091.58,-251.25 1091.58,-251.25 945.17,-251.25 945.17,-251.25 939.46,-251.25 933.75,-245.54 933.75,-239.83 933.75,-239.83 933.75,-228.42 933.75,-228.42 933.75,-222.71 939.46,-217 945.17,-217"/>
</g>
<!-- cancelled -->
<g id="node2" class="node state regular">
<title>cancelled</title>
<polygon fill="#ffffff" fill-opacity="0.003922" stroke="none" stroke-width="2" points="1057.88,-198.25 978.88,-198.25 978.88,-162 1057.88,-162 1057.88,-198.25"/>
<text text-anchor="start" x="989.88" y="-175.85" font-family="Helvetica,sans-Serif" font-size="12.00">cancelled</text>
<path fill="none" stroke="black" stroke-width="2" d="M991.29,-163C991.29,-163 1045.46,-163 1045.46,-163 1051.17,-163 1056.88,-168.71 1056.88,-174.42 1056.88,-174.42 1056.88,-185.83 1056.88,-185.83 1056.88,-191.54 1051.17,-197.25 1045.46,-197.25 1045.46,-197.25 991.29,-197.25 991.29,-197.25 985.58,-197.25 979.88,-191.54 979.88,-185.83 979.88,-185.83 979.88,-174.42 979.88,-174.42 979.88,-168.71 985.58,-163 991.29,-163"/>
</g>
<!-- error -->
<g id="node3" class="node state regular">
<title>error</title>
<polygon fill="#ffffff" fill-opacity="0.003922" stroke="none" stroke-width="2" points="1046.38,-144.25 990.38,-144.25 990.38,-108 1046.38,-108 1046.38,-144.25"/>
<text text-anchor="start" x="1003.75" y="-121.85" font-family="Helvetica,sans-Serif" font-size="12.00">error</text>
<path fill="none" stroke="black" stroke-width="2" d="M1002.79,-109C1002.79,-109 1033.96,-109 1033.96,-109 1039.67,-109 1045.38,-114.71 1045.38,-120.42 1045.38,-120.42 1045.38,-131.83 1045.38,-131.83 1045.38,-137.54 1039.67,-143.25 1033.96,-143.25 1033.96,-143.25 1002.79,-143.25 1002.79,-143.25 997.08,-143.25 991.38,-137.54 991.38,-131.83 991.38,-131.83 991.38,-120.42 991.38,-120.42 991.38,-114.71 997.08,-109 1002.79,-109"/>
</g>
<!-- installing&#45;in&#45;progress -->
<g id="node4" class="node state regular">
<title>installing&#45;in&#45;progress</title>
<polygon fill="#ffffff" fill-opacity="0.003922" stroke="none" stroke-width="2" points="1090.88,-90.25 945.88,-90.25 945.88,-54 1090.88,-54 1090.88,-90.25"/>
<text text-anchor="start" x="956.88" y="-67.85" font-family="Helvetica,sans-Serif" font-size="12.00">installing&#45;in&#45;progress</text>
<path fill="none" stroke="black" stroke-width="2" d="M958.29,-55C958.29,-55 1078.46,-55 1078.46,-55 1084.17,-55 1089.88,-60.71 1089.88,-66.42 1089.88,-66.42 1089.88,-77.83 1089.88,-77.83 1089.88,-83.54 1084.17,-89.25 1078.46,-89.25 1078.46,-89.25 958.29,-89.25 958.29,-89.25 952.58,-89.25 946.88,-83.54 946.88,-77.83 946.88,-77.83 946.88,-66.42 946.88,-66.42 946.88,-60.71 952.58,-55 958.29,-55"/>
</g>
<!-- installing&#45;pending&#45;user&#45;action -->
<g id="node5" class="node state regular">
<title>installing&#45;pending&#45;user&#45;action</title>
<polygon fill="#ffffff" fill-opacity="0.003922" stroke="none" stroke-width="2" points="530.38,-144.25 332.88,-144.25 332.88,-108 530.38,-108 530.38,-144.25"/>
<text text-anchor="start" x="343.88" y="-121.85" font-family="Helvetica,sans-Serif" font-size="12.00">installing&#45;pending&#45;user&#45;action</text>
<path fill="none" stroke="black" stroke-width="2" d="M345.29,-109C345.29,-109 517.96,-109 517.96,-109 523.67,-109 529.38,-114.71 529.38,-120.42 529.38,-120.42 529.38,-131.83 529.38,-131.83 529.38,-137.54 523.67,-143.25 517.96,-143.25 517.96,-143.25 345.29,-143.25 345.29,-143.25 339.58,-143.25 333.88,-137.54 333.88,-131.83 333.88,-131.83 333.88,-120.42 333.88,-120.42 333.88,-114.71 339.58,-109 345.29,-109"/>
</g>
<!-- installing&#45;pending&#45;user&#45;action&#45;&gt;added&#45;to&#45;existing&#45;cluster -->
<g id="edge2" class="edge transition">
<title>installing&#45;pending&#45;user&#45;action&#45;&gt;added&#45;to&#45;existing&#45;cluster</title>
<path fill="none" stroke="black" d="M458.4,-144.12C481.01,-158.91 515.34,-179.01 548.38,-189.12 673.33,-227.37 824.97,-235.41 921.33,-236.04"/>
<polygon fill="black" stroke="black" points="921.28,-239.54 931.29,-236.08 921.31,-232.54 921.28,-239.54"/>
<text text-anchor="start" x="548.38" y="-239.04" font-family="Helvetica,sans-Serif" font-size="10.00">null &#45; host progress changed to added&#45;to&#45;existing&#45;cluster for day2 host &#160;&#160;</text>
</g>
<!-- installing&#45;pending&#45;user&#45;action&#45;&gt;cancelled -->
<g id="edge1" class="edge transition">
<title>installing&#45;pending&#45;user&#45;action&#45;&gt;cancelled</title>
<path fill="none" stroke="black" d="M530.14,-140.92C536.3,-141.71 542.42,-142.45 548.38,-143.12 700.69,-160.3 881.74,-172.18 967.53,-177.29"/>
<polygon fill="black" stroke="black" points="967.29,-180.79 977.48,-177.88 967.7,-173.8 967.29,-180.79"/>
<text text-anchor="start" x="563.38" y="-175.81" font-family="Helvetica,sans-Serif" font-size="10.00">Cancel Installation &#45; Installation canceled while host is installing &#160;&#160;</text>
</g>
<!-- installing&#45;pending&#45;user&#45;action&#45;&gt;error -->
<g id="edge5" class="edge transition">
<title>installing&#45;pending&#45;user&#45;action&#45;&gt;error</title>
<path fill="none" stroke="black" d="M530.17,-126.12C661.56,-126.12 889.28,-126.12 979.24,-126.12"/>
<polygon fill="black" stroke="black" points="978.99,-129.63 988.99,-126.13 978.99,-122.63 978.99,-129.63"/>
<text text-anchor="start" x="594.5" y="-129.38" font-family="Helvetica,sans-Serif" font-size="10.00">Refresh &#45; Move host to error when cluster is in error &#160;&#160;</text>
</g>
<!-- installing&#45;pending&#45;user&#45;action&#45;&gt;installing&#45;in&#45;progress -->
<g id="edge3" class="edge transition">
<title>installing&#45;pending&#45;user&#45;action&#45;&gt;installing&#45;in&#45;progress</title>
<path fill="none" stroke="black" d="M530.14,-111.56C536.3,-110.78 542.42,-110.04 548.38,-109.38 683.38,-94.26 840.91,-83.06 934.73,-77.07"/>
<polygon fill="black" stroke="black" points="934.86,-80.57 944.62,-76.45 934.41,-73.59 934.86,-80.57"/>
<text text-anchor="start" x="632.75" y="-112.62" font-family="Helvetica,sans-Serif" font-size="10.00">null &#45; default host progress changed &#160;&#160;</text>
</g>
<!-- installing&#45;pending&#45;user&#45;action&#45;&gt;installing&#45;pending&#45;user&#45;action -->
<g id="edge4" class="edge transition">
<title>installing&#45;pending&#45;user&#45;action&#45;&gt;installing&#45;pending&#45;user&#45;action</title>
<path fill="none" stroke="black" d="M414.05,-143.97C411.06,-153.53 416.92,-162.25 431.62,-162.25 439.9,-162.25 445.37,-159.49 448.05,-155.38"/>
<polygon fill="black" stroke="black" points="451.52,-155.78 449.05,-145.47 444.56,-155.07 451.52,-155.78"/>
<text text-anchor="start" x="0" y="-165.5" font-family="Helvetica,sans-Serif" font-size="10.00">null &#45; Host progress change during installing&#45;pending&#45;user&#45;action state when host is not in state Done (or Rebooting in day2) should stay in installing&#45;pending&#45;user&#45;action state &#160;&#160;</text>
</g>
<!-- installing&#45;pending&#45;user&#45;action&#45;&gt;installing&#45;pending&#45;user&#45;action -->
<g id="edge6" class="edge transition">
<title>installing&#45;pending&#45;user&#45;action&#45;&gt;installing&#45;pending&#45;user&#45;action</title>
<path fill="none" stroke="black" d="M402.23,-144.14C386.49,-161.41 396.29,-180.25 431.62,-180.25 460.61,-180.25 472.41,-167.57 467.03,-153.48"/>
<polygon fill="black" stroke="black" points="470.2,-151.93 461.84,-145.42 464.31,-155.72 470.2,-151.93"/>
<text text-anchor="start" x="105" y="-183.5" font-family="Helvetica,sans-Serif" font-size="10.00">Refresh &#45; Refresh during installing&#45;pending&#45;user&#45;action state without cluster error should stay in installing&#45;pending&#45;user&#45;action state &#160;&#160;</text>
</g>
<!-- installing&#45;pending&#45;user&#45;action&#45;&gt;installing&#45;pending&#45;user&#45;action -->
<g id="edge7" class="edge transition">
<title>installing&#45;pending&#45;user&#45;action&#45;&gt;installing&#45;pending&#45;user&#45;action</title>
<path fill="none" stroke="black" d="M394.51,-144.23C361.67,-168.61 374.04,-198.25 431.62,-198.25 483.36,-198.25 498.6,-174.32 477.35,-151.79"/>
<polygon fill="black" stroke="black" points="479.7,-149.2 469.88,-145.23 475.09,-154.46 479.7,-149.2"/>
<text text-anchor="start" x="322.5" y="-201.5" font-family="Helvetica,sans-Serif" font-size="10.00">Register Host &#45; Wrong boot order detection &#160;&#160;</text>
</g>
<!-- resetting&#45;pending&#45;user&#45;action -->
<g id="node6" class="node state regular">
<title>resetting&#45;pending&#45;user&#45;action</title>
<polygon fill="#ffffff" fill-opacity="0.003922" stroke="none" stroke-width="2" points="1117.12,-36.25 919.62,-36.25 919.62,0 1117.12,0 1117.12,-36.25"/>
<text text-anchor="start" x="930.62" y="-13.85" font-family="Helvetica,sans-Serif" font-size="12.00">resetting&#45;pending&#45;user&#45;action</text>
<path fill="none" stroke="black" stroke-width="2" d="M932.04,-1C932.04,-1 1104.71,-1 1104.71,-1 1110.42,-1 1116.12,-6.71 1116.12,-12.42 1116.12,-12.42 1116.12,-23.83 1116.12,-23.83 1116.12,-29.54 1110.42,-35.25 1104.71,-35.25 1104.71,-35.25 932.04,-35.25 932.04,-35.25 926.33,-35.25 920.62,-29.54 920.62,-23.83 920.62,-23.83 920.62,-12.42 920.62,-12.42 920.62,-6.71 926.33,-1 932.04,-1"/>
</g>
<!-- installing&#45;pending&#45;user&#45;action&#45;&gt;resetting&#45;pending&#45;user&#45;action -->
<g id="edge8" class="edge transition">
<title>installing&#45;pending&#45;user&#45;action&#45;&gt;resetting&#45;pending&#45;user&#45;action</title>
<path fill="none" stroke="black" d="M458.41,-108.2C481.02,-93.48 515.36,-73.46 548.38,-63.38 668.03,-26.82 812.11,-17.8 908.73,-16.45"/>
<polygon fill="black" stroke="black" points="908.5,-19.95 918.46,-16.34 908.42,-12.95 908.5,-19.95"/>
<text text-anchor="start" x="552.88" y="-66.62" font-family="Helvetica,sans-Serif" font-size="10.00">Resetting, Pending User Action &#45; Reset pending user action all states &#160;&#160;</text>
</g>
</g>
</svg>
