<?xml version="1.0" encoding="UTF-8" standalone="no"?>
<!DOCTYPE svg PUBLIC "-//W3C//DTD SVG 1.1//EN"
 "http://www.w3.org/Graphics/SVG/1.1/DTD/svg11.dtd">
<!-- Generated by graphviz version 7.1.0 (0)
 -->
<!-- Title: state transitions Pages: 1 -->
<svg width="717pt" height="111pt"
 viewBox="0.00 0.00 716.50 111.18" xmlns="http://www.w3.org/2000/svg" xmlns:xlink="http://www.w3.org/1999/xlink">
<g id="graph0" class="graph" transform="scale(1 1) rotate(0) translate(4 107.18)">
<title>state transitions</title>
<polygon fill="white" stroke="none" points="-4,4 -4,-107.18 712.5,-107.18 712.5,4 -4,4"/>
<!-- reclaiming -->
<g id="node1" class="node state regular">
<title>reclaiming</title>
<polygon fill="#ffffff" fill-opacity="0.003922" stroke="none" stroke-width="2" points="210.5,-69.18 132.5,-69.18 132.5,-33.18 210.5,-33.18 210.5,-69.18"/>
<text text-anchor="start" x="143.5" y="-47.58" font-family="Helvetica,sans-Serif" font-size="12.00">reclaiming</text>
<path fill="none" stroke="black" stroke-width="2" d="M144.5,-34.68C144.5,-34.68 198.5,-34.68 198.5,-34.68 204,-34.68 209.5,-40.18 209.5,-45.68 209.5,-45.68 209.5,-56.68 209.5,-56.68 209.5,-62.18 204,-67.68 198.5,-67.68 198.5,-67.68 144.5,-67.68 144.5,-67.68 139,-67.68 133.5,-62.18 133.5,-56.68 133.5,-56.68 133.5,-45.68 133.5,-45.68 133.5,-40.18 139,-34.68 144.5,-34.68"/>
</g>
<!-- reclaiming&#45;&gt;reclaiming -->
<g id="edge4" class="edge transition">
<title>reclaiming&#45;&gt;reclaiming</title>
<path fill="none" stroke="black" d="M136.45,-68.96C130.49,-78.5 142.17,-87.18 171.5,-87.18 188.45,-87.18 199.51,-84.28 204.67,-79.99"/>
<polygon fill="black" stroke="black" points="208.07,-80.9 206.3,-70.46 201.17,-79.73 208.07,-80.9"/>
<text text-anchor="start" x="0" y="-90.18" font-family="Helvetica,sans-Serif" font-size="10.00">Refresh &#45; Refresh without timeout during reclaiming should stay in reclaiming &#160;&#160;</text>
</g>
<!-- reclaiming&#45;rebooting -->
<g id="node2" class="node state regular">
<title>reclaiming&#45;rebooting</title>
<polygon fill="#ffffff" fill-opacity="0.003922" stroke="none" stroke-width="2" points="681.5,-103.18 549.5,-103.18 549.5,-67.18 681.5,-67.18 681.5,-103.18"/>
<text text-anchor="start" x="560.5" y="-81.58" font-family="Helvetica,sans-Serif" font-size="12.00">reclaiming&#45;rebooting</text>
<path fill="none" stroke="black" stroke-width="2" d="M561.5,-68.68C561.5,-68.68 669.5,-68.68 669.5,-68.68 675,-68.68 680.5,-74.18 680.5,-79.68 680.5,-79.68 680.5,-90.68 680.5,-90.68 680.5,-96.18 675,-101.68 669.5,-101.68 669.5,-101.68 561.5,-101.68 561.5,-101.68 556,-101.68 550.5,-96.18 550.5,-90.68 550.5,-90.68 550.5,-79.68 550.5,-79.68 550.5,-74.18 556,-68.68 561.5,-68.68"/>
</g>
<!-- reclaiming&#45;&gt;reclaiming&#45;rebooting -->
<g id="edge1" class="edge transition">
<title>reclaiming&#45;&gt;reclaiming&#45;rebooting</title>
<path fill="none" stroke="black" d="M210.34,-59.33C216.39,-60.43 222.6,-61.43 228.5,-62.18 335.61,-75.83 460.5,-81.41 538.54,-83.67"/>
<polygon fill="black" stroke="black" points="538.11,-87.16 548.2,-83.94 538.3,-80.16 538.11,-87.16"/>
<text text-anchor="start" x="228.5" y="-85.18" font-family="Helvetica,sans-Serif" font-size="10.00">Rebooting for Reclaim &#45; Rebooting for reclaim reclaiming host &#160;&#160;</text>
</g>
<!-- unbinding&#45;pending&#45;user&#45;action -->
<g id="node3" class="node state regular">
<title>unbinding&#45;pending&#45;user&#45;action</title>
<polygon fill="#ffffff" fill-opacity="0.003922" stroke="none" stroke-width="2" points="708.5,-42.18 522.5,-42.18 522.5,-6.18 708.5,-6.18 708.5,-42.18"/>
<text text-anchor="start" x="533.5" y="-20.58" font-family="Helvetica,sans-Serif" font-size="12.00">unbinding&#45;pending&#45;user&#45;action</text>
<path fill="none" stroke="black" stroke-width="2" d="M534.5,-7.68C534.5,-7.68 696.5,-7.68 696.5,-7.68 702,-7.68 707.5,-13.18 707.5,-18.68 707.5,-18.68 707.5,-29.68 707.5,-29.68 707.5,-35.18 702,-40.68 696.5,-40.68 696.5,-40.68 534.5,-40.68 534.5,-40.68 529,-40.68 523.5,-35.18 523.5,-29.68 523.5,-29.68 523.5,-18.68 523.5,-18.68 523.5,-13.18 529,-7.68 534.5,-7.68"/>
</g>
<!-- reclaiming&#45;&gt;unbinding&#45;pending&#45;user&#45;action -->
<g id="edge2" class="edge transition">
<title>reclaiming&#45;&gt;unbinding&#45;pending&#45;user&#45;action</title>
<path fill="none" stroke="black" d="M210.18,-48.88C276.25,-44.84 415.12,-36.36 511.54,-30.47"/>
<polygon fill="black" stroke="black" points="511.51,-33.98 521.28,-29.88 511.09,-26.99 511.51,-33.98"/>
<text text-anchor="start" x="251" y="-50.18" font-family="Helvetica,sans-Serif" font-size="10.00">Reclaim Failed &#45; Reclaim failure for reclaiming host &#160;&#160;</text>
</g>
<!-- reclaiming&#45;&gt;unbinding&#45;pending&#45;user&#45;action -->
<g id="edge3" class="edge transition">
<title>reclaiming&#45;&gt;unbinding&#45;pending&#45;user&#45;action</title>
<path fill="none" stroke="black" d="M194.81,-33.22C204.55,-26.48 216.49,-19.63 228.5,-16.18 346.41,17.63 381.91,-11.73 504.5,-16.18 506.72,-16.26 508.97,-16.35 511.24,-16.45"/>
<polygon fill="black" stroke="black" points="511.03,-19.94 521.18,-16.93 511.36,-12.95 511.03,-19.94"/>
<text text-anchor="start" x="289" y="-19.18" font-family="Helvetica,sans-Serif" font-size="10.00">Refresh &#45; Refresh reclaiming host &#160;&#160;</text>
</g>
</g>
</svg>
