<?xml version="1.0" encoding="UTF-8" standalone="no"?>
<!DOCTYPE svg PUBLIC "-//W3C//DTD SVG 1.1//EN"
 "http://www.w3.org/Graphics/SVG/1.1/DTD/svg11.dtd">
<!-- Generated by graphviz version 12.1.0 (20240811.2233)
 -->
<!-- Title: state transitions Pages: 1 -->
<svg width="918pt" height="476pt"
 viewBox="0.00 0.00 918.12 476.46" xmlns="http://www.w3.org/2000/svg" xmlns:xlink="http://www.w3.org/1999/xlink">
<g id="graph0" class="graph" transform="scale(1 1) rotate(0) translate(4 472.46)">
<title>state transitions</title>
<polygon fill="white" stroke="none" points="-4,4 -4,-472.46 914.12,-472.46 914.12,4 -4,4"/>
<!-- added&#45;to&#45;existing&#45;cluster -->
<g id="node1" class="node state regular">
<title>added&#45;to&#45;existing&#45;cluster</title>
<polygon fill="#ffffff" fill-opacity="0.003922" stroke="none" stroke-width="2" points="896.62,-458.32 725.38,-458.32 725.38,-422.07 896.62,-422.07 896.62,-458.32"/>
<text text-anchor="start" x="736.38" y="-435.92" font-family="Helvetica,sans-Serif" font-size="12.00">added&#45;to&#45;existing&#45;cluster</text>
<path fill="none" stroke="black" stroke-width="2" d="M737.79,-423.07C737.79,-423.07 884.21,-423.07 884.21,-423.07 889.92,-423.07 895.62,-428.78 895.62,-434.49 895.62,-434.49 895.62,-445.9 895.62,-445.9 895.62,-451.61 889.92,-457.32 884.21,-457.32 884.21,-457.32 737.79,-457.32 737.79,-457.32 732.08,-457.32 726.38,-451.61 726.38,-445.9 726.38,-445.9 726.38,-434.49 726.38,-434.49 726.38,-428.78 732.08,-423.07 737.79,-423.07"/>
</g>
<!-- cancelled -->
<g id="node2" class="node state regular">
<title>cancelled</title>
<polygon fill="#ffffff" fill-opacity="0.003922" stroke="none" stroke-width="2" points="850.5,-404.32 771.5,-404.32 771.5,-368.07 850.5,-368.07 850.5,-404.32"/>
<text text-anchor="start" x="782.5" y="-381.92" font-family="Helvetica,sans-Serif" font-size="12.00">cancelled</text>
<path fill="none" stroke="black" stroke-width="2" d="M783.92,-369.07C783.92,-369.07 838.08,-369.07 838.08,-369.07 843.79,-369.07 849.5,-374.78 849.5,-380.49 849.5,-380.49 849.5,-391.9 849.5,-391.9 849.5,-397.61 843.79,-403.32 838.08,-403.32 838.08,-403.32 783.92,-403.32 783.92,-403.32 778.21,-403.32 772.5,-397.61 772.5,-391.9 772.5,-391.9 772.5,-380.49 772.5,-380.49 772.5,-374.78 778.21,-369.07 783.92,-369.07"/>
</g>
<!-- error -->
<g id="node3" class="node state regular">
<title>error</title>
<polygon fill="#ffffff" fill-opacity="0.003922" stroke="none" stroke-width="2" points="839,-278.32 783,-278.32 783,-242.07 839,-242.07 839,-278.32"/>
<text text-anchor="start" x="796.38" y="-255.92" font-family="Helvetica,sans-Serif" font-size="12.00">error</text>
<path fill="none" stroke="black" stroke-width="2" d="M795.42,-243.07C795.42,-243.07 826.58,-243.07 826.58,-243.07 832.29,-243.07 838,-248.78 838,-254.49 838,-254.49 838,-265.9 838,-265.9 838,-271.61 832.29,-277.32 826.58,-277.32 826.58,-277.32 795.42,-277.32 795.42,-277.32 789.71,-277.32 784,-271.61 784,-265.9 784,-265.9 784,-254.49 784,-254.49 784,-248.78 789.71,-243.07 795.42,-243.07"/>
</g>
<!-- installed -->
<g id="node4" class="node state regular">
<title>installed</title>
<polygon fill="#ffffff" fill-opacity="0.003922" stroke="none" stroke-width="2" points="846.75,-152.32 775.25,-152.32 775.25,-116.07 846.75,-116.07 846.75,-152.32"/>
<text text-anchor="start" x="786.25" y="-129.92" font-family="Helvetica,sans-Serif" font-size="12.00">installed</text>
<path fill="none" stroke="black" stroke-width="2" d="M787.67,-117.07C787.67,-117.07 834.33,-117.07 834.33,-117.07 840.04,-117.07 845.75,-122.78 845.75,-128.49 845.75,-128.49 845.75,-139.9 845.75,-139.9 845.75,-145.61 840.04,-151.32 834.33,-151.32 834.33,-151.32 787.67,-151.32 787.67,-151.32 781.96,-151.32 776.25,-145.61 776.25,-139.9 776.25,-139.9 776.25,-128.49 776.25,-128.49 776.25,-122.78 781.96,-117.07 787.67,-117.07"/>
</g>
<!-- installing -->
<g id="node5" class="node state regular">
<title>installing</title>
<polygon fill="#ffffff" fill-opacity="0.003922" stroke="none" stroke-width="2" points="263.38,-242.32 188.88,-242.32 188.88,-206.07 263.38,-206.07 263.38,-242.32"/>
<text text-anchor="start" x="199.88" y="-219.92" font-family="Helvetica,sans-Serif" font-size="12.00">installing</text>
<path fill="none" stroke="black" stroke-width="2" d="M201.29,-207.07C201.29,-207.07 250.96,-207.07 250.96,-207.07 256.67,-207.07 262.38,-212.78 262.38,-218.49 262.38,-218.49 262.38,-229.9 262.38,-229.9 262.38,-235.61 256.67,-241.32 250.96,-241.32 250.96,-241.32 201.29,-241.32 201.29,-241.32 195.58,-241.32 189.88,-235.61 189.88,-229.9 189.88,-229.9 189.88,-218.49 189.88,-218.49 189.88,-212.78 195.58,-207.07 201.29,-207.07"/>
</g>
<!-- installing&#45;&gt;added&#45;to&#45;existing&#45;cluster -->
<g id="edge4" class="edge transition">
<title>installing&#45;&gt;added&#45;to&#45;existing&#45;cluster</title>
<path fill="none" stroke="black" d="M229.57,-242.25C235.82,-285.56 253.9,-393.4 281.38,-415.2 345.98,-466.45 579.92,-458.11 713.94,-448.56"/>
<polygon fill="black" stroke="black" points="714.17,-452.05 723.89,-447.83 713.66,-445.07 714.17,-452.05"/>
<text text-anchor="start" x="311" y="-458.96" font-family="Helvetica,sans-Serif" font-size="10.00">null &#45; host progress changed to added&#45;to&#45;existing&#45;cluster for day2 host &#160;&#160;</text>
</g>
<!-- installing&#45;&gt;cancelled -->
<g id="edge1" class="edge transition">
<title>installing&#45;&gt;cancelled</title>
<path fill="none" stroke="black" d="M228.39,-241.87C231.58,-271.73 242.72,-331.61 281.38,-359.2 357.12,-413.26 643.92,-398.68 760.39,-390.23"/>
<polygon fill="black" stroke="black" points="760.55,-393.73 770.26,-389.49 760.03,-386.74 760.55,-393.73"/>
<text text-anchor="start" x="326" y="-401.83" font-family="Helvetica,sans-Serif" font-size="10.00">Cancel Installation &#45; Installation canceled while host is installing &#160;&#160;</text>
</g>
<!-- installing&#45;&gt;error -->
<g id="edge2" class="edge transition">
<title>installing&#45;&gt;error</title>
<path fill="none" stroke="black" d="M230.53,-242.04C236.26,-266.46 250.38,-309.4 281.38,-328.2 320.57,-351.96 649.64,-340.19 693.88,-328.2 724.91,-319.78 756.14,-300.76 778.38,-284.97"/>
<polygon fill="black" stroke="black" points="780.4,-287.83 786.42,-279.11 776.27,-282.17 780.4,-287.83"/>
<text text-anchor="start" x="336.12" y="-345.2" font-family="Helvetica,sans-Serif" font-size="10.00">Installation Failed &#45; Installation failed while host is installing &#160;&#160;</text>
</g>
<!-- installing&#45;&gt;error -->
<g id="edge7" class="edge transition">
<title>installing&#45;&gt;error</title>
<path fill="none" stroke="black" d="M235.6,-242.22C244.45,-258.66 260.01,-281.91 281.38,-292.2 322.67,-312.08 648.46,-298.34 693.88,-292.2 720.64,-288.58 749.97,-280.46 772.45,-273.31"/>
<polygon fill="black" stroke="black" points="773.35,-276.7 781.77,-270.26 771.18,-270.04 773.35,-276.7"/>
<text text-anchor="start" x="281.38" y="-305.81" font-family="Helvetica,sans-Serif" font-size="10.00">Media Disconnect &#45; Move to error when virtual media disconnects post&#45;installation &#160;&#160;</text>
</g>
<!-- installing&#45;&gt;error -->
<g id="edge8" class="edge transition">
<title>installing&#45;&gt;error</title>
<path fill="none" stroke="black" d="M251.54,-242.28C260.47,-247.87 270.94,-253.31 281.38,-256.2 373.67,-281.76 666.83,-268.3 771.99,-262.45"/>
<polygon fill="black" stroke="black" points="771.99,-265.96 781.78,-261.9 771.6,-258.97 771.99,-265.96"/>
<text text-anchor="start" x="357.12" y="-274.5" font-family="Helvetica,sans-Serif" font-size="10.00">Refresh &#45; Move host to error when cluster is in error &#160;&#160;</text>
</g>
<!-- installing&#45;&gt;error -->
<g id="edge9" class="edge transition">
<title>installing&#45;&gt;error</title>
<path fill="none" stroke="black" d="M263.26,-223.61C341.84,-222.72 534.02,-222.64 693.88,-239.45 720.24,-242.22 749.63,-247.49 772.25,-252.03"/>
<polygon fill="black" stroke="black" points="771.42,-255.43 781.92,-254.01 772.83,-248.57 771.42,-255.43"/>
<text text-anchor="start" x="346.25" y="-242.7" font-family="Helvetica,sans-Serif" font-size="10.00">Refresh &#45; Move host to error when installation times out &#160;&#160;</text>
</g>
<!-- installing&#45;&gt;error -->
<g id="edge10" class="edge transition">
<title>installing&#45;&gt;error</title>
<path fill="none" stroke="black" d="M263.21,-210.65C269.2,-208.9 275.41,-207.4 281.38,-206.45 371.9,-192.01 604.35,-186.73 693.88,-206.45 721.78,-212.59 750.96,-226.13 773.09,-238.08"/>
<polygon fill="black" stroke="black" points="771.27,-241.08 781.72,-242.87 774.67,-234.96 771.27,-241.08"/>
<text text-anchor="start" x="323" y="-209.7" font-family="Helvetica,sans-Serif" font-size="10.00">Refresh &#45; Move installing host to error when connection times out &#160;&#160;</text>
</g>
<!-- installing&#45;&gt;error -->
<g id="edge14" class="edge transition">
<title>installing&#45;&gt;error</title>
<path fill="none" stroke="black" d="M241.19,-206.53C251.1,-195.57 265.41,-182.47 281.38,-176.45 367.14,-144.08 606.65,-148.27 693.88,-176.45 729.17,-187.84 762.76,-214.4 784.66,-234.58"/>
<polygon fill="black" stroke="black" points="781.96,-236.85 791.63,-241.19 786.78,-231.77 781.96,-236.85"/>
<text text-anchor="start" x="379.25" y="-179.7" font-family="Helvetica,sans-Serif" font-size="10.00">Register Host &#45; Register during installation &#160;&#160;</text>
</g>
<!-- installing&#45;&gt;installed -->
<g id="edge5" class="edge transition">
<title>installing&#45;&gt;installed</title>
<path fill="none" stroke="black" d="M232.45,-206.39C239.74,-185.59 255.01,-152.16 281.38,-137.45 322.87,-114.29 643.2,-126.47 764.05,-131.97"/>
<polygon fill="black" stroke="black" points="763.78,-135.46 773.93,-132.43 764.1,-128.47 763.78,-135.46"/>
<text text-anchor="start" x="385.25" y="-140.7" font-family="Helvetica,sans-Serif" font-size="10.00">null &#45; host progress changed to installed &#160;&#160;</text>
</g>
<!-- installing&#45;&gt;installing -->
<g id="edge11" class="edge transition">
<title>installing&#45;&gt;installing</title>
<path fill="none" stroke="black" d="M210.46,-242.04C207.79,-251.61 213.02,-260.32 226.12,-260.32 233.5,-260.32 238.38,-257.56 240.76,-253.45"/>
<polygon fill="black" stroke="black" points="244.24,-253.82 241.66,-243.55 237.27,-253.19 244.24,-253.82"/>
<text text-anchor="start" x="82.5" y="-263.57" font-family="Helvetica,sans-Serif" font-size="10.00">Refresh &#45; Keep installing host when connection times out &#160;&#160;</text>
</g>
<!-- installing&#45;&gt;installing -->
<g id="edge12" class="edge transition">
<title>installing&#45;&gt;installing</title>
<path fill="none" stroke="black" d="M199.92,-242.22C185.89,-259.48 194.63,-278.32 226.12,-278.32 251.72,-278.32 262.28,-265.88 257.82,-251.96"/>
<polygon fill="black" stroke="black" points="261.03,-250.53 253.07,-243.53 254.93,-253.96 261.03,-250.53"/>
<text text-anchor="start" x="52.5" y="-281.57" font-family="Helvetica,sans-Serif" font-size="10.00">Refresh &#45; Keep installing host when host recovers from disconnection &#160;&#160;</text>
</g>
<!-- installing&#45;&gt;installing -->
<g id="edge13" class="edge transition">
<title>installing&#45;&gt;installing</title>
<path fill="none" stroke="black" d="M193.04,-242.31C163.77,-266.68 174.8,-296.32 226.12,-296.32 272.04,-296.32 285.71,-272.6 267.13,-250.15"/>
<polygon fill="black" stroke="black" points="269.85,-247.92 260.28,-243.37 264.92,-252.9 269.85,-247.92"/>
<text text-anchor="start" x="0" y="-299.57" font-family="Helvetica,sans-Serif" font-size="10.00">Refresh &#45; Refresh during installing state without cluster error should stay in installing state &#160;&#160;</text>
</g>
<!-- installing&#45;in&#45;progress -->
<g id="node6" class="node state regular">
<title>installing&#45;in&#45;progress</title>
<polygon fill="#ffffff" fill-opacity="0.003922" stroke="none" stroke-width="2" points="883.5,-98.32 738.5,-98.32 738.5,-62.07 883.5,-62.07 883.5,-98.32"/>
<text text-anchor="start" x="749.5" y="-75.92" font-family="Helvetica,sans-Serif" font-size="12.00">installing&#45;in&#45;progress</text>
<path fill="none" stroke="black" stroke-width="2" d="M750.92,-63.07C750.92,-63.07 871.08,-63.07 871.08,-63.07 876.79,-63.07 882.5,-68.78 882.5,-74.49 882.5,-74.49 882.5,-85.9 882.5,-85.9 882.5,-91.61 876.79,-97.32 871.08,-97.32 871.08,-97.32 750.92,-97.32 750.92,-97.32 745.21,-97.32 739.5,-91.61 739.5,-85.9 739.5,-85.9 739.5,-74.49 739.5,-74.49 739.5,-68.78 745.21,-63.07 750.92,-63.07"/>
</g>
<!-- installing&#45;&gt;installing&#45;in&#45;progress -->
<g id="edge3" class="edge transition">
<title>installing&#45;&gt;installing&#45;in&#45;progress</title>
<path fill="none" stroke="black" d="M229.65,-206.27C234.46,-179.61 247.66,-130.2 281.38,-107.45 317.31,-83.2 587.47,-79.89 727.05,-79.83"/>
<polygon fill="black" stroke="black" points="726.99,-83.33 736.99,-79.83 726.99,-76.33 726.99,-83.33"/>
<text text-anchor="start" x="306.88" y="-110.7" font-family="Helvetica,sans-Serif" font-size="10.00">null &#45; host progress installing&#45;in&#45;progress on rebooting in kube&#45;api mode &#160;&#160;</text>
</g>
<!-- installing&#45;&gt;installing&#45;in&#45;progress -->
<g id="edge6" class="edge transition">
<title>installing&#45;&gt;installing&#45;in&#45;progress</title>
<path fill="none" stroke="black" d="M226.97,-206.07C227.77,-171.52 235.08,-96.68 281.38,-63.45 318.61,-36.72 648.16,-60.17 693.88,-63.45 704.77,-64.23 716.2,-65.42 727.45,-66.81"/>
<polygon fill="black" stroke="black" points="726.76,-70.25 737.13,-68.07 727.66,-63.31 726.76,-70.25"/>
<text text-anchor="start" x="395.38" y="-66.7" font-family="Helvetica,sans-Serif" font-size="10.00">null &#45; default host progress changed &#160;&#160;</text>
</g>
<!-- resetting&#45;pending&#45;user&#45;action -->
<g id="node7" class="node state regular">
<title>resetting&#45;pending&#45;user&#45;action</title>
<polygon fill="#ffffff" fill-opacity="0.003922" stroke="none" stroke-width="2" points="910.12,-44.32 711.88,-44.32 711.88,-8.07 910.12,-8.07 910.12,-44.32"/>
<text text-anchor="start" x="722.88" y="-21.92" font-family="Helvetica,sans-Serif" font-size="12.00">resetting&#45;pending&#45;user&#45;action</text>
<path fill="none" stroke="black" stroke-width="2" d="M724.29,-9.07C724.29,-9.07 897.71,-9.07 897.71,-9.07 903.42,-9.07 909.12,-14.78 909.12,-20.49 909.12,-20.49 909.12,-31.9 909.12,-31.9 909.12,-37.61 903.42,-43.32 897.71,-43.32 897.71,-43.32 724.29,-43.32 724.29,-43.32 718.58,-43.32 712.88,-37.61 712.88,-31.9 712.88,-31.9 712.88,-20.49 712.88,-20.49 712.88,-14.78 718.58,-9.07 724.29,-9.07"/>
</g>
<!-- installing&#45;&gt;resetting&#45;pending&#45;user&#45;action -->
<g id="edge15" class="edge transition">
<title>installing&#45;&gt;resetting&#45;pending&#45;user&#45;action</title>
<path fill="none" stroke="black" d="M229.54,-206.2C235.75,-163.05 253.71,-55.65 281.38,-34.45 344.66,14.06 565.53,0.53 700.94,-13.18"/>
<polygon fill="black" stroke="black" points="700.34,-16.64 710.64,-14.18 701.05,-9.67 700.34,-16.64"/>
<text text-anchor="start" x="315.5" y="-37.7" font-family="Helvetica,sans-Serif" font-size="10.00">Resetting, Pending User Action &#45; Reset pending user action all states &#160;&#160;</text>
</g>
</g>
</svg>
