<?xml version="1.0" encoding="UTF-8" standalone="no"?>
<!DOCTYPE svg PUBLIC "-//W3C//DTD SVG 1.1//EN"
 "http://www.w3.org/Graphics/SVG/1.1/DTD/svg11.dtd">
<!-- Generated by graphviz version 5.0.0 (0)
 -->
<!-- Title: state transitions Pages: 1 -->
<svg width="689pt" height="314pt"
 viewBox="0.00 0.00 689.00 314.46" xmlns="http://www.w3.org/2000/svg" xmlns:xlink="http://www.w3.org/1999/xlink">
<g id="graph0" class="graph" transform="scale(1 1) rotate(0) translate(4 310.46)">
<title>state transitions</title>
<polygon fill="white" stroke="transparent" points="-4,4 -4,-310.46 685,-310.46 685,4 -4,4"/>
<!-- disconnected -->
<g id="node1" class="node state regular">
<title>disconnected</title>
<polygon fill="#ffffff" fill-opacity="0.003922" stroke="transparent" stroke-width="2" points="671.5,-283.46 577.5,-283.46 577.5,-247.46 671.5,-247.46 671.5,-283.46"/>
<text text-anchor="start" x="588.5" y="-261.86" font-family="Helvetica,sans-Serif" font-size="12.00">disconnected</text>
<path fill="none" stroke="black" stroke-width="2" d="M589.5,-248.96C589.5,-248.96 659.5,-248.96 659.5,-248.96 665,-248.96 670.5,-254.46 670.5,-259.96 670.5,-259.96 670.5,-270.96 670.5,-270.96 670.5,-276.46 665,-281.96 659.5,-281.96 659.5,-281.96 589.5,-281.96 589.5,-281.96 584,-281.96 578.5,-276.46 578.5,-270.96 578.5,-270.96 578.5,-259.96 578.5,-259.96 578.5,-254.46 584,-248.96 589.5,-248.96"/>
</g>
<!-- discovering -->
<g id="node2" class="node state regular">
<title>discovering</title>
<polygon fill="#ffffff" fill-opacity="0.003922" stroke="transparent" stroke-width="2" points="666.5,-229.46 582.5,-229.46 582.5,-193.46 666.5,-193.46 666.5,-229.46"/>
<text text-anchor="start" x="593.5" y="-207.86" font-family="Helvetica,sans-Serif" font-size="12.00">discovering</text>
<path fill="none" stroke="black" stroke-width="2" d="M594.5,-194.96C594.5,-194.96 654.5,-194.96 654.5,-194.96 660,-194.96 665.5,-200.46 665.5,-205.96 665.5,-205.96 665.5,-216.96 665.5,-216.96 665.5,-222.46 660,-227.96 654.5,-227.96 654.5,-227.96 594.5,-227.96 594.5,-227.96 589,-227.96 583.5,-222.46 583.5,-216.96 583.5,-216.96 583.5,-205.96 583.5,-205.96 583.5,-200.46 589,-194.96 594.5,-194.96"/>
</g>
<!-- insufficient -->
<g id="node3" class="node state regular">
<title>insufficient</title>
<polygon fill="#ffffff" fill-opacity="0.003922" stroke="transparent" stroke-width="2" points="132,-175.46 52,-175.46 52,-139.46 132,-139.46 132,-175.46"/>
<text text-anchor="start" x="63" y="-153.86" font-family="Helvetica,sans-Serif" font-size="12.00">insufficient</text>
<path fill="none" stroke="black" stroke-width="2" d="M64,-140.96C64,-140.96 120,-140.96 120,-140.96 125.5,-140.96 131,-146.46 131,-151.96 131,-151.96 131,-162.96 131,-162.96 131,-168.46 125.5,-173.96 120,-173.96 120,-173.96 64,-173.96 64,-173.96 58.5,-173.96 53,-168.46 53,-162.96 53,-162.96 53,-151.96 53,-151.96 53,-146.46 58.5,-140.96 64,-140.96"/>
</g>
<!-- insufficient&#45;&gt;disconnected -->
<g id="edge1" class="edge transition">
<title>insufficient&#45;&gt;disconnected</title>
<path fill="none" stroke="black" d="M99.3,-175.69C107.46,-196.21 123.82,-228.61 150,-243.46 283.64,-319.26 474.19,-296.2 567.57,-278.16"/>
<polygon fill="black" stroke="black" points="568.25,-281.59 577.38,-276.21 566.89,-274.73 568.25,-281.59"/>
<text text-anchor="start" x="150" y="-298.46" font-family="Helvetica,sans-Serif" font-size="10.00">Media Disconnect &#45; Move to disconnected when virtual media disconnects pre&#45;installation &#160;&#160;</text>
</g>
<!-- insufficient&#45;&gt;disconnected -->
<g id="edge3" class="edge transition">
<title>insufficient&#45;&gt;disconnected</title>
<path fill="none" stroke="black" d="M107.07,-175.61C117.49,-187.56 132.82,-202.28 150,-209.46 232.12,-243.79 463.72,-208.57 550,-230.46 551.73,-230.9 563.51,-236.43 577.16,-242.97"/>
<polygon fill="black" stroke="black" points="575.77,-246.19 586.3,-247.37 578.81,-239.88 575.77,-246.19"/>
<text text-anchor="start" x="206.5" y="-233.46" font-family="Helvetica,sans-Serif" font-size="10.00">Refresh &#45; Move host to disconnected when connected times out &#160;&#160;</text>
</g>
<!-- insufficient&#45;&gt;discovering -->
<g id="edge8" class="edge transition">
<title>insufficient&#45;&gt;discovering</title>
<path fill="none" stroke="black" d="M132.04,-168.79C138.01,-170.22 144.14,-171.51 150,-172.46 325.85,-201.04 373.13,-177.13 550,-198.46 557.25,-199.33 564.88,-200.45 572.35,-201.67"/>
<polygon fill="black" stroke="black" points="571.97,-205.15 582.41,-203.37 573.14,-198.25 571.97,-205.15"/>
<text text-anchor="start" x="279" y="-201.46" font-family="Helvetica,sans-Serif" font-size="10.00">Register Host &#45; Re&#45;registration &#160;&#160;</text>
</g>
<!-- insufficient&#45;&gt;insufficient -->
<g id="edge4" class="edge transition">
<title>insufficient&#45;&gt;insufficient</title>
<path fill="none" stroke="black" d="M68.66,-175.61C65.07,-185 72.85,-193.46 92,-193.46 103.67,-193.46 111.12,-190.32 114.34,-185.74"/>
<polygon fill="black" stroke="black" points="117.84,-185.91 115.34,-175.61 110.87,-185.22 117.84,-185.91"/>
<text text-anchor="start" x="0" y="-196.46" font-family="Helvetica,sans-Serif" font-size="10.00">Refresh &#45; Host has insufficient hardware &#160;&#160;</text>
</g>
<!-- insufficient&#45;&gt;insufficient -->
<g id="edge6" class="edge transition">
<title>insufficient&#45;&gt;insufficient</title>
<path fill="none" stroke="black" d="M52.88,-175.72C32.6,-192.86 45.64,-211.46 92,-211.46 131.48,-211.46 146.79,-197.97 137.95,-183.38"/>
<polygon fill="black" stroke="black" points="140.38,-180.85 131.12,-175.72 135.15,-185.51 140.38,-180.85"/>
<text text-anchor="start" x="33.5" y="-214.46" font-family="Helvetica,sans-Serif" font-size="10.00">Refresh &#45; Host not ready &#160;&#160;</text>
</g>
<!-- known -->
<g id="node4" class="node state regular">
<title>known</title>
<polygon fill="#ffffff" fill-opacity="0.003922" stroke="transparent" stroke-width="2" points="653.5,-175.46 595.5,-175.46 595.5,-139.46 653.5,-139.46 653.5,-175.46"/>
<text text-anchor="start" x="606.5" y="-153.86" font-family="Helvetica,sans-Serif" font-size="12.00">known</text>
<path fill="none" stroke="black" stroke-width="2" d="M607.5,-140.96C607.5,-140.96 641.5,-140.96 641.5,-140.96 647,-140.96 652.5,-146.46 652.5,-151.96 652.5,-151.96 652.5,-162.96 652.5,-162.96 652.5,-168.46 647,-173.96 641.5,-173.96 641.5,-173.96 607.5,-173.96 607.5,-173.96 602,-173.96 596.5,-168.46 596.5,-162.96 596.5,-162.96 596.5,-151.96 596.5,-151.96 596.5,-146.46 602,-140.96 607.5,-140.96"/>
</g>
<!-- insufficient&#45;&gt;known -->
<g id="edge7" class="edge transition">
<title>insufficient&#45;&gt;known</title>
<path fill="none" stroke="black" d="M132.01,-157.46C230.38,-157.46 487.63,-157.46 585.21,-157.46"/>
<polygon fill="black" stroke="black" points="585.5,-160.96 595.5,-157.46 585.5,-153.96 585.5,-160.96"/>
<text text-anchor="start" x="300" y="-160.46" font-family="Helvetica,sans-Serif" font-size="10.00">Refresh &#45; Host ready &#160;&#160;</text>
</g>
<!-- pending&#45;for&#45;input -->
<g id="node5" class="node state regular">
<title>pending&#45;for&#45;input</title>
<polygon fill="#ffffff" fill-opacity="0.003922" stroke="transparent" stroke-width="2" points="681,-121.46 568,-121.46 568,-85.46 681,-85.46 681,-121.46"/>
<text text-anchor="start" x="579.5" y="-99.86" font-family="Helvetica,sans-Serif" font-size="12.00">pending&#45;for&#45;input</text>
<path fill="none" stroke="black" stroke-width="2" d="M580,-86.96C580,-86.96 669,-86.96 669,-86.96 674.5,-86.96 680,-92.46 680,-97.96 680,-97.96 680,-108.96 680,-108.96 680,-114.46 674.5,-119.96 669,-119.96 669,-119.96 580,-119.96 580,-119.96 574.5,-119.96 569,-114.46 569,-108.96 569,-108.96 569,-97.96 569,-97.96 569,-92.46 574.5,-86.96 580,-86.96"/>
</g>
<!-- insufficient&#45;&gt;pending&#45;for&#45;input -->
<g id="edge5" class="edge transition">
<title>insufficient&#45;&gt;pending&#45;for&#45;input</title>
<path fill="none" stroke="black" d="M132.05,-146.22C138.03,-144.78 144.15,-143.46 150,-142.46 294.04,-117.77 465.5,-108.57 557.43,-105.25"/>
<polygon fill="black" stroke="black" points="557.83,-108.74 567.7,-104.89 557.59,-101.74 557.83,-108.74"/>
<text text-anchor="start" x="283" y="-145.46" font-family="Helvetica,sans-Serif" font-size="10.00">Refresh &#45; Host pending input &#160;&#160;</text>
</g>
<!-- unbinding -->
<g id="node6" class="node state regular">
<title>unbinding</title>
<polygon fill="#ffffff" fill-opacity="0.003922" stroke="transparent" stroke-width="2" points="662.5,-67.46 586.5,-67.46 586.5,-31.46 662.5,-31.46 662.5,-67.46"/>
<text text-anchor="start" x="597.5" y="-45.86" font-family="Helvetica,sans-Serif" font-size="12.00">unbinding</text>
<path fill="none" stroke="black" stroke-width="2" d="M598.5,-32.96C598.5,-32.96 650.5,-32.96 650.5,-32.96 656,-32.96 661.5,-38.46 661.5,-43.96 661.5,-43.96 661.5,-54.96 661.5,-54.96 661.5,-60.46 656,-65.96 650.5,-65.96 650.5,-65.96 598.5,-65.96 598.5,-65.96 593,-65.96 587.5,-60.46 587.5,-54.96 587.5,-54.96 587.5,-43.96 587.5,-43.96 587.5,-38.46 593,-32.96 598.5,-32.96"/>
</g>
<!-- insufficient&#45;&gt;unbinding -->
<g id="edge2" class="edge transition">
<title>insufficient&#45;&gt;unbinding</title>
<path fill="none" stroke="black" d="M102.76,-139.4C112.44,-123.46 128.89,-101.16 150,-90.46 229.49,-50.17 461.49,-71.87 550,-61.46 558.49,-60.46 567.5,-59.18 576.19,-57.82"/>
<polygon fill="black" stroke="black" points="576.88,-61.26 586.2,-56.21 575.77,-54.34 576.88,-61.26"/>
<text text-anchor="start" x="260" y="-93.46" font-family="Helvetica,sans-Serif" font-size="10.00">Reclaim Host &#45; Reclaim pre&#45;installation &#160;&#160;</text>
</g>
<!-- insufficient&#45;&gt;unbinding -->
<g id="edge9" class="edge transition">
<title>insufficient&#45;&gt;unbinding</title>
<path fill="none" stroke="black" d="M96.49,-139.18C102.46,-113.66 117.3,-68.26 150,-48.46 285.89,33.83 486.45,-8.69 576.6,-34.48"/>
<polygon fill="black" stroke="black" points="575.68,-37.86 586.26,-37.3 577.65,-31.14 575.68,-37.86"/>
<text text-anchor="start" x="264.5" y="-51.46" font-family="Helvetica,sans-Serif" font-size="10.00">Unbind Host &#45; Unbind pre&#45;installation &#160;&#160;</text>
</g>
</g>
</svg>
