<?xml version="1.0" encoding="UTF-8" standalone="no"?>
<!DOCTYPE svg PUBLIC "-//W3C//DTD SVG 1.1//EN"
 "http://www.w3.org/Graphics/SVG/1.1/DTD/svg11.dtd">
<!-- Generated by graphviz version 7.1.0 (0)
 -->
<!-- Title: state transitions Pages: 1 -->
<svg width="747pt" height="138pt"
 viewBox="0.00 0.00 746.50 137.73" xmlns="http://www.w3.org/2000/svg" xmlns:xlink="http://www.w3.org/1999/xlink">
<g id="graph0" class="graph" transform="scale(1 1) rotate(0) translate(4 133.73)">
<title>state transitions</title>
<polygon fill="white" stroke="none" points="-4,4 -4,-133.73 742.5,-133.73 742.5,4 -4,4"/>
<!-- cancelled -->
<g id="node1" class="node state regular">
<title>cancelled</title>
<polygon fill="#ffffff" fill-opacity="0.003922" stroke="none" stroke-width="2" points="205.5,-71.73 131.5,-71.73 131.5,-35.73 205.5,-35.73 205.5,-71.73"/>
<text text-anchor="start" x="142.5" y="-50.13" font-family="Helvetica,sans-Serif" font-size="12.00">cancelled</text>
<path fill="none" stroke="black" stroke-width="2" d="M143.5,-37.23C143.5,-37.23 193.5,-37.23 193.5,-37.23 199,-37.23 204.5,-42.73 204.5,-48.23 204.5,-48.23 204.5,-59.23 204.5,-59.23 204.5,-64.73 199,-70.23 193.5,-70.23 193.5,-70.23 143.5,-70.23 143.5,-70.23 138,-70.23 132.5,-64.73 132.5,-59.23 132.5,-59.23 132.5,-48.23 132.5,-48.23 132.5,-42.73 138,-37.23 143.5,-37.23"/>
</g>
<!-- cancelled&#45;&gt;cancelled -->
<g id="edge2" class="edge transition">
<title>cancelled&#45;&gt;cancelled</title>
<path fill="none" stroke="black" d="M149.58,-71.51C146.36,-81.04 152.67,-89.73 168.5,-89.73 177.4,-89.73 183.29,-86.98 186.17,-82.88"/>
<polygon fill="black" stroke="black" points="189.64,-83.33 187.26,-73.01 182.68,-82.57 189.64,-83.33"/>
<text text-anchor="start" x="0" y="-92.73" font-family="Helvetica,sans-Serif" font-size="10.00">Refresh &#45; Log collection timed out during cancelled should stay in cancelled &#160;&#160;</text>
</g>
<!-- cancelled&#45;&gt;cancelled -->
<g id="edge3" class="edge transition">
<title>cancelled&#45;&gt;cancelled</title>
<path fill="none" stroke="black" d="M136.86,-71.7C119.92,-88.93 130.47,-107.73 168.5,-107.73 199.7,-107.73 212.4,-95.07 206.61,-81.02"/>
<polygon fill="black" stroke="black" points="209.58,-79.17 201,-72.95 203.83,-83.16 209.58,-79.17"/>
<text text-anchor="start" x="34.5" y="-110.73" font-family="Helvetica,sans-Serif" font-size="10.00">Refresh &#45; Refresh during cancelled should stay in cancelled &#160;&#160;</text>
</g>
<!-- resetting&#45;pending&#45;user&#45;action -->
<g id="node2" class="node state regular">
<title>resetting&#45;pending&#45;user&#45;action</title>
<polygon fill="#ffffff" fill-opacity="0.003922" stroke="none" stroke-width="2" points="735,-105.73 556,-105.73 556,-69.73 735,-69.73 735,-105.73"/>
<text text-anchor="start" x="567.5" y="-84.13" font-family="Helvetica,sans-Serif" font-size="12.00">resetting&#45;pending&#45;user&#45;action</text>
<path fill="none" stroke="black" stroke-width="2" d="M568,-71.23C568,-71.23 723,-71.23 723,-71.23 728.5,-71.23 734,-76.73 734,-82.23 734,-82.23 734,-93.23 734,-93.23 734,-98.73 728.5,-104.23 723,-104.23 723,-104.23 568,-104.23 568,-104.23 562.5,-104.23 557,-98.73 557,-93.23 557,-93.23 557,-82.23 557,-82.23 557,-76.73 562.5,-71.23 568,-71.23"/>
</g>
<!-- cancelled&#45;&gt;resetting&#45;pending&#45;user&#45;action -->
<g id="edge4" class="edge transition">
<title>cancelled&#45;&gt;resetting&#45;pending&#45;user&#45;action</title>
<path fill="none" stroke="black" d="M205.4,-61.8C211.42,-62.93 217.62,-63.97 223.5,-64.73 332.94,-78.78 459.45,-84.26 545,-86.39"/>
<polygon fill="black" stroke="black" points="544.68,-89.88 554.76,-86.62 544.84,-82.88 544.68,-89.88"/>
<text text-anchor="start" x="223.5" y="-88.73" font-family="Helvetica,sans-Serif" font-size="10.00">Resetting, Pending User Action &#45; Reset pending user action all states &#160;&#160;</text>
</g>
<!-- unbinding&#45;pending&#45;user&#45;action -->
<g id="node3" class="node state regular">
<title>unbinding&#45;pending&#45;user&#45;action</title>
<polygon fill="#ffffff" fill-opacity="0.003922" stroke="none" stroke-width="2" points="738.5,-44.73 552.5,-44.73 552.5,-8.73 738.5,-8.73 738.5,-44.73"/>
<text text-anchor="start" x="563.5" y="-23.13" font-family="Helvetica,sans-Serif" font-size="12.00">unbinding&#45;pending&#45;user&#45;action</text>
<path fill="none" stroke="black" stroke-width="2" d="M564.5,-10.23C564.5,-10.23 726.5,-10.23 726.5,-10.23 732,-10.23 737.5,-15.73 737.5,-21.23 737.5,-21.23 737.5,-32.23 737.5,-32.23 737.5,-37.73 732,-43.23 726.5,-43.23 726.5,-43.23 564.5,-43.23 564.5,-43.23 559,-43.23 553.5,-37.73 553.5,-32.23 553.5,-32.23 553.5,-21.23 553.5,-21.23 553.5,-15.73 559,-10.23 564.5,-10.23"/>
</g>
<!-- cancelled&#45;&gt;unbinding&#45;pending&#45;user&#45;action -->
<g id="edge1" class="edge transition">
<title>cancelled&#45;&gt;unbinding&#45;pending&#45;user&#45;action</title>
<path fill="none" stroke="black" d="M205.2,-51.7C275.67,-47.69 434.99,-38.63 541.13,-32.6"/>
<polygon fill="black" stroke="black" points="541.22,-36.1 551,-32.04 540.82,-29.11 541.22,-36.1"/>
<text text-anchor="start" x="298.5" y="-52.73" font-family="Helvetica,sans-Serif" font-size="10.00">Reclaim Host &#45; Reclaim failed host &#160;&#160;</text>
</g>
<!-- cancelled&#45;&gt;unbinding&#45;pending&#45;user&#45;action -->
<g id="edge5" class="edge transition">
<title>cancelled&#45;&gt;unbinding&#45;pending&#45;user&#45;action</title>
<path fill="none" stroke="black" d="M190.92,-35.77C200.3,-29.04 211.82,-22.18 223.5,-18.73 356.05,20.47 396.37,-13.71 534.5,-18.73 536.72,-18.81 538.97,-18.9 541.24,-18.99"/>
<polygon fill="black" stroke="black" points="541.03,-22.49 551.18,-19.48 541.36,-15.5 541.03,-22.49"/>
<text text-anchor="start" x="270.5" y="-21.73" font-family="Helvetica,sans-Serif" font-size="10.00">Unbind Host &#45; Unbind during or after installation &#160;&#160;</text>
</g>
</g>
</svg>
