<?xml version="1.0" encoding="UTF-8" standalone="no"?>
<!DOCTYPE svg PUBLIC "-//W3C//DTD SVG 1.1//EN"
 "http://www.w3.org/Graphics/SVG/1.1/DTD/svg11.dtd">
<!-- Generated by graphviz version 12.1.0 (20240811.2233)
 -->
<!-- Title: state transitions Pages: 1 -->
<svg width="924pt" height="164pt"
 viewBox="0.00 0.00 924.12 163.50" xmlns="http://www.w3.org/2000/svg" xmlns:xlink="http://www.w3.org/1999/xlink">
<g id="graph0" class="graph" transform="scale(1 1) rotate(0) translate(4 159.5)">
<title>state transitions</title>
<polygon fill="white" stroke="none" points="-4,4 -4,-159.5 920.12,-159.5 920.12,4 -4,4"/>
<!-- discovering -->
<g id="node1" class="node state regular">
<title>discovering</title>
<polygon fill="#ffffff" fill-opacity="0.003922" stroke="none" stroke-width="2" points="916.12,-90.25 825.88,-90.25 825.88,-54 916.12,-54 916.12,-90.25"/>
<text text-anchor="start" x="836.88" y="-67.85" font-family="Helvetica,sans-Serif" font-size="12.00">discovering</text>
<path fill="none" stroke="black" stroke-width="2" d="M838.29,-55C838.29,-55 903.71,-55 903.71,-55 909.42,-55 915.12,-60.71 915.12,-66.42 915.12,-66.42 915.12,-77.83 915.12,-77.83 915.12,-83.54 909.42,-89.25 903.71,-89.25 903.71,-89.25 838.29,-89.25 838.29,-89.25 832.58,-89.25 826.88,-83.54 826.88,-77.83 826.88,-77.83 826.88,-66.42 826.88,-66.42 826.88,-60.71 832.58,-55 838.29,-55"/>
</g>
<!-- error -->
<g id="node2" class="node state regular">
<title>error</title>
<polygon fill="#ffffff" fill-opacity="0.003922" stroke="none" stroke-width="2" points="899,-36.25 843,-36.25 843,0 899,0 899,-36.25"/>
<text text-anchor="start" x="856.38" y="-13.85" font-family="Helvetica,sans-Serif" font-size="12.00">error</text>
<path fill="none" stroke="black" stroke-width="2" d="M855.42,-1C855.42,-1 886.58,-1 886.58,-1 892.29,-1 898,-6.71 898,-12.42 898,-12.42 898,-23.83 898,-23.83 898,-29.54 892.29,-35.25 886.58,-35.25 886.58,-35.25 855.42,-35.25 855.42,-35.25 849.71,-35.25 844,-29.54 844,-23.83 844,-23.83 844,-12.42 844,-12.42 844,-6.71 849.71,-1 855.42,-1"/>
</g>
<!-- resetting&#45;pending&#45;user&#45;action -->
<g id="node3" class="node state regular">
<title>resetting&#45;pending&#45;user&#45;action</title>
<polygon fill="#ffffff" fill-opacity="0.003922" stroke="none" stroke-width="2" points="528.88,-63.25 331.38,-63.25 331.38,-27 528.88,-27 528.88,-63.25"/>
<text text-anchor="start" x="342.38" y="-40.85" font-family="Helvetica,sans-Serif" font-size="12.00">resetting&#45;pending&#45;user&#45;action</text>
<path fill="none" stroke="black" stroke-width="2" d="M343.79,-28C343.79,-28 516.46,-28 516.46,-28 522.17,-28 527.88,-33.71 527.88,-39.42 527.88,-39.42 527.88,-50.83 527.88,-50.83 527.88,-56.54 522.17,-62.25 516.46,-62.25 516.46,-62.25 343.79,-62.25 343.79,-62.25 338.08,-62.25 332.38,-56.54 332.38,-50.83 332.38,-50.83 332.38,-39.42 332.38,-39.42 332.38,-33.71 338.08,-28 343.79,-28"/>
</g>
<!-- resetting&#45;pending&#45;user&#45;action&#45;&gt;discovering -->
<g id="edge4" class="edge transition">
<title>resetting&#45;pending&#45;user&#45;action&#45;&gt;discovering</title>
<path fill="none" stroke="black" d="M528.8,-51.13C616.73,-56.54 742.82,-64.3 814.53,-68.71"/>
<polygon fill="black" stroke="black" points="814.28,-72.2 824.48,-69.32 814.71,-65.22 814.28,-72.2"/>
<text text-anchor="start" x="598.62" y="-71.46" font-family="Helvetica,sans-Serif" font-size="10.00">Register Host &#45; Re&#45;registration &#160;&#160;</text>
</g>
<!-- resetting&#45;pending&#45;user&#45;action&#45;&gt;error -->
<g id="edge2" class="edge transition">
<title>resetting&#45;pending&#45;user&#45;action&#45;&gt;error</title>
<path fill="none" stroke="black" d="M528.69,-38.54C534.85,-38.14 540.95,-37.75 546.88,-37.38 649.93,-30.86 771.52,-23.78 831.94,-20.3"/>
<polygon fill="black" stroke="black" points="831.89,-23.81 841.68,-19.74 831.49,-16.82 831.89,-23.81"/>
<text text-anchor="start" x="546.88" y="-40.62" font-family="Helvetica,sans-Serif" font-size="10.00">Refresh &#45; Move host to error when cluster is in error &#160;&#160;</text>
</g>
<!-- resetting&#45;pending&#45;user&#45;action&#45;&gt;resetting&#45;pending&#45;user&#45;action -->
<g id="edge1" class="edge transition">
<title>resetting&#45;pending&#45;user&#45;action&#45;&gt;resetting&#45;pending&#45;user&#45;action</title>
<path fill="none" stroke="black" d="M415.31,-62.97C412.79,-72.53 417.73,-81.25 430.12,-81.25 437.1,-81.25 441.71,-78.49 443.96,-74.38"/>
<polygon fill="black" stroke="black" points="447.45,-74.74 444.81,-64.48 440.47,-74.14 447.45,-74.74"/>
<text text-anchor="start" x="0" y="-84.5" font-family="Helvetica,sans-Serif" font-size="10.00">null &#45; Host progress change during resetting&#45;pending&#45;user&#45;action state when host is not in state Done (or Rebooting in day2) should stay in resetting&#45;pending&#45;user&#45;action state &#160;&#160;</text>
</g>
<!-- resetting&#45;pending&#45;user&#45;action&#45;&gt;resetting&#45;pending&#45;user&#45;action -->
<g id="edge3" class="edge transition">
<title>resetting&#45;pending&#45;user&#45;action&#45;&gt;resetting&#45;pending&#45;user&#45;action</title>
<path fill="none" stroke="black" d="M405.35,-63.14C392.09,-80.41 400.35,-99.25 430.12,-99.25 454.09,-99.25 464.12,-87.05 460.21,-73.29"/>
<polygon fill="black" stroke="black" points="463.34,-71.72 455.6,-64.49 457.14,-74.97 463.34,-71.72"/>
<text text-anchor="start" x="105" y="-102.5" font-family="Helvetica,sans-Serif" font-size="10.00">Refresh &#45; Refresh during resetting&#45;pending&#45;user&#45;action state without cluster error should stay in resetting&#45;pending&#45;user&#45;action state &#160;&#160;</text>
</g>
<!-- resetting&#45;pending&#45;user&#45;action&#45;&gt;resetting&#45;pending&#45;user&#45;action -->
<g id="edge5" class="edge transition">
<title>resetting&#45;pending&#45;user&#45;action&#45;&gt;resetting&#45;pending&#45;user&#45;action</title>
<path fill="none" stroke="black" d="M398.84,-63.23C371.17,-87.61 381.59,-117.25 430.12,-117.25 473.35,-117.25 486.35,-93.74 469.12,-71.38"/>
<polygon fill="black" stroke="black" points="471.87,-69.18 462.45,-64.33 466.78,-74 471.87,-69.18"/>
<text text-anchor="start" x="258" y="-120.5" font-family="Helvetica,sans-Serif" font-size="10.00">Resetting, Pending User Action &#45; Reset pending user action all states &#160;&#160;</text>
</g>
</g>
</svg>
