<?xml version="1.0" encoding="UTF-8" standalone="no"?>
<!DOCTYPE svg PUBLIC "-//W3C//DTD SVG 1.1//EN"
 "http://www.w3.org/Graphics/SVG/1.1/DTD/svg11.dtd">
<!-- Generated by graphviz version 12.1.0 (20240811.2233)
 -->
<!-- Title: state transitions Pages: 1 -->
<svg width="676pt" height="316pt"
 viewBox="0.00 0.00 675.50 316.40" xmlns="http://www.w3.org/2000/svg" xmlns:xlink="http://www.w3.org/1999/xlink">
<g id="graph0" class="graph" transform="scale(1 1) rotate(0) translate(4 312.4)">
<title>state transitions</title>
<polygon fill="white" stroke="none" points="-4,4 -4,-312.4 671.5,-312.4 671.5,4 -4,4"/>
<!-- disconnected -->
<g id="node1" class="node state regular">
<title>disconnected</title>
<polygon fill="#ffffff" fill-opacity="0.003922" stroke="none" stroke-width="2" points="275,-181.77 173.5,-181.77 173.5,-145.52 275,-145.52 275,-181.77"/>
<text text-anchor="start" x="184.5" y="-159.37" font-family="Helvetica,sans-Serif" font-size="12.00">disconnected</text>
<path fill="none" stroke="black" stroke-width="2" d="M185.92,-146.52C185.92,-146.52 262.58,-146.52 262.58,-146.52 268.29,-146.52 274,-152.22 274,-157.93 274,-157.93 274,-169.35 274,-169.35 274,-175.06 268.29,-180.77 262.58,-180.77 262.58,-180.77 185.92,-180.77 185.92,-180.77 180.21,-180.77 174.5,-175.06 174.5,-169.35 174.5,-169.35 174.5,-157.93 174.5,-157.93 174.5,-152.22 180.21,-146.52 185.92,-146.52"/>
</g>
<!-- disconnected&#45;&gt;disconnected -->
<g id="edge1" class="edge transition">
<title>disconnected&#45;&gt;disconnected</title>
<path fill="none" stroke="black" d="M207.69,-181.48C204.88,-191.05 210.4,-199.77 224.25,-199.77 232.04,-199.77 237.2,-197.01 239.72,-192.89"/>
<polygon fill="black" stroke="black" points="243.2,-193.28 240.67,-182.99 236.23,-192.61 243.2,-193.28"/>
<text text-anchor="start" x="0" y="-203.02" font-family="Helvetica,sans-Serif" font-size="10.00">Media Disconnect &#45; Move to disconnected when virtual media disconnects pre&#45;installation &#160;&#160;</text>
</g>
<!-- disconnected&#45;&gt;disconnected -->
<g id="edge3" class="edge transition">
<title>disconnected&#45;&gt;disconnected</title>
<path fill="none" stroke="black" d="M196.55,-181.66C181.73,-198.92 190.96,-217.77 224.25,-217.77 251.3,-217.77 262.46,-205.33 257.75,-191.4"/>
<polygon fill="black" stroke="black" points="260.84,-189.76 252.72,-182.96 254.83,-193.34 260.84,-189.76"/>
<text text-anchor="start" x="64.5" y="-221.02" font-family="Helvetica,sans-Serif" font-size="10.00">Refresh &#45; Move host to disconnected when connected times out &#160;&#160;</text>
</g>
<!-- unbinding -->
<g id="node2" class="node state regular">
<title>unbinding</title>
<polygon fill="#ffffff" fill-opacity="0.003922" stroke="none" stroke-width="2" points="645,-280.77 564.5,-280.77 564.5,-244.52 645,-244.52 645,-280.77"/>
<text text-anchor="start" x="575.5" y="-258.37" font-family="Helvetica,sans-Serif" font-size="12.00">unbinding</text>
<path fill="none" stroke="black" stroke-width="2" d="M576.92,-245.52C576.92,-245.52 632.58,-245.52 632.58,-245.52 638.29,-245.52 644,-251.22 644,-256.93 644,-256.93 644,-268.35 644,-268.35 644,-274.06 638.29,-279.77 632.58,-279.77 632.58,-279.77 576.92,-279.77 576.92,-279.77 571.21,-279.77 565.5,-274.06 565.5,-268.35 565.5,-268.35 565.5,-256.93 565.5,-256.93 565.5,-251.22 571.21,-245.52 576.92,-245.52"/>
</g>
<!-- disconnected&#45;&gt;unbinding -->
<g id="edge2" class="edge transition">
<title>disconnected&#45;&gt;unbinding</title>
<path fill="none" stroke="black" d="M230.89,-181.63C239.7,-206.22 259.28,-249.36 293,-267.64 375.34,-312.27 488.88,-294.08 553.46,-277.74"/>
<polygon fill="black" stroke="black" points="554.3,-281.14 563.08,-275.22 552.52,-274.37 554.3,-281.14"/>
<text text-anchor="start" x="308" y="-298.9" font-family="Helvetica,sans-Serif" font-size="10.00">Reclaim Host &#45; Reclaim pre&#45;installation &#160;&#160;</text>
</g>
<!-- disconnected&#45;&gt;unbinding -->
<g id="edge10" class="edge transition">
<title>disconnected&#45;&gt;unbinding</title>
<path fill="none" stroke="black" d="M238.01,-181.68C250.18,-197.32 270.04,-219.05 293,-229.64 339.81,-251.23 472.81,-244.77 524,-250.89 533.59,-252.04 543.8,-253.42 553.61,-254.83"/>
<polygon fill="black" stroke="black" points="552.97,-258.27 563.37,-256.26 553.98,-251.34 552.97,-258.27"/>
<text text-anchor="start" x="313.25" y="-254.14" font-family="Helvetica,sans-Serif" font-size="10.00">Unbind Host &#45; Unbind pre&#45;installation &#160;&#160;</text>
</g>
<!-- discovering -->
<g id="node3" class="node state regular">
<title>discovering</title>
<polygon fill="#ffffff" fill-opacity="0.003922" stroke="none" stroke-width="2" points="649.88,-222.77 559.62,-222.77 559.62,-186.52 649.88,-186.52 649.88,-222.77"/>
<text text-anchor="start" x="570.62" y="-200.37" font-family="Helvetica,sans-Serif" font-size="12.00">discovering</text>
<path fill="none" stroke="black" stroke-width="2" d="M572.04,-187.52C572.04,-187.52 637.46,-187.52 637.46,-187.52 643.17,-187.52 648.88,-193.22 648.88,-198.93 648.88,-198.93 648.88,-210.35 648.88,-210.35 648.88,-216.06 643.17,-221.77 637.46,-221.77 637.46,-221.77 572.04,-221.77 572.04,-221.77 566.33,-221.77 560.62,-216.06 560.62,-210.35 560.62,-210.35 560.62,-198.93 560.62,-198.93 560.62,-193.22 566.33,-187.52 572.04,-187.52"/>
</g>
<!-- disconnected&#45;&gt;discovering -->
<g id="edge4" class="edge transition">
<title>disconnected&#45;&gt;discovering</title>
<path fill="none" stroke="black" d="M256.31,-181.6C267.51,-187.18 280.48,-192.64 293,-195.64 380.46,-216.59 485.72,-214.08 548.55,-209.78"/>
<polygon fill="black" stroke="black" points="548.55,-213.29 558.27,-209.07 548.04,-206.3 548.55,-213.29"/>
<text text-anchor="start" x="293" y="-215.96" font-family="Helvetica,sans-Serif" font-size="10.00">Refresh &#45; Host reconnected without inventory &#160;&#160;</text>
</g>
<!-- disconnected&#45;&gt;discovering -->
<g id="edge9" class="edge transition">
<title>disconnected&#45;&gt;discovering</title>
<path fill="none" stroke="black" d="M274.87,-162.24C334.52,-161.46 437.42,-162.99 524,-178.89 532.26,-180.41 540.85,-182.55 549.2,-184.96"/>
<polygon fill="black" stroke="black" points="547.95,-188.24 558.54,-187.8 549.99,-181.54 547.95,-188.24"/>
<text text-anchor="start" x="329.75" y="-182.14" font-family="Helvetica,sans-Serif" font-size="10.00">Register Host &#45; Re&#45;registration &#160;&#160;</text>
</g>
<!-- insufficient -->
<g id="node4" class="node state regular">
<title>insufficient</title>
<polygon fill="#ffffff" fill-opacity="0.003922" stroke="none" stroke-width="2" points="648,-154.77 561.5,-154.77 561.5,-118.52 648,-118.52 648,-154.77"/>
<text text-anchor="start" x="572.5" y="-132.37" font-family="Helvetica,sans-Serif" font-size="12.00">insufficient</text>
<path fill="none" stroke="black" stroke-width="2" d="M573.92,-119.52C573.92,-119.52 635.58,-119.52 635.58,-119.52 641.29,-119.52 647,-125.22 647,-130.93 647,-130.93 647,-142.35 647,-142.35 647,-148.06 641.29,-153.77 635.58,-153.77 635.58,-153.77 573.92,-153.77 573.92,-153.77 568.21,-153.77 562.5,-148.06 562.5,-142.35 562.5,-142.35 562.5,-130.93 562.5,-130.93 562.5,-125.22 568.21,-119.52 573.92,-119.52"/>
</g>
<!-- disconnected&#45;&gt;insufficient -->
<g id="edge5" class="edge transition">
<title>disconnected&#45;&gt;insufficient</title>
<path fill="none" stroke="black" d="M274.97,-150.1C281.01,-148.82 287.12,-147.71 293,-146.89 382.54,-134.49 487.9,-133.92 550.08,-135.02"/>
<polygon fill="black" stroke="black" points="549.96,-138.52 560.03,-135.22 550.1,-131.52 549.96,-138.52"/>
<text text-anchor="start" x="306.12" y="-150.14" font-family="Helvetica,sans-Serif" font-size="10.00">Refresh &#45; Host has insufficient hardware &#160;&#160;</text>
</g>
<!-- disconnected&#45;&gt;insufficient -->
<g id="edge7" class="edge transition">
<title>disconnected&#45;&gt;insufficient</title>
<path fill="none" stroke="black" d="M244.93,-145.7C257.63,-135.37 275.09,-123.37 293,-117.89 380.39,-91.15 487.92,-107.91 550.85,-122.38"/>
<polygon fill="black" stroke="black" points="549.67,-125.7 560.21,-124.6 551.29,-118.89 549.67,-125.7"/>
<text text-anchor="start" x="344.38" y="-121.14" font-family="Helvetica,sans-Serif" font-size="10.00">Refresh &#45; Host not ready &#160;&#160;</text>
</g>
<!-- pending&#45;for&#45;input -->
<g id="node5" class="node state regular">
<title>pending&#45;for&#45;input</title>
<polygon fill="#ffffff" fill-opacity="0.003922" stroke="none" stroke-width="2" points="667.5,-91.77 542,-91.77 542,-55.52 667.5,-55.52 667.5,-91.77"/>
<text text-anchor="start" x="553" y="-69.37" font-family="Helvetica,sans-Serif" font-size="12.00">pending&#45;for&#45;input</text>
<path fill="none" stroke="black" stroke-width="2" d="M554.42,-56.52C554.42,-56.52 655.08,-56.52 655.08,-56.52 660.79,-56.52 666.5,-62.22 666.5,-67.93 666.5,-67.93 666.5,-79.35 666.5,-79.35 666.5,-85.06 660.79,-90.77 655.08,-90.77 655.08,-90.77 554.42,-90.77 554.42,-90.77 548.71,-90.77 543,-85.06 543,-79.35 543,-79.35 543,-67.93 543,-67.93 543,-62.22 548.71,-56.52 554.42,-56.52"/>
</g>
<!-- disconnected&#45;&gt;pending&#45;for&#45;input -->
<g id="edge6" class="edge transition">
<title>disconnected&#45;&gt;pending&#45;for&#45;input</title>
<path fill="none" stroke="black" d="M235.22,-145.55C246.54,-127.07 266.85,-99.36 293,-86.89 368.21,-51.01 465.67,-53.58 531.22,-61.27"/>
<polygon fill="black" stroke="black" points="530.41,-64.7 540.77,-62.46 531.28,-57.75 530.41,-64.7"/>
<text text-anchor="start" x="334.25" y="-90.14" font-family="Helvetica,sans-Serif" font-size="10.00">Refresh &#45; Host pending input &#160;&#160;</text>
</g>
<!-- known -->
<g id="node6" class="node state regular">
<title>known</title>
<polygon fill="#ffffff" fill-opacity="0.003922" stroke="none" stroke-width="2" points="635.25,-37.77 574.25,-37.77 574.25,-1.52 635.25,-1.52 635.25,-37.77"/>
<text text-anchor="start" x="585.25" y="-15.37" font-family="Helvetica,sans-Serif" font-size="12.00">known</text>
<path fill="none" stroke="black" stroke-width="2" d="M586.67,-2.52C586.67,-2.52 622.83,-2.52 622.83,-2.52 628.54,-2.52 634.25,-8.22 634.25,-13.93 634.25,-13.93 634.25,-25.35 634.25,-25.35 634.25,-31.06 628.54,-36.77 622.83,-36.77 622.83,-36.77 586.67,-36.77 586.67,-36.77 580.96,-36.77 575.25,-31.06 575.25,-25.35 575.25,-25.35 575.25,-13.93 575.25,-13.93 575.25,-8.22 580.96,-2.52 586.67,-2.52"/>
</g>
<!-- disconnected&#45;&gt;known -->
<g id="edge8" class="edge transition">
<title>disconnected&#45;&gt;known</title>
<path fill="none" stroke="black" d="M229.29,-145.53C236.62,-117.45 255,-64.12 293,-39.89 376.69,13.46 500.15,0.71 563.3,-10.78"/>
<polygon fill="black" stroke="black" points="562.4,-14.17 572.88,-12.61 563.72,-7.29 562.4,-14.17"/>
<text text-anchor="start" x="353.75" y="-43.14" font-family="Helvetica,sans-Serif" font-size="10.00">Refresh &#45; Host ready &#160;&#160;</text>
</g>
</g>
</svg>
