<?xml version="1.0" encoding="UTF-8" standalone="no"?>
<!DOCTYPE svg PUBLIC "-//W3C//DTD SVG 1.1//EN"
 "http://www.w3.org/Graphics/SVG/1.1/DTD/svg11.dtd">
<!-- Generated by graphviz version 12.1.0 (20240811.2233)
 -->
<!-- Title: state transitions Pages: 1 -->
<svg width="825pt" height="497pt"
 viewBox="0.00 0.00 824.75 496.89" xmlns="http://www.w3.org/2000/svg" xmlns:xlink="http://www.w3.org/1999/xlink">
<g id="graph0" class="graph" transform="scale(1 1) rotate(0) translate(4 492.89)">
<title>state transitions</title>
<polygon fill="white" stroke="none" points="-4,4 -4,-492.89 820.75,-492.89 820.75,4 -4,4"/>
<!-- disconnected -->
<g id="node1" class="node state regular">
<title>disconnected</title>
<polygon fill="#ffffff" fill-opacity="0.003922" stroke="none" stroke-width="2" points="768.38,-471.67 666.88,-471.67 666.88,-435.42 768.38,-435.42 768.38,-471.67"/>
<text text-anchor="start" x="677.88" y="-449.27" font-family="Helvetica,sans-Serif" font-size="12.00">disconnected</text>
<path fill="none" stroke="black" stroke-width="2" d="M679.29,-436.42C679.29,-436.42 755.96,-436.42 755.96,-436.42 761.67,-436.42 767.38,-442.12 767.38,-447.83 767.38,-447.83 767.38,-459.25 767.38,-459.25 767.38,-464.96 761.67,-470.67 755.96,-470.67 755.96,-470.67 679.29,-470.67 679.29,-470.67 673.58,-470.67 667.88,-464.96 667.88,-459.25 667.88,-459.25 667.88,-447.83 667.88,-447.83 667.88,-442.12 673.58,-436.42 679.29,-436.42"/>
</g>
<!-- discovering -->
<g id="node2" class="node state regular">
<title>discovering</title>
<polygon fill="#ffffff" fill-opacity="0.003922" stroke="none" stroke-width="2" points="762.75,-413.67 672.5,-413.67 672.5,-377.42 762.75,-377.42 762.75,-413.67"/>
<text text-anchor="start" x="683.5" y="-391.27" font-family="Helvetica,sans-Serif" font-size="12.00">discovering</text>
<path fill="none" stroke="black" stroke-width="2" d="M684.92,-378.42C684.92,-378.42 750.33,-378.42 750.33,-378.42 756.04,-378.42 761.75,-384.12 761.75,-389.83 761.75,-389.83 761.75,-401.25 761.75,-401.25 761.75,-406.96 756.04,-412.67 750.33,-412.67 750.33,-412.67 684.92,-412.67 684.92,-412.67 679.21,-412.67 673.5,-406.96 673.5,-401.25 673.5,-401.25 673.5,-389.83 673.5,-389.83 673.5,-384.12 679.21,-378.42 684.92,-378.42"/>
</g>
<!-- installing -->
<g id="node3" class="node state regular">
<title>installing</title>
<polygon fill="#ffffff" fill-opacity="0.003922" stroke="none" stroke-width="2" points="754.88,-359.67 680.38,-359.67 680.38,-323.42 754.88,-323.42 754.88,-359.67"/>
<text text-anchor="start" x="691.38" y="-337.27" font-family="Helvetica,sans-Serif" font-size="12.00">installing</text>
<path fill="none" stroke="black" stroke-width="2" d="M692.79,-324.42C692.79,-324.42 742.46,-324.42 742.46,-324.42 748.17,-324.42 753.88,-330.12 753.88,-335.83 753.88,-335.83 753.88,-347.25 753.88,-347.25 753.88,-352.96 748.17,-358.67 742.46,-358.67 742.46,-358.67 692.79,-358.67 692.79,-358.67 687.08,-358.67 681.38,-352.96 681.38,-347.25 681.38,-347.25 681.38,-335.83 681.38,-335.83 681.38,-330.12 687.08,-324.42 692.79,-324.42"/>
</g>
<!-- insufficient -->
<g id="node4" class="node state regular">
<title>insufficient</title>
<polygon fill="#ffffff" fill-opacity="0.003922" stroke="none" stroke-width="2" points="760.88,-296.67 674.38,-296.67 674.38,-260.42 760.88,-260.42 760.88,-296.67"/>
<text text-anchor="start" x="685.38" y="-274.27" font-family="Helvetica,sans-Serif" font-size="12.00">insufficient</text>
<path fill="none" stroke="black" stroke-width="2" d="M686.79,-261.42C686.79,-261.42 748.46,-261.42 748.46,-261.42 754.17,-261.42 759.88,-267.12 759.88,-272.83 759.88,-272.83 759.88,-284.25 759.88,-284.25 759.88,-289.96 754.17,-295.67 748.46,-295.67 748.46,-295.67 686.79,-295.67 686.79,-295.67 681.08,-295.67 675.38,-289.96 675.38,-284.25 675.38,-284.25 675.38,-272.83 675.38,-272.83 675.38,-267.12 681.08,-261.42 686.79,-261.42"/>
</g>
<!-- known -->
<g id="node5" class="node state regular">
<title>known</title>
<polygon fill="#ffffff" fill-opacity="0.003922" stroke="none" stroke-width="2" points="134,-278.67 73,-278.67 73,-242.42 134,-242.42 134,-278.67"/>
<text text-anchor="start" x="84" y="-256.27" font-family="Helvetica,sans-Serif" font-size="12.00">known</text>
<path fill="none" stroke="black" stroke-width="2" d="M85.42,-243.42C85.42,-243.42 121.58,-243.42 121.58,-243.42 127.29,-243.42 133,-249.12 133,-254.83 133,-254.83 133,-266.25 133,-266.25 133,-271.96 127.29,-277.67 121.58,-277.67 121.58,-277.67 85.42,-277.67 85.42,-277.67 79.71,-277.67 74,-271.96 74,-266.25 74,-266.25 74,-254.83 74,-254.83 74,-249.12 79.71,-243.42 85.42,-243.42"/>
</g>
<!-- known&#45;&gt;disconnected -->
<g id="edge3" class="edge transition">
<title>known&#45;&gt;disconnected</title>
<path fill="none" stroke="black" d="M106.64,-278.39C111.92,-319.09 126.98,-416.77 152,-436.54 228.47,-496.96 526.53,-473.81 656.02,-460.44"/>
<polygon fill="black" stroke="black" points="656.19,-463.94 665.76,-459.41 655.45,-456.98 656.19,-463.94"/>
<text text-anchor="start" x="152" y="-479.39" font-family="Helvetica,sans-Serif" font-size="10.00">Media Disconnect &#45; Move to disconnected when virtual media disconnects pre&#45;installation &#160;&#160;</text>
</g>
<!-- known&#45;&gt;disconnected -->
<g id="edge7" class="edge transition">
<title>known&#45;&gt;disconnected</title>
<path fill="none" stroke="black" d="M104.58,-278.31C105.79,-309 113.19,-371.44 152,-400.54 191.91,-430.46 551.28,-411.7 600.5,-419.79 618.86,-422.81 638.42,-427.78 656.15,-432.99"/>
<polygon fill="black" stroke="black" points="654.9,-436.27 665.48,-435.81 656.92,-429.57 654.9,-436.27"/>
<text text-anchor="start" x="216.5" y="-423.04" font-family="Helvetica,sans-Serif" font-size="10.00">Refresh &#45; Move host to disconnected when connected times out &#160;&#160;</text>
</g>
<!-- known&#45;&gt;discovering -->
<g id="edge12" class="edge transition">
<title>known&#45;&gt;discovering</title>
<path fill="none" stroke="black" d="M107.39,-278.59C112.16,-301.9 124.13,-341.72 152,-360.54 193.37,-388.48 550.68,-384.62 600.5,-387.79 620.3,-389.05 641.99,-390.49 661.21,-391.78"/>
<polygon fill="black" stroke="black" points="660.79,-395.26 671,-392.43 661.26,-388.27 660.79,-395.26"/>
<text text-anchor="start" x="297.5" y="-391.04" font-family="Helvetica,sans-Serif" font-size="10.00">Register Host &#45; Re&#45;registration &#160;&#160;</text>
</g>
<!-- known&#45;&gt;installing -->
<g id="edge2" class="edge transition">
<title>known&#45;&gt;installing</title>
<path fill="none" stroke="black" d="M112.5,-278.54C120.24,-293.54 133.52,-313.96 152,-323.54 197.28,-347.02 541.74,-344.23 669.31,-342.36"/>
<polygon fill="black" stroke="black" points="669.14,-345.86 679.09,-342.21 669.04,-338.86 669.14,-345.86"/>
<text text-anchor="start" x="294.5" y="-346.8" font-family="Helvetica,sans-Serif" font-size="10.00">Install Host &#45; Install known host &#160;&#160;</text>
</g>
<!-- known&#45;&gt;insufficient -->
<g id="edge6" class="edge transition">
<title>known&#45;&gt;insufficient</title>
<path fill="none" stroke="black" d="M125.32,-278.47C133.16,-284.12 142.49,-289.64 152,-292.54 247.32,-321.65 501.01,-298.52 600.5,-292.54 621.09,-291.3 643.62,-288.85 663.31,-286.33"/>
<polygon fill="black" stroke="black" points="663.58,-289.82 673.04,-285.05 662.67,-282.88 663.58,-289.82"/>
<text text-anchor="start" x="219.5" y="-310.16" font-family="Helvetica,sans-Serif" font-size="10.00">Refresh &#45; Preparing failed disk speed host move to insufficient &#160;&#160;</text>
</g>
<!-- known&#45;&gt;insufficient -->
<g id="edge8" class="edge transition">
<title>known&#45;&gt;insufficient</title>
<path fill="none" stroke="black" d="M133.61,-261.4C229.81,-264.23 538.41,-273.3 663.36,-276.98"/>
<polygon fill="black" stroke="black" points="662.9,-280.46 673,-277.26 663.11,-273.47 662.9,-280.46"/>
<text text-anchor="start" x="273.88" y="-278.35" font-family="Helvetica,sans-Serif" font-size="10.00">Refresh &#45; Host has insufficient hardware &#160;&#160;</text>
</g>
<!-- known&#45;&gt;insufficient -->
<g id="edge10" class="edge transition">
<title>known&#45;&gt;insufficient</title>
<path fill="none" stroke="black" d="M133.82,-249.93C139.76,-248.21 146.02,-246.7 152,-245.79 349.08,-215.9 403.05,-218.48 600.5,-245.79 621.5,-248.7 644.04,-254.42 663.63,-260.28"/>
<polygon fill="black" stroke="black" points="662.45,-263.58 673.03,-263.19 664.51,-256.89 662.45,-263.58"/>
<text text-anchor="start" x="312.12" y="-249.04" font-family="Helvetica,sans-Serif" font-size="10.00">Refresh &#45; Host not ready &#160;&#160;</text>
</g>
<!-- known&#45;&gt;known -->
<g id="edge1" class="edge transition">
<title>known&#45;&gt;known</title>
<path fill="none" stroke="black" d="M78.98,-278.38C74.82,-287.95 82.99,-296.67 103.5,-296.67 115.36,-296.67 123.09,-293.75 126.7,-289.45"/>
<polygon fill="black" stroke="black" points="130.13,-290.23 127.84,-279.89 123.18,-289.4 130.13,-290.23"/>
<text text-anchor="start" x="0" y="-299.92" font-family="Helvetica,sans-Serif" font-size="10.00">Cancel Installation &#45; Cancel while known &#160;&#160;</text>
</g>
<!-- known&#45;&gt;known -->
<g id="edge11" class="edge transition">
<title>known&#45;&gt;known</title>
<path fill="none" stroke="black" d="M73.09,-271.83C37.56,-290.5 47.7,-314.67 103.5,-314.67 153.42,-314.67 166.79,-295.33 143.63,-277.89"/>
<polygon fill="black" stroke="black" points="145.53,-274.95 135.19,-272.63 141.83,-280.89 145.53,-274.95"/>
<text text-anchor="start" x="36.75" y="-317.92" font-family="Helvetica,sans-Serif" font-size="10.00">Refresh &#45; Host stay ready &#160;&#160;</text>
</g>
<!-- unbinding -->
<g id="node6" class="node state regular">
<title>unbinding</title>
<polygon fill="#ffffff" fill-opacity="0.003922" stroke="none" stroke-width="2" points="757.88,-220.67 677.38,-220.67 677.38,-184.42 757.88,-184.42 757.88,-220.67"/>
<text text-anchor="start" x="688.38" y="-198.27" font-family="Helvetica,sans-Serif" font-size="12.00">unbinding</text>
<path fill="none" stroke="black" stroke-width="2" d="M689.79,-185.42C689.79,-185.42 745.46,-185.42 745.46,-185.42 751.17,-185.42 756.88,-191.12 756.88,-196.83 756.88,-196.83 756.88,-208.25 756.88,-208.25 756.88,-213.96 751.17,-219.67 745.46,-219.67 745.46,-219.67 689.79,-219.67 689.79,-219.67 684.08,-219.67 678.38,-213.96 678.38,-208.25 678.38,-208.25 678.38,-196.83 678.38,-196.83 678.38,-191.12 684.08,-185.42 689.79,-185.42"/>
</g>
<!-- known&#45;&gt;unbinding -->
<g id="edge4" class="edge transition">
<title>known&#45;&gt;unbinding</title>
<path fill="none" stroke="black" d="M115.05,-242.49C123.36,-230.21 136.16,-214.93 152,-207.79 198.14,-186.99 537.28,-196.33 666.67,-200.72"/>
<polygon fill="black" stroke="black" points="666.17,-204.21 676.28,-201.05 666.41,-197.21 666.17,-204.21"/>
<text text-anchor="start" x="275.75" y="-211.04" font-family="Helvetica,sans-Serif" font-size="10.00">Reclaim Host &#45; Reclaim pre&#45;installation &#160;&#160;</text>
</g>
<!-- known&#45;&gt;unbinding -->
<g id="edge14" class="edge transition">
<title>known&#45;&gt;unbinding</title>
<path fill="none" stroke="black" d="M109.05,-242.52C115.14,-222.64 128.06,-191.65 152,-177.79 238.25,-127.85 501.38,-167.35 600.5,-177.79 622.28,-180.09 645.98,-184.74 666.26,-189.4"/>
<polygon fill="black" stroke="black" points="665.44,-192.8 675.98,-191.7 667.05,-185.99 665.44,-192.8"/>
<text text-anchor="start" x="281" y="-181.04" font-family="Helvetica,sans-Serif" font-size="10.00">Unbind Host &#45; Unbind pre&#45;installation &#160;&#160;</text>
</g>
<!-- preparing&#45;for&#45;installation -->
<g id="node7" class="node state regular">
<title>preparing&#45;for&#45;installation</title>
<polygon fill="#ffffff" fill-opacity="0.003922" stroke="none" stroke-width="2" points="802.5,-157.67 632.75,-157.67 632.75,-121.42 802.5,-121.42 802.5,-157.67"/>
<text text-anchor="start" x="643.75" y="-135.27" font-family="Helvetica,sans-Serif" font-size="12.00">preparing&#45;for&#45;installation</text>
<path fill="none" stroke="black" stroke-width="2" d="M645.17,-122.42C645.17,-122.42 790.08,-122.42 790.08,-122.42 795.79,-122.42 801.5,-128.12 801.5,-133.83 801.5,-133.83 801.5,-145.25 801.5,-145.25 801.5,-150.96 795.79,-156.67 790.08,-156.67 790.08,-156.67 645.17,-156.67 645.17,-156.67 639.46,-156.67 633.75,-150.96 633.75,-145.25 633.75,-145.25 633.75,-133.83 633.75,-133.83 633.75,-128.12 639.46,-122.42 645.17,-122.42"/>
</g>
<!-- known&#45;&gt;preparing&#45;for&#45;installation -->
<g id="edge5" class="edge transition">
<title>known&#45;&gt;preparing&#45;for&#45;installation</title>
<path fill="none" stroke="black" d="M105.34,-242.83C107.73,-214.79 116.91,-160.91 152,-136.79 225.69,-86.14 481.1,-109.08 621.8,-126.44"/>
<polygon fill="black" stroke="black" points="621.11,-129.88 631.47,-127.65 621.98,-122.94 621.11,-129.88"/>
<text text-anchor="start" x="251" y="-140.04" font-family="Helvetica,sans-Serif" font-size="10.00">Refresh &#45; Refresh known host in preparing cluster &#160;&#160;</text>
</g>
<!-- pending&#45;for&#45;input -->
<g id="node8" class="node state regular">
<title>pending&#45;for&#45;input</title>
<polygon fill="#ffffff" fill-opacity="0.003922" stroke="none" stroke-width="2" points="780.38,-103.67 654.88,-103.67 654.88,-67.42 780.38,-67.42 780.38,-103.67"/>
<text text-anchor="start" x="665.88" y="-81.27" font-family="Helvetica,sans-Serif" font-size="12.00">pending&#45;for&#45;input</text>
<path fill="none" stroke="black" stroke-width="2" d="M667.29,-68.42C667.29,-68.42 767.96,-68.42 767.96,-68.42 773.67,-68.42 779.38,-74.12 779.38,-79.83 779.38,-79.83 779.38,-91.25 779.38,-91.25 779.38,-96.96 773.67,-102.67 767.96,-102.67 767.96,-102.67 667.29,-102.67 667.29,-102.67 661.58,-102.67 655.88,-96.96 655.88,-91.25 655.88,-91.25 655.88,-79.83 655.88,-79.83 655.88,-74.12 661.58,-68.42 667.29,-68.42"/>
</g>
<!-- known&#45;&gt;pending&#45;for&#45;input -->
<g id="edge9" class="edge transition">
<title>known&#45;&gt;pending&#45;for&#45;input</title>
<path fill="none" stroke="black" d="M106.76,-242.48C112.19,-202.32 127.37,-107.64 152,-88.79 226.97,-31.4 508.82,-58.54 643.75,-75.49"/>
<polygon fill="black" stroke="black" points="643.3,-78.96 653.67,-76.75 644.19,-72.02 643.3,-78.96"/>
<text text-anchor="start" x="302" y="-92.04" font-family="Helvetica,sans-Serif" font-size="10.00">Refresh &#45; Host pending input &#160;&#160;</text>
</g>
<!-- resetting&#45;pending&#45;user&#45;action -->
<g id="node9" class="node state regular">
<title>resetting&#45;pending&#45;user&#45;action</title>
<polygon fill="#ffffff" fill-opacity="0.003922" stroke="none" stroke-width="2" points="816.75,-49.67 618.5,-49.67 618.5,-13.42 816.75,-13.42 816.75,-49.67"/>
<text text-anchor="start" x="629.5" y="-27.27" font-family="Helvetica,sans-Serif" font-size="12.00">resetting&#45;pending&#45;user&#45;action</text>
<path fill="none" stroke="black" stroke-width="2" d="M630.92,-14.42C630.92,-14.42 804.33,-14.42 804.33,-14.42 810.04,-14.42 815.75,-20.12 815.75,-25.83 815.75,-25.83 815.75,-37.25 815.75,-37.25 815.75,-42.96 810.04,-48.67 804.33,-48.67 804.33,-48.67 630.92,-48.67 630.92,-48.67 625.21,-48.67 619.5,-42.96 619.5,-37.25 619.5,-37.25 619.5,-25.83 619.5,-25.83 619.5,-20.12 625.21,-14.42 630.92,-14.42"/>
</g>
<!-- known&#45;&gt;resetting&#45;pending&#45;user&#45;action -->
<g id="edge13" class="edge transition">
<title>known&#45;&gt;resetting&#45;pending&#45;user&#45;action</title>
<path fill="none" stroke="black" d="M105.51,-242.65C108.65,-194.31 120.03,-62.94 152,-36.79 219.17,18.13 463.4,-0.39 607.72,-17.05"/>
<polygon fill="black" stroke="black" points="606.95,-20.48 617.29,-18.17 607.77,-13.53 606.95,-20.48"/>
<text text-anchor="start" x="204.12" y="-40.04" font-family="Helvetica,sans-Serif" font-size="10.00">Resetting, Pending User Action &#45; Reset pending user action all states &#160;&#160;</text>
</g>
</g>
</svg>
