<?xml version="1.0" encoding="UTF-8" standalone="no"?>
<!DOCTYPE svg PUBLIC "-//W3C//DTD SVG 1.1//EN"
 "http://www.w3.org/Graphics/SVG/1.1/DTD/svg11.dtd">
<!-- Generated by graphviz version 7.1.0 (0)
 -->
<!-- Title: state transitions Pages: 1 -->
<svg width="729pt" height="206pt"
 viewBox="0.00 0.00 729.00 206.00" xmlns="http://www.w3.org/2000/svg" xmlns:xlink="http://www.w3.org/1999/xlink">
<g id="graph0" class="graph" transform="scale(1 1) rotate(0) translate(4 202)">
<title>state transitions</title>
<polygon fill="white" stroke="none" points="-4,4 -4,-202 725,-202 725,4 -4,4"/>
<!-- added&#45;to&#45;existing&#45;cluster -->
<g id="node1" class="node state regular">
<title>added&#45;to&#45;existing&#45;cluster</title>
<polygon fill="#ffffff" fill-opacity="0.003922" stroke="none" stroke-width="2" points="188,-117 35,-117 35,-81 188,-81 188,-117"/>
<text text-anchor="start" x="46.5" y="-95.4" font-family="Helvetica,sans-Serif" font-size="12.00">added&#45;to&#45;existing&#45;cluster</text>
<path fill="none" stroke="black" stroke-width="2" d="M47,-82.5C47,-82.5 176,-82.5 176,-82.5 181.5,-82.5 187,-88 187,-93.5 187,-93.5 187,-104.5 187,-104.5 187,-110 181.5,-115.5 176,-115.5 176,-115.5 47,-115.5 47,-115.5 41.5,-115.5 36,-110 36,-104.5 36,-104.5 36,-93.5 36,-93.5 36,-88 41.5,-82.5 47,-82.5"/>
</g>
<!-- added&#45;to&#45;existing&#45;cluster&#45;&gt;added&#45;to&#45;existing&#45;cluster -->
<g id="edge2" class="edge transition">
<title>added&#45;to&#45;existing&#45;cluster&#45;&gt;added&#45;to&#45;existing&#45;cluster</title>
<path fill="none" stroke="black" d="M66.56,-116.78C58.92,-126.31 73.9,-135 111.5,-135 133.24,-135 147.41,-132.1 154.03,-127.81"/>
<polygon fill="black" stroke="black" points="157.4,-128.78 156.12,-118.26 150.56,-127.28 157.4,-128.78"/>
<text text-anchor="start" x="0" y="-138" font-family="Helvetica,sans-Serif" font-size="10.00">Refresh &#45; Day 2 hosts should stay in added state &#160;&#160;</text>
</g>
<!-- installing&#45;pending&#45;user&#45;action -->
<g id="node2" class="node state regular">
<title>installing&#45;pending&#45;user&#45;action</title>
<polygon fill="#ffffff" fill-opacity="0.003922" stroke="none" stroke-width="2" points="718.5,-198 537.5,-198 537.5,-162 718.5,-162 718.5,-198"/>
<text text-anchor="start" x="549" y="-176.4" font-family="Helvetica,sans-Serif" font-size="12.00">installing&#45;pending&#45;user&#45;action</text>
<path fill="none" stroke="black" stroke-width="2" d="M549.5,-163.5C549.5,-163.5 706.5,-163.5 706.5,-163.5 712,-163.5 717.5,-169 717.5,-174.5 717.5,-174.5 717.5,-185.5 717.5,-185.5 717.5,-191 712,-196.5 706.5,-196.5 706.5,-196.5 549.5,-196.5 549.5,-196.5 544,-196.5 538.5,-191 538.5,-185.5 538.5,-185.5 538.5,-174.5 538.5,-174.5 538.5,-169 544,-163.5 549.5,-163.5"/>
</g>
<!-- added&#45;to&#45;existing&#45;cluster&#45;&gt;installing&#45;pending&#45;user&#45;action -->
<g id="edge3" class="edge transition">
<title>added&#45;to&#45;existing&#45;cluster&#45;&gt;installing&#45;pending&#45;user&#45;action</title>
<path fill="none" stroke="black" d="M152.27,-116.95C168.61,-123.62 187.91,-130.63 206,-135 313.53,-160.97 440.12,-171.96 526.21,-176.61"/>
<polygon fill="black" stroke="black" points="525.87,-180.09 536.04,-177.11 526.24,-173.1 525.87,-180.09"/>
<text text-anchor="start" x="263.5" y="-178" font-family="Helvetica,sans-Serif" font-size="10.00">Register Host &#45; Wrong boot order detection &#160;&#160;</text>
</g>
<!-- reclaiming -->
<g id="node3" class="node state regular">
<title>reclaiming</title>
<polygon fill="#ffffff" fill-opacity="0.003922" stroke="none" stroke-width="2" points="667,-144 589,-144 589,-108 667,-108 667,-144"/>
<text text-anchor="start" x="600" y="-122.4" font-family="Helvetica,sans-Serif" font-size="12.00">reclaiming</text>
<path fill="none" stroke="black" stroke-width="2" d="M601,-109.5C601,-109.5 655,-109.5 655,-109.5 660.5,-109.5 666,-115 666,-120.5 666,-120.5 666,-131.5 666,-131.5 666,-137 660.5,-142.5 655,-142.5 655,-142.5 601,-142.5 601,-142.5 595.5,-142.5 590,-137 590,-131.5 590,-131.5 590,-120.5 590,-120.5 590,-115 595.5,-109.5 601,-109.5"/>
</g>
<!-- added&#45;to&#45;existing&#45;cluster&#45;&gt;reclaiming -->
<g id="edge1" class="edge transition">
<title>added&#45;to&#45;existing&#45;cluster&#45;&gt;reclaiming</title>
<path fill="none" stroke="black" d="M187.86,-102.95C294.82,-108.57 487.67,-118.69 577.92,-123.42"/>
<polygon fill="black" stroke="black" points="577.5,-126.91 587.67,-123.94 577.87,-119.92 577.5,-126.91"/>
<text text-anchor="start" x="269" y="-123" font-family="Helvetica,sans-Serif" font-size="10.00">Reclaim Host &#45; Reclaim successful host &#160;&#160;</text>
</g>
<!-- resetting&#45;pending&#45;user&#45;action -->
<g id="node4" class="node state regular">
<title>resetting&#45;pending&#45;user&#45;action</title>
<polygon fill="#ffffff" fill-opacity="0.003922" stroke="none" stroke-width="2" points="717.5,-90 538.5,-90 538.5,-54 717.5,-54 717.5,-90"/>
<text text-anchor="start" x="550" y="-68.4" font-family="Helvetica,sans-Serif" font-size="12.00">resetting&#45;pending&#45;user&#45;action</text>
<path fill="none" stroke="black" stroke-width="2" d="M550.5,-55.5C550.5,-55.5 705.5,-55.5 705.5,-55.5 711,-55.5 716.5,-61 716.5,-66.5 716.5,-66.5 716.5,-77.5 716.5,-77.5 716.5,-83 711,-88.5 705.5,-88.5 705.5,-88.5 550.5,-88.5 550.5,-88.5 545,-88.5 539.5,-83 539.5,-77.5 539.5,-77.5 539.5,-66.5 539.5,-66.5 539.5,-61 545,-55.5 550.5,-55.5"/>
</g>
<!-- added&#45;to&#45;existing&#45;cluster&#45;&gt;resetting&#45;pending&#45;user&#45;action -->
<g id="edge4" class="edge transition">
<title>added&#45;to&#45;existing&#45;cluster&#45;&gt;resetting&#45;pending&#45;user&#45;action</title>
<path fill="none" stroke="black" d="M187.99,-90.49C194.08,-89.94 200.14,-89.43 206,-89 315.68,-80.93 441.73,-76.48 527.1,-74.17"/>
<polygon fill="black" stroke="black" points="527.19,-77.67 537.09,-73.91 527,-70.67 527.19,-77.67"/>
<text text-anchor="start" x="206" y="-92" font-family="Helvetica,sans-Serif" font-size="10.00">Resetting, Pending User Action &#45; Reset pending user action all states &#160;&#160;</text>
</g>
<!-- unbinding&#45;pending&#45;user&#45;action -->
<g id="node5" class="node state regular">
<title>unbinding&#45;pending&#45;user&#45;action</title>
<polygon fill="#ffffff" fill-opacity="0.003922" stroke="none" stroke-width="2" points="721,-36 535,-36 535,0 721,0 721,-36"/>
<text text-anchor="start" x="546" y="-14.4" font-family="Helvetica,sans-Serif" font-size="12.00">unbinding&#45;pending&#45;user&#45;action</text>
<path fill="none" stroke="black" stroke-width="2" d="M547,-1.5C547,-1.5 709,-1.5 709,-1.5 714.5,-1.5 720,-7 720,-12.5 720,-12.5 720,-23.5 720,-23.5 720,-29 714.5,-34.5 709,-34.5 709,-34.5 547,-34.5 547,-34.5 541.5,-34.5 536,-29 536,-23.5 536,-23.5 536,-12.5 536,-12.5 536,-7 541.5,-1.5 547,-1.5"/>
</g>
<!-- added&#45;to&#45;existing&#45;cluster&#45;&gt;unbinding&#45;pending&#45;user&#45;action -->
<g id="edge5" class="edge transition">
<title>added&#45;to&#45;existing&#45;cluster&#45;&gt;unbinding&#45;pending&#45;user&#45;action</title>
<path fill="none" stroke="black" d="M147.12,-81.17C164.38,-73.07 185.82,-64.17 206,-59 312.21,-31.8 437.73,-22.38 523.91,-19.26"/>
<polygon fill="black" stroke="black" points="523.88,-22.76 533.76,-18.92 523.65,-15.76 523.88,-22.76"/>
<text text-anchor="start" x="253" y="-62" font-family="Helvetica,sans-Serif" font-size="10.00">Unbind Host &#45; Unbind during or after installation &#160;&#160;</text>
</g>
</g>
</svg>
