<?xml version="1.0" encoding="UTF-8" standalone="no"?>
<!DOCTYPE svg PUBLIC "-//W3C//DTD SVG 1.1//EN"
 "http://www.w3.org/Graphics/SVG/1.1/DTD/svg11.dtd">
<!-- Generated by graphviz version 12.1.0 (20240811.2233)
 -->
<!-- Title: state transitions Pages: 1 -->
<svg width="362pt" height="44pt"
 viewBox="0.00 0.00 362.00 44.25" xmlns="http://www.w3.org/2000/svg" xmlns:xlink="http://www.w3.org/1999/xlink">
<g id="graph0" class="graph" transform="scale(1 1) rotate(0) translate(4 40.25)">
<title>state transitions</title>
<polygon fill="white" stroke="none" points="-4,4 -4,-40.25 358,-40.25 358,4 -4,4"/>
<!-- discovering -->
<g id="node1" class="node state regular">
<title>discovering</title>
<polygon fill="#ffffff" fill-opacity="0.003922" stroke="none" stroke-width="2" points="354,-36.25 263.75,-36.25 263.75,0 354,0 354,-36.25"/>
<text text-anchor="start" x="274.75" y="-13.85" font-family="Helvetica,sans-Serif" font-size="12.00">discovering</text>
<path fill="none" stroke="black" stroke-width="2" d="M276.17,-1C276.17,-1 341.58,-1 341.58,-1 347.29,-1 353,-6.71 353,-12.42 353,-12.42 353,-23.83 353,-23.83 353,-29.54 347.29,-35.25 341.58,-35.25 341.58,-35.25 276.17,-35.25 276.17,-35.25 270.46,-35.25 264.75,-29.54 264.75,-23.83 264.75,-23.83 264.75,-12.42 264.75,-12.42 264.75,-6.71 270.46,-1 276.17,-1"/>
</g>
<!-- initial -->
<g id="node2" class="node state regular">
<title>initial</title>
<polygon fill="#ffffff" fill-opacity="0.003922" stroke="none" stroke-width="2" points="56,-36.25 0,-36.25 0,0 56,0 56,-36.25"/>
<text text-anchor="start" x="12.25" y="-13.85" font-family="Helvetica,sans-Serif" font-size="12.00">initial</text>
<path fill="none" stroke="black" stroke-width="2" d="M12.42,-1C12.42,-1 43.58,-1 43.58,-1 49.29,-1 55,-6.71 55,-12.42 55,-12.42 55,-23.83 55,-23.83 55,-29.54 49.29,-35.25 43.58,-35.25 43.58,-35.25 12.42,-35.25 12.42,-35.25 6.71,-35.25 1,-29.54 1,-23.83 1,-23.83 1,-12.42 1,-12.42 1,-6.71 6.71,-1 12.42,-1"/>
</g>
<!-- initial&#45;&gt;discovering -->
<g id="edge1" class="edge transition">
<title>initial&#45;&gt;discovering</title>
<path fill="none" stroke="black" d="M55.99,-18.12C101.23,-18.12 193.22,-18.12 252.63,-18.12"/>
<polygon fill="black" stroke="black" points="252.54,-21.63 262.54,-18.13 252.54,-14.63 252.54,-21.63"/>
<text text-anchor="start" x="74" y="-21.38" font-family="Helvetica,sans-Serif" font-size="10.00">Register Host &#45; Initial registration &#160;&#160;</text>
</g>
</g>
</svg>
