<?xml version="1.0" encoding="UTF-8" standalone="no"?>
<!DOCTYPE svg PUBLIC "-//W3C//DTD SVG 1.1//EN"
 "http://www.w3.org/Graphics/SVG/1.1/DTD/svg11.dtd">
<!-- Generated by graphviz version 12.1.0 (20240811.2233)
 -->
<!-- Title: state transitions Pages: 1 -->
<svg width="1352pt" height="574pt"
 viewBox="0.00 0.00 1351.62 574.07" xmlns="http://www.w3.org/2000/svg" xmlns:xlink="http://www.w3.org/1999/xlink">
<g id="graph0" class="graph" transform="scale(1 1) rotate(0) translate(4 570.07)">
<title>state transitions</title>
<polygon fill="white" stroke="none" points="-4,4 -4,-570.07 1347.62,-570.07 1347.62,4 -4,4"/>
<!-- added&#45;to&#45;existing&#45;cluster -->
<g id="node1" class="node state regular">
<title>added&#45;to&#45;existing&#45;cluster</title>
<polygon fill="#ffffff" fill-opacity="0.003922" stroke="none" stroke-width="2" points="1330.5,-508.34 1159.25,-508.34 1159.25,-472.09 1330.5,-472.09 1330.5,-508.34"/>
<text text-anchor="start" x="1170.25" y="-485.94" font-family="Helvetica,sans-Serif" font-size="12.00">added&#45;to&#45;existing&#45;cluster</text>
<path fill="none" stroke="black" stroke-width="2" d="M1171.67,-473.09C1171.67,-473.09 1318.08,-473.09 1318.08,-473.09 1323.79,-473.09 1329.5,-478.8 1329.5,-484.51 1329.5,-484.51 1329.5,-495.92 1329.5,-495.92 1329.5,-501.63 1323.79,-507.34 1318.08,-507.34 1318.08,-507.34 1171.67,-507.34 1171.67,-507.34 1165.96,-507.34 1160.25,-501.63 1160.25,-495.92 1160.25,-495.92 1160.25,-484.51 1160.25,-484.51 1160.25,-478.8 1165.96,-473.09 1171.67,-473.09"/>
</g>
<!-- cancelled -->
<g id="node2" class="node state regular">
<title>cancelled</title>
<polygon fill="#ffffff" fill-opacity="0.003922" stroke="none" stroke-width="2" points="1284.38,-454.34 1205.38,-454.34 1205.38,-418.09 1284.38,-418.09 1284.38,-454.34"/>
<text text-anchor="start" x="1216.38" y="-431.94" font-family="Helvetica,sans-Serif" font-size="12.00">cancelled</text>
<path fill="none" stroke="black" stroke-width="2" d="M1217.79,-419.09C1217.79,-419.09 1271.96,-419.09 1271.96,-419.09 1277.67,-419.09 1283.38,-424.8 1283.38,-430.51 1283.38,-430.51 1283.38,-441.92 1283.38,-441.92 1283.38,-447.63 1277.67,-453.34 1271.96,-453.34 1271.96,-453.34 1217.79,-453.34 1217.79,-453.34 1212.08,-453.34 1206.38,-447.63 1206.38,-441.92 1206.38,-441.92 1206.38,-430.51 1206.38,-430.51 1206.38,-424.8 1212.08,-419.09 1217.79,-419.09"/>
</g>
<!-- error -->
<g id="node3" class="node state regular">
<title>error</title>
<polygon fill="#ffffff" fill-opacity="0.003922" stroke="none" stroke-width="2" points="1272.88,-310.34 1216.88,-310.34 1216.88,-274.09 1272.88,-274.09 1272.88,-310.34"/>
<text text-anchor="start" x="1230.25" y="-287.94" font-family="Helvetica,sans-Serif" font-size="12.00">error</text>
<path fill="none" stroke="black" stroke-width="2" d="M1229.29,-275.09C1229.29,-275.09 1260.46,-275.09 1260.46,-275.09 1266.17,-275.09 1271.88,-280.8 1271.88,-286.51 1271.88,-286.51 1271.88,-297.92 1271.88,-297.92 1271.88,-303.63 1266.17,-309.34 1260.46,-309.34 1260.46,-309.34 1229.29,-309.34 1229.29,-309.34 1223.58,-309.34 1217.88,-303.63 1217.88,-297.92 1217.88,-297.92 1217.88,-286.51 1217.88,-286.51 1217.88,-280.8 1223.58,-275.09 1229.29,-275.09"/>
</g>
<!-- installed -->
<g id="node4" class="node state regular">
<title>installed</title>
<polygon fill="#ffffff" fill-opacity="0.003922" stroke="none" stroke-width="2" points="1280.62,-166.34 1209.12,-166.34 1209.12,-130.09 1280.62,-130.09 1280.62,-166.34"/>
<text text-anchor="start" x="1220.12" y="-143.94" font-family="Helvetica,sans-Serif" font-size="12.00">installed</text>
<path fill="none" stroke="black" stroke-width="2" d="M1221.54,-131.09C1221.54,-131.09 1268.21,-131.09 1268.21,-131.09 1273.92,-131.09 1279.62,-136.8 1279.62,-142.51 1279.62,-142.51 1279.62,-153.92 1279.62,-153.92 1279.62,-159.63 1273.92,-165.34 1268.21,-165.34 1268.21,-165.34 1221.54,-165.34 1221.54,-165.34 1215.83,-165.34 1210.12,-159.63 1210.12,-153.92 1210.12,-153.92 1210.12,-142.51 1210.12,-142.51 1210.12,-136.8 1215.83,-131.09 1221.54,-131.09"/>
</g>
<!-- installing&#45;in&#45;progress -->
<g id="node5" class="node state regular">
<title>installing&#45;in&#45;progress</title>
<polygon fill="#ffffff" fill-opacity="0.003922" stroke="none" stroke-width="2" points="453.12,-274.34 308.12,-274.34 308.12,-238.09 453.12,-238.09 453.12,-274.34"/>
<text text-anchor="start" x="319.12" y="-251.94" font-family="Helvetica,sans-Serif" font-size="12.00">installing&#45;in&#45;progress</text>
<path fill="none" stroke="black" stroke-width="2" d="M320.54,-239.09C320.54,-239.09 440.71,-239.09 440.71,-239.09 446.42,-239.09 452.12,-244.8 452.12,-250.51 452.12,-250.51 452.12,-261.92 452.12,-261.92 452.12,-267.63 446.42,-273.34 440.71,-273.34 440.71,-273.34 320.54,-273.34 320.54,-273.34 314.83,-273.34 309.12,-267.63 309.12,-261.92 309.12,-261.92 309.12,-250.51 309.12,-250.51 309.12,-244.8 314.83,-239.09 320.54,-239.09"/>
</g>
<!-- installing&#45;in&#45;progress&#45;&gt;added&#45;to&#45;existing&#45;cluster -->
<g id="edge4" class="edge transition">
<title>installing&#45;in&#45;progress&#45;&gt;added&#45;to&#45;existing&#45;cluster</title>
<path fill="none" stroke="black" d="M383.42,-274.17C388.56,-315.05 407.39,-414.84 471.12,-458.22 687.04,-605.16 1020.95,-547.28 1168.91,-511"/>
<polygon fill="black" stroke="black" points="1169.34,-514.5 1178.19,-508.69 1167.64,-507.71 1169.34,-514.5"/>
<text text-anchor="start" x="623" y="-556.57" font-family="Helvetica,sans-Serif" font-size="10.00">null &#45; host progress changed to added&#45;to&#45;existing&#45;cluster for day2 host &#160;&#160;</text>
</g>
<!-- installing&#45;in&#45;progress&#45;&gt;cancelled -->
<g id="edge1" class="edge transition">
<title>installing&#45;in&#45;progress&#45;&gt;cancelled</title>
<path fill="none" stroke="black" d="M385.68,-274.24C394.47,-308.58 418.86,-382.75 471.12,-414.22 532.75,-451.32 1033.1,-441.71 1194.14,-437.6"/>
<polygon fill="black" stroke="black" points="1194.16,-441.1 1204.07,-437.34 1193.98,-434.11 1194.16,-441.1"/>
<text text-anchor="start" x="638" y="-445.08" font-family="Helvetica,sans-Serif" font-size="10.00">Cancel Installation &#45; Installation canceled while host is installing &#160;&#160;</text>
</g>
<!-- installing&#45;in&#45;progress&#45;&gt;error -->
<g id="edge2" class="edge transition">
<title>installing&#45;in&#45;progress&#45;&gt;error</title>
<path fill="none" stroke="black" d="M388.46,-274.1C400.34,-302.32 427.77,-356.25 471.12,-378.22 536.24,-411.21 1058.82,-401.14 1128.12,-378.22 1163.8,-366.42 1197.42,-338.89 1219.15,-318.14"/>
<polygon fill="black" stroke="black" points="1221.38,-320.85 1226.06,-311.35 1216.48,-315.86 1221.38,-320.85"/>
<text text-anchor="start" x="647.75" y="-402.6" font-family="Helvetica,sans-Serif" font-size="10.00">Installation Failed &#45; Installation failed while host is installing &#160;&#160;</text>
</g>
<!-- installing&#45;in&#45;progress&#45;&gt;error -->
<g id="edge7" class="edge transition">
<title>installing&#45;in&#45;progress&#45;&gt;error</title>
<path fill="none" stroke="black" d="M393.63,-274.18C408.83,-295.1 437.14,-328.54 471.12,-342.22 538.84,-369.48 1056.64,-357 1128.12,-342.22 1155.88,-336.48 1185.18,-323.75 1207.35,-312.57"/>
<polygon fill="black" stroke="black" points="1208.7,-315.82 1215.97,-308.11 1205.48,-309.6 1208.7,-315.82"/>
<text text-anchor="start" x="593.38" y="-361.56" font-family="Helvetica,sans-Serif" font-size="10.00">Media Disconnect &#45; Move to error when virtual media disconnects post&#45;installation &#160;&#160;</text>
</g>
<!-- installing&#45;in&#45;progress&#45;&gt;error -->
<g id="edge8" class="edge transition">
<title>installing&#45;in&#45;progress&#45;&gt;error</title>
<path fill="none" stroke="black" d="M405.62,-274.09C422.85,-285.78 447.18,-299.98 471.12,-306.22 612.41,-343.01 982.39,-315 1128.12,-306.22 1154.28,-304.64 1183.58,-301.08 1206.15,-297.94"/>
<polygon fill="black" stroke="black" points="1206.39,-301.44 1215.79,-296.57 1205.4,-294.51 1206.39,-301.44"/>
<text text-anchor="start" x="669.12" y="-327.95" font-family="Helvetica,sans-Serif" font-size="10.00">Refresh &#45; Move host to error when cluster is in error &#160;&#160;</text>
</g>
<!-- installing&#45;in&#45;progress&#45;&gt;error -->
<g id="edge9" class="edge transition">
<title>installing&#45;in&#45;progress&#45;&gt;error</title>
<path fill="none" stroke="black" d="M452.85,-268.19C459.02,-268.97 465.17,-269.67 471.12,-270.22 507.97,-273.61 1054.77,-287.48 1205.6,-291.26"/>
<polygon fill="black" stroke="black" points="1205.37,-294.76 1215.45,-291.51 1205.54,-287.76 1205.37,-294.76"/>
<text text-anchor="start" x="635" y="-292.37" font-family="Helvetica,sans-Serif" font-size="10.00">Refresh &#45; Move installing host to error when connection times out &#160;&#160;</text>
</g>
<!-- installing&#45;in&#45;progress&#45;&gt;error -->
<g id="edge13" class="edge transition">
<title>installing&#45;in&#45;progress&#45;&gt;error</title>
<path fill="none" stroke="black" d="M452.99,-252.96C613.65,-246.13 999.73,-232.55 1128.12,-253.47 1154.96,-257.84 1183.98,-267.56 1206.25,-276.18"/>
<polygon fill="black" stroke="black" points="1204.92,-279.42 1215.5,-279.86 1207.5,-272.91 1204.92,-279.42"/>
<text text-anchor="start" x="471.12" y="-256.72" font-family="Helvetica,sans-Serif" font-size="10.00">Refresh &#45; Move to error on timeout if host is in particular installation in progress stages other than [writing&#45;image&#45;to&#45;disk, rebooting] &#160;&#160;</text>
</g>
<!-- installing&#45;in&#45;progress&#45;&gt;error -->
<g id="edge14" class="edge transition">
<title>installing&#45;in&#45;progress&#45;&gt;error</title>
<path fill="none" stroke="black" d="M424.58,-238.24C439.09,-233.04 455.57,-228.06 471.12,-225.47 615.13,-201.42 987.09,-187.71 1128.12,-225.47 1158.77,-233.67 1189.71,-252.16 1211.88,-267.6"/>
<polygon fill="black" stroke="black" points="1209.72,-270.36 1219.89,-273.33 1213.79,-264.67 1209.72,-270.36"/>
<text text-anchor="start" x="530.38" y="-228.72" font-family="Helvetica,sans-Serif" font-size="10.00">Refresh &#45; Move to error on timeout if host is in particular installation in progress stage writing&#45;image&#45;to&#45;disk &#160;&#160;</text>
</g>
<!-- installing&#45;in&#45;progress&#45;&gt;error -->
<g id="edge20" class="edge transition">
<title>installing&#45;in&#45;progress&#45;&gt;error</title>
<path fill="none" stroke="black" d="M397.31,-238.22C413.71,-220.91 441.19,-195.87 471.12,-185.47 540.08,-161.5 1060.13,-158.9 1128.12,-185.47 1168.94,-201.42 1204.03,-239.25 1224.56,-265.31"/>
<polygon fill="black" stroke="black" points="1221.67,-267.29 1230.53,-273.11 1227.23,-263.04 1221.67,-267.29"/>
<text text-anchor="start" x="691.25" y="-188.72" font-family="Helvetica,sans-Serif" font-size="10.00">Register Host &#45; Register during installation &#160;&#160;</text>
</g>
<!-- installing&#45;in&#45;progress&#45;&gt;installed -->
<g id="edge5" class="edge transition">
<title>installing&#45;in&#45;progress&#45;&gt;installed</title>
<path fill="none" stroke="black" d="M390.18,-238.45C403.46,-213.19 431.69,-167.9 471.12,-149.47 536.78,-118.77 1042.2,-139.01 1198.18,-146.06"/>
<polygon fill="black" stroke="black" points="1197.56,-149.54 1207.71,-146.49 1197.88,-142.54 1197.56,-149.54"/>
<text text-anchor="start" x="697.25" y="-152.72" font-family="Helvetica,sans-Serif" font-size="10.00">null &#45; host progress changed to installed &#160;&#160;</text>
</g>
<!-- installing&#45;in&#45;progress&#45;&gt;installing&#45;in&#45;progress -->
<g id="edge3" class="edge transition">
<title>installing&#45;in&#45;progress&#45;&gt;installing&#45;in&#45;progress</title>
<path fill="none" stroke="black" d="M371.21,-274.06C369.61,-283.63 372.75,-292.34 380.62,-292.34 385.06,-292.34 387.99,-289.58 389.42,-285.47"/>
<polygon fill="black" stroke="black" points="392.91,-285.75 389.96,-275.57 385.92,-285.37 392.91,-285.75"/>
<text text-anchor="start" x="199.5" y="-295.59" font-family="Helvetica,sans-Serif" font-size="10.00">null &#45; host progress installing&#45;in&#45;progress on rebooting in kube&#45;api mode &#160;&#160;</text>
</g>
<!-- installing&#45;in&#45;progress&#45;&gt;installing&#45;in&#45;progress -->
<g id="edge6" class="edge transition">
<title>installing&#45;in&#45;progress&#45;&gt;installing&#45;in&#45;progress</title>
<path fill="none" stroke="black" d="M364.88,-274.24C356.45,-291.5 361.7,-310.34 380.62,-310.34 395.56,-310.34 401.98,-298.61 399.88,-285.18"/>
<polygon fill="black" stroke="black" points="403.22,-284.13 396.83,-275.68 396.55,-286.27 403.22,-284.13"/>
<text text-anchor="start" x="288.38" y="-313.59" font-family="Helvetica,sans-Serif" font-size="10.00">null &#45; default host progress changed &#160;&#160;</text>
</g>
<!-- installing&#45;in&#45;progress&#45;&gt;installing&#45;in&#45;progress -->
<g id="edge10" class="edge transition">
<title>installing&#45;in&#45;progress&#45;&gt;installing&#45;in&#45;progress</title>
<path fill="none" stroke="black" d="M360.75,-274.33C343.16,-298.7 349.78,-328.34 380.62,-328.34 407.37,-328.34 415.91,-306.05 406.23,-284.23"/>
<polygon fill="black" stroke="black" points="409.3,-282.54 401.26,-275.64 403.23,-286.05 409.3,-282.54"/>
<text text-anchor="start" x="237" y="-331.59" font-family="Helvetica,sans-Serif" font-size="10.00">Refresh &#45; Keep installing host when connection times out &#160;&#160;</text>
</g>
<!-- installing&#45;in&#45;progress&#45;&gt;installing&#45;in&#45;progress -->
<g id="edge11" class="edge transition">
<title>installing&#45;in&#45;progress&#45;&gt;installing&#45;in&#45;progress</title>
<path fill="none" stroke="black" d="M358.26,-273.91C329.8,-305.14 337.25,-346.34 380.62,-346.34 419.93,-346.34 429.74,-312.5 410.05,-282.91"/>
<polygon fill="black" stroke="black" points="412.85,-280.81 403.92,-275.1 407.34,-285.13 412.85,-280.81"/>
<text text-anchor="start" x="207" y="-349.59" font-family="Helvetica,sans-Serif" font-size="10.00">Refresh &#45; Keep installing host when host recovers from disconnection &#160;&#160;</text>
</g>
<!-- installing&#45;in&#45;progress&#45;&gt;installing&#45;in&#45;progress -->
<g id="edge12" class="edge transition">
<title>installing&#45;in&#45;progress&#45;&gt;installing&#45;in&#45;progress</title>
<path fill="none" stroke="black" d="M355.8,-274.29C316.6,-312.07 324.87,-364.34 380.62,-364.34 432.46,-364.34 443.25,-319.16 413.02,-282.45"/>
<polygon fill="black" stroke="black" points="415.85,-280.36 406.48,-275.4 410.71,-285.12 415.85,-280.36"/>
<text text-anchor="start" x="188.25" y="-367.59" font-family="Helvetica,sans-Serif" font-size="10.00">Refresh &#45; Ignore timeout if host is in particular installation in progress stages &#160;&#160;</text>
</g>
<!-- installing&#45;in&#45;progress&#45;&gt;installing&#45;in&#45;progress -->
<g id="edge15" class="edge transition">
<title>installing&#45;in&#45;progress&#45;&gt;installing&#45;in&#45;progress</title>
<path fill="none" stroke="black" d="M354.16,-274.3C303.37,-318.54 312.19,-382.34 380.62,-382.34 445.05,-382.34 456.64,-325.8 415.4,-282.26"/>
<polygon fill="black" stroke="black" points="417.83,-279.73 408.18,-275.35 412.99,-284.79 417.83,-279.73"/>
<text text-anchor="start" x="0" y="-385.59" font-family="Helvetica,sans-Serif" font-size="10.00">Refresh &#45; Indicate that timeout occurred and continue installation in particular installation in progress stages other than [writing&#45;image&#45;to&#45;disk, rebooting] &#160;&#160;</text>
</g>
<!-- installing&#45;in&#45;progress&#45;&gt;installing&#45;in&#45;progress -->
<g id="edge16" class="edge transition">
<title>installing&#45;in&#45;progress&#45;&gt;installing&#45;in&#45;progress</title>
<path fill="none" stroke="black" d="M353,-274.18C290.14,-324.79 299.35,-400.34 380.62,-400.34 458.09,-400.34 470.08,-331.71 416.61,-281.45"/>
<polygon fill="black" stroke="black" points="419.23,-279.09 409.39,-275.18 414.64,-284.38 419.23,-279.09"/>
<text text-anchor="start" x="59.25" y="-403.59" font-family="Helvetica,sans-Serif" font-size="10.00">Refresh &#45; Indicate that timeout occurred and continue installation in particular installation in progress stage writing&#45;image&#45;to&#45;disk &#160;&#160;</text>
</g>
<!-- installing&#45;in&#45;progress&#45;&gt;installing&#45;in&#45;progress -->
<g id="edge18" class="edge transition">
<title>installing&#45;in&#45;progress&#45;&gt;installing&#45;in&#45;progress</title>
<path fill="none" stroke="black" d="M351.95,-274.18C276.96,-331.1 286.51,-418.34 380.62,-418.34 470.88,-418.34 483.37,-338.11 418.1,-281.33"/>
<polygon fill="black" stroke="black" points="420.44,-278.73 410.47,-275.14 416.03,-284.16 420.44,-278.73"/>
<text text-anchor="start" x="96" y="-421.59" font-family="Helvetica,sans-Serif" font-size="10.00">Refresh &#45; Refresh during installing&#45;in&#45;progress state without cluster error should stay in installing&#45;in&#45;progress state &#160;&#160;</text>
</g>
<!-- installing&#45;pending&#45;user&#45;action -->
<g id="node6" class="node state regular">
<title>installing&#45;pending&#45;user&#45;action</title>
<polygon fill="#ffffff" fill-opacity="0.003922" stroke="none" stroke-width="2" points="1343.62,-112.34 1146.12,-112.34 1146.12,-76.09 1343.62,-76.09 1343.62,-112.34"/>
<text text-anchor="start" x="1157.12" y="-89.94" font-family="Helvetica,sans-Serif" font-size="12.00">installing&#45;pending&#45;user&#45;action</text>
<path fill="none" stroke="black" stroke-width="2" d="M1158.54,-77.09C1158.54,-77.09 1331.21,-77.09 1331.21,-77.09 1336.92,-77.09 1342.62,-82.8 1342.62,-88.51 1342.62,-88.51 1342.62,-99.92 1342.62,-99.92 1342.62,-105.63 1336.92,-111.34 1331.21,-111.34 1331.21,-111.34 1158.54,-111.34 1158.54,-111.34 1152.83,-111.34 1147.12,-105.63 1147.12,-99.92 1147.12,-99.92 1147.12,-88.51 1147.12,-88.51 1147.12,-82.8 1152.83,-77.09 1158.54,-77.09"/>
</g>
<!-- installing&#45;in&#45;progress&#45;&gt;installing&#45;pending&#45;user&#45;action -->
<g id="edge17" class="edge transition">
<title>installing&#45;in&#45;progress&#45;&gt;installing&#45;pending&#45;user&#45;action</title>
<path fill="none" stroke="black" d="M386.9,-238.52C397.26,-207.35 423.48,-143.43 471.12,-116.47 499.44,-100.44 928.43,-95.93 1134.7,-94.68"/>
<polygon fill="black" stroke="black" points="1134.67,-98.18 1144.65,-94.62 1134.63,-91.18 1134.67,-98.18"/>
<text text-anchor="start" x="644.38" y="-119.72" font-family="Helvetica,sans-Serif" font-size="10.00">Refresh &#45; Tell user about boot order wen reboot takes too long &#160;&#160;</text>
</g>
<!-- installing&#45;in&#45;progress&#45;&gt;installing&#45;pending&#45;user&#45;action -->
<g id="edge19" class="edge transition">
<title>installing&#45;in&#45;progress&#45;&gt;installing&#45;pending&#45;user&#45;action</title>
<path fill="none" stroke="black" d="M384.41,-238.22C391.3,-200.62 413.03,-114.26 471.12,-78.47 533.28,-40.18 1055.29,-73.53 1128.12,-78.47 1130.46,-78.62 1132.81,-78.8 1135.19,-78.99"/>
<polygon fill="black" stroke="black" points="1134.62,-82.45 1144.89,-79.86 1135.24,-75.48 1134.62,-82.45"/>
<text text-anchor="start" x="690.5" y="-81.72" font-family="Helvetica,sans-Serif" font-size="10.00">Register Host &#45; Wrong boot order detection &#160;&#160;</text>
</g>
<!-- resetting&#45;pending&#45;user&#45;action -->
<g id="node7" class="node state regular">
<title>resetting&#45;pending&#45;user&#45;action</title>
<polygon fill="#ffffff" fill-opacity="0.003922" stroke="none" stroke-width="2" points="1343.62,-58.34 1146.12,-58.34 1146.12,-22.09 1343.62,-22.09 1343.62,-58.34"/>
<text text-anchor="start" x="1157.12" y="-35.94" font-family="Helvetica,sans-Serif" font-size="12.00">resetting&#45;pending&#45;user&#45;action</text>
<path fill="none" stroke="black" stroke-width="2" d="M1158.54,-23.09C1158.54,-23.09 1331.21,-23.09 1331.21,-23.09 1336.92,-23.09 1342.62,-28.8 1342.62,-34.51 1342.62,-34.51 1342.62,-45.92 1342.62,-45.92 1342.62,-51.63 1336.92,-57.34 1331.21,-57.34 1331.21,-57.34 1158.54,-57.34 1158.54,-57.34 1152.83,-57.34 1147.12,-51.63 1147.12,-45.92 1147.12,-45.92 1147.12,-34.51 1147.12,-34.51 1147.12,-28.8 1152.83,-23.09 1158.54,-23.09"/>
</g>
<!-- installing&#45;in&#45;progress&#45;&gt;resetting&#45;pending&#45;user&#45;action -->
<g id="edge21" class="edge transition">
<title>installing&#45;in&#45;progress&#45;&gt;resetting&#45;pending&#45;user&#45;action</title>
<path fill="none" stroke="black" d="M382.87,-238.13C386.91,-195.41 403.63,-88.5 471.12,-43.47 576.73,27 948.54,-4.95 1135.23,-26.4"/>
<polygon fill="black" stroke="black" points="1134.59,-29.85 1144.93,-27.52 1135.4,-22.89 1134.59,-29.85"/>
<text text-anchor="start" x="627.5" y="-46.72" font-family="Helvetica,sans-Serif" font-size="10.00">Resetting, Pending User Action &#45; Reset pending user action all states &#160;&#160;</text>
</g>
</g>
</svg>
