<?xml version="1.0" encoding="UTF-8" standalone="no"?>
<!DOCTYPE svg PUBLIC "-//W3C//DTD SVG 1.1//EN"
 "http://www.w3.org/Graphics/SVG/1.1/DTD/svg11.dtd">
<!-- Generated by graphviz version 5.0.0 (0)
 -->
<!-- Title: state transitions Pages: 1 -->
<svg width="928pt" height="360pt"
 viewBox="0.00 0.00 928.00 359.66" xmlns="http://www.w3.org/2000/svg" xmlns:xlink="http://www.w3.org/1999/xlink">
<g id="graph0" class="graph" transform="scale(1 1) rotate(0) translate(4 355.66)">
<title>state transitions</title>
<polygon fill="white" stroke="transparent" points="-4,4 -4,-355.66 924,-355.66 924,4 -4,4"/>
<!-- cancelled -->
<g id="node1" class="node state regular">
<title>cancelled</title>
<polygon fill="#ffffff" fill-opacity="0.003922" stroke="transparent" stroke-width="2" points="866.5,-349.66 792.5,-349.66 792.5,-313.66 866.5,-313.66 866.5,-349.66"/>
<text text-anchor="start" x="803.5" y="-328.06" font-family="Helvetica,sans-Serif" font-size="12.00">cancelled</text>
<path fill="none" stroke="black" stroke-width="2" d="M804.5,-315.16C804.5,-315.16 854.5,-315.16 854.5,-315.16 860,-315.16 865.5,-320.66 865.5,-326.16 865.5,-326.16 865.5,-337.16 865.5,-337.16 865.5,-342.66 860,-348.16 854.5,-348.16 854.5,-348.16 804.5,-348.16 804.5,-348.16 799,-348.16 793.5,-342.66 793.5,-337.16 793.5,-337.16 793.5,-326.16 793.5,-326.16 793.5,-320.66 799,-315.16 804.5,-315.16"/>
</g>
<!-- error -->
<g id="node2" class="node state regular">
<title>error</title>
<polygon fill="#ffffff" fill-opacity="0.003922" stroke="transparent" stroke-width="2" points="857.5,-230.66 801.5,-230.66 801.5,-194.66 857.5,-194.66 857.5,-230.66"/>
<text text-anchor="start" x="817" y="-209.06" font-family="Helvetica,sans-Serif" font-size="12.00">error</text>
<path fill="none" stroke="black" stroke-width="2" d="M813.5,-196.16C813.5,-196.16 845.5,-196.16 845.5,-196.16 851,-196.16 856.5,-201.66 856.5,-207.16 856.5,-207.16 856.5,-218.16 856.5,-218.16 856.5,-223.66 851,-229.16 845.5,-229.16 845.5,-229.16 813.5,-229.16 813.5,-229.16 808,-229.16 802.5,-223.66 802.5,-218.16 802.5,-218.16 802.5,-207.16 802.5,-207.16 802.5,-201.66 808,-196.16 813.5,-196.16"/>
</g>
<!-- installing&#45;in&#45;progress -->
<g id="node3" class="node state regular">
<title>installing&#45;in&#45;progress</title>
<polygon fill="#ffffff" fill-opacity="0.003922" stroke="transparent" stroke-width="2" points="318,-196.66 184,-196.66 184,-160.66 318,-160.66 318,-196.66"/>
<text text-anchor="start" x="195" y="-175.06" font-family="Helvetica,sans-Serif" font-size="12.00">installing&#45;in&#45;progress</text>
<path fill="none" stroke="black" stroke-width="2" d="M196,-162.16C196,-162.16 306,-162.16 306,-162.16 311.5,-162.16 317,-167.66 317,-173.16 317,-173.16 317,-184.16 317,-184.16 317,-189.66 311.5,-195.16 306,-195.16 306,-195.16 196,-195.16 196,-195.16 190.5,-195.16 185,-189.66 185,-184.16 185,-184.16 185,-173.16 185,-173.16 185,-167.66 190.5,-162.16 196,-162.16"/>
</g>
<!-- installing&#45;in&#45;progress&#45;&gt;cancelled -->
<g id="edge1" class="edge transition">
<title>installing&#45;in&#45;progress&#45;&gt;cancelled</title>
<path fill="none" stroke="black" d="M257.64,-197.06C267.84,-226.79 292.46,-284.57 336,-309.66 410.91,-352.81 674.3,-341.56 782.04,-334.89"/>
<polygon fill="black" stroke="black" points="782.51,-338.37 792.27,-334.24 782.07,-331.38 782.51,-338.37"/>
<text text-anchor="start" x="385" y="-343.66" font-family="Helvetica,sans-Serif" font-size="10.00">Cancel Installation &#45; Installation canceled while host is installing &#160;&#160;</text>
</g>
<!-- installing&#45;in&#45;progress&#45;&gt;error -->
<g id="edge2" class="edge transition">
<title>installing&#45;in&#45;progress&#45;&gt;error</title>
<path fill="none" stroke="black" d="M261.26,-196.78C274.31,-220.08 300.54,-259.46 336,-275.66 413.82,-311.21 638.43,-298.07 721,-275.66 748.95,-268.07 777.06,-251.19 797.53,-236.81"/>
<polygon fill="black" stroke="black" points="799.75,-239.53 805.81,-230.84 795.65,-233.85 799.75,-239.53"/>
<text text-anchor="start" x="394.5" y="-300.66" font-family="Helvetica,sans-Serif" font-size="10.00">Installation Failed &#45; Installation failed while host is installing &#160;&#160;</text>
</g>
<!-- installing&#45;in&#45;progress&#45;&gt;error -->
<g id="edge3" class="edge transition">
<title>installing&#45;in&#45;progress&#45;&gt;error</title>
<path fill="none" stroke="black" d="M269,-196.76C284.7,-212.06 309.54,-232.84 336,-241.66 417.17,-268.71 636.19,-252.9 721,-241.66 744.88,-238.49 770.98,-231.54 791.49,-225.23"/>
<polygon fill="black" stroke="black" points="792.58,-228.56 801.07,-222.21 790.48,-221.88 792.58,-228.56"/>
<text text-anchor="start" x="345.5" y="-258.66" font-family="Helvetica,sans-Serif" font-size="10.00">Media Disconnect &#45; Move to error when virtual media disconnects post&#45;installation &#160;&#160;</text>
</g>
<!-- installing&#45;in&#45;progress&#45;&gt;error -->
<g id="edge4" class="edge transition">
<title>installing&#45;in&#45;progress&#45;&gt;error</title>
<path fill="none" stroke="black" d="M295.76,-196.74C308.52,-201.19 322.62,-205.34 336,-207.66 503.69,-236.67 708.32,-223.59 791.09,-216.33"/>
<polygon fill="black" stroke="black" points="791.62,-219.8 801.26,-215.42 790.99,-212.83 791.62,-219.8"/>
<text text-anchor="start" x="412" y="-227.66" font-family="Helvetica,sans-Serif" font-size="10.00">Refresh &#45; Move host to error when cluster is in error &#160;&#160;</text>
</g>
<!-- installing&#45;in&#45;progress&#45;&gt;error -->
<g id="edge5" class="edge transition">
<title>installing&#45;in&#45;progress&#45;&gt;error</title>
<path fill="none" stroke="black" d="M318.2,-178.17C409.2,-178.14 577.92,-180.3 721,-194.66 744.52,-197.02 770.67,-201.36 791.3,-205.19"/>
<polygon fill="black" stroke="black" points="790.76,-208.65 801.24,-207.07 792.07,-201.77 790.76,-208.65"/>
<text text-anchor="start" x="382.5" y="-197.66" font-family="Helvetica,sans-Serif" font-size="10.00">Refresh &#45; Move installing host to error when connection times out &#160;&#160;</text>
</g>
<!-- installing&#45;in&#45;progress&#45;&gt;error -->
<g id="edge7" class="edge transition">
<title>installing&#45;in&#45;progress&#45;&gt;error</title>
<path fill="none" stroke="black" d="M318.32,-164.83C324.28,-163.95 330.24,-163.2 336,-162.66 506.35,-146.58 553.93,-125.7 721,-162.66 746.1,-168.21 772.29,-180.24 792.53,-191.11"/>
<polygon fill="black" stroke="black" points="790.95,-194.23 801.39,-196 794.33,-188.1 790.95,-194.23"/>
<text text-anchor="start" x="336" y="-165.66" font-family="Helvetica,sans-Serif" font-size="10.00">Refresh &#45; Move to error on timeout if host is in particular installation in progress stages &#160;&#160;</text>
</g>
<!-- installing&#45;in&#45;progress&#45;&gt;error -->
<g id="edge11" class="edge transition">
<title>installing&#45;in&#45;progress&#45;&gt;error</title>
<path fill="none" stroke="black" d="M273.54,-160.61C289.62,-148.38 312.74,-133.27 336,-126.66 418.29,-103.25 640.27,-98.34 721,-126.66 755,-138.58 786.23,-166.28 806.17,-187.04"/>
<polygon fill="black" stroke="black" points="803.85,-189.7 813.24,-194.61 808.97,-184.92 803.85,-189.7"/>
<text text-anchor="start" x="432" y="-129.66" font-family="Helvetica,sans-Serif" font-size="10.00">Register Host &#45; Register during installation &#160;&#160;</text>
</g>
<!-- installing&#45;in&#45;progress&#45;&gt;installing&#45;in&#45;progress -->
<g id="edge6" class="edge transition">
<title>installing&#45;in&#45;progress&#45;&gt;installing&#45;in&#45;progress</title>
<path fill="none" stroke="black" d="M226.03,-196.81C222.19,-206.2 230.52,-214.66 251,-214.66 263.48,-214.66 271.45,-211.52 274.9,-206.94"/>
<polygon fill="black" stroke="black" points="278.4,-207.12 275.97,-196.81 271.44,-206.39 278.4,-207.12"/>
<text text-anchor="start" x="80" y="-217.66" font-family="Helvetica,sans-Serif" font-size="10.00">Refresh &#45; Ignore timeout if host is in particular installation in progress stages &#160;&#160;</text>
</g>
<!-- installing&#45;in&#45;progress&#45;&gt;installing&#45;in&#45;progress -->
<g id="edge9" class="edge transition">
<title>installing&#45;in&#45;progress&#45;&gt;installing&#45;in&#45;progress</title>
<path fill="none" stroke="black" d="M209.16,-196.91C187.46,-214.06 201.41,-232.66 251,-232.66 293.62,-232.66 309.91,-218.92 299.88,-204.18"/>
<polygon fill="black" stroke="black" points="302.32,-201.66 292.84,-196.91 297.29,-206.53 302.32,-201.66"/>
<text text-anchor="start" x="0" y="-235.66" font-family="Helvetica,sans-Serif" font-size="10.00">Refresh &#45; Refresh during installing&#45;in&#45;progress state without cluster error should stay in installing&#45;in&#45;progress state &#160;&#160;</text>
</g>
<!-- installing&#45;pending&#45;user&#45;action -->
<g id="node4" class="node state regular">
<title>installing&#45;pending&#45;user&#45;action</title>
<polygon fill="#ffffff" fill-opacity="0.003922" stroke="transparent" stroke-width="2" points="920,-104.66 739,-104.66 739,-68.66 920,-68.66 920,-104.66"/>
<text text-anchor="start" x="750.5" y="-83.06" font-family="Helvetica,sans-Serif" font-size="12.00">installing&#45;pending&#45;user&#45;action</text>
<path fill="none" stroke="black" stroke-width="2" d="M751,-70.16C751,-70.16 908,-70.16 908,-70.16 913.5,-70.16 919,-75.66 919,-81.16 919,-81.16 919,-92.16 919,-92.16 919,-97.66 913.5,-103.16 908,-103.16 908,-103.16 751,-103.16 751,-103.16 745.5,-103.16 740,-97.66 740,-92.16 740,-92.16 740,-81.16 740,-81.16 740,-75.66 745.5,-70.16 751,-70.16"/>
</g>
<!-- installing&#45;in&#45;progress&#45;&gt;installing&#45;pending&#45;user&#45;action -->
<g id="edge8" class="edge transition">
<title>installing&#45;in&#45;progress&#45;&gt;installing&#45;pending&#45;user&#45;action</title>
<path fill="none" stroke="black" d="M263.28,-160.42C277.35,-139.58 303.58,-106.54 336,-92.66 404.09,-63.49 605.59,-71.06 728.74,-78.99"/>
<polygon fill="black" stroke="black" points="728.73,-82.5 738.94,-79.66 729.19,-75.51 728.73,-82.5"/>
<text text-anchor="start" x="390" y="-95.66" font-family="Helvetica,sans-Serif" font-size="10.00">Refresh &#45; Tell user about boot order wen reboot takes too long &#160;&#160;</text>
</g>
<!-- installing&#45;in&#45;progress&#45;&gt;installing&#45;pending&#45;user&#45;action -->
<g id="edge10" class="edge transition">
<title>installing&#45;in&#45;progress&#45;&gt;installing&#45;pending&#45;user&#45;action</title>
<path fill="none" stroke="black" d="M258.35,-160.65C269.26,-132.8 294.5,-80.27 336,-58.66 411.89,-19.15 636.14,-47.79 721,-58.66 733.96,-60.32 747.58,-63.06 760.62,-66.19"/>
<polygon fill="black" stroke="black" points="759.9,-69.62 770.45,-68.66 761.6,-62.83 759.9,-69.62"/>
<text text-anchor="start" x="430.5" y="-61.66" font-family="Helvetica,sans-Serif" font-size="10.00">Register Host &#45; Wrong boot order detection &#160;&#160;</text>
</g>
<!-- resetting&#45;pending&#45;user&#45;action -->
<g id="node5" class="node state regular">
<title>resetting&#45;pending&#45;user&#45;action</title>
<polygon fill="#ffffff" fill-opacity="0.003922" stroke="transparent" stroke-width="2" points="919,-43.66 740,-43.66 740,-7.66 919,-7.66 919,-43.66"/>
<text text-anchor="start" x="751.5" y="-22.06" font-family="Helvetica,sans-Serif" font-size="12.00">resetting&#45;pending&#45;user&#45;action</text>
<path fill="none" stroke="black" stroke-width="2" d="M752,-9.16C752,-9.16 907,-9.16 907,-9.16 912.5,-9.16 918,-14.66 918,-20.16 918,-20.16 918,-31.16 918,-31.16 918,-36.66 912.5,-42.16 907,-42.16 907,-42.16 752,-42.16 752,-42.16 746.5,-42.16 741,-36.66 741,-31.16 741,-31.16 741,-20.16 741,-20.16 741,-14.66 746.5,-9.16 752,-9.16"/>
</g>
<!-- installing&#45;in&#45;progress&#45;&gt;resetting&#45;pending&#45;user&#45;action -->
<g id="edge12" class="edge transition">
<title>installing&#45;in&#45;progress&#45;&gt;resetting&#45;pending&#45;user&#45;action</title>
<path fill="none" stroke="black" d="M255.64,-160.46C263.49,-126.58 285.59,-54.58 336,-24.66 400.05,13.37 605.04,-0.83 729.46,-13.78"/>
<polygon fill="black" stroke="black" points="729.44,-17.3 739.75,-14.87 730.18,-10.33 729.44,-17.3"/>
<text text-anchor="start" x="373" y="-27.66" font-family="Helvetica,sans-Serif" font-size="10.00">Resetting, Pending User Action &#45; Reset pending user action all states &#160;&#160;</text>
</g>
</g>
</svg>
