<?xml version="1.0" encoding="UTF-8" standalone="no"?>
<!DOCTYPE svg PUBLIC "-//W3C//DTD SVG 1.1//EN"
 "http://www.w3.org/Graphics/SVG/1.1/DTD/svg11.dtd">
<!-- Generated by graphviz version 7.1.0 (0)
 -->
<!-- Title: state transitions Pages: 1 -->
<svg width="689pt" height="314pt"
 viewBox="0.00 0.00 689.00 314.44" xmlns="http://www.w3.org/2000/svg" xmlns:xlink="http://www.w3.org/1999/xlink">
<g id="graph0" class="graph" transform="scale(1 1) rotate(0) translate(4 310.44)">
<title>state transitions</title>
<polygon fill="white" stroke="none" points="-4,4 -4,-310.44 685,-310.44 685,4 -4,4"/>
<!-- disconnected -->
<g id="node1" class="node state regular">
<title>disconnected</title>
<polygon fill="#ffffff" fill-opacity="0.003922" stroke="none" stroke-width="2" points="671.5,-283.44 577.5,-283.44 577.5,-247.44 671.5,-247.44 671.5,-283.44"/>
<text text-anchor="start" x="588.5" y="-261.84" font-family="Helvetica,sans-Serif" font-size="12.00">disconnected</text>
<path fill="none" stroke="black" stroke-width="2" d="M589.5,-248.94C589.5,-248.94 659.5,-248.94 659.5,-248.94 665,-248.94 670.5,-254.44 670.5,-259.94 670.5,-259.94 670.5,-270.94 670.5,-270.94 670.5,-276.44 665,-281.94 659.5,-281.94 659.5,-281.94 589.5,-281.94 589.5,-281.94 584,-281.94 578.5,-276.44 578.5,-270.94 578.5,-270.94 578.5,-259.94 578.5,-259.94 578.5,-254.44 584,-248.94 589.5,-248.94"/>
</g>
<!-- discovering -->
<g id="node2" class="node state regular">
<title>discovering</title>
<polygon fill="#ffffff" fill-opacity="0.003922" stroke="none" stroke-width="2" points="666.5,-229.44 582.5,-229.44 582.5,-193.44 666.5,-193.44 666.5,-229.44"/>
<text text-anchor="start" x="593.5" y="-207.84" font-family="Helvetica,sans-Serif" font-size="12.00">discovering</text>
<path fill="none" stroke="black" stroke-width="2" d="M594.5,-194.94C594.5,-194.94 654.5,-194.94 654.5,-194.94 660,-194.94 665.5,-200.44 665.5,-205.94 665.5,-205.94 665.5,-216.94 665.5,-216.94 665.5,-222.44 660,-227.94 654.5,-227.94 654.5,-227.94 594.5,-227.94 594.5,-227.94 589,-227.94 583.5,-222.44 583.5,-216.94 583.5,-216.94 583.5,-205.94 583.5,-205.94 583.5,-200.44 589,-194.94 594.5,-194.94"/>
</g>
<!-- insufficient -->
<g id="node3" class="node state regular">
<title>insufficient</title>
<polygon fill="#ffffff" fill-opacity="0.003922" stroke="none" stroke-width="2" points="132,-175.44 52,-175.44 52,-139.44 132,-139.44 132,-175.44"/>
<text text-anchor="start" x="63" y="-153.84" font-family="Helvetica,sans-Serif" font-size="12.00">insufficient</text>
<path fill="none" stroke="black" stroke-width="2" d="M64,-140.94C64,-140.94 120,-140.94 120,-140.94 125.5,-140.94 131,-146.44 131,-151.94 131,-151.94 131,-162.94 131,-162.94 131,-168.44 125.5,-173.94 120,-173.94 120,-173.94 64,-173.94 64,-173.94 58.5,-173.94 53,-168.44 53,-162.94 53,-162.94 53,-151.94 53,-151.94 53,-146.44 58.5,-140.94 64,-140.94"/>
</g>
<!-- insufficient&#45;&gt;disconnected -->
<g id="edge1" class="edge transition">
<title>insufficient&#45;&gt;disconnected</title>
<path fill="none" stroke="black" d="M99.15,-175.31C107.26,-195.81 123.67,-228.51 150,-243.44 283.13,-318.96 472.75,-296.36 566.51,-278.35"/>
<polygon fill="black" stroke="black" points="567.11,-281.8 576.24,-276.42 565.75,-274.93 567.11,-281.8"/>
<text text-anchor="start" x="150" y="-298.44" font-family="Helvetica,sans-Serif" font-size="10.00">Media Disconnect &#45; Move to disconnected when virtual media disconnects pre&#45;installation &#160;&#160;</text>
</g>
<!-- insufficient&#45;&gt;disconnected -->
<g id="edge3" class="edge transition">
<title>insufficient&#45;&gt;disconnected</title>
<path fill="none" stroke="black" d="M106.85,-175.34C117.27,-187.33 132.7,-202.21 150,-209.44 232.12,-243.78 463.72,-208.56 550,-230.44 551.71,-230.88 563.25,-236.29 576.7,-242.73"/>
<polygon fill="black" stroke="black" points="574.83,-245.72 585.36,-246.9 577.86,-239.41 574.83,-245.72"/>
<text text-anchor="start" x="206.5" y="-233.44" font-family="Helvetica,sans-Serif" font-size="10.00">Refresh &#45; Move host to disconnected when connected times out &#160;&#160;</text>
</g>
<!-- insufficient&#45;&gt;discovering -->
<g id="edge8" class="edge transition">
<title>insufficient&#45;&gt;discovering</title>
<path fill="none" stroke="black" d="M131.73,-168.7C137.8,-170.15 144.04,-171.47 150,-172.44 325.85,-201.02 373.13,-177.12 550,-198.44 557.01,-199.29 564.36,-200.36 571.59,-201.53"/>
<polygon fill="black" stroke="black" points="570.86,-204.95 581.31,-203.17 572.03,-198.05 570.86,-204.95"/>
<text text-anchor="start" x="279" y="-201.44" font-family="Helvetica,sans-Serif" font-size="10.00">Register Host &#45; Re&#45;registration &#160;&#160;</text>
</g>
<!-- insufficient&#45;&gt;insufficient -->
<g id="edge4" class="edge transition">
<title>insufficient&#45;&gt;insufficient</title>
<path fill="none" stroke="black" d="M68.81,-175.22C64.87,-184.76 72.6,-193.44 92,-193.44 102.91,-193.44 110.13,-190.69 113.66,-186.59"/>
<polygon fill="black" stroke="black" points="117.12,-187.1 114.99,-176.72 110.19,-186.17 117.12,-187.1"/>
<text text-anchor="start" x="0" y="-196.44" font-family="Helvetica,sans-Serif" font-size="10.00">Refresh &#45; Host has insufficient hardware &#160;&#160;</text>
</g>
<!-- insufficient&#45;&gt;insufficient -->
<g id="edge6" class="edge transition">
<title>insufficient&#45;&gt;insufficient</title>
<path fill="none" stroke="black" d="M53.22,-175.42C32.46,-192.64 45.39,-211.44 92,-211.44 130.96,-211.44 146.39,-198.3 138.28,-183.93"/>
<polygon fill="black" stroke="black" points="141.02,-181.75 131.78,-176.56 135.76,-186.37 141.02,-181.75"/>
<text text-anchor="start" x="33.5" y="-214.44" font-family="Helvetica,sans-Serif" font-size="10.00">Refresh &#45; Host not ready &#160;&#160;</text>
</g>
<!-- known -->
<g id="node4" class="node state regular">
<title>known</title>
<polygon fill="#ffffff" fill-opacity="0.003922" stroke="none" stroke-width="2" points="653.5,-175.44 595.5,-175.44 595.5,-139.44 653.5,-139.44 653.5,-175.44"/>
<text text-anchor="start" x="606.5" y="-153.84" font-family="Helvetica,sans-Serif" font-size="12.00">known</text>
<path fill="none" stroke="black" stroke-width="2" d="M607.5,-140.94C607.5,-140.94 641.5,-140.94 641.5,-140.94 647,-140.94 652.5,-146.44 652.5,-151.94 652.5,-151.94 652.5,-162.94 652.5,-162.94 652.5,-168.44 647,-173.94 641.5,-173.94 641.5,-173.94 607.5,-173.94 607.5,-173.94 602,-173.94 596.5,-168.44 596.5,-162.94 596.5,-162.94 596.5,-151.94 596.5,-151.94 596.5,-146.44 602,-140.94 607.5,-140.94"/>
</g>
<!-- insufficient&#45;&gt;known -->
<g id="edge7" class="edge transition">
<title>insufficient&#45;&gt;known</title>
<path fill="none" stroke="black" d="M131.58,-157.44C229.31,-157.44 485.85,-157.44 584.28,-157.44"/>
<polygon fill="black" stroke="black" points="584.23,-160.94 594.23,-157.44 584.23,-153.94 584.23,-160.94"/>
<text text-anchor="start" x="300" y="-160.44" font-family="Helvetica,sans-Serif" font-size="10.00">Refresh &#45; Host ready &#160;&#160;</text>
</g>
<!-- pending&#45;for&#45;input -->
<g id="node5" class="node state regular">
<title>pending&#45;for&#45;input</title>
<polygon fill="#ffffff" fill-opacity="0.003922" stroke="none" stroke-width="2" points="681,-121.44 568,-121.44 568,-85.44 681,-85.44 681,-121.44"/>
<text text-anchor="start" x="579.5" y="-99.84" font-family="Helvetica,sans-Serif" font-size="12.00">pending&#45;for&#45;input</text>
<path fill="none" stroke="black" stroke-width="2" d="M580,-86.94C580,-86.94 669,-86.94 669,-86.94 674.5,-86.94 680,-92.44 680,-97.94 680,-97.94 680,-108.94 680,-108.94 680,-114.44 674.5,-119.94 669,-119.94 669,-119.94 580,-119.94 580,-119.94 574.5,-119.94 569,-114.44 569,-108.94 569,-108.94 569,-97.94 569,-97.94 569,-92.44 574.5,-86.94 580,-86.94"/>
</g>
<!-- insufficient&#45;&gt;pending&#45;for&#45;input -->
<g id="edge5" class="edge transition">
<title>insufficient&#45;&gt;pending&#45;for&#45;input</title>
<path fill="none" stroke="black" d="M131.74,-146.28C137.81,-144.81 144.05,-143.46 150,-142.44 293.65,-117.82 464.57,-108.61 556.69,-105.26"/>
<polygon fill="black" stroke="black" points="556.68,-108.77 566.55,-104.92 556.44,-101.77 556.68,-108.77"/>
<text text-anchor="start" x="283" y="-145.44" font-family="Helvetica,sans-Serif" font-size="10.00">Refresh &#45; Host pending input &#160;&#160;</text>
</g>
<!-- unbinding -->
<g id="node6" class="node state regular">
<title>unbinding</title>
<polygon fill="#ffffff" fill-opacity="0.003922" stroke="none" stroke-width="2" points="662.5,-67.44 586.5,-67.44 586.5,-31.44 662.5,-31.44 662.5,-67.44"/>
<text text-anchor="start" x="597.5" y="-45.84" font-family="Helvetica,sans-Serif" font-size="12.00">unbinding</text>
<path fill="none" stroke="black" stroke-width="2" d="M598.5,-32.94C598.5,-32.94 650.5,-32.94 650.5,-32.94 656,-32.94 661.5,-38.44 661.5,-43.94 661.5,-43.94 661.5,-54.94 661.5,-54.94 661.5,-60.44 656,-65.94 650.5,-65.94 650.5,-65.94 598.5,-65.94 598.5,-65.94 593,-65.94 587.5,-60.44 587.5,-54.94 587.5,-54.94 587.5,-43.94 587.5,-43.94 587.5,-38.44 593,-32.94 598.5,-32.94"/>
</g>
<!-- insufficient&#45;&gt;unbinding -->
<g id="edge2" class="edge transition">
<title>insufficient&#45;&gt;unbinding</title>
<path fill="none" stroke="black" d="M102.57,-139.69C112.23,-123.74 128.75,-101.21 150,-90.44 229.49,-50.15 461.49,-71.86 550,-61.44 558.21,-60.48 566.9,-59.24 575.33,-57.94"/>
<polygon fill="black" stroke="black" points="575.76,-61.41 585.08,-56.37 574.65,-54.5 575.76,-61.41"/>
<text text-anchor="start" x="260" y="-93.44" font-family="Helvetica,sans-Serif" font-size="10.00">Reclaim Host &#45; Reclaim pre&#45;installation &#160;&#160;</text>
</g>
<!-- insufficient&#45;&gt;unbinding -->
<g id="edge9" class="edge transition">
<title>insufficient&#45;&gt;unbinding</title>
<path fill="none" stroke="black" d="M96.39,-139.59C102.3,-114.15 117.12,-68.35 150,-48.44 285.37,33.53 484.92,-8.35 575.56,-34.17"/>
<polygon fill="black" stroke="black" points="574.55,-37.52 585.13,-36.95 576.51,-30.79 574.55,-37.52"/>
<text text-anchor="start" x="264.5" y="-51.44" font-family="Helvetica,sans-Serif" font-size="10.00">Unbind Host &#45; Unbind pre&#45;installation &#160;&#160;</text>
</g>
</g>
</svg>
