<?xml version="1.0" encoding="UTF-8" standalone="no"?>
<!DOCTYPE svg PUBLIC "-//W3C//DTD SVG 1.1//EN"
 "http://www.w3.org/Graphics/SVG/1.1/DTD/svg11.dtd">
<!-- Generated by graphviz version 12.1.0 (20240811.2233)
 -->
<!-- Title: state transitions Pages: 1 -->
<svg width="824pt" height="357pt"
 viewBox="0.00 0.00 823.62 356.64" xmlns="http://www.w3.org/2000/svg" xmlns:xlink="http://www.w3.org/1999/xlink">
<g id="graph0" class="graph" transform="scale(1 1) rotate(0) translate(4 352.64)">
<title>state transitions</title>
<polygon fill="white" stroke="none" points="-4,4 -4,-352.64 819.62,-352.64 819.62,4 -4,4"/>
<!-- disconnected -->
<g id="node1" class="node state regular">
<title>disconnected</title>
<polygon fill="#ffffff" fill-opacity="0.003922" stroke="none" stroke-width="2" points="767.62,-324.18 666.12,-324.18 666.12,-287.93 767.62,-287.93 767.62,-324.18"/>
<text text-anchor="start" x="677.12" y="-301.78" font-family="Helvetica,sans-Serif" font-size="12.00">disconnected</text>
<path fill="none" stroke="black" stroke-width="2" d="M678.54,-288.93C678.54,-288.93 755.21,-288.93 755.21,-288.93 760.92,-288.93 766.62,-294.63 766.62,-300.34 766.62,-300.34 766.62,-311.76 766.62,-311.76 766.62,-317.47 760.92,-323.18 755.21,-323.18 755.21,-323.18 678.54,-323.18 678.54,-323.18 672.83,-323.18 667.12,-317.47 667.12,-311.76 667.12,-311.76 667.12,-300.34 667.12,-300.34 667.12,-294.63 672.83,-288.93 678.54,-288.93"/>
</g>
<!-- discovering -->
<g id="node2" class="node state regular">
<title>discovering</title>
<polygon fill="#ffffff" fill-opacity="0.003922" stroke="none" stroke-width="2" points="762,-270.18 671.75,-270.18 671.75,-233.93 762,-233.93 762,-270.18"/>
<text text-anchor="start" x="682.75" y="-247.78" font-family="Helvetica,sans-Serif" font-size="12.00">discovering</text>
<path fill="none" stroke="black" stroke-width="2" d="M684.17,-234.93C684.17,-234.93 749.58,-234.93 749.58,-234.93 755.29,-234.93 761,-240.63 761,-246.34 761,-246.34 761,-257.76 761,-257.76 761,-263.47 755.29,-269.18 749.58,-269.18 749.58,-269.18 684.17,-269.18 684.17,-269.18 678.46,-269.18 672.75,-263.47 672.75,-257.76 672.75,-257.76 672.75,-246.34 672.75,-246.34 672.75,-240.63 678.46,-234.93 684.17,-234.93"/>
</g>
<!-- error -->
<g id="node3" class="node state regular">
<title>error</title>
<polygon fill="#ffffff" fill-opacity="0.003922" stroke="none" stroke-width="2" points="744.88,-216.18 688.88,-216.18 688.88,-179.93 744.88,-179.93 744.88,-216.18"/>
<text text-anchor="start" x="702.25" y="-193.78" font-family="Helvetica,sans-Serif" font-size="12.00">error</text>
<path fill="none" stroke="black" stroke-width="2" d="M701.29,-180.93C701.29,-180.93 732.46,-180.93 732.46,-180.93 738.17,-180.93 743.88,-186.63 743.88,-192.34 743.88,-192.34 743.88,-203.76 743.88,-203.76 743.88,-209.47 738.17,-215.18 732.46,-215.18 732.46,-215.18 701.29,-215.18 701.29,-215.18 695.58,-215.18 689.88,-209.47 689.88,-203.76 689.88,-203.76 689.88,-192.34 689.88,-192.34 689.88,-186.63 695.58,-180.93 701.29,-180.93"/>
</g>
<!-- installing -->
<g id="node4" class="node state regular">
<title>installing</title>
<polygon fill="#ffffff" fill-opacity="0.003922" stroke="none" stroke-width="2" points="754.12,-162.18 679.62,-162.18 679.62,-125.93 754.12,-125.93 754.12,-162.18"/>
<text text-anchor="start" x="690.62" y="-139.78" font-family="Helvetica,sans-Serif" font-size="12.00">installing</text>
<path fill="none" stroke="black" stroke-width="2" d="M692.04,-126.93C692.04,-126.93 741.71,-126.93 741.71,-126.93 747.42,-126.93 753.12,-132.63 753.12,-138.34 753.12,-138.34 753.12,-149.76 753.12,-149.76 753.12,-155.47 747.42,-161.18 741.71,-161.18 741.71,-161.18 692.04,-161.18 692.04,-161.18 686.33,-161.18 680.62,-155.47 680.62,-149.76 680.62,-149.76 680.62,-138.34 680.62,-138.34 680.62,-132.63 686.33,-126.93 692.04,-126.93"/>
</g>
<!-- known -->
<g id="node5" class="node state regular">
<title>known</title>
<polygon fill="#ffffff" fill-opacity="0.003922" stroke="none" stroke-width="2" points="747.38,-108.18 686.38,-108.18 686.38,-71.93 747.38,-71.93 747.38,-108.18"/>
<text text-anchor="start" x="697.38" y="-85.78" font-family="Helvetica,sans-Serif" font-size="12.00">known</text>
<path fill="none" stroke="black" stroke-width="2" d="M698.79,-72.93C698.79,-72.93 734.96,-72.93 734.96,-72.93 740.67,-72.93 746.38,-78.63 746.38,-84.34 746.38,-84.34 746.38,-95.76 746.38,-95.76 746.38,-101.47 740.67,-107.18 734.96,-107.18 734.96,-107.18 698.79,-107.18 698.79,-107.18 693.08,-107.18 687.38,-101.47 687.38,-95.76 687.38,-95.76 687.38,-84.34 687.38,-84.34 687.38,-78.63 693.08,-72.93 698.79,-72.93"/>
</g>
<!-- preparing&#45;successful -->
<g id="node6" class="node state regular">
<title>preparing&#45;successful</title>
<polygon fill="#ffffff" fill-opacity="0.003922" stroke="none" stroke-width="2" points="169.62,-171.18 23.88,-171.18 23.88,-134.93 169.62,-134.93 169.62,-171.18"/>
<text text-anchor="start" x="34.88" y="-148.78" font-family="Helvetica,sans-Serif" font-size="12.00">preparing&#45;successful</text>
<path fill="none" stroke="black" stroke-width="2" d="M36.29,-135.93C36.29,-135.93 157.21,-135.93 157.21,-135.93 162.92,-135.93 168.62,-141.63 168.62,-147.34 168.62,-147.34 168.62,-158.76 168.62,-158.76 168.62,-164.47 162.92,-170.18 157.21,-170.18 157.21,-170.18 36.29,-170.18 36.29,-170.18 30.58,-170.18 24.88,-164.47 24.88,-158.76 24.88,-158.76 24.88,-147.34 24.88,-147.34 24.88,-141.63 30.58,-135.93 36.29,-135.93"/>
</g>
<!-- preparing&#45;successful&#45;&gt;disconnected -->
<g id="edge6" class="edge transition">
<title>preparing&#45;successful&#45;&gt;disconnected</title>
<path fill="none" stroke="black" d="M104.69,-170.94C116.74,-199.23 144.44,-253.5 187.62,-277.05 338.8,-359.49 551.85,-336.74 655.08,-318.65"/>
<polygon fill="black" stroke="black" points="655.51,-322.13 664.73,-316.91 654.27,-315.24 655.51,-322.13"/>
<text text-anchor="start" x="207.88" y="-339.14" font-family="Helvetica,sans-Serif" font-size="10.00">Refresh &#45; Move preparing host to disconnected when connection times out &#160;&#160;</text>
</g>
<!-- preparing&#45;successful&#45;&gt;discovering -->
<g id="edge7" class="edge transition">
<title>preparing&#45;successful&#45;&gt;discovering</title>
<path fill="none" stroke="black" d="M118.28,-170.94C135.52,-184.82 161.48,-203.15 187.62,-212.05 352.44,-268.18 562.36,-263.17 660.55,-256.75"/>
<polygon fill="black" stroke="black" points="660.72,-260.25 670.45,-256.07 660.24,-253.26 660.72,-260.25"/>
<text text-anchor="start" x="315.12" y="-263.78" font-family="Helvetica,sans-Serif" font-size="10.00">Register Host &#45; Re&#45;registration &#160;&#160;</text>
</g>
<!-- preparing&#45;successful&#45;&gt;error -->
<g id="edge2" class="edge transition">
<title>preparing&#45;successful&#45;&gt;error</title>
<path fill="none" stroke="black" d="M169.28,-165.71C175.47,-166.59 181.65,-167.38 187.62,-168.05 370.51,-188.44 590.64,-195.29 677.74,-197.31"/>
<polygon fill="black" stroke="black" points="677.54,-200.8 687.62,-197.52 677.7,-193.8 677.54,-200.8"/>
<text text-anchor="start" x="187.62" y="-198.25" font-family="Helvetica,sans-Serif" font-size="10.00">Media Disconnect &#45; Move to error when virtual media disconnects post&#45;installation &#160;&#160;</text>
</g>
<!-- preparing&#45;successful&#45;&gt;installing -->
<g id="edge4" class="edge transition">
<title>preparing&#45;successful&#45;&gt;installing</title>
<path fill="none" stroke="black" d="M169.56,-152.01C297.28,-150.15 560.58,-146.31 668.33,-144.74"/>
<polygon fill="black" stroke="black" points="668.31,-148.24 678.26,-144.6 668.21,-141.24 668.31,-148.24"/>
<text text-anchor="start" x="255.12" y="-154.79" font-family="Helvetica,sans-Serif" font-size="10.00">Refresh &#45; Move successfully prepared host to installing &#160;&#160;</text>
</g>
<!-- preparing&#45;successful&#45;&gt;known -->
<g id="edge1" class="edge transition">
<title>preparing&#45;successful&#45;&gt;known</title>
<path fill="none" stroke="black" d="M160.28,-134.95C169.4,-132.77 178.71,-130.8 187.62,-129.3 281.38,-113.57 568.25,-97.65 675.15,-92.1"/>
<polygon fill="black" stroke="black" points="675.08,-95.61 684.89,-91.6 674.72,-88.62 675.08,-95.61"/>
<text text-anchor="start" x="283.25" y="-132.55" font-family="Helvetica,sans-Serif" font-size="10.00">Cancel Installation &#45; Cancel while preparing &#160;&#160;</text>
</g>
<!-- preparing&#45;successful&#45;&gt;known -->
<g id="edge5" class="edge transition">
<title>preparing&#45;successful&#45;&gt;known</title>
<path fill="none" stroke="black" d="M112.8,-135.22C129.12,-117.4 156.97,-91.15 187.62,-80.3 277.11,-48.62 567.24,-74.55 675.05,-85.63"/>
<polygon fill="black" stroke="black" points="674.57,-89.1 684.88,-86.66 675.29,-82.14 674.57,-89.1"/>
<text text-anchor="start" x="203.75" y="-83.55" font-family="Helvetica,sans-Serif" font-size="10.00">Refresh &#45; Successful preparing to known when cluster is no longer preparing &#160;&#160;</text>
</g>
<!-- preparing&#45;successful&#45;&gt;preparing&#45;successful -->
<g id="edge3" class="edge transition">
<title>preparing&#45;successful&#45;&gt;preparing&#45;successful</title>
<path fill="none" stroke="black" d="M43.34,-170.89C34.26,-180.46 52.07,-189.18 96.75,-189.18 122.58,-189.18 139.43,-186.26 147.3,-181.96"/>
<polygon fill="black" stroke="black" points="150.66,-182.92 149.78,-172.36 143.89,-181.16 150.66,-182.92"/>
<text text-anchor="start" x="0" y="-192.43" font-family="Helvetica,sans-Serif" font-size="10.00">Refresh &#45; Stay in preparing successful &#160;&#160;</text>
</g>
<!-- resetting&#45;pending&#45;user&#45;action -->
<g id="node7" class="node state regular">
<title>resetting&#45;pending&#45;user&#45;action</title>
<polygon fill="#ffffff" fill-opacity="0.003922" stroke="none" stroke-width="2" points="815.62,-54.18 618.12,-54.18 618.12,-17.93 815.62,-17.93 815.62,-54.18"/>
<text text-anchor="start" x="629.12" y="-31.78" font-family="Helvetica,sans-Serif" font-size="12.00">resetting&#45;pending&#45;user&#45;action</text>
<path fill="none" stroke="black" stroke-width="2" d="M630.54,-18.93C630.54,-18.93 803.21,-18.93 803.21,-18.93 808.92,-18.93 814.62,-24.63 814.62,-30.34 814.62,-30.34 814.62,-41.76 814.62,-41.76 814.62,-47.47 808.92,-53.18 803.21,-53.18 803.21,-53.18 630.54,-53.18 630.54,-53.18 624.83,-53.18 619.12,-47.47 619.12,-41.76 619.12,-41.76 619.12,-30.34 619.12,-30.34 619.12,-24.63 624.83,-18.93 630.54,-18.93"/>
</g>
<!-- preparing&#45;successful&#45;&gt;resetting&#45;pending&#45;user&#45;action -->
<g id="edge8" class="edge transition">
<title>preparing&#45;successful&#45;&gt;resetting&#45;pending&#45;user&#45;action</title>
<path fill="none" stroke="black" d="M106.73,-135.31C120.37,-110.56 148.86,-66.66 187.62,-48.3 327.08,17.77 511.36,2.3 621.34,-16.08"/>
<polygon fill="black" stroke="black" points="620.46,-19.48 630.91,-17.73 621.65,-12.58 620.46,-19.48"/>
<text text-anchor="start" x="221.75" y="-51.55" font-family="Helvetica,sans-Serif" font-size="10.00">Resetting, Pending User Action &#45; Reset pending user action all states &#160;&#160;</text>
</g>
</g>
</svg>
