<?xml version="1.0" encoding="UTF-8" standalone="no"?>
<!DOCTYPE svg PUBLIC "-//W3C//DTD SVG 1.1//EN"
 "http://www.w3.org/Graphics/SVG/1.1/DTD/svg11.dtd">
<!-- Generated by graphviz version 12.1.0 (20240811.2233)
 -->
<!-- Title: state transitions Pages: 1 -->
<svg width="212pt" height="44pt"
 viewBox="0.00 0.00 211.50 44.25" xmlns="http://www.w3.org/2000/svg" xmlns:xlink="http://www.w3.org/1999/xlink">
<g id="graph0" class="graph" transform="scale(1 1) rotate(0) translate(4 40.25)">
<title>state transitions</title>
<polygon fill="white" stroke="none" points="-4,4 -4,-40.25 207.5,-40.25 207.5,4 -4,4"/>
<!-- unbinding&#45;pending&#45;user&#45;action -->
<g id="node1" class="node state regular">
<title>unbinding&#45;pending&#45;user&#45;action</title>
<polygon fill="#ffffff" fill-opacity="0.003922" stroke="none" stroke-width="2" points="203.5,-36.25 0,-36.25 0,0 203.5,0 203.5,-36.25"/>
<text text-anchor="start" x="11" y="-13.85" font-family="Helvetica,sans-Serif" font-size="12.00">unbinding&#45;pending&#45;user&#45;action</text>
<path fill="none" stroke="black" stroke-width="2" d="M12.42,-1C12.42,-1 191.08,-1 191.08,-1 196.79,-1 202.5,-6.71 202.5,-12.42 202.5,-12.42 202.5,-23.83 202.5,-23.83 202.5,-29.54 196.79,-35.25 191.08,-35.25 191.08,-35.25 12.42,-35.25 12.42,-35.25 6.71,-35.25 1,-29.54 1,-23.83 1,-23.83 1,-12.42 1,-12.42 1,-6.71 6.71,-1 12.42,-1"/>
</g>
</g>
</svg>
