<?xml version="1.0" encoding="UTF-8" standalone="no"?>
<!DOCTYPE svg PUBLIC "-//W3C//DTD SVG 1.1//EN"
 "http://www.w3.org/Graphics/SVG/1.1/DTD/svg11.dtd">
<!-- Generated by graphviz version 12.1.0 (20240811.2233)
 -->
<!-- Title: state transitions Pages: 1 -->
<svg width="675pt" height="316pt"
 viewBox="0.00 0.00 674.75 316.33" xmlns="http://www.w3.org/2000/svg" xmlns:xlink="http://www.w3.org/1999/xlink">
<g id="graph0" class="graph" transform="scale(1 1) rotate(0) translate(4 312.33)">
<title>state transitions</title>
<polygon fill="white" stroke="none" points="-4,4 -4,-312.33 670.75,-312.33 670.75,4 -4,4"/>
<!-- disconnected -->
<g id="node1" class="node state regular">
<title>disconnected</title>
<polygon fill="#ffffff" fill-opacity="0.003922" stroke="none" stroke-width="2" points="275,-181.73 173.5,-181.73 173.5,-145.48 275,-145.48 275,-181.73"/>
<text text-anchor="start" x="184.5" y="-159.33" font-family="Helvetica,sans-Serif" font-size="12.00">disconnected</text>
<path fill="none" stroke="black" stroke-width="2" d="M185.92,-146.48C185.92,-146.48 262.58,-146.48 262.58,-146.48 268.29,-146.48 274,-152.19 274,-157.9 274,-157.9 274,-169.31 274,-169.31 274,-175.02 268.29,-180.73 262.58,-180.73 262.58,-180.73 185.92,-180.73 185.92,-180.73 180.21,-180.73 174.5,-175.02 174.5,-169.31 174.5,-169.31 174.5,-157.9 174.5,-157.9 174.5,-152.19 180.21,-146.48 185.92,-146.48"/>
</g>
<!-- disconnected&#45;&gt;disconnected -->
<g id="edge1" class="edge transition">
<title>disconnected&#45;&gt;disconnected</title>
<path fill="none" stroke="black" d="M207.69,-181.45C204.88,-191.01 210.4,-199.73 224.25,-199.73 232.04,-199.73 237.2,-196.97 239.72,-192.86"/>
<polygon fill="black" stroke="black" points="243.2,-193.24 240.67,-182.95 236.23,-192.58 243.2,-193.24"/>
<text text-anchor="start" x="0" y="-202.98" font-family="Helvetica,sans-Serif" font-size="10.00">Media Disconnect &#45; Move to disconnected when virtual media disconnects pre&#45;installation &#160;&#160;</text>
</g>
<!-- disconnected&#45;&gt;disconnected -->
<g id="edge3" class="edge transition">
<title>disconnected&#45;&gt;disconnected</title>
<path fill="none" stroke="black" d="M196.55,-181.62C181.73,-198.89 190.96,-217.73 224.25,-217.73 251.3,-217.73 262.46,-205.29 257.75,-191.37"/>
<polygon fill="black" stroke="black" points="260.84,-189.73 252.72,-182.92 254.83,-193.31 260.84,-189.73"/>
<text text-anchor="start" x="64.5" y="-220.98" font-family="Helvetica,sans-Serif" font-size="10.00">Refresh &#45; Move host to disconnected when connected times out &#160;&#160;</text>
</g>
<!-- unbinding -->
<g id="node2" class="node state regular">
<title>unbinding</title>
<polygon fill="#ffffff" fill-opacity="0.003922" stroke="none" stroke-width="2" points="644.62,-280.73 564.12,-280.73 564.12,-244.48 644.62,-244.48 644.62,-280.73"/>
<text text-anchor="start" x="575.12" y="-258.33" font-family="Helvetica,sans-Serif" font-size="12.00">unbinding</text>
<path fill="none" stroke="black" stroke-width="2" d="M576.54,-245.48C576.54,-245.48 632.21,-245.48 632.21,-245.48 637.92,-245.48 643.62,-251.19 643.62,-256.9 643.62,-256.9 643.62,-268.31 643.62,-268.31 643.62,-274.02 637.92,-279.73 632.21,-279.73 632.21,-279.73 576.54,-279.73 576.54,-279.73 570.83,-279.73 565.12,-274.02 565.12,-268.31 565.12,-268.31 565.12,-256.9 565.12,-256.9 565.12,-251.19 570.83,-245.48 576.54,-245.48"/>
</g>
<!-- disconnected&#45;&gt;unbinding -->
<g id="edge2" class="edge transition">
<title>disconnected&#45;&gt;unbinding</title>
<path fill="none" stroke="black" d="M230.89,-181.59C239.7,-206.19 259.28,-249.33 293,-267.6 375.24,-312.18 488.65,-294.01 553.15,-277.69"/>
<polygon fill="black" stroke="black" points="553.97,-281.09 562.76,-275.17 552.19,-274.32 553.97,-281.09"/>
<text text-anchor="start" x="308" y="-298.83" font-family="Helvetica,sans-Serif" font-size="10.00">Reclaim Host &#45; Reclaim pre&#45;installation &#160;&#160;</text>
</g>
<!-- disconnected&#45;&gt;unbinding -->
<g id="edge10" class="edge transition">
<title>disconnected&#45;&gt;unbinding</title>
<path fill="none" stroke="black" d="M238.01,-181.65C250.18,-197.28 270.04,-219.02 293,-229.6 339.81,-251.19 472.82,-244.72 524,-250.85 533.44,-251.99 543.5,-253.35 553.16,-254.74"/>
<polygon fill="black" stroke="black" points="552.37,-258.16 562.77,-256.16 553.39,-251.24 552.37,-258.16"/>
<text text-anchor="start" x="313.25" y="-254.1" font-family="Helvetica,sans-Serif" font-size="10.00">Unbind Host &#45; Unbind pre&#45;installation &#160;&#160;</text>
</g>
<!-- discovering -->
<g id="node3" class="node state regular">
<title>discovering</title>
<polygon fill="#ffffff" fill-opacity="0.003922" stroke="none" stroke-width="2" points="649.5,-222.73 559.25,-222.73 559.25,-186.48 649.5,-186.48 649.5,-222.73"/>
<text text-anchor="start" x="570.25" y="-200.33" font-family="Helvetica,sans-Serif" font-size="12.00">discovering</text>
<path fill="none" stroke="black" stroke-width="2" d="M571.67,-187.48C571.67,-187.48 637.08,-187.48 637.08,-187.48 642.79,-187.48 648.5,-193.19 648.5,-198.9 648.5,-198.9 648.5,-210.31 648.5,-210.31 648.5,-216.02 642.79,-221.73 637.08,-221.73 637.08,-221.73 571.67,-221.73 571.67,-221.73 565.96,-221.73 560.25,-216.02 560.25,-210.31 560.25,-210.31 560.25,-198.9 560.25,-198.9 560.25,-193.19 565.96,-187.48 571.67,-187.48"/>
</g>
<!-- disconnected&#45;&gt;discovering -->
<g id="edge4" class="edge transition">
<title>disconnected&#45;&gt;discovering</title>
<path fill="none" stroke="black" d="M256.31,-181.56C267.51,-187.14 280.48,-192.6 293,-195.6 380.35,-216.53 485.49,-214.03 548.24,-209.73"/>
<polygon fill="black" stroke="black" points="548.23,-213.24 557.95,-209.02 547.72,-206.26 548.23,-213.24"/>
<text text-anchor="start" x="293" y="-215.91" font-family="Helvetica,sans-Serif" font-size="10.00">Refresh &#45; Host reconnected without inventory &#160;&#160;</text>
</g>
<!-- disconnected&#45;&gt;discovering -->
<g id="edge9" class="edge transition">
<title>disconnected&#45;&gt;discovering</title>
<path fill="none" stroke="black" d="M274.87,-162.18C334.53,-161.38 437.43,-162.89 524,-178.85 532.03,-180.34 540.38,-182.41 548.5,-184.75"/>
<polygon fill="black" stroke="black" points="547.37,-188.07 557.96,-187.63 549.41,-181.37 547.37,-188.07"/>
<text text-anchor="start" x="329.75" y="-182.1" font-family="Helvetica,sans-Serif" font-size="10.00">Register Host &#45; Re&#45;registration &#160;&#160;</text>
</g>
<!-- insufficient -->
<g id="node4" class="node state regular">
<title>insufficient</title>
<polygon fill="#ffffff" fill-opacity="0.003922" stroke="none" stroke-width="2" points="648,-154.73 560.75,-154.73 560.75,-118.48 648,-118.48 648,-154.73"/>
<text text-anchor="start" x="571.75" y="-132.33" font-family="Helvetica,sans-Serif" font-size="12.00">insufficient</text>
<path fill="none" stroke="black" stroke-width="2" d="M573.17,-119.48C573.17,-119.48 635.58,-119.48 635.58,-119.48 641.29,-119.48 647,-125.19 647,-130.9 647,-130.9 647,-142.31 647,-142.31 647,-148.02 641.29,-153.73 635.58,-153.73 635.58,-153.73 573.17,-153.73 573.17,-153.73 567.46,-153.73 561.75,-148.02 561.75,-142.31 561.75,-142.31 561.75,-130.9 561.75,-130.9 561.75,-125.19 567.46,-119.48 573.17,-119.48"/>
</g>
<!-- disconnected&#45;&gt;insufficient -->
<g id="edge5" class="edge transition">
<title>disconnected&#45;&gt;insufficient</title>
<path fill="none" stroke="black" d="M274.97,-150.06C281.01,-148.79 287.12,-147.67 293,-146.85 382.3,-134.48 487.37,-133.9 549.5,-134.98"/>
<polygon fill="black" stroke="black" points="549.39,-138.48 559.45,-135.18 549.53,-131.48 549.39,-138.48"/>
<text text-anchor="start" x="305.75" y="-150.1" font-family="Helvetica,sans-Serif" font-size="10.00">Refresh &#45; Host has insufficient hardware &#160;&#160;</text>
</g>
<!-- disconnected&#45;&gt;insufficient -->
<g id="edge7" class="edge transition">
<title>disconnected&#45;&gt;insufficient</title>
<path fill="none" stroke="black" d="M244.93,-145.66C257.63,-135.33 275.09,-123.34 293,-117.85 380.04,-91.22 487.08,-107.81 550.01,-122.23"/>
<polygon fill="black" stroke="black" points="548.84,-125.55 559.38,-124.45 550.45,-118.74 548.84,-125.55"/>
<text text-anchor="start" x="344.38" y="-121.1" font-family="Helvetica,sans-Serif" font-size="10.00">Refresh &#45; Host not ready &#160;&#160;</text>
</g>
<!-- pending&#45;for&#45;input -->
<g id="node5" class="node state regular">
<title>pending&#45;for&#45;input</title>
<polygon fill="#ffffff" fill-opacity="0.003922" stroke="none" stroke-width="2" points="666.75,-91.73 542,-91.73 542,-55.48 666.75,-55.48 666.75,-91.73"/>
<text text-anchor="start" x="553" y="-69.33" font-family="Helvetica,sans-Serif" font-size="12.00">pending&#45;for&#45;input</text>
<path fill="none" stroke="black" stroke-width="2" d="M554.42,-56.48C554.42,-56.48 654.33,-56.48 654.33,-56.48 660.04,-56.48 665.75,-62.19 665.75,-67.9 665.75,-67.9 665.75,-79.31 665.75,-79.31 665.75,-85.02 660.04,-90.73 654.33,-90.73 654.33,-90.73 554.42,-90.73 554.42,-90.73 548.71,-90.73 543,-85.02 543,-79.31 543,-79.31 543,-67.9 543,-67.9 543,-62.19 548.71,-56.48 554.42,-56.48"/>
</g>
<!-- disconnected&#45;&gt;pending&#45;for&#45;input -->
<g id="edge6" class="edge transition">
<title>disconnected&#45;&gt;pending&#45;for&#45;input</title>
<path fill="none" stroke="black" d="M235.22,-145.52C246.54,-127.03 266.85,-99.33 293,-86.85 368.24,-50.96 465.76,-53.58 531.23,-61.29"/>
<polygon fill="black" stroke="black" points="530.41,-64.71 540.76,-62.48 531.28,-57.77 530.41,-64.71"/>
<text text-anchor="start" x="334.25" y="-90.1" font-family="Helvetica,sans-Serif" font-size="10.00">Refresh &#45; Host pending input &#160;&#160;</text>
</g>
<!-- known -->
<g id="node6" class="node state regular">
<title>known</title>
<polygon fill="#ffffff" fill-opacity="0.003922" stroke="none" stroke-width="2" points="634.88,-37.73 573.88,-37.73 573.88,-1.48 634.88,-1.48 634.88,-37.73"/>
<text text-anchor="start" x="584.88" y="-15.33" font-family="Helvetica,sans-Serif" font-size="12.00">known</text>
<path fill="none" stroke="black" stroke-width="2" d="M586.29,-2.48C586.29,-2.48 622.46,-2.48 622.46,-2.48 628.17,-2.48 633.88,-8.19 633.88,-13.9 633.88,-13.9 633.88,-25.31 633.88,-25.31 633.88,-31.02 628.17,-36.73 622.46,-36.73 622.46,-36.73 586.29,-36.73 586.29,-36.73 580.58,-36.73 574.88,-31.02 574.88,-25.31 574.88,-25.31 574.88,-13.9 574.88,-13.9 574.88,-8.19 580.58,-2.48 586.29,-2.48"/>
</g>
<!-- disconnected&#45;&gt;known -->
<g id="edge8" class="edge transition">
<title>disconnected&#45;&gt;known</title>
<path fill="none" stroke="black" d="M229.29,-145.49C236.62,-117.41 255,-64.08 293,-39.85 376.59,13.43 499.9,0.71 562.98,-10.75"/>
<polygon fill="black" stroke="black" points="562.06,-14.14 572.54,-12.58 563.38,-7.27 562.06,-14.14"/>
<text text-anchor="start" x="353.75" y="-43.1" font-family="Helvetica,sans-Serif" font-size="10.00">Refresh &#45; Host ready &#160;&#160;</text>
</g>
</g>
</svg>
