<?xml version="1.0" encoding="UTF-8" standalone="no"?>
<!DOCTYPE svg PUBLIC "-//W3C//DTD SVG 1.1//EN"
 "http://www.w3.org/Graphics/SVG/1.1/DTD/svg11.dtd">
<!-- Generated by graphviz version 5.0.0 (0)
 -->
<!-- Title: state transitions Pages: 1 -->
<svg width="760pt" height="445pt"
 viewBox="0.00 0.00 760.00 445.46" xmlns="http://www.w3.org/2000/svg" xmlns:xlink="http://www.w3.org/1999/xlink">
<g id="graph0" class="graph" transform="scale(1 1) rotate(0) translate(4 441.46)">
<title>state transitions</title>
<polygon fill="white" stroke="transparent" points="-4,4 -4,-441.46 756,-441.46 756,4 -4,4"/>
<!-- disconnected -->
<g id="node1" class="node state regular">
<title>disconnected</title>
<polygon fill="#ffffff" fill-opacity="0.003922" stroke="transparent" stroke-width="2" points="709.5,-435.46 615.5,-435.46 615.5,-399.46 709.5,-399.46 709.5,-435.46"/>
<text text-anchor="start" x="626.5" y="-413.86" font-family="Helvetica,sans-Serif" font-size="12.00">disconnected</text>
<path fill="none" stroke="black" stroke-width="2" d="M627.5,-400.96C627.5,-400.96 697.5,-400.96 697.5,-400.96 703,-400.96 708.5,-406.46 708.5,-411.96 708.5,-411.96 708.5,-422.96 708.5,-422.96 708.5,-428.46 703,-433.96 697.5,-433.96 697.5,-433.96 627.5,-433.96 627.5,-433.96 622,-433.96 616.5,-428.46 616.5,-422.96 616.5,-422.96 616.5,-411.96 616.5,-411.96 616.5,-406.46 622,-400.96 627.5,-400.96"/>
</g>
<!-- discovering -->
<g id="node2" class="node state regular">
<title>discovering</title>
<polygon fill="#ffffff" fill-opacity="0.003922" stroke="transparent" stroke-width="2" points="704.5,-381.46 620.5,-381.46 620.5,-345.46 704.5,-345.46 704.5,-381.46"/>
<text text-anchor="start" x="631.5" y="-359.86" font-family="Helvetica,sans-Serif" font-size="12.00">discovering</text>
<path fill="none" stroke="black" stroke-width="2" d="M632.5,-346.96C632.5,-346.96 692.5,-346.96 692.5,-346.96 698,-346.96 703.5,-352.46 703.5,-357.96 703.5,-357.96 703.5,-368.96 703.5,-368.96 703.5,-374.46 698,-379.96 692.5,-379.96 692.5,-379.96 632.5,-379.96 632.5,-379.96 627,-379.96 621.5,-374.46 621.5,-368.96 621.5,-368.96 621.5,-357.96 621.5,-357.96 621.5,-352.46 627,-346.96 632.5,-346.96"/>
</g>
<!-- error -->
<g id="node3" class="node state regular">
<title>error</title>
<polygon fill="#ffffff" fill-opacity="0.003922" stroke="transparent" stroke-width="2" points="690.5,-327.46 634.5,-327.46 634.5,-291.46 690.5,-291.46 690.5,-327.46"/>
<text text-anchor="start" x="650" y="-305.86" font-family="Helvetica,sans-Serif" font-size="12.00">error</text>
<path fill="none" stroke="black" stroke-width="2" d="M646.5,-292.96C646.5,-292.96 678.5,-292.96 678.5,-292.96 684,-292.96 689.5,-298.46 689.5,-303.96 689.5,-303.96 689.5,-314.96 689.5,-314.96 689.5,-320.46 684,-325.96 678.5,-325.96 678.5,-325.96 646.5,-325.96 646.5,-325.96 641,-325.96 635.5,-320.46 635.5,-314.96 635.5,-314.96 635.5,-303.96 635.5,-303.96 635.5,-298.46 641,-292.96 646.5,-292.96"/>
</g>
<!-- insufficient -->
<g id="node4" class="node state regular">
<title>insufficient</title>
<polygon fill="#ffffff" fill-opacity="0.003922" stroke="transparent" stroke-width="2" points="702.5,-273.46 622.5,-273.46 622.5,-237.46 702.5,-237.46 702.5,-273.46"/>
<text text-anchor="start" x="633.5" y="-251.86" font-family="Helvetica,sans-Serif" font-size="12.00">insufficient</text>
<path fill="none" stroke="black" stroke-width="2" d="M634.5,-238.96C634.5,-238.96 690.5,-238.96 690.5,-238.96 696,-238.96 701.5,-244.46 701.5,-249.96 701.5,-249.96 701.5,-260.96 701.5,-260.96 701.5,-266.46 696,-271.96 690.5,-271.96 690.5,-271.96 634.5,-271.96 634.5,-271.96 629,-271.96 623.5,-266.46 623.5,-260.96 623.5,-260.96 623.5,-249.96 623.5,-249.96 623.5,-244.46 629,-238.96 634.5,-238.96"/>
</g>
<!-- known -->
<g id="node5" class="node state regular">
<title>known</title>
<polygon fill="#ffffff" fill-opacity="0.003922" stroke="transparent" stroke-width="2" points="691.5,-219.46 633.5,-219.46 633.5,-183.46 691.5,-183.46 691.5,-219.46"/>
<text text-anchor="start" x="644.5" y="-197.86" font-family="Helvetica,sans-Serif" font-size="12.00">known</text>
<path fill="none" stroke="black" stroke-width="2" d="M645.5,-184.96C645.5,-184.96 679.5,-184.96 679.5,-184.96 685,-184.96 690.5,-190.46 690.5,-195.96 690.5,-195.96 690.5,-206.96 690.5,-206.96 690.5,-212.46 685,-217.96 679.5,-217.96 679.5,-217.96 645.5,-217.96 645.5,-217.96 640,-217.96 634.5,-212.46 634.5,-206.96 634.5,-206.96 634.5,-195.96 634.5,-195.96 634.5,-190.46 640,-184.96 645.5,-184.96"/>
</g>
<!-- preparing&#45;failed -->
<g id="node6" class="node state regular">
<title>preparing&#45;failed</title>
<polygon fill="#ffffff" fill-opacity="0.003922" stroke="transparent" stroke-width="2" points="716,-165.46 609,-165.46 609,-129.46 716,-129.46 716,-165.46"/>
<text text-anchor="start" x="620.5" y="-143.86" font-family="Helvetica,sans-Serif" font-size="12.00">preparing&#45;failed</text>
<path fill="none" stroke="black" stroke-width="2" d="M621,-130.96C621,-130.96 704,-130.96 704,-130.96 709.5,-130.96 715,-136.46 715,-141.96 715,-141.96 715,-152.96 715,-152.96 715,-158.46 709.5,-163.96 704,-163.96 704,-163.96 621,-163.96 621,-163.96 615.5,-163.96 610,-158.46 610,-152.96 610,-152.96 610,-141.96 610,-141.96 610,-136.46 615.5,-130.96 621,-130.96"/>
</g>
<!-- preparing&#45;for&#45;installation -->
<g id="node7" class="node state regular">
<title>preparing&#45;for&#45;installation</title>
<polygon fill="#ffffff" fill-opacity="0.003922" stroke="transparent" stroke-width="2" points="171,-239.46 19,-239.46 19,-203.46 171,-203.46 171,-239.46"/>
<text text-anchor="start" x="30" y="-217.86" font-family="Helvetica,sans-Serif" font-size="12.00">preparing&#45;for&#45;installation</text>
<path fill="none" stroke="black" stroke-width="2" d="M31,-204.96C31,-204.96 159,-204.96 159,-204.96 164.5,-204.96 170,-210.46 170,-215.96 170,-215.96 170,-226.96 170,-226.96 170,-232.46 164.5,-237.96 159,-237.96 159,-237.96 31,-237.96 31,-237.96 25.5,-237.96 20,-232.46 20,-226.96 20,-226.96 20,-215.96 20,-215.96 20,-210.46 25.5,-204.96 31,-204.96"/>
</g>
<!-- preparing&#45;for&#45;installation&#45;&gt;disconnected -->
<g id="edge8" class="edge transition">
<title>preparing&#45;for&#45;installation&#45;&gt;disconnected</title>
<path fill="none" stroke="black" d="M99.62,-239.64C107.99,-276.33 132.48,-358.79 189,-394.46 256.7,-437.2 495.33,-428.18 605.27,-421.45"/>
<polygon fill="black" stroke="black" points="605.74,-424.93 615.5,-420.81 605.3,-417.94 605.74,-424.93"/>
<text text-anchor="start" x="206" y="-429.46" font-family="Helvetica,sans-Serif" font-size="10.00">Refresh &#45; Move preparing host to disconnected when connection times out &#160;&#160;</text>
</g>
<!-- preparing&#45;for&#45;installation&#45;&gt;discovering -->
<g id="edge9" class="edge transition">
<title>preparing&#45;for&#45;installation&#45;&gt;discovering</title>
<path fill="none" stroke="black" d="M106.13,-239.62C120.84,-263.98 150.6,-306.4 189,-325.46 328.48,-394.69 519.89,-382.35 610.27,-371.19"/>
<polygon fill="black" stroke="black" points="610.79,-374.65 620.27,-369.91 609.9,-367.71 610.79,-374.65"/>
<text text-anchor="start" x="301" y="-382.46" font-family="Helvetica,sans-Serif" font-size="10.00">Register Host &#45; Re&#45;registration &#160;&#160;</text>
</g>
<!-- preparing&#45;for&#45;installation&#45;&gt;error -->
<g id="edge2" class="edge transition">
<title>preparing&#45;for&#45;installation&#45;&gt;error</title>
<path fill="none" stroke="black" d="M126.32,-239.59C143.99,-249.25 167.05,-260.37 189,-266.46 346.24,-310.1 543.07,-311.95 624.06,-310.56"/>
<polygon fill="black" stroke="black" points="624.32,-314.05 634.25,-310.35 624.18,-307.05 624.32,-314.05"/>
<text text-anchor="start" x="189" y="-313.46" font-family="Helvetica,sans-Serif" font-size="10.00">Media Disconnect &#45; Move to error when virtual media disconnects post&#45;installation &#160;&#160;</text>
</g>
<!-- preparing&#45;for&#45;installation&#45;&gt;insufficient -->
<g id="edge5" class="edge transition">
<title>preparing&#45;for&#45;installation&#45;&gt;insufficient</title>
<path fill="none" stroke="black" d="M171.08,-230.79C177.14,-231.41 183.17,-231.98 189,-232.46 343.15,-245.32 526.23,-251.71 612.24,-254.19"/>
<polygon fill="black" stroke="black" points="612.14,-257.69 622.24,-254.47 612.34,-250.69 612.14,-257.69"/>
<text text-anchor="start" x="232.5" y="-254.46" font-family="Helvetica,sans-Serif" font-size="10.00">Refresh &#45; Preparing failed disk speed host move to insufficient &#160;&#160;</text>
</g>
<!-- preparing&#45;for&#45;installation&#45;&gt;known -->
<g id="edge1" class="edge transition">
<title>preparing&#45;for&#45;installation&#45;&gt;known</title>
<path fill="none" stroke="black" d="M171.09,-218.81C293.32,-214.49 530.93,-206.08 623.39,-202.81"/>
<polygon fill="black" stroke="black" points="623.55,-206.31 633.42,-202.46 623.3,-199.31 623.55,-206.31"/>
<text text-anchor="start" x="273.5" y="-220.46" font-family="Helvetica,sans-Serif" font-size="10.00">Cancel Installation &#45; Cancel while preparing &#160;&#160;</text>
</g>
<!-- preparing&#45;for&#45;installation&#45;&gt;known -->
<g id="edge4" class="edge transition">
<title>preparing&#45;for&#45;installation&#45;&gt;known</title>
<path fill="none" stroke="black" d="M138.75,-203.44C154.28,-197.78 172.16,-192.28 189,-189.46 348.37,-162.81 542.12,-184.26 623.07,-195.58"/>
<polygon fill="black" stroke="black" points="622.88,-199.09 633.28,-197.04 623.87,-192.16 622.88,-199.09"/>
<text text-anchor="start" x="216.5" y="-192.46" font-family="Helvetica,sans-Serif" font-size="10.00">Refresh &#45; Move preparing host to known when cluster stops preparing &#160;&#160;</text>
</g>
<!-- preparing&#45;for&#45;installation&#45;&gt;preparing&#45;failed -->
<g id="edge6" class="edge transition">
<title>preparing&#45;for&#45;installation&#45;&gt;preparing&#45;failed</title>
<path fill="none" stroke="black" d="M116.83,-203.23C134.64,-188.89 161.66,-169.96 189,-161.46 330.26,-117.57 506.83,-128.54 598.97,-138.88"/>
<polygon fill="black" stroke="black" points="598.63,-142.37 608.97,-140.04 599.44,-135.41 598.63,-142.37"/>
<text text-anchor="start" x="224.5" y="-164.46" font-family="Helvetica,sans-Serif" font-size="10.00">Refresh &#45; Preparing failed image pull host move to preparing failed &#160;&#160;</text>
</g>
<!-- preparing&#45;for&#45;installation&#45;&gt;preparing&#45;for&#45;installation -->
<g id="edge7" class="edge transition">
<title>preparing&#45;for&#45;installation&#45;&gt;preparing&#45;for&#45;installation</title>
<path fill="none" stroke="black" d="M45.07,-239.62C37.39,-249 54.03,-257.46 95,-257.46 120.29,-257.46 136.3,-254.24 143.06,-249.57"/>
<polygon fill="black" stroke="black" points="146.52,-250.09 144.93,-239.62 139.64,-248.8 146.52,-250.09"/>
<text text-anchor="start" x="0" y="-260.46" font-family="Helvetica,sans-Serif" font-size="10.00">Refresh &#45; Stay in preparing for installation &#160;&#160;</text>
</g>
<!-- preparing&#45;successful -->
<g id="node8" class="node state regular">
<title>preparing&#45;successful</title>
<polygon fill="#ffffff" fill-opacity="0.003922" stroke="transparent" stroke-width="2" points="729.5,-111.46 595.5,-111.46 595.5,-75.46 729.5,-75.46 729.5,-111.46"/>
<text text-anchor="start" x="606.5" y="-89.86" font-family="Helvetica,sans-Serif" font-size="12.00">preparing&#45;successful</text>
<path fill="none" stroke="black" stroke-width="2" d="M607.5,-76.96C607.5,-76.96 717.5,-76.96 717.5,-76.96 723,-76.96 728.5,-82.46 728.5,-87.96 728.5,-87.96 728.5,-98.96 728.5,-98.96 728.5,-104.46 723,-109.96 717.5,-109.96 717.5,-109.96 607.5,-109.96 607.5,-109.96 602,-109.96 596.5,-104.46 596.5,-98.96 596.5,-98.96 596.5,-87.96 596.5,-87.96 596.5,-82.46 602,-76.96 607.5,-76.96"/>
</g>
<!-- preparing&#45;for&#45;installation&#45;&gt;preparing&#45;successful -->
<g id="edge3" class="edge transition">
<title>preparing&#45;for&#45;installation&#45;&gt;preparing&#45;successful</title>
<path fill="none" stroke="black" d="M105.41,-203.45C119.67,-178.3 149.33,-133.62 189,-114.46 317.01,-52.65 487.97,-64.84 585.25,-79.21"/>
<polygon fill="black" stroke="black" points="584.88,-82.69 595.3,-80.74 585.94,-75.77 584.88,-82.69"/>
<text text-anchor="start" x="268" y="-117.46" font-family="Helvetica,sans-Serif" font-size="10.00">Refresh &#45; Refresh successfully preparing host &#160;&#160;</text>
</g>
<!-- resetting&#45;pending&#45;user&#45;action -->
<g id="node9" class="node state regular">
<title>resetting&#45;pending&#45;user&#45;action</title>
<polygon fill="#ffffff" fill-opacity="0.003922" stroke="transparent" stroke-width="2" points="752,-57.46 573,-57.46 573,-21.46 752,-21.46 752,-57.46"/>
<text text-anchor="start" x="584.5" y="-35.86" font-family="Helvetica,sans-Serif" font-size="12.00">resetting&#45;pending&#45;user&#45;action</text>
<path fill="none" stroke="black" stroke-width="2" d="M585,-22.96C585,-22.96 740,-22.96 740,-22.96 745.5,-22.96 751,-28.46 751,-33.96 751,-33.96 751,-44.96 751,-44.96 751,-50.46 745.5,-55.96 740,-55.96 740,-55.96 585,-55.96 585,-55.96 579.5,-55.96 574,-50.46 574,-44.96 574,-44.96 574,-33.96 574,-33.96 574,-28.46 579.5,-22.96 585,-22.96"/>
</g>
<!-- preparing&#45;for&#45;installation&#45;&gt;resetting&#45;pending&#45;user&#45;action -->
<g id="edge10" class="edge transition">
<title>preparing&#45;for&#45;installation&#45;&gt;resetting&#45;pending&#45;user&#45;action</title>
<path fill="none" stroke="black" d="M99.76,-203.32C108.34,-167.14 133.1,-86.55 189,-52.46 310.08,21.37 483.01,1.45 582.61,-19.3"/>
<polygon fill="black" stroke="black" points="582.09,-22.77 592.6,-21.44 583.56,-15.92 582.09,-22.77"/>
<text text-anchor="start" x="216.5" y="-55.46" font-family="Helvetica,sans-Serif" font-size="10.00">Resetting, Pending User Action &#45; Reset pending user action all states &#160;&#160;</text>
</g>
</g>
</svg>
