<?xml version="1.0" encoding="UTF-8" standalone="no"?>
<!DOCTYPE svg PUBLIC "-//W3C//DTD SVG 1.1//EN"
 "http://www.w3.org/Graphics/SVG/1.1/DTD/svg11.dtd">
<!-- Generated by graphviz version 12.1.0 (20240811.2233)
 -->
<!-- Title: state transitions Pages: 1 -->
<svg width="764pt" height="331pt"
 viewBox="0.00 0.00 763.62 331.20" xmlns="http://www.w3.org/2000/svg" xmlns:xlink="http://www.w3.org/1999/xlink">
<g id="graph0" class="graph" transform="scale(1 1) rotate(0) translate(4 327.2)">
<title>state transitions</title>
<polygon fill="white" stroke="none" points="-4,4 -4,-327.2 759.62,-327.2 759.62,4 -4,4"/>
<!-- disconnected -->
<g id="node1" class="node state regular">
<title>disconnected</title>
<polygon fill="#ffffff" fill-opacity="0.003922" stroke="none" stroke-width="2" points="743.62,-288.65 642.12,-288.65 642.12,-252.4 743.62,-252.4 743.62,-288.65"/>
<text text-anchor="start" x="653.12" y="-266.25" font-family="Helvetica,sans-Serif" font-size="12.00">disconnected</text>
<path fill="none" stroke="black" stroke-width="2" d="M654.54,-253.4C654.54,-253.4 731.21,-253.4 731.21,-253.4 736.92,-253.4 742.62,-259.11 742.62,-264.81 742.62,-264.81 742.62,-276.23 742.62,-276.23 742.62,-281.94 736.92,-287.65 731.21,-287.65 731.21,-287.65 654.54,-287.65 654.54,-287.65 648.83,-287.65 643.12,-281.94 643.12,-276.23 643.12,-276.23 643.12,-264.81 643.12,-264.81 643.12,-259.11 648.83,-253.4 654.54,-253.4"/>
</g>
<!-- discovering -->
<g id="node2" class="node state regular">
<title>discovering</title>
<polygon fill="#ffffff" fill-opacity="0.003922" stroke="none" stroke-width="2" points="738,-225.65 647.75,-225.65 647.75,-189.4 738,-189.4 738,-225.65"/>
<text text-anchor="start" x="658.75" y="-203.25" font-family="Helvetica,sans-Serif" font-size="12.00">discovering</text>
<path fill="none" stroke="black" stroke-width="2" d="M660.17,-190.4C660.17,-190.4 725.58,-190.4 725.58,-190.4 731.29,-190.4 737,-196.11 737,-201.81 737,-201.81 737,-213.23 737,-213.23 737,-218.94 731.29,-224.65 725.58,-224.65 725.58,-224.65 660.17,-224.65 660.17,-224.65 654.46,-224.65 648.75,-218.94 648.75,-213.23 648.75,-213.23 648.75,-201.81 648.75,-201.81 648.75,-196.11 654.46,-190.4 660.17,-190.4"/>
</g>
<!-- insufficient -->
<g id="node3" class="node state regular">
<title>insufficient</title>
<polygon fill="#ffffff" fill-opacity="0.003922" stroke="none" stroke-width="2" points="145.62,-189.65 59.12,-189.65 59.12,-153.4 145.62,-153.4 145.62,-189.65"/>
<text text-anchor="start" x="70.12" y="-167.25" font-family="Helvetica,sans-Serif" font-size="12.00">insufficient</text>
<path fill="none" stroke="black" stroke-width="2" d="M71.54,-154.4C71.54,-154.4 133.21,-154.4 133.21,-154.4 138.92,-154.4 144.62,-160.11 144.62,-165.81 144.62,-165.81 144.62,-177.23 144.62,-177.23 144.62,-182.94 138.92,-188.65 133.21,-188.65 133.21,-188.65 71.54,-188.65 71.54,-188.65 65.83,-188.65 60.12,-182.94 60.12,-177.23 60.12,-177.23 60.12,-165.81 60.12,-165.81 60.12,-160.11 65.83,-154.4 71.54,-154.4"/>
</g>
<!-- insufficient&#45;&gt;disconnected -->
<g id="edge1" class="edge transition">
<title>insufficient&#45;&gt;disconnected</title>
<path fill="none" stroke="black" d="M110.11,-189.52C118.91,-210.15 136.47,-242.96 163.62,-257.52 315.2,-338.79 528.06,-308 631.17,-285.7"/>
<polygon fill="black" stroke="black" points="631.81,-289.14 640.81,-283.56 630.29,-282.3 631.81,-289.14"/>
<text text-anchor="start" x="163.62" y="-313.7" font-family="Helvetica,sans-Serif" font-size="10.00">Media Disconnect &#45; Move to disconnected when virtual media disconnects pre&#45;installation &#160;&#160;</text>
</g>
<!-- insufficient&#45;&gt;disconnected -->
<g id="edge3" class="edge transition">
<title>insufficient&#45;&gt;disconnected</title>
<path fill="none" stroke="black" d="M118.82,-189.3C129.98,-200.78 146.12,-214.78 163.62,-221.52 256.71,-257.39 514.35,-220.96 612.12,-240.77 621.49,-242.67 631.22,-245.51 640.52,-248.69"/>
<polygon fill="black" stroke="black" points="639.19,-251.93 649.78,-252.04 641.57,-245.35 639.19,-251.93"/>
<text text-anchor="start" x="228.12" y="-244.02" font-family="Helvetica,sans-Serif" font-size="10.00">Refresh &#45; Move host to disconnected when connected times out &#160;&#160;</text>
</g>
<!-- insufficient&#45;&gt;discovering -->
<g id="edge8" class="edge transition">
<title>insufficient&#45;&gt;discovering</title>
<path fill="none" stroke="black" d="M145.33,-182.32C151.43,-183.59 157.67,-184.71 163.62,-185.52 253.65,-197.75 520.3,-204.22 636.6,-206.53"/>
<polygon fill="black" stroke="black" points="636.45,-210.03 646.52,-206.72 636.59,-203.03 636.45,-210.03"/>
<text text-anchor="start" x="309.12" y="-209.24" font-family="Helvetica,sans-Serif" font-size="10.00">Register Host &#45; Re&#45;registration &#160;&#160;</text>
</g>
<!-- insufficient&#45;&gt;insufficient -->
<g id="edge4" class="edge transition">
<title>insufficient&#45;&gt;insufficient</title>
<path fill="none" stroke="black" d="M76.71,-189.37C72.35,-198.93 80.91,-207.65 102.38,-207.65 114.79,-207.65 122.88,-204.73 126.66,-200.43"/>
<polygon fill="black" stroke="black" points="130.09,-201.22 127.85,-190.87 123.14,-200.36 130.09,-201.22"/>
<text text-anchor="start" x="0" y="-210.9" font-family="Helvetica,sans-Serif" font-size="10.00">Refresh &#45; Host has insufficient hardware &#160;&#160;</text>
</g>
<!-- insufficient&#45;&gt;insufficient -->
<g id="edge6" class="edge transition">
<title>insufficient&#45;&gt;insufficient</title>
<path fill="none" stroke="black" d="M59.46,-189.54C36.49,-206.8 50.8,-225.65 102.38,-225.65 145.9,-225.65 162.88,-212.23 153.33,-197.67"/>
<polygon fill="black" stroke="black" points="155.87,-195.27 146.35,-190.62 150.9,-200.19 155.87,-195.27"/>
<text text-anchor="start" x="38.25" y="-228.9" font-family="Helvetica,sans-Serif" font-size="10.00">Refresh &#45; Host not ready &#160;&#160;</text>
</g>
<!-- unbinding -->
<g id="node4" class="node state regular">
<title>unbinding</title>
<polygon fill="#ffffff" fill-opacity="0.003922" stroke="none" stroke-width="2" points="733.12,-171.65 652.62,-171.65 652.62,-135.4 733.12,-135.4 733.12,-171.65"/>
<text text-anchor="start" x="663.62" y="-149.25" font-family="Helvetica,sans-Serif" font-size="12.00">unbinding</text>
<path fill="none" stroke="black" stroke-width="2" d="M665.04,-136.4C665.04,-136.4 720.71,-136.4 720.71,-136.4 726.42,-136.4 732.12,-142.11 732.12,-147.81 732.12,-147.81 732.12,-159.23 732.12,-159.23 732.12,-164.94 726.42,-170.65 720.71,-170.65 720.71,-170.65 665.04,-170.65 665.04,-170.65 659.33,-170.65 653.62,-164.94 653.62,-159.23 653.62,-159.23 653.62,-147.81 653.62,-147.81 653.62,-142.11 659.33,-136.4 665.04,-136.4"/>
</g>
<!-- insufficient&#45;&gt;unbinding -->
<g id="edge2" class="edge transition">
<title>insufficient&#45;&gt;unbinding</title>
<path fill="none" stroke="black" d="M145.23,-170.24C250.73,-167.02 527.28,-158.56 641.45,-155.06"/>
<polygon fill="black" stroke="black" points="641.55,-158.56 651.44,-154.76 641.33,-151.57 641.55,-158.56"/>
<text text-anchor="start" x="287.38" y="-172.9" font-family="Helvetica,sans-Serif" font-size="10.00">Reclaim Host &#45; Reclaim pre&#45;installation &#160;&#160;</text>
</g>
<!-- insufficient&#45;&gt;unbinding -->
<g id="edge9" class="edge transition">
<title>insufficient&#45;&gt;unbinding</title>
<path fill="none" stroke="black" d="M130.74,-153.52C140.68,-147.97 152.26,-142.58 163.62,-139.77 357.13,-91.91 413.52,-122.78 612.12,-139.77 621.68,-140.59 631.82,-141.95 641.54,-143.5"/>
<polygon fill="black" stroke="black" points="640.76,-146.92 651.21,-145.14 641.93,-140.02 640.76,-146.92"/>
<text text-anchor="start" x="292.62" y="-143.02" font-family="Helvetica,sans-Serif" font-size="10.00">Unbind Host &#45; Unbind pre&#45;installation &#160;&#160;</text>
</g>
<!-- pending&#45;for&#45;input -->
<g id="node5" class="node state regular">
<title>pending&#45;for&#45;input</title>
<polygon fill="#ffffff" fill-opacity="0.003922" stroke="none" stroke-width="2" points="755.62,-117.65 630.12,-117.65 630.12,-81.4 755.62,-81.4 755.62,-117.65"/>
<text text-anchor="start" x="641.12" y="-95.25" font-family="Helvetica,sans-Serif" font-size="12.00">pending&#45;for&#45;input</text>
<path fill="none" stroke="black" stroke-width="2" d="M642.54,-82.4C642.54,-82.4 743.21,-82.4 743.21,-82.4 748.92,-82.4 754.62,-88.11 754.62,-93.81 754.62,-93.81 754.62,-105.23 754.62,-105.23 754.62,-110.94 748.92,-116.65 743.21,-116.65 743.21,-116.65 642.54,-116.65 642.54,-116.65 636.83,-116.65 631.12,-110.94 631.12,-105.23 631.12,-105.23 631.12,-93.81 631.12,-93.81 631.12,-88.11 636.83,-82.4 642.54,-82.4"/>
</g>
<!-- insufficient&#45;&gt;pending&#45;for&#45;input -->
<g id="edge5" class="edge transition">
<title>insufficient&#45;&gt;pending&#45;for&#45;input</title>
<path fill="none" stroke="black" d="M111.99,-153.64C121.73,-135.74 139.43,-109.25 163.62,-97.77 242.07,-60.56 493.44,-79.35 619.03,-91.66"/>
<polygon fill="black" stroke="black" points="618.61,-95.13 628.91,-92.64 619.31,-88.17 618.61,-95.13"/>
<text text-anchor="start" x="313.62" y="-101.02" font-family="Helvetica,sans-Serif" font-size="10.00">Refresh &#45; Host pending input &#160;&#160;</text>
</g>
<!-- known -->
<g id="node6" class="node state regular">
<title>known</title>
<polygon fill="#ffffff" fill-opacity="0.003922" stroke="none" stroke-width="2" points="723.38,-63.65 662.38,-63.65 662.38,-27.4 723.38,-27.4 723.38,-63.65"/>
<text text-anchor="start" x="673.38" y="-41.25" font-family="Helvetica,sans-Serif" font-size="12.00">known</text>
<path fill="none" stroke="black" stroke-width="2" d="M674.79,-28.4C674.79,-28.4 710.96,-28.4 710.96,-28.4 716.67,-28.4 722.38,-34.11 722.38,-39.81 722.38,-39.81 722.38,-51.23 722.38,-51.23 722.38,-56.94 716.67,-62.65 710.96,-62.65 710.96,-62.65 674.79,-62.65 674.79,-62.65 669.08,-62.65 663.38,-56.94 663.38,-51.23 663.38,-51.23 663.38,-39.81 663.38,-39.81 663.38,-34.11 669.08,-28.4 674.79,-28.4"/>
</g>
<!-- insufficient&#45;&gt;known -->
<g id="edge7" class="edge transition">
<title>insufficient&#45;&gt;known</title>
<path fill="none" stroke="black" d="M107.05,-153.59C113.47,-127.49 129.43,-79.86 163.62,-58.77 320.85,38.18 557.54,-9.18 651.43,-33.82"/>
<polygon fill="black" stroke="black" points="650.39,-37.17 660.96,-36.38 652.21,-30.41 650.39,-37.17"/>
<text text-anchor="start" x="333.12" y="-62.02" font-family="Helvetica,sans-Serif" font-size="10.00">Refresh &#45; Host ready &#160;&#160;</text>
</g>
</g>
</svg>
