<?xml version="1.0" encoding="UTF-8" standalone="no"?>
<!DOCTYPE svg PUBLIC "-//W3C//DTD SVG 1.1//EN"
 "http://www.w3.org/Graphics/SVG/1.1/DTD/svg11.dtd">
<!-- Generated by graphviz version 12.1.0 (20240811.2233)
 -->
<!-- Title: state transitions Pages: 1 -->
<svg width="1352pt" height="574pt"
 viewBox="0.00 0.00 1352.38 574.13" xmlns="http://www.w3.org/2000/svg" xmlns:xlink="http://www.w3.org/1999/xlink">
<g id="graph0" class="graph" transform="scale(1 1) rotate(0) translate(4 570.13)">
<title>state transitions</title>
<polygon fill="white" stroke="none" points="-4,4 -4,-570.13 1348.38,-570.13 1348.38,4 -4,4"/>
<!-- added&#45;to&#45;existing&#45;cluster -->
<g id="node1" class="node state regular">
<title>added&#45;to&#45;existing&#45;cluster</title>
<polygon fill="#ffffff" fill-opacity="0.003922" stroke="none" stroke-width="2" points="1330.88,-508.36 1159.62,-508.36 1159.62,-472.11 1330.88,-472.11 1330.88,-508.36"/>
<text text-anchor="start" x="1170.62" y="-485.96" font-family="Helvetica,sans-Serif" font-size="12.00">added&#45;to&#45;existing&#45;cluster</text>
<path fill="none" stroke="black" stroke-width="2" d="M1172.04,-473.11C1172.04,-473.11 1318.46,-473.11 1318.46,-473.11 1324.17,-473.11 1329.88,-478.82 1329.88,-484.53 1329.88,-484.53 1329.88,-495.94 1329.88,-495.94 1329.88,-501.65 1324.17,-507.36 1318.46,-507.36 1318.46,-507.36 1172.04,-507.36 1172.04,-507.36 1166.33,-507.36 1160.62,-501.65 1160.62,-495.94 1160.62,-495.94 1160.62,-484.53 1160.62,-484.53 1160.62,-478.82 1166.33,-473.11 1172.04,-473.11"/>
</g>
<!-- cancelled -->
<g id="node2" class="node state regular">
<title>cancelled</title>
<polygon fill="#ffffff" fill-opacity="0.003922" stroke="none" stroke-width="2" points="1284.75,-454.36 1205.75,-454.36 1205.75,-418.11 1284.75,-418.11 1284.75,-454.36"/>
<text text-anchor="start" x="1216.75" y="-431.96" font-family="Helvetica,sans-Serif" font-size="12.00">cancelled</text>
<path fill="none" stroke="black" stroke-width="2" d="M1218.17,-419.11C1218.17,-419.11 1272.33,-419.11 1272.33,-419.11 1278.04,-419.11 1283.75,-424.82 1283.75,-430.53 1283.75,-430.53 1283.75,-441.94 1283.75,-441.94 1283.75,-447.65 1278.04,-453.36 1272.33,-453.36 1272.33,-453.36 1218.17,-453.36 1218.17,-453.36 1212.46,-453.36 1206.75,-447.65 1206.75,-441.94 1206.75,-441.94 1206.75,-430.53 1206.75,-430.53 1206.75,-424.82 1212.46,-419.11 1218.17,-419.11"/>
</g>
<!-- error -->
<g id="node3" class="node state regular">
<title>error</title>
<polygon fill="#ffffff" fill-opacity="0.003922" stroke="none" stroke-width="2" points="1273.25,-310.36 1217.25,-310.36 1217.25,-274.11 1273.25,-274.11 1273.25,-310.36"/>
<text text-anchor="start" x="1230.62" y="-287.96" font-family="Helvetica,sans-Serif" font-size="12.00">error</text>
<path fill="none" stroke="black" stroke-width="2" d="M1229.67,-275.11C1229.67,-275.11 1260.83,-275.11 1260.83,-275.11 1266.54,-275.11 1272.25,-280.82 1272.25,-286.53 1272.25,-286.53 1272.25,-297.94 1272.25,-297.94 1272.25,-303.65 1266.54,-309.36 1260.83,-309.36 1260.83,-309.36 1229.67,-309.36 1229.67,-309.36 1223.96,-309.36 1218.25,-303.65 1218.25,-297.94 1218.25,-297.94 1218.25,-286.53 1218.25,-286.53 1218.25,-280.82 1223.96,-275.11 1229.67,-275.11"/>
</g>
<!-- installed -->
<g id="node4" class="node state regular">
<title>installed</title>
<polygon fill="#ffffff" fill-opacity="0.003922" stroke="none" stroke-width="2" points="1281,-166.36 1209.5,-166.36 1209.5,-130.11 1281,-130.11 1281,-166.36"/>
<text text-anchor="start" x="1220.5" y="-143.96" font-family="Helvetica,sans-Serif" font-size="12.00">installed</text>
<path fill="none" stroke="black" stroke-width="2" d="M1221.92,-131.11C1221.92,-131.11 1268.58,-131.11 1268.58,-131.11 1274.29,-131.11 1280,-136.82 1280,-142.53 1280,-142.53 1280,-153.94 1280,-153.94 1280,-159.65 1274.29,-165.36 1268.58,-165.36 1268.58,-165.36 1221.92,-165.36 1221.92,-165.36 1216.21,-165.36 1210.5,-159.65 1210.5,-153.94 1210.5,-153.94 1210.5,-142.53 1210.5,-142.53 1210.5,-136.82 1216.21,-131.11 1221.92,-131.11"/>
</g>
<!-- installing&#45;in&#45;progress -->
<g id="node5" class="node state regular">
<title>installing&#45;in&#45;progress</title>
<polygon fill="#ffffff" fill-opacity="0.003922" stroke="none" stroke-width="2" points="453.12,-274.36 308.12,-274.36 308.12,-238.11 453.12,-238.11 453.12,-274.36"/>
<text text-anchor="start" x="319.12" y="-251.96" font-family="Helvetica,sans-Serif" font-size="12.00">installing&#45;in&#45;progress</text>
<path fill="none" stroke="black" stroke-width="2" d="M320.54,-239.11C320.54,-239.11 440.71,-239.11 440.71,-239.11 446.42,-239.11 452.12,-244.82 452.12,-250.53 452.12,-250.53 452.12,-261.94 452.12,-261.94 452.12,-267.65 446.42,-273.36 440.71,-273.36 440.71,-273.36 320.54,-273.36 320.54,-273.36 314.83,-273.36 309.12,-267.65 309.12,-261.94 309.12,-261.94 309.12,-250.53 309.12,-250.53 309.12,-244.82 314.83,-239.11 320.54,-239.11"/>
</g>
<!-- installing&#45;in&#45;progress&#45;&gt;added&#45;to&#45;existing&#45;cluster -->
<g id="edge4" class="edge transition">
<title>installing&#45;in&#45;progress&#45;&gt;added&#45;to&#45;existing&#45;cluster</title>
<path fill="none" stroke="black" d="M383.42,-274.2C388.56,-315.07 407.39,-414.86 471.12,-458.24 687.14,-605.25 1021.22,-547.33 1169.25,-511.03"/>
<polygon fill="black" stroke="black" points="1169.68,-514.53 1178.54,-508.72 1167.99,-507.74 1169.68,-514.53"/>
<text text-anchor="start" x="623" y="-556.63" font-family="Helvetica,sans-Serif" font-size="10.00">null &#45; host progress changed to added&#45;to&#45;existing&#45;cluster for day2 host &#160;&#160;</text>
</g>
<!-- installing&#45;in&#45;progress&#45;&gt;cancelled -->
<g id="edge1" class="edge transition">
<title>installing&#45;in&#45;progress&#45;&gt;cancelled</title>
<path fill="none" stroke="black" d="M385.68,-274.26C394.47,-308.6 418.86,-382.77 471.12,-414.24 532.78,-451.36 1033.37,-441.73 1194.49,-437.62"/>
<polygon fill="black" stroke="black" points="1194.52,-441.12 1204.42,-437.37 1194.34,-434.13 1194.52,-441.12"/>
<text text-anchor="start" x="638" y="-445.11" font-family="Helvetica,sans-Serif" font-size="10.00">Cancel Installation &#45; Installation canceled while host is installing &#160;&#160;</text>
</g>
<!-- installing&#45;in&#45;progress&#45;&gt;error -->
<g id="edge2" class="edge transition">
<title>installing&#45;in&#45;progress&#45;&gt;error</title>
<path fill="none" stroke="black" d="M388.46,-274.12C400.34,-302.34 427.77,-356.27 471.12,-378.24 536.24,-411.23 1058.8,-401.11 1128.12,-378.24 1163.88,-366.44 1197.62,-338.92 1219.42,-318.16"/>
<polygon fill="black" stroke="black" points="1221.67,-320.86 1226.37,-311.37 1216.77,-315.86 1221.67,-320.86"/>
<text text-anchor="start" x="648.12" y="-402.6" font-family="Helvetica,sans-Serif" font-size="10.00">Installation Failed &#45; Installation failed while host is installing &#160;&#160;</text>
</g>
<!-- installing&#45;in&#45;progress&#45;&gt;error -->
<g id="edge7" class="edge transition">
<title>installing&#45;in&#45;progress&#45;&gt;error</title>
<path fill="none" stroke="black" d="M393.63,-274.2C408.83,-295.12 437.14,-328.56 471.12,-342.24 538.84,-369.5 1056.63,-356.97 1128.12,-342.24 1155.96,-336.5 1185.35,-323.77 1207.6,-312.6"/>
<polygon fill="black" stroke="black" points="1208.97,-315.83 1216.25,-308.13 1205.76,-309.61 1208.97,-315.83"/>
<text text-anchor="start" x="593.38" y="-361.57" font-family="Helvetica,sans-Serif" font-size="10.00">Media Disconnect &#45; Move to error when virtual media disconnects post&#45;installation &#160;&#160;</text>
</g>
<!-- installing&#45;in&#45;progress&#45;&gt;error -->
<g id="edge8" class="edge transition">
<title>installing&#45;in&#45;progress&#45;&gt;error</title>
<path fill="none" stroke="black" d="M405.62,-274.12C422.85,-285.8 447.18,-300 471.12,-306.24 612.41,-343.03 982.39,-314.99 1128.12,-306.24 1154.36,-304.66 1183.75,-301.1 1206.4,-297.96"/>
<polygon fill="black" stroke="black" points="1206.67,-301.46 1216.08,-296.59 1205.69,-294.53 1206.67,-301.46"/>
<text text-anchor="start" x="669.12" y="-327.96" font-family="Helvetica,sans-Serif" font-size="10.00">Refresh &#45; Move host to error when cluster is in error &#160;&#160;</text>
</g>
<!-- installing&#45;in&#45;progress&#45;&gt;error -->
<g id="edge9" class="edge transition">
<title>installing&#45;in&#45;progress&#45;&gt;error</title>
<path fill="none" stroke="black" d="M452.85,-268.21C459.02,-268.99 465.17,-269.69 471.12,-270.24 507.98,-273.63 1055.06,-287.5 1205.96,-291.28"/>
<polygon fill="black" stroke="black" points="1205.73,-294.78 1215.81,-291.53 1205.9,-287.78 1205.73,-294.78"/>
<text text-anchor="start" x="635" y="-292.39" font-family="Helvetica,sans-Serif" font-size="10.00">Refresh &#45; Move installing host to error when connection times out &#160;&#160;</text>
</g>
<!-- installing&#45;in&#45;progress&#45;&gt;error -->
<g id="edge13" class="edge transition">
<title>installing&#45;in&#45;progress&#45;&gt;error</title>
<path fill="none" stroke="black" d="M452.99,-252.99C613.65,-246.17 999.72,-232.63 1128.12,-253.49 1155.35,-257.91 1184.81,-267.8 1207.25,-276.49"/>
<polygon fill="black" stroke="black" points="1205.66,-279.63 1216.25,-280.07 1208.25,-273.12 1205.66,-279.63"/>
<text text-anchor="start" x="471.12" y="-256.74" font-family="Helvetica,sans-Serif" font-size="10.00">Refresh &#45; Move to error on timeout if host is in particular installation in progress stages other than [writing&#45;image&#45;to&#45;disk, rebooting] &#160;&#160;</text>
</g>
<!-- installing&#45;in&#45;progress&#45;&gt;error -->
<g id="edge14" class="edge transition">
<title>installing&#45;in&#45;progress&#45;&gt;error</title>
<path fill="none" stroke="black" d="M424.58,-238.26C439.09,-233.06 455.57,-228.08 471.12,-225.49 615.13,-201.44 987.06,-187.83 1128.12,-225.49 1158.85,-233.69 1189.89,-252.18 1212.14,-267.62"/>
<polygon fill="black" stroke="black" points="1210,-270.4 1220.18,-273.35 1214.07,-264.7 1210,-270.4"/>
<text text-anchor="start" x="530.38" y="-228.74" font-family="Helvetica,sans-Serif" font-size="10.00">Refresh &#45; Move to error on timeout if host is in particular installation in progress stage writing&#45;image&#45;to&#45;disk &#160;&#160;</text>
</g>
<!-- installing&#45;in&#45;progress&#45;&gt;error -->
<g id="edge20" class="edge transition">
<title>installing&#45;in&#45;progress&#45;&gt;error</title>
<path fill="none" stroke="black" d="M397.31,-238.24C413.71,-220.93 441.19,-195.89 471.12,-185.49 540.08,-161.52 1060.11,-158.97 1128.12,-185.49 1169.03,-201.43 1204.24,-239.27 1224.85,-265.33"/>
<polygon fill="black" stroke="black" points="1221.98,-267.33 1230.84,-273.13 1227.53,-263.07 1221.98,-267.33"/>
<text text-anchor="start" x="691.25" y="-188.74" font-family="Helvetica,sans-Serif" font-size="10.00">Register Host &#45; Register during installation &#160;&#160;</text>
</g>
<!-- installing&#45;in&#45;progress&#45;&gt;installed -->
<g id="edge5" class="edge transition">
<title>installing&#45;in&#45;progress&#45;&gt;installed</title>
<path fill="none" stroke="black" d="M390.18,-238.47C403.46,-213.21 431.69,-167.92 471.12,-149.49 536.81,-118.78 1042.47,-139.02 1198.53,-146.08"/>
<polygon fill="black" stroke="black" points="1197.92,-149.55 1208.07,-146.51 1198.24,-142.56 1197.92,-149.55"/>
<text text-anchor="start" x="697.25" y="-152.74" font-family="Helvetica,sans-Serif" font-size="10.00">null &#45; host progress changed to installed &#160;&#160;</text>
</g>
<!-- installing&#45;in&#45;progress&#45;&gt;installing&#45;in&#45;progress -->
<g id="edge3" class="edge transition">
<title>installing&#45;in&#45;progress&#45;&gt;installing&#45;in&#45;progress</title>
<path fill="none" stroke="black" d="M371.21,-274.08C369.61,-283.65 372.75,-292.36 380.62,-292.36 385.06,-292.36 387.99,-289.6 389.42,-285.49"/>
<polygon fill="black" stroke="black" points="392.91,-285.77 389.96,-275.59 385.92,-285.39 392.91,-285.77"/>
<text text-anchor="start" x="199.88" y="-295.61" font-family="Helvetica,sans-Serif" font-size="10.00">null &#45; host progress installing&#45;in&#45;progress on rebooting in kube&#45;api mode &#160;&#160;</text>
</g>
<!-- installing&#45;in&#45;progress&#45;&gt;installing&#45;in&#45;progress -->
<g id="edge6" class="edge transition">
<title>installing&#45;in&#45;progress&#45;&gt;installing&#45;in&#45;progress</title>
<path fill="none" stroke="black" d="M364.88,-274.26C356.45,-291.52 361.7,-310.36 380.62,-310.36 395.56,-310.36 401.98,-298.63 399.88,-285.2"/>
<polygon fill="black" stroke="black" points="403.22,-284.15 396.83,-275.7 396.55,-286.29 403.22,-284.15"/>
<text text-anchor="start" x="288.38" y="-313.61" font-family="Helvetica,sans-Serif" font-size="10.00">null &#45; default host progress changed &#160;&#160;</text>
</g>
<!-- installing&#45;in&#45;progress&#45;&gt;installing&#45;in&#45;progress -->
<g id="edge10" class="edge transition">
<title>installing&#45;in&#45;progress&#45;&gt;installing&#45;in&#45;progress</title>
<path fill="none" stroke="black" d="M360.75,-274.35C343.16,-298.72 349.78,-328.36 380.62,-328.36 407.37,-328.36 415.91,-306.07 406.23,-284.25"/>
<polygon fill="black" stroke="black" points="409.3,-282.56 401.26,-275.66 403.23,-286.07 409.3,-282.56"/>
<text text-anchor="start" x="237" y="-331.61" font-family="Helvetica,sans-Serif" font-size="10.00">Refresh &#45; Keep installing host when connection times out &#160;&#160;</text>
</g>
<!-- installing&#45;in&#45;progress&#45;&gt;installing&#45;in&#45;progress -->
<g id="edge11" class="edge transition">
<title>installing&#45;in&#45;progress&#45;&gt;installing&#45;in&#45;progress</title>
<path fill="none" stroke="black" d="M358.26,-273.93C329.8,-305.16 337.25,-346.36 380.62,-346.36 419.93,-346.36 429.74,-312.52 410.05,-282.93"/>
<polygon fill="black" stroke="black" points="412.85,-280.83 403.92,-275.12 407.34,-285.15 412.85,-280.83"/>
<text text-anchor="start" x="207" y="-349.61" font-family="Helvetica,sans-Serif" font-size="10.00">Refresh &#45; Keep installing host when host recovers from disconnection &#160;&#160;</text>
</g>
<!-- installing&#45;in&#45;progress&#45;&gt;installing&#45;in&#45;progress -->
<g id="edge12" class="edge transition">
<title>installing&#45;in&#45;progress&#45;&gt;installing&#45;in&#45;progress</title>
<path fill="none" stroke="black" d="M355.8,-274.31C316.6,-312.09 324.87,-364.36 380.62,-364.36 432.46,-364.36 443.25,-319.18 413.02,-282.47"/>
<polygon fill="black" stroke="black" points="415.85,-280.38 406.48,-275.42 410.71,-285.14 415.85,-280.38"/>
<text text-anchor="start" x="188.25" y="-367.61" font-family="Helvetica,sans-Serif" font-size="10.00">Refresh &#45; Ignore timeout if host is in particular installation in progress stages &#160;&#160;</text>
</g>
<!-- installing&#45;in&#45;progress&#45;&gt;installing&#45;in&#45;progress -->
<g id="edge15" class="edge transition">
<title>installing&#45;in&#45;progress&#45;&gt;installing&#45;in&#45;progress</title>
<path fill="none" stroke="black" d="M354.16,-274.32C303.37,-318.56 312.19,-382.36 380.62,-382.36 445.05,-382.36 456.64,-325.82 415.4,-282.28"/>
<polygon fill="black" stroke="black" points="417.83,-279.76 408.18,-275.37 412.99,-284.81 417.83,-279.76"/>
<text text-anchor="start" x="0" y="-385.61" font-family="Helvetica,sans-Serif" font-size="10.00">Refresh &#45; Indicate that timeout occurred and continue installation in particular installation in progress stages other than [writing&#45;image&#45;to&#45;disk, rebooting] &#160;&#160;</text>
</g>
<!-- installing&#45;in&#45;progress&#45;&gt;installing&#45;in&#45;progress -->
<g id="edge16" class="edge transition">
<title>installing&#45;in&#45;progress&#45;&gt;installing&#45;in&#45;progress</title>
<path fill="none" stroke="black" d="M353,-274.2C290.14,-324.81 299.35,-400.36 380.62,-400.36 458.09,-400.36 470.08,-331.73 416.61,-281.47"/>
<polygon fill="black" stroke="black" points="419.23,-279.12 409.39,-275.2 414.64,-284.4 419.23,-279.12"/>
<text text-anchor="start" x="59.25" y="-403.61" font-family="Helvetica,sans-Serif" font-size="10.00">Refresh &#45; Indicate that timeout occurred and continue installation in particular installation in progress stage writing&#45;image&#45;to&#45;disk &#160;&#160;</text>
</g>
<!-- installing&#45;in&#45;progress&#45;&gt;installing&#45;in&#45;progress -->
<g id="edge18" class="edge transition">
<title>installing&#45;in&#45;progress&#45;&gt;installing&#45;in&#45;progress</title>
<path fill="none" stroke="black" d="M351.95,-274.2C276.96,-331.12 286.51,-418.36 380.62,-418.36 470.88,-418.36 483.37,-338.13 418.1,-281.35"/>
<polygon fill="black" stroke="black" points="420.44,-278.75 410.47,-275.16 416.03,-284.18 420.44,-278.75"/>
<text text-anchor="start" x="96" y="-421.61" font-family="Helvetica,sans-Serif" font-size="10.00">Refresh &#45; Refresh during installing&#45;in&#45;progress state without cluster error should stay in installing&#45;in&#45;progress state &#160;&#160;</text>
</g>
<!-- installing&#45;pending&#45;user&#45;action -->
<g id="node6" class="node state regular">
<title>installing&#45;pending&#45;user&#45;action</title>
<polygon fill="#ffffff" fill-opacity="0.003922" stroke="none" stroke-width="2" points="1344.38,-112.36 1146.12,-112.36 1146.12,-76.11 1344.38,-76.11 1344.38,-112.36"/>
<text text-anchor="start" x="1157.12" y="-89.96" font-family="Helvetica,sans-Serif" font-size="12.00">installing&#45;pending&#45;user&#45;action</text>
<path fill="none" stroke="black" stroke-width="2" d="M1158.54,-77.11C1158.54,-77.11 1331.96,-77.11 1331.96,-77.11 1337.67,-77.11 1343.38,-82.82 1343.38,-88.53 1343.38,-88.53 1343.38,-99.94 1343.38,-99.94 1343.38,-105.65 1337.67,-111.36 1331.96,-111.36 1331.96,-111.36 1158.54,-111.36 1158.54,-111.36 1152.83,-111.36 1147.12,-105.65 1147.12,-99.94 1147.12,-99.94 1147.12,-88.53 1147.12,-88.53 1147.12,-82.82 1152.83,-77.11 1158.54,-77.11"/>
</g>
<!-- installing&#45;in&#45;progress&#45;&gt;installing&#45;pending&#45;user&#45;action -->
<g id="edge17" class="edge transition">
<title>installing&#45;in&#45;progress&#45;&gt;installing&#45;pending&#45;user&#45;action</title>
<path fill="none" stroke="black" d="M386.9,-238.54C397.26,-207.37 423.48,-143.45 471.12,-116.49 499.46,-100.45 928.66,-95.94 1135.03,-94.7"/>
<polygon fill="black" stroke="black" points="1134.99,-98.2 1144.97,-94.64 1134.95,-91.2 1134.99,-98.2"/>
<text text-anchor="start" x="644.38" y="-119.74" font-family="Helvetica,sans-Serif" font-size="10.00">Refresh &#45; Tell user about boot order wen reboot takes too long &#160;&#160;</text>
</g>
<!-- installing&#45;in&#45;progress&#45;&gt;installing&#45;pending&#45;user&#45;action -->
<g id="edge19" class="edge transition">
<title>installing&#45;in&#45;progress&#45;&gt;installing&#45;pending&#45;user&#45;action</title>
<path fill="none" stroke="black" d="M384.41,-238.24C391.3,-200.64 413.03,-114.28 471.12,-78.49 533.28,-40.2 1055.29,-73.57 1128.12,-78.49 1130.33,-78.64 1132.56,-78.8 1134.81,-78.98"/>
<polygon fill="black" stroke="black" points="1134.37,-82.45 1144.64,-79.85 1134.98,-75.48 1134.37,-82.45"/>
<text text-anchor="start" x="690.5" y="-81.74" font-family="Helvetica,sans-Serif" font-size="10.00">Register Host &#45; Wrong boot order detection &#160;&#160;</text>
</g>
<!-- resetting&#45;pending&#45;user&#45;action -->
<g id="node7" class="node state regular">
<title>resetting&#45;pending&#45;user&#45;action</title>
<polygon fill="#ffffff" fill-opacity="0.003922" stroke="none" stroke-width="2" points="1344.38,-58.36 1146.12,-58.36 1146.12,-22.11 1344.38,-22.11 1344.38,-58.36"/>
<text text-anchor="start" x="1157.12" y="-35.96" font-family="Helvetica,sans-Serif" font-size="12.00">resetting&#45;pending&#45;user&#45;action</text>
<path fill="none" stroke="black" stroke-width="2" d="M1158.54,-23.11C1158.54,-23.11 1331.96,-23.11 1331.96,-23.11 1337.67,-23.11 1343.38,-28.82 1343.38,-34.53 1343.38,-34.53 1343.38,-45.94 1343.38,-45.94 1343.38,-51.65 1337.67,-57.36 1331.96,-57.36 1331.96,-57.36 1158.54,-57.36 1158.54,-57.36 1152.83,-57.36 1147.12,-51.65 1147.12,-45.94 1147.12,-45.94 1147.12,-34.53 1147.12,-34.53 1147.12,-28.82 1152.83,-23.11 1158.54,-23.11"/>
</g>
<!-- installing&#45;in&#45;progress&#45;&gt;resetting&#45;pending&#45;user&#45;action -->
<g id="edge21" class="edge transition">
<title>installing&#45;in&#45;progress&#45;&gt;resetting&#45;pending&#45;user&#45;action</title>
<path fill="none" stroke="black" d="M382.87,-238.15C386.91,-195.43 403.63,-88.52 471.12,-43.49 576.71,26.97 948.29,-4.91 1135.19,-26.37"/>
<polygon fill="black" stroke="black" points="1134.56,-29.82 1144.9,-27.49 1135.37,-22.87 1134.56,-29.82"/>
<text text-anchor="start" x="627.5" y="-46.74" font-family="Helvetica,sans-Serif" font-size="10.00">Resetting, Pending User Action &#45; Reset pending user action all states &#160;&#160;</text>
</g>
</g>
</svg>
