<?xml version="1.0" encoding="UTF-8" standalone="no"?>
<!DOCTYPE svg PUBLIC "-//W3C//DTD SVG 1.1//EN"
 "http://www.w3.org/Graphics/SVG/1.1/DTD/svg11.dtd">
<!-- Generated by graphviz version 12.1.0 (20240811.2233)
 -->
<!-- Title: state transitions Pages: 1 -->
<svg width="845pt" height="468pt"
 viewBox="0.00 0.00 845.38 468.24" xmlns="http://www.w3.org/2000/svg" xmlns:xlink="http://www.w3.org/1999/xlink">
<g id="graph0" class="graph" transform="scale(1 1) rotate(0) translate(4 464.24)">
<title>state transitions</title>
<polygon fill="white" stroke="none" points="-4,4 -4,-464.24 841.38,-464.24 841.38,4 -4,4"/>
<!-- disconnected -->
<g id="node1" class="node state regular">
<title>disconnected</title>
<polygon fill="#ffffff" fill-opacity="0.003922" stroke="none" stroke-width="2" points="789.38,-434.68 687.88,-434.68 687.88,-398.43 789.38,-398.43 789.38,-434.68"/>
<text text-anchor="start" x="698.88" y="-412.28" font-family="Helvetica,sans-Serif" font-size="12.00">disconnected</text>
<path fill="none" stroke="black" stroke-width="2" d="M700.29,-399.43C700.29,-399.43 776.96,-399.43 776.96,-399.43 782.67,-399.43 788.38,-405.14 788.38,-410.85 788.38,-410.85 788.38,-422.26 788.38,-422.26 788.38,-427.97 782.67,-433.68 776.96,-433.68 776.96,-433.68 700.29,-433.68 700.29,-433.68 694.58,-433.68 688.88,-427.97 688.88,-422.26 688.88,-422.26 688.88,-410.85 688.88,-410.85 688.88,-405.14 694.58,-399.43 700.29,-399.43"/>
</g>
<!-- discovering -->
<g id="node2" class="node state regular">
<title>discovering</title>
<polygon fill="#ffffff" fill-opacity="0.003922" stroke="none" stroke-width="2" points="783.75,-380.68 693.5,-380.68 693.5,-344.43 783.75,-344.43 783.75,-380.68"/>
<text text-anchor="start" x="704.5" y="-358.28" font-family="Helvetica,sans-Serif" font-size="12.00">discovering</text>
<path fill="none" stroke="black" stroke-width="2" d="M705.92,-345.43C705.92,-345.43 771.33,-345.43 771.33,-345.43 777.04,-345.43 782.75,-351.14 782.75,-356.85 782.75,-356.85 782.75,-368.26 782.75,-368.26 782.75,-373.97 777.04,-379.68 771.33,-379.68 771.33,-379.68 705.92,-379.68 705.92,-379.68 700.21,-379.68 694.5,-373.97 694.5,-368.26 694.5,-368.26 694.5,-356.85 694.5,-356.85 694.5,-351.14 700.21,-345.43 705.92,-345.43"/>
</g>
<!-- error -->
<g id="node3" class="node state regular">
<title>error</title>
<polygon fill="#ffffff" fill-opacity="0.003922" stroke="none" stroke-width="2" points="766.62,-326.68 710.62,-326.68 710.62,-290.43 766.62,-290.43 766.62,-326.68"/>
<text text-anchor="start" x="724" y="-304.28" font-family="Helvetica,sans-Serif" font-size="12.00">error</text>
<path fill="none" stroke="black" stroke-width="2" d="M723.04,-291.43C723.04,-291.43 754.21,-291.43 754.21,-291.43 759.92,-291.43 765.62,-297.14 765.62,-302.85 765.62,-302.85 765.62,-314.26 765.62,-314.26 765.62,-319.97 759.92,-325.68 754.21,-325.68 754.21,-325.68 723.04,-325.68 723.04,-325.68 717.33,-325.68 711.62,-319.97 711.62,-314.26 711.62,-314.26 711.62,-302.85 711.62,-302.85 711.62,-297.14 717.33,-291.43 723.04,-291.43"/>
</g>
<!-- insufficient -->
<g id="node4" class="node state regular">
<title>insufficient</title>
<polygon fill="#ffffff" fill-opacity="0.003922" stroke="none" stroke-width="2" points="782.25,-272.68 695,-272.68 695,-236.43 782.25,-236.43 782.25,-272.68"/>
<text text-anchor="start" x="706" y="-250.28" font-family="Helvetica,sans-Serif" font-size="12.00">insufficient</text>
<path fill="none" stroke="black" stroke-width="2" d="M707.42,-237.43C707.42,-237.43 769.83,-237.43 769.83,-237.43 775.54,-237.43 781.25,-243.14 781.25,-248.85 781.25,-248.85 781.25,-260.26 781.25,-260.26 781.25,-265.97 775.54,-271.68 769.83,-271.68 769.83,-271.68 707.42,-271.68 707.42,-271.68 701.71,-271.68 696,-265.97 696,-260.26 696,-260.26 696,-248.85 696,-248.85 696,-243.14 701.71,-237.43 707.42,-237.43"/>
</g>
<!-- known -->
<g id="node5" class="node state regular">
<title>known</title>
<polygon fill="#ffffff" fill-opacity="0.003922" stroke="none" stroke-width="2" points="769.12,-218.68 708.12,-218.68 708.12,-182.43 769.12,-182.43 769.12,-218.68"/>
<text text-anchor="start" x="719.12" y="-196.28" font-family="Helvetica,sans-Serif" font-size="12.00">known</text>
<path fill="none" stroke="black" stroke-width="2" d="M720.54,-183.43C720.54,-183.43 756.71,-183.43 756.71,-183.43 762.42,-183.43 768.12,-189.14 768.12,-194.85 768.12,-194.85 768.12,-206.26 768.12,-206.26 768.12,-211.97 762.42,-217.68 756.71,-217.68 756.71,-217.68 720.54,-217.68 720.54,-217.68 714.83,-217.68 709.12,-211.97 709.12,-206.26 709.12,-206.26 709.12,-194.85 709.12,-194.85 709.12,-189.14 714.83,-183.43 720.54,-183.43"/>
</g>
<!-- preparing&#45;failed -->
<g id="node6" class="node state regular">
<title>preparing&#45;failed</title>
<polygon fill="#ffffff" fill-opacity="0.003922" stroke="none" stroke-width="2" points="797.25,-164.68 680,-164.68 680,-128.43 797.25,-128.43 797.25,-164.68"/>
<text text-anchor="start" x="691" y="-142.28" font-family="Helvetica,sans-Serif" font-size="12.00">preparing&#45;failed</text>
<path fill="none" stroke="black" stroke-width="2" d="M692.42,-129.43C692.42,-129.43 784.83,-129.43 784.83,-129.43 790.54,-129.43 796.25,-135.14 796.25,-140.85 796.25,-140.85 796.25,-152.26 796.25,-152.26 796.25,-157.97 790.54,-163.68 784.83,-163.68 784.83,-163.68 692.42,-163.68 692.42,-163.68 686.71,-163.68 681,-157.97 681,-152.26 681,-152.26 681,-140.85 681,-140.85 681,-135.14 686.71,-129.43 692.42,-129.43"/>
</g>
<!-- preparing&#45;for&#45;installation -->
<g id="node7" class="node state regular">
<title>preparing&#45;for&#45;installation</title>
<polygon fill="#ffffff" fill-opacity="0.003922" stroke="none" stroke-width="2" points="191.38,-236.68 22.38,-236.68 22.38,-200.43 191.38,-200.43 191.38,-236.68"/>
<text text-anchor="start" x="33.38" y="-214.28" font-family="Helvetica,sans-Serif" font-size="12.00">preparing&#45;for&#45;installation</text>
<path fill="none" stroke="black" stroke-width="2" d="M34.79,-201.43C34.79,-201.43 178.96,-201.43 178.96,-201.43 184.67,-201.43 190.38,-207.14 190.38,-212.85 190.38,-212.85 190.38,-224.26 190.38,-224.26 190.38,-229.97 184.67,-235.68 178.96,-235.68 178.96,-235.68 34.79,-235.68 34.79,-235.68 29.08,-235.68 23.38,-229.97 23.38,-224.26 23.38,-224.26 23.38,-212.85 23.38,-212.85 23.38,-207.14 29.08,-201.43 34.79,-201.43"/>
</g>
<!-- preparing&#45;for&#45;installation&#45;&gt;disconnected -->
<g id="edge9" class="edge transition">
<title>preparing&#45;for&#45;installation&#45;&gt;disconnected</title>
<path fill="none" stroke="black" d="M112.84,-236.44C123.69,-271.73 153.15,-349.79 209.38,-383.55 357.43,-472.48 572.83,-448.61 676.88,-429.65"/>
<polygon fill="black" stroke="black" points="677.43,-433.1 686.62,-427.82 676.14,-426.22 677.43,-433.1"/>
<text text-anchor="start" x="229.62" y="-450.74" font-family="Helvetica,sans-Serif" font-size="10.00">Refresh &#45; Move preparing host to disconnected when connection times out &#160;&#160;</text>
</g>
<!-- preparing&#45;for&#45;installation&#45;&gt;discovering -->
<g id="edge10" class="edge transition">
<title>preparing&#45;for&#45;installation&#45;&gt;discovering</title>
<path fill="none" stroke="black" d="M117.53,-236.36C132.97,-262.81 165.95,-311.57 209.38,-332.55 291.52,-372.24 564.22,-368.4 682.31,-364.69"/>
<polygon fill="black" stroke="black" points="682.19,-368.19 692.07,-364.37 681.96,-361.2 682.19,-368.19"/>
<text text-anchor="start" x="336.88" y="-370.13" font-family="Helvetica,sans-Serif" font-size="10.00">Register Host &#45; Re&#45;registration &#160;&#160;</text>
</g>
<!-- preparing&#45;for&#45;installation&#45;&gt;error -->
<g id="edge2" class="edge transition">
<title>preparing&#45;for&#45;installation&#45;&gt;error</title>
<path fill="none" stroke="black" d="M133.65,-236.59C153.4,-249.37 181.84,-265.6 209.38,-273.55 386.86,-324.85 611.31,-317.17 699.54,-311.5"/>
<polygon fill="black" stroke="black" points="699.58,-315.01 709.32,-310.84 699.11,-308.03 699.58,-315.01"/>
<text text-anchor="start" x="209.38" y="-318.84" font-family="Helvetica,sans-Serif" font-size="10.00">Media Disconnect &#45; Move to error when virtual media disconnects post&#45;installation &#160;&#160;</text>
</g>
<!-- preparing&#45;for&#45;installation&#45;&gt;insufficient -->
<g id="edge5" class="edge transition">
<title>preparing&#45;for&#45;installation&#45;&gt;insufficient</title>
<path fill="none" stroke="black" d="M191.34,-236.13C197.43,-237.06 203.49,-237.89 209.38,-238.55 381.79,-258.02 587.74,-257.46 683.59,-255.83"/>
<polygon fill="black" stroke="black" points="683.56,-259.34 693.49,-255.65 683.43,-252.34 683.56,-259.34"/>
<text text-anchor="start" x="258.5" y="-259.81" font-family="Helvetica,sans-Serif" font-size="10.00">Refresh &#45; Preparing failed disk speed host move to insufficient &#160;&#160;</text>
</g>
<!-- preparing&#45;for&#45;installation&#45;&gt;known -->
<g id="edge1" class="edge transition">
<title>preparing&#45;for&#45;installation&#45;&gt;known</title>
<path fill="none" stroke="black" d="M191.22,-220.78C292.97,-222.84 470.26,-224.28 621.88,-214.55 646.87,-212.95 674.75,-209.62 696.89,-206.62"/>
<polygon fill="black" stroke="black" points="697.29,-210.09 706.71,-205.25 696.33,-203.16 697.29,-210.09"/>
<text text-anchor="start" x="305" y="-225.53" font-family="Helvetica,sans-Serif" font-size="10.00">Cancel Installation &#45; Cancel while preparing &#160;&#160;</text>
</g>
<!-- preparing&#45;for&#45;installation&#45;&gt;known -->
<g id="edge4" class="edge transition">
<title>preparing&#45;for&#45;installation&#45;&gt;known</title>
<path fill="none" stroke="black" d="M189.09,-200.45C195.93,-199.38 202.75,-198.47 209.38,-197.8 391.78,-179.35 438.55,-195.63 621.88,-197.8 646.75,-198.1 674.63,-198.75 696.79,-199.35"/>
<polygon fill="black" stroke="black" points="696.53,-202.84 706.62,-199.62 696.72,-195.84 696.53,-202.84"/>
<text text-anchor="start" x="241.25" y="-201.05" font-family="Helvetica,sans-Serif" font-size="10.00">Refresh &#45; Move preparing host to known when cluster stops preparing &#160;&#160;</text>
</g>
<!-- preparing&#45;for&#45;installation&#45;&gt;preparing&#45;failed -->
<g id="edge6" class="edge transition">
<title>preparing&#45;for&#45;installation&#45;&gt;preparing&#45;failed</title>
<path fill="none" stroke="black" d="M139.68,-200.49C159.15,-190.4 184.95,-178.69 209.38,-172.8 294.55,-152.27 546.31,-147.76 668.94,-146.8"/>
<polygon fill="black" stroke="black" points="668.91,-150.3 678.88,-146.73 668.86,-143.3 668.91,-150.3"/>
<text text-anchor="start" x="287.75" y="-176.05" font-family="Helvetica,sans-Serif" font-size="10.00">Refresh &#45; Preparing timed out host move to known &#160;&#160;</text>
</g>
<!-- preparing&#45;for&#45;installation&#45;&gt;preparing&#45;failed -->
<g id="edge7" class="edge transition">
<title>preparing&#45;for&#45;installation&#45;&gt;preparing&#45;failed</title>
<path fill="none" stroke="black" d="M121.67,-200.55C139.3,-179.19 172.05,-144.7 209.38,-130.8 295.28,-98.82 530.42,-124.61 621.88,-130.8 637.18,-131.84 653.55,-133.64 669.01,-135.66"/>
<polygon fill="black" stroke="black" points="668.2,-139.08 678.58,-136.96 669.14,-132.15 668.2,-139.08"/>
<text text-anchor="start" x="247.62" y="-134.05" font-family="Helvetica,sans-Serif" font-size="10.00">Refresh &#45; Preparing failed image pull host move to preparing failed &#160;&#160;</text>
</g>
<!-- preparing&#45;for&#45;installation&#45;&gt;preparing&#45;for&#45;installation -->
<g id="edge8" class="edge transition">
<title>preparing&#45;for&#45;installation&#45;&gt;preparing&#45;for&#45;installation</title>
<path fill="none" stroke="black" d="M51.37,-236.4C41.94,-245.96 60.44,-254.68 106.88,-254.68 133.72,-254.68 151.23,-251.77 159.4,-247.46"/>
<polygon fill="black" stroke="black" points="162.76,-248.42 161.98,-237.86 156.01,-246.61 162.76,-248.42"/>
<text text-anchor="start" x="0" y="-257.93" font-family="Helvetica,sans-Serif" font-size="10.00">Refresh &#45; Stay in preparing for installation &#160;&#160;</text>
</g>
<!-- preparing&#45;successful -->
<g id="node8" class="node state regular">
<title>preparing&#45;successful</title>
<polygon fill="#ffffff" fill-opacity="0.003922" stroke="none" stroke-width="2" points="811.5,-110.68 665.75,-110.68 665.75,-74.43 811.5,-74.43 811.5,-110.68"/>
<text text-anchor="start" x="676.75" y="-88.28" font-family="Helvetica,sans-Serif" font-size="12.00">preparing&#45;successful</text>
<path fill="none" stroke="black" stroke-width="2" d="M678.17,-75.43C678.17,-75.43 799.08,-75.43 799.08,-75.43 804.79,-75.43 810.5,-81.14 810.5,-86.85 810.5,-86.85 810.5,-98.26 810.5,-98.26 810.5,-103.97 804.79,-109.68 799.08,-109.68 799.08,-109.68 678.17,-109.68 678.17,-109.68 672.46,-109.68 666.75,-103.97 666.75,-98.26 666.75,-98.26 666.75,-86.85 666.75,-86.85 666.75,-81.14 672.46,-75.43 678.17,-75.43"/>
</g>
<!-- preparing&#45;for&#45;installation&#45;&gt;preparing&#45;successful -->
<g id="edge3" class="edge transition">
<title>preparing&#45;for&#45;installation&#45;&gt;preparing&#45;successful</title>
<path fill="none" stroke="black" d="M116.68,-200.53C131.42,-172.67 164,-120.15 209.38,-98.8 285.91,-62.8 526.35,-75.43 654.8,-85.3"/>
<polygon fill="black" stroke="black" points="654.36,-88.78 664.61,-86.07 654.91,-81.8 654.36,-88.78"/>
<text text-anchor="start" x="300.5" y="-102.05" font-family="Helvetica,sans-Serif" font-size="10.00">Refresh &#45; Refresh successfully preparing host &#160;&#160;</text>
</g>
<!-- resetting&#45;pending&#45;user&#45;action -->
<g id="node9" class="node state regular">
<title>resetting&#45;pending&#45;user&#45;action</title>
<polygon fill="#ffffff" fill-opacity="0.003922" stroke="none" stroke-width="2" points="837.38,-56.68 639.88,-56.68 639.88,-20.43 837.38,-20.43 837.38,-56.68"/>
<text text-anchor="start" x="650.88" y="-34.28" font-family="Helvetica,sans-Serif" font-size="12.00">resetting&#45;pending&#45;user&#45;action</text>
<path fill="none" stroke="black" stroke-width="2" d="M652.29,-21.43C652.29,-21.43 824.96,-21.43 824.96,-21.43 830.67,-21.43 836.38,-27.14 836.38,-32.85 836.38,-32.85 836.38,-44.26 836.38,-44.26 836.38,-49.97 830.67,-55.68 824.96,-55.68 824.96,-55.68 652.29,-55.68 652.29,-55.68 646.58,-55.68 640.88,-49.97 640.88,-44.26 640.88,-44.26 640.88,-32.85 640.88,-32.85 640.88,-27.14 646.58,-21.43 652.29,-21.43"/>
</g>
<!-- preparing&#45;for&#45;installation&#45;&gt;resetting&#45;pending&#45;user&#45;action -->
<g id="edge11" class="edge transition">
<title>preparing&#45;for&#45;installation&#45;&gt;resetting&#45;pending&#45;user&#45;action</title>
<path fill="none" stroke="black" d="M113.09,-200.45C124.2,-165.58 153.87,-89.73 209.38,-57.8 347.04,21.39 539.98,2.31 650.55,-18.37"/>
<polygon fill="black" stroke="black" points="649.68,-21.76 660.16,-20.21 651,-14.89 649.68,-21.76"/>
<text text-anchor="start" x="243.5" y="-61.05" font-family="Helvetica,sans-Serif" font-size="10.00">Resetting, Pending User Action &#45; Reset pending user action all states &#160;&#160;</text>
</g>
</g>
</svg>
