<?xml version="1.0" encoding="UTF-8" standalone="no"?>
<!DOCTYPE svg PUBLIC "-//W3C//DTD SVG 1.1//EN"
 "http://www.w3.org/Graphics/SVG/1.1/DTD/svg11.dtd">
<!-- Generated by graphviz version 7.1.0 (0)
 -->
<!-- Title: state transitions Pages: 1 -->
<svg width="868pt" height="264pt"
 viewBox="0.00 0.00 867.50 264.00" xmlns="http://www.w3.org/2000/svg" xmlns:xlink="http://www.w3.org/1999/xlink">
<g id="graph0" class="graph" transform="scale(1 1) rotate(0) translate(4 260)">
<title>state transitions</title>
<polygon fill="white" stroke="none" points="-4,4 -4,-260 863.5,-260 863.5,4 -4,4"/>
<!-- cancelled -->
<g id="node1" class="node state regular">
<title>cancelled</title>
<polygon fill="#ffffff" fill-opacity="0.003922" stroke="none" stroke-width="2" points="803.5,-252 729.5,-252 729.5,-216 803.5,-216 803.5,-252"/>
<text text-anchor="start" x="740.5" y="-230.4" font-family="Helvetica,sans-Serif" font-size="12.00">cancelled</text>
<path fill="none" stroke="black" stroke-width="2" d="M741.5,-217.5C741.5,-217.5 791.5,-217.5 791.5,-217.5 797,-217.5 802.5,-223 802.5,-228.5 802.5,-228.5 802.5,-239.5 802.5,-239.5 802.5,-245 797,-250.5 791.5,-250.5 791.5,-250.5 741.5,-250.5 741.5,-250.5 736,-250.5 730.5,-245 730.5,-239.5 730.5,-239.5 730.5,-228.5 730.5,-228.5 730.5,-223 736,-217.5 741.5,-217.5"/>
</g>
<!-- error -->
<g id="node2" class="node state regular">
<title>error</title>
<polygon fill="#ffffff" fill-opacity="0.003922" stroke="none" stroke-width="2" points="794.5,-198 738.5,-198 738.5,-162 794.5,-162 794.5,-198"/>
<text text-anchor="start" x="754" y="-176.4" font-family="Helvetica,sans-Serif" font-size="12.00">error</text>
<path fill="none" stroke="black" stroke-width="2" d="M750.5,-163.5C750.5,-163.5 782.5,-163.5 782.5,-163.5 788,-163.5 793.5,-169 793.5,-174.5 793.5,-174.5 793.5,-185.5 793.5,-185.5 793.5,-191 788,-196.5 782.5,-196.5 782.5,-196.5 750.5,-196.5 750.5,-196.5 745,-196.5 739.5,-191 739.5,-185.5 739.5,-185.5 739.5,-174.5 739.5,-174.5 739.5,-169 745,-163.5 750.5,-163.5"/>
</g>
<!-- installed -->
<g id="node3" class="node state regular">
<title>installed</title>
<polygon fill="#ffffff" fill-opacity="0.003922" stroke="none" stroke-width="2" points="326.5,-144 258.5,-144 258.5,-108 326.5,-108 326.5,-144"/>
<text text-anchor="start" x="269.5" y="-122.4" font-family="Helvetica,sans-Serif" font-size="12.00">installed</text>
<path fill="none" stroke="black" stroke-width="2" d="M270.5,-109.5C270.5,-109.5 314.5,-109.5 314.5,-109.5 320,-109.5 325.5,-115 325.5,-120.5 325.5,-120.5 325.5,-131.5 325.5,-131.5 325.5,-137 320,-142.5 314.5,-142.5 314.5,-142.5 270.5,-142.5 270.5,-142.5 265,-142.5 259.5,-137 259.5,-131.5 259.5,-131.5 259.5,-120.5 259.5,-120.5 259.5,-115 265,-109.5 270.5,-109.5"/>
</g>
<!-- installed&#45;&gt;cancelled -->
<g id="edge1" class="edge transition">
<title>installed&#45;&gt;cancelled</title>
<path fill="none" stroke="black" d="M302.53,-143.97C311.13,-159.01 325.56,-179.63 344.5,-190 465.83,-256.45 636.36,-248.97 718.13,-240.35"/>
<polygon fill="black" stroke="black" points="718.48,-243.83 728.03,-239.25 717.71,-236.88 718.48,-243.83"/>
<text text-anchor="start" x="356.5" y="-248" font-family="Helvetica,sans-Serif" font-size="10.00">Cancel Installation &#45; Installation canceled while host is installing &#160;&#160;</text>
</g>
<!-- installed&#45;&gt;error -->
<g id="edge4" class="edge transition">
<title>installed&#45;&gt;error</title>
<path fill="none" stroke="black" d="M326.47,-136.71C332.42,-138.35 338.61,-139.87 344.5,-141 484.1,-167.73 653.39,-176.34 727.58,-178.94"/>
<polygon fill="black" stroke="black" points="727.03,-182.43 737.14,-179.26 727.26,-175.43 727.03,-182.43"/>
<text text-anchor="start" x="383.5" y="-178" font-family="Helvetica,sans-Serif" font-size="10.00">Refresh &#45; Move host to error when cluster is in error &#160;&#160;</text>
</g>
<!-- installed&#45;&gt;installed -->
<g id="edge2" class="edge transition">
<title>installed&#45;&gt;installed</title>
<path fill="none" stroke="black" d="M280.07,-143.78C277.95,-153.31 282.1,-162 292.5,-162 298.35,-162 302.22,-159.25 304.11,-155.15"/>
<polygon fill="black" stroke="black" points="307.6,-155.52 304.82,-145.29 300.61,-155.01 307.6,-155.52"/>
<text text-anchor="start" x="0" y="-165" font-family="Helvetica,sans-Serif" font-size="10.00">null &#45; Host progress change during installed state when host is not in state Done (or Rebooting in day2) should stay in installed state &#160;&#160;</text>
</g>
<!-- installed&#45;&gt;installed -->
<g id="edge5" class="edge transition">
<title>installed&#45;&gt;installed</title>
<path fill="none" stroke="black" d="M271.71,-143.98C260.58,-161.2 267.51,-180 292.5,-180 312.42,-180 320.86,-168.06 317.84,-154.5"/>
<polygon fill="black" stroke="black" points="321.07,-153.16 313.89,-145.37 314.65,-155.94 321.07,-153.16"/>
<text text-anchor="start" x="94.5" y="-183" font-family="Helvetica,sans-Serif" font-size="10.00">Refresh &#45; Refresh during installed state without cluster error should stay in installed state &#160;&#160;</text>
</g>
<!-- installed&#45;&gt;installed -->
<g id="edge6" class="edge transition">
<title>installed&#45;&gt;installed</title>
<path fill="none" stroke="black" d="M266.6,-143.72C242.93,-168.11 251.57,-198 292.5,-198 328.64,-198 339.6,-174.71 325.39,-152.46"/>
<polygon fill="black" stroke="black" points="328.32,-150.53 319.35,-144.9 322.86,-154.9 328.32,-150.53"/>
<text text-anchor="start" x="200" y="-201" font-family="Helvetica,sans-Serif" font-size="10.00">Register Host &#45; Register post&#45;installation &#160;&#160;</text>
</g>
<!-- reclaiming -->
<g id="node4" class="node state regular">
<title>reclaiming</title>
<polygon fill="#ffffff" fill-opacity="0.003922" stroke="none" stroke-width="2" points="805.5,-144 727.5,-144 727.5,-108 805.5,-108 805.5,-144"/>
<text text-anchor="start" x="738.5" y="-122.4" font-family="Helvetica,sans-Serif" font-size="12.00">reclaiming</text>
<path fill="none" stroke="black" stroke-width="2" d="M739.5,-109.5C739.5,-109.5 793.5,-109.5 793.5,-109.5 799,-109.5 804.5,-115 804.5,-120.5 804.5,-120.5 804.5,-131.5 804.5,-131.5 804.5,-137 799,-142.5 793.5,-142.5 793.5,-142.5 739.5,-142.5 739.5,-142.5 734,-142.5 728.5,-137 728.5,-131.5 728.5,-131.5 728.5,-120.5 728.5,-120.5 728.5,-115 734,-109.5 739.5,-109.5"/>
</g>
<!-- installed&#45;&gt;reclaiming -->
<g id="edge3" class="edge transition">
<title>installed&#45;&gt;reclaiming</title>
<path fill="none" stroke="black" d="M326.32,-126C407.8,-126 619.71,-126 716.27,-126"/>
<polygon fill="black" stroke="black" points="716.22,-129.5 726.22,-126 716.22,-122.5 716.22,-129.5"/>
<text text-anchor="start" x="407.5" y="-129" font-family="Helvetica,sans-Serif" font-size="10.00">Reclaim Host &#45; Reclaim successful host &#160;&#160;</text>
</g>
<!-- resetting&#45;pending&#45;user&#45;action -->
<g id="node5" class="node state regular">
<title>resetting&#45;pending&#45;user&#45;action</title>
<polygon fill="#ffffff" fill-opacity="0.003922" stroke="none" stroke-width="2" points="856,-90 677,-90 677,-54 856,-54 856,-90"/>
<text text-anchor="start" x="688.5" y="-68.4" font-family="Helvetica,sans-Serif" font-size="12.00">resetting&#45;pending&#45;user&#45;action</text>
<path fill="none" stroke="black" stroke-width="2" d="M689,-55.5C689,-55.5 844,-55.5 844,-55.5 849.5,-55.5 855,-61 855,-66.5 855,-66.5 855,-77.5 855,-77.5 855,-83 849.5,-88.5 844,-88.5 844,-88.5 689,-88.5 689,-88.5 683.5,-88.5 678,-83 678,-77.5 678,-77.5 678,-66.5 678,-66.5 678,-61 683.5,-55.5 689,-55.5"/>
</g>
<!-- installed&#45;&gt;resetting&#45;pending&#45;user&#45;action -->
<g id="edge7" class="edge transition">
<title>installed&#45;&gt;resetting&#45;pending&#45;user&#45;action</title>
<path fill="none" stroke="black" d="M326.47,-115.29C332.42,-113.65 338.61,-112.13 344.5,-111 453.34,-90.16 580.22,-80.33 666.02,-75.78"/>
<polygon fill="black" stroke="black" points="666,-79.29 675.81,-75.28 665.64,-72.3 666,-79.29"/>
<text text-anchor="start" x="344.5" y="-114" font-family="Helvetica,sans-Serif" font-size="10.00">Resetting, Pending User Action &#45; Reset pending user action all states &#160;&#160;</text>
</g>
<!-- unbinding&#45;pending&#45;user&#45;action -->
<g id="node6" class="node state regular">
<title>unbinding&#45;pending&#45;user&#45;action</title>
<polygon fill="#ffffff" fill-opacity="0.003922" stroke="none" stroke-width="2" points="859.5,-36 673.5,-36 673.5,0 859.5,0 859.5,-36"/>
<text text-anchor="start" x="684.5" y="-14.4" font-family="Helvetica,sans-Serif" font-size="12.00">unbinding&#45;pending&#45;user&#45;action</text>
<path fill="none" stroke="black" stroke-width="2" d="M685.5,-1.5C685.5,-1.5 847.5,-1.5 847.5,-1.5 853,-1.5 858.5,-7 858.5,-12.5 858.5,-12.5 858.5,-23.5 858.5,-23.5 858.5,-29 853,-34.5 847.5,-34.5 847.5,-34.5 685.5,-34.5 685.5,-34.5 680,-34.5 674.5,-29 674.5,-23.5 674.5,-23.5 674.5,-12.5 674.5,-12.5 674.5,-7 680,-1.5 685.5,-1.5"/>
</g>
<!-- installed&#45;&gt;unbinding&#45;pending&#45;user&#45;action -->
<g id="edge8" class="edge transition">
<title>installed&#45;&gt;unbinding&#45;pending&#45;user&#45;action</title>
<path fill="none" stroke="black" d="M302.29,-108.04C310.82,-92.74 325.28,-71.59 344.5,-61 442.46,-7.02 572.8,-2.03 662.36,-6.86"/>
<polygon fill="black" stroke="black" points="661.92,-10.34 672.11,-7.44 662.33,-3.35 661.92,-10.34"/>
<text text-anchor="start" x="391.5" y="-64" font-family="Helvetica,sans-Serif" font-size="10.00">Unbind Host &#45; Unbind during or after installation &#160;&#160;</text>
</g>
</g>
</svg>
