<?xml version="1.0" encoding="UTF-8" standalone="no"?>
<!DOCTYPE svg PUBLIC "-//W3C//DTD SVG 1.1//EN"
 "http://www.w3.org/Graphics/SVG/1.1/DTD/svg11.dtd">
<!-- Generated by graphviz version 12.1.0 (20240811.2233)
 -->
<!-- Title: state transitions Pages: 1 -->
<svg width="796pt" height="117pt"
 viewBox="0.00 0.00 796.25 117.24" xmlns="http://www.w3.org/2000/svg" xmlns:xlink="http://www.w3.org/1999/xlink">
<g id="graph0" class="graph" transform="scale(1 1) rotate(0) translate(4 113.24)">
<title>state transitions</title>
<polygon fill="white" stroke="none" points="-4,4 -4,-113.24 792.25,-113.24 792.25,4 -4,4"/>
<!-- reclaiming -->
<g id="node1" class="node state regular">
<title>reclaiming</title>
<polygon fill="#ffffff" fill-opacity="0.003922" stroke="none" stroke-width="2" points="236.75,-73.24 152.5,-73.24 152.5,-36.99 236.75,-36.99 236.75,-73.24"/>
<text text-anchor="start" x="163.5" y="-50.84" font-family="Helvetica,sans-Serif" font-size="12.00">reclaiming</text>
<path fill="none" stroke="black" stroke-width="2" d="M164.92,-37.99C164.92,-37.99 224.33,-37.99 224.33,-37.99 230.04,-37.99 235.75,-43.7 235.75,-49.4 235.75,-49.4 235.75,-60.82 235.75,-60.82 235.75,-66.53 230.04,-72.24 224.33,-72.24 224.33,-72.24 164.92,-72.24 164.92,-72.24 159.21,-72.24 153.5,-66.53 153.5,-60.82 153.5,-60.82 153.5,-49.4 153.5,-49.4 153.5,-43.7 159.21,-37.99 164.92,-37.99"/>
</g>
<!-- reclaiming&#45;&gt;reclaiming -->
<g id="edge4" class="edge transition">
<title>reclaiming&#45;&gt;reclaiming</title>
<path fill="none" stroke="black" d="M155.77,-72.96C149.17,-82.52 162.12,-91.24 194.62,-91.24 213.42,-91.24 225.67,-88.33 231.39,-84.02"/>
<polygon fill="black" stroke="black" points="234.78,-84.92 233.2,-74.44 227.91,-83.62 234.78,-84.92"/>
<text text-anchor="start" x="0" y="-94.49" font-family="Helvetica,sans-Serif" font-size="10.00">Refresh &#45; Refresh without timeout during reclaiming should stay in reclaiming &#160;&#160;</text>
</g>
<!-- reclaiming&#45;rebooting -->
<g id="node2" class="node state regular">
<title>reclaiming&#45;rebooting</title>
<polygon fill="#ffffff" fill-opacity="0.003922" stroke="none" stroke-width="2" points="759.38,-109.24 613.62,-109.24 613.62,-72.99 759.38,-72.99 759.38,-109.24"/>
<text text-anchor="start" x="624.62" y="-86.84" font-family="Helvetica,sans-Serif" font-size="12.00">reclaiming&#45;rebooting</text>
<path fill="none" stroke="black" stroke-width="2" d="M626.04,-73.99C626.04,-73.99 746.96,-73.99 746.96,-73.99 752.67,-73.99 758.38,-79.7 758.38,-85.4 758.38,-85.4 758.38,-96.82 758.38,-96.82 758.38,-102.53 752.67,-108.24 746.96,-108.24 746.96,-108.24 626.04,-108.24 626.04,-108.24 620.33,-108.24 614.62,-102.53 614.62,-96.82 614.62,-96.82 614.62,-85.4 614.62,-85.4 614.62,-79.7 620.33,-73.99 626.04,-73.99"/>
</g>
<!-- reclaiming&#45;&gt;reclaiming&#45;rebooting -->
<g id="edge1" class="edge transition">
<title>reclaiming&#45;&gt;reclaiming&#45;rebooting</title>
<path fill="none" stroke="black" d="M236.5,-65.01C242.59,-66.22 248.81,-67.31 254.75,-68.11 374.95,-84.43 515.49,-89.3 602.51,-90.69"/>
<polygon fill="black" stroke="black" points="602.34,-94.18 612.39,-90.83 602.44,-87.18 602.34,-94.18"/>
<text text-anchor="start" x="254.75" y="-93.08" font-family="Helvetica,sans-Serif" font-size="10.00">Rebooting for Reclaim &#45; Rebooting for reclaim reclaiming host &#160;&#160;</text>
</g>
<!-- unbinding&#45;pending&#45;user&#45;action -->
<g id="node3" class="node state regular">
<title>unbinding&#45;pending&#45;user&#45;action</title>
<polygon fill="#ffffff" fill-opacity="0.003922" stroke="none" stroke-width="2" points="788.25,-46.24 584.75,-46.24 584.75,-9.99 788.25,-9.99 788.25,-46.24"/>
<text text-anchor="start" x="595.75" y="-23.84" font-family="Helvetica,sans-Serif" font-size="12.00">unbinding&#45;pending&#45;user&#45;action</text>
<path fill="none" stroke="black" stroke-width="2" d="M597.17,-10.99C597.17,-10.99 775.83,-10.99 775.83,-10.99 781.54,-10.99 787.25,-16.7 787.25,-22.4 787.25,-22.4 787.25,-33.82 787.25,-33.82 787.25,-39.53 781.54,-45.24 775.83,-45.24 775.83,-45.24 597.17,-45.24 597.17,-45.24 591.46,-45.24 585.75,-39.53 585.75,-33.82 585.75,-33.82 585.75,-22.4 585.75,-22.4 585.75,-16.7 591.46,-10.99 597.17,-10.99"/>
</g>
<!-- reclaiming&#45;&gt;unbinding&#45;pending&#45;user&#45;action -->
<g id="edge2" class="edge transition">
<title>reclaiming&#45;&gt;unbinding&#45;pending&#45;user&#45;action</title>
<path fill="none" stroke="black" d="M236.55,-52.86C309.95,-48.81 466.33,-40.19 573.69,-34.28"/>
<polygon fill="black" stroke="black" points="573.6,-37.79 583.39,-33.74 573.21,-30.8 573.6,-37.79"/>
<text text-anchor="start" x="280.62" y="-55.02" font-family="Helvetica,sans-Serif" font-size="10.00">Reclaim Failed &#45; Reclaim failure for reclaiming host &#160;&#160;</text>
</g>
<!-- reclaiming&#45;&gt;unbinding&#45;pending&#45;user&#45;action -->
<g id="edge3" class="edge transition">
<title>reclaiming&#45;&gt;unbinding&#45;pending&#45;user&#45;action</title>
<path fill="none" stroke="black" d="M218.07,-37.03C228.56,-29.71 241.62,-22.11 254.75,-18.36 388.09,19.7 428.2,-12.68 566.75,-18.36 568.96,-18.45 571.19,-18.55 573.44,-18.66"/>
<polygon fill="black" stroke="black" points="573.11,-22.15 583.28,-19.19 573.48,-15.16 573.11,-22.15"/>
<text text-anchor="start" x="324.5" y="-21.61" font-family="Helvetica,sans-Serif" font-size="10.00">Refresh &#45; Refresh reclaiming host &#160;&#160;</text>
</g>
</g>
</svg>
