<?xml version="1.0" encoding="UTF-8" standalone="no"?>
<!DOCTYPE svg PUBLIC "-//W3C//DTD SVG 1.1//EN"
 "http://www.w3.org/Graphics/SVG/1.1/DTD/svg11.dtd">
<!-- Generated by graphviz version 12.1.0 (20240811.2233)
 -->
<!-- Title: state transitions Pages: 1 -->
<svg width="826pt" height="81pt"
 viewBox="0.00 0.00 825.50 80.78" xmlns="http://www.w3.org/2000/svg" xmlns:xlink="http://www.w3.org/1999/xlink">
<g id="graph0" class="graph" transform="scale(1 1) rotate(0) translate(4 76.78)">
<title>state transitions</title>
<polygon fill="white" stroke="none" points="-4,4 -4,-76.78 821.5,-76.78 821.5,4 -4,4"/>
<!-- reclaiming&#45;rebooting -->
<g id="node1" class="node state regular">
<title>reclaiming&#45;rebooting</title>
<polygon fill="#ffffff" fill-opacity="0.003922" stroke="none" stroke-width="2" points="317.75,-42.03 172,-42.03 172,-5.78 317.75,-5.78 317.75,-42.03"/>
<text text-anchor="start" x="183" y="-19.63" font-family="Helvetica,sans-Serif" font-size="12.00">reclaiming&#45;rebooting</text>
<path fill="none" stroke="black" stroke-width="2" d="M184.42,-6.78C184.42,-6.78 305.33,-6.78 305.33,-6.78 311.04,-6.78 316.75,-12.49 316.75,-18.2 316.75,-18.2 316.75,-29.62 316.75,-29.62 316.75,-35.32 311.04,-41.03 305.33,-41.03 305.33,-41.03 184.42,-41.03 184.42,-41.03 178.71,-41.03 173,-35.32 173,-29.62 173,-29.62 173,-18.2 173,-18.2 173,-12.49 178.71,-6.78 184.42,-6.78"/>
</g>
<!-- reclaiming&#45;rebooting&#45;&gt;reclaiming&#45;rebooting -->
<g id="edge3" class="edge transition">
<title>reclaiming&#45;rebooting&#45;&gt;reclaiming&#45;rebooting</title>
<path fill="none" stroke="black" d="M205.21,-41.75C198.47,-51.32 211.7,-60.03 244.88,-60.03 264.06,-60.03 276.57,-57.12 282.41,-52.81"/>
<polygon fill="black" stroke="black" points="285.8,-53.72 284.25,-43.24 278.92,-52.4 285.8,-53.72"/>
<text text-anchor="start" x="0" y="-63.28" font-family="Helvetica,sans-Serif" font-size="10.00">Refresh &#45; Refresh without timeout during reclaiming&#45;rebooting should stay in reclaiming&#45;rebooting &#160;&#160;</text>
</g>
<!-- unbinding&#45;pending&#45;user&#45;action -->
<g id="node2" class="node state regular">
<title>unbinding&#45;pending&#45;user&#45;action</title>
<polygon fill="#ffffff" fill-opacity="0.003922" stroke="none" stroke-width="2" points="817.5,-42.03 613.25,-42.03 613.25,-5.78 817.5,-5.78 817.5,-42.03"/>
<text text-anchor="start" x="624.25" y="-19.63" font-family="Helvetica,sans-Serif" font-size="12.00">unbinding&#45;pending&#45;user&#45;action</text>
<path fill="none" stroke="black" stroke-width="2" d="M625.67,-6.78C625.67,-6.78 805.08,-6.78 805.08,-6.78 810.79,-6.78 816.5,-12.49 816.5,-18.2 816.5,-18.2 816.5,-29.62 816.5,-29.62 816.5,-35.32 810.79,-41.03 805.08,-41.03 805.08,-41.03 625.67,-41.03 625.67,-41.03 619.96,-41.03 614.25,-35.32 614.25,-29.62 614.25,-29.62 614.25,-18.2 614.25,-18.2 614.25,-12.49 619.96,-6.78 625.67,-6.78"/>
</g>
<!-- reclaiming&#45;rebooting&#45;&gt;unbinding&#45;pending&#45;user&#45;action -->
<g id="edge1" class="edge transition">
<title>reclaiming&#45;rebooting&#45;&gt;unbinding&#45;pending&#45;user&#45;action</title>
<path fill="none" stroke="black" d="M317.54,-23.91C393.3,-23.91 513.82,-23.91 602.19,-23.91"/>
<polygon fill="black" stroke="black" points="602.1,-27.41 612.1,-23.91 602.1,-20.41 602.1,-27.41"/>
<text text-anchor="start" x="335.75" y="-27.16" font-family="Helvetica,sans-Serif" font-size="10.00">Reclaim Failed &#45; Reclaim failure for reclaiming host &#160;&#160;</text>
</g>
<!-- reclaiming&#45;rebooting&#45;&gt;unbinding&#45;pending&#45;user&#45;action -->
<g id="edge2" class="edge transition">
<title>reclaiming&#45;rebooting&#45;&gt;unbinding&#45;pending&#45;user&#45;action</title>
<path fill="none" stroke="black" d="M317.33,-9.36C323.54,-8.47 329.74,-7.71 335.75,-7.16 450.59,3.45 480.2,0.89 595.25,-7.16 597.48,-7.31 599.72,-7.49 601.99,-7.67"/>
<polygon fill="black" stroke="black" points="601.63,-11.15 611.91,-8.58 602.27,-4.18 601.63,-11.15"/>
<text text-anchor="start" x="379.25" y="-10.41" font-family="Helvetica,sans-Serif" font-size="10.00">Refresh &#45; Refresh reclaiming host &#160;&#160;</text>
</g>
</g>
</svg>
