<?xml version="1.0" encoding="UTF-8" standalone="no"?>
<!DOCTYPE svg PUBLIC "-//W3C//DTD SVG 1.1//EN"
 "http://www.w3.org/Graphics/SVG/1.1/DTD/svg11.dtd">
<!-- Generated by graphviz version 7.1.0 (0)
 -->
<!-- Title: state transitions Pages: 1 -->
<svg width="928pt" height="452pt"
 viewBox="0.00 0.00 928.00 452.21" xmlns="http://www.w3.org/2000/svg" xmlns:xlink="http://www.w3.org/1999/xlink">
<g id="graph0" class="graph" transform="scale(1 1) rotate(0) translate(4 448.21)">
<title>state transitions</title>
<polygon fill="white" stroke="none" points="-4,4 -4,-448.21 924,-448.21 924,4 -4,4"/>
<!-- added&#45;to&#45;existing&#45;cluster -->
<g id="node1" class="node state regular">
<title>added&#45;to&#45;existing&#45;cluster</title>
<polygon fill="#ffffff" fill-opacity="0.003922" stroke="none" stroke-width="2" points="906,-443.21 753,-443.21 753,-407.21 906,-407.21 906,-443.21"/>
<text text-anchor="start" x="764.5" y="-421.61" font-family="Helvetica,sans-Serif" font-size="12.00">added&#45;to&#45;existing&#45;cluster</text>
<path fill="none" stroke="black" stroke-width="2" d="M765,-408.71C765,-408.71 894,-408.71 894,-408.71 899.5,-408.71 905,-414.21 905,-419.71 905,-419.71 905,-430.71 905,-430.71 905,-436.21 899.5,-441.71 894,-441.71 894,-441.71 765,-441.71 765,-441.71 759.5,-441.71 754,-436.21 754,-430.71 754,-430.71 754,-419.71 754,-419.71 754,-414.21 759.5,-408.71 765,-408.71"/>
</g>
<!-- cancelled -->
<g id="node2" class="node state regular">
<title>cancelled</title>
<polygon fill="#ffffff" fill-opacity="0.003922" stroke="none" stroke-width="2" points="866.5,-389.21 792.5,-389.21 792.5,-353.21 866.5,-353.21 866.5,-389.21"/>
<text text-anchor="start" x="803.5" y="-367.61" font-family="Helvetica,sans-Serif" font-size="12.00">cancelled</text>
<path fill="none" stroke="black" stroke-width="2" d="M804.5,-354.71C804.5,-354.71 854.5,-354.71 854.5,-354.71 860,-354.71 865.5,-360.21 865.5,-365.71 865.5,-365.71 865.5,-376.71 865.5,-376.71 865.5,-382.21 860,-387.71 854.5,-387.71 854.5,-387.71 804.5,-387.71 804.5,-387.71 799,-387.71 793.5,-382.21 793.5,-376.71 793.5,-376.71 793.5,-365.71 793.5,-365.71 793.5,-360.21 799,-354.71 804.5,-354.71"/>
</g>
<!-- error -->
<g id="node3" class="node state regular">
<title>error</title>
<polygon fill="#ffffff" fill-opacity="0.003922" stroke="none" stroke-width="2" points="857.5,-270.21 801.5,-270.21 801.5,-234.21 857.5,-234.21 857.5,-270.21"/>
<text text-anchor="start" x="817" y="-248.61" font-family="Helvetica,sans-Serif" font-size="12.00">error</text>
<path fill="none" stroke="black" stroke-width="2" d="M813.5,-235.71C813.5,-235.71 845.5,-235.71 845.5,-235.71 851,-235.71 856.5,-241.21 856.5,-246.71 856.5,-246.71 856.5,-257.71 856.5,-257.71 856.5,-263.21 851,-268.71 845.5,-268.71 845.5,-268.71 813.5,-268.71 813.5,-268.71 808,-268.71 802.5,-263.21 802.5,-257.71 802.5,-257.71 802.5,-246.71 802.5,-246.71 802.5,-241.21 808,-235.71 813.5,-235.71"/>
</g>
<!-- installed -->
<g id="node4" class="node state regular">
<title>installed</title>
<polygon fill="#ffffff" fill-opacity="0.003922" stroke="none" stroke-width="2" points="863.5,-151.21 795.5,-151.21 795.5,-115.21 863.5,-115.21 863.5,-151.21"/>
<text text-anchor="start" x="806.5" y="-129.61" font-family="Helvetica,sans-Serif" font-size="12.00">installed</text>
<path fill="none" stroke="black" stroke-width="2" d="M807.5,-116.71C807.5,-116.71 851.5,-116.71 851.5,-116.71 857,-116.71 862.5,-122.21 862.5,-127.71 862.5,-127.71 862.5,-138.71 862.5,-138.71 862.5,-144.21 857,-149.71 851.5,-149.71 851.5,-149.71 807.5,-149.71 807.5,-149.71 802,-149.71 796.5,-144.21 796.5,-138.71 796.5,-138.71 796.5,-127.71 796.5,-127.71 796.5,-122.21 802,-116.71 807.5,-116.71"/>
</g>
<!-- installing&#45;in&#45;progress -->
<g id="node5" class="node state regular">
<title>installing&#45;in&#45;progress</title>
<polygon fill="#ffffff" fill-opacity="0.003922" stroke="none" stroke-width="2" points="318,-236.21 184,-236.21 184,-200.21 318,-200.21 318,-236.21"/>
<text text-anchor="start" x="195" y="-214.61" font-family="Helvetica,sans-Serif" font-size="12.00">installing&#45;in&#45;progress</text>
<path fill="none" stroke="black" stroke-width="2" d="M196,-201.71C196,-201.71 306,-201.71 306,-201.71 311.5,-201.71 317,-207.21 317,-212.71 317,-212.71 317,-223.71 317,-223.71 317,-229.21 311.5,-234.71 306,-234.71 306,-234.71 196,-234.71 196,-234.71 190.5,-234.71 185,-229.21 185,-223.71 185,-223.71 185,-212.71 185,-212.71 185,-207.21 190.5,-201.71 196,-201.71"/>
</g>
<!-- installing&#45;in&#45;progress&#45;&gt;added&#45;to&#45;existing&#45;cluster -->
<g id="edge4" class="edge transition">
<title>installing&#45;in&#45;progress&#45;&gt;added&#45;to&#45;existing&#45;cluster</title>
<path fill="none" stroke="black" d="M254.48,-236.1C260.67,-273.1 280.48,-357.69 336,-395.21 400.1,-438.52 618.89,-435.65 742.2,-430.2"/>
<polygon fill="black" stroke="black" points="742.12,-433.71 751.95,-429.76 741.8,-426.72 742.12,-433.71"/>
<text text-anchor="start" x="372" y="-436.21" font-family="Helvetica,sans-Serif" font-size="10.00">null &#45; host progress changed to added&#45;to&#45;existing&#45;cluster for day2 host &#160;&#160;</text>
</g>
<!-- installing&#45;in&#45;progress&#45;&gt;cancelled -->
<g id="edge1" class="edge transition">
<title>installing&#45;in&#45;progress&#45;&gt;cancelled</title>
<path fill="none" stroke="black" d="M257.48,-236.13C267.58,-265.71 292.22,-323.99 336,-349.21 410.78,-392.28 673.33,-381.15 781.44,-374.48"/>
<polygon fill="black" stroke="black" points="781.36,-377.99 791.12,-373.87 780.92,-371.01 781.36,-377.99"/>
<text text-anchor="start" x="385" y="-383.21" font-family="Helvetica,sans-Serif" font-size="10.00">Cancel Installation &#45; Installation canceled while host is installing &#160;&#160;</text>
</g>
<!-- installing&#45;in&#45;progress&#45;&gt;error -->
<g id="edge2" class="edge transition">
<title>installing&#45;in&#45;progress&#45;&gt;error</title>
<path fill="none" stroke="black" d="M261.03,-235.93C274.01,-259.18 300.34,-298.92 336,-315.21 413.82,-350.76 638.43,-337.62 721,-315.21 748.75,-307.67 776.67,-290.98 797.1,-276.66"/>
<polygon fill="black" stroke="black" points="798.93,-279.66 804.99,-270.97 794.83,-273.99 798.93,-279.66"/>
<text text-anchor="start" x="394.5" y="-340.21" font-family="Helvetica,sans-Serif" font-size="10.00">Installation Failed &#45; Installation failed while host is installing &#160;&#160;</text>
</g>
<!-- installing&#45;in&#45;progress&#45;&gt;error -->
<g id="edge7" class="edge transition">
<title>installing&#45;in&#45;progress&#45;&gt;error</title>
<path fill="none" stroke="black" d="M268.7,-236.01C284.38,-251.34 309.37,-272.33 336,-281.21 417.17,-308.26 636.19,-292.45 721,-281.21 744.61,-278.08 770.39,-271.25 790.78,-265"/>
<polygon fill="black" stroke="black" points="791.58,-268.42 800.07,-262.07 789.48,-261.74 791.58,-268.42"/>
<text text-anchor="start" x="345.5" y="-298.21" font-family="Helvetica,sans-Serif" font-size="10.00">Media Disconnect &#45; Move to error when virtual media disconnects post&#45;installation &#160;&#160;</text>
</g>
<!-- installing&#45;in&#45;progress&#45;&gt;error -->
<g id="edge8" class="edge transition">
<title>installing&#45;in&#45;progress&#45;&gt;error</title>
<path fill="none" stroke="black" d="M295.33,-236.14C308.19,-240.65 322.47,-244.87 336,-247.21 503.04,-276.1 706.72,-263.24 790.12,-255.97"/>
<polygon fill="black" stroke="black" points="790.38,-259.46 800.03,-255.08 789.75,-252.49 790.38,-259.46"/>
<text text-anchor="start" x="412" y="-267.21" font-family="Helvetica,sans-Serif" font-size="10.00">Refresh &#45; Move host to error when cluster is in error &#160;&#160;</text>
</g>
<!-- installing&#45;in&#45;progress&#45;&gt;error -->
<g id="edge9" class="edge transition">
<title>installing&#45;in&#45;progress&#45;&gt;error</title>
<path fill="none" stroke="black" d="M317.82,-217.73C408.72,-217.68 577.72,-219.83 721,-234.21 744.25,-236.54 770.07,-240.81 790.58,-244.6"/>
<polygon fill="black" stroke="black" points="789.72,-248 800.2,-246.43 791.02,-241.13 789.72,-248"/>
<text text-anchor="start" x="382.5" y="-237.21" font-family="Helvetica,sans-Serif" font-size="10.00">Refresh &#45; Move installing host to error when connection times out &#160;&#160;</text>
</g>
<!-- installing&#45;in&#45;progress&#45;&gt;error -->
<g id="edge11" class="edge transition">
<title>installing&#45;in&#45;progress&#45;&gt;error</title>
<path fill="none" stroke="black" d="M317.86,-204.45C323.97,-203.54 330.09,-202.77 336,-202.21 506.35,-186.13 553.93,-165.25 721,-202.21 745.82,-207.7 771.7,-219.52 791.85,-230.3"/>
<polygon fill="black" stroke="black" points="790.06,-233.3 800.51,-235.06 793.44,-227.17 790.06,-233.3"/>
<text text-anchor="start" x="336" y="-205.21" font-family="Helvetica,sans-Serif" font-size="10.00">Refresh &#45; Move to error on timeout if host is in particular installation in progress stages &#160;&#160;</text>
</g>
<!-- installing&#45;in&#45;progress&#45;&gt;error -->
<g id="edge15" class="edge transition">
<title>installing&#45;in&#45;progress&#45;&gt;error</title>
<path fill="none" stroke="black" d="M273.2,-200.42C289.29,-188.14 312.57,-172.87 336,-166.21 418.29,-142.8 640.27,-137.89 721,-166.21 754.75,-178.05 785.77,-205.42 805.72,-226.13"/>
<polygon fill="black" stroke="black" points="803.15,-228.51 812.54,-233.43 808.27,-223.73 803.15,-228.51"/>
<text text-anchor="start" x="432" y="-169.21" font-family="Helvetica,sans-Serif" font-size="10.00">Register Host &#45; Register during installation &#160;&#160;</text>
</g>
<!-- installing&#45;in&#45;progress&#45;&gt;installed -->
<g id="edge5" class="edge transition">
<title>installing&#45;in&#45;progress&#45;&gt;installed</title>
<path fill="none" stroke="black" d="M263,-200.27C276.99,-179.38 303.3,-145.98 336,-132.21 416.04,-98.5 679.15,-118.92 784.41,-128.79"/>
<polygon fill="black" stroke="black" points="783.77,-132.24 794.05,-129.7 784.43,-125.27 783.77,-132.24"/>
<text text-anchor="start" x="437" y="-135.21" font-family="Helvetica,sans-Serif" font-size="10.00">null &#45; host progress changed to installed &#160;&#160;</text>
</g>
<!-- installing&#45;in&#45;progress&#45;&gt;installing&#45;in&#45;progress -->
<g id="edge3" class="edge transition">
<title>installing&#45;in&#45;progress&#45;&gt;installing&#45;in&#45;progress</title>
<path fill="none" stroke="black" d="M238.53,-235.99C236.41,-245.52 240.57,-254.21 251,-254.21 256.87,-254.21 260.75,-251.46 262.65,-247.36"/>
<polygon fill="black" stroke="black" points="266.13,-247.73 263.36,-237.5 259.15,-247.22 266.13,-247.73"/>
<text text-anchor="start" x="91.5" y="-257.21" font-family="Helvetica,sans-Serif" font-size="10.00">null &#45; host progress installing&#45;in&#45;progress on rebooting in kube&#45;api mode &#160;&#160;</text>
</g>
<!-- installing&#45;in&#45;progress&#45;&gt;installing&#45;in&#45;progress -->
<g id="edge6" class="edge transition">
<title>installing&#45;in&#45;progress&#45;&gt;installing&#45;in&#45;progress</title>
<path fill="none" stroke="black" d="M230.14,-236.19C218.98,-253.41 225.93,-272.21 251,-272.21 270.98,-272.21 279.45,-260.27 276.42,-246.71"/>
<polygon fill="black" stroke="black" points="279.65,-245.36 272.46,-237.58 273.22,-248.14 279.65,-245.36"/>
<text text-anchor="start" x="168.5" y="-275.21" font-family="Helvetica,sans-Serif" font-size="10.00">null &#45; default host progress changed &#160;&#160;</text>
</g>
<!-- installing&#45;in&#45;progress&#45;&gt;installing&#45;in&#45;progress -->
<g id="edge10" class="edge transition">
<title>installing&#45;in&#45;progress&#45;&gt;installing&#45;in&#45;progress</title>
<path fill="none" stroke="black" d="M225.02,-235.92C201.28,-260.32 209.94,-290.21 251,-290.21 287.24,-290.21 298.24,-266.92 283.99,-244.67"/>
<polygon fill="black" stroke="black" points="286.91,-242.72 277.93,-237.1 281.45,-247.1 286.91,-242.72"/>
<text text-anchor="start" x="80" y="-293.21" font-family="Helvetica,sans-Serif" font-size="10.00">Refresh &#45; Ignore timeout if host is in particular installation in progress stages &#160;&#160;</text>
</g>
<!-- installing&#45;in&#45;progress&#45;&gt;installing&#45;in&#45;progress -->
<g id="edge13" class="edge transition">
<title>installing&#45;in&#45;progress&#45;&gt;installing&#45;in&#45;progress</title>
<path fill="none" stroke="black" d="M221.11,-236.1C183.72,-267.25 193.68,-308.21 251,-308.21 303.61,-308.21 316.33,-273.7 289.13,-243.94"/>
<polygon fill="black" stroke="black" points="291.65,-241.49 281.99,-237.14 286.82,-246.57 291.65,-241.49"/>
<text text-anchor="start" x="0" y="-311.21" font-family="Helvetica,sans-Serif" font-size="10.00">Refresh &#45; Refresh during installing&#45;in&#45;progress state without cluster error should stay in installing&#45;in&#45;progress state &#160;&#160;</text>
</g>
<!-- installing&#45;pending&#45;user&#45;action -->
<g id="node6" class="node state regular">
<title>installing&#45;pending&#45;user&#45;action</title>
<polygon fill="#ffffff" fill-opacity="0.003922" stroke="none" stroke-width="2" points="920,-97.21 739,-97.21 739,-61.21 920,-61.21 920,-97.21"/>
<text text-anchor="start" x="750.5" y="-75.61" font-family="Helvetica,sans-Serif" font-size="12.00">installing&#45;pending&#45;user&#45;action</text>
<path fill="none" stroke="black" stroke-width="2" d="M751,-62.71C751,-62.71 908,-62.71 908,-62.71 913.5,-62.71 919,-68.21 919,-73.71 919,-73.71 919,-84.71 919,-84.71 919,-90.21 913.5,-95.71 908,-95.71 908,-95.71 751,-95.71 751,-95.71 745.5,-95.71 740,-90.21 740,-84.71 740,-84.71 740,-73.71 740,-73.71 740,-68.21 745.5,-62.71 751,-62.71"/>
</g>
<!-- installing&#45;in&#45;progress&#45;&gt;installing&#45;pending&#45;user&#45;action -->
<g id="edge12" class="edge transition">
<title>installing&#45;in&#45;progress&#45;&gt;installing&#45;pending&#45;user&#45;action</title>
<path fill="none" stroke="black" d="M258.45,-200.39C269.5,-172.8 294.92,-120.61 336,-98.21 369.35,-80.02 593.4,-77.92 727.55,-78.34"/>
<polygon fill="black" stroke="black" points="727.51,-81.84 737.53,-78.38 727.54,-74.84 727.51,-81.84"/>
<text text-anchor="start" x="390" y="-101.21" font-family="Helvetica,sans-Serif" font-size="10.00">Refresh &#45; Tell user about boot order wen reboot takes too long &#160;&#160;</text>
</g>
<!-- installing&#45;in&#45;progress&#45;&gt;installing&#45;pending&#45;user&#45;action -->
<g id="edge14" class="edge transition">
<title>installing&#45;in&#45;progress&#45;&gt;installing&#45;pending&#45;user&#45;action</title>
<path fill="none" stroke="black" d="M255.57,-200.27C263.38,-166.51 285.46,-94.21 336,-64.21 399.86,-26.3 603.66,-46.71 728.19,-63.78"/>
<polygon fill="black" stroke="black" points="727.36,-67.19 737.75,-65.1 728.32,-60.26 727.36,-67.19"/>
<text text-anchor="start" x="430.5" y="-67.21" font-family="Helvetica,sans-Serif" font-size="10.00">Register Host &#45; Wrong boot order detection &#160;&#160;</text>
</g>
<!-- resetting&#45;pending&#45;user&#45;action -->
<g id="node7" class="node state regular">
<title>resetting&#45;pending&#45;user&#45;action</title>
<polygon fill="#ffffff" fill-opacity="0.003922" stroke="none" stroke-width="2" points="919,-43.21 740,-43.21 740,-7.21 919,-7.21 919,-43.21"/>
<text text-anchor="start" x="751.5" y="-21.61" font-family="Helvetica,sans-Serif" font-size="12.00">resetting&#45;pending&#45;user&#45;action</text>
<path fill="none" stroke="black" stroke-width="2" d="M752,-8.71C752,-8.71 907,-8.71 907,-8.71 912.5,-8.71 918,-14.21 918,-19.71 918,-19.71 918,-30.71 918,-30.71 918,-36.21 912.5,-41.71 907,-41.71 907,-41.71 752,-41.71 752,-41.71 746.5,-41.71 741,-36.21 741,-30.71 741,-30.71 741,-19.71 741,-19.71 741,-14.21 746.5,-8.71 752,-8.71"/>
</g>
<!-- installing&#45;in&#45;progress&#45;&gt;resetting&#45;pending&#45;user&#45;action -->
<g id="edge16" class="edge transition">
<title>installing&#45;in&#45;progress&#45;&gt;resetting&#45;pending&#45;user&#45;action</title>
<path fill="none" stroke="black" d="M253.6,-200.49C258.22,-161.16 275.41,-66.93 336,-27.21 398.3,13.63 603.95,-0.2 728.95,-13.19"/>
<polygon fill="black" stroke="black" points="728.22,-16.64 738.53,-14.21 728.96,-9.67 728.22,-16.64"/>
<text text-anchor="start" x="373" y="-30.21" font-family="Helvetica,sans-Serif" font-size="10.00">Resetting, Pending User Action &#45; Reset pending user action all states &#160;&#160;</text>
</g>
</g>
</svg>
