<?xml version="1.0" encoding="UTF-8" standalone="no"?>
<!DOCTYPE svg PUBLIC "-//W3C//DTD SVG 1.1//EN"
 "http://www.w3.org/Graphics/SVG/1.1/DTD/svg11.dtd">
<!-- Generated by graphviz version 7.1.0 (0)
 -->
<!-- Title: state transitions Pages: 1 -->
<svg width="744pt" height="352pt"
 viewBox="0.00 0.00 744.00 352.44" xmlns="http://www.w3.org/2000/svg" xmlns:xlink="http://www.w3.org/1999/xlink">
<g id="graph0" class="graph" transform="scale(1 1) rotate(0) translate(4 348.44)">
<title>state transitions</title>
<polygon fill="white" stroke="none" points="-4,4 -4,-348.44 740,-348.44 740,4 -4,4"/>
<!-- disconnected -->
<g id="node1" class="node state regular">
<title>disconnected</title>
<polygon fill="#ffffff" fill-opacity="0.003922" stroke="none" stroke-width="2" points="693.5,-329.44 599.5,-329.44 599.5,-293.44 693.5,-293.44 693.5,-329.44"/>
<text text-anchor="start" x="610.5" y="-307.84" font-family="Helvetica,sans-Serif" font-size="12.00">disconnected</text>
<path fill="none" stroke="black" stroke-width="2" d="M611.5,-294.94C611.5,-294.94 681.5,-294.94 681.5,-294.94 687,-294.94 692.5,-300.44 692.5,-305.94 692.5,-305.94 692.5,-316.94 692.5,-316.94 692.5,-322.44 687,-327.94 681.5,-327.94 681.5,-327.94 611.5,-327.94 611.5,-327.94 606,-327.94 600.5,-322.44 600.5,-316.94 600.5,-316.94 600.5,-305.94 600.5,-305.94 600.5,-300.44 606,-294.94 611.5,-294.94"/>
</g>
<!-- discovering -->
<g id="node2" class="node state regular">
<title>discovering</title>
<polygon fill="#ffffff" fill-opacity="0.003922" stroke="none" stroke-width="2" points="688.5,-275.44 604.5,-275.44 604.5,-239.44 688.5,-239.44 688.5,-275.44"/>
<text text-anchor="start" x="615.5" y="-253.84" font-family="Helvetica,sans-Serif" font-size="12.00">discovering</text>
<path fill="none" stroke="black" stroke-width="2" d="M616.5,-240.94C616.5,-240.94 676.5,-240.94 676.5,-240.94 682,-240.94 687.5,-246.44 687.5,-251.94 687.5,-251.94 687.5,-262.94 687.5,-262.94 687.5,-268.44 682,-273.94 676.5,-273.94 676.5,-273.94 616.5,-273.94 616.5,-273.94 611,-273.94 605.5,-268.44 605.5,-262.94 605.5,-262.94 605.5,-251.94 605.5,-251.94 605.5,-246.44 611,-240.94 616.5,-240.94"/>
</g>
<!-- error -->
<g id="node3" class="node state regular">
<title>error</title>
<polygon fill="#ffffff" fill-opacity="0.003922" stroke="none" stroke-width="2" points="674.5,-221.44 618.5,-221.44 618.5,-185.44 674.5,-185.44 674.5,-221.44"/>
<text text-anchor="start" x="634" y="-199.84" font-family="Helvetica,sans-Serif" font-size="12.00">error</text>
<path fill="none" stroke="black" stroke-width="2" d="M630.5,-186.94C630.5,-186.94 662.5,-186.94 662.5,-186.94 668,-186.94 673.5,-192.44 673.5,-197.94 673.5,-197.94 673.5,-208.94 673.5,-208.94 673.5,-214.44 668,-219.94 662.5,-219.94 662.5,-219.94 630.5,-219.94 630.5,-219.94 625,-219.94 619.5,-214.44 619.5,-208.94 619.5,-208.94 619.5,-197.94 619.5,-197.94 619.5,-192.44 625,-186.94 630.5,-186.94"/>
</g>
<!-- installing -->
<g id="node4" class="node state regular">
<title>installing</title>
<polygon fill="#ffffff" fill-opacity="0.003922" stroke="none" stroke-width="2" points="682,-167.44 611,-167.44 611,-131.44 682,-131.44 682,-167.44"/>
<text text-anchor="start" x="622.5" y="-145.84" font-family="Helvetica,sans-Serif" font-size="12.00">installing</text>
<path fill="none" stroke="black" stroke-width="2" d="M623,-132.94C623,-132.94 670,-132.94 670,-132.94 675.5,-132.94 681,-138.44 681,-143.94 681,-143.94 681,-154.94 681,-154.94 681,-160.44 675.5,-165.94 670,-165.94 670,-165.94 623,-165.94 623,-165.94 617.5,-165.94 612,-160.44 612,-154.94 612,-154.94 612,-143.94 612,-143.94 612,-138.44 617.5,-132.94 623,-132.94"/>
</g>
<!-- known -->
<g id="node5" class="node state regular">
<title>known</title>
<polygon fill="#ffffff" fill-opacity="0.003922" stroke="none" stroke-width="2" points="675.5,-113.44 617.5,-113.44 617.5,-77.44 675.5,-77.44 675.5,-113.44"/>
<text text-anchor="start" x="628.5" y="-91.84" font-family="Helvetica,sans-Serif" font-size="12.00">known</text>
<path fill="none" stroke="black" stroke-width="2" d="M629.5,-78.94C629.5,-78.94 663.5,-78.94 663.5,-78.94 669,-78.94 674.5,-84.44 674.5,-89.94 674.5,-89.94 674.5,-100.94 674.5,-100.94 674.5,-106.44 669,-111.94 663.5,-111.94 663.5,-111.94 629.5,-111.94 629.5,-111.94 624,-111.94 618.5,-106.44 618.5,-100.94 618.5,-100.94 618.5,-89.94 618.5,-89.94 618.5,-84.44 624,-78.94 629.5,-78.94"/>
</g>
<!-- preparing&#45;successful -->
<g id="node6" class="node state regular">
<title>preparing&#45;successful</title>
<polygon fill="#ffffff" fill-opacity="0.003922" stroke="none" stroke-width="2" points="155,-174.44 21,-174.44 21,-138.44 155,-138.44 155,-174.44"/>
<text text-anchor="start" x="32" y="-152.84" font-family="Helvetica,sans-Serif" font-size="12.00">preparing&#45;successful</text>
<path fill="none" stroke="black" stroke-width="2" d="M33,-139.94C33,-139.94 143,-139.94 143,-139.94 148.5,-139.94 154,-145.44 154,-150.94 154,-150.94 154,-161.94 154,-161.94 154,-167.44 148.5,-172.94 143,-172.94 143,-172.94 33,-172.94 33,-172.94 27.5,-172.94 22,-167.44 22,-161.94 22,-161.94 22,-150.94 22,-150.94 22,-145.44 27.5,-139.94 33,-139.94"/>
</g>
<!-- preparing&#45;successful&#45;&gt;disconnected -->
<g id="edge6" class="edge transition">
<title>preparing&#45;successful&#45;&gt;disconnected</title>
<path fill="none" stroke="black" d="M95.54,-174.09C106.73,-201.44 132.32,-253.31 173,-276.44 305.82,-351.96 494.66,-336.32 588.29,-322.04"/>
<polygon fill="black" stroke="black" points="588.68,-325.53 598.01,-320.51 587.58,-318.61 588.68,-325.53"/>
<text text-anchor="start" x="190" y="-336.44" font-family="Helvetica,sans-Serif" font-size="10.00">Refresh &#45; Move preparing host to disconnected when connection times out &#160;&#160;</text>
</g>
<!-- preparing&#45;successful&#45;&gt;discovering -->
<g id="edge7" class="edge transition">
<title>preparing&#45;successful&#45;&gt;discovering</title>
<path fill="none" stroke="black" d="M109.51,-174.37C125.61,-187.33 149.22,-203.99 173,-212.44 318.46,-264.14 504.06,-264.27 593.15,-260.62"/>
<polygon fill="black" stroke="black" points="593.21,-264.12 603.05,-260.18 592.9,-257.13 593.21,-264.12"/>
<text text-anchor="start" x="285" y="-264.44" font-family="Helvetica,sans-Serif" font-size="10.00">Register Host &#45; Re&#45;registration &#160;&#160;</text>
</g>
<!-- preparing&#45;successful&#45;&gt;error -->
<g id="edge2" class="edge transition">
<title>preparing&#45;successful&#45;&gt;error</title>
<path fill="none" stroke="black" d="M154.96,-167.17C161.05,-168 167.13,-168.78 173,-169.44 334.04,-187.67 527.13,-197.98 607.5,-201.76"/>
<polygon fill="black" stroke="black" points="606.86,-205.24 617.01,-202.2 607.19,-198.25 606.86,-205.24"/>
<text text-anchor="start" x="173" y="-200.44" font-family="Helvetica,sans-Serif" font-size="10.00">Media Disconnect &#45; Move to error when virtual media disconnects post&#45;installation &#160;&#160;</text>
</g>
<!-- preparing&#45;successful&#45;&gt;installing -->
<g id="edge4" class="edge transition">
<title>preparing&#45;successful&#45;&gt;installing</title>
<path fill="none" stroke="black" d="M154.75,-155.62C269.03,-154.18 501.5,-151.25 599.89,-150.02"/>
<polygon fill="black" stroke="black" points="599.74,-153.52 609.69,-149.89 599.65,-146.52 599.74,-153.52"/>
<text text-anchor="start" x="232" y="-157.44" font-family="Helvetica,sans-Serif" font-size="10.00">Refresh &#45; Move successfully prepared host to installing &#160;&#160;</text>
</g>
<!-- preparing&#45;successful&#45;&gt;known -->
<g id="edge1" class="edge transition">
<title>preparing&#45;successful&#45;&gt;known</title>
<path fill="none" stroke="black" d="M154.82,-138.93C160.94,-137.62 167.07,-136.43 173,-135.44 256.12,-121.63 508.45,-104.33 606.21,-97.95"/>
<polygon fill="black" stroke="black" points="606.35,-101.45 616.11,-97.31 605.9,-94.46 606.35,-101.45"/>
<text text-anchor="start" x="257.5" y="-138.44" font-family="Helvetica,sans-Serif" font-size="10.00">Cancel Installation &#45; Cancel while preparing &#160;&#160;</text>
</g>
<!-- preparing&#45;successful&#45;&gt;known -->
<g id="edge5" class="edge transition">
<title>preparing&#45;successful&#45;&gt;known</title>
<path fill="none" stroke="black" d="M103.87,-138.59C119.19,-121.73 144.75,-97.56 173,-87.44 325.55,-32.82 523.94,-67.24 606.65,-85.82"/>
<polygon fill="black" stroke="black" points="605.76,-89.21 616.29,-88.04 607.33,-82.39 605.76,-89.21"/>
<text text-anchor="start" x="185.5" y="-90.44" font-family="Helvetica,sans-Serif" font-size="10.00">Refresh &#45; Successful preparing to known when cluster is no longer preparing &#160;&#160;</text>
</g>
<!-- preparing&#45;successful&#45;&gt;preparing&#45;successful -->
<g id="edge3" class="edge transition">
<title>preparing&#45;successful&#45;&gt;preparing&#45;successful</title>
<path fill="none" stroke="black" d="M39.82,-174.22C31.64,-183.76 47.7,-192.44 88,-192.44 111.3,-192.44 126.5,-189.54 133.59,-185.25"/>
<polygon fill="black" stroke="black" points="136.96,-186.23 135.83,-175.7 130.14,-184.64 136.96,-186.23"/>
<text text-anchor="start" x="0" y="-195.44" font-family="Helvetica,sans-Serif" font-size="10.00">Refresh &#45; Stay in preparing successful &#160;&#160;</text>
</g>
<!-- resetting&#45;pending&#45;user&#45;action -->
<g id="node7" class="node state regular">
<title>resetting&#45;pending&#45;user&#45;action</title>
<polygon fill="#ffffff" fill-opacity="0.003922" stroke="none" stroke-width="2" points="736,-59.44 557,-59.44 557,-23.44 736,-23.44 736,-59.44"/>
<text text-anchor="start" x="568.5" y="-37.84" font-family="Helvetica,sans-Serif" font-size="12.00">resetting&#45;pending&#45;user&#45;action</text>
<path fill="none" stroke="black" stroke-width="2" d="M569,-24.94C569,-24.94 724,-24.94 724,-24.94 729.5,-24.94 735,-30.44 735,-35.94 735,-35.94 735,-46.94 735,-46.94 735,-52.44 729.5,-57.94 724,-57.94 724,-57.94 569,-57.94 569,-57.94 563.5,-57.94 558,-52.44 558,-46.94 558,-46.94 558,-35.94 558,-35.94 558,-30.44 563.5,-24.94 569,-24.94"/>
</g>
<!-- preparing&#45;successful&#45;&gt;resetting&#45;pending&#45;user&#45;action -->
<g id="edge8" class="edge transition">
<title>preparing&#45;successful&#45;&gt;resetting&#45;pending&#45;user&#45;action</title>
<path fill="none" stroke="black" d="M95.81,-138.88C107.19,-112.29 132.87,-62.77 173,-42.44 298.77,21.28 468.65,-0.11 566.71,-21.05"/>
<polygon fill="black" stroke="black" points="565.72,-24.42 576.24,-23.14 567.22,-17.58 565.72,-24.42"/>
<text text-anchor="start" x="200.5" y="-45.44" font-family="Helvetica,sans-Serif" font-size="10.00">Resetting, Pending User Action &#45; Reset pending user action all states &#160;&#160;</text>
</g>
</g>
</svg>
