<?xml version="1.0" encoding="UTF-8" standalone="no"?>
<!DOCTYPE svg PUBLIC "-//W3C//DTD SVG 1.1//EN"
 "http://www.w3.org/Graphics/SVG/1.1/DTD/svg11.dtd">
<!-- Generated by graphviz version 7.1.0 (0)
 -->
<!-- Title: state transitions Pages: 1 -->
<svg width="696pt" height="262pt"
 viewBox="0.00 0.00 696.00 262.00" xmlns="http://www.w3.org/2000/svg" xmlns:xlink="http://www.w3.org/1999/xlink">
<g id="graph0" class="graph" transform="scale(1 1) rotate(0) translate(4 258)">
<title>state transitions</title>
<polygon fill="white" stroke="none" points="-4,4 -4,-258 692,-258 692,4 -4,4"/>
<!-- disconnected -->
<g id="node1" class="node state regular">
<title>disconnected</title>
<polygon fill="#ffffff" fill-opacity="0.003922" stroke="none" stroke-width="2" points="645.5,-252 551.5,-252 551.5,-216 645.5,-216 645.5,-252"/>
<text text-anchor="start" x="562.5" y="-230.4" font-family="Helvetica,sans-Serif" font-size="12.00">disconnected</text>
<path fill="none" stroke="black" stroke-width="2" d="M563.5,-217.5C563.5,-217.5 633.5,-217.5 633.5,-217.5 639,-217.5 644.5,-223 644.5,-228.5 644.5,-228.5 644.5,-239.5 644.5,-239.5 644.5,-245 639,-250.5 633.5,-250.5 633.5,-250.5 563.5,-250.5 563.5,-250.5 558,-250.5 552.5,-245 552.5,-239.5 552.5,-239.5 552.5,-228.5 552.5,-228.5 552.5,-223 558,-217.5 563.5,-217.5"/>
</g>
<!-- error -->
<g id="node2" class="node state regular">
<title>error</title>
<polygon fill="#ffffff" fill-opacity="0.003922" stroke="none" stroke-width="2" points="626.5,-198 570.5,-198 570.5,-162 626.5,-162 626.5,-198"/>
<text text-anchor="start" x="586" y="-176.4" font-family="Helvetica,sans-Serif" font-size="12.00">error</text>
<path fill="none" stroke="black" stroke-width="2" d="M582.5,-163.5C582.5,-163.5 614.5,-163.5 614.5,-163.5 620,-163.5 625.5,-169 625.5,-174.5 625.5,-174.5 625.5,-185.5 625.5,-185.5 625.5,-191 620,-196.5 614.5,-196.5 614.5,-196.5 582.5,-196.5 582.5,-196.5 577,-196.5 571.5,-191 571.5,-185.5 571.5,-185.5 571.5,-174.5 571.5,-174.5 571.5,-169 577,-163.5 582.5,-163.5"/>
</g>
<!-- insufficient -->
<g id="node3" class="node state regular">
<title>insufficient</title>
<polygon fill="#ffffff" fill-opacity="0.003922" stroke="none" stroke-width="2" points="638.5,-144 558.5,-144 558.5,-108 638.5,-108 638.5,-144"/>
<text text-anchor="start" x="569.5" y="-122.4" font-family="Helvetica,sans-Serif" font-size="12.00">insufficient</text>
<path fill="none" stroke="black" stroke-width="2" d="M570.5,-109.5C570.5,-109.5 626.5,-109.5 626.5,-109.5 632,-109.5 637.5,-115 637.5,-120.5 637.5,-120.5 637.5,-131.5 637.5,-131.5 637.5,-137 632,-142.5 626.5,-142.5 626.5,-142.5 570.5,-142.5 570.5,-142.5 565,-142.5 559.5,-137 559.5,-131.5 559.5,-131.5 559.5,-120.5 559.5,-120.5 559.5,-115 565,-109.5 570.5,-109.5"/>
</g>
<!-- known -->
<g id="node4" class="node state regular">
<title>known</title>
<polygon fill="#ffffff" fill-opacity="0.003922" stroke="none" stroke-width="2" points="627.5,-90 569.5,-90 569.5,-54 627.5,-54 627.5,-90"/>
<text text-anchor="start" x="580.5" y="-68.4" font-family="Helvetica,sans-Serif" font-size="12.00">known</text>
<path fill="none" stroke="black" stroke-width="2" d="M581.5,-55.5C581.5,-55.5 615.5,-55.5 615.5,-55.5 621,-55.5 626.5,-61 626.5,-66.5 626.5,-66.5 626.5,-77.5 626.5,-77.5 626.5,-83 621,-88.5 615.5,-88.5 615.5,-88.5 581.5,-88.5 581.5,-88.5 576,-88.5 570.5,-83 570.5,-77.5 570.5,-77.5 570.5,-66.5 570.5,-66.5 570.5,-61 576,-55.5 581.5,-55.5"/>
</g>
<!-- preparing&#45;failed -->
<g id="node5" class="node state regular">
<title>preparing&#45;failed</title>
<polygon fill="#ffffff" fill-opacity="0.003922" stroke="none" stroke-width="2" points="107,-144 0,-144 0,-108 107,-108 107,-144"/>
<text text-anchor="start" x="11.5" y="-122.4" font-family="Helvetica,sans-Serif" font-size="12.00">preparing&#45;failed</text>
<path fill="none" stroke="black" stroke-width="2" d="M12,-109.5C12,-109.5 95,-109.5 95,-109.5 100.5,-109.5 106,-115 106,-120.5 106,-120.5 106,-131.5 106,-131.5 106,-137 100.5,-142.5 95,-142.5 95,-142.5 12,-142.5 12,-142.5 6.5,-142.5 1,-137 1,-131.5 1,-131.5 1,-120.5 1,-120.5 1,-115 6.5,-109.5 12,-109.5"/>
</g>
<!-- preparing&#45;failed&#45;&gt;disconnected -->
<g id="edge4" class="edge transition">
<title>preparing&#45;failed&#45;&gt;disconnected</title>
<path fill="none" stroke="black" d="M68.63,-143.8C81.57,-158.67 102.14,-179.01 125,-189 264.38,-249.93 448.45,-246.39 540.27,-239.67"/>
<polygon fill="black" stroke="black" points="540.33,-243.18 550.03,-238.91 539.79,-236.2 540.33,-243.18"/>
<text text-anchor="start" x="164.5" y="-246" font-family="Helvetica,sans-Serif" font-size="10.00">Refresh &#45; Move host to disconnected when connected times out &#160;&#160;</text>
</g>
<!-- preparing&#45;failed&#45;&gt;error -->
<g id="edge1" class="edge transition">
<title>preparing&#45;failed&#45;&gt;error</title>
<path fill="none" stroke="black" d="M106.72,-137.89C112.86,-139.05 119.06,-140.13 125,-141 285.67,-164.63 479.33,-175 559.7,-178.52"/>
<polygon fill="black" stroke="black" points="559.07,-181.99 569.21,-178.92 559.37,-175 559.07,-181.99"/>
<text text-anchor="start" x="125" y="-177" font-family="Helvetica,sans-Serif" font-size="10.00">Media Disconnect &#45; Move to error when virtual media disconnects post&#45;installation &#160;&#160;</text>
</g>
<!-- preparing&#45;failed&#45;&gt;insufficient -->
<g id="edge2" class="edge transition">
<title>preparing&#45;failed&#45;&gt;insufficient</title>
<path fill="none" stroke="black" d="M106.57,-126C210.98,-126 444.71,-126 547.44,-126"/>
<polygon fill="black" stroke="black" points="547.21,-129.5 557.21,-126 547.21,-122.5 547.21,-129.5"/>
<text text-anchor="start" x="168.5" y="-129" font-family="Helvetica,sans-Serif" font-size="10.00">Refresh &#45; Preparing failed disk speed host move to insufficient &#160;&#160;</text>
</g>
<!-- preparing&#45;failed&#45;&gt;known -->
<g id="edge3" class="edge transition">
<title>preparing&#45;failed&#45;&gt;known</title>
<path fill="none" stroke="black" d="M106.72,-114.11C112.86,-112.95 119.06,-111.87 125,-111 284.73,-87.51 477.07,-77.12 558.28,-73.55"/>
<polygon fill="black" stroke="black" points="558.31,-77.05 568.15,-73.12 558.01,-70.06 558.31,-77.05"/>
<text text-anchor="start" x="148.5" y="-114" font-family="Helvetica,sans-Serif" font-size="10.00">Refresh &#45; Failed preparing to known when cluster is no longer preparing &#160;&#160;</text>
</g>
<!-- resetting&#45;pending&#45;user&#45;action -->
<g id="node6" class="node state regular">
<title>resetting&#45;pending&#45;user&#45;action</title>
<polygon fill="#ffffff" fill-opacity="0.003922" stroke="none" stroke-width="2" points="688,-36 509,-36 509,0 688,0 688,-36"/>
<text text-anchor="start" x="520.5" y="-14.4" font-family="Helvetica,sans-Serif" font-size="12.00">resetting&#45;pending&#45;user&#45;action</text>
<path fill="none" stroke="black" stroke-width="2" d="M521,-1.5C521,-1.5 676,-1.5 676,-1.5 681.5,-1.5 687,-7 687,-12.5 687,-12.5 687,-23.5 687,-23.5 687,-29 681.5,-34.5 676,-34.5 676,-34.5 521,-34.5 521,-34.5 515.5,-34.5 510,-29 510,-23.5 510,-23.5 510,-12.5 510,-12.5 510,-7 515.5,-1.5 521,-1.5"/>
</g>
<!-- preparing&#45;failed&#45;&gt;resetting&#45;pending&#45;user&#45;action -->
<g id="edge5" class="edge transition">
<title>preparing&#45;failed&#45;&gt;resetting&#45;pending&#45;user&#45;action</title>
<path fill="none" stroke="black" d="M68.31,-108.21C81.19,-93.07 101.85,-72.2 125,-62 245.21,-9.04 398.96,-4.98 497.84,-9.45"/>
<polygon fill="black" stroke="black" points="497.65,-12.95 507.81,-9.95 498,-5.96 497.65,-12.95"/>
<text text-anchor="start" x="152.5" y="-65" font-family="Helvetica,sans-Serif" font-size="10.00">Resetting, Pending User Action &#45; Reset pending user action all states &#160;&#160;</text>
</g>
</g>
</svg>
