<?xml version="1.0" encoding="UTF-8" standalone="no"?>
<!DOCTYPE svg PUBLIC "-//W3C//DTD SVG 1.1//EN"
 "http://www.w3.org/Graphics/SVG/1.1/DTD/svg11.dtd">
<!-- Generated by graphviz version 7.1.0 (0)
 -->
<!-- Title: state transitions Pages: 1 -->
<svg width="832pt" height="158pt"
 viewBox="0.00 0.00 832.00 158.00" xmlns="http://www.w3.org/2000/svg" xmlns:xlink="http://www.w3.org/1999/xlink">
<g id="graph0" class="graph" transform="scale(1 1) rotate(0) translate(4 154)">
<title>state transitions</title>
<polygon fill="white" stroke="none" points="-4,4 -4,-154 828,-154 828,4 -4,4"/>
<!-- discovering -->
<g id="node1" class="node state regular">
<title>discovering</title>
<polygon fill="#ffffff" fill-opacity="0.003922" stroke="none" stroke-width="2" points="824,-90 740,-90 740,-54 824,-54 824,-90"/>
<text text-anchor="start" x="751" y="-68.4" font-family="Helvetica,sans-Serif" font-size="12.00">discovering</text>
<path fill="none" stroke="black" stroke-width="2" d="M752,-55.5C752,-55.5 812,-55.5 812,-55.5 817.5,-55.5 823,-61 823,-66.5 823,-66.5 823,-77.5 823,-77.5 823,-83 817.5,-88.5 812,-88.5 812,-88.5 752,-88.5 752,-88.5 746.5,-88.5 741,-83 741,-77.5 741,-77.5 741,-66.5 741,-66.5 741,-61 746.5,-55.5 752,-55.5"/>
</g>
<!-- error -->
<g id="node2" class="node state regular">
<title>error</title>
<polygon fill="#ffffff" fill-opacity="0.003922" stroke="none" stroke-width="2" points="810,-36 754,-36 754,0 810,0 810,-36"/>
<text text-anchor="start" x="769.5" y="-14.4" font-family="Helvetica,sans-Serif" font-size="12.00">error</text>
<path fill="none" stroke="black" stroke-width="2" d="M766,-1.5C766,-1.5 798,-1.5 798,-1.5 803.5,-1.5 809,-7 809,-12.5 809,-12.5 809,-23.5 809,-23.5 809,-29 803.5,-34.5 798,-34.5 798,-34.5 766,-34.5 766,-34.5 760.5,-34.5 755,-29 755,-23.5 755,-23.5 755,-12.5 755,-12.5 755,-7 760.5,-1.5 766,-1.5"/>
</g>
<!-- resetting&#45;pending&#45;user&#45;action -->
<g id="node3" class="node state regular">
<title>resetting&#45;pending&#45;user&#45;action</title>
<polygon fill="#ffffff" fill-opacity="0.003922" stroke="none" stroke-width="2" points="471,-63 292,-63 292,-27 471,-27 471,-63"/>
<text text-anchor="start" x="303.5" y="-41.4" font-family="Helvetica,sans-Serif" font-size="12.00">resetting&#45;pending&#45;user&#45;action</text>
<path fill="none" stroke="black" stroke-width="2" d="M304,-28.5C304,-28.5 459,-28.5 459,-28.5 464.5,-28.5 470,-34 470,-39.5 470,-39.5 470,-50.5 470,-50.5 470,-56 464.5,-61.5 459,-61.5 459,-61.5 304,-61.5 304,-61.5 298.5,-61.5 293,-56 293,-50.5 293,-50.5 293,-39.5 293,-39.5 293,-34 298.5,-28.5 304,-28.5"/>
</g>
<!-- resetting&#45;pending&#45;user&#45;action&#45;&gt;discovering -->
<g id="edge4" class="edge transition">
<title>resetting&#45;pending&#45;user&#45;action&#45;&gt;discovering</title>
<path fill="none" stroke="black" d="M470.94,-50.99C550.11,-56.36 663.5,-64.04 728.96,-68.47"/>
<polygon fill="black" stroke="black" points="728.49,-71.95 738.7,-69.13 728.96,-64.97 728.49,-71.95"/>
<text text-anchor="start" x="534.5" y="-70" font-family="Helvetica,sans-Serif" font-size="10.00">Register Host &#45; Re&#45;registration &#160;&#160;</text>
</g>
<!-- resetting&#45;pending&#45;user&#45;action&#45;&gt;error -->
<g id="edge2" class="edge transition">
<title>resetting&#45;pending&#45;user&#45;action&#45;&gt;error</title>
<path fill="none" stroke="black" d="M470.94,-39.01C556.03,-33.24 680.65,-24.8 742.8,-20.59"/>
<polygon fill="black" stroke="black" points="742.76,-24.1 752.51,-19.93 742.29,-17.11 742.76,-24.1"/>
<text text-anchor="start" x="489" y="-40" font-family="Helvetica,sans-Serif" font-size="10.00">Refresh &#45; Move host to error when cluster is in error &#160;&#160;</text>
</g>
<!-- resetting&#45;pending&#45;user&#45;action&#45;&gt;resetting&#45;pending&#45;user&#45;action -->
<g id="edge1" class="edge transition">
<title>resetting&#45;pending&#45;user&#45;action&#45;&gt;resetting&#45;pending&#45;user&#45;action</title>
<path fill="none" stroke="black" d="M368.08,-62.78C365.8,-72.31 370.27,-81 381.5,-81 387.82,-81 392,-78.25 394.04,-74.15"/>
<polygon fill="black" stroke="black" points="397.52,-74.53 394.8,-64.29 390.54,-73.99 397.52,-74.53"/>
<text text-anchor="start" x="0" y="-84" font-family="Helvetica,sans-Serif" font-size="10.00">null &#45; Host progress change during resetting&#45;pending&#45;user&#45;action state when host is not in state Done (or Rebooting in day2) should stay in resetting&#45;pending&#45;user&#45;action state &#160;&#160;</text>
</g>
<!-- resetting&#45;pending&#45;user&#45;action&#45;&gt;resetting&#45;pending&#45;user&#45;action -->
<g id="edge3" class="edge transition">
<title>resetting&#45;pending&#45;user&#45;action&#45;&gt;resetting&#45;pending&#45;user&#45;action</title>
<path fill="none" stroke="black" d="M359.05,-62.98C347.04,-80.2 354.52,-99 381.5,-99 403.21,-99 412.3,-86.83 408.76,-73.1"/>
<polygon fill="black" stroke="black" points="412.05,-71.88 404.6,-64.35 405.73,-74.88 412.05,-71.88"/>
<text text-anchor="start" x="94.5" y="-102" font-family="Helvetica,sans-Serif" font-size="10.00">Refresh &#45; Refresh during resetting&#45;pending&#45;user&#45;action state without cluster error should stay in resetting&#45;pending&#45;user&#45;action state &#160;&#160;</text>
</g>
<!-- resetting&#45;pending&#45;user&#45;action&#45;&gt;resetting&#45;pending&#45;user&#45;action -->
<g id="edge5" class="edge transition">
<title>resetting&#45;pending&#45;user&#45;action&#45;&gt;resetting&#45;pending&#45;user&#45;action</title>
<path fill="none" stroke="black" d="M353.54,-62.72C327.99,-87.11 337.31,-117 381.5,-117 420.68,-117 432.45,-93.5 416.8,-71.17"/>
<polygon fill="black" stroke="black" points="419.65,-69.11 410.45,-63.86 414.37,-73.7 419.65,-69.11"/>
<text text-anchor="start" x="226" y="-120" font-family="Helvetica,sans-Serif" font-size="10.00">Resetting, Pending User Action &#45; Reset pending user action all states &#160;&#160;</text>
</g>
</g>
</svg>
