<?xml version="1.0" encoding="UTF-8" standalone="no"?>
<!DOCTYPE svg PUBLIC "-//W3C//DTD SVG 1.1//EN"
 "http://www.w3.org/Graphics/SVG/1.1/DTD/svg11.dtd">
<!-- Generated by graphviz version 12.1.0 (20240811.2233)
 -->
<!-- Title: state transitions Pages: 1 -->
<svg width="828pt" height="346pt"
 viewBox="0.00 0.00 827.75 345.89" xmlns="http://www.w3.org/2000/svg" xmlns:xlink="http://www.w3.org/1999/xlink">
<g id="graph0" class="graph" transform="scale(1 1) rotate(0) translate(4 341.89)">
<title>state transitions</title>
<polygon fill="white" stroke="none" points="-4,4 -4,-341.89 823.75,-341.89 823.75,4 -4,4"/>
<!-- disconnected -->
<g id="node1" class="node state regular">
<title>disconnected</title>
<polygon fill="#ffffff" fill-opacity="0.003922" stroke="none" stroke-width="2" points="771.38,-325.33 669.88,-325.33 669.88,-289.08 771.38,-289.08 771.38,-325.33"/>
<text text-anchor="start" x="680.88" y="-302.93" font-family="Helvetica,sans-Serif" font-size="12.00">disconnected</text>
<path fill="none" stroke="black" stroke-width="2" d="M682.29,-290.08C682.29,-290.08 758.96,-290.08 758.96,-290.08 764.67,-290.08 770.38,-295.79 770.38,-301.5 770.38,-301.5 770.38,-312.91 770.38,-312.91 770.38,-318.62 764.67,-324.33 758.96,-324.33 758.96,-324.33 682.29,-324.33 682.29,-324.33 676.58,-324.33 670.88,-318.62 670.88,-312.91 670.88,-312.91 670.88,-301.5 670.88,-301.5 670.88,-295.79 676.58,-290.08 682.29,-290.08"/>
</g>
<!-- discovering -->
<g id="node2" class="node state regular">
<title>discovering</title>
<polygon fill="#ffffff" fill-opacity="0.003922" stroke="none" stroke-width="2" points="765.75,-262.33 675.5,-262.33 675.5,-226.08 765.75,-226.08 765.75,-262.33"/>
<text text-anchor="start" x="686.5" y="-239.93" font-family="Helvetica,sans-Serif" font-size="12.00">discovering</text>
<path fill="none" stroke="black" stroke-width="2" d="M687.92,-227.08C687.92,-227.08 753.33,-227.08 753.33,-227.08 759.04,-227.08 764.75,-232.79 764.75,-238.5 764.75,-238.5 764.75,-249.91 764.75,-249.91 764.75,-255.62 759.04,-261.33 753.33,-261.33 753.33,-261.33 687.92,-261.33 687.92,-261.33 682.21,-261.33 676.5,-255.62 676.5,-249.91 676.5,-249.91 676.5,-238.5 676.5,-238.5 676.5,-232.79 682.21,-227.08 687.92,-227.08"/>
</g>
<!-- insufficient -->
<g id="node3" class="node state regular">
<title>insufficient</title>
<polygon fill="#ffffff" fill-opacity="0.003922" stroke="none" stroke-width="2" points="763.88,-208.33 677.38,-208.33 677.38,-172.08 763.88,-172.08 763.88,-208.33"/>
<text text-anchor="start" x="688.38" y="-185.93" font-family="Helvetica,sans-Serif" font-size="12.00">insufficient</text>
<path fill="none" stroke="black" stroke-width="2" d="M689.79,-173.08C689.79,-173.08 751.46,-173.08 751.46,-173.08 757.17,-173.08 762.88,-178.79 762.88,-184.5 762.88,-184.5 762.88,-195.91 762.88,-195.91 762.88,-201.62 757.17,-207.33 751.46,-207.33 751.46,-207.33 689.79,-207.33 689.79,-207.33 684.08,-207.33 678.38,-201.62 678.38,-195.91 678.38,-195.91 678.38,-184.5 678.38,-184.5 678.38,-178.79 684.08,-173.08 689.79,-173.08"/>
</g>
<!-- known -->
<g id="node4" class="node state regular">
<title>known</title>
<polygon fill="#ffffff" fill-opacity="0.003922" stroke="none" stroke-width="2" points="751.12,-154.33 690.12,-154.33 690.12,-118.08 751.12,-118.08 751.12,-154.33"/>
<text text-anchor="start" x="701.12" y="-131.93" font-family="Helvetica,sans-Serif" font-size="12.00">known</text>
<path fill="none" stroke="black" stroke-width="2" d="M702.54,-119.08C702.54,-119.08 738.71,-119.08 738.71,-119.08 744.42,-119.08 750.12,-124.79 750.12,-130.5 750.12,-130.5 750.12,-141.91 750.12,-141.91 750.12,-147.62 744.42,-153.33 738.71,-153.33 738.71,-153.33 702.54,-153.33 702.54,-153.33 696.83,-153.33 691.12,-147.62 691.12,-141.91 691.12,-141.91 691.12,-130.5 691.12,-130.5 691.12,-124.79 696.83,-119.08 702.54,-119.08"/>
</g>
<!-- pending&#45;for&#45;input -->
<g id="node5" class="node state regular">
<title>pending&#45;for&#45;input</title>
<polygon fill="#ffffff" fill-opacity="0.003922" stroke="none" stroke-width="2" points="137,-190.33 11.5,-190.33 11.5,-154.08 137,-154.08 137,-190.33"/>
<text text-anchor="start" x="22.5" y="-167.93" font-family="Helvetica,sans-Serif" font-size="12.00">pending&#45;for&#45;input</text>
<path fill="none" stroke="black" stroke-width="2" d="M23.92,-155.08C23.92,-155.08 124.58,-155.08 124.58,-155.08 130.29,-155.08 136,-160.79 136,-166.5 136,-166.5 136,-177.91 136,-177.91 136,-183.62 130.29,-189.33 124.58,-189.33 124.58,-189.33 23.92,-189.33 23.92,-189.33 18.21,-189.33 12.5,-183.62 12.5,-177.91 12.5,-177.91 12.5,-166.5 12.5,-166.5 12.5,-160.79 18.21,-155.08 23.92,-155.08"/>
</g>
<!-- pending&#45;for&#45;input&#45;&gt;disconnected -->
<g id="edge1" class="edge transition">
<title>pending&#45;for&#45;input&#45;&gt;disconnected</title>
<path fill="none" stroke="black" d="M80.81,-189.9C90.66,-217.87 114.09,-271.46 155,-294.21 239.85,-341.38 531.27,-323.35 658.92,-312.77"/>
<polygon fill="black" stroke="black" points="658.84,-316.28 668.51,-311.96 658.25,-309.31 658.84,-316.28"/>
<text text-anchor="start" x="155" y="-328.39" font-family="Helvetica,sans-Serif" font-size="10.00">Media Disconnect &#45; Move to disconnected when virtual media disconnects pre&#45;installation &#160;&#160;</text>
</g>
<!-- pending&#45;for&#45;input&#45;&gt;disconnected -->
<g id="edge3" class="edge transition">
<title>pending&#45;for&#45;input&#45;&gt;disconnected</title>
<path fill="none" stroke="black" d="M85.8,-190.25C99.01,-210.91 123.76,-243.77 155,-258.21 200.28,-279.13 554.16,-270.16 603.5,-277.46 621.74,-280.15 641.27,-284.55 659,-289.14"/>
<polygon fill="black" stroke="black" points="658.05,-292.51 668.61,-291.7 659.85,-285.74 658.05,-292.51"/>
<text text-anchor="start" x="219.5" y="-280.71" font-family="Helvetica,sans-Serif" font-size="10.00">Refresh &#45; Move host to disconnected when connected times out &#160;&#160;</text>
</g>
<!-- pending&#45;for&#45;input&#45;&gt;discovering -->
<g id="edge8" class="edge transition">
<title>pending&#45;for&#45;input&#45;&gt;discovering</title>
<path fill="none" stroke="black" d="M102.44,-190.29C117.31,-199.2 136.44,-209.09 155,-214.21 249.77,-240.32 541.87,-243.94 664.51,-244.27"/>
<polygon fill="black" stroke="black" points="664.32,-247.77 674.32,-244.29 664.33,-240.77 664.32,-247.77"/>
<text text-anchor="start" x="300.5" y="-247.05" font-family="Helvetica,sans-Serif" font-size="10.00">Register Host &#45; Re&#45;registration &#160;&#160;</text>
</g>
<!-- pending&#45;for&#45;input&#45;&gt;insufficient -->
<g id="edge4" class="edge transition">
<title>pending&#45;for&#45;input&#45;&gt;insufficient</title>
<path fill="none" stroke="black" d="M136.94,-184.08C143.02,-184.94 149.12,-185.67 155,-186.21 342.35,-203.19 566.09,-196.96 666.39,-192.77"/>
<polygon fill="black" stroke="black" points="666.36,-196.28 676.21,-192.35 666.06,-189.28 666.36,-196.28"/>
<text text-anchor="start" x="276.88" y="-200.68" font-family="Helvetica,sans-Serif" font-size="10.00">Refresh &#45; Host has insufficient hardware &#160;&#160;</text>
</g>
<!-- pending&#45;for&#45;input&#45;&gt;insufficient -->
<g id="edge6" class="edge transition">
<title>pending&#45;for&#45;input&#45;&gt;insufficient</title>
<path fill="none" stroke="black" d="M136.81,-168.16C235.51,-162.52 435.18,-154.54 603.5,-169.46 624.13,-171.28 646.59,-174.91 666.21,-178.62"/>
<polygon fill="black" stroke="black" points="665.43,-182.03 675.91,-180.52 666.77,-175.16 665.43,-182.03"/>
<text text-anchor="start" x="315.12" y="-172.71" font-family="Helvetica,sans-Serif" font-size="10.00">Refresh &#45; Host not ready &#160;&#160;</text>
</g>
<!-- pending&#45;for&#45;input&#45;&gt;known -->
<g id="edge7" class="edge transition">
<title>pending&#45;for&#45;input&#45;&gt;known</title>
<path fill="none" stroke="black" d="M118.87,-154.21C130.42,-150.23 143.02,-146.57 155,-144.46 348.53,-110.29 585.19,-124.57 678.76,-132.38"/>
<polygon fill="black" stroke="black" points="678.45,-135.86 688.72,-133.23 679.05,-128.89 678.45,-135.86"/>
<text text-anchor="start" x="324.5" y="-147.71" font-family="Helvetica,sans-Serif" font-size="10.00">Refresh &#45; Host ready &#160;&#160;</text>
</g>
<!-- pending&#45;for&#45;input&#45;&gt;pending&#45;for&#45;input -->
<g id="edge5" class="edge transition">
<title>pending&#45;for&#45;input&#45;&gt;pending&#45;for&#45;input</title>
<path fill="none" stroke="black" d="M19.42,-190.05C10.1,-199.61 28.38,-208.33 74.25,-208.33 100.77,-208.33 118.06,-205.42 126.14,-201.11"/>
<polygon fill="black" stroke="black" points="129.5,-202.07 128.69,-191.51 122.74,-200.28 129.5,-202.07"/>
<text text-anchor="start" x="0" y="-211.58" font-family="Helvetica,sans-Serif" font-size="10.00">Refresh &#45; Host pending input &#160;&#160;</text>
</g>
<!-- unbinding -->
<g id="node6" class="node state regular">
<title>unbinding</title>
<polygon fill="#ffffff" fill-opacity="0.003922" stroke="none" stroke-width="2" points="760.88,-100.33 680.38,-100.33 680.38,-64.08 760.88,-64.08 760.88,-100.33"/>
<text text-anchor="start" x="691.38" y="-77.93" font-family="Helvetica,sans-Serif" font-size="12.00">unbinding</text>
<path fill="none" stroke="black" stroke-width="2" d="M692.79,-65.08C692.79,-65.08 748.46,-65.08 748.46,-65.08 754.17,-65.08 759.88,-70.79 759.88,-76.5 759.88,-76.5 759.88,-87.91 759.88,-87.91 759.88,-93.62 754.17,-99.33 748.46,-99.33 748.46,-99.33 692.79,-99.33 692.79,-99.33 687.08,-99.33 681.38,-93.62 681.38,-87.91 681.38,-87.91 681.38,-76.5 681.38,-76.5 681.38,-70.79 687.08,-65.08 692.79,-65.08"/>
</g>
<!-- pending&#45;for&#45;input&#45;&gt;unbinding -->
<g id="edge2" class="edge transition">
<title>pending&#45;for&#45;input&#45;&gt;unbinding</title>
<path fill="none" stroke="black" d="M90.22,-154.26C104.86,-138.18 128.73,-115.61 155,-105.46 202.19,-87.21 539.91,-83.27 669.33,-82.43"/>
<polygon fill="black" stroke="black" points="668.98,-85.93 678.95,-82.37 668.93,-78.93 668.98,-85.93"/>
<text text-anchor="start" x="278.75" y="-108.71" font-family="Helvetica,sans-Serif" font-size="10.00">Reclaim Host &#45; Reclaim pre&#45;installation &#160;&#160;</text>
</g>
<!-- pending&#45;for&#45;input&#45;&gt;unbinding -->
<g id="edge10" class="edge transition">
<title>pending&#45;for&#45;input&#45;&gt;unbinding</title>
<path fill="none" stroke="black" d="M82.56,-154.24C93.85,-129.2 118.16,-84.81 155,-66.46 244.28,-21.96 548.23,-58.13 669.28,-74.86"/>
<polygon fill="black" stroke="black" points="668.52,-78.29 678.91,-76.2 669.49,-71.35 668.52,-78.29"/>
<text text-anchor="start" x="284" y="-69.71" font-family="Helvetica,sans-Serif" font-size="10.00">Unbind Host &#45; Unbind pre&#45;installation &#160;&#160;</text>
</g>
<!-- resetting&#45;pending&#45;user&#45;action -->
<g id="node7" class="node state regular">
<title>resetting&#45;pending&#45;user&#45;action</title>
<polygon fill="#ffffff" fill-opacity="0.003922" stroke="none" stroke-width="2" points="819.75,-46.33 621.5,-46.33 621.5,-10.08 819.75,-10.08 819.75,-46.33"/>
<text text-anchor="start" x="632.5" y="-23.93" font-family="Helvetica,sans-Serif" font-size="12.00">resetting&#45;pending&#45;user&#45;action</text>
<path fill="none" stroke="black" stroke-width="2" d="M633.92,-11.08C633.92,-11.08 807.33,-11.08 807.33,-11.08 813.04,-11.08 818.75,-16.79 818.75,-22.5 818.75,-22.5 818.75,-33.91 818.75,-33.91 818.75,-39.62 813.04,-45.33 807.33,-45.33 807.33,-45.33 633.92,-45.33 633.92,-45.33 628.21,-45.33 622.5,-39.62 622.5,-33.91 622.5,-33.91 622.5,-22.5 622.5,-22.5 622.5,-16.79 628.21,-11.08 633.92,-11.08"/>
</g>
<!-- pending&#45;for&#45;input&#45;&gt;resetting&#45;pending&#45;user&#45;action -->
<g id="edge9" class="edge transition">
<title>pending&#45;for&#45;input&#45;&gt;resetting&#45;pending&#45;user&#45;action</title>
<path fill="none" stroke="black" d="M79.04,-154.21C86.87,-122.18 108.16,-56.05 155,-28.46 229.32,15.33 468.28,-0.97 610.41,-15.43"/>
<polygon fill="black" stroke="black" points="609.92,-18.9 620.23,-16.45 610.64,-11.94 609.92,-18.9"/>
<text text-anchor="start" x="207.12" y="-31.71" font-family="Helvetica,sans-Serif" font-size="10.00">Resetting, Pending User Action &#45; Reset pending user action all states &#160;&#160;</text>
</g>
</g>
</svg>
