<?xml version="1.0" encoding="UTF-8" standalone="no"?>
<!DOCTYPE svg PUBLIC "-//W3C//DTD SVG 1.1//EN"
 "http://www.w3.org/Graphics/SVG/1.1/DTD/svg11.dtd">
<!-- Generated by graphviz version 5.0.0 (0)
 -->
<!-- Title: state transitions Pages: 1 -->
<svg width="913pt" height="156pt"
 viewBox="0.00 0.00 912.50 156.00" xmlns="http://www.w3.org/2000/svg" xmlns:xlink="http://www.w3.org/1999/xlink">
<g id="graph0" class="graph" transform="scale(1 1) rotate(0) translate(4 152)">
<title>state transitions</title>
<polygon fill="white" stroke="transparent" points="-4,4 -4,-152 908.5,-152 908.5,4 -4,4"/>
<!-- cancelled -->
<g id="node1" class="node state regular">
<title>cancelled</title>
<polygon fill="#ffffff" fill-opacity="0.003922" stroke="transparent" stroke-width="2" points="852,-144 778,-144 778,-108 852,-108 852,-144"/>
<text text-anchor="start" x="789" y="-122.4" font-family="Helvetica,sans-Serif" font-size="12.00">cancelled</text>
<path fill="none" stroke="black" stroke-width="2" d="M790,-109.5C790,-109.5 840,-109.5 840,-109.5 845.5,-109.5 851,-115 851,-120.5 851,-120.5 851,-131.5 851,-131.5 851,-137 845.5,-142.5 840,-142.5 840,-142.5 790,-142.5 790,-142.5 784.5,-142.5 779,-137 779,-131.5 779,-131.5 779,-120.5 779,-120.5 779,-115 784.5,-109.5 790,-109.5"/>
</g>
<!-- error -->
<g id="node2" class="node state regular">
<title>error</title>
<polygon fill="#ffffff" fill-opacity="0.003922" stroke="transparent" stroke-width="2" points="843,-90 787,-90 787,-54 843,-54 843,-90"/>
<text text-anchor="start" x="802.5" y="-68.4" font-family="Helvetica,sans-Serif" font-size="12.00">error</text>
<path fill="none" stroke="black" stroke-width="2" d="M799,-55.5C799,-55.5 831,-55.5 831,-55.5 836.5,-55.5 842,-61 842,-66.5 842,-66.5 842,-77.5 842,-77.5 842,-83 836.5,-88.5 831,-88.5 831,-88.5 799,-88.5 799,-88.5 793.5,-88.5 788,-83 788,-77.5 788,-77.5 788,-66.5 788,-66.5 788,-61 793.5,-55.5 799,-55.5"/>
</g>
<!-- installing&#45;pending&#45;user&#45;action -->
<g id="node3" class="node state regular">
<title>installing&#45;pending&#45;user&#45;action</title>
<polygon fill="#ffffff" fill-opacity="0.003922" stroke="transparent" stroke-width="2" points="378.5,-90 197.5,-90 197.5,-54 378.5,-54 378.5,-90"/>
<text text-anchor="start" x="209" y="-68.4" font-family="Helvetica,sans-Serif" font-size="12.00">installing&#45;pending&#45;user&#45;action</text>
<path fill="none" stroke="black" stroke-width="2" d="M209.5,-55.5C209.5,-55.5 366.5,-55.5 366.5,-55.5 372,-55.5 377.5,-61 377.5,-66.5 377.5,-66.5 377.5,-77.5 377.5,-77.5 377.5,-83 372,-88.5 366.5,-88.5 366.5,-88.5 209.5,-88.5 209.5,-88.5 204,-88.5 198.5,-83 198.5,-77.5 198.5,-77.5 198.5,-66.5 198.5,-66.5 198.5,-61 204,-55.5 209.5,-55.5"/>
</g>
<!-- installing&#45;pending&#45;user&#45;action&#45;&gt;cancelled -->
<g id="edge1" class="edge transition">
<title>installing&#45;pending&#45;user&#45;action&#45;&gt;cancelled</title>
<path fill="none" stroke="black" d="M378.71,-84.83C384.72,-85.59 390.7,-86.32 396.5,-87 531,-102.66 690.45,-116.15 767.59,-122.36"/>
<polygon fill="black" stroke="black" points="767.67,-125.88 777.92,-123.19 768.23,-118.9 767.67,-125.88"/>
<text text-anchor="start" x="408.5" y="-120" font-family="Helvetica,sans-Serif" font-size="10.00">Cancel Installation &#45; Installation canceled while host is installing &#160;&#160;</text>
</g>
<!-- installing&#45;pending&#45;user&#45;action&#45;&gt;error -->
<g id="edge2" class="edge transition">
<title>installing&#45;pending&#45;user&#45;action&#45;&gt;error</title>
<path fill="none" stroke="black" d="M378.65,-72C495.51,-72 694.63,-72 776.83,-72"/>
<polygon fill="black" stroke="black" points="776.94,-75.5 786.94,-72 776.94,-68.5 776.94,-75.5"/>
<text text-anchor="start" x="435.5" y="-75" font-family="Helvetica,sans-Serif" font-size="10.00">Refresh &#45; Move host to error when cluster is in error &#160;&#160;</text>
</g>
<!-- installing&#45;pending&#45;user&#45;action&#45;&gt;installing&#45;pending&#45;user&#45;action -->
<g id="edge3" class="edge transition">
<title>installing&#45;pending&#45;user&#45;action&#45;&gt;installing&#45;pending&#45;user&#45;action</title>
<path fill="none" stroke="black" d="M264.12,-90.15C260.45,-99.54 268.41,-108 288,-108 299.94,-108 307.56,-104.86 310.86,-100.28"/>
<polygon fill="black" stroke="black" points="314.36,-100.45 311.88,-90.15 307.4,-99.75 314.36,-100.45"/>
<text text-anchor="start" x="0" y="-111" font-family="Helvetica,sans-Serif" font-size="10.00">Refresh &#45; Refresh during installing&#45;pending&#45;user&#45;action state without cluster error should stay in installing&#45;pending&#45;user&#45;action state &#160;&#160;</text>
</g>
<!-- installing&#45;pending&#45;user&#45;action&#45;&gt;installing&#45;pending&#45;user&#45;action -->
<g id="edge4" class="edge transition">
<title>installing&#45;pending&#45;user&#45;action&#45;&gt;installing&#45;pending&#45;user&#45;action</title>
<path fill="none" stroke="black" d="M247.97,-90.26C227.22,-107.4 240.56,-126 288,-126 328.4,-126 344.07,-112.51 335.01,-97.92"/>
<polygon fill="black" stroke="black" points="337.35,-95.29 328.03,-90.26 332.18,-100.01 337.35,-95.29"/>
<text text-anchor="start" x="190" y="-129" font-family="Helvetica,sans-Serif" font-size="10.00">Register Host &#45; Wrong boot order detection &#160;&#160;</text>
</g>
<!-- resetting&#45;pending&#45;user&#45;action -->
<g id="node4" class="node state regular">
<title>resetting&#45;pending&#45;user&#45;action</title>
<polygon fill="#ffffff" fill-opacity="0.003922" stroke="transparent" stroke-width="2" points="904.5,-36 725.5,-36 725.5,0 904.5,0 904.5,-36"/>
<text text-anchor="start" x="737" y="-14.4" font-family="Helvetica,sans-Serif" font-size="12.00">resetting&#45;pending&#45;user&#45;action</text>
<path fill="none" stroke="black" stroke-width="2" d="M737.5,-1.5C737.5,-1.5 892.5,-1.5 892.5,-1.5 898,-1.5 903.5,-7 903.5,-12.5 903.5,-12.5 903.5,-23.5 903.5,-23.5 903.5,-29 898,-34.5 892.5,-34.5 892.5,-34.5 737.5,-34.5 737.5,-34.5 732,-34.5 726.5,-29 726.5,-23.5 726.5,-23.5 726.5,-12.5 726.5,-12.5 726.5,-7 732,-1.5 737.5,-1.5"/>
</g>
<!-- installing&#45;pending&#45;user&#45;action&#45;&gt;resetting&#45;pending&#45;user&#45;action -->
<g id="edge5" class="edge transition">
<title>installing&#45;pending&#45;user&#45;action&#45;&gt;resetting&#45;pending&#45;user&#45;action</title>
<path fill="none" stroke="black" d="M378.71,-59.17C384.72,-58.41 390.7,-57.68 396.5,-57 505.24,-44.34 630.3,-33.1 714.98,-25.97"/>
<polygon fill="black" stroke="black" points="715.43,-29.45 725.1,-25.12 714.85,-22.47 715.43,-29.45"/>
<text text-anchor="start" x="396.5" y="-60" font-family="Helvetica,sans-Serif" font-size="10.00">Resetting, Pending User Action &#45; Reset pending user action all states &#160;&#160;</text>
</g>
</g>
</svg>
