<?xml version="1.0" encoding="UTF-8" standalone="no"?>
<!DOCTYPE svg PUBLIC "-//W3C//DTD SVG 1.1//EN"
 "http://www.w3.org/Graphics/SVG/1.1/DTD/svg11.dtd">
<!-- Generated by graphviz version 5.0.0 (0)
 -->
<!-- Title: state transitions Pages: 1 -->
<svg width="769pt" height="338pt"
 viewBox="0.00 0.00 768.50 337.94" xmlns="http://www.w3.org/2000/svg" xmlns:xlink="http://www.w3.org/1999/xlink">
<g id="graph0" class="graph" transform="scale(1 1) rotate(0) translate(4 333.94)">
<title>state transitions</title>
<polygon fill="white" stroke="transparent" points="-4,4 -4,-333.94 764.5,-333.94 764.5,4 -4,4"/>
<!-- disconnected -->
<g id="node1" class="node state regular">
<title>disconnected</title>
<polygon fill="#ffffff" fill-opacity="0.003922" stroke="transparent" stroke-width="2" points="718,-321.94 624,-321.94 624,-285.94 718,-285.94 718,-321.94"/>
<text text-anchor="start" x="635" y="-300.34" font-family="Helvetica,sans-Serif" font-size="12.00">disconnected</text>
<path fill="none" stroke="black" stroke-width="2" d="M636,-287.44C636,-287.44 706,-287.44 706,-287.44 711.5,-287.44 717,-292.94 717,-298.44 717,-298.44 717,-309.44 717,-309.44 717,-314.94 711.5,-320.44 706,-320.44 706,-320.44 636,-320.44 636,-320.44 630.5,-320.44 625,-314.94 625,-309.44 625,-309.44 625,-298.44 625,-298.44 625,-292.94 630.5,-287.44 636,-287.44"/>
</g>
<!-- discovering -->
<g id="node2" class="node state regular">
<title>discovering</title>
<polygon fill="#ffffff" fill-opacity="0.003922" stroke="transparent" stroke-width="2" points="145.5,-191.94 61.5,-191.94 61.5,-155.94 145.5,-155.94 145.5,-191.94"/>
<text text-anchor="start" x="72.5" y="-170.34" font-family="Helvetica,sans-Serif" font-size="12.00">discovering</text>
<path fill="none" stroke="black" stroke-width="2" d="M73.5,-157.44C73.5,-157.44 133.5,-157.44 133.5,-157.44 139,-157.44 144.5,-162.94 144.5,-168.44 144.5,-168.44 144.5,-179.44 144.5,-179.44 144.5,-184.94 139,-190.44 133.5,-190.44 133.5,-190.44 73.5,-190.44 73.5,-190.44 68,-190.44 62.5,-184.94 62.5,-179.44 62.5,-179.44 62.5,-168.44 62.5,-168.44 62.5,-162.94 68,-157.44 73.5,-157.44"/>
</g>
<!-- discovering&#45;&gt;disconnected -->
<g id="edge1" class="edge transition">
<title>discovering&#45;&gt;disconnected</title>
<path fill="none" stroke="black" d="M107.94,-192.02C114.01,-218.35 129.38,-266.43 163.5,-287.94 236.92,-334.21 498.01,-318.66 613.89,-309.1"/>
<polygon fill="black" stroke="black" points="614.31,-312.58 623.98,-308.25 613.72,-305.6 614.31,-312.58"/>
<text text-anchor="start" x="163.5" y="-321.94" font-family="Helvetica,sans-Serif" font-size="10.00">Media Disconnect &#45; Move to disconnected when virtual media disconnects pre&#45;installation &#160;&#160;</text>
</g>
<!-- discovering&#45;&gt;disconnected -->
<g id="edge3" class="edge transition">
<title>discovering&#45;&gt;disconnected</title>
<path fill="none" stroke="black" d="M112.06,-191.96C121.17,-211.11 138.43,-240.44 163.5,-253.94 202.69,-275.04 519.56,-267.88 563.5,-274.94 580.11,-277.6 597.85,-281.85 613.99,-286.28"/>
<polygon fill="black" stroke="black" points="613.24,-289.71 623.81,-289.05 615.14,-282.97 613.24,-289.71"/>
<text text-anchor="start" x="220" y="-277.94" font-family="Helvetica,sans-Serif" font-size="10.00">Refresh &#45; Move host to disconnected when connected times out &#160;&#160;</text>
</g>
<!-- discovering&#45;&gt;discovering -->
<g id="edge4" class="edge transition">
<title>discovering&#45;&gt;discovering</title>
<path fill="none" stroke="black" d="M79.98,-192.09C76.36,-201.48 84.2,-209.94 103.5,-209.94 115.26,-209.94 122.76,-206.8 126.01,-202.22"/>
<polygon fill="black" stroke="black" points="129.51,-202.39 127.02,-192.09 122.55,-201.7 129.51,-202.39"/>
<text text-anchor="start" x="0" y="-212.94" font-family="Helvetica,sans-Serif" font-size="10.00">Refresh &#45; Host reconnected without inventory &#160;&#160;</text>
</g>
<!-- discovering&#45;&gt;discovering -->
<g id="edge9" class="edge transition">
<title>discovering&#45;&gt;discovering</title>
<path fill="none" stroke="black" d="M64.08,-192.2C43.64,-209.34 56.78,-227.94 103.5,-227.94 143.28,-227.94 158.72,-214.45 149.8,-199.86"/>
<polygon fill="black" stroke="black" points="152.2,-197.3 142.92,-192.2 147,-201.97 152.2,-197.3"/>
<text text-anchor="start" x="32.5" y="-230.94" font-family="Helvetica,sans-Serif" font-size="10.00">Register Host &#45; Re&#45;registration &#160;&#160;</text>
</g>
<!-- insufficient -->
<g id="node3" class="node state regular">
<title>insufficient</title>
<polygon fill="#ffffff" fill-opacity="0.003922" stroke="transparent" stroke-width="2" points="711,-262.94 631,-262.94 631,-226.94 711,-226.94 711,-262.94"/>
<text text-anchor="start" x="642" y="-241.34" font-family="Helvetica,sans-Serif" font-size="12.00">insufficient</text>
<path fill="none" stroke="black" stroke-width="2" d="M643,-228.44C643,-228.44 699,-228.44 699,-228.44 704.5,-228.44 710,-233.94 710,-239.44 710,-239.44 710,-250.44 710,-250.44 710,-255.94 704.5,-261.44 699,-261.44 699,-261.44 643,-261.44 643,-261.44 637.5,-261.44 632,-255.94 632,-250.44 632,-250.44 632,-239.44 632,-239.44 632,-233.94 637.5,-228.44 643,-228.44"/>
</g>
<!-- discovering&#45;&gt;insufficient -->
<g id="edge5" class="edge transition">
<title>discovering&#45;&gt;insufficient</title>
<path fill="none" stroke="black" d="M121.81,-192.12C132.71,-202.29 147.67,-214.06 163.5,-219.94 184.68,-227.81 497.53,-239.13 620.7,-243.31"/>
<polygon fill="black" stroke="black" points="620.87,-246.82 630.98,-243.66 621.1,-239.82 620.87,-246.82"/>
<text text-anchor="start" x="271.5" y="-243.94" font-family="Helvetica,sans-Serif" font-size="10.00">Refresh &#45; Host has insufficient hardware &#160;&#160;</text>
</g>
<!-- discovering&#45;&gt;insufficient -->
<g id="edge7" class="edge transition">
<title>discovering&#45;&gt;insufficient</title>
<path fill="none" stroke="black" d="M145.63,-183.11C151.6,-184.21 157.69,-185.2 163.5,-185.94 251.8,-197.17 478.48,-180.59 563.5,-206.94 572.46,-209.71 572.95,-214.09 581.5,-217.94 593.99,-223.55 607.98,-228.42 621.08,-232.42"/>
<polygon fill="black" stroke="black" points="620.31,-235.84 630.89,-235.3 622.29,-229.12 620.31,-235.84"/>
<text text-anchor="start" x="305" y="-209.94" font-family="Helvetica,sans-Serif" font-size="10.00">Refresh &#45; Host not ready &#160;&#160;</text>
</g>
<!-- known -->
<g id="node4" class="node state regular">
<title>known</title>
<polygon fill="#ffffff" fill-opacity="0.003922" stroke="transparent" stroke-width="2" points="700,-208.94 642,-208.94 642,-172.94 700,-172.94 700,-208.94"/>
<text text-anchor="start" x="653" y="-187.34" font-family="Helvetica,sans-Serif" font-size="12.00">known</text>
<path fill="none" stroke="black" stroke-width="2" d="M654,-174.44C654,-174.44 688,-174.44 688,-174.44 693.5,-174.44 699,-179.94 699,-185.44 699,-185.44 699,-196.44 699,-196.44 699,-201.94 693.5,-207.44 688,-207.44 688,-207.44 654,-207.44 654,-207.44 648.5,-207.44 643,-201.94 643,-196.44 643,-196.44 643,-185.44 643,-185.44 643,-179.94 648.5,-174.44 654,-174.44"/>
</g>
<!-- discovering&#45;&gt;known -->
<g id="edge8" class="edge transition">
<title>discovering&#45;&gt;known</title>
<path fill="none" stroke="black" d="M145.72,-172C226.19,-168.68 409.75,-163.28 563.5,-174.94 586.2,-176.66 611.41,-180.36 631.59,-183.77"/>
<polygon fill="black" stroke="black" points="631.2,-187.26 641.65,-185.52 632.4,-180.36 631.2,-187.26"/>
<text text-anchor="start" x="313.5" y="-177.94" font-family="Helvetica,sans-Serif" font-size="10.00">Refresh &#45; Host ready &#160;&#160;</text>
</g>
<!-- pending&#45;for&#45;input -->
<g id="node5" class="node state regular">
<title>pending&#45;for&#45;input</title>
<polygon fill="#ffffff" fill-opacity="0.003922" stroke="transparent" stroke-width="2" points="727.5,-154.94 614.5,-154.94 614.5,-118.94 727.5,-118.94 727.5,-154.94"/>
<text text-anchor="start" x="626" y="-133.34" font-family="Helvetica,sans-Serif" font-size="12.00">pending&#45;for&#45;input</text>
<path fill="none" stroke="black" stroke-width="2" d="M626.5,-120.44C626.5,-120.44 715.5,-120.44 715.5,-120.44 721,-120.44 726.5,-125.94 726.5,-131.44 726.5,-131.44 726.5,-142.44 726.5,-142.44 726.5,-147.94 721,-153.44 715.5,-153.44 715.5,-153.44 626.5,-153.44 626.5,-153.44 621,-153.44 615.5,-147.94 615.5,-142.44 615.5,-142.44 615.5,-131.44 615.5,-131.44 615.5,-125.94 621,-120.44 626.5,-120.44"/>
</g>
<!-- discovering&#45;&gt;pending&#45;for&#45;input -->
<g id="edge6" class="edge transition">
<title>discovering&#45;&gt;pending&#45;for&#45;input</title>
<path fill="none" stroke="black" d="M145.59,-156.68C151.51,-154.77 157.6,-153.09 163.5,-151.94 319.22,-121.46 506.94,-126.48 604.27,-132.11"/>
<polygon fill="black" stroke="black" points="604.07,-135.61 614.26,-132.71 604.48,-128.62 604.07,-135.61"/>
<text text-anchor="start" x="296.5" y="-154.94" font-family="Helvetica,sans-Serif" font-size="10.00">Refresh &#45; Host pending input &#160;&#160;</text>
</g>
<!-- resetting&#45;pending&#45;user&#45;action -->
<g id="node6" class="node state regular">
<title>resetting&#45;pending&#45;user&#45;action</title>
<polygon fill="#ffffff" fill-opacity="0.003922" stroke="transparent" stroke-width="2" points="760.5,-100.94 581.5,-100.94 581.5,-64.94 760.5,-64.94 760.5,-100.94"/>
<text text-anchor="start" x="593" y="-79.34" font-family="Helvetica,sans-Serif" font-size="12.00">resetting&#45;pending&#45;user&#45;action</text>
<path fill="none" stroke="black" stroke-width="2" d="M593.5,-66.44C593.5,-66.44 748.5,-66.44 748.5,-66.44 754,-66.44 759.5,-71.94 759.5,-77.44 759.5,-77.44 759.5,-88.44 759.5,-88.44 759.5,-93.94 754,-99.44 748.5,-99.44 748.5,-99.44 593.5,-99.44 593.5,-99.44 588,-99.44 582.5,-93.94 582.5,-88.44 582.5,-88.44 582.5,-77.44 582.5,-77.44 582.5,-71.94 588,-66.44 593.5,-66.44"/>
</g>
<!-- discovering&#45;&gt;resetting&#45;pending&#45;user&#45;action -->
<g id="edge10" class="edge transition">
<title>discovering&#45;&gt;resetting&#45;pending&#45;user&#45;action</title>
<path fill="none" stroke="black" d="M116.07,-155.67C126.5,-140.98 143.28,-121.3 163.5,-111.94 233.49,-79.53 444.76,-77.89 571.26,-80.09"/>
<polygon fill="black" stroke="black" points="571.28,-83.59 581.34,-80.27 571.41,-76.59 571.28,-83.59"/>
<text text-anchor="start" x="208" y="-114.94" font-family="Helvetica,sans-Serif" font-size="10.00">Resetting, Pending User Action &#45; Reset pending user action all states &#160;&#160;</text>
</g>
<!-- unbinding -->
<g id="node7" class="node state regular">
<title>unbinding</title>
<polygon fill="#ffffff" fill-opacity="0.003922" stroke="transparent" stroke-width="2" points="709,-46.94 633,-46.94 633,-10.94 709,-10.94 709,-46.94"/>
<text text-anchor="start" x="644" y="-25.34" font-family="Helvetica,sans-Serif" font-size="12.00">unbinding</text>
<path fill="none" stroke="black" stroke-width="2" d="M645,-12.44C645,-12.44 697,-12.44 697,-12.44 702.5,-12.44 708,-17.94 708,-23.44 708,-23.44 708,-34.44 708,-34.44 708,-39.94 702.5,-45.44 697,-45.44 697,-45.44 645,-45.44 645,-45.44 639.5,-45.44 634,-39.94 634,-34.44 634,-34.44 634,-23.44 634,-23.44 634,-17.94 639.5,-12.44 645,-12.44"/>
</g>
<!-- discovering&#45;&gt;unbinding -->
<g id="edge2" class="edge transition">
<title>discovering&#45;&gt;unbinding</title>
<path fill="none" stroke="black" d="M108.43,-155.73C114.98,-130.27 130.8,-84.8 163.5,-63.94 201.03,-39.99 519.14,-44.71 563.5,-40.94 582.81,-39.3 604.03,-37 622.42,-34.86"/>
<polygon fill="black" stroke="black" points="623.07,-38.31 632.59,-33.66 622.25,-31.36 623.07,-38.31"/>
<text text-anchor="start" x="273.5" y="-66.94" font-family="Helvetica,sans-Serif" font-size="10.00">Reclaim Host &#45; Reclaim pre&#45;installation &#160;&#160;</text>
</g>
<!-- discovering&#45;&gt;unbinding -->
<g id="edge11" class="edge transition">
<title>discovering&#45;&gt;unbinding</title>
<path fill="none" stroke="black" d="M105.63,-155.87C108.73,-123.69 120.32,-57.06 163.5,-27.94 237.38,21.89 511.74,-7.81 622.84,-22.34"/>
<polygon fill="black" stroke="black" points="622.38,-25.81 632.76,-23.65 623.3,-18.87 622.38,-25.81"/>
<text text-anchor="start" x="278" y="-30.94" font-family="Helvetica,sans-Serif" font-size="10.00">Unbind Host &#45; Unbind pre&#45;installation &#160;&#160;</text>
</g>
</g>
</svg>
