<?xml version="1.0" encoding="UTF-8" standalone="no"?>
<!DOCTYPE svg PUBLIC "-//W3C//DTD SVG 1.1//EN"
 "http://www.w3.org/Graphics/SVG/1.1/DTD/svg11.dtd">
<!-- Generated by graphviz version 12.1.0 (20240811.2233)
 -->
<!-- Title: state transitions Pages: 1 -->
<svg width="847pt" height="468pt"
 viewBox="0.00 0.00 846.50 468.16" xmlns="http://www.w3.org/2000/svg" xmlns:xlink="http://www.w3.org/1999/xlink">
<g id="graph0" class="graph" transform="scale(1 1) rotate(0) translate(4 464.16)">
<title>state transitions</title>
<polygon fill="white" stroke="none" points="-4,4 -4,-464.16 842.5,-464.16 842.5,4 -4,4"/>
<!-- disconnected -->
<g id="node1" class="node state regular">
<title>disconnected</title>
<polygon fill="#ffffff" fill-opacity="0.003922" stroke="none" stroke-width="2" points="790.12,-434.64 688.62,-434.64 688.62,-398.39 790.12,-398.39 790.12,-434.64"/>
<text text-anchor="start" x="699.62" y="-412.24" font-family="Helvetica,sans-Serif" font-size="12.00">disconnected</text>
<path fill="none" stroke="black" stroke-width="2" d="M701.04,-399.39C701.04,-399.39 777.71,-399.39 777.71,-399.39 783.42,-399.39 789.12,-405.1 789.12,-410.81 789.12,-410.81 789.12,-422.22 789.12,-422.22 789.12,-427.93 783.42,-433.64 777.71,-433.64 777.71,-433.64 701.04,-433.64 701.04,-433.64 695.33,-433.64 689.62,-427.93 689.62,-422.22 689.62,-422.22 689.62,-410.81 689.62,-410.81 689.62,-405.1 695.33,-399.39 701.04,-399.39"/>
</g>
<!-- discovering -->
<g id="node2" class="node state regular">
<title>discovering</title>
<polygon fill="#ffffff" fill-opacity="0.003922" stroke="none" stroke-width="2" points="784.5,-380.64 694.25,-380.64 694.25,-344.39 784.5,-344.39 784.5,-380.64"/>
<text text-anchor="start" x="705.25" y="-358.24" font-family="Helvetica,sans-Serif" font-size="12.00">discovering</text>
<path fill="none" stroke="black" stroke-width="2" d="M706.67,-345.39C706.67,-345.39 772.08,-345.39 772.08,-345.39 777.79,-345.39 783.5,-351.1 783.5,-356.81 783.5,-356.81 783.5,-368.22 783.5,-368.22 783.5,-373.93 777.79,-379.64 772.08,-379.64 772.08,-379.64 706.67,-379.64 706.67,-379.64 700.96,-379.64 695.25,-373.93 695.25,-368.22 695.25,-368.22 695.25,-356.81 695.25,-356.81 695.25,-351.1 700.96,-345.39 706.67,-345.39"/>
</g>
<!-- error -->
<g id="node3" class="node state regular">
<title>error</title>
<polygon fill="#ffffff" fill-opacity="0.003922" stroke="none" stroke-width="2" points="767.38,-326.64 711.38,-326.64 711.38,-290.39 767.38,-290.39 767.38,-326.64"/>
<text text-anchor="start" x="724.75" y="-304.24" font-family="Helvetica,sans-Serif" font-size="12.00">error</text>
<path fill="none" stroke="black" stroke-width="2" d="M723.79,-291.39C723.79,-291.39 754.96,-291.39 754.96,-291.39 760.67,-291.39 766.38,-297.1 766.38,-302.81 766.38,-302.81 766.38,-314.22 766.38,-314.22 766.38,-319.93 760.67,-325.64 754.96,-325.64 754.96,-325.64 723.79,-325.64 723.79,-325.64 718.08,-325.64 712.38,-319.93 712.38,-314.22 712.38,-314.22 712.38,-302.81 712.38,-302.81 712.38,-297.1 718.08,-291.39 723.79,-291.39"/>
</g>
<!-- insufficient -->
<g id="node4" class="node state regular">
<title>insufficient</title>
<polygon fill="#ffffff" fill-opacity="0.003922" stroke="none" stroke-width="2" points="782.62,-272.64 696.12,-272.64 696.12,-236.39 782.62,-236.39 782.62,-272.64"/>
<text text-anchor="start" x="707.12" y="-250.24" font-family="Helvetica,sans-Serif" font-size="12.00">insufficient</text>
<path fill="none" stroke="black" stroke-width="2" d="M708.54,-237.39C708.54,-237.39 770.21,-237.39 770.21,-237.39 775.92,-237.39 781.62,-243.1 781.62,-248.81 781.62,-248.81 781.62,-260.22 781.62,-260.22 781.62,-265.93 775.92,-271.64 770.21,-271.64 770.21,-271.64 708.54,-271.64 708.54,-271.64 702.83,-271.64 697.12,-265.93 697.12,-260.22 697.12,-260.22 697.12,-248.81 697.12,-248.81 697.12,-243.1 702.83,-237.39 708.54,-237.39"/>
</g>
<!-- known -->
<g id="node5" class="node state regular">
<title>known</title>
<polygon fill="#ffffff" fill-opacity="0.003922" stroke="none" stroke-width="2" points="769.88,-218.64 708.88,-218.64 708.88,-182.39 769.88,-182.39 769.88,-218.64"/>
<text text-anchor="start" x="719.88" y="-196.24" font-family="Helvetica,sans-Serif" font-size="12.00">known</text>
<path fill="none" stroke="black" stroke-width="2" d="M721.29,-183.39C721.29,-183.39 757.46,-183.39 757.46,-183.39 763.17,-183.39 768.88,-189.1 768.88,-194.81 768.88,-194.81 768.88,-206.22 768.88,-206.22 768.88,-211.93 763.17,-217.64 757.46,-217.64 757.46,-217.64 721.29,-217.64 721.29,-217.64 715.58,-217.64 709.88,-211.93 709.88,-206.22 709.88,-206.22 709.88,-194.81 709.88,-194.81 709.88,-189.1 715.58,-183.39 721.29,-183.39"/>
</g>
<!-- preparing&#45;failed -->
<g id="node6" class="node state regular">
<title>preparing&#45;failed</title>
<polygon fill="#ffffff" fill-opacity="0.003922" stroke="none" stroke-width="2" points="798,-164.64 680.75,-164.64 680.75,-128.39 798,-128.39 798,-164.64"/>
<text text-anchor="start" x="691.75" y="-142.24" font-family="Helvetica,sans-Serif" font-size="12.00">preparing&#45;failed</text>
<path fill="none" stroke="black" stroke-width="2" d="M693.17,-129.39C693.17,-129.39 785.58,-129.39 785.58,-129.39 791.29,-129.39 797,-135.1 797,-140.81 797,-140.81 797,-152.22 797,-152.22 797,-157.93 791.29,-163.64 785.58,-163.64 785.58,-163.64 693.17,-163.64 693.17,-163.64 687.46,-163.64 681.75,-157.93 681.75,-152.22 681.75,-152.22 681.75,-140.81 681.75,-140.81 681.75,-135.1 687.46,-129.39 693.17,-129.39"/>
</g>
<!-- preparing&#45;for&#45;installation -->
<g id="node7" class="node state regular">
<title>preparing&#45;for&#45;installation</title>
<polygon fill="#ffffff" fill-opacity="0.003922" stroke="none" stroke-width="2" points="191.75,-236.64 22,-236.64 22,-200.39 191.75,-200.39 191.75,-236.64"/>
<text text-anchor="start" x="33" y="-214.24" font-family="Helvetica,sans-Serif" font-size="12.00">preparing&#45;for&#45;installation</text>
<path fill="none" stroke="black" stroke-width="2" d="M34.42,-201.39C34.42,-201.39 179.33,-201.39 179.33,-201.39 185.04,-201.39 190.75,-207.1 190.75,-212.81 190.75,-212.81 190.75,-224.22 190.75,-224.22 190.75,-229.93 185.04,-235.64 179.33,-235.64 179.33,-235.64 34.42,-235.64 34.42,-235.64 28.71,-235.64 23,-229.93 23,-224.22 23,-224.22 23,-212.81 23,-212.81 23,-207.1 28.71,-201.39 34.42,-201.39"/>
</g>
<!-- preparing&#45;for&#45;installation&#45;&gt;disconnected -->
<g id="edge9" class="edge transition">
<title>preparing&#45;for&#45;installation&#45;&gt;disconnected</title>
<path fill="none" stroke="black" d="M112.88,-236.4C123.81,-271.69 153.44,-349.76 209.75,-383.51 357.99,-472.37 573.51,-448.54 677.6,-429.59"/>
<polygon fill="black" stroke="black" points="678.16,-433.05 687.34,-427.77 676.87,-426.17 678.16,-433.05"/>
<text text-anchor="start" x="230" y="-450.66" font-family="Helvetica,sans-Serif" font-size="10.00">Refresh &#45; Move preparing host to disconnected when connection times out &#160;&#160;</text>
</g>
<!-- preparing&#45;for&#45;installation&#45;&gt;discovering -->
<g id="edge10" class="edge transition">
<title>preparing&#45;for&#45;installation&#45;&gt;discovering</title>
<path fill="none" stroke="black" d="M117.58,-236.33C133.1,-262.77 166.23,-311.54 209.75,-332.51 291.99,-372.15 564.87,-368.34 683.03,-364.64"/>
<polygon fill="black" stroke="black" points="682.91,-368.15 692.79,-364.32 682.68,-361.15 682.91,-368.15"/>
<text text-anchor="start" x="337.25" y="-370.07" font-family="Helvetica,sans-Serif" font-size="10.00">Register Host &#45; Re&#45;registration &#160;&#160;</text>
</g>
<!-- preparing&#45;for&#45;installation&#45;&gt;error -->
<g id="edge2" class="edge transition">
<title>preparing&#45;for&#45;installation&#45;&gt;error</title>
<path fill="none" stroke="black" d="M133.76,-236.55C153.58,-249.33 182.13,-265.55 209.75,-273.51 387.4,-324.71 611.99,-317.09 700.27,-311.45"/>
<polygon fill="black" stroke="black" points="700.31,-314.95 710.05,-310.79 699.84,-307.97 700.31,-314.95"/>
<text text-anchor="start" x="209.75" y="-318.75" font-family="Helvetica,sans-Serif" font-size="10.00">Media Disconnect &#45; Move to error when virtual media disconnects post&#45;installation &#160;&#160;</text>
</g>
<!-- preparing&#45;for&#45;installation&#45;&gt;insufficient -->
<g id="edge5" class="edge transition">
<title>preparing&#45;for&#45;installation&#45;&gt;insufficient</title>
<path fill="none" stroke="black" d="M191.65,-236.09C197.76,-237.02 203.84,-237.85 209.75,-238.51 382.74,-257.98 589.44,-257.39 685.04,-255.77"/>
<polygon fill="black" stroke="black" points="684.96,-259.27 694.89,-255.59 684.83,-252.28 684.96,-259.27"/>
<text text-anchor="start" x="259.25" y="-259.75" font-family="Helvetica,sans-Serif" font-size="10.00">Refresh &#45; Preparing failed disk speed host move to insufficient &#160;&#160;</text>
</g>
<!-- preparing&#45;for&#45;installation&#45;&gt;known -->
<g id="edge1" class="edge transition">
<title>preparing&#45;for&#45;installation&#45;&gt;known</title>
<path fill="none" stroke="black" d="M191.73,-220.74C293.63,-222.79 470.74,-224.2 622.25,-214.51 647.5,-212.9 675.68,-209.54 697.96,-206.52"/>
<polygon fill="black" stroke="black" points="698.43,-209.98 707.85,-205.14 697.46,-203.05 698.43,-209.98"/>
<text text-anchor="start" x="305.38" y="-225.48" font-family="Helvetica,sans-Serif" font-size="10.00">Cancel Installation &#45; Cancel while preparing &#160;&#160;</text>
</g>
<!-- preparing&#45;for&#45;installation&#45;&gt;known -->
<g id="edge4" class="edge transition">
<title>preparing&#45;for&#45;installation&#45;&gt;known</title>
<path fill="none" stroke="black" d="M189.39,-200.41C196.25,-199.34 203.11,-198.43 209.75,-197.76 392.16,-179.38 438.93,-195.59 622.25,-197.76 647.38,-198.06 675.55,-198.72 697.86,-199.32"/>
<polygon fill="black" stroke="black" points="697.66,-202.81 707.75,-199.59 697.85,-195.82 697.66,-202.81"/>
<text text-anchor="start" x="241.62" y="-201.01" font-family="Helvetica,sans-Serif" font-size="10.00">Refresh &#45; Move preparing host to known when cluster stops preparing &#160;&#160;</text>
</g>
<!-- preparing&#45;for&#45;installation&#45;&gt;preparing&#45;failed -->
<g id="edge6" class="edge transition">
<title>preparing&#45;for&#45;installation&#45;&gt;preparing&#45;failed</title>
<path fill="none" stroke="black" d="M139.81,-200.46C159.36,-190.36 185.24,-178.65 209.75,-172.76 295,-152.27 546.93,-147.75 669.64,-146.77"/>
<polygon fill="black" stroke="black" points="669.62,-150.27 679.59,-146.69 669.57,-143.27 669.62,-150.27"/>
<text text-anchor="start" x="288.12" y="-176.01" font-family="Helvetica,sans-Serif" font-size="10.00">Refresh &#45; Preparing timed out host move to known &#160;&#160;</text>
</g>
<!-- preparing&#45;for&#45;installation&#45;&gt;preparing&#45;failed -->
<g id="edge7" class="edge transition">
<title>preparing&#45;for&#45;installation&#45;&gt;preparing&#45;failed</title>
<path fill="none" stroke="black" d="M121.73,-200.51C139.45,-179.14 172.33,-144.66 209.75,-130.76 295.68,-98.86 530.79,-124.59 622.25,-130.76 637.69,-131.81 654.2,-133.62 669.78,-135.65"/>
<polygon fill="black" stroke="black" points="669.06,-139.09 679.44,-136.96 670,-132.15 669.06,-139.09"/>
<text text-anchor="start" x="248" y="-134.01" font-family="Helvetica,sans-Serif" font-size="10.00">Refresh &#45; Preparing failed image pull host move to preparing failed &#160;&#160;</text>
</g>
<!-- preparing&#45;for&#45;installation&#45;&gt;preparing&#45;for&#45;installation -->
<g id="edge8" class="edge transition">
<title>preparing&#45;for&#45;installation&#45;&gt;preparing&#45;for&#45;installation</title>
<path fill="none" stroke="black" d="M51.31,-236.36C41.86,-245.92 60.39,-254.64 106.88,-254.64 133.75,-254.64 151.28,-251.73 159.46,-247.42"/>
<polygon fill="black" stroke="black" points="162.83,-248.38 162.05,-237.82 156.07,-246.56 162.83,-248.38"/>
<text text-anchor="start" x="0" y="-257.89" font-family="Helvetica,sans-Serif" font-size="10.00">Refresh &#45; Stay in preparing for installation &#160;&#160;</text>
</g>
<!-- preparing&#45;successful -->
<g id="node8" class="node state regular">
<title>preparing&#45;successful</title>
<polygon fill="#ffffff" fill-opacity="0.003922" stroke="none" stroke-width="2" points="812.25,-110.64 666.5,-110.64 666.5,-74.39 812.25,-74.39 812.25,-110.64"/>
<text text-anchor="start" x="677.5" y="-88.24" font-family="Helvetica,sans-Serif" font-size="12.00">preparing&#45;successful</text>
<path fill="none" stroke="black" stroke-width="2" d="M678.92,-75.39C678.92,-75.39 799.83,-75.39 799.83,-75.39 805.54,-75.39 811.25,-81.1 811.25,-86.81 811.25,-86.81 811.25,-98.22 811.25,-98.22 811.25,-103.93 805.54,-109.64 799.83,-109.64 799.83,-109.64 678.92,-109.64 678.92,-109.64 673.21,-109.64 667.5,-103.93 667.5,-98.22 667.5,-98.22 667.5,-86.81 667.5,-86.81 667.5,-81.1 673.21,-75.39 678.92,-75.39"/>
</g>
<!-- preparing&#45;for&#45;installation&#45;&gt;preparing&#45;successful -->
<g id="edge3" class="edge transition">
<title>preparing&#45;for&#45;installation&#45;&gt;preparing&#45;successful</title>
<path fill="none" stroke="black" d="M116.73,-200.49C131.55,-172.63 164.29,-120.1 209.75,-98.76 286.37,-62.8 526.97,-75.41 655.5,-85.27"/>
<polygon fill="black" stroke="black" points="655.07,-88.75 665.31,-86.04 655.62,-81.77 655.07,-88.75"/>
<text text-anchor="start" x="300.88" y="-102.01" font-family="Helvetica,sans-Serif" font-size="10.00">Refresh &#45; Refresh successfully preparing host &#160;&#160;</text>
</g>
<!-- resetting&#45;pending&#45;user&#45;action -->
<g id="node9" class="node state regular">
<title>resetting&#45;pending&#45;user&#45;action</title>
<polygon fill="#ffffff" fill-opacity="0.003922" stroke="none" stroke-width="2" points="838.5,-56.64 640.25,-56.64 640.25,-20.39 838.5,-20.39 838.5,-56.64"/>
<text text-anchor="start" x="651.25" y="-34.24" font-family="Helvetica,sans-Serif" font-size="12.00">resetting&#45;pending&#45;user&#45;action</text>
<path fill="none" stroke="black" stroke-width="2" d="M652.67,-21.39C652.67,-21.39 826.08,-21.39 826.08,-21.39 831.79,-21.39 837.5,-27.1 837.5,-32.81 837.5,-32.81 837.5,-44.22 837.5,-44.22 837.5,-49.93 831.79,-55.64 826.08,-55.64 826.08,-55.64 652.67,-55.64 652.67,-55.64 646.96,-55.64 641.25,-49.93 641.25,-44.22 641.25,-44.22 641.25,-32.81 641.25,-32.81 641.25,-27.1 646.96,-21.39 652.67,-21.39"/>
</g>
<!-- preparing&#45;for&#45;installation&#45;&gt;resetting&#45;pending&#45;user&#45;action -->
<g id="edge11" class="edge transition">
<title>preparing&#45;for&#45;installation&#45;&gt;resetting&#45;pending&#45;user&#45;action</title>
<path fill="none" stroke="black" d="M113.13,-200.41C124.32,-165.54 154.16,-89.68 209.75,-57.76 347.58,21.37 540.63,2.31 651.26,-18.35"/>
<polygon fill="black" stroke="black" points="650.4,-21.74 660.88,-20.19 651.72,-14.87 650.4,-21.74"/>
<text text-anchor="start" x="243.88" y="-61.01" font-family="Helvetica,sans-Serif" font-size="10.00">Resetting, Pending User Action &#45; Reset pending user action all states &#160;&#160;</text>
</g>
</g>
</svg>
