<?xml version="1.0" encoding="UTF-8" standalone="no"?>
<!DOCTYPE svg PUBLIC "-//W3C//DTD SVG 1.1//EN"
 "http://www.w3.org/Graphics/SVG/1.1/DTD/svg11.dtd">
<!-- Generated by graphviz version 7.1.0 (0)
 -->
<!-- Title: state transitions Pages: 1 -->
<svg width="760pt" height="445pt"
 viewBox="0.00 0.00 760.00 445.47" xmlns="http://www.w3.org/2000/svg" xmlns:xlink="http://www.w3.org/1999/xlink">
<g id="graph0" class="graph" transform="scale(1 1) rotate(0) translate(4 441.47)">
<title>state transitions</title>
<polygon fill="white" stroke="none" points="-4,4 -4,-441.47 756,-441.47 756,4 -4,4"/>
<!-- disconnected -->
<g id="node1" class="node state regular">
<title>disconnected</title>
<polygon fill="#ffffff" fill-opacity="0.003922" stroke="none" stroke-width="2" points="709.5,-435.47 615.5,-435.47 615.5,-399.47 709.5,-399.47 709.5,-435.47"/>
<text text-anchor="start" x="626.5" y="-413.87" font-family="Helvetica,sans-Serif" font-size="12.00">disconnected</text>
<path fill="none" stroke="black" stroke-width="2" d="M627.5,-400.97C627.5,-400.97 697.5,-400.97 697.5,-400.97 703,-400.97 708.5,-406.47 708.5,-411.97 708.5,-411.97 708.5,-422.97 708.5,-422.97 708.5,-428.47 703,-433.97 697.5,-433.97 697.5,-433.97 627.5,-433.97 627.5,-433.97 622,-433.97 616.5,-428.47 616.5,-422.97 616.5,-422.97 616.5,-411.97 616.5,-411.97 616.5,-406.47 622,-400.97 627.5,-400.97"/>
</g>
<!-- discovering -->
<g id="node2" class="node state regular">
<title>discovering</title>
<polygon fill="#ffffff" fill-opacity="0.003922" stroke="none" stroke-width="2" points="704.5,-381.47 620.5,-381.47 620.5,-345.47 704.5,-345.47 704.5,-381.47"/>
<text text-anchor="start" x="631.5" y="-359.87" font-family="Helvetica,sans-Serif" font-size="12.00">discovering</text>
<path fill="none" stroke="black" stroke-width="2" d="M632.5,-346.97C632.5,-346.97 692.5,-346.97 692.5,-346.97 698,-346.97 703.5,-352.47 703.5,-357.97 703.5,-357.97 703.5,-368.97 703.5,-368.97 703.5,-374.47 698,-379.97 692.5,-379.97 692.5,-379.97 632.5,-379.97 632.5,-379.97 627,-379.97 621.5,-374.47 621.5,-368.97 621.5,-368.97 621.5,-357.97 621.5,-357.97 621.5,-352.47 627,-346.97 632.5,-346.97"/>
</g>
<!-- error -->
<g id="node3" class="node state regular">
<title>error</title>
<polygon fill="#ffffff" fill-opacity="0.003922" stroke="none" stroke-width="2" points="690.5,-327.47 634.5,-327.47 634.5,-291.47 690.5,-291.47 690.5,-327.47"/>
<text text-anchor="start" x="650" y="-305.87" font-family="Helvetica,sans-Serif" font-size="12.00">error</text>
<path fill="none" stroke="black" stroke-width="2" d="M646.5,-292.97C646.5,-292.97 678.5,-292.97 678.5,-292.97 684,-292.97 689.5,-298.47 689.5,-303.97 689.5,-303.97 689.5,-314.97 689.5,-314.97 689.5,-320.47 684,-325.97 678.5,-325.97 678.5,-325.97 646.5,-325.97 646.5,-325.97 641,-325.97 635.5,-320.47 635.5,-314.97 635.5,-314.97 635.5,-303.97 635.5,-303.97 635.5,-298.47 641,-292.97 646.5,-292.97"/>
</g>
<!-- insufficient -->
<g id="node4" class="node state regular">
<title>insufficient</title>
<polygon fill="#ffffff" fill-opacity="0.003922" stroke="none" stroke-width="2" points="702.5,-273.47 622.5,-273.47 622.5,-237.47 702.5,-237.47 702.5,-273.47"/>
<text text-anchor="start" x="633.5" y="-251.87" font-family="Helvetica,sans-Serif" font-size="12.00">insufficient</text>
<path fill="none" stroke="black" stroke-width="2" d="M634.5,-238.97C634.5,-238.97 690.5,-238.97 690.5,-238.97 696,-238.97 701.5,-244.47 701.5,-249.97 701.5,-249.97 701.5,-260.97 701.5,-260.97 701.5,-266.47 696,-271.97 690.5,-271.97 690.5,-271.97 634.5,-271.97 634.5,-271.97 629,-271.97 623.5,-266.47 623.5,-260.97 623.5,-260.97 623.5,-249.97 623.5,-249.97 623.5,-244.47 629,-238.97 634.5,-238.97"/>
</g>
<!-- known -->
<g id="node5" class="node state regular">
<title>known</title>
<polygon fill="#ffffff" fill-opacity="0.003922" stroke="none" stroke-width="2" points="691.5,-219.47 633.5,-219.47 633.5,-183.47 691.5,-183.47 691.5,-219.47"/>
<text text-anchor="start" x="644.5" y="-197.87" font-family="Helvetica,sans-Serif" font-size="12.00">known</text>
<path fill="none" stroke="black" stroke-width="2" d="M645.5,-184.97C645.5,-184.97 679.5,-184.97 679.5,-184.97 685,-184.97 690.5,-190.47 690.5,-195.97 690.5,-195.97 690.5,-206.97 690.5,-206.97 690.5,-212.47 685,-217.97 679.5,-217.97 679.5,-217.97 645.5,-217.97 645.5,-217.97 640,-217.97 634.5,-212.47 634.5,-206.97 634.5,-206.97 634.5,-195.97 634.5,-195.97 634.5,-190.47 640,-184.97 645.5,-184.97"/>
</g>
<!-- preparing&#45;failed -->
<g id="node6" class="node state regular">
<title>preparing&#45;failed</title>
<polygon fill="#ffffff" fill-opacity="0.003922" stroke="none" stroke-width="2" points="716,-165.47 609,-165.47 609,-129.47 716,-129.47 716,-165.47"/>
<text text-anchor="start" x="620.5" y="-143.87" font-family="Helvetica,sans-Serif" font-size="12.00">preparing&#45;failed</text>
<path fill="none" stroke="black" stroke-width="2" d="M621,-130.97C621,-130.97 704,-130.97 704,-130.97 709.5,-130.97 715,-136.47 715,-141.97 715,-141.97 715,-152.97 715,-152.97 715,-158.47 709.5,-163.97 704,-163.97 704,-163.97 621,-163.97 621,-163.97 615.5,-163.97 610,-158.47 610,-152.97 610,-152.97 610,-141.97 610,-141.97 610,-136.47 615.5,-130.97 621,-130.97"/>
</g>
<!-- preparing&#45;for&#45;installation -->
<g id="node7" class="node state regular">
<title>preparing&#45;for&#45;installation</title>
<polygon fill="#ffffff" fill-opacity="0.003922" stroke="none" stroke-width="2" points="171,-239.47 19,-239.47 19,-203.47 171,-203.47 171,-239.47"/>
<text text-anchor="start" x="30" y="-217.87" font-family="Helvetica,sans-Serif" font-size="12.00">preparing&#45;for&#45;installation</text>
<path fill="none" stroke="black" stroke-width="2" d="M31,-204.97C31,-204.97 159,-204.97 159,-204.97 164.5,-204.97 170,-210.47 170,-215.97 170,-215.97 170,-226.97 170,-226.97 170,-232.47 164.5,-237.97 159,-237.97 159,-237.97 31,-237.97 31,-237.97 25.5,-237.97 20,-232.47 20,-226.97 20,-226.97 20,-215.97 20,-215.97 20,-210.47 25.5,-204.97 31,-204.97"/>
</g>
<!-- preparing&#45;for&#45;installation&#45;&gt;disconnected -->
<g id="edge8" class="edge transition">
<title>preparing&#45;for&#45;installation&#45;&gt;disconnected</title>
<path fill="none" stroke="black" d="M99.55,-239.36C107.87,-275.91 132.34,-358.7 189,-394.47 256.58,-437.12 494.47,-428.22 604.68,-421.49"/>
<polygon fill="black" stroke="black" points="604.62,-425 614.38,-420.88 604.18,-418.02 604.62,-425"/>
<text text-anchor="start" x="206" y="-429.47" font-family="Helvetica,sans-Serif" font-size="10.00">Refresh &#45; Move preparing host to disconnected when connection times out &#160;&#160;</text>
</g>
<!-- preparing&#45;for&#45;installation&#45;&gt;discovering -->
<g id="edge9" class="edge transition">
<title>preparing&#45;for&#45;installation&#45;&gt;discovering</title>
<path fill="none" stroke="black" d="M105.88,-239.21C120.5,-263.5 150.38,-306.3 189,-325.47 327.94,-394.43 518.43,-382.44 609.24,-371.32"/>
<polygon fill="black" stroke="black" points="609.61,-374.8 619.09,-370.06 608.73,-367.86 609.61,-374.8"/>
<text text-anchor="start" x="301" y="-382.47" font-family="Helvetica,sans-Serif" font-size="10.00">Register Host &#45; Re&#45;registration &#160;&#160;</text>
</g>
<!-- preparing&#45;for&#45;installation&#45;&gt;error -->
<g id="edge2" class="edge transition">
<title>preparing&#45;for&#45;installation&#45;&gt;error</title>
<path fill="none" stroke="black" d="M125.91,-239.36C143.63,-249.08 166.88,-260.33 189,-266.47 345.62,-309.93 541.54,-311.94 623.11,-310.57"/>
<polygon fill="black" stroke="black" points="623.08,-314.07 633,-310.38 622.94,-307.08 623.08,-314.07"/>
<text text-anchor="start" x="189" y="-313.47" font-family="Helvetica,sans-Serif" font-size="10.00">Media Disconnect &#45; Move to error when virtual media disconnects post&#45;installation &#160;&#160;</text>
</g>
<!-- preparing&#45;for&#45;installation&#45;&gt;insufficient -->
<g id="edge5" class="edge transition">
<title>preparing&#45;for&#45;installation&#45;&gt;insufficient</title>
<path fill="none" stroke="black" d="M170.82,-230.77C176.97,-231.4 183.09,-231.97 189,-232.47 342.56,-245.27 524.84,-251.66 611.25,-254.16"/>
<polygon fill="black" stroke="black" points="610.94,-257.65 621.03,-254.44 611.14,-250.65 610.94,-257.65"/>
<text text-anchor="start" x="232.5" y="-254.47" font-family="Helvetica,sans-Serif" font-size="10.00">Refresh &#45; Preparing failed disk speed host move to insufficient &#160;&#160;</text>
</g>
<!-- preparing&#45;for&#45;installation&#45;&gt;known -->
<g id="edge1" class="edge transition">
<title>preparing&#45;for&#45;installation&#45;&gt;known</title>
<path fill="none" stroke="black" d="M170.8,-218.82C292.45,-214.52 528.93,-206.15 622.26,-202.85"/>
<polygon fill="black" stroke="black" points="622.3,-206.35 632.17,-202.5 622.05,-199.36 622.3,-206.35"/>
<text text-anchor="start" x="273.5" y="-220.47" font-family="Helvetica,sans-Serif" font-size="10.00">Cancel Installation &#45; Cancel while preparing &#160;&#160;</text>
</g>
<!-- preparing&#45;for&#45;installation&#45;&gt;known -->
<g id="edge4" class="edge transition">
<title>preparing&#45;for&#45;installation&#45;&gt;known</title>
<path fill="none" stroke="black" d="M138.29,-203.61C153.93,-197.89 171.99,-192.31 189,-189.47 347.91,-162.89 541,-184.14 622.37,-195.48"/>
<polygon fill="black" stroke="black" points="621.65,-198.92 632.05,-196.87 622.64,-191.99 621.65,-198.92"/>
<text text-anchor="start" x="216.5" y="-192.47" font-family="Helvetica,sans-Serif" font-size="10.00">Refresh &#45; Move preparing host to known when cluster stops preparing &#160;&#160;</text>
</g>
<!-- preparing&#45;for&#45;installation&#45;&gt;preparing&#45;failed -->
<g id="edge6" class="edge transition">
<title>preparing&#45;for&#45;installation&#45;&gt;preparing&#45;failed</title>
<path fill="none" stroke="black" d="M116.47,-203.52C134.28,-189.15 161.48,-170.02 189,-161.47 329.73,-117.73 505.51,-128.46 597.93,-138.77"/>
<polygon fill="black" stroke="black" points="597.48,-142.24 607.82,-139.91 598.29,-135.29 597.48,-142.24"/>
<text text-anchor="start" x="224.5" y="-164.47" font-family="Helvetica,sans-Serif" font-size="10.00">Refresh &#45; Preparing failed image pull host move to preparing failed &#160;&#160;</text>
</g>
<!-- preparing&#45;for&#45;installation&#45;&gt;preparing&#45;for&#45;installation -->
<g id="edge7" class="edge transition">
<title>preparing&#45;for&#45;installation&#45;&gt;preparing&#45;for&#45;installation</title>
<path fill="none" stroke="black" d="M45.21,-239.25C36.74,-248.78 53.34,-257.47 95,-257.47 119.08,-257.47 134.79,-254.56 142.12,-250.27"/>
<polygon fill="black" stroke="black" points="145.49,-251.26 144.44,-240.72 138.68,-249.61 145.49,-251.26"/>
<text text-anchor="start" x="0" y="-260.47" font-family="Helvetica,sans-Serif" font-size="10.00">Refresh &#45; Stay in preparing for installation &#160;&#160;</text>
</g>
<!-- preparing&#45;successful -->
<g id="node8" class="node state regular">
<title>preparing&#45;successful</title>
<polygon fill="#ffffff" fill-opacity="0.003922" stroke="none" stroke-width="2" points="729.5,-111.47 595.5,-111.47 595.5,-75.47 729.5,-75.47 729.5,-111.47"/>
<text text-anchor="start" x="606.5" y="-89.87" font-family="Helvetica,sans-Serif" font-size="12.00">preparing&#45;successful</text>
<path fill="none" stroke="black" stroke-width="2" d="M607.5,-76.97C607.5,-76.97 717.5,-76.97 717.5,-76.97 723,-76.97 728.5,-82.47 728.5,-87.97 728.5,-87.97 728.5,-98.97 728.5,-98.97 728.5,-104.47 723,-109.97 717.5,-109.97 717.5,-109.97 607.5,-109.97 607.5,-109.97 602,-109.97 596.5,-104.47 596.5,-98.97 596.5,-98.97 596.5,-87.97 596.5,-87.97 596.5,-82.47 602,-76.97 607.5,-76.97"/>
</g>
<!-- preparing&#45;for&#45;installation&#45;&gt;preparing&#45;successful -->
<g id="edge3" class="edge transition">
<title>preparing&#45;for&#45;installation&#45;&gt;preparing&#45;successful</title>
<path fill="none" stroke="black" d="M105.17,-203.87C119.33,-178.8 149.11,-133.73 189,-114.47 316.67,-52.82 487.07,-64.77 584.47,-79.09"/>
<polygon fill="black" stroke="black" points="583.78,-82.53 594.2,-80.57 584.84,-75.61 583.78,-82.53"/>
<text text-anchor="start" x="268" y="-117.47" font-family="Helvetica,sans-Serif" font-size="10.00">Refresh &#45; Refresh successfully preparing host &#160;&#160;</text>
</g>
<!-- resetting&#45;pending&#45;user&#45;action -->
<g id="node9" class="node state regular">
<title>resetting&#45;pending&#45;user&#45;action</title>
<polygon fill="#ffffff" fill-opacity="0.003922" stroke="none" stroke-width="2" points="752,-57.47 573,-57.47 573,-21.47 752,-21.47 752,-57.47"/>
<text text-anchor="start" x="584.5" y="-35.87" font-family="Helvetica,sans-Serif" font-size="12.00">resetting&#45;pending&#45;user&#45;action</text>
<path fill="none" stroke="black" stroke-width="2" d="M585,-22.97C585,-22.97 740,-22.97 740,-22.97 745.5,-22.97 751,-28.47 751,-33.97 751,-33.97 751,-44.97 751,-44.97 751,-50.47 745.5,-55.97 740,-55.97 740,-55.97 585,-55.97 585,-55.97 579.5,-55.97 574,-50.47 574,-44.97 574,-44.97 574,-33.97 574,-33.97 574,-28.47 579.5,-22.97 585,-22.97"/>
</g>
<!-- preparing&#45;for&#45;installation&#45;&gt;resetting&#45;pending&#45;user&#45;action -->
<g id="edge10" class="edge transition">
<title>preparing&#45;for&#45;installation&#45;&gt;resetting&#45;pending&#45;user&#45;action</title>
<path fill="none" stroke="black" d="M99.7,-203.6C108.22,-167.55 132.96,-86.64 189,-52.47 309.76,21.18 482.09,1.55 581.81,-19.14"/>
<polygon fill="black" stroke="black" points="581.02,-22.55 591.53,-21.21 582.48,-15.7 581.02,-22.55"/>
<text text-anchor="start" x="216.5" y="-55.47" font-family="Helvetica,sans-Serif" font-size="10.00">Resetting, Pending User Action &#45; Reset pending user action all states &#160;&#160;</text>
</g>
</g>
</svg>
