<?xml version="1.0" encoding="UTF-8" standalone="no"?>
<!DOCTYPE svg PUBLIC "-//W3C//DTD SVG 1.1//EN"
 "http://www.w3.org/Graphics/SVG/1.1/DTD/svg11.dtd">
<!-- Generated by graphviz version 7.1.0 (0)
 -->
<!-- Title: state transitions Pages: 1 -->
<svg width="611pt" height="294pt"
 viewBox="0.00 0.00 611.00 294.41" xmlns="http://www.w3.org/2000/svg" xmlns:xlink="http://www.w3.org/1999/xlink">
<g id="graph0" class="graph" transform="scale(1 1) rotate(0) translate(4 290.41)">
<title>state transitions</title>
<polygon fill="white" stroke="none" points="-4,4 -4,-290.41 607,-290.41 607,4 -4,4"/>
<!-- disconnected -->
<g id="node1" class="node state regular">
<title>disconnected</title>
<polygon fill="#ffffff" fill-opacity="0.003922" stroke="none" stroke-width="2" points="247,-165.41 153,-165.41 153,-129.41 247,-129.41 247,-165.41"/>
<text text-anchor="start" x="164" y="-143.81" font-family="Helvetica,sans-Serif" font-size="12.00">disconnected</text>
<path fill="none" stroke="black" stroke-width="2" d="M165,-130.91C165,-130.91 235,-130.91 235,-130.91 240.5,-130.91 246,-136.41 246,-141.91 246,-141.91 246,-152.91 246,-152.91 246,-158.41 240.5,-163.91 235,-163.91 235,-163.91 165,-163.91 165,-163.91 159.5,-163.91 154,-158.41 154,-152.91 154,-152.91 154,-141.91 154,-141.91 154,-136.41 159.5,-130.91 165,-130.91"/>
</g>
<!-- disconnected&#45;&gt;disconnected -->
<g id="edge1" class="edge transition">
<title>disconnected&#45;&gt;disconnected</title>
<path fill="none" stroke="black" d="M184.85,-165.19C182.28,-174.73 187.33,-183.41 200,-183.41 207.13,-183.41 211.84,-180.66 214.15,-176.56"/>
<polygon fill="black" stroke="black" points="217.62,-176.97 215.01,-166.7 210.65,-176.36 217.62,-176.97"/>
<text text-anchor="start" x="0" y="-186.41" font-family="Helvetica,sans-Serif" font-size="10.00">Media Disconnect &#45; Move to disconnected when virtual media disconnects pre&#45;installation &#160;&#160;</text>
</g>
<!-- disconnected&#45;&gt;disconnected -->
<g id="edge3" class="edge transition">
<title>disconnected&#45;&gt;disconnected</title>
<path fill="none" stroke="black" d="M174.67,-165.39C161.12,-182.61 169.56,-201.41 200,-201.41 224.5,-201.41 234.75,-189.24 230.75,-175.51"/>
<polygon fill="black" stroke="black" points="233.85,-173.88 226.04,-166.72 227.68,-177.19 233.85,-173.88"/>
<text text-anchor="start" x="56.5" y="-204.41" font-family="Helvetica,sans-Serif" font-size="10.00">Refresh &#45; Move host to disconnected when connected times out &#160;&#160;</text>
</g>
<!-- discovering -->
<g id="node2" class="node state regular">
<title>discovering</title>
<polygon fill="#ffffff" fill-opacity="0.003922" stroke="none" stroke-width="2" points="588.5,-276.41 504.5,-276.41 504.5,-240.41 588.5,-240.41 588.5,-276.41"/>
<text text-anchor="start" x="515.5" y="-254.81" font-family="Helvetica,sans-Serif" font-size="12.00">discovering</text>
<path fill="none" stroke="black" stroke-width="2" d="M516.5,-241.91C516.5,-241.91 576.5,-241.91 576.5,-241.91 582,-241.91 587.5,-247.41 587.5,-252.91 587.5,-252.91 587.5,-263.91 587.5,-263.91 587.5,-269.41 582,-274.91 576.5,-274.91 576.5,-274.91 516.5,-274.91 516.5,-274.91 511,-274.91 505.5,-269.41 505.5,-263.91 505.5,-263.91 505.5,-252.91 505.5,-252.91 505.5,-247.41 511,-241.91 516.5,-241.91"/>
</g>
<!-- disconnected&#45;&gt;discovering -->
<g id="edge4" class="edge transition">
<title>disconnected&#45;&gt;discovering</title>
<path fill="none" stroke="black" d="M206.96,-165.14C215.69,-188.01 234.34,-226.91 265,-244.41 335.86,-284.86 433.94,-278.41 493.37,-269.09"/>
<polygon fill="black" stroke="black" points="493.94,-272.54 503.23,-267.45 492.79,-265.64 493.94,-272.54"/>
<text text-anchor="start" x="265" y="-278.41" font-family="Helvetica,sans-Serif" font-size="10.00">Refresh &#45; Host reconnected without inventory &#160;&#160;</text>
</g>
<!-- disconnected&#45;&gt;discovering -->
<g id="edge9" class="edge transition">
<title>disconnected&#45;&gt;discovering</title>
<path fill="none" stroke="black" d="M213.49,-165.17C225.01,-180.01 243.55,-200.33 265,-210.41 348.69,-249.74 381.89,-210.64 472,-231.41 479.21,-233.07 486.68,-235.25 493.97,-237.65"/>
<polygon fill="black" stroke="black" points="492.82,-240.95 503.42,-240.92 495.11,-234.34 492.82,-240.95"/>
<text text-anchor="start" x="297.5" y="-234.41" font-family="Helvetica,sans-Serif" font-size="10.00">Register Host &#45; Re&#45;registration &#160;&#160;</text>
</g>
<!-- insufficient -->
<g id="node3" class="node state regular">
<title>insufficient</title>
<polygon fill="#ffffff" fill-opacity="0.003922" stroke="none" stroke-width="2" points="586.5,-215.41 506.5,-215.41 506.5,-179.41 586.5,-179.41 586.5,-215.41"/>
<text text-anchor="start" x="517.5" y="-193.81" font-family="Helvetica,sans-Serif" font-size="12.00">insufficient</text>
<path fill="none" stroke="black" stroke-width="2" d="M518.5,-180.91C518.5,-180.91 574.5,-180.91 574.5,-180.91 580,-180.91 585.5,-186.41 585.5,-191.91 585.5,-191.91 585.5,-202.91 585.5,-202.91 585.5,-208.41 580,-213.91 574.5,-213.91 574.5,-213.91 518.5,-213.91 518.5,-213.91 513,-213.91 507.5,-208.41 507.5,-202.91 507.5,-202.91 507.5,-191.91 507.5,-191.91 507.5,-186.41 513,-180.91 518.5,-180.91"/>
</g>
<!-- disconnected&#45;&gt;insufficient -->
<g id="edge5" class="edge transition">
<title>disconnected&#45;&gt;insufficient</title>
<path fill="none" stroke="black" d="M234.74,-165.36C244.28,-169.69 254.84,-173.81 265,-176.41 343.79,-196.54 438.77,-199.37 495.53,-198.88"/>
<polygon fill="black" stroke="black" points="495.24,-202.39 505.19,-198.76 495.15,-195.39 495.24,-202.39"/>
<text text-anchor="start" x="276.5" y="-201.41" font-family="Helvetica,sans-Serif" font-size="10.00">Refresh &#45; Host has insufficient hardware &#160;&#160;</text>
</g>
<!-- disconnected&#45;&gt;insufficient -->
<g id="edge7" class="edge transition">
<title>disconnected&#45;&gt;insufficient</title>
<path fill="none" stroke="black" d="M246.86,-144.97C301.39,-143.25 394.75,-144 472,-163.41 477.95,-164.91 488.39,-169.33 499.56,-174.52"/>
<polygon fill="black" stroke="black" points="498.02,-177.66 508.55,-178.79 501.02,-171.34 498.02,-177.66"/>
<text text-anchor="start" x="310" y="-166.41" font-family="Helvetica,sans-Serif" font-size="10.00">Refresh &#45; Host not ready &#160;&#160;</text>
</g>
<!-- known -->
<g id="node4" class="node state regular">
<title>known</title>
<polygon fill="#ffffff" fill-opacity="0.003922" stroke="none" stroke-width="2" points="575.5,-160.41 517.5,-160.41 517.5,-124.41 575.5,-124.41 575.5,-160.41"/>
<text text-anchor="start" x="528.5" y="-138.81" font-family="Helvetica,sans-Serif" font-size="12.00">known</text>
<path fill="none" stroke="black" stroke-width="2" d="M529.5,-125.91C529.5,-125.91 563.5,-125.91 563.5,-125.91 569,-125.91 574.5,-131.41 574.5,-136.91 574.5,-136.91 574.5,-147.91 574.5,-147.91 574.5,-153.41 569,-158.91 563.5,-158.91 563.5,-158.91 529.5,-158.91 529.5,-158.91 524,-158.91 518.5,-153.41 518.5,-147.91 518.5,-147.91 518.5,-136.91 518.5,-136.91 518.5,-131.41 524,-125.91 529.5,-125.91"/>
</g>
<!-- disconnected&#45;&gt;known -->
<g id="edge8" class="edge transition">
<title>disconnected&#45;&gt;known</title>
<path fill="none" stroke="black" d="M246.89,-134.51C252.94,-133.23 259.09,-132.14 265,-131.41 356.31,-120.17 380.25,-124.58 472,-131.41 483.27,-132.25 495.43,-133.8 506.55,-135.48"/>
<polygon fill="black" stroke="black" points="505.77,-138.9 516.19,-137.02 506.87,-131.99 505.77,-138.9"/>
<text text-anchor="start" x="318.5" y="-134.41" font-family="Helvetica,sans-Serif" font-size="10.00">Refresh &#45; Host ready &#160;&#160;</text>
</g>
<!-- pending&#45;for&#45;input -->
<g id="node5" class="node state regular">
<title>pending&#45;for&#45;input</title>
<polygon fill="#ffffff" fill-opacity="0.003922" stroke="none" stroke-width="2" points="603,-106.41 490,-106.41 490,-70.41 603,-70.41 603,-106.41"/>
<text text-anchor="start" x="501.5" y="-84.81" font-family="Helvetica,sans-Serif" font-size="12.00">pending&#45;for&#45;input</text>
<path fill="none" stroke="black" stroke-width="2" d="M502,-71.91C502,-71.91 591,-71.91 591,-71.91 596.5,-71.91 602,-77.41 602,-82.91 602,-82.91 602,-93.91 602,-93.91 602,-99.41 596.5,-104.91 591,-104.91 591,-104.91 502,-104.91 502,-104.91 496.5,-104.91 491,-99.41 491,-93.91 491,-93.91 491,-82.91 491,-82.91 491,-77.41 496.5,-71.91 502,-71.91"/>
</g>
<!-- disconnected&#45;&gt;pending&#45;for&#45;input -->
<g id="edge6" class="edge transition">
<title>disconnected&#45;&gt;pending&#45;for&#45;input</title>
<path fill="none" stroke="black" d="M224.96,-129.59C236.47,-122 250.83,-113.88 265,-109.41 335.63,-87.15 421,-83.9 478.87,-84.94"/>
<polygon fill="black" stroke="black" points="478.48,-88.43 488.56,-85.17 478.64,-81.43 478.48,-88.43"/>
<text text-anchor="start" x="301.5" y="-112.41" font-family="Helvetica,sans-Serif" font-size="10.00">Refresh &#45; Host pending input &#160;&#160;</text>
</g>
<!-- unbinding -->
<g id="node6" class="node state regular">
<title>unbinding</title>
<polygon fill="#ffffff" fill-opacity="0.003922" stroke="none" stroke-width="2" points="584.5,-50.41 508.5,-50.41 508.5,-14.41 584.5,-14.41 584.5,-50.41"/>
<text text-anchor="start" x="519.5" y="-28.81" font-family="Helvetica,sans-Serif" font-size="12.00">unbinding</text>
<path fill="none" stroke="black" stroke-width="2" d="M520.5,-15.91C520.5,-15.91 572.5,-15.91 572.5,-15.91 578,-15.91 583.5,-21.41 583.5,-26.91 583.5,-26.91 583.5,-37.91 583.5,-37.91 583.5,-43.41 578,-48.91 572.5,-48.91 572.5,-48.91 520.5,-48.91 520.5,-48.91 515,-48.91 509.5,-43.41 509.5,-37.91 509.5,-37.91 509.5,-26.91 509.5,-26.91 509.5,-21.41 515,-15.91 520.5,-15.91"/>
</g>
<!-- disconnected&#45;&gt;unbinding -->
<g id="edge2" class="edge transition">
<title>disconnected&#45;&gt;unbinding</title>
<path fill="none" stroke="black" d="M210.32,-129.5C220.92,-111.11 240.05,-83.29 265,-69.41 275.02,-63.84 419.56,-46.72 497.13,-37.86"/>
<polygon fill="black" stroke="black" points="497.47,-41.34 507.01,-36.73 496.68,-34.39 497.47,-41.34"/>
<text text-anchor="start" x="278.5" y="-72.41" font-family="Helvetica,sans-Serif" font-size="10.00">Reclaim Host &#45; Reclaim pre&#45;installation &#160;&#160;</text>
</g>
<!-- disconnected&#45;&gt;unbinding -->
<g id="edge10" class="edge transition">
<title>disconnected&#45;&gt;unbinding</title>
<path fill="none" stroke="black" d="M204.5,-129.58C210.98,-101.98 227.75,-49.76 265,-27.41 336.8,15.67 438.67,-1.37 497.84,-17.21"/>
<polygon fill="black" stroke="black" points="496.7,-20.52 507.27,-19.83 498.57,-13.78 496.7,-20.52"/>
<text text-anchor="start" x="283" y="-30.41" font-family="Helvetica,sans-Serif" font-size="10.00">Unbind Host &#45; Unbind pre&#45;installation &#160;&#160;</text>
</g>
</g>
</svg>
