<?xml version="1.0" encoding="UTF-8" standalone="no"?>
<!DOCTYPE svg PUBLIC "-//W3C//DTD SVG 1.1//EN"
 "http://www.w3.org/Graphics/SVG/1.1/DTD/svg11.dtd">
<!-- Generated by graphviz version 5.0.0 (0)
 -->
<!-- Title: state transitions Pages: 1 -->
<svg width="742pt" height="76pt"
 viewBox="0.00 0.00 741.50 76.32" xmlns="http://www.w3.org/2000/svg" xmlns:xlink="http://www.w3.org/1999/xlink">
<g id="graph0" class="graph" transform="scale(1 1) rotate(0) translate(4 72.32)">
<title>state transitions</title>
<polygon fill="white" stroke="transparent" points="-4,4 -4,-72.32 737.5,-72.32 737.5,4 -4,4"/>
<!-- reclaiming&#45;rebooting -->
<g id="node1" class="node state regular">
<title>reclaiming&#45;rebooting</title>
<polygon fill="#ffffff" fill-opacity="0.003922" stroke="transparent" stroke-width="2" points="280.5,-39.32 148.5,-39.32 148.5,-3.32 280.5,-3.32 280.5,-39.32"/>
<text text-anchor="start" x="159.5" y="-17.72" font-family="Helvetica,sans-Serif" font-size="12.00">reclaiming&#45;rebooting</text>
<path fill="none" stroke="black" stroke-width="2" d="M160.5,-4.82C160.5,-4.82 268.5,-4.82 268.5,-4.82 274,-4.82 279.5,-10.32 279.5,-15.82 279.5,-15.82 279.5,-26.82 279.5,-26.82 279.5,-32.32 274,-37.82 268.5,-37.82 268.5,-37.82 160.5,-37.82 160.5,-37.82 155,-37.82 149.5,-32.32 149.5,-26.82 149.5,-26.82 149.5,-15.82 149.5,-15.82 149.5,-10.32 155,-4.82 160.5,-4.82"/>
</g>
<!-- reclaiming&#45;rebooting&#45;&gt;reclaiming&#45;rebooting -->
<g id="edge3" class="edge transition">
<title>reclaiming&#45;rebooting&#45;&gt;reclaiming&#45;rebooting</title>
<path fill="none" stroke="black" d="M178.68,-39.47C173.17,-48.86 185.11,-57.32 214.5,-57.32 232.41,-57.32 243.84,-54.18 248.79,-49.6"/>
<polygon fill="black" stroke="black" points="252.29,-49.88 250.32,-39.47 245.36,-48.84 252.29,-49.88"/>
<text text-anchor="start" x="0" y="-60.32" font-family="Helvetica,sans-Serif" font-size="10.00">Refresh &#45; Refresh without timeout during reclaiming&#45;rebooting should stay in reclaiming&#45;rebooting &#160;&#160;</text>
</g>
<!-- unbinding&#45;pending&#45;user&#45;action -->
<g id="node2" class="node state regular">
<title>unbinding&#45;pending&#45;user&#45;action</title>
<polygon fill="#ffffff" fill-opacity="0.003922" stroke="transparent" stroke-width="2" points="733.5,-39.32 547.5,-39.32 547.5,-3.32 733.5,-3.32 733.5,-39.32"/>
<text text-anchor="start" x="558.5" y="-17.72" font-family="Helvetica,sans-Serif" font-size="12.00">unbinding&#45;pending&#45;user&#45;action</text>
<path fill="none" stroke="black" stroke-width="2" d="M559.5,-4.82C559.5,-4.82 721.5,-4.82 721.5,-4.82 727,-4.82 732.5,-10.32 732.5,-15.82 732.5,-15.82 732.5,-26.82 732.5,-26.82 732.5,-32.32 727,-37.82 721.5,-37.82 721.5,-37.82 559.5,-37.82 559.5,-37.82 554,-37.82 548.5,-32.32 548.5,-26.82 548.5,-26.82 548.5,-15.82 548.5,-15.82 548.5,-10.32 554,-4.82 559.5,-4.82"/>
</g>
<!-- reclaiming&#45;rebooting&#45;&gt;unbinding&#45;pending&#45;user&#45;action -->
<g id="edge1" class="edge transition">
<title>reclaiming&#45;rebooting&#45;&gt;unbinding&#45;pending&#45;user&#45;action</title>
<path fill="none" stroke="black" d="M280.82,-21.32C349.21,-21.32 457.54,-21.32 537.27,-21.32"/>
<polygon fill="black" stroke="black" points="537.34,-24.82 547.34,-21.32 537.34,-17.82 537.34,-24.82"/>
<text text-anchor="start" x="298.5" y="-24.32" font-family="Helvetica,sans-Serif" font-size="10.00">Reclaim Failed &#45; Reclaim failure for reclaiming host &#160;&#160;</text>
</g>
<!-- reclaiming&#45;rebooting&#45;&gt;unbinding&#45;pending&#45;user&#45;action -->
<g id="edge2" class="edge transition">
<title>reclaiming&#45;rebooting&#45;&gt;unbinding&#45;pending&#45;user&#45;action</title>
<path fill="none" stroke="black" d="M280.59,-8.42C286.63,-7.57 292.67,-6.84 298.5,-6.32 400.76,2.84 427.07,0.63 529.5,-6.32 532.07,-6.49 534.66,-6.69 537.28,-6.91"/>
<polygon fill="black" stroke="black" points="537.19,-10.41 547.46,-7.84 537.82,-3.44 537.19,-10.41"/>
<text text-anchor="start" x="336.5" y="-9.32" font-family="Helvetica,sans-Serif" font-size="10.00">Refresh &#45; Refresh reclaiming host &#160;&#160;</text>
</g>
</g>
</svg>
