<?xml version="1.0" encoding="UTF-8" standalone="no"?>
<!DOCTYPE svg PUBLIC "-//W3C//DTD SVG 1.1//EN"
 "http://www.w3.org/Graphics/SVG/1.1/DTD/svg11.dtd">
<!-- Generated by graphviz version 5.0.0 (0)
 -->
<!-- Title: state transitions Pages: 1 -->
<svg width="752pt" height="227pt"
 viewBox="0.00 0.00 752.00 226.77" xmlns="http://www.w3.org/2000/svg" xmlns:xlink="http://www.w3.org/1999/xlink">
<g id="graph0" class="graph" transform="scale(1 1) rotate(0) translate(4 222.77)">
<title>state transitions</title>
<polygon fill="white" stroke="transparent" points="-4,4 -4,-222.77 748,-222.77 748,4 -4,4"/>
<!-- cancelled -->
<g id="node1" class="node state regular">
<title>cancelled</title>
<polygon fill="#ffffff" fill-opacity="0.003922" stroke="transparent" stroke-width="2" points="688,-173.77 614,-173.77 614,-137.77 688,-137.77 688,-173.77"/>
<text text-anchor="start" x="625" y="-152.17" font-family="Helvetica,sans-Serif" font-size="12.00">cancelled</text>
<path fill="none" stroke="black" stroke-width="2" d="M626,-139.27C626,-139.27 676,-139.27 676,-139.27 681.5,-139.27 687,-144.77 687,-150.27 687,-150.27 687,-161.27 687,-161.27 687,-166.77 681.5,-172.27 676,-172.27 676,-172.27 626,-172.27 626,-172.27 620.5,-172.27 615,-166.77 615,-161.27 615,-161.27 615,-150.27 615,-150.27 615,-144.77 620.5,-139.27 626,-139.27"/>
</g>
<!-- error -->
<g id="node2" class="node state regular">
<title>error</title>
<polygon fill="#ffffff" fill-opacity="0.003922" stroke="transparent" stroke-width="2" points="211,-102.77 155,-102.77 155,-66.77 211,-66.77 211,-102.77"/>
<text text-anchor="start" x="170.5" y="-81.17" font-family="Helvetica,sans-Serif" font-size="12.00">error</text>
<path fill="none" stroke="black" stroke-width="2" d="M167,-68.27C167,-68.27 199,-68.27 199,-68.27 204.5,-68.27 210,-73.77 210,-79.27 210,-79.27 210,-90.27 210,-90.27 210,-95.77 204.5,-101.27 199,-101.27 199,-101.27 167,-101.27 167,-101.27 161.5,-101.27 156,-95.77 156,-90.27 156,-90.27 156,-79.27 156,-79.27 156,-73.77 161.5,-68.27 167,-68.27"/>
</g>
<!-- error&#45;&gt;cancelled -->
<g id="edge1" class="edge transition">
<title>error&#45;&gt;cancelled</title>
<path fill="none" stroke="black" d="M209.72,-102.8C215.8,-106.31 222.43,-109.58 229,-111.77 359.75,-155.43 524.92,-158.74 603.87,-157.38"/>
<polygon fill="black" stroke="black" points="604.05,-160.88 613.98,-157.17 603.91,-153.88 604.05,-160.88"/>
<text text-anchor="start" x="241" y="-159.77" font-family="Helvetica,sans-Serif" font-size="10.00">Cancel Installation &#45; Installation canceled while host is installing &#160;&#160;</text>
</g>
<!-- error&#45;&gt;error -->
<g id="edge2" class="edge transition">
<title>error&#45;&gt;error</title>
<path fill="none" stroke="black" d="M173.95,-102.93C172.56,-112.31 175.58,-120.77 183,-120.77 187.52,-120.77 190.41,-117.63 191.66,-113.05"/>
<polygon fill="black" stroke="black" points="195.16,-113.05 192.05,-102.93 188.17,-112.79 195.16,-113.05"/>
<text text-anchor="start" x="0" y="-123.77" font-family="Helvetica,sans-Serif" font-size="10.00">Media Disconnect &#45; Move to error when virtual media disconnects post&#45;installation &#160;&#160;</text>
</g>
<!-- error&#45;&gt;error -->
<g id="edge4" class="edge transition">
<title>error&#45;&gt;error</title>
<path fill="none" stroke="black" d="M167.84,-103.03C159.98,-120.18 165.03,-138.77 183,-138.77 197.6,-138.77 203.67,-126.5 201.22,-112.7"/>
<polygon fill="black" stroke="black" points="204.52,-111.51 198.16,-103.03 197.84,-113.62 204.52,-111.51"/>
<text text-anchor="start" x="36" y="-141.77" font-family="Helvetica,sans-Serif" font-size="10.00">Refresh &#45; Log collection timed out during error should stay in error &#160;&#160;</text>
</g>
<!-- error&#45;&gt;error -->
<g id="edge5" class="edge transition">
<title>error&#45;&gt;error</title>
<path fill="none" stroke="black" d="M164.02,-102.85C147.23,-127.18 153.56,-156.77 183,-156.77 208.99,-156.77 216.97,-133.71 206.93,-111.57"/>
<polygon fill="black" stroke="black" points="209.96,-109.82 201.98,-102.85 203.87,-113.28 209.96,-109.82"/>
<text text-anchor="start" x="71" y="-159.77" font-family="Helvetica,sans-Serif" font-size="10.00">Refresh &#45; Refresh during error should stay in error &#160;&#160;</text>
</g>
<!-- error&#45;&gt;error -->
<g id="edge6" class="edge transition">
<title>error&#45;&gt;error</title>
<path fill="none" stroke="black" d="M161.27,-102.89C134.54,-134.01 141.79,-174.77 183,-174.77 220.67,-174.77 229.96,-140.72 210.87,-111.09"/>
<polygon fill="black" stroke="black" points="213.52,-108.8 204.73,-102.89 207.92,-112.99 213.52,-108.8"/>
<text text-anchor="start" x="100" y="-177.77" font-family="Helvetica,sans-Serif" font-size="10.00">Register Host &#45; Register during error &#160;&#160;</text>
</g>
<!-- resetting&#45;pending&#45;user&#45;action -->
<g id="node3" class="node state regular">
<title>resetting&#45;pending&#45;user&#45;action</title>
<polygon fill="#ffffff" fill-opacity="0.003922" stroke="transparent" stroke-width="2" points="740.5,-119.77 561.5,-119.77 561.5,-83.77 740.5,-83.77 740.5,-119.77"/>
<text text-anchor="start" x="573" y="-98.17" font-family="Helvetica,sans-Serif" font-size="12.00">resetting&#45;pending&#45;user&#45;action</text>
<path fill="none" stroke="black" stroke-width="2" d="M573.5,-85.27C573.5,-85.27 728.5,-85.27 728.5,-85.27 734,-85.27 739.5,-90.77 739.5,-96.27 739.5,-96.27 739.5,-107.27 739.5,-107.27 739.5,-112.77 734,-118.27 728.5,-118.27 728.5,-118.27 573.5,-118.27 573.5,-118.27 568,-118.27 562.5,-112.77 562.5,-107.27 562.5,-107.27 562.5,-96.27 562.5,-96.27 562.5,-90.77 568,-85.27 573.5,-85.27"/>
</g>
<!-- error&#45;&gt;resetting&#45;pending&#45;user&#45;action -->
<g id="edge7" class="edge transition">
<title>error&#45;&gt;resetting&#45;pending&#45;user&#45;action</title>
<path fill="none" stroke="black" d="M211.07,-85.76C275.9,-88.13 442.7,-94.21 551,-98.16"/>
<polygon fill="black" stroke="black" points="551.17,-101.67 561.29,-98.54 551.43,-94.68 551.17,-101.67"/>
<text text-anchor="start" x="229" y="-99.77" font-family="Helvetica,sans-Serif" font-size="10.00">Resetting, Pending User Action &#45; Reset pending user action all states &#160;&#160;</text>
</g>
<!-- unbinding&#45;pending&#45;user&#45;action -->
<g id="node4" class="node state regular">
<title>unbinding&#45;pending&#45;user&#45;action</title>
<polygon fill="#ffffff" fill-opacity="0.003922" stroke="transparent" stroke-width="2" points="744,-58.77 558,-58.77 558,-22.77 744,-22.77 744,-58.77"/>
<text text-anchor="start" x="569" y="-37.17" font-family="Helvetica,sans-Serif" font-size="12.00">unbinding&#45;pending&#45;user&#45;action</text>
<path fill="none" stroke="black" stroke-width="2" d="M570,-24.27C570,-24.27 732,-24.27 732,-24.27 737.5,-24.27 743,-29.77 743,-35.27 743,-35.27 743,-46.27 743,-46.27 743,-51.77 737.5,-57.27 732,-57.27 732,-57.27 570,-57.27 570,-57.27 564.5,-57.27 559,-51.77 559,-46.27 559,-46.27 559,-35.27 559,-35.27 559,-29.77 564.5,-24.27 570,-24.27"/>
</g>
<!-- error&#45;&gt;unbinding&#45;pending&#45;user&#45;action -->
<g id="edge3" class="edge transition">
<title>error&#45;&gt;unbinding&#45;pending&#45;user&#45;action</title>
<path fill="none" stroke="black" d="M211.35,-75.17C217.12,-73.45 223.21,-71.87 229,-70.77 259.41,-65.04 432.95,-53.81 547.52,-46.84"/>
<polygon fill="black" stroke="black" points="547.96,-50.32 557.73,-46.22 547.54,-43.33 547.96,-50.32"/>
<text text-anchor="start" x="304" y="-73.77" font-family="Helvetica,sans-Serif" font-size="10.00">Reclaim Host &#45; Reclaim failed host &#160;&#160;</text>
</g>
<!-- error&#45;&gt;unbinding&#45;pending&#45;user&#45;action -->
<g id="edge8" class="edge transition">
<title>error&#45;&gt;unbinding&#45;pending&#45;user&#45;action</title>
<path fill="none" stroke="black" d="M193.98,-66.7C201.77,-54.62 213.8,-39.72 229,-32.77 340.72,18.29 487.15,-1.13 574.59,-20.5"/>
<polygon fill="black" stroke="black" points="573.91,-23.93 584.44,-22.73 575.46,-17.11 573.91,-23.93"/>
<text text-anchor="start" x="276" y="-35.77" font-family="Helvetica,sans-Serif" font-size="10.00">Unbind Host &#45; Unbind during or after installation &#160;&#160;</text>
</g>
</g>
</svg>
