<?xml version="1.0" encoding="UTF-8" standalone="no"?>
<!DOCTYPE svg PUBLIC "-//W3C//DTD SVG 1.1//EN"
 "http://www.w3.org/Graphics/SVG/1.1/DTD/svg11.dtd">
<!-- Generated by graphviz version 7.1.0 (0)
 -->
<!-- Title: state transitions Pages: 1 -->
<svg width="752pt" height="227pt"
 viewBox="0.00 0.00 752.00 226.77" xmlns="http://www.w3.org/2000/svg" xmlns:xlink="http://www.w3.org/1999/xlink">
<g id="graph0" class="graph" transform="scale(1 1) rotate(0) translate(4 222.77)">
<title>state transitions</title>
<polygon fill="white" stroke="none" points="-4,4 -4,-222.77 748,-222.77 748,4 -4,4"/>
<!-- cancelled -->
<g id="node1" class="node state regular">
<title>cancelled</title>
<polygon fill="#ffffff" fill-opacity="0.003922" stroke="none" stroke-width="2" points="688,-173.77 614,-173.77 614,-137.77 688,-137.77 688,-173.77"/>
<text text-anchor="start" x="625" y="-152.17" font-family="Helvetica,sans-Serif" font-size="12.00">cancelled</text>
<path fill="none" stroke="black" stroke-width="2" d="M626,-139.27C626,-139.27 676,-139.27 676,-139.27 681.5,-139.27 687,-144.77 687,-150.27 687,-150.27 687,-161.27 687,-161.27 687,-166.77 681.5,-172.27 676,-172.27 676,-172.27 626,-172.27 626,-172.27 620.5,-172.27 615,-166.77 615,-161.27 615,-161.27 615,-150.27 615,-150.27 615,-144.77 620.5,-139.27 626,-139.27"/>
</g>
<!-- error -->
<g id="node2" class="node state regular">
<title>error</title>
<polygon fill="#ffffff" fill-opacity="0.003922" stroke="none" stroke-width="2" points="211,-102.77 155,-102.77 155,-66.77 211,-66.77 211,-102.77"/>
<text text-anchor="start" x="170.5" y="-81.17" font-family="Helvetica,sans-Serif" font-size="12.00">error</text>
<path fill="none" stroke="black" stroke-width="2" d="M167,-68.27C167,-68.27 199,-68.27 199,-68.27 204.5,-68.27 210,-73.77 210,-79.27 210,-79.27 210,-90.27 210,-90.27 210,-95.77 204.5,-101.27 199,-101.27 199,-101.27 167,-101.27 167,-101.27 161.5,-101.27 156,-95.77 156,-90.27 156,-90.27 156,-79.27 156,-79.27 156,-73.77 161.5,-68.27 167,-68.27"/>
</g>
<!-- error&#45;&gt;cancelled -->
<g id="edge1" class="edge transition">
<title>error&#45;&gt;cancelled</title>
<path fill="none" stroke="black" d="M209.24,-102.51C215.45,-106.13 222.26,-109.52 229,-111.77 359.38,-155.3 523.99,-158.71 603.21,-157.39"/>
<polygon fill="black" stroke="black" points="602.82,-160.89 612.75,-157.19 602.68,-153.9 602.82,-160.89"/>
<text text-anchor="start" x="241" y="-159.77" font-family="Helvetica,sans-Serif" font-size="10.00">Cancel Installation &#45; Installation canceled while host is installing &#160;&#160;</text>
</g>
<!-- error&#45;&gt;error -->
<g id="edge2" class="edge transition">
<title>error&#45;&gt;error</title>
<path fill="none" stroke="black" d="M173.94,-102.55C172.41,-112.08 175.42,-120.77 183,-120.77 187.26,-120.77 190.08,-118.02 191.46,-113.92"/>
<polygon fill="black" stroke="black" points="194.95,-114.23 191.98,-104.06 187.96,-113.86 194.95,-114.23"/>
<text text-anchor="start" x="0" y="-123.77" font-family="Helvetica,sans-Serif" font-size="10.00">Media Disconnect &#45; Move to error when virtual media disconnects post&#45;installation &#160;&#160;</text>
</g>
<!-- error&#45;&gt;error -->
<g id="edge4" class="edge transition">
<title>error&#45;&gt;error</title>
<path fill="none" stroke="black" d="M167.86,-102.74C159.75,-119.97 164.8,-138.77 183,-138.77 197.36,-138.77 203.54,-127.06 201.52,-113.66"/>
<polygon fill="black" stroke="black" points="204.89,-112.71 198.59,-104.19 198.2,-114.78 204.89,-112.71"/>
<text text-anchor="start" x="36" y="-141.77" font-family="Helvetica,sans-Serif" font-size="10.00">Refresh &#45; Log collection timed out during error should stay in error &#160;&#160;</text>
</g>
<!-- error&#45;&gt;error -->
<g id="edge5" class="edge transition">
<title>error&#45;&gt;error</title>
<path fill="none" stroke="black" d="M164.13,-102.48C146.9,-126.88 153.19,-156.77 183,-156.77 208.85,-156.77 217.01,-134.29 207.49,-112.41"/>
<polygon fill="black" stroke="black" points="210.58,-110.78 202.61,-103.8 204.49,-114.23 210.58,-110.78"/>
<text text-anchor="start" x="71" y="-159.77" font-family="Helvetica,sans-Serif" font-size="10.00">Refresh &#45; Refresh during error should stay in error &#160;&#160;</text>
</g>
<!-- error&#45;&gt;error -->
<g id="edge6" class="edge transition">
<title>error&#45;&gt;error</title>
<path fill="none" stroke="black" d="M161.49,-102.44C134.11,-133.62 141.28,-174.77 183,-174.77 220.81,-174.77 230.24,-140.97 211.3,-111.43"/>
<polygon fill="black" stroke="black" points="214.24,-109.52 205.42,-103.65 208.66,-113.73 214.24,-109.52"/>
<text text-anchor="start" x="100" y="-177.77" font-family="Helvetica,sans-Serif" font-size="10.00">Register Host &#45; Register during error &#160;&#160;</text>
</g>
<!-- resetting&#45;pending&#45;user&#45;action -->
<g id="node3" class="node state regular">
<title>resetting&#45;pending&#45;user&#45;action</title>
<polygon fill="#ffffff" fill-opacity="0.003922" stroke="none" stroke-width="2" points="740.5,-119.77 561.5,-119.77 561.5,-83.77 740.5,-83.77 740.5,-119.77"/>
<text text-anchor="start" x="573" y="-98.17" font-family="Helvetica,sans-Serif" font-size="12.00">resetting&#45;pending&#45;user&#45;action</text>
<path fill="none" stroke="black" stroke-width="2" d="M573.5,-85.27C573.5,-85.27 728.5,-85.27 728.5,-85.27 734,-85.27 739.5,-90.77 739.5,-96.27 739.5,-96.27 739.5,-107.27 739.5,-107.27 739.5,-112.77 734,-118.27 728.5,-118.27 728.5,-118.27 573.5,-118.27 573.5,-118.27 568,-118.27 562.5,-112.77 562.5,-107.27 562.5,-107.27 562.5,-96.27 562.5,-96.27 562.5,-90.77 568,-85.27 573.5,-85.27"/>
</g>
<!-- error&#45;&gt;resetting&#45;pending&#45;user&#45;action -->
<g id="edge7" class="edge transition">
<title>error&#45;&gt;resetting&#45;pending&#45;user&#45;action</title>
<path fill="none" stroke="black" d="M210.73,-85.74C275.17,-88.09 441.78,-94.17 550.29,-98.13"/>
<polygon fill="black" stroke="black" points="549.95,-101.62 560.07,-98.49 550.2,-94.62 549.95,-101.62"/>
<text text-anchor="start" x="229" y="-99.77" font-family="Helvetica,sans-Serif" font-size="10.00">Resetting, Pending User Action &#45; Reset pending user action all states &#160;&#160;</text>
</g>
<!-- unbinding&#45;pending&#45;user&#45;action -->
<g id="node4" class="node state regular">
<title>unbinding&#45;pending&#45;user&#45;action</title>
<polygon fill="#ffffff" fill-opacity="0.003922" stroke="none" stroke-width="2" points="744,-58.77 558,-58.77 558,-22.77 744,-22.77 744,-58.77"/>
<text text-anchor="start" x="569" y="-37.17" font-family="Helvetica,sans-Serif" font-size="12.00">unbinding&#45;pending&#45;user&#45;action</text>
<path fill="none" stroke="black" stroke-width="2" d="M570,-24.27C570,-24.27 732,-24.27 732,-24.27 737.5,-24.27 743,-29.77 743,-35.27 743,-35.27 743,-46.27 743,-46.27 743,-51.77 737.5,-57.27 732,-57.27 732,-57.27 570,-57.27 570,-57.27 564.5,-57.27 559,-51.77 559,-46.27 559,-46.27 559,-35.27 559,-35.27 559,-29.77 564.5,-24.27 570,-24.27"/>
</g>
<!-- error&#45;&gt;unbinding&#45;pending&#45;user&#45;action -->
<g id="edge3" class="edge transition">
<title>error&#45;&gt;unbinding&#45;pending&#45;user&#45;action</title>
<path fill="none" stroke="black" d="M210.87,-75.3C216.78,-73.53 223.05,-71.89 229,-70.77 259.36,-65.04 432.4,-53.84 546.98,-46.86"/>
<polygon fill="black" stroke="black" points="546.94,-50.37 556.71,-46.27 546.52,-43.39 546.94,-50.37"/>
<text text-anchor="start" x="304" y="-73.77" font-family="Helvetica,sans-Serif" font-size="10.00">Reclaim Host &#45; Reclaim failed host &#160;&#160;</text>
</g>
<!-- error&#45;&gt;unbinding&#45;pending&#45;user&#45;action -->
<g id="edge8" class="edge transition">
<title>error&#45;&gt;unbinding&#45;pending&#45;user&#45;action</title>
<path fill="none" stroke="black" d="M193.82,-66.95C201.59,-54.83 213.69,-39.76 229,-32.77 340.31,18.11 486.08,-0.98 573.64,-20.28"/>
<polygon fill="black" stroke="black" points="572.8,-23.68 583.33,-22.48 574.35,-16.85 572.8,-23.68"/>
<text text-anchor="start" x="276" y="-35.77" font-family="Helvetica,sans-Serif" font-size="10.00">Unbind Host &#45; Unbind during or after installation &#160;&#160;</text>
</g>
</g>
</svg>
