<?xml version="1.0" encoding="UTF-8" standalone="no"?>
<!DOCTYPE svg PUBLIC "-//W3C//DTD SVG 1.1//EN"
 "http://www.w3.org/Graphics/SVG/1.1/DTD/svg11.dtd">
<!-- Generated by graphviz version 7.1.0 (0)
 -->
<!-- Title: state transitions Pages: 1 -->
<svg width="337pt" height="44pt"
 viewBox="0.00 0.00 337.00 44.00" xmlns="http://www.w3.org/2000/svg" xmlns:xlink="http://www.w3.org/1999/xlink">
<g id="graph0" class="graph" transform="scale(1 1) rotate(0) translate(4 40)">
<title>state transitions</title>
<polygon fill="white" stroke="none" points="-4,4 -4,-40 333,-40 333,4 -4,4"/>
<!-- discovering -->
<g id="node1" class="node state regular">
<title>discovering</title>
<polygon fill="#ffffff" fill-opacity="0.003922" stroke="none" stroke-width="2" points="329,-36 245,-36 245,0 329,0 329,-36"/>
<text text-anchor="start" x="256" y="-14.4" font-family="Helvetica,sans-Serif" font-size="12.00">discovering</text>
<path fill="none" stroke="black" stroke-width="2" d="M257,-1.5C257,-1.5 317,-1.5 317,-1.5 322.5,-1.5 328,-7 328,-12.5 328,-12.5 328,-23.5 328,-23.5 328,-29 322.5,-34.5 317,-34.5 317,-34.5 257,-34.5 257,-34.5 251.5,-34.5 246,-29 246,-23.5 246,-23.5 246,-12.5 246,-12.5 246,-7 251.5,-1.5 257,-1.5"/>
</g>
<!-- initial -->
<g id="node2" class="node state regular">
<title>initial</title>
<polygon fill="#ffffff" fill-opacity="0.003922" stroke="none" stroke-width="2" points="56,-36 0,-36 0,0 56,0 56,-36"/>
<text text-anchor="start" x="13.5" y="-14.4" font-family="Helvetica,sans-Serif" font-size="12.00">initial</text>
<path fill="none" stroke="black" stroke-width="2" d="M12,-1.5C12,-1.5 44,-1.5 44,-1.5 49.5,-1.5 55,-7 55,-12.5 55,-12.5 55,-23.5 55,-23.5 55,-29 49.5,-34.5 44,-34.5 44,-34.5 12,-34.5 12,-34.5 6.5,-34.5 1,-29 1,-23.5 1,-23.5 1,-12.5 1,-12.5 1,-7 6.5,-1.5 12,-1.5"/>
</g>
<!-- initial&#45;&gt;discovering -->
<g id="edge1" class="edge transition">
<title>initial&#45;&gt;discovering</title>
<path fill="none" stroke="black" d="M55.54,-18C97.47,-18 179.85,-18 233.91,-18"/>
<polygon fill="black" stroke="black" points="233.81,-21.5 243.81,-18 233.81,-14.5 233.81,-21.5"/>
<text text-anchor="start" x="74" y="-21" font-family="Helvetica,sans-Serif" font-size="10.00">Register Host &#45; Initial registration &#160;&#160;</text>
</g>
</g>
</svg>
