<?xml version="1.0" encoding="UTF-8" standalone="no"?>
<!DOCTYPE svg PUBLIC "-//W3C//DTD SVG 1.1//EN"
 "http://www.w3.org/Graphics/SVG/1.1/DTD/svg11.dtd">
<!-- Generated by graphviz version 7.1.0 (0)
 -->
<!-- Title: state transitions Pages: 1 -->
<svg width="747pt" height="326pt"
 viewBox="0.00 0.00 746.50 325.57" xmlns="http://www.w3.org/2000/svg" xmlns:xlink="http://www.w3.org/1999/xlink">
<g id="graph0" class="graph" transform="scale(1 1) rotate(0) translate(4 321.57)">
<title>state transitions</title>
<polygon fill="white" stroke="none" points="-4,4 -4,-321.57 742.5,-321.57 742.5,4 -4,4"/>
<!-- disconnected -->
<g id="node1" class="node state regular">
<title>disconnected</title>
<polygon fill="#ffffff" fill-opacity="0.003922" stroke="none" stroke-width="2" points="696,-314.57 602,-314.57 602,-278.57 696,-278.57 696,-314.57"/>
<text text-anchor="start" x="613" y="-292.97" font-family="Helvetica,sans-Serif" font-size="12.00">disconnected</text>
<path fill="none" stroke="black" stroke-width="2" d="M614,-280.07C614,-280.07 684,-280.07 684,-280.07 689.5,-280.07 695,-285.57 695,-291.07 695,-291.07 695,-302.07 695,-302.07 695,-307.57 689.5,-313.07 684,-313.07 684,-313.07 614,-313.07 614,-313.07 608.5,-313.07 603,-307.57 603,-302.07 603,-302.07 603,-291.07 603,-291.07 603,-285.57 608.5,-280.07 614,-280.07"/>
</g>
<!-- discovering -->
<g id="node2" class="node state regular">
<title>discovering</title>
<polygon fill="#ffffff" fill-opacity="0.003922" stroke="none" stroke-width="2" points="691,-260.57 607,-260.57 607,-224.57 691,-224.57 691,-260.57"/>
<text text-anchor="start" x="618" y="-238.97" font-family="Helvetica,sans-Serif" font-size="12.00">discovering</text>
<path fill="none" stroke="black" stroke-width="2" d="M619,-226.07C619,-226.07 679,-226.07 679,-226.07 684.5,-226.07 690,-231.57 690,-237.07 690,-237.07 690,-248.07 690,-248.07 690,-253.57 684.5,-259.07 679,-259.07 679,-259.07 619,-259.07 619,-259.07 613.5,-259.07 608,-253.57 608,-248.07 608,-248.07 608,-237.07 608,-237.07 608,-231.57 613.5,-226.07 619,-226.07"/>
</g>
<!-- insufficient -->
<g id="node3" class="node state regular">
<title>insufficient</title>
<polygon fill="#ffffff" fill-opacity="0.003922" stroke="none" stroke-width="2" points="689,-206.57 609,-206.57 609,-170.57 689,-170.57 689,-206.57"/>
<text text-anchor="start" x="620" y="-184.97" font-family="Helvetica,sans-Serif" font-size="12.00">insufficient</text>
<path fill="none" stroke="black" stroke-width="2" d="M621,-172.07C621,-172.07 677,-172.07 677,-172.07 682.5,-172.07 688,-177.57 688,-183.07 688,-183.07 688,-194.07 688,-194.07 688,-199.57 682.5,-205.07 677,-205.07 677,-205.07 621,-205.07 621,-205.07 615.5,-205.07 610,-199.57 610,-194.07 610,-194.07 610,-183.07 610,-183.07 610,-177.57 615.5,-172.07 621,-172.07"/>
</g>
<!-- known -->
<g id="node4" class="node state regular">
<title>known</title>
<polygon fill="#ffffff" fill-opacity="0.003922" stroke="none" stroke-width="2" points="678,-152.57 620,-152.57 620,-116.57 678,-116.57 678,-152.57"/>
<text text-anchor="start" x="631" y="-130.97" font-family="Helvetica,sans-Serif" font-size="12.00">known</text>
<path fill="none" stroke="black" stroke-width="2" d="M632,-118.07C632,-118.07 666,-118.07 666,-118.07 671.5,-118.07 677,-123.57 677,-129.07 677,-129.07 677,-140.07 677,-140.07 677,-145.57 671.5,-151.07 666,-151.07 666,-151.07 632,-151.07 632,-151.07 626.5,-151.07 621,-145.57 621,-140.07 621,-140.07 621,-129.07 621,-129.07 621,-123.57 626.5,-118.07 632,-118.07"/>
</g>
<!-- pending&#45;for&#45;input -->
<g id="node5" class="node state regular">
<title>pending&#45;for&#45;input</title>
<polygon fill="#ffffff" fill-opacity="0.003922" stroke="none" stroke-width="2" points="123.5,-179.57 10.5,-179.57 10.5,-143.57 123.5,-143.57 123.5,-179.57"/>
<text text-anchor="start" x="22" y="-157.97" font-family="Helvetica,sans-Serif" font-size="12.00">pending&#45;for&#45;input</text>
<path fill="none" stroke="black" stroke-width="2" d="M22.5,-145.07C22.5,-145.07 111.5,-145.07 111.5,-145.07 117,-145.07 122.5,-150.57 122.5,-156.07 122.5,-156.07 122.5,-167.07 122.5,-167.07 122.5,-172.57 117,-178.07 111.5,-178.07 111.5,-178.07 22.5,-178.07 22.5,-178.07 17,-178.07 11.5,-172.57 11.5,-167.07 11.5,-167.07 11.5,-156.07 11.5,-156.07 11.5,-150.57 17,-145.07 22.5,-145.07"/>
</g>
<!-- pending&#45;for&#45;input&#45;&gt;disconnected -->
<g id="edge1" class="edge transition">
<title>pending&#45;for&#45;input&#45;&gt;disconnected</title>
<path fill="none" stroke="black" d="M73.6,-179.14C82.97,-205.24 104.51,-253.45 141.5,-274.57 216.6,-317.44 474.83,-307.46 590.81,-300.5"/>
<polygon fill="black" stroke="black" points="590.96,-304 600.73,-299.89 590.53,-297.01 590.96,-304"/>
<text text-anchor="start" x="141.5" y="-309.57" font-family="Helvetica,sans-Serif" font-size="10.00">Media Disconnect &#45; Move to disconnected when virtual media disconnects pre&#45;installation &#160;&#160;</text>
</g>
<!-- pending&#45;for&#45;input&#45;&gt;disconnected -->
<g id="edge3" class="edge transition">
<title>pending&#45;for&#45;input&#45;&gt;disconnected</title>
<path fill="none" stroke="black" d="M78.64,-179.46C91.06,-198.45 113.49,-227.48 141.5,-240.57 222.15,-278.23 454.94,-240.81 541.5,-261.57 550.01,-263.61 551.3,-266.5 559.5,-269.57 569.66,-273.36 580.63,-277.03 591.26,-280.38"/>
<polygon fill="black" stroke="black" points="590.13,-283.69 600.72,-283.3 592.2,-277.01 590.13,-283.69"/>
<text text-anchor="start" x="198" y="-264.57" font-family="Helvetica,sans-Serif" font-size="10.00">Refresh &#45; Move host to disconnected when connected times out &#160;&#160;</text>
</g>
<!-- pending&#45;for&#45;input&#45;&gt;discovering -->
<g id="edge7" class="edge transition">
<title>pending&#45;for&#45;input&#45;&gt;discovering</title>
<path fill="none" stroke="black" d="M98.1,-179.49C111.02,-186.33 126.56,-193.47 141.5,-197.57 313.5,-244.73 364.06,-211.65 541.5,-229.57 559.29,-231.36 578.71,-233.64 596.03,-235.78"/>
<polygon fill="black" stroke="black" points="595.22,-239.21 605.58,-236.98 596.09,-232.26 595.22,-239.21"/>
<text text-anchor="start" x="270.5" y="-232.57" font-family="Helvetica,sans-Serif" font-size="10.00">Register Host &#45; Re&#45;registration &#160;&#160;</text>
</g>
<!-- pending&#45;for&#45;input&#45;&gt;insufficient -->
<g id="edge5" class="edge transition">
<title>pending&#45;for&#45;input&#45;&gt;insufficient</title>
<path fill="none" stroke="black" d="M123.35,-164.14C235.91,-169.38 489.94,-181.21 597.92,-186.23"/>
<polygon fill="black" stroke="black" points="597.46,-189.72 607.62,-186.69 597.79,-182.72 597.46,-189.72"/>
<text text-anchor="start" x="283" y="-185.57" font-family="Helvetica,sans-Serif" font-size="10.00">Refresh &#45; Host not ready &#160;&#160;</text>
</g>
<!-- pending&#45;for&#45;input&#45;&gt;known -->
<g id="edge6" class="edge transition">
<title>pending&#45;for&#45;input&#45;&gt;known</title>
<path fill="none" stroke="black" d="M123.28,-151.74C129.41,-150.89 135.58,-150.13 141.5,-149.57 315.08,-132.9 523.51,-133.05 608.76,-133.97"/>
<polygon fill="black" stroke="black" points="608.64,-137.46 618.68,-134.08 608.72,-130.46 608.64,-137.46"/>
<text text-anchor="start" x="291.5" y="-152.57" font-family="Helvetica,sans-Serif" font-size="10.00">Refresh &#45; Host ready &#160;&#160;</text>
</g>
<!-- pending&#45;for&#45;input&#45;&gt;pending&#45;for&#45;input -->
<g id="edge4" class="edge transition">
<title>pending&#45;for&#45;input&#45;&gt;pending&#45;for&#45;input</title>
<path fill="none" stroke="black" d="M17.65,-179.35C9.27,-188.88 25.72,-197.57 67,-197.57 90.87,-197.57 106.43,-194.66 113.7,-190.37"/>
<polygon fill="black" stroke="black" points="117.06,-191.36 115.99,-180.82 110.25,-189.73 117.06,-191.36"/>
<text text-anchor="start" x="0" y="-200.57" font-family="Helvetica,sans-Serif" font-size="10.00">Refresh &#45; Host pending input &#160;&#160;</text>
</g>
<!-- resetting&#45;pending&#45;user&#45;action -->
<g id="node6" class="node state regular">
<title>resetting&#45;pending&#45;user&#45;action</title>
<polygon fill="#ffffff" fill-opacity="0.003922" stroke="none" stroke-width="2" points="738.5,-98.57 559.5,-98.57 559.5,-62.57 738.5,-62.57 738.5,-98.57"/>
<text text-anchor="start" x="571" y="-76.97" font-family="Helvetica,sans-Serif" font-size="12.00">resetting&#45;pending&#45;user&#45;action</text>
<path fill="none" stroke="black" stroke-width="2" d="M571.5,-64.07C571.5,-64.07 726.5,-64.07 726.5,-64.07 732,-64.07 737.5,-69.57 737.5,-75.07 737.5,-75.07 737.5,-86.07 737.5,-86.07 737.5,-91.57 732,-97.07 726.5,-97.07 726.5,-97.07 571.5,-97.07 571.5,-97.07 566,-97.07 560.5,-91.57 560.5,-86.07 560.5,-86.07 560.5,-75.07 560.5,-75.07 560.5,-69.57 566,-64.07 571.5,-64.07"/>
</g>
<!-- pending&#45;for&#45;input&#45;&gt;resetting&#45;pending&#45;user&#45;action -->
<g id="edge8" class="edge transition">
<title>pending&#45;for&#45;input&#45;&gt;resetting&#45;pending&#45;user&#45;action</title>
<path fill="none" stroke="black" d="M92.18,-143.63C105.92,-134.44 123.86,-124.06 141.5,-118.57 277.82,-76.08 444.34,-72.14 548.31,-74.98"/>
<polygon fill="black" stroke="black" points="548.12,-78.47 558.22,-75.28 548.33,-71.48 548.12,-78.47"/>
<text text-anchor="start" x="186" y="-121.57" font-family="Helvetica,sans-Serif" font-size="10.00">Resetting, Pending User Action &#45; Reset pending user action all states &#160;&#160;</text>
</g>
<!-- unbinding -->
<g id="node7" class="node state regular">
<title>unbinding</title>
<polygon fill="#ffffff" fill-opacity="0.003922" stroke="none" stroke-width="2" points="687,-44.57 611,-44.57 611,-8.57 687,-8.57 687,-44.57"/>
<text text-anchor="start" x="622" y="-22.97" font-family="Helvetica,sans-Serif" font-size="12.00">unbinding</text>
<path fill="none" stroke="black" stroke-width="2" d="M623,-10.07C623,-10.07 675,-10.07 675,-10.07 680.5,-10.07 686,-15.57 686,-21.07 686,-21.07 686,-32.07 686,-32.07 686,-37.57 680.5,-43.07 675,-43.07 675,-43.07 623,-43.07 623,-43.07 617.5,-43.07 612,-37.57 612,-32.07 612,-32.07 612,-21.07 612,-21.07 612,-15.57 617.5,-10.07 623,-10.07"/>
</g>
<!-- pending&#45;for&#45;input&#45;&gt;unbinding -->
<g id="edge2" class="edge transition">
<title>pending&#45;for&#45;input&#45;&gt;unbinding</title>
<path fill="none" stroke="black" d="M74.99,-143.71C85.43,-119.74 107.59,-78.07 141.5,-59.57 180.57,-38.25 497.15,-42.22 541.5,-38.57 560.6,-36.99 581.58,-34.74 599.83,-32.61"/>
<polygon fill="black" stroke="black" points="600.07,-36.11 609.58,-31.45 599.24,-29.16 600.07,-36.11"/>
<text text-anchor="start" x="251.5" y="-62.57" font-family="Helvetica,sans-Serif" font-size="10.00">Reclaim Host &#45; Reclaim pre&#45;installation &#160;&#160;</text>
</g>
<!-- pending&#45;for&#45;input&#45;&gt;unbinding -->
<g id="edge9" class="edge transition">
<title>pending&#45;for&#45;input&#45;&gt;unbinding</title>
<path fill="none" stroke="black" d="M71.52,-143.83C78.63,-113.29 97.93,-51.54 141.5,-25.57 217.73,19.89 488.65,-6.96 599.84,-20.35"/>
<polygon fill="black" stroke="black" points="599.18,-23.8 609.53,-21.53 600.03,-16.85 599.18,-23.8"/>
<text text-anchor="start" x="256" y="-28.57" font-family="Helvetica,sans-Serif" font-size="10.00">Unbind Host &#45; Unbind pre&#45;installation &#160;&#160;</text>
</g>
</g>
</svg>
