<?xml version="1.0" encoding="UTF-8" standalone="no"?>
<!DOCTYPE svg PUBLIC "-//W3C//DTD SVG 1.1//EN"
 "http://www.w3.org/Graphics/SVG/1.1/DTD/svg11.dtd">
<!-- Generated by graphviz version 12.1.0 (20240811.2233)
 -->
<!-- Title: state transitions Pages: 1 -->
<svg width="800pt" height="206pt"
 viewBox="0.00 0.00 800.38 206.25" xmlns="http://www.w3.org/2000/svg" xmlns:xlink="http://www.w3.org/1999/xlink">
<g id="graph0" class="graph" transform="scale(1 1) rotate(0) translate(4 202.25)">
<title>state transitions</title>
<polygon fill="white" stroke="none" points="-4,4 -4,-202.25 796.38,-202.25 796.38,4 -4,4"/>
<!-- added&#45;to&#45;existing&#45;cluster -->
<g id="node1" class="node state regular">
<title>added&#45;to&#45;existing&#45;cluster</title>
<polygon fill="#ffffff" fill-opacity="0.003922" stroke="none" stroke-width="2" points="208.62,-117.25 37.38,-117.25 37.38,-81 208.62,-81 208.62,-117.25"/>
<text text-anchor="start" x="48.38" y="-94.85" font-family="Helvetica,sans-Serif" font-size="12.00">added&#45;to&#45;existing&#45;cluster</text>
<path fill="none" stroke="black" stroke-width="2" d="M49.79,-82C49.79,-82 196.21,-82 196.21,-82 201.92,-82 207.62,-87.71 207.62,-93.42 207.62,-93.42 207.62,-104.83 207.62,-104.83 207.62,-110.54 201.92,-116.25 196.21,-116.25 196.21,-116.25 49.79,-116.25 49.79,-116.25 44.08,-116.25 38.38,-110.54 38.38,-104.83 38.38,-104.83 38.38,-93.42 38.38,-93.42 38.38,-87.71 44.08,-82 49.79,-82"/>
</g>
<!-- added&#45;to&#45;existing&#45;cluster&#45;&gt;added&#45;to&#45;existing&#45;cluster -->
<g id="edge2" class="edge transition">
<title>added&#45;to&#45;existing&#45;cluster&#45;&gt;added&#45;to&#45;existing&#45;cluster</title>
<path fill="none" stroke="black" d="M73.43,-116.97C65.01,-126.53 81.53,-135.25 123,-135.25 146.97,-135.25 162.61,-132.34 169.91,-128.03"/>
<polygon fill="black" stroke="black" points="173.28,-128.98 172.22,-118.44 166.48,-127.35 173.28,-128.98"/>
<text text-anchor="start" x="0" y="-138.5" font-family="Helvetica,sans-Serif" font-size="10.00">Refresh &#45; Day 2 hosts should stay in added state &#160;&#160;</text>
</g>
<!-- reclaiming -->
<g id="node2" class="node state regular">
<title>reclaiming</title>
<polygon fill="#ffffff" fill-opacity="0.003922" stroke="none" stroke-width="2" points="732.75,-198.25 648.5,-198.25 648.5,-162 732.75,-162 732.75,-198.25"/>
<text text-anchor="start" x="659.5" y="-175.85" font-family="Helvetica,sans-Serif" font-size="12.00">reclaiming</text>
<path fill="none" stroke="black" stroke-width="2" d="M660.92,-163C660.92,-163 720.33,-163 720.33,-163 726.04,-163 731.75,-168.71 731.75,-174.42 731.75,-174.42 731.75,-185.83 731.75,-185.83 731.75,-191.54 726.04,-197.25 720.33,-197.25 720.33,-197.25 660.92,-197.25 660.92,-197.25 655.21,-197.25 649.5,-191.54 649.5,-185.83 649.5,-185.83 649.5,-174.42 649.5,-174.42 649.5,-168.71 655.21,-163 660.92,-163"/>
</g>
<!-- added&#45;to&#45;existing&#45;cluster&#45;&gt;reclaiming -->
<g id="edge1" class="edge transition">
<title>added&#45;to&#45;existing&#45;cluster&#45;&gt;reclaiming</title>
<path fill="none" stroke="black" d="M165.19,-117.19C183.64,-124.54 205.88,-132.41 226.62,-137.12 373,-170.41 551.02,-178.03 637.48,-179.71"/>
<polygon fill="black" stroke="black" points="637.24,-183.2 647.3,-179.87 637.36,-176.2 637.24,-183.2"/>
<text text-anchor="start" x="297.88" y="-180.63" font-family="Helvetica,sans-Serif" font-size="10.00">Reclaim Host &#45; Reclaim successful host &#160;&#160;</text>
</g>
<!-- installing&#45;pending&#45;user&#45;action -->
<g id="node3" class="node state regular">
<title>installing&#45;pending&#45;user&#45;action</title>
<polygon fill="#ffffff" fill-opacity="0.003922" stroke="none" stroke-width="2" points="789.38,-144.25 591.88,-144.25 591.88,-108 789.38,-108 789.38,-144.25"/>
<text text-anchor="start" x="602.88" y="-121.85" font-family="Helvetica,sans-Serif" font-size="12.00">installing&#45;pending&#45;user&#45;action</text>
<path fill="none" stroke="black" stroke-width="2" d="M604.29,-109C604.29,-109 776.96,-109 776.96,-109 782.67,-109 788.38,-114.71 788.38,-120.42 788.38,-120.42 788.38,-131.83 788.38,-131.83 788.38,-137.54 782.67,-143.25 776.96,-143.25 776.96,-143.25 604.29,-143.25 604.29,-143.25 598.58,-143.25 592.88,-137.54 592.88,-131.83 592.88,-131.83 592.88,-120.42 592.88,-120.42 592.88,-114.71 598.58,-109 604.29,-109"/>
</g>
<!-- added&#45;to&#45;existing&#45;cluster&#45;&gt;installing&#45;pending&#45;user&#45;action -->
<g id="edge3" class="edge transition">
<title>added&#45;to&#45;existing&#45;cluster&#45;&gt;installing&#45;pending&#45;user&#45;action</title>
<path fill="none" stroke="black" d="M208.37,-103.15C307.42,-107.88 471.93,-115.73 580.57,-120.92"/>
<polygon fill="black" stroke="black" points="580.23,-124.41 590.38,-121.39 580.56,-117.41 580.23,-124.41"/>
<text text-anchor="start" x="289.62" y="-123.54" font-family="Helvetica,sans-Serif" font-size="10.00">Register Host &#45; Wrong boot order detection &#160;&#160;</text>
</g>
<!-- resetting&#45;pending&#45;user&#45;action -->
<g id="node4" class="node state regular">
<title>resetting&#45;pending&#45;user&#45;action</title>
<polygon fill="#ffffff" fill-opacity="0.003922" stroke="none" stroke-width="2" points="789.38,-90.25 591.88,-90.25 591.88,-54 789.38,-54 789.38,-90.25"/>
<text text-anchor="start" x="602.88" y="-67.85" font-family="Helvetica,sans-Serif" font-size="12.00">resetting&#45;pending&#45;user&#45;action</text>
<path fill="none" stroke="black" stroke-width="2" d="M604.29,-55C604.29,-55 776.96,-55 776.96,-55 782.67,-55 788.38,-60.71 788.38,-66.42 788.38,-66.42 788.38,-77.83 788.38,-77.83 788.38,-83.54 782.67,-89.25 776.96,-89.25 776.96,-89.25 604.29,-89.25 604.29,-89.25 598.58,-89.25 592.88,-83.54 592.88,-77.83 592.88,-77.83 592.88,-66.42 592.88,-66.42 592.88,-60.71 598.58,-55 604.29,-55"/>
</g>
<!-- added&#45;to&#45;existing&#45;cluster&#45;&gt;resetting&#45;pending&#45;user&#45;action -->
<g id="edge4" class="edge transition">
<title>added&#45;to&#45;existing&#45;cluster&#45;&gt;resetting&#45;pending&#45;user&#45;action</title>
<path fill="none" stroke="black" d="M208.51,-88.9C214.64,-88.33 220.72,-87.81 226.62,-87.38 347.51,-78.48 486.53,-74.77 580.44,-73.23"/>
<polygon fill="black" stroke="black" points="580.49,-76.73 590.44,-73.07 580.38,-69.73 580.49,-76.73"/>
<text text-anchor="start" x="226.62" y="-90.62" font-family="Helvetica,sans-Serif" font-size="10.00">Resetting, Pending User Action &#45; Reset pending user action all states &#160;&#160;</text>
</g>
<!-- unbinding&#45;pending&#45;user&#45;action -->
<g id="node5" class="node state regular">
<title>unbinding&#45;pending&#45;user&#45;action</title>
<polygon fill="#ffffff" fill-opacity="0.003922" stroke="none" stroke-width="2" points="792.38,-36.25 588.88,-36.25 588.88,0 792.38,0 792.38,-36.25"/>
<text text-anchor="start" x="599.88" y="-13.85" font-family="Helvetica,sans-Serif" font-size="12.00">unbinding&#45;pending&#45;user&#45;action</text>
<path fill="none" stroke="black" stroke-width="2" d="M601.29,-1C601.29,-1 779.96,-1 779.96,-1 785.67,-1 791.38,-6.71 791.38,-12.42 791.38,-12.42 791.38,-23.83 791.38,-23.83 791.38,-29.54 785.67,-35.25 779.96,-35.25 779.96,-35.25 601.29,-35.25 601.29,-35.25 595.58,-35.25 589.88,-29.54 589.88,-23.83 589.88,-23.83 589.88,-12.42 589.88,-12.42 589.88,-6.71 595.58,-1 601.29,-1"/>
</g>
<!-- added&#45;to&#45;existing&#45;cluster&#45;&gt;unbinding&#45;pending&#45;user&#45;action -->
<g id="edge5" class="edge transition">
<title>added&#45;to&#45;existing&#45;cluster&#45;&gt;unbinding&#45;pending&#45;user&#45;action</title>
<path fill="none" stroke="black" d="M159.64,-81.04C178.97,-72.07 203.56,-61.98 226.62,-56.38 344.3,-27.76 483.21,-19.55 577.96,-17.66"/>
<polygon fill="black" stroke="black" points="577.85,-21.16 587.78,-17.48 577.72,-14.16 577.85,-21.16"/>
<text text-anchor="start" x="276.88" y="-59.62" font-family="Helvetica,sans-Serif" font-size="10.00">Unbind Host &#45; Unbind during or after installation &#160;&#160;</text>
</g>
</g>
</svg>
