<?xml version="1.0" encoding="UTF-8" standalone="no"?>
<!DOCTYPE svg PUBLIC "-//W3C//DTD SVG 1.1//EN"
 "http://www.w3.org/Graphics/SVG/1.1/DTD/svg11.dtd">
<!-- Generated by graphviz version 12.1.0 (20240811.2233)
 -->
<!-- Title: state transitions Pages: 1 -->
<svg width="820pt" height="142pt"
 viewBox="0.00 0.00 820.25 141.75" xmlns="http://www.w3.org/2000/svg" xmlns:xlink="http://www.w3.org/1999/xlink">
<g id="graph0" class="graph" transform="scale(1 1) rotate(0) translate(4 137.75)">
<title>state transitions</title>
<polygon fill="white" stroke="none" points="-4,4 -4,-137.75 816.25,-137.75 816.25,4 -4,4"/>
<!-- cancelled -->
<g id="node1" class="node state regular">
<title>cancelled</title>
<polygon fill="#ffffff" fill-opacity="0.003922" stroke="none" stroke-width="2" points="228.5,-72.25 149.5,-72.25 149.5,-36 228.5,-36 228.5,-72.25"/>
<text text-anchor="start" x="160.5" y="-49.85" font-family="Helvetica,sans-Serif" font-size="12.00">cancelled</text>
<path fill="none" stroke="black" stroke-width="2" d="M161.92,-37C161.92,-37 216.08,-37 216.08,-37 221.79,-37 227.5,-42.71 227.5,-48.42 227.5,-48.42 227.5,-59.83 227.5,-59.83 227.5,-65.54 221.79,-71.25 216.08,-71.25 216.08,-71.25 161.92,-71.25 161.92,-71.25 156.21,-71.25 150.5,-65.54 150.5,-59.83 150.5,-59.83 150.5,-48.42 150.5,-48.42 150.5,-42.71 156.21,-37 161.92,-37"/>
</g>
<!-- cancelled&#45;&gt;cancelled -->
<g id="edge2" class="edge transition">
<title>cancelled&#45;&gt;cancelled</title>
<path fill="none" stroke="black" d="M168.36,-71.97C164.85,-81.53 171.73,-90.25 189,-90.25 198.71,-90.25 205.14,-87.49 208.28,-83.38"/>
<polygon fill="black" stroke="black" points="211.75,-83.82 209.46,-73.47 204.8,-82.99 211.75,-83.82"/>
<text text-anchor="start" x="0" y="-93.5" font-family="Helvetica,sans-Serif" font-size="10.00">Refresh &#45; Log collection timed out during cancelled should stay in cancelled &#160;&#160;</text>
</g>
<!-- cancelled&#45;&gt;cancelled -->
<g id="edge3" class="edge transition">
<title>cancelled&#45;&gt;cancelled</title>
<path fill="none" stroke="black" d="M154.48,-72.14C136.01,-89.41 147.52,-108.25 189,-108.25 223.35,-108.25 237.15,-95.33 230.39,-81.08"/>
<polygon fill="black" stroke="black" points="233.31,-79.14 224.44,-73.34 227.76,-83.41 233.31,-79.14"/>
<text text-anchor="start" x="40.12" y="-111.5" font-family="Helvetica,sans-Serif" font-size="10.00">Refresh &#45; Refresh during cancelled should stay in cancelled &#160;&#160;</text>
</g>
<!-- unbinding&#45;pending&#45;user&#45;action -->
<g id="node2" class="node state regular">
<title>unbinding&#45;pending&#45;user&#45;action</title>
<polygon fill="#ffffff" fill-opacity="0.003922" stroke="none" stroke-width="2" points="812.25,-99.25 608.75,-99.25 608.75,-63 812.25,-63 812.25,-99.25"/>
<text text-anchor="start" x="619.75" y="-76.85" font-family="Helvetica,sans-Serif" font-size="12.00">unbinding&#45;pending&#45;user&#45;action</text>
<path fill="none" stroke="black" stroke-width="2" d="M621.17,-64C621.17,-64 799.83,-64 799.83,-64 805.54,-64 811.25,-69.71 811.25,-75.42 811.25,-75.42 811.25,-86.83 811.25,-86.83 811.25,-92.54 805.54,-98.25 799.83,-98.25 799.83,-98.25 621.17,-98.25 621.17,-98.25 615.46,-98.25 609.75,-92.54 609.75,-86.83 609.75,-86.83 609.75,-75.42 609.75,-75.42 609.75,-69.71 615.46,-64 621.17,-64"/>
</g>
<!-- cancelled&#45;&gt;unbinding&#45;pending&#45;user&#45;action -->
<g id="edge1" class="edge transition">
<title>cancelled&#45;&gt;unbinding&#45;pending&#45;user&#45;action</title>
<path fill="none" stroke="black" d="M228.38,-64.81C234.41,-66.14 240.59,-67.32 246.5,-68.12 365.75,-84.38 503.82,-86.07 597.94,-84.67"/>
<polygon fill="black" stroke="black" points="597.74,-88.18 607.68,-84.51 597.62,-81.18 597.74,-88.18"/>
<text text-anchor="start" x="329.38" y="-88.31" font-family="Helvetica,sans-Serif" font-size="10.00">Reclaim Host &#45; Reclaim failed host &#160;&#160;</text>
</g>
<!-- cancelled&#45;&gt;unbinding&#45;pending&#45;user&#45;action -->
<g id="edge5" class="edge transition">
<title>cancelled&#45;&gt;unbinding&#45;pending&#45;user&#45;action</title>
<path fill="none" stroke="black" d="M228.32,-50.58C299.87,-44.69 458.51,-35.06 590.75,-51.38 606.28,-53.29 622.7,-56.57 638.21,-60.26"/>
<polygon fill="black" stroke="black" points="637.31,-63.64 647.86,-62.65 638.99,-56.85 637.31,-63.64"/>
<text text-anchor="start" x="296.75" y="-54.62" font-family="Helvetica,sans-Serif" font-size="10.00">Unbind Host &#45; Unbind during or after installation &#160;&#160;</text>
</g>
<!-- resetting&#45;pending&#45;user&#45;action -->
<g id="node3" class="node state regular">
<title>resetting&#45;pending&#45;user&#45;action</title>
<polygon fill="#ffffff" fill-opacity="0.003922" stroke="none" stroke-width="2" points="809.25,-36.25 611.75,-36.25 611.75,0 809.25,0 809.25,-36.25"/>
<text text-anchor="start" x="622.75" y="-13.85" font-family="Helvetica,sans-Serif" font-size="12.00">resetting&#45;pending&#45;user&#45;action</text>
<path fill="none" stroke="black" stroke-width="2" d="M624.17,-1C624.17,-1 796.83,-1 796.83,-1 802.54,-1 808.25,-6.71 808.25,-12.42 808.25,-12.42 808.25,-23.83 808.25,-23.83 808.25,-29.54 802.54,-35.25 796.83,-35.25 796.83,-35.25 624.17,-35.25 624.17,-35.25 618.46,-35.25 612.75,-29.54 612.75,-23.83 612.75,-23.83 612.75,-12.42 612.75,-12.42 612.75,-6.71 618.46,-1 624.17,-1"/>
</g>
<!-- cancelled&#45;&gt;resetting&#45;pending&#45;user&#45;action -->
<g id="edge4" class="edge transition">
<title>cancelled&#45;&gt;resetting&#45;pending&#45;user&#45;action</title>
<path fill="none" stroke="black" d="M219.21,-36.09C227.7,-31.74 237.21,-27.68 246.5,-25.38 364.97,4.02 505.77,1.09 600.75,-6.15"/>
<polygon fill="black" stroke="black" points="600.34,-9.63 610.59,-6.93 600.9,-2.65 600.34,-9.63"/>
<text text-anchor="start" x="246.5" y="-28.62" font-family="Helvetica,sans-Serif" font-size="10.00">Resetting, Pending User Action &#45; Reset pending user action all states &#160;&#160;</text>
</g>
</g>
</svg>
