<?xml version="1.0" encoding="UTF-8" standalone="no"?>
<!DOCTYPE svg PUBLIC "-//W3C//DTD SVG 1.1//EN"
 "http://www.w3.org/Graphics/SVG/1.1/DTD/svg11.dtd">
<!-- Generated by graphviz version 12.1.0 (20240811.2233)
 -->
<!-- Title: state transitions Pages: 1 -->
<svg width="771pt" height="270pt"
 viewBox="0.00 0.00 771.25 269.72" xmlns="http://www.w3.org/2000/svg" xmlns:xlink="http://www.w3.org/1999/xlink">
<g id="graph0" class="graph" transform="scale(1 1) rotate(0) translate(4 265.72)">
<title>state transitions</title>
<polygon fill="white" stroke="none" points="-4,4 -4,-265.72 767.25,-265.72 767.25,4 -4,4"/>
<!-- disconnected -->
<g id="node1" class="node state regular">
<title>disconnected</title>
<polygon fill="#ffffff" fill-opacity="0.003922" stroke="none" stroke-width="2" points="715.25,-252.25 613.75,-252.25 613.75,-216 715.25,-216 715.25,-252.25"/>
<text text-anchor="start" x="624.75" y="-229.85" font-family="Helvetica,sans-Serif" font-size="12.00">disconnected</text>
<path fill="none" stroke="black" stroke-width="2" d="M626.17,-217C626.17,-217 702.83,-217 702.83,-217 708.54,-217 714.25,-222.71 714.25,-228.42 714.25,-228.42 714.25,-239.83 714.25,-239.83 714.25,-245.54 708.54,-251.25 702.83,-251.25 702.83,-251.25 626.17,-251.25 626.17,-251.25 620.46,-251.25 614.75,-245.54 614.75,-239.83 614.75,-239.83 614.75,-228.42 614.75,-228.42 614.75,-222.71 620.46,-217 626.17,-217"/>
</g>
<!-- error -->
<g id="node2" class="node state regular">
<title>error</title>
<polygon fill="#ffffff" fill-opacity="0.003922" stroke="none" stroke-width="2" points="692.5,-198.25 636.5,-198.25 636.5,-162 692.5,-162 692.5,-198.25"/>
<text text-anchor="start" x="649.88" y="-175.85" font-family="Helvetica,sans-Serif" font-size="12.00">error</text>
<path fill="none" stroke="black" stroke-width="2" d="M648.92,-163C648.92,-163 680.08,-163 680.08,-163 685.79,-163 691.5,-168.71 691.5,-174.42 691.5,-174.42 691.5,-185.83 691.5,-185.83 691.5,-191.54 685.79,-197.25 680.08,-197.25 680.08,-197.25 648.92,-197.25 648.92,-197.25 643.21,-197.25 637.5,-191.54 637.5,-185.83 637.5,-185.83 637.5,-174.42 637.5,-174.42 637.5,-168.71 643.21,-163 648.92,-163"/>
</g>
<!-- insufficient -->
<g id="node3" class="node state regular">
<title>insufficient</title>
<polygon fill="#ffffff" fill-opacity="0.003922" stroke="none" stroke-width="2" points="708.12,-144.25 620.88,-144.25 620.88,-108 708.12,-108 708.12,-144.25"/>
<text text-anchor="start" x="631.88" y="-121.85" font-family="Helvetica,sans-Serif" font-size="12.00">insufficient</text>
<path fill="none" stroke="black" stroke-width="2" d="M633.29,-109C633.29,-109 695.71,-109 695.71,-109 701.42,-109 707.12,-114.71 707.12,-120.42 707.12,-120.42 707.12,-131.83 707.12,-131.83 707.12,-137.54 701.42,-143.25 695.71,-143.25 695.71,-143.25 633.29,-143.25 633.29,-143.25 627.58,-143.25 621.88,-137.54 621.88,-131.83 621.88,-131.83 621.88,-120.42 621.88,-120.42 621.88,-114.71 627.58,-109 633.29,-109"/>
</g>
<!-- known -->
<g id="node4" class="node state regular">
<title>known</title>
<polygon fill="#ffffff" fill-opacity="0.003922" stroke="none" stroke-width="2" points="695,-90.25 634,-90.25 634,-54 695,-54 695,-90.25"/>
<text text-anchor="start" x="645" y="-67.85" font-family="Helvetica,sans-Serif" font-size="12.00">known</text>
<path fill="none" stroke="black" stroke-width="2" d="M646.42,-55C646.42,-55 682.58,-55 682.58,-55 688.29,-55 694,-60.71 694,-66.42 694,-66.42 694,-77.83 694,-77.83 694,-83.54 688.29,-89.25 682.58,-89.25 682.58,-89.25 646.42,-89.25 646.42,-89.25 640.71,-89.25 635,-83.54 635,-77.83 635,-77.83 635,-66.42 635,-66.42 635,-60.71 640.71,-55 646.42,-55"/>
</g>
<!-- preparing&#45;failed -->
<g id="node5" class="node state regular">
<title>preparing&#45;failed</title>
<polygon fill="#ffffff" fill-opacity="0.003922" stroke="none" stroke-width="2" points="117.25,-144.25 0,-144.25 0,-108 117.25,-108 117.25,-144.25"/>
<text text-anchor="start" x="11" y="-121.85" font-family="Helvetica,sans-Serif" font-size="12.00">preparing&#45;failed</text>
<path fill="none" stroke="black" stroke-width="2" d="M12.42,-109C12.42,-109 104.83,-109 104.83,-109 110.54,-109 116.25,-114.71 116.25,-120.42 116.25,-120.42 116.25,-131.83 116.25,-131.83 116.25,-137.54 110.54,-143.25 104.83,-143.25 104.83,-143.25 12.42,-143.25 12.42,-143.25 6.71,-143.25 1,-137.54 1,-131.83 1,-131.83 1,-120.42 1,-120.42 1,-114.71 6.71,-109 12.42,-109"/>
</g>
<!-- preparing&#45;failed&#45;&gt;disconnected -->
<g id="edge4" class="edge transition">
<title>preparing&#45;failed&#45;&gt;disconnected</title>
<path fill="none" stroke="black" d="M73.63,-144.19C87.38,-160.42 109.92,-183.3 135.25,-194.12 293.02,-261.57 501.38,-251.96 602.81,-241.78"/>
<polygon fill="black" stroke="black" points="602.96,-245.28 612.55,-240.76 602.24,-238.32 602.96,-245.28"/>
<text text-anchor="start" x="181.75" y="-252.22" font-family="Helvetica,sans-Serif" font-size="10.00">Refresh &#45; Move host to disconnected when connected times out &#160;&#160;</text>
</g>
<!-- preparing&#45;failed&#45;&gt;error -->
<g id="edge1" class="edge transition">
<title>preparing&#45;failed&#45;&gt;error</title>
<path fill="none" stroke="black" d="M116.85,-139.94C123.04,-141.15 129.26,-142.25 135.25,-143.12 317.47,-169.83 537.98,-177.4 625.27,-179.43"/>
<polygon fill="black" stroke="black" points="625.1,-182.92 635.17,-179.64 625.25,-175.92 625.1,-182.92"/>
<text text-anchor="start" x="135.25" y="-180.18" font-family="Helvetica,sans-Serif" font-size="10.00">Media Disconnect &#45; Move to error when virtual media disconnects post&#45;installation &#160;&#160;</text>
</g>
<!-- preparing&#45;failed&#45;&gt;insufficient -->
<g id="edge2" class="edge transition">
<title>preparing&#45;failed&#45;&gt;insufficient</title>
<path fill="none" stroke="black" d="M116.98,-126.12C233.42,-126.12 496.08,-126.12 609.58,-126.12"/>
<polygon fill="black" stroke="black" points="609.54,-129.63 619.54,-126.13 609.54,-122.63 609.54,-129.63"/>
<text text-anchor="start" x="184.38" y="-129.38" font-family="Helvetica,sans-Serif" font-size="10.00">Refresh &#45; Preparing failed disk speed host move to insufficient &#160;&#160;</text>
</g>
<!-- preparing&#45;failed&#45;&gt;known -->
<g id="edge3" class="edge transition">
<title>preparing&#45;failed&#45;&gt;known</title>
<path fill="none" stroke="black" d="M116.86,-112.52C123.04,-111.33 129.26,-110.24 135.25,-109.38 315.74,-83.17 533.72,-75.21 622.7,-72.95"/>
<polygon fill="black" stroke="black" points="622.71,-76.45 632.62,-72.71 622.54,-69.46 622.71,-76.45"/>
<text text-anchor="start" x="162.62" y="-112.62" font-family="Helvetica,sans-Serif" font-size="10.00">Refresh &#45; Failed preparing to known when cluster is no longer preparing &#160;&#160;</text>
</g>
<!-- resetting&#45;pending&#45;user&#45;action -->
<g id="node6" class="node state regular">
<title>resetting&#45;pending&#45;user&#45;action</title>
<polygon fill="#ffffff" fill-opacity="0.003922" stroke="none" stroke-width="2" points="763.25,-36.25 565.75,-36.25 565.75,0 763.25,0 763.25,-36.25"/>
<text text-anchor="start" x="576.75" y="-13.85" font-family="Helvetica,sans-Serif" font-size="12.00">resetting&#45;pending&#45;user&#45;action</text>
<path fill="none" stroke="black" stroke-width="2" d="M578.17,-1C578.17,-1 750.83,-1 750.83,-1 756.54,-1 762.25,-6.71 762.25,-12.42 762.25,-12.42 762.25,-23.83 762.25,-23.83 762.25,-29.54 756.54,-35.25 750.83,-35.25 750.83,-35.25 578.17,-35.25 578.17,-35.25 572.46,-35.25 566.75,-29.54 566.75,-23.83 566.75,-23.83 566.75,-12.42 566.75,-12.42 566.75,-6.71 572.46,-1 578.17,-1"/>
</g>
<!-- preparing&#45;failed&#45;&gt;resetting&#45;pending&#45;user&#45;action -->
<g id="edge5" class="edge transition">
<title>preparing&#45;failed&#45;&gt;resetting&#45;pending&#45;user&#45;action</title>
<path fill="none" stroke="black" d="M73.65,-108.13C87.41,-91.96 109.96,-69.17 135.25,-58.38 271.09,-0.42 444.34,0.67 554.63,-6.57"/>
<polygon fill="black" stroke="black" points="554.37,-10.06 564.59,-7.27 554.86,-3.08 554.37,-10.06"/>
<text text-anchor="start" x="169.38" y="-61.62" font-family="Helvetica,sans-Serif" font-size="10.00">Resetting, Pending User Action &#45; Reset pending user action all states &#160;&#160;</text>
</g>
</g>
</svg>
