<?xml version="1.0" encoding="UTF-8" standalone="no"?>
<!DOCTYPE svg PUBLIC "-//W3C//DTD SVG 1.1//EN"
 "http://www.w3.org/Graphics/SVG/1.1/DTD/svg11.dtd">
<!-- Generated by graphviz version 5.0.0 (0)
 -->
<!-- Title: state transitions Pages: 1 -->
<svg width="825pt" height="349pt"
 viewBox="0.00 0.00 824.50 349.26" xmlns="http://www.w3.org/2000/svg" xmlns:xlink="http://www.w3.org/1999/xlink">
<g id="graph0" class="graph" transform="scale(1 1) rotate(0) translate(4 345.26)">
<title>state transitions</title>
<polygon fill="white" stroke="transparent" points="-4,4 -4,-345.26 820.5,-345.26 820.5,4 -4,4"/>
<!-- cancelled -->
<g id="node1" class="node state regular">
<title>cancelled</title>
<polygon fill="#ffffff" fill-opacity="0.003922" stroke="transparent" stroke-width="2" points="764,-317.26 690,-317.26 690,-281.26 764,-281.26 764,-317.26"/>
<text text-anchor="start" x="701" y="-295.66" font-family="Helvetica,sans-Serif" font-size="12.00">cancelled</text>
<path fill="none" stroke="black" stroke-width="2" d="M702,-282.76C702,-282.76 752,-282.76 752,-282.76 757.5,-282.76 763,-288.26 763,-293.76 763,-293.76 763,-304.76 763,-304.76 763,-310.26 757.5,-315.76 752,-315.76 752,-315.76 702,-315.76 702,-315.76 696.5,-315.76 691,-310.26 691,-304.76 691,-304.76 691,-293.76 691,-293.76 691,-288.26 696.5,-282.76 702,-282.76"/>
</g>
<!-- error -->
<g id="node2" class="node state regular">
<title>error</title>
<polygon fill="#ffffff" fill-opacity="0.003922" stroke="transparent" stroke-width="2" points="755,-181.26 699,-181.26 699,-145.26 755,-145.26 755,-181.26"/>
<text text-anchor="start" x="714.5" y="-159.66" font-family="Helvetica,sans-Serif" font-size="12.00">error</text>
<path fill="none" stroke="black" stroke-width="2" d="M711,-146.76C711,-146.76 743,-146.76 743,-146.76 748.5,-146.76 754,-152.26 754,-157.76 754,-157.76 754,-168.76 754,-168.76 754,-174.26 748.5,-179.76 743,-179.76 743,-179.76 711,-179.76 711,-179.76 705.5,-179.76 700,-174.26 700,-168.76 700,-168.76 700,-157.76 700,-157.76 700,-152.26 705.5,-146.76 711,-146.76"/>
</g>
<!-- installing -->
<g id="node3" class="node state regular">
<title>installing</title>
<polygon fill="#ffffff" fill-opacity="0.003922" stroke="transparent" stroke-width="2" points="235.5,-181.26 164.5,-181.26 164.5,-145.26 235.5,-145.26 235.5,-181.26"/>
<text text-anchor="start" x="176" y="-159.66" font-family="Helvetica,sans-Serif" font-size="12.00">installing</text>
<path fill="none" stroke="black" stroke-width="2" d="M176.5,-146.76C176.5,-146.76 223.5,-146.76 223.5,-146.76 229,-146.76 234.5,-152.26 234.5,-157.76 234.5,-157.76 234.5,-168.76 234.5,-168.76 234.5,-174.26 229,-179.76 223.5,-179.76 223.5,-179.76 176.5,-179.76 176.5,-179.76 171,-179.76 165.5,-174.26 165.5,-168.76 165.5,-168.76 165.5,-157.76 165.5,-157.76 165.5,-152.26 171,-146.76 176.5,-146.76"/>
</g>
<!-- installing&#45;&gt;cancelled -->
<g id="edge1" class="edge transition">
<title>installing&#45;&gt;cancelled</title>
<path fill="none" stroke="black" d="M204.12,-181.31C209.44,-206.08 222.85,-249.83 253.5,-270.26 386.34,-358.81 589.66,-329.67 679.99,-310.46"/>
<polygon fill="black" stroke="black" points="680.9,-313.85 689.92,-308.29 679.41,-307.01 680.9,-313.85"/>
<text text-anchor="start" x="293" y="-333.26" font-family="Helvetica,sans-Serif" font-size="10.00">Cancel Installation &#45; Installation canceled while host is installing &#160;&#160;</text>
</g>
<!-- installing&#45;&gt;error -->
<g id="edge2" class="edge transition">
<title>installing&#45;&gt;error</title>
<path fill="none" stroke="black" d="M207.04,-181.46C214.54,-200.76 229.38,-230.23 253.5,-243.26 289.29,-262.57 580.93,-256.13 619.5,-243.26 651.79,-232.48 682.16,-207.65 702.14,-188.49"/>
<polygon fill="black" stroke="black" points="704.6,-190.97 709.27,-181.46 699.69,-185.98 704.6,-190.97"/>
<text text-anchor="start" x="302.5" y="-258.26" font-family="Helvetica,sans-Serif" font-size="10.00">Installation Failed &#45; Installation failed while host is installing &#160;&#160;</text>
</g>
<!-- installing&#45;&gt;error -->
<g id="edge3" class="edge transition">
<title>installing&#45;&gt;error</title>
<path fill="none" stroke="black" d="M215.92,-181.69C225.45,-191.93 238.75,-203.71 253.5,-209.26 329.63,-237.89 539.85,-225.72 619.5,-209.26 644.02,-204.19 669.84,-193.19 689.91,-183.23"/>
<polygon fill="black" stroke="black" points="691.67,-186.26 698.99,-178.59 688.49,-180.02 691.67,-186.26"/>
<text text-anchor="start" x="253.5" y="-229.26" font-family="Helvetica,sans-Serif" font-size="10.00">Media Disconnect &#45; Move to error when virtual media disconnects post&#45;installation &#160;&#160;</text>
</g>
<!-- installing&#45;&gt;error -->
<g id="edge4" class="edge transition">
<title>installing&#45;&gt;error</title>
<path fill="none" stroke="black" d="M235.55,-172.31C241.5,-173.53 247.65,-174.6 253.5,-175.26 415.14,-193.49 457.09,-184.38 619.5,-175.26 642.6,-173.96 668.38,-171.09 688.79,-168.48"/>
<polygon fill="black" stroke="black" points="689.47,-171.93 698.93,-167.15 688.56,-164.98 689.47,-171.93"/>
<text text-anchor="start" x="320" y="-188.26" font-family="Helvetica,sans-Serif" font-size="10.00">Refresh &#45; Move host to error when cluster is in error &#160;&#160;</text>
</g>
<!-- installing&#45;&gt;error -->
<g id="edge5" class="edge transition">
<title>installing&#45;&gt;error</title>
<path fill="none" stroke="black" d="M235.73,-162.5C241.66,-162.4 247.76,-162.31 253.5,-162.26 416.16,-160.71 456.84,-161.49 619.5,-162.26 642.49,-162.36 668.27,-162.6 688.7,-162.82"/>
<polygon fill="black" stroke="black" points="688.82,-166.32 698.86,-162.93 688.9,-159.32 688.82,-166.32"/>
<text text-anchor="start" x="311.5" y="-165.26" font-family="Helvetica,sans-Serif" font-size="10.00">Refresh &#45; Move host to error when installation times out &#160;&#160;</text>
</g>
<!-- installing&#45;&gt;error -->
<g id="edge6" class="edge transition">
<title>installing&#45;&gt;error</title>
<path fill="none" stroke="black" d="M235.65,-150.36C241.53,-148.66 247.63,-147.18 253.5,-146.26 414.18,-120.89 457.34,-133.4 619.5,-146.26 642.55,-148.08 668.14,-152.1 688.46,-155.78"/>
<polygon fill="black" stroke="black" points="688.09,-159.27 698.56,-157.65 689.37,-152.38 688.09,-159.27"/>
<text text-anchor="start" x="290.5" y="-149.26" font-family="Helvetica,sans-Serif" font-size="10.00">Refresh &#45; Move installing host to error when connection times out &#160;&#160;</text>
</g>
<!-- installing&#45;&gt;error -->
<g id="edge7" class="edge transition">
<title>installing&#45;&gt;error</title>
<path fill="none" stroke="black" d="M215.4,-144.92C224.93,-134.34 238.42,-122.02 253.5,-116.26 405.45,-58.18 460.33,-82.7 619.5,-116.26 643.91,-121.4 669.55,-132.52 689.55,-142.64"/>
<polygon fill="black" stroke="black" points="688.11,-145.84 698.6,-147.35 691.34,-139.63 688.11,-145.84"/>
<text text-anchor="start" x="290.5" y="-119.26" font-family="Helvetica,sans-Serif" font-size="10.00">Refresh &#45; Move installing host to error when connection times out &#160;&#160;</text>
</g>
<!-- installing&#45;&gt;error -->
<g id="edge9" class="edge transition">
<title>installing&#45;&gt;error</title>
<path fill="none" stroke="black" d="M204.9,-145.02C210.91,-121.99 224.88,-83.31 253.5,-66.26 323.37,-24.62 543.65,-36.89 619.5,-66.26 656.01,-80.39 687.69,-113.51 706.8,-137.11"/>
<polygon fill="black" stroke="black" points="704.08,-139.32 713.02,-145.01 709.58,-134.99 704.08,-139.32"/>
<text text-anchor="start" x="340" y="-69.26" font-family="Helvetica,sans-Serif" font-size="10.00">Register Host &#45; Register during installation &#160;&#160;</text>
</g>
<!-- installing&#45;&gt;installing -->
<g id="edge8" class="edge transition">
<title>installing&#45;&gt;installing</title>
<path fill="none" stroke="black" d="M164.22,-175.43C145.67,-186.86 157.59,-199.26 200,-199.26 233.79,-199.26 248.23,-191.38 243.31,-182.4"/>
<polygon fill="black" stroke="black" points="245.5,-179.65 235.78,-175.43 240.74,-184.79 245.5,-179.65"/>
<text text-anchor="start" x="0" y="-202.26" font-family="Helvetica,sans-Serif" font-size="10.00">Refresh &#45; Refresh during installing state without cluster error should stay in installing state &#160;&#160;</text>
</g>
<!-- resetting&#45;pending&#45;user&#45;action -->
<g id="node4" class="node state regular">
<title>resetting&#45;pending&#45;user&#45;action</title>
<polygon fill="#ffffff" fill-opacity="0.003922" stroke="transparent" stroke-width="2" points="816.5,-45.26 637.5,-45.26 637.5,-9.26 816.5,-9.26 816.5,-45.26"/>
<text text-anchor="start" x="649" y="-23.66" font-family="Helvetica,sans-Serif" font-size="12.00">resetting&#45;pending&#45;user&#45;action</text>
<path fill="none" stroke="black" stroke-width="2" d="M649.5,-10.76C649.5,-10.76 804.5,-10.76 804.5,-10.76 810,-10.76 815.5,-16.26 815.5,-21.76 815.5,-21.76 815.5,-32.76 815.5,-32.76 815.5,-38.26 810,-43.76 804.5,-43.76 804.5,-43.76 649.5,-43.76 649.5,-43.76 644,-43.76 638.5,-38.26 638.5,-32.76 638.5,-32.76 638.5,-21.76 638.5,-21.76 638.5,-16.26 644,-10.76 649.5,-10.76"/>
</g>
<!-- installing&#45;&gt;resetting&#45;pending&#45;user&#45;action -->
<g id="edge10" class="edge transition">
<title>installing&#45;&gt;resetting&#45;pending&#45;user&#45;action</title>
<path fill="none" stroke="black" d="M201.79,-145.14C204.23,-114.56 214.04,-53.39 253.5,-26.26 311.93,13.93 506.94,-0.62 627.41,-14.3"/>
<polygon fill="black" stroke="black" points="627.05,-17.79 637.39,-15.45 627.85,-10.83 627.05,-17.79"/>
<text text-anchor="start" x="281" y="-29.26" font-family="Helvetica,sans-Serif" font-size="10.00">Resetting, Pending User Action &#45; Reset pending user action all states &#160;&#160;</text>
</g>
</g>
</svg>
