<?xml version="1.0" encoding="UTF-8" standalone="no"?>
<!DOCTYPE svg PUBLIC "-//W3C//DTD SVG 1.1//EN"
 "http://www.w3.org/Graphics/SVG/1.1/DTD/svg11.dtd">
<!-- Generated by graphviz version 12.1.0 (20240811.2233)
 -->
<!-- Title: state transitions Pages: 1 -->
<svg width="917pt" height="477pt"
 viewBox="0.00 0.00 917.38 477.06" xmlns="http://www.w3.org/2000/svg" xmlns:xlink="http://www.w3.org/1999/xlink">
<g id="graph0" class="graph" transform="scale(1 1) rotate(0) translate(4 473.06)">
<title>state transitions</title>
<polygon fill="white" stroke="none" points="-4,4 -4,-473.06 913.38,-473.06 913.38,4 -4,4"/>
<!-- added&#45;to&#45;existing&#45;cluster -->
<g id="node1" class="node state regular">
<title>added&#45;to&#45;existing&#45;cluster</title>
<polygon fill="#ffffff" fill-opacity="0.003922" stroke="none" stroke-width="2" points="896.25,-458.94 725,-458.94 725,-422.69 896.25,-422.69 896.25,-458.94"/>
<text text-anchor="start" x="736" y="-436.54" font-family="Helvetica,sans-Serif" font-size="12.00">added&#45;to&#45;existing&#45;cluster</text>
<path fill="none" stroke="black" stroke-width="2" d="M737.42,-423.69C737.42,-423.69 883.83,-423.69 883.83,-423.69 889.54,-423.69 895.25,-429.4 895.25,-435.11 895.25,-435.11 895.25,-446.52 895.25,-446.52 895.25,-452.23 889.54,-457.94 883.83,-457.94 883.83,-457.94 737.42,-457.94 737.42,-457.94 731.71,-457.94 726,-452.23 726,-446.52 726,-446.52 726,-435.11 726,-435.11 726,-429.4 731.71,-423.69 737.42,-423.69"/>
</g>
<!-- cancelled -->
<g id="node2" class="node state regular">
<title>cancelled</title>
<polygon fill="#ffffff" fill-opacity="0.003922" stroke="none" stroke-width="2" points="850.12,-404.94 771.12,-404.94 771.12,-368.69 850.12,-368.69 850.12,-404.94"/>
<text text-anchor="start" x="782.12" y="-382.54" font-family="Helvetica,sans-Serif" font-size="12.00">cancelled</text>
<path fill="none" stroke="black" stroke-width="2" d="M783.54,-369.69C783.54,-369.69 837.71,-369.69 837.71,-369.69 843.42,-369.69 849.12,-375.4 849.12,-381.11 849.12,-381.11 849.12,-392.52 849.12,-392.52 849.12,-398.23 843.42,-403.94 837.71,-403.94 837.71,-403.94 783.54,-403.94 783.54,-403.94 777.83,-403.94 772.12,-398.23 772.12,-392.52 772.12,-392.52 772.12,-381.11 772.12,-381.11 772.12,-375.4 777.83,-369.69 783.54,-369.69"/>
</g>
<!-- error -->
<g id="node3" class="node state regular">
<title>error</title>
<polygon fill="#ffffff" fill-opacity="0.003922" stroke="none" stroke-width="2" points="838.62,-278.94 782.62,-278.94 782.62,-242.69 838.62,-242.69 838.62,-278.94"/>
<text text-anchor="start" x="796" y="-256.54" font-family="Helvetica,sans-Serif" font-size="12.00">error</text>
<path fill="none" stroke="black" stroke-width="2" d="M795.04,-243.69C795.04,-243.69 826.21,-243.69 826.21,-243.69 831.92,-243.69 837.62,-249.4 837.62,-255.11 837.62,-255.11 837.62,-266.52 837.62,-266.52 837.62,-272.23 831.92,-277.94 826.21,-277.94 826.21,-277.94 795.04,-277.94 795.04,-277.94 789.33,-277.94 783.62,-272.23 783.62,-266.52 783.62,-266.52 783.62,-255.11 783.62,-255.11 783.62,-249.4 789.33,-243.69 795.04,-243.69"/>
</g>
<!-- installed -->
<g id="node4" class="node state regular">
<title>installed</title>
<polygon fill="#ffffff" fill-opacity="0.003922" stroke="none" stroke-width="2" points="846.38,-152.94 774.88,-152.94 774.88,-116.69 846.38,-116.69 846.38,-152.94"/>
<text text-anchor="start" x="785.88" y="-130.54" font-family="Helvetica,sans-Serif" font-size="12.00">installed</text>
<path fill="none" stroke="black" stroke-width="2" d="M787.29,-117.69C787.29,-117.69 833.96,-117.69 833.96,-117.69 839.67,-117.69 845.38,-123.4 845.38,-129.11 845.38,-129.11 845.38,-140.52 845.38,-140.52 845.38,-146.23 839.67,-151.94 833.96,-151.94 833.96,-151.94 787.29,-151.94 787.29,-151.94 781.58,-151.94 775.88,-146.23 775.88,-140.52 775.88,-140.52 775.88,-129.11 775.88,-129.11 775.88,-123.4 781.58,-117.69 787.29,-117.69"/>
</g>
<!-- installing -->
<g id="node5" class="node state regular">
<title>installing</title>
<polygon fill="#ffffff" fill-opacity="0.003922" stroke="none" stroke-width="2" points="263.38,-242.94 188.88,-242.94 188.88,-206.69 263.38,-206.69 263.38,-242.94"/>
<text text-anchor="start" x="199.88" y="-220.54" font-family="Helvetica,sans-Serif" font-size="12.00">installing</text>
<path fill="none" stroke="black" stroke-width="2" d="M201.29,-207.69C201.29,-207.69 250.96,-207.69 250.96,-207.69 256.67,-207.69 262.38,-213.4 262.38,-219.11 262.38,-219.11 262.38,-230.52 262.38,-230.52 262.38,-236.23 256.67,-241.94 250.96,-241.94 250.96,-241.94 201.29,-241.94 201.29,-241.94 195.58,-241.94 189.88,-236.23 189.88,-230.52 189.88,-230.52 189.88,-219.11 189.88,-219.11 189.88,-213.4 195.58,-207.69 201.29,-207.69"/>
</g>
<!-- installing&#45;&gt;added&#45;to&#45;existing&#45;cluster -->
<g id="edge4" class="edge transition">
<title>installing&#45;&gt;added&#45;to&#45;existing&#45;cluster</title>
<path fill="none" stroke="black" d="M229.57,-242.87C235.82,-286.18 253.9,-394.02 281.38,-415.82 345.94,-467.03 579.71,-458.71 713.64,-449.17"/>
<polygon fill="black" stroke="black" points="713.86,-452.66 723.57,-448.44 713.35,-445.68 713.86,-452.66"/>
<text text-anchor="start" x="311" y="-459.56" font-family="Helvetica,sans-Serif" font-size="10.00">null &#45; host progress changed to added&#45;to&#45;existing&#45;cluster for day2 host &#160;&#160;</text>
</g>
<!-- installing&#45;&gt;cancelled -->
<g id="edge1" class="edge transition">
<title>installing&#45;&gt;cancelled</title>
<path fill="none" stroke="black" d="M228.39,-242.49C231.58,-272.35 242.72,-332.23 281.38,-359.82 357.07,-413.84 643.66,-399.28 760.05,-390.84"/>
<polygon fill="black" stroke="black" points="760.2,-394.34 769.91,-390.11 759.68,-387.36 760.2,-394.34"/>
<text text-anchor="start" x="326" y="-402.43" font-family="Helvetica,sans-Serif" font-size="10.00">Cancel Installation &#45; Installation canceled while host is installing &#160;&#160;</text>
</g>
<!-- installing&#45;&gt;error -->
<g id="edge2" class="edge transition">
<title>installing&#45;&gt;error</title>
<path fill="none" stroke="black" d="M230.53,-242.66C236.26,-267.08 250.38,-310.02 281.38,-328.82 320.57,-352.58 649.65,-340.85 693.88,-328.82 724.83,-320.4 755.96,-301.37 778.12,-285.58"/>
<polygon fill="black" stroke="black" points="780.12,-288.46 786.12,-279.73 775.99,-282.81 780.12,-288.46"/>
<text text-anchor="start" x="335.75" y="-345.83" font-family="Helvetica,sans-Serif" font-size="10.00">Installation Failed &#45; Installation failed while host is installing &#160;&#160;</text>
</g>
<!-- installing&#45;&gt;error -->
<g id="edge7" class="edge transition">
<title>installing&#45;&gt;error</title>
<path fill="none" stroke="black" d="M235.6,-242.84C244.45,-259.28 260.01,-282.53 281.38,-292.82 322.67,-312.7 648.46,-298.98 693.88,-292.82 720.56,-289.19 749.79,-281.08 772.2,-273.93"/>
<polygon fill="black" stroke="black" points="773.07,-277.32 781.49,-270.88 770.89,-270.67 773.07,-277.32"/>
<text text-anchor="start" x="281.38" y="-306.43" font-family="Helvetica,sans-Serif" font-size="10.00">Media Disconnect &#45; Move to error when virtual media disconnects post&#45;installation &#160;&#160;</text>
</g>
<!-- installing&#45;&gt;error -->
<g id="edge8" class="edge transition">
<title>installing&#45;&gt;error</title>
<path fill="none" stroke="black" d="M251.54,-242.9C260.47,-248.49 270.94,-253.93 281.38,-256.82 373.61,-282.37 666.55,-268.91 771.64,-263.07"/>
<polygon fill="black" stroke="black" points="771.64,-266.58 781.42,-262.52 771.24,-259.59 771.64,-266.58"/>
<text text-anchor="start" x="357.12" y="-275.11" font-family="Helvetica,sans-Serif" font-size="10.00">Refresh &#45; Move host to error when cluster is in error &#160;&#160;</text>
</g>
<!-- installing&#45;&gt;error -->
<g id="edge9" class="edge transition">
<title>installing&#45;&gt;error</title>
<path fill="none" stroke="black" d="M263.26,-224.22C341.84,-223.32 534.03,-223.22 693.88,-240.07 719.98,-242.82 749.07,-248.04 771.55,-252.56"/>
<polygon fill="black" stroke="black" points="770.67,-255.95 781.17,-254.53 772.08,-249.09 770.67,-255.95"/>
<text text-anchor="start" x="346.25" y="-243.32" font-family="Helvetica,sans-Serif" font-size="10.00">Refresh &#45; Move host to error when installation times out &#160;&#160;</text>
</g>
<!-- installing&#45;&gt;error -->
<g id="edge10" class="edge transition">
<title>installing&#45;&gt;error</title>
<path fill="none" stroke="black" d="M263.21,-211.27C269.2,-209.52 275.41,-208.02 281.38,-207.07 371.9,-192.63 604.37,-187.3 693.88,-207.07 721.7,-213.21 750.79,-226.75 772.84,-238.7"/>
<polygon fill="black" stroke="black" points="771,-241.68 781.44,-243.49 774.4,-235.57 771,-241.68"/>
<text text-anchor="start" x="323" y="-210.32" font-family="Helvetica,sans-Serif" font-size="10.00">Refresh &#45; Move installing host to error when connection times out &#160;&#160;</text>
</g>
<!-- installing&#45;&gt;error -->
<g id="edge14" class="edge transition">
<title>installing&#45;&gt;error</title>
<path fill="none" stroke="black" d="M241.19,-207.15C251.1,-196.19 265.41,-183.09 281.38,-177.07 367.14,-144.7 606.67,-148.82 693.88,-177.07 728.93,-188.42 762.27,-214.79 784.09,-234.93"/>
<polygon fill="black" stroke="black" points="781.66,-237.46 791.33,-241.8 786.48,-232.38 781.66,-237.46"/>
<text text-anchor="start" x="379.25" y="-180.32" font-family="Helvetica,sans-Serif" font-size="10.00">Register Host &#45; Register during installation &#160;&#160;</text>
</g>
<!-- installing&#45;&gt;installed -->
<g id="edge5" class="edge transition">
<title>installing&#45;&gt;installed</title>
<path fill="none" stroke="black" d="M232.39,-206.8C239.6,-185.76 254.81,-151.95 281.38,-137.07 322.8,-113.86 642.93,-126.73 763.71,-132.49"/>
<polygon fill="black" stroke="black" points="763.42,-135.98 773.58,-132.97 763.76,-128.99 763.42,-135.98"/>
<text text-anchor="start" x="385.25" y="-140.32" font-family="Helvetica,sans-Serif" font-size="10.00">null &#45; host progress changed to installed &#160;&#160;</text>
</g>
<!-- installing&#45;&gt;installing -->
<g id="edge11" class="edge transition">
<title>installing&#45;&gt;installing</title>
<path fill="none" stroke="black" d="M210.46,-242.66C207.79,-252.23 213.02,-260.94 226.12,-260.94 233.5,-260.94 238.38,-258.18 240.76,-254.07"/>
<polygon fill="black" stroke="black" points="244.24,-254.44 241.66,-244.17 237.27,-253.81 244.24,-254.44"/>
<text text-anchor="start" x="82.5" y="-264.19" font-family="Helvetica,sans-Serif" font-size="10.00">Refresh &#45; Keep installing host when connection times out &#160;&#160;</text>
</g>
<!-- installing&#45;&gt;installing -->
<g id="edge12" class="edge transition">
<title>installing&#45;&gt;installing</title>
<path fill="none" stroke="black" d="M199.92,-242.84C185.89,-260.1 194.63,-278.94 226.12,-278.94 251.72,-278.94 262.28,-266.5 257.82,-252.58"/>
<polygon fill="black" stroke="black" points="261.03,-251.15 253.07,-244.15 254.93,-254.58 261.03,-251.15"/>
<text text-anchor="start" x="52.5" y="-282.19" font-family="Helvetica,sans-Serif" font-size="10.00">Refresh &#45; Keep installing host when host recovers from disconnection &#160;&#160;</text>
</g>
<!-- installing&#45;&gt;installing -->
<g id="edge13" class="edge transition">
<title>installing&#45;&gt;installing</title>
<path fill="none" stroke="black" d="M193.04,-242.93C163.77,-267.3 174.8,-296.94 226.12,-296.94 272.04,-296.94 285.71,-273.22 267.13,-250.77"/>
<polygon fill="black" stroke="black" points="269.85,-248.54 260.28,-243.99 264.92,-253.52 269.85,-248.54"/>
<text text-anchor="start" x="0" y="-300.19" font-family="Helvetica,sans-Serif" font-size="10.00">Refresh &#45; Refresh during installing state without cluster error should stay in installing state &#160;&#160;</text>
</g>
<!-- installing&#45;in&#45;progress -->
<g id="node6" class="node state regular">
<title>installing&#45;in&#45;progress</title>
<polygon fill="#ffffff" fill-opacity="0.003922" stroke="none" stroke-width="2" points="883.12,-98.94 738.12,-98.94 738.12,-62.69 883.12,-62.69 883.12,-98.94"/>
<text text-anchor="start" x="749.12" y="-76.54" font-family="Helvetica,sans-Serif" font-size="12.00">installing&#45;in&#45;progress</text>
<path fill="none" stroke="black" stroke-width="2" d="M750.54,-63.69C750.54,-63.69 870.71,-63.69 870.71,-63.69 876.42,-63.69 882.12,-69.4 882.12,-75.11 882.12,-75.11 882.12,-86.52 882.12,-86.52 882.12,-92.23 876.42,-97.94 870.71,-97.94 870.71,-97.94 750.54,-97.94 750.54,-97.94 744.83,-97.94 739.12,-92.23 739.12,-86.52 739.12,-86.52 739.12,-75.11 739.12,-75.11 739.12,-69.4 744.83,-63.69 750.54,-63.69"/>
</g>
<!-- installing&#45;&gt;installing&#45;in&#45;progress -->
<g id="edge3" class="edge transition">
<title>installing&#45;&gt;installing&#45;in&#45;progress</title>
<path fill="none" stroke="black" d="M229.6,-206.74C234.33,-179.84 247.44,-130 281.38,-107.07 317.26,-82.81 587.25,-80.05 726.73,-80.27"/>
<polygon fill="black" stroke="black" points="726.65,-83.77 736.66,-80.3 726.67,-76.77 726.65,-83.77"/>
<text text-anchor="start" x="306.5" y="-110.32" font-family="Helvetica,sans-Serif" font-size="10.00">null &#45; host progress installing&#45;in&#45;progress on rebooting in kube&#45;api mode &#160;&#160;</text>
</g>
<!-- installing&#45;&gt;installing&#45;in&#45;progress -->
<g id="edge6" class="edge transition">
<title>installing&#45;&gt;installing&#45;in&#45;progress</title>
<path fill="none" stroke="black" d="M226.92,-206.85C227.63,-172.21 234.73,-96.62 281.38,-63.07 318.58,-36.3 648.17,-59.58 693.88,-63.07 704.67,-63.89 715.98,-65.14 727.13,-66.6"/>
<polygon fill="black" stroke="black" points="726.31,-70.02 736.7,-67.92 727.27,-63.08 726.31,-70.02"/>
<text text-anchor="start" x="395.38" y="-66.32" font-family="Helvetica,sans-Serif" font-size="10.00">null &#45; default host progress changed &#160;&#160;</text>
</g>
<!-- resetting&#45;pending&#45;user&#45;action -->
<g id="node7" class="node state regular">
<title>resetting&#45;pending&#45;user&#45;action</title>
<polygon fill="#ffffff" fill-opacity="0.003922" stroke="none" stroke-width="2" points="909.38,-44.94 711.88,-44.94 711.88,-8.69 909.38,-8.69 909.38,-44.94"/>
<text text-anchor="start" x="722.88" y="-22.54" font-family="Helvetica,sans-Serif" font-size="12.00">resetting&#45;pending&#45;user&#45;action</text>
<path fill="none" stroke="black" stroke-width="2" d="M724.29,-9.69C724.29,-9.69 896.96,-9.69 896.96,-9.69 902.67,-9.69 908.38,-15.4 908.38,-21.11 908.38,-21.11 908.38,-32.52 908.38,-32.52 908.38,-38.23 902.67,-43.94 896.96,-43.94 896.96,-43.94 724.29,-43.94 724.29,-43.94 718.58,-43.94 712.88,-38.23 712.88,-32.52 712.88,-32.52 712.88,-21.11 712.88,-21.11 712.88,-15.4 718.58,-9.69 724.29,-9.69"/>
</g>
<!-- installing&#45;&gt;resetting&#45;pending&#45;user&#45;action -->
<g id="edge15" class="edge transition">
<title>installing&#45;&gt;resetting&#45;pending&#45;user&#45;action</title>
<path fill="none" stroke="black" d="M229.53,-206.73C235.69,-163.34 253.57,-55.37 281.38,-34.07 344.67,14.42 565.64,0.39 700.93,-13.6"/>
<polygon fill="black" stroke="black" points="700.31,-17.06 710.62,-14.62 701.04,-10.09 700.31,-17.06"/>
<text text-anchor="start" x="315.5" y="-37.32" font-family="Helvetica,sans-Serif" font-size="10.00">Resetting, Pending User Action &#45; Reset pending user action all states &#160;&#160;</text>
</g>
</g>
</svg>
