<?xml version="1.0" encoding="UTF-8" standalone="no"?>
<!DOCTYPE svg PUBLIC "-//W3C//DTD SVG 1.1//EN"
 "http://www.w3.org/Graphics/SVG/1.1/DTD/svg11.dtd">
<!-- Generated by graphviz version 12.1.0 (20240811.2233)
 -->
<!-- Title: state transitions Pages: 1 -->
<svg width="851pt" height="371pt"
 viewBox="0.00 0.00 850.62 371.33" xmlns="http://www.w3.org/2000/svg" xmlns:xlink="http://www.w3.org/1999/xlink">
<g id="graph0" class="graph" transform="scale(1 1) rotate(0) translate(4 367.33)">
<title>state transitions</title>
<polygon fill="white" stroke="none" points="-4,4 -4,-367.33 846.62,-367.33 846.62,4 -4,4"/>
<!-- disconnected -->
<g id="node1" class="node state regular">
<title>disconnected</title>
<polygon fill="#ffffff" fill-opacity="0.003922" stroke="none" stroke-width="2" points="794.62,-342.35 693.12,-342.35 693.12,-306.1 794.62,-306.1 794.62,-342.35"/>
<text text-anchor="start" x="704.12" y="-319.95" font-family="Helvetica,sans-Serif" font-size="12.00">disconnected</text>
<path fill="none" stroke="black" stroke-width="2" d="M705.54,-307.1C705.54,-307.1 782.21,-307.1 782.21,-307.1 787.92,-307.1 793.62,-312.8 793.62,-318.51 793.62,-318.51 793.62,-329.93 793.62,-329.93 793.62,-335.64 787.92,-341.35 782.21,-341.35 782.21,-341.35 705.54,-341.35 705.54,-341.35 699.83,-341.35 694.12,-335.64 694.12,-329.93 694.12,-329.93 694.12,-318.51 694.12,-318.51 694.12,-312.8 699.83,-307.1 705.54,-307.1"/>
</g>
<!-- discovering -->
<g id="node2" class="node state regular">
<title>discovering</title>
<polygon fill="#ffffff" fill-opacity="0.003922" stroke="none" stroke-width="2" points="160.62,-216.35 70.38,-216.35 70.38,-180.1 160.62,-180.1 160.62,-216.35"/>
<text text-anchor="start" x="81.38" y="-193.95" font-family="Helvetica,sans-Serif" font-size="12.00">discovering</text>
<path fill="none" stroke="black" stroke-width="2" d="M82.79,-181.1C82.79,-181.1 148.21,-181.1 148.21,-181.1 153.92,-181.1 159.62,-186.8 159.62,-192.51 159.62,-192.51 159.62,-203.93 159.62,-203.93 159.62,-209.64 153.92,-215.35 148.21,-215.35 148.21,-215.35 82.79,-215.35 82.79,-215.35 77.08,-215.35 71.38,-209.64 71.38,-203.93 71.38,-203.93 71.38,-192.51 71.38,-192.51 71.38,-186.8 77.08,-181.1 82.79,-181.1"/>
</g>
<!-- discovering&#45;&gt;disconnected -->
<g id="edge1" class="edge transition">
<title>discovering&#45;&gt;disconnected</title>
<path fill="none" stroke="black" d="M119.65,-216.29C125.6,-244.26 141.42,-297.23 178.62,-320.22 261.24,-371.26 554.33,-345.64 682.33,-331.49"/>
<polygon fill="black" stroke="black" points="682.41,-335 691.95,-330.41 681.63,-328.05 682.41,-335"/>
<text text-anchor="start" x="178.62" y="-353.83" font-family="Helvetica,sans-Serif" font-size="10.00">Media Disconnect &#45; Move to disconnected when virtual media disconnects pre&#45;installation &#160;&#160;</text>
</g>
<!-- discovering&#45;&gt;disconnected -->
<g id="edge3" class="edge transition">
<title>discovering&#45;&gt;disconnected</title>
<path fill="none" stroke="black" d="M123.65,-216.15C132.92,-236.71 151.22,-269.46 178.62,-284.22 222.54,-307.87 577.55,-297.99 627.12,-303.47 645.02,-305.45 664.32,-308.53 681.94,-311.71"/>
<polygon fill="black" stroke="black" points="681.28,-315.15 691.75,-313.53 682.55,-308.27 681.28,-315.15"/>
<text text-anchor="start" x="243.12" y="-306.72" font-family="Helvetica,sans-Serif" font-size="10.00">Refresh &#45; Move host to disconnected when connected times out &#160;&#160;</text>
</g>
<!-- discovering&#45;&gt;discovering -->
<g id="edge4" class="edge transition">
<title>discovering&#45;&gt;discovering</title>
<path fill="none" stroke="black" d="M89.67,-216.06C85.28,-225.63 93.89,-234.35 115.5,-234.35 127.99,-234.35 136.14,-231.43 139.94,-227.13"/>
<polygon fill="black" stroke="black" points="143.37,-227.92 141.14,-217.57 136.43,-227.05 143.37,-227.92"/>
<text text-anchor="start" x="0" y="-237.6" font-family="Helvetica,sans-Serif" font-size="10.00">Refresh &#45; Host reconnected without inventory &#160;&#160;</text>
</g>
<!-- discovering&#45;&gt;discovering -->
<g id="edge9" class="edge transition">
<title>discovering&#45;&gt;discovering</title>
<path fill="none" stroke="black" d="M72.3,-216.24C49.18,-233.5 63.58,-252.35 115.5,-252.35 159.31,-252.35 176.4,-238.93 166.79,-224.37"/>
<polygon fill="black" stroke="black" points="169.3,-221.93 159.77,-217.31 164.34,-226.87 169.3,-221.93"/>
<text text-anchor="start" x="36.75" y="-255.6" font-family="Helvetica,sans-Serif" font-size="10.00">Register Host &#45; Re&#45;registration &#160;&#160;</text>
</g>
<!-- unbinding -->
<g id="node3" class="node state regular">
<title>unbinding</title>
<polygon fill="#ffffff" fill-opacity="0.003922" stroke="none" stroke-width="2" points="784.12,-279.35 703.62,-279.35 703.62,-243.1 784.12,-243.1 784.12,-279.35"/>
<text text-anchor="start" x="714.62" y="-256.95" font-family="Helvetica,sans-Serif" font-size="12.00">unbinding</text>
<path fill="none" stroke="black" stroke-width="2" d="M716.04,-244.1C716.04,-244.1 771.71,-244.1 771.71,-244.1 777.42,-244.1 783.12,-249.8 783.12,-255.51 783.12,-255.51 783.12,-266.93 783.12,-266.93 783.12,-272.64 777.42,-278.35 771.71,-278.35 771.71,-278.35 716.04,-278.35 716.04,-278.35 710.33,-278.35 704.62,-272.64 704.62,-266.93 704.62,-266.93 704.62,-255.51 704.62,-255.51 704.62,-249.8 710.33,-244.1 716.04,-244.1"/>
</g>
<!-- discovering&#45;&gt;unbinding -->
<g id="edge2" class="edge transition">
<title>discovering&#45;&gt;unbinding</title>
<path fill="none" stroke="black" d="M132.49,-216.12C144.03,-227.65 160.68,-241.66 178.62,-248.22 272.03,-282.36 572.08,-270.53 692.33,-264.17"/>
<polygon fill="black" stroke="black" points="692.42,-267.67 702.22,-263.64 692.04,-260.68 692.42,-267.67"/>
<text text-anchor="start" x="302.38" y="-274.67" font-family="Helvetica,sans-Serif" font-size="10.00">Reclaim Host &#45; Reclaim pre&#45;installation &#160;&#160;</text>
</g>
<!-- discovering&#45;&gt;unbinding -->
<g id="edge11" class="edge transition">
<title>discovering&#45;&gt;unbinding</title>
<path fill="none" stroke="black" d="M160.44,-209.14C166.52,-210.35 172.71,-211.43 178.62,-212.22 376.4,-238.53 429.77,-202.2 627.12,-231.47 648.94,-234.71 672.6,-240.39 692.81,-245.92"/>
<polygon fill="black" stroke="black" points="691.62,-249.22 702.19,-248.55 693.51,-242.48 691.62,-249.22"/>
<text text-anchor="start" x="307.62" y="-234.72" font-family="Helvetica,sans-Serif" font-size="10.00">Unbind Host &#45; Unbind pre&#45;installation &#160;&#160;</text>
</g>
<!-- insufficient -->
<g id="node4" class="node state regular">
<title>insufficient</title>
<polygon fill="#ffffff" fill-opacity="0.003922" stroke="none" stroke-width="2" points="787.5,-212.35 700.25,-212.35 700.25,-176.1 787.5,-176.1 787.5,-212.35"/>
<text text-anchor="start" x="711.25" y="-189.95" font-family="Helvetica,sans-Serif" font-size="12.00">insufficient</text>
<path fill="none" stroke="black" stroke-width="2" d="M712.67,-177.1C712.67,-177.1 775.08,-177.1 775.08,-177.1 780.79,-177.1 786.5,-182.8 786.5,-188.51 786.5,-188.51 786.5,-199.93 786.5,-199.93 786.5,-205.64 780.79,-211.35 775.08,-211.35 775.08,-211.35 712.67,-211.35 712.67,-211.35 706.96,-211.35 701.25,-205.64 701.25,-199.93 701.25,-199.93 701.25,-188.51 701.25,-188.51 701.25,-182.8 706.96,-177.1 712.67,-177.1"/>
</g>
<!-- discovering&#45;&gt;insufficient -->
<g id="edge5" class="edge transition">
<title>discovering&#45;&gt;insufficient</title>
<path fill="none" stroke="black" d="M160.55,-197.94C272.5,-197.22 567.68,-195.34 689.32,-194.56"/>
<polygon fill="black" stroke="black" points="689.04,-198.06 699.02,-194.5 689,-191.06 689.04,-198.06"/>
<text text-anchor="start" x="300.12" y="-201.05" font-family="Helvetica,sans-Serif" font-size="10.00">Refresh &#45; Host has insufficient hardware &#160;&#160;</text>
</g>
<!-- discovering&#45;&gt;insufficient -->
<g id="edge7" class="edge transition">
<title>discovering&#45;&gt;insufficient</title>
<path fill="none" stroke="black" d="M160.56,-182.39C166.56,-180.77 172.7,-179.39 178.62,-178.47 375.6,-147.91 428.25,-165 627.12,-178.47 647.51,-179.85 669.77,-182.58 689.28,-185.39"/>
<polygon fill="black" stroke="black" points="688.51,-188.81 698.91,-186.82 689.54,-181.89 688.51,-188.81"/>
<text text-anchor="start" x="338.75" y="-181.72" font-family="Helvetica,sans-Serif" font-size="10.00">Refresh &#45; Host not ready &#160;&#160;</text>
</g>
<!-- pending&#45;for&#45;input -->
<g id="node5" class="node state regular">
<title>pending&#45;for&#45;input</title>
<polygon fill="#ffffff" fill-opacity="0.003922" stroke="none" stroke-width="2" points="806.25,-149.35 681.5,-149.35 681.5,-113.1 806.25,-113.1 806.25,-149.35"/>
<text text-anchor="start" x="692.5" y="-126.95" font-family="Helvetica,sans-Serif" font-size="12.00">pending&#45;for&#45;input</text>
<path fill="none" stroke="black" stroke-width="2" d="M693.92,-114.1C693.92,-114.1 793.83,-114.1 793.83,-114.1 799.54,-114.1 805.25,-119.8 805.25,-125.51 805.25,-125.51 805.25,-136.93 805.25,-136.93 805.25,-142.64 799.54,-148.35 793.83,-148.35 793.83,-148.35 693.92,-148.35 693.92,-148.35 688.21,-148.35 682.5,-142.64 682.5,-136.93 682.5,-136.93 682.5,-125.51 682.5,-125.51 682.5,-119.8 688.21,-114.1 693.92,-114.1"/>
</g>
<!-- discovering&#45;&gt;pending&#45;for&#45;input -->
<g id="edge6" class="edge transition">
<title>discovering&#45;&gt;pending&#45;for&#45;input</title>
<path fill="none" stroke="black" d="M131.01,-180.34C142.44,-167.72 159.6,-151.81 178.62,-144.47 345.05,-80.23 560.13,-100.66 670.5,-117.82"/>
<polygon fill="black" stroke="black" points="669.9,-121.27 680.32,-119.39 671,-114.36 669.9,-121.27"/>
<text text-anchor="start" x="328.62" y="-147.72" font-family="Helvetica,sans-Serif" font-size="10.00">Refresh &#45; Host pending input &#160;&#160;</text>
</g>
<!-- known -->
<g id="node6" class="node state regular">
<title>known</title>
<polygon fill="#ffffff" fill-opacity="0.003922" stroke="none" stroke-width="2" points="774.38,-95.35 713.38,-95.35 713.38,-59.1 774.38,-59.1 774.38,-95.35"/>
<text text-anchor="start" x="724.38" y="-72.95" font-family="Helvetica,sans-Serif" font-size="12.00">known</text>
<path fill="none" stroke="black" stroke-width="2" d="M725.79,-60.1C725.79,-60.1 761.96,-60.1 761.96,-60.1 767.67,-60.1 773.38,-65.8 773.38,-71.51 773.38,-71.51 773.38,-82.93 773.38,-82.93 773.38,-88.64 767.67,-94.35 761.96,-94.35 761.96,-94.35 725.79,-94.35 725.79,-94.35 720.08,-94.35 714.38,-88.64 714.38,-82.93 714.38,-82.93 714.38,-71.51 714.38,-71.51 714.38,-65.8 720.08,-60.1 725.79,-60.1"/>
</g>
<!-- discovering&#45;&gt;known -->
<g id="edge8" class="edge transition">
<title>discovering&#45;&gt;known</title>
<path fill="none" stroke="black" d="M120.22,-180.34C126.82,-153.78 143.32,-104.77 178.62,-83.47 266.43,-30.5 587.94,-59.98 702.23,-72.49"/>
<polygon fill="black" stroke="black" points="701.73,-75.96 712.06,-73.58 702.51,-69 701.73,-75.96"/>
<text text-anchor="start" x="348.12" y="-86.72" font-family="Helvetica,sans-Serif" font-size="10.00">Refresh &#45; Host ready &#160;&#160;</text>
</g>
<!-- resetting&#45;pending&#45;user&#45;action -->
<g id="node7" class="node state regular">
<title>resetting&#45;pending&#45;user&#45;action</title>
<polygon fill="#ffffff" fill-opacity="0.003922" stroke="none" stroke-width="2" points="842.62,-41.35 645.12,-41.35 645.12,-5.1 842.62,-5.1 842.62,-41.35"/>
<text text-anchor="start" x="656.12" y="-18.95" font-family="Helvetica,sans-Serif" font-size="12.00">resetting&#45;pending&#45;user&#45;action</text>
<path fill="none" stroke="black" stroke-width="2" d="M657.54,-6.1C657.54,-6.1 830.21,-6.1 830.21,-6.1 835.92,-6.1 841.62,-11.8 841.62,-17.51 841.62,-17.51 841.62,-28.93 841.62,-28.93 841.62,-34.64 835.92,-40.35 830.21,-40.35 830.21,-40.35 657.54,-40.35 657.54,-40.35 651.83,-40.35 646.12,-34.64 646.12,-28.93 646.12,-28.93 646.12,-17.51 646.12,-17.51 646.12,-11.8 651.83,-6.1 657.54,-6.1"/>
</g>
<!-- discovering&#45;&gt;resetting&#45;pending&#45;user&#45;action -->
<g id="edge10" class="edge transition">
<title>discovering&#45;&gt;resetting&#45;pending&#45;user&#45;action</title>
<path fill="none" stroke="black" d="M117.27,-180.27C119.84,-145.64 130.92,-70.08 178.62,-36.47 249.3,13.33 490.66,0.77 633.81,-11.84"/>
<polygon fill="black" stroke="black" points="633.43,-15.32 643.71,-12.73 634.06,-8.35 633.43,-15.32"/>
<text text-anchor="start" x="230.75" y="-39.72" font-family="Helvetica,sans-Serif" font-size="10.00">Resetting, Pending User Action &#45; Reset pending user action all states &#160;&#160;</text>
</g>
</g>
</svg>
