<?xml version="1.0" encoding="UTF-8" standalone="no"?>
<!DOCTYPE svg PUBLIC "-//W3C//DTD SVG 1.1//EN"
 "http://www.w3.org/Graphics/SVG/1.1/DTD/svg11.dtd">
<!-- Generated by graphviz version 12.1.0 (20240811.2233)
 -->
<!-- Title: state transitions Pages: 1 -->
<svg width="660pt" height="98pt"
 viewBox="0.00 0.00 659.50 98.25" xmlns="http://www.w3.org/2000/svg" xmlns:xlink="http://www.w3.org/1999/xlink">
<g id="graph0" class="graph" transform="scale(1 1) rotate(0) translate(4 94.25)">
<title>state transitions</title>
<polygon fill="white" stroke="none" points="-4,4 -4,-94.25 655.5,-94.25 655.5,4 -4,4"/>
<!-- binding -->
<g id="node1" class="node state regular">
<title>binding</title>
<polygon fill="#ffffff" fill-opacity="0.003922" stroke="none" stroke-width="2" points="65.5,-63.25 0,-63.25 0,-27 65.5,-27 65.5,-63.25"/>
<text text-anchor="start" x="11" y="-40.85" font-family="Helvetica,sans-Serif" font-size="12.00">binding</text>
<path fill="none" stroke="black" stroke-width="2" d="M12.42,-28C12.42,-28 53.08,-28 53.08,-28 58.79,-28 64.5,-33.71 64.5,-39.42 64.5,-39.42 64.5,-50.83 64.5,-50.83 64.5,-56.54 58.79,-62.25 53.08,-62.25 53.08,-62.25 12.42,-62.25 12.42,-62.25 6.71,-62.25 1,-56.54 1,-50.83 1,-50.83 1,-39.42 1,-39.42 1,-33.71 6.71,-28 12.42,-28"/>
</g>
<!-- disconnected -->
<g id="node2" class="node state regular">
<title>disconnected</title>
<polygon fill="#ffffff" fill-opacity="0.003922" stroke="none" stroke-width="2" points="651.5,-90.25 550,-90.25 550,-54 651.5,-54 651.5,-90.25"/>
<text text-anchor="start" x="561" y="-67.85" font-family="Helvetica,sans-Serif" font-size="12.00">disconnected</text>
<path fill="none" stroke="black" stroke-width="2" d="M562.42,-55C562.42,-55 639.08,-55 639.08,-55 644.79,-55 650.5,-60.71 650.5,-66.42 650.5,-66.42 650.5,-77.83 650.5,-77.83 650.5,-83.54 644.79,-89.25 639.08,-89.25 639.08,-89.25 562.42,-89.25 562.42,-89.25 556.71,-89.25 551,-83.54 551,-77.83 551,-77.83 551,-66.42 551,-66.42 551,-60.71 556.71,-55 562.42,-55"/>
</g>
<!-- binding&#45;&gt;disconnected -->
<g id="edge1" class="edge transition">
<title>binding&#45;&gt;disconnected</title>
<path fill="none" stroke="black" d="M65.39,-46.63C156.19,-50.97 418.72,-63.49 538.67,-69.21"/>
<polygon fill="black" stroke="black" points="538.5,-72.71 548.65,-69.69 538.83,-65.71 538.5,-72.71"/>
<text text-anchor="start" x="83.5" y="-72.03" font-family="Helvetica,sans-Serif" font-size="10.00">Media Disconnect &#45; Move to disconnected when virtual media disconnects pre&#45;installation &#160;&#160;</text>
</g>
<!-- discovering -->
<g id="node3" class="node state regular">
<title>discovering</title>
<polygon fill="#ffffff" fill-opacity="0.003922" stroke="none" stroke-width="2" points="645.88,-36.25 555.62,-36.25 555.62,0 645.88,0 645.88,-36.25"/>
<text text-anchor="start" x="566.62" y="-13.85" font-family="Helvetica,sans-Serif" font-size="12.00">discovering</text>
<path fill="none" stroke="black" stroke-width="2" d="M568.04,-1C568.04,-1 633.46,-1 633.46,-1 639.17,-1 644.88,-6.71 644.88,-12.42 644.88,-12.42 644.88,-23.83 644.88,-23.83 644.88,-29.54 639.17,-35.25 633.46,-35.25 633.46,-35.25 568.04,-35.25 568.04,-35.25 562.33,-35.25 556.62,-29.54 556.62,-23.83 556.62,-23.83 556.62,-12.42 556.62,-12.42 556.62,-6.71 562.33,-1 568.04,-1"/>
</g>
<!-- binding&#45;&gt;discovering -->
<g id="edge2" class="edge transition">
<title>binding&#45;&gt;discovering</title>
<path fill="none" stroke="black" d="M65.35,-35.15C71.32,-33.62 77.56,-32.26 83.5,-31.38 249.93,-6.62 449.79,-11.04 544.62,-15.16"/>
<polygon fill="black" stroke="black" points="544.27,-18.65 554.42,-15.61 544.58,-11.66 544.27,-18.65"/>
<text text-anchor="start" x="229" y="-34.62" font-family="Helvetica,sans-Serif" font-size="10.00">Register Host &#45; Re&#45;registration &#160;&#160;</text>
</g>
</g>
</svg>
