<?xml version="1.0" encoding="UTF-8" standalone="no"?>
<!DOCTYPE svg PUBLIC "-//W3C//DTD SVG 1.1//EN"
 "http://www.w3.org/Graphics/SVG/1.1/DTD/svg11.dtd">
<!-- Generated by graphviz version 5.0.0 (0)
 -->
<!-- Title: state transitions Pages: 1 -->
<svg width="710pt" height="129pt"
 viewBox="0.00 0.00 709.50 129.00" xmlns="http://www.w3.org/2000/svg" xmlns:xlink="http://www.w3.org/1999/xlink">
<g id="graph0" class="graph" transform="scale(1 1) rotate(0) translate(4 125)">
<title>state transitions</title>
<polygon fill="white" stroke="transparent" points="-4,4 -4,-125 705.5,-125 705.5,4 -4,4"/>
<!-- discovering -->
<g id="node1" class="node state regular">
<title>discovering</title>
<polygon fill="#ffffff" fill-opacity="0.003922" stroke="transparent" stroke-width="2" points="654,-90 570,-90 570,-54 654,-54 654,-90"/>
<text text-anchor="start" x="581" y="-68.4" font-family="Helvetica,sans-Serif" font-size="12.00">discovering</text>
<path fill="none" stroke="black" stroke-width="2" d="M582,-55.5C582,-55.5 642,-55.5 642,-55.5 647.5,-55.5 653,-61 653,-66.5 653,-66.5 653,-77.5 653,-77.5 653,-83 647.5,-88.5 642,-88.5 642,-88.5 582,-88.5 582,-88.5 576.5,-88.5 571,-83 571,-77.5 571,-77.5 571,-66.5 571,-66.5 571,-61 576.5,-55.5 582,-55.5"/>
</g>
<!-- resetting -->
<g id="node2" class="node state regular">
<title>resetting</title>
<polygon fill="#ffffff" fill-opacity="0.003922" stroke="transparent" stroke-width="2" points="175.5,-63 106.5,-63 106.5,-27 175.5,-27 175.5,-63"/>
<text text-anchor="start" x="118" y="-41.4" font-family="Helvetica,sans-Serif" font-size="12.00">resetting</text>
<path fill="none" stroke="black" stroke-width="2" d="M118.5,-28.5C118.5,-28.5 163.5,-28.5 163.5,-28.5 169,-28.5 174.5,-34 174.5,-39.5 174.5,-39.5 174.5,-50.5 174.5,-50.5 174.5,-56 169,-61.5 163.5,-61.5 163.5,-61.5 118.5,-61.5 118.5,-61.5 113,-61.5 107.5,-56 107.5,-50.5 107.5,-50.5 107.5,-39.5 107.5,-39.5 107.5,-34 113,-28.5 118.5,-28.5"/>
</g>
<!-- resetting&#45;&gt;discovering -->
<g id="edge3" class="edge transition">
<title>resetting&#45;&gt;discovering</title>
<path fill="none" stroke="black" d="M175.73,-46.94C256.79,-51.61 462.96,-63.48 559.57,-69.04"/>
<polygon fill="black" stroke="black" points="559.5,-72.54 569.69,-69.62 559.91,-65.55 559.5,-72.54"/>
<text text-anchor="start" x="224.5" y="-68" font-family="Helvetica,sans-Serif" font-size="10.00">Register Host &#45; Register non&#45;rebooting host in resetting &#160;&#160;</text>
</g>
<!-- resetting&#45;&gt;resetting -->
<g id="edge1" class="edge transition">
<title>resetting&#45;&gt;resetting</title>
<path fill="none" stroke="black" d="M122.19,-63.15C119.29,-72.54 125.56,-81 141,-81 150.41,-81 156.41,-77.86 159.01,-73.28"/>
<polygon fill="black" stroke="black" points="162.51,-73.4 159.81,-63.15 155.53,-72.84 162.51,-73.4"/>
<text text-anchor="start" x="11" y="-84" font-family="Helvetica,sans-Serif" font-size="10.00">Refresh &#45; Refresh during resetting should stay in resetting &#160;&#160;</text>
</g>
<!-- resetting&#45;&gt;resetting -->
<g id="edge2" class="edge transition">
<title>resetting&#45;&gt;resetting</title>
<path fill="none" stroke="black" d="M109.46,-63.26C93.11,-80.4 103.62,-99 141,-99 172.24,-99 184.71,-86 178.41,-71.72"/>
<polygon fill="black" stroke="black" points="181.11,-69.48 172.54,-63.26 175.36,-73.47 181.11,-69.48"/>
<text text-anchor="start" x="0" y="-102" font-family="Helvetica,sans-Serif" font-size="10.00">Register Host &#45; Ignore register while rebooting host in resetting &#160;&#160;</text>
</g>
<!-- resetting&#45;pending&#45;user&#45;action -->
<g id="node3" class="node state regular">
<title>resetting&#45;pending&#45;user&#45;action</title>
<polygon fill="#ffffff" fill-opacity="0.003922" stroke="transparent" stroke-width="2" points="701.5,-36 522.5,-36 522.5,0 701.5,0 701.5,-36"/>
<text text-anchor="start" x="534" y="-14.4" font-family="Helvetica,sans-Serif" font-size="12.00">resetting&#45;pending&#45;user&#45;action</text>
<path fill="none" stroke="black" stroke-width="2" d="M534.5,-1.5C534.5,-1.5 689.5,-1.5 689.5,-1.5 695,-1.5 700.5,-7 700.5,-12.5 700.5,-12.5 700.5,-23.5 700.5,-23.5 700.5,-29 695,-34.5 689.5,-34.5 689.5,-34.5 534.5,-34.5 534.5,-34.5 529,-34.5 523.5,-29 523.5,-23.5 523.5,-23.5 523.5,-12.5 523.5,-12.5 523.5,-7 529,-1.5 534.5,-1.5"/>
</g>
<!-- resetting&#45;&gt;resetting&#45;pending&#45;user&#45;action -->
<g id="edge4" class="edge transition">
<title>resetting&#45;&gt;resetting&#45;pending&#45;user&#45;action</title>
<path fill="none" stroke="black" d="M175.63,-36.18C181.55,-34.91 187.68,-33.78 193.5,-33 301.79,-18.58 427.19,-15.93 512.07,-16.2"/>
<polygon fill="black" stroke="black" points="512.2,-19.7 522.21,-16.25 512.23,-12.7 512.2,-19.7"/>
<text text-anchor="start" x="193.5" y="-36" font-family="Helvetica,sans-Serif" font-size="10.00">Resetting, Pending User Action &#45; Reset pending user action all states &#160;&#160;</text>
</g>
</g>
</svg>
