<?xml version="1.0" encoding="UTF-8" standalone="no"?>
<!DOCTYPE svg PUBLIC "-//W3C//DTD SVG 1.1//EN"
 "http://www.w3.org/Graphics/SVG/1.1/DTD/svg11.dtd">
<!-- Generated by graphviz version 5.0.0 (0)
 -->
<!-- Title: state transitions Pages: 1 -->
<svg width="611pt" height="294pt"
 viewBox="0.00 0.00 611.00 294.42" xmlns="http://www.w3.org/2000/svg" xmlns:xlink="http://www.w3.org/1999/xlink">
<g id="graph0" class="graph" transform="scale(1 1) rotate(0) translate(4 290.42)">
<title>state transitions</title>
<polygon fill="white" stroke="transparent" points="-4,4 -4,-290.42 607,-290.42 607,4 -4,4"/>
<!-- disconnected -->
<g id="node1" class="node state regular">
<title>disconnected</title>
<polygon fill="#ffffff" fill-opacity="0.003922" stroke="transparent" stroke-width="2" points="247,-165.42 153,-165.42 153,-129.42 247,-129.42 247,-165.42"/>
<text text-anchor="start" x="164" y="-143.82" font-family="Helvetica,sans-Serif" font-size="12.00">disconnected</text>
<path fill="none" stroke="black" stroke-width="2" d="M165,-130.92C165,-130.92 235,-130.92 235,-130.92 240.5,-130.92 246,-136.42 246,-141.92 246,-141.92 246,-152.92 246,-152.92 246,-158.42 240.5,-163.92 235,-163.92 235,-163.92 165,-163.92 165,-163.92 159.5,-163.92 154,-158.42 154,-152.92 154,-152.92 154,-141.92 154,-141.92 154,-136.42 159.5,-130.92 165,-130.92"/>
</g>
<!-- disconnected&#45;&gt;disconnected -->
<g id="edge1" class="edge transition">
<title>disconnected&#45;&gt;disconnected</title>
<path fill="none" stroke="black" d="M184.8,-165.57C182.47,-174.95 187.53,-183.42 200,-183.42 207.6,-183.42 212.45,-180.27 214.55,-175.7"/>
<polygon fill="black" stroke="black" points="218.05,-175.77 215.2,-165.57 211.06,-175.32 218.05,-175.77"/>
<text text-anchor="start" x="0" y="-186.42" font-family="Helvetica,sans-Serif" font-size="10.00">Media Disconnect &#45; Move to disconnected when virtual media disconnects pre&#45;installation &#160;&#160;</text>
</g>
<!-- disconnected&#45;&gt;disconnected -->
<g id="edge3" class="edge transition">
<title>disconnected&#45;&gt;disconnected</title>
<path fill="none" stroke="black" d="M174.53,-165.67C161.32,-182.82 169.81,-201.42 200,-201.42 225,-201.42 235.12,-188.66 230.36,-174.54"/>
<polygon fill="black" stroke="black" points="233.36,-172.74 225.47,-165.67 227.23,-176.12 233.36,-172.74"/>
<text text-anchor="start" x="56.5" y="-204.42" font-family="Helvetica,sans-Serif" font-size="10.00">Refresh &#45; Move host to disconnected when connected times out &#160;&#160;</text>
</g>
<!-- discovering -->
<g id="node2" class="node state regular">
<title>discovering</title>
<polygon fill="#ffffff" fill-opacity="0.003922" stroke="transparent" stroke-width="2" points="588.5,-276.42 504.5,-276.42 504.5,-240.42 588.5,-240.42 588.5,-276.42"/>
<text text-anchor="start" x="515.5" y="-254.82" font-family="Helvetica,sans-Serif" font-size="12.00">discovering</text>
<path fill="none" stroke="black" stroke-width="2" d="M516.5,-241.92C516.5,-241.92 576.5,-241.92 576.5,-241.92 582,-241.92 587.5,-247.42 587.5,-252.92 587.5,-252.92 587.5,-263.92 587.5,-263.92 587.5,-269.42 582,-274.92 576.5,-274.92 576.5,-274.92 516.5,-274.92 516.5,-274.92 511,-274.92 505.5,-269.42 505.5,-263.92 505.5,-263.92 505.5,-252.92 505.5,-252.92 505.5,-247.42 511,-241.92 516.5,-241.92"/>
</g>
<!-- disconnected&#45;&gt;discovering -->
<g id="edge4" class="edge transition">
<title>disconnected&#45;&gt;discovering</title>
<path fill="none" stroke="black" d="M207.11,-165.54C215.9,-188.45 234.51,-227.01 265,-244.42 336.25,-285.09 435.02,-278.34 494.35,-268.94"/>
<polygon fill="black" stroke="black" points="494.95,-272.39 504.24,-267.29 493.8,-265.49 494.95,-272.39"/>
<text text-anchor="start" x="265" y="-278.42" font-family="Helvetica,sans-Serif" font-size="10.00">Refresh &#45; Host reconnected without inventory &#160;&#160;</text>
</g>
<!-- disconnected&#45;&gt;discovering -->
<g id="edge9" class="edge transition">
<title>disconnected&#45;&gt;discovering</title>
<path fill="none" stroke="black" d="M213.71,-165.46C225.25,-180.28 243.69,-200.4 265,-210.42 348.69,-249.75 381.89,-210.64 472,-231.42 479.54,-233.15 487.37,-235.46 494.98,-237.98"/>
<polygon fill="black" stroke="black" points="493.87,-241.3 504.46,-241.28 496.16,-234.69 493.87,-241.3"/>
<text text-anchor="start" x="297.5" y="-234.42" font-family="Helvetica,sans-Serif" font-size="10.00">Register Host &#45; Re&#45;registration &#160;&#160;</text>
</g>
<!-- insufficient -->
<g id="node3" class="node state regular">
<title>insufficient</title>
<polygon fill="#ffffff" fill-opacity="0.003922" stroke="transparent" stroke-width="2" points="586.5,-215.42 506.5,-215.42 506.5,-179.42 586.5,-179.42 586.5,-215.42"/>
<text text-anchor="start" x="517.5" y="-193.82" font-family="Helvetica,sans-Serif" font-size="12.00">insufficient</text>
<path fill="none" stroke="black" stroke-width="2" d="M518.5,-180.92C518.5,-180.92 574.5,-180.92 574.5,-180.92 580,-180.92 585.5,-186.42 585.5,-191.92 585.5,-191.92 585.5,-202.92 585.5,-202.92 585.5,-208.42 580,-213.92 574.5,-213.92 574.5,-213.92 518.5,-213.92 518.5,-213.92 513,-213.92 507.5,-208.42 507.5,-202.92 507.5,-202.92 507.5,-191.92 507.5,-191.92 507.5,-186.42 513,-180.92 518.5,-180.92"/>
</g>
<!-- disconnected&#45;&gt;insufficient -->
<g id="edge5" class="edge transition">
<title>disconnected&#45;&gt;insufficient</title>
<path fill="none" stroke="black" d="M235.07,-165.51C244.52,-169.79 254.95,-173.85 265,-176.42 344.06,-196.61 439.42,-199.39 496.12,-198.88"/>
<polygon fill="black" stroke="black" points="496.29,-202.38 506.24,-198.75 496.2,-195.38 496.29,-202.38"/>
<text text-anchor="start" x="276.5" y="-201.42" font-family="Helvetica,sans-Serif" font-size="10.00">Refresh &#45; Host has insufficient hardware &#160;&#160;</text>
</g>
<!-- disconnected&#45;&gt;insufficient -->
<g id="edge7" class="edge transition">
<title>disconnected&#45;&gt;insufficient</title>
<path fill="none" stroke="black" d="M247.34,-144.96C301.94,-143.26 394.98,-144.07 472,-163.42 478.08,-164.94 488.84,-169.53 500.28,-174.86"/>
<polygon fill="black" stroke="black" points="499,-178.13 509.53,-179.25 502,-171.8 499,-178.13"/>
<text text-anchor="start" x="310" y="-166.42" font-family="Helvetica,sans-Serif" font-size="10.00">Refresh &#45; Host not ready &#160;&#160;</text>
</g>
<!-- known -->
<g id="node4" class="node state regular">
<title>known</title>
<polygon fill="#ffffff" fill-opacity="0.003922" stroke="transparent" stroke-width="2" points="575.5,-160.42 517.5,-160.42 517.5,-124.42 575.5,-124.42 575.5,-160.42"/>
<text text-anchor="start" x="528.5" y="-138.82" font-family="Helvetica,sans-Serif" font-size="12.00">known</text>
<path fill="none" stroke="black" stroke-width="2" d="M529.5,-125.92C529.5,-125.92 563.5,-125.92 563.5,-125.92 569,-125.92 574.5,-131.42 574.5,-136.92 574.5,-136.92 574.5,-147.92 574.5,-147.92 574.5,-153.42 569,-158.92 563.5,-158.92 563.5,-158.92 529.5,-158.92 529.5,-158.92 524,-158.92 518.5,-153.42 518.5,-147.92 518.5,-147.92 518.5,-136.92 518.5,-136.92 518.5,-131.42 524,-125.92 529.5,-125.92"/>
</g>
<!-- disconnected&#45;&gt;known -->
<g id="edge8" class="edge transition">
<title>disconnected&#45;&gt;known</title>
<path fill="none" stroke="black" d="M247.24,-134.44C253.18,-133.19 259.2,-132.13 265,-131.42 356.31,-120.17 380.25,-124.59 472,-131.42 483.53,-132.27 495.99,-133.88 507.31,-135.6"/>
<polygon fill="black" stroke="black" points="506.91,-139.08 517.34,-137.2 508.01,-132.17 506.91,-139.08"/>
<text text-anchor="start" x="318.5" y="-134.42" font-family="Helvetica,sans-Serif" font-size="10.00">Refresh &#45; Host ready &#160;&#160;</text>
</g>
<!-- pending&#45;for&#45;input -->
<g id="node5" class="node state regular">
<title>pending&#45;for&#45;input</title>
<polygon fill="#ffffff" fill-opacity="0.003922" stroke="transparent" stroke-width="2" points="603,-106.42 490,-106.42 490,-70.42 603,-70.42 603,-106.42"/>
<text text-anchor="start" x="501.5" y="-84.82" font-family="Helvetica,sans-Serif" font-size="12.00">pending&#45;for&#45;input</text>
<path fill="none" stroke="black" stroke-width="2" d="M502,-71.92C502,-71.92 591,-71.92 591,-71.92 596.5,-71.92 602,-77.42 602,-82.92 602,-82.92 602,-93.92 602,-93.92 602,-99.42 596.5,-104.92 591,-104.92 591,-104.92 502,-104.92 502,-104.92 496.5,-104.92 491,-99.42 491,-93.92 491,-93.92 491,-82.92 491,-82.92 491,-77.42 496.5,-71.92 502,-71.92"/>
</g>
<!-- disconnected&#45;&gt;pending&#45;for&#45;input -->
<g id="edge6" class="edge transition">
<title>disconnected&#45;&gt;pending&#45;for&#45;input</title>
<path fill="none" stroke="black" d="M225.26,-129.4C236.72,-121.86 250.95,-113.84 265,-109.42 335.96,-87.05 421.81,-83.87 479.69,-84.96"/>
<polygon fill="black" stroke="black" points="479.72,-88.46 489.8,-85.2 479.89,-81.46 479.72,-88.46"/>
<text text-anchor="start" x="301.5" y="-112.42" font-family="Helvetica,sans-Serif" font-size="10.00">Refresh &#45; Host pending input &#160;&#160;</text>
</g>
<!-- unbinding -->
<g id="node6" class="node state regular">
<title>unbinding</title>
<polygon fill="#ffffff" fill-opacity="0.003922" stroke="transparent" stroke-width="2" points="584.5,-50.42 508.5,-50.42 508.5,-14.42 584.5,-14.42 584.5,-50.42"/>
<text text-anchor="start" x="519.5" y="-28.82" font-family="Helvetica,sans-Serif" font-size="12.00">unbinding</text>
<path fill="none" stroke="black" stroke-width="2" d="M520.5,-15.92C520.5,-15.92 572.5,-15.92 572.5,-15.92 578,-15.92 583.5,-21.42 583.5,-26.92 583.5,-26.92 583.5,-37.92 583.5,-37.92 583.5,-43.42 578,-48.92 572.5,-48.92 572.5,-48.92 520.5,-48.92 520.5,-48.92 515,-48.92 509.5,-43.42 509.5,-37.92 509.5,-37.92 509.5,-26.92 509.5,-26.92 509.5,-21.42 515,-15.92 520.5,-15.92"/>
</g>
<!-- disconnected&#45;&gt;unbinding -->
<g id="edge2" class="edge transition">
<title>disconnected&#45;&gt;unbinding</title>
<path fill="none" stroke="black" d="M210.52,-129.17C221.16,-110.78 240.2,-83.2 265,-69.42 275.07,-63.82 420.98,-46.56 498.26,-37.73"/>
<polygon fill="black" stroke="black" points="498.69,-41.21 508.23,-36.6 497.9,-34.25 498.69,-41.21"/>
<text text-anchor="start" x="278.5" y="-72.42" font-family="Helvetica,sans-Serif" font-size="10.00">Reclaim Host &#45; Reclaim pre&#45;installation &#160;&#160;</text>
</g>
<!-- disconnected&#45;&gt;unbinding -->
<g id="edge10" class="edge transition">
<title>disconnected&#45;&gt;unbinding</title>
<path fill="none" stroke="black" d="M204.61,-129.13C211.17,-101.41 227.95,-49.65 265,-27.42 337.05,15.82 439.38,-1.49 498.46,-17.38"/>
<polygon fill="black" stroke="black" points="497.69,-20.79 508.26,-20.11 499.57,-14.05 497.69,-20.79"/>
<text text-anchor="start" x="283" y="-30.42" font-family="Helvetica,sans-Serif" font-size="10.00">Unbind Host &#45; Unbind pre&#45;installation &#160;&#160;</text>
</g>
</g>
</svg>
