<?xml version="1.0" encoding="UTF-8" standalone="no"?>
<!DOCTYPE svg PUBLIC "-//W3C//DTD SVG 1.1//EN"
 "http://www.w3.org/Graphics/SVG/1.1/DTD/svg11.dtd">
<!-- Generated by graphviz version 12.1.0 (20240811.2233)
 -->
<!-- Title: state transitions Pages: 1 -->
<svg width="824pt" height="357pt"
 viewBox="0.00 0.00 824.38 356.70" xmlns="http://www.w3.org/2000/svg" xmlns:xlink="http://www.w3.org/1999/xlink">
<g id="graph0" class="graph" transform="scale(1 1) rotate(0) translate(4 352.7)">
<title>state transitions</title>
<polygon fill="white" stroke="none" points="-4,4 -4,-352.7 820.38,-352.7 820.38,4 -4,4"/>
<!-- disconnected -->
<g id="node1" class="node state regular">
<title>disconnected</title>
<polygon fill="#ffffff" fill-opacity="0.003922" stroke="none" stroke-width="2" points="768,-324.21 666.5,-324.21 666.5,-287.96 768,-287.96 768,-324.21"/>
<text text-anchor="start" x="677.5" y="-301.81" font-family="Helvetica,sans-Serif" font-size="12.00">disconnected</text>
<path fill="none" stroke="black" stroke-width="2" d="M678.92,-288.96C678.92,-288.96 755.58,-288.96 755.58,-288.96 761.29,-288.96 767,-294.67 767,-300.37 767,-300.37 767,-311.79 767,-311.79 767,-317.5 761.29,-323.21 755.58,-323.21 755.58,-323.21 678.92,-323.21 678.92,-323.21 673.21,-323.21 667.5,-317.5 667.5,-311.79 667.5,-311.79 667.5,-300.37 667.5,-300.37 667.5,-294.67 673.21,-288.96 678.92,-288.96"/>
</g>
<!-- discovering -->
<g id="node2" class="node state regular">
<title>discovering</title>
<polygon fill="#ffffff" fill-opacity="0.003922" stroke="none" stroke-width="2" points="762.38,-270.21 672.12,-270.21 672.12,-233.96 762.38,-233.96 762.38,-270.21"/>
<text text-anchor="start" x="683.12" y="-247.81" font-family="Helvetica,sans-Serif" font-size="12.00">discovering</text>
<path fill="none" stroke="black" stroke-width="2" d="M684.54,-234.96C684.54,-234.96 749.96,-234.96 749.96,-234.96 755.67,-234.96 761.38,-240.67 761.38,-246.37 761.38,-246.37 761.38,-257.79 761.38,-257.79 761.38,-263.5 755.67,-269.21 749.96,-269.21 749.96,-269.21 684.54,-269.21 684.54,-269.21 678.83,-269.21 673.12,-263.5 673.12,-257.79 673.12,-257.79 673.12,-246.37 673.12,-246.37 673.12,-240.67 678.83,-234.96 684.54,-234.96"/>
</g>
<!-- error -->
<g id="node3" class="node state regular">
<title>error</title>
<polygon fill="#ffffff" fill-opacity="0.003922" stroke="none" stroke-width="2" points="745.25,-216.21 689.25,-216.21 689.25,-179.96 745.25,-179.96 745.25,-216.21"/>
<text text-anchor="start" x="702.62" y="-193.81" font-family="Helvetica,sans-Serif" font-size="12.00">error</text>
<path fill="none" stroke="black" stroke-width="2" d="M701.67,-180.96C701.67,-180.96 732.83,-180.96 732.83,-180.96 738.54,-180.96 744.25,-186.67 744.25,-192.37 744.25,-192.37 744.25,-203.79 744.25,-203.79 744.25,-209.5 738.54,-215.21 732.83,-215.21 732.83,-215.21 701.67,-215.21 701.67,-215.21 695.96,-215.21 690.25,-209.5 690.25,-203.79 690.25,-203.79 690.25,-192.37 690.25,-192.37 690.25,-186.67 695.96,-180.96 701.67,-180.96"/>
</g>
<!-- installing -->
<g id="node4" class="node state regular">
<title>installing</title>
<polygon fill="#ffffff" fill-opacity="0.003922" stroke="none" stroke-width="2" points="754.5,-162.21 680,-162.21 680,-125.96 754.5,-125.96 754.5,-162.21"/>
<text text-anchor="start" x="691" y="-139.81" font-family="Helvetica,sans-Serif" font-size="12.00">installing</text>
<path fill="none" stroke="black" stroke-width="2" d="M692.42,-126.96C692.42,-126.96 742.08,-126.96 742.08,-126.96 747.79,-126.96 753.5,-132.67 753.5,-138.37 753.5,-138.37 753.5,-149.79 753.5,-149.79 753.5,-155.5 747.79,-161.21 742.08,-161.21 742.08,-161.21 692.42,-161.21 692.42,-161.21 686.71,-161.21 681,-155.5 681,-149.79 681,-149.79 681,-138.37 681,-138.37 681,-132.67 686.71,-126.96 692.42,-126.96"/>
</g>
<!-- known -->
<g id="node5" class="node state regular">
<title>known</title>
<polygon fill="#ffffff" fill-opacity="0.003922" stroke="none" stroke-width="2" points="747.75,-108.21 686.75,-108.21 686.75,-71.96 747.75,-71.96 747.75,-108.21"/>
<text text-anchor="start" x="697.75" y="-85.81" font-family="Helvetica,sans-Serif" font-size="12.00">known</text>
<path fill="none" stroke="black" stroke-width="2" d="M699.17,-72.96C699.17,-72.96 735.33,-72.96 735.33,-72.96 741.04,-72.96 746.75,-78.67 746.75,-84.37 746.75,-84.37 746.75,-95.79 746.75,-95.79 746.75,-101.5 741.04,-107.21 735.33,-107.21 735.33,-107.21 699.17,-107.21 699.17,-107.21 693.46,-107.21 687.75,-101.5 687.75,-95.79 687.75,-95.79 687.75,-84.37 687.75,-84.37 687.75,-78.67 693.46,-72.96 699.17,-72.96"/>
</g>
<!-- preparing&#45;successful -->
<g id="node6" class="node state regular">
<title>preparing&#45;successful</title>
<polygon fill="#ffffff" fill-opacity="0.003922" stroke="none" stroke-width="2" points="169.62,-171.21 23.88,-171.21 23.88,-134.96 169.62,-134.96 169.62,-171.21"/>
<text text-anchor="start" x="34.88" y="-148.81" font-family="Helvetica,sans-Serif" font-size="12.00">preparing&#45;successful</text>
<path fill="none" stroke="black" stroke-width="2" d="M36.29,-135.96C36.29,-135.96 157.21,-135.96 157.21,-135.96 162.92,-135.96 168.62,-141.67 168.62,-147.37 168.62,-147.37 168.62,-158.79 168.62,-158.79 168.62,-164.5 162.92,-170.21 157.21,-170.21 157.21,-170.21 36.29,-170.21 36.29,-170.21 30.58,-170.21 24.88,-164.5 24.88,-158.79 24.88,-158.79 24.88,-147.37 24.88,-147.37 24.88,-141.67 30.58,-135.96 36.29,-135.96"/>
</g>
<!-- preparing&#45;successful&#45;&gt;disconnected -->
<g id="edge6" class="edge transition">
<title>preparing&#45;successful&#45;&gt;disconnected</title>
<path fill="none" stroke="black" d="M104.69,-170.97C116.74,-199.26 144.44,-253.53 187.62,-277.08 338.91,-359.57 552.11,-336.8 655.41,-318.69"/>
<polygon fill="black" stroke="black" points="655.85,-322.17 665.07,-316.95 654.61,-315.28 655.85,-322.17"/>
<text text-anchor="start" x="207.88" y="-339.2" font-family="Helvetica,sans-Serif" font-size="10.00">Refresh &#45; Move preparing host to disconnected when connection times out &#160;&#160;</text>
</g>
<!-- preparing&#45;successful&#45;&gt;discovering -->
<g id="edge7" class="edge transition">
<title>preparing&#45;successful&#45;&gt;discovering</title>
<path fill="none" stroke="black" d="M118.28,-170.97C135.52,-184.85 161.48,-203.18 187.62,-212.08 352.56,-268.25 562.62,-263.22 660.89,-256.79"/>
<polygon fill="black" stroke="black" points="661.06,-260.28 670.8,-256.11 660.58,-253.3 661.06,-260.28"/>
<text text-anchor="start" x="315.12" y="-263.83" font-family="Helvetica,sans-Serif" font-size="10.00">Register Host &#45; Re&#45;registration &#160;&#160;</text>
</g>
<!-- preparing&#45;successful&#45;&gt;error -->
<g id="edge2" class="edge transition">
<title>preparing&#45;successful&#45;&gt;error</title>
<path fill="none" stroke="black" d="M169.28,-165.74C175.47,-166.62 181.65,-167.42 187.62,-168.08 370.64,-188.49 590.93,-195.33 678.09,-197.34"/>
<polygon fill="black" stroke="black" points="677.9,-200.83 687.97,-197.56 678.05,-193.84 677.9,-200.83"/>
<text text-anchor="start" x="187.62" y="-198.28" font-family="Helvetica,sans-Serif" font-size="10.00">Media Disconnect &#45; Move to error when virtual media disconnects post&#45;installation &#160;&#160;</text>
</g>
<!-- preparing&#45;successful&#45;&gt;installing -->
<g id="edge4" class="edge transition">
<title>preparing&#45;successful&#45;&gt;installing</title>
<path fill="none" stroke="black" d="M169.61,-152.04C297.4,-150.18 560.86,-146.34 668.67,-144.77"/>
<polygon fill="black" stroke="black" points="668.67,-148.28 678.61,-144.63 668.56,-141.28 668.67,-148.28"/>
<text text-anchor="start" x="255.12" y="-154.82" font-family="Helvetica,sans-Serif" font-size="10.00">Refresh &#45; Move successfully prepared host to installing &#160;&#160;</text>
</g>
<!-- preparing&#45;successful&#45;&gt;known -->
<g id="edge1" class="edge transition">
<title>preparing&#45;successful&#45;&gt;known</title>
<path fill="none" stroke="black" d="M160.28,-134.98C169.4,-132.81 178.71,-130.83 187.62,-129.33 281.45,-113.59 568.52,-97.67 675.5,-92.13"/>
<polygon fill="black" stroke="black" points="675.43,-95.64 685.24,-91.63 675.07,-88.65 675.43,-95.64"/>
<text text-anchor="start" x="283.25" y="-132.58" font-family="Helvetica,sans-Serif" font-size="10.00">Cancel Installation &#45; Cancel while preparing &#160;&#160;</text>
</g>
<!-- preparing&#45;successful&#45;&gt;known -->
<g id="edge5" class="edge transition">
<title>preparing&#45;successful&#45;&gt;known</title>
<path fill="none" stroke="black" d="M112.8,-135.25C129.12,-117.43 156.97,-91.18 187.62,-80.33 277.28,-48.59 568.19,-74.63 675.77,-85.7"/>
<polygon fill="black" stroke="black" points="675.26,-89.17 685.57,-86.72 675.98,-82.2 675.26,-89.17"/>
<text text-anchor="start" x="203.75" y="-83.58" font-family="Helvetica,sans-Serif" font-size="10.00">Refresh &#45; Successful preparing to known when cluster is no longer preparing &#160;&#160;</text>
</g>
<!-- preparing&#45;successful&#45;&gt;preparing&#45;successful -->
<g id="edge3" class="edge transition">
<title>preparing&#45;successful&#45;&gt;preparing&#45;successful</title>
<path fill="none" stroke="black" d="M43.34,-170.93C34.26,-180.49 52.07,-189.21 96.75,-189.21 122.58,-189.21 139.43,-186.29 147.3,-181.99"/>
<polygon fill="black" stroke="black" points="150.66,-182.95 149.78,-172.39 143.89,-181.19 150.66,-182.95"/>
<text text-anchor="start" x="0" y="-192.46" font-family="Helvetica,sans-Serif" font-size="10.00">Refresh &#45; Stay in preparing successful &#160;&#160;</text>
</g>
<!-- resetting&#45;pending&#45;user&#45;action -->
<g id="node7" class="node state regular">
<title>resetting&#45;pending&#45;user&#45;action</title>
<polygon fill="#ffffff" fill-opacity="0.003922" stroke="none" stroke-width="2" points="816.38,-54.21 618.12,-54.21 618.12,-17.96 816.38,-17.96 816.38,-54.21"/>
<text text-anchor="start" x="629.12" y="-31.81" font-family="Helvetica,sans-Serif" font-size="12.00">resetting&#45;pending&#45;user&#45;action</text>
<path fill="none" stroke="black" stroke-width="2" d="M630.54,-18.96C630.54,-18.96 803.96,-18.96 803.96,-18.96 809.67,-18.96 815.38,-24.67 815.38,-30.37 815.38,-30.37 815.38,-41.79 815.38,-41.79 815.38,-47.5 809.67,-53.21 803.96,-53.21 803.96,-53.21 630.54,-53.21 630.54,-53.21 624.83,-53.21 619.12,-47.5 619.12,-41.79 619.12,-41.79 619.12,-30.37 619.12,-30.37 619.12,-24.67 624.83,-18.96 630.54,-18.96"/>
</g>
<!-- preparing&#45;successful&#45;&gt;resetting&#45;pending&#45;user&#45;action -->
<g id="edge8" class="edge transition">
<title>preparing&#45;successful&#45;&gt;resetting&#45;pending&#45;user&#45;action</title>
<path fill="none" stroke="black" d="M106.73,-135.34C120.37,-110.59 148.86,-66.7 187.62,-48.33 327.18,17.78 511.59,2.3 621.65,-16.1"/>
<polygon fill="black" stroke="black" points="620.78,-19.5 631.22,-17.74 621.96,-12.6 620.78,-19.5"/>
<text text-anchor="start" x="221.75" y="-51.58" font-family="Helvetica,sans-Serif" font-size="10.00">Resetting, Pending User Action &#45; Reset pending user action all states &#160;&#160;</text>
</g>
</g>
</svg>
