<?xml version="1.0" encoding="UTF-8" standalone="no"?>
<!DOCTYPE svg PUBLIC "-//W3C//DTD SVG 1.1//EN"
 "http://www.w3.org/Graphics/SVG/1.1/DTD/svg11.dtd">
<!-- Generated by graphviz version 5.0.0 (0)
 -->
<!-- Title: state transitions Pages: 1 -->
<svg width="738pt" height="129pt"
 viewBox="0.00 0.00 737.50 129.00" xmlns="http://www.w3.org/2000/svg" xmlns:xlink="http://www.w3.org/1999/xlink">
<g id="graph0" class="graph" transform="scale(1 1) rotate(0) translate(4 125)">
<title>state transitions</title>
<polygon fill="white" stroke="transparent" points="-4,4 -4,-125 733.5,-125 733.5,4 -4,4"/>
<!-- discovering -->
<g id="node1" class="node state regular">
<title>discovering</title>
<polygon fill="#ffffff" fill-opacity="0.003922" stroke="transparent" stroke-width="2" points="729.5,-90 645.5,-90 645.5,-54 729.5,-54 729.5,-90"/>
<text text-anchor="start" x="656.5" y="-68.4" font-family="Helvetica,sans-Serif" font-size="12.00">discovering</text>
<path fill="none" stroke="black" stroke-width="2" d="M657.5,-55.5C657.5,-55.5 717.5,-55.5 717.5,-55.5 723,-55.5 728.5,-61 728.5,-66.5 728.5,-66.5 728.5,-77.5 728.5,-77.5 728.5,-83 723,-88.5 717.5,-88.5 717.5,-88.5 657.5,-88.5 657.5,-88.5 652,-88.5 646.5,-83 646.5,-77.5 646.5,-77.5 646.5,-66.5 646.5,-66.5 646.5,-61 652,-55.5 657.5,-55.5"/>
</g>
<!-- error -->
<g id="node2" class="node state regular">
<title>error</title>
<polygon fill="#ffffff" fill-opacity="0.003922" stroke="transparent" stroke-width="2" points="715.5,-36 659.5,-36 659.5,0 715.5,0 715.5,-36"/>
<text text-anchor="start" x="675" y="-14.4" font-family="Helvetica,sans-Serif" font-size="12.00">error</text>
<path fill="none" stroke="black" stroke-width="2" d="M671.5,-1.5C671.5,-1.5 703.5,-1.5 703.5,-1.5 709,-1.5 714.5,-7 714.5,-12.5 714.5,-12.5 714.5,-23.5 714.5,-23.5 714.5,-29 709,-34.5 703.5,-34.5 703.5,-34.5 671.5,-34.5 671.5,-34.5 666,-34.5 660.5,-29 660.5,-23.5 660.5,-23.5 660.5,-12.5 660.5,-12.5 660.5,-7 666,-1.5 671.5,-1.5"/>
</g>
<!-- resetting&#45;pending&#45;user&#45;action -->
<g id="node3" class="node state regular">
<title>resetting&#45;pending&#45;user&#45;action</title>
<polygon fill="#ffffff" fill-opacity="0.003922" stroke="transparent" stroke-width="2" points="376.5,-63 197.5,-63 197.5,-27 376.5,-27 376.5,-63"/>
<text text-anchor="start" x="209" y="-41.4" font-family="Helvetica,sans-Serif" font-size="12.00">resetting&#45;pending&#45;user&#45;action</text>
<path fill="none" stroke="black" stroke-width="2" d="M209.5,-28.5C209.5,-28.5 364.5,-28.5 364.5,-28.5 370,-28.5 375.5,-34 375.5,-39.5 375.5,-39.5 375.5,-50.5 375.5,-50.5 375.5,-56 370,-61.5 364.5,-61.5 364.5,-61.5 209.5,-61.5 209.5,-61.5 204,-61.5 198.5,-56 198.5,-50.5 198.5,-50.5 198.5,-39.5 198.5,-39.5 198.5,-34 204,-28.5 209.5,-28.5"/>
</g>
<!-- resetting&#45;pending&#45;user&#45;action&#45;&gt;discovering -->
<g id="edge3" class="edge transition">
<title>resetting&#45;pending&#45;user&#45;action&#45;&gt;discovering</title>
<path fill="none" stroke="black" d="M376.94,-51.03C456.41,-56.41 570.08,-64.11 635.27,-68.53"/>
<polygon fill="black" stroke="black" points="635.09,-72.02 645.3,-69.21 635.56,-65.04 635.09,-72.02"/>
<text text-anchor="start" x="440" y="-70" font-family="Helvetica,sans-Serif" font-size="10.00">Register Host &#45; Re&#45;registration &#160;&#160;</text>
</g>
<!-- resetting&#45;pending&#45;user&#45;action&#45;&gt;error -->
<g id="edge1" class="edge transition">
<title>resetting&#45;pending&#45;user&#45;action&#45;&gt;error</title>
<path fill="none" stroke="black" d="M376.94,-38.97C462.37,-33.19 587.32,-24.72 649.09,-20.53"/>
<polygon fill="black" stroke="black" points="649.41,-24.02 659.15,-19.85 648.94,-17.04 649.41,-24.02"/>
<text text-anchor="start" x="394.5" y="-40" font-family="Helvetica,sans-Serif" font-size="10.00">Refresh &#45; Move host to error when cluster is in error &#160;&#160;</text>
</g>
<!-- resetting&#45;pending&#45;user&#45;action&#45;&gt;resetting&#45;pending&#45;user&#45;action -->
<g id="edge2" class="edge transition">
<title>resetting&#45;pending&#45;user&#45;action&#45;&gt;resetting&#45;pending&#45;user&#45;action</title>
<path fill="none" stroke="black" d="M266.74,-63.15C263.62,-72.54 270.38,-81 287,-81 297.13,-81 303.6,-77.86 306.4,-73.28"/>
<polygon fill="black" stroke="black" points="309.9,-73.41 307.26,-63.15 302.92,-72.82 309.9,-73.41"/>
<text text-anchor="start" x="0" y="-84" font-family="Helvetica,sans-Serif" font-size="10.00">Refresh &#45; Refresh during resetting&#45;pending&#45;user&#45;action state without cluster error should stay in resetting&#45;pending&#45;user&#45;action state &#160;&#160;</text>
</g>
<!-- resetting&#45;pending&#45;user&#45;action&#45;&gt;resetting&#45;pending&#45;user&#45;action -->
<g id="edge4" class="edge transition">
<title>resetting&#45;pending&#45;user&#45;action&#45;&gt;resetting&#45;pending&#45;user&#45;action</title>
<path fill="none" stroke="black" d="M253.04,-63.26C235.43,-80.4 246.75,-99 287,-99 320.96,-99 334.33,-85.76 327.1,-71.32"/>
<polygon fill="black" stroke="black" points="329.8,-69.1 320.96,-63.26 324.23,-73.34 329.8,-69.1"/>
<text text-anchor="start" x="131.5" y="-102" font-family="Helvetica,sans-Serif" font-size="10.00">Resetting, Pending User Action &#45; Reset pending user action all states &#160;&#160;</text>
</g>
</g>
</svg>
