<?xml version="1.0" encoding="UTF-8" standalone="no"?>
<!DOCTYPE svg PUBLIC "-//W3C//DTD SVG 1.1//EN"
 "http://www.w3.org/Graphics/SVG/1.1/DTD/svg11.dtd">
<!-- Generated by graphviz version 12.1.0 (20240811.2233)
 -->
<!-- Title: state transitions Pages: 1 -->
<svg width="956pt" height="273pt"
 viewBox="0.00 0.00 956.38 272.99" xmlns="http://www.w3.org/2000/svg" xmlns:xlink="http://www.w3.org/1999/xlink">
<g id="graph0" class="graph" transform="scale(1 1) rotate(0) translate(4 268.99)">
<title>state transitions</title>
<polygon fill="white" stroke="none" points="-4,4 -4,-268.99 952.38,-268.99 952.38,4 -4,4"/>
<!-- cancelled -->
<g id="node1" class="node state regular">
<title>cancelled</title>
<polygon fill="#ffffff" fill-opacity="0.003922" stroke="none" stroke-width="2" points="885.75,-252.25 806.75,-252.25 806.75,-216 885.75,-216 885.75,-252.25"/>
<text text-anchor="start" x="817.75" y="-229.85" font-family="Helvetica,sans-Serif" font-size="12.00">cancelled</text>
<path fill="none" stroke="black" stroke-width="2" d="M819.17,-217C819.17,-217 873.33,-217 873.33,-217 879.04,-217 884.75,-222.71 884.75,-228.42 884.75,-228.42 884.75,-239.83 884.75,-239.83 884.75,-245.54 879.04,-251.25 873.33,-251.25 873.33,-251.25 819.17,-251.25 819.17,-251.25 813.46,-251.25 807.75,-245.54 807.75,-239.83 807.75,-239.83 807.75,-228.42 807.75,-228.42 807.75,-222.71 813.46,-217 819.17,-217"/>
</g>
<!-- error -->
<g id="node2" class="node state regular">
<title>error</title>
<polygon fill="#ffffff" fill-opacity="0.003922" stroke="none" stroke-width="2" points="874.25,-198.25 818.25,-198.25 818.25,-162 874.25,-162 874.25,-198.25"/>
<text text-anchor="start" x="831.62" y="-175.85" font-family="Helvetica,sans-Serif" font-size="12.00">error</text>
<path fill="none" stroke="black" stroke-width="2" d="M830.67,-163C830.67,-163 861.83,-163 861.83,-163 867.54,-163 873.25,-168.71 873.25,-174.42 873.25,-174.42 873.25,-185.83 873.25,-185.83 873.25,-191.54 867.54,-197.25 861.83,-197.25 861.83,-197.25 830.67,-197.25 830.67,-197.25 824.96,-197.25 819.25,-191.54 819.25,-185.83 819.25,-185.83 819.25,-174.42 819.25,-174.42 819.25,-168.71 824.96,-163 830.67,-163"/>
</g>
<!-- installed -->
<g id="node3" class="node state regular">
<title>installed</title>
<polygon fill="#ffffff" fill-opacity="0.003922" stroke="none" stroke-width="2" points="363.88,-144.25 292.38,-144.25 292.38,-108 363.88,-108 363.88,-144.25"/>
<text text-anchor="start" x="303.38" y="-121.85" font-family="Helvetica,sans-Serif" font-size="12.00">installed</text>
<path fill="none" stroke="black" stroke-width="2" d="M304.79,-109C304.79,-109 351.46,-109 351.46,-109 357.17,-109 362.88,-114.71 362.88,-120.42 362.88,-120.42 362.88,-131.83 362.88,-131.83 362.88,-137.54 357.17,-143.25 351.46,-143.25 351.46,-143.25 304.79,-143.25 304.79,-143.25 299.08,-143.25 293.38,-137.54 293.38,-131.83 293.38,-131.83 293.38,-120.42 293.38,-120.42 293.38,-114.71 299.08,-109 304.79,-109"/>
</g>
<!-- installed&#45;&gt;cancelled -->
<g id="edge1" class="edge transition">
<title>installed&#45;&gt;cancelled</title>
<path fill="none" stroke="black" d="M337.37,-144C345.98,-160.38 361.11,-183.75 381.88,-195.12 516.39,-268.79 706.43,-254.6 795.52,-242.38"/>
<polygon fill="black" stroke="black" points="795.99,-245.85 805.39,-240.97 795,-238.92 795.99,-245.85"/>
<text text-anchor="start" x="392.38" y="-255.49" font-family="Helvetica,sans-Serif" font-size="10.00">Cancel Installation &#45; Installation canceled while host is installing &#160;&#160;</text>
</g>
<!-- installed&#45;&gt;error -->
<g id="edge4" class="edge transition">
<title>installed&#45;&gt;error</title>
<path fill="none" stroke="black" d="M363.72,-138.53C369.71,-140.32 375.93,-141.95 381.88,-143.12 537.36,-173.95 727.03,-179.26 806.9,-180.05"/>
<polygon fill="black" stroke="black" points="806.77,-183.55 816.8,-180.13 806.83,-176.55 806.77,-183.55"/>
<text text-anchor="start" x="423.5" y="-181.26" font-family="Helvetica,sans-Serif" font-size="10.00">Refresh &#45; Move host to error when cluster is in error &#160;&#160;</text>
</g>
<!-- installed&#45;&gt;installed -->
<g id="edge2" class="edge transition">
<title>installed&#45;&gt;installed</title>
<path fill="none" stroke="black" d="M314.59,-143.97C312.29,-153.53 316.8,-162.25 328.12,-162.25 334.49,-162.25 338.71,-159.49 340.77,-155.38"/>
<polygon fill="black" stroke="black" points="344.25,-155.72 341.54,-145.48 337.27,-155.17 344.25,-155.72"/>
<text text-anchor="start" x="0" y="-165.5" font-family="Helvetica,sans-Serif" font-size="10.00">null &#45; Host progress change during installed state when host is not in state Done (or Rebooting in day2) should stay in installed state &#160;&#160;</text>
</g>
<!-- installed&#45;&gt;installed -->
<g id="edge5" class="edge transition">
<title>installed&#45;&gt;installed</title>
<path fill="none" stroke="black" d="M305.49,-144.14C293.37,-161.41 300.92,-180.25 328.12,-180.25 350.02,-180.25 359.18,-168.05 355.61,-154.29"/>
<polygon fill="black" stroke="black" points="358.88,-153.02 351.41,-145.51 352.57,-156.04 358.88,-153.02"/>
<text text-anchor="start" x="105" y="-183.5" font-family="Helvetica,sans-Serif" font-size="10.00">Refresh &#45; Refresh during installed state without cluster error should stay in installed state &#160;&#160;</text>
</g>
<!-- installed&#45;&gt;installed -->
<g id="edge6" class="edge transition">
<title>installed&#45;&gt;installed</title>
<path fill="none" stroke="black" d="M299.55,-144.23C274.26,-168.61 283.79,-198.25 328.12,-198.25 367.27,-198.25 379.28,-175.15 364.16,-152.96"/>
<polygon fill="black" stroke="black" points="366.84,-150.72 357.68,-145.39 361.52,-155.26 366.84,-150.72"/>
<text text-anchor="start" x="224.25" y="-201.5" font-family="Helvetica,sans-Serif" font-size="10.00">Register Host &#45; Register post&#45;installation &#160;&#160;</text>
</g>
<!-- reclaiming -->
<g id="node4" class="node state regular">
<title>reclaiming</title>
<polygon fill="#ffffff" fill-opacity="0.003922" stroke="none" stroke-width="2" points="888.38,-144.25 804.12,-144.25 804.12,-108 888.38,-108 888.38,-144.25"/>
<text text-anchor="start" x="815.12" y="-121.85" font-family="Helvetica,sans-Serif" font-size="12.00">reclaiming</text>
<path fill="none" stroke="black" stroke-width="2" d="M816.54,-109C816.54,-109 875.96,-109 875.96,-109 881.67,-109 887.38,-114.71 887.38,-120.42 887.38,-120.42 887.38,-131.83 887.38,-131.83 887.38,-137.54 881.67,-143.25 875.96,-143.25 875.96,-143.25 816.54,-143.25 816.54,-143.25 810.83,-143.25 805.12,-137.54 805.12,-131.83 805.12,-131.83 805.12,-120.42 805.12,-120.42 805.12,-114.71 810.83,-109 816.54,-109"/>
</g>
<!-- installed&#45;&gt;reclaiming -->
<g id="edge3" class="edge transition">
<title>installed&#45;&gt;reclaiming</title>
<path fill="none" stroke="black" d="M363.79,-126.12C452.46,-126.12 687.9,-126.12 793.14,-126.12"/>
<polygon fill="black" stroke="black" points="792.9,-129.63 802.9,-126.13 792.9,-122.63 792.9,-129.63"/>
<text text-anchor="start" x="453.12" y="-129.38" font-family="Helvetica,sans-Serif" font-size="10.00">Reclaim Host &#45; Reclaim successful host &#160;&#160;</text>
</g>
<!-- resetting&#45;pending&#45;user&#45;action -->
<g id="node5" class="node state regular">
<title>resetting&#45;pending&#45;user&#45;action</title>
<polygon fill="#ffffff" fill-opacity="0.003922" stroke="none" stroke-width="2" points="945.38,-90.25 747.12,-90.25 747.12,-54 945.38,-54 945.38,-90.25"/>
<text text-anchor="start" x="758.12" y="-67.85" font-family="Helvetica,sans-Serif" font-size="12.00">resetting&#45;pending&#45;user&#45;action</text>
<path fill="none" stroke="black" stroke-width="2" d="M759.54,-55C759.54,-55 932.96,-55 932.96,-55 938.67,-55 944.38,-60.71 944.38,-66.42 944.38,-66.42 944.38,-77.83 944.38,-77.83 944.38,-83.54 938.67,-89.25 932.96,-89.25 932.96,-89.25 759.54,-89.25 759.54,-89.25 753.83,-89.25 748.12,-83.54 748.12,-77.83 748.12,-77.83 748.12,-66.42 748.12,-66.42 748.12,-60.71 753.83,-55 759.54,-55"/>
</g>
<!-- installed&#45;&gt;resetting&#45;pending&#45;user&#45;action -->
<g id="edge7" class="edge transition">
<title>installed&#45;&gt;resetting&#45;pending&#45;user&#45;action</title>
<path fill="none" stroke="black" d="M363.73,-113.91C369.72,-112.15 375.93,-110.54 381.88,-109.38 501.54,-85.88 641.39,-77.15 735.89,-73.93"/>
<polygon fill="black" stroke="black" points="735.79,-77.43 745.67,-73.61 735.57,-70.44 735.79,-77.43"/>
<text text-anchor="start" x="381.88" y="-112.62" font-family="Helvetica,sans-Serif" font-size="10.00">Resetting, Pending User Action &#45; Reset pending user action all states &#160;&#160;</text>
</g>
<!-- unbinding&#45;pending&#45;user&#45;action -->
<g id="node6" class="node state regular">
<title>unbinding&#45;pending&#45;user&#45;action</title>
<polygon fill="#ffffff" fill-opacity="0.003922" stroke="none" stroke-width="2" points="948.38,-36.25 744.12,-36.25 744.12,0 948.38,0 948.38,-36.25"/>
<text text-anchor="start" x="755.12" y="-13.85" font-family="Helvetica,sans-Serif" font-size="12.00">unbinding&#45;pending&#45;user&#45;action</text>
<path fill="none" stroke="black" stroke-width="2" d="M756.54,-1C756.54,-1 935.96,-1 935.96,-1 941.67,-1 947.38,-6.71 947.38,-12.42 947.38,-12.42 947.38,-23.83 947.38,-23.83 947.38,-29.54 941.67,-35.25 935.96,-35.25 935.96,-35.25 756.54,-35.25 756.54,-35.25 750.83,-35.25 745.12,-29.54 745.12,-23.83 745.12,-23.83 745.12,-12.42 745.12,-12.42 745.12,-6.71 750.83,-1 756.54,-1"/>
</g>
<!-- installed&#45;&gt;unbinding&#45;pending&#45;user&#45;action -->
<g id="edge8" class="edge transition">
<title>installed&#45;&gt;unbinding&#45;pending&#45;user&#45;action</title>
<path fill="none" stroke="black" d="M337.56,-108C346.2,-91.7 361.28,-68.64 381.88,-57.38 490.15,1.84 634.33,4.33 732.94,-3.27"/>
<polygon fill="black" stroke="black" points="732.37,-6.74 742.62,-4.07 732.94,0.24 732.37,-6.74"/>
<text text-anchor="start" x="432.5" y="-60.62" font-family="Helvetica,sans-Serif" font-size="10.00">Unbind Host &#45; Unbind during or after installation &#160;&#160;</text>
</g>
</g>
</svg>
