<?xml version="1.0" encoding="UTF-8" standalone="no"?>
<!DOCTYPE svg PUBLIC "-//W3C//DTD SVG 1.1//EN"
 "http://www.w3.org/Graphics/SVG/1.1/DTD/svg11.dtd">
<!-- Generated by graphviz version 7.1.0 (0)
 -->
<!-- Title: state transitions Pages: 1 -->
<svg width="745pt" height="446pt"
 viewBox="0.00 0.00 745.00 446.01" xmlns="http://www.w3.org/2000/svg" xmlns:xlink="http://www.w3.org/1999/xlink">
<g id="graph0" class="graph" transform="scale(1 1) rotate(0) translate(4 442.01)">
<title>state transitions</title>
<polygon fill="white" stroke="none" points="-4,4 -4,-442.01 741,-442.01 741,4 -4,4"/>
<!-- disconnected -->
<g id="node1" class="node state regular">
<title>disconnected</title>
<polygon fill="#ffffff" fill-opacity="0.003922" stroke="none" stroke-width="2" points="694.5,-429.01 600.5,-429.01 600.5,-393.01 694.5,-393.01 694.5,-429.01"/>
<text text-anchor="start" x="611.5" y="-407.41" font-family="Helvetica,sans-Serif" font-size="12.00">disconnected</text>
<path fill="none" stroke="black" stroke-width="2" d="M612.5,-394.51C612.5,-394.51 682.5,-394.51 682.5,-394.51 688,-394.51 693.5,-400.01 693.5,-405.51 693.5,-405.51 693.5,-416.51 693.5,-416.51 693.5,-422.01 688,-427.51 682.5,-427.51 682.5,-427.51 612.5,-427.51 612.5,-427.51 607,-427.51 601.5,-422.01 601.5,-416.51 601.5,-416.51 601.5,-405.51 601.5,-405.51 601.5,-400.01 607,-394.51 612.5,-394.51"/>
</g>
<!-- discovering -->
<g id="node2" class="node state regular">
<title>discovering</title>
<polygon fill="#ffffff" fill-opacity="0.003922" stroke="none" stroke-width="2" points="689.5,-375.01 605.5,-375.01 605.5,-339.01 689.5,-339.01 689.5,-375.01"/>
<text text-anchor="start" x="616.5" y="-353.41" font-family="Helvetica,sans-Serif" font-size="12.00">discovering</text>
<path fill="none" stroke="black" stroke-width="2" d="M617.5,-340.51C617.5,-340.51 677.5,-340.51 677.5,-340.51 683,-340.51 688.5,-346.01 688.5,-351.51 688.5,-351.51 688.5,-362.51 688.5,-362.51 688.5,-368.01 683,-373.51 677.5,-373.51 677.5,-373.51 617.5,-373.51 617.5,-373.51 612,-373.51 606.5,-368.01 606.5,-362.51 606.5,-362.51 606.5,-351.51 606.5,-351.51 606.5,-346.01 612,-340.51 617.5,-340.51"/>
</g>
<!-- installing -->
<g id="node3" class="node state regular">
<title>installing</title>
<polygon fill="#ffffff" fill-opacity="0.003922" stroke="none" stroke-width="2" points="683,-321.01 612,-321.01 612,-285.01 683,-285.01 683,-321.01"/>
<text text-anchor="start" x="623.5" y="-299.41" font-family="Helvetica,sans-Serif" font-size="12.00">installing</text>
<path fill="none" stroke="black" stroke-width="2" d="M624,-286.51C624,-286.51 671,-286.51 671,-286.51 676.5,-286.51 682,-292.01 682,-297.51 682,-297.51 682,-308.51 682,-308.51 682,-314.01 676.5,-319.51 671,-319.51 671,-319.51 624,-319.51 624,-319.51 618.5,-319.51 613,-314.01 613,-308.51 613,-308.51 613,-297.51 613,-297.51 613,-292.01 618.5,-286.51 624,-286.51"/>
</g>
<!-- insufficient -->
<g id="node4" class="node state regular">
<title>insufficient</title>
<polygon fill="#ffffff" fill-opacity="0.003922" stroke="none" stroke-width="2" points="687.5,-266.01 607.5,-266.01 607.5,-230.01 687.5,-230.01 687.5,-266.01"/>
<text text-anchor="start" x="618.5" y="-244.41" font-family="Helvetica,sans-Serif" font-size="12.00">insufficient</text>
<path fill="none" stroke="black" stroke-width="2" d="M619.5,-231.51C619.5,-231.51 675.5,-231.51 675.5,-231.51 681,-231.51 686.5,-237.01 686.5,-242.51 686.5,-242.51 686.5,-253.51 686.5,-253.51 686.5,-259.01 681,-264.51 675.5,-264.51 675.5,-264.51 619.5,-264.51 619.5,-264.51 614,-264.51 608.5,-259.01 608.5,-253.51 608.5,-253.51 608.5,-242.51 608.5,-242.51 608.5,-237.01 614,-231.51 619.5,-231.51"/>
</g>
<!-- known -->
<g id="node5" class="node state regular">
<title>known</title>
<polygon fill="#ffffff" fill-opacity="0.003922" stroke="none" stroke-width="2" points="122,-243.01 64,-243.01 64,-207.01 122,-207.01 122,-243.01"/>
<text text-anchor="start" x="75" y="-221.41" font-family="Helvetica,sans-Serif" font-size="12.00">known</text>
<path fill="none" stroke="black" stroke-width="2" d="M76,-208.51C76,-208.51 110,-208.51 110,-208.51 115.5,-208.51 121,-214.01 121,-219.51 121,-219.51 121,-230.51 121,-230.51 121,-236.01 115.5,-241.51 110,-241.51 110,-241.51 76,-241.51 76,-241.51 70.5,-241.51 65,-236.01 65,-230.51 65,-230.51 65,-219.51 65,-219.51 65,-214.01 70.5,-208.51 76,-208.51"/>
</g>
<!-- known&#45;&gt;disconnected -->
<g id="edge3" class="edge transition">
<title>known&#45;&gt;disconnected</title>
<path fill="none" stroke="black" d="M96.34,-242.89C101.8,-281.68 116.75,-371.59 140,-390.01 208,-443.91 471.75,-427.24 589.35,-416.73"/>
<polygon fill="black" stroke="black" points="589.45,-420.24 599.09,-415.84 588.81,-413.27 589.45,-420.24"/>
<text text-anchor="start" x="140" y="-430.01" font-family="Helvetica,sans-Serif" font-size="10.00">Media Disconnect &#45; Move to disconnected when virtual media disconnects pre&#45;installation &#160;&#160;</text>
</g>
<!-- known&#45;&gt;disconnected -->
<g id="edge7" class="edge transition">
<title>known&#45;&gt;disconnected</title>
<path fill="none" stroke="black" d="M94.39,-243.01C96.09,-272.16 104.11,-329.14 140,-356.01 175.62,-382.69 496.49,-367.66 540,-377.01 548.39,-378.82 549.89,-381.2 558,-384.01 568.25,-387.57 579.25,-391.12 589.9,-394.43"/>
<polygon fill="black" stroke="black" points="588.78,-397.75 599.37,-397.34 590.83,-391.06 588.78,-397.75"/>
<text text-anchor="start" x="196.5" y="-380.01" font-family="Helvetica,sans-Serif" font-size="10.00">Refresh &#45; Move host to disconnected when connected times out &#160;&#160;</text>
</g>
<!-- known&#45;&gt;discovering -->
<g id="edge12" class="edge transition">
<title>known&#45;&gt;discovering</title>
<path fill="none" stroke="black" d="M96.86,-242.92C101.52,-265.6 113.1,-303.9 140,-322.01 176.92,-346.88 495.64,-341.24 540,-345.01 557.79,-346.53 577.21,-348.59 594.54,-350.58"/>
<polygon fill="black" stroke="black" points="593.75,-354.01 604.08,-351.7 594.56,-347.06 593.75,-354.01"/>
<text text-anchor="start" x="269" y="-348.01" font-family="Helvetica,sans-Serif" font-size="10.00">Register Host &#45; Re&#45;registration &#160;&#160;</text>
</g>
<!-- known&#45;&gt;installing -->
<g id="edge2" class="edge transition">
<title>known&#45;&gt;installing</title>
<path fill="none" stroke="black" d="M103.49,-242.82C111.39,-255.65 123.94,-272.06 140,-280.01 220.1,-319.68 491.91,-310.89 600.82,-305.56"/>
<polygon fill="black" stroke="black" points="600.73,-309.06 610.54,-305.07 600.38,-302.07 600.73,-309.06"/>
<text text-anchor="start" x="266" y="-313.01" font-family="Helvetica,sans-Serif" font-size="10.00">Install Host &#45; Install known host &#160;&#160;</text>
</g>
<!-- known&#45;&gt;insufficient -->
<g id="edge6" class="edge transition">
<title>known&#45;&gt;insufficient</title>
<path fill="none" stroke="black" d="M116.64,-242.81C123.73,-247.37 131.84,-251.66 140,-254.01 225.4,-278.69 451.15,-256.51 540,-254.01 558.37,-253.5 578.51,-252.48 596.28,-251.43"/>
<polygon fill="black" stroke="black" points="596.3,-254.93 606.06,-250.83 595.87,-247.94 596.3,-254.93"/>
<text text-anchor="start" x="200.5" y="-268.01" font-family="Helvetica,sans-Serif" font-size="10.00">Refresh &#45; Preparing failed disk speed host move to insufficient &#160;&#160;</text>
</g>
<!-- known&#45;&gt;insufficient -->
<g id="edge8" class="edge transition">
<title>known&#45;&gt;insufficient</title>
<path fill="none" stroke="black" d="M121.93,-225.73C192.19,-227.58 381.95,-232.99 540,-241.01 558.37,-241.95 578.5,-243.21 596.27,-244.4"/>
<polygon fill="black" stroke="black" points="595.84,-247.88 606.06,-245.07 596.32,-240.9 595.84,-247.88"/>
<text text-anchor="start" x="248" y="-244.01" font-family="Helvetica,sans-Serif" font-size="10.00">Refresh &#45; Host has insufficient hardware &#160;&#160;</text>
</g>
<!-- known&#45;&gt;insufficient -->
<g id="edge10" class="edge transition">
<title>known&#45;&gt;insufficient</title>
<path fill="none" stroke="black" d="M121.92,-215.08C127.82,-213.39 134.06,-211.9 140,-211.01 227.92,-197.93 453.95,-188.72 540,-211.01 548.86,-213.31 549.58,-217.44 558,-221.01 570.24,-226.21 583.81,-230.87 596.58,-234.79"/>
<polygon fill="black" stroke="black" points="595.5,-238.13 606.09,-237.62 597.5,-231.42 595.5,-238.13"/>
<text text-anchor="start" x="281.5" y="-214.01" font-family="Helvetica,sans-Serif" font-size="10.00">Refresh &#45; Host not ready &#160;&#160;</text>
</g>
<!-- known&#45;&gt;known -->
<g id="edge1" class="edge transition">
<title>known&#45;&gt;known</title>
<path fill="none" stroke="black" d="M70.8,-242.8C67.03,-252.33 74.43,-261.01 93,-261.01 103.45,-261.01 110.36,-258.27 113.74,-254.16"/>
<polygon fill="black" stroke="black" points="117.2,-254.66 115.01,-244.3 110.26,-253.77 117.2,-254.66"/>
<text text-anchor="start" x="0" y="-264.01" font-family="Helvetica,sans-Serif" font-size="10.00">Cancel Installation &#45; Cancel while known &#160;&#160;</text>
</g>
<!-- known&#45;&gt;known -->
<g id="edge11" class="edge transition">
<title>known&#45;&gt;known</title>
<path fill="none" stroke="black" d="M64.33,-236.95C33.51,-255.48 43.07,-279.01 93,-279.01 137.08,-279.01 149.69,-260.67 130.84,-243.62"/>
<polygon fill="black" stroke="black" points="133.04,-240.89 122.89,-237.84 128.92,-246.55 133.04,-240.89"/>
<text text-anchor="start" x="32" y="-282.01" font-family="Helvetica,sans-Serif" font-size="10.00">Refresh &#45; Host stay ready &#160;&#160;</text>
</g>
<!-- pending&#45;for&#45;input -->
<g id="node6" class="node state regular">
<title>pending&#45;for&#45;input</title>
<polygon fill="#ffffff" fill-opacity="0.003922" stroke="none" stroke-width="2" points="704,-212.01 591,-212.01 591,-176.01 704,-176.01 704,-212.01"/>
<text text-anchor="start" x="602.5" y="-190.41" font-family="Helvetica,sans-Serif" font-size="12.00">pending&#45;for&#45;input</text>
<path fill="none" stroke="black" stroke-width="2" d="M603,-177.51C603,-177.51 692,-177.51 692,-177.51 697.5,-177.51 703,-183.01 703,-188.51 703,-188.51 703,-199.51 703,-199.51 703,-205.01 697.5,-210.51 692,-210.51 692,-210.51 603,-210.51 603,-210.51 597.5,-210.51 592,-205.01 592,-199.51 592,-199.51 592,-188.51 592,-188.51 592,-183.01 597.5,-177.51 603,-177.51"/>
</g>
<!-- known&#45;&gt;pending&#45;for&#45;input -->
<g id="edge9" class="edge transition">
<title>known&#45;&gt;pending&#45;for&#45;input</title>
<path fill="none" stroke="black" d="M107.24,-207.37C115.48,-197.9 126.98,-187.15 140,-182.01 222.68,-149.39 451.25,-177.03 540,-182.01 552.86,-182.74 566.55,-183.95 579.69,-185.32"/>
<polygon fill="black" stroke="black" points="579.22,-188.79 589.54,-186.41 579.99,-181.84 579.22,-188.79"/>
<text text-anchor="start" x="273" y="-185.01" font-family="Helvetica,sans-Serif" font-size="10.00">Refresh &#45; Host pending input &#160;&#160;</text>
</g>
<!-- preparing&#45;for&#45;installation -->
<g id="node7" class="node state regular">
<title>preparing&#45;for&#45;installation</title>
<polygon fill="#ffffff" fill-opacity="0.003922" stroke="none" stroke-width="2" points="723.5,-158.01 571.5,-158.01 571.5,-122.01 723.5,-122.01 723.5,-158.01"/>
<text text-anchor="start" x="582.5" y="-136.41" font-family="Helvetica,sans-Serif" font-size="12.00">preparing&#45;for&#45;installation</text>
<path fill="none" stroke="black" stroke-width="2" d="M583.5,-123.51C583.5,-123.51 711.5,-123.51 711.5,-123.51 717,-123.51 722.5,-129.01 722.5,-134.51 722.5,-134.51 722.5,-145.51 722.5,-145.51 722.5,-151.01 717,-156.51 711.5,-156.51 711.5,-156.51 583.5,-156.51 583.5,-156.51 578,-156.51 572.5,-151.01 572.5,-145.51 572.5,-145.51 572.5,-134.51 572.5,-134.51 572.5,-129.01 578,-123.51 583.5,-123.51"/>
</g>
<!-- known&#45;&gt;preparing&#45;for&#45;installation -->
<g id="edge5" class="edge transition">
<title>known&#45;&gt;preparing&#45;for&#45;installation</title>
<path fill="none" stroke="black" d="M99.44,-207.32C105.95,-189.56 118.71,-163.15 140,-151.01 209.28,-111.52 434.55,-122.46 560.06,-132.2"/>
<polygon fill="black" stroke="black" points="559.76,-135.68 570.01,-132.98 560.32,-128.71 559.76,-135.68"/>
<text text-anchor="start" x="227.5" y="-154.01" font-family="Helvetica,sans-Serif" font-size="10.00">Refresh &#45; Refresh known host in preparing cluster &#160;&#160;</text>
</g>
<!-- resetting&#45;pending&#45;user&#45;action -->
<g id="node8" class="node state regular">
<title>resetting&#45;pending&#45;user&#45;action</title>
<polygon fill="#ffffff" fill-opacity="0.003922" stroke="none" stroke-width="2" points="737,-104.01 558,-104.01 558,-68.01 737,-68.01 737,-104.01"/>
<text text-anchor="start" x="569.5" y="-82.41" font-family="Helvetica,sans-Serif" font-size="12.00">resetting&#45;pending&#45;user&#45;action</text>
<path fill="none" stroke="black" stroke-width="2" d="M570,-69.51C570,-69.51 725,-69.51 725,-69.51 730.5,-69.51 736,-75.01 736,-80.51 736,-80.51 736,-91.51 736,-91.51 736,-97.01 730.5,-102.51 725,-102.51 725,-102.51 570,-102.51 570,-102.51 564.5,-102.51 559,-97.01 559,-91.51 559,-91.51 559,-80.51 559,-80.51 559,-75.01 564.5,-69.51 570,-69.51"/>
</g>
<!-- known&#45;&gt;resetting&#45;pending&#45;user&#45;action -->
<g id="edge13" class="edge transition">
<title>known&#45;&gt;resetting&#45;pending&#45;user&#45;action</title>
<path fill="none" stroke="black" d="M95.2,-207.12C98.06,-180.49 107.67,-131.09 140,-108.01 172.16,-85.06 408.43,-83.48 546.63,-84.59"/>
<polygon fill="black" stroke="black" points="546.51,-88.09 556.54,-84.67 546.57,-81.09 546.51,-88.09"/>
<text text-anchor="start" x="184.5" y="-111.01" font-family="Helvetica,sans-Serif" font-size="10.00">Resetting, Pending User Action &#45; Reset pending user action all states &#160;&#160;</text>
</g>
<!-- unbinding -->
<g id="node9" class="node state regular">
<title>unbinding</title>
<polygon fill="#ffffff" fill-opacity="0.003922" stroke="none" stroke-width="2" points="685.5,-50.01 609.5,-50.01 609.5,-14.01 685.5,-14.01 685.5,-50.01"/>
<text text-anchor="start" x="620.5" y="-28.41" font-family="Helvetica,sans-Serif" font-size="12.00">unbinding</text>
<path fill="none" stroke="black" stroke-width="2" d="M621.5,-15.51C621.5,-15.51 673.5,-15.51 673.5,-15.51 679,-15.51 684.5,-21.01 684.5,-26.51 684.5,-26.51 684.5,-37.51 684.5,-37.51 684.5,-43.01 679,-48.51 673.5,-48.51 673.5,-48.51 621.5,-48.51 621.5,-48.51 616,-48.51 610.5,-43.01 610.5,-37.51 610.5,-37.51 610.5,-26.51 610.5,-26.51 610.5,-21.01 616,-15.51 621.5,-15.51"/>
</g>
<!-- known&#45;&gt;unbinding -->
<g id="edge4" class="edge transition">
<title>known&#45;&gt;unbinding</title>
<path fill="none" stroke="black" d="M93.24,-207.24C92.91,-174.03 97.5,-102.91 140,-69.01 174.81,-41.25 495.64,-47.9 540,-44.01 559.1,-42.34 580.07,-40.07 598.32,-37.96"/>
<polygon fill="black" stroke="black" points="598.55,-41.45 608.08,-36.81 597.74,-34.5 598.55,-41.45"/>
<text text-anchor="start" x="250" y="-72.01" font-family="Helvetica,sans-Serif" font-size="10.00">Reclaim Host &#45; Reclaim pre&#45;installation &#160;&#160;</text>
</g>
<!-- known&#45;&gt;unbinding -->
<g id="edge14" class="edge transition">
<title>known&#45;&gt;unbinding</title>
<path fill="none" stroke="black" d="M95.47,-207.28C99.48,-163.64 112.24,-52.96 140,-31.01 209.79,24.16 485.67,-8.51 598.27,-24.63"/>
<polygon fill="black" stroke="black" points="597.69,-28.08 608.09,-26.05 598.7,-21.15 597.69,-28.08"/>
<text text-anchor="start" x="254.5" y="-34.01" font-family="Helvetica,sans-Serif" font-size="10.00">Unbind Host &#45; Unbind pre&#45;installation &#160;&#160;</text>
</g>
</g>
</svg>
