<?xml version="1.0" encoding="UTF-8" standalone="no"?>
<!DOCTYPE svg PUBLIC "-//W3C//DTD SVG 1.1//EN"
 "http://www.w3.org/Graphics/SVG/1.1/DTD/svg11.dtd">
<!-- Generated by graphviz version 12.1.0 (20240811.2233)
 -->
<!-- Title: state transitions Pages: 1 -->
<svg width="826pt" height="237pt"
 viewBox="0.00 0.00 826.00 237.03" xmlns="http://www.w3.org/2000/svg" xmlns:xlink="http://www.w3.org/1999/xlink">
<g id="graph0" class="graph" transform="scale(1 1) rotate(0) translate(4 233.03)">
<title>state transitions</title>
<polygon fill="white" stroke="none" points="-4,4 -4,-233.03 822,-233.03 822,4 -4,4"/>
<!-- cancelled -->
<g id="node1" class="node state regular">
<title>cancelled</title>
<polygon fill="#ffffff" fill-opacity="0.003922" stroke="none" stroke-width="2" points="755.75,-160.03 676.75,-160.03 676.75,-123.78 755.75,-123.78 755.75,-160.03"/>
<text text-anchor="start" x="687.75" y="-137.63" font-family="Helvetica,sans-Serif" font-size="12.00">cancelled</text>
<path fill="none" stroke="black" stroke-width="2" d="M689.17,-124.78C689.17,-124.78 743.33,-124.78 743.33,-124.78 749.04,-124.78 754.75,-130.49 754.75,-136.2 754.75,-136.2 754.75,-147.62 754.75,-147.62 754.75,-153.32 749.04,-159.03 743.33,-159.03 743.33,-159.03 689.17,-159.03 689.17,-159.03 683.46,-159.03 677.75,-153.32 677.75,-147.62 677.75,-147.62 677.75,-136.2 677.75,-136.2 677.75,-130.49 683.46,-124.78 689.17,-124.78"/>
</g>
<!-- error -->
<g id="node2" class="node state regular">
<title>error</title>
<polygon fill="#ffffff" fill-opacity="0.003922" stroke="none" stroke-width="2" points="234.25,-106.03 178.25,-106.03 178.25,-69.78 234.25,-69.78 234.25,-106.03"/>
<text text-anchor="start" x="191.62" y="-83.63" font-family="Helvetica,sans-Serif" font-size="12.00">error</text>
<path fill="none" stroke="black" stroke-width="2" d="M190.67,-70.78C190.67,-70.78 221.83,-70.78 221.83,-70.78 227.54,-70.78 233.25,-76.49 233.25,-82.2 233.25,-82.2 233.25,-93.62 233.25,-93.62 233.25,-99.32 227.54,-105.03 221.83,-105.03 221.83,-105.03 190.67,-105.03 190.67,-105.03 184.96,-105.03 179.25,-99.32 179.25,-93.62 179.25,-93.62 179.25,-82.2 179.25,-82.2 179.25,-76.49 184.96,-70.78 190.67,-70.78"/>
</g>
<!-- error&#45;&gt;cancelled -->
<g id="edge1" class="edge transition">
<title>error&#45;&gt;cancelled</title>
<path fill="none" stroke="black" d="M234,-99.42C239.92,-101.57 246.22,-103.56 252.25,-104.91 399.92,-138 579.91,-142.46 665.47,-142.48"/>
<polygon fill="black" stroke="black" points="665.39,-145.98 675.39,-142.46 665.38,-138.98 665.39,-145.98"/>
<text text-anchor="start" x="262.75" y="-144.66" font-family="Helvetica,sans-Serif" font-size="10.00">Cancel Installation &#45; Installation canceled while host is installing &#160;&#160;</text>
</g>
<!-- error&#45;&gt;error -->
<g id="edge2" class="edge transition">
<title>error&#45;&gt;error</title>
<path fill="none" stroke="black" d="M196.45,-105.75C194.78,-115.32 198.05,-124.03 206.25,-124.03 210.86,-124.03 213.92,-121.28 215.41,-117.16"/>
<polygon fill="black" stroke="black" points="218.9,-117.44 215.97,-107.26 211.91,-117.05 218.9,-117.44"/>
<text text-anchor="start" x="0" y="-127.28" font-family="Helvetica,sans-Serif" font-size="10.00">Media Disconnect &#45; Move to error when virtual media disconnects post&#45;installation &#160;&#160;</text>
</g>
<!-- error&#45;&gt;error -->
<g id="edge4" class="edge transition">
<title>error&#45;&gt;error</title>
<path fill="none" stroke="black" d="M189.86,-105.93C181.08,-123.19 186.55,-142.03 206.25,-142.03 221.95,-142.03 228.61,-130.07 226.23,-116.47"/>
<polygon fill="black" stroke="black" points="229.66,-115.7 223.13,-107.36 223.04,-117.96 229.66,-115.7"/>
<text text-anchor="start" x="40.5" y="-145.28" font-family="Helvetica,sans-Serif" font-size="10.00">Refresh &#45; Log collection timed out during error should stay in error &#160;&#160;</text>
</g>
<!-- error&#45;&gt;error -->
<g id="edge5" class="edge transition">
<title>error&#45;&gt;error</title>
<path fill="none" stroke="black" d="M185.55,-106.02C167.24,-130.39 174.14,-160.03 206.25,-160.03 234.22,-160.03 243.06,-137.54 232.77,-115.63"/>
<polygon fill="black" stroke="black" points="235.91,-114.05 227.73,-107.31 229.92,-117.68 235.91,-114.05"/>
<text text-anchor="start" x="80.62" y="-163.28" font-family="Helvetica,sans-Serif" font-size="10.00">Refresh &#45; Refresh during error should stay in error &#160;&#160;</text>
</g>
<!-- error&#45;&gt;error -->
<g id="edge6" class="edge transition">
<title>error&#45;&gt;error</title>
<path fill="none" stroke="black" d="M182.97,-105.6C153.33,-136.83 161.09,-178.03 206.25,-178.03 247.35,-178.03 257.47,-143.9 236.62,-114.22"/>
<polygon fill="black" stroke="black" points="239.55,-112.28 230.5,-106.77 234.14,-116.72 239.55,-112.28"/>
<text text-anchor="start" x="113.62" y="-181.28" font-family="Helvetica,sans-Serif" font-size="10.00">Register Host &#45; Register during error &#160;&#160;</text>
</g>
<!-- unbinding&#45;pending&#45;user&#45;action -->
<g id="node3" class="node state regular">
<title>unbinding&#45;pending&#45;user&#45;action</title>
<polygon fill="#ffffff" fill-opacity="0.003922" stroke="none" stroke-width="2" points="818,-106.03 614.5,-106.03 614.5,-69.78 818,-69.78 818,-106.03"/>
<text text-anchor="start" x="625.5" y="-83.63" font-family="Helvetica,sans-Serif" font-size="12.00">unbinding&#45;pending&#45;user&#45;action</text>
<path fill="none" stroke="black" stroke-width="2" d="M626.92,-70.78C626.92,-70.78 805.58,-70.78 805.58,-70.78 811.29,-70.78 817,-76.49 817,-82.2 817,-82.2 817,-93.62 817,-93.62 817,-99.32 811.29,-105.03 805.58,-105.03 805.58,-105.03 626.92,-105.03 626.92,-105.03 621.21,-105.03 615.5,-99.32 615.5,-93.62 615.5,-93.62 615.5,-82.2 615.5,-82.2 615.5,-76.49 621.21,-70.78 626.92,-70.78"/>
</g>
<!-- error&#45;&gt;unbinding&#45;pending&#45;user&#45;action -->
<g id="edge3" class="edge transition">
<title>error&#45;&gt;unbinding&#45;pending&#45;user&#45;action</title>
<path fill="none" stroke="black" d="M234.2,-87.91C302.16,-87.91 483.6,-87.91 603.2,-87.91"/>
<polygon fill="black" stroke="black" points="603.06,-91.41 613.06,-87.91 603.06,-84.41 603.06,-91.41"/>
<text text-anchor="start" x="335.12" y="-91.16" font-family="Helvetica,sans-Serif" font-size="10.00">Reclaim Host &#45; Reclaim failed host &#160;&#160;</text>
</g>
<!-- error&#45;&gt;unbinding&#45;pending&#45;user&#45;action -->
<g id="edge8" class="edge transition">
<title>error&#45;&gt;unbinding&#45;pending&#45;user&#45;action</title>
<path fill="none" stroke="black" d="M233.94,-76.21C239.86,-74.11 246.18,-72.25 252.25,-71.16 402.83,-44.04 443.88,-60.45 596.5,-71.16 598.72,-71.31 600.96,-71.49 603.22,-71.67"/>
<polygon fill="black" stroke="black" points="602.83,-75.15 613.1,-72.58 603.47,-68.18 602.83,-75.15"/>
<text text-anchor="start" x="302.5" y="-74.41" font-family="Helvetica,sans-Serif" font-size="10.00">Unbind Host &#45; Unbind during or after installation &#160;&#160;</text>
</g>
<!-- resetting&#45;pending&#45;user&#45;action -->
<g id="node4" class="node state regular">
<title>resetting&#45;pending&#45;user&#45;action</title>
<polygon fill="#ffffff" fill-opacity="0.003922" stroke="none" stroke-width="2" points="815,-52.03 617.5,-52.03 617.5,-15.78 815,-15.78 815,-52.03"/>
<text text-anchor="start" x="628.5" y="-29.63" font-family="Helvetica,sans-Serif" font-size="12.00">resetting&#45;pending&#45;user&#45;action</text>
<path fill="none" stroke="black" stroke-width="2" d="M629.92,-16.78C629.92,-16.78 802.58,-16.78 802.58,-16.78 808.29,-16.78 814,-22.49 814,-28.2 814,-28.2 814,-39.62 814,-39.62 814,-45.32 808.29,-51.03 802.58,-51.03 802.58,-51.03 629.92,-51.03 629.92,-51.03 624.21,-51.03 618.5,-45.32 618.5,-39.62 618.5,-39.62 618.5,-28.2 618.5,-28.2 618.5,-22.49 624.21,-16.78 629.92,-16.78"/>
</g>
<!-- error&#45;&gt;resetting&#45;pending&#45;user&#45;action -->
<g id="edge7" class="edge transition">
<title>error&#45;&gt;resetting&#45;pending&#45;user&#45;action</title>
<path fill="none" stroke="black" d="M218.21,-70.01C226.13,-58.88 237.94,-45.52 252.25,-39.16 370.78,13.54 523.83,1.89 620.8,-13.92"/>
<polygon fill="black" stroke="black" points="620.11,-17.36 630.56,-15.57 621.28,-10.46 620.11,-17.36"/>
<text text-anchor="start" x="252.25" y="-42.41" font-family="Helvetica,sans-Serif" font-size="10.00">Resetting, Pending User Action &#45; Reset pending user action all states &#160;&#160;</text>
</g>
</g>
</svg>
