<?xml version="1.0" encoding="UTF-8" standalone="no"?>
<!DOCTYPE svg PUBLIC "-//W3C//DTD SVG 1.1//EN"
 "http://www.w3.org/Graphics/SVG/1.1/DTD/svg11.dtd">
<!-- Generated by graphviz version 5.0.0 (0)
 -->
<!-- Title: state transitions Pages: 1 -->
<svg width="747pt" height="311pt"
 viewBox="0.00 0.00 746.50 311.01" xmlns="http://www.w3.org/2000/svg" xmlns:xlink="http://www.w3.org/1999/xlink">
<g id="graph0" class="graph" transform="scale(1 1) rotate(0) translate(4 307.01)">
<title>state transitions</title>
<polygon fill="white" stroke="transparent" points="-4,4 -4,-307.01 742.5,-307.01 742.5,4 -4,4"/>
<!-- disconnected -->
<g id="node1" class="node state regular">
<title>disconnected</title>
<polygon fill="#ffffff" fill-opacity="0.003922" stroke="transparent" stroke-width="2" points="696,-282.01 602,-282.01 602,-246.01 696,-246.01 696,-282.01"/>
<text text-anchor="start" x="613" y="-260.41" font-family="Helvetica,sans-Serif" font-size="12.00">disconnected</text>
<path fill="none" stroke="black" stroke-width="2" d="M614,-247.51C614,-247.51 684,-247.51 684,-247.51 689.5,-247.51 695,-253.01 695,-258.51 695,-258.51 695,-269.51 695,-269.51 695,-275.01 689.5,-280.51 684,-280.51 684,-280.51 614,-280.51 614,-280.51 608.5,-280.51 603,-275.01 603,-269.51 603,-269.51 603,-258.51 603,-258.51 603,-253.01 608.5,-247.51 614,-247.51"/>
</g>
<!-- insufficient -->
<g id="node2" class="node state regular">
<title>insufficient</title>
<polygon fill="#ffffff" fill-opacity="0.003922" stroke="transparent" stroke-width="2" points="689,-228.01 609,-228.01 609,-192.01 689,-192.01 689,-228.01"/>
<text text-anchor="start" x="620" y="-206.41" font-family="Helvetica,sans-Serif" font-size="12.00">insufficient</text>
<path fill="none" stroke="black" stroke-width="2" d="M621,-193.51C621,-193.51 677,-193.51 677,-193.51 682.5,-193.51 688,-199.01 688,-204.51 688,-204.51 688,-215.51 688,-215.51 688,-221.01 682.5,-226.51 677,-226.51 677,-226.51 621,-226.51 621,-226.51 615.5,-226.51 610,-221.01 610,-215.51 610,-215.51 610,-204.51 610,-204.51 610,-199.01 615.5,-193.51 621,-193.51"/>
</g>
<!-- known -->
<g id="node3" class="node state regular">
<title>known</title>
<polygon fill="#ffffff" fill-opacity="0.003922" stroke="transparent" stroke-width="2" points="678,-174.01 620,-174.01 620,-138.01 678,-138.01 678,-174.01"/>
<text text-anchor="start" x="631" y="-152.41" font-family="Helvetica,sans-Serif" font-size="12.00">known</text>
<path fill="none" stroke="black" stroke-width="2" d="M632,-139.51C632,-139.51 666,-139.51 666,-139.51 671.5,-139.51 677,-145.01 677,-150.51 677,-150.51 677,-161.51 677,-161.51 677,-167.01 671.5,-172.51 666,-172.51 666,-172.51 632,-172.51 632,-172.51 626.5,-172.51 621,-167.01 621,-161.51 621,-161.51 621,-150.51 621,-150.51 621,-145.01 626.5,-139.51 632,-139.51"/>
</g>
<!-- pending&#45;for&#45;input -->
<g id="node4" class="node state regular">
<title>pending&#45;for&#45;input</title>
<polygon fill="#ffffff" fill-opacity="0.003922" stroke="transparent" stroke-width="2" points="123.5,-174.01 10.5,-174.01 10.5,-138.01 123.5,-138.01 123.5,-174.01"/>
<text text-anchor="start" x="22" y="-152.41" font-family="Helvetica,sans-Serif" font-size="12.00">pending&#45;for&#45;input</text>
<path fill="none" stroke="black" stroke-width="2" d="M22.5,-139.51C22.5,-139.51 111.5,-139.51 111.5,-139.51 117,-139.51 122.5,-145.01 122.5,-150.51 122.5,-150.51 122.5,-161.51 122.5,-161.51 122.5,-167.01 117,-172.51 111.5,-172.51 111.5,-172.51 22.5,-172.51 22.5,-172.51 17,-172.51 11.5,-167.01 11.5,-161.51 11.5,-161.51 11.5,-150.51 11.5,-150.51 11.5,-145.01 17,-139.51 22.5,-139.51"/>
</g>
<!-- pending&#45;for&#45;input&#45;&gt;disconnected -->
<g id="edge1" class="edge transition">
<title>pending&#45;for&#45;input&#45;&gt;disconnected</title>
<path fill="none" stroke="black" d="M77.36,-174.02C89.19,-194.65 111.66,-227.47 141.5,-242.01 290.51,-314.64 494.4,-292.31 591.78,-275.43"/>
<polygon fill="black" stroke="black" points="592.48,-278.86 601.71,-273.67 591.25,-271.97 592.48,-278.86"/>
<text text-anchor="start" x="141.5" y="-295.01" font-family="Helvetica,sans-Serif" font-size="10.00">Media Disconnect &#45; Move to disconnected when virtual media disconnects pre&#45;installation &#160;&#160;</text>
</g>
<!-- pending&#45;for&#45;input&#45;&gt;disconnected -->
<g id="edge3" class="edge transition">
<title>pending&#45;for&#45;input&#45;&gt;disconnected</title>
<path fill="none" stroke="black" d="M87.16,-174.2C101.07,-186.17 120.97,-200.89 141.5,-208.01 225.59,-237.2 454.94,-208.26 541.5,-229.01 550.01,-231.05 551.3,-233.95 559.5,-237.01 569.87,-240.88 581.07,-244.62 591.9,-248.03"/>
<polygon fill="black" stroke="black" points="591.12,-251.45 601.71,-251.05 593.18,-244.76 591.12,-251.45"/>
<text text-anchor="start" x="198" y="-232.01" font-family="Helvetica,sans-Serif" font-size="10.00">Refresh &#45; Move host to disconnected when connected times out &#160;&#160;</text>
</g>
<!-- pending&#45;for&#45;input&#45;&gt;insufficient -->
<g id="edge5" class="edge transition">
<title>pending&#45;for&#45;input&#45;&gt;insufficient</title>
<path fill="none" stroke="black" d="M123.65,-168.2C129.65,-169.26 135.69,-170.23 141.5,-171.01 318.08,-194.66 364.12,-180.43 541.5,-197.01 560.19,-198.76 580.67,-201.14 598.63,-203.4"/>
<polygon fill="black" stroke="black" points="598.25,-206.87 608.61,-204.66 599.13,-199.93 598.25,-206.87"/>
<text text-anchor="start" x="283" y="-200.01" font-family="Helvetica,sans-Serif" font-size="10.00">Refresh &#45; Host not ready &#160;&#160;</text>
</g>
<!-- pending&#45;for&#45;input&#45;&gt;known -->
<g id="edge6" class="edge transition">
<title>pending&#45;for&#45;input&#45;&gt;known</title>
<path fill="none" stroke="black" d="M123.61,-156.01C240.56,-156.01 509.41,-156.01 609.51,-156.01"/>
<polygon fill="black" stroke="black" points="609.77,-159.51 619.77,-156.01 609.77,-152.51 609.77,-159.51"/>
<text text-anchor="start" x="291.5" y="-159.01" font-family="Helvetica,sans-Serif" font-size="10.00">Refresh &#45; Host ready &#160;&#160;</text>
</g>
<!-- pending&#45;for&#45;input&#45;&gt;pending&#45;for&#45;input -->
<g id="edge4" class="edge transition">
<title>pending&#45;for&#45;input&#45;&gt;pending&#45;for&#45;input</title>
<path fill="none" stroke="black" d="M17.43,-174.16C9.81,-183.55 26.33,-192.01 67,-192.01 92.1,-192.01 108.01,-188.79 114.71,-184.11"/>
<polygon fill="black" stroke="black" points="118.17,-184.64 116.57,-174.16 111.29,-183.35 118.17,-184.64"/>
<text text-anchor="start" x="0" y="-195.01" font-family="Helvetica,sans-Serif" font-size="10.00">Refresh &#45; Host pending input &#160;&#160;</text>
</g>
<!-- resetting&#45;pending&#45;user&#45;action -->
<g id="node5" class="node state regular">
<title>resetting&#45;pending&#45;user&#45;action</title>
<polygon fill="#ffffff" fill-opacity="0.003922" stroke="transparent" stroke-width="2" points="738.5,-120.01 559.5,-120.01 559.5,-84.01 738.5,-84.01 738.5,-120.01"/>
<text text-anchor="start" x="571" y="-98.41" font-family="Helvetica,sans-Serif" font-size="12.00">resetting&#45;pending&#45;user&#45;action</text>
<path fill="none" stroke="black" stroke-width="2" d="M571.5,-85.51C571.5,-85.51 726.5,-85.51 726.5,-85.51 732,-85.51 737.5,-91.01 737.5,-96.51 737.5,-96.51 737.5,-107.51 737.5,-107.51 737.5,-113.01 732,-118.51 726.5,-118.51 726.5,-118.51 571.5,-118.51 571.5,-118.51 566,-118.51 560.5,-113.01 560.5,-107.51 560.5,-107.51 560.5,-96.51 560.5,-96.51 560.5,-91.01 566,-85.51 571.5,-85.51"/>
</g>
<!-- pending&#45;for&#45;input&#45;&gt;resetting&#45;pending&#45;user&#45;action -->
<g id="edge7" class="edge transition">
<title>pending&#45;for&#45;input&#45;&gt;resetting&#45;pending&#45;user&#45;action</title>
<path fill="none" stroke="black" d="M123.66,-143.89C129.66,-142.81 135.7,-141.82 141.5,-141.01 282.45,-121.28 446.97,-110.93 549.33,-105.97"/>
<polygon fill="black" stroke="black" points="549.52,-109.46 559.34,-105.49 549.19,-102.47 549.52,-109.46"/>
<text text-anchor="start" x="186" y="-144.01" font-family="Helvetica,sans-Serif" font-size="10.00">Resetting, Pending User Action &#45; Reset pending user action all states &#160;&#160;</text>
</g>
<!-- unbinding -->
<g id="node6" class="node state regular">
<title>unbinding</title>
<polygon fill="#ffffff" fill-opacity="0.003922" stroke="transparent" stroke-width="2" points="687,-66.01 611,-66.01 611,-30.01 687,-30.01 687,-66.01"/>
<text text-anchor="start" x="622" y="-44.41" font-family="Helvetica,sans-Serif" font-size="12.00">unbinding</text>
<path fill="none" stroke="black" stroke-width="2" d="M623,-31.51C623,-31.51 675,-31.51 675,-31.51 680.5,-31.51 686,-37.01 686,-42.51 686,-42.51 686,-53.51 686,-53.51 686,-59.01 680.5,-64.51 675,-64.51 675,-64.51 623,-64.51 623,-64.51 617.5,-64.51 612,-59.01 612,-53.51 612,-53.51 612,-42.51 612,-42.51 612,-37.01 617.5,-31.51 623,-31.51"/>
</g>
<!-- pending&#45;for&#45;input&#45;&gt;unbinding -->
<g id="edge2" class="edge transition">
<title>pending&#45;for&#45;input&#45;&gt;unbinding</title>
<path fill="none" stroke="black" d="M82.47,-137.85C95.94,-122.41 117.5,-101.18 141.5,-91.01 223.59,-56.23 452.74,-68.45 541.5,-60.01 560.79,-58.18 582.01,-55.85 600.4,-53.73"/>
<polygon fill="black" stroke="black" points="601.05,-57.18 610.57,-52.55 600.24,-50.23 601.05,-57.18"/>
<text text-anchor="start" x="251.5" y="-94.01" font-family="Helvetica,sans-Serif" font-size="10.00">Reclaim Host &#45; Reclaim pre&#45;installation &#160;&#160;</text>
</g>
<!-- pending&#45;for&#45;input&#45;&gt;unbinding -->
<g id="edge8" class="edge transition">
<title>pending&#45;for&#45;input&#45;&gt;unbinding</title>
<path fill="none" stroke="black" d="M74,-137.99C83.63,-112.35 105.23,-66.3 141.5,-47.01 292.82,33.46 507.3,-9.18 601.07,-34.11"/>
<polygon fill="black" stroke="black" points="600.26,-37.52 610.83,-36.76 602.1,-30.77 600.26,-37.52"/>
<text text-anchor="start" x="256" y="-50.01" font-family="Helvetica,sans-Serif" font-size="10.00">Unbind Host &#45; Unbind pre&#45;installation &#160;&#160;</text>
</g>
</g>
</svg>
