<?xml version="1.0" encoding="UTF-8" standalone="no"?>
<!DOCTYPE svg PUBLIC "-//W3C//DTD SVG 1.1//EN"
 "http://www.w3.org/Graphics/SVG/1.1/DTD/svg11.dtd">
<!-- Generated by graphviz version 12.1.0 (20240811.2233)
 -->
<!-- Title: state transitions Pages: 1 -->
<svg width="1127pt" height="260pt"
 viewBox="0.00 0.00 1127.00 260.25" xmlns="http://www.w3.org/2000/svg" xmlns:xlink="http://www.w3.org/1999/xlink">
<g id="graph0" class="graph" transform="scale(1 1) rotate(0) translate(4 256.25)">
<title>state transitions</title>
<polygon fill="white" stroke="none" points="-4,4 -4,-256.25 1123,-256.25 1123,4 -4,4"/>
<!-- added&#45;to&#45;existing&#45;cluster -->
<g id="node1" class="node state regular">
<title>added&#45;to&#45;existing&#45;cluster</title>
<polygon fill="#ffffff" fill-opacity="0.003922" stroke="none" stroke-width="2" points="1105.5,-252.25 934.25,-252.25 934.25,-216 1105.5,-216 1105.5,-252.25"/>
<text text-anchor="start" x="945.25" y="-229.85" font-family="Helvetica,sans-Serif" font-size="12.00">added&#45;to&#45;existing&#45;cluster</text>
<path fill="none" stroke="black" stroke-width="2" d="M946.67,-217C946.67,-217 1093.08,-217 1093.08,-217 1098.79,-217 1104.5,-222.71 1104.5,-228.42 1104.5,-228.42 1104.5,-239.83 1104.5,-239.83 1104.5,-245.54 1098.79,-251.25 1093.08,-251.25 1093.08,-251.25 946.67,-251.25 946.67,-251.25 940.96,-251.25 935.25,-245.54 935.25,-239.83 935.25,-239.83 935.25,-228.42 935.25,-228.42 935.25,-222.71 940.96,-217 946.67,-217"/>
</g>
<!-- cancelled -->
<g id="node2" class="node state regular">
<title>cancelled</title>
<polygon fill="#ffffff" fill-opacity="0.003922" stroke="none" stroke-width="2" points="1059.38,-198.25 980.38,-198.25 980.38,-162 1059.38,-162 1059.38,-198.25"/>
<text text-anchor="start" x="991.38" y="-175.85" font-family="Helvetica,sans-Serif" font-size="12.00">cancelled</text>
<path fill="none" stroke="black" stroke-width="2" d="M992.79,-163C992.79,-163 1046.96,-163 1046.96,-163 1052.67,-163 1058.38,-168.71 1058.38,-174.42 1058.38,-174.42 1058.38,-185.83 1058.38,-185.83 1058.38,-191.54 1052.67,-197.25 1046.96,-197.25 1046.96,-197.25 992.79,-197.25 992.79,-197.25 987.08,-197.25 981.38,-191.54 981.38,-185.83 981.38,-185.83 981.38,-174.42 981.38,-174.42 981.38,-168.71 987.08,-163 992.79,-163"/>
</g>
<!-- error -->
<g id="node3" class="node state regular">
<title>error</title>
<polygon fill="#ffffff" fill-opacity="0.003922" stroke="none" stroke-width="2" points="1047.88,-144.25 991.88,-144.25 991.88,-108 1047.88,-108 1047.88,-144.25"/>
<text text-anchor="start" x="1005.25" y="-121.85" font-family="Helvetica,sans-Serif" font-size="12.00">error</text>
<path fill="none" stroke="black" stroke-width="2" d="M1004.29,-109C1004.29,-109 1035.46,-109 1035.46,-109 1041.17,-109 1046.88,-114.71 1046.88,-120.42 1046.88,-120.42 1046.88,-131.83 1046.88,-131.83 1046.88,-137.54 1041.17,-143.25 1035.46,-143.25 1035.46,-143.25 1004.29,-143.25 1004.29,-143.25 998.58,-143.25 992.88,-137.54 992.88,-131.83 992.88,-131.83 992.88,-120.42 992.88,-120.42 992.88,-114.71 998.58,-109 1004.29,-109"/>
</g>
<!-- installing&#45;in&#45;progress -->
<g id="node4" class="node state regular">
<title>installing&#45;in&#45;progress</title>
<polygon fill="#ffffff" fill-opacity="0.003922" stroke="none" stroke-width="2" points="1092.38,-90.25 947.38,-90.25 947.38,-54 1092.38,-54 1092.38,-90.25"/>
<text text-anchor="start" x="958.38" y="-67.85" font-family="Helvetica,sans-Serif" font-size="12.00">installing&#45;in&#45;progress</text>
<path fill="none" stroke="black" stroke-width="2" d="M959.79,-55C959.79,-55 1079.96,-55 1079.96,-55 1085.67,-55 1091.38,-60.71 1091.38,-66.42 1091.38,-66.42 1091.38,-77.83 1091.38,-77.83 1091.38,-83.54 1085.67,-89.25 1079.96,-89.25 1079.96,-89.25 959.79,-89.25 959.79,-89.25 954.08,-89.25 948.38,-83.54 948.38,-77.83 948.38,-77.83 948.38,-66.42 948.38,-66.42 948.38,-60.71 954.08,-55 959.79,-55"/>
</g>
<!-- installing&#45;pending&#45;user&#45;action -->
<g id="node5" class="node state regular">
<title>installing&#45;pending&#45;user&#45;action</title>
<polygon fill="#ffffff" fill-opacity="0.003922" stroke="none" stroke-width="2" points="531.5,-144.25 333.25,-144.25 333.25,-108 531.5,-108 531.5,-144.25"/>
<text text-anchor="start" x="344.25" y="-121.85" font-family="Helvetica,sans-Serif" font-size="12.00">installing&#45;pending&#45;user&#45;action</text>
<path fill="none" stroke="black" stroke-width="2" d="M345.67,-109C345.67,-109 519.08,-109 519.08,-109 524.79,-109 530.5,-114.71 530.5,-120.42 530.5,-120.42 530.5,-131.83 530.5,-131.83 530.5,-137.54 524.79,-143.25 519.08,-143.25 519.08,-143.25 345.67,-143.25 345.67,-143.25 339.96,-143.25 334.25,-137.54 334.25,-131.83 334.25,-131.83 334.25,-120.42 334.25,-120.42 334.25,-114.71 339.96,-109 345.67,-109"/>
</g>
<!-- installing&#45;pending&#45;user&#45;action&#45;&gt;added&#45;to&#45;existing&#45;cluster -->
<g id="edge2" class="edge transition">
<title>installing&#45;pending&#45;user&#45;action&#45;&gt;added&#45;to&#45;existing&#45;cluster</title>
<path fill="none" stroke="black" d="M459.24,-144.12C481.93,-158.91 516.38,-179.01 549.5,-189.12 674.77,-227.37 826.8,-235.39 923.2,-236.02"/>
<polygon fill="black" stroke="black" points="923.15,-239.52 933.17,-236.06 923.18,-232.52 923.15,-239.52"/>
<text text-anchor="start" x="549.5" y="-239.01" font-family="Helvetica,sans-Serif" font-size="10.00">null &#45; host progress changed to added&#45;to&#45;existing&#45;cluster for day2 host &#160;&#160;</text>
</g>
<!-- installing&#45;pending&#45;user&#45;action&#45;&gt;cancelled -->
<g id="edge1" class="edge transition">
<title>installing&#45;pending&#45;user&#45;action&#45;&gt;cancelled</title>
<path fill="none" stroke="black" d="M531.2,-140.92C537.39,-141.71 543.53,-142.45 549.5,-143.12 701.95,-160.27 883.13,-172.16 968.99,-177.29"/>
<polygon fill="black" stroke="black" points="968.76,-180.78 978.95,-177.88 969.17,-173.79 968.76,-180.78"/>
<text text-anchor="start" x="564.5" y="-175.8" font-family="Helvetica,sans-Serif" font-size="10.00">Cancel Installation &#45; Installation canceled while host is installing &#160;&#160;</text>
</g>
<!-- installing&#45;pending&#45;user&#45;action&#45;&gt;error -->
<g id="edge5" class="edge transition">
<title>installing&#45;pending&#45;user&#45;action&#45;&gt;error</title>
<path fill="none" stroke="black" d="M531.37,-126.12C663.01,-126.12 890.78,-126.12 980.74,-126.12"/>
<polygon fill="black" stroke="black" points="980.49,-129.63 990.49,-126.13 980.49,-122.63 980.49,-129.63"/>
<text text-anchor="start" x="595.62" y="-129.38" font-family="Helvetica,sans-Serif" font-size="10.00">Refresh &#45; Move host to error when cluster is in error &#160;&#160;</text>
</g>
<!-- installing&#45;pending&#45;user&#45;action&#45;&gt;installing&#45;in&#45;progress -->
<g id="edge3" class="edge transition">
<title>installing&#45;pending&#45;user&#45;action&#45;&gt;installing&#45;in&#45;progress</title>
<path fill="none" stroke="black" d="M531.2,-111.56C537.39,-110.78 543.53,-110.04 549.5,-109.38 684.61,-94.28 842.27,-83.08 936.16,-77.08"/>
<polygon fill="black" stroke="black" points="936.3,-80.58 946.06,-76.45 935.86,-73.59 936.3,-80.58"/>
<text text-anchor="start" x="633.88" y="-112.62" font-family="Helvetica,sans-Serif" font-size="10.00">null &#45; default host progress changed &#160;&#160;</text>
</g>
<!-- installing&#45;pending&#45;user&#45;action&#45;&gt;installing&#45;pending&#45;user&#45;action -->
<g id="edge4" class="edge transition">
<title>installing&#45;pending&#45;user&#45;action&#45;&gt;installing&#45;pending&#45;user&#45;action</title>
<path fill="none" stroke="black" d="M414.77,-143.97C411.78,-153.53 417.65,-162.25 432.38,-162.25 440.66,-162.25 446.14,-159.49 448.82,-155.38"/>
<polygon fill="black" stroke="black" points="452.29,-155.78 449.82,-145.47 445.33,-155.07 452.29,-155.78"/>
<text text-anchor="start" x="0" y="-165.5" font-family="Helvetica,sans-Serif" font-size="10.00">null &#45; Host progress change during installing&#45;pending&#45;user&#45;action state when host is not in state Done (or Rebooting in day2) should stay in installing&#45;pending&#45;user&#45;action state &#160;&#160;</text>
</g>
<!-- installing&#45;pending&#45;user&#45;action&#45;&gt;installing&#45;pending&#45;user&#45;action -->
<g id="edge6" class="edge transition">
<title>installing&#45;pending&#45;user&#45;action&#45;&gt;installing&#45;pending&#45;user&#45;action</title>
<path fill="none" stroke="black" d="M402.94,-144.14C387.18,-161.41 396.99,-180.25 432.38,-180.25 461.4,-180.25 473.22,-167.57 467.83,-153.48"/>
<polygon fill="black" stroke="black" points="470.99,-151.93 462.63,-145.42 465.11,-155.72 470.99,-151.93"/>
<text text-anchor="start" x="105" y="-183.5" font-family="Helvetica,sans-Serif" font-size="10.00">Refresh &#45; Refresh during installing&#45;pending&#45;user&#45;action state without cluster error should stay in installing&#45;pending&#45;user&#45;action state &#160;&#160;</text>
</g>
<!-- installing&#45;pending&#45;user&#45;action&#45;&gt;installing&#45;pending&#45;user&#45;action -->
<g id="edge7" class="edge transition">
<title>installing&#45;pending&#45;user&#45;action&#45;&gt;installing&#45;pending&#45;user&#45;action</title>
<path fill="none" stroke="black" d="M395.21,-144.23C362.33,-168.61 374.72,-198.25 432.38,-198.25 484.18,-198.25 499.44,-174.32 478.16,-151.79"/>
<polygon fill="black" stroke="black" points="480.5,-149.19 470.68,-145.23 475.89,-154.46 480.5,-149.19"/>
<text text-anchor="start" x="323.25" y="-201.5" font-family="Helvetica,sans-Serif" font-size="10.00">Register Host &#45; Wrong boot order detection &#160;&#160;</text>
</g>
<!-- resetting&#45;pending&#45;user&#45;action -->
<g id="node6" class="node state regular">
<title>resetting&#45;pending&#45;user&#45;action</title>
<polygon fill="#ffffff" fill-opacity="0.003922" stroke="none" stroke-width="2" points="1119,-36.25 920.75,-36.25 920.75,0 1119,0 1119,-36.25"/>
<text text-anchor="start" x="931.75" y="-13.85" font-family="Helvetica,sans-Serif" font-size="12.00">resetting&#45;pending&#45;user&#45;action</text>
<path fill="none" stroke="black" stroke-width="2" d="M933.17,-1C933.17,-1 1106.58,-1 1106.58,-1 1112.29,-1 1118,-6.71 1118,-12.42 1118,-12.42 1118,-23.83 1118,-23.83 1118,-29.54 1112.29,-35.25 1106.58,-35.25 1106.58,-35.25 933.17,-35.25 933.17,-35.25 927.46,-35.25 921.75,-29.54 921.75,-23.83 921.75,-23.83 921.75,-12.42 921.75,-12.42 921.75,-6.71 927.46,-1 933.17,-1"/>
</g>
<!-- installing&#45;pending&#45;user&#45;action&#45;&gt;resetting&#45;pending&#45;user&#45;action -->
<g id="edge8" class="edge transition">
<title>installing&#45;pending&#45;user&#45;action&#45;&gt;resetting&#45;pending&#45;user&#45;action</title>
<path fill="none" stroke="black" d="M459.25,-108.21C481.95,-93.48 516.4,-73.46 549.5,-63.38 669.09,-26.94 813.01,-17.87 909.7,-16.48"/>
<polygon fill="black" stroke="black" points="909.48,-19.99 919.44,-16.37 909.4,-12.99 909.48,-19.99"/>
<text text-anchor="start" x="554" y="-66.62" font-family="Helvetica,sans-Serif" font-size="10.00">Resetting, Pending User Action &#45; Reset pending user action all states &#160;&#160;</text>
</g>
</g>
</svg>
