<?xml version="1.0" encoding="UTF-8" standalone="no"?>
<!DOCTYPE svg PUBLIC "-//W3C//DTD SVG 1.1//EN"
 "http://www.w3.org/Graphics/SVG/1.1/DTD/svg11.dtd">
<!-- Generated by graphviz version 12.1.0 (20240811.2233)
 -->
<!-- Title: state transitions Pages: 1 -->
<svg width="826pt" height="81pt"
 viewBox="0.00 0.00 825.50 80.81" xmlns="http://www.w3.org/2000/svg" xmlns:xlink="http://www.w3.org/1999/xlink">
<g id="graph0" class="graph" transform="scale(1 1) rotate(0) translate(4 76.81)">
<title>state transitions</title>
<polygon fill="white" stroke="none" points="-4,4 -4,-76.81 821.5,-76.81 821.5,4 -4,4"/>
<!-- reclaiming&#45;rebooting -->
<g id="node1" class="node state regular">
<title>reclaiming&#45;rebooting</title>
<polygon fill="#ffffff" fill-opacity="0.003922" stroke="none" stroke-width="2" points="317.75,-42.06 172,-42.06 172,-5.81 317.75,-5.81 317.75,-42.06"/>
<text text-anchor="start" x="183" y="-19.66" font-family="Helvetica,sans-Serif" font-size="12.00">reclaiming&#45;rebooting</text>
<path fill="none" stroke="black" stroke-width="2" d="M184.42,-6.81C184.42,-6.81 305.33,-6.81 305.33,-6.81 311.04,-6.81 316.75,-12.52 316.75,-18.23 316.75,-18.23 316.75,-29.64 316.75,-29.64 316.75,-35.35 311.04,-41.06 305.33,-41.06 305.33,-41.06 184.42,-41.06 184.42,-41.06 178.71,-41.06 173,-35.35 173,-29.64 173,-29.64 173,-18.23 173,-18.23 173,-12.52 178.71,-6.81 184.42,-6.81"/>
</g>
<!-- reclaiming&#45;rebooting&#45;&gt;reclaiming&#45;rebooting -->
<g id="edge3" class="edge transition">
<title>reclaiming&#45;rebooting&#45;&gt;reclaiming&#45;rebooting</title>
<path fill="none" stroke="black" d="M205.15,-41.78C198.4,-51.35 211.64,-60.06 244.88,-60.06 264.09,-60.06 276.62,-57.15 282.47,-52.84"/>
<polygon fill="black" stroke="black" points="285.86,-53.75 284.32,-43.27 278.99,-52.42 285.86,-53.75"/>
<text text-anchor="start" x="0" y="-63.31" font-family="Helvetica,sans-Serif" font-size="10.00">Refresh &#45; Refresh without timeout during reclaiming&#45;rebooting should stay in reclaiming&#45;rebooting &#160;&#160;</text>
</g>
<!-- unbinding&#45;pending&#45;user&#45;action -->
<g id="node2" class="node state regular">
<title>unbinding&#45;pending&#45;user&#45;action</title>
<polygon fill="#ffffff" fill-opacity="0.003922" stroke="none" stroke-width="2" points="817.5,-42.06 614,-42.06 614,-5.81 817.5,-5.81 817.5,-42.06"/>
<text text-anchor="start" x="625" y="-19.66" font-family="Helvetica,sans-Serif" font-size="12.00">unbinding&#45;pending&#45;user&#45;action</text>
<path fill="none" stroke="black" stroke-width="2" d="M626.42,-6.81C626.42,-6.81 805.08,-6.81 805.08,-6.81 810.79,-6.81 816.5,-12.52 816.5,-18.23 816.5,-18.23 816.5,-29.64 816.5,-29.64 816.5,-35.35 810.79,-41.06 805.08,-41.06 805.08,-41.06 626.42,-41.06 626.42,-41.06 620.71,-41.06 615,-35.35 615,-29.64 615,-29.64 615,-18.23 615,-18.23 615,-12.52 620.71,-6.81 626.42,-6.81"/>
</g>
<!-- reclaiming&#45;rebooting&#45;&gt;unbinding&#45;pending&#45;user&#45;action -->
<g id="edge1" class="edge transition">
<title>reclaiming&#45;rebooting&#45;&gt;unbinding&#45;pending&#45;user&#45;action</title>
<path fill="none" stroke="black" d="M317.6,-23.94C393.54,-23.94 514.43,-23.94 602.9,-23.94"/>
<polygon fill="black" stroke="black" points="602.83,-27.44 612.83,-23.94 602.83,-20.44 602.83,-27.44"/>
<text text-anchor="start" x="335.75" y="-27.19" font-family="Helvetica,sans-Serif" font-size="10.00">Reclaim Failed &#45; Reclaim failure for reclaiming host &#160;&#160;</text>
</g>
<!-- reclaiming&#45;rebooting&#45;&gt;unbinding&#45;pending&#45;user&#45;action -->
<g id="edge2" class="edge transition">
<title>reclaiming&#45;rebooting&#45;&gt;unbinding&#45;pending&#45;user&#45;action</title>
<path fill="none" stroke="black" d="M317.33,-9.39C323.54,-8.5 329.74,-7.74 335.75,-7.19 450.93,3.46 480.62,0.91 596,-7.19 598.22,-7.34 600.46,-7.51 602.72,-7.7"/>
<polygon fill="black" stroke="black" points="602.33,-11.18 612.6,-8.61 602.97,-4.21 602.33,-11.18"/>
<text text-anchor="start" x="379.62" y="-10.44" font-family="Helvetica,sans-Serif" font-size="10.00">Refresh &#45; Refresh reclaiming host &#160;&#160;</text>
</g>
</g>
</svg>
