<?xml version="1.0" encoding="UTF-8" standalone="no"?>
<!DOCTYPE svg PUBLIC "-//W3C//DTD SVG 1.1//EN"
 "http://www.w3.org/Graphics/SVG/1.1/DTD/svg11.dtd">
<!-- Generated by graphviz version 5.0.0 (0)
 -->
<!-- Title: state transitions Pages: 1 -->
<svg width="747pt" height="138pt"
 viewBox="0.00 0.00 746.50 137.73" xmlns="http://www.w3.org/2000/svg" xmlns:xlink="http://www.w3.org/1999/xlink">
<g id="graph0" class="graph" transform="scale(1 1) rotate(0) translate(4 133.73)">
<title>state transitions</title>
<polygon fill="white" stroke="transparent" points="-4,4 -4,-133.73 742.5,-133.73 742.5,4 -4,4"/>
<!-- cancelled -->
<g id="node1" class="node state regular">
<title>cancelled</title>
<polygon fill="#ffffff" fill-opacity="0.003922" stroke="transparent" stroke-width="2" points="205.5,-71.73 131.5,-71.73 131.5,-35.73 205.5,-35.73 205.5,-71.73"/>
<text text-anchor="start" x="142.5" y="-50.13" font-family="Helvetica,sans-Serif" font-size="12.00">cancelled</text>
<path fill="none" stroke="black" stroke-width="2" d="M143.5,-37.23C143.5,-37.23 193.5,-37.23 193.5,-37.23 199,-37.23 204.5,-42.73 204.5,-48.23 204.5,-48.23 204.5,-59.23 204.5,-59.23 204.5,-64.73 199,-70.23 193.5,-70.23 193.5,-70.23 143.5,-70.23 143.5,-70.23 138,-70.23 132.5,-64.73 132.5,-59.23 132.5,-59.23 132.5,-48.23 132.5,-48.23 132.5,-42.73 138,-37.23 143.5,-37.23"/>
</g>
<!-- cancelled&#45;&gt;cancelled -->
<g id="edge2" class="edge transition">
<title>cancelled&#45;&gt;cancelled</title>
<path fill="none" stroke="black" d="M149.5,-71.88C146.58,-81.26 152.91,-89.73 168.5,-89.73 178,-89.73 184.06,-86.58 186.68,-82.01"/>
<polygon fill="black" stroke="black" points="190.19,-82.13 187.5,-71.88 183.21,-81.57 190.19,-82.13"/>
<text text-anchor="start" x="0" y="-92.73" font-family="Helvetica,sans-Serif" font-size="10.00">Refresh &#45; Log collection timed out during cancelled should stay in cancelled &#160;&#160;</text>
</g>
<!-- cancelled&#45;&gt;cancelled -->
<g id="edge3" class="edge transition">
<title>cancelled&#45;&gt;cancelled</title>
<path fill="none" stroke="black" d="M136.66,-71.98C120.15,-89.13 130.77,-107.73 168.5,-107.73 200.04,-107.73 212.63,-94.73 206.27,-80.45"/>
<polygon fill="black" stroke="black" points="208.94,-78.16 200.34,-71.98 203.21,-82.18 208.94,-78.16"/>
<text text-anchor="start" x="34.5" y="-110.73" font-family="Helvetica,sans-Serif" font-size="10.00">Refresh &#45; Refresh during cancelled should stay in cancelled &#160;&#160;</text>
</g>
<!-- resetting&#45;pending&#45;user&#45;action -->
<g id="node2" class="node state regular">
<title>resetting&#45;pending&#45;user&#45;action</title>
<polygon fill="#ffffff" fill-opacity="0.003922" stroke="transparent" stroke-width="2" points="735,-105.73 556,-105.73 556,-69.73 735,-69.73 735,-105.73"/>
<text text-anchor="start" x="567.5" y="-84.13" font-family="Helvetica,sans-Serif" font-size="12.00">resetting&#45;pending&#45;user&#45;action</text>
<path fill="none" stroke="black" stroke-width="2" d="M568,-71.23C568,-71.23 723,-71.23 723,-71.23 728.5,-71.23 734,-76.73 734,-82.23 734,-82.23 734,-93.23 734,-93.23 734,-98.73 728.5,-104.23 723,-104.23 723,-104.23 568,-104.23 568,-104.23 562.5,-104.23 557,-98.73 557,-93.23 557,-93.23 557,-82.23 557,-82.23 557,-76.73 562.5,-71.23 568,-71.23"/>
</g>
<!-- cancelled&#45;&gt;resetting&#45;pending&#45;user&#45;action -->
<g id="edge4" class="edge transition">
<title>cancelled&#45;&gt;resetting&#45;pending&#45;user&#45;action</title>
<path fill="none" stroke="black" d="M205.69,-61.86C211.62,-62.97 217.71,-63.98 223.5,-64.73 333.21,-78.82 460.08,-84.29 545.64,-86.4"/>
<polygon fill="black" stroke="black" points="545.78,-89.91 555.86,-86.65 545.95,-82.91 545.78,-89.91"/>
<text text-anchor="start" x="223.5" y="-88.73" font-family="Helvetica,sans-Serif" font-size="10.00">Resetting, Pending User Action &#45; Reset pending user action all states &#160;&#160;</text>
</g>
<!-- unbinding&#45;pending&#45;user&#45;action -->
<g id="node3" class="node state regular">
<title>unbinding&#45;pending&#45;user&#45;action</title>
<polygon fill="#ffffff" fill-opacity="0.003922" stroke="transparent" stroke-width="2" points="738.5,-44.73 552.5,-44.73 552.5,-8.73 738.5,-8.73 738.5,-44.73"/>
<text text-anchor="start" x="563.5" y="-23.13" font-family="Helvetica,sans-Serif" font-size="12.00">unbinding&#45;pending&#45;user&#45;action</text>
<path fill="none" stroke="black" stroke-width="2" d="M564.5,-10.23C564.5,-10.23 726.5,-10.23 726.5,-10.23 732,-10.23 737.5,-15.73 737.5,-21.23 737.5,-21.23 737.5,-32.23 737.5,-32.23 737.5,-37.73 732,-43.23 726.5,-43.23 726.5,-43.23 564.5,-43.23 564.5,-43.23 559,-43.23 553.5,-37.73 553.5,-32.23 553.5,-32.23 553.5,-21.23 553.5,-21.23 553.5,-15.73 559,-10.23 564.5,-10.23"/>
</g>
<!-- cancelled&#45;&gt;unbinding&#45;pending&#45;user&#45;action -->
<g id="edge1" class="edge transition">
<title>cancelled&#45;&gt;unbinding&#45;pending&#45;user&#45;action</title>
<path fill="none" stroke="black" d="M205.59,-51.67C276.48,-47.64 436.21,-38.57 542.16,-32.54"/>
<polygon fill="black" stroke="black" points="542.45,-36.03 552.24,-31.97 542.05,-29.04 542.45,-36.03"/>
<text text-anchor="start" x="298.5" y="-52.73" font-family="Helvetica,sans-Serif" font-size="10.00">Reclaim Host &#45; Reclaim failed host &#160;&#160;</text>
</g>
<!-- cancelled&#45;&gt;unbinding&#45;pending&#45;user&#45;action -->
<g id="edge5" class="edge transition">
<title>cancelled&#45;&gt;unbinding&#45;pending&#45;user&#45;action</title>
<path fill="none" stroke="black" d="M191.18,-35.59C200.51,-28.91 211.93,-22.15 223.5,-18.73 356.05,20.47 396.37,-13.71 534.5,-18.73 537.05,-18.82 539.64,-18.92 542.25,-19.04"/>
<polygon fill="black" stroke="black" points="542.24,-22.54 552.4,-19.53 542.58,-15.55 542.24,-22.54"/>
<text text-anchor="start" x="270.5" y="-21.73" font-family="Helvetica,sans-Serif" font-size="10.00">Unbind Host &#45; Unbind during or after installation &#160;&#160;</text>
</g>
</g>
</svg>
