<?xml version="1.0" encoding="UTF-8" standalone="no"?>
<!DOCTYPE svg PUBLIC "-//W3C//DTD SVG 1.1//EN"
 "http://www.w3.org/Graphics/SVG/1.1/DTD/svg11.dtd">
<!-- Generated by graphviz version 5.0.0 (0)
 -->
<!-- Title: state transitions Pages: 1 -->
<svg width="530pt" height="44pt"
 viewBox="0.00 0.00 530.00 44.00" xmlns="http://www.w3.org/2000/svg" xmlns:xlink="http://www.w3.org/1999/xlink">
<g id="graph0" class="graph" transform="scale(1 1) rotate(0) translate(4 40)">
<title>state transitions</title>
<polygon fill="white" stroke="transparent" points="-4,4 -4,-40 526,-40 526,4 -4,4"/>
<!-- reclaiming -->
<g id="node1" class="node state regular">
<title>reclaiming</title>
<polygon fill="#ffffff" fill-opacity="0.003922" stroke="transparent" stroke-width="2" points="78,-36 0,-36 0,0 78,0 78,-36"/>
<text text-anchor="start" x="11" y="-14.4" font-family="Helvetica,sans-Serif" font-size="12.00">reclaiming</text>
<path fill="none" stroke="black" stroke-width="2" d="M12,-1.5C12,-1.5 66,-1.5 66,-1.5 71.5,-1.5 77,-7 77,-12.5 77,-12.5 77,-23.5 77,-23.5 77,-29 71.5,-34.5 66,-34.5 66,-34.5 12,-34.5 12,-34.5 6.5,-34.5 1,-29 1,-23.5 1,-23.5 1,-12.5 1,-12.5 1,-7 6.5,-1.5 12,-1.5"/>
</g>
<!-- reclaiming&#45;rebooting -->
<g id="node2" class="node state regular">
<title>reclaiming&#45;rebooting</title>
<polygon fill="#ffffff" fill-opacity="0.003922" stroke="transparent" stroke-width="2" points="522,-36 390,-36 390,0 522,0 522,-36"/>
<text text-anchor="start" x="401" y="-14.4" font-family="Helvetica,sans-Serif" font-size="12.00">reclaiming&#45;rebooting</text>
<path fill="none" stroke="black" stroke-width="2" d="M402,-1.5C402,-1.5 510,-1.5 510,-1.5 515.5,-1.5 521,-7 521,-12.5 521,-12.5 521,-23.5 521,-23.5 521,-29 515.5,-34.5 510,-34.5 510,-34.5 402,-34.5 402,-34.5 396.5,-34.5 391,-29 391,-23.5 391,-23.5 391,-12.5 391,-12.5 391,-7 396.5,-1.5 402,-1.5"/>
</g>
<!-- reclaiming&#45;&gt;reclaiming&#45;rebooting -->
<g id="edge1" class="edge transition">
<title>reclaiming&#45;&gt;reclaiming&#45;rebooting</title>
<path fill="none" stroke="black" d="M78.3,-18C146.7,-18 290.98,-18 379.8,-18"/>
<polygon fill="black" stroke="black" points="379.81,-21.5 389.81,-18 379.81,-14.5 379.81,-21.5"/>
<text text-anchor="start" x="96" y="-21" font-family="Helvetica,sans-Serif" font-size="10.00">Rebooting for Reclaim &#45; Rebooting for reclaim reclaiming host &#160;&#160;</text>
</g>
</g>
</svg>
