<?xml version="1.0" encoding="UTF-8" standalone="no"?>
<!DOCTYPE svg PUBLIC "-//W3C//DTD SVG 1.1//EN"
 "http://www.w3.org/Graphics/SVG/1.1/DTD/svg11.dtd">
<!-- Generated by graphviz version 7.1.0 (0)
 -->
<!-- Title: state transitions Pages: 1 -->
<svg width="568pt" height="476pt"
 viewBox="0.00 0.00 568.00 476.00" xmlns="http://www.w3.org/2000/svg" xmlns:xlink="http://www.w3.org/1999/xlink">
<g id="graph0" class="graph" transform="scale(1 1) rotate(0) translate(4 472)">
<title>state transitions</title>
<polygon fill="white" stroke="none" points="-4,4 -4,-472 564,-472 564,4 -4,4"/>
<!-- added&#45;to&#45;existing&#45;cluster -->
<g id="node1" class="node state regular">
<title>added&#45;to&#45;existing&#45;cluster</title>
<polygon fill="#ffffff" fill-opacity="0.003922" stroke="none" stroke-width="2" points="153,-90 0,-90 0,-54 153,-54 153,-90"/>
<text text-anchor="start" x="11.5" y="-68.4" font-family="Helvetica,sans-Serif" font-size="12.00">added&#45;to&#45;existing&#45;cluster</text>
<path fill="none" stroke="black" stroke-width="2" d="M12,-55.5C12,-55.5 141,-55.5 141,-55.5 146.5,-55.5 152,-61 152,-66.5 152,-66.5 152,-77.5 152,-77.5 152,-83 146.5,-88.5 141,-88.5 141,-88.5 12,-88.5 12,-88.5 6.5,-88.5 1,-83 1,-77.5 1,-77.5 1,-66.5 1,-66.5 1,-61 6.5,-55.5 12,-55.5"/>
</g>
<!-- reclaiming -->
<g id="node10" class="node state regular">
<title>reclaiming</title>
<polygon fill="#ffffff" fill-opacity="0.003922" stroke="none" stroke-width="2" points="506,-63 428,-63 428,-27 506,-27 506,-63"/>
<text text-anchor="start" x="439" y="-41.4" font-family="Helvetica,sans-Serif" font-size="12.00">reclaiming</text>
<path fill="none" stroke="black" stroke-width="2" d="M440,-28.5C440,-28.5 494,-28.5 494,-28.5 499.5,-28.5 505,-34 505,-39.5 505,-39.5 505,-50.5 505,-50.5 505,-56 499.5,-61.5 494,-61.5 494,-61.5 440,-61.5 440,-61.5 434.5,-61.5 429,-56 429,-50.5 429,-50.5 429,-39.5 429,-39.5 429,-34 434.5,-28.5 440,-28.5"/>
</g>
<!-- added&#45;to&#45;existing&#45;cluster&#45;&gt;reclaiming -->
<g id="edge2" class="edge transition">
<title>added&#45;to&#45;existing&#45;cluster&#45;&gt;reclaiming</title>
<path fill="none" stroke="black" d="M152.87,-66.76C230.72,-61.35 349.97,-53.06 416.59,-48.43"/>
<polygon fill="black" stroke="black" points="416.76,-51.93 426.49,-47.75 416.28,-44.95 416.76,-51.93"/>
<text text-anchor="start" x="171" y="-69" font-family="Helvetica,sans-Serif" font-size="10.00">Reclaim Host &#45; Reclaim successful host &#160;&#160;</text>
</g>
<!-- cancelled -->
<g id="node2" class="node state regular">
<title>cancelled</title>
<polygon fill="#ffffff" fill-opacity="0.003922" stroke="none" stroke-width="2" points="113.5,-198 39.5,-198 39.5,-162 113.5,-162 113.5,-198"/>
<text text-anchor="start" x="50.5" y="-176.4" font-family="Helvetica,sans-Serif" font-size="12.00">cancelled</text>
<path fill="none" stroke="black" stroke-width="2" d="M51.5,-163.5C51.5,-163.5 101.5,-163.5 101.5,-163.5 107,-163.5 112.5,-169 112.5,-174.5 112.5,-174.5 112.5,-185.5 112.5,-185.5 112.5,-191 107,-196.5 101.5,-196.5 101.5,-196.5 51.5,-196.5 51.5,-196.5 46,-196.5 40.5,-191 40.5,-185.5 40.5,-185.5 40.5,-174.5 40.5,-174.5 40.5,-169 46,-163.5 51.5,-163.5"/>
</g>
<!-- unbinding&#45;pending&#45;user&#45;action -->
<g id="node12" class="node state regular">
<title>unbinding&#45;pending&#45;user&#45;action</title>
<polygon fill="#ffffff" fill-opacity="0.003922" stroke="none" stroke-width="2" points="560,-171 374,-171 374,-135 560,-135 560,-171"/>
<text text-anchor="start" x="385" y="-149.4" font-family="Helvetica,sans-Serif" font-size="12.00">unbinding&#45;pending&#45;user&#45;action</text>
<path fill="none" stroke="black" stroke-width="2" d="M386,-136.5C386,-136.5 548,-136.5 548,-136.5 553.5,-136.5 559,-142 559,-147.5 559,-147.5 559,-158.5 559,-158.5 559,-164 553.5,-169.5 548,-169.5 548,-169.5 386,-169.5 386,-169.5 380.5,-169.5 375,-164 375,-158.5 375,-158.5 375,-147.5 375,-147.5 375,-142 380.5,-136.5 386,-136.5"/>
</g>
<!-- cancelled&#45;&gt;unbinding&#45;pending&#45;user&#45;action -->
<g id="edge9" class="edge transition">
<title>cancelled&#45;&gt;unbinding&#45;pending&#45;user&#45;action</title>
<path fill="none" stroke="black" d="M113.35,-177.51C169.51,-173.61 280.31,-165.91 362.8,-160.17"/>
<polygon fill="black" stroke="black" points="363,-163.67 372.73,-159.48 362.51,-156.68 363,-163.67"/>
<text text-anchor="start" x="183" y="-176" font-family="Helvetica,sans-Serif" font-size="10.00">Reclaim Host &#45; Reclaim failed host &#160;&#160;</text>
</g>
<!-- disconnected -->
<g id="node3" class="node state regular">
<title>disconnected</title>
<polygon fill="#ffffff" fill-opacity="0.003922" stroke="none" stroke-width="2" points="123.5,-468 29.5,-468 29.5,-432 123.5,-432 123.5,-468"/>
<text text-anchor="start" x="40.5" y="-446.4" font-family="Helvetica,sans-Serif" font-size="12.00">disconnected</text>
<path fill="none" stroke="black" stroke-width="2" d="M41.5,-433.5C41.5,-433.5 111.5,-433.5 111.5,-433.5 117,-433.5 122.5,-439 122.5,-444.5 122.5,-444.5 122.5,-455.5 122.5,-455.5 122.5,-461 117,-466.5 111.5,-466.5 111.5,-466.5 41.5,-466.5 41.5,-466.5 36,-466.5 30.5,-461 30.5,-455.5 30.5,-455.5 30.5,-444.5 30.5,-444.5 30.5,-439 36,-433.5 41.5,-433.5"/>
</g>
<!-- unbinding -->
<g id="node11" class="node state regular">
<title>unbinding</title>
<polygon fill="#ffffff" fill-opacity="0.003922" stroke="none" stroke-width="2" points="505,-360 429,-360 429,-324 505,-324 505,-360"/>
<text text-anchor="start" x="440" y="-338.4" font-family="Helvetica,sans-Serif" font-size="12.00">unbinding</text>
<path fill="none" stroke="black" stroke-width="2" d="M441,-325.5C441,-325.5 493,-325.5 493,-325.5 498.5,-325.5 504,-331 504,-336.5 504,-336.5 504,-347.5 504,-347.5 504,-353 498.5,-358.5 493,-358.5 493,-358.5 441,-358.5 441,-358.5 435.5,-358.5 430,-353 430,-347.5 430,-347.5 430,-336.5 430,-336.5 430,-331 435.5,-325.5 441,-325.5"/>
</g>
<!-- disconnected&#45;&gt;unbinding -->
<g id="edge5" class="edge transition">
<title>disconnected&#45;&gt;unbinding</title>
<path fill="none" stroke="black" d="M123.34,-445.2C179.36,-438.45 276.5,-423.86 356,-397 380.23,-388.81 405.86,-376.25 426.28,-365.2"/>
<polygon fill="black" stroke="black" points="427.76,-368.38 434.83,-360.48 424.38,-362.25 427.76,-368.38"/>
<text text-anchor="start" x="173.5" y="-441" font-family="Helvetica,sans-Serif" font-size="10.00">Reclaim Host &#45; Reclaim pre&#45;installation &#160;&#160;</text>
</g>
<!-- discovering -->
<g id="node4" class="node state regular">
<title>discovering</title>
<polygon fill="#ffffff" fill-opacity="0.003922" stroke="none" stroke-width="2" points="118.5,-414 34.5,-414 34.5,-378 118.5,-378 118.5,-414"/>
<text text-anchor="start" x="45.5" y="-392.4" font-family="Helvetica,sans-Serif" font-size="12.00">discovering</text>
<path fill="none" stroke="black" stroke-width="2" d="M46.5,-379.5C46.5,-379.5 106.5,-379.5 106.5,-379.5 112,-379.5 117.5,-385 117.5,-390.5 117.5,-390.5 117.5,-401.5 117.5,-401.5 117.5,-407 112,-412.5 106.5,-412.5 106.5,-412.5 46.5,-412.5 46.5,-412.5 41,-412.5 35.5,-407 35.5,-401.5 35.5,-401.5 35.5,-390.5 35.5,-390.5 35.5,-385 41,-379.5 46.5,-379.5"/>
</g>
<!-- discovering&#45;&gt;unbinding -->
<g id="edge4" class="edge transition">
<title>discovering&#45;&gt;unbinding</title>
<path fill="none" stroke="black" d="M118.34,-390.32C190.61,-380.28 340.66,-359.42 417.84,-348.69"/>
<polygon fill="black" stroke="black" points="418.21,-352.18 427.63,-347.33 417.24,-345.24 418.21,-352.18"/>
<text text-anchor="start" x="173.5" y="-385" font-family="Helvetica,sans-Serif" font-size="10.00">Reclaim Host &#45; Reclaim pre&#45;installation &#160;&#160;</text>
</g>
<!-- error -->
<g id="node5" class="node state regular">
<title>error</title>
<polygon fill="#ffffff" fill-opacity="0.003922" stroke="none" stroke-width="2" points="104.5,-144 48.5,-144 48.5,-108 104.5,-108 104.5,-144"/>
<text text-anchor="start" x="64" y="-122.4" font-family="Helvetica,sans-Serif" font-size="12.00">error</text>
<path fill="none" stroke="black" stroke-width="2" d="M60.5,-109.5C60.5,-109.5 92.5,-109.5 92.5,-109.5 98,-109.5 103.5,-115 103.5,-120.5 103.5,-120.5 103.5,-131.5 103.5,-131.5 103.5,-137 98,-142.5 92.5,-142.5 92.5,-142.5 60.5,-142.5 60.5,-142.5 55,-142.5 49.5,-137 49.5,-131.5 49.5,-131.5 49.5,-120.5 49.5,-120.5 49.5,-115 55,-109.5 60.5,-109.5"/>
</g>
<!-- error&#45;&gt;unbinding&#45;pending&#45;user&#45;action -->
<g id="edge8" class="edge transition">
<title>error&#45;&gt;unbinding&#45;pending&#45;user&#45;action</title>
<path fill="none" stroke="black" d="M104.2,-127.86C156.68,-131.5 275.71,-139.78 362.97,-145.84"/>
<polygon fill="black" stroke="black" points="362.53,-149.32 372.75,-146.52 363.01,-142.33 362.53,-149.32"/>
<text text-anchor="start" x="183" y="-148" font-family="Helvetica,sans-Serif" font-size="10.00">Reclaim Host &#45; Reclaim failed host &#160;&#160;</text>
</g>
<!-- installed -->
<g id="node6" class="node state regular">
<title>installed</title>
<polygon fill="#ffffff" fill-opacity="0.003922" stroke="none" stroke-width="2" points="110.5,-36 42.5,-36 42.5,0 110.5,0 110.5,-36"/>
<text text-anchor="start" x="53.5" y="-14.4" font-family="Helvetica,sans-Serif" font-size="12.00">installed</text>
<path fill="none" stroke="black" stroke-width="2" d="M54.5,-1.5C54.5,-1.5 98.5,-1.5 98.5,-1.5 104,-1.5 109.5,-7 109.5,-12.5 109.5,-12.5 109.5,-23.5 109.5,-23.5 109.5,-29 104,-34.5 98.5,-34.5 98.5,-34.5 54.5,-34.5 54.5,-34.5 49,-34.5 43.5,-29 43.5,-23.5 43.5,-23.5 43.5,-12.5 43.5,-12.5 43.5,-7 49,-1.5 54.5,-1.5"/>
</g>
<!-- installed&#45;&gt;reclaiming -->
<g id="edge1" class="edge transition">
<title>installed&#45;&gt;reclaiming</title>
<path fill="none" stroke="black" d="M110.29,-20.28C178.55,-25.02 336.25,-35.98 416.77,-41.58"/>
<polygon fill="black" stroke="black" points="416.34,-45.06 426.56,-42.26 416.82,-38.07 416.34,-45.06"/>
<text text-anchor="start" x="171" y="-41" font-family="Helvetica,sans-Serif" font-size="10.00">Reclaim Host &#45; Reclaim successful host &#160;&#160;</text>
</g>
<!-- insufficient -->
<g id="node7" class="node state regular">
<title>insufficient</title>
<polygon fill="#ffffff" fill-opacity="0.003922" stroke="none" stroke-width="2" points="116.5,-360 36.5,-360 36.5,-324 116.5,-324 116.5,-360"/>
<text text-anchor="start" x="47.5" y="-338.4" font-family="Helvetica,sans-Serif" font-size="12.00">insufficient</text>
<path fill="none" stroke="black" stroke-width="2" d="M48.5,-325.5C48.5,-325.5 104.5,-325.5 104.5,-325.5 110,-325.5 115.5,-331 115.5,-336.5 115.5,-336.5 115.5,-347.5 115.5,-347.5 115.5,-353 110,-358.5 104.5,-358.5 104.5,-358.5 48.5,-358.5 48.5,-358.5 43,-358.5 37.5,-353 37.5,-347.5 37.5,-347.5 37.5,-336.5 37.5,-336.5 37.5,-331 43,-325.5 48.5,-325.5"/>
</g>
<!-- insufficient&#45;&gt;unbinding -->
<g id="edge6" class="edge transition">
<title>insufficient&#45;&gt;unbinding</title>
<path fill="none" stroke="black" d="M116.17,-342C187.55,-342 339.81,-342 417.79,-342"/>
<polygon fill="black" stroke="black" points="417.68,-345.5 427.68,-342 417.68,-338.5 417.68,-345.5"/>
<text text-anchor="start" x="173.5" y="-345" font-family="Helvetica,sans-Serif" font-size="10.00">Reclaim Host &#45; Reclaim pre&#45;installation &#160;&#160;</text>
</g>
<!-- known -->
<g id="node8" class="node state regular">
<title>known</title>
<polygon fill="#ffffff" fill-opacity="0.003922" stroke="none" stroke-width="2" points="105.5,-306 47.5,-306 47.5,-270 105.5,-270 105.5,-306"/>
<text text-anchor="start" x="58.5" y="-284.4" font-family="Helvetica,sans-Serif" font-size="12.00">known</text>
<path fill="none" stroke="black" stroke-width="2" d="M59.5,-271.5C59.5,-271.5 93.5,-271.5 93.5,-271.5 99,-271.5 104.5,-277 104.5,-282.5 104.5,-282.5 104.5,-293.5 104.5,-293.5 104.5,-299 99,-304.5 93.5,-304.5 93.5,-304.5 59.5,-304.5 59.5,-304.5 54,-304.5 48.5,-299 48.5,-293.5 48.5,-293.5 48.5,-282.5 48.5,-282.5 48.5,-277 54,-271.5 59.5,-271.5"/>
</g>
<!-- known&#45;&gt;unbinding -->
<g id="edge3" class="edge transition">
<title>known&#45;&gt;unbinding</title>
<path fill="none" stroke="black" d="M105.44,-291.88C171.09,-301.01 335.82,-323.91 417.92,-335.32"/>
<polygon fill="black" stroke="black" points="417.29,-338.76 427.68,-336.67 418.26,-331.83 417.29,-338.76"/>
<text text-anchor="start" x="173.5" y="-329" font-family="Helvetica,sans-Serif" font-size="10.00">Reclaim Host &#45; Reclaim pre&#45;installation &#160;&#160;</text>
</g>
<!-- pending&#45;for&#45;input -->
<g id="node9" class="node state regular">
<title>pending&#45;for&#45;input</title>
<polygon fill="#ffffff" fill-opacity="0.003922" stroke="none" stroke-width="2" points="133,-252 20,-252 20,-216 133,-216 133,-252"/>
<text text-anchor="start" x="31.5" y="-230.4" font-family="Helvetica,sans-Serif" font-size="12.00">pending&#45;for&#45;input</text>
<path fill="none" stroke="black" stroke-width="2" d="M32,-217.5C32,-217.5 121,-217.5 121,-217.5 126.5,-217.5 132,-223 132,-228.5 132,-228.5 132,-239.5 132,-239.5 132,-245 126.5,-250.5 121,-250.5 121,-250.5 32,-250.5 32,-250.5 26.5,-250.5 21,-245 21,-239.5 21,-239.5 21,-228.5 21,-228.5 21,-223 26.5,-217.5 32,-217.5"/>
</g>
<!-- pending&#45;for&#45;input&#45;&gt;unbinding -->
<g id="edge7" class="edge transition">
<title>pending&#45;for&#45;input&#45;&gt;unbinding</title>
<path fill="none" stroke="black" d="M132.85,-239.6C189.92,-246.47 280.91,-260.47 356,-286 380.47,-294.32 406.3,-307.23 426.78,-318.56"/>
<polygon fill="black" stroke="black" points="424.92,-321.53 435.35,-323.4 428.36,-315.43 424.92,-321.53"/>
<text text-anchor="start" x="173.5" y="-289" font-family="Helvetica,sans-Serif" font-size="10.00">Reclaim Host &#45; Reclaim pre&#45;installation &#160;&#160;</text>
</g>
</g>
</svg>
