<?xml version="1.0" encoding="UTF-8" standalone="no"?>
<!DOCTYPE svg PUBLIC "-//W3C//DTD SVG 1.1//EN"
 "http://www.w3.org/Graphics/SVG/1.1/DTD/svg11.dtd">
<!-- Generated by graphviz version 5.0.0 (0)
 -->
<!-- Title: state transitions Pages: 1 -->
<svg width="593pt" height="98pt"
 viewBox="0.00 0.00 593.00 98.00" xmlns="http://www.w3.org/2000/svg" xmlns:xlink="http://www.w3.org/1999/xlink">
<g id="graph0" class="graph" transform="scale(1 1) rotate(0) translate(4 94)">
<title>state transitions</title>
<polygon fill="white" stroke="transparent" points="-4,4 -4,-94 589,-94 589,4 -4,4"/>
<!-- reclaiming -->
<g id="node1" class="node state regular">
<title>reclaiming</title>
<polygon fill="#ffffff" fill-opacity="0.003922" stroke="transparent" stroke-width="2" points="105,-90 27,-90 27,-54 105,-54 105,-90"/>
<text text-anchor="start" x="38" y="-68.4" font-family="Helvetica,sans-Serif" font-size="12.00">reclaiming</text>
<path fill="none" stroke="black" stroke-width="2" d="M39,-55.5C39,-55.5 93,-55.5 93,-55.5 98.5,-55.5 104,-61 104,-66.5 104,-66.5 104,-77.5 104,-77.5 104,-83 98.5,-88.5 93,-88.5 93,-88.5 39,-88.5 39,-88.5 33.5,-88.5 28,-83 28,-77.5 28,-77.5 28,-66.5 28,-66.5 28,-61 33.5,-55.5 39,-55.5"/>
</g>
<!-- unbinding&#45;pending&#45;user&#45;action -->
<g id="node3" class="node state regular">
<title>unbinding&#45;pending&#45;user&#45;action</title>
<polygon fill="#ffffff" fill-opacity="0.003922" stroke="transparent" stroke-width="2" points="585,-63 399,-63 399,-27 585,-27 585,-63"/>
<text text-anchor="start" x="410" y="-41.4" font-family="Helvetica,sans-Serif" font-size="12.00">unbinding&#45;pending&#45;user&#45;action</text>
<path fill="none" stroke="black" stroke-width="2" d="M411,-28.5C411,-28.5 573,-28.5 573,-28.5 578.5,-28.5 584,-34 584,-39.5 584,-39.5 584,-50.5 584,-50.5 584,-56 578.5,-61.5 573,-61.5 573,-61.5 411,-61.5 411,-61.5 405.5,-61.5 400,-56 400,-50.5 400,-50.5 400,-39.5 400,-39.5 400,-34 405.5,-28.5 411,-28.5"/>
</g>
<!-- reclaiming&#45;&gt;unbinding&#45;pending&#45;user&#45;action -->
<g id="edge1" class="edge transition">
<title>reclaiming&#45;&gt;unbinding&#45;pending&#45;user&#45;action</title>
<path fill="none" stroke="black" d="M105,-69.58C168.28,-65.55 297.33,-57.33 388.76,-51.51"/>
<polygon fill="black" stroke="black" points="389.12,-54.99 398.88,-50.87 388.67,-48.01 389.12,-54.99"/>
<text text-anchor="start" x="150" y="-69" font-family="Helvetica,sans-Serif" font-size="10.00">Reclaim Failed &#45; Reclaim failure for reclaiming host &#160;&#160;</text>
</g>
<!-- reclaiming&#45;rebooting -->
<g id="node2" class="node state regular">
<title>reclaiming&#45;rebooting</title>
<polygon fill="#ffffff" fill-opacity="0.003922" stroke="transparent" stroke-width="2" points="132,-36 0,-36 0,0 132,0 132,-36"/>
<text text-anchor="start" x="11" y="-14.4" font-family="Helvetica,sans-Serif" font-size="12.00">reclaiming&#45;rebooting</text>
<path fill="none" stroke="black" stroke-width="2" d="M12,-1.5C12,-1.5 120,-1.5 120,-1.5 125.5,-1.5 131,-7 131,-12.5 131,-12.5 131,-23.5 131,-23.5 131,-29 125.5,-34.5 120,-34.5 120,-34.5 12,-34.5 12,-34.5 6.5,-34.5 1,-29 1,-23.5 1,-23.5 1,-12.5 1,-12.5 1,-7 6.5,-1.5 12,-1.5"/>
</g>
<!-- reclaiming&#45;rebooting&#45;&gt;unbinding&#45;pending&#45;user&#45;action -->
<g id="edge2" class="edge transition">
<title>reclaiming&#45;rebooting&#45;&gt;unbinding&#45;pending&#45;user&#45;action</title>
<path fill="none" stroke="black" d="M132.26,-21.72C195.79,-25.39 295.04,-31.27 381,-37 383.55,-37.17 386.13,-37.34 388.74,-37.52"/>
<polygon fill="black" stroke="black" points="388.66,-41.02 398.88,-38.22 389.14,-34.04 388.66,-41.02"/>
<text text-anchor="start" x="150" y="-40" font-family="Helvetica,sans-Serif" font-size="10.00">Reclaim Failed &#45; Reclaim failure for reclaiming host &#160;&#160;</text>
</g>
</g>
</svg>
