<?xml version="1.0" encoding="UTF-8" standalone="no"?>
<!DOCTYPE svg PUBLIC "-//W3C//DTD SVG 1.1//EN"
 "http://www.w3.org/Graphics/SVG/1.1/DTD/svg11.dtd">
<!-- Generated by graphviz version 5.0.0 (0)
 -->
<!-- Title: state transitions Pages: 1 -->
<svg width="712pt" height="674pt"
 viewBox="0.00 0.00 712.00 674.00" xmlns="http://www.w3.org/2000/svg" xmlns:xlink="http://www.w3.org/1999/xlink">
<g id="graph0" class="graph" transform="scale(1 1) rotate(0) translate(4 670)">
<title>state transitions</title>
<polygon fill="white" stroke="transparent" points="-4,4 -4,-670 708,-670 708,4 -4,4"/>
<!-- added&#45;to&#45;existing&#45;cluster -->
<g id="node1" class="node state regular">
<title>added&#45;to&#45;existing&#45;cluster</title>
<polygon fill="#ffffff" fill-opacity="0.003922" stroke="transparent" stroke-width="2" points="217.5,-144 64.5,-144 64.5,-108 217.5,-108 217.5,-144"/>
<text text-anchor="start" x="76" y="-122.4" font-family="Helvetica,sans-Serif" font-size="12.00">added&#45;to&#45;existing&#45;cluster</text>
<path fill="none" stroke="black" stroke-width="2" d="M76.5,-109.5C76.5,-109.5 205.5,-109.5 205.5,-109.5 211,-109.5 216.5,-115 216.5,-120.5 216.5,-120.5 216.5,-131.5 216.5,-131.5 216.5,-137 211,-142.5 205.5,-142.5 205.5,-142.5 76.5,-142.5 76.5,-142.5 71,-142.5 65.5,-137 65.5,-131.5 65.5,-131.5 65.5,-120.5 65.5,-120.5 65.5,-115 71,-109.5 76.5,-109.5"/>
</g>
<!-- installing&#45;pending&#45;user&#45;action -->
<g id="node9" class="node state regular">
<title>installing&#45;pending&#45;user&#45;action</title>
<polygon fill="#ffffff" fill-opacity="0.003922" stroke="transparent" stroke-width="2" points="696.5,-138 515.5,-138 515.5,-102 696.5,-102 696.5,-138"/>
<text text-anchor="start" x="527" y="-116.4" font-family="Helvetica,sans-Serif" font-size="12.00">installing&#45;pending&#45;user&#45;action</text>
<path fill="none" stroke="black" stroke-width="2" d="M527.5,-103.5C527.5,-103.5 684.5,-103.5 684.5,-103.5 690,-103.5 695.5,-109 695.5,-114.5 695.5,-114.5 695.5,-125.5 695.5,-125.5 695.5,-131 690,-136.5 684.5,-136.5 684.5,-136.5 527.5,-136.5 527.5,-136.5 522,-136.5 516.5,-131 516.5,-125.5 516.5,-125.5 516.5,-114.5 516.5,-114.5 516.5,-109 522,-103.5 527.5,-103.5"/>
</g>
<!-- added&#45;to&#45;existing&#45;cluster&#45;&gt;installing&#45;pending&#45;user&#45;action -->
<g id="edge14" class="edge transition">
<title>added&#45;to&#45;existing&#45;cluster&#45;&gt;installing&#45;pending&#45;user&#45;action</title>
<path fill="none" stroke="black" d="M217.68,-125.02C296.11,-124 419.07,-122.41 505.36,-121.29"/>
<polygon fill="black" stroke="black" points="505.48,-124.79 515.43,-121.16 505.39,-117.79 505.48,-124.79"/>
<text text-anchor="start" x="275" y="-127" font-family="Helvetica,sans-Serif" font-size="10.00">Register Host &#45; Wrong boot order detection &#160;&#160;</text>
</g>
<!-- binding -->
<g id="node2" class="node state regular">
<title>binding</title>
<polygon fill="#ffffff" fill-opacity="0.003922" stroke="transparent" stroke-width="2" points="172,-659 110,-659 110,-623 172,-623 172,-659"/>
<text text-anchor="start" x="121" y="-637.4" font-family="Helvetica,sans-Serif" font-size="12.00">binding</text>
<path fill="none" stroke="black" stroke-width="2" d="M122,-624.5C122,-624.5 160,-624.5 160,-624.5 165.5,-624.5 171,-630 171,-635.5 171,-635.5 171,-646.5 171,-646.5 171,-652 165.5,-657.5 160,-657.5 160,-657.5 122,-657.5 122,-657.5 116.5,-657.5 111,-652 111,-646.5 111,-646.5 111,-635.5 111,-635.5 111,-630 116.5,-624.5 122,-624.5"/>
</g>
<!-- discovering -->
<g id="node4" class="node state regular">
<title>discovering</title>
<polygon fill="#ffffff" fill-opacity="0.003922" stroke="transparent" stroke-width="2" points="648,-443 564,-443 564,-407 648,-407 648,-443"/>
<text text-anchor="start" x="575" y="-421.4" font-family="Helvetica,sans-Serif" font-size="12.00">discovering</text>
<path fill="none" stroke="black" stroke-width="2" d="M576,-408.5C576,-408.5 636,-408.5 636,-408.5 641.5,-408.5 647,-414 647,-419.5 647,-419.5 647,-430.5 647,-430.5 647,-436 641.5,-441.5 636,-441.5 636,-441.5 576,-441.5 576,-441.5 570.5,-441.5 565,-436 565,-430.5 565,-430.5 565,-419.5 565,-419.5 565,-414 570.5,-408.5 576,-408.5"/>
</g>
<!-- binding&#45;&gt;discovering -->
<g id="edge9" class="edge transition">
<title>binding&#45;&gt;discovering</title>
<path fill="none" stroke="black" d="M172.03,-646.5C237.1,-656.72 393.63,-672.07 497.5,-606 553.51,-570.38 584.15,-494.21 597.23,-452.95"/>
<polygon fill="black" stroke="black" points="600.62,-453.84 600.18,-443.25 593.92,-451.8 600.62,-453.84"/>
<text text-anchor="start" x="302" y="-658" font-family="Helvetica,sans-Serif" font-size="10.00">Register Host &#45; Re&#45;registration &#160;&#160;</text>
</g>
<!-- disconnected -->
<g id="node3" class="node state regular">
<title>disconnected</title>
<polygon fill="#ffffff" fill-opacity="0.003922" stroke="transparent" stroke-width="2" points="188,-605 94,-605 94,-569 188,-569 188,-605"/>
<text text-anchor="start" x="105" y="-583.4" font-family="Helvetica,sans-Serif" font-size="12.00">disconnected</text>
<path fill="none" stroke="black" stroke-width="2" d="M106,-570.5C106,-570.5 176,-570.5 176,-570.5 181.5,-570.5 187,-576 187,-581.5 187,-581.5 187,-592.5 187,-592.5 187,-598 181.5,-603.5 176,-603.5 176,-603.5 106,-603.5 106,-603.5 100.5,-603.5 95,-598 95,-592.5 95,-592.5 95,-581.5 95,-581.5 95,-576 100.5,-570.5 106,-570.5"/>
</g>
<!-- disconnected&#45;&gt;discovering -->
<g id="edge4" class="edge transition">
<title>disconnected&#45;&gt;discovering</title>
<path fill="none" stroke="black" d="M188.12,-590.67C258.86,-594.26 396.55,-593.05 497.5,-541 537.19,-520.54 569.83,-479.27 588.37,-451.88"/>
<polygon fill="black" stroke="black" points="591.52,-453.45 594.1,-443.17 585.68,-449.6 591.52,-453.45"/>
<text text-anchor="start" x="302" y="-594" font-family="Helvetica,sans-Serif" font-size="10.00">Register Host &#45; Re&#45;registration &#160;&#160;</text>
</g>
<!-- discovering&#45;&gt;discovering -->
<g id="edge2" class="edge transition">
<title>discovering&#45;&gt;discovering</title>
<path fill="none" stroke="black" d="M564.03,-443.15C557.57,-452.54 571.56,-461 606,-461 626.99,-461 640.38,-457.86 646.18,-453.28"/>
<polygon fill="black" stroke="black" points="649.67,-453.61 647.97,-443.15 642.78,-452.39 649.67,-453.61"/>
<text text-anchor="start" x="535" y="-464" font-family="Helvetica,sans-Serif" font-size="10.00">Register Host &#45; Re&#45;registration &#160;&#160;</text>
</g>
<!-- error -->
<g id="node5" class="node state regular">
<title>error</title>
<polygon fill="#ffffff" fill-opacity="0.003922" stroke="transparent" stroke-width="2" points="634,-43 578,-43 578,-7 634,-7 634,-43"/>
<text text-anchor="start" x="593.5" y="-21.4" font-family="Helvetica,sans-Serif" font-size="12.00">error</text>
<path fill="none" stroke="black" stroke-width="2" d="M590,-8.5C590,-8.5 622,-8.5 622,-8.5 627.5,-8.5 633,-14 633,-19.5 633,-19.5 633,-30.5 633,-30.5 633,-36 627.5,-41.5 622,-41.5 622,-41.5 590,-41.5 590,-41.5 584.5,-41.5 579,-36 579,-30.5 579,-30.5 579,-19.5 579,-19.5 579,-14 584.5,-8.5 590,-8.5"/>
</g>
<!-- error&#45;&gt;error -->
<g id="edge17" class="edge transition">
<title>error&#45;&gt;error</title>
<path fill="none" stroke="black" d="M577.84,-33.5C550.39,-45.76 559.78,-61 606,-61 646.08,-61 658.46,-49.54 643.15,-38.5"/>
<polygon fill="black" stroke="black" points="644.6,-35.3 634.16,-33.5 641.2,-41.42 644.6,-35.3"/>
<text text-anchor="start" x="523" y="-64" font-family="Helvetica,sans-Serif" font-size="10.00">Register Host &#45; Register during error &#160;&#160;</text>
</g>
<!-- initial -->
<g id="node6" class="node state regular">
<title>initial</title>
<polygon fill="#ffffff" fill-opacity="0.003922" stroke="transparent" stroke-width="2" points="169,-551 113,-551 113,-515 169,-515 169,-551"/>
<text text-anchor="start" x="126.5" y="-529.4" font-family="Helvetica,sans-Serif" font-size="12.00">initial</text>
<path fill="none" stroke="black" stroke-width="2" d="M125,-516.5C125,-516.5 157,-516.5 157,-516.5 162.5,-516.5 168,-522 168,-527.5 168,-527.5 168,-538.5 168,-538.5 168,-544 162.5,-549.5 157,-549.5 157,-549.5 125,-549.5 125,-549.5 119.5,-549.5 114,-544 114,-538.5 114,-538.5 114,-527.5 114,-527.5 114,-522 119.5,-516.5 125,-516.5"/>
</g>
<!-- initial&#45;&gt;discovering -->
<g id="edge1" class="edge transition">
<title>initial&#45;&gt;discovering</title>
<path fill="none" stroke="black" d="M169.02,-532.28C229.4,-529.98 379.23,-520.54 497.5,-482 522.52,-473.85 548.64,-460.13 568.87,-448.2"/>
<polygon fill="black" stroke="black" points="570.68,-451.2 577.44,-443.04 567.07,-445.2 570.68,-451.2"/>
<text text-anchor="start" x="296.5" y="-529" font-family="Helvetica,sans-Serif" font-size="10.00">Register Host &#45; Initial registration &#160;&#160;</text>
</g>
<!-- installing -->
<g id="node7" class="node state regular">
<title>installing</title>
<polygon fill="#ffffff" fill-opacity="0.003922" stroke="transparent" stroke-width="2" points="176.5,-36 105.5,-36 105.5,0 176.5,0 176.5,-36"/>
<text text-anchor="start" x="117" y="-14.4" font-family="Helvetica,sans-Serif" font-size="12.00">installing</text>
<path fill="none" stroke="black" stroke-width="2" d="M117.5,-1.5C117.5,-1.5 164.5,-1.5 164.5,-1.5 170,-1.5 175.5,-7 175.5,-12.5 175.5,-12.5 175.5,-23.5 175.5,-23.5 175.5,-29 170,-34.5 164.5,-34.5 164.5,-34.5 117.5,-34.5 117.5,-34.5 112,-34.5 106.5,-29 106.5,-23.5 106.5,-23.5 106.5,-12.5 106.5,-12.5 106.5,-7 112,-1.5 117.5,-1.5"/>
</g>
<!-- installing&#45;&gt;error -->
<g id="edge15" class="edge transition">
<title>installing&#45;&gt;error</title>
<path fill="none" stroke="black" d="M176.83,-17.72C240.5,-17.33 379.96,-16.94 497.5,-20 520.72,-20.61 546.74,-21.8 567.37,-22.87"/>
<polygon fill="black" stroke="black" points="567.45,-26.38 577.62,-23.42 567.82,-19.39 567.45,-26.38"/>
<text text-anchor="start" x="276.5" y="-23" font-family="Helvetica,sans-Serif" font-size="10.00">Register Host &#45; Register during installation &#160;&#160;</text>
</g>
<!-- installing&#45;in&#45;progress -->
<g id="node8" class="node state regular">
<title>installing&#45;in&#45;progress</title>
<polygon fill="#ffffff" fill-opacity="0.003922" stroke="transparent" stroke-width="2" points="208,-90 74,-90 74,-54 208,-54 208,-90"/>
<text text-anchor="start" x="85" y="-68.4" font-family="Helvetica,sans-Serif" font-size="12.00">installing&#45;in&#45;progress</text>
<path fill="none" stroke="black" stroke-width="2" d="M86,-55.5C86,-55.5 196,-55.5 196,-55.5 201.5,-55.5 207,-61 207,-66.5 207,-66.5 207,-77.5 207,-77.5 207,-83 201.5,-88.5 196,-88.5 196,-88.5 86,-88.5 86,-88.5 80.5,-88.5 75,-83 75,-77.5 75,-77.5 75,-66.5 75,-66.5 75,-61 80.5,-55.5 86,-55.5"/>
</g>
<!-- installing&#45;in&#45;progress&#45;&gt;error -->
<g id="edge16" class="edge transition">
<title>installing&#45;in&#45;progress&#45;&gt;error</title>
<path fill="none" stroke="black" d="M208.12,-62.16C221.47,-60.32 235.42,-58.51 248.5,-57 364.58,-43.62 502.47,-32.63 567.5,-27.74"/>
<polygon fill="black" stroke="black" points="567.96,-31.22 577.67,-26.98 567.44,-24.24 567.96,-31.22"/>
<text text-anchor="start" x="276.5" y="-60" font-family="Helvetica,sans-Serif" font-size="10.00">Register Host &#45; Register during installation &#160;&#160;</text>
</g>
<!-- installing&#45;in&#45;progress&#45;&gt;installing&#45;pending&#45;user&#45;action -->
<g id="edge12" class="edge transition">
<title>installing&#45;in&#45;progress&#45;&gt;installing&#45;pending&#45;user&#45;action</title>
<path fill="none" stroke="black" d="M208.25,-77.65C279.7,-83.91 396.77,-94.63 497.5,-106 500.04,-106.29 502.61,-106.58 505.2,-106.88"/>
<polygon fill="black" stroke="black" points="504.94,-110.38 515.28,-108.08 505.77,-103.43 504.94,-110.38"/>
<text text-anchor="start" x="275" y="-109" font-family="Helvetica,sans-Serif" font-size="10.00">Register Host &#45; Wrong boot order detection &#160;&#160;</text>
</g>
<!-- installing&#45;pending&#45;user&#45;action&#45;&gt;installing&#45;pending&#45;user&#45;action -->
<g id="edge13" class="edge transition">
<title>installing&#45;pending&#45;user&#45;action&#45;&gt;installing&#45;pending&#45;user&#45;action</title>
<path fill="none" stroke="black" d="M564.03,-138.15C557.57,-147.54 571.56,-156 606,-156 626.99,-156 640.38,-152.86 646.18,-148.28"/>
<polygon fill="black" stroke="black" points="649.67,-148.61 647.97,-138.15 642.78,-147.39 649.67,-148.61"/>
<text text-anchor="start" x="508" y="-159" font-family="Helvetica,sans-Serif" font-size="10.00">Register Host &#45; Wrong boot order detection &#160;&#160;</text>
</g>
<!-- insufficient -->
<g id="node10" class="node state regular">
<title>insufficient</title>
<polygon fill="#ffffff" fill-opacity="0.003922" stroke="transparent" stroke-width="2" points="181,-497 101,-497 101,-461 181,-461 181,-497"/>
<text text-anchor="start" x="112" y="-475.4" font-family="Helvetica,sans-Serif" font-size="12.00">insufficient</text>
<path fill="none" stroke="black" stroke-width="2" d="M113,-462.5C113,-462.5 169,-462.5 169,-462.5 174.5,-462.5 180,-468 180,-473.5 180,-473.5 180,-484.5 180,-484.5 180,-490 174.5,-495.5 169,-495.5 169,-495.5 113,-495.5 113,-495.5 107.5,-495.5 102,-490 102,-484.5 102,-484.5 102,-473.5 102,-473.5 102,-468 107.5,-462.5 113,-462.5"/>
</g>
<!-- insufficient&#45;&gt;discovering -->
<g id="edge5" class="edge transition">
<title>insufficient&#45;&gt;discovering</title>
<path fill="none" stroke="black" d="M181.23,-475.08C246.8,-468.43 382.75,-454.3 497.5,-440 515.87,-437.71 535.97,-434.97 553.76,-432.46"/>
<polygon fill="black" stroke="black" points="554.54,-435.89 563.94,-431.02 553.55,-428.96 554.54,-435.89"/>
<text text-anchor="start" x="302" y="-470" font-family="Helvetica,sans-Serif" font-size="10.00">Register Host &#45; Re&#45;registration &#160;&#160;</text>
</g>
<!-- known -->
<g id="node11" class="node state regular">
<title>known</title>
<polygon fill="#ffffff" fill-opacity="0.003922" stroke="transparent" stroke-width="2" points="170,-443 112,-443 112,-407 170,-407 170,-443"/>
<text text-anchor="start" x="123" y="-421.4" font-family="Helvetica,sans-Serif" font-size="12.00">known</text>
<path fill="none" stroke="black" stroke-width="2" d="M124,-408.5C124,-408.5 158,-408.5 158,-408.5 163.5,-408.5 169,-414 169,-419.5 169,-419.5 169,-430.5 169,-430.5 169,-436 163.5,-441.5 158,-441.5 158,-441.5 124,-441.5 124,-441.5 118.5,-441.5 113,-436 113,-430.5 113,-430.5 113,-419.5 113,-419.5 113,-414 118.5,-408.5 124,-408.5"/>
</g>
<!-- known&#45;&gt;discovering -->
<g id="edge3" class="edge transition">
<title>known&#45;&gt;discovering</title>
<path fill="none" stroke="black" d="M170.27,-425C246.23,-425 455.63,-425 553.43,-425"/>
<polygon fill="black" stroke="black" points="553.66,-428.5 563.66,-425 553.66,-421.5 553.66,-428.5"/>
<text text-anchor="start" x="302" y="-428" font-family="Helvetica,sans-Serif" font-size="10.00">Register Host &#45; Re&#45;registration &#160;&#160;</text>
</g>
<!-- preparing&#45;for&#45;installation -->
<g id="node12" class="node state regular">
<title>preparing&#45;for&#45;installation</title>
<polygon fill="#ffffff" fill-opacity="0.003922" stroke="transparent" stroke-width="2" points="217,-389 65,-389 65,-353 217,-353 217,-389"/>
<text text-anchor="start" x="76" y="-367.4" font-family="Helvetica,sans-Serif" font-size="12.00">preparing&#45;for&#45;installation</text>
<path fill="none" stroke="black" stroke-width="2" d="M77,-354.5C77,-354.5 205,-354.5 205,-354.5 210.5,-354.5 216,-360 216,-365.5 216,-365.5 216,-376.5 216,-376.5 216,-382 210.5,-387.5 205,-387.5 205,-387.5 77,-387.5 77,-387.5 71.5,-387.5 66,-382 66,-376.5 66,-376.5 66,-365.5 66,-365.5 66,-360 71.5,-354.5 77,-354.5"/>
</g>
<!-- preparing&#45;for&#45;installation&#45;&gt;discovering -->
<g id="edge7" class="edge transition">
<title>preparing&#45;for&#45;installation&#45;&gt;discovering</title>
<path fill="none" stroke="black" d="M217.32,-378.61C289.33,-386.05 400.92,-397.97 497.5,-410 515.87,-412.29 535.97,-415.03 553.76,-417.54"/>
<polygon fill="black" stroke="black" points="553.55,-421.04 563.94,-418.98 554.54,-414.11 553.55,-421.04"/>
<text text-anchor="start" x="302" y="-413" font-family="Helvetica,sans-Serif" font-size="10.00">Register Host &#45; Re&#45;registration &#160;&#160;</text>
</g>
<!-- preparing&#45;successful -->
<g id="node13" class="node state regular">
<title>preparing&#45;successful</title>
<polygon fill="#ffffff" fill-opacity="0.003922" stroke="transparent" stroke-width="2" points="208,-335 74,-335 74,-299 208,-299 208,-335"/>
<text text-anchor="start" x="85" y="-313.4" font-family="Helvetica,sans-Serif" font-size="12.00">preparing&#45;successful</text>
<path fill="none" stroke="black" stroke-width="2" d="M86,-300.5C86,-300.5 196,-300.5 196,-300.5 201.5,-300.5 207,-306 207,-311.5 207,-311.5 207,-322.5 207,-322.5 207,-328 201.5,-333.5 196,-333.5 196,-333.5 86,-333.5 86,-333.5 80.5,-333.5 75,-328 75,-322.5 75,-322.5 75,-311.5 75,-311.5 75,-306 80.5,-300.5 86,-300.5"/>
</g>
<!-- preparing&#45;successful&#45;&gt;discovering -->
<g id="edge8" class="edge transition">
<title>preparing&#45;successful&#45;&gt;discovering</title>
<path fill="none" stroke="black" d="M208.12,-319.32C280.72,-323.46 399.94,-334.97 497.5,-367 522.77,-375.3 549.09,-389.39 569.36,-401.6"/>
<polygon fill="black" stroke="black" points="567.58,-404.62 577.94,-406.88 571.25,-398.66 567.58,-404.62"/>
<text text-anchor="start" x="302" y="-370" font-family="Helvetica,sans-Serif" font-size="10.00">Register Host &#45; Re&#45;registration &#160;&#160;</text>
</g>
<!-- resetting -->
<g id="node14" class="node state regular">
<title>resetting</title>
<polygon fill="#ffffff" fill-opacity="0.003922" stroke="transparent" stroke-width="2" points="175.5,-252 106.5,-252 106.5,-216 175.5,-216 175.5,-252"/>
<text text-anchor="start" x="118" y="-230.4" font-family="Helvetica,sans-Serif" font-size="12.00">resetting</text>
<path fill="none" stroke="black" stroke-width="2" d="M118.5,-217.5C118.5,-217.5 163.5,-217.5 163.5,-217.5 169,-217.5 174.5,-223 174.5,-228.5 174.5,-228.5 174.5,-239.5 174.5,-239.5 174.5,-245 169,-250.5 163.5,-250.5 163.5,-250.5 118.5,-250.5 118.5,-250.5 113,-250.5 107.5,-245 107.5,-239.5 107.5,-239.5 107.5,-228.5 107.5,-228.5 107.5,-223 113,-217.5 118.5,-217.5"/>
</g>
<!-- resetting&#45;&gt;discovering -->
<g id="edge11" class="edge transition">
<title>resetting&#45;&gt;discovering</title>
<path fill="none" stroke="black" d="M175.5,-234.13C241.5,-235.77 391.12,-246.48 497.5,-307 536.84,-329.38 569.74,-371.23 588.4,-398.6"/>
<polygon fill="black" stroke="black" points="585.5,-400.55 593.95,-406.94 591.32,-396.67 585.5,-400.55"/>
<text text-anchor="start" x="248.5" y="-310" font-family="Helvetica,sans-Serif" font-size="10.00">Register Host &#45; Register non&#45;rebooting host in resetting &#160;&#160;</text>
</g>
<!-- resetting&#45;&gt;resetting -->
<g id="edge10" class="edge transition">
<title>resetting&#45;&gt;resetting</title>
<path fill="none" stroke="black" d="M106.43,-245.8C87.34,-257.33 98.86,-270 141,-270 174.91,-270 188.99,-261.8 183.25,-252.58"/>
<polygon fill="black" stroke="black" points="185.38,-249.79 175.57,-245.8 180.75,-255.04 185.38,-249.79"/>
<text text-anchor="start" x="0" y="-273" font-family="Helvetica,sans-Serif" font-size="10.00">Register Host &#45; Ignore register while rebooting host in resetting &#160;&#160;</text>
</g>
<!-- resetting&#45;pending&#45;user&#45;action -->
<g id="node15" class="node state regular">
<title>resetting&#45;pending&#45;user&#45;action</title>
<polygon fill="#ffffff" fill-opacity="0.003922" stroke="transparent" stroke-width="2" points="230.5,-198 51.5,-198 51.5,-162 230.5,-162 230.5,-198"/>
<text text-anchor="start" x="63" y="-176.4" font-family="Helvetica,sans-Serif" font-size="12.00">resetting&#45;pending&#45;user&#45;action</text>
<path fill="none" stroke="black" stroke-width="2" d="M63.5,-163.5C63.5,-163.5 218.5,-163.5 218.5,-163.5 224,-163.5 229.5,-169 229.5,-174.5 229.5,-174.5 229.5,-185.5 229.5,-185.5 229.5,-191 224,-196.5 218.5,-196.5 218.5,-196.5 63.5,-196.5 63.5,-196.5 58,-196.5 52.5,-191 52.5,-185.5 52.5,-185.5 52.5,-174.5 52.5,-174.5 52.5,-169 58,-163.5 63.5,-163.5"/>
</g>
<!-- resetting&#45;pending&#45;user&#45;action&#45;&gt;discovering -->
<g id="edge6" class="edge transition">
<title>resetting&#45;pending&#45;user&#45;action&#45;&gt;discovering</title>
<path fill="none" stroke="black" d="M230.62,-169.13C307.76,-164.37 419.18,-169.3 497.5,-223 558.32,-264.7 587.46,-352.13 598.88,-397.05"/>
<polygon fill="black" stroke="black" points="595.53,-398.09 601.3,-406.99 602.34,-396.44 595.53,-398.09"/>
<text text-anchor="start" x="302" y="-226" font-family="Helvetica,sans-Serif" font-size="10.00">Register Host &#45; Re&#45;registration &#160;&#160;</text>
</g>
</g>
</svg>
