<?xml version="1.0" encoding="UTF-8" standalone="no"?>
<!DOCTYPE svg PUBLIC "-//W3C//DTD SVG 1.1//EN"
 "http://www.w3.org/Graphics/SVG/1.1/DTD/svg11.dtd">
<!-- Generated by graphviz version 12.1.0 (20240811.2233)
 -->
<!-- Title: state transitions Pages: 1 -->
<svg width="586pt" height="44pt"
 viewBox="0.00 0.00 586.00 44.25" xmlns="http://www.w3.org/2000/svg" xmlns:xlink="http://www.w3.org/1999/xlink">
<g id="graph0" class="graph" transform="scale(1 1) rotate(0) translate(4 40.25)">
<title>state transitions</title>
<polygon fill="white" stroke="none" points="-4,4 -4,-40.25 582,-40.25 582,4 -4,4"/>
<!-- reclaiming -->
<g id="node1" class="node state regular">
<title>reclaiming</title>
<polygon fill="#ffffff" fill-opacity="0.003922" stroke="none" stroke-width="2" points="84.25,-36.25 0,-36.25 0,0 84.25,0 84.25,-36.25"/>
<text text-anchor="start" x="11" y="-13.85" font-family="Helvetica,sans-Serif" font-size="12.00">reclaiming</text>
<path fill="none" stroke="black" stroke-width="2" d="M12.42,-1C12.42,-1 71.83,-1 71.83,-1 77.54,-1 83.25,-6.71 83.25,-12.42 83.25,-12.42 83.25,-23.83 83.25,-23.83 83.25,-29.54 77.54,-35.25 71.83,-35.25 71.83,-35.25 12.42,-35.25 12.42,-35.25 6.71,-35.25 1,-29.54 1,-23.83 1,-23.83 1,-12.42 1,-12.42 1,-6.71 6.71,-1 12.42,-1"/>
</g>
<!-- reclaiming&#45;rebooting -->
<g id="node2" class="node state regular">
<title>reclaiming&#45;rebooting</title>
<polygon fill="#ffffff" fill-opacity="0.003922" stroke="none" stroke-width="2" points="578,-36.25 432.25,-36.25 432.25,0 578,0 578,-36.25"/>
<text text-anchor="start" x="443.25" y="-13.85" font-family="Helvetica,sans-Serif" font-size="12.00">reclaiming&#45;rebooting</text>
<path fill="none" stroke="black" stroke-width="2" d="M444.67,-1C444.67,-1 565.58,-1 565.58,-1 571.29,-1 577,-6.71 577,-12.42 577,-12.42 577,-23.83 577,-23.83 577,-29.54 571.29,-35.25 565.58,-35.25 565.58,-35.25 444.67,-35.25 444.67,-35.25 438.96,-35.25 433.25,-29.54 433.25,-23.83 433.25,-23.83 433.25,-12.42 433.25,-12.42 433.25,-6.71 438.96,-1 444.67,-1"/>
</g>
<!-- reclaiming&#45;&gt;reclaiming&#45;rebooting -->
<g id="edge1" class="edge transition">
<title>reclaiming&#45;&gt;reclaiming&#45;rebooting</title>
<path fill="none" stroke="black" d="M84.04,-18.12C159.39,-18.12 321.48,-18.12 420.83,-18.12"/>
<polygon fill="black" stroke="black" points="420.82,-21.63 430.82,-18.13 420.82,-14.63 420.82,-21.63"/>
<text text-anchor="start" x="102.25" y="-21.38" font-family="Helvetica,sans-Serif" font-size="10.00">Rebooting for Reclaim &#45; Rebooting for reclaim reclaiming host &#160;&#160;</text>
</g>
</g>
</svg>
