<?xml version="1.0" encoding="UTF-8" standalone="no"?>
<!DOCTYPE svg PUBLIC "-//W3C//DTD SVG 1.1//EN"
 "http://www.w3.org/Graphics/SVG/1.1/DTD/svg11.dtd">
<!-- Generated by graphviz version 7.1.0 (0)
 -->
<!-- Title: state transitions Pages: 1 -->
<svg width="712pt" height="804pt"
 viewBox="0.00 0.00 712.00 804.00" xmlns="http://www.w3.org/2000/svg" xmlns:xlink="http://www.w3.org/1999/xlink">
<g id="graph0" class="graph" transform="scale(1 1) rotate(0) translate(4 800)">
<title>state transitions</title>
<polygon fill="white" stroke="none" points="-4,4 -4,-800 708,-800 708,4 -4,4"/>
<!-- added&#45;to&#45;existing&#45;cluster -->
<g id="node1" class="node state regular">
<title>added&#45;to&#45;existing&#45;cluster</title>
<polygon fill="#ffffff" fill-opacity="0.003922" stroke="none" stroke-width="2" points="217.5,-144 64.5,-144 64.5,-108 217.5,-108 217.5,-144"/>
<text text-anchor="start" x="76" y="-122.4" font-family="Helvetica,sans-Serif" font-size="12.00">added&#45;to&#45;existing&#45;cluster</text>
<path fill="none" stroke="black" stroke-width="2" d="M76.5,-109.5C76.5,-109.5 205.5,-109.5 205.5,-109.5 211,-109.5 216.5,-115 216.5,-120.5 216.5,-120.5 216.5,-131.5 216.5,-131.5 216.5,-137 211,-142.5 205.5,-142.5 205.5,-142.5 76.5,-142.5 76.5,-142.5 71,-142.5 65.5,-137 65.5,-131.5 65.5,-131.5 65.5,-120.5 65.5,-120.5 65.5,-115 71,-109.5 76.5,-109.5"/>
</g>
<!-- installing&#45;pending&#45;user&#45;action -->
<g id="node10" class="node state regular">
<title>installing&#45;pending&#45;user&#45;action</title>
<polygon fill="#ffffff" fill-opacity="0.003922" stroke="none" stroke-width="2" points="696.5,-138 515.5,-138 515.5,-102 696.5,-102 696.5,-138"/>
<text text-anchor="start" x="527" y="-116.4" font-family="Helvetica,sans-Serif" font-size="12.00">installing&#45;pending&#45;user&#45;action</text>
<path fill="none" stroke="black" stroke-width="2" d="M527.5,-103.5C527.5,-103.5 684.5,-103.5 684.5,-103.5 690,-103.5 695.5,-109 695.5,-114.5 695.5,-114.5 695.5,-125.5 695.5,-125.5 695.5,-131 690,-136.5 684.5,-136.5 684.5,-136.5 527.5,-136.5 527.5,-136.5 522,-136.5 516.5,-131 516.5,-125.5 516.5,-125.5 516.5,-114.5 516.5,-114.5 516.5,-109 522,-103.5 527.5,-103.5"/>
</g>
<!-- added&#45;to&#45;existing&#45;cluster&#45;&gt;installing&#45;pending&#45;user&#45;action -->
<g id="edge15" class="edge transition">
<title>added&#45;to&#45;existing&#45;cluster&#45;&gt;installing&#45;pending&#45;user&#45;action</title>
<path fill="none" stroke="black" d="M217.42,-125.02C295.53,-124.01 418,-122.42 504.34,-121.3"/>
<polygon fill="black" stroke="black" points="504.27,-124.81 514.23,-121.18 504.18,-117.81 504.27,-124.81"/>
<text text-anchor="start" x="275" y="-127" font-family="Helvetica,sans-Serif" font-size="10.00">Register Host &#45; Wrong boot order detection &#160;&#160;</text>
</g>
<!-- binding -->
<g id="node2" class="node state regular">
<title>binding</title>
<polygon fill="#ffffff" fill-opacity="0.003922" stroke="none" stroke-width="2" points="172,-713 110,-713 110,-677 172,-677 172,-713"/>
<text text-anchor="start" x="121" y="-691.4" font-family="Helvetica,sans-Serif" font-size="12.00">binding</text>
<path fill="none" stroke="black" stroke-width="2" d="M122,-678.5C122,-678.5 160,-678.5 160,-678.5 165.5,-678.5 171,-684 171,-689.5 171,-689.5 171,-700.5 171,-700.5 171,-706 165.5,-711.5 160,-711.5 160,-711.5 122,-711.5 122,-711.5 116.5,-711.5 111,-706 111,-700.5 111,-700.5 111,-689.5 111,-689.5 111,-684 116.5,-678.5 122,-678.5"/>
</g>
<!-- discovering -->
<g id="node4" class="node state regular">
<title>discovering</title>
<polygon fill="#ffffff" fill-opacity="0.003922" stroke="none" stroke-width="2" points="648,-470 564,-470 564,-434 648,-434 648,-470"/>
<text text-anchor="start" x="575" y="-448.4" font-family="Helvetica,sans-Serif" font-size="12.00">discovering</text>
<path fill="none" stroke="black" stroke-width="2" d="M576,-435.5C576,-435.5 636,-435.5 636,-435.5 641.5,-435.5 647,-441 647,-446.5 647,-446.5 647,-457.5 647,-457.5 647,-463 641.5,-468.5 636,-468.5 636,-468.5 576,-468.5 576,-468.5 570.5,-468.5 565,-463 565,-457.5 565,-457.5 565,-446.5 565,-446.5 565,-441 570.5,-435.5 576,-435.5"/>
</g>
<!-- binding&#45;&gt;discovering -->
<g id="edge9" class="edge transition">
<title>binding&#45;&gt;discovering</title>
<path fill="none" stroke="black" d="M171.83,-701.57C237.19,-714.21 395.33,-734.9 497.5,-666 561.85,-622.6 589.51,-528.7 599.78,-481.03"/>
<polygon fill="black" stroke="black" points="603.16,-481.94 601.72,-471.45 596.3,-480.55 603.16,-481.94"/>
<text text-anchor="start" x="302" y="-717" font-family="Helvetica,sans-Serif" font-size="10.00">Register Host &#45; Re&#45;registration &#160;&#160;</text>
</g>
<!-- disconnected -->
<g id="node3" class="node state regular">
<title>disconnected</title>
<polygon fill="#ffffff" fill-opacity="0.003922" stroke="none" stroke-width="2" points="188,-659 94,-659 94,-623 188,-623 188,-659"/>
<text text-anchor="start" x="105" y="-637.4" font-family="Helvetica,sans-Serif" font-size="12.00">disconnected</text>
<path fill="none" stroke="black" stroke-width="2" d="M106,-624.5C106,-624.5 176,-624.5 176,-624.5 181.5,-624.5 187,-630 187,-635.5 187,-635.5 187,-646.5 187,-646.5 187,-652 181.5,-657.5 176,-657.5 176,-657.5 106,-657.5 106,-657.5 100.5,-657.5 95,-652 95,-646.5 95,-646.5 95,-635.5 95,-635.5 95,-630 100.5,-624.5 106,-624.5"/>
</g>
<!-- disconnected&#45;&gt;discovering -->
<g id="edge4" class="edge transition">
<title>disconnected&#45;&gt;discovering</title>
<path fill="none" stroke="black" d="M187.71,-647.03C259.11,-654.13 399.11,-658.51 497.5,-601 544.96,-573.26 577.24,-515.34 593.27,-480.45"/>
<polygon fill="black" stroke="black" points="596.44,-481.94 597.29,-471.38 590.04,-479.1 596.44,-481.94"/>
<text text-anchor="start" x="302" y="-654" font-family="Helvetica,sans-Serif" font-size="10.00">Register Host &#45; Re&#45;registration &#160;&#160;</text>
</g>
<!-- discovering&#45;&gt;discovering -->
<g id="edge2" class="edge transition">
<title>discovering&#45;&gt;discovering</title>
<path fill="none" stroke="black" d="M564.12,-469.78C557,-479.31 570.96,-488 606,-488 626.26,-488 639.47,-485.1 645.64,-480.81"/>
<polygon fill="black" stroke="black" points="649.02,-481.76 647.58,-471.26 642.16,-480.36 649.02,-481.76"/>
<text text-anchor="start" x="535" y="-491" font-family="Helvetica,sans-Serif" font-size="10.00">Register Host &#45; Re&#45;registration &#160;&#160;</text>
</g>
<!-- error -->
<g id="node5" class="node state regular">
<title>error</title>
<polygon fill="#ffffff" fill-opacity="0.003922" stroke="none" stroke-width="2" points="634,-43 578,-43 578,-7 634,-7 634,-43"/>
<text text-anchor="start" x="593.5" y="-21.4" font-family="Helvetica,sans-Serif" font-size="12.00">error</text>
<path fill="none" stroke="black" stroke-width="2" d="M590,-8.5C590,-8.5 622,-8.5 622,-8.5 627.5,-8.5 633,-14 633,-19.5 633,-19.5 633,-30.5 633,-30.5 633,-36 627.5,-41.5 622,-41.5 622,-41.5 590,-41.5 590,-41.5 584.5,-41.5 579,-36 579,-30.5 579,-30.5 579,-19.5 579,-19.5 579,-14 584.5,-8.5 590,-8.5"/>
</g>
<!-- error&#45;&gt;error -->
<g id="edge18" class="edge transition">
<title>error&#45;&gt;error</title>
<path fill="none" stroke="black" d="M578.12,-33.32C550.06,-45.61 559.35,-61 606,-61 645.72,-61 658.36,-49.84 643.9,-38.93"/>
<polygon fill="black" stroke="black" points="645.63,-35.89 635.2,-34.06 642.21,-42 645.63,-35.89"/>
<text text-anchor="start" x="523" y="-64" font-family="Helvetica,sans-Serif" font-size="10.00">Register Host &#45; Register during error &#160;&#160;</text>
</g>
<!-- initial -->
<g id="node6" class="node state regular">
<title>initial</title>
<polygon fill="#ffffff" fill-opacity="0.003922" stroke="none" stroke-width="2" points="169,-605 113,-605 113,-569 169,-569 169,-605"/>
<text text-anchor="start" x="126.5" y="-583.4" font-family="Helvetica,sans-Serif" font-size="12.00">initial</text>
<path fill="none" stroke="black" stroke-width="2" d="M125,-570.5C125,-570.5 157,-570.5 157,-570.5 162.5,-570.5 168,-576 168,-581.5 168,-581.5 168,-592.5 168,-592.5 168,-598 162.5,-603.5 157,-603.5 157,-603.5 125,-603.5 125,-603.5 119.5,-603.5 114,-598 114,-592.5 114,-592.5 114,-581.5 114,-581.5 114,-576 119.5,-570.5 125,-570.5"/>
</g>
<!-- initial&#45;&gt;discovering -->
<g id="edge1" class="edge transition">
<title>initial&#45;&gt;discovering</title>
<path fill="none" stroke="black" d="M168.7,-588.04C229.67,-589.44 382.73,-587.32 497.5,-538 529.78,-524.13 560.43,-497.83 580.69,-477.95"/>
<polygon fill="black" stroke="black" points="583.07,-480.52 587.64,-470.95 578.11,-475.58 583.07,-480.52"/>
<text text-anchor="start" x="296.5" y="-589" font-family="Helvetica,sans-Serif" font-size="10.00">Register Host &#45; Initial registration &#160;&#160;</text>
</g>
<!-- installed -->
<g id="node7" class="node state regular">
<title>installed</title>
<polygon fill="#ffffff" fill-opacity="0.003922" stroke="none" stroke-width="2" points="175,-767 107,-767 107,-731 175,-731 175,-767"/>
<text text-anchor="start" x="118" y="-745.4" font-family="Helvetica,sans-Serif" font-size="12.00">installed</text>
<path fill="none" stroke="black" stroke-width="2" d="M119,-732.5C119,-732.5 163,-732.5 163,-732.5 168.5,-732.5 174,-738 174,-743.5 174,-743.5 174,-754.5 174,-754.5 174,-760 168.5,-765.5 163,-765.5 163,-765.5 119,-765.5 119,-765.5 113.5,-765.5 108,-760 108,-754.5 108,-754.5 108,-743.5 108,-743.5 108,-738 113.5,-732.5 119,-732.5"/>
</g>
<!-- installed&#45;&gt;installed -->
<g id="edge19" class="edge transition">
<title>installed&#45;&gt;installed</title>
<path fill="none" stroke="black" d="M107.06,-760.43C87.09,-772.06 98.41,-785 141,-785 174.61,-785 188.74,-776.94 183.4,-767.83"/>
<polygon fill="black" stroke="black" points="185.91,-765.37 176.08,-761.42 181.3,-770.64 185.91,-765.37"/>
<text text-anchor="start" x="48.5" y="-788" font-family="Helvetica,sans-Serif" font-size="10.00">Register Host &#45; Register post&#45;installation &#160;&#160;</text>
</g>
<!-- installing -->
<g id="node8" class="node state regular">
<title>installing</title>
<polygon fill="#ffffff" fill-opacity="0.003922" stroke="none" stroke-width="2" points="176.5,-36 105.5,-36 105.5,0 176.5,0 176.5,-36"/>
<text text-anchor="start" x="117" y="-14.4" font-family="Helvetica,sans-Serif" font-size="12.00">installing</text>
<path fill="none" stroke="black" stroke-width="2" d="M117.5,-1.5C117.5,-1.5 164.5,-1.5 164.5,-1.5 170,-1.5 175.5,-7 175.5,-12.5 175.5,-12.5 175.5,-23.5 175.5,-23.5 175.5,-29 170,-34.5 164.5,-34.5 164.5,-34.5 117.5,-34.5 117.5,-34.5 112,-34.5 106.5,-29 106.5,-23.5 106.5,-23.5 106.5,-12.5 106.5,-12.5 106.5,-7 112,-1.5 117.5,-1.5"/>
</g>
<!-- installing&#45;&gt;error -->
<g id="edge16" class="edge transition">
<title>installing&#45;&gt;error</title>
<path fill="none" stroke="black" d="M176.33,-17.73C239.77,-17.33 379.66,-16.93 497.5,-20 520.45,-20.6 546.14,-21.77 566.65,-22.84"/>
<polygon fill="black" stroke="black" points="566.38,-26.33 576.55,-23.36 566.75,-19.34 566.38,-26.33"/>
<text text-anchor="start" x="276.5" y="-23" font-family="Helvetica,sans-Serif" font-size="10.00">Register Host &#45; Register during installation &#160;&#160;</text>
</g>
<!-- installing&#45;in&#45;progress -->
<g id="node9" class="node state regular">
<title>installing&#45;in&#45;progress</title>
<polygon fill="#ffffff" fill-opacity="0.003922" stroke="none" stroke-width="2" points="208,-90 74,-90 74,-54 208,-54 208,-90"/>
<text text-anchor="start" x="85" y="-68.4" font-family="Helvetica,sans-Serif" font-size="12.00">installing&#45;in&#45;progress</text>
<path fill="none" stroke="black" stroke-width="2" d="M86,-55.5C86,-55.5 196,-55.5 196,-55.5 201.5,-55.5 207,-61 207,-66.5 207,-66.5 207,-77.5 207,-77.5 207,-83 201.5,-88.5 196,-88.5 196,-88.5 86,-88.5 86,-88.5 80.5,-88.5 75,-83 75,-77.5 75,-77.5 75,-66.5 75,-66.5 75,-61 80.5,-55.5 86,-55.5"/>
</g>
<!-- installing&#45;in&#45;progress&#45;&gt;error -->
<g id="edge17" class="edge transition">
<title>installing&#45;in&#45;progress&#45;&gt;error</title>
<path fill="none" stroke="black" d="M207.83,-62.2C221.27,-60.35 235.33,-58.52 248.5,-57 364.15,-43.67 501.45,-32.71 566.78,-27.8"/>
<polygon fill="black" stroke="black" points="566.9,-31.3 576.61,-27.06 566.38,-24.32 566.9,-31.3"/>
<text text-anchor="start" x="276.5" y="-60" font-family="Helvetica,sans-Serif" font-size="10.00">Register Host &#45; Register during installation &#160;&#160;</text>
</g>
<!-- installing&#45;in&#45;progress&#45;&gt;installing&#45;pending&#45;user&#45;action -->
<g id="edge13" class="edge transition">
<title>installing&#45;in&#45;progress&#45;&gt;installing&#45;pending&#45;user&#45;action</title>
<path fill="none" stroke="black" d="M207.92,-77.63C279.34,-83.88 396.62,-94.61 497.5,-106 499.71,-106.25 501.94,-106.51 504.2,-106.77"/>
<polygon fill="black" stroke="black" points="503.73,-110.24 514.07,-107.94 504.55,-103.29 503.73,-110.24"/>
<text text-anchor="start" x="275" y="-109" font-family="Helvetica,sans-Serif" font-size="10.00">Register Host &#45; Wrong boot order detection &#160;&#160;</text>
</g>
<!-- installing&#45;pending&#45;user&#45;action&#45;&gt;installing&#45;pending&#45;user&#45;action -->
<g id="edge14" class="edge transition">
<title>installing&#45;pending&#45;user&#45;action&#45;&gt;installing&#45;pending&#45;user&#45;action</title>
<path fill="none" stroke="black" d="M564.12,-137.78C557,-147.31 570.96,-156 606,-156 626.26,-156 639.47,-153.1 645.64,-148.81"/>
<polygon fill="black" stroke="black" points="649.02,-149.76 647.58,-139.26 642.16,-148.36 649.02,-149.76"/>
<text text-anchor="start" x="508" y="-159" font-family="Helvetica,sans-Serif" font-size="10.00">Register Host &#45; Wrong boot order detection &#160;&#160;</text>
</g>
<!-- insufficient -->
<g id="node11" class="node state regular">
<title>insufficient</title>
<polygon fill="#ffffff" fill-opacity="0.003922" stroke="none" stroke-width="2" points="181,-551 101,-551 101,-515 181,-515 181,-551"/>
<text text-anchor="start" x="112" y="-529.4" font-family="Helvetica,sans-Serif" font-size="12.00">insufficient</text>
<path fill="none" stroke="black" stroke-width="2" d="M113,-516.5C113,-516.5 169,-516.5 169,-516.5 174.5,-516.5 180,-522 180,-527.5 180,-527.5 180,-538.5 180,-538.5 180,-544 174.5,-549.5 169,-549.5 169,-549.5 113,-549.5 113,-549.5 107.5,-549.5 102,-544 102,-538.5 102,-538.5 102,-527.5 102,-527.5 102,-522 107.5,-516.5 113,-516.5"/>
</g>
<!-- insufficient&#45;&gt;discovering -->
<g id="edge5" class="edge transition">
<title>insufficient&#45;&gt;discovering</title>
<path fill="none" stroke="black" d="M180.81,-530.35C246.61,-525.34 383.97,-512.59 497.5,-487 516.05,-482.82 535.96,-476.79 553.54,-470.91"/>
<polygon fill="black" stroke="black" points="554.39,-474.32 562.72,-467.77 552.12,-467.69 554.39,-474.32"/>
<text text-anchor="start" x="302" y="-526" font-family="Helvetica,sans-Serif" font-size="10.00">Register Host &#45; Re&#45;registration &#160;&#160;</text>
</g>
<!-- known -->
<g id="node12" class="node state regular">
<title>known</title>
<polygon fill="#ffffff" fill-opacity="0.003922" stroke="none" stroke-width="2" points="170,-497 112,-497 112,-461 170,-461 170,-497"/>
<text text-anchor="start" x="123" y="-475.4" font-family="Helvetica,sans-Serif" font-size="12.00">known</text>
<path fill="none" stroke="black" stroke-width="2" d="M124,-462.5C124,-462.5 158,-462.5 158,-462.5 163.5,-462.5 169,-468 169,-473.5 169,-473.5 169,-484.5 169,-484.5 169,-490 163.5,-495.5 158,-495.5 158,-495.5 124,-495.5 124,-495.5 118.5,-495.5 113,-490 113,-484.5 113,-484.5 113,-473.5 113,-473.5 113,-468 118.5,-462.5 124,-462.5"/>
</g>
<!-- known&#45;&gt;discovering -->
<g id="edge3" class="edge transition">
<title>known&#45;&gt;discovering</title>
<path fill="none" stroke="black" d="M169.92,-477.37C245.44,-472.97 454.67,-460.77 552.86,-455.04"/>
<polygon fill="black" stroke="black" points="552.98,-458.54 562.75,-454.46 552.57,-451.55 552.98,-458.54"/>
<text text-anchor="start" x="302" y="-475" font-family="Helvetica,sans-Serif" font-size="10.00">Register Host &#45; Re&#45;registration &#160;&#160;</text>
</g>
<!-- pending&#45;for&#45;input -->
<g id="node13" class="node state regular">
<title>pending&#45;for&#45;input</title>
<polygon fill="#ffffff" fill-opacity="0.003922" stroke="none" stroke-width="2" points="197.5,-443 84.5,-443 84.5,-407 197.5,-407 197.5,-443"/>
<text text-anchor="start" x="96" y="-421.4" font-family="Helvetica,sans-Serif" font-size="12.00">pending&#45;for&#45;input</text>
<path fill="none" stroke="black" stroke-width="2" d="M96.5,-408.5C96.5,-408.5 185.5,-408.5 185.5,-408.5 191,-408.5 196.5,-414 196.5,-419.5 196.5,-419.5 196.5,-430.5 196.5,-430.5 196.5,-436 191,-441.5 185.5,-441.5 185.5,-441.5 96.5,-441.5 96.5,-441.5 91,-441.5 85.5,-436 85.5,-430.5 85.5,-430.5 85.5,-419.5 85.5,-419.5 85.5,-414 91,-408.5 96.5,-408.5"/>
</g>
<!-- pending&#45;for&#45;input&#45;&gt;discovering -->
<g id="edge10" class="edge transition">
<title>pending&#45;for&#45;input&#45;&gt;discovering</title>
<path fill="none" stroke="black" d="M197.45,-427.24C267.42,-430.2 391.45,-435.88 497.5,-443 515.5,-444.21 535.18,-445.78 552.72,-447.28"/>
<polygon fill="black" stroke="black" points="552.41,-450.76 562.68,-448.13 553.02,-443.79 552.41,-450.76"/>
<text text-anchor="start" x="302" y="-446" font-family="Helvetica,sans-Serif" font-size="10.00">Register Host &#45; Re&#45;registration &#160;&#160;</text>
</g>
<!-- preparing&#45;for&#45;installation -->
<g id="node14" class="node state regular">
<title>preparing&#45;for&#45;installation</title>
<polygon fill="#ffffff" fill-opacity="0.003922" stroke="none" stroke-width="2" points="217,-389 65,-389 65,-353 217,-353 217,-389"/>
<text text-anchor="start" x="76" y="-367.4" font-family="Helvetica,sans-Serif" font-size="12.00">preparing&#45;for&#45;installation</text>
<path fill="none" stroke="black" stroke-width="2" d="M77,-354.5C77,-354.5 205,-354.5 205,-354.5 210.5,-354.5 216,-360 216,-365.5 216,-365.5 216,-376.5 216,-376.5 216,-382 210.5,-387.5 205,-387.5 205,-387.5 77,-387.5 77,-387.5 71.5,-387.5 66,-382 66,-376.5 66,-376.5 66,-365.5 66,-365.5 66,-360 71.5,-354.5 77,-354.5"/>
</g>
<!-- preparing&#45;for&#45;installation&#45;&gt;discovering -->
<g id="edge7" class="edge transition">
<title>preparing&#45;for&#45;installation&#45;&gt;discovering</title>
<path fill="none" stroke="black" d="M216.7,-375.26C289.22,-380.51 402.01,-391.63 497.5,-414 516.09,-418.36 535.94,-424.82 553.46,-431.2"/>
<polygon fill="black" stroke="black" points="552.02,-434.4 562.61,-434.6 554.46,-427.83 552.02,-434.4"/>
<text text-anchor="start" x="302" y="-417" font-family="Helvetica,sans-Serif" font-size="10.00">Register Host &#45; Re&#45;registration &#160;&#160;</text>
</g>
<!-- preparing&#45;successful -->
<g id="node15" class="node state regular">
<title>preparing&#45;successful</title>
<polygon fill="#ffffff" fill-opacity="0.003922" stroke="none" stroke-width="2" points="208,-335 74,-335 74,-299 208,-299 208,-335"/>
<text text-anchor="start" x="85" y="-313.4" font-family="Helvetica,sans-Serif" font-size="12.00">preparing&#45;successful</text>
<path fill="none" stroke="black" stroke-width="2" d="M86,-300.5C86,-300.5 196,-300.5 196,-300.5 201.5,-300.5 207,-306 207,-311.5 207,-311.5 207,-322.5 207,-322.5 207,-328 201.5,-333.5 196,-333.5 196,-333.5 86,-333.5 86,-333.5 80.5,-333.5 75,-328 75,-322.5 75,-322.5 75,-311.5 75,-311.5 75,-306 80.5,-300.5 86,-300.5"/>
</g>
<!-- preparing&#45;successful&#45;&gt;discovering -->
<g id="edge8" class="edge transition">
<title>preparing&#45;successful&#45;&gt;discovering</title>
<path fill="none" stroke="black" d="M207.79,-314.79C281.41,-314.7 402.76,-321.81 497.5,-363 530.7,-377.43 561.77,-405.34 581.88,-426.07"/>
<polygon fill="black" stroke="black" points="579.09,-428.22 588.5,-433.08 584.18,-423.41 579.09,-428.22"/>
<text text-anchor="start" x="302" y="-366" font-family="Helvetica,sans-Serif" font-size="10.00">Register Host &#45; Re&#45;registration &#160;&#160;</text>
</g>
<!-- resetting -->
<g id="node16" class="node state regular">
<title>resetting</title>
<polygon fill="#ffffff" fill-opacity="0.003922" stroke="none" stroke-width="2" points="175.5,-252 106.5,-252 106.5,-216 175.5,-216 175.5,-252"/>
<text text-anchor="start" x="118" y="-230.4" font-family="Helvetica,sans-Serif" font-size="12.00">resetting</text>
<path fill="none" stroke="black" stroke-width="2" d="M118.5,-217.5C118.5,-217.5 163.5,-217.5 163.5,-217.5 169,-217.5 174.5,-223 174.5,-228.5 174.5,-228.5 174.5,-239.5 174.5,-239.5 174.5,-245 169,-250.5 163.5,-250.5 163.5,-250.5 118.5,-250.5 118.5,-250.5 113,-250.5 107.5,-245 107.5,-239.5 107.5,-239.5 107.5,-228.5 107.5,-228.5 107.5,-223 113,-217.5 118.5,-217.5"/>
</g>
<!-- resetting&#45;&gt;discovering -->
<g id="edge12" class="edge transition">
<title>resetting&#45;&gt;discovering</title>
<path fill="none" stroke="black" d="M175.37,-232.22C242.1,-230.26 394.4,-234.01 497.5,-300 544.42,-330.03 576.89,-388.52 593.09,-423.54"/>
<polygon fill="black" stroke="black" points="589.89,-424.94 597.17,-432.63 596.28,-422.08 589.89,-424.94"/>
<text text-anchor="start" x="248.5" y="-303" font-family="Helvetica,sans-Serif" font-size="10.00">Register Host &#45; Register non&#45;rebooting host in resetting &#160;&#160;</text>
</g>
<!-- resetting&#45;&gt;resetting -->
<g id="edge11" class="edge transition">
<title>resetting&#45;&gt;resetting</title>
<path fill="none" stroke="black" d="M106.74,-245.61C87.21,-257.19 98.63,-270 141,-270 174.1,-270 188.31,-262.18 183.63,-253.24"/>
<polygon fill="black" stroke="black" points="186.13,-250.78 176.38,-246.63 181.41,-255.96 186.13,-250.78"/>
<text text-anchor="start" x="0" y="-273" font-family="Helvetica,sans-Serif" font-size="10.00">Register Host &#45; Ignore register while rebooting host in resetting &#160;&#160;</text>
</g>
<!-- resetting&#45;pending&#45;user&#45;action -->
<g id="node17" class="node state regular">
<title>resetting&#45;pending&#45;user&#45;action</title>
<polygon fill="#ffffff" fill-opacity="0.003922" stroke="none" stroke-width="2" points="230.5,-198 51.5,-198 51.5,-162 230.5,-162 230.5,-198"/>
<text text-anchor="start" x="63" y="-176.4" font-family="Helvetica,sans-Serif" font-size="12.00">resetting&#45;pending&#45;user&#45;action</text>
<path fill="none" stroke="black" stroke-width="2" d="M63.5,-163.5C63.5,-163.5 218.5,-163.5 218.5,-163.5 224,-163.5 229.5,-169 229.5,-174.5 229.5,-174.5 229.5,-185.5 229.5,-185.5 229.5,-191 224,-196.5 218.5,-196.5 218.5,-196.5 63.5,-196.5 63.5,-196.5 58,-196.5 52.5,-191 52.5,-185.5 52.5,-185.5 52.5,-174.5 52.5,-174.5 52.5,-169 58,-163.5 63.5,-163.5"/>
</g>
<!-- resetting&#45;pending&#45;user&#45;action&#45;&gt;discovering -->
<g id="edge6" class="edge transition">
<title>resetting&#45;pending&#45;user&#45;action&#45;&gt;discovering</title>
<path fill="none" stroke="black" d="M230.13,-166.65C307.74,-159.8 420.14,-162.38 497.5,-218 566.39,-267.53 592.22,-372.23 600.97,-423.07"/>
<polygon fill="black" stroke="black" points="597.48,-423.4 602.52,-432.71 604.39,-422.29 597.48,-423.4"/>
<text text-anchor="start" x="302" y="-221" font-family="Helvetica,sans-Serif" font-size="10.00">Register Host &#45; Re&#45;registration &#160;&#160;</text>
</g>
</g>
</svg>
