<?xml version="1.0" encoding="UTF-8" standalone="no"?>
<!DOCTYPE svg PUBLIC "-//W3C//DTD SVG 1.1//EN"
 "http://www.w3.org/Graphics/SVG/1.1/DTD/svg11.dtd">
<!-- Generated by graphviz version 12.1.0 (20240811.2233)
 -->
<!-- Title: state transitions Pages: 1 -->
<svg width="549pt" height="98pt"
 viewBox="0.00 0.00 548.75 98.25" xmlns="http://www.w3.org/2000/svg" xmlns:xlink="http://www.w3.org/1999/xlink">
<g id="graph0" class="graph" transform="scale(1 1) rotate(0) translate(4 94.25)">
<title>state transitions</title>
<polygon fill="white" stroke="none" points="-4,4 -4,-94.25 544.75,-94.25 544.75,4 -4,4"/>
<!-- error -->
<g id="node1" class="node state regular">
<title>error</title>
<polygon fill="#ffffff" fill-opacity="0.003922" stroke="none" stroke-width="2" points="540.75,-63.25 484.75,-63.25 484.75,-27 540.75,-27 540.75,-63.25"/>
<text text-anchor="start" x="498.12" y="-40.85" font-family="Helvetica,sans-Serif" font-size="12.00">error</text>
<path fill="none" stroke="black" stroke-width="2" d="M497.17,-28C497.17,-28 528.33,-28 528.33,-28 534.04,-28 539.75,-33.71 539.75,-39.42 539.75,-39.42 539.75,-50.83 539.75,-50.83 539.75,-56.54 534.04,-62.25 528.33,-62.25 528.33,-62.25 497.17,-62.25 497.17,-62.25 491.46,-62.25 485.75,-56.54 485.75,-50.83 485.75,-50.83 485.75,-39.42 485.75,-39.42 485.75,-33.71 491.46,-28 497.17,-28"/>
</g>
<!-- installing -->
<g id="node2" class="node state regular">
<title>installing</title>
<polygon fill="#ffffff" fill-opacity="0.003922" stroke="none" stroke-width="2" points="109.75,-90.25 35.25,-90.25 35.25,-54 109.75,-54 109.75,-90.25"/>
<text text-anchor="start" x="46.25" y="-67.85" font-family="Helvetica,sans-Serif" font-size="12.00">installing</text>
<path fill="none" stroke="black" stroke-width="2" d="M47.67,-55C47.67,-55 97.33,-55 97.33,-55 103.04,-55 108.75,-60.71 108.75,-66.42 108.75,-66.42 108.75,-77.83 108.75,-77.83 108.75,-83.54 103.04,-89.25 97.33,-89.25 97.33,-89.25 47.67,-89.25 47.67,-89.25 41.96,-89.25 36.25,-83.54 36.25,-77.83 36.25,-77.83 36.25,-66.42 36.25,-66.42 36.25,-60.71 41.96,-55 47.67,-55"/>
</g>
<!-- installing&#45;&gt;error -->
<g id="edge1" class="edge transition">
<title>installing&#45;&gt;error</title>
<path fill="none" stroke="black" d="M109.74,-69.89C191.54,-64.85 389.88,-52.63 473.53,-47.48"/>
<polygon fill="black" stroke="black" points="473.74,-50.97 483.5,-46.87 473.31,-43.99 473.74,-50.97"/>
<text text-anchor="start" x="163" y="-69.54" font-family="Helvetica,sans-Serif" font-size="10.00">Installation Failed &#45; Installation failed while host is installing &#160;&#160;</text>
</g>
<!-- installing&#45;in&#45;progress -->
<g id="node3" class="node state regular">
<title>installing&#45;in&#45;progress</title>
<polygon fill="#ffffff" fill-opacity="0.003922" stroke="none" stroke-width="2" points="145,-36.25 0,-36.25 0,0 145,0 145,-36.25"/>
<text text-anchor="start" x="11" y="-13.85" font-family="Helvetica,sans-Serif" font-size="12.00">installing&#45;in&#45;progress</text>
<path fill="none" stroke="black" stroke-width="2" d="M12.42,-1C12.42,-1 132.58,-1 132.58,-1 138.29,-1 144,-6.71 144,-12.42 144,-12.42 144,-23.83 144,-23.83 144,-29.54 138.29,-35.25 132.58,-35.25 132.58,-35.25 12.42,-35.25 12.42,-35.25 6.71,-35.25 1,-29.54 1,-23.83 1,-23.83 1,-12.42 1,-12.42 1,-6.71 6.71,-1 12.42,-1"/>
</g>
<!-- installing&#45;in&#45;progress&#45;&gt;error -->
<g id="edge2" class="edge transition">
<title>installing&#45;in&#45;progress&#45;&gt;error</title>
<path fill="none" stroke="black" d="M144.74,-14.94C223.95,-12.7 355.4,-12.82 466.75,-31.38 469.08,-31.76 471.46,-32.24 473.84,-32.78"/>
<polygon fill="black" stroke="black" points="472.87,-36.14 483.43,-35.28 474.64,-29.37 472.87,-36.14"/>
<text text-anchor="start" x="163" y="-34.62" font-family="Helvetica,sans-Serif" font-size="10.00">Installation Failed &#45; Installation failed while host is installing &#160;&#160;</text>
</g>
</g>
</svg>
