<?xml version="1.0" encoding="UTF-8" standalone="no"?>
<!DOCTYPE svg PUBLIC "-//W3C//DTD SVG 1.1//EN"
 "http://www.w3.org/Graphics/SVG/1.1/DTD/svg11.dtd">
<!-- Generated by graphviz version 12.1.0 (20240811.2233)
 -->
<!-- Title: state transitions Pages: 1 -->
<svg width="621pt" height="476pt"
 viewBox="0.00 0.00 621.25 476.25" xmlns="http://www.w3.org/2000/svg" xmlns:xlink="http://www.w3.org/1999/xlink">
<g id="graph0" class="graph" transform="scale(1 1) rotate(0) translate(4 472.25)">
<title>state transitions</title>
<polygon fill="white" stroke="none" points="-4,4 -4,-472.25 617.25,-472.25 617.25,4 -4,4"/>
<!-- added&#45;to&#45;existing&#45;cluster -->
<g id="node1" class="node state regular">
<title>added&#45;to&#45;existing&#45;cluster</title>
<polygon fill="#ffffff" fill-opacity="0.003922" stroke="none" stroke-width="2" points="171.25,-90.25 0,-90.25 0,-54 171.25,-54 171.25,-90.25"/>
<text text-anchor="start" x="11" y="-67.85" font-family="Helvetica,sans-Serif" font-size="12.00">added&#45;to&#45;existing&#45;cluster</text>
<path fill="none" stroke="black" stroke-width="2" d="M12.42,-55C12.42,-55 158.83,-55 158.83,-55 164.54,-55 170.25,-60.71 170.25,-66.42 170.25,-66.42 170.25,-77.83 170.25,-77.83 170.25,-83.54 164.54,-89.25 158.83,-89.25 158.83,-89.25 12.42,-89.25 12.42,-89.25 6.71,-89.25 1,-83.54 1,-77.83 1,-77.83 1,-66.42 1,-66.42 1,-60.71 6.71,-55 12.42,-55"/>
</g>
<!-- reclaiming -->
<g id="node2" class="node state regular">
<title>reclaiming</title>
<polygon fill="#ffffff" fill-opacity="0.003922" stroke="none" stroke-width="2" points="553.25,-76.25 469,-76.25 469,-40 553.25,-40 553.25,-76.25"/>
<text text-anchor="start" x="480" y="-53.85" font-family="Helvetica,sans-Serif" font-size="12.00">reclaiming</text>
<path fill="none" stroke="black" stroke-width="2" d="M481.42,-41C481.42,-41 540.83,-41 540.83,-41 546.54,-41 552.25,-46.71 552.25,-52.42 552.25,-52.42 552.25,-63.83 552.25,-63.83 552.25,-69.54 546.54,-75.25 540.83,-75.25 540.83,-75.25 481.42,-75.25 481.42,-75.25 475.71,-75.25 470,-69.54 470,-63.83 470,-63.83 470,-52.42 470,-52.42 470,-46.71 475.71,-41 481.42,-41"/>
</g>
<!-- added&#45;to&#45;existing&#45;cluster&#45;&gt;reclaiming -->
<g id="edge1" class="edge transition">
<title>added&#45;to&#45;existing&#45;cluster&#45;&gt;reclaiming</title>
<path fill="none" stroke="black" d="M171.05,-69.33C256.54,-66.51 386.07,-62.23 457.76,-59.86"/>
<polygon fill="black" stroke="black" points="457.78,-63.36 467.66,-59.53 457.55,-56.36 457.78,-63.36"/>
<text text-anchor="start" x="189.25" y="-71.62" font-family="Helvetica,sans-Serif" font-size="10.00">Reclaim Host &#45; Reclaim successful host &#160;&#160;</text>
</g>
<!-- cancelled -->
<g id="node3" class="node state regular">
<title>cancelled</title>
<polygon fill="#ffffff" fill-opacity="0.003922" stroke="none" stroke-width="2" points="125.12,-198.25 46.12,-198.25 46.12,-162 125.12,-162 125.12,-198.25"/>
<text text-anchor="start" x="57.12" y="-175.85" font-family="Helvetica,sans-Serif" font-size="12.00">cancelled</text>
<path fill="none" stroke="black" stroke-width="2" d="M58.54,-163C58.54,-163 112.71,-163 112.71,-163 118.42,-163 124.12,-168.71 124.12,-174.42 124.12,-174.42 124.12,-185.83 124.12,-185.83 124.12,-191.54 118.42,-197.25 112.71,-197.25 112.71,-197.25 58.54,-197.25 58.54,-197.25 52.83,-197.25 47.12,-191.54 47.12,-185.83 47.12,-185.83 47.12,-174.42 47.12,-174.42 47.12,-168.71 52.83,-163 58.54,-163"/>
</g>
<!-- unbinding&#45;pending&#45;user&#45;action -->
<g id="node4" class="node state regular">
<title>unbinding&#45;pending&#45;user&#45;action</title>
<polygon fill="#ffffff" fill-opacity="0.003922" stroke="none" stroke-width="2" points="613.25,-157.25 409,-157.25 409,-121 613.25,-121 613.25,-157.25"/>
<text text-anchor="start" x="420" y="-134.85" font-family="Helvetica,sans-Serif" font-size="12.00">unbinding&#45;pending&#45;user&#45;action</text>
<path fill="none" stroke="black" stroke-width="2" d="M421.42,-122C421.42,-122 600.83,-122 600.83,-122 606.54,-122 612.25,-127.71 612.25,-133.42 612.25,-133.42 612.25,-144.83 612.25,-144.83 612.25,-150.54 606.54,-156.25 600.83,-156.25 600.83,-156.25 421.42,-156.25 421.42,-156.25 415.71,-156.25 410,-150.54 410,-144.83 410,-144.83 410,-133.42 410,-133.42 410,-127.71 415.71,-122 421.42,-122"/>
</g>
<!-- cancelled&#45;&gt;unbinding&#45;pending&#45;user&#45;action -->
<g id="edge2" class="edge transition">
<title>cancelled&#45;&gt;unbinding&#45;pending&#45;user&#45;action</title>
<path fill="none" stroke="black" d="M125.08,-176.8C182.85,-171.75 295.43,-161.73 391,-152.12 393.21,-151.9 395.45,-151.68 397.7,-151.45"/>
<polygon fill="black" stroke="black" points="397.98,-154.94 407.57,-150.43 397.27,-147.97 397.98,-154.94"/>
<text text-anchor="start" x="200.88" y="-173.83" font-family="Helvetica,sans-Serif" font-size="10.00">Reclaim Host &#45; Reclaim failed host &#160;&#160;</text>
</g>
<!-- disconnected -->
<g id="node5" class="node state regular">
<title>disconnected</title>
<polygon fill="#ffffff" fill-opacity="0.003922" stroke="none" stroke-width="2" points="136.38,-468.25 34.88,-468.25 34.88,-432 136.38,-432 136.38,-468.25"/>
<text text-anchor="start" x="45.88" y="-445.85" font-family="Helvetica,sans-Serif" font-size="12.00">disconnected</text>
<path fill="none" stroke="black" stroke-width="2" d="M47.29,-433C47.29,-433 123.96,-433 123.96,-433 129.67,-433 135.38,-438.71 135.38,-444.42 135.38,-444.42 135.38,-455.83 135.38,-455.83 135.38,-461.54 129.67,-467.25 123.96,-467.25 123.96,-467.25 47.29,-467.25 47.29,-467.25 41.58,-467.25 35.88,-461.54 35.88,-455.83 35.88,-455.83 35.88,-444.42 35.88,-444.42 35.88,-438.71 41.58,-433 47.29,-433"/>
</g>
<!-- unbinding -->
<g id="node6" class="node state regular">
<title>unbinding</title>
<polygon fill="#ffffff" fill-opacity="0.003922" stroke="none" stroke-width="2" points="551.38,-360.25 470.88,-360.25 470.88,-324 551.38,-324 551.38,-360.25"/>
<text text-anchor="start" x="481.88" y="-337.85" font-family="Helvetica,sans-Serif" font-size="12.00">unbinding</text>
<path fill="none" stroke="black" stroke-width="2" d="M483.29,-325C483.29,-325 538.96,-325 538.96,-325 544.67,-325 550.38,-330.71 550.38,-336.42 550.38,-336.42 550.38,-347.83 550.38,-347.83 550.38,-353.54 544.67,-359.25 538.96,-359.25 538.96,-359.25 483.29,-359.25 483.29,-359.25 477.58,-359.25 471.88,-353.54 471.88,-347.83 471.88,-347.83 471.88,-336.42 471.88,-336.42 471.88,-330.71 477.58,-325 483.29,-325"/>
</g>
<!-- disconnected&#45;&gt;unbinding -->
<g id="edge3" class="edge transition">
<title>disconnected&#45;&gt;unbinding</title>
<path fill="none" stroke="black" d="M136.15,-446.43C197.24,-440.87 303.74,-427.88 391,-400.12 418.18,-391.48 446.98,-377.6 469.46,-365.59"/>
<polygon fill="black" stroke="black" points="470.87,-368.8 477.98,-360.95 467.52,-362.65 470.87,-368.8"/>
<text text-anchor="start" x="189.62" y="-443.96" font-family="Helvetica,sans-Serif" font-size="10.00">Reclaim Host &#45; Reclaim pre&#45;installation &#160;&#160;</text>
</g>
<!-- discovering -->
<g id="node7" class="node state regular">
<title>discovering</title>
<polygon fill="#ffffff" fill-opacity="0.003922" stroke="none" stroke-width="2" points="130.75,-414.25 40.5,-414.25 40.5,-378 130.75,-378 130.75,-414.25"/>
<text text-anchor="start" x="51.5" y="-391.85" font-family="Helvetica,sans-Serif" font-size="12.00">discovering</text>
<path fill="none" stroke="black" stroke-width="2" d="M52.92,-379C52.92,-379 118.33,-379 118.33,-379 124.04,-379 129.75,-384.71 129.75,-390.42 129.75,-390.42 129.75,-401.83 129.75,-401.83 129.75,-407.54 124.04,-413.25 118.33,-413.25 118.33,-413.25 52.92,-413.25 52.92,-413.25 47.21,-413.25 41.5,-407.54 41.5,-401.83 41.5,-401.83 41.5,-390.42 41.5,-390.42 41.5,-384.71 47.21,-379 52.92,-379"/>
</g>
<!-- discovering&#45;&gt;unbinding -->
<g id="edge4" class="edge transition">
<title>discovering&#45;&gt;unbinding</title>
<path fill="none" stroke="black" d="M130.51,-391.08C189.7,-384.21 298.38,-371.36 391,-359.12 413.54,-356.15 438.45,-352.63 459.64,-349.57"/>
<polygon fill="black" stroke="black" points="460.1,-353.04 469.49,-348.14 459.09,-346.11 460.1,-353.04"/>
<text text-anchor="start" x="189.62" y="-386.72" font-family="Helvetica,sans-Serif" font-size="10.00">Reclaim Host &#45; Reclaim pre&#45;installation &#160;&#160;</text>
</g>
<!-- error -->
<g id="node8" class="node state regular">
<title>error</title>
<polygon fill="#ffffff" fill-opacity="0.003922" stroke="none" stroke-width="2" points="113.62,-144.25 57.62,-144.25 57.62,-108 113.62,-108 113.62,-144.25"/>
<text text-anchor="start" x="71" y="-121.85" font-family="Helvetica,sans-Serif" font-size="12.00">error</text>
<path fill="none" stroke="black" stroke-width="2" d="M70.04,-109C70.04,-109 101.21,-109 101.21,-109 106.92,-109 112.62,-114.71 112.62,-120.42 112.62,-120.42 112.62,-131.83 112.62,-131.83 112.62,-137.54 106.92,-143.25 101.21,-143.25 101.21,-143.25 70.04,-143.25 70.04,-143.25 64.33,-143.25 58.62,-137.54 58.62,-131.83 58.62,-131.83 58.62,-120.42 58.62,-120.42 58.62,-114.71 64.33,-109 70.04,-109"/>
</g>
<!-- error&#45;&gt;unbinding&#45;pending&#45;user&#45;action -->
<g id="edge5" class="edge transition">
<title>error&#45;&gt;unbinding&#45;pending&#45;user&#45;action</title>
<path fill="none" stroke="black" d="M113.44,-126.95C169.41,-128.67 301.46,-132.72 397.88,-135.68"/>
<polygon fill="black" stroke="black" points="397.54,-139.17 407.64,-135.98 397.76,-132.17 397.54,-139.17"/>
<text text-anchor="start" x="200.88" y="-138.53" font-family="Helvetica,sans-Serif" font-size="10.00">Reclaim Host &#45; Reclaim failed host &#160;&#160;</text>
</g>
<!-- installed -->
<g id="node9" class="node state regular">
<title>installed</title>
<polygon fill="#ffffff" fill-opacity="0.003922" stroke="none" stroke-width="2" points="121.38,-36.25 49.88,-36.25 49.88,0 121.38,0 121.38,-36.25"/>
<text text-anchor="start" x="60.88" y="-13.85" font-family="Helvetica,sans-Serif" font-size="12.00">installed</text>
<path fill="none" stroke="black" stroke-width="2" d="M62.29,-1C62.29,-1 108.96,-1 108.96,-1 114.67,-1 120.38,-6.71 120.38,-12.42 120.38,-12.42 120.38,-23.83 120.38,-23.83 120.38,-29.54 114.67,-35.25 108.96,-35.25 108.96,-35.25 62.29,-35.25 62.29,-35.25 56.58,-35.25 50.88,-29.54 50.88,-23.83 50.88,-23.83 50.88,-12.42 50.88,-12.42 50.88,-6.71 56.58,-1 62.29,-1"/>
</g>
<!-- installed&#45;&gt;reclaiming -->
<g id="edge6" class="edge transition">
<title>installed&#45;&gt;reclaiming</title>
<path fill="none" stroke="black" d="M121.34,-21.04C177.86,-25.82 293.32,-35.78 391,-45.38 412.92,-47.53 437.09,-50.08 457.89,-52.34"/>
<polygon fill="black" stroke="black" points="457.25,-55.79 467.57,-53.39 458,-48.83 457.25,-55.79"/>
<text text-anchor="start" x="189.25" y="-48.62" font-family="Helvetica,sans-Serif" font-size="10.00">Reclaim Host &#45; Reclaim successful host &#160;&#160;</text>
</g>
<!-- insufficient -->
<g id="node10" class="node state regular">
<title>insufficient</title>
<polygon fill="#ffffff" fill-opacity="0.003922" stroke="none" stroke-width="2" points="128.88,-360.25 42.38,-360.25 42.38,-324 128.88,-324 128.88,-360.25"/>
<text text-anchor="start" x="53.38" y="-337.85" font-family="Helvetica,sans-Serif" font-size="12.00">insufficient</text>
<path fill="none" stroke="black" stroke-width="2" d="M54.79,-325C54.79,-325 116.46,-325 116.46,-325 122.17,-325 127.88,-330.71 127.88,-336.42 127.88,-336.42 127.88,-347.83 127.88,-347.83 127.88,-353.54 122.17,-359.25 116.46,-359.25 116.46,-359.25 54.79,-359.25 54.79,-359.25 49.08,-359.25 43.38,-353.54 43.38,-347.83 43.38,-347.83 43.38,-336.42 43.38,-336.42 43.38,-330.71 49.08,-325 54.79,-325"/>
</g>
<!-- insufficient&#45;&gt;unbinding -->
<g id="edge7" class="edge transition">
<title>insufficient&#45;&gt;unbinding</title>
<path fill="none" stroke="black" d="M128.78,-342.12C207.21,-342.12 375.22,-342.12 459.59,-342.12"/>
<polygon fill="black" stroke="black" points="459.41,-345.63 469.41,-342.13 459.41,-338.63 459.41,-345.63"/>
<text text-anchor="start" x="189.62" y="-345.38" font-family="Helvetica,sans-Serif" font-size="10.00">Reclaim Host &#45; Reclaim pre&#45;installation &#160;&#160;</text>
</g>
<!-- known -->
<g id="node11" class="node state regular">
<title>known</title>
<polygon fill="#ffffff" fill-opacity="0.003922" stroke="none" stroke-width="2" points="116.12,-306.25 55.12,-306.25 55.12,-270 116.12,-270 116.12,-306.25"/>
<text text-anchor="start" x="66.12" y="-283.85" font-family="Helvetica,sans-Serif" font-size="12.00">known</text>
<path fill="none" stroke="black" stroke-width="2" d="M67.54,-271C67.54,-271 103.71,-271 103.71,-271 109.42,-271 115.12,-276.71 115.12,-282.42 115.12,-282.42 115.12,-293.83 115.12,-293.83 115.12,-299.54 109.42,-305.25 103.71,-305.25 103.71,-305.25 67.54,-305.25 67.54,-305.25 61.83,-305.25 56.12,-299.54 56.12,-293.83 56.12,-293.83 56.12,-282.42 56.12,-282.42 56.12,-276.71 61.83,-271 67.54,-271"/>
</g>
<!-- known&#45;&gt;unbinding -->
<g id="edge8" class="edge transition">
<title>known&#45;&gt;unbinding</title>
<path fill="none" stroke="black" d="M116.03,-291.55C170.37,-297.91 290.18,-312.12 391,-325.38 413.54,-328.34 438.45,-331.81 459.63,-334.82"/>
<polygon fill="black" stroke="black" points="459.09,-338.28 469.48,-336.23 460.08,-331.35 459.09,-338.28"/>
<text text-anchor="start" x="189.62" y="-328.62" font-family="Helvetica,sans-Serif" font-size="10.00">Reclaim Host &#45; Reclaim pre&#45;installation &#160;&#160;</text>
</g>
<!-- pending&#45;for&#45;input -->
<g id="node12" class="node state regular">
<title>pending&#45;for&#45;input</title>
<polygon fill="#ffffff" fill-opacity="0.003922" stroke="none" stroke-width="2" points="148.38,-252.25 22.88,-252.25 22.88,-216 148.38,-216 148.38,-252.25"/>
<text text-anchor="start" x="33.88" y="-229.85" font-family="Helvetica,sans-Serif" font-size="12.00">pending&#45;for&#45;input</text>
<path fill="none" stroke="black" stroke-width="2" d="M35.29,-217C35.29,-217 135.96,-217 135.96,-217 141.67,-217 147.38,-222.71 147.38,-228.42 147.38,-228.42 147.38,-239.83 147.38,-239.83 147.38,-245.54 141.67,-251.25 135.96,-251.25 135.96,-251.25 35.29,-251.25 35.29,-251.25 29.58,-251.25 23.88,-245.54 23.88,-239.83 23.88,-239.83 23.88,-228.42 23.88,-228.42 23.88,-222.71 29.58,-217 35.29,-217"/>
</g>
<!-- pending&#45;for&#45;input&#45;&gt;unbinding -->
<g id="edge9" class="edge transition">
<title>pending&#45;for&#45;input&#45;&gt;unbinding</title>
<path fill="none" stroke="black" d="M148.18,-239.05C210.54,-245.25 309.2,-258.4 391,-284.38 418.16,-293 446.96,-306.82 469.44,-318.78"/>
<polygon fill="black" stroke="black" points="467.5,-321.71 477.96,-323.4 470.84,-315.56 467.5,-321.71"/>
<text text-anchor="start" x="189.62" y="-287.62" font-family="Helvetica,sans-Serif" font-size="10.00">Reclaim Host &#45; Reclaim pre&#45;installation &#160;&#160;</text>
</g>
</g>
</svg>
