<?xml version="1.0" encoding="UTF-8" standalone="no"?>
<!DOCTYPE svg PUBLIC "-//W3C//DTD SVG 1.1//EN"
 "http://www.w3.org/Graphics/SVG/1.1/DTD/svg11.dtd">
<!-- Generated by graphviz version 12.1.0 (20240811.2233)
 -->
<!-- Title: state transitions Pages: 1 -->
<svg width="621pt" height="476pt"
 viewBox="0.00 0.00 620.50 476.25" xmlns="http://www.w3.org/2000/svg" xmlns:xlink="http://www.w3.org/1999/xlink">
<g id="graph0" class="graph" transform="scale(1 1) rotate(0) translate(4 472.25)">
<title>state transitions</title>
<polygon fill="white" stroke="none" points="-4,4 -4,-472.25 616.5,-472.25 616.5,4 -4,4"/>
<!-- added&#45;to&#45;existing&#45;cluster -->
<g id="node1" class="node state regular">
<title>added&#45;to&#45;existing&#45;cluster</title>
<polygon fill="#ffffff" fill-opacity="0.003922" stroke="none" stroke-width="2" points="171.25,-90.25 0,-90.25 0,-54 171.25,-54 171.25,-90.25"/>
<text text-anchor="start" x="11" y="-67.85" font-family="Helvetica,sans-Serif" font-size="12.00">added&#45;to&#45;existing&#45;cluster</text>
<path fill="none" stroke="black" stroke-width="2" d="M12.42,-55C12.42,-55 158.83,-55 158.83,-55 164.54,-55 170.25,-60.71 170.25,-66.42 170.25,-66.42 170.25,-77.83 170.25,-77.83 170.25,-83.54 164.54,-89.25 158.83,-89.25 158.83,-89.25 12.42,-89.25 12.42,-89.25 6.71,-89.25 1,-83.54 1,-77.83 1,-77.83 1,-66.42 1,-66.42 1,-60.71 6.71,-55 12.42,-55"/>
</g>
<!-- reclaiming -->
<g id="node2" class="node state regular">
<title>reclaiming</title>
<polygon fill="#ffffff" fill-opacity="0.003922" stroke="none" stroke-width="2" points="552.88,-76.25 468.62,-76.25 468.62,-40 552.88,-40 552.88,-76.25"/>
<text text-anchor="start" x="479.62" y="-53.85" font-family="Helvetica,sans-Serif" font-size="12.00">reclaiming</text>
<path fill="none" stroke="black" stroke-width="2" d="M481.04,-41C481.04,-41 540.46,-41 540.46,-41 546.17,-41 551.88,-46.71 551.88,-52.42 551.88,-52.42 551.88,-63.83 551.88,-63.83 551.88,-69.54 546.17,-75.25 540.46,-75.25 540.46,-75.25 481.04,-75.25 481.04,-75.25 475.33,-75.25 469.62,-69.54 469.62,-63.83 469.62,-63.83 469.62,-52.42 469.62,-52.42 469.62,-46.71 475.33,-41 481.04,-41"/>
</g>
<!-- added&#45;to&#45;existing&#45;cluster&#45;&gt;reclaiming -->
<g id="edge1" class="edge transition">
<title>added&#45;to&#45;existing&#45;cluster&#45;&gt;reclaiming</title>
<path fill="none" stroke="black" d="M171.23,-69.33C256.67,-66.5 385.95,-62.22 457.49,-59.85"/>
<polygon fill="black" stroke="black" points="457.5,-63.36 467.38,-59.53 457.26,-56.36 457.5,-63.36"/>
<text text-anchor="start" x="189.25" y="-71.62" font-family="Helvetica,sans-Serif" font-size="10.00">Reclaim Host &#45; Reclaim successful host &#160;&#160;</text>
</g>
<!-- cancelled -->
<g id="node3" class="node state regular">
<title>cancelled</title>
<polygon fill="#ffffff" fill-opacity="0.003922" stroke="none" stroke-width="2" points="125.12,-198.25 46.12,-198.25 46.12,-162 125.12,-162 125.12,-198.25"/>
<text text-anchor="start" x="57.12" y="-175.85" font-family="Helvetica,sans-Serif" font-size="12.00">cancelled</text>
<path fill="none" stroke="black" stroke-width="2" d="M58.54,-163C58.54,-163 112.71,-163 112.71,-163 118.42,-163 124.12,-168.71 124.12,-174.42 124.12,-174.42 124.12,-185.83 124.12,-185.83 124.12,-191.54 118.42,-197.25 112.71,-197.25 112.71,-197.25 58.54,-197.25 58.54,-197.25 52.83,-197.25 47.12,-191.54 47.12,-185.83 47.12,-185.83 47.12,-174.42 47.12,-174.42 47.12,-168.71 52.83,-163 58.54,-163"/>
</g>
<!-- unbinding&#45;pending&#45;user&#45;action -->
<g id="node4" class="node state regular">
<title>unbinding&#45;pending&#45;user&#45;action</title>
<polygon fill="#ffffff" fill-opacity="0.003922" stroke="none" stroke-width="2" points="612.5,-157.25 409,-157.25 409,-121 612.5,-121 612.5,-157.25"/>
<text text-anchor="start" x="420" y="-134.85" font-family="Helvetica,sans-Serif" font-size="12.00">unbinding&#45;pending&#45;user&#45;action</text>
<path fill="none" stroke="black" stroke-width="2" d="M421.42,-122C421.42,-122 600.08,-122 600.08,-122 605.79,-122 611.5,-127.71 611.5,-133.42 611.5,-133.42 611.5,-144.83 611.5,-144.83 611.5,-150.54 605.79,-156.25 600.08,-156.25 600.08,-156.25 421.42,-156.25 421.42,-156.25 415.71,-156.25 410,-150.54 410,-144.83 410,-144.83 410,-133.42 410,-133.42 410,-127.71 415.71,-122 421.42,-122"/>
</g>
<!-- cancelled&#45;&gt;unbinding&#45;pending&#45;user&#45;action -->
<g id="edge2" class="edge transition">
<title>cancelled&#45;&gt;unbinding&#45;pending&#45;user&#45;action</title>
<path fill="none" stroke="black" d="M125.08,-176.8C182.85,-171.76 295.43,-161.75 391,-152.12 393.21,-151.9 395.43,-151.68 397.68,-151.45"/>
<polygon fill="black" stroke="black" points="397.93,-154.94 407.52,-150.43 397.21,-147.98 397.93,-154.94"/>
<text text-anchor="start" x="200.88" y="-173.84" font-family="Helvetica,sans-Serif" font-size="10.00">Reclaim Host &#45; Reclaim failed host &#160;&#160;</text>
</g>
<!-- disconnected -->
<g id="node5" class="node state regular">
<title>disconnected</title>
<polygon fill="#ffffff" fill-opacity="0.003922" stroke="none" stroke-width="2" points="136.38,-468.25 34.88,-468.25 34.88,-432 136.38,-432 136.38,-468.25"/>
<text text-anchor="start" x="45.88" y="-445.85" font-family="Helvetica,sans-Serif" font-size="12.00">disconnected</text>
<path fill="none" stroke="black" stroke-width="2" d="M47.29,-433C47.29,-433 123.96,-433 123.96,-433 129.67,-433 135.38,-438.71 135.38,-444.42 135.38,-444.42 135.38,-455.83 135.38,-455.83 135.38,-461.54 129.67,-467.25 123.96,-467.25 123.96,-467.25 47.29,-467.25 47.29,-467.25 41.58,-467.25 35.88,-461.54 35.88,-455.83 35.88,-455.83 35.88,-444.42 35.88,-444.42 35.88,-438.71 41.58,-433 47.29,-433"/>
</g>
<!-- unbinding -->
<g id="node6" class="node state regular">
<title>unbinding</title>
<polygon fill="#ffffff" fill-opacity="0.003922" stroke="none" stroke-width="2" points="551,-360.25 470.5,-360.25 470.5,-324 551,-324 551,-360.25"/>
<text text-anchor="start" x="481.5" y="-337.85" font-family="Helvetica,sans-Serif" font-size="12.00">unbinding</text>
<path fill="none" stroke="black" stroke-width="2" d="M482.92,-325C482.92,-325 538.58,-325 538.58,-325 544.29,-325 550,-330.71 550,-336.42 550,-336.42 550,-347.83 550,-347.83 550,-353.54 544.29,-359.25 538.58,-359.25 538.58,-359.25 482.92,-359.25 482.92,-359.25 477.21,-359.25 471.5,-353.54 471.5,-347.83 471.5,-347.83 471.5,-336.42 471.5,-336.42 471.5,-330.71 477.21,-325 482.92,-325"/>
</g>
<!-- disconnected&#45;&gt;unbinding -->
<g id="edge3" class="edge transition">
<title>disconnected&#45;&gt;unbinding</title>
<path fill="none" stroke="black" d="M136.15,-446.45C197.26,-440.9 303.75,-427.94 391,-400.12 418.11,-391.48 446.82,-377.6 469.22,-365.59"/>
<polygon fill="black" stroke="black" points="470.61,-368.82 477.71,-360.95 467.25,-362.67 470.61,-368.82"/>
<text text-anchor="start" x="189.62" y="-443.99" font-family="Helvetica,sans-Serif" font-size="10.00">Reclaim Host &#45; Reclaim pre&#45;installation &#160;&#160;</text>
</g>
<!-- discovering -->
<g id="node7" class="node state regular">
<title>discovering</title>
<polygon fill="#ffffff" fill-opacity="0.003922" stroke="none" stroke-width="2" points="130.75,-414.25 40.5,-414.25 40.5,-378 130.75,-378 130.75,-414.25"/>
<text text-anchor="start" x="51.5" y="-391.85" font-family="Helvetica,sans-Serif" font-size="12.00">discovering</text>
<path fill="none" stroke="black" stroke-width="2" d="M52.92,-379C52.92,-379 118.33,-379 118.33,-379 124.04,-379 129.75,-384.71 129.75,-390.42 129.75,-390.42 129.75,-401.83 129.75,-401.83 129.75,-407.54 124.04,-413.25 118.33,-413.25 118.33,-413.25 52.92,-413.25 52.92,-413.25 47.21,-413.25 41.5,-407.54 41.5,-401.83 41.5,-401.83 41.5,-390.42 41.5,-390.42 41.5,-384.71 47.21,-379 52.92,-379"/>
</g>
<!-- discovering&#45;&gt;unbinding -->
<g id="edge4" class="edge transition">
<title>discovering&#45;&gt;unbinding</title>
<path fill="none" stroke="black" d="M130.51,-391.09C189.71,-384.22 298.39,-371.38 391,-359.12 413.47,-356.15 438.3,-352.63 459.42,-349.57"/>
<polygon fill="black" stroke="black" points="459.85,-353.05 469.24,-348.14 458.84,-346.12 459.85,-353.05"/>
<text text-anchor="start" x="189.62" y="-386.73" font-family="Helvetica,sans-Serif" font-size="10.00">Reclaim Host &#45; Reclaim pre&#45;installation &#160;&#160;</text>
</g>
<!-- error -->
<g id="node8" class="node state regular">
<title>error</title>
<polygon fill="#ffffff" fill-opacity="0.003922" stroke="none" stroke-width="2" points="113.62,-144.25 57.62,-144.25 57.62,-108 113.62,-108 113.62,-144.25"/>
<text text-anchor="start" x="71" y="-121.85" font-family="Helvetica,sans-Serif" font-size="12.00">error</text>
<path fill="none" stroke="black" stroke-width="2" d="M70.04,-109C70.04,-109 101.21,-109 101.21,-109 106.92,-109 112.62,-114.71 112.62,-120.42 112.62,-120.42 112.62,-131.83 112.62,-131.83 112.62,-137.54 106.92,-143.25 101.21,-143.25 101.21,-143.25 70.04,-143.25 70.04,-143.25 64.33,-143.25 58.62,-137.54 58.62,-131.83 58.62,-131.83 58.62,-120.42 58.62,-120.42 58.62,-114.71 64.33,-109 70.04,-109"/>
</g>
<!-- error&#45;&gt;unbinding&#45;pending&#45;user&#45;action -->
<g id="edge5" class="edge transition">
<title>error&#45;&gt;unbinding&#45;pending&#45;user&#45;action</title>
<path fill="none" stroke="black" d="M113.41,-126.95C169.42,-128.67 301.68,-132.73 398.05,-135.69"/>
<polygon fill="black" stroke="black" points="397.71,-139.18 407.81,-135.99 397.93,-132.19 397.71,-139.18"/>
<text text-anchor="start" x="200.88" y="-138.53" font-family="Helvetica,sans-Serif" font-size="10.00">Reclaim Host &#45; Reclaim failed host &#160;&#160;</text>
</g>
<!-- installed -->
<g id="node9" class="node state regular">
<title>installed</title>
<polygon fill="#ffffff" fill-opacity="0.003922" stroke="none" stroke-width="2" points="121.38,-36.25 49.88,-36.25 49.88,0 121.38,0 121.38,-36.25"/>
<text text-anchor="start" x="60.88" y="-13.85" font-family="Helvetica,sans-Serif" font-size="12.00">installed</text>
<path fill="none" stroke="black" stroke-width="2" d="M62.29,-1C62.29,-1 108.96,-1 108.96,-1 114.67,-1 120.38,-6.71 120.38,-12.42 120.38,-12.42 120.38,-23.83 120.38,-23.83 120.38,-29.54 114.67,-35.25 108.96,-35.25 108.96,-35.25 62.29,-35.25 62.29,-35.25 56.58,-35.25 50.88,-29.54 50.88,-23.83 50.88,-23.83 50.88,-12.42 50.88,-12.42 50.88,-6.71 56.58,-1 62.29,-1"/>
</g>
<!-- installed&#45;&gt;reclaiming -->
<g id="edge6" class="edge transition">
<title>installed&#45;&gt;reclaiming</title>
<path fill="none" stroke="black" d="M121.34,-21.03C177.86,-25.81 293.32,-35.76 391,-45.38 412.75,-47.52 436.72,-50.06 457.39,-52.3"/>
<polygon fill="black" stroke="black" points="457,-55.78 467.32,-53.39 457.76,-48.82 457,-55.78"/>
<text text-anchor="start" x="189.25" y="-48.62" font-family="Helvetica,sans-Serif" font-size="10.00">Reclaim Host &#45; Reclaim successful host &#160;&#160;</text>
</g>
<!-- insufficient -->
<g id="node10" class="node state regular">
<title>insufficient</title>
<polygon fill="#ffffff" fill-opacity="0.003922" stroke="none" stroke-width="2" points="129.25,-360.25 42,-360.25 42,-324 129.25,-324 129.25,-360.25"/>
<text text-anchor="start" x="53" y="-337.85" font-family="Helvetica,sans-Serif" font-size="12.00">insufficient</text>
<path fill="none" stroke="black" stroke-width="2" d="M54.42,-325C54.42,-325 116.83,-325 116.83,-325 122.54,-325 128.25,-330.71 128.25,-336.42 128.25,-336.42 128.25,-347.83 128.25,-347.83 128.25,-353.54 122.54,-359.25 116.83,-359.25 116.83,-359.25 54.42,-359.25 54.42,-359.25 48.71,-359.25 43,-353.54 43,-347.83 43,-347.83 43,-336.42 43,-336.42 43,-330.71 48.71,-325 54.42,-325"/>
</g>
<!-- insufficient&#45;&gt;unbinding -->
<g id="edge7" class="edge transition">
<title>insufficient&#45;&gt;unbinding</title>
<path fill="none" stroke="black" d="M129.13,-342.12C207.69,-342.12 375.25,-342.12 459.37,-342.12"/>
<polygon fill="black" stroke="black" points="459.16,-345.63 469.16,-342.13 459.16,-338.63 459.16,-345.63"/>
<text text-anchor="start" x="189.62" y="-345.38" font-family="Helvetica,sans-Serif" font-size="10.00">Reclaim Host &#45; Reclaim pre&#45;installation &#160;&#160;</text>
</g>
<!-- known -->
<g id="node11" class="node state regular">
<title>known</title>
<polygon fill="#ffffff" fill-opacity="0.003922" stroke="none" stroke-width="2" points="116.12,-306.25 55.12,-306.25 55.12,-270 116.12,-270 116.12,-306.25"/>
<text text-anchor="start" x="66.12" y="-283.85" font-family="Helvetica,sans-Serif" font-size="12.00">known</text>
<path fill="none" stroke="black" stroke-width="2" d="M67.54,-271C67.54,-271 103.71,-271 103.71,-271 109.42,-271 115.12,-276.71 115.12,-282.42 115.12,-282.42 115.12,-293.83 115.12,-293.83 115.12,-299.54 109.42,-305.25 103.71,-305.25 103.71,-305.25 67.54,-305.25 67.54,-305.25 61.83,-305.25 56.12,-299.54 56.12,-293.83 56.12,-293.83 56.12,-282.42 56.12,-282.42 56.12,-276.71 61.83,-271 67.54,-271"/>
</g>
<!-- known&#45;&gt;unbinding -->
<g id="edge8" class="edge transition">
<title>known&#45;&gt;unbinding</title>
<path fill="none" stroke="black" d="M116.03,-291.54C170.37,-297.9 290.19,-312.1 391,-325.38 413.47,-328.33 438.3,-331.8 459.42,-334.82"/>
<polygon fill="black" stroke="black" points="458.84,-338.27 469.23,-336.22 459.83,-331.34 458.84,-338.27"/>
<text text-anchor="start" x="189.62" y="-328.62" font-family="Helvetica,sans-Serif" font-size="10.00">Reclaim Host &#45; Reclaim pre&#45;installation &#160;&#160;</text>
</g>
<!-- pending&#45;for&#45;input -->
<g id="node12" class="node state regular">
<title>pending&#45;for&#45;input</title>
<polygon fill="#ffffff" fill-opacity="0.003922" stroke="none" stroke-width="2" points="148,-252.25 23.25,-252.25 23.25,-216 148,-216 148,-252.25"/>
<text text-anchor="start" x="34.25" y="-229.85" font-family="Helvetica,sans-Serif" font-size="12.00">pending&#45;for&#45;input</text>
<path fill="none" stroke="black" stroke-width="2" d="M35.67,-217C35.67,-217 135.58,-217 135.58,-217 141.29,-217 147,-222.71 147,-228.42 147,-228.42 147,-239.83 147,-239.83 147,-245.54 141.29,-251.25 135.58,-251.25 135.58,-251.25 35.67,-251.25 35.67,-251.25 29.96,-251.25 24.25,-245.54 24.25,-239.83 24.25,-239.83 24.25,-228.42 24.25,-228.42 24.25,-222.71 29.96,-217 35.67,-217"/>
</g>
<!-- pending&#45;for&#45;input&#45;&gt;unbinding -->
<g id="edge9" class="edge transition">
<title>pending&#45;for&#45;input&#45;&gt;unbinding</title>
<path fill="none" stroke="black" d="M147.9,-239C210.24,-245.17 309.09,-258.31 391,-284.38 418.09,-293 446.8,-306.82 469.2,-318.78"/>
<polygon fill="black" stroke="black" points="467.24,-321.69 477.69,-323.39 470.58,-315.54 467.24,-321.69"/>
<text text-anchor="start" x="189.62" y="-287.62" font-family="Helvetica,sans-Serif" font-size="10.00">Reclaim Host &#45; Reclaim pre&#45;installation &#160;&#160;</text>
</g>
</g>
</svg>
