<?xml version="1.0" encoding="UTF-8" standalone="no"?>
<!DOCTYPE svg PUBLIC "-//W3C//DTD SVG 1.1//EN"
 "http://www.w3.org/Graphics/SVG/1.1/DTD/svg11.dtd">
<!-- Generated by graphviz version 12.1.0 (20240811.2233)
 -->
<!-- Title: state transitions Pages: 1 -->
<svg width="709pt" height="372pt"
 viewBox="0.00 0.00 708.50 372.00" xmlns="http://www.w3.org/2000/svg" xmlns:xlink="http://www.w3.org/1999/xlink">
<g id="graph0" class="graph" transform="scale(1 1) rotate(0) translate(4 368)">
<title>state transitions</title>
<polygon fill="white" stroke="none" points="-4,4 -4,-368 704.5,-368 704.5,4 -4,4"/>
<!-- cancelled -->
<g id="node1" class="node state regular">
<title>cancelled</title>
<polygon fill="#ffffff" fill-opacity="0.003922" stroke="none" stroke-width="2" points="636.5,-144.25 557.5,-144.25 557.5,-108 636.5,-108 636.5,-144.25"/>
<text text-anchor="start" x="568.5" y="-121.85" font-family="Helvetica,sans-Serif" font-size="12.00">cancelled</text>
<path fill="none" stroke="black" stroke-width="2" d="M569.92,-109C569.92,-109 624.08,-109 624.08,-109 629.79,-109 635.5,-114.71 635.5,-120.42 635.5,-120.42 635.5,-131.83 635.5,-131.83 635.5,-137.54 629.79,-143.25 624.08,-143.25 624.08,-143.25 569.92,-143.25 569.92,-143.25 564.21,-143.25 558.5,-137.54 558.5,-131.83 558.5,-131.83 558.5,-120.42 558.5,-120.42 558.5,-114.71 564.21,-109 569.92,-109"/>
</g>
<!-- error -->
<g id="node2" class="node state regular">
<title>error</title>
<polygon fill="#ffffff" fill-opacity="0.003922" stroke="none" stroke-width="2" points="127.12,-252.25 71.12,-252.25 71.12,-216 127.12,-216 127.12,-252.25"/>
<text text-anchor="start" x="84.5" y="-229.85" font-family="Helvetica,sans-Serif" font-size="12.00">error</text>
<path fill="none" stroke="black" stroke-width="2" d="M83.54,-217C83.54,-217 114.71,-217 114.71,-217 120.42,-217 126.12,-222.71 126.12,-228.42 126.12,-228.42 126.12,-239.83 126.12,-239.83 126.12,-245.54 120.42,-251.25 114.71,-251.25 114.71,-251.25 83.54,-251.25 83.54,-251.25 77.83,-251.25 72.12,-245.54 72.12,-239.83 72.12,-239.83 72.12,-228.42 72.12,-228.42 72.12,-222.71 77.83,-217 83.54,-217"/>
</g>
<!-- error&#45;&gt;cancelled -->
<g id="edge1" class="edge transition">
<title>error&#45;&gt;cancelled</title>
<path fill="none" stroke="black" d="M127.07,-238.3C198.91,-248.1 399.12,-266.5 539.5,-193.12 556.48,-184.25 570.43,-167.89 580.22,-153.56"/>
<polygon fill="black" stroke="black" points="583.03,-155.66 585.5,-145.35 577.14,-151.87 583.03,-155.66"/>
<text text-anchor="start" x="216.25" y="-251.02" font-family="Helvetica,sans-Serif" font-size="10.00">Cancel Installation &#45; Installation canceled while host is installing &#160;&#160;</text>
</g>
<!-- installed -->
<g id="node3" class="node state regular">
<title>installed</title>
<polygon fill="#ffffff" fill-opacity="0.003922" stroke="none" stroke-width="2" points="134.88,-198.25 63.38,-198.25 63.38,-162 134.88,-162 134.88,-198.25"/>
<text text-anchor="start" x="74.38" y="-175.85" font-family="Helvetica,sans-Serif" font-size="12.00">installed</text>
<path fill="none" stroke="black" stroke-width="2" d="M75.79,-163C75.79,-163 122.46,-163 122.46,-163 128.17,-163 133.88,-168.71 133.88,-174.42 133.88,-174.42 133.88,-185.83 133.88,-185.83 133.88,-191.54 128.17,-197.25 122.46,-197.25 122.46,-197.25 75.79,-197.25 75.79,-197.25 70.08,-197.25 64.38,-191.54 64.38,-185.83 64.38,-185.83 64.38,-174.42 64.38,-174.42 64.38,-168.71 70.08,-163 75.79,-163"/>
</g>
<!-- installed&#45;&gt;cancelled -->
<g id="edge2" class="edge transition">
<title>installed&#45;&gt;cancelled</title>
<path fill="none" stroke="black" d="M134.64,-179.65C209.2,-178.1 390.6,-171.47 539.5,-143.12 541.82,-142.68 544.18,-142.18 546.55,-141.64"/>
<polygon fill="black" stroke="black" points="547.37,-145.04 556.2,-139.2 545.65,-138.26 547.37,-145.04"/>
<text text-anchor="start" x="216.25" y="-180.11" font-family="Helvetica,sans-Serif" font-size="10.00">Cancel Installation &#45; Installation canceled while host is installing &#160;&#160;</text>
</g>
<!-- installing -->
<g id="node4" class="node state regular">
<title>installing</title>
<polygon fill="#ffffff" fill-opacity="0.003922" stroke="none" stroke-width="2" points="136.38,-144.25 61.88,-144.25 61.88,-108 136.38,-108 136.38,-144.25"/>
<text text-anchor="start" x="72.88" y="-121.85" font-family="Helvetica,sans-Serif" font-size="12.00">installing</text>
<path fill="none" stroke="black" stroke-width="2" d="M74.29,-109C74.29,-109 123.96,-109 123.96,-109 129.67,-109 135.38,-114.71 135.38,-120.42 135.38,-120.42 135.38,-131.83 135.38,-131.83 135.38,-137.54 129.67,-143.25 123.96,-143.25 123.96,-143.25 74.29,-143.25 74.29,-143.25 68.58,-143.25 62.88,-137.54 62.88,-131.83 62.88,-131.83 62.88,-120.42 62.88,-120.42 62.88,-114.71 68.58,-109 74.29,-109"/>
</g>
<!-- installing&#45;&gt;cancelled -->
<g id="edge3" class="edge transition">
<title>installing&#45;&gt;cancelled</title>
<path fill="none" stroke="black" d="M136.19,-126.12C223.55,-126.12 446.65,-126.12 546.45,-126.12"/>
<polygon fill="black" stroke="black" points="546.19,-129.63 556.19,-126.13 546.19,-122.63 546.19,-129.63"/>
<text text-anchor="start" x="216.25" y="-129.38" font-family="Helvetica,sans-Serif" font-size="10.00">Cancel Installation &#45; Installation canceled while host is installing &#160;&#160;</text>
</g>
<!-- installing&#45;in&#45;progress -->
<g id="node5" class="node state regular">
<title>installing&#45;in&#45;progress</title>
<polygon fill="#ffffff" fill-opacity="0.003922" stroke="none" stroke-width="2" points="171.62,-90.25 26.62,-90.25 26.62,-54 171.62,-54 171.62,-90.25"/>
<text text-anchor="start" x="37.62" y="-67.85" font-family="Helvetica,sans-Serif" font-size="12.00">installing&#45;in&#45;progress</text>
<path fill="none" stroke="black" stroke-width="2" d="M39.04,-55C39.04,-55 159.21,-55 159.21,-55 164.92,-55 170.62,-60.71 170.62,-66.42 170.62,-66.42 170.62,-77.83 170.62,-77.83 170.62,-83.54 164.92,-89.25 159.21,-89.25 159.21,-89.25 39.04,-89.25 39.04,-89.25 33.33,-89.25 27.62,-83.54 27.62,-77.83 27.62,-77.83 27.62,-66.42 27.62,-66.42 27.62,-60.71 33.33,-55 39.04,-55"/>
</g>
<!-- installing&#45;in&#45;progress&#45;&gt;cancelled -->
<g id="edge4" class="edge transition">
<title>installing&#45;in&#45;progress&#45;&gt;cancelled</title>
<path fill="none" stroke="black" d="M171.5,-73.72C258.93,-76.69 411.24,-85.19 539.5,-109.38 541.82,-109.81 544.17,-110.31 546.55,-110.84"/>
<polygon fill="black" stroke="black" points="545.64,-114.22 556.19,-113.25 547.34,-107.43 545.64,-114.22"/>
<text text-anchor="start" x="216.25" y="-112.62" font-family="Helvetica,sans-Serif" font-size="10.00">Cancel Installation &#45; Installation canceled while host is installing &#160;&#160;</text>
</g>
<!-- installing&#45;pending&#45;user&#45;action -->
<g id="node6" class="node state regular">
<title>installing&#45;pending&#45;user&#45;action</title>
<polygon fill="#ffffff" fill-opacity="0.003922" stroke="none" stroke-width="2" points="198.25,-36.25 0,-36.25 0,0 198.25,0 198.25,-36.25"/>
<text text-anchor="start" x="11" y="-13.85" font-family="Helvetica,sans-Serif" font-size="12.00">installing&#45;pending&#45;user&#45;action</text>
<path fill="none" stroke="black" stroke-width="2" d="M12.42,-1C12.42,-1 185.83,-1 185.83,-1 191.54,-1 197.25,-6.71 197.25,-12.42 197.25,-12.42 197.25,-23.83 197.25,-23.83 197.25,-29.54 191.54,-35.25 185.83,-35.25 185.83,-35.25 12.42,-35.25 12.42,-35.25 6.71,-35.25 1,-29.54 1,-23.83 1,-23.83 1,-12.42 1,-12.42 1,-6.71 6.71,-1 12.42,-1"/>
</g>
<!-- installing&#45;pending&#45;user&#45;action&#45;&gt;cancelled -->
<g id="edge5" class="edge transition">
<title>installing&#45;pending&#45;user&#45;action&#45;&gt;cancelled</title>
<path fill="none" stroke="black" d="M198.21,-6.47C291.44,0.01 432.86,-2.38 539.5,-58.38 556.69,-67.4 570.71,-84.1 580.48,-98.66"/>
<polygon fill="black" stroke="black" points="577.45,-100.41 585.75,-106.99 583.36,-96.67 577.45,-100.41"/>
<text text-anchor="start" x="216.25" y="-61.62" font-family="Helvetica,sans-Serif" font-size="10.00">Cancel Installation &#45; Installation canceled while host is installing &#160;&#160;</text>
</g>
<!-- known -->
<g id="node7" class="node state regular">
<title>known</title>
<polygon fill="#ffffff" fill-opacity="0.003922" stroke="none" stroke-width="2" points="627.5,-333.25 566.5,-333.25 566.5,-297 627.5,-297 627.5,-333.25"/>
<text text-anchor="start" x="577.5" y="-310.85" font-family="Helvetica,sans-Serif" font-size="12.00">known</text>
<path fill="none" stroke="black" stroke-width="2" d="M578.92,-298C578.92,-298 615.08,-298 615.08,-298 620.79,-298 626.5,-303.71 626.5,-309.42 626.5,-309.42 626.5,-320.83 626.5,-320.83 626.5,-326.54 620.79,-332.25 615.08,-332.25 615.08,-332.25 578.92,-332.25 578.92,-332.25 573.21,-332.25 567.5,-326.54 567.5,-320.83 567.5,-320.83 567.5,-309.42 567.5,-309.42 567.5,-303.71 573.21,-298 578.92,-298"/>
</g>
<!-- known&#45;&gt;known -->
<g id="edge6" class="edge transition">
<title>known&#45;&gt;known</title>
<path fill="none" stroke="black" d="M566.51,-325.66C545.54,-337.56 555.7,-351.25 597,-351.25 630.23,-351.25 643.31,-342.39 636.22,-332.73"/>
<polygon fill="black" stroke="black" points="638.64,-330.19 628.67,-326.62 634.24,-335.63 638.64,-330.19"/>
<text text-anchor="start" x="493.5" y="-354.5" font-family="Helvetica,sans-Serif" font-size="10.00">Cancel Installation &#45; Cancel while known &#160;&#160;</text>
</g>
<!-- preparing&#45;for&#45;installation -->
<g id="node8" class="node state regular">
<title>preparing&#45;for&#45;installation</title>
<polygon fill="#ffffff" fill-opacity="0.003922" stroke="none" stroke-width="2" points="184,-360.25 14.25,-360.25 14.25,-324 184,-324 184,-360.25"/>
<text text-anchor="start" x="25.25" y="-337.85" font-family="Helvetica,sans-Serif" font-size="12.00">preparing&#45;for&#45;installation</text>
<path fill="none" stroke="black" stroke-width="2" d="M26.67,-325C26.67,-325 171.58,-325 171.58,-325 177.29,-325 183,-330.71 183,-336.42 183,-336.42 183,-347.83 183,-347.83 183,-353.54 177.29,-359.25 171.58,-359.25 171.58,-359.25 26.67,-359.25 26.67,-359.25 20.96,-359.25 15.25,-353.54 15.25,-347.83 15.25,-347.83 15.25,-336.42 15.25,-336.42 15.25,-330.71 20.96,-325 26.67,-325"/>
</g>
<!-- preparing&#45;for&#45;installation&#45;&gt;known -->
<g id="edge7" class="edge transition">
<title>preparing&#45;for&#45;installation&#45;&gt;known</title>
<path fill="none" stroke="black" d="M183.96,-337.56C291.64,-331.7 474.27,-321.75 555.25,-317.34"/>
<polygon fill="black" stroke="black" points="555.36,-320.84 565.16,-316.8 554.98,-313.85 555.36,-320.84"/>
<text text-anchor="start" x="267.25" y="-338.85" font-family="Helvetica,sans-Serif" font-size="10.00">Cancel Installation &#45; Cancel while preparing &#160;&#160;</text>
</g>
<!-- preparing&#45;successful -->
<g id="node9" class="node state regular">
<title>preparing&#45;successful</title>
<polygon fill="#ffffff" fill-opacity="0.003922" stroke="none" stroke-width="2" points="172,-306.25 26.25,-306.25 26.25,-270 172,-270 172,-306.25"/>
<text text-anchor="start" x="37.25" y="-283.85" font-family="Helvetica,sans-Serif" font-size="12.00">preparing&#45;successful</text>
<path fill="none" stroke="black" stroke-width="2" d="M38.67,-271C38.67,-271 159.58,-271 159.58,-271 165.29,-271 171,-276.71 171,-282.42 171,-282.42 171,-293.83 171,-293.83 171,-299.54 165.29,-305.25 159.58,-305.25 159.58,-305.25 38.67,-305.25 38.67,-305.25 32.96,-305.25 27.25,-299.54 27.25,-293.83 27.25,-293.83 27.25,-282.42 27.25,-282.42 27.25,-276.71 32.96,-271 38.67,-271"/>
</g>
<!-- preparing&#45;successful&#45;&gt;known -->
<g id="edge8" class="edge transition">
<title>preparing&#45;successful&#45;&gt;known</title>
<path fill="none" stroke="black" d="M171.65,-285.73C258.92,-283.85 410.75,-283.96 539.5,-301.38 544.79,-302.09 550.3,-303.1 555.72,-304.24"/>
<polygon fill="black" stroke="black" points="554.6,-307.58 565.13,-306.4 556.17,-300.75 554.6,-307.58"/>
<text text-anchor="start" x="267.25" y="-304.62" font-family="Helvetica,sans-Serif" font-size="10.00">Cancel Installation &#45; Cancel while preparing &#160;&#160;</text>
</g>
</g>
</svg>
