<?xml version="1.0" encoding="UTF-8" standalone="no"?>
<!DOCTYPE svg PUBLIC "-//W3C//DTD SVG 1.1//EN"
 "http://www.w3.org/Graphics/SVG/1.1/DTD/svg11.dtd">
<!-- Generated by graphviz version 5.0.0 (0)
 -->
<!-- Title: state transitions Pages: 1 -->
<svg width="843pt" height="536pt"
 viewBox="0.00 0.00 843.00 536.00" xmlns="http://www.w3.org/2000/svg" xmlns:xlink="http://www.w3.org/1999/xlink">
<g id="graph0" class="graph" transform="scale(1 1) rotate(0) translate(4 532)">
<title>state transitions</title>
<polygon fill="white" stroke="transparent" points="-4,4 -4,-532 839,-532 839,4 -4,4"/>
<!-- binding -->
<g id="node1" class="node state regular">
<title>binding</title>
<polygon fill="#ffffff" fill-opacity="0.003922" stroke="transparent" stroke-width="2" points="107,-252 45,-252 45,-216 107,-216 107,-252"/>
<text text-anchor="start" x="56" y="-230.4" font-family="Helvetica,sans-Serif" font-size="12.00">binding</text>
<path fill="none" stroke="black" stroke-width="2" d="M57,-217.5C57,-217.5 95,-217.5 95,-217.5 100.5,-217.5 106,-223 106,-228.5 106,-228.5 106,-239.5 106,-239.5 106,-245 100.5,-250.5 95,-250.5 95,-250.5 57,-250.5 57,-250.5 51.5,-250.5 46,-245 46,-239.5 46,-239.5 46,-228.5 46,-228.5 46,-223 51.5,-217.5 57,-217.5"/>
</g>
<!-- disconnected -->
<g id="node2" class="node state regular">
<title>disconnected</title>
<polygon fill="#ffffff" fill-opacity="0.003922" stroke="transparent" stroke-width="2" points="682,-144 588,-144 588,-108 682,-108 682,-144"/>
<text text-anchor="start" x="599" y="-122.4" font-family="Helvetica,sans-Serif" font-size="12.00">disconnected</text>
<path fill="none" stroke="black" stroke-width="2" d="M600,-109.5C600,-109.5 670,-109.5 670,-109.5 675.5,-109.5 681,-115 681,-120.5 681,-120.5 681,-131.5 681,-131.5 681,-137 675.5,-142.5 670,-142.5 670,-142.5 600,-142.5 600,-142.5 594.5,-142.5 589,-137 589,-131.5 589,-131.5 589,-120.5 589,-120.5 589,-115 594.5,-109.5 600,-109.5"/>
</g>
<!-- binding&#45;&gt;disconnected -->
<g id="edge6" class="edge transition">
<title>binding&#45;&gt;disconnected</title>
<path fill="none" stroke="black" d="M107.17,-238.28C187.15,-248.21 409.49,-266.58 570,-191 588.33,-182.37 604.31,-166.14 615.73,-152.06"/>
<polygon fill="black" stroke="black" points="618.54,-154.14 621.9,-144.09 613.01,-149.85 618.54,-154.14"/>
<text text-anchor="start" x="170" y="-250" font-family="Helvetica,sans-Serif" font-size="10.00">Media Disconnect &#45; Move to disconnected when virtual media disconnects pre&#45;installation &#160;&#160;</text>
</g>
<!-- disconnected&#45;&gt;disconnected -->
<g id="edge5" class="edge transition">
<title>disconnected&#45;&gt;disconnected</title>
<path fill="none" stroke="black" d="M587.87,-143.41C579.07,-153.09 594.78,-162 635,-162 660.14,-162 675.7,-158.52 681.69,-153.54"/>
<polygon fill="black" stroke="black" points="685.19,-153.55 682.13,-143.41 678.2,-153.25 685.19,-153.55"/>
<text text-anchor="start" x="435" y="-165" font-family="Helvetica,sans-Serif" font-size="10.00">Media Disconnect &#45; Move to disconnected when virtual media disconnects pre&#45;installation &#160;&#160;</text>
</g>
<!-- discovering -->
<g id="node3" class="node state regular">
<title>discovering</title>
<polygon fill="#ffffff" fill-opacity="0.003922" stroke="transparent" stroke-width="2" points="118,-198 34,-198 34,-162 118,-162 118,-198"/>
<text text-anchor="start" x="45" y="-176.4" font-family="Helvetica,sans-Serif" font-size="12.00">discovering</text>
<path fill="none" stroke="black" stroke-width="2" d="M46,-163.5C46,-163.5 106,-163.5 106,-163.5 111.5,-163.5 117,-169 117,-174.5 117,-174.5 117,-185.5 117,-185.5 117,-191 111.5,-196.5 106,-196.5 106,-196.5 46,-196.5 46,-196.5 40.5,-196.5 35,-191 35,-185.5 35,-185.5 35,-174.5 35,-174.5 35,-169 40.5,-163.5 46,-163.5"/>
</g>
<!-- discovering&#45;&gt;disconnected -->
<g id="edge1" class="edge transition">
<title>discovering&#45;&gt;disconnected</title>
<path fill="none" stroke="black" d="M118.15,-178.85C203.07,-176.01 403.73,-166.91 570,-141 572.52,-140.61 575.08,-140.17 577.66,-139.7"/>
<polygon fill="black" stroke="black" points="578.54,-143.09 587.67,-137.73 577.18,-136.23 578.54,-143.09"/>
<text text-anchor="start" x="170" y="-179" font-family="Helvetica,sans-Serif" font-size="10.00">Media Disconnect &#45; Move to disconnected when virtual media disconnects pre&#45;installation &#160;&#160;</text>
</g>
<!-- error -->
<g id="node4" class="node state regular">
<title>error</title>
<polygon fill="#ffffff" fill-opacity="0.003922" stroke="transparent" stroke-width="2" points="663,-414 607,-414 607,-378 663,-378 663,-414"/>
<text text-anchor="start" x="622.5" y="-392.4" font-family="Helvetica,sans-Serif" font-size="12.00">error</text>
<path fill="none" stroke="black" stroke-width="2" d="M619,-379.5C619,-379.5 651,-379.5 651,-379.5 656.5,-379.5 662,-385 662,-390.5 662,-390.5 662,-401.5 662,-401.5 662,-407 656.5,-412.5 651,-412.5 651,-412.5 619,-412.5 619,-412.5 613.5,-412.5 608,-407 608,-401.5 608,-401.5 608,-390.5 608,-390.5 608,-385 613.5,-379.5 619,-379.5"/>
</g>
<!-- error&#45;&gt;error -->
<g id="edge12" class="edge transition">
<title>error&#45;&gt;error</title>
<path fill="none" stroke="black" d="M606.82,-403.07C570.95,-415.54 580.34,-432 635,-432 684.11,-432 696.68,-418.71 672.71,-406.97"/>
<polygon fill="black" stroke="black" points="673.76,-403.62 663.18,-403.07 671.11,-410.1 673.76,-403.62"/>
<text text-anchor="start" x="452" y="-435" font-family="Helvetica,sans-Serif" font-size="10.00">Media Disconnect &#45; Move to error when virtual media disconnects post&#45;installation &#160;&#160;</text>
</g>
<!-- installing -->
<g id="node5" class="node state regular">
<title>installing</title>
<polygon fill="#ffffff" fill-opacity="0.003922" stroke="transparent" stroke-width="2" points="111.5,-522 40.5,-522 40.5,-486 111.5,-486 111.5,-522"/>
<text text-anchor="start" x="52" y="-500.4" font-family="Helvetica,sans-Serif" font-size="12.00">installing</text>
<path fill="none" stroke="black" stroke-width="2" d="M52.5,-487.5C52.5,-487.5 99.5,-487.5 99.5,-487.5 105,-487.5 110.5,-493 110.5,-498.5 110.5,-498.5 110.5,-509.5 110.5,-509.5 110.5,-515 105,-520.5 99.5,-520.5 99.5,-520.5 52.5,-520.5 52.5,-520.5 47,-520.5 41.5,-515 41.5,-509.5 41.5,-509.5 41.5,-498.5 41.5,-498.5 41.5,-493 47,-487.5 52.5,-487.5"/>
</g>
<!-- installing&#45;&gt;error -->
<g id="edge10" class="edge transition">
<title>installing&#45;&gt;error</title>
<path fill="none" stroke="black" d="M111.66,-508.82C195.2,-518.84 412.4,-535.21 570,-461 588.33,-452.37 604.31,-436.14 615.73,-422.06"/>
<polygon fill="black" stroke="black" points="618.54,-424.14 621.9,-414.09 613.01,-419.85 618.54,-424.14"/>
<text text-anchor="start" x="187" y="-520" font-family="Helvetica,sans-Serif" font-size="10.00">Media Disconnect &#45; Move to error when virtual media disconnects post&#45;installation &#160;&#160;</text>
</g>
<!-- installing&#45;in&#45;progress -->
<g id="node6" class="node state regular">
<title>installing&#45;in&#45;progress</title>
<polygon fill="#ffffff" fill-opacity="0.003922" stroke="transparent" stroke-width="2" points="143,-468 9,-468 9,-432 143,-432 143,-468"/>
<text text-anchor="start" x="20" y="-446.4" font-family="Helvetica,sans-Serif" font-size="12.00">installing&#45;in&#45;progress</text>
<path fill="none" stroke="black" stroke-width="2" d="M21,-433.5C21,-433.5 131,-433.5 131,-433.5 136.5,-433.5 142,-439 142,-444.5 142,-444.5 142,-455.5 142,-455.5 142,-461 136.5,-466.5 131,-466.5 131,-466.5 21,-466.5 21,-466.5 15.5,-466.5 10,-461 10,-455.5 10,-455.5 10,-444.5 10,-444.5 10,-439 15.5,-433.5 21,-433.5"/>
</g>
<!-- installing&#45;in&#45;progress&#45;&gt;error -->
<g id="edge11" class="edge transition">
<title>installing&#45;in&#45;progress&#45;&gt;error</title>
<path fill="none" stroke="black" d="M143.16,-447.94C238.12,-444.27 418.36,-434.63 570,-411 578.75,-409.64 588.08,-407.72 596.83,-405.71"/>
<polygon fill="black" stroke="black" points="597.86,-409.07 606.77,-403.34 596.23,-402.26 597.86,-409.07"/>
<text text-anchor="start" x="187" y="-449" font-family="Helvetica,sans-Serif" font-size="10.00">Media Disconnect &#45; Move to error when virtual media disconnects post&#45;installation &#160;&#160;</text>
</g>
<!-- insufficient -->
<g id="node7" class="node state regular">
<title>insufficient</title>
<polygon fill="#ffffff" fill-opacity="0.003922" stroke="transparent" stroke-width="2" points="116,-144 36,-144 36,-108 116,-108 116,-144"/>
<text text-anchor="start" x="47" y="-122.4" font-family="Helvetica,sans-Serif" font-size="12.00">insufficient</text>
<path fill="none" stroke="black" stroke-width="2" d="M48,-109.5C48,-109.5 104,-109.5 104,-109.5 109.5,-109.5 115,-115 115,-120.5 115,-120.5 115,-131.5 115,-131.5 115,-137 109.5,-142.5 104,-142.5 104,-142.5 48,-142.5 48,-142.5 42.5,-142.5 37,-137 37,-131.5 37,-131.5 37,-120.5 37,-120.5 37,-115 42.5,-109.5 48,-109.5"/>
</g>
<!-- insufficient&#45;&gt;disconnected -->
<g id="edge2" class="edge transition">
<title>insufficient&#45;&gt;disconnected</title>
<path fill="none" stroke="black" d="M116.17,-126C213.18,-126 464.92,-126 577.8,-126"/>
<polygon fill="black" stroke="black" points="577.95,-129.5 587.95,-126 577.95,-122.5 577.95,-129.5"/>
<text text-anchor="start" x="170" y="-129" font-family="Helvetica,sans-Serif" font-size="10.00">Media Disconnect &#45; Move to disconnected when virtual media disconnects pre&#45;installation &#160;&#160;</text>
</g>
<!-- known -->
<g id="node8" class="node state regular">
<title>known</title>
<polygon fill="#ffffff" fill-opacity="0.003922" stroke="transparent" stroke-width="2" points="105,-90 47,-90 47,-54 105,-54 105,-90"/>
<text text-anchor="start" x="58" y="-68.4" font-family="Helvetica,sans-Serif" font-size="12.00">known</text>
<path fill="none" stroke="black" stroke-width="2" d="M59,-55.5C59,-55.5 93,-55.5 93,-55.5 98.5,-55.5 104,-61 104,-66.5 104,-66.5 104,-77.5 104,-77.5 104,-83 98.5,-88.5 93,-88.5 93,-88.5 59,-88.5 59,-88.5 53.5,-88.5 48,-83 48,-77.5 48,-77.5 48,-66.5 48,-66.5 48,-61 53.5,-55.5 59,-55.5"/>
</g>
<!-- known&#45;&gt;disconnected -->
<g id="edge3" class="edge transition">
<title>known&#45;&gt;disconnected</title>
<path fill="none" stroke="black" d="M105.24,-72.74C180.96,-75.05 394.61,-83.67 570,-111 572.52,-111.39 575.08,-111.83 577.66,-112.3"/>
<polygon fill="black" stroke="black" points="577.18,-115.77 587.67,-114.27 578.54,-108.91 577.18,-115.77"/>
<text text-anchor="start" x="170" y="-114" font-family="Helvetica,sans-Serif" font-size="10.00">Media Disconnect &#45; Move to disconnected when virtual media disconnects pre&#45;installation &#160;&#160;</text>
</g>
<!-- pending&#45;for&#45;input -->
<g id="node9" class="node state regular">
<title>pending&#45;for&#45;input</title>
<polygon fill="#ffffff" fill-opacity="0.003922" stroke="transparent" stroke-width="2" points="132.5,-36 19.5,-36 19.5,0 132.5,0 132.5,-36"/>
<text text-anchor="start" x="31" y="-14.4" font-family="Helvetica,sans-Serif" font-size="12.00">pending&#45;for&#45;input</text>
<path fill="none" stroke="black" stroke-width="2" d="M31.5,-1.5C31.5,-1.5 120.5,-1.5 120.5,-1.5 126,-1.5 131.5,-7 131.5,-12.5 131.5,-12.5 131.5,-23.5 131.5,-23.5 131.5,-29 126,-34.5 120.5,-34.5 120.5,-34.5 31.5,-34.5 31.5,-34.5 26,-34.5 20.5,-29 20.5,-23.5 20.5,-23.5 20.5,-12.5 20.5,-12.5 20.5,-7 26,-1.5 31.5,-1.5"/>
</g>
<!-- pending&#45;for&#45;input&#45;&gt;disconnected -->
<g id="edge4" class="edge transition">
<title>pending&#45;for&#45;input&#45;&gt;disconnected</title>
<path fill="none" stroke="black" d="M132.7,-10.85C227.54,-1.21 424.26,7.63 570,-61 588.33,-69.63 604.31,-85.86 615.73,-99.94"/>
<polygon fill="black" stroke="black" points="613.01,-102.15 621.9,-107.91 618.54,-97.86 613.01,-102.15"/>
<text text-anchor="start" x="170" y="-64" font-family="Helvetica,sans-Serif" font-size="10.00">Media Disconnect &#45; Move to disconnected when virtual media disconnects pre&#45;installation &#160;&#160;</text>
</g>
<!-- preparing&#45;failed -->
<g id="node10" class="node state regular">
<title>preparing&#45;failed</title>
<polygon fill="#ffffff" fill-opacity="0.003922" stroke="transparent" stroke-width="2" points="129.5,-414 22.5,-414 22.5,-378 129.5,-378 129.5,-414"/>
<text text-anchor="start" x="34" y="-392.4" font-family="Helvetica,sans-Serif" font-size="12.00">preparing&#45;failed</text>
<path fill="none" stroke="black" stroke-width="2" d="M34.5,-379.5C34.5,-379.5 117.5,-379.5 117.5,-379.5 123,-379.5 128.5,-385 128.5,-390.5 128.5,-390.5 128.5,-401.5 128.5,-401.5 128.5,-407 123,-412.5 117.5,-412.5 117.5,-412.5 34.5,-412.5 34.5,-412.5 29,-412.5 23.5,-407 23.5,-401.5 23.5,-401.5 23.5,-390.5 23.5,-390.5 23.5,-385 29,-379.5 34.5,-379.5"/>
</g>
<!-- preparing&#45;failed&#45;&gt;error -->
<g id="edge8" class="edge transition">
<title>preparing&#45;failed&#45;&gt;error</title>
<path fill="none" stroke="black" d="M129.65,-396C241.4,-396 499.94,-396 596.62,-396"/>
<polygon fill="black" stroke="black" points="596.8,-399.5 606.8,-396 596.8,-392.5 596.8,-399.5"/>
<text text-anchor="start" x="187" y="-399" font-family="Helvetica,sans-Serif" font-size="10.00">Media Disconnect &#45; Move to error when virtual media disconnects post&#45;installation &#160;&#160;</text>
</g>
<!-- preparing&#45;for&#45;installation -->
<g id="node11" class="node state regular">
<title>preparing&#45;for&#45;installation</title>
<polygon fill="#ffffff" fill-opacity="0.003922" stroke="transparent" stroke-width="2" points="152,-360 0,-360 0,-324 152,-324 152,-360"/>
<text text-anchor="start" x="11" y="-338.4" font-family="Helvetica,sans-Serif" font-size="12.00">preparing&#45;for&#45;installation</text>
<path fill="none" stroke="black" stroke-width="2" d="M12,-325.5C12,-325.5 140,-325.5 140,-325.5 145.5,-325.5 151,-331 151,-336.5 151,-336.5 151,-347.5 151,-347.5 151,-353 145.5,-358.5 140,-358.5 140,-358.5 12,-358.5 12,-358.5 6.5,-358.5 1,-353 1,-347.5 1,-347.5 1,-336.5 1,-336.5 1,-331 6.5,-325.5 12,-325.5"/>
</g>
<!-- preparing&#45;for&#45;installation&#45;&gt;error -->
<g id="edge7" class="edge transition">
<title>preparing&#45;for&#45;installation&#45;&gt;error</title>
<path fill="none" stroke="black" d="M152.16,-344.41C249.19,-348.33 423.03,-358.1 570,-381 578.75,-382.36 588.08,-384.28 596.83,-386.29"/>
<polygon fill="black" stroke="black" points="596.23,-389.74 606.77,-388.66 597.86,-382.93 596.23,-389.74"/>
<text text-anchor="start" x="187" y="-384" font-family="Helvetica,sans-Serif" font-size="10.00">Media Disconnect &#45; Move to error when virtual media disconnects post&#45;installation &#160;&#160;</text>
</g>
<!-- preparing&#45;successful -->
<g id="node12" class="node state regular">
<title>preparing&#45;successful</title>
<polygon fill="#ffffff" fill-opacity="0.003922" stroke="transparent" stroke-width="2" points="143,-306 9,-306 9,-270 143,-270 143,-306"/>
<text text-anchor="start" x="20" y="-284.4" font-family="Helvetica,sans-Serif" font-size="12.00">preparing&#45;successful</text>
<path fill="none" stroke="black" stroke-width="2" d="M21,-271.5C21,-271.5 131,-271.5 131,-271.5 136.5,-271.5 142,-277 142,-282.5 142,-282.5 142,-293.5 142,-293.5 142,-299 136.5,-304.5 131,-304.5 131,-304.5 21,-304.5 21,-304.5 15.5,-304.5 10,-299 10,-293.5 10,-293.5 10,-282.5 10,-282.5 10,-277 15.5,-271.5 21,-271.5"/>
</g>
<!-- preparing&#45;successful&#45;&gt;error -->
<g id="edge9" class="edge transition">
<title>preparing&#45;successful&#45;&gt;error</title>
<path fill="none" stroke="black" d="M143.39,-279.51C241.76,-269.95 429.72,-263.46 570,-330 588.56,-338.81 604.64,-355.44 616.04,-369.81"/>
<polygon fill="black" stroke="black" points="613.36,-372.08 622.19,-377.93 618.94,-367.85 613.36,-372.08"/>
<text text-anchor="start" x="187" y="-333" font-family="Helvetica,sans-Serif" font-size="10.00">Media Disconnect &#45; Move to error when virtual media disconnects post&#45;installation &#160;&#160;</text>
</g>
</g>
</svg>
