<?xml version="1.0" encoding="UTF-8" standalone="no"?>
<!DOCTYPE svg PUBLIC "-//W3C//DTD SVG 1.1//EN"
 "http://www.w3.org/Graphics/SVG/1.1/DTD/svg11.dtd">
<!-- Generated by graphviz version 12.1.0 (20240811.2233)
 -->
<!-- Title: state transitions Pages: 1 -->
<svg width="708pt" height="372pt"
 viewBox="0.00 0.00 707.75 372.00" xmlns="http://www.w3.org/2000/svg" xmlns:xlink="http://www.w3.org/1999/xlink">
<g id="graph0" class="graph" transform="scale(1 1) rotate(0) translate(4 368)">
<title>state transitions</title>
<polygon fill="white" stroke="none" points="-4,4 -4,-368 703.75,-368 703.75,4 -4,4"/>
<!-- cancelled -->
<g id="node1" class="node state regular">
<title>cancelled</title>
<polygon fill="#ffffff" fill-opacity="0.003922" stroke="none" stroke-width="2" points="635.75,-144.25 556.75,-144.25 556.75,-108 635.75,-108 635.75,-144.25"/>
<text text-anchor="start" x="567.75" y="-121.85" font-family="Helvetica,sans-Serif" font-size="12.00">cancelled</text>
<path fill="none" stroke="black" stroke-width="2" d="M569.17,-109C569.17,-109 623.33,-109 623.33,-109 629.04,-109 634.75,-114.71 634.75,-120.42 634.75,-120.42 634.75,-131.83 634.75,-131.83 634.75,-137.54 629.04,-143.25 623.33,-143.25 623.33,-143.25 569.17,-143.25 569.17,-143.25 563.46,-143.25 557.75,-137.54 557.75,-131.83 557.75,-131.83 557.75,-120.42 557.75,-120.42 557.75,-114.71 563.46,-109 569.17,-109"/>
</g>
<!-- error -->
<g id="node2" class="node state regular">
<title>error</title>
<polygon fill="#ffffff" fill-opacity="0.003922" stroke="none" stroke-width="2" points="126.75,-252.25 70.75,-252.25 70.75,-216 126.75,-216 126.75,-252.25"/>
<text text-anchor="start" x="84.12" y="-229.85" font-family="Helvetica,sans-Serif" font-size="12.00">error</text>
<path fill="none" stroke="black" stroke-width="2" d="M83.17,-217C83.17,-217 114.33,-217 114.33,-217 120.04,-217 125.75,-222.71 125.75,-228.42 125.75,-228.42 125.75,-239.83 125.75,-239.83 125.75,-245.54 120.04,-251.25 114.33,-251.25 114.33,-251.25 83.17,-251.25 83.17,-251.25 77.46,-251.25 71.75,-245.54 71.75,-239.83 71.75,-239.83 71.75,-228.42 71.75,-228.42 71.75,-222.71 77.46,-217 83.17,-217"/>
</g>
<!-- error&#45;&gt;cancelled -->
<g id="edge1" class="edge transition">
<title>error&#45;&gt;cancelled</title>
<path fill="none" stroke="black" d="M126.67,-238.3C198.45,-248.08 398.5,-266.44 538.75,-193.12 555.73,-184.25 569.68,-167.89 579.47,-153.56"/>
<polygon fill="black" stroke="black" points="582.28,-155.66 584.75,-145.35 576.39,-151.87 582.28,-155.66"/>
<text text-anchor="start" x="215.5" y="-250.99" font-family="Helvetica,sans-Serif" font-size="10.00">Cancel Installation &#45; Installation canceled while host is installing &#160;&#160;</text>
</g>
<!-- installed -->
<g id="node3" class="node state regular">
<title>installed</title>
<polygon fill="#ffffff" fill-opacity="0.003922" stroke="none" stroke-width="2" points="134.5,-198.25 63,-198.25 63,-162 134.5,-162 134.5,-198.25"/>
<text text-anchor="start" x="74" y="-175.85" font-family="Helvetica,sans-Serif" font-size="12.00">installed</text>
<path fill="none" stroke="black" stroke-width="2" d="M75.42,-163C75.42,-163 122.08,-163 122.08,-163 127.79,-163 133.5,-168.71 133.5,-174.42 133.5,-174.42 133.5,-185.83 133.5,-185.83 133.5,-191.54 127.79,-197.25 122.08,-197.25 122.08,-197.25 75.42,-197.25 75.42,-197.25 69.71,-197.25 64,-191.54 64,-185.83 64,-185.83 64,-174.42 64,-174.42 64,-168.71 69.71,-163 75.42,-163"/>
</g>
<!-- installed&#45;&gt;cancelled -->
<g id="edge2" class="edge transition">
<title>installed&#45;&gt;cancelled</title>
<path fill="none" stroke="black" d="M134.23,-179.65C208.73,-178.1 389.98,-171.45 538.75,-143.12 541.07,-142.68 543.43,-142.18 545.8,-141.64"/>
<polygon fill="black" stroke="black" points="546.62,-145.04 555.45,-139.2 544.9,-138.26 546.62,-145.04"/>
<text text-anchor="start" x="215.5" y="-180.1" font-family="Helvetica,sans-Serif" font-size="10.00">Cancel Installation &#45; Installation canceled while host is installing &#160;&#160;</text>
</g>
<!-- installing -->
<g id="node4" class="node state regular">
<title>installing</title>
<polygon fill="#ffffff" fill-opacity="0.003922" stroke="none" stroke-width="2" points="136,-144.25 61.5,-144.25 61.5,-108 136,-108 136,-144.25"/>
<text text-anchor="start" x="72.5" y="-121.85" font-family="Helvetica,sans-Serif" font-size="12.00">installing</text>
<path fill="none" stroke="black" stroke-width="2" d="M73.92,-109C73.92,-109 123.58,-109 123.58,-109 129.29,-109 135,-114.71 135,-120.42 135,-120.42 135,-131.83 135,-131.83 135,-137.54 129.29,-143.25 123.58,-143.25 123.58,-143.25 73.92,-143.25 73.92,-143.25 68.21,-143.25 62.5,-137.54 62.5,-131.83 62.5,-131.83 62.5,-120.42 62.5,-120.42 62.5,-114.71 68.21,-109 73.92,-109"/>
</g>
<!-- installing&#45;&gt;cancelled -->
<g id="edge3" class="edge transition">
<title>installing&#45;&gt;cancelled</title>
<path fill="none" stroke="black" d="M135.78,-126.12C223.08,-126.12 446.01,-126.12 545.73,-126.12"/>
<polygon fill="black" stroke="black" points="545.47,-129.63 555.47,-126.13 545.47,-122.63 545.47,-129.63"/>
<text text-anchor="start" x="215.5" y="-129.38" font-family="Helvetica,sans-Serif" font-size="10.00">Cancel Installation &#45; Installation canceled while host is installing &#160;&#160;</text>
</g>
<!-- installing&#45;in&#45;progress -->
<g id="node5" class="node state regular">
<title>installing&#45;in&#45;progress</title>
<polygon fill="#ffffff" fill-opacity="0.003922" stroke="none" stroke-width="2" points="171.25,-90.25 26.25,-90.25 26.25,-54 171.25,-54 171.25,-90.25"/>
<text text-anchor="start" x="37.25" y="-67.85" font-family="Helvetica,sans-Serif" font-size="12.00">installing&#45;in&#45;progress</text>
<path fill="none" stroke="black" stroke-width="2" d="M38.67,-55C38.67,-55 158.83,-55 158.83,-55 164.54,-55 170.25,-60.71 170.25,-66.42 170.25,-66.42 170.25,-77.83 170.25,-77.83 170.25,-83.54 164.54,-89.25 158.83,-89.25 158.83,-89.25 38.67,-89.25 38.67,-89.25 32.96,-89.25 27.25,-83.54 27.25,-77.83 27.25,-77.83 27.25,-66.42 27.25,-66.42 27.25,-60.71 32.96,-55 38.67,-55"/>
</g>
<!-- installing&#45;in&#45;progress&#45;&gt;cancelled -->
<g id="edge4" class="edge transition">
<title>installing&#45;in&#45;progress&#45;&gt;cancelled</title>
<path fill="none" stroke="black" d="M171.06,-73.73C258.42,-76.71 410.6,-85.2 538.75,-109.38 541.07,-109.81 543.42,-110.31 545.8,-110.84"/>
<polygon fill="black" stroke="black" points="544.89,-114.22 555.44,-113.25 546.59,-107.43 544.89,-114.22"/>
<text text-anchor="start" x="215.5" y="-112.62" font-family="Helvetica,sans-Serif" font-size="10.00">Cancel Installation &#45; Installation canceled while host is installing &#160;&#160;</text>
</g>
<!-- installing&#45;pending&#45;user&#45;action -->
<g id="node6" class="node state regular">
<title>installing&#45;pending&#45;user&#45;action</title>
<polygon fill="#ffffff" fill-opacity="0.003922" stroke="none" stroke-width="2" points="197.5,-36.25 0,-36.25 0,0 197.5,0 197.5,-36.25"/>
<text text-anchor="start" x="11" y="-13.85" font-family="Helvetica,sans-Serif" font-size="12.00">installing&#45;pending&#45;user&#45;action</text>
<path fill="none" stroke="black" stroke-width="2" d="M12.42,-1C12.42,-1 185.08,-1 185.08,-1 190.79,-1 196.5,-6.71 196.5,-12.42 196.5,-12.42 196.5,-23.83 196.5,-23.83 196.5,-29.54 190.79,-35.25 185.08,-35.25 185.08,-35.25 12.42,-35.25 12.42,-35.25 6.71,-35.25 1,-29.54 1,-23.83 1,-23.83 1,-12.42 1,-12.42 1,-6.71 6.71,-1 12.42,-1"/>
</g>
<!-- installing&#45;pending&#45;user&#45;action&#45;&gt;cancelled -->
<g id="edge5" class="edge transition">
<title>installing&#45;pending&#45;user&#45;action&#45;&gt;cancelled</title>
<path fill="none" stroke="black" d="M197.31,-6.52C290.46,-0.01 432.03,-2.33 538.75,-58.38 555.94,-67.4 569.95,-84.1 579.73,-98.66"/>
<polygon fill="black" stroke="black" points="576.7,-100.41 585,-106.99 582.61,-96.67 576.7,-100.41"/>
<text text-anchor="start" x="215.5" y="-61.62" font-family="Helvetica,sans-Serif" font-size="10.00">Cancel Installation &#45; Installation canceled while host is installing &#160;&#160;</text>
</g>
<!-- known -->
<g id="node7" class="node state regular">
<title>known</title>
<polygon fill="#ffffff" fill-opacity="0.003922" stroke="none" stroke-width="2" points="626.75,-333.25 565.75,-333.25 565.75,-297 626.75,-297 626.75,-333.25"/>
<text text-anchor="start" x="576.75" y="-310.85" font-family="Helvetica,sans-Serif" font-size="12.00">known</text>
<path fill="none" stroke="black" stroke-width="2" d="M578.17,-298C578.17,-298 614.33,-298 614.33,-298 620.04,-298 625.75,-303.71 625.75,-309.42 625.75,-309.42 625.75,-320.83 625.75,-320.83 625.75,-326.54 620.04,-332.25 614.33,-332.25 614.33,-332.25 578.17,-332.25 578.17,-332.25 572.46,-332.25 566.75,-326.54 566.75,-320.83 566.75,-320.83 566.75,-309.42 566.75,-309.42 566.75,-303.71 572.46,-298 578.17,-298"/>
</g>
<!-- known&#45;&gt;known -->
<g id="edge6" class="edge transition">
<title>known&#45;&gt;known</title>
<path fill="none" stroke="black" d="M565.76,-325.66C544.79,-337.56 554.95,-351.25 596.25,-351.25 629.48,-351.25 642.56,-342.39 635.47,-332.73"/>
<polygon fill="black" stroke="black" points="637.89,-330.19 627.92,-326.62 633.49,-335.63 637.89,-330.19"/>
<text text-anchor="start" x="492.75" y="-354.5" font-family="Helvetica,sans-Serif" font-size="10.00">Cancel Installation &#45; Cancel while known &#160;&#160;</text>
</g>
<!-- preparing&#45;for&#45;installation -->
<g id="node8" class="node state regular">
<title>preparing&#45;for&#45;installation</title>
<polygon fill="#ffffff" fill-opacity="0.003922" stroke="none" stroke-width="2" points="183.25,-360.25 14.25,-360.25 14.25,-324 183.25,-324 183.25,-360.25"/>
<text text-anchor="start" x="25.25" y="-337.85" font-family="Helvetica,sans-Serif" font-size="12.00">preparing&#45;for&#45;installation</text>
<path fill="none" stroke="black" stroke-width="2" d="M26.67,-325C26.67,-325 170.83,-325 170.83,-325 176.54,-325 182.25,-330.71 182.25,-336.42 182.25,-336.42 182.25,-347.83 182.25,-347.83 182.25,-353.54 176.54,-359.25 170.83,-359.25 170.83,-359.25 26.67,-359.25 26.67,-359.25 20.96,-359.25 15.25,-353.54 15.25,-347.83 15.25,-347.83 15.25,-336.42 15.25,-336.42 15.25,-330.71 20.96,-325 26.67,-325"/>
</g>
<!-- preparing&#45;for&#45;installation&#45;&gt;known -->
<g id="edge7" class="edge transition">
<title>preparing&#45;for&#45;installation&#45;&gt;known</title>
<path fill="none" stroke="black" d="M183.24,-337.58C290.78,-331.72 473.47,-321.76 554.48,-317.35"/>
<polygon fill="black" stroke="black" points="554.6,-320.85 564.39,-316.81 554.22,-313.86 554.6,-320.85"/>
<text text-anchor="start" x="266.5" y="-338.85" font-family="Helvetica,sans-Serif" font-size="10.00">Cancel Installation &#45; Cancel while preparing &#160;&#160;</text>
</g>
<!-- preparing&#45;successful -->
<g id="node9" class="node state regular">
<title>preparing&#45;successful</title>
<polygon fill="#ffffff" fill-opacity="0.003922" stroke="none" stroke-width="2" points="171.62,-306.25 25.88,-306.25 25.88,-270 171.62,-270 171.62,-306.25"/>
<text text-anchor="start" x="36.88" y="-283.85" font-family="Helvetica,sans-Serif" font-size="12.00">preparing&#45;successful</text>
<path fill="none" stroke="black" stroke-width="2" d="M38.29,-271C38.29,-271 159.21,-271 159.21,-271 164.92,-271 170.62,-276.71 170.62,-282.42 170.62,-282.42 170.62,-293.83 170.62,-293.83 170.62,-299.54 164.92,-305.25 159.21,-305.25 159.21,-305.25 38.29,-305.25 38.29,-305.25 32.58,-305.25 26.88,-299.54 26.88,-293.83 26.88,-293.83 26.88,-282.42 26.88,-282.42 26.88,-276.71 32.58,-271 38.29,-271"/>
</g>
<!-- preparing&#45;successful&#45;&gt;known -->
<g id="edge8" class="edge transition">
<title>preparing&#45;successful&#45;&gt;known</title>
<path fill="none" stroke="black" d="M171.6,-285.72C258.85,-283.86 410.29,-284 538.75,-301.38 544.04,-302.09 549.55,-303.1 554.97,-304.24"/>
<polygon fill="black" stroke="black" points="553.85,-307.58 564.38,-306.4 555.42,-300.75 553.85,-307.58"/>
<text text-anchor="start" x="266.5" y="-304.62" font-family="Helvetica,sans-Serif" font-size="10.00">Cancel Installation &#45; Cancel while preparing &#160;&#160;</text>
</g>
</g>
</svg>
