<?xml version="1.0" encoding="UTF-8" standalone="no"?>
<!DOCTYPE svg PUBLIC "-//W3C//DTD SVG 1.1//EN"
 "http://www.w3.org/Graphics/SVG/1.1/DTD/svg11.dtd">
<!-- Generated by graphviz version 12.1.0 (20240811.2233)
 -->
<!-- Title: state transitions Pages: 1 -->
<svg width="788pt" height="808pt"
 viewBox="0.00 0.00 788.25 808.00" xmlns="http://www.w3.org/2000/svg" xmlns:xlink="http://www.w3.org/1999/xlink">
<g id="graph0" class="graph" transform="scale(1 1) rotate(0) translate(4 804)">
<title>state transitions</title>
<polygon fill="white" stroke="none" points="-4,4 -4,-804 784.25,-804 784.25,4 -4,4"/>
<!-- added&#45;to&#45;existing&#45;cluster -->
<g id="node1" class="node state regular">
<title>added&#45;to&#45;existing&#45;cluster</title>
<polygon fill="#ffffff" fill-opacity="0.003922" stroke="none" stroke-width="2" points="244.25,-144.25 73,-144.25 73,-108 244.25,-108 244.25,-144.25"/>
<text text-anchor="start" x="84" y="-121.85" font-family="Helvetica,sans-Serif" font-size="12.00">added&#45;to&#45;existing&#45;cluster</text>
<path fill="none" stroke="black" stroke-width="2" d="M85.42,-109C85.42,-109 231.83,-109 231.83,-109 237.54,-109 243.25,-114.71 243.25,-120.42 243.25,-120.42 243.25,-131.83 243.25,-131.83 243.25,-137.54 237.54,-143.25 231.83,-143.25 231.83,-143.25 85.42,-143.25 85.42,-143.25 79.71,-143.25 74,-137.54 74,-131.83 74,-131.83 74,-120.42 74,-120.42 74,-114.71 79.71,-109 85.42,-109"/>
</g>
<!-- installing&#45;pending&#45;user&#45;action -->
<g id="node2" class="node state regular">
<title>installing&#45;pending&#45;user&#45;action</title>
<polygon fill="#ffffff" fill-opacity="0.003922" stroke="none" stroke-width="2" points="769.88,-138.25 572.38,-138.25 572.38,-102 769.88,-102 769.88,-138.25"/>
<text text-anchor="start" x="583.38" y="-115.85" font-family="Helvetica,sans-Serif" font-size="12.00">installing&#45;pending&#45;user&#45;action</text>
<path fill="none" stroke="black" stroke-width="2" d="M584.79,-103C584.79,-103 757.46,-103 757.46,-103 763.17,-103 768.88,-108.71 768.88,-114.42 768.88,-114.42 768.88,-125.83 768.88,-125.83 768.88,-131.54 763.17,-137.25 757.46,-137.25 757.46,-137.25 584.79,-137.25 584.79,-137.25 579.08,-137.25 573.38,-131.54 573.38,-125.83 573.38,-125.83 573.38,-114.42 573.38,-114.42 573.38,-108.71 579.08,-103 584.79,-103"/>
</g>
<!-- added&#45;to&#45;existing&#45;cluster&#45;&gt;installing&#45;pending&#45;user&#45;action -->
<g id="edge1" class="edge transition">
<title>added&#45;to&#45;existing&#45;cluster&#45;&gt;installing&#45;pending&#45;user&#45;action</title>
<path fill="none" stroke="black" d="M244.21,-125.13C331.07,-124.11 466.59,-122.52 561.37,-121.4"/>
<polygon fill="black" stroke="black" points="561.25,-124.9 571.21,-121.29 561.17,-117.91 561.25,-124.9"/>
<text text-anchor="start" x="305.75" y="-127.93" font-family="Helvetica,sans-Serif" font-size="10.00">Register Host &#45; Wrong boot order detection &#160;&#160;</text>
</g>
<!-- installing&#45;pending&#45;user&#45;action&#45;&gt;installing&#45;pending&#45;user&#45;action -->
<g id="edge11" class="edge transition">
<title>installing&#45;pending&#45;user&#45;action&#45;&gt;installing&#45;pending&#45;user&#45;action</title>
<path fill="none" stroke="black" d="M625.06,-137.97C617.23,-147.53 632.59,-156.25 671.12,-156.25 693.4,-156.25 707.94,-153.34 714.72,-149.03"/>
<polygon fill="black" stroke="black" points="718.1,-149.97 716.86,-139.45 711.26,-148.44 718.1,-149.97"/>
<text text-anchor="start" x="562" y="-159.5" font-family="Helvetica,sans-Serif" font-size="10.00">Register Host &#45; Wrong boot order detection &#160;&#160;</text>
</g>
<!-- binding -->
<g id="node3" class="node state regular">
<title>binding</title>
<polygon fill="#ffffff" fill-opacity="0.003922" stroke="none" stroke-width="2" points="191.38,-715.25 125.88,-715.25 125.88,-679 191.38,-679 191.38,-715.25"/>
<text text-anchor="start" x="136.88" y="-692.85" font-family="Helvetica,sans-Serif" font-size="12.00">binding</text>
<path fill="none" stroke="black" stroke-width="2" d="M138.29,-680C138.29,-680 178.96,-680 178.96,-680 184.67,-680 190.38,-685.71 190.38,-691.42 190.38,-691.42 190.38,-702.83 190.38,-702.83 190.38,-708.54 184.67,-714.25 178.96,-714.25 178.96,-714.25 138.29,-714.25 138.29,-714.25 132.58,-714.25 126.88,-708.54 126.88,-702.83 126.88,-702.83 126.88,-691.42 126.88,-691.42 126.88,-685.71 132.58,-680 138.29,-680"/>
</g>
<!-- discovering -->
<g id="node4" class="node state regular">
<title>discovering</title>
<polygon fill="#ffffff" fill-opacity="0.003922" stroke="none" stroke-width="2" points="716.25,-472.25 626,-472.25 626,-436 716.25,-436 716.25,-472.25"/>
<text text-anchor="start" x="637" y="-449.85" font-family="Helvetica,sans-Serif" font-size="12.00">discovering</text>
<path fill="none" stroke="black" stroke-width="2" d="M638.42,-437C638.42,-437 703.83,-437 703.83,-437 709.54,-437 715.25,-442.71 715.25,-448.42 715.25,-448.42 715.25,-459.83 715.25,-459.83 715.25,-465.54 709.54,-471.25 703.83,-471.25 703.83,-471.25 638.42,-471.25 638.42,-471.25 632.71,-471.25 627,-465.54 627,-459.83 627,-459.83 627,-448.42 627,-448.42 627,-442.71 632.71,-437 638.42,-437"/>
</g>
<!-- binding&#45;&gt;discovering -->
<g id="edge2" class="edge transition">
<title>binding&#45;&gt;discovering</title>
<path fill="none" stroke="black" d="M191.19,-705.04C262.5,-720.99 438.8,-749.53 554.38,-675.12 622.84,-631.05 653.17,-532.52 664.45,-483.29"/>
<polygon fill="black" stroke="black" points="667.85,-484.17 666.55,-473.66 661,-482.69 667.85,-484.17"/>
<text text-anchor="start" x="336.12" y="-727.21" font-family="Helvetica,sans-Serif" font-size="10.00">Register Host &#45; Re&#45;registration &#160;&#160;</text>
</g>
<!-- discovering&#45;&gt;discovering -->
<g id="edge4" class="edge transition">
<title>discovering&#45;&gt;discovering</title>
<path fill="none" stroke="black" d="M626.08,-470.85C616.07,-480.84 631.09,-490.25 671.12,-490.25 694.59,-490.25 709.45,-487.02 715.73,-482.33"/>
<polygon fill="black" stroke="black" points="719.23,-482.49 716.11,-472.36 712.23,-482.22 719.23,-482.49"/>
<text text-anchor="start" x="592.38" y="-493.5" font-family="Helvetica,sans-Serif" font-size="10.00">Register Host &#45; Re&#45;registration &#160;&#160;</text>
</g>
<!-- disconnected -->
<g id="node5" class="node state regular">
<title>disconnected</title>
<polygon fill="#ffffff" fill-opacity="0.003922" stroke="none" stroke-width="2" points="209.38,-661.25 107.88,-661.25 107.88,-625 209.38,-625 209.38,-661.25"/>
<text text-anchor="start" x="118.88" y="-638.85" font-family="Helvetica,sans-Serif" font-size="12.00">disconnected</text>
<path fill="none" stroke="black" stroke-width="2" d="M120.29,-626C120.29,-626 196.96,-626 196.96,-626 202.67,-626 208.38,-631.71 208.38,-637.42 208.38,-637.42 208.38,-648.83 208.38,-648.83 208.38,-654.54 202.67,-660.25 196.96,-660.25 196.96,-660.25 120.29,-660.25 120.29,-660.25 114.58,-660.25 108.88,-654.54 108.88,-648.83 108.88,-648.83 108.88,-637.42 108.88,-637.42 108.88,-631.71 114.58,-626 120.29,-626"/>
</g>
<!-- disconnected&#45;&gt;discovering -->
<g id="edge3" class="edge transition">
<title>disconnected&#45;&gt;discovering</title>
<path fill="none" stroke="black" d="M209.17,-651.13C287.81,-661.27 443.62,-670.74 554.38,-609.12 605.58,-580.64 640.75,-519 657.96,-482.62"/>
<polygon fill="black" stroke="black" points="661.12,-484.13 662.09,-473.58 654.75,-481.22 661.12,-484.13"/>
<text text-anchor="start" x="336.12" y="-661.79" font-family="Helvetica,sans-Serif" font-size="10.00">Register Host &#45; Re&#45;registration &#160;&#160;</text>
</g>
<!-- error -->
<g id="node6" class="node state regular">
<title>error</title>
<polygon fill="#ffffff" fill-opacity="0.003922" stroke="none" stroke-width="2" points="699.12,-42.25 643.12,-42.25 643.12,-6 699.12,-6 699.12,-42.25"/>
<text text-anchor="start" x="656.5" y="-19.85" font-family="Helvetica,sans-Serif" font-size="12.00">error</text>
<path fill="none" stroke="black" stroke-width="2" d="M655.54,-7C655.54,-7 686.71,-7 686.71,-7 692.42,-7 698.12,-12.71 698.12,-18.42 698.12,-18.42 698.12,-29.83 698.12,-29.83 698.12,-35.54 692.42,-41.25 686.71,-41.25 686.71,-41.25 655.54,-41.25 655.54,-41.25 649.83,-41.25 644.12,-35.54 644.12,-29.83 644.12,-29.83 644.12,-18.42 644.12,-18.42 644.12,-12.71 649.83,-7 655.54,-7"/>
</g>
<!-- error&#45;&gt;error -->
<g id="edge5" class="edge transition">
<title>error&#45;&gt;error</title>
<path fill="none" stroke="black" d="M643.28,-31.4C609.04,-43.89 618.32,-60.25 671.12,-60.25 717.74,-60.25 730.44,-47.5 709.21,-35.91"/>
<polygon fill="black" stroke="black" points="710.92,-32.84 700.35,-32.01 708.09,-39.24 710.92,-32.84"/>
<text text-anchor="start" x="578.5" y="-63.5" font-family="Helvetica,sans-Serif" font-size="10.00">Register Host &#45; Register during error &#160;&#160;</text>
</g>
<!-- initial -->
<g id="node7" class="node state regular">
<title>initial</title>
<polygon fill="#ffffff" fill-opacity="0.003922" stroke="none" stroke-width="2" points="186.62,-607.25 130.62,-607.25 130.62,-571 186.62,-571 186.62,-607.25"/>
<text text-anchor="start" x="142.88" y="-584.85" font-family="Helvetica,sans-Serif" font-size="12.00">initial</text>
<path fill="none" stroke="black" stroke-width="2" d="M143.04,-572C143.04,-572 174.21,-572 174.21,-572 179.92,-572 185.62,-577.71 185.62,-583.42 185.62,-583.42 185.62,-594.83 185.62,-594.83 185.62,-600.54 179.92,-606.25 174.21,-606.25 174.21,-606.25 143.04,-606.25 143.04,-606.25 137.33,-606.25 131.62,-600.54 131.62,-594.83 131.62,-594.83 131.62,-583.42 131.62,-583.42 131.62,-577.71 137.33,-572 143.04,-572"/>
</g>
<!-- initial&#45;&gt;discovering -->
<g id="edge6" class="edge transition">
<title>initial&#45;&gt;discovering</title>
<path fill="none" stroke="black" d="M186.22,-590.91C251.62,-594.3 424.4,-597.13 554.38,-544.12 589.75,-529.7 623.43,-501.26 645.24,-480.19"/>
<polygon fill="black" stroke="black" points="647.56,-482.82 652.2,-473.3 642.63,-477.85 647.56,-482.82"/>
<text text-anchor="start" x="329" y="-595.43" font-family="Helvetica,sans-Serif" font-size="10.00">Register Host &#45; Initial registration &#160;&#160;</text>
</g>
<!-- installed -->
<g id="node8" class="node state regular">
<title>installed</title>
<polygon fill="#ffffff" fill-opacity="0.003922" stroke="none" stroke-width="2" points="194.38,-769.25 122.88,-769.25 122.88,-733 194.38,-733 194.38,-769.25"/>
<text text-anchor="start" x="133.88" y="-746.85" font-family="Helvetica,sans-Serif" font-size="12.00">installed</text>
<path fill="none" stroke="black" stroke-width="2" d="M135.29,-734C135.29,-734 181.96,-734 181.96,-734 187.67,-734 193.38,-739.71 193.38,-745.42 193.38,-745.42 193.38,-756.83 193.38,-756.83 193.38,-762.54 187.67,-768.25 181.96,-768.25 181.96,-768.25 135.29,-768.25 135.29,-768.25 129.58,-768.25 123.88,-762.54 123.88,-756.83 123.88,-756.83 123.88,-745.42 123.88,-745.42 123.88,-739.71 129.58,-734 135.29,-734"/>
</g>
<!-- installed&#45;&gt;installed -->
<g id="edge7" class="edge transition">
<title>installed&#45;&gt;installed</title>
<path fill="none" stroke="black" d="M122.97,-761.66C98.44,-773.56 110.33,-787.25 158.62,-787.25 198.62,-787.25 213.65,-777.86 203.7,-767.88"/>
<polygon fill="black" stroke="black" points="205.82,-765.08 195.55,-762.5 201.96,-770.93 205.82,-765.08"/>
<text text-anchor="start" x="54.75" y="-790.5" font-family="Helvetica,sans-Serif" font-size="10.00">Register Host &#45; Register post&#45;installation &#160;&#160;</text>
</g>
<!-- installing -->
<g id="node9" class="node state regular">
<title>installing</title>
<polygon fill="#ffffff" fill-opacity="0.003922" stroke="none" stroke-width="2" points="195.88,-36.25 121.38,-36.25 121.38,0 195.88,0 195.88,-36.25"/>
<text text-anchor="start" x="132.38" y="-13.85" font-family="Helvetica,sans-Serif" font-size="12.00">installing</text>
<path fill="none" stroke="black" stroke-width="2" d="M133.79,-1C133.79,-1 183.46,-1 183.46,-1 189.17,-1 194.88,-6.71 194.88,-12.42 194.88,-12.42 194.88,-23.83 194.88,-23.83 194.88,-29.54 189.17,-35.25 183.46,-35.25 183.46,-35.25 133.79,-35.25 133.79,-35.25 128.08,-35.25 122.38,-29.54 122.38,-23.83 122.38,-23.83 122.38,-12.42 122.38,-12.42 122.38,-6.71 128.08,-1 133.79,-1"/>
</g>
<!-- installing&#45;&gt;error -->
<g id="edge8" class="edge transition">
<title>installing&#45;&gt;error</title>
<path fill="none" stroke="black" d="M195.82,-17.78C265.33,-17.22 422.31,-16.46 554.38,-19.38 580.28,-19.95 609.43,-21.15 632,-22.2"/>
<polygon fill="black" stroke="black" points="631.8,-25.69 641.96,-22.67 632.14,-18.7 631.8,-25.69"/>
<text text-anchor="start" x="306.5" y="-22.62" font-family="Helvetica,sans-Serif" font-size="10.00">Register Host &#45; Register during installation &#160;&#160;</text>
</g>
<!-- installing&#45;in&#45;progress -->
<g id="node10" class="node state regular">
<title>installing&#45;in&#45;progress</title>
<polygon fill="#ffffff" fill-opacity="0.003922" stroke="none" stroke-width="2" points="231.12,-90.25 86.12,-90.25 86.12,-54 231.12,-54 231.12,-90.25"/>
<text text-anchor="start" x="97.12" y="-67.85" font-family="Helvetica,sans-Serif" font-size="12.00">installing&#45;in&#45;progress</text>
<path fill="none" stroke="black" stroke-width="2" d="M98.54,-55C98.54,-55 218.71,-55 218.71,-55 224.42,-55 230.12,-60.71 230.12,-66.42 230.12,-66.42 230.12,-77.83 230.12,-77.83 230.12,-83.54 224.42,-89.25 218.71,-89.25 218.71,-89.25 98.54,-89.25 98.54,-89.25 92.83,-89.25 87.12,-83.54 87.12,-77.83 87.12,-77.83 87.12,-66.42 87.12,-66.42 87.12,-60.71 92.83,-55 98.54,-55"/>
</g>
<!-- installing&#45;in&#45;progress&#45;&gt;installing&#45;pending&#45;user&#45;action -->
<g id="edge9" class="edge transition">
<title>installing&#45;in&#45;progress&#45;&gt;installing&#45;pending&#45;user&#45;action</title>
<path fill="none" stroke="black" d="M231.05,-76.8C310.2,-82.25 441.58,-92.1 554.38,-104.38 556.7,-104.63 559.05,-104.89 561.41,-105.16"/>
<polygon fill="black" stroke="black" points="560.76,-108.61 571.1,-106.3 561.57,-101.65 560.76,-108.61"/>
<text text-anchor="start" x="305.75" y="-107.62" font-family="Helvetica,sans-Serif" font-size="10.00">Register Host &#45; Wrong boot order detection &#160;&#160;</text>
</g>
<!-- installing&#45;in&#45;progress&#45;&gt;error -->
<g id="edge10" class="edge transition">
<title>installing&#45;in&#45;progress&#45;&gt;error</title>
<path fill="none" stroke="black" d="M230.88,-65.43C340.49,-55.12 546.72,-35.73 631.86,-27.72"/>
<polygon fill="black" stroke="black" points="632.15,-31.21 641.78,-26.79 631.49,-24.24 632.15,-31.21"/>
<text text-anchor="start" x="306.5" y="-63.78" font-family="Helvetica,sans-Serif" font-size="10.00">Register Host &#45; Register during installation &#160;&#160;</text>
</g>
<!-- insufficient -->
<g id="node11" class="node state regular">
<title>insufficient</title>
<polygon fill="#ffffff" fill-opacity="0.003922" stroke="none" stroke-width="2" points="202.25,-553.25 115,-553.25 115,-517 202.25,-517 202.25,-553.25"/>
<text text-anchor="start" x="126" y="-530.85" font-family="Helvetica,sans-Serif" font-size="12.00">insufficient</text>
<path fill="none" stroke="black" stroke-width="2" d="M127.42,-518C127.42,-518 189.83,-518 189.83,-518 195.54,-518 201.25,-523.71 201.25,-529.42 201.25,-529.42 201.25,-540.83 201.25,-540.83 201.25,-546.54 195.54,-552.25 189.83,-552.25 189.83,-552.25 127.42,-552.25 127.42,-552.25 121.71,-552.25 116,-546.54 116,-540.83 116,-540.83 116,-529.42 116,-529.42 116,-523.71 121.71,-518 127.42,-518"/>
</g>
<!-- insufficient&#45;&gt;discovering -->
<g id="edge12" class="edge transition">
<title>insufficient&#45;&gt;discovering</title>
<path fill="none" stroke="black" d="M202.13,-533.15C274.94,-529.17 427.93,-518.1 554.38,-491.12 574.55,-486.82 596.21,-480.4 615.27,-474.12"/>
<polygon fill="black" stroke="black" points="616.37,-477.44 624.72,-470.93 614.13,-470.81 616.37,-477.44"/>
<text text-anchor="start" x="336.12" y="-530.93" font-family="Helvetica,sans-Serif" font-size="10.00">Register Host &#45; Re&#45;registration &#160;&#160;</text>
</g>
<!-- known -->
<g id="node12" class="node state regular">
<title>known</title>
<polygon fill="#ffffff" fill-opacity="0.003922" stroke="none" stroke-width="2" points="189.12,-499.25 128.12,-499.25 128.12,-463 189.12,-463 189.12,-499.25"/>
<text text-anchor="start" x="139.12" y="-476.85" font-family="Helvetica,sans-Serif" font-size="12.00">known</text>
<path fill="none" stroke="black" stroke-width="2" d="M140.54,-464C140.54,-464 176.71,-464 176.71,-464 182.42,-464 188.12,-469.71 188.12,-475.42 188.12,-475.42 188.12,-486.83 188.12,-486.83 188.12,-492.54 182.42,-498.25 176.71,-498.25 176.71,-498.25 140.54,-498.25 140.54,-498.25 134.83,-498.25 129.12,-492.54 129.12,-486.83 129.12,-486.83 129.12,-475.42 129.12,-475.42 129.12,-469.71 134.83,-464 140.54,-464"/>
</g>
<!-- known&#45;&gt;discovering -->
<g id="edge13" class="edge transition">
<title>known&#45;&gt;discovering</title>
<path fill="none" stroke="black" d="M188.91,-479.58C271.49,-475.21 507.25,-462.74 615.08,-457.04"/>
<polygon fill="black" stroke="black" points="615.04,-460.54 624.84,-456.52 614.67,-453.55 615.04,-460.54"/>
<text text-anchor="start" x="336.12" y="-477.85" font-family="Helvetica,sans-Serif" font-size="10.00">Register Host &#45; Re&#45;registration &#160;&#160;</text>
</g>
<!-- pending&#45;for&#45;input -->
<g id="node13" class="node state regular">
<title>pending&#45;for&#45;input</title>
<polygon fill="#ffffff" fill-opacity="0.003922" stroke="none" stroke-width="2" points="221,-445.25 96.25,-445.25 96.25,-409 221,-409 221,-445.25"/>
<text text-anchor="start" x="107.25" y="-422.85" font-family="Helvetica,sans-Serif" font-size="12.00">pending&#45;for&#45;input</text>
<path fill="none" stroke="black" stroke-width="2" d="M108.67,-410C108.67,-410 208.58,-410 208.58,-410 214.29,-410 220,-415.71 220,-421.42 220,-421.42 220,-432.83 220,-432.83 220,-438.54 214.29,-444.25 208.58,-444.25 208.58,-444.25 108.67,-444.25 108.67,-444.25 102.96,-444.25 97.25,-438.54 97.25,-432.83 97.25,-432.83 97.25,-421.42 97.25,-421.42 97.25,-415.71 102.96,-410 108.67,-410"/>
</g>
<!-- pending&#45;for&#45;input&#45;&gt;discovering -->
<g id="edge14" class="edge transition">
<title>pending&#45;for&#45;input&#45;&gt;discovering</title>
<path fill="none" stroke="black" d="M220.87,-429.03C298.51,-431.63 436.46,-436.84 554.38,-444.38 574.13,-445.64 595.76,-447.37 614.92,-449.02"/>
<polygon fill="black" stroke="black" points="614.41,-452.49 624.68,-449.87 615.02,-445.51 614.41,-452.49"/>
<text text-anchor="start" x="336.12" y="-447.62" font-family="Helvetica,sans-Serif" font-size="10.00">Register Host &#45; Re&#45;registration &#160;&#160;</text>
</g>
<!-- preparing&#45;for&#45;installation -->
<g id="node14" class="node state regular">
<title>preparing&#45;for&#45;installation</title>
<polygon fill="#ffffff" fill-opacity="0.003922" stroke="none" stroke-width="2" points="243.12,-391.25 74.12,-391.25 74.12,-355 243.12,-355 243.12,-391.25"/>
<text text-anchor="start" x="85.12" y="-368.85" font-family="Helvetica,sans-Serif" font-size="12.00">preparing&#45;for&#45;installation</text>
<path fill="none" stroke="black" stroke-width="2" d="M86.54,-356C86.54,-356 230.71,-356 230.71,-356 236.42,-356 242.12,-361.71 242.12,-367.42 242.12,-367.42 242.12,-378.83 242.12,-378.83 242.12,-384.54 236.42,-390.25 230.71,-390.25 230.71,-390.25 86.54,-390.25 86.54,-390.25 80.83,-390.25 75.12,-384.54 75.12,-378.83 75.12,-378.83 75.12,-367.42 75.12,-367.42 75.12,-361.71 80.83,-356 86.54,-356"/>
</g>
<!-- preparing&#45;for&#45;installation&#45;&gt;discovering -->
<g id="edge15" class="edge transition">
<title>preparing&#45;for&#45;installation&#45;&gt;discovering</title>
<path fill="none" stroke="black" d="M242.91,-376.35C323.41,-380.74 448.4,-390.96 554.38,-414.38 574.67,-418.86 596.36,-425.72 615.42,-432.49"/>
<polygon fill="black" stroke="black" points="613.99,-435.7 624.58,-435.82 616.38,-429.12 613.99,-435.7"/>
<text text-anchor="start" x="336.12" y="-417.62" font-family="Helvetica,sans-Serif" font-size="10.00">Register Host &#45; Re&#45;registration &#160;&#160;</text>
</g>
<!-- preparing&#45;successful -->
<g id="node15" class="node state regular">
<title>preparing&#45;successful</title>
<polygon fill="#ffffff" fill-opacity="0.003922" stroke="none" stroke-width="2" points="231.5,-337.25 85.75,-337.25 85.75,-301 231.5,-301 231.5,-337.25"/>
<text text-anchor="start" x="96.75" y="-314.85" font-family="Helvetica,sans-Serif" font-size="12.00">preparing&#45;successful</text>
<path fill="none" stroke="black" stroke-width="2" d="M98.17,-302C98.17,-302 219.08,-302 219.08,-302 224.79,-302 230.5,-307.71 230.5,-313.42 230.5,-313.42 230.5,-324.83 230.5,-324.83 230.5,-330.54 224.79,-336.25 219.08,-336.25 219.08,-336.25 98.17,-336.25 98.17,-336.25 92.46,-336.25 86.75,-330.54 86.75,-324.83 86.75,-324.83 86.75,-313.42 86.75,-313.42 86.75,-307.71 92.46,-302 98.17,-302"/>
</g>
<!-- preparing&#45;successful&#45;&gt;discovering -->
<g id="edge16" class="edge transition">
<title>preparing&#45;successful&#45;&gt;discovering</title>
<path fill="none" stroke="black" d="M231.33,-315.3C312.74,-313.57 448.03,-318.7 554.38,-362.38 590.18,-377.08 624.01,-406.35 645.74,-427.89"/>
<polygon fill="black" stroke="black" points="643.16,-430.26 652.67,-434.93 648.15,-425.35 643.16,-430.26"/>
<text text-anchor="start" x="336.12" y="-365.62" font-family="Helvetica,sans-Serif" font-size="10.00">Register Host &#45; Re&#45;registration &#160;&#160;</text>
</g>
<!-- resetting -->
<g id="node16" class="node state regular">
<title>resetting</title>
<polygon fill="#ffffff" fill-opacity="0.003922" stroke="none" stroke-width="2" points="195.88,-252.25 121.38,-252.25 121.38,-216 195.88,-216 195.88,-252.25"/>
<text text-anchor="start" x="132.38" y="-229.85" font-family="Helvetica,sans-Serif" font-size="12.00">resetting</text>
<path fill="none" stroke="black" stroke-width="2" d="M133.79,-217C133.79,-217 183.46,-217 183.46,-217 189.17,-217 194.88,-222.71 194.88,-228.42 194.88,-228.42 194.88,-239.83 194.88,-239.83 194.88,-245.54 189.17,-251.25 183.46,-251.25 183.46,-251.25 133.79,-251.25 133.79,-251.25 128.08,-251.25 122.38,-245.54 122.38,-239.83 122.38,-239.83 122.38,-228.42 122.38,-228.42 122.38,-222.71 128.08,-217 133.79,-217"/>
</g>
<!-- resetting&#45;&gt;discovering -->
<g id="edge18" class="edge transition">
<title>resetting&#45;&gt;discovering</title>
<path fill="none" stroke="black" d="M195.63,-231.39C268.91,-227.56 438.25,-227.74 554.38,-298.38 604.46,-328.84 639.93,-389.84 657.52,-425.8"/>
<polygon fill="black" stroke="black" points="654.31,-427.19 661.75,-434.72 660.63,-424.19 654.31,-427.19"/>
<text text-anchor="start" x="275.38" y="-301.62" font-family="Helvetica,sans-Serif" font-size="10.00">Register Host &#45; Register non&#45;rebooting host in resetting &#160;&#160;</text>
</g>
<!-- resetting&#45;&gt;resetting -->
<g id="edge17" class="edge transition">
<title>resetting&#45;&gt;resetting</title>
<path fill="none" stroke="black" d="M121.49,-245.41C98.95,-257.12 111.33,-270.25 158.62,-270.25 197.05,-270.25 212.43,-261.58 204.76,-252.05"/>
<polygon fill="black" stroke="black" points="207.1,-249.43 196.98,-246.31 202.94,-255.06 207.1,-249.43"/>
<text text-anchor="start" x="0" y="-273.5" font-family="Helvetica,sans-Serif" font-size="10.00">Register Host &#45; Ignore register while rebooting host in resetting &#160;&#160;</text>
</g>
<!-- resetting&#45;pending&#45;user&#45;action -->
<g id="node17" class="node state regular">
<title>resetting&#45;pending&#45;user&#45;action</title>
<polygon fill="#ffffff" fill-opacity="0.003922" stroke="none" stroke-width="2" points="257.38,-198.25 59.88,-198.25 59.88,-162 257.38,-162 257.38,-198.25"/>
<text text-anchor="start" x="70.88" y="-175.85" font-family="Helvetica,sans-Serif" font-size="12.00">resetting&#45;pending&#45;user&#45;action</text>
<path fill="none" stroke="black" stroke-width="2" d="M72.29,-163C72.29,-163 244.96,-163 244.96,-163 250.67,-163 256.38,-168.71 256.38,-174.42 256.38,-174.42 256.38,-185.83 256.38,-185.83 256.38,-191.54 250.67,-197.25 244.96,-197.25 244.96,-197.25 72.29,-197.25 72.29,-197.25 66.58,-197.25 60.88,-191.54 60.88,-185.83 60.88,-185.83 60.88,-174.42 60.88,-174.42 60.88,-168.71 66.58,-163 72.29,-163"/>
</g>
<!-- resetting&#45;pending&#45;user&#45;action&#45;&gt;discovering -->
<g id="edge19" class="edge transition">
<title>resetting&#45;pending&#45;user&#45;action&#45;&gt;discovering</title>
<path fill="none" stroke="black" d="M256.99,-163.37C342.84,-154.05 467.45,-154.42 554.38,-214.38 626.91,-264.41 655.61,-372.89 665.53,-425.01"/>
<polygon fill="black" stroke="black" points="662.04,-425.4 667.25,-434.62 668.93,-424.16 662.04,-425.4"/>
<text text-anchor="start" x="336.12" y="-217.62" font-family="Helvetica,sans-Serif" font-size="10.00">Register Host &#45; Re&#45;registration &#160;&#160;</text>
</g>
</g>
</svg>
