<?xml version="1.0" encoding="UTF-8" standalone="no"?>
<!DOCTYPE svg PUBLIC "-//W3C//DTD SVG 1.1//EN"
 "http://www.w3.org/Graphics/SVG/1.1/DTD/svg11.dtd">
<!-- Generated by graphviz version 12.1.0 (20240811.2233)
 -->
<!-- Title: state transitions Pages: 1 -->
<svg width="937pt" height="546pt"
 viewBox="0.00 0.00 936.50 545.74" xmlns="http://www.w3.org/2000/svg" xmlns:xlink="http://www.w3.org/1999/xlink">
<g id="graph0" class="graph" transform="scale(1 1) rotate(0) translate(4 541.74)">
<title>state transitions</title>
<polygon fill="white" stroke="none" points="-4,4 -4,-541.74 932.5,-541.74 932.5,4 -4,4"/>
<!-- binding -->
<g id="node1" class="node state regular">
<title>binding</title>
<polygon fill="#ffffff" fill-opacity="0.003922" stroke="none" stroke-width="2" points="117.25,-253.57 51.75,-253.57 51.75,-217.32 117.25,-217.32 117.25,-253.57"/>
<text text-anchor="start" x="62.75" y="-231.17" font-family="Helvetica,sans-Serif" font-size="12.00">binding</text>
<path fill="none" stroke="black" stroke-width="2" d="M64.17,-218.32C64.17,-218.32 104.83,-218.32 104.83,-218.32 110.54,-218.32 116.25,-224.03 116.25,-229.74 116.25,-229.74 116.25,-241.16 116.25,-241.16 116.25,-246.87 110.54,-252.57 104.83,-252.57 104.83,-252.57 64.17,-252.57 64.17,-252.57 58.46,-252.57 52.75,-246.87 52.75,-241.16 52.75,-241.16 52.75,-229.74 52.75,-229.74 52.75,-224.03 58.46,-218.32 64.17,-218.32"/>
</g>
<!-- disconnected -->
<g id="node2" class="node state regular">
<title>disconnected</title>
<polygon fill="#ffffff" fill-opacity="0.003922" stroke="none" stroke-width="2" points="755,-145.57 653.5,-145.57 653.5,-109.32 755,-109.32 755,-145.57"/>
<text text-anchor="start" x="664.5" y="-123.17" font-family="Helvetica,sans-Serif" font-size="12.00">disconnected</text>
<path fill="none" stroke="black" stroke-width="2" d="M665.92,-110.32C665.92,-110.32 742.58,-110.32 742.58,-110.32 748.29,-110.32 754,-116.03 754,-121.74 754,-121.74 754,-133.16 754,-133.16 754,-138.87 748.29,-144.57 742.58,-144.57 742.58,-144.57 665.92,-144.57 665.92,-144.57 660.21,-144.57 654.5,-138.87 654.5,-133.16 654.5,-133.16 654.5,-121.74 654.5,-121.74 654.5,-116.03 660.21,-110.32 665.92,-110.32"/>
</g>
<!-- binding&#45;&gt;disconnected -->
<g id="edge1" class="edge transition">
<title>binding&#45;&gt;disconnected</title>
<path fill="none" stroke="black" d="M117.19,-236.11C219.9,-237.79 542.4,-239.45 635.5,-196.45 655.32,-187.3 672.48,-169.64 684.57,-154.48"/>
<polygon fill="black" stroke="black" points="687.25,-156.75 690.51,-146.67 681.67,-152.52 687.25,-156.75"/>
<text text-anchor="start" x="187" y="-240.01" font-family="Helvetica,sans-Serif" font-size="10.00">Media Disconnect &#45; Move to disconnected when virtual media disconnects pre&#45;installation &#160;&#160;</text>
</g>
<!-- disconnected&#45;&gt;disconnected -->
<g id="edge2" class="edge transition">
<title>disconnected&#45;&gt;disconnected</title>
<path fill="none" stroke="black" d="M653.66,-143.42C640.46,-153.69 657.32,-163.57 704.25,-163.57 732.85,-163.57 750.28,-159.9 756.55,-154.71"/>
<polygon fill="black" stroke="black" points="760.02,-154.28 755.07,-144.92 753.1,-155.33 760.02,-154.28"/>
<text text-anchor="start" x="480" y="-166.82" font-family="Helvetica,sans-Serif" font-size="10.00">Media Disconnect &#45; Move to disconnected when virtual media disconnects pre&#45;installation &#160;&#160;</text>
</g>
<!-- discovering -->
<g id="node3" class="node state regular">
<title>discovering</title>
<polygon fill="#ffffff" fill-opacity="0.003922" stroke="none" stroke-width="2" points="129.62,-199.57 39.38,-199.57 39.38,-163.32 129.62,-163.32 129.62,-199.57"/>
<text text-anchor="start" x="50.38" y="-177.17" font-family="Helvetica,sans-Serif" font-size="12.00">discovering</text>
<path fill="none" stroke="black" stroke-width="2" d="M51.79,-164.32C51.79,-164.32 117.21,-164.32 117.21,-164.32 122.92,-164.32 128.62,-170.03 128.62,-175.74 128.62,-175.74 128.62,-187.16 128.62,-187.16 128.62,-192.87 122.92,-198.57 117.21,-198.57 117.21,-198.57 51.79,-198.57 51.79,-198.57 46.08,-198.57 40.38,-192.87 40.38,-187.16 40.38,-187.16 40.38,-175.74 40.38,-175.74 40.38,-170.03 46.08,-164.32 51.79,-164.32"/>
</g>
<!-- discovering&#45;&gt;disconnected -->
<g id="edge3" class="edge transition">
<title>discovering&#45;&gt;disconnected</title>
<path fill="none" stroke="black" d="M129.29,-181.15C222.82,-179.94 448.8,-173.91 635.5,-144.45 637.79,-144.09 640.12,-143.68 642.47,-143.25"/>
<polygon fill="black" stroke="black" points="642.92,-146.73 652.03,-141.3 641.53,-139.87 642.92,-146.73"/>
<text text-anchor="start" x="187" y="-183.27" font-family="Helvetica,sans-Serif" font-size="10.00">Media Disconnect &#45; Move to disconnected when virtual media disconnects pre&#45;installation &#160;&#160;</text>
</g>
<!-- error -->
<g id="node4" class="node state regular">
<title>error</title>
<polygon fill="#ffffff" fill-opacity="0.003922" stroke="none" stroke-width="2" points="732.25,-415.57 676.25,-415.57 676.25,-379.32 732.25,-379.32 732.25,-415.57"/>
<text text-anchor="start" x="689.62" y="-393.17" font-family="Helvetica,sans-Serif" font-size="12.00">error</text>
<path fill="none" stroke="black" stroke-width="2" d="M688.67,-380.32C688.67,-380.32 719.83,-380.32 719.83,-380.32 725.54,-380.32 731.25,-386.03 731.25,-391.74 731.25,-391.74 731.25,-403.16 731.25,-403.16 731.25,-408.87 725.54,-414.57 719.83,-414.57 719.83,-414.57 688.67,-414.57 688.67,-414.57 682.96,-414.57 677.25,-408.87 677.25,-403.16 677.25,-403.16 677.25,-391.74 677.25,-391.74 677.25,-386.03 682.96,-380.32 688.67,-380.32"/>
</g>
<!-- error&#45;&gt;error -->
<g id="edge4" class="edge transition">
<title>error&#45;&gt;error</title>
<path fill="none" stroke="black" d="M676.47,-403.49C632.61,-416.11 641.87,-433.57 704.25,-433.57 761.02,-433.57 773.79,-419.11 742.56,-406.99"/>
<polygon fill="black" stroke="black" points="744.06,-403.8 733.46,-403.97 741.85,-410.44 744.06,-403.8"/>
<text text-anchor="start" x="498" y="-436.82" font-family="Helvetica,sans-Serif" font-size="10.00">Media Disconnect &#45; Move to error when virtual media disconnects post&#45;installation &#160;&#160;</text>
</g>
<!-- installing -->
<g id="node5" class="node state regular">
<title>installing</title>
<polygon fill="#ffffff" fill-opacity="0.003922" stroke="none" stroke-width="2" points="121.75,-523.57 47.25,-523.57 47.25,-487.32 121.75,-487.32 121.75,-523.57"/>
<text text-anchor="start" x="58.25" y="-501.17" font-family="Helvetica,sans-Serif" font-size="12.00">installing</text>
<path fill="none" stroke="black" stroke-width="2" d="M59.67,-488.32C59.67,-488.32 109.33,-488.32 109.33,-488.32 115.04,-488.32 120.75,-494.03 120.75,-499.74 120.75,-499.74 120.75,-511.16 120.75,-511.16 120.75,-516.87 115.04,-522.57 109.33,-522.57 109.33,-522.57 59.67,-522.57 59.67,-522.57 53.96,-522.57 48.25,-516.87 48.25,-511.16 48.25,-511.16 48.25,-499.74 48.25,-499.74 48.25,-494.03 53.96,-488.32 59.67,-488.32"/>
</g>
<!-- installing&#45;&gt;error -->
<g id="edge5" class="edge transition">
<title>installing&#45;&gt;error</title>
<path fill="none" stroke="black" d="M121.74,-511.31C213.03,-524.36 457.78,-548.53 635.5,-466.45 655.32,-457.3 672.48,-439.64 684.57,-424.48"/>
<polygon fill="black" stroke="black" points="687.25,-426.75 690.51,-416.67 681.67,-422.52 687.25,-426.75"/>
<text text-anchor="start" x="205" y="-528.24" font-family="Helvetica,sans-Serif" font-size="10.00">Media Disconnect &#45; Move to error when virtual media disconnects post&#45;installation &#160;&#160;</text>
</g>
<!-- installing&#45;in&#45;progress -->
<g id="node6" class="node state regular">
<title>installing&#45;in&#45;progress</title>
<polygon fill="#ffffff" fill-opacity="0.003922" stroke="none" stroke-width="2" points="157,-469.57 12,-469.57 12,-433.32 157,-433.32 157,-469.57"/>
<text text-anchor="start" x="23" y="-447.17" font-family="Helvetica,sans-Serif" font-size="12.00">installing&#45;in&#45;progress</text>
<path fill="none" stroke="black" stroke-width="2" d="M24.42,-434.32C24.42,-434.32 144.58,-434.32 144.58,-434.32 150.29,-434.32 156,-440.03 156,-445.74 156,-445.74 156,-457.16 156,-457.16 156,-462.87 150.29,-468.57 144.58,-468.57 144.58,-468.57 24.42,-468.57 24.42,-468.57 18.71,-468.57 13,-462.87 13,-457.16 13,-457.16 13,-445.74 13,-445.74 13,-440.03 18.71,-434.32 24.42,-434.32"/>
</g>
<!-- installing&#45;in&#45;progress&#45;&gt;error -->
<g id="edge6" class="edge transition">
<title>installing&#45;in&#45;progress&#45;&gt;error</title>
<path fill="none" stroke="black" d="M156.71,-450.71C261.99,-448.7 465.11,-441.34 635.5,-414.45 645.31,-412.9 655.79,-410.6 665.49,-408.19"/>
<polygon fill="black" stroke="black" points="666.18,-411.63 674.98,-405.73 664.42,-404.85 666.18,-411.63"/>
<text text-anchor="start" x="205" y="-453.27" font-family="Helvetica,sans-Serif" font-size="10.00">Media Disconnect &#45; Move to error when virtual media disconnects post&#45;installation &#160;&#160;</text>
</g>
<!-- insufficient -->
<g id="node7" class="node state regular">
<title>insufficient</title>
<polygon fill="#ffffff" fill-opacity="0.003922" stroke="none" stroke-width="2" points="128.12,-145.57 40.88,-145.57 40.88,-109.32 128.12,-109.32 128.12,-145.57"/>
<text text-anchor="start" x="51.88" y="-123.17" font-family="Helvetica,sans-Serif" font-size="12.00">insufficient</text>
<path fill="none" stroke="black" stroke-width="2" d="M53.29,-110.32C53.29,-110.32 115.71,-110.32 115.71,-110.32 121.42,-110.32 127.12,-116.03 127.12,-121.74 127.12,-121.74 127.12,-133.16 127.12,-133.16 127.12,-138.87 121.42,-144.57 115.71,-144.57 115.71,-144.57 53.29,-144.57 53.29,-144.57 47.58,-144.57 41.88,-138.87 41.88,-133.16 41.88,-133.16 41.88,-121.74 41.88,-121.74 41.88,-116.03 47.58,-110.32 53.29,-110.32"/>
</g>
<!-- insufficient&#45;&gt;disconnected -->
<g id="edge7" class="edge transition">
<title>insufficient&#45;&gt;disconnected</title>
<path fill="none" stroke="black" d="M127.96,-127.45C235.28,-127.45 517.72,-127.45 642.5,-127.45"/>
<polygon fill="black" stroke="black" points="642.2,-130.95 652.2,-127.45 642.2,-123.95 642.2,-130.95"/>
<text text-anchor="start" x="187" y="-130.7" font-family="Helvetica,sans-Serif" font-size="10.00">Media Disconnect &#45; Move to disconnected when virtual media disconnects pre&#45;installation &#160;&#160;</text>
</g>
<!-- known -->
<g id="node8" class="node state regular">
<title>known</title>
<polygon fill="#ffffff" fill-opacity="0.003922" stroke="none" stroke-width="2" points="115,-91.57 54,-91.57 54,-55.32 115,-55.32 115,-91.57"/>
<text text-anchor="start" x="65" y="-69.17" font-family="Helvetica,sans-Serif" font-size="12.00">known</text>
<path fill="none" stroke="black" stroke-width="2" d="M66.42,-56.32C66.42,-56.32 102.58,-56.32 102.58,-56.32 108.29,-56.32 114,-62.03 114,-67.74 114,-67.74 114,-79.16 114,-79.16 114,-84.87 108.29,-90.57 102.58,-90.57 102.58,-90.57 66.42,-90.57 66.42,-90.57 60.71,-90.57 55,-84.87 55,-79.16 55,-79.16 55,-67.74 55,-67.74 55,-62.03 60.71,-56.32 66.42,-56.32"/>
</g>
<!-- known&#45;&gt;disconnected -->
<g id="edge8" class="edge transition">
<title>known&#45;&gt;disconnected</title>
<path fill="none" stroke="black" d="M114.92,-73.64C197.5,-74.56 438.35,-79.89 635.5,-110.7 637.79,-111.06 640.12,-111.46 642.46,-111.89"/>
<polygon fill="black" stroke="black" points="641.52,-115.27 652.02,-113.8 642.9,-108.4 641.52,-115.27"/>
<text text-anchor="start" x="187" y="-113.95" font-family="Helvetica,sans-Serif" font-size="10.00">Media Disconnect &#45; Move to disconnected when virtual media disconnects pre&#45;installation &#160;&#160;</text>
</g>
<!-- pending&#45;for&#45;input -->
<g id="node9" class="node state regular">
<title>pending&#45;for&#45;input</title>
<polygon fill="#ffffff" fill-opacity="0.003922" stroke="none" stroke-width="2" points="146.88,-37.57 22.13,-37.57 22.13,-1.32 146.88,-1.32 146.88,-37.57"/>
<text text-anchor="start" x="33.12" y="-15.17" font-family="Helvetica,sans-Serif" font-size="12.00">pending&#45;for&#45;input</text>
<path fill="none" stroke="black" stroke-width="2" d="M34.54,-2.32C34.54,-2.32 134.46,-2.32 134.46,-2.32 140.17,-2.32 145.88,-8.03 145.88,-13.74 145.88,-13.74 145.88,-25.16 145.88,-25.16 145.88,-30.87 140.17,-36.57 134.46,-36.57 134.46,-36.57 34.54,-36.57 34.54,-36.57 28.83,-36.57 23.12,-30.87 23.12,-25.16 23.12,-25.16 23.12,-13.74 23.12,-13.74 23.12,-8.03 28.83,-2.32 34.54,-2.32"/>
</g>
<!-- pending&#45;for&#45;input&#45;&gt;disconnected -->
<g id="edge9" class="edge transition">
<title>pending&#45;for&#45;input&#45;&gt;disconnected</title>
<path fill="none" stroke="black" d="M146.71,-10.34C252.06,2.5 472.06,16.65 635.5,-58.7 655.29,-67.82 672.45,-85.41 684.55,-100.51"/>
<polygon fill="black" stroke="black" points="681.64,-102.47 690.49,-108.3 687.21,-98.22 681.64,-102.47"/>
<text text-anchor="start" x="187" y="-61.95" font-family="Helvetica,sans-Serif" font-size="10.00">Media Disconnect &#45; Move to disconnected when virtual media disconnects pre&#45;installation &#160;&#160;</text>
</g>
<!-- preparing&#45;failed -->
<g id="node10" class="node state regular">
<title>preparing&#45;failed</title>
<polygon fill="#ffffff" fill-opacity="0.003922" stroke="none" stroke-width="2" points="143.12,-415.57 25.88,-415.57 25.88,-379.32 143.12,-379.32 143.12,-415.57"/>
<text text-anchor="start" x="36.88" y="-393.17" font-family="Helvetica,sans-Serif" font-size="12.00">preparing&#45;failed</text>
<path fill="none" stroke="black" stroke-width="2" d="M38.29,-380.32C38.29,-380.32 130.71,-380.32 130.71,-380.32 136.42,-380.32 142.12,-386.03 142.12,-391.74 142.12,-391.74 142.12,-403.16 142.12,-403.16 142.12,-408.87 136.42,-414.57 130.71,-414.57 130.71,-414.57 38.29,-414.57 38.29,-414.57 32.58,-414.57 26.88,-408.87 26.88,-403.16 26.88,-403.16 26.88,-391.74 26.88,-391.74 26.88,-386.03 32.58,-380.32 38.29,-380.32"/>
</g>
<!-- preparing&#45;failed&#45;&gt;error -->
<g id="edge10" class="edge transition">
<title>preparing&#45;failed&#45;&gt;error</title>
<path fill="none" stroke="black" d="M143.06,-397.45C267.8,-397.45 560.23,-397.45 665.04,-397.45"/>
<polygon fill="black" stroke="black" points="664.78,-400.95 674.78,-397.45 664.78,-393.95 664.78,-400.95"/>
<text text-anchor="start" x="205" y="-400.7" font-family="Helvetica,sans-Serif" font-size="10.00">Media Disconnect &#45; Move to error when virtual media disconnects post&#45;installation &#160;&#160;</text>
</g>
<!-- preparing&#45;for&#45;installation -->
<g id="node11" class="node state regular">
<title>preparing&#45;for&#45;installation</title>
<polygon fill="#ffffff" fill-opacity="0.003922" stroke="none" stroke-width="2" points="169,-361.57 0,-361.57 0,-325.32 169,-325.32 169,-361.57"/>
<text text-anchor="start" x="11" y="-339.17" font-family="Helvetica,sans-Serif" font-size="12.00">preparing&#45;for&#45;installation</text>
<path fill="none" stroke="black" stroke-width="2" d="M12.42,-326.32C12.42,-326.32 156.58,-326.32 156.58,-326.32 162.29,-326.32 168,-332.03 168,-337.74 168,-337.74 168,-349.16 168,-349.16 168,-354.87 162.29,-360.57 156.58,-360.57 156.58,-360.57 12.42,-360.57 12.42,-360.57 6.71,-360.57 1,-354.87 1,-349.16 1,-349.16 1,-337.74 1,-337.74 1,-332.03 6.71,-326.32 12.42,-326.32"/>
</g>
<!-- preparing&#45;for&#45;installation&#45;&gt;error -->
<g id="edge11" class="edge transition">
<title>preparing&#45;for&#45;installation&#45;&gt;error</title>
<path fill="none" stroke="black" d="M168.93,-344.57C277.13,-347.07 471.44,-355.06 635.5,-380.7 645.31,-382.23 655.78,-384.5 665.48,-386.87"/>
<polygon fill="black" stroke="black" points="664.41,-390.21 674.97,-389.3 666.15,-383.43 664.41,-390.21"/>
<text text-anchor="start" x="205" y="-383.95" font-family="Helvetica,sans-Serif" font-size="10.00">Media Disconnect &#45; Move to error when virtual media disconnects post&#45;installation &#160;&#160;</text>
</g>
<!-- preparing&#45;successful -->
<g id="node12" class="node state regular">
<title>preparing&#45;successful</title>
<polygon fill="#ffffff" fill-opacity="0.003922" stroke="none" stroke-width="2" points="157.38,-307.57 11.62,-307.57 11.62,-271.32 157.38,-271.32 157.38,-307.57"/>
<text text-anchor="start" x="22.62" y="-285.17" font-family="Helvetica,sans-Serif" font-size="12.00">preparing&#45;successful</text>
<path fill="none" stroke="black" stroke-width="2" d="M24.04,-272.32C24.04,-272.32 144.96,-272.32 144.96,-272.32 150.67,-272.32 156.38,-278.03 156.38,-283.74 156.38,-283.74 156.38,-295.16 156.38,-295.16 156.38,-300.87 150.67,-306.57 144.96,-306.57 144.96,-306.57 24.04,-306.57 24.04,-306.57 18.33,-306.57 12.62,-300.87 12.62,-295.16 12.62,-295.16 12.62,-283.74 12.62,-283.74 12.62,-278.03 18.33,-272.32 24.04,-272.32"/>
</g>
<!-- preparing&#45;successful&#45;&gt;error -->
<g id="edge12" class="edge transition">
<title>preparing&#45;successful&#45;&gt;error</title>
<path fill="none" stroke="black" d="M157.14,-279.11C266.04,-266.69 477.28,-255.76 635.5,-328.7 655.29,-337.82 672.45,-355.41 684.55,-370.51"/>
<polygon fill="black" stroke="black" points="681.64,-372.47 690.49,-378.3 687.21,-368.22 681.64,-372.47"/>
<text text-anchor="start" x="205" y="-331.95" font-family="Helvetica,sans-Serif" font-size="10.00">Media Disconnect &#45; Move to error when virtual media disconnects post&#45;installation &#160;&#160;</text>
</g>
</g>
</svg>
