<?xml version="1.0" encoding="UTF-8" standalone="no"?>
<!DOCTYPE svg PUBLIC "-//W3C//DTD SVG 1.1//EN"
 "http://www.w3.org/Graphics/SVG/1.1/DTD/svg11.dtd">
<!-- Generated by graphviz version 7.1.0 (0)
 -->
<!-- Title: state transitions Pages: 1 -->
<svg width="843pt" height="536pt"
 viewBox="0.00 0.00 843.00 536.00" xmlns="http://www.w3.org/2000/svg" xmlns:xlink="http://www.w3.org/1999/xlink">
<g id="graph0" class="graph" transform="scale(1 1) rotate(0) translate(4 532)">
<title>state transitions</title>
<polygon fill="white" stroke="none" points="-4,4 -4,-532 839,-532 839,4 -4,4"/>
<!-- binding -->
<g id="node1" class="node state regular">
<title>binding</title>
<polygon fill="#ffffff" fill-opacity="0.003922" stroke="none" stroke-width="2" points="107,-252 45,-252 45,-216 107,-216 107,-252"/>
<text text-anchor="start" x="56" y="-230.4" font-family="Helvetica,sans-Serif" font-size="12.00">binding</text>
<path fill="none" stroke="black" stroke-width="2" d="M57,-217.5C57,-217.5 95,-217.5 95,-217.5 100.5,-217.5 106,-223 106,-228.5 106,-228.5 106,-239.5 106,-239.5 106,-245 100.5,-250.5 95,-250.5 95,-250.5 57,-250.5 57,-250.5 51.5,-250.5 46,-245 46,-239.5 46,-239.5 46,-228.5 46,-228.5 46,-223 51.5,-217.5 57,-217.5"/>
</g>
<!-- disconnected -->
<g id="node2" class="node state regular">
<title>disconnected</title>
<polygon fill="#ffffff" fill-opacity="0.003922" stroke="none" stroke-width="2" points="682,-144 588,-144 588,-108 682,-108 682,-144"/>
<text text-anchor="start" x="599" y="-122.4" font-family="Helvetica,sans-Serif" font-size="12.00">disconnected</text>
<path fill="none" stroke="black" stroke-width="2" d="M600,-109.5C600,-109.5 670,-109.5 670,-109.5 675.5,-109.5 681,-115 681,-120.5 681,-120.5 681,-131.5 681,-131.5 681,-137 675.5,-142.5 670,-142.5 670,-142.5 600,-142.5 600,-142.5 594.5,-142.5 589,-137 589,-131.5 589,-131.5 589,-120.5 589,-120.5 589,-115 594.5,-109.5 600,-109.5"/>
</g>
<!-- binding&#45;&gt;disconnected -->
<g id="edge6" class="edge transition">
<title>binding&#45;&gt;disconnected</title>
<path fill="none" stroke="black" d="M106.88,-238.24C186.61,-248.16 409.29,-266.67 570,-191 588.1,-182.48 603.92,-166.54 615.31,-152.58"/>
<polygon fill="black" stroke="black" points="617.83,-155.03 621.2,-144.98 612.3,-150.74 617.83,-155.03"/>
<text text-anchor="start" x="170" y="-250" font-family="Helvetica,sans-Serif" font-size="10.00">Media Disconnect &#45; Move to disconnected when virtual media disconnects pre&#45;installation &#160;&#160;</text>
</g>
<!-- disconnected&#45;&gt;disconnected -->
<g id="edge5" class="edge transition">
<title>disconnected&#45;&gt;disconnected</title>
<path fill="none" stroke="black" d="M588.04,-143.04C578.46,-152.86 594.11,-162 635,-162 658.64,-162 673.84,-158.94 680.61,-154.47"/>
<polygon fill="black" stroke="black" points="684.09,-154.88 681.78,-144.54 677.14,-154.06 684.09,-154.88"/>
<text text-anchor="start" x="435" y="-165" font-family="Helvetica,sans-Serif" font-size="10.00">Media Disconnect &#45; Move to disconnected when virtual media disconnects pre&#45;installation &#160;&#160;</text>
</g>
<!-- discovering -->
<g id="node3" class="node state regular">
<title>discovering</title>
<polygon fill="#ffffff" fill-opacity="0.003922" stroke="none" stroke-width="2" points="118,-198 34,-198 34,-162 118,-162 118,-198"/>
<text text-anchor="start" x="45" y="-176.4" font-family="Helvetica,sans-Serif" font-size="12.00">discovering</text>
<path fill="none" stroke="black" stroke-width="2" d="M46,-163.5C46,-163.5 106,-163.5 106,-163.5 111.5,-163.5 117,-169 117,-174.5 117,-174.5 117,-185.5 117,-185.5 117,-191 111.5,-196.5 106,-196.5 106,-196.5 46,-196.5 46,-196.5 40.5,-196.5 35,-191 35,-185.5 35,-185.5 35,-174.5 35,-174.5 35,-169 40.5,-163.5 46,-163.5"/>
</g>
<!-- discovering&#45;&gt;disconnected -->
<g id="edge1" class="edge transition">
<title>discovering&#45;&gt;disconnected</title>
<path fill="none" stroke="black" d="M117.82,-178.86C202.56,-176.03 403.51,-166.94 570,-141 572.29,-140.64 574.62,-140.25 576.97,-139.82"/>
<polygon fill="black" stroke="black" points="577.4,-143.31 586.53,-137.95 576.05,-136.44 577.4,-143.31"/>
<text text-anchor="start" x="170" y="-179" font-family="Helvetica,sans-Serif" font-size="10.00">Media Disconnect &#45; Move to disconnected when virtual media disconnects pre&#45;installation &#160;&#160;</text>
</g>
<!-- error -->
<g id="node4" class="node state regular">
<title>error</title>
<polygon fill="#ffffff" fill-opacity="0.003922" stroke="none" stroke-width="2" points="663,-414 607,-414 607,-378 663,-378 663,-414"/>
<text text-anchor="start" x="622.5" y="-392.4" font-family="Helvetica,sans-Serif" font-size="12.00">error</text>
<path fill="none" stroke="black" stroke-width="2" d="M619,-379.5C619,-379.5 651,-379.5 651,-379.5 656.5,-379.5 662,-385 662,-390.5 662,-390.5 662,-401.5 662,-401.5 662,-407 656.5,-412.5 651,-412.5 651,-412.5 619,-412.5 619,-412.5 613.5,-412.5 608,-407 608,-401.5 608,-401.5 608,-390.5 608,-390.5 608,-385 613.5,-379.5 619,-379.5"/>
</g>
<!-- error&#45;&gt;error -->
<g id="edge12" class="edge transition">
<title>error&#45;&gt;error</title>
<path fill="none" stroke="black" d="M607.22,-402.89C570.62,-415.39 579.88,-432 635,-432 684.09,-432 696.81,-418.82 673.14,-407.11"/>
<polygon fill="black" stroke="black" points="674.76,-403.99 664.18,-403.46 672.12,-410.48 674.76,-403.99"/>
<text text-anchor="start" x="452" y="-435" font-family="Helvetica,sans-Serif" font-size="10.00">Media Disconnect &#45; Move to error when virtual media disconnects post&#45;installation &#160;&#160;</text>
</g>
<!-- installing -->
<g id="node5" class="node state regular">
<title>installing</title>
<polygon fill="#ffffff" fill-opacity="0.003922" stroke="none" stroke-width="2" points="111.5,-522 40.5,-522 40.5,-486 111.5,-486 111.5,-522"/>
<text text-anchor="start" x="52" y="-500.4" font-family="Helvetica,sans-Serif" font-size="12.00">installing</text>
<path fill="none" stroke="black" stroke-width="2" d="M52.5,-487.5C52.5,-487.5 99.5,-487.5 99.5,-487.5 105,-487.5 110.5,-493 110.5,-498.5 110.5,-498.5 110.5,-509.5 110.5,-509.5 110.5,-515 105,-520.5 99.5,-520.5 99.5,-520.5 52.5,-520.5 52.5,-520.5 47,-520.5 41.5,-515 41.5,-509.5 41.5,-509.5 41.5,-498.5 41.5,-498.5 41.5,-493 47,-487.5 52.5,-487.5"/>
</g>
<!-- installing&#45;&gt;error -->
<g id="edge10" class="edge transition">
<title>installing&#45;&gt;error</title>
<path fill="none" stroke="black" d="M111.35,-508.79C194.67,-518.8 412.21,-535.3 570,-461 588.1,-452.48 603.92,-436.54 615.31,-422.58"/>
<polygon fill="black" stroke="black" points="617.83,-425.03 621.2,-414.98 612.3,-420.74 617.83,-425.03"/>
<text text-anchor="start" x="187" y="-520" font-family="Helvetica,sans-Serif" font-size="10.00">Media Disconnect &#45; Move to error when virtual media disconnects post&#45;installation &#160;&#160;</text>
</g>
<!-- installing&#45;in&#45;progress -->
<g id="node6" class="node state regular">
<title>installing&#45;in&#45;progress</title>
<polygon fill="#ffffff" fill-opacity="0.003922" stroke="none" stroke-width="2" points="143,-468 9,-468 9,-432 143,-432 143,-468"/>
<text text-anchor="start" x="20" y="-446.4" font-family="Helvetica,sans-Serif" font-size="12.00">installing&#45;in&#45;progress</text>
<path fill="none" stroke="black" stroke-width="2" d="M21,-433.5C21,-433.5 131,-433.5 131,-433.5 136.5,-433.5 142,-439 142,-444.5 142,-444.5 142,-455.5 142,-455.5 142,-461 136.5,-466.5 131,-466.5 131,-466.5 21,-466.5 21,-466.5 15.5,-466.5 10,-461 10,-455.5 10,-455.5 10,-444.5 10,-444.5 10,-439 15.5,-433.5 21,-433.5"/>
</g>
<!-- installing&#45;in&#45;progress&#45;&gt;error -->
<g id="edge11" class="edge transition">
<title>installing&#45;in&#45;progress&#45;&gt;error</title>
<path fill="none" stroke="black" d="M142.76,-447.96C237.62,-444.3 418.15,-434.66 570,-411 578.45,-409.68 587.44,-407.85 595.92,-405.92"/>
<polygon fill="black" stroke="black" points="596.7,-409.33 605.61,-403.61 595.07,-402.52 596.7,-409.33"/>
<text text-anchor="start" x="187" y="-449" font-family="Helvetica,sans-Serif" font-size="10.00">Media Disconnect &#45; Move to error when virtual media disconnects post&#45;installation &#160;&#160;</text>
</g>
<!-- insufficient -->
<g id="node7" class="node state regular">
<title>insufficient</title>
<polygon fill="#ffffff" fill-opacity="0.003922" stroke="none" stroke-width="2" points="116,-144 36,-144 36,-108 116,-108 116,-144"/>
<text text-anchor="start" x="47" y="-122.4" font-family="Helvetica,sans-Serif" font-size="12.00">insufficient</text>
<path fill="none" stroke="black" stroke-width="2" d="M48,-109.5C48,-109.5 104,-109.5 104,-109.5 109.5,-109.5 115,-115 115,-120.5 115,-120.5 115,-131.5 115,-131.5 115,-137 109.5,-142.5 104,-142.5 104,-142.5 48,-142.5 48,-142.5 42.5,-142.5 37,-137 37,-131.5 37,-131.5 37,-120.5 37,-120.5 37,-115 42.5,-109.5 48,-109.5"/>
</g>
<!-- insufficient&#45;&gt;disconnected -->
<g id="edge2" class="edge transition">
<title>insufficient&#45;&gt;disconnected</title>
<path fill="none" stroke="black" d="M115.72,-126C212.21,-126 463.66,-126 577.07,-126"/>
<polygon fill="black" stroke="black" points="576.74,-129.5 586.74,-126 576.74,-122.5 576.74,-129.5"/>
<text text-anchor="start" x="170" y="-129" font-family="Helvetica,sans-Serif" font-size="10.00">Media Disconnect &#45; Move to disconnected when virtual media disconnects pre&#45;installation &#160;&#160;</text>
</g>
<!-- known -->
<g id="node8" class="node state regular">
<title>known</title>
<polygon fill="#ffffff" fill-opacity="0.003922" stroke="none" stroke-width="2" points="105,-90 47,-90 47,-54 105,-54 105,-90"/>
<text text-anchor="start" x="58" y="-68.4" font-family="Helvetica,sans-Serif" font-size="12.00">known</text>
<path fill="none" stroke="black" stroke-width="2" d="M59,-55.5C59,-55.5 93,-55.5 93,-55.5 98.5,-55.5 104,-61 104,-66.5 104,-66.5 104,-77.5 104,-77.5 104,-83 98.5,-88.5 93,-88.5 93,-88.5 59,-88.5 59,-88.5 53.5,-88.5 48,-83 48,-77.5 48,-77.5 48,-66.5 48,-66.5 48,-61 53.5,-55.5 59,-55.5"/>
</g>
<!-- known&#45;&gt;disconnected -->
<g id="edge3" class="edge transition">
<title>known&#45;&gt;disconnected</title>
<path fill="none" stroke="black" d="M104.97,-72.73C180.44,-75.03 394.39,-83.64 570,-111 572.29,-111.36 574.62,-111.75 576.97,-112.18"/>
<polygon fill="black" stroke="black" points="576.05,-115.56 586.53,-114.05 577.4,-108.69 576.05,-115.56"/>
<text text-anchor="start" x="170" y="-114" font-family="Helvetica,sans-Serif" font-size="10.00">Media Disconnect &#45; Move to disconnected when virtual media disconnects pre&#45;installation &#160;&#160;</text>
</g>
<!-- pending&#45;for&#45;input -->
<g id="node9" class="node state regular">
<title>pending&#45;for&#45;input</title>
<polygon fill="#ffffff" fill-opacity="0.003922" stroke="none" stroke-width="2" points="132.5,-36 19.5,-36 19.5,0 132.5,0 132.5,-36"/>
<text text-anchor="start" x="31" y="-14.4" font-family="Helvetica,sans-Serif" font-size="12.00">pending&#45;for&#45;input</text>
<path fill="none" stroke="black" stroke-width="2" d="M31.5,-1.5C31.5,-1.5 120.5,-1.5 120.5,-1.5 126,-1.5 131.5,-7 131.5,-12.5 131.5,-12.5 131.5,-23.5 131.5,-23.5 131.5,-29 126,-34.5 120.5,-34.5 120.5,-34.5 31.5,-34.5 31.5,-34.5 26,-34.5 20.5,-29 20.5,-23.5 20.5,-23.5 20.5,-12.5 20.5,-12.5 20.5,-7 26,-1.5 31.5,-1.5"/>
</g>
<!-- pending&#45;for&#45;input&#45;&gt;disconnected -->
<g id="edge4" class="edge transition">
<title>pending&#45;for&#45;input&#45;&gt;disconnected</title>
<path fill="none" stroke="black" d="M132.32,-10.89C227.01,-1.23 424.06,7.72 570,-61 588.1,-69.52 603.92,-85.46 615.31,-99.42"/>
<polygon fill="black" stroke="black" points="612.3,-101.26 621.2,-107.02 617.83,-96.97 612.3,-101.26"/>
<text text-anchor="start" x="170" y="-64" font-family="Helvetica,sans-Serif" font-size="10.00">Media Disconnect &#45; Move to disconnected when virtual media disconnects pre&#45;installation &#160;&#160;</text>
</g>
<!-- preparing&#45;failed -->
<g id="node10" class="node state regular">
<title>preparing&#45;failed</title>
<polygon fill="#ffffff" fill-opacity="0.003922" stroke="none" stroke-width="2" points="129.5,-414 22.5,-414 22.5,-378 129.5,-378 129.5,-414"/>
<text text-anchor="start" x="34" y="-392.4" font-family="Helvetica,sans-Serif" font-size="12.00">preparing&#45;failed</text>
<path fill="none" stroke="black" stroke-width="2" d="M34.5,-379.5C34.5,-379.5 117.5,-379.5 117.5,-379.5 123,-379.5 128.5,-385 128.5,-390.5 128.5,-390.5 128.5,-401.5 128.5,-401.5 128.5,-407 123,-412.5 117.5,-412.5 117.5,-412.5 34.5,-412.5 34.5,-412.5 29,-412.5 23.5,-407 23.5,-401.5 23.5,-401.5 23.5,-390.5 23.5,-390.5 23.5,-385 29,-379.5 34.5,-379.5"/>
</g>
<!-- preparing&#45;failed&#45;&gt;error -->
<g id="edge8" class="edge transition">
<title>preparing&#45;failed&#45;&gt;error</title>
<path fill="none" stroke="black" d="M129.4,-396C240.67,-396 498.3,-396 595.74,-396"/>
<polygon fill="black" stroke="black" points="595.56,-399.5 605.56,-396 595.56,-392.5 595.56,-399.5"/>
<text text-anchor="start" x="187" y="-399" font-family="Helvetica,sans-Serif" font-size="10.00">Media Disconnect &#45; Move to error when virtual media disconnects post&#45;installation &#160;&#160;</text>
</g>
<!-- preparing&#45;for&#45;installation -->
<g id="node11" class="node state regular">
<title>preparing&#45;for&#45;installation</title>
<polygon fill="#ffffff" fill-opacity="0.003922" stroke="none" stroke-width="2" points="152,-360 0,-360 0,-324 152,-324 152,-360"/>
<text text-anchor="start" x="11" y="-338.4" font-family="Helvetica,sans-Serif" font-size="12.00">preparing&#45;for&#45;installation</text>
<path fill="none" stroke="black" stroke-width="2" d="M12,-325.5C12,-325.5 140,-325.5 140,-325.5 145.5,-325.5 151,-331 151,-336.5 151,-336.5 151,-347.5 151,-347.5 151,-353 145.5,-358.5 140,-358.5 140,-358.5 12,-358.5 12,-358.5 6.5,-358.5 1,-353 1,-347.5 1,-347.5 1,-336.5 1,-336.5 1,-331 6.5,-325.5 12,-325.5"/>
</g>
<!-- preparing&#45;for&#45;installation&#45;&gt;error -->
<g id="edge7" class="edge transition">
<title>preparing&#45;for&#45;installation&#45;&gt;error</title>
<path fill="none" stroke="black" d="M151.74,-344.39C248.69,-348.3 422.81,-358.06 570,-381 578.45,-382.32 587.44,-384.15 595.92,-386.08"/>
<polygon fill="black" stroke="black" points="595.07,-389.48 605.61,-388.39 596.7,-382.67 595.07,-389.48"/>
<text text-anchor="start" x="187" y="-384" font-family="Helvetica,sans-Serif" font-size="10.00">Media Disconnect &#45; Move to error when virtual media disconnects post&#45;installation &#160;&#160;</text>
</g>
<!-- preparing&#45;successful -->
<g id="node12" class="node state regular">
<title>preparing&#45;successful</title>
<polygon fill="#ffffff" fill-opacity="0.003922" stroke="none" stroke-width="2" points="143,-306 9,-306 9,-270 143,-270 143,-306"/>
<text text-anchor="start" x="20" y="-284.4" font-family="Helvetica,sans-Serif" font-size="12.00">preparing&#45;successful</text>
<path fill="none" stroke="black" stroke-width="2" d="M21,-271.5C21,-271.5 131,-271.5 131,-271.5 136.5,-271.5 142,-277 142,-282.5 142,-282.5 142,-293.5 142,-293.5 142,-299 136.5,-304.5 131,-304.5 131,-304.5 21,-304.5 21,-304.5 15.5,-304.5 10,-299 10,-293.5 10,-293.5 10,-282.5 10,-282.5 10,-277 15.5,-271.5 21,-271.5"/>
</g>
<!-- preparing&#45;successful&#45;&gt;error -->
<g id="edge9" class="edge transition">
<title>preparing&#45;successful&#45;&gt;error</title>
<path fill="none" stroke="black" d="M142.98,-279.55C241.24,-269.96 429.52,-263.37 570,-330 588.34,-338.7 604.25,-355.04 615.62,-369.28"/>
<polygon fill="black" stroke="black" points="612.66,-371.18 621.5,-377.03 618.24,-366.95 612.66,-371.18"/>
<text text-anchor="start" x="187" y="-333" font-family="Helvetica,sans-Serif" font-size="10.00">Media Disconnect &#45; Move to error when virtual media disconnects post&#45;installation &#160;&#160;</text>
</g>
</g>
</svg>
