<?xml version="1.0" encoding="UTF-8" standalone="no"?>
<!DOCTYPE svg PUBLIC "-//W3C//DTD SVG 1.1//EN"
 "http://www.w3.org/Graphics/SVG/1.1/DTD/svg11.dtd">
<!-- Generated by graphviz version 12.1.0 (20240811.2233)
 -->
<!-- Title: state transitions Pages: 1 -->
<svg width="858pt" height="808pt"
 viewBox="0.00 0.00 857.75 808.11" xmlns="http://www.w3.org/2000/svg" xmlns:xlink="http://www.w3.org/1999/xlink">
<g id="graph0" class="graph" transform="scale(1 1) rotate(0) translate(4 804.11)">
<title>state transitions</title>
<polygon fill="white" stroke="none" points="-4,4 -4,-804.11 853.75,-804.11 853.75,4 -4,4"/>
<!-- added&#45;to&#45;existing&#45;cluster -->
<g id="node1" class="node state regular">
<title>added&#45;to&#45;existing&#45;cluster</title>
<polygon fill="#ffffff" fill-opacity="0.003922" stroke="none" stroke-width="2" points="184.75,-772.91 13.5,-772.91 13.5,-736.66 184.75,-736.66 184.75,-772.91"/>
<text text-anchor="start" x="24.5" y="-750.51" font-family="Helvetica,sans-Serif" font-size="12.00">added&#45;to&#45;existing&#45;cluster</text>
<path fill="none" stroke="black" stroke-width="2" d="M25.92,-737.66C25.92,-737.66 172.33,-737.66 172.33,-737.66 178.04,-737.66 183.75,-743.37 183.75,-749.08 183.75,-749.08 183.75,-760.5 183.75,-760.5 183.75,-766.2 178.04,-771.91 172.33,-771.91 172.33,-771.91 25.92,-771.91 25.92,-771.91 20.21,-771.91 14.5,-766.2 14.5,-760.5 14.5,-760.5 14.5,-749.08 14.5,-749.08 14.5,-743.37 20.21,-737.66 25.92,-737.66"/>
</g>
<!-- resetting&#45;pending&#45;user&#45;action -->
<g id="node2" class="node state regular">
<title>resetting&#45;pending&#45;user&#45;action</title>
<polygon fill="#ffffff" fill-opacity="0.003922" stroke="none" stroke-width="2" points="776.75,-421.91 578.5,-421.91 578.5,-385.66 776.75,-385.66 776.75,-421.91"/>
<text text-anchor="start" x="589.5" y="-399.51" font-family="Helvetica,sans-Serif" font-size="12.00">resetting&#45;pending&#45;user&#45;action</text>
<path fill="none" stroke="black" stroke-width="2" d="M590.92,-386.66C590.92,-386.66 764.33,-386.66 764.33,-386.66 770.04,-386.66 775.75,-392.37 775.75,-398.08 775.75,-398.08 775.75,-409.5 775.75,-409.5 775.75,-415.2 770.04,-420.91 764.33,-420.91 764.33,-420.91 590.92,-420.91 590.92,-420.91 585.21,-420.91 579.5,-415.2 579.5,-409.5 579.5,-409.5 579.5,-398.08 579.5,-398.08 579.5,-392.37 585.21,-386.66 590.92,-386.66"/>
</g>
<!-- added&#45;to&#45;existing&#45;cluster&#45;&gt;resetting&#45;pending&#45;user&#45;action -->
<g id="edge1" class="edge transition">
<title>added&#45;to&#45;existing&#45;cluster&#45;&gt;resetting&#45;pending&#45;user&#45;action</title>
<path fill="none" stroke="black" d="M177.29,-772.86C276.48,-791.3 449.14,-806.66 560.5,-722.79 654.48,-652 672.5,-497.63 675.88,-433.08"/>
<polygon fill="black" stroke="black" points="679.37,-433.42 676.31,-423.28 672.38,-433.12 679.37,-433.42"/>
<text text-anchor="start" x="216.25" y="-790.61" font-family="Helvetica,sans-Serif" font-size="10.00">Resetting, Pending User Action &#45; Reset pending user action all states &#160;&#160;</text>
</g>
<!-- resetting&#45;pending&#45;user&#45;action&#45;&gt;resetting&#45;pending&#45;user&#45;action -->
<g id="edge15" class="edge transition">
<title>resetting&#45;pending&#45;user&#45;action&#45;&gt;resetting&#45;pending&#45;user&#45;action</title>
<path fill="none" stroke="black" d="M625.63,-421.63C616.79,-431.2 634.12,-439.91 677.62,-439.91 702.77,-439.91 719.18,-437 726.83,-432.69"/>
<polygon fill="black" stroke="black" points="730.2,-433.65 729.25,-423.1 723.41,-431.94 730.2,-433.65"/>
<text text-anchor="start" x="505.5" y="-443.16" font-family="Helvetica,sans-Serif" font-size="10.00">Resetting, Pending User Action &#45; Reset pending user action all states &#160;&#160;</text>
</g>
<!-- cancelled -->
<g id="node3" class="node state regular">
<title>cancelled</title>
<polygon fill="#ffffff" fill-opacity="0.003922" stroke="none" stroke-width="2" points="138.62,-718.91 59.62,-718.91 59.62,-682.66 138.62,-682.66 138.62,-718.91"/>
<text text-anchor="start" x="70.62" y="-696.51" font-family="Helvetica,sans-Serif" font-size="12.00">cancelled</text>
<path fill="none" stroke="black" stroke-width="2" d="M72.04,-683.66C72.04,-683.66 126.21,-683.66 126.21,-683.66 131.92,-683.66 137.62,-689.37 137.62,-695.08 137.62,-695.08 137.62,-706.5 137.62,-706.5 137.62,-712.2 131.92,-717.91 126.21,-717.91 126.21,-717.91 72.04,-717.91 72.04,-717.91 66.33,-717.91 60.62,-712.2 60.62,-706.5 60.62,-706.5 60.62,-695.08 60.62,-695.08 60.62,-689.37 66.33,-683.66 72.04,-683.66"/>
</g>
<!-- cancelled&#45;&gt;resetting&#45;pending&#45;user&#45;action -->
<g id="edge2" class="edge transition">
<title>cancelled&#45;&gt;resetting&#45;pending&#45;user&#45;action</title>
<path fill="none" stroke="black" d="M138.59,-702.96C236.67,-707.75 493.12,-715.28 560.5,-667.79 639.81,-611.89 665.59,-489.35 673.43,-433.08"/>
<polygon fill="black" stroke="black" points="676.89,-433.69 674.69,-423.32 669.94,-432.79 676.89,-433.69"/>
<text text-anchor="start" x="216.25" y="-709.77" font-family="Helvetica,sans-Serif" font-size="10.00">Resetting, Pending User Action &#45; Reset pending user action all states &#160;&#160;</text>
</g>
<!-- discovering -->
<g id="node4" class="node state regular">
<title>discovering</title>
<polygon fill="#ffffff" fill-opacity="0.003922" stroke="none" stroke-width="2" points="144.25,-664.91 54,-664.91 54,-628.66 144.25,-628.66 144.25,-664.91"/>
<text text-anchor="start" x="65" y="-642.51" font-family="Helvetica,sans-Serif" font-size="12.00">discovering</text>
<path fill="none" stroke="black" stroke-width="2" d="M66.42,-629.66C66.42,-629.66 131.83,-629.66 131.83,-629.66 137.54,-629.66 143.25,-635.37 143.25,-641.08 143.25,-641.08 143.25,-652.5 143.25,-652.5 143.25,-658.2 137.54,-663.91 131.83,-663.91 131.83,-663.91 66.42,-663.91 66.42,-663.91 60.71,-663.91 55,-658.2 55,-652.5 55,-652.5 55,-641.08 55,-641.08 55,-635.37 60.71,-629.66 66.42,-629.66"/>
</g>
<!-- discovering&#45;&gt;resetting&#45;pending&#45;user&#45;action -->
<g id="edge3" class="edge transition">
<title>discovering&#45;&gt;resetting&#45;pending&#45;user&#45;action</title>
<path fill="none" stroke="black" d="M144.21,-648.83C245.7,-652.73 492.39,-657.31 560.5,-613.79 625.87,-572.01 657.59,-479.9 670.02,-432.78"/>
<polygon fill="black" stroke="black" points="673.36,-433.85 672.4,-423.3 666.57,-432.14 673.36,-433.85"/>
<text text-anchor="start" x="216.25" y="-654.46" font-family="Helvetica,sans-Serif" font-size="10.00">Resetting, Pending User Action &#45; Reset pending user action all states &#160;&#160;</text>
</g>
<!-- error -->
<g id="node5" class="node state regular">
<title>error</title>
<polygon fill="#ffffff" fill-opacity="0.003922" stroke="none" stroke-width="2" points="127.12,-610.91 71.12,-610.91 71.12,-574.66 127.12,-574.66 127.12,-610.91"/>
<text text-anchor="start" x="84.5" y="-588.51" font-family="Helvetica,sans-Serif" font-size="12.00">error</text>
<path fill="none" stroke="black" stroke-width="2" d="M83.54,-575.66C83.54,-575.66 114.71,-575.66 114.71,-575.66 120.42,-575.66 126.12,-581.37 126.12,-587.08 126.12,-587.08 126.12,-598.5 126.12,-598.5 126.12,-604.2 120.42,-609.91 114.71,-609.91 114.71,-609.91 83.54,-609.91 83.54,-609.91 77.83,-609.91 72.12,-604.2 72.12,-598.5 72.12,-598.5 72.12,-587.08 72.12,-587.08 72.12,-581.37 77.83,-575.66 83.54,-575.66"/>
</g>
<!-- error&#45;&gt;resetting&#45;pending&#45;user&#45;action -->
<g id="edge4" class="edge transition">
<title>error&#45;&gt;resetting&#45;pending&#45;user&#45;action</title>
<path fill="none" stroke="black" d="M126.87,-594.03C213.52,-597.59 485.33,-605.14 560.5,-563.79 613.6,-534.58 648.69,-469.55 665.36,-432"/>
<polygon fill="black" stroke="black" points="668.44,-433.71 669.16,-423.14 662,-430.95 668.44,-433.71"/>
<text text-anchor="start" x="216.25" y="-600.21" font-family="Helvetica,sans-Serif" font-size="10.00">Resetting, Pending User Action &#45; Reset pending user action all states &#160;&#160;</text>
</g>
<!-- installed -->
<g id="node6" class="node state regular">
<title>installed</title>
<polygon fill="#ffffff" fill-opacity="0.003922" stroke="none" stroke-width="2" points="134.88,-556.91 63.38,-556.91 63.38,-520.66 134.88,-520.66 134.88,-556.91"/>
<text text-anchor="start" x="74.38" y="-534.51" font-family="Helvetica,sans-Serif" font-size="12.00">installed</text>
<path fill="none" stroke="black" stroke-width="2" d="M75.79,-521.66C75.79,-521.66 122.46,-521.66 122.46,-521.66 128.17,-521.66 133.88,-527.37 133.88,-533.08 133.88,-533.08 133.88,-544.5 133.88,-544.5 133.88,-550.2 128.17,-555.91 122.46,-555.91 122.46,-555.91 75.79,-555.91 75.79,-555.91 70.08,-555.91 64.38,-550.2 64.38,-544.5 64.38,-544.5 64.38,-533.08 64.38,-533.08 64.38,-527.37 70.08,-521.66 75.79,-521.66"/>
</g>
<!-- installed&#45;&gt;resetting&#45;pending&#45;user&#45;action -->
<g id="edge5" class="edge transition">
<title>installed&#45;&gt;resetting&#45;pending&#45;user&#45;action</title>
<path fill="none" stroke="black" d="M134.63,-542.36C213.44,-549.11 411.37,-558.16 560.5,-497.79 597.38,-482.86 631.76,-452.07 653.39,-429.79"/>
<polygon fill="black" stroke="black" points="655.66,-432.48 660,-422.81 650.58,-427.67 655.66,-432.48"/>
<text text-anchor="start" x="216.25" y="-550.47" font-family="Helvetica,sans-Serif" font-size="10.00">Resetting, Pending User Action &#45; Reset pending user action all states &#160;&#160;</text>
</g>
<!-- installing -->
<g id="node7" class="node state regular">
<title>installing</title>
<polygon fill="#ffffff" fill-opacity="0.003922" stroke="none" stroke-width="2" points="136.38,-502.91 61.88,-502.91 61.88,-466.66 136.38,-466.66 136.38,-502.91"/>
<text text-anchor="start" x="72.88" y="-480.51" font-family="Helvetica,sans-Serif" font-size="12.00">installing</text>
<path fill="none" stroke="black" stroke-width="2" d="M74.29,-467.66C74.29,-467.66 123.96,-467.66 123.96,-467.66 129.67,-467.66 135.38,-473.37 135.38,-479.08 135.38,-479.08 135.38,-490.5 135.38,-490.5 135.38,-496.2 129.67,-501.91 123.96,-501.91 123.96,-501.91 74.29,-501.91 74.29,-501.91 68.58,-501.91 62.88,-496.2 62.88,-490.5 62.88,-490.5 62.88,-479.08 62.88,-479.08 62.88,-473.37 68.58,-467.66 74.29,-467.66"/>
</g>
<!-- installing&#45;&gt;resetting&#45;pending&#45;user&#45;action -->
<g id="edge6" class="edge transition">
<title>installing&#45;&gt;resetting&#45;pending&#45;user&#45;action</title>
<path fill="none" stroke="black" d="M136.35,-484.14C214.58,-482.15 404.88,-474.1 560.5,-441.79 579.77,-437.79 600.32,-431.7 618.7,-425.56"/>
<polygon fill="black" stroke="black" points="619.77,-428.89 628.1,-422.34 617.51,-422.26 619.77,-428.89"/>
<text text-anchor="start" x="216.25" y="-483.98" font-family="Helvetica,sans-Serif" font-size="10.00">Resetting, Pending User Action &#45; Reset pending user action all states &#160;&#160;</text>
</g>
<!-- installing&#45;in&#45;progress -->
<g id="node8" class="node state regular">
<title>installing&#45;in&#45;progress</title>
<polygon fill="#ffffff" fill-opacity="0.003922" stroke="none" stroke-width="2" points="171.62,-448.91 26.62,-448.91 26.62,-412.66 171.62,-412.66 171.62,-448.91"/>
<text text-anchor="start" x="37.62" y="-426.51" font-family="Helvetica,sans-Serif" font-size="12.00">installing&#45;in&#45;progress</text>
<path fill="none" stroke="black" stroke-width="2" d="M39.04,-413.66C39.04,-413.66 159.21,-413.66 159.21,-413.66 164.92,-413.66 170.62,-419.37 170.62,-425.08 170.62,-425.08 170.62,-436.5 170.62,-436.5 170.62,-442.2 164.92,-447.91 159.21,-447.91 159.21,-447.91 39.04,-447.91 39.04,-447.91 33.33,-447.91 27.62,-442.2 27.62,-436.5 27.62,-436.5 27.62,-425.08 27.62,-425.08 27.62,-419.37 33.33,-413.66 39.04,-413.66"/>
</g>
<!-- installing&#45;in&#45;progress&#45;&gt;resetting&#45;pending&#45;user&#45;action -->
<g id="edge7" class="edge transition">
<title>installing&#45;in&#45;progress&#45;&gt;resetting&#45;pending&#45;user&#45;action</title>
<path fill="none" stroke="black" d="M171.39,-427.45C270.52,-422.81 450.9,-414.36 567.16,-408.91"/>
<polygon fill="black" stroke="black" points="567.22,-412.42 577.05,-408.45 566.89,-405.42 567.22,-412.42"/>
<text text-anchor="start" x="216.25" y="-428.21" font-family="Helvetica,sans-Serif" font-size="10.00">Resetting, Pending User Action &#45; Reset pending user action all states &#160;&#160;</text>
</g>
<!-- installing&#45;pending&#45;user&#45;action -->
<g id="node9" class="node state regular">
<title>installing&#45;pending&#45;user&#45;action</title>
<polygon fill="#ffffff" fill-opacity="0.003922" stroke="none" stroke-width="2" points="198.25,-394.91 0,-394.91 0,-358.66 198.25,-358.66 198.25,-394.91"/>
<text text-anchor="start" x="11" y="-372.51" font-family="Helvetica,sans-Serif" font-size="12.00">installing&#45;pending&#45;user&#45;action</text>
<path fill="none" stroke="black" stroke-width="2" d="M12.42,-359.66C12.42,-359.66 185.83,-359.66 185.83,-359.66 191.54,-359.66 197.25,-365.37 197.25,-371.08 197.25,-371.08 197.25,-382.5 197.25,-382.5 197.25,-388.2 191.54,-393.91 185.83,-393.91 185.83,-393.91 12.42,-393.91 12.42,-393.91 6.71,-393.91 1,-388.2 1,-382.5 1,-382.5 1,-371.08 1,-371.08 1,-365.37 6.71,-359.66 12.42,-359.66"/>
</g>
<!-- installing&#45;pending&#45;user&#45;action&#45;&gt;resetting&#45;pending&#45;user&#45;action -->
<g id="edge8" class="edge transition">
<title>installing&#45;pending&#45;user&#45;action&#45;&gt;resetting&#45;pending&#45;user&#45;action</title>
<path fill="none" stroke="black" d="M198.1,-378.63C291.35,-380.76 435.59,-385.06 560.5,-393.04 562.83,-393.19 565.18,-393.34 567.56,-393.51"/>
<polygon fill="black" stroke="black" points="567.03,-396.98 577.26,-394.22 567.54,-390 567.03,-396.98"/>
<text text-anchor="start" x="216.25" y="-396.29" font-family="Helvetica,sans-Serif" font-size="10.00">Resetting, Pending User Action &#45; Reset pending user action all states &#160;&#160;</text>
</g>
<!-- known -->
<g id="node10" class="node state regular">
<title>known</title>
<polygon fill="#ffffff" fill-opacity="0.003922" stroke="none" stroke-width="2" points="129.62,-340.91 68.62,-340.91 68.62,-304.66 129.62,-304.66 129.62,-340.91"/>
<text text-anchor="start" x="79.62" y="-318.51" font-family="Helvetica,sans-Serif" font-size="12.00">known</text>
<path fill="none" stroke="black" stroke-width="2" d="M81.04,-305.66C81.04,-305.66 117.21,-305.66 117.21,-305.66 122.92,-305.66 128.62,-311.37 128.62,-317.08 128.62,-317.08 128.62,-328.5 128.62,-328.5 128.62,-334.2 122.92,-339.91 117.21,-339.91 117.21,-339.91 81.04,-339.91 81.04,-339.91 75.33,-339.91 69.62,-334.2 69.62,-328.5 69.62,-328.5 69.62,-317.08 69.62,-317.08 69.62,-311.37 75.33,-305.66 81.04,-305.66"/>
</g>
<!-- known&#45;&gt;resetting&#45;pending&#45;user&#45;action -->
<g id="edge9" class="edge transition">
<title>known&#45;&gt;resetting&#45;pending&#45;user&#45;action</title>
<path fill="none" stroke="black" d="M129.6,-322.67C203.21,-322.92 400.63,-327.11 560.5,-362.04 581.78,-366.69 604.47,-374.23 624.1,-381.63"/>
<polygon fill="black" stroke="black" points="622.66,-384.83 633.25,-385.17 625.18,-378.3 622.66,-384.83"/>
<text text-anchor="start" x="216.25" y="-365.29" font-family="Helvetica,sans-Serif" font-size="10.00">Resetting, Pending User Action &#45; Reset pending user action all states &#160;&#160;</text>
</g>
<!-- pending&#45;for&#45;input -->
<g id="node11" class="node state regular">
<title>pending&#45;for&#45;input</title>
<polygon fill="#ffffff" fill-opacity="0.003922" stroke="none" stroke-width="2" points="161.88,-286.91 36.38,-286.91 36.38,-250.66 161.88,-250.66 161.88,-286.91"/>
<text text-anchor="start" x="47.38" y="-264.51" font-family="Helvetica,sans-Serif" font-size="12.00">pending&#45;for&#45;input</text>
<path fill="none" stroke="black" stroke-width="2" d="M48.79,-251.66C48.79,-251.66 149.46,-251.66 149.46,-251.66 155.17,-251.66 160.88,-257.37 160.88,-263.08 160.88,-263.08 160.88,-274.5 160.88,-274.5 160.88,-280.2 155.17,-285.91 149.46,-285.91 149.46,-285.91 48.79,-285.91 48.79,-285.91 43.08,-285.91 37.38,-280.2 37.38,-274.5 37.38,-274.5 37.38,-263.08 37.38,-263.08 37.38,-257.37 43.08,-251.66 48.79,-251.66"/>
</g>
<!-- pending&#45;for&#45;input&#45;&gt;resetting&#45;pending&#45;user&#45;action -->
<g id="edge10" class="edge transition">
<title>pending&#45;for&#45;input&#45;&gt;resetting&#45;pending&#45;user&#45;action</title>
<path fill="none" stroke="black" d="M161.65,-262.75C252.55,-256.27 426.43,-253.35 560.5,-308.04 597.83,-323.26 632.34,-354.92 653.88,-377.67"/>
<polygon fill="black" stroke="black" points="651.09,-379.81 660.45,-384.78 656.24,-375.06 651.09,-379.81"/>
<text text-anchor="start" x="216.25" y="-311.29" font-family="Helvetica,sans-Serif" font-size="10.00">Resetting, Pending User Action &#45; Reset pending user action all states &#160;&#160;</text>
</g>
<!-- preparing&#45;failed -->
<g id="node12" class="node state regular">
<title>preparing&#45;failed</title>
<polygon fill="#ffffff" fill-opacity="0.003922" stroke="none" stroke-width="2" points="157.75,-232.91 40.5,-232.91 40.5,-196.66 157.75,-196.66 157.75,-232.91"/>
<text text-anchor="start" x="51.5" y="-210.51" font-family="Helvetica,sans-Serif" font-size="12.00">preparing&#45;failed</text>
<path fill="none" stroke="black" stroke-width="2" d="M52.92,-197.66C52.92,-197.66 145.33,-197.66 145.33,-197.66 151.04,-197.66 156.75,-203.37 156.75,-209.08 156.75,-209.08 156.75,-220.5 156.75,-220.5 156.75,-226.2 151.04,-231.91 145.33,-231.91 145.33,-231.91 52.92,-231.91 52.92,-231.91 47.21,-231.91 41.5,-226.2 41.5,-220.5 41.5,-220.5 41.5,-209.08 41.5,-209.08 41.5,-203.37 47.21,-197.66 52.92,-197.66"/>
</g>
<!-- preparing&#45;failed&#45;&gt;resetting&#45;pending&#45;user&#45;action -->
<g id="edge11" class="edge transition">
<title>preparing&#45;failed&#45;&gt;resetting&#45;pending&#45;user&#45;action</title>
<path fill="none" stroke="black" d="M157.51,-203.49C249.08,-188.56 431.08,-171.79 560.5,-243.04 613.75,-272.36 648.79,-337.7 665.4,-375.43"/>
<polygon fill="black" stroke="black" points="662.06,-376.51 669.19,-384.34 668.5,-373.77 662.06,-376.51"/>
<text text-anchor="start" x="216.25" y="-246.29" font-family="Helvetica,sans-Serif" font-size="10.00">Resetting, Pending User Action &#45; Reset pending user action all states &#160;&#160;</text>
</g>
<!-- preparing&#45;for&#45;installation -->
<g id="node13" class="node state regular">
<title>preparing&#45;for&#45;installation</title>
<polygon fill="#ffffff" fill-opacity="0.003922" stroke="none" stroke-width="2" points="184,-178.91 14.25,-178.91 14.25,-142.66 184,-142.66 184,-178.91"/>
<text text-anchor="start" x="25.25" y="-156.51" font-family="Helvetica,sans-Serif" font-size="12.00">preparing&#45;for&#45;installation</text>
<path fill="none" stroke="black" stroke-width="2" d="M26.67,-143.66C26.67,-143.66 171.58,-143.66 171.58,-143.66 177.29,-143.66 183,-149.37 183,-155.08 183,-155.08 183,-166.5 183,-166.5 183,-172.2 177.29,-177.91 171.58,-177.91 171.58,-177.91 26.67,-177.91 26.67,-177.91 20.96,-177.91 15.25,-172.2 15.25,-166.5 15.25,-166.5 15.25,-155.08 15.25,-155.08 15.25,-149.37 20.96,-143.66 26.67,-143.66"/>
</g>
<!-- preparing&#45;for&#45;installation&#45;&gt;resetting&#45;pending&#45;user&#45;action -->
<g id="edge12" class="edge transition">
<title>preparing&#45;for&#45;installation&#45;&gt;resetting&#45;pending&#45;user&#45;action</title>
<path fill="none" stroke="black" d="M183.62,-153.25C299.08,-144.48 500.09,-135.67 560.5,-174.04 632.1,-219.51 661.36,-323.83 671.71,-374.75"/>
<polygon fill="black" stroke="black" points="668.24,-375.26 673.56,-384.43 675.12,-373.95 668.24,-375.26"/>
<text text-anchor="start" x="216.25" y="-177.29" font-family="Helvetica,sans-Serif" font-size="10.00">Resetting, Pending User Action &#45; Reset pending user action all states &#160;&#160;</text>
</g>
<!-- preparing&#45;successful -->
<g id="node14" class="node state regular">
<title>preparing&#45;successful</title>
<polygon fill="#ffffff" fill-opacity="0.003922" stroke="none" stroke-width="2" points="172,-124.91 26.25,-124.91 26.25,-88.66 172,-88.66 172,-124.91"/>
<text text-anchor="start" x="37.25" y="-102.51" font-family="Helvetica,sans-Serif" font-size="12.00">preparing&#45;successful</text>
<path fill="none" stroke="black" stroke-width="2" d="M38.67,-89.66C38.67,-89.66 159.58,-89.66 159.58,-89.66 165.29,-89.66 171,-95.37 171,-101.08 171,-101.08 171,-112.5 171,-112.5 171,-118.2 165.29,-123.91 159.58,-123.91 159.58,-123.91 38.67,-123.91 38.67,-123.91 32.96,-123.91 27.25,-118.2 27.25,-112.5 27.25,-112.5 27.25,-101.08 27.25,-101.08 27.25,-95.37 32.96,-89.66 38.67,-89.66"/>
</g>
<!-- preparing&#45;successful&#45;&gt;resetting&#45;pending&#45;user&#45;action -->
<g id="edge13" class="edge transition">
<title>preparing&#45;successful&#45;&gt;resetting&#45;pending&#45;user&#45;action</title>
<path fill="none" stroke="black" d="M171.42,-88.67C268.75,-68.35 444.38,-47.95 560.5,-129.04 643.34,-186.89 667.36,-316.17 674.1,-374.38"/>
<polygon fill="black" stroke="black" points="670.6,-374.59 675.13,-384.17 677.57,-373.85 670.6,-374.59"/>
<text text-anchor="start" x="216.25" y="-132.29" font-family="Helvetica,sans-Serif" font-size="10.00">Resetting, Pending User Action &#45; Reset pending user action all states &#160;&#160;</text>
</g>
<!-- resetting -->
<g id="node15" class="node state regular">
<title>resetting</title>
<polygon fill="#ffffff" fill-opacity="0.003922" stroke="none" stroke-width="2" points="136.38,-70.91 61.88,-70.91 61.88,-34.66 136.38,-34.66 136.38,-70.91"/>
<text text-anchor="start" x="72.88" y="-48.51" font-family="Helvetica,sans-Serif" font-size="12.00">resetting</text>
<path fill="none" stroke="black" stroke-width="2" d="M74.29,-35.66C74.29,-35.66 123.96,-35.66 123.96,-35.66 129.67,-35.66 135.38,-41.37 135.38,-47.08 135.38,-47.08 135.38,-58.5 135.38,-58.5 135.38,-64.2 129.67,-69.91 123.96,-69.91 123.96,-69.91 74.29,-69.91 74.29,-69.91 68.58,-69.91 62.88,-64.2 62.88,-58.5 62.88,-58.5 62.88,-47.08 62.88,-47.08 62.88,-41.37 68.58,-35.66 74.29,-35.66"/>
</g>
<!-- resetting&#45;&gt;resetting&#45;pending&#45;user&#45;action -->
<g id="edge14" class="edge transition">
<title>resetting&#45;&gt;resetting&#45;pending&#45;user&#45;action</title>
<path fill="none" stroke="black" d="M136.1,-40.1C219.73,-13.06 430.03,40.38 560.5,-54.04 665.62,-130.12 677.07,-305.18 677.28,-374.63"/>
<polygon fill="black" stroke="black" points="673.78,-374.42 677.23,-384.44 680.78,-374.46 673.78,-374.42"/>
<text text-anchor="start" x="216.25" y="-57.29" font-family="Helvetica,sans-Serif" font-size="10.00">Resetting, Pending User Action &#45; Reset pending user action all states &#160;&#160;</text>
</g>
</g>
</svg>
