<?xml version="1.0" encoding="UTF-8" standalone="no"?>
<!DOCTYPE svg PUBLIC "-//W3C//DTD SVG 1.1//EN"
 "http://www.w3.org/Graphics/SVG/1.1/DTD/svg11.dtd">
<!-- Generated by graphviz version 7.1.0 (0)
 -->
<!-- Title: state transitions Pages: 1 -->
<svg width="642pt" height="370pt"
 viewBox="0.00 0.00 642.00 370.00" xmlns="http://www.w3.org/2000/svg" xmlns:xlink="http://www.w3.org/1999/xlink">
<g id="graph0" class="graph" transform="scale(1 1) rotate(0) translate(4 366)">
<title>state transitions</title>
<polygon fill="white" stroke="none" points="-4,4 -4,-366 638,-366 638,4 -4,4"/>
<!-- cancelled -->
<g id="node1" class="node state regular">
<title>cancelled</title>
<polygon fill="#ffffff" fill-opacity="0.003922" stroke="none" stroke-width="2" points="578,-144 504,-144 504,-108 578,-108 578,-144"/>
<text text-anchor="start" x="515" y="-122.4" font-family="Helvetica,sans-Serif" font-size="12.00">cancelled</text>
<path fill="none" stroke="black" stroke-width="2" d="M516,-109.5C516,-109.5 566,-109.5 566,-109.5 571.5,-109.5 577,-115 577,-120.5 577,-120.5 577,-131.5 577,-131.5 577,-137 571.5,-142.5 566,-142.5 566,-142.5 516,-142.5 516,-142.5 510.5,-142.5 505,-137 505,-131.5 505,-131.5 505,-120.5 505,-120.5 505,-115 510.5,-109.5 516,-109.5"/>
</g>
<!-- error -->
<g id="node2" class="node state regular">
<title>error</title>
<polygon fill="#ffffff" fill-opacity="0.003922" stroke="none" stroke-width="2" points="118.5,-252 62.5,-252 62.5,-216 118.5,-216 118.5,-252"/>
<text text-anchor="start" x="78" y="-230.4" font-family="Helvetica,sans-Serif" font-size="12.00">error</text>
<path fill="none" stroke="black" stroke-width="2" d="M74.5,-217.5C74.5,-217.5 106.5,-217.5 106.5,-217.5 112,-217.5 117.5,-223 117.5,-228.5 117.5,-228.5 117.5,-239.5 117.5,-239.5 117.5,-245 112,-250.5 106.5,-250.5 106.5,-250.5 74.5,-250.5 74.5,-250.5 69,-250.5 63.5,-245 63.5,-239.5 63.5,-239.5 63.5,-228.5 63.5,-228.5 63.5,-223 69,-217.5 74.5,-217.5"/>
</g>
<!-- error&#45;&gt;cancelled -->
<g id="edge5" class="edge transition">
<title>error&#45;&gt;cancelled</title>
<path fill="none" stroke="black" d="M118.32,-237.2C184.94,-243.86 361.57,-253.6 486,-188 501.09,-180.04 513.86,-166 523.19,-153.29"/>
<polygon fill="black" stroke="black" points="525.98,-155.42 528.77,-145.2 520.21,-151.44 525.98,-155.42"/>
<text text-anchor="start" x="199" y="-244" font-family="Helvetica,sans-Serif" font-size="10.00">Cancel Installation &#45; Installation canceled while host is installing &#160;&#160;</text>
</g>
<!-- installed -->
<g id="node3" class="node state regular">
<title>installed</title>
<polygon fill="#ffffff" fill-opacity="0.003922" stroke="none" stroke-width="2" points="124.5,-198 56.5,-198 56.5,-162 124.5,-162 124.5,-198"/>
<text text-anchor="start" x="67.5" y="-176.4" font-family="Helvetica,sans-Serif" font-size="12.00">installed</text>
<path fill="none" stroke="black" stroke-width="2" d="M68.5,-163.5C68.5,-163.5 112.5,-163.5 112.5,-163.5 118,-163.5 123.5,-169 123.5,-174.5 123.5,-174.5 123.5,-185.5 123.5,-185.5 123.5,-191 118,-196.5 112.5,-196.5 112.5,-196.5 68.5,-196.5 68.5,-196.5 63,-196.5 57.5,-191 57.5,-185.5 57.5,-185.5 57.5,-174.5 57.5,-174.5 57.5,-169 63,-163.5 68.5,-163.5"/>
</g>
<!-- installed&#45;&gt;cancelled -->
<g id="edge4" class="edge transition">
<title>installed&#45;&gt;cancelled</title>
<path fill="none" stroke="black" d="M124.24,-178.67C192.19,-175.5 353.23,-165.81 486,-141 488.32,-140.57 490.68,-140.08 493.05,-139.56"/>
<polygon fill="black" stroke="black" points="493.81,-142.98 502.71,-137.23 492.17,-136.17 493.81,-142.98"/>
<text text-anchor="start" x="199" y="-176" font-family="Helvetica,sans-Serif" font-size="10.00">Cancel Installation &#45; Installation canceled while host is installing &#160;&#160;</text>
</g>
<!-- installing -->
<g id="node4" class="node state regular">
<title>installing</title>
<polygon fill="#ffffff" fill-opacity="0.003922" stroke="none" stroke-width="2" points="126,-144 55,-144 55,-108 126,-108 126,-144"/>
<text text-anchor="start" x="66.5" y="-122.4" font-family="Helvetica,sans-Serif" font-size="12.00">installing</text>
<path fill="none" stroke="black" stroke-width="2" d="M67,-109.5C67,-109.5 114,-109.5 114,-109.5 119.5,-109.5 125,-115 125,-120.5 125,-120.5 125,-131.5 125,-131.5 125,-137 119.5,-142.5 114,-142.5 114,-142.5 67,-142.5 67,-142.5 61.5,-142.5 56,-137 56,-131.5 56,-131.5 56,-120.5 56,-120.5 56,-115 61.5,-109.5 67,-109.5"/>
</g>
<!-- installing&#45;&gt;cancelled -->
<g id="edge2" class="edge transition">
<title>installing&#45;&gt;cancelled</title>
<path fill="none" stroke="black" d="M125.95,-126C205.53,-126 402.27,-126 492.9,-126"/>
<polygon fill="black" stroke="black" points="492.68,-129.5 502.68,-126 492.68,-122.5 492.68,-129.5"/>
<text text-anchor="start" x="199" y="-129" font-family="Helvetica,sans-Serif" font-size="10.00">Cancel Installation &#45; Installation canceled while host is installing &#160;&#160;</text>
</g>
<!-- installing&#45;in&#45;progress -->
<g id="node5" class="node state regular">
<title>installing&#45;in&#45;progress</title>
<polygon fill="#ffffff" fill-opacity="0.003922" stroke="none" stroke-width="2" points="157.5,-90 23.5,-90 23.5,-54 157.5,-54 157.5,-90"/>
<text text-anchor="start" x="34.5" y="-68.4" font-family="Helvetica,sans-Serif" font-size="12.00">installing&#45;in&#45;progress</text>
<path fill="none" stroke="black" stroke-width="2" d="M35.5,-55.5C35.5,-55.5 145.5,-55.5 145.5,-55.5 151,-55.5 156.5,-61 156.5,-66.5 156.5,-66.5 156.5,-77.5 156.5,-77.5 156.5,-83 151,-88.5 145.5,-88.5 145.5,-88.5 35.5,-88.5 35.5,-88.5 30,-88.5 24.5,-83 24.5,-77.5 24.5,-77.5 24.5,-66.5 24.5,-66.5 24.5,-61 30,-55.5 35.5,-55.5"/>
</g>
<!-- installing&#45;in&#45;progress&#45;&gt;cancelled -->
<g id="edge3" class="edge transition">
<title>installing&#45;in&#45;progress&#45;&gt;cancelled</title>
<path fill="none" stroke="black" d="M157.26,-75.03C235.96,-79.45 371.5,-89.6 486,-111 488.32,-111.43 490.68,-111.92 493.05,-112.44"/>
<polygon fill="black" stroke="black" points="492.17,-115.83 502.71,-114.77 493.81,-109.02 492.17,-115.83"/>
<text text-anchor="start" x="199" y="-114" font-family="Helvetica,sans-Serif" font-size="10.00">Cancel Installation &#45; Installation canceled while host is installing &#160;&#160;</text>
</g>
<!-- installing&#45;pending&#45;user&#45;action -->
<g id="node6" class="node state regular">
<title>installing&#45;pending&#45;user&#45;action</title>
<polygon fill="#ffffff" fill-opacity="0.003922" stroke="none" stroke-width="2" points="181,-36 0,-36 0,0 181,0 181,-36"/>
<text text-anchor="start" x="11.5" y="-14.4" font-family="Helvetica,sans-Serif" font-size="12.00">installing&#45;pending&#45;user&#45;action</text>
<path fill="none" stroke="black" stroke-width="2" d="M12,-1.5C12,-1.5 169,-1.5 169,-1.5 174.5,-1.5 180,-7 180,-12.5 180,-12.5 180,-23.5 180,-23.5 180,-29 174.5,-34.5 169,-34.5 169,-34.5 12,-34.5 12,-34.5 6.5,-34.5 1,-29 1,-23.5 1,-23.5 1,-12.5 1,-12.5 1,-7 6.5,-1.5 12,-1.5"/>
</g>
<!-- installing&#45;pending&#45;user&#45;action&#45;&gt;cancelled -->
<g id="edge1" class="edge transition">
<title>installing&#45;pending&#45;user&#45;action&#45;&gt;cancelled</title>
<path fill="none" stroke="black" d="M180.7,-10.64C264.36,-7.69 390.54,-13.67 486,-64 501.09,-71.96 513.86,-86 523.19,-98.71"/>
<polygon fill="black" stroke="black" points="520.21,-100.56 528.77,-106.8 525.98,-96.58 520.21,-100.56"/>
<text text-anchor="start" x="199" y="-67" font-family="Helvetica,sans-Serif" font-size="10.00">Cancel Installation &#45; Installation canceled while host is installing &#160;&#160;</text>
</g>
<!-- known -->
<g id="node7" class="node state regular">
<title>known</title>
<polygon fill="#ffffff" fill-opacity="0.003922" stroke="none" stroke-width="2" points="570,-333 512,-333 512,-297 570,-297 570,-333"/>
<text text-anchor="start" x="523" y="-311.4" font-family="Helvetica,sans-Serif" font-size="12.00">known</text>
<path fill="none" stroke="black" stroke-width="2" d="M524,-298.5C524,-298.5 558,-298.5 558,-298.5 563.5,-298.5 569,-304 569,-309.5 569,-309.5 569,-320.5 569,-320.5 569,-326 563.5,-331.5 558,-331.5 558,-331.5 524,-331.5 524,-331.5 518.5,-331.5 513,-326 513,-320.5 513,-320.5 513,-309.5 513,-309.5 513,-304 518.5,-298.5 524,-298.5"/>
</g>
<!-- known&#45;&gt;known -->
<g id="edge8" class="edge transition">
<title>known&#45;&gt;known</title>
<path fill="none" stroke="black" d="M512.23,-326.24C494.77,-337.92 504.36,-351 541,-351 569.05,-351 581.25,-343.33 577.58,-334.5"/>
<polygon fill="black" stroke="black" points="580.22,-332.19 570.81,-327.34 575.14,-337.01 580.22,-332.19"/>
<text text-anchor="start" x="448" y="-354" font-family="Helvetica,sans-Serif" font-size="10.00">Cancel Installation &#45; Cancel while known &#160;&#160;</text>
</g>
<!-- preparing&#45;for&#45;installation -->
<g id="node8" class="node state regular">
<title>preparing&#45;for&#45;installation</title>
<polygon fill="#ffffff" fill-opacity="0.003922" stroke="none" stroke-width="2" points="166.5,-360 14.5,-360 14.5,-324 166.5,-324 166.5,-360"/>
<text text-anchor="start" x="25.5" y="-338.4" font-family="Helvetica,sans-Serif" font-size="12.00">preparing&#45;for&#45;installation</text>
<path fill="none" stroke="black" stroke-width="2" d="M26.5,-325.5C26.5,-325.5 154.5,-325.5 154.5,-325.5 160,-325.5 165.5,-331 165.5,-336.5 165.5,-336.5 165.5,-347.5 165.5,-347.5 165.5,-353 160,-358.5 154.5,-358.5 154.5,-358.5 26.5,-358.5 26.5,-358.5 21,-358.5 15.5,-353 15.5,-347.5 15.5,-347.5 15.5,-336.5 15.5,-336.5 15.5,-331 21,-325.5 26.5,-325.5"/>
</g>
<!-- preparing&#45;for&#45;installation&#45;&gt;known -->
<g id="edge6" class="edge transition">
<title>preparing&#45;for&#45;installation&#45;&gt;known</title>
<path fill="none" stroke="black" d="M166.32,-337.5C262.6,-331.7 426.34,-321.84 500.92,-317.35"/>
<polygon fill="black" stroke="black" points="500.81,-320.87 510.59,-316.77 500.39,-313.88 500.81,-320.87"/>
<text text-anchor="start" x="244" y="-338" font-family="Helvetica,sans-Serif" font-size="10.00">Cancel Installation &#45; Cancel while preparing &#160;&#160;</text>
</g>
<!-- preparing&#45;successful -->
<g id="node9" class="node state regular">
<title>preparing&#45;successful</title>
<polygon fill="#ffffff" fill-opacity="0.003922" stroke="none" stroke-width="2" points="157.5,-306 23.5,-306 23.5,-270 157.5,-270 157.5,-306"/>
<text text-anchor="start" x="34.5" y="-284.4" font-family="Helvetica,sans-Serif" font-size="12.00">preparing&#45;successful</text>
<path fill="none" stroke="black" stroke-width="2" d="M35.5,-271.5C35.5,-271.5 145.5,-271.5 145.5,-271.5 151,-271.5 156.5,-277 156.5,-282.5 156.5,-282.5 156.5,-293.5 156.5,-293.5 156.5,-299 151,-304.5 145.5,-304.5 145.5,-304.5 35.5,-304.5 35.5,-304.5 30,-304.5 24.5,-299 24.5,-293.5 24.5,-293.5 24.5,-282.5 24.5,-282.5 24.5,-277 30,-271.5 35.5,-271.5"/>
</g>
<!-- preparing&#45;successful&#45;&gt;known -->
<g id="edge7" class="edge transition">
<title>preparing&#45;successful&#45;&gt;known</title>
<path fill="none" stroke="black" d="M157.42,-286.88C235.99,-286.39 371.12,-288.18 486,-303 490.96,-303.64 496.13,-304.51 501.22,-305.5"/>
<polygon fill="black" stroke="black" points="500.16,-308.86 510.66,-307.49 501.6,-302.01 500.16,-308.86"/>
<text text-anchor="start" x="244" y="-306" font-family="Helvetica,sans-Serif" font-size="10.00">Cancel Installation &#45; Cancel while preparing &#160;&#160;</text>
</g>
</g>
</svg>
