<?xml version="1.0" encoding="UTF-8" standalone="no"?>
<!DOCTYPE svg PUBLIC "-//W3C//DTD SVG 1.1//EN"
 "http://www.w3.org/Graphics/SVG/1.1/DTD/svg11.dtd">
<!-- Generated by graphviz version 5.0.0 (0)
 -->
<!-- Title: state transitions Pages: 1 -->
<svg width="502pt" height="98pt"
 viewBox="0.00 0.00 502.00 98.00" xmlns="http://www.w3.org/2000/svg" xmlns:xlink="http://www.w3.org/1999/xlink">
<g id="graph0" class="graph" transform="scale(1 1) rotate(0) translate(4 94)">
<title>state transitions</title>
<polygon fill="white" stroke="transparent" points="-4,4 -4,-94 498,-94 498,4 -4,4"/>
<!-- error -->
<g id="node1" class="node state regular">
<title>error</title>
<polygon fill="#ffffff" fill-opacity="0.003922" stroke="transparent" stroke-width="2" points="494,-63 438,-63 438,-27 494,-27 494,-63"/>
<text text-anchor="start" x="453.5" y="-41.4" font-family="Helvetica,sans-Serif" font-size="12.00">error</text>
<path fill="none" stroke="black" stroke-width="2" d="M450,-28.5C450,-28.5 482,-28.5 482,-28.5 487.5,-28.5 493,-34 493,-39.5 493,-39.5 493,-50.5 493,-50.5 493,-56 487.5,-61.5 482,-61.5 482,-61.5 450,-61.5 450,-61.5 444.5,-61.5 439,-56 439,-50.5 439,-50.5 439,-39.5 439,-39.5 439,-34 444.5,-28.5 450,-28.5"/>
</g>
<!-- installing -->
<g id="node2" class="node state regular">
<title>installing</title>
<polygon fill="#ffffff" fill-opacity="0.003922" stroke="transparent" stroke-width="2" points="102.5,-90 31.5,-90 31.5,-54 102.5,-54 102.5,-90"/>
<text text-anchor="start" x="43" y="-68.4" font-family="Helvetica,sans-Serif" font-size="12.00">installing</text>
<path fill="none" stroke="black" stroke-width="2" d="M43.5,-55.5C43.5,-55.5 90.5,-55.5 90.5,-55.5 96,-55.5 101.5,-61 101.5,-66.5 101.5,-66.5 101.5,-77.5 101.5,-77.5 101.5,-83 96,-88.5 90.5,-88.5 90.5,-88.5 43.5,-88.5 43.5,-88.5 38,-88.5 32.5,-83 32.5,-77.5 32.5,-77.5 32.5,-66.5 32.5,-66.5 32.5,-61 38,-55.5 43.5,-55.5"/>
</g>
<!-- installing&#45;&gt;error -->
<g id="edge1" class="edge transition">
<title>installing&#45;&gt;error</title>
<path fill="none" stroke="black" d="M102.54,-69.65C176.77,-64.6 350.99,-52.75 427.66,-47.54"/>
<polygon fill="black" stroke="black" points="428.08,-51.02 437.82,-46.85 427.6,-44.04 428.08,-51.02"/>
<text text-anchor="start" x="152" y="-69" font-family="Helvetica,sans-Serif" font-size="10.00">Installation Failed &#45; Installation failed while host is installing &#160;&#160;</text>
</g>
<!-- installing&#45;in&#45;progress -->
<g id="node3" class="node state regular">
<title>installing&#45;in&#45;progress</title>
<polygon fill="#ffffff" fill-opacity="0.003922" stroke="transparent" stroke-width="2" points="134,-36 0,-36 0,0 134,0 134,-36"/>
<text text-anchor="start" x="11" y="-14.4" font-family="Helvetica,sans-Serif" font-size="12.00">installing&#45;in&#45;progress</text>
<path fill="none" stroke="black" stroke-width="2" d="M12,-1.5C12,-1.5 122,-1.5 122,-1.5 127.5,-1.5 133,-7 133,-12.5 133,-12.5 133,-23.5 133,-23.5 133,-29 127.5,-34.5 122,-34.5 122,-34.5 12,-34.5 12,-34.5 6.5,-34.5 1,-29 1,-23.5 1,-23.5 1,-12.5 1,-12.5 1,-7 6.5,-1.5 12,-1.5"/>
</g>
<!-- installing&#45;in&#45;progress&#45;&gt;error -->
<g id="edge2" class="edge transition">
<title>installing&#45;in&#45;progress&#45;&gt;error</title>
<path fill="none" stroke="black" d="M134.26,-16.54C205.33,-15.97 321.29,-17.92 420,-33 422.52,-33.38 425.1,-33.86 427.69,-34.39"/>
<polygon fill="black" stroke="black" points="427.06,-37.84 437.6,-36.68 428.64,-31.02 427.06,-37.84"/>
<text text-anchor="start" x="152" y="-36" font-family="Helvetica,sans-Serif" font-size="10.00">Installation Failed &#45; Installation failed while host is installing &#160;&#160;</text>
</g>
</g>
</svg>
