<?xml version="1.0" encoding="UTF-8" standalone="no"?>
<!DOCTYPE svg PUBLIC "-//W3C//DTD SVG 1.1//EN"
 "http://www.w3.org/Graphics/SVG/1.1/DTD/svg11.dtd">
<!-- Generated by graphviz version 5.0.0 (0)
 -->
<!-- Title: state transitions Pages: 1 -->
<svg width="321pt" height="44pt"
 viewBox="0.00 0.00 321.00 44.00" xmlns="http://www.w3.org/2000/svg" xmlns:xlink="http://www.w3.org/1999/xlink">
<g id="graph0" class="graph" transform="scale(1 1) rotate(0) translate(4 40)">
<title>state transitions</title>
<polygon fill="white" stroke="transparent" points="-4,4 -4,-40 317,-40 317,4 -4,4"/>
<!-- installing -->
<g id="node1" class="node state regular">
<title>installing</title>
<polygon fill="#ffffff" fill-opacity="0.003922" stroke="transparent" stroke-width="2" points="313,-36 242,-36 242,0 313,0 313,-36"/>
<text text-anchor="start" x="253.5" y="-14.4" font-family="Helvetica,sans-Serif" font-size="12.00">installing</text>
<path fill="none" stroke="black" stroke-width="2" d="M254,-1.5C254,-1.5 301,-1.5 301,-1.5 306.5,-1.5 312,-7 312,-12.5 312,-12.5 312,-23.5 312,-23.5 312,-29 306.5,-34.5 301,-34.5 301,-34.5 254,-34.5 254,-34.5 248.5,-34.5 243,-29 243,-23.5 243,-23.5 243,-12.5 243,-12.5 243,-7 248.5,-1.5 254,-1.5"/>
</g>
<!-- known -->
<g id="node2" class="node state regular">
<title>known</title>
<polygon fill="#ffffff" fill-opacity="0.003922" stroke="transparent" stroke-width="2" points="58,-36 0,-36 0,0 58,0 58,-36"/>
<text text-anchor="start" x="11" y="-14.4" font-family="Helvetica,sans-Serif" font-size="12.00">known</text>
<path fill="none" stroke="black" stroke-width="2" d="M12,-1.5C12,-1.5 46,-1.5 46,-1.5 51.5,-1.5 57,-7 57,-12.5 57,-12.5 57,-23.5 57,-23.5 57,-29 51.5,-34.5 46,-34.5 46,-34.5 12,-34.5 12,-34.5 6.5,-34.5 1,-29 1,-23.5 1,-23.5 1,-12.5 1,-12.5 1,-7 6.5,-1.5 12,-1.5"/>
</g>
<!-- known&#45;&gt;installing -->
<g id="edge1" class="edge transition">
<title>known&#45;&gt;installing</title>
<path fill="none" stroke="black" d="M58.28,-18C100.66,-18 181.07,-18 231.55,-18"/>
<polygon fill="black" stroke="black" points="231.85,-21.5 241.85,-18 231.85,-14.5 231.85,-21.5"/>
<text text-anchor="start" x="76" y="-21" font-family="Helvetica,sans-Serif" font-size="10.00">Install Host &#45; Install known host &#160;&#160;</text>
</g>
</g>
</svg>
