<?xml version="1.0" encoding="UTF-8" standalone="no"?>
<!DOCTYPE svg PUBLIC "-//W3C//DTD SVG 1.1//EN"
 "http://www.w3.org/Graphics/SVG/1.1/DTD/svg11.dtd">
<!-- Generated by graphviz version 5.0.0 (0)
 -->
<!-- Title: state transitions Pages: 1 -->
<svg width="642pt" height="370pt"
 viewBox="0.00 0.00 642.00 370.00" xmlns="http://www.w3.org/2000/svg" xmlns:xlink="http://www.w3.org/1999/xlink">
<g id="graph0" class="graph" transform="scale(1 1) rotate(0) translate(4 366)">
<title>state transitions</title>
<polygon fill="white" stroke="transparent" points="-4,4 -4,-366 638,-366 638,4 -4,4"/>
<!-- cancelled -->
<g id="node1" class="node state regular">
<title>cancelled</title>
<polygon fill="#ffffff" fill-opacity="0.003922" stroke="transparent" stroke-width="2" points="578,-144 504,-144 504,-108 578,-108 578,-144"/>
<text text-anchor="start" x="515" y="-122.4" font-family="Helvetica,sans-Serif" font-size="12.00">cancelled</text>
<path fill="none" stroke="black" stroke-width="2" d="M516,-109.5C516,-109.5 566,-109.5 566,-109.5 571.5,-109.5 577,-115 577,-120.5 577,-120.5 577,-131.5 577,-131.5 577,-137 571.5,-142.5 566,-142.5 566,-142.5 516,-142.5 516,-142.5 510.5,-142.5 505,-137 505,-131.5 505,-131.5 505,-120.5 505,-120.5 505,-115 510.5,-109.5 516,-109.5"/>
</g>
<!-- error -->
<g id="node2" class="node state regular">
<title>error</title>
<polygon fill="#ffffff" fill-opacity="0.003922" stroke="transparent" stroke-width="2" points="118.5,-252 62.5,-252 62.5,-216 118.5,-216 118.5,-252"/>
<text text-anchor="start" x="78" y="-230.4" font-family="Helvetica,sans-Serif" font-size="12.00">error</text>
<path fill="none" stroke="black" stroke-width="2" d="M74.5,-217.5C74.5,-217.5 106.5,-217.5 106.5,-217.5 112,-217.5 117.5,-223 117.5,-228.5 117.5,-228.5 117.5,-239.5 117.5,-239.5 117.5,-245 112,-250.5 106.5,-250.5 106.5,-250.5 74.5,-250.5 74.5,-250.5 69,-250.5 63.5,-245 63.5,-239.5 63.5,-239.5 63.5,-228.5 63.5,-228.5 63.5,-223 69,-217.5 74.5,-217.5"/>
</g>
<!-- error&#45;&gt;cancelled -->
<g id="edge5" class="edge transition">
<title>error&#45;&gt;cancelled</title>
<path fill="none" stroke="black" d="M118.81,-237.25C185.8,-243.91 361.87,-253.44 486,-188 501.29,-179.94 514.19,-165.64 523.55,-152.8"/>
<polygon fill="black" stroke="black" points="526.65,-154.46 529.45,-144.24 520.89,-150.49 526.65,-154.46"/>
<text text-anchor="start" x="199" y="-244" font-family="Helvetica,sans-Serif" font-size="10.00">Cancel Installation &#45; Installation canceled while host is installing &#160;&#160;</text>
</g>
<!-- installed -->
<g id="node3" class="node state regular">
<title>installed</title>
<polygon fill="#ffffff" fill-opacity="0.003922" stroke="transparent" stroke-width="2" points="124.5,-198 56.5,-198 56.5,-162 124.5,-162 124.5,-198"/>
<text text-anchor="start" x="67.5" y="-176.4" font-family="Helvetica,sans-Serif" font-size="12.00">installed</text>
<path fill="none" stroke="black" stroke-width="2" d="M68.5,-163.5C68.5,-163.5 112.5,-163.5 112.5,-163.5 118,-163.5 123.5,-169 123.5,-174.5 123.5,-174.5 123.5,-185.5 123.5,-185.5 123.5,-191 118,-196.5 112.5,-196.5 112.5,-196.5 68.5,-196.5 68.5,-196.5 63,-196.5 57.5,-191 57.5,-185.5 57.5,-185.5 57.5,-174.5 57.5,-174.5 57.5,-169 63,-163.5 68.5,-163.5"/>
</g>
<!-- installed&#45;&gt;cancelled -->
<g id="edge4" class="edge transition">
<title>installed&#45;&gt;cancelled</title>
<path fill="none" stroke="black" d="M124.5,-178.66C192.6,-175.48 353.4,-165.78 486,-141 488.64,-140.51 491.35,-139.94 494.06,-139.33"/>
<polygon fill="black" stroke="black" points="495,-142.71 503.89,-136.95 493.35,-135.91 495,-142.71"/>
<text text-anchor="start" x="199" y="-176" font-family="Helvetica,sans-Serif" font-size="10.00">Cancel Installation &#45; Installation canceled while host is installing &#160;&#160;</text>
</g>
<!-- installing -->
<g id="node4" class="node state regular">
<title>installing</title>
<polygon fill="#ffffff" fill-opacity="0.003922" stroke="transparent" stroke-width="2" points="126,-144 55,-144 55,-108 126,-108 126,-144"/>
<text text-anchor="start" x="66.5" y="-122.4" font-family="Helvetica,sans-Serif" font-size="12.00">installing</text>
<path fill="none" stroke="black" stroke-width="2" d="M67,-109.5C67,-109.5 114,-109.5 114,-109.5 119.5,-109.5 125,-115 125,-120.5 125,-120.5 125,-131.5 125,-131.5 125,-137 119.5,-142.5 114,-142.5 114,-142.5 67,-142.5 67,-142.5 61.5,-142.5 56,-137 56,-131.5 56,-131.5 56,-120.5 56,-120.5 56,-115 61.5,-109.5 67,-109.5"/>
</g>
<!-- installing&#45;&gt;cancelled -->
<g id="edge2" class="edge transition">
<title>installing&#45;&gt;cancelled</title>
<path fill="none" stroke="black" d="M126.32,-126C206.4,-126 403.68,-126 493.77,-126"/>
<polygon fill="black" stroke="black" points="493.96,-129.5 503.96,-126 493.96,-122.5 493.96,-129.5"/>
<text text-anchor="start" x="199" y="-129" font-family="Helvetica,sans-Serif" font-size="10.00">Cancel Installation &#45; Installation canceled while host is installing &#160;&#160;</text>
</g>
<!-- installing&#45;in&#45;progress -->
<g id="node5" class="node state regular">
<title>installing&#45;in&#45;progress</title>
<polygon fill="#ffffff" fill-opacity="0.003922" stroke="transparent" stroke-width="2" points="157.5,-90 23.5,-90 23.5,-54 157.5,-54 157.5,-90"/>
<text text-anchor="start" x="34.5" y="-68.4" font-family="Helvetica,sans-Serif" font-size="12.00">installing&#45;in&#45;progress</text>
<path fill="none" stroke="black" stroke-width="2" d="M35.5,-55.5C35.5,-55.5 145.5,-55.5 145.5,-55.5 151,-55.5 156.5,-61 156.5,-66.5 156.5,-66.5 156.5,-77.5 156.5,-77.5 156.5,-83 151,-88.5 145.5,-88.5 145.5,-88.5 35.5,-88.5 35.5,-88.5 30,-88.5 24.5,-83 24.5,-77.5 24.5,-77.5 24.5,-66.5 24.5,-66.5 24.5,-61 30,-55.5 35.5,-55.5"/>
</g>
<!-- installing&#45;in&#45;progress&#45;&gt;cancelled -->
<g id="edge3" class="edge transition">
<title>installing&#45;in&#45;progress&#45;&gt;cancelled</title>
<path fill="none" stroke="black" d="M157.6,-75.05C236.36,-79.48 371.67,-89.63 486,-111 488.64,-111.49 491.35,-112.06 494.06,-112.67"/>
<polygon fill="black" stroke="black" points="493.35,-116.09 503.89,-115.05 495,-109.29 493.35,-116.09"/>
<text text-anchor="start" x="199" y="-114" font-family="Helvetica,sans-Serif" font-size="10.00">Cancel Installation &#45; Installation canceled while host is installing &#160;&#160;</text>
</g>
<!-- installing&#45;pending&#45;user&#45;action -->
<g id="node6" class="node state regular">
<title>installing&#45;pending&#45;user&#45;action</title>
<polygon fill="#ffffff" fill-opacity="0.003922" stroke="transparent" stroke-width="2" points="181,-36 0,-36 0,0 181,0 181,-36"/>
<text text-anchor="start" x="11.5" y="-14.4" font-family="Helvetica,sans-Serif" font-size="12.00">installing&#45;pending&#45;user&#45;action</text>
<path fill="none" stroke="black" stroke-width="2" d="M12,-1.5C12,-1.5 169,-1.5 169,-1.5 174.5,-1.5 180,-7 180,-12.5 180,-12.5 180,-23.5 180,-23.5 180,-29 174.5,-34.5 169,-34.5 169,-34.5 12,-34.5 12,-34.5 6.5,-34.5 1,-29 1,-23.5 1,-23.5 1,-12.5 1,-12.5 1,-7 6.5,-1.5 12,-1.5"/>
</g>
<!-- installing&#45;pending&#45;user&#45;action&#45;&gt;cancelled -->
<g id="edge1" class="edge transition">
<title>installing&#45;pending&#45;user&#45;action&#45;&gt;cancelled</title>
<path fill="none" stroke="black" d="M181.1,-10.62C264.77,-7.71 390.69,-13.75 486,-64 501.29,-72.06 514.19,-86.36 523.55,-99.2"/>
<polygon fill="black" stroke="black" points="520.89,-101.51 529.45,-107.76 526.65,-97.54 520.89,-101.51"/>
<text text-anchor="start" x="199" y="-67" font-family="Helvetica,sans-Serif" font-size="10.00">Cancel Installation &#45; Installation canceled while host is installing &#160;&#160;</text>
</g>
<!-- known -->
<g id="node7" class="node state regular">
<title>known</title>
<polygon fill="#ffffff" fill-opacity="0.003922" stroke="transparent" stroke-width="2" points="570,-333 512,-333 512,-297 570,-297 570,-333"/>
<text text-anchor="start" x="523" y="-311.4" font-family="Helvetica,sans-Serif" font-size="12.00">known</text>
<path fill="none" stroke="black" stroke-width="2" d="M524,-298.5C524,-298.5 558,-298.5 558,-298.5 563.5,-298.5 569,-304 569,-309.5 569,-309.5 569,-320.5 569,-320.5 569,-326 563.5,-331.5 558,-331.5 558,-331.5 524,-331.5 524,-331.5 518.5,-331.5 513,-326 513,-320.5 513,-320.5 513,-309.5 513,-309.5 513,-304 518.5,-298.5 524,-298.5"/>
</g>
<!-- known&#45;&gt;known -->
<g id="edge8" class="edge transition">
<title>known&#45;&gt;known</title>
<path fill="none" stroke="black" d="M511.76,-326.61C495.1,-338.19 504.84,-351 541,-351 569.53,-351 581.62,-343.03 577.26,-333.97"/>
<polygon fill="black" stroke="black" points="579.67,-331.43 570.24,-326.61 574.61,-336.27 579.67,-331.43"/>
<text text-anchor="start" x="448" y="-354" font-family="Helvetica,sans-Serif" font-size="10.00">Cancel Installation &#45; Cancel while known &#160;&#160;</text>
</g>
<!-- preparing&#45;for&#45;installation -->
<g id="node8" class="node state regular">
<title>preparing&#45;for&#45;installation</title>
<polygon fill="#ffffff" fill-opacity="0.003922" stroke="transparent" stroke-width="2" points="166.5,-360 14.5,-360 14.5,-324 166.5,-324 166.5,-360"/>
<text text-anchor="start" x="25.5" y="-338.4" font-family="Helvetica,sans-Serif" font-size="12.00">preparing&#45;for&#45;installation</text>
<path fill="none" stroke="black" stroke-width="2" d="M26.5,-325.5C26.5,-325.5 154.5,-325.5 154.5,-325.5 160,-325.5 165.5,-331 165.5,-336.5 165.5,-336.5 165.5,-347.5 165.5,-347.5 165.5,-353 160,-358.5 154.5,-358.5 154.5,-358.5 26.5,-358.5 26.5,-358.5 21,-358.5 15.5,-353 15.5,-347.5 15.5,-347.5 15.5,-336.5 15.5,-336.5 15.5,-331 21,-325.5 26.5,-325.5"/>
</g>
<!-- preparing&#45;for&#45;installation&#45;&gt;known -->
<g id="edge6" class="edge transition">
<title>preparing&#45;for&#45;installation&#45;&gt;known</title>
<path fill="none" stroke="black" d="M166.57,-337.48C263.19,-331.66 427.42,-321.78 501.61,-317.31"/>
<polygon fill="black" stroke="black" points="502.11,-320.79 511.88,-316.69 501.69,-313.8 502.11,-320.79"/>
<text text-anchor="start" x="244" y="-338" font-family="Helvetica,sans-Serif" font-size="10.00">Cancel Installation &#45; Cancel while preparing &#160;&#160;</text>
</g>
<!-- preparing&#45;successful -->
<g id="node9" class="node state regular">
<title>preparing&#45;successful</title>
<polygon fill="#ffffff" fill-opacity="0.003922" stroke="transparent" stroke-width="2" points="157.5,-306 23.5,-306 23.5,-270 157.5,-270 157.5,-306"/>
<text text-anchor="start" x="34.5" y="-284.4" font-family="Helvetica,sans-Serif" font-size="12.00">preparing&#45;successful</text>
<path fill="none" stroke="black" stroke-width="2" d="M35.5,-271.5C35.5,-271.5 145.5,-271.5 145.5,-271.5 151,-271.5 156.5,-277 156.5,-282.5 156.5,-282.5 156.5,-293.5 156.5,-293.5 156.5,-299 151,-304.5 145.5,-304.5 145.5,-304.5 35.5,-304.5 35.5,-304.5 30,-304.5 24.5,-299 24.5,-293.5 24.5,-293.5 24.5,-282.5 24.5,-282.5 24.5,-277 30,-271.5 35.5,-271.5"/>
</g>
<!-- preparing&#45;successful&#45;&gt;known -->
<g id="edge7" class="edge transition">
<title>preparing&#45;successful&#45;&gt;known</title>
<path fill="none" stroke="black" d="M157.76,-286.88C236.39,-286.39 371.29,-288.2 486,-303 491.17,-303.67 496.57,-304.59 501.87,-305.63"/>
<polygon fill="black" stroke="black" points="501.36,-309.1 511.86,-307.74 502.8,-302.25 501.36,-309.1"/>
<text text-anchor="start" x="244" y="-306" font-family="Helvetica,sans-Serif" font-size="10.00">Cancel Installation &#45; Cancel while preparing &#160;&#160;</text>
</g>
</g>
</svg>
