<?xml version="1.0" encoding="UTF-8" standalone="no"?>
<!DOCTYPE svg PUBLIC "-//W3C//DTD SVG 1.1//EN"
 "http://www.w3.org/Graphics/SVG/1.1/DTD/svg11.dtd">
<!-- Generated by graphviz version 12.1.0 (20240811.2233)
 -->
<!-- Title: state transitions Pages: 1 -->
<svg width="654pt" height="98pt"
 viewBox="0.00 0.00 653.50 98.25" xmlns="http://www.w3.org/2000/svg" xmlns:xlink="http://www.w3.org/1999/xlink">
<g id="graph0" class="graph" transform="scale(1 1) rotate(0) translate(4 94.25)">
<title>state transitions</title>
<polygon fill="white" stroke="none" points="-4,4 -4,-94.25 649.5,-94.25 649.5,4 -4,4"/>
<!-- reclaiming -->
<g id="node1" class="node state regular">
<title>reclaiming</title>
<polygon fill="#ffffff" fill-opacity="0.003922" stroke="none" stroke-width="2" points="115,-90.25 30.75,-90.25 30.75,-54 115,-54 115,-90.25"/>
<text text-anchor="start" x="41.75" y="-67.85" font-family="Helvetica,sans-Serif" font-size="12.00">reclaiming</text>
<path fill="none" stroke="black" stroke-width="2" d="M43.17,-55C43.17,-55 102.58,-55 102.58,-55 108.29,-55 114,-60.71 114,-66.42 114,-66.42 114,-77.83 114,-77.83 114,-83.54 108.29,-89.25 102.58,-89.25 102.58,-89.25 43.17,-89.25 43.17,-89.25 37.46,-89.25 31.75,-83.54 31.75,-77.83 31.75,-77.83 31.75,-66.42 31.75,-66.42 31.75,-60.71 37.46,-55 43.17,-55"/>
</g>
<!-- unbinding&#45;pending&#45;user&#45;action -->
<g id="node2" class="node state regular">
<title>unbinding&#45;pending&#45;user&#45;action</title>
<polygon fill="#ffffff" fill-opacity="0.003922" stroke="none" stroke-width="2" points="645.5,-63.25 442,-63.25 442,-27 645.5,-27 645.5,-63.25"/>
<text text-anchor="start" x="453" y="-40.85" font-family="Helvetica,sans-Serif" font-size="12.00">unbinding&#45;pending&#45;user&#45;action</text>
<path fill="none" stroke="black" stroke-width="2" d="M454.42,-28C454.42,-28 633.08,-28 633.08,-28 638.79,-28 644.5,-33.71 644.5,-39.42 644.5,-39.42 644.5,-50.83 644.5,-50.83 644.5,-56.54 638.79,-62.25 633.08,-62.25 633.08,-62.25 454.42,-62.25 454.42,-62.25 448.71,-62.25 443,-56.54 443,-50.83 443,-50.83 443,-39.42 443,-39.42 443,-33.71 448.71,-28 454.42,-28"/>
</g>
<!-- reclaiming&#45;&gt;unbinding&#45;pending&#45;user&#45;action -->
<g id="edge1" class="edge transition">
<title>reclaiming&#45;&gt;unbinding&#45;pending&#45;user&#45;action</title>
<path fill="none" stroke="black" d="M114.66,-69.78C184.46,-65.76 329.1,-57.43 430.87,-51.57"/>
<polygon fill="black" stroke="black" points="430.83,-55.08 440.62,-51.01 430.43,-48.09 430.83,-55.08"/>
<text text-anchor="start" x="163.75" y="-69.54" font-family="Helvetica,sans-Serif" font-size="10.00">Reclaim Failed &#45; Reclaim failure for reclaiming host &#160;&#160;</text>
</g>
<!-- reclaiming&#45;rebooting -->
<g id="node3" class="node state regular">
<title>reclaiming&#45;rebooting</title>
<polygon fill="#ffffff" fill-opacity="0.003922" stroke="none" stroke-width="2" points="145.75,-36.25 0,-36.25 0,0 145.75,0 145.75,-36.25"/>
<text text-anchor="start" x="11" y="-13.85" font-family="Helvetica,sans-Serif" font-size="12.00">reclaiming&#45;rebooting</text>
<path fill="none" stroke="black" stroke-width="2" d="M12.42,-1C12.42,-1 133.33,-1 133.33,-1 139.04,-1 144.75,-6.71 144.75,-12.42 144.75,-12.42 144.75,-23.83 144.75,-23.83 144.75,-29.54 139.04,-35.25 133.33,-35.25 133.33,-35.25 12.42,-35.25 12.42,-35.25 6.71,-35.25 1,-29.54 1,-23.83 1,-23.83 1,-12.42 1,-12.42 1,-6.71 6.71,-1 12.42,-1"/>
</g>
<!-- reclaiming&#45;rebooting&#45;&gt;unbinding&#45;pending&#45;user&#45;action -->
<g id="edge2" class="edge transition">
<title>reclaiming&#45;rebooting&#45;&gt;unbinding&#45;pending&#45;user&#45;action</title>
<path fill="none" stroke="black" d="M145.66,-20.97C216.47,-23.95 327.75,-29.05 424,-35.38 426.21,-35.52 428.43,-35.67 430.68,-35.82"/>
<polygon fill="black" stroke="black" points="430.29,-39.3 440.52,-36.52 430.79,-32.32 430.29,-39.3"/>
<text text-anchor="start" x="163.75" y="-38.62" font-family="Helvetica,sans-Serif" font-size="10.00">Reclaim Failed &#45; Reclaim failure for reclaiming host &#160;&#160;</text>
</g>
</g>
</svg>
