<?xml version="1.0" encoding="UTF-8" standalone="no"?>
<!DOCTYPE svg PUBLIC "-//W3C//DTD SVG 1.1//EN"
 "http://www.w3.org/Graphics/SVG/1.1/DTD/svg11.dtd">
<!-- Generated by graphviz version 12.1.0 (20240811.2233)
 -->
<!-- Title: state transitions Pages: 1 -->
<svg width="548pt" height="98pt"
 viewBox="0.00 0.00 548.00 98.25" xmlns="http://www.w3.org/2000/svg" xmlns:xlink="http://www.w3.org/1999/xlink">
<g id="graph0" class="graph" transform="scale(1 1) rotate(0) translate(4 94.25)">
<title>state transitions</title>
<polygon fill="white" stroke="none" points="-4,4 -4,-94.25 544,-94.25 544,4 -4,4"/>
<!-- error -->
<g id="node1" class="node state regular">
<title>error</title>
<polygon fill="#ffffff" fill-opacity="0.003922" stroke="none" stroke-width="2" points="540,-63.25 484,-63.25 484,-27 540,-27 540,-63.25"/>
<text text-anchor="start" x="497.38" y="-40.85" font-family="Helvetica,sans-Serif" font-size="12.00">error</text>
<path fill="none" stroke="black" stroke-width="2" d="M496.42,-28C496.42,-28 527.58,-28 527.58,-28 533.29,-28 539,-33.71 539,-39.42 539,-39.42 539,-50.83 539,-50.83 539,-56.54 533.29,-62.25 527.58,-62.25 527.58,-62.25 496.42,-62.25 496.42,-62.25 490.71,-62.25 485,-56.54 485,-50.83 485,-50.83 485,-39.42 485,-39.42 485,-33.71 490.71,-28 496.42,-28"/>
</g>
<!-- installing -->
<g id="node2" class="node state regular">
<title>installing</title>
<polygon fill="#ffffff" fill-opacity="0.003922" stroke="none" stroke-width="2" points="109.75,-90.25 35.25,-90.25 35.25,-54 109.75,-54 109.75,-90.25"/>
<text text-anchor="start" x="46.25" y="-67.85" font-family="Helvetica,sans-Serif" font-size="12.00">installing</text>
<path fill="none" stroke="black" stroke-width="2" d="M47.67,-55C47.67,-55 97.33,-55 97.33,-55 103.04,-55 108.75,-60.71 108.75,-66.42 108.75,-66.42 108.75,-77.83 108.75,-77.83 108.75,-83.54 103.04,-89.25 97.33,-89.25 97.33,-89.25 47.67,-89.25 47.67,-89.25 41.96,-89.25 36.25,-83.54 36.25,-77.83 36.25,-77.83 36.25,-66.42 36.25,-66.42 36.25,-60.71 41.96,-55 47.67,-55"/>
</g>
<!-- installing&#45;&gt;error -->
<g id="edge1" class="edge transition">
<title>installing&#45;&gt;error</title>
<path fill="none" stroke="black" d="M109.67,-69.89C191.32,-64.85 389.27,-52.64 472.8,-47.48"/>
<polygon fill="black" stroke="black" points="472.76,-50.99 482.53,-46.88 472.33,-44 472.76,-50.99"/>
<text text-anchor="start" x="163" y="-69.54" font-family="Helvetica,sans-Serif" font-size="10.00">Installation Failed &#45; Installation failed while host is installing &#160;&#160;</text>
</g>
<!-- installing&#45;in&#45;progress -->
<g id="node3" class="node state regular">
<title>installing&#45;in&#45;progress</title>
<polygon fill="#ffffff" fill-opacity="0.003922" stroke="none" stroke-width="2" points="145,-36.25 0,-36.25 0,0 145,0 145,-36.25"/>
<text text-anchor="start" x="11" y="-13.85" font-family="Helvetica,sans-Serif" font-size="12.00">installing&#45;in&#45;progress</text>
<path fill="none" stroke="black" stroke-width="2" d="M12.42,-1C12.42,-1 132.58,-1 132.58,-1 138.29,-1 144,-6.71 144,-12.42 144,-12.42 144,-23.83 144,-23.83 144,-29.54 138.29,-35.25 132.58,-35.25 132.58,-35.25 12.42,-35.25 12.42,-35.25 6.71,-35.25 1,-29.54 1,-23.83 1,-23.83 1,-12.42 1,-12.42 1,-6.71 6.71,-1 12.42,-1"/>
</g>
<!-- installing&#45;in&#45;progress&#45;&gt;error -->
<g id="edge2" class="edge transition">
<title>installing&#45;in&#45;progress&#45;&gt;error</title>
<path fill="none" stroke="black" d="M144.96,-14.95C224.06,-12.72 355.03,-12.88 466,-31.38 468.33,-31.76 470.71,-32.24 473.09,-32.78"/>
<polygon fill="black" stroke="black" points="472.12,-36.14 482.68,-35.28 473.89,-29.37 472.12,-36.14"/>
<text text-anchor="start" x="163" y="-34.62" font-family="Helvetica,sans-Serif" font-size="10.00">Installation Failed &#45; Installation failed while host is installing &#160;&#160;</text>
</g>
</g>
</svg>
