<?xml version="1.0" encoding="UTF-8" standalone="no"?>
<!DOCTYPE svg PUBLIC "-//W3C//DTD SVG 1.1//EN"
 "http://www.w3.org/Graphics/SVG/1.1/DTD/svg11.dtd">
<!-- Generated by graphviz version 12.1.0 (20240811.2233)
 -->
<!-- Title: state transitions Pages: 1 -->
<svg width="857pt" height="808pt"
 viewBox="0.00 0.00 856.62 808.10" xmlns="http://www.w3.org/2000/svg" xmlns:xlink="http://www.w3.org/1999/xlink">
<g id="graph0" class="graph" transform="scale(1 1) rotate(0) translate(4 804.1)">
<title>state transitions</title>
<polygon fill="white" stroke="none" points="-4,4 -4,-804.1 852.62,-804.1 852.62,4 -4,4"/>
<!-- added&#45;to&#45;existing&#45;cluster -->
<g id="node1" class="node state regular">
<title>added&#45;to&#45;existing&#45;cluster</title>
<polygon fill="#ffffff" fill-opacity="0.003922" stroke="none" stroke-width="2" points="184.38,-772.91 13.12,-772.91 13.12,-736.66 184.38,-736.66 184.38,-772.91"/>
<text text-anchor="start" x="24.12" y="-750.51" font-family="Helvetica,sans-Serif" font-size="12.00">added&#45;to&#45;existing&#45;cluster</text>
<path fill="none" stroke="black" stroke-width="2" d="M25.54,-737.66C25.54,-737.66 171.96,-737.66 171.96,-737.66 177.67,-737.66 183.38,-743.36 183.38,-749.07 183.38,-749.07 183.38,-760.49 183.38,-760.49 183.38,-766.2 177.67,-771.91 171.96,-771.91 171.96,-771.91 25.54,-771.91 25.54,-771.91 19.83,-771.91 14.12,-766.2 14.12,-760.49 14.12,-760.49 14.12,-749.07 14.12,-749.07 14.12,-743.36 19.83,-737.66 25.54,-737.66"/>
</g>
<!-- resetting&#45;pending&#45;user&#45;action -->
<g id="node2" class="node state regular">
<title>resetting&#45;pending&#45;user&#45;action</title>
<polygon fill="#ffffff" fill-opacity="0.003922" stroke="none" stroke-width="2" points="775.25,-421.91 577.75,-421.91 577.75,-385.66 775.25,-385.66 775.25,-421.91"/>
<text text-anchor="start" x="588.75" y="-399.51" font-family="Helvetica,sans-Serif" font-size="12.00">resetting&#45;pending&#45;user&#45;action</text>
<path fill="none" stroke="black" stroke-width="2" d="M590.17,-386.66C590.17,-386.66 762.83,-386.66 762.83,-386.66 768.54,-386.66 774.25,-392.36 774.25,-398.07 774.25,-398.07 774.25,-409.49 774.25,-409.49 774.25,-415.2 768.54,-420.91 762.83,-420.91 762.83,-420.91 590.17,-420.91 590.17,-420.91 584.46,-420.91 578.75,-415.2 578.75,-409.49 578.75,-409.49 578.75,-398.07 578.75,-398.07 578.75,-392.36 584.46,-386.66 590.17,-386.66"/>
</g>
<!-- added&#45;to&#45;existing&#45;cluster&#45;&gt;resetting&#45;pending&#45;user&#45;action -->
<g id="edge1" class="edge transition">
<title>added&#45;to&#45;existing&#45;cluster&#45;&gt;resetting&#45;pending&#45;user&#45;action</title>
<path fill="none" stroke="black" d="M176.87,-772.85C275.99,-791.29 448.53,-806.64 559.75,-722.78 653.66,-651.97 671.49,-497.61 674.79,-433.07"/>
<polygon fill="black" stroke="black" points="678.28,-433.4 675.2,-423.27 671.29,-433.11 678.28,-433.4"/>
<text text-anchor="start" x="215.5" y="-790.6" font-family="Helvetica,sans-Serif" font-size="10.00">Resetting, Pending User Action &#45; Reset pending user action all states &#160;&#160;</text>
</g>
<!-- resetting&#45;pending&#45;user&#45;action&#45;&gt;resetting&#45;pending&#45;user&#45;action -->
<g id="edge15" class="edge transition">
<title>resetting&#45;pending&#45;user&#45;action&#45;&gt;resetting&#45;pending&#45;user&#45;action</title>
<path fill="none" stroke="black" d="M624.57,-421.62C615.75,-431.19 633.06,-439.91 676.5,-439.91 701.62,-439.91 718,-436.99 725.64,-432.69"/>
<polygon fill="black" stroke="black" points="729.01,-433.64 728.06,-423.09 722.22,-431.93 729.01,-433.64"/>
<text text-anchor="start" x="504.38" y="-443.16" font-family="Helvetica,sans-Serif" font-size="10.00">Resetting, Pending User Action &#45; Reset pending user action all states &#160;&#160;</text>
</g>
<!-- cancelled -->
<g id="node3" class="node state regular">
<title>cancelled</title>
<polygon fill="#ffffff" fill-opacity="0.003922" stroke="none" stroke-width="2" points="138.25,-718.91 59.25,-718.91 59.25,-682.66 138.25,-682.66 138.25,-718.91"/>
<text text-anchor="start" x="70.25" y="-696.51" font-family="Helvetica,sans-Serif" font-size="12.00">cancelled</text>
<path fill="none" stroke="black" stroke-width="2" d="M71.67,-683.66C71.67,-683.66 125.83,-683.66 125.83,-683.66 131.54,-683.66 137.25,-689.36 137.25,-695.07 137.25,-695.07 137.25,-706.49 137.25,-706.49 137.25,-712.2 131.54,-717.91 125.83,-717.91 125.83,-717.91 71.67,-717.91 71.67,-717.91 65.96,-717.91 60.25,-712.2 60.25,-706.49 60.25,-706.49 60.25,-695.07 60.25,-695.07 60.25,-689.36 65.96,-683.66 71.67,-683.66"/>
</g>
<!-- cancelled&#45;&gt;resetting&#45;pending&#45;user&#45;action -->
<g id="edge2" class="edge transition">
<title>cancelled&#45;&gt;resetting&#45;pending&#45;user&#45;action</title>
<path fill="none" stroke="black" d="M138.18,-702.96C236.19,-707.74 492.45,-715.28 559.75,-667.78 638.98,-611.86 664.59,-489.33 672.35,-433.07"/>
<polygon fill="black" stroke="black" points="675.8,-433.68 673.6,-423.31 668.86,-432.79 675.8,-433.68"/>
<text text-anchor="start" x="215.5" y="-709.76" font-family="Helvetica,sans-Serif" font-size="10.00">Resetting, Pending User Action &#45; Reset pending user action all states &#160;&#160;</text>
</g>
<!-- discovering -->
<g id="node4" class="node state regular">
<title>discovering</title>
<polygon fill="#ffffff" fill-opacity="0.003922" stroke="none" stroke-width="2" points="143.88,-664.91 53.62,-664.91 53.62,-628.66 143.88,-628.66 143.88,-664.91"/>
<text text-anchor="start" x="64.62" y="-642.51" font-family="Helvetica,sans-Serif" font-size="12.00">discovering</text>
<path fill="none" stroke="black" stroke-width="2" d="M66.04,-629.66C66.04,-629.66 131.46,-629.66 131.46,-629.66 137.17,-629.66 142.88,-635.36 142.88,-641.07 142.88,-641.07 142.88,-652.49 142.88,-652.49 142.88,-658.2 137.17,-663.91 131.46,-663.91 131.46,-663.91 66.04,-663.91 66.04,-663.91 60.33,-663.91 54.62,-658.2 54.62,-652.49 54.62,-652.49 54.62,-641.07 54.62,-641.07 54.62,-635.36 60.33,-629.66 66.04,-629.66"/>
</g>
<!-- discovering&#45;&gt;resetting&#45;pending&#45;user&#45;action -->
<g id="edge3" class="edge transition">
<title>discovering&#45;&gt;resetting&#45;pending&#45;user&#45;action</title>
<path fill="none" stroke="black" d="M143.8,-648.83C245.22,-652.73 491.72,-657.32 559.75,-613.78 625.04,-571.99 656.59,-479.88 668.94,-432.77"/>
<polygon fill="black" stroke="black" points="672.28,-433.84 671.31,-423.29 665.49,-432.14 672.28,-433.84"/>
<text text-anchor="start" x="215.5" y="-654.45" font-family="Helvetica,sans-Serif" font-size="10.00">Resetting, Pending User Action &#45; Reset pending user action all states &#160;&#160;</text>
</g>
<!-- error -->
<g id="node5" class="node state regular">
<title>error</title>
<polygon fill="#ffffff" fill-opacity="0.003922" stroke="none" stroke-width="2" points="126.75,-610.91 70.75,-610.91 70.75,-574.66 126.75,-574.66 126.75,-610.91"/>
<text text-anchor="start" x="84.12" y="-588.51" font-family="Helvetica,sans-Serif" font-size="12.00">error</text>
<path fill="none" stroke="black" stroke-width="2" d="M83.17,-575.66C83.17,-575.66 114.33,-575.66 114.33,-575.66 120.04,-575.66 125.75,-581.36 125.75,-587.07 125.75,-587.07 125.75,-598.49 125.75,-598.49 125.75,-604.2 120.04,-609.91 114.33,-609.91 114.33,-609.91 83.17,-609.91 83.17,-609.91 77.46,-609.91 71.75,-604.2 71.75,-598.49 71.75,-598.49 71.75,-587.07 71.75,-587.07 71.75,-581.36 77.46,-575.66 83.17,-575.66"/>
</g>
<!-- error&#45;&gt;resetting&#45;pending&#45;user&#45;action -->
<g id="edge4" class="edge transition">
<title>error&#45;&gt;resetting&#45;pending&#45;user&#45;action</title>
<path fill="none" stroke="black" d="M126.47,-594.02C213.07,-597.59 484.68,-605.16 559.75,-563.78 612.77,-534.56 647.71,-469.53 664.3,-431.99"/>
<polygon fill="black" stroke="black" points="667.37,-433.7 668.08,-423.13 660.93,-430.96 667.37,-433.7"/>
<text text-anchor="start" x="215.5" y="-600.21" font-family="Helvetica,sans-Serif" font-size="10.00">Resetting, Pending User Action &#45; Reset pending user action all states &#160;&#160;</text>
</g>
<!-- installed -->
<g id="node6" class="node state regular">
<title>installed</title>
<polygon fill="#ffffff" fill-opacity="0.003922" stroke="none" stroke-width="2" points="134.5,-556.91 63,-556.91 63,-520.66 134.5,-520.66 134.5,-556.91"/>
<text text-anchor="start" x="74" y="-534.51" font-family="Helvetica,sans-Serif" font-size="12.00">installed</text>
<path fill="none" stroke="black" stroke-width="2" d="M75.42,-521.66C75.42,-521.66 122.08,-521.66 122.08,-521.66 127.79,-521.66 133.5,-527.36 133.5,-533.07 133.5,-533.07 133.5,-544.49 133.5,-544.49 133.5,-550.2 127.79,-555.91 122.08,-555.91 122.08,-555.91 75.42,-555.91 75.42,-555.91 69.71,-555.91 64,-550.2 64,-544.49 64,-544.49 64,-533.07 64,-533.07 64,-527.36 69.71,-521.66 75.42,-521.66"/>
</g>
<!-- installed&#45;&gt;resetting&#45;pending&#45;user&#45;action -->
<g id="edge5" class="edge transition">
<title>installed&#45;&gt;resetting&#45;pending&#45;user&#45;action</title>
<path fill="none" stroke="black" d="M134.23,-542.36C212.99,-549.14 410.79,-558.23 559.75,-497.78 596.39,-482.91 630.51,-452.33 652.07,-430.07"/>
<polygon fill="black" stroke="black" points="654.61,-432.48 658.94,-422.81 649.52,-427.67 654.61,-432.48"/>
<text text-anchor="start" x="215.5" y="-550.5" font-family="Helvetica,sans-Serif" font-size="10.00">Resetting, Pending User Action &#45; Reset pending user action all states &#160;&#160;</text>
</g>
<!-- installing -->
<g id="node7" class="node state regular">
<title>installing</title>
<polygon fill="#ffffff" fill-opacity="0.003922" stroke="none" stroke-width="2" points="136,-502.91 61.5,-502.91 61.5,-466.66 136,-466.66 136,-502.91"/>
<text text-anchor="start" x="72.5" y="-480.51" font-family="Helvetica,sans-Serif" font-size="12.00">installing</text>
<path fill="none" stroke="black" stroke-width="2" d="M73.92,-467.66C73.92,-467.66 123.58,-467.66 123.58,-467.66 129.29,-467.66 135,-473.36 135,-479.07 135,-479.07 135,-490.49 135,-490.49 135,-496.2 129.29,-501.91 123.58,-501.91 123.58,-501.91 73.92,-501.91 73.92,-501.91 68.21,-501.91 62.5,-496.2 62.5,-490.49 62.5,-490.49 62.5,-479.07 62.5,-479.07 62.5,-473.36 68.21,-467.66 73.92,-467.66"/>
</g>
<!-- installing&#45;&gt;resetting&#45;pending&#45;user&#45;action -->
<g id="edge6" class="edge transition">
<title>installing&#45;&gt;resetting&#45;pending&#45;user&#45;action</title>
<path fill="none" stroke="black" d="M135.94,-484.14C214.12,-482.17 404.27,-474.14 559.75,-441.78 578.96,-437.78 599.45,-431.69 617.77,-425.55"/>
<polygon fill="black" stroke="black" points="618.81,-428.89 627.13,-422.33 616.54,-422.27 618.81,-428.89"/>
<text text-anchor="start" x="215.5" y="-483.99" font-family="Helvetica,sans-Serif" font-size="10.00">Resetting, Pending User Action &#45; Reset pending user action all states &#160;&#160;</text>
</g>
<!-- installing&#45;in&#45;progress -->
<g id="node8" class="node state regular">
<title>installing&#45;in&#45;progress</title>
<polygon fill="#ffffff" fill-opacity="0.003922" stroke="none" stroke-width="2" points="171.25,-448.91 26.25,-448.91 26.25,-412.66 171.25,-412.66 171.25,-448.91"/>
<text text-anchor="start" x="37.25" y="-426.51" font-family="Helvetica,sans-Serif" font-size="12.00">installing&#45;in&#45;progress</text>
<path fill="none" stroke="black" stroke-width="2" d="M38.67,-413.66C38.67,-413.66 158.83,-413.66 158.83,-413.66 164.54,-413.66 170.25,-419.36 170.25,-425.07 170.25,-425.07 170.25,-436.49 170.25,-436.49 170.25,-442.2 164.54,-447.91 158.83,-447.91 158.83,-447.91 38.67,-447.91 38.67,-447.91 32.96,-447.91 27.25,-442.2 27.25,-436.49 27.25,-436.49 27.25,-425.07 27.25,-425.07 27.25,-419.36 32.96,-413.66 38.67,-413.66"/>
</g>
<!-- installing&#45;in&#45;progress&#45;&gt;resetting&#45;pending&#45;user&#45;action -->
<g id="edge7" class="edge transition">
<title>installing&#45;in&#45;progress&#45;&gt;resetting&#45;pending&#45;user&#45;action</title>
<path fill="none" stroke="black" d="M171.22,-427.43C270.38,-422.78 450.58,-414.33 566.56,-408.89"/>
<polygon fill="black" stroke="black" points="566.59,-412.39 576.41,-408.43 566.26,-405.4 566.59,-412.39"/>
<text text-anchor="start" x="215.5" y="-428.2" font-family="Helvetica,sans-Serif" font-size="10.00">Resetting, Pending User Action &#45; Reset pending user action all states &#160;&#160;</text>
</g>
<!-- installing&#45;pending&#45;user&#45;action -->
<g id="node9" class="node state regular">
<title>installing&#45;pending&#45;user&#45;action</title>
<polygon fill="#ffffff" fill-opacity="0.003922" stroke="none" stroke-width="2" points="197.5,-394.91 0,-394.91 0,-358.66 197.5,-358.66 197.5,-394.91"/>
<text text-anchor="start" x="11" y="-372.51" font-family="Helvetica,sans-Serif" font-size="12.00">installing&#45;pending&#45;user&#45;action</text>
<path fill="none" stroke="black" stroke-width="2" d="M12.42,-359.66C12.42,-359.66 185.08,-359.66 185.08,-359.66 190.79,-359.66 196.5,-365.36 196.5,-371.07 196.5,-371.07 196.5,-382.49 196.5,-382.49 196.5,-388.2 190.79,-393.91 185.08,-393.91 185.08,-393.91 12.42,-393.91 12.42,-393.91 6.71,-393.91 1,-388.2 1,-382.49 1,-382.49 1,-371.07 1,-371.07 1,-365.36 6.71,-359.66 12.42,-359.66"/>
</g>
<!-- installing&#45;pending&#45;user&#45;action&#45;&gt;resetting&#45;pending&#45;user&#45;action -->
<g id="edge8" class="edge transition">
<title>installing&#45;pending&#45;user&#45;action&#45;&gt;resetting&#45;pending&#45;user&#45;action</title>
<path fill="none" stroke="black" d="M197.2,-378.6C290.36,-380.73 434.75,-385.02 559.75,-393.03 561.98,-393.17 564.23,-393.32 566.5,-393.48"/>
<polygon fill="black" stroke="black" points="566.22,-396.97 576.45,-394.21 566.73,-389.99 566.22,-396.97"/>
<text text-anchor="start" x="215.5" y="-396.28" font-family="Helvetica,sans-Serif" font-size="10.00">Resetting, Pending User Action &#45; Reset pending user action all states &#160;&#160;</text>
</g>
<!-- known -->
<g id="node10" class="node state regular">
<title>known</title>
<polygon fill="#ffffff" fill-opacity="0.003922" stroke="none" stroke-width="2" points="129.25,-340.91 68.25,-340.91 68.25,-304.66 129.25,-304.66 129.25,-340.91"/>
<text text-anchor="start" x="79.25" y="-318.51" font-family="Helvetica,sans-Serif" font-size="12.00">known</text>
<path fill="none" stroke="black" stroke-width="2" d="M80.67,-305.66C80.67,-305.66 116.83,-305.66 116.83,-305.66 122.54,-305.66 128.25,-311.36 128.25,-317.07 128.25,-317.07 128.25,-328.49 128.25,-328.49 128.25,-334.2 122.54,-339.91 116.83,-339.91 116.83,-339.91 80.67,-339.91 80.67,-339.91 74.96,-339.91 69.25,-334.2 69.25,-328.49 69.25,-328.49 69.25,-317.07 69.25,-317.07 69.25,-311.36 74.96,-305.66 80.67,-305.66"/>
</g>
<!-- known&#45;&gt;resetting&#45;pending&#45;user&#45;action -->
<g id="edge9" class="edge transition">
<title>known&#45;&gt;resetting&#45;pending&#45;user&#45;action</title>
<path fill="none" stroke="black" d="M129.21,-322.65C202.76,-322.89 400.03,-327.04 559.75,-362.03 580.97,-366.68 603.59,-374.22 623.15,-381.62"/>
<polygon fill="black" stroke="black" points="621.68,-384.8 632.27,-385.16 624.21,-378.28 621.68,-384.8"/>
<text text-anchor="start" x="215.5" y="-365.28" font-family="Helvetica,sans-Serif" font-size="10.00">Resetting, Pending User Action &#45; Reset pending user action all states &#160;&#160;</text>
</g>
<!-- pending&#45;for&#45;input -->
<g id="node11" class="node state regular">
<title>pending&#45;for&#45;input</title>
<polygon fill="#ffffff" fill-opacity="0.003922" stroke="none" stroke-width="2" points="161.12,-286.91 36.38,-286.91 36.38,-250.66 161.12,-250.66 161.12,-286.91"/>
<text text-anchor="start" x="47.38" y="-264.51" font-family="Helvetica,sans-Serif" font-size="12.00">pending&#45;for&#45;input</text>
<path fill="none" stroke="black" stroke-width="2" d="M48.79,-251.66C48.79,-251.66 148.71,-251.66 148.71,-251.66 154.42,-251.66 160.12,-257.36 160.12,-263.07 160.12,-263.07 160.12,-274.49 160.12,-274.49 160.12,-280.2 154.42,-285.91 148.71,-285.91 148.71,-285.91 48.79,-285.91 48.79,-285.91 43.08,-285.91 37.38,-280.2 37.38,-274.49 37.38,-274.49 37.38,-263.07 37.38,-263.07 37.38,-257.36 43.08,-251.66 48.79,-251.66"/>
</g>
<!-- pending&#45;for&#45;input&#45;&gt;resetting&#45;pending&#45;user&#45;action -->
<g id="edge10" class="edge transition">
<title>pending&#45;for&#45;input&#45;&gt;resetting&#45;pending&#45;user&#45;action</title>
<path fill="none" stroke="black" d="M160.86,-262.75C251.6,-256.23 425.65,-253.2 559.75,-308.03 597,-323.26 631.39,-354.91 652.84,-377.66"/>
<polygon fill="black" stroke="black" points="650.04,-379.78 659.38,-384.77 655.19,-375.04 650.04,-379.78"/>
<text text-anchor="start" x="215.5" y="-311.28" font-family="Helvetica,sans-Serif" font-size="10.00">Resetting, Pending User Action &#45; Reset pending user action all states &#160;&#160;</text>
</g>
<!-- preparing&#45;failed -->
<g id="node12" class="node state regular">
<title>preparing&#45;failed</title>
<polygon fill="#ffffff" fill-opacity="0.003922" stroke="none" stroke-width="2" points="157.38,-232.91 40.13,-232.91 40.13,-196.66 157.38,-196.66 157.38,-232.91"/>
<text text-anchor="start" x="51.12" y="-210.51" font-family="Helvetica,sans-Serif" font-size="12.00">preparing&#45;failed</text>
<path fill="none" stroke="black" stroke-width="2" d="M52.54,-197.66C52.54,-197.66 144.96,-197.66 144.96,-197.66 150.67,-197.66 156.38,-203.36 156.38,-209.07 156.38,-209.07 156.38,-220.49 156.38,-220.49 156.38,-226.2 150.67,-231.91 144.96,-231.91 144.96,-231.91 52.54,-231.91 52.54,-231.91 46.83,-231.91 41.12,-226.2 41.12,-220.49 41.12,-220.49 41.12,-209.07 41.12,-209.07 41.12,-203.36 46.83,-197.66 52.54,-197.66"/>
</g>
<!-- preparing&#45;failed&#45;&gt;resetting&#45;pending&#45;user&#45;action -->
<g id="edge11" class="edge transition">
<title>preparing&#45;failed&#45;&gt;resetting&#45;pending&#45;user&#45;action</title>
<path fill="none" stroke="black" d="M157.1,-203.48C248.61,-188.53 430.49,-171.73 559.75,-243.03 612.92,-272.36 647.81,-337.7 664.34,-375.43"/>
<polygon fill="black" stroke="black" points="660.99,-376.49 668.11,-384.34 667.44,-373.76 660.99,-376.49"/>
<text text-anchor="start" x="215.5" y="-246.28" font-family="Helvetica,sans-Serif" font-size="10.00">Resetting, Pending User Action &#45; Reset pending user action all states &#160;&#160;</text>
</g>
<!-- preparing&#45;for&#45;installation -->
<g id="node13" class="node state regular">
<title>preparing&#45;for&#45;installation</title>
<polygon fill="#ffffff" fill-opacity="0.003922" stroke="none" stroke-width="2" points="183.25,-178.91 14.25,-178.91 14.25,-142.66 183.25,-142.66 183.25,-178.91"/>
<text text-anchor="start" x="25.25" y="-156.51" font-family="Helvetica,sans-Serif" font-size="12.00">preparing&#45;for&#45;installation</text>
<path fill="none" stroke="black" stroke-width="2" d="M26.67,-143.66C26.67,-143.66 170.83,-143.66 170.83,-143.66 176.54,-143.66 182.25,-149.36 182.25,-155.07 182.25,-155.07 182.25,-166.49 182.25,-166.49 182.25,-172.2 176.54,-177.91 170.83,-177.91 170.83,-177.91 26.67,-177.91 26.67,-177.91 20.96,-177.91 15.25,-172.2 15.25,-166.49 15.25,-166.49 15.25,-155.07 15.25,-155.07 15.25,-149.36 20.96,-143.66 26.67,-143.66"/>
</g>
<!-- preparing&#45;for&#45;installation&#45;&gt;resetting&#45;pending&#45;user&#45;action -->
<g id="edge12" class="edge transition">
<title>preparing&#45;for&#45;installation&#45;&gt;resetting&#45;pending&#45;user&#45;action</title>
<path fill="none" stroke="black" d="M183.19,-153.24C298.56,-144.47 499.41,-135.66 559.75,-174.03 631.28,-219.52 660.37,-323.83 670.63,-374.75"/>
<polygon fill="black" stroke="black" points="667.16,-375.25 672.47,-384.42 674.04,-373.94 667.16,-375.25"/>
<text text-anchor="start" x="215.5" y="-177.28" font-family="Helvetica,sans-Serif" font-size="10.00">Resetting, Pending User Action &#45; Reset pending user action all states &#160;&#160;</text>
</g>
<!-- preparing&#45;successful -->
<g id="node14" class="node state regular">
<title>preparing&#45;successful</title>
<polygon fill="#ffffff" fill-opacity="0.003922" stroke="none" stroke-width="2" points="171.62,-124.91 25.88,-124.91 25.88,-88.66 171.62,-88.66 171.62,-124.91"/>
<text text-anchor="start" x="36.88" y="-102.51" font-family="Helvetica,sans-Serif" font-size="12.00">preparing&#45;successful</text>
<path fill="none" stroke="black" stroke-width="2" d="M38.29,-89.66C38.29,-89.66 159.21,-89.66 159.21,-89.66 164.92,-89.66 170.62,-95.36 170.62,-101.07 170.62,-101.07 170.62,-112.49 170.62,-112.49 170.62,-118.2 164.92,-123.91 159.21,-123.91 159.21,-123.91 38.29,-123.91 38.29,-123.91 32.58,-123.91 26.88,-118.2 26.88,-112.49 26.88,-112.49 26.88,-101.07 26.88,-101.07 26.88,-95.36 32.58,-89.66 38.29,-89.66"/>
</g>
<!-- preparing&#45;successful&#45;&gt;resetting&#45;pending&#45;user&#45;action -->
<g id="edge13" class="edge transition">
<title>preparing&#45;successful&#45;&gt;resetting&#45;pending&#45;user&#45;action</title>
<path fill="none" stroke="black" d="M171,-88.66C268.27,-68.34 443.77,-47.94 559.75,-129.03 642.52,-186.9 666.36,-316.17 673.02,-374.38"/>
<polygon fill="black" stroke="black" points="669.52,-374.58 674.04,-384.16 676.48,-373.85 669.52,-374.58"/>
<text text-anchor="start" x="215.5" y="-132.28" font-family="Helvetica,sans-Serif" font-size="10.00">Resetting, Pending User Action &#45; Reset pending user action all states &#160;&#160;</text>
</g>
<!-- resetting -->
<g id="node15" class="node state regular">
<title>resetting</title>
<polygon fill="#ffffff" fill-opacity="0.003922" stroke="none" stroke-width="2" points="136,-70.91 61.5,-70.91 61.5,-34.66 136,-34.66 136,-70.91"/>
<text text-anchor="start" x="72.5" y="-48.51" font-family="Helvetica,sans-Serif" font-size="12.00">resetting</text>
<path fill="none" stroke="black" stroke-width="2" d="M73.92,-35.66C73.92,-35.66 123.58,-35.66 123.58,-35.66 129.29,-35.66 135,-41.36 135,-47.07 135,-47.07 135,-58.49 135,-58.49 135,-64.2 129.29,-69.91 123.58,-69.91 123.58,-69.91 73.92,-69.91 73.92,-69.91 68.21,-69.91 62.5,-64.2 62.5,-58.49 62.5,-58.49 62.5,-47.07 62.5,-47.07 62.5,-41.36 68.21,-35.66 73.92,-35.66"/>
</g>
<!-- resetting&#45;&gt;resetting&#45;pending&#45;user&#45;action -->
<g id="edge14" class="edge transition">
<title>resetting&#45;&gt;resetting&#45;pending&#45;user&#45;action</title>
<path fill="none" stroke="black" d="M135.7,-40.09C219.27,-13.06 429.43,40.38 559.75,-54.03 664.8,-130.14 676.05,-305.19 676.19,-374.63"/>
<polygon fill="black" stroke="black" points="672.69,-374.41 676.12,-384.44 679.69,-374.46 672.69,-374.41"/>
<text text-anchor="start" x="215.5" y="-57.28" font-family="Helvetica,sans-Serif" font-size="10.00">Resetting, Pending User Action &#45; Reset pending user action all states &#160;&#160;</text>
</g>
</g>
</svg>
