<?xml version="1.0" encoding="UTF-8" standalone="no"?>
<!DOCTYPE svg PUBLIC "-//W3C//DTD SVG 1.1//EN"
 "http://www.w3.org/Graphics/SVG/1.1/DTD/svg11.dtd">
<!-- Generated by graphviz version 12.1.0 (20240811.2233)
 -->
<!-- Title: state transitions Pages: 1 -->
<svg width="937pt" height="546pt"
 viewBox="0.00 0.00 937.25 545.79" xmlns="http://www.w3.org/2000/svg" xmlns:xlink="http://www.w3.org/1999/xlink">
<g id="graph0" class="graph" transform="scale(1 1) rotate(0) translate(4 541.79)">
<title>state transitions</title>
<polygon fill="white" stroke="none" points="-4,4 -4,-541.79 933.25,-541.79 933.25,4 -4,4"/>
<!-- binding -->
<g id="node1" class="node state regular">
<title>binding</title>
<polygon fill="#ffffff" fill-opacity="0.003922" stroke="none" stroke-width="2" points="117.62,-253.6 52.12,-253.6 52.12,-217.35 117.62,-217.35 117.62,-253.6"/>
<text text-anchor="start" x="63.12" y="-231.2" font-family="Helvetica,sans-Serif" font-size="12.00">binding</text>
<path fill="none" stroke="black" stroke-width="2" d="M64.54,-218.35C64.54,-218.35 105.21,-218.35 105.21,-218.35 110.92,-218.35 116.62,-224.06 116.62,-229.76 116.62,-229.76 116.62,-241.18 116.62,-241.18 116.62,-246.89 110.92,-252.6 105.21,-252.6 105.21,-252.6 64.54,-252.6 64.54,-252.6 58.83,-252.6 53.12,-246.89 53.12,-241.18 53.12,-241.18 53.12,-229.76 53.12,-229.76 53.12,-224.06 58.83,-218.35 64.54,-218.35"/>
</g>
<!-- disconnected -->
<g id="node2" class="node state regular">
<title>disconnected</title>
<polygon fill="#ffffff" fill-opacity="0.003922" stroke="none" stroke-width="2" points="755.75,-145.6 654.25,-145.6 654.25,-109.35 755.75,-109.35 755.75,-145.6"/>
<text text-anchor="start" x="665.25" y="-123.2" font-family="Helvetica,sans-Serif" font-size="12.00">disconnected</text>
<path fill="none" stroke="black" stroke-width="2" d="M666.67,-110.35C666.67,-110.35 743.33,-110.35 743.33,-110.35 749.04,-110.35 754.75,-116.06 754.75,-121.76 754.75,-121.76 754.75,-133.18 754.75,-133.18 754.75,-138.89 749.04,-144.6 743.33,-144.6 743.33,-144.6 666.67,-144.6 666.67,-144.6 660.96,-144.6 655.25,-138.89 655.25,-133.18 655.25,-133.18 655.25,-121.76 655.25,-121.76 655.25,-116.06 660.96,-110.35 666.67,-110.35"/>
</g>
<!-- binding&#45;&gt;disconnected -->
<g id="edge1" class="edge transition">
<title>binding&#45;&gt;disconnected</title>
<path fill="none" stroke="black" d="M117.58,-236.13C220.37,-237.82 543.09,-239.5 636.25,-196.47 656.07,-187.32 673.23,-169.67 685.32,-154.51"/>
<polygon fill="black" stroke="black" points="688,-156.77 691.26,-146.69 682.42,-152.54 688,-156.77"/>
<text text-anchor="start" x="187.75" y="-240.04" font-family="Helvetica,sans-Serif" font-size="10.00">Media Disconnect &#45; Move to disconnected when virtual media disconnects pre&#45;installation &#160;&#160;</text>
</g>
<!-- disconnected&#45;&gt;disconnected -->
<g id="edge2" class="edge transition">
<title>disconnected&#45;&gt;disconnected</title>
<path fill="none" stroke="black" d="M654.41,-143.44C641.21,-153.71 658.07,-163.6 705,-163.6 733.6,-163.6 751.03,-159.93 757.3,-154.74"/>
<polygon fill="black" stroke="black" points="760.77,-154.3 755.82,-144.94 753.85,-155.35 760.77,-154.3"/>
<text text-anchor="start" x="480.75" y="-166.85" font-family="Helvetica,sans-Serif" font-size="10.00">Media Disconnect &#45; Move to disconnected when virtual media disconnects pre&#45;installation &#160;&#160;</text>
</g>
<!-- discovering -->
<g id="node3" class="node state regular">
<title>discovering</title>
<polygon fill="#ffffff" fill-opacity="0.003922" stroke="none" stroke-width="2" points="130,-199.6 39.75,-199.6 39.75,-163.35 130,-163.35 130,-199.6"/>
<text text-anchor="start" x="50.75" y="-177.2" font-family="Helvetica,sans-Serif" font-size="12.00">discovering</text>
<path fill="none" stroke="black" stroke-width="2" d="M52.17,-164.35C52.17,-164.35 117.58,-164.35 117.58,-164.35 123.29,-164.35 129,-170.06 129,-175.76 129,-175.76 129,-187.18 129,-187.18 129,-192.89 123.29,-198.6 117.58,-198.6 117.58,-198.6 52.17,-198.6 52.17,-198.6 46.46,-198.6 40.75,-192.89 40.75,-187.18 40.75,-187.18 40.75,-175.76 40.75,-175.76 40.75,-170.06 46.46,-164.35 52.17,-164.35"/>
</g>
<!-- discovering&#45;&gt;disconnected -->
<g id="edge3" class="edge transition">
<title>discovering&#45;&gt;disconnected</title>
<path fill="none" stroke="black" d="M129.69,-181.18C223.29,-179.97 449.42,-173.95 636.25,-144.47 638.54,-144.11 640.87,-143.71 643.22,-143.27"/>
<polygon fill="black" stroke="black" points="643.67,-146.75 652.78,-141.33 642.28,-139.89 643.67,-146.75"/>
<text text-anchor="start" x="187.75" y="-183.3" font-family="Helvetica,sans-Serif" font-size="10.00">Media Disconnect &#45; Move to disconnected when virtual media disconnects pre&#45;installation &#160;&#160;</text>
</g>
<!-- error -->
<g id="node4" class="node state regular">
<title>error</title>
<polygon fill="#ffffff" fill-opacity="0.003922" stroke="none" stroke-width="2" points="733,-415.6 677,-415.6 677,-379.35 733,-379.35 733,-415.6"/>
<text text-anchor="start" x="690.38" y="-393.2" font-family="Helvetica,sans-Serif" font-size="12.00">error</text>
<path fill="none" stroke="black" stroke-width="2" d="M689.42,-380.35C689.42,-380.35 720.58,-380.35 720.58,-380.35 726.29,-380.35 732,-386.06 732,-391.76 732,-391.76 732,-403.18 732,-403.18 732,-408.89 726.29,-414.6 720.58,-414.6 720.58,-414.6 689.42,-414.6 689.42,-414.6 683.71,-414.6 678,-408.89 678,-403.18 678,-403.18 678,-391.76 678,-391.76 678,-386.06 683.71,-380.35 689.42,-380.35"/>
</g>
<!-- error&#45;&gt;error -->
<g id="edge4" class="edge transition">
<title>error&#45;&gt;error</title>
<path fill="none" stroke="black" d="M677.22,-403.51C633.36,-416.13 642.62,-433.6 705,-433.6 761.77,-433.6 774.54,-419.13 743.31,-407.01"/>
<polygon fill="black" stroke="black" points="744.81,-403.82 734.21,-403.99 742.6,-410.47 744.81,-403.82"/>
<text text-anchor="start" x="498.75" y="-436.85" font-family="Helvetica,sans-Serif" font-size="10.00">Media Disconnect &#45; Move to error when virtual media disconnects post&#45;installation &#160;&#160;</text>
</g>
<!-- installing -->
<g id="node5" class="node state regular">
<title>installing</title>
<polygon fill="#ffffff" fill-opacity="0.003922" stroke="none" stroke-width="2" points="122.12,-523.6 47.62,-523.6 47.62,-487.35 122.12,-487.35 122.12,-523.6"/>
<text text-anchor="start" x="58.62" y="-501.2" font-family="Helvetica,sans-Serif" font-size="12.00">installing</text>
<path fill="none" stroke="black" stroke-width="2" d="M60.04,-488.35C60.04,-488.35 109.71,-488.35 109.71,-488.35 115.42,-488.35 121.12,-494.06 121.12,-499.76 121.12,-499.76 121.12,-511.18 121.12,-511.18 121.12,-516.89 115.42,-522.6 109.71,-522.6 109.71,-522.6 60.04,-522.6 60.04,-522.6 54.33,-522.6 48.62,-516.89 48.62,-511.18 48.62,-511.18 48.62,-499.76 48.62,-499.76 48.62,-494.06 54.33,-488.35 60.04,-488.35"/>
</g>
<!-- installing&#45;&gt;error -->
<g id="edge5" class="edge transition">
<title>installing&#45;&gt;error</title>
<path fill="none" stroke="black" d="M121.81,-511.3C212.89,-524.34 458.19,-548.7 636.25,-466.47 656.07,-457.32 673.23,-439.67 685.32,-424.51"/>
<polygon fill="black" stroke="black" points="688,-426.77 691.26,-416.69 682.42,-422.54 688,-426.77"/>
<text text-anchor="start" x="205.75" y="-528.29" font-family="Helvetica,sans-Serif" font-size="10.00">Media Disconnect &#45; Move to error when virtual media disconnects post&#45;installation &#160;&#160;</text>
</g>
<!-- installing&#45;in&#45;progress -->
<g id="node6" class="node state regular">
<title>installing&#45;in&#45;progress</title>
<polygon fill="#ffffff" fill-opacity="0.003922" stroke="none" stroke-width="2" points="157.38,-469.6 12.38,-469.6 12.38,-433.35 157.38,-433.35 157.38,-469.6"/>
<text text-anchor="start" x="23.38" y="-447.2" font-family="Helvetica,sans-Serif" font-size="12.00">installing&#45;in&#45;progress</text>
<path fill="none" stroke="black" stroke-width="2" d="M24.79,-434.35C24.79,-434.35 144.96,-434.35 144.96,-434.35 150.67,-434.35 156.38,-440.06 156.38,-445.76 156.38,-445.76 156.38,-457.18 156.38,-457.18 156.38,-462.89 150.67,-468.6 144.96,-468.6 144.96,-468.6 24.79,-468.6 24.79,-468.6 19.08,-468.6 13.38,-462.89 13.38,-457.18 13.38,-457.18 13.38,-445.76 13.38,-445.76 13.38,-440.06 19.08,-434.35 24.79,-434.35"/>
</g>
<!-- installing&#45;in&#45;progress&#45;&gt;error -->
<g id="edge6" class="edge transition">
<title>installing&#45;in&#45;progress&#45;&gt;error</title>
<path fill="none" stroke="black" d="M157.14,-450.74C262.49,-448.74 465.74,-441.37 636.25,-414.47 646.06,-412.92 656.54,-410.62 666.24,-408.21"/>
<polygon fill="black" stroke="black" points="666.93,-411.65 675.73,-405.75 665.17,-404.88 666.93,-411.65"/>
<text text-anchor="start" x="205.75" y="-453.3" font-family="Helvetica,sans-Serif" font-size="10.00">Media Disconnect &#45; Move to error when virtual media disconnects post&#45;installation &#160;&#160;</text>
</g>
<!-- insufficient -->
<g id="node7" class="node state regular">
<title>insufficient</title>
<polygon fill="#ffffff" fill-opacity="0.003922" stroke="none" stroke-width="2" points="128.12,-145.6 41.62,-145.6 41.62,-109.35 128.12,-109.35 128.12,-145.6"/>
<text text-anchor="start" x="52.62" y="-123.2" font-family="Helvetica,sans-Serif" font-size="12.00">insufficient</text>
<path fill="none" stroke="black" stroke-width="2" d="M54.04,-110.35C54.04,-110.35 115.71,-110.35 115.71,-110.35 121.42,-110.35 127.12,-116.06 127.12,-121.76 127.12,-121.76 127.12,-133.18 127.12,-133.18 127.12,-138.89 121.42,-144.6 115.71,-144.6 115.71,-144.6 54.04,-144.6 54.04,-144.6 48.33,-144.6 42.62,-138.89 42.62,-133.18 42.62,-133.18 42.62,-121.76 42.62,-121.76 42.62,-116.06 48.33,-110.35 54.04,-110.35"/>
</g>
<!-- insufficient&#45;&gt;disconnected -->
<g id="edge7" class="edge transition">
<title>insufficient&#45;&gt;disconnected</title>
<path fill="none" stroke="black" d="M127.88,-127.47C234.86,-127.47 517.97,-127.47 643.08,-127.47"/>
<polygon fill="black" stroke="black" points="642.82,-130.97 652.82,-127.47 642.82,-123.97 642.82,-130.97"/>
<text text-anchor="start" x="187.75" y="-130.72" font-family="Helvetica,sans-Serif" font-size="10.00">Media Disconnect &#45; Move to disconnected when virtual media disconnects pre&#45;installation &#160;&#160;</text>
</g>
<!-- known -->
<g id="node8" class="node state regular">
<title>known</title>
<polygon fill="#ffffff" fill-opacity="0.003922" stroke="none" stroke-width="2" points="115.38,-91.6 54.38,-91.6 54.38,-55.35 115.38,-55.35 115.38,-91.6"/>
<text text-anchor="start" x="65.38" y="-69.2" font-family="Helvetica,sans-Serif" font-size="12.00">known</text>
<path fill="none" stroke="black" stroke-width="2" d="M66.79,-56.35C66.79,-56.35 102.96,-56.35 102.96,-56.35 108.67,-56.35 114.38,-62.06 114.38,-67.76 114.38,-67.76 114.38,-79.18 114.38,-79.18 114.38,-84.89 108.67,-90.6 102.96,-90.6 102.96,-90.6 66.79,-90.6 66.79,-90.6 61.08,-90.6 55.38,-84.89 55.38,-79.18 55.38,-79.18 55.38,-67.76 55.38,-67.76 55.38,-62.06 61.08,-56.35 66.79,-56.35"/>
</g>
<!-- known&#45;&gt;disconnected -->
<g id="edge8" class="edge transition">
<title>known&#45;&gt;disconnected</title>
<path fill="none" stroke="black" d="M115.31,-73.66C197.96,-74.57 438.96,-79.9 636.25,-110.72 638.54,-111.08 640.87,-111.48 643.21,-111.91"/>
<polygon fill="black" stroke="black" points="642.27,-115.29 652.77,-113.83 643.65,-108.43 642.27,-115.29"/>
<text text-anchor="start" x="187.75" y="-113.97" font-family="Helvetica,sans-Serif" font-size="10.00">Media Disconnect &#45; Move to disconnected when virtual media disconnects pre&#45;installation &#160;&#160;</text>
</g>
<!-- pending&#45;for&#45;input -->
<g id="node9" class="node state regular">
<title>pending&#45;for&#45;input</title>
<polygon fill="#ffffff" fill-opacity="0.003922" stroke="none" stroke-width="2" points="147.62,-37.6 22.12,-37.6 22.12,-1.35 147.62,-1.35 147.62,-37.6"/>
<text text-anchor="start" x="33.12" y="-15.2" font-family="Helvetica,sans-Serif" font-size="12.00">pending&#45;for&#45;input</text>
<path fill="none" stroke="black" stroke-width="2" d="M34.54,-2.35C34.54,-2.35 135.21,-2.35 135.21,-2.35 140.92,-2.35 146.62,-8.06 146.62,-13.76 146.62,-13.76 146.62,-25.18 146.62,-25.18 146.62,-30.89 140.92,-36.6 135.21,-36.6 135.21,-36.6 34.54,-36.6 34.54,-36.6 28.83,-36.6 23.12,-30.89 23.12,-25.18 23.12,-25.18 23.12,-13.76 23.12,-13.76 23.12,-8.06 28.83,-2.35 34.54,-2.35"/>
</g>
<!-- pending&#45;for&#45;input&#45;&gt;disconnected -->
<g id="edge9" class="edge transition">
<title>pending&#45;for&#45;input&#45;&gt;disconnected</title>
<path fill="none" stroke="black" d="M147.55,-10.3C253.13,2.54 472.92,16.57 636.25,-58.72 656.04,-67.84 673.2,-85.43 685.3,-100.54"/>
<polygon fill="black" stroke="black" points="682.39,-102.49 691.24,-108.32 687.96,-98.25 682.39,-102.49"/>
<text text-anchor="start" x="187.75" y="-61.97" font-family="Helvetica,sans-Serif" font-size="10.00">Media Disconnect &#45; Move to disconnected when virtual media disconnects pre&#45;installation &#160;&#160;</text>
</g>
<!-- preparing&#45;failed -->
<g id="node10" class="node state regular">
<title>preparing&#45;failed</title>
<polygon fill="#ffffff" fill-opacity="0.003922" stroke="none" stroke-width="2" points="143.5,-415.6 26.25,-415.6 26.25,-379.35 143.5,-379.35 143.5,-415.6"/>
<text text-anchor="start" x="37.25" y="-393.2" font-family="Helvetica,sans-Serif" font-size="12.00">preparing&#45;failed</text>
<path fill="none" stroke="black" stroke-width="2" d="M38.67,-380.35C38.67,-380.35 131.08,-380.35 131.08,-380.35 136.79,-380.35 142.5,-386.06 142.5,-391.76 142.5,-391.76 142.5,-403.18 142.5,-403.18 142.5,-408.89 136.79,-414.6 131.08,-414.6 131.08,-414.6 38.67,-414.6 38.67,-414.6 32.96,-414.6 27.25,-408.89 27.25,-403.18 27.25,-403.18 27.25,-391.76 27.25,-391.76 27.25,-386.06 32.96,-380.35 38.67,-380.35"/>
</g>
<!-- preparing&#45;failed&#45;&gt;error -->
<g id="edge10" class="edge transition">
<title>preparing&#45;failed&#45;&gt;error</title>
<path fill="none" stroke="black" d="M143.47,-397.47C268.28,-397.47 560.89,-397.47 665.76,-397.47"/>
<polygon fill="black" stroke="black" points="665.52,-400.97 675.52,-397.47 665.52,-393.97 665.52,-400.97"/>
<text text-anchor="start" x="205.75" y="-400.72" font-family="Helvetica,sans-Serif" font-size="10.00">Media Disconnect &#45; Move to error when virtual media disconnects post&#45;installation &#160;&#160;</text>
</g>
<!-- preparing&#45;for&#45;installation -->
<g id="node11" class="node state regular">
<title>preparing&#45;for&#45;installation</title>
<polygon fill="#ffffff" fill-opacity="0.003922" stroke="none" stroke-width="2" points="169.75,-361.6 0,-361.6 0,-325.35 169.75,-325.35 169.75,-361.6"/>
<text text-anchor="start" x="11" y="-339.2" font-family="Helvetica,sans-Serif" font-size="12.00">preparing&#45;for&#45;installation</text>
<path fill="none" stroke="black" stroke-width="2" d="M12.42,-326.35C12.42,-326.35 157.33,-326.35 157.33,-326.35 163.04,-326.35 168.75,-332.06 168.75,-337.76 168.75,-337.76 168.75,-349.18 168.75,-349.18 168.75,-354.89 163.04,-360.6 157.33,-360.6 157.33,-360.6 12.42,-360.6 12.42,-360.6 6.71,-360.6 1,-354.89 1,-349.18 1,-349.18 1,-337.76 1,-337.76 1,-332.06 6.71,-326.35 12.42,-326.35"/>
</g>
<!-- preparing&#45;for&#45;installation&#45;&gt;error -->
<g id="edge11" class="edge transition">
<title>preparing&#45;for&#45;installation&#45;&gt;error</title>
<path fill="none" stroke="black" d="M169.36,-344.59C277.64,-347.08 472.08,-355.07 636.25,-380.72 646.06,-382.25 656.53,-384.52 666.23,-386.9"/>
<polygon fill="black" stroke="black" points="665.16,-390.24 675.72,-389.32 666.9,-383.45 665.16,-390.24"/>
<text text-anchor="start" x="205.75" y="-383.97" font-family="Helvetica,sans-Serif" font-size="10.00">Media Disconnect &#45; Move to error when virtual media disconnects post&#45;installation &#160;&#160;</text>
</g>
<!-- preparing&#45;successful -->
<g id="node12" class="node state regular">
<title>preparing&#45;successful</title>
<polygon fill="#ffffff" fill-opacity="0.003922" stroke="none" stroke-width="2" points="157.75,-307.6 12,-307.6 12,-271.35 157.75,-271.35 157.75,-307.6"/>
<text text-anchor="start" x="23" y="-285.2" font-family="Helvetica,sans-Serif" font-size="12.00">preparing&#45;successful</text>
<path fill="none" stroke="black" stroke-width="2" d="M24.42,-272.35C24.42,-272.35 145.33,-272.35 145.33,-272.35 151.04,-272.35 156.75,-278.06 156.75,-283.76 156.75,-283.76 156.75,-295.18 156.75,-295.18 156.75,-300.89 151.04,-306.6 145.33,-306.6 145.33,-306.6 24.42,-306.6 24.42,-306.6 18.71,-306.6 13,-300.89 13,-295.18 13,-295.18 13,-283.76 13,-283.76 13,-278.06 18.71,-272.35 24.42,-272.35"/>
</g>
<!-- preparing&#45;successful&#45;&gt;error -->
<g id="edge12" class="edge transition">
<title>preparing&#45;successful&#45;&gt;error</title>
<path fill="none" stroke="black" d="M157.56,-279.12C266.54,-266.69 477.92,-255.73 636.25,-328.72 656.04,-337.84 673.2,-355.43 685.3,-370.54"/>
<polygon fill="black" stroke="black" points="682.39,-372.49 691.24,-378.32 687.96,-368.25 682.39,-372.49"/>
<text text-anchor="start" x="205.75" y="-331.97" font-family="Helvetica,sans-Serif" font-size="10.00">Media Disconnect &#45; Move to error when virtual media disconnects post&#45;installation &#160;&#160;</text>
</g>
</g>
</svg>
