<?xml version="1.0" encoding="UTF-8" standalone="no"?>
<!DOCTYPE svg PUBLIC "-//W3C//DTD SVG 1.1//EN"
 "http://www.w3.org/Graphics/SVG/1.1/DTD/svg11.dtd">
<!-- Generated by graphviz version 12.1.0 (20240811.2233)
 -->
<!-- Title: state transitions Pages: 1 -->
<svg width="663pt" height="476pt"
 viewBox="0.00 0.00 662.50 476.25" xmlns="http://www.w3.org/2000/svg" xmlns:xlink="http://www.w3.org/1999/xlink">
<g id="graph0" class="graph" transform="scale(1 1) rotate(0) translate(4 472.25)">
<title>state transitions</title>
<polygon fill="white" stroke="none" points="-4,4 -4,-472.25 658.5,-472.25 658.5,4 -4,4"/>
<!-- added&#45;to&#45;existing&#45;cluster -->
<g id="node1" class="node state regular">
<title>added&#45;to&#45;existing&#45;cluster</title>
<polygon fill="#ffffff" fill-opacity="0.003922" stroke="none" stroke-width="2" points="171.25,-198.25 0,-198.25 0,-162 171.25,-162 171.25,-198.25"/>
<text text-anchor="start" x="11" y="-175.85" font-family="Helvetica,sans-Serif" font-size="12.00">added&#45;to&#45;existing&#45;cluster</text>
<path fill="none" stroke="black" stroke-width="2" d="M12.42,-163C12.42,-163 158.83,-163 158.83,-163 164.54,-163 170.25,-168.71 170.25,-174.42 170.25,-174.42 170.25,-185.83 170.25,-185.83 170.25,-191.54 164.54,-197.25 158.83,-197.25 158.83,-197.25 12.42,-197.25 12.42,-197.25 6.71,-197.25 1,-191.54 1,-185.83 1,-185.83 1,-174.42 1,-174.42 1,-168.71 6.71,-163 12.42,-163"/>
</g>
<!-- unbinding&#45;pending&#45;user&#45;action -->
<g id="node2" class="node state regular">
<title>unbinding&#45;pending&#45;user&#45;action</title>
<polygon fill="#ffffff" fill-opacity="0.003922" stroke="none" stroke-width="2" points="654.5,-117.25 451,-117.25 451,-81 654.5,-81 654.5,-117.25"/>
<text text-anchor="start" x="462" y="-94.85" font-family="Helvetica,sans-Serif" font-size="12.00">unbinding&#45;pending&#45;user&#45;action</text>
<path fill="none" stroke="black" stroke-width="2" d="M463.42,-82C463.42,-82 642.08,-82 642.08,-82 647.79,-82 653.5,-87.71 653.5,-93.42 653.5,-93.42 653.5,-104.83 653.5,-104.83 653.5,-110.54 647.79,-116.25 642.08,-116.25 642.08,-116.25 463.42,-116.25 463.42,-116.25 457.71,-116.25 452,-110.54 452,-104.83 452,-104.83 452,-93.42 452,-93.42 452,-87.71 457.71,-82 463.42,-82"/>
</g>
<!-- added&#45;to&#45;existing&#45;cluster&#45;&gt;unbinding&#45;pending&#45;user&#45;action -->
<g id="edge1" class="edge transition">
<title>added&#45;to&#45;existing&#45;cluster&#45;&gt;unbinding&#45;pending&#45;user&#45;action</title>
<path fill="none" stroke="black" d="M170.96,-173.59C241.54,-167.12 344.6,-155.36 433,-136.12 451.7,-132.06 471.68,-126.37 489.81,-120.68"/>
<polygon fill="black" stroke="black" points="490.65,-124.09 499.11,-117.7 488.51,-117.42 490.65,-124.09"/>
<text text-anchor="start" x="189.25" y="-174.55" font-family="Helvetica,sans-Serif" font-size="10.00">Unbind Host &#45; Unbind during or after installation &#160;&#160;</text>
</g>
<!-- cancelled -->
<g id="node3" class="node state regular">
<title>cancelled</title>
<polygon fill="#ffffff" fill-opacity="0.003922" stroke="none" stroke-width="2" points="125.12,-144.25 46.12,-144.25 46.12,-108 125.12,-108 125.12,-144.25"/>
<text text-anchor="start" x="57.12" y="-121.85" font-family="Helvetica,sans-Serif" font-size="12.00">cancelled</text>
<path fill="none" stroke="black" stroke-width="2" d="M58.54,-109C58.54,-109 112.71,-109 112.71,-109 118.42,-109 124.12,-114.71 124.12,-120.42 124.12,-120.42 124.12,-131.83 124.12,-131.83 124.12,-137.54 118.42,-143.25 112.71,-143.25 112.71,-143.25 58.54,-143.25 58.54,-143.25 52.83,-143.25 47.12,-137.54 47.12,-131.83 47.12,-131.83 47.12,-120.42 47.12,-120.42 47.12,-114.71 52.83,-109 58.54,-109"/>
</g>
<!-- cancelled&#45;&gt;unbinding&#45;pending&#45;user&#45;action -->
<g id="edge2" class="edge transition">
<title>cancelled&#45;&gt;unbinding&#45;pending&#45;user&#45;action</title>
<path fill="none" stroke="black" d="M125.08,-123.89C193.37,-119.93 338.18,-111.52 440.08,-105.61"/>
<polygon fill="black" stroke="black" points="440.07,-109.11 449.85,-105.04 439.66,-102.13 440.07,-109.11"/>
<text text-anchor="start" x="189.25" y="-122.85" font-family="Helvetica,sans-Serif" font-size="10.00">Unbind Host &#45; Unbind during or after installation &#160;&#160;</text>
</g>
<!-- disconnected -->
<g id="node4" class="node state regular">
<title>disconnected</title>
<polygon fill="#ffffff" fill-opacity="0.003922" stroke="none" stroke-width="2" points="136.38,-468.25 34.88,-468.25 34.88,-432 136.38,-432 136.38,-468.25"/>
<text text-anchor="start" x="45.88" y="-445.85" font-family="Helvetica,sans-Serif" font-size="12.00">disconnected</text>
<path fill="none" stroke="black" stroke-width="2" d="M47.29,-433C47.29,-433 123.96,-433 123.96,-433 129.67,-433 135.38,-438.71 135.38,-444.42 135.38,-444.42 135.38,-455.83 135.38,-455.83 135.38,-461.54 129.67,-467.25 123.96,-467.25 123.96,-467.25 47.29,-467.25 47.29,-467.25 41.58,-467.25 35.88,-461.54 35.88,-455.83 35.88,-455.83 35.88,-444.42 35.88,-444.42 35.88,-438.71 41.58,-433 47.29,-433"/>
</g>
<!-- unbinding -->
<g id="node5" class="node state regular">
<title>unbinding</title>
<polygon fill="#ffffff" fill-opacity="0.003922" stroke="none" stroke-width="2" points="593,-360.25 512.5,-360.25 512.5,-324 593,-324 593,-360.25"/>
<text text-anchor="start" x="523.5" y="-337.85" font-family="Helvetica,sans-Serif" font-size="12.00">unbinding</text>
<path fill="none" stroke="black" stroke-width="2" d="M524.92,-325C524.92,-325 580.58,-325 580.58,-325 586.29,-325 592,-330.71 592,-336.42 592,-336.42 592,-347.83 592,-347.83 592,-353.54 586.29,-359.25 580.58,-359.25 580.58,-359.25 524.92,-359.25 524.92,-359.25 519.21,-359.25 513.5,-353.54 513.5,-347.83 513.5,-347.83 513.5,-336.42 513.5,-336.42 513.5,-330.71 519.21,-325 524.92,-325"/>
</g>
<!-- disconnected&#45;&gt;unbinding -->
<g id="edge3" class="edge transition">
<title>disconnected&#45;&gt;unbinding</title>
<path fill="none" stroke="black" d="M136.21,-448.37C204.47,-444.82 330.58,-434.12 433,-402.12 461.11,-393.35 490.67,-378.43 513.26,-365.67"/>
<polygon fill="black" stroke="black" points="514.9,-368.77 521.81,-360.74 511.4,-362.7 514.9,-368.77"/>
<text text-anchor="start" x="215.88" y="-447.47" font-family="Helvetica,sans-Serif" font-size="10.00">Unbind Host &#45; Unbind pre&#45;installation &#160;&#160;</text>
</g>
<!-- discovering -->
<g id="node6" class="node state regular">
<title>discovering</title>
<polygon fill="#ffffff" fill-opacity="0.003922" stroke="none" stroke-width="2" points="130.75,-414.25 40.5,-414.25 40.5,-378 130.75,-378 130.75,-414.25"/>
<text text-anchor="start" x="51.5" y="-391.85" font-family="Helvetica,sans-Serif" font-size="12.00">discovering</text>
<path fill="none" stroke="black" stroke-width="2" d="M52.92,-379C52.92,-379 118.33,-379 118.33,-379 124.04,-379 129.75,-384.71 129.75,-390.42 129.75,-390.42 129.75,-401.83 129.75,-401.83 129.75,-407.54 124.04,-413.25 118.33,-413.25 118.33,-413.25 52.92,-413.25 52.92,-413.25 47.21,-413.25 41.5,-407.54 41.5,-401.83 41.5,-401.83 41.5,-390.42 41.5,-390.42 41.5,-384.71 47.21,-379 52.92,-379"/>
</g>
<!-- discovering&#45;&gt;unbinding -->
<g id="edge4" class="edge transition">
<title>discovering&#45;&gt;unbinding</title>
<path fill="none" stroke="black" d="M130.7,-391.93C196.56,-385.54 324.53,-372.68 433,-359.12 455.49,-356.31 480.33,-352.82 501.44,-349.73"/>
<polygon fill="black" stroke="black" points="501.87,-353.21 511.26,-348.29 500.85,-346.28 501.87,-353.21"/>
<text text-anchor="start" x="215.88" y="-388.88" font-family="Helvetica,sans-Serif" font-size="10.00">Unbind Host &#45; Unbind pre&#45;installation &#160;&#160;</text>
</g>
<!-- error -->
<g id="node7" class="node state regular">
<title>error</title>
<polygon fill="#ffffff" fill-opacity="0.003922" stroke="none" stroke-width="2" points="113.62,-90.25 57.62,-90.25 57.62,-54 113.62,-54 113.62,-90.25"/>
<text text-anchor="start" x="71" y="-67.85" font-family="Helvetica,sans-Serif" font-size="12.00">error</text>
<path fill="none" stroke="black" stroke-width="2" d="M70.04,-55C70.04,-55 101.21,-55 101.21,-55 106.92,-55 112.62,-60.71 112.62,-66.42 112.62,-66.42 112.62,-77.83 112.62,-77.83 112.62,-83.54 106.92,-89.25 101.21,-89.25 101.21,-89.25 70.04,-89.25 70.04,-89.25 64.33,-89.25 58.62,-83.54 58.62,-77.83 58.62,-77.83 58.62,-66.42 58.62,-66.42 58.62,-60.71 64.33,-55 70.04,-55"/>
</g>
<!-- error&#45;&gt;unbinding&#45;pending&#45;user&#45;action -->
<g id="edge5" class="edge transition">
<title>error&#45;&gt;unbinding&#45;pending&#45;user&#45;action</title>
<path fill="none" stroke="black" d="M113.59,-73.17C171.89,-75.5 314.04,-81.53 433,-89.38 435.21,-89.52 437.43,-89.67 439.68,-89.83"/>
<polygon fill="black" stroke="black" points="439.29,-93.31 449.52,-90.52 439.79,-86.32 439.29,-93.31"/>
<text text-anchor="start" x="189.25" y="-92.62" font-family="Helvetica,sans-Serif" font-size="10.00">Unbind Host &#45; Unbind during or after installation &#160;&#160;</text>
</g>
<!-- installed -->
<g id="node8" class="node state regular">
<title>installed</title>
<polygon fill="#ffffff" fill-opacity="0.003922" stroke="none" stroke-width="2" points="121.38,-36.25 49.88,-36.25 49.88,0 121.38,0 121.38,-36.25"/>
<text text-anchor="start" x="60.88" y="-13.85" font-family="Helvetica,sans-Serif" font-size="12.00">installed</text>
<path fill="none" stroke="black" stroke-width="2" d="M62.29,-1C62.29,-1 108.96,-1 108.96,-1 114.67,-1 120.38,-6.71 120.38,-12.42 120.38,-12.42 120.38,-23.83 120.38,-23.83 120.38,-29.54 114.67,-35.25 108.96,-35.25 108.96,-35.25 62.29,-35.25 62.29,-35.25 56.58,-35.25 50.88,-29.54 50.88,-23.83 50.88,-23.83 50.88,-12.42 50.88,-12.42 50.88,-6.71 56.58,-1 62.29,-1"/>
</g>
<!-- installed&#45;&gt;unbinding&#45;pending&#45;user&#45;action -->
<g id="edge6" class="edge transition">
<title>installed&#45;&gt;unbinding&#45;pending&#45;user&#45;action</title>
<path fill="none" stroke="black" d="M120.94,-19.88C183.59,-23.61 320.43,-34.11 433,-59.38 453.31,-63.93 475.04,-70.64 494.28,-77.25"/>
<polygon fill="black" stroke="black" points="492.97,-80.5 503.57,-80.51 495.29,-73.9 492.97,-80.5"/>
<text text-anchor="start" x="189.25" y="-62.62" font-family="Helvetica,sans-Serif" font-size="10.00">Unbind Host &#45; Unbind during or after installation &#160;&#160;</text>
</g>
<!-- insufficient -->
<g id="node9" class="node state regular">
<title>insufficient</title>
<polygon fill="#ffffff" fill-opacity="0.003922" stroke="none" stroke-width="2" points="129.25,-360.25 42,-360.25 42,-324 129.25,-324 129.25,-360.25"/>
<text text-anchor="start" x="53" y="-337.85" font-family="Helvetica,sans-Serif" font-size="12.00">insufficient</text>
<path fill="none" stroke="black" stroke-width="2" d="M54.42,-325C54.42,-325 116.83,-325 116.83,-325 122.54,-325 128.25,-330.71 128.25,-336.42 128.25,-336.42 128.25,-347.83 128.25,-347.83 128.25,-353.54 122.54,-359.25 116.83,-359.25 116.83,-359.25 54.42,-359.25 54.42,-359.25 48.71,-359.25 43,-353.54 43,-347.83 43,-347.83 43,-336.42 43,-336.42 43,-330.71 48.71,-325 54.42,-325"/>
</g>
<!-- insufficient&#45;&gt;unbinding -->
<g id="edge7" class="edge transition">
<title>insufficient&#45;&gt;unbinding</title>
<path fill="none" stroke="black" d="M129.13,-342.12C215.16,-342.12 409.5,-342.12 501.57,-342.12"/>
<polygon fill="black" stroke="black" points="501.29,-345.63 511.29,-342.13 501.29,-338.63 501.29,-345.63"/>
<text text-anchor="start" x="215.88" y="-345.38" font-family="Helvetica,sans-Serif" font-size="10.00">Unbind Host &#45; Unbind pre&#45;installation &#160;&#160;</text>
</g>
<!-- known -->
<g id="node10" class="node state regular">
<title>known</title>
<polygon fill="#ffffff" fill-opacity="0.003922" stroke="none" stroke-width="2" points="116.12,-306.25 55.12,-306.25 55.12,-270 116.12,-270 116.12,-306.25"/>
<text text-anchor="start" x="66.12" y="-283.85" font-family="Helvetica,sans-Serif" font-size="12.00">known</text>
<path fill="none" stroke="black" stroke-width="2" d="M67.54,-271C67.54,-271 103.71,-271 103.71,-271 109.42,-271 115.12,-276.71 115.12,-282.42 115.12,-282.42 115.12,-293.83 115.12,-293.83 115.12,-299.54 109.42,-305.25 103.71,-305.25 103.71,-305.25 67.54,-305.25 67.54,-305.25 61.83,-305.25 56.12,-299.54 56.12,-293.83 56.12,-293.83 56.12,-282.42 56.12,-282.42 56.12,-276.71 61.83,-271 67.54,-271"/>
</g>
<!-- known&#45;&gt;unbinding -->
<g id="edge8" class="edge transition">
<title>known&#45;&gt;unbinding</title>
<path fill="none" stroke="black" d="M115.86,-290.94C175.54,-296.76 315.66,-310.79 433,-325.38 455.49,-328.17 480.32,-331.62 501.44,-334.65"/>
<polygon fill="black" stroke="black" points="500.85,-338.11 511.25,-336.08 501.86,-331.18 500.85,-338.11"/>
<text text-anchor="start" x="215.88" y="-328.62" font-family="Helvetica,sans-Serif" font-size="10.00">Unbind Host &#45; Unbind pre&#45;installation &#160;&#160;</text>
</g>
<!-- pending&#45;for&#45;input -->
<g id="node11" class="node state regular">
<title>pending&#45;for&#45;input</title>
<polygon fill="#ffffff" fill-opacity="0.003922" stroke="none" stroke-width="2" points="148,-252.25 23.25,-252.25 23.25,-216 148,-216 148,-252.25"/>
<text text-anchor="start" x="34.25" y="-229.85" font-family="Helvetica,sans-Serif" font-size="12.00">pending&#45;for&#45;input</text>
<path fill="none" stroke="black" stroke-width="2" d="M35.67,-217C35.67,-217 135.58,-217 135.58,-217 141.29,-217 147,-222.71 147,-228.42 147,-228.42 147,-239.83 147,-239.83 147,-245.54 141.29,-251.25 135.58,-251.25 135.58,-251.25 35.67,-251.25 35.67,-251.25 29.96,-251.25 24.25,-245.54 24.25,-239.83 24.25,-239.83 24.25,-228.42 24.25,-228.42 24.25,-222.71 29.96,-217 35.67,-217"/>
</g>
<!-- pending&#45;for&#45;input&#45;&gt;unbinding -->
<g id="edge9" class="edge transition">
<title>pending&#45;for&#45;input&#45;&gt;unbinding</title>
<path fill="none" stroke="black" d="M147.7,-236.6C217.94,-240.82 336.06,-252.14 433,-282.38 460.9,-291.07 490.24,-305.78 512.79,-318.43"/>
<polygon fill="black" stroke="black" points="510.9,-321.38 521.32,-323.31 514.38,-315.31 510.9,-321.38"/>
<text text-anchor="start" x="215.88" y="-285.62" font-family="Helvetica,sans-Serif" font-size="10.00">Unbind Host &#45; Unbind pre&#45;installation &#160;&#160;</text>
</g>
</g>
</svg>
