<?xml version="1.0" encoding="UTF-8" standalone="no"?>
<!DOCTYPE svg PUBLIC "-//W3C//DTD SVG 1.1//EN"
 "http://www.w3.org/Graphics/SVG/1.1/DTD/svg11.dtd">
<!-- Generated by graphviz version 12.1.0 (20240811.2233)
 -->
<!-- Title: state transitions Pages: 1 -->
<svg width="663pt" height="476pt"
 viewBox="0.00 0.00 662.50 476.25" xmlns="http://www.w3.org/2000/svg" xmlns:xlink="http://www.w3.org/1999/xlink">
<g id="graph0" class="graph" transform="scale(1 1) rotate(0) translate(4 472.25)">
<title>state transitions</title>
<polygon fill="white" stroke="none" points="-4,4 -4,-472.25 658.5,-472.25 658.5,4 -4,4"/>
<!-- added&#45;to&#45;existing&#45;cluster -->
<g id="node1" class="node state regular">
<title>added&#45;to&#45;existing&#45;cluster</title>
<polygon fill="#ffffff" fill-opacity="0.003922" stroke="none" stroke-width="2" points="171.25,-198.25 0,-198.25 0,-162 171.25,-162 171.25,-198.25"/>
<text text-anchor="start" x="11" y="-175.85" font-family="Helvetica,sans-Serif" font-size="12.00">added&#45;to&#45;existing&#45;cluster</text>
<path fill="none" stroke="black" stroke-width="2" d="M12.42,-163C12.42,-163 158.83,-163 158.83,-163 164.54,-163 170.25,-168.71 170.25,-174.42 170.25,-174.42 170.25,-185.83 170.25,-185.83 170.25,-191.54 164.54,-197.25 158.83,-197.25 158.83,-197.25 12.42,-197.25 12.42,-197.25 6.71,-197.25 1,-191.54 1,-185.83 1,-185.83 1,-174.42 1,-174.42 1,-168.71 6.71,-163 12.42,-163"/>
</g>
<!-- unbinding&#45;pending&#45;user&#45;action -->
<g id="node2" class="node state regular">
<title>unbinding&#45;pending&#45;user&#45;action</title>
<polygon fill="#ffffff" fill-opacity="0.003922" stroke="none" stroke-width="2" points="654.5,-117.25 450.25,-117.25 450.25,-81 654.5,-81 654.5,-117.25"/>
<text text-anchor="start" x="461.25" y="-94.85" font-family="Helvetica,sans-Serif" font-size="12.00">unbinding&#45;pending&#45;user&#45;action</text>
<path fill="none" stroke="black" stroke-width="2" d="M462.67,-82C462.67,-82 642.08,-82 642.08,-82 647.79,-82 653.5,-87.71 653.5,-93.42 653.5,-93.42 653.5,-104.83 653.5,-104.83 653.5,-110.54 647.79,-116.25 642.08,-116.25 642.08,-116.25 462.67,-116.25 462.67,-116.25 456.96,-116.25 451.25,-110.54 451.25,-104.83 451.25,-104.83 451.25,-93.42 451.25,-93.42 451.25,-87.71 456.96,-82 462.67,-82"/>
</g>
<!-- added&#45;to&#45;existing&#45;cluster&#45;&gt;unbinding&#45;pending&#45;user&#45;action -->
<g id="edge1" class="edge transition">
<title>added&#45;to&#45;existing&#45;cluster&#45;&gt;unbinding&#45;pending&#45;user&#45;action</title>
<path fill="none" stroke="black" d="M171.13,-173.52C241.54,-167.02 344.18,-155.26 432.25,-136.12 451,-132.05 471.05,-126.37 489.24,-120.67"/>
<polygon fill="black" stroke="black" points="490.1,-124.07 498.56,-117.69 487.97,-117.4 490.1,-124.07"/>
<text text-anchor="start" x="189.25" y="-174.51" font-family="Helvetica,sans-Serif" font-size="10.00">Unbind Host &#45; Unbind during or after installation &#160;&#160;</text>
</g>
<!-- cancelled -->
<g id="node3" class="node state regular">
<title>cancelled</title>
<polygon fill="#ffffff" fill-opacity="0.003922" stroke="none" stroke-width="2" points="125.12,-144.25 46.12,-144.25 46.12,-108 125.12,-108 125.12,-144.25"/>
<text text-anchor="start" x="57.12" y="-121.85" font-family="Helvetica,sans-Serif" font-size="12.00">cancelled</text>
<path fill="none" stroke="black" stroke-width="2" d="M58.54,-109C58.54,-109 112.71,-109 112.71,-109 118.42,-109 124.12,-114.71 124.12,-120.42 124.12,-120.42 124.12,-131.83 124.12,-131.83 124.12,-137.54 118.42,-143.25 112.71,-143.25 112.71,-143.25 58.54,-143.25 58.54,-143.25 52.83,-143.25 47.12,-137.54 47.12,-131.83 47.12,-131.83 47.12,-120.42 47.12,-120.42 47.12,-114.71 52.83,-109 58.54,-109"/>
</g>
<!-- cancelled&#45;&gt;unbinding&#45;pending&#45;user&#45;action -->
<g id="edge2" class="edge transition">
<title>cancelled&#45;&gt;unbinding&#45;pending&#45;user&#45;action</title>
<path fill="none" stroke="black" d="M125.05,-123.89C193.18,-119.93 337.53,-111.55 439.33,-105.63"/>
<polygon fill="black" stroke="black" points="439.3,-109.14 449.08,-105.07 438.9,-102.15 439.3,-109.14"/>
<text text-anchor="start" x="189.25" y="-122.85" font-family="Helvetica,sans-Serif" font-size="10.00">Unbind Host &#45; Unbind during or after installation &#160;&#160;</text>
</g>
<!-- disconnected -->
<g id="node4" class="node state regular">
<title>disconnected</title>
<polygon fill="#ffffff" fill-opacity="0.003922" stroke="none" stroke-width="2" points="136.38,-468.25 34.88,-468.25 34.88,-432 136.38,-432 136.38,-468.25"/>
<text text-anchor="start" x="45.88" y="-445.85" font-family="Helvetica,sans-Serif" font-size="12.00">disconnected</text>
<path fill="none" stroke="black" stroke-width="2" d="M47.29,-433C47.29,-433 123.96,-433 123.96,-433 129.67,-433 135.38,-438.71 135.38,-444.42 135.38,-444.42 135.38,-455.83 135.38,-455.83 135.38,-461.54 129.67,-467.25 123.96,-467.25 123.96,-467.25 47.29,-467.25 47.29,-467.25 41.58,-467.25 35.88,-461.54 35.88,-455.83 35.88,-455.83 35.88,-444.42 35.88,-444.42 35.88,-438.71 41.58,-433 47.29,-433"/>
</g>
<!-- unbinding -->
<g id="node5" class="node state regular">
<title>unbinding</title>
<polygon fill="#ffffff" fill-opacity="0.003922" stroke="none" stroke-width="2" points="592.62,-360.25 512.12,-360.25 512.12,-324 592.62,-324 592.62,-360.25"/>
<text text-anchor="start" x="523.12" y="-337.85" font-family="Helvetica,sans-Serif" font-size="12.00">unbinding</text>
<path fill="none" stroke="black" stroke-width="2" d="M524.54,-325C524.54,-325 580.21,-325 580.21,-325 585.92,-325 591.62,-330.71 591.62,-336.42 591.62,-336.42 591.62,-347.83 591.62,-347.83 591.62,-353.54 585.92,-359.25 580.21,-359.25 580.21,-359.25 524.54,-359.25 524.54,-359.25 518.83,-359.25 513.12,-353.54 513.12,-347.83 513.12,-347.83 513.12,-336.42 513.12,-336.42 513.12,-330.71 518.83,-325 524.54,-325"/>
</g>
<!-- disconnected&#45;&gt;unbinding -->
<g id="edge3" class="edge transition">
<title>disconnected&#45;&gt;unbinding</title>
<path fill="none" stroke="black" d="M136.1,-448.34C204.2,-444.74 330.03,-434 432.25,-402.12 460.43,-393.34 490.08,-378.42 512.76,-365.66"/>
<polygon fill="black" stroke="black" points="514.41,-368.75 521.34,-360.74 510.92,-362.68 514.41,-368.75"/>
<text text-anchor="start" x="215.5" y="-447.41" font-family="Helvetica,sans-Serif" font-size="10.00">Unbind Host &#45; Unbind pre&#45;installation &#160;&#160;</text>
</g>
<!-- discovering -->
<g id="node6" class="node state regular">
<title>discovering</title>
<polygon fill="#ffffff" fill-opacity="0.003922" stroke="none" stroke-width="2" points="130.75,-414.25 40.5,-414.25 40.5,-378 130.75,-378 130.75,-414.25"/>
<text text-anchor="start" x="51.5" y="-391.85" font-family="Helvetica,sans-Serif" font-size="12.00">discovering</text>
<path fill="none" stroke="black" stroke-width="2" d="M52.92,-379C52.92,-379 118.33,-379 118.33,-379 124.04,-379 129.75,-384.71 129.75,-390.42 129.75,-390.42 129.75,-401.83 129.75,-401.83 129.75,-407.54 124.04,-413.25 118.33,-413.25 118.33,-413.25 52.92,-413.25 52.92,-413.25 47.21,-413.25 41.5,-407.54 41.5,-401.83 41.5,-401.83 41.5,-390.42 41.5,-390.42 41.5,-384.71 47.21,-379 52.92,-379"/>
</g>
<!-- discovering&#45;&gt;unbinding -->
<g id="edge4" class="edge transition">
<title>discovering&#45;&gt;unbinding</title>
<path fill="none" stroke="black" d="M130.6,-391.92C196.32,-385.51 324.01,-372.64 432.25,-359.12 454.81,-356.31 479.72,-352.81 500.91,-349.73"/>
<polygon fill="black" stroke="black" points="501.37,-353.2 510.76,-348.28 500.35,-346.27 501.37,-353.2"/>
<text text-anchor="start" x="215.5" y="-388.86" font-family="Helvetica,sans-Serif" font-size="10.00">Unbind Host &#45; Unbind pre&#45;installation &#160;&#160;</text>
</g>
<!-- error -->
<g id="node7" class="node state regular">
<title>error</title>
<polygon fill="#ffffff" fill-opacity="0.003922" stroke="none" stroke-width="2" points="113.62,-90.25 57.62,-90.25 57.62,-54 113.62,-54 113.62,-90.25"/>
<text text-anchor="start" x="71" y="-67.85" font-family="Helvetica,sans-Serif" font-size="12.00">error</text>
<path fill="none" stroke="black" stroke-width="2" d="M70.04,-55C70.04,-55 101.21,-55 101.21,-55 106.92,-55 112.62,-60.71 112.62,-66.42 112.62,-66.42 112.62,-77.83 112.62,-77.83 112.62,-83.54 106.92,-89.25 101.21,-89.25 101.21,-89.25 70.04,-89.25 70.04,-89.25 64.33,-89.25 58.62,-83.54 58.62,-77.83 58.62,-77.83 58.62,-66.42 58.62,-66.42 58.62,-60.71 64.33,-55 70.04,-55"/>
</g>
<!-- error&#45;&gt;unbinding&#45;pending&#45;user&#45;action -->
<g id="edge5" class="edge transition">
<title>error&#45;&gt;unbinding&#45;pending&#45;user&#45;action</title>
<path fill="none" stroke="black" d="M113.53,-73.18C171.71,-75.51 313.55,-81.56 432.25,-89.38 434.46,-89.52 436.7,-89.67 438.95,-89.83"/>
<polygon fill="black" stroke="black" points="438.6,-93.31 448.82,-90.52 439.09,-86.33 438.6,-93.31"/>
<text text-anchor="start" x="189.25" y="-92.62" font-family="Helvetica,sans-Serif" font-size="10.00">Unbind Host &#45; Unbind during or after installation &#160;&#160;</text>
</g>
<!-- installed -->
<g id="node8" class="node state regular">
<title>installed</title>
<polygon fill="#ffffff" fill-opacity="0.003922" stroke="none" stroke-width="2" points="121.38,-36.25 49.88,-36.25 49.88,0 121.38,0 121.38,-36.25"/>
<text text-anchor="start" x="60.88" y="-13.85" font-family="Helvetica,sans-Serif" font-size="12.00">installed</text>
<path fill="none" stroke="black" stroke-width="2" d="M62.29,-1C62.29,-1 108.96,-1 108.96,-1 114.67,-1 120.38,-6.71 120.38,-12.42 120.38,-12.42 120.38,-23.83 120.38,-23.83 120.38,-29.54 114.67,-35.25 108.96,-35.25 108.96,-35.25 62.29,-35.25 62.29,-35.25 56.58,-35.25 50.88,-29.54 50.88,-23.83 50.88,-23.83 50.88,-12.42 50.88,-12.42 50.88,-6.71 56.58,-1 62.29,-1"/>
</g>
<!-- installed&#45;&gt;unbinding&#45;pending&#45;user&#45;action -->
<g id="edge6" class="edge transition">
<title>installed&#45;&gt;unbinding&#45;pending&#45;user&#45;action</title>
<path fill="none" stroke="black" d="M121.36,-19.93C184.09,-23.71 320.21,-34.27 432.25,-59.38 452.62,-63.94 474.41,-70.65 493.72,-77.26"/>
<polygon fill="black" stroke="black" points="492.44,-80.52 503.04,-80.52 494.75,-73.91 492.44,-80.52"/>
<text text-anchor="start" x="189.25" y="-62.62" font-family="Helvetica,sans-Serif" font-size="10.00">Unbind Host &#45; Unbind during or after installation &#160;&#160;</text>
</g>
<!-- insufficient -->
<g id="node9" class="node state regular">
<title>insufficient</title>
<polygon fill="#ffffff" fill-opacity="0.003922" stroke="none" stroke-width="2" points="128.88,-360.25 42.38,-360.25 42.38,-324 128.88,-324 128.88,-360.25"/>
<text text-anchor="start" x="53.38" y="-337.85" font-family="Helvetica,sans-Serif" font-size="12.00">insufficient</text>
<path fill="none" stroke="black" stroke-width="2" d="M54.79,-325C54.79,-325 116.46,-325 116.46,-325 122.17,-325 127.88,-330.71 127.88,-336.42 127.88,-336.42 127.88,-347.83 127.88,-347.83 127.88,-353.54 122.17,-359.25 116.46,-359.25 116.46,-359.25 54.79,-359.25 54.79,-359.25 49.08,-359.25 43.38,-353.54 43.38,-347.83 43.38,-347.83 43.38,-336.42 43.38,-336.42 43.38,-330.71 49.08,-325 54.79,-325"/>
</g>
<!-- insufficient&#45;&gt;unbinding -->
<g id="edge7" class="edge transition">
<title>insufficient&#45;&gt;unbinding</title>
<path fill="none" stroke="black" d="M128.69,-342.12C214.4,-342.12 408.94,-342.12 501.13,-342.12"/>
<polygon fill="black" stroke="black" points="500.86,-345.63 510.86,-342.13 500.86,-338.63 500.86,-345.63"/>
<text text-anchor="start" x="215.5" y="-345.38" font-family="Helvetica,sans-Serif" font-size="10.00">Unbind Host &#45; Unbind pre&#45;installation &#160;&#160;</text>
</g>
<!-- known -->
<g id="node10" class="node state regular">
<title>known</title>
<polygon fill="#ffffff" fill-opacity="0.003922" stroke="none" stroke-width="2" points="116.12,-306.25 55.12,-306.25 55.12,-270 116.12,-270 116.12,-306.25"/>
<text text-anchor="start" x="66.12" y="-283.85" font-family="Helvetica,sans-Serif" font-size="12.00">known</text>
<path fill="none" stroke="black" stroke-width="2" d="M67.54,-271C67.54,-271 103.71,-271 103.71,-271 109.42,-271 115.12,-276.71 115.12,-282.42 115.12,-282.42 115.12,-293.83 115.12,-293.83 115.12,-299.54 109.42,-305.25 103.71,-305.25 103.71,-305.25 67.54,-305.25 67.54,-305.25 61.83,-305.25 56.12,-299.54 56.12,-293.83 56.12,-293.83 56.12,-282.42 56.12,-282.42 56.12,-276.71 61.83,-271 67.54,-271"/>
</g>
<!-- known&#45;&gt;unbinding -->
<g id="edge8" class="edge transition">
<title>known&#45;&gt;unbinding</title>
<path fill="none" stroke="black" d="M115.79,-290.95C175.34,-296.78 315.16,-310.84 432.25,-325.38 454.81,-328.18 479.72,-331.62 500.9,-334.66"/>
<polygon fill="black" stroke="black" points="500.35,-338.12 510.75,-336.08 501.36,-331.19 500.35,-338.12"/>
<text text-anchor="start" x="215.5" y="-328.62" font-family="Helvetica,sans-Serif" font-size="10.00">Unbind Host &#45; Unbind pre&#45;installation &#160;&#160;</text>
</g>
<!-- pending&#45;for&#45;input -->
<g id="node11" class="node state regular">
<title>pending&#45;for&#45;input</title>
<polygon fill="#ffffff" fill-opacity="0.003922" stroke="none" stroke-width="2" points="148.38,-252.25 22.88,-252.25 22.88,-216 148.38,-216 148.38,-252.25"/>
<text text-anchor="start" x="33.88" y="-229.85" font-family="Helvetica,sans-Serif" font-size="12.00">pending&#45;for&#45;input</text>
<path fill="none" stroke="black" stroke-width="2" d="M35.29,-217C35.29,-217 135.96,-217 135.96,-217 141.67,-217 147.38,-222.71 147.38,-228.42 147.38,-228.42 147.38,-239.83 147.38,-239.83 147.38,-245.54 141.67,-251.25 135.96,-251.25 135.96,-251.25 35.29,-251.25 35.29,-251.25 29.58,-251.25 23.88,-245.54 23.88,-239.83 23.88,-239.83 23.88,-228.42 23.88,-228.42 23.88,-222.71 29.58,-217 35.29,-217"/>
</g>
<!-- pending&#45;for&#45;input&#45;&gt;unbinding -->
<g id="edge9" class="edge transition">
<title>pending&#45;for&#45;input&#45;&gt;unbinding</title>
<path fill="none" stroke="black" d="M148.19,-236.68C218.35,-240.96 335.79,-252.35 432.25,-282.38 460.22,-291.08 489.66,-305.79 512.28,-318.44"/>
<polygon fill="black" stroke="black" points="510.42,-321.41 520.84,-323.32 513.89,-315.33 510.42,-321.41"/>
<text text-anchor="start" x="215.5" y="-285.62" font-family="Helvetica,sans-Serif" font-size="10.00">Unbind Host &#45; Unbind pre&#45;installation &#160;&#160;</text>
</g>
</g>
</svg>
