<?xml version="1.0" encoding="UTF-8" standalone="no"?>
<!DOCTYPE svg PUBLIC "-//W3C//DTD SVG 1.1//EN"
 "http://www.w3.org/Graphics/SVG/1.1/DTD/svg11.dtd">
<!-- Generated by graphviz version 12.1.0 (20240811.2233)
 -->
<!-- Title: state transitions Pages: 1 -->
<svg width="789pt" height="808pt"
 viewBox="0.00 0.00 789.00 808.00" xmlns="http://www.w3.org/2000/svg" xmlns:xlink="http://www.w3.org/1999/xlink">
<g id="graph0" class="graph" transform="scale(1 1) rotate(0) translate(4 804)">
<title>state transitions</title>
<polygon fill="white" stroke="none" points="-4,4 -4,-804 785,-804 785,4 -4,4"/>
<!-- added&#45;to&#45;existing&#45;cluster -->
<g id="node1" class="node state regular">
<title>added&#45;to&#45;existing&#45;cluster</title>
<polygon fill="#ffffff" fill-opacity="0.003922" stroke="none" stroke-width="2" points="244.25,-144.25 73,-144.25 73,-108 244.25,-108 244.25,-144.25"/>
<text text-anchor="start" x="84" y="-121.85" font-family="Helvetica,sans-Serif" font-size="12.00">added&#45;to&#45;existing&#45;cluster</text>
<path fill="none" stroke="black" stroke-width="2" d="M85.42,-109C85.42,-109 231.83,-109 231.83,-109 237.54,-109 243.25,-114.71 243.25,-120.42 243.25,-120.42 243.25,-131.83 243.25,-131.83 243.25,-137.54 237.54,-143.25 231.83,-143.25 231.83,-143.25 85.42,-143.25 85.42,-143.25 79.71,-143.25 74,-137.54 74,-131.83 74,-131.83 74,-120.42 74,-120.42 74,-114.71 79.71,-109 85.42,-109"/>
</g>
<!-- installing&#45;pending&#45;user&#45;action -->
<g id="node2" class="node state regular">
<title>installing&#45;pending&#45;user&#45;action</title>
<polygon fill="#ffffff" fill-opacity="0.003922" stroke="none" stroke-width="2" points="771,-138.25 572.75,-138.25 572.75,-102 771,-102 771,-138.25"/>
<text text-anchor="start" x="583.75" y="-115.85" font-family="Helvetica,sans-Serif" font-size="12.00">installing&#45;pending&#45;user&#45;action</text>
<path fill="none" stroke="black" stroke-width="2" d="M585.17,-103C585.17,-103 758.58,-103 758.58,-103 764.29,-103 770,-108.71 770,-114.42 770,-114.42 770,-125.83 770,-125.83 770,-131.54 764.29,-137.25 758.58,-137.25 758.58,-137.25 585.17,-137.25 585.17,-137.25 579.46,-137.25 573.75,-131.54 573.75,-125.83 573.75,-125.83 573.75,-114.42 573.75,-114.42 573.75,-108.71 579.46,-103 585.17,-103"/>
</g>
<!-- added&#45;to&#45;existing&#45;cluster&#45;&gt;installing&#45;pending&#45;user&#45;action -->
<g id="edge1" class="edge transition">
<title>added&#45;to&#45;existing&#45;cluster&#45;&gt;installing&#45;pending&#45;user&#45;action</title>
<path fill="none" stroke="black" d="M244.05,-125.13C330.85,-124.12 466.39,-122.52 561.39,-121.41"/>
<polygon fill="black" stroke="black" points="561.3,-124.91 571.26,-121.29 561.21,-117.91 561.3,-124.91"/>
<text text-anchor="start" x="306.12" y="-127.93" font-family="Helvetica,sans-Serif" font-size="10.00">Register Host &#45; Wrong boot order detection &#160;&#160;</text>
</g>
<!-- installing&#45;pending&#45;user&#45;action&#45;&gt;installing&#45;pending&#45;user&#45;action -->
<g id="edge11" class="edge transition">
<title>installing&#45;pending&#45;user&#45;action&#45;&gt;installing&#45;pending&#45;user&#45;action</title>
<path fill="none" stroke="black" d="M625.74,-137.97C617.9,-147.53 633.28,-156.25 671.88,-156.25 694.19,-156.25 708.74,-153.34 715.53,-149.03"/>
<polygon fill="black" stroke="black" points="718.91,-149.97 717.68,-139.45 712.08,-148.44 718.91,-149.97"/>
<text text-anchor="start" x="562.75" y="-159.5" font-family="Helvetica,sans-Serif" font-size="10.00">Register Host &#45; Wrong boot order detection &#160;&#160;</text>
</g>
<!-- binding -->
<g id="node3" class="node state regular">
<title>binding</title>
<polygon fill="#ffffff" fill-opacity="0.003922" stroke="none" stroke-width="2" points="191.38,-715.25 125.88,-715.25 125.88,-679 191.38,-679 191.38,-715.25"/>
<text text-anchor="start" x="136.88" y="-692.85" font-family="Helvetica,sans-Serif" font-size="12.00">binding</text>
<path fill="none" stroke="black" stroke-width="2" d="M138.29,-680C138.29,-680 178.96,-680 178.96,-680 184.67,-680 190.38,-685.71 190.38,-691.42 190.38,-691.42 190.38,-702.83 190.38,-702.83 190.38,-708.54 184.67,-714.25 178.96,-714.25 178.96,-714.25 138.29,-714.25 138.29,-714.25 132.58,-714.25 126.88,-708.54 126.88,-702.83 126.88,-702.83 126.88,-691.42 126.88,-691.42 126.88,-685.71 132.58,-680 138.29,-680"/>
</g>
<!-- discovering -->
<g id="node4" class="node state regular">
<title>discovering</title>
<polygon fill="#ffffff" fill-opacity="0.003922" stroke="none" stroke-width="2" points="717,-472.25 626.75,-472.25 626.75,-436 717,-436 717,-472.25"/>
<text text-anchor="start" x="637.75" y="-449.85" font-family="Helvetica,sans-Serif" font-size="12.00">discovering</text>
<path fill="none" stroke="black" stroke-width="2" d="M639.17,-437C639.17,-437 704.58,-437 704.58,-437 710.29,-437 716,-442.71 716,-448.42 716,-448.42 716,-459.83 716,-459.83 716,-465.54 710.29,-471.25 704.58,-471.25 704.58,-471.25 639.17,-471.25 639.17,-471.25 633.46,-471.25 627.75,-465.54 627.75,-459.83 627.75,-459.83 627.75,-448.42 627.75,-448.42 627.75,-442.71 633.46,-437 639.17,-437"/>
</g>
<!-- binding&#45;&gt;discovering -->
<g id="edge2" class="edge transition">
<title>binding&#45;&gt;discovering</title>
<path fill="none" stroke="black" d="M191.21,-705.03C262.57,-720.99 439.02,-749.52 554.75,-675.12 623.29,-631.06 653.79,-532.53 665.16,-483.29"/>
<polygon fill="black" stroke="black" points="668.55,-484.17 667.26,-473.66 661.71,-482.68 668.55,-484.17"/>
<text text-anchor="start" x="336.5" y="-727.2" font-family="Helvetica,sans-Serif" font-size="10.00">Register Host &#45; Re&#45;registration &#160;&#160;</text>
</g>
<!-- discovering&#45;&gt;discovering -->
<g id="edge4" class="edge transition">
<title>discovering&#45;&gt;discovering</title>
<path fill="none" stroke="black" d="M626.77,-470.85C616.74,-480.84 631.78,-490.25 671.88,-490.25 695.37,-490.25 710.26,-487.02 716.55,-482.33"/>
<polygon fill="black" stroke="black" points="720.04,-482.49 716.93,-472.36 713.05,-482.22 720.04,-482.49"/>
<text text-anchor="start" x="593.12" y="-493.5" font-family="Helvetica,sans-Serif" font-size="10.00">Register Host &#45; Re&#45;registration &#160;&#160;</text>
</g>
<!-- disconnected -->
<g id="node5" class="node state regular">
<title>disconnected</title>
<polygon fill="#ffffff" fill-opacity="0.003922" stroke="none" stroke-width="2" points="209.38,-661.25 107.88,-661.25 107.88,-625 209.38,-625 209.38,-661.25"/>
<text text-anchor="start" x="118.88" y="-638.85" font-family="Helvetica,sans-Serif" font-size="12.00">disconnected</text>
<path fill="none" stroke="black" stroke-width="2" d="M120.29,-626C120.29,-626 196.96,-626 196.96,-626 202.67,-626 208.38,-631.71 208.38,-637.42 208.38,-637.42 208.38,-648.83 208.38,-648.83 208.38,-654.54 202.67,-660.25 196.96,-660.25 196.96,-660.25 120.29,-660.25 120.29,-660.25 114.58,-660.25 108.88,-654.54 108.88,-648.83 108.88,-648.83 108.88,-637.42 108.88,-637.42 108.88,-631.71 114.58,-626 120.29,-626"/>
</g>
<!-- disconnected&#45;&gt;discovering -->
<g id="edge3" class="edge transition">
<title>disconnected&#45;&gt;discovering</title>
<path fill="none" stroke="black" d="M209.2,-651.12C287.9,-661.25 443.84,-670.7 554.75,-609.12 606.03,-580.65 641.35,-519.01 658.64,-482.62"/>
<polygon fill="black" stroke="black" points="661.8,-484.13 662.8,-473.58 655.44,-481.21 661.8,-484.13"/>
<text text-anchor="start" x="336.5" y="-661.77" font-family="Helvetica,sans-Serif" font-size="10.00">Register Host &#45; Re&#45;registration &#160;&#160;</text>
</g>
<!-- error -->
<g id="node6" class="node state regular">
<title>error</title>
<polygon fill="#ffffff" fill-opacity="0.003922" stroke="none" stroke-width="2" points="699.88,-42.25 643.88,-42.25 643.88,-6 699.88,-6 699.88,-42.25"/>
<text text-anchor="start" x="657.25" y="-19.85" font-family="Helvetica,sans-Serif" font-size="12.00">error</text>
<path fill="none" stroke="black" stroke-width="2" d="M656.29,-7C656.29,-7 687.46,-7 687.46,-7 693.17,-7 698.88,-12.71 698.88,-18.42 698.88,-18.42 698.88,-29.83 698.88,-29.83 698.88,-35.54 693.17,-41.25 687.46,-41.25 687.46,-41.25 656.29,-41.25 656.29,-41.25 650.58,-41.25 644.88,-35.54 644.88,-29.83 644.88,-29.83 644.88,-18.42 644.88,-18.42 644.88,-12.71 650.58,-7 656.29,-7"/>
</g>
<!-- error&#45;&gt;error -->
<g id="edge5" class="edge transition">
<title>error&#45;&gt;error</title>
<path fill="none" stroke="black" d="M643.99,-31.4C609.7,-43.89 619,-60.25 671.88,-60.25 718.56,-60.25 731.27,-47.5 710.02,-35.91"/>
<polygon fill="black" stroke="black" points="711.71,-32.83 701.15,-32.01 708.89,-39.24 711.71,-32.83"/>
<text text-anchor="start" x="579.25" y="-63.5" font-family="Helvetica,sans-Serif" font-size="10.00">Register Host &#45; Register during error &#160;&#160;</text>
</g>
<!-- initial -->
<g id="node7" class="node state regular">
<title>initial</title>
<polygon fill="#ffffff" fill-opacity="0.003922" stroke="none" stroke-width="2" points="186.62,-607.25 130.62,-607.25 130.62,-571 186.62,-571 186.62,-607.25"/>
<text text-anchor="start" x="142.88" y="-584.85" font-family="Helvetica,sans-Serif" font-size="12.00">initial</text>
<path fill="none" stroke="black" stroke-width="2" d="M143.04,-572C143.04,-572 174.21,-572 174.21,-572 179.92,-572 185.62,-577.71 185.62,-583.42 185.62,-583.42 185.62,-594.83 185.62,-594.83 185.62,-600.54 179.92,-606.25 174.21,-606.25 174.21,-606.25 143.04,-606.25 143.04,-606.25 137.33,-606.25 131.62,-600.54 131.62,-594.83 131.62,-594.83 131.62,-583.42 131.62,-583.42 131.62,-577.71 137.33,-572 143.04,-572"/>
</g>
<!-- initial&#45;&gt;discovering -->
<g id="edge6" class="edge transition">
<title>initial&#45;&gt;discovering</title>
<path fill="none" stroke="black" d="M186.24,-590.9C251.69,-594.28 424.61,-597.07 554.75,-544.12 590.21,-529.7 624,-501.26 645.9,-480.19"/>
<polygon fill="black" stroke="black" points="648.22,-482.81 652.88,-473.3 643.31,-477.83 648.22,-482.81"/>
<text text-anchor="start" x="329.38" y="-595.4" font-family="Helvetica,sans-Serif" font-size="10.00">Register Host &#45; Initial registration &#160;&#160;</text>
</g>
<!-- installed -->
<g id="node8" class="node state regular">
<title>installed</title>
<polygon fill="#ffffff" fill-opacity="0.003922" stroke="none" stroke-width="2" points="194.38,-769.25 122.88,-769.25 122.88,-733 194.38,-733 194.38,-769.25"/>
<text text-anchor="start" x="133.88" y="-746.85" font-family="Helvetica,sans-Serif" font-size="12.00">installed</text>
<path fill="none" stroke="black" stroke-width="2" d="M135.29,-734C135.29,-734 181.96,-734 181.96,-734 187.67,-734 193.38,-739.71 193.38,-745.42 193.38,-745.42 193.38,-756.83 193.38,-756.83 193.38,-762.54 187.67,-768.25 181.96,-768.25 181.96,-768.25 135.29,-768.25 135.29,-768.25 129.58,-768.25 123.88,-762.54 123.88,-756.83 123.88,-756.83 123.88,-745.42 123.88,-745.42 123.88,-739.71 129.58,-734 135.29,-734"/>
</g>
<!-- installed&#45;&gt;installed -->
<g id="edge7" class="edge transition">
<title>installed&#45;&gt;installed</title>
<path fill="none" stroke="black" d="M122.92,-761.66C98.35,-773.56 110.26,-787.25 158.62,-787.25 198.68,-787.25 213.73,-777.86 203.77,-767.88"/>
<polygon fill="black" stroke="black" points="205.87,-765.08 195.6,-762.5 202.02,-770.92 205.87,-765.08"/>
<text text-anchor="start" x="54.75" y="-790.5" font-family="Helvetica,sans-Serif" font-size="10.00">Register Host &#45; Register post&#45;installation &#160;&#160;</text>
</g>
<!-- installing -->
<g id="node9" class="node state regular">
<title>installing</title>
<polygon fill="#ffffff" fill-opacity="0.003922" stroke="none" stroke-width="2" points="195.88,-36.25 121.38,-36.25 121.38,0 195.88,0 195.88,-36.25"/>
<text text-anchor="start" x="132.38" y="-13.85" font-family="Helvetica,sans-Serif" font-size="12.00">installing</text>
<path fill="none" stroke="black" stroke-width="2" d="M133.79,-1C133.79,-1 183.46,-1 183.46,-1 189.17,-1 194.88,-6.71 194.88,-12.42 194.88,-12.42 194.88,-23.83 194.88,-23.83 194.88,-29.54 189.17,-35.25 183.46,-35.25 183.46,-35.25 133.79,-35.25 133.79,-35.25 128.08,-35.25 122.38,-29.54 122.38,-23.83 122.38,-23.83 122.38,-12.42 122.38,-12.42 122.38,-6.71 128.08,-1 133.79,-1"/>
</g>
<!-- installing&#45;&gt;error -->
<g id="edge8" class="edge transition">
<title>installing&#45;&gt;error</title>
<path fill="none" stroke="black" d="M195.86,-17.78C265.43,-17.23 422.56,-16.46 554.75,-19.38 580.86,-19.95 610.25,-21.16 632.94,-22.21"/>
<polygon fill="black" stroke="black" points="632.47,-25.69 642.62,-22.67 632.8,-18.7 632.47,-25.69"/>
<text text-anchor="start" x="306.88" y="-22.62" font-family="Helvetica,sans-Serif" font-size="10.00">Register Host &#45; Register during installation &#160;&#160;</text>
</g>
<!-- installing&#45;in&#45;progress -->
<g id="node10" class="node state regular">
<title>installing&#45;in&#45;progress</title>
<polygon fill="#ffffff" fill-opacity="0.003922" stroke="none" stroke-width="2" points="231.12,-90.25 86.12,-90.25 86.12,-54 231.12,-54 231.12,-90.25"/>
<text text-anchor="start" x="97.12" y="-67.85" font-family="Helvetica,sans-Serif" font-size="12.00">installing&#45;in&#45;progress</text>
<path fill="none" stroke="black" stroke-width="2" d="M98.54,-55C98.54,-55 218.71,-55 218.71,-55 224.42,-55 230.12,-60.71 230.12,-66.42 230.12,-66.42 230.12,-77.83 230.12,-77.83 230.12,-83.54 224.42,-89.25 218.71,-89.25 218.71,-89.25 98.54,-89.25 98.54,-89.25 92.83,-89.25 87.12,-83.54 87.12,-77.83 87.12,-77.83 87.12,-66.42 87.12,-66.42 87.12,-60.71 92.83,-55 98.54,-55"/>
</g>
<!-- installing&#45;in&#45;progress&#45;&gt;installing&#45;pending&#45;user&#45;action -->
<g id="edge9" class="edge transition">
<title>installing&#45;in&#45;progress&#45;&gt;installing&#45;pending&#45;user&#45;action</title>
<path fill="none" stroke="black" d="M231.11,-76.81C310.34,-82.27 441.85,-92.12 554.75,-104.38 557.08,-104.63 559.44,-104.89 561.81,-105.16"/>
<polygon fill="black" stroke="black" points="561.19,-108.61 571.53,-106.3 562.01,-101.66 561.19,-108.61"/>
<text text-anchor="start" x="306.12" y="-107.62" font-family="Helvetica,sans-Serif" font-size="10.00">Register Host &#45; Wrong boot order detection &#160;&#160;</text>
</g>
<!-- installing&#45;in&#45;progress&#45;&gt;error -->
<g id="edge10" class="edge transition">
<title>installing&#45;in&#45;progress&#45;&gt;error</title>
<path fill="none" stroke="black" d="M230.98,-65.43C340.75,-55.12 547.29,-35.73 632.55,-27.72"/>
<polygon fill="black" stroke="black" points="632.86,-31.21 642.49,-26.79 632.2,-24.24 632.86,-31.21"/>
<text text-anchor="start" x="306.88" y="-63.78" font-family="Helvetica,sans-Serif" font-size="10.00">Register Host &#45; Register during installation &#160;&#160;</text>
</g>
<!-- insufficient -->
<g id="node11" class="node state regular">
<title>insufficient</title>
<polygon fill="#ffffff" fill-opacity="0.003922" stroke="none" stroke-width="2" points="201.88,-553.25 115.38,-553.25 115.38,-517 201.88,-517 201.88,-553.25"/>
<text text-anchor="start" x="126.38" y="-530.85" font-family="Helvetica,sans-Serif" font-size="12.00">insufficient</text>
<path fill="none" stroke="black" stroke-width="2" d="M127.79,-518C127.79,-518 189.46,-518 189.46,-518 195.17,-518 200.88,-523.71 200.88,-529.42 200.88,-529.42 200.88,-540.83 200.88,-540.83 200.88,-546.54 195.17,-552.25 189.46,-552.25 189.46,-552.25 127.79,-552.25 127.79,-552.25 122.08,-552.25 116.38,-546.54 116.38,-540.83 116.38,-540.83 116.38,-529.42 116.38,-529.42 116.38,-523.71 122.08,-518 127.79,-518"/>
</g>
<!-- insufficient&#45;&gt;discovering -->
<g id="edge12" class="edge transition">
<title>insufficient&#45;&gt;discovering</title>
<path fill="none" stroke="black" d="M201.59,-533.18C274.23,-529.2 427.83,-518.13 554.75,-491.12 575.09,-486.8 596.92,-480.34 616.1,-474.03"/>
<polygon fill="black" stroke="black" points="616.96,-477.43 625.33,-470.93 614.73,-470.8 616.96,-477.43"/>
<text text-anchor="start" x="336.5" y="-530.91" font-family="Helvetica,sans-Serif" font-size="10.00">Register Host &#45; Re&#45;registration &#160;&#160;</text>
</g>
<!-- known -->
<g id="node12" class="node state regular">
<title>known</title>
<polygon fill="#ffffff" fill-opacity="0.003922" stroke="none" stroke-width="2" points="189.12,-499.25 128.12,-499.25 128.12,-463 189.12,-463 189.12,-499.25"/>
<text text-anchor="start" x="139.12" y="-476.85" font-family="Helvetica,sans-Serif" font-size="12.00">known</text>
<path fill="none" stroke="black" stroke-width="2" d="M140.54,-464C140.54,-464 176.71,-464 176.71,-464 182.42,-464 188.12,-469.71 188.12,-475.42 188.12,-475.42 188.12,-486.83 188.12,-486.83 188.12,-492.54 182.42,-498.25 176.71,-498.25 176.71,-498.25 140.54,-498.25 140.54,-498.25 134.83,-498.25 129.12,-492.54 129.12,-486.83 129.12,-486.83 129.12,-475.42 129.12,-475.42 129.12,-469.71 134.83,-464 140.54,-464"/>
</g>
<!-- known&#45;&gt;discovering -->
<g id="edge13" class="edge transition">
<title>known&#45;&gt;discovering</title>
<path fill="none" stroke="black" d="M188.95,-479.58C271.65,-475.21 507.76,-462.74 615.75,-457.04"/>
<polygon fill="black" stroke="black" points="615.72,-460.54 625.52,-456.52 615.35,-453.55 615.72,-460.54"/>
<text text-anchor="start" x="336.5" y="-477.85" font-family="Helvetica,sans-Serif" font-size="10.00">Register Host &#45; Re&#45;registration &#160;&#160;</text>
</g>
<!-- pending&#45;for&#45;input -->
<g id="node13" class="node state regular">
<title>pending&#45;for&#45;input</title>
<polygon fill="#ffffff" fill-opacity="0.003922" stroke="none" stroke-width="2" points="221.38,-445.25 95.88,-445.25 95.88,-409 221.38,-409 221.38,-445.25"/>
<text text-anchor="start" x="106.88" y="-422.85" font-family="Helvetica,sans-Serif" font-size="12.00">pending&#45;for&#45;input</text>
<path fill="none" stroke="black" stroke-width="2" d="M108.29,-410C108.29,-410 208.96,-410 208.96,-410 214.67,-410 220.38,-415.71 220.38,-421.42 220.38,-421.42 220.38,-432.83 220.38,-432.83 220.38,-438.54 214.67,-444.25 208.96,-444.25 208.96,-444.25 108.29,-444.25 108.29,-444.25 102.58,-444.25 96.88,-438.54 96.88,-432.83 96.88,-432.83 96.88,-421.42 96.88,-421.42 96.88,-415.71 102.58,-410 108.29,-410"/>
</g>
<!-- pending&#45;for&#45;input&#45;&gt;discovering -->
<g id="edge14" class="edge transition">
<title>pending&#45;for&#45;input&#45;&gt;discovering</title>
<path fill="none" stroke="black" d="M221.26,-429.05C299.04,-431.65 436.89,-436.86 554.75,-444.38 574.57,-445.64 596.27,-447.37 615.49,-449.02"/>
<polygon fill="black" stroke="black" points="615.02,-452.49 625.28,-449.87 615.63,-445.52 615.02,-452.49"/>
<text text-anchor="start" x="336.5" y="-447.62" font-family="Helvetica,sans-Serif" font-size="10.00">Register Host &#45; Re&#45;registration &#160;&#160;</text>
</g>
<!-- preparing&#45;for&#45;installation -->
<g id="node14" class="node state regular">
<title>preparing&#45;for&#45;installation</title>
<polygon fill="#ffffff" fill-opacity="0.003922" stroke="none" stroke-width="2" points="243.5,-391.25 73.75,-391.25 73.75,-355 243.5,-355 243.5,-391.25"/>
<text text-anchor="start" x="84.75" y="-368.85" font-family="Helvetica,sans-Serif" font-size="12.00">preparing&#45;for&#45;installation</text>
<path fill="none" stroke="black" stroke-width="2" d="M86.17,-356C86.17,-356 231.08,-356 231.08,-356 236.79,-356 242.5,-361.71 242.5,-367.42 242.5,-367.42 242.5,-378.83 242.5,-378.83 242.5,-384.54 236.79,-390.25 231.08,-390.25 231.08,-390.25 86.17,-390.25 86.17,-390.25 80.46,-390.25 74.75,-384.54 74.75,-378.83 74.75,-378.83 74.75,-367.42 74.75,-367.42 74.75,-361.71 80.46,-356 86.17,-356"/>
</g>
<!-- preparing&#45;for&#45;installation&#45;&gt;discovering -->
<g id="edge15" class="edge transition">
<title>preparing&#45;for&#45;installation&#45;&gt;discovering</title>
<path fill="none" stroke="black" d="M243.37,-376.38C323.95,-380.8 448.83,-391.03 554.75,-414.38 575.2,-418.88 597.06,-425.78 616.23,-432.58"/>
<polygon fill="black" stroke="black" points="614.86,-435.81 625.46,-435.92 617.25,-429.23 614.86,-435.81"/>
<text text-anchor="start" x="336.5" y="-417.62" font-family="Helvetica,sans-Serif" font-size="10.00">Register Host &#45; Re&#45;registration &#160;&#160;</text>
</g>
<!-- preparing&#45;successful -->
<g id="node15" class="node state regular">
<title>preparing&#45;successful</title>
<polygon fill="#ffffff" fill-opacity="0.003922" stroke="none" stroke-width="2" points="231.5,-337.25 85.75,-337.25 85.75,-301 231.5,-301 231.5,-337.25"/>
<text text-anchor="start" x="96.75" y="-314.85" font-family="Helvetica,sans-Serif" font-size="12.00">preparing&#45;successful</text>
<path fill="none" stroke="black" stroke-width="2" d="M98.17,-302C98.17,-302 219.08,-302 219.08,-302 224.79,-302 230.5,-307.71 230.5,-313.42 230.5,-313.42 230.5,-324.83 230.5,-324.83 230.5,-330.54 224.79,-336.25 219.08,-336.25 219.08,-336.25 98.17,-336.25 98.17,-336.25 92.46,-336.25 86.75,-330.54 86.75,-324.83 86.75,-324.83 86.75,-313.42 86.75,-313.42 86.75,-307.71 92.46,-302 98.17,-302"/>
</g>
<!-- preparing&#45;successful&#45;&gt;discovering -->
<g id="edge16" class="edge transition">
<title>preparing&#45;successful&#45;&gt;discovering</title>
<path fill="none" stroke="black" d="M231.39,-315.32C312.86,-313.61 448.27,-318.75 554.75,-362.38 590.64,-377.08 624.58,-406.35 646.4,-427.89"/>
<polygon fill="black" stroke="black" points="643.83,-430.28 653.35,-434.93 648.81,-425.36 643.83,-430.28"/>
<text text-anchor="start" x="336.5" y="-365.62" font-family="Helvetica,sans-Serif" font-size="10.00">Register Host &#45; Re&#45;registration &#160;&#160;</text>
</g>
<!-- resetting -->
<g id="node16" class="node state regular">
<title>resetting</title>
<polygon fill="#ffffff" fill-opacity="0.003922" stroke="none" stroke-width="2" points="195.88,-252.25 121.38,-252.25 121.38,-216 195.88,-216 195.88,-252.25"/>
<text text-anchor="start" x="132.38" y="-229.85" font-family="Helvetica,sans-Serif" font-size="12.00">resetting</text>
<path fill="none" stroke="black" stroke-width="2" d="M133.79,-217C133.79,-217 183.46,-217 183.46,-217 189.17,-217 194.88,-222.71 194.88,-228.42 194.88,-228.42 194.88,-239.83 194.88,-239.83 194.88,-245.54 189.17,-251.25 183.46,-251.25 183.46,-251.25 133.79,-251.25 133.79,-251.25 128.08,-251.25 122.38,-245.54 122.38,-239.83 122.38,-239.83 122.38,-228.42 122.38,-228.42 122.38,-222.71 128.08,-217 133.79,-217"/>
</g>
<!-- resetting&#45;&gt;discovering -->
<g id="edge18" class="edge transition">
<title>resetting&#45;&gt;discovering</title>
<path fill="none" stroke="black" d="M195.66,-231.39C268.99,-227.57 438.46,-227.77 554.75,-298.38 604.92,-328.83 640.53,-389.84 658.21,-425.8"/>
<polygon fill="black" stroke="black" points="655,-427.2 662.46,-434.72 661.32,-424.19 655,-427.2"/>
<text text-anchor="start" x="275.75" y="-301.62" font-family="Helvetica,sans-Serif" font-size="10.00">Register Host &#45; Register non&#45;rebooting host in resetting &#160;&#160;</text>
</g>
<!-- resetting&#45;&gt;resetting -->
<g id="edge17" class="edge transition">
<title>resetting&#45;&gt;resetting</title>
<path fill="none" stroke="black" d="M121.44,-245.41C98.86,-257.12 111.26,-270.25 158.62,-270.25 197.11,-270.25 212.51,-261.58 204.82,-252.05"/>
<polygon fill="black" stroke="black" points="207.16,-249.42 197.03,-246.3 203,-255.06 207.16,-249.42"/>
<text text-anchor="start" x="0" y="-273.5" font-family="Helvetica,sans-Serif" font-size="10.00">Register Host &#45; Ignore register while rebooting host in resetting &#160;&#160;</text>
</g>
<!-- resetting&#45;pending&#45;user&#45;action -->
<g id="node17" class="node state regular">
<title>resetting&#45;pending&#45;user&#45;action</title>
<polygon fill="#ffffff" fill-opacity="0.003922" stroke="none" stroke-width="2" points="257.75,-198.25 59.5,-198.25 59.5,-162 257.75,-162 257.75,-198.25"/>
<text text-anchor="start" x="70.5" y="-175.85" font-family="Helvetica,sans-Serif" font-size="12.00">resetting&#45;pending&#45;user&#45;action</text>
<path fill="none" stroke="black" stroke-width="2" d="M71.92,-163C71.92,-163 245.33,-163 245.33,-163 251.04,-163 256.75,-168.71 256.75,-174.42 256.75,-174.42 256.75,-185.83 256.75,-185.83 256.75,-191.54 251.04,-197.25 245.33,-197.25 245.33,-197.25 71.92,-197.25 71.92,-197.25 66.21,-197.25 60.5,-191.54 60.5,-185.83 60.5,-185.83 60.5,-174.42 60.5,-174.42 60.5,-168.71 66.21,-163 71.92,-163"/>
</g>
<!-- resetting&#45;pending&#45;user&#45;action&#45;&gt;discovering -->
<g id="edge19" class="edge transition">
<title>resetting&#45;pending&#45;user&#45;action&#45;&gt;discovering</title>
<path fill="none" stroke="black" d="M257.49,-163.32C343.39,-154.06 467.85,-154.52 554.75,-214.38 627.37,-264.39 656.23,-372.88 666.23,-425.01"/>
<polygon fill="black" stroke="black" points="662.75,-425.4 667.97,-434.62 669.64,-424.16 662.75,-425.4"/>
<text text-anchor="start" x="336.5" y="-217.62" font-family="Helvetica,sans-Serif" font-size="10.00">Register Host &#45; Re&#45;registration &#160;&#160;</text>
</g>
</g>
</svg>
