<?xml version="1.0" encoding="UTF-8" standalone="no"?>
<!DOCTYPE svg PUBLIC "-//W3C//DTD SVG 1.1//EN"
 "http://www.w3.org/Graphics/SVG/1.1/DTD/svg11.dtd">
<!-- Generated by graphviz version 12.1.0 (20240811.2233)
 -->
<!-- Title: state transitions Pages: 1 -->
<svg width="343pt" height="44pt"
 viewBox="0.00 0.00 343.00 44.25" xmlns="http://www.w3.org/2000/svg" xmlns:xlink="http://www.w3.org/1999/xlink">
<g id="graph0" class="graph" transform="scale(1 1) rotate(0) translate(4 40.25)">
<title>state transitions</title>
<polygon fill="white" stroke="none" points="-4,4 -4,-40.25 339,-40.25 339,4 -4,4"/>
<!-- installing -->
<g id="node1" class="node state regular">
<title>installing</title>
<polygon fill="#ffffff" fill-opacity="0.003922" stroke="none" stroke-width="2" points="335,-36.25 260.5,-36.25 260.5,0 335,0 335,-36.25"/>
<text text-anchor="start" x="271.5" y="-13.85" font-family="Helvetica,sans-Serif" font-size="12.00">installing</text>
<path fill="none" stroke="black" stroke-width="2" d="M272.92,-1C272.92,-1 322.58,-1 322.58,-1 328.29,-1 334,-6.71 334,-12.42 334,-12.42 334,-23.83 334,-23.83 334,-29.54 328.29,-35.25 322.58,-35.25 322.58,-35.25 272.92,-35.25 272.92,-35.25 267.21,-35.25 261.5,-29.54 261.5,-23.83 261.5,-23.83 261.5,-12.42 261.5,-12.42 261.5,-6.71 267.21,-1 272.92,-1"/>
</g>
<!-- known -->
<g id="node2" class="node state regular">
<title>known</title>
<polygon fill="#ffffff" fill-opacity="0.003922" stroke="none" stroke-width="2" points="61,-36.25 0,-36.25 0,0 61,0 61,-36.25"/>
<text text-anchor="start" x="11" y="-13.85" font-family="Helvetica,sans-Serif" font-size="12.00">known</text>
<path fill="none" stroke="black" stroke-width="2" d="M12.42,-1C12.42,-1 48.58,-1 48.58,-1 54.29,-1 60,-6.71 60,-12.42 60,-12.42 60,-23.83 60,-23.83 60,-29.54 54.29,-35.25 48.58,-35.25 48.58,-35.25 12.42,-35.25 12.42,-35.25 6.71,-35.25 1,-29.54 1,-23.83 1,-23.83 1,-12.42 1,-12.42 1,-6.71 6.71,-1 12.42,-1"/>
</g>
<!-- known&#45;&gt;installing -->
<g id="edge1" class="edge transition">
<title>known&#45;&gt;installing</title>
<path fill="none" stroke="black" d="M60.9,-18.12C106.52,-18.12 194.77,-18.12 249.43,-18.12"/>
<polygon fill="black" stroke="black" points="249.38,-21.63 259.38,-18.13 249.38,-14.63 249.38,-21.63"/>
<text text-anchor="start" x="79" y="-21.38" font-family="Helvetica,sans-Serif" font-size="10.00">Install Host &#45; Install known host &#160;&#160;</text>
</g>
</g>
</svg>
