<?xml version="1.0" encoding="UTF-8" standalone="no"?>
<!DOCTYPE svg PUBLIC "-//W3C//DTD SVG 1.1//EN"
 "http://www.w3.org/Graphics/SVG/1.1/DTD/svg11.dtd">
<!-- Generated by graphviz version 5.0.0 (0)
 -->
<!-- Title: state transitions Pages: 1 -->
<svg width="600pt" height="476pt"
 viewBox="0.00 0.00 600.00 476.00" xmlns="http://www.w3.org/2000/svg" xmlns:xlink="http://www.w3.org/1999/xlink">
<g id="graph0" class="graph" transform="scale(1 1) rotate(0) translate(4 472)">
<title>state transitions</title>
<polygon fill="white" stroke="transparent" points="-4,4 -4,-472 596,-472 596,4 -4,4"/>
<!-- added&#45;to&#45;existing&#45;cluster -->
<g id="node1" class="node state regular">
<title>added&#45;to&#45;existing&#45;cluster</title>
<polygon fill="#ffffff" fill-opacity="0.003922" stroke="transparent" stroke-width="2" points="153,-198 0,-198 0,-162 153,-162 153,-198"/>
<text text-anchor="start" x="11.5" y="-176.4" font-family="Helvetica,sans-Serif" font-size="12.00">added&#45;to&#45;existing&#45;cluster</text>
<path fill="none" stroke="black" stroke-width="2" d="M12,-163.5C12,-163.5 141,-163.5 141,-163.5 146.5,-163.5 152,-169 152,-174.5 152,-174.5 152,-185.5 152,-185.5 152,-191 146.5,-196.5 141,-196.5 141,-196.5 12,-196.5 12,-196.5 6.5,-196.5 1,-191 1,-185.5 1,-185.5 1,-174.5 1,-174.5 1,-169 6.5,-163.5 12,-163.5"/>
</g>
<!-- unbinding&#45;pending&#45;user&#45;action -->
<g id="node11" class="node state regular">
<title>unbinding&#45;pending&#45;user&#45;action</title>
<polygon fill="#ffffff" fill-opacity="0.003922" stroke="transparent" stroke-width="2" points="592,-117 406,-117 406,-81 592,-81 592,-117"/>
<text text-anchor="start" x="417" y="-95.4" font-family="Helvetica,sans-Serif" font-size="12.00">unbinding&#45;pending&#45;user&#45;action</text>
<path fill="none" stroke="black" stroke-width="2" d="M418,-82.5C418,-82.5 580,-82.5 580,-82.5 585.5,-82.5 591,-88 591,-93.5 591,-93.5 591,-104.5 591,-104.5 591,-110 585.5,-115.5 580,-115.5 580,-115.5 418,-115.5 418,-115.5 412.5,-115.5 407,-110 407,-104.5 407,-104.5 407,-93.5 407,-93.5 407,-88 412.5,-82.5 418,-82.5"/>
</g>
<!-- added&#45;to&#45;existing&#45;cluster&#45;&gt;unbinding&#45;pending&#45;user&#45;action -->
<g id="edge7" class="edge transition">
<title>added&#45;to&#45;existing&#45;cluster&#45;&gt;unbinding&#45;pending&#45;user&#45;action</title>
<path fill="none" stroke="black" d="M153.11,-172.25C216.38,-164.94 308.76,-152.35 388,-134 404.25,-130.24 421.56,-125.22 437.52,-120.17"/>
<polygon fill="black" stroke="black" points="438.82,-123.42 447.27,-117.02 436.68,-116.76 438.82,-123.42"/>
<text text-anchor="start" x="171" y="-172" font-family="Helvetica,sans-Serif" font-size="10.00">Unbind Host &#45; Unbind during or after installation &#160;&#160;</text>
</g>
<!-- cancelled -->
<g id="node2" class="node state regular">
<title>cancelled</title>
<polygon fill="#ffffff" fill-opacity="0.003922" stroke="transparent" stroke-width="2" points="113.5,-144 39.5,-144 39.5,-108 113.5,-108 113.5,-144"/>
<text text-anchor="start" x="50.5" y="-122.4" font-family="Helvetica,sans-Serif" font-size="12.00">cancelled</text>
<path fill="none" stroke="black" stroke-width="2" d="M51.5,-109.5C51.5,-109.5 101.5,-109.5 101.5,-109.5 107,-109.5 112.5,-115 112.5,-120.5 112.5,-120.5 112.5,-131.5 112.5,-131.5 112.5,-137 107,-142.5 101.5,-142.5 101.5,-142.5 51.5,-142.5 51.5,-142.5 46,-142.5 40.5,-137 40.5,-131.5 40.5,-131.5 40.5,-120.5 40.5,-120.5 40.5,-115 46,-109.5 51.5,-109.5"/>
</g>
<!-- cancelled&#45;&gt;unbinding&#45;pending&#45;user&#45;action -->
<g id="edge9" class="edge transition">
<title>cancelled&#45;&gt;unbinding&#45;pending&#45;user&#45;action</title>
<path fill="none" stroke="black" d="M113.72,-123.67C175.74,-119.69 304.42,-111.43 395.76,-105.56"/>
<polygon fill="black" stroke="black" points="396.12,-109.05 405.87,-104.92 395.67,-102.06 396.12,-109.05"/>
<text text-anchor="start" x="171" y="-122" font-family="Helvetica,sans-Serif" font-size="10.00">Unbind Host &#45; Unbind during or after installation &#160;&#160;</text>
</g>
<!-- disconnected -->
<g id="node3" class="node state regular">
<title>disconnected</title>
<polygon fill="#ffffff" fill-opacity="0.003922" stroke="transparent" stroke-width="2" points="123.5,-468 29.5,-468 29.5,-432 123.5,-432 123.5,-468"/>
<text text-anchor="start" x="40.5" y="-446.4" font-family="Helvetica,sans-Serif" font-size="12.00">disconnected</text>
<path fill="none" stroke="black" stroke-width="2" d="M41.5,-433.5C41.5,-433.5 111.5,-433.5 111.5,-433.5 117,-433.5 122.5,-439 122.5,-444.5 122.5,-444.5 122.5,-455.5 122.5,-455.5 122.5,-461 117,-466.5 111.5,-466.5 111.5,-466.5 41.5,-466.5 41.5,-466.5 36,-466.5 30.5,-461 30.5,-455.5 30.5,-455.5 30.5,-444.5 30.5,-444.5 30.5,-439 36,-433.5 41.5,-433.5"/>
</g>
<!-- unbinding -->
<g id="node10" class="node state regular">
<title>unbinding</title>
<polygon fill="#ffffff" fill-opacity="0.003922" stroke="transparent" stroke-width="2" points="537,-360 461,-360 461,-324 537,-324 537,-360"/>
<text text-anchor="start" x="472" y="-338.4" font-family="Helvetica,sans-Serif" font-size="12.00">unbinding</text>
<path fill="none" stroke="black" stroke-width="2" d="M473,-325.5C473,-325.5 525,-325.5 525,-325.5 530.5,-325.5 536,-331 536,-336.5 536,-336.5 536,-347.5 536,-347.5 536,-353 530.5,-358.5 525,-358.5 525,-358.5 473,-358.5 473,-358.5 467.5,-358.5 462,-353 462,-347.5 462,-347.5 462,-336.5 462,-336.5 462,-331 467.5,-325.5 473,-325.5"/>
</g>
<!-- disconnected&#45;&gt;unbinding -->
<g id="edge3" class="edge transition">
<title>disconnected&#45;&gt;unbinding</title>
<path fill="none" stroke="black" d="M123.57,-446.98C185.17,-441.92 297.14,-429.16 388,-399 413.25,-390.62 439.78,-377.03 460.46,-365.22"/>
<polygon fill="black" stroke="black" points="462.35,-368.17 469.23,-360.12 458.83,-362.12 462.35,-368.17"/>
<text text-anchor="start" x="194" y="-444" font-family="Helvetica,sans-Serif" font-size="10.00">Unbind Host &#45; Unbind pre&#45;installation &#160;&#160;</text>
</g>
<!-- discovering -->
<g id="node4" class="node state regular">
<title>discovering</title>
<polygon fill="#ffffff" fill-opacity="0.003922" stroke="transparent" stroke-width="2" points="118.5,-414 34.5,-414 34.5,-378 118.5,-378 118.5,-414"/>
<text text-anchor="start" x="45.5" y="-392.4" font-family="Helvetica,sans-Serif" font-size="12.00">discovering</text>
<path fill="none" stroke="black" stroke-width="2" d="M46.5,-379.5C46.5,-379.5 106.5,-379.5 106.5,-379.5 112,-379.5 117.5,-385 117.5,-390.5 117.5,-390.5 117.5,-401.5 117.5,-401.5 117.5,-407 112,-412.5 106.5,-412.5 106.5,-412.5 46.5,-412.5 46.5,-412.5 41,-412.5 35.5,-407 35.5,-401.5 35.5,-401.5 35.5,-390.5 35.5,-390.5 35.5,-385 41,-379.5 46.5,-379.5"/>
</g>
<!-- discovering&#45;&gt;unbinding -->
<g id="edge2" class="edge transition">
<title>discovering&#45;&gt;unbinding</title>
<path fill="none" stroke="black" d="M118.7,-390.97C178.19,-383.67 291.57,-369.63 388,-357 408.57,-354.31 431.3,-351.22 450.72,-348.56"/>
<polygon fill="black" stroke="black" points="451.41,-352 460.84,-347.17 450.46,-345.06 451.41,-352"/>
<text text-anchor="start" x="194" y="-387" font-family="Helvetica,sans-Serif" font-size="10.00">Unbind Host &#45; Unbind pre&#45;installation &#160;&#160;</text>
</g>
<!-- error -->
<g id="node5" class="node state regular">
<title>error</title>
<polygon fill="#ffffff" fill-opacity="0.003922" stroke="transparent" stroke-width="2" points="104.5,-90 48.5,-90 48.5,-54 104.5,-54 104.5,-90"/>
<text text-anchor="start" x="64" y="-68.4" font-family="Helvetica,sans-Serif" font-size="12.00">error</text>
<path fill="none" stroke="black" stroke-width="2" d="M60.5,-55.5C60.5,-55.5 92.5,-55.5 92.5,-55.5 98,-55.5 103.5,-61 103.5,-66.5 103.5,-66.5 103.5,-77.5 103.5,-77.5 103.5,-83 98,-88.5 92.5,-88.5 92.5,-88.5 60.5,-88.5 60.5,-88.5 55,-88.5 49.5,-83 49.5,-77.5 49.5,-77.5 49.5,-66.5 49.5,-66.5 49.5,-61 55,-55.5 60.5,-55.5"/>
</g>
<!-- error&#45;&gt;unbinding&#45;pending&#45;user&#45;action -->
<g id="edge8" class="edge transition">
<title>error&#45;&gt;unbinding&#45;pending&#45;user&#45;action</title>
<path fill="none" stroke="black" d="M104.77,-73.75C162.51,-77.46 299.69,-86.27 395.68,-92.43"/>
<polygon fill="black" stroke="black" points="395.51,-95.93 405.71,-93.07 395.96,-88.94 395.51,-95.93"/>
<text text-anchor="start" x="171" y="-95" font-family="Helvetica,sans-Serif" font-size="10.00">Unbind Host &#45; Unbind during or after installation &#160;&#160;</text>
</g>
<!-- installed -->
<g id="node6" class="node state regular">
<title>installed</title>
<polygon fill="#ffffff" fill-opacity="0.003922" stroke="transparent" stroke-width="2" points="110.5,-36 42.5,-36 42.5,0 110.5,0 110.5,-36"/>
<text text-anchor="start" x="53.5" y="-14.4" font-family="Helvetica,sans-Serif" font-size="12.00">installed</text>
<path fill="none" stroke="black" stroke-width="2" d="M54.5,-1.5C54.5,-1.5 98.5,-1.5 98.5,-1.5 104,-1.5 109.5,-7 109.5,-12.5 109.5,-12.5 109.5,-23.5 109.5,-23.5 109.5,-29 104,-34.5 98.5,-34.5 98.5,-34.5 54.5,-34.5 54.5,-34.5 49,-34.5 43.5,-29 43.5,-23.5 43.5,-23.5 43.5,-12.5 43.5,-12.5 43.5,-7 49,-1.5 54.5,-1.5"/>
</g>
<!-- installed&#45;&gt;unbinding&#45;pending&#45;user&#45;action -->
<g id="edge6" class="edge transition">
<title>installed&#45;&gt;unbinding&#45;pending&#45;user&#45;action</title>
<path fill="none" stroke="black" d="M110.92,-21.17C168.16,-26.99 288.46,-40.95 388,-64 404.25,-67.76 421.56,-72.78 437.52,-77.83"/>
<polygon fill="black" stroke="black" points="436.68,-81.24 447.27,-80.98 438.82,-74.58 436.68,-81.24"/>
<text text-anchor="start" x="171" y="-67" font-family="Helvetica,sans-Serif" font-size="10.00">Unbind Host &#45; Unbind during or after installation &#160;&#160;</text>
</g>
<!-- insufficient -->
<g id="node7" class="node state regular">
<title>insufficient</title>
<polygon fill="#ffffff" fill-opacity="0.003922" stroke="transparent" stroke-width="2" points="116.5,-360 36.5,-360 36.5,-324 116.5,-324 116.5,-360"/>
<text text-anchor="start" x="47.5" y="-338.4" font-family="Helvetica,sans-Serif" font-size="12.00">insufficient</text>
<path fill="none" stroke="black" stroke-width="2" d="M48.5,-325.5C48.5,-325.5 104.5,-325.5 104.5,-325.5 110,-325.5 115.5,-331 115.5,-336.5 115.5,-336.5 115.5,-347.5 115.5,-347.5 115.5,-353 110,-358.5 104.5,-358.5 104.5,-358.5 48.5,-358.5 48.5,-358.5 43,-358.5 37.5,-353 37.5,-347.5 37.5,-347.5 37.5,-336.5 37.5,-336.5 37.5,-331 43,-325.5 48.5,-325.5"/>
</g>
<!-- insufficient&#45;&gt;unbinding -->
<g id="edge4" class="edge transition">
<title>insufficient&#45;&gt;unbinding</title>
<path fill="none" stroke="black" d="M116.68,-342C194.21,-342 366.89,-342 450.64,-342"/>
<polygon fill="black" stroke="black" points="450.88,-345.5 460.88,-342 450.88,-338.5 450.88,-345.5"/>
<text text-anchor="start" x="194" y="-345" font-family="Helvetica,sans-Serif" font-size="10.00">Unbind Host &#45; Unbind pre&#45;installation &#160;&#160;</text>
</g>
<!-- known -->
<g id="node8" class="node state regular">
<title>known</title>
<polygon fill="#ffffff" fill-opacity="0.003922" stroke="transparent" stroke-width="2" points="105.5,-306 47.5,-306 47.5,-270 105.5,-270 105.5,-306"/>
<text text-anchor="start" x="58.5" y="-284.4" font-family="Helvetica,sans-Serif" font-size="12.00">known</text>
<path fill="none" stroke="black" stroke-width="2" d="M59.5,-271.5C59.5,-271.5 93.5,-271.5 93.5,-271.5 99,-271.5 104.5,-277 104.5,-282.5 104.5,-282.5 104.5,-293.5 104.5,-293.5 104.5,-299 99,-304.5 93.5,-304.5 93.5,-304.5 59.5,-304.5 59.5,-304.5 54,-304.5 48.5,-299 48.5,-293.5 48.5,-293.5 48.5,-282.5 48.5,-282.5 48.5,-277 54,-271.5 59.5,-271.5"/>
</g>
<!-- known&#45;&gt;unbinding -->
<g id="edge1" class="edge transition">
<title>known&#45;&gt;unbinding</title>
<path fill="none" stroke="black" d="M105.77,-291.45C160.35,-298.13 284.03,-313.38 388,-327 408.57,-329.69 431.3,-332.78 450.72,-335.44"/>
<polygon fill="black" stroke="black" points="450.46,-338.94 460.84,-336.83 451.41,-332 450.46,-338.94"/>
<text text-anchor="start" x="194" y="-330" font-family="Helvetica,sans-Serif" font-size="10.00">Unbind Host &#45; Unbind pre&#45;installation &#160;&#160;</text>
</g>
<!-- pending&#45;for&#45;input -->
<g id="node9" class="node state regular">
<title>pending&#45;for&#45;input</title>
<polygon fill="#ffffff" fill-opacity="0.003922" stroke="transparent" stroke-width="2" points="133,-252 20,-252 20,-216 133,-216 133,-252"/>
<text text-anchor="start" x="31.5" y="-230.4" font-family="Helvetica,sans-Serif" font-size="12.00">pending&#45;for&#45;input</text>
<path fill="none" stroke="black" stroke-width="2" d="M32,-217.5C32,-217.5 121,-217.5 121,-217.5 126.5,-217.5 132,-223 132,-228.5 132,-228.5 132,-239.5 132,-239.5 132,-245 126.5,-250.5 121,-250.5 121,-250.5 32,-250.5 32,-250.5 26.5,-250.5 21,-245 21,-239.5 21,-239.5 21,-228.5 21,-228.5 21,-223 26.5,-217.5 32,-217.5"/>
</g>
<!-- pending&#45;for&#45;input&#45;&gt;unbinding -->
<g id="edge5" class="edge transition">
<title>pending&#45;for&#45;input&#45;&gt;unbinding</title>
<path fill="none" stroke="black" d="M133.2,-237.5C196.37,-242.71 301.77,-255.19 388,-284 413.51,-292.52 440.24,-306.48 460.96,-318.57"/>
<polygon fill="black" stroke="black" points="459.36,-321.69 469.74,-323.79 462.93,-315.67 459.36,-321.69"/>
<text text-anchor="start" x="194" y="-287" font-family="Helvetica,sans-Serif" font-size="10.00">Unbind Host &#45; Unbind pre&#45;installation &#160;&#160;</text>
</g>
</g>
</svg>
