<?xml version="1.0" encoding="UTF-8" standalone="no"?>
<!DOCTYPE svg PUBLIC "-//W3C//DTD SVG 1.1//EN"
 "http://www.w3.org/Graphics/SVG/1.1/DTD/svg11.dtd">
<!-- Generated by graphviz version 7.1.0 (0)
 -->
<!-- Title: state transitions Pages: 1 -->
<svg width="781pt" height="785pt"
 viewBox="0.00 0.00 781.00 784.95" xmlns="http://www.w3.org/2000/svg" xmlns:xlink="http://www.w3.org/1999/xlink">
<g id="graph0" class="graph" transform="scale(1 1) rotate(0) translate(4 780.95)">
<title>state transitions</title>
<polygon fill="white" stroke="none" points="-4,4 -4,-780.95 777,-780.95 777,4 -4,4"/>
<!-- added&#45;to&#45;existing&#45;cluster -->
<g id="node1" class="node state regular">
<title>added&#45;to&#45;existing&#45;cluster</title>
<polygon fill="#ffffff" fill-opacity="0.003922" stroke="none" stroke-width="2" points="167,-756.95 14,-756.95 14,-720.95 167,-720.95 167,-756.95"/>
<text text-anchor="start" x="25.5" y="-735.35" font-family="Helvetica,sans-Serif" font-size="12.00">added&#45;to&#45;existing&#45;cluster</text>
<path fill="none" stroke="black" stroke-width="2" d="M26,-722.45C26,-722.45 155,-722.45 155,-722.45 160.5,-722.45 166,-727.95 166,-733.45 166,-733.45 166,-744.45 166,-744.45 166,-749.95 160.5,-755.45 155,-755.45 155,-755.45 26,-755.45 26,-755.45 20.5,-755.45 15,-749.95 15,-744.45 15,-744.45 15,-733.45 15,-733.45 15,-727.95 20.5,-722.45 26,-722.45"/>
</g>
<!-- resetting&#45;pending&#45;user&#45;action -->
<g id="node15" class="node state regular">
<title>resetting&#45;pending&#45;user&#45;action</title>
<polygon fill="#ffffff" fill-opacity="0.003922" stroke="none" stroke-width="2" points="707,-405.95 528,-405.95 528,-369.95 707,-369.95 707,-405.95"/>
<text text-anchor="start" x="539.5" y="-384.35" font-family="Helvetica,sans-Serif" font-size="12.00">resetting&#45;pending&#45;user&#45;action</text>
<path fill="none" stroke="black" stroke-width="2" d="M540,-371.45C540,-371.45 695,-371.45 695,-371.45 700.5,-371.45 706,-376.95 706,-382.45 706,-382.45 706,-393.45 706,-393.45 706,-398.95 700.5,-404.45 695,-404.45 695,-404.45 540,-404.45 540,-404.45 534.5,-404.45 529,-398.95 529,-393.45 529,-393.45 529,-382.45 529,-382.45 529,-376.95 534.5,-371.45 540,-371.45"/>
</g>
<!-- added&#45;to&#45;existing&#45;cluster&#45;&gt;resetting&#45;pending&#45;user&#45;action -->
<g id="edge15" class="edge transition">
<title>added&#45;to&#45;existing&#45;cluster&#45;&gt;resetting&#45;pending&#45;user&#45;action</title>
<path fill="none" stroke="black" d="M166.8,-755.59C258.08,-771.12 411.82,-781.75 510,-704.95 601.29,-633.53 614.96,-480.73 616.56,-416.9"/>
<polygon fill="black" stroke="black" points="620.06,-417.28 616.71,-407.22 613.06,-417.17 620.06,-417.28"/>
<text text-anchor="start" x="199" y="-768.95" font-family="Helvetica,sans-Serif" font-size="10.00">Resetting, Pending User Action &#45; Reset pending user action all states &#160;&#160;</text>
</g>
<!-- cancelled -->
<g id="node2" class="node state regular">
<title>cancelled</title>
<polygon fill="#ffffff" fill-opacity="0.003922" stroke="none" stroke-width="2" points="127.5,-702.95 53.5,-702.95 53.5,-666.95 127.5,-666.95 127.5,-702.95"/>
<text text-anchor="start" x="64.5" y="-681.35" font-family="Helvetica,sans-Serif" font-size="12.00">cancelled</text>
<path fill="none" stroke="black" stroke-width="2" d="M65.5,-668.45C65.5,-668.45 115.5,-668.45 115.5,-668.45 121,-668.45 126.5,-673.95 126.5,-679.45 126.5,-679.45 126.5,-690.45 126.5,-690.45 126.5,-695.95 121,-701.45 115.5,-701.45 115.5,-701.45 65.5,-701.45 65.5,-701.45 60,-701.45 54.5,-695.95 54.5,-690.45 54.5,-690.45 54.5,-679.45 54.5,-679.45 54.5,-673.95 60,-668.45 65.5,-668.45"/>
</g>
<!-- cancelled&#45;&gt;resetting&#45;pending&#45;user&#45;action -->
<g id="edge14" class="edge transition">
<title>cancelled&#45;&gt;resetting&#45;pending&#45;user&#45;action</title>
<path fill="none" stroke="black" d="M127.21,-686.98C217.06,-691.39 449.67,-698.11 510,-653.95 587.97,-596.87 608.93,-473.26 614.51,-416.95"/>
<polygon fill="black" stroke="black" points="617.98,-417.47 615.37,-407.2 611,-416.86 617.98,-417.47"/>
<text text-anchor="start" x="199" y="-692.95" font-family="Helvetica,sans-Serif" font-size="10.00">Resetting, Pending User Action &#45; Reset pending user action all states &#160;&#160;</text>
</g>
<!-- discovering -->
<g id="node3" class="node state regular">
<title>discovering</title>
<polygon fill="#ffffff" fill-opacity="0.003922" stroke="none" stroke-width="2" points="132.5,-648.95 48.5,-648.95 48.5,-612.95 132.5,-612.95 132.5,-648.95"/>
<text text-anchor="start" x="59.5" y="-627.35" font-family="Helvetica,sans-Serif" font-size="12.00">discovering</text>
<path fill="none" stroke="black" stroke-width="2" d="M60.5,-614.45C60.5,-614.45 120.5,-614.45 120.5,-614.45 126,-614.45 131.5,-619.95 131.5,-625.45 131.5,-625.45 131.5,-636.45 131.5,-636.45 131.5,-641.95 126,-647.45 120.5,-647.45 120.5,-647.45 60.5,-647.45 60.5,-647.45 55,-647.45 49.5,-641.95 49.5,-636.45 49.5,-636.45 49.5,-625.45 49.5,-625.45 49.5,-619.95 55,-614.45 60.5,-614.45"/>
</g>
<!-- discovering&#45;&gt;resetting&#45;pending&#45;user&#45;action -->
<g id="edge2" class="edge transition">
<title>discovering&#45;&gt;resetting&#45;pending&#45;user&#45;action</title>
<path fill="none" stroke="black" d="M132.37,-633.92C225.29,-639.89 449.05,-649.5 510,-608.95 576.83,-564.48 602.98,-465.71 612.13,-416.69"/>
<polygon fill="black" stroke="black" points="615.52,-417.59 613.8,-407.13 608.63,-416.38 615.52,-417.59"/>
<text text-anchor="start" x="199" y="-641.95" font-family="Helvetica,sans-Serif" font-size="10.00">Resetting, Pending User Action &#45; Reset pending user action all states &#160;&#160;</text>
</g>
<!-- error -->
<g id="node4" class="node state regular">
<title>error</title>
<polygon fill="#ffffff" fill-opacity="0.003922" stroke="none" stroke-width="2" points="118.5,-594.95 62.5,-594.95 62.5,-558.95 118.5,-558.95 118.5,-594.95"/>
<text text-anchor="start" x="78" y="-573.35" font-family="Helvetica,sans-Serif" font-size="12.00">error</text>
<path fill="none" stroke="black" stroke-width="2" d="M74.5,-560.45C74.5,-560.45 106.5,-560.45 106.5,-560.45 112,-560.45 117.5,-565.95 117.5,-571.45 117.5,-571.45 117.5,-582.45 117.5,-582.45 117.5,-587.95 112,-593.45 106.5,-593.45 106.5,-593.45 74.5,-593.45 74.5,-593.45 69,-593.45 63.5,-587.95 63.5,-582.45 63.5,-582.45 63.5,-571.45 63.5,-571.45 63.5,-565.95 69,-560.45 74.5,-560.45"/>
</g>
<!-- error&#45;&gt;resetting&#45;pending&#45;user&#45;action -->
<g id="edge13" class="edge transition">
<title>error&#45;&gt;resetting&#45;pending&#45;user&#45;action</title>
<path fill="none" stroke="black" d="M118.29,-582.18C188.25,-594.36 380.05,-618.2 510,-542.95 559.42,-514.33 591.02,-452.46 606.09,-416.14"/>
<polygon fill="black" stroke="black" points="609.22,-417.74 609.67,-407.16 602.71,-415.15 609.22,-417.74"/>
<text text-anchor="start" x="199" y="-597.95" font-family="Helvetica,sans-Serif" font-size="10.00">Resetting, Pending User Action &#45; Reset pending user action all states &#160;&#160;</text>
</g>
<!-- installed -->
<g id="node5" class="node state regular">
<title>installed</title>
<polygon fill="#ffffff" fill-opacity="0.003922" stroke="none" stroke-width="2" points="124.5,-540.95 56.5,-540.95 56.5,-504.95 124.5,-504.95 124.5,-540.95"/>
<text text-anchor="start" x="67.5" y="-519.35" font-family="Helvetica,sans-Serif" font-size="12.00">installed</text>
<path fill="none" stroke="black" stroke-width="2" d="M68.5,-506.45C68.5,-506.45 112.5,-506.45 112.5,-506.45 118,-506.45 123.5,-511.95 123.5,-517.45 123.5,-517.45 123.5,-528.45 123.5,-528.45 123.5,-533.95 118,-539.45 112.5,-539.45 112.5,-539.45 68.5,-539.45 68.5,-539.45 63,-539.45 57.5,-533.95 57.5,-528.45 57.5,-528.45 57.5,-517.45 57.5,-517.45 57.5,-511.95 63,-506.45 68.5,-506.45"/>
</g>
<!-- installed&#45;&gt;resetting&#45;pending&#45;user&#45;action -->
<g id="edge12" class="edge transition">
<title>installed&#45;&gt;resetting&#45;pending&#45;user&#45;action</title>
<path fill="none" stroke="black" d="M124.35,-525.74C197.13,-530.61 376.14,-535.23 510,-477.95 543.45,-463.63 574.33,-435.11 594.13,-413.99"/>
<polygon fill="black" stroke="black" points="596.48,-416.6 600.64,-406.86 591.31,-411.88 596.48,-416.6"/>
<text text-anchor="start" x="199" y="-530.95" font-family="Helvetica,sans-Serif" font-size="10.00">Resetting, Pending User Action &#45; Reset pending user action all states &#160;&#160;</text>
</g>
<!-- installing -->
<g id="node6" class="node state regular">
<title>installing</title>
<polygon fill="#ffffff" fill-opacity="0.003922" stroke="none" stroke-width="2" points="126,-486.95 55,-486.95 55,-450.95 126,-450.95 126,-486.95"/>
<text text-anchor="start" x="66.5" y="-465.35" font-family="Helvetica,sans-Serif" font-size="12.00">installing</text>
<path fill="none" stroke="black" stroke-width="2" d="M67,-452.45C67,-452.45 114,-452.45 114,-452.45 119.5,-452.45 125,-457.95 125,-463.45 125,-463.45 125,-474.45 125,-474.45 125,-479.95 119.5,-485.45 114,-485.45 114,-485.45 67,-485.45 67,-485.45 61.5,-485.45 56,-479.95 56,-474.45 56,-474.45 56,-463.45 56,-463.45 56,-457.95 61.5,-452.45 67,-452.45"/>
</g>
<!-- installing&#45;&gt;resetting&#45;pending&#45;user&#45;action -->
<g id="edge5" class="edge transition">
<title>installing&#45;&gt;resetting&#45;pending&#45;user&#45;action</title>
<path fill="none" stroke="black" d="M125.81,-467.8C197.8,-464.83 369.58,-454.84 510,-423.95 526.49,-420.32 544.01,-415.03 559.96,-409.62"/>
<polygon fill="black" stroke="black" points="561.01,-412.96 569.3,-406.37 558.71,-406.35 561.01,-412.96"/>
<text text-anchor="start" x="199" y="-465.95" font-family="Helvetica,sans-Serif" font-size="10.00">Resetting, Pending User Action &#45; Reset pending user action all states &#160;&#160;</text>
</g>
<!-- installing&#45;in&#45;progress -->
<g id="node7" class="node state regular">
<title>installing&#45;in&#45;progress</title>
<polygon fill="#ffffff" fill-opacity="0.003922" stroke="none" stroke-width="2" points="157.5,-432.95 23.5,-432.95 23.5,-396.95 157.5,-396.95 157.5,-432.95"/>
<text text-anchor="start" x="34.5" y="-411.35" font-family="Helvetica,sans-Serif" font-size="12.00">installing&#45;in&#45;progress</text>
<path fill="none" stroke="black" stroke-width="2" d="M35.5,-398.45C35.5,-398.45 145.5,-398.45 145.5,-398.45 151,-398.45 156.5,-403.95 156.5,-409.45 156.5,-409.45 156.5,-420.45 156.5,-420.45 156.5,-425.95 151,-431.45 145.5,-431.45 145.5,-431.45 35.5,-431.45 35.5,-431.45 30,-431.45 24.5,-425.95 24.5,-420.45 24.5,-420.45 24.5,-409.45 24.5,-409.45 24.5,-403.95 30,-398.45 35.5,-398.45"/>
</g>
<!-- installing&#45;in&#45;progress&#45;&gt;resetting&#45;pending&#45;user&#45;action -->
<g id="edge11" class="edge transition">
<title>installing&#45;in&#45;progress&#45;&gt;resetting&#45;pending&#45;user&#45;action</title>
<path fill="none" stroke="black" d="M157.46,-411.56C247.94,-406.9 411.3,-398.5 516.76,-393.08"/>
<polygon fill="black" stroke="black" points="516.74,-396.58 526.54,-392.57 516.38,-389.59 516.74,-396.58"/>
<text text-anchor="start" x="199" y="-411.95" font-family="Helvetica,sans-Serif" font-size="10.00">Resetting, Pending User Action &#45; Reset pending user action all states &#160;&#160;</text>
</g>
<!-- installing&#45;pending&#45;user&#45;action -->
<g id="node8" class="node state regular">
<title>installing&#45;pending&#45;user&#45;action</title>
<polygon fill="#ffffff" fill-opacity="0.003922" stroke="none" stroke-width="2" points="181,-378.95 0,-378.95 0,-342.95 181,-342.95 181,-378.95"/>
<text text-anchor="start" x="11.5" y="-357.35" font-family="Helvetica,sans-Serif" font-size="12.00">installing&#45;pending&#45;user&#45;action</text>
<path fill="none" stroke="black" stroke-width="2" d="M12,-344.45C12,-344.45 169,-344.45 169,-344.45 174.5,-344.45 180,-349.95 180,-355.45 180,-355.45 180,-366.45 180,-366.45 180,-371.95 174.5,-377.45 169,-377.45 169,-377.45 12,-377.45 12,-377.45 6.5,-377.45 1,-371.95 1,-366.45 1,-366.45 1,-355.45 1,-355.45 1,-349.95 6.5,-344.45 12,-344.45"/>
</g>
<!-- installing&#45;pending&#45;user&#45;action&#45;&gt;resetting&#45;pending&#45;user&#45;action -->
<g id="edge4" class="edge transition">
<title>installing&#45;pending&#45;user&#45;action&#45;&gt;resetting&#45;pending&#45;user&#45;action</title>
<path fill="none" stroke="black" d="M180.9,-365.27C265.64,-369.41 396.49,-375.9 510,-381.95 512.22,-382.07 514.46,-382.19 516.73,-382.31"/>
<polygon fill="black" stroke="black" points="516.48,-385.8 526.66,-382.85 516.86,-378.81 516.48,-385.8"/>
<text text-anchor="start" x="199" y="-384.95" font-family="Helvetica,sans-Serif" font-size="10.00">Resetting, Pending User Action &#45; Reset pending user action all states &#160;&#160;</text>
</g>
<!-- known -->
<g id="node9" class="node state regular">
<title>known</title>
<polygon fill="#ffffff" fill-opacity="0.003922" stroke="none" stroke-width="2" points="119.5,-324.95 61.5,-324.95 61.5,-288.95 119.5,-288.95 119.5,-324.95"/>
<text text-anchor="start" x="72.5" y="-303.35" font-family="Helvetica,sans-Serif" font-size="12.00">known</text>
<path fill="none" stroke="black" stroke-width="2" d="M73.5,-290.45C73.5,-290.45 107.5,-290.45 107.5,-290.45 113,-290.45 118.5,-295.95 118.5,-301.45 118.5,-301.45 118.5,-312.45 118.5,-312.45 118.5,-317.95 113,-323.45 107.5,-323.45 107.5,-323.45 73.5,-323.45 73.5,-323.45 68,-323.45 62.5,-317.95 62.5,-312.45 62.5,-312.45 62.5,-301.45 62.5,-301.45 62.5,-295.95 68,-290.45 73.5,-290.45"/>
</g>
<!-- known&#45;&gt;resetting&#45;pending&#45;user&#45;action -->
<g id="edge3" class="edge transition">
<title>known&#45;&gt;resetting&#45;pending&#45;user&#45;action</title>
<path fill="none" stroke="black" d="M119.27,-307.67C186.91,-309.91 365.26,-318.65 510,-350.95 527.08,-354.76 545.22,-360.42 561.6,-366.18"/>
<polygon fill="black" stroke="black" points="560.06,-369.34 570.65,-369.44 562.43,-362.76 560.06,-369.34"/>
<text text-anchor="start" x="199" y="-353.95" font-family="Helvetica,sans-Serif" font-size="10.00">Resetting, Pending User Action &#45; Reset pending user action all states &#160;&#160;</text>
</g>
<!-- pending&#45;for&#45;input -->
<g id="node10" class="node state regular">
<title>pending&#45;for&#45;input</title>
<polygon fill="#ffffff" fill-opacity="0.003922" stroke="none" stroke-width="2" points="147,-270.95 34,-270.95 34,-234.95 147,-234.95 147,-270.95"/>
<text text-anchor="start" x="45.5" y="-249.35" font-family="Helvetica,sans-Serif" font-size="12.00">pending&#45;for&#45;input</text>
<path fill="none" stroke="black" stroke-width="2" d="M46,-236.45C46,-236.45 135,-236.45 135,-236.45 140.5,-236.45 146,-241.95 146,-247.45 146,-247.45 146,-258.45 146,-258.45 146,-263.95 140.5,-269.45 135,-269.45 135,-269.45 46,-269.45 46,-269.45 40.5,-269.45 35,-263.95 35,-258.45 35,-258.45 35,-247.45 35,-247.45 35,-241.95 40.5,-236.45 46,-236.45"/>
</g>
<!-- pending&#45;for&#45;input&#45;&gt;resetting&#45;pending&#45;user&#45;action -->
<g id="edge9" class="edge transition">
<title>pending&#45;for&#45;input&#45;&gt;resetting&#45;pending&#45;user&#45;action</title>
<path fill="none" stroke="black" d="M146.96,-248.37C229.67,-243.76 388.62,-243.56 510,-295.95 543.91,-310.58 574.91,-340.02 594.61,-361.67"/>
<polygon fill="black" stroke="black" points="591.84,-363.81 601.09,-368.98 597.08,-359.17 591.84,-363.81"/>
<text text-anchor="start" x="199" y="-298.95" font-family="Helvetica,sans-Serif" font-size="10.00">Resetting, Pending User Action &#45; Reset pending user action all states &#160;&#160;</text>
</g>
<!-- preparing&#45;failed -->
<g id="node11" class="node state regular">
<title>preparing&#45;failed</title>
<polygon fill="#ffffff" fill-opacity="0.003922" stroke="none" stroke-width="2" points="144,-216.95 37,-216.95 37,-180.95 144,-180.95 144,-216.95"/>
<text text-anchor="start" x="48.5" y="-195.35" font-family="Helvetica,sans-Serif" font-size="12.00">preparing&#45;failed</text>
<path fill="none" stroke="black" stroke-width="2" d="M49,-182.45C49,-182.45 132,-182.45 132,-182.45 137.5,-182.45 143,-187.95 143,-193.45 143,-193.45 143,-204.45 143,-204.45 143,-209.95 137.5,-215.45 132,-215.45 132,-215.45 49,-215.45 49,-215.45 43.5,-215.45 38,-209.95 38,-204.45 38,-204.45 38,-193.45 38,-193.45 38,-187.95 43.5,-182.45 49,-182.45"/>
</g>
<!-- preparing&#45;failed&#45;&gt;resetting&#45;pending&#45;user&#45;action -->
<g id="edge8" class="edge transition">
<title>preparing&#45;failed&#45;&gt;resetting&#45;pending&#45;user&#45;action</title>
<path fill="none" stroke="black" d="M143.99,-189.26C227.66,-176.65 393.7,-163.5 510,-230.95 559.96,-259.92 591.45,-322.87 606.33,-359.65"/>
<polygon fill="black" stroke="black" points="602.98,-360.7 609.87,-368.75 609.5,-358.16 602.98,-360.7"/>
<text text-anchor="start" x="199" y="-233.95" font-family="Helvetica,sans-Serif" font-size="10.00">Resetting, Pending User Action &#45; Reset pending user action all states &#160;&#160;</text>
</g>
<!-- preparing&#45;for&#45;installation -->
<g id="node12" class="node state regular">
<title>preparing&#45;for&#45;installation</title>
<polygon fill="#ffffff" fill-opacity="0.003922" stroke="none" stroke-width="2" points="166.5,-162.95 14.5,-162.95 14.5,-126.95 166.5,-126.95 166.5,-162.95"/>
<text text-anchor="start" x="25.5" y="-141.35" font-family="Helvetica,sans-Serif" font-size="12.00">preparing&#45;for&#45;installation</text>
<path fill="none" stroke="black" stroke-width="2" d="M26.5,-128.45C26.5,-128.45 154.5,-128.45 154.5,-128.45 160,-128.45 165.5,-133.95 165.5,-139.45 165.5,-139.45 165.5,-150.45 165.5,-150.45 165.5,-155.95 160,-161.45 154.5,-161.45 154.5,-161.45 26.5,-161.45 26.5,-161.45 21,-161.45 15.5,-155.95 15.5,-150.45 15.5,-150.45 15.5,-139.45 15.5,-139.45 15.5,-133.95 21,-128.45 26.5,-128.45"/>
</g>
<!-- preparing&#45;for&#45;installation&#45;&gt;resetting&#45;pending&#45;user&#45;action -->
<g id="edge6" class="edge transition">
<title>preparing&#45;for&#45;installation&#45;&gt;resetting&#45;pending&#45;user&#45;action</title>
<path fill="none" stroke="black" d="M165.4,-127.01C254.91,-109.74 406.54,-95.25 510,-163.95 577.6,-208.84 603.39,-309.03 612.29,-358.78"/>
<polygon fill="black" stroke="black" points="608.81,-359.21 613.91,-368.5 615.72,-358.06 608.81,-359.21"/>
<text text-anchor="start" x="199" y="-166.95" font-family="Helvetica,sans-Serif" font-size="10.00">Resetting, Pending User Action &#45; Reset pending user action all states &#160;&#160;</text>
</g>
<!-- preparing&#45;successful -->
<g id="node13" class="node state regular">
<title>preparing&#45;successful</title>
<polygon fill="#ffffff" fill-opacity="0.003922" stroke="none" stroke-width="2" points="157.5,-108.95 23.5,-108.95 23.5,-72.95 157.5,-72.95 157.5,-108.95"/>
<text text-anchor="start" x="34.5" y="-87.35" font-family="Helvetica,sans-Serif" font-size="12.00">preparing&#45;successful</text>
<path fill="none" stroke="black" stroke-width="2" d="M35.5,-74.45C35.5,-74.45 145.5,-74.45 145.5,-74.45 151,-74.45 156.5,-79.95 156.5,-85.45 156.5,-85.45 156.5,-96.45 156.5,-96.45 156.5,-101.95 151,-107.45 145.5,-107.45 145.5,-107.45 35.5,-107.45 35.5,-107.45 30,-107.45 24.5,-101.95 24.5,-96.45 24.5,-96.45 24.5,-85.45 24.5,-85.45 24.5,-79.95 30,-74.45 35.5,-74.45"/>
</g>
<!-- preparing&#45;successful&#45;&gt;resetting&#45;pending&#45;user&#45;action -->
<g id="edge7" class="edge transition">
<title>preparing&#45;successful&#45;&gt;resetting&#45;pending&#45;user&#45;action</title>
<path fill="none" stroke="black" d="M157.15,-83.14C260.52,-72.28 455.11,-58 510,-96.95 596.61,-158.41 612.97,-298.11 615.93,-358.85"/>
<polygon fill="black" stroke="black" points="612.43,-358.85 616.31,-368.71 619.42,-358.58 612.43,-358.85"/>
<text text-anchor="start" x="199" y="-99.95" font-family="Helvetica,sans-Serif" font-size="10.00">Resetting, Pending User Action &#45; Reset pending user action all states &#160;&#160;</text>
</g>
<!-- resetting -->
<g id="node14" class="node state regular">
<title>resetting</title>
<polygon fill="#ffffff" fill-opacity="0.003922" stroke="none" stroke-width="2" points="125,-54.95 56,-54.95 56,-18.95 125,-18.95 125,-54.95"/>
<text text-anchor="start" x="67.5" y="-33.35" font-family="Helvetica,sans-Serif" font-size="12.00">resetting</text>
<path fill="none" stroke="black" stroke-width="2" d="M68,-20.45C68,-20.45 113,-20.45 113,-20.45 118.5,-20.45 124,-25.95 124,-31.45 124,-31.45 124,-42.45 124,-42.45 124,-47.95 118.5,-53.45 113,-53.45 113,-53.45 68,-53.45 68,-53.45 62.5,-53.45 57,-47.95 57,-42.45 57,-42.45 57,-31.45 57,-31.45 57,-25.95 62.5,-20.45 68,-20.45"/>
</g>
<!-- resetting&#45;&gt;resetting&#45;pending&#45;user&#45;action -->
<g id="edge1" class="edge transition">
<title>resetting&#45;&gt;resetting&#45;pending&#45;user&#45;action</title>
<path fill="none" stroke="black" d="M124.78,-26.98C201.63,-6.17 393.73,32.97 510,-55.95 606.64,-129.86 617.18,-292.36 617.25,-358.78"/>
<polygon fill="black" stroke="black" points="613.75,-358.49 617.17,-368.51 620.75,-358.54 613.75,-358.49"/>
<text text-anchor="start" x="199" y="-58.95" font-family="Helvetica,sans-Serif" font-size="10.00">Resetting, Pending User Action &#45; Reset pending user action all states &#160;&#160;</text>
</g>
<!-- resetting&#45;pending&#45;user&#45;action&#45;&gt;resetting&#45;pending&#45;user&#45;action -->
<g id="edge10" class="edge transition">
<title>resetting&#45;pending&#45;user&#45;action&#45;&gt;resetting&#45;pending&#45;user&#45;action</title>
<path fill="none" stroke="black" d="M570.22,-405.73C562.19,-415.26 577.95,-423.95 617.5,-423.95 640.37,-423.95 655.28,-421.05 662.24,-416.75"/>
<polygon fill="black" stroke="black" points="665.61,-417.73 664.44,-407.2 658.79,-416.17 665.61,-417.73"/>
<text text-anchor="start" x="462" y="-426.95" font-family="Helvetica,sans-Serif" font-size="10.00">Resetting, Pending User Action &#45; Reset pending user action all states &#160;&#160;</text>
</g>
</g>
</svg>
