<?xml version="1.0" encoding="UTF-8" standalone="no"?>
<!DOCTYPE svg PUBLIC "-//W3C//DTD SVG 1.1//EN"
 "http://www.w3.org/Graphics/SVG/1.1/DTD/svg11.dtd">
<!-- Generated by graphviz version 7.1.0 (0)
 -->
<!-- Title: state transitions Pages: 1 -->
<svg width="620pt" height="209pt"
 viewBox="0.00 0.00 620.00 208.87" xmlns="http://www.w3.org/2000/svg" xmlns:xlink="http://www.w3.org/1999/xlink">
<g id="graph0" class="graph" transform="scale(1 1) rotate(0) translate(4 204.87)">
<title>state transitions</title>
<polygon fill="white" stroke="none" points="-4,4 -4,-204.87 616,-204.87 616,4 -4,4"/>
<!-- insufficient -->
<g id="node1" class="node state regular">
<title>insufficient</title>
<polygon fill="#ffffff" fill-opacity="0.003922" stroke="none" stroke-width="2" points="116,-200.87 36,-200.87 36,-164.87 116,-164.87 116,-200.87"/>
<text text-anchor="start" x="47" y="-179.27" font-family="Helvetica,sans-Serif" font-size="12.00">insufficient</text>
<path fill="none" stroke="black" stroke-width="2" d="M48,-166.37C48,-166.37 104,-166.37 104,-166.37 109.5,-166.37 115,-171.87 115,-177.37 115,-177.37 115,-188.37 115,-188.37 115,-193.87 109.5,-199.37 104,-199.37 104,-199.37 48,-199.37 48,-199.37 42.5,-199.37 37,-193.87 37,-188.37 37,-188.37 37,-177.37 37,-177.37 37,-171.87 42.5,-166.37 48,-166.37"/>
</g>
<!-- ready -->
<g id="node4" class="node state regular">
<title>ready</title>
<polygon fill="#ffffff" fill-opacity="0.003922" stroke="none" stroke-width="2" points="509,-112.87 453,-112.87 453,-76.87 509,-76.87 509,-112.87"/>
<text text-anchor="start" x="465.5" y="-91.27" font-family="Helvetica,sans-Serif" font-size="12.00">ready</text>
<path fill="none" stroke="black" stroke-width="2" d="M465,-78.37C465,-78.37 497,-78.37 497,-78.37 502.5,-78.37 508,-83.87 508,-89.37 508,-89.37 508,-100.37 508,-100.37 508,-105.87 502.5,-111.37 497,-111.37 497,-111.37 465,-111.37 465,-111.37 459.5,-111.37 454,-105.87 454,-100.37 454,-100.37 454,-89.37 454,-89.37 454,-83.87 459.5,-78.37 465,-78.37"/>
</g>
<!-- insufficient&#45;&gt;ready -->
<g id="edge4" class="edge transition">
<title>insufficient&#45;&gt;ready</title>
<path fill="none" stroke="black" d="M115.74,-186.94C184.17,-192.37 329.18,-195.88 435,-142.87 445.05,-137.83 454.02,-129.58 461.26,-121.32"/>
<polygon fill="black" stroke="black" points="463.87,-123.66 467.45,-113.69 458.43,-119.25 463.87,-123.66"/>
<text text-anchor="start" x="171.5" y="-191.87" font-family="Helvetica,sans-Serif" font-size="10.00">RefreshStatus &#45; Refresh discovering cluster &#45; detect ready &#160;&#160;</text>
</g>
<!-- pending&#45;for&#45;input -->
<g id="node2" class="node state regular">
<title>pending&#45;for&#45;input</title>
<polygon fill="#ffffff" fill-opacity="0.003922" stroke="none" stroke-width="2" points="132.5,-146.87 19.5,-146.87 19.5,-110.87 132.5,-110.87 132.5,-146.87"/>
<text text-anchor="start" x="31" y="-125.27" font-family="Helvetica,sans-Serif" font-size="12.00">pending&#45;for&#45;input</text>
<path fill="none" stroke="black" stroke-width="2" d="M31.5,-112.37C31.5,-112.37 120.5,-112.37 120.5,-112.37 126,-112.37 131.5,-117.87 131.5,-123.37 131.5,-123.37 131.5,-134.37 131.5,-134.37 131.5,-139.87 126,-145.37 120.5,-145.37 120.5,-145.37 31.5,-145.37 31.5,-145.37 26,-145.37 20.5,-139.87 20.5,-134.37 20.5,-134.37 20.5,-123.37 20.5,-123.37 20.5,-117.87 26,-112.37 31.5,-112.37"/>
</g>
<!-- pending&#45;for&#45;input&#45;&gt;ready -->
<g id="edge2" class="edge transition">
<title>pending&#45;for&#45;input&#45;&gt;ready</title>
<path fill="none" stroke="black" d="M132.27,-128.87C202.92,-128.1 328.82,-124.11 435,-106.87 437.31,-106.49 439.67,-106.05 442.04,-105.56"/>
<polygon fill="black" stroke="black" points="442.65,-109.01 451.59,-103.33 441.05,-102.19 442.65,-109.01"/>
<text text-anchor="start" x="171.5" y="-130.87" font-family="Helvetica,sans-Serif" font-size="10.00">RefreshStatus &#45; Refresh discovering cluster &#45; detect ready &#160;&#160;</text>
</g>
<!-- preparing&#45;for&#45;installation -->
<g id="node3" class="node state regular">
<title>preparing&#45;for&#45;installation</title>
<polygon fill="#ffffff" fill-opacity="0.003922" stroke="none" stroke-width="2" points="152,-78.87 0,-78.87 0,-42.87 152,-42.87 152,-78.87"/>
<text text-anchor="start" x="11" y="-57.27" font-family="Helvetica,sans-Serif" font-size="12.00">preparing&#45;for&#45;installation</text>
<path fill="none" stroke="black" stroke-width="2" d="M12,-44.37C12,-44.37 140,-44.37 140,-44.37 145.5,-44.37 151,-49.87 151,-55.37 151,-55.37 151,-66.37 151,-66.37 151,-71.87 145.5,-77.37 140,-77.37 140,-77.37 12,-77.37 12,-77.37 6.5,-77.37 1,-71.87 1,-66.37 1,-66.37 1,-55.37 1,-55.37 1,-49.87 6.5,-44.37 12,-44.37"/>
</g>
<!-- preparing&#45;for&#45;installation&#45;&gt;ready -->
<g id="edge1" class="edge transition">
<title>preparing&#45;for&#45;installation&#45;&gt;ready</title>
<path fill="none" stroke="black" d="M151.83,-70.9C157.97,-71.61 164.09,-72.28 170,-72.87 267.69,-82.63 383.13,-89.63 441.73,-92.86"/>
<polygon fill="black" stroke="black" points="441.32,-96.34 451.49,-93.39 441.7,-89.35 441.32,-96.34"/>
<text text-anchor="start" x="170" y="-94.87" font-family="Helvetica,sans-Serif" font-size="10.00">Cancel Installation &#45; Cancel installation of preparing cluster &#160;&#160;</text>
</g>
<!-- preparing&#45;for&#45;installation&#45;&gt;ready -->
<g id="edge5" class="edge transition">
<title>preparing&#45;for&#45;installation&#45;&gt;ready</title>
<path fill="none" stroke="black" d="M151.87,-59.99C158,-59.94 164.11,-59.9 170,-59.87 287.78,-59.23 323.6,-21.64 435,-59.87 441.76,-62.19 448.28,-65.98 454.17,-70.23"/>
<polygon fill="black" stroke="black" points="451.65,-72.7 461.65,-76.2 456.02,-67.23 451.65,-72.7"/>
<text text-anchor="start" x="172" y="-62.87" font-family="Helvetica,sans-Serif" font-size="10.00">RefreshStatus &#45; Refresh preparing cluster &#45; detect timeout &#160;&#160;</text>
</g>
<!-- preparing&#45;for&#45;installation&#45;&gt;ready -->
<g id="edge6" class="edge transition">
<title>preparing&#45;for&#45;installation&#45;&gt;ready</title>
<path fill="none" stroke="black" d="M118.03,-42.97C187.77,-15.45 331.88,28.54 435,-26.87 450.75,-35.33 461.92,-52 469.19,-66.72"/>
<polygon fill="black" stroke="black" points="465.87,-67.89 473.18,-75.57 472.25,-65.01 465.87,-67.89"/>
<text text-anchor="start" x="191.5" y="-29.87" font-family="Helvetica,sans-Serif" font-size="10.00">RefreshStatus &#45; Refresh preparing cluster &#45; failed &#160;&#160;</text>
</g>
<!-- ready&#45;&gt;ready -->
<g id="edge3" class="edge transition">
<title>ready&#45;&gt;ready</title>
<path fill="none" stroke="black" d="M453.05,-107.79C440.31,-119 449.62,-130.87 481,-130.87 503.06,-130.87 514.22,-125 514.46,-117.62"/>
<polygon fill="black" stroke="black" points="517.63,-116.11 509.69,-109.11 511.53,-119.54 517.63,-116.11"/>
<text text-anchor="start" x="350" y="-133.87" font-family="Helvetica,sans-Serif" font-size="10.00">RefreshStatus &#45; Refresh discovering cluster &#45; detect ready &#160;&#160;</text>
</g>
</g>
</svg>
