<?xml version="1.0" encoding="UTF-8" standalone="no"?>
<!DOCTYPE svg PUBLIC "-//W3C//DTD SVG 1.1//EN"
 "http://www.w3.org/Graphics/SVG/1.1/DTD/svg11.dtd">
<!-- Generated by graphviz version 5.0.0 (0)
 -->
<!-- Title: state transitions Pages: 1 -->
<svg width="691pt" height="493pt"
 viewBox="0.00 0.00 691.00 492.76" xmlns="http://www.w3.org/2000/svg" xmlns:xlink="http://www.w3.org/1999/xlink">
<g id="graph0" class="graph" transform="scale(1 1) rotate(0) translate(4 488.76)">
<title>state transitions</title>
<polygon fill="white" stroke="transparent" points="-4,4 -4,-488.76 687,-488.76 687,4 -4,4"/>
<!-- cancelled -->
<g id="node1" class="node state regular">
<title>cancelled</title>
<polygon fill="#ffffff" fill-opacity="0.003922" stroke="transparent" stroke-width="2" points="127.5,-464.76 53.5,-464.76 53.5,-428.76 127.5,-428.76 127.5,-464.76"/>
<text text-anchor="start" x="64.5" y="-443.16" font-family="Helvetica,sans-Serif" font-size="12.00">cancelled</text>
<path fill="none" stroke="black" stroke-width="2" d="M65.5,-430.26C65.5,-430.26 115.5,-430.26 115.5,-430.26 121,-430.26 126.5,-435.76 126.5,-441.26 126.5,-441.26 126.5,-452.26 126.5,-452.26 126.5,-457.76 121,-463.26 115.5,-463.26 115.5,-463.26 65.5,-463.26 65.5,-463.26 60,-463.26 54.5,-457.76 54.5,-452.26 54.5,-452.26 54.5,-441.26 54.5,-441.26 54.5,-435.76 60,-430.26 65.5,-430.26"/>
</g>
<!-- insufficient -->
<g id="node6" class="node state regular">
<title>insufficient</title>
<polygon fill="#ffffff" fill-opacity="0.003922" stroke="transparent" stroke-width="2" points="581,-231.76 501,-231.76 501,-195.76 581,-195.76 581,-231.76"/>
<text text-anchor="start" x="512" y="-210.16" font-family="Helvetica,sans-Serif" font-size="12.00">insufficient</text>
<path fill="none" stroke="black" stroke-width="2" d="M513,-197.26C513,-197.26 569,-197.26 569,-197.26 574.5,-197.26 580,-202.76 580,-208.26 580,-208.26 580,-219.26 580,-219.26 580,-224.76 574.5,-230.26 569,-230.26 569,-230.26 513,-230.26 513,-230.26 507.5,-230.26 502,-224.76 502,-219.26 502,-219.26 502,-208.26 502,-208.26 502,-202.76 507.5,-197.26 513,-197.26"/>
</g>
<!-- cancelled&#45;&gt;insufficient -->
<g id="edge12" class="edge transition">
<title>cancelled&#45;&gt;insufficient</title>
<path fill="none" stroke="black" d="M127.76,-456.16C203.31,-473.4 379.19,-500.99 483,-415.76 509.89,-393.68 528.39,-292.12 536.04,-241.96"/>
<polygon fill="black" stroke="black" points="539.54,-242.2 537.55,-231.8 532.62,-241.17 539.54,-242.2"/>
<text text-anchor="start" x="264" y="-476.76" font-family="Helvetica,sans-Serif" font-size="10.00">Reset Cluster &#45; Reset installation &#160;&#160;</text>
</g>
<!-- error -->
<g id="node2" class="node state regular">
<title>error</title>
<polygon fill="#ffffff" fill-opacity="0.003922" stroke="transparent" stroke-width="2" points="118.5,-410.76 62.5,-410.76 62.5,-374.76 118.5,-374.76 118.5,-410.76"/>
<text text-anchor="start" x="78" y="-389.16" font-family="Helvetica,sans-Serif" font-size="12.00">error</text>
<path fill="none" stroke="black" stroke-width="2" d="M74.5,-376.26C74.5,-376.26 106.5,-376.26 106.5,-376.26 112,-376.26 117.5,-381.76 117.5,-387.26 117.5,-387.26 117.5,-398.26 117.5,-398.26 117.5,-403.76 112,-409.26 106.5,-409.26 106.5,-409.26 74.5,-409.26 74.5,-409.26 69,-409.26 63.5,-403.76 63.5,-398.26 63.5,-398.26 63.5,-387.26 63.5,-387.26 63.5,-381.76 69,-376.26 74.5,-376.26"/>
</g>
<!-- error&#45;&gt;insufficient -->
<g id="edge11" class="edge transition">
<title>error&#45;&gt;insufficient</title>
<path fill="none" stroke="black" d="M118.76,-394.97C197.86,-400.83 425.5,-413.51 483,-370.76 523.6,-340.58 535.33,-278.62 538.69,-242.22"/>
<polygon fill="black" stroke="black" points="542.21,-242.04 539.49,-231.8 535.24,-241.5 542.21,-242.04"/>
<text text-anchor="start" x="264" y="-403.76" font-family="Helvetica,sans-Serif" font-size="10.00">Reset Cluster &#45; Reset installation &#160;&#160;</text>
</g>
<!-- finalizing -->
<g id="node3" class="node state regular">
<title>finalizing</title>
<polygon fill="#ffffff" fill-opacity="0.003922" stroke="transparent" stroke-width="2" points="125.5,-356.76 55.5,-356.76 55.5,-320.76 125.5,-320.76 125.5,-356.76"/>
<text text-anchor="start" x="66.5" y="-335.16" font-family="Helvetica,sans-Serif" font-size="12.00">finalizing</text>
<path fill="none" stroke="black" stroke-width="2" d="M67.5,-322.26C67.5,-322.26 113.5,-322.26 113.5,-322.26 119,-322.26 124.5,-327.76 124.5,-333.26 124.5,-333.26 124.5,-344.26 124.5,-344.26 124.5,-349.76 119,-355.26 113.5,-355.26 113.5,-355.26 67.5,-355.26 67.5,-355.26 62,-355.26 56.5,-349.76 56.5,-344.26 56.5,-344.26 56.5,-333.26 56.5,-333.26 56.5,-327.76 62,-322.26 67.5,-322.26"/>
</g>
<!-- finalizing&#45;&gt;insufficient -->
<g id="edge13" class="edge transition">
<title>finalizing&#45;&gt;insufficient</title>
<path fill="none" stroke="black" d="M125.74,-345.15C197.83,-356.71 368.09,-373.85 483,-303.76 506.17,-289.63 521.51,-262.12 530.38,-241.22"/>
<polygon fill="black" stroke="black" points="533.66,-242.45 534.11,-231.86 527.15,-239.85 533.66,-242.45"/>
<text text-anchor="start" x="264" y="-358.76" font-family="Helvetica,sans-Serif" font-size="10.00">Reset Cluster &#45; Reset installation &#160;&#160;</text>
</g>
<!-- installing -->
<g id="node4" class="node state regular">
<title>installing</title>
<polygon fill="#ffffff" fill-opacity="0.003922" stroke="transparent" stroke-width="2" points="126,-302.76 55,-302.76 55,-266.76 126,-266.76 126,-302.76"/>
<text text-anchor="start" x="66.5" y="-281.16" font-family="Helvetica,sans-Serif" font-size="12.00">installing</text>
<path fill="none" stroke="black" stroke-width="2" d="M67,-268.26C67,-268.26 114,-268.26 114,-268.26 119.5,-268.26 125,-273.76 125,-279.26 125,-279.26 125,-290.26 125,-290.26 125,-295.76 119.5,-301.26 114,-301.26 114,-301.26 67,-301.26 67,-301.26 61.5,-301.26 56,-295.76 56,-290.26 56,-290.26 56,-279.26 56,-279.26 56,-273.76 61.5,-268.26 67,-268.26"/>
</g>
<!-- installing&#45;&gt;insufficient -->
<g id="edge9" class="edge transition">
<title>installing&#45;&gt;insufficient</title>
<path fill="none" stroke="black" d="M126.16,-287.26C195.89,-291.1 357.19,-294.02 483,-250.76 492.09,-247.63 501.18,-242.75 509.33,-237.54"/>
<polygon fill="black" stroke="black" points="511.45,-240.33 517.77,-231.83 507.53,-234.53 511.45,-240.33"/>
<text text-anchor="start" x="264" y="-291.76" font-family="Helvetica,sans-Serif" font-size="10.00">Reset Cluster &#45; Reset installation &#160;&#160;</text>
</g>
<!-- installing&#45;pending&#45;user&#45;action -->
<g id="node5" class="node state regular">
<title>installing&#45;pending&#45;user&#45;action</title>
<polygon fill="#ffffff" fill-opacity="0.003922" stroke="transparent" stroke-width="2" points="181,-248.76 0,-248.76 0,-212.76 181,-212.76 181,-248.76"/>
<text text-anchor="start" x="11.5" y="-227.16" font-family="Helvetica,sans-Serif" font-size="12.00">installing&#45;pending&#45;user&#45;action</text>
<path fill="none" stroke="black" stroke-width="2" d="M12,-214.26C12,-214.26 169,-214.26 169,-214.26 174.5,-214.26 180,-219.76 180,-225.26 180,-225.26 180,-236.26 180,-236.26 180,-241.76 174.5,-247.26 169,-247.26 169,-247.26 12,-247.26 12,-247.26 6.5,-247.26 1,-241.76 1,-236.26 1,-236.26 1,-225.26 1,-225.26 1,-219.76 6.5,-214.26 12,-214.26"/>
</g>
<!-- installing&#45;pending&#45;user&#45;action&#45;&gt;insufficient -->
<g id="edge10" class="edge transition">
<title>installing&#45;pending&#45;user&#45;action&#45;&gt;insufficient</title>
<path fill="none" stroke="black" d="M181.21,-234.56C260.76,-236.75 379.97,-237.15 483,-225.76 485.55,-225.48 488.16,-225.13 490.78,-224.74"/>
<polygon fill="black" stroke="black" points="491.64,-228.15 500.91,-223.03 490.47,-221.25 491.64,-228.15"/>
<text text-anchor="start" x="264" y="-238.76" font-family="Helvetica,sans-Serif" font-size="10.00">Reset Cluster &#45; Reset installation &#160;&#160;</text>
</g>
<!-- insufficient&#45;&gt;insufficient -->
<g id="edge3" class="edge transition">
<title>insufficient&#45;&gt;insufficient</title>
<path fill="none" stroke="black" d="M522.91,-231.91C520.13,-241.3 526.16,-249.76 541,-249.76 550.05,-249.76 555.82,-246.62 558.32,-242.04"/>
<polygon fill="black" stroke="black" points="561.82,-242.15 559.09,-231.91 554.84,-241.62 561.82,-242.15"/>
<text text-anchor="start" x="399" y="-252.76" font-family="Helvetica,sans-Serif" font-size="10.00">RefreshStatus &#45; Refresh discovering cluster &#45; detect insufficient &#160;&#160;</text>
</g>
<!-- insufficient&#45;&gt;insufficient -->
<g id="edge6" class="edge transition">
<title>insufficient&#45;&gt;insufficient</title>
<path fill="none" stroke="black" d="M510.68,-232.02C494.96,-249.16 505.06,-267.76 541,-267.76 571.04,-267.76 583.03,-254.76 576.97,-240.49"/>
<polygon fill="black" stroke="black" points="579.79,-238.39 571.32,-232.02 573.96,-242.28 579.79,-238.39"/>
<text text-anchor="start" x="439.5" y="-270.76" font-family="Helvetica,sans-Serif" font-size="10.00">RefreshStatus &#45; TODO: Name this transition &#160;&#160;</text>
</g>
<!-- pending&#45;for&#45;input -->
<g id="node7" class="node state regular">
<title>pending&#45;for&#45;input</title>
<polygon fill="#ffffff" fill-opacity="0.003922" stroke="transparent" stroke-width="2" points="147,-194.76 34,-194.76 34,-158.76 147,-158.76 147,-194.76"/>
<text text-anchor="start" x="45.5" y="-173.16" font-family="Helvetica,sans-Serif" font-size="12.00">pending&#45;for&#45;input</text>
<path fill="none" stroke="black" stroke-width="2" d="M46,-160.26C46,-160.26 135,-160.26 135,-160.26 140.5,-160.26 146,-165.76 146,-171.26 146,-171.26 146,-182.26 146,-182.26 146,-187.76 140.5,-193.26 135,-193.26 135,-193.26 46,-193.26 46,-193.26 40.5,-193.26 35,-187.76 35,-182.26 35,-182.26 35,-171.26 35,-171.26 35,-165.76 40.5,-160.26 46,-160.26"/>
</g>
<!-- pending&#45;for&#45;input&#45;&gt;insufficient -->
<g id="edge1" class="edge transition">
<title>pending&#45;for&#45;input&#45;&gt;insufficient</title>
<path fill="none" stroke="black" d="M147.2,-185.33C163.83,-187.68 182.13,-190.04 199,-191.76 302.5,-202.31 424.22,-208.73 490.63,-211.73"/>
<polygon fill="black" stroke="black" points="490.65,-215.23 500.8,-212.18 490.96,-208.24 490.65,-215.23"/>
<text text-anchor="start" x="199" y="-213.76" font-family="Helvetica,sans-Serif" font-size="10.00">RefreshStatus &#45; Refresh discovering cluster &#45; detect insufficient &#160;&#160;</text>
</g>
<!-- pending&#45;for&#45;input&#45;&gt;insufficient -->
<g id="edge4" class="edge transition">
<title>pending&#45;for&#45;input&#45;&gt;insufficient</title>
<path fill="none" stroke="black" d="M147.06,-173.38C239.71,-168.35 421.64,-161.26 483,-178.76 491.76,-181.26 500.51,-185.52 508.43,-190.22"/>
<polygon fill="black" stroke="black" points="506.65,-193.23 516.97,-195.64 510.4,-187.33 506.65,-193.23"/>
<text text-anchor="start" x="239.5" y="-181.76" font-family="Helvetica,sans-Serif" font-size="10.00">RefreshStatus &#45; TODO: Name this transition &#160;&#160;</text>
</g>
<!-- preparing&#45;for&#45;installation -->
<g id="node8" class="node state regular">
<title>preparing&#45;for&#45;installation</title>
<polygon fill="#ffffff" fill-opacity="0.003922" stroke="transparent" stroke-width="2" points="166.5,-136.76 14.5,-136.76 14.5,-100.76 166.5,-100.76 166.5,-136.76"/>
<text text-anchor="start" x="25.5" y="-115.16" font-family="Helvetica,sans-Serif" font-size="12.00">preparing&#45;for&#45;installation</text>
<path fill="none" stroke="black" stroke-width="2" d="M26.5,-102.26C26.5,-102.26 154.5,-102.26 154.5,-102.26 160,-102.26 165.5,-107.76 165.5,-113.26 165.5,-113.26 165.5,-124.26 165.5,-124.26 165.5,-129.76 160,-135.26 154.5,-135.26 154.5,-135.26 26.5,-135.26 26.5,-135.26 21,-135.26 15.5,-129.76 15.5,-124.26 15.5,-124.26 15.5,-113.26 15.5,-113.26 15.5,-107.76 21,-102.26 26.5,-102.26"/>
</g>
<!-- preparing&#45;for&#45;installation&#45;&gt;insufficient -->
<g id="edge7" class="edge transition">
<title>preparing&#45;for&#45;installation&#45;&gt;insufficient</title>
<path fill="none" stroke="black" d="M166.8,-122.17C272.58,-127.39 455.4,-138.23 483,-151.76 499.16,-159.68 512.95,-174.31 522.92,-187.37"/>
<polygon fill="black" stroke="black" points="520.21,-189.59 528.9,-195.64 525.88,-185.49 520.21,-189.59"/>
<text text-anchor="start" x="218.5" y="-154.76" font-family="Helvetica,sans-Serif" font-size="10.00">RefreshStatus &#45; Refresh preparing cluster &#45; insufficient &#160;&#160;</text>
</g>
<!-- preparing&#45;for&#45;installation&#45;&gt;insufficient -->
<g id="edge8" class="edge transition">
<title>preparing&#45;for&#45;installation&#45;&gt;insufficient</title>
<path fill="none" stroke="black" d="M166.78,-108.06C265.27,-95.6 431.39,-80.34 483,-110.76 510.27,-126.83 525.4,-161.16 533.11,-185.77"/>
<polygon fill="black" stroke="black" points="529.82,-187.01 535.97,-195.64 536.55,-185.06 529.82,-187.01"/>
<text text-anchor="start" x="264" y="-113.76" font-family="Helvetica,sans-Serif" font-size="10.00">Reset Cluster &#45; Reset installation &#160;&#160;</text>
</g>
<!-- ready -->
<g id="node9" class="node state regular">
<title>ready</title>
<polygon fill="#ffffff" fill-opacity="0.003922" stroke="transparent" stroke-width="2" points="118.5,-71.76 62.5,-71.76 62.5,-35.76 118.5,-35.76 118.5,-71.76"/>
<text text-anchor="start" x="75" y="-50.16" font-family="Helvetica,sans-Serif" font-size="12.00">ready</text>
<path fill="none" stroke="black" stroke-width="2" d="M74.5,-37.26C74.5,-37.26 106.5,-37.26 106.5,-37.26 112,-37.26 117.5,-42.76 117.5,-48.26 117.5,-48.26 117.5,-59.26 117.5,-59.26 117.5,-64.76 112,-70.26 106.5,-70.26 106.5,-70.26 74.5,-70.26 74.5,-70.26 69,-70.26 63.5,-64.76 63.5,-59.26 63.5,-59.26 63.5,-48.26 63.5,-48.26 63.5,-42.76 69,-37.26 74.5,-37.26"/>
</g>
<!-- ready&#45;&gt;insufficient -->
<g id="edge2" class="edge transition">
<title>ready&#45;&gt;insufficient</title>
<path fill="none" stroke="black" d="M118.76,-54.64C205.17,-57.55 468.17,-67.22 483,-77.76 518.07,-102.67 531.66,-153.46 536.86,-185.43"/>
<polygon fill="black" stroke="black" points="533.42,-186.09 538.32,-195.49 540.34,-185.09 533.42,-186.09"/>
<text text-anchor="start" x="199" y="-80.76" font-family="Helvetica,sans-Serif" font-size="10.00">RefreshStatus &#45; Refresh discovering cluster &#45; detect insufficient &#160;&#160;</text>
</g>
<!-- ready&#45;&gt;insufficient -->
<g id="edge5" class="edge transition">
<title>ready&#45;&gt;insufficient</title>
<path fill="none" stroke="black" d="M118.71,-42.83C187.34,-17.2 370.06,38.64 483,-42.76 528.46,-75.53 538.21,-146.13 539.97,-185.6"/>
<polygon fill="black" stroke="black" points="536.47,-185.73 540.27,-195.62 543.47,-185.52 536.47,-185.73"/>
<text text-anchor="start" x="239.5" y="-45.76" font-family="Helvetica,sans-Serif" font-size="10.00">RefreshStatus &#45; TODO: Name this transition &#160;&#160;</text>
</g>
</g>
</svg>
