<?xml version="1.0" encoding="UTF-8" standalone="no"?>
<!DOCTYPE svg PUBLIC "-//W3C//DTD SVG 1.1//EN"
 "http://www.w3.org/Graphics/SVG/1.1/DTD/svg11.dtd">
<!-- Generated by graphviz version 7.1.0 (0)
 -->
<!-- Title: state transitions Pages: 1 -->
<svg width="691pt" height="493pt"
 viewBox="0.00 0.00 691.00 492.75" xmlns="http://www.w3.org/2000/svg" xmlns:xlink="http://www.w3.org/1999/xlink">
<g id="graph0" class="graph" transform="scale(1 1) rotate(0) translate(4 488.75)">
<title>state transitions</title>
<polygon fill="white" stroke="none" points="-4,4 -4,-488.75 687,-488.75 687,4 -4,4"/>
<!-- cancelled -->
<g id="node1" class="node state regular">
<title>cancelled</title>
<polygon fill="#ffffff" fill-opacity="0.003922" stroke="none" stroke-width="2" points="127.5,-464.75 53.5,-464.75 53.5,-428.75 127.5,-428.75 127.5,-464.75"/>
<text text-anchor="start" x="64.5" y="-443.15" font-family="Helvetica,sans-Serif" font-size="12.00">cancelled</text>
<path fill="none" stroke="black" stroke-width="2" d="M65.5,-430.25C65.5,-430.25 115.5,-430.25 115.5,-430.25 121,-430.25 126.5,-435.75 126.5,-441.25 126.5,-441.25 126.5,-452.25 126.5,-452.25 126.5,-457.75 121,-463.25 115.5,-463.25 115.5,-463.25 65.5,-463.25 65.5,-463.25 60,-463.25 54.5,-457.75 54.5,-452.25 54.5,-452.25 54.5,-441.25 54.5,-441.25 54.5,-435.75 60,-430.25 65.5,-430.25"/>
</g>
<!-- insufficient -->
<g id="node6" class="node state regular">
<title>insufficient</title>
<polygon fill="#ffffff" fill-opacity="0.003922" stroke="none" stroke-width="2" points="581,-231.75 501,-231.75 501,-195.75 581,-195.75 581,-231.75"/>
<text text-anchor="start" x="512" y="-210.15" font-family="Helvetica,sans-Serif" font-size="12.00">insufficient</text>
<path fill="none" stroke="black" stroke-width="2" d="M513,-197.25C513,-197.25 569,-197.25 569,-197.25 574.5,-197.25 580,-202.75 580,-208.25 580,-208.25 580,-219.25 580,-219.25 580,-224.75 574.5,-230.25 569,-230.25 569,-230.25 513,-230.25 513,-230.25 507.5,-230.25 502,-224.75 502,-219.25 502,-219.25 502,-208.25 502,-208.25 502,-202.75 507.5,-197.25 513,-197.25"/>
</g>
<!-- cancelled&#45;&gt;insufficient -->
<g id="edge12" class="edge transition">
<title>cancelled&#45;&gt;insufficient</title>
<path fill="none" stroke="black" d="M127.47,-456.09C202.86,-473.33 379.05,-501.09 483,-415.75 509.79,-393.76 528.24,-292.9 535.95,-242.53"/>
<polygon fill="black" stroke="black" points="539.37,-243.37 537.38,-232.96 532.44,-242.34 539.37,-243.37"/>
<text text-anchor="start" x="264" y="-476.75" font-family="Helvetica,sans-Serif" font-size="10.00">Reset Cluster &#45; Reset installation &#160;&#160;</text>
</g>
<!-- error -->
<g id="node2" class="node state regular">
<title>error</title>
<polygon fill="#ffffff" fill-opacity="0.003922" stroke="none" stroke-width="2" points="118.5,-410.75 62.5,-410.75 62.5,-374.75 118.5,-374.75 118.5,-410.75"/>
<text text-anchor="start" x="78" y="-389.15" font-family="Helvetica,sans-Serif" font-size="12.00">error</text>
<path fill="none" stroke="black" stroke-width="2" d="M74.5,-376.25C74.5,-376.25 106.5,-376.25 106.5,-376.25 112,-376.25 117.5,-381.75 117.5,-387.25 117.5,-387.25 117.5,-398.25 117.5,-398.25 117.5,-403.75 112,-409.25 106.5,-409.25 106.5,-409.25 74.5,-409.25 74.5,-409.25 69,-409.25 63.5,-403.75 63.5,-398.25 63.5,-398.25 63.5,-387.25 63.5,-387.25 63.5,-381.75 69,-376.25 74.5,-376.25"/>
</g>
<!-- error&#45;&gt;insufficient -->
<g id="edge11" class="edge transition">
<title>error&#45;&gt;insufficient</title>
<path fill="none" stroke="black" d="M118.48,-394.95C197.32,-400.8 425.43,-413.56 483,-370.75 523.35,-340.75 535.19,-279.36 538.63,-242.87"/>
<polygon fill="black" stroke="black" points="542.11,-243.28 539.39,-233.04 535.13,-242.74 542.11,-243.28"/>
<text text-anchor="start" x="264" y="-403.75" font-family="Helvetica,sans-Serif" font-size="10.00">Reset Cluster &#45; Reset installation &#160;&#160;</text>
</g>
<!-- finalizing -->
<g id="node3" class="node state regular">
<title>finalizing</title>
<polygon fill="#ffffff" fill-opacity="0.003922" stroke="none" stroke-width="2" points="125.5,-356.75 55.5,-356.75 55.5,-320.75 125.5,-320.75 125.5,-356.75"/>
<text text-anchor="start" x="66.5" y="-335.15" font-family="Helvetica,sans-Serif" font-size="12.00">finalizing</text>
<path fill="none" stroke="black" stroke-width="2" d="M67.5,-322.25C67.5,-322.25 113.5,-322.25 113.5,-322.25 119,-322.25 124.5,-327.75 124.5,-333.25 124.5,-333.25 124.5,-344.25 124.5,-344.25 124.5,-349.75 119,-355.25 113.5,-355.25 113.5,-355.25 67.5,-355.25 67.5,-355.25 62,-355.25 56.5,-349.75 56.5,-344.25 56.5,-344.25 56.5,-333.25 56.5,-333.25 56.5,-327.75 62,-322.25 67.5,-322.25"/>
</g>
<!-- finalizing&#45;&gt;insufficient -->
<g id="edge13" class="edge transition">
<title>finalizing&#45;&gt;insufficient</title>
<path fill="none" stroke="black" d="M125.46,-345.1C197.4,-356.66 367.94,-373.93 483,-303.75 505.89,-289.8 521.13,-262.79 530.05,-241.99"/>
<polygon fill="black" stroke="black" points="533.22,-243.48 533.69,-232.89 526.72,-240.87 533.22,-243.48"/>
<text text-anchor="start" x="264" y="-358.75" font-family="Helvetica,sans-Serif" font-size="10.00">Reset Cluster &#45; Reset installation &#160;&#160;</text>
</g>
<!-- installing -->
<g id="node4" class="node state regular">
<title>installing</title>
<polygon fill="#ffffff" fill-opacity="0.003922" stroke="none" stroke-width="2" points="126,-302.75 55,-302.75 55,-266.75 126,-266.75 126,-302.75"/>
<text text-anchor="start" x="66.5" y="-281.15" font-family="Helvetica,sans-Serif" font-size="12.00">installing</text>
<path fill="none" stroke="black" stroke-width="2" d="M67,-268.25C67,-268.25 114,-268.25 114,-268.25 119.5,-268.25 125,-273.75 125,-279.25 125,-279.25 125,-290.25 125,-290.25 125,-295.75 119.5,-301.25 114,-301.25 114,-301.25 67,-301.25 67,-301.25 61.5,-301.25 56,-295.75 56,-290.25 56,-290.25 56,-279.25 56,-279.25 56,-273.75 61.5,-268.25 67,-268.25"/>
</g>
<!-- installing&#45;&gt;insufficient -->
<g id="edge9" class="edge transition">
<title>installing&#45;&gt;insufficient</title>
<path fill="none" stroke="black" d="M125.9,-287.24C195.48,-291.09 357.03,-294.07 483,-250.75 491.79,-247.73 500.56,-243.07 508.5,-238.06"/>
<polygon fill="black" stroke="black" points="510.45,-240.96 516.79,-232.47 506.54,-235.16 510.45,-240.96"/>
<text text-anchor="start" x="264" y="-291.75" font-family="Helvetica,sans-Serif" font-size="10.00">Reset Cluster &#45; Reset installation &#160;&#160;</text>
</g>
<!-- installing&#45;pending&#45;user&#45;action -->
<g id="node5" class="node state regular">
<title>installing&#45;pending&#45;user&#45;action</title>
<polygon fill="#ffffff" fill-opacity="0.003922" stroke="none" stroke-width="2" points="181,-248.75 0,-248.75 0,-212.75 181,-212.75 181,-248.75"/>
<text text-anchor="start" x="11.5" y="-227.15" font-family="Helvetica,sans-Serif" font-size="12.00">installing&#45;pending&#45;user&#45;action</text>
<path fill="none" stroke="black" stroke-width="2" d="M12,-214.25C12,-214.25 169,-214.25 169,-214.25 174.5,-214.25 180,-219.75 180,-225.25 180,-225.25 180,-236.25 180,-236.25 180,-241.75 174.5,-247.25 169,-247.25 169,-247.25 12,-247.25 12,-247.25 6.5,-247.25 1,-241.75 1,-236.25 1,-236.25 1,-225.25 1,-225.25 1,-219.75 6.5,-214.25 12,-214.25"/>
</g>
<!-- installing&#45;pending&#45;user&#45;action&#45;&gt;insufficient -->
<g id="edge10" class="edge transition">
<title>installing&#45;pending&#45;user&#45;action&#45;&gt;insufficient</title>
<path fill="none" stroke="black" d="M180.82,-234.54C260.37,-236.74 379.8,-237.17 483,-225.75 485.32,-225.5 487.68,-225.19 490.06,-224.84"/>
<polygon fill="black" stroke="black" points="490.45,-228.33 499.73,-223.22 489.29,-221.42 490.45,-228.33"/>
<text text-anchor="start" x="264" y="-238.75" font-family="Helvetica,sans-Serif" font-size="10.00">Reset Cluster &#45; Reset installation &#160;&#160;</text>
</g>
<!-- insufficient&#45;&gt;insufficient -->
<g id="edge3" class="edge transition">
<title>insufficient&#45;&gt;insufficient</title>
<path fill="none" stroke="black" d="M523.02,-231.54C519.97,-241.07 525.96,-249.75 541,-249.75 549.46,-249.75 555.06,-247.01 557.79,-242.91"/>
<polygon fill="black" stroke="black" points="561.26,-243.35 558.82,-233.04 554.3,-242.63 561.26,-243.35"/>
<text text-anchor="start" x="399" y="-252.75" font-family="Helvetica,sans-Serif" font-size="10.00">RefreshStatus &#45; Refresh discovering cluster &#45; detect insufficient &#160;&#160;</text>
</g>
<!-- insufficient&#45;&gt;insufficient -->
<g id="edge6" class="edge transition">
<title>insufficient&#45;&gt;insufficient</title>
<path fill="none" stroke="black" d="M510.94,-231.73C494.85,-248.95 504.87,-267.75 541,-267.75 570.64,-267.75 582.71,-255.1 577.21,-241.05"/>
<polygon fill="black" stroke="black" points="580.32,-239.42 571.9,-233 574.48,-243.27 580.32,-239.42"/>
<text text-anchor="start" x="439.5" y="-270.75" font-family="Helvetica,sans-Serif" font-size="10.00">RefreshStatus &#45; TODO: Name this transition &#160;&#160;</text>
</g>
<!-- pending&#45;for&#45;input -->
<g id="node7" class="node state regular">
<title>pending&#45;for&#45;input</title>
<polygon fill="#ffffff" fill-opacity="0.003922" stroke="none" stroke-width="2" points="147,-194.75 34,-194.75 34,-158.75 147,-158.75 147,-194.75"/>
<text text-anchor="start" x="45.5" y="-173.15" font-family="Helvetica,sans-Serif" font-size="12.00">pending&#45;for&#45;input</text>
<path fill="none" stroke="black" stroke-width="2" d="M46,-160.25C46,-160.25 135,-160.25 135,-160.25 140.5,-160.25 146,-165.75 146,-171.25 146,-171.25 146,-182.25 146,-182.25 146,-187.75 140.5,-193.25 135,-193.25 135,-193.25 46,-193.25 46,-193.25 40.5,-193.25 35,-187.75 35,-182.25 35,-182.25 35,-171.25 35,-171.25 35,-165.75 40.5,-160.25 46,-160.25"/>
</g>
<!-- pending&#45;for&#45;input&#45;&gt;insufficient -->
<g id="edge1" class="edge transition">
<title>pending&#45;for&#45;input&#45;&gt;insufficient</title>
<path fill="none" stroke="black" d="M146.92,-185.29C163.63,-187.65 182.03,-190.03 199,-191.75 302,-202.25 423.04,-208.66 489.66,-211.68"/>
<polygon fill="black" stroke="black" points="489.4,-215.17 499.54,-212.12 489.71,-208.18 489.4,-215.17"/>
<text text-anchor="start" x="199" y="-213.75" font-family="Helvetica,sans-Serif" font-size="10.00">RefreshStatus &#45; Refresh discovering cluster &#45; detect insufficient &#160;&#160;</text>
</g>
<!-- pending&#45;for&#45;input&#45;&gt;insufficient -->
<g id="edge4" class="edge transition">
<title>pending&#45;for&#45;input&#45;&gt;insufficient</title>
<path fill="none" stroke="black" d="M146.69,-173.39C239.22,-168.36 421.56,-161.23 483,-178.75 491.46,-181.17 499.91,-185.22 507.61,-189.73"/>
<polygon fill="black" stroke="black" points="505.64,-192.63 515.96,-195.01 509.38,-186.71 505.64,-192.63"/>
<text text-anchor="start" x="239.5" y="-181.75" font-family="Helvetica,sans-Serif" font-size="10.00">RefreshStatus &#45; TODO: Name this transition &#160;&#160;</text>
</g>
<!-- preparing&#45;for&#45;installation -->
<g id="node8" class="node state regular">
<title>preparing&#45;for&#45;installation</title>
<polygon fill="#ffffff" fill-opacity="0.003922" stroke="none" stroke-width="2" points="166.5,-136.75 14.5,-136.75 14.5,-100.75 166.5,-100.75 166.5,-136.75"/>
<text text-anchor="start" x="25.5" y="-115.15" font-family="Helvetica,sans-Serif" font-size="12.00">preparing&#45;for&#45;installation</text>
<path fill="none" stroke="black" stroke-width="2" d="M26.5,-102.25C26.5,-102.25 154.5,-102.25 154.5,-102.25 160,-102.25 165.5,-107.75 165.5,-113.25 165.5,-113.25 165.5,-124.25 165.5,-124.25 165.5,-129.75 160,-135.25 154.5,-135.25 154.5,-135.25 26.5,-135.25 26.5,-135.25 21,-135.25 15.5,-129.75 15.5,-124.25 15.5,-124.25 15.5,-113.25 15.5,-113.25 15.5,-107.75 21,-102.25 26.5,-102.25"/>
</g>
<!-- preparing&#45;for&#45;installation&#45;&gt;insufficient -->
<g id="edge7" class="edge transition">
<title>preparing&#45;for&#45;installation&#45;&gt;insufficient</title>
<path fill="none" stroke="black" d="M166.36,-122.14C272.07,-127.36 455.36,-138.21 483,-151.75 498.95,-159.57 512.6,-173.94 522.54,-186.87"/>
<polygon fill="black" stroke="black" points="519.51,-188.66 528.22,-194.7 525.18,-184.55 519.51,-188.66"/>
<text text-anchor="start" x="218.5" y="-154.75" font-family="Helvetica,sans-Serif" font-size="10.00">RefreshStatus &#45; Refresh preparing cluster &#45; insufficient &#160;&#160;</text>
</g>
<!-- preparing&#45;for&#45;installation&#45;&gt;insufficient -->
<g id="edge8" class="edge transition">
<title>preparing&#45;for&#45;installation&#45;&gt;insufficient</title>
<path fill="none" stroke="black" d="M166.37,-108.1C264.8,-95.63 431.32,-80.29 483,-110.75 510.05,-126.7 525.17,-160.62 532.93,-185.18"/>
<polygon fill="black" stroke="black" points="529.51,-185.96 535.66,-194.59 536.23,-184.01 529.51,-185.96"/>
<text text-anchor="start" x="264" y="-113.75" font-family="Helvetica,sans-Serif" font-size="10.00">Reset Cluster &#45; Reset installation &#160;&#160;</text>
</g>
<!-- ready -->
<g id="node9" class="node state regular">
<title>ready</title>
<polygon fill="#ffffff" fill-opacity="0.003922" stroke="none" stroke-width="2" points="118.5,-71.75 62.5,-71.75 62.5,-35.75 118.5,-35.75 118.5,-71.75"/>
<text text-anchor="start" x="75" y="-50.15" font-family="Helvetica,sans-Serif" font-size="12.00">ready</text>
<path fill="none" stroke="black" stroke-width="2" d="M74.5,-37.25C74.5,-37.25 106.5,-37.25 106.5,-37.25 112,-37.25 117.5,-42.75 117.5,-48.25 117.5,-48.25 117.5,-59.25 117.5,-59.25 117.5,-64.75 112,-70.25 106.5,-70.25 106.5,-70.25 74.5,-70.25 74.5,-70.25 69,-70.25 63.5,-64.75 63.5,-59.25 63.5,-59.25 63.5,-48.25 63.5,-48.25 63.5,-42.75 69,-37.25 74.5,-37.25"/>
</g>
<!-- ready&#45;&gt;insufficient -->
<g id="edge2" class="edge transition">
<title>ready&#45;&gt;insufficient</title>
<path fill="none" stroke="black" d="M118.46,-54.63C204.55,-57.52 468.15,-67.21 483,-77.75 517.79,-102.47 531.44,-152.66 536.73,-184.68"/>
<polygon fill="black" stroke="black" points="533.25,-185.08 538.16,-194.47 540.18,-184.07 533.25,-185.08"/>
<text text-anchor="start" x="199" y="-80.75" font-family="Helvetica,sans-Serif" font-size="10.00">RefreshStatus &#45; Refresh discovering cluster &#45; detect insufficient &#160;&#160;</text>
</g>
<!-- ready&#45;&gt;insufficient -->
<g id="edge5" class="edge transition">
<title>ready&#45;&gt;insufficient</title>
<path fill="none" stroke="black" d="M118.46,-42.92C186.9,-17.33 369.92,38.75 483,-42.75 528.09,-75.26 538.05,-144.98 539.92,-184.62"/>
<polygon fill="black" stroke="black" points="536.42,-184.49 540.23,-194.38 543.41,-184.27 536.42,-184.49"/>
<text text-anchor="start" x="239.5" y="-45.75" font-family="Helvetica,sans-Serif" font-size="10.00">RefreshStatus &#45; TODO: Name this transition &#160;&#160;</text>
</g>
</g>
</svg>
