<?xml version="1.0" encoding="UTF-8" standalone="no"?>
<!DOCTYPE svg PUBLIC "-//W3C//DTD SVG 1.1//EN"
 "http://www.w3.org/Graphics/SVG/1.1/DTD/svg11.dtd">
<!-- Generated by graphviz version 5.0.0 (0)
 -->
<!-- Title: state transitions Pages: 1 -->
<svg width="510pt" height="100pt"
 viewBox="0.00 0.00 510.00 100.00" xmlns="http://www.w3.org/2000/svg" xmlns:xlink="http://www.w3.org/1999/xlink">
<g id="graph0" class="graph" transform="scale(1 1) rotate(0) translate(4 96)">
<title>state transitions</title>
<polygon fill="white" stroke="transparent" points="-4,4 -4,-96 506,-96 506,4 -4,4"/>
<!-- finalizing -->
<g id="node1" class="node state regular">
<title>finalizing</title>
<polygon fill="#ffffff" fill-opacity="0.003922" stroke="transparent" stroke-width="2" points="70.5,-90 0.5,-90 0.5,-54 70.5,-54 70.5,-90"/>
<text text-anchor="start" x="11.5" y="-68.4" font-family="Helvetica,sans-Serif" font-size="12.00">finalizing</text>
<path fill="none" stroke="black" stroke-width="2" d="M12.5,-55.5C12.5,-55.5 58.5,-55.5 58.5,-55.5 64,-55.5 69.5,-61 69.5,-66.5 69.5,-66.5 69.5,-77.5 69.5,-77.5 69.5,-83 64,-88.5 58.5,-88.5 58.5,-88.5 12.5,-88.5 12.5,-88.5 7,-88.5 1.5,-83 1.5,-77.5 1.5,-77.5 1.5,-66.5 1.5,-66.5 1.5,-61 7,-55.5 12.5,-55.5"/>
</g>
<!-- installing&#45;pending&#45;user&#45;action -->
<g id="node3" class="node state regular">
<title>installing&#45;pending&#45;user&#45;action</title>
<polygon fill="#ffffff" fill-opacity="0.003922" stroke="transparent" stroke-width="2" points="491,-63 310,-63 310,-27 491,-27 491,-63"/>
<text text-anchor="start" x="321.5" y="-41.4" font-family="Helvetica,sans-Serif" font-size="12.00">installing&#45;pending&#45;user&#45;action</text>
<path fill="none" stroke="black" stroke-width="2" d="M322,-28.5C322,-28.5 479,-28.5 479,-28.5 484.5,-28.5 490,-34 490,-39.5 490,-39.5 490,-50.5 490,-50.5 490,-56 484.5,-61.5 479,-61.5 479,-61.5 322,-61.5 322,-61.5 316.5,-61.5 311,-56 311,-50.5 311,-50.5 311,-39.5 311,-39.5 311,-34 316.5,-28.5 322,-28.5"/>
</g>
<!-- finalizing&#45;&gt;installing&#45;pending&#45;user&#45;action -->
<g id="edge3" class="edge transition">
<title>finalizing&#45;&gt;installing&#45;pending&#45;user&#45;action</title>
<path fill="none" stroke="black" d="M70.65,-69.46C122.59,-65.6 223.46,-58.09 299.86,-52.41"/>
<polygon fill="black" stroke="black" points="300.28,-55.89 310,-51.66 299.76,-48.91 300.28,-55.89"/>
<text text-anchor="start" x="89" y="-71" font-family="Helvetica,sans-Serif" font-size="10.00">RefreshStatus &#45; TODO: Name this transition &#160;&#160;</text>
</g>
<!-- installing -->
<g id="node2" class="node state regular">
<title>installing</title>
<polygon fill="#ffffff" fill-opacity="0.003922" stroke="transparent" stroke-width="2" points="71,-36 0,-36 0,0 71,0 71,-36"/>
<text text-anchor="start" x="11.5" y="-14.4" font-family="Helvetica,sans-Serif" font-size="12.00">installing</text>
<path fill="none" stroke="black" stroke-width="2" d="M12,-1.5C12,-1.5 59,-1.5 59,-1.5 64.5,-1.5 70,-7 70,-12.5 70,-12.5 70,-23.5 70,-23.5 70,-29 64.5,-34.5 59,-34.5 59,-34.5 12,-34.5 12,-34.5 6.5,-34.5 1,-29 1,-23.5 1,-23.5 1,-12.5 1,-12.5 1,-7 6.5,-1.5 12,-1.5"/>
</g>
<!-- installing&#45;&gt;installing&#45;pending&#45;user&#45;action -->
<g id="edge2" class="edge transition">
<title>installing&#45;&gt;installing&#45;pending&#45;user&#45;action</title>
<path fill="none" stroke="black" d="M71.31,-20.59C123.44,-24.47 223.82,-31.93 299.9,-37.59"/>
<polygon fill="black" stroke="black" points="299.76,-41.09 309.99,-38.34 300.28,-34.11 299.76,-41.09"/>
<text text-anchor="start" x="89" y="-39" font-family="Helvetica,sans-Serif" font-size="10.00">RefreshStatus &#45; TODO: Name this transition &#160;&#160;</text>
</g>
<!-- installing&#45;pending&#45;user&#45;action&#45;&gt;installing&#45;pending&#45;user&#45;action -->
<g id="edge1" class="edge transition">
<title>installing&#45;pending&#45;user&#45;action&#45;&gt;installing&#45;pending&#45;user&#45;action</title>
<path fill="none" stroke="black" d="M362.51,-63.15C356.66,-72.54 369.33,-81 400.5,-81 419.5,-81 431.62,-77.86 436.87,-73.28"/>
<polygon fill="black" stroke="black" points="440.36,-73.58 438.49,-63.15 433.45,-72.47 440.36,-73.58"/>
<text text-anchor="start" x="299" y="-84" font-family="Helvetica,sans-Serif" font-size="10.00">RefreshStatus &#45; TODO: Name this transition &#160;&#160;</text>
</g>
</g>
</svg>
