<?xml version="1.0" encoding="UTF-8" standalone="no"?>
<!DOCTYPE svg PUBLIC "-//W3C//DTD SVG 1.1//EN"
 "http://www.w3.org/Graphics/SVG/1.1/DTD/svg11.dtd">
<!-- Generated by graphviz version 12.1.0 (20240811.2233)
 -->
<!-- Title: state transitions Pages: 1 -->
<svg width="691pt" height="163pt"
 viewBox="0.00 0.00 690.88 162.85" xmlns="http://www.w3.org/2000/svg" xmlns:xlink="http://www.w3.org/1999/xlink">
<g id="graph0" class="graph" transform="scale(1 1) rotate(0) translate(4 158.85)">
<title>state transitions</title>
<polygon fill="white" stroke="none" points="-4,4 -4,-158.85 686.88,-158.85 686.88,4 -4,4"/>
<!-- insufficient -->
<g id="node1" class="node state regular">
<title>insufficient</title>
<polygon fill="#ffffff" fill-opacity="0.003922" stroke="none" stroke-width="2" points="87.25,-124.35 0,-124.35 0,-88.1 87.25,-88.1 87.25,-124.35"/>
<text text-anchor="start" x="11" y="-101.95" font-family="Helvetica,sans-Serif" font-size="12.00">insufficient</text>
<path fill="none" stroke="black" stroke-width="2" d="M12.42,-89.1C12.42,-89.1 74.83,-89.1 74.83,-89.1 80.54,-89.1 86.25,-94.81 86.25,-100.51 86.25,-100.51 86.25,-111.93 86.25,-111.93 86.25,-117.64 80.54,-123.35 74.83,-123.35 74.83,-123.35 12.42,-123.35 12.42,-123.35 6.71,-123.35 1,-117.64 1,-111.93 1,-111.93 1,-100.51 1,-100.51 1,-94.81 6.71,-89.1 12.42,-89.1"/>
</g>
<!-- pending&#45;for&#45;input -->
<g id="node2" class="node state regular">
<title>pending&#45;for&#45;input</title>
<polygon fill="#ffffff" fill-opacity="0.003922" stroke="none" stroke-width="2" points="579.5,-93.35 454.75,-93.35 454.75,-57.1 579.5,-57.1 579.5,-93.35"/>
<text text-anchor="start" x="465.75" y="-70.95" font-family="Helvetica,sans-Serif" font-size="12.00">pending&#45;for&#45;input</text>
<path fill="none" stroke="black" stroke-width="2" d="M467.17,-58.1C467.17,-58.1 567.08,-58.1 567.08,-58.1 572.79,-58.1 578.5,-63.81 578.5,-69.51 578.5,-69.51 578.5,-80.93 578.5,-80.93 578.5,-86.64 572.79,-92.35 567.08,-92.35 567.08,-92.35 467.17,-92.35 467.17,-92.35 461.46,-92.35 455.75,-86.64 455.75,-80.93 455.75,-80.93 455.75,-69.51 455.75,-69.51 455.75,-63.81 461.46,-58.1 467.17,-58.1"/>
</g>
<!-- insufficient&#45;&gt;pending&#45;for&#45;input -->
<g id="edge1" class="edge transition">
<title>insufficient&#45;&gt;pending&#45;for&#45;input</title>
<path fill="none" stroke="black" d="M87.2,-111.65C159.74,-119.73 311.61,-131.5 436.75,-107.22 447.58,-105.12 458.8,-101.55 469.27,-97.54"/>
<polygon fill="black" stroke="black" points="470.52,-100.81 478.47,-93.81 467.89,-94.32 470.52,-100.81"/>
<text text-anchor="start" x="105.25" y="-124.96" font-family="Helvetica,sans-Serif" font-size="10.00">RefreshStatus &#45; Refresh discovering cluster &#45; detect required input &#160;&#160;</text>
</g>
<!-- insufficient&#45;&gt;pending&#45;for&#45;input -->
<g id="edge2" class="edge transition">
<title>insufficient&#45;&gt;pending&#45;for&#45;input</title>
<path fill="none" stroke="black" d="M87.11,-93.95C93.16,-92.56 99.33,-91.34 105.25,-90.47 222.67,-73.25 360.86,-71.96 443.33,-73.18"/>
<polygon fill="black" stroke="black" points="443.27,-76.68 453.32,-73.35 443.38,-69.68 443.27,-76.68"/>
<text text-anchor="start" x="160.38" y="-93.72" font-family="Helvetica,sans-Serif" font-size="10.00">RefreshStatus &#45; TODO: Name this transition &#160;&#160;</text>
</g>
<!-- pending&#45;for&#45;input&#45;&gt;pending&#45;for&#45;input -->
<g id="edge3" class="edge transition">
<title>pending&#45;for&#45;input&#45;&gt;pending&#45;for&#45;input</title>
<path fill="none" stroke="black" d="M495,-93.07C491.24,-102.63 498.62,-111.35 517.12,-111.35 527.54,-111.35 534.42,-108.59 537.79,-104.47"/>
<polygon fill="black" stroke="black" points="541.26,-104.93 539.06,-94.57 534.31,-104.04 541.26,-104.93"/>
<text text-anchor="start" x="351.38" y="-114.6" font-family="Helvetica,sans-Serif" font-size="10.00">RefreshStatus &#45; Refresh discovering cluster &#45; detect required input &#160;&#160;</text>
</g>
<!-- pending&#45;for&#45;input&#45;&gt;pending&#45;for&#45;input -->
<g id="edge4" class="edge transition">
<title>pending&#45;for&#45;input&#45;&gt;pending&#45;for&#45;input</title>
<path fill="none" stroke="black" d="M480.13,-93.24C460.33,-110.5 472.66,-129.35 517.12,-129.35 554.3,-129.35 569.01,-116.18 561.27,-101.78"/>
<polygon fill="black" stroke="black" points="564.2,-99.82 555.09,-94.4 558.83,-104.31 564.2,-99.82"/>
<text text-anchor="start" x="406.5" y="-132.6" font-family="Helvetica,sans-Serif" font-size="10.00">RefreshStatus &#45; TODO: Name this transition &#160;&#160;</text>
</g>
<!-- ready -->
<g id="node3" class="node state regular">
<title>ready</title>
<polygon fill="#ffffff" fill-opacity="0.003922" stroke="none" stroke-width="2" points="71.62,-61.35 15.62,-61.35 15.62,-25.1 71.62,-25.1 71.62,-61.35"/>
<text text-anchor="start" x="26.75" y="-38.95" font-family="Helvetica,sans-Serif" font-size="12.00">ready</text>
<path fill="none" stroke="black" stroke-width="2" d="M28.04,-26.1C28.04,-26.1 59.21,-26.1 59.21,-26.1 64.92,-26.1 70.62,-31.81 70.62,-37.51 70.62,-37.51 70.62,-48.93 70.62,-48.93 70.62,-54.64 64.92,-60.35 59.21,-60.35 59.21,-60.35 28.04,-60.35 28.04,-60.35 22.33,-60.35 16.62,-54.64 16.62,-48.93 16.62,-48.93 16.62,-37.51 16.62,-37.51 16.62,-31.81 22.33,-26.1 28.04,-26.1"/>
</g>
<!-- ready&#45;&gt;pending&#45;for&#45;input -->
<g id="edge5" class="edge transition">
<title>ready&#45;&gt;pending&#45;for&#45;input</title>
<path fill="none" stroke="black" d="M71.4,-42.31C135.07,-40.53 300.37,-38.24 436.75,-56.47 439.05,-56.78 441.39,-57.13 443.74,-57.5"/>
<polygon fill="black" stroke="black" points="442.87,-60.9 453.33,-59.21 444.09,-54.01 442.87,-60.9"/>
<text text-anchor="start" x="105.25" y="-59.72" font-family="Helvetica,sans-Serif" font-size="10.00">RefreshStatus &#45; Refresh discovering cluster &#45; detect required input &#160;&#160;</text>
</g>
<!-- ready&#45;&gt;pending&#45;for&#45;input -->
<g id="edge6" class="edge transition">
<title>ready&#45;&gt;pending&#45;for&#45;input</title>
<path fill="none" stroke="black" d="M71.38,-33.05C81.79,-29.6 93.92,-26.18 105.25,-24.47 250.93,-2.46 295.34,16.87 436.75,-24.47 454.48,-29.66 472.01,-40.14 486.08,-50.25"/>
<polygon fill="black" stroke="black" points="483.91,-52.99 494,-56.2 488.11,-47.4 483.91,-52.99"/>
<text text-anchor="start" x="160.38" y="-27.72" font-family="Helvetica,sans-Serif" font-size="10.00">RefreshStatus &#45; TODO: Name this transition &#160;&#160;</text>
</g>
</g>
</svg>
