<?xml version="1.0" encoding="UTF-8" standalone="no"?>
<!DOCTYPE svg PUBLIC "-//W3C//DTD SVG 1.1//EN"
 "http://www.w3.org/Graphics/SVG/1.1/DTD/svg11.dtd">
<!-- Generated by graphviz version 12.1.0 (20240811.2233)
 -->
<!-- Title: state transitions Pages: 1 -->
<svg width="549pt" height="102pt"
 viewBox="0.00 0.00 549.12 102.00" xmlns="http://www.w3.org/2000/svg" xmlns:xlink="http://www.w3.org/1999/xlink">
<g id="graph0" class="graph" transform="scale(1 1) rotate(0) translate(4 98)">
<title>state transitions</title>
<polygon fill="white" stroke="none" points="-4,4 -4,-98 545.12,-98 545.12,4 -4,4"/>
<!-- finalizing -->
<g id="node1" class="node state regular">
<title>finalizing</title>
<polygon fill="#ffffff" fill-opacity="0.003922" stroke="none" stroke-width="2" points="74.5,-90.25 0,-90.25 0,-54 74.5,-54 74.5,-90.25"/>
<text text-anchor="start" x="11" y="-67.85" font-family="Helvetica,sans-Serif" font-size="12.00">finalizing</text>
<path fill="none" stroke="black" stroke-width="2" d="M12.42,-55C12.42,-55 62.08,-55 62.08,-55 67.79,-55 73.5,-60.71 73.5,-66.42 73.5,-66.42 73.5,-77.83 73.5,-77.83 73.5,-83.54 67.79,-89.25 62.08,-89.25 62.08,-89.25 12.42,-89.25 12.42,-89.25 6.71,-89.25 1,-83.54 1,-77.83 1,-77.83 1,-66.42 1,-66.42 1,-60.71 6.71,-55 12.42,-55"/>
</g>
<!-- installing&#45;pending&#45;user&#45;action -->
<g id="node2" class="node state regular">
<title>installing&#45;pending&#45;user&#45;action</title>
<polygon fill="#ffffff" fill-opacity="0.003922" stroke="none" stroke-width="2" points="529.25,-63.25 331.75,-63.25 331.75,-27 529.25,-27 529.25,-63.25"/>
<text text-anchor="start" x="342.75" y="-40.85" font-family="Helvetica,sans-Serif" font-size="12.00">installing&#45;pending&#45;user&#45;action</text>
<path fill="none" stroke="black" stroke-width="2" d="M344.17,-28C344.17,-28 516.83,-28 516.83,-28 522.54,-28 528.25,-33.71 528.25,-39.42 528.25,-39.42 528.25,-50.83 528.25,-50.83 528.25,-56.54 522.54,-62.25 516.83,-62.25 516.83,-62.25 344.17,-62.25 344.17,-62.25 338.46,-62.25 332.75,-56.54 332.75,-50.83 332.75,-50.83 332.75,-39.42 332.75,-39.42 332.75,-33.71 338.46,-28 344.17,-28"/>
</g>
<!-- finalizing&#45;&gt;installing&#45;pending&#45;user&#45;action -->
<g id="edge1" class="edge transition">
<title>finalizing&#45;&gt;installing&#45;pending&#45;user&#45;action</title>
<path fill="none" stroke="black" d="M74.36,-69.63C129.73,-65.81 237.88,-58.35 320.35,-52.66"/>
<polygon fill="black" stroke="black" points="320.57,-56.15 330.3,-51.97 320.08,-49.17 320.57,-56.15"/>
<text text-anchor="start" x="92.5" y="-71.46" font-family="Helvetica,sans-Serif" font-size="10.00">RefreshStatus &#45; TODO: Name this transition &#160;&#160;</text>
</g>
<!-- installing&#45;pending&#45;user&#45;action&#45;&gt;installing&#45;pending&#45;user&#45;action -->
<g id="edge3" class="edge transition">
<title>installing&#45;pending&#45;user&#45;action&#45;&gt;installing&#45;pending&#45;user&#45;action</title>
<path fill="none" stroke="black" d="M389.63,-62.97C382.68,-72.53 396.3,-81.25 430.5,-81.25 450.27,-81.25 463.16,-78.34 469.18,-74.03"/>
<polygon fill="black" stroke="black" points="472.57,-74.94 471.08,-64.45 465.7,-73.58 472.57,-74.94"/>
<text text-anchor="start" x="319.88" y="-84.5" font-family="Helvetica,sans-Serif" font-size="10.00">RefreshStatus &#45; TODO: Name this transition &#160;&#160;</text>
</g>
<!-- installing -->
<g id="node3" class="node state regular">
<title>installing</title>
<polygon fill="#ffffff" fill-opacity="0.003922" stroke="none" stroke-width="2" points="74.5,-36.25 0,-36.25 0,0 74.5,0 74.5,-36.25"/>
<text text-anchor="start" x="11" y="-13.85" font-family="Helvetica,sans-Serif" font-size="12.00">installing</text>
<path fill="none" stroke="black" stroke-width="2" d="M12.42,-1C12.42,-1 62.08,-1 62.08,-1 67.79,-1 73.5,-6.71 73.5,-12.42 73.5,-12.42 73.5,-23.83 73.5,-23.83 73.5,-29.54 67.79,-35.25 62.08,-35.25 62.08,-35.25 12.42,-35.25 12.42,-35.25 6.71,-35.25 1,-29.54 1,-23.83 1,-23.83 1,-12.42 1,-12.42 1,-6.71 6.71,-1 12.42,-1"/>
</g>
<!-- installing&#45;&gt;installing&#45;pending&#45;user&#45;action -->
<g id="edge2" class="edge transition">
<title>installing&#45;&gt;installing&#45;pending&#45;user&#45;action</title>
<path fill="none" stroke="black" d="M74.36,-20.62C129.73,-24.44 237.88,-31.9 320.35,-37.59"/>
<polygon fill="black" stroke="black" points="320.08,-41.08 330.3,-38.28 320.57,-34.1 320.08,-41.08"/>
<text text-anchor="start" x="92.5" y="-39.64" font-family="Helvetica,sans-Serif" font-size="10.00">RefreshStatus &#45; TODO: Name this transition &#160;&#160;</text>
</g>
</g>
</svg>
