<?xml version="1.0" encoding="UTF-8" standalone="no"?>
<!DOCTYPE svg PUBLIC "-//W3C//DTD SVG 1.1//EN"
 "http://www.w3.org/Graphics/SVG/1.1/DTD/svg11.dtd">
<!-- Generated by graphviz version 12.1.0 (20240811.2233)
 -->
<!-- Title: state transitions Pages: 1 -->
<svg width="718pt" height="206pt"
 viewBox="0.00 0.00 717.50 206.25" xmlns="http://www.w3.org/2000/svg" xmlns:xlink="http://www.w3.org/1999/xlink">
<g id="graph0" class="graph" transform="scale(1 1) rotate(0) translate(4 202.25)">
<title>state transitions</title>
<polygon fill="white" stroke="none" points="-4,4 -4,-202.25 713.5,-202.25 713.5,4 -4,4"/>
<!-- cancelled -->
<g id="node1" class="node state regular">
<title>cancelled</title>
<polygon fill="#ffffff" fill-opacity="0.003922" stroke="none" stroke-width="2" points="609.5,-117.25 530.5,-117.25 530.5,-81 609.5,-81 609.5,-117.25"/>
<text text-anchor="start" x="541.5" y="-94.85" font-family="Helvetica,sans-Serif" font-size="12.00">cancelled</text>
<path fill="none" stroke="black" stroke-width="2" d="M542.92,-82C542.92,-82 597.08,-82 597.08,-82 602.79,-82 608.5,-87.71 608.5,-93.42 608.5,-93.42 608.5,-104.83 608.5,-104.83 608.5,-110.54 602.79,-116.25 597.08,-116.25 597.08,-116.25 542.92,-116.25 542.92,-116.25 537.21,-116.25 531.5,-110.54 531.5,-104.83 531.5,-104.83 531.5,-93.42 531.5,-93.42 531.5,-87.71 537.21,-82 542.92,-82"/>
</g>
<!-- cancelled&#45;&gt;cancelled -->
<g id="edge1" class="edge transition">
<title>cancelled&#45;&gt;cancelled</title>
<path fill="none" stroke="black" d="M551.48,-116.97C548.34,-126.53 554.51,-135.25 570,-135.25 578.71,-135.25 584.48,-132.49 587.29,-128.38"/>
<polygon fill="black" stroke="black" points="590.77,-128.79 588.35,-118.47 583.81,-128.04 590.77,-128.79"/>
<text text-anchor="start" x="430.5" y="-138.5" font-family="Helvetica,sans-Serif" font-size="10.00">RefreshStatus &#45; Log collection timeout during cancelled &#160;&#160;</text>
</g>
<!-- cancelled&#45;&gt;cancelled -->
<g id="edge2" class="edge transition">
<title>cancelled&#45;&gt;cancelled</title>
<path fill="none" stroke="black" d="M539.03,-117.14C522.46,-134.41 532.78,-153.25 570,-153.25 600.53,-153.25 612.96,-140.57 607.29,-126.48"/>
<polygon fill="black" stroke="black" points="610.32,-124.71 601.81,-118.4 604.53,-128.64 610.32,-124.71"/>
<text text-anchor="start" x="466.5" y="-156.5" font-family="Helvetica,sans-Serif" font-size="10.00">RefreshStatus &#45; Maintain cancelled state &#160;&#160;</text>
</g>
<!-- error -->
<g id="node2" class="node state regular">
<title>error</title>
<polygon fill="#ffffff" fill-opacity="0.003922" stroke="none" stroke-width="2" points="126.75,-198.25 70.75,-198.25 70.75,-162 126.75,-162 126.75,-198.25"/>
<text text-anchor="start" x="84.12" y="-175.85" font-family="Helvetica,sans-Serif" font-size="12.00">error</text>
<path fill="none" stroke="black" stroke-width="2" d="M83.17,-163C83.17,-163 114.33,-163 114.33,-163 120.04,-163 125.75,-168.71 125.75,-174.42 125.75,-174.42 125.75,-185.83 125.75,-185.83 125.75,-191.54 120.04,-197.25 114.33,-197.25 114.33,-197.25 83.17,-197.25 83.17,-197.25 77.46,-197.25 71.75,-191.54 71.75,-185.83 71.75,-185.83 71.75,-174.42 71.75,-174.42 71.75,-168.71 77.46,-163 83.17,-163"/>
</g>
<!-- error&#45;&gt;cancelled -->
<g id="edge3" class="edge transition">
<title>error&#45;&gt;cancelled</title>
<path fill="none" stroke="black" d="M126.29,-181.52C193.27,-184.14 373.71,-185.69 512.5,-136.12 521.12,-133.05 529.73,-128.41 537.55,-123.44"/>
<polygon fill="black" stroke="black" points="539.38,-126.43 545.7,-117.92 535.46,-120.63 539.38,-126.43"/>
<text text-anchor="start" x="215.5" y="-185.28" font-family="Helvetica,sans-Serif" font-size="10.00">Cancel Installation &#45; Cancel installation of installing cluster &#160;&#160;</text>
</g>
<!-- finalizing -->
<g id="node3" class="node state regular">
<title>finalizing</title>
<polygon fill="#ffffff" fill-opacity="0.003922" stroke="none" stroke-width="2" points="136,-144.25 61.5,-144.25 61.5,-108 136,-108 136,-144.25"/>
<text text-anchor="start" x="72.5" y="-121.85" font-family="Helvetica,sans-Serif" font-size="12.00">finalizing</text>
<path fill="none" stroke="black" stroke-width="2" d="M73.92,-109C73.92,-109 123.58,-109 123.58,-109 129.29,-109 135,-114.71 135,-120.42 135,-120.42 135,-131.83 135,-131.83 135,-137.54 129.29,-143.25 123.58,-143.25 123.58,-143.25 73.92,-143.25 73.92,-143.25 68.21,-143.25 62.5,-137.54 62.5,-131.83 62.5,-131.83 62.5,-120.42 62.5,-120.42 62.5,-114.71 68.21,-109 73.92,-109"/>
</g>
<!-- finalizing&#45;&gt;cancelled -->
<g id="edge4" class="edge transition">
<title>finalizing&#45;&gt;cancelled</title>
<path fill="none" stroke="black" d="M135.79,-124.05C218.92,-119.27 424.21,-107.46 519.25,-101.99"/>
<polygon fill="black" stroke="black" points="519.26,-105.49 529.04,-101.42 518.85,-98.5 519.26,-105.49"/>
<text text-anchor="start" x="215.5" y="-122.13" font-family="Helvetica,sans-Serif" font-size="10.00">Cancel Installation &#45; Cancel installation of installing cluster &#160;&#160;</text>
</g>
<!-- installing -->
<g id="node4" class="node state regular">
<title>installing</title>
<polygon fill="#ffffff" fill-opacity="0.003922" stroke="none" stroke-width="2" points="136,-90.25 61.5,-90.25 61.5,-54 136,-54 136,-90.25"/>
<text text-anchor="start" x="72.5" y="-67.85" font-family="Helvetica,sans-Serif" font-size="12.00">installing</text>
<path fill="none" stroke="black" stroke-width="2" d="M73.92,-55C73.92,-55 123.58,-55 123.58,-55 129.29,-55 135,-60.71 135,-66.42 135,-66.42 135,-77.83 135,-77.83 135,-83.54 129.29,-89.25 123.58,-89.25 123.58,-89.25 73.92,-89.25 73.92,-89.25 68.21,-89.25 62.5,-83.54 62.5,-77.83 62.5,-77.83 62.5,-66.42 62.5,-66.42 62.5,-60.71 68.21,-55 73.92,-55"/>
</g>
<!-- installing&#45;&gt;cancelled -->
<g id="edge5" class="edge transition">
<title>installing&#45;&gt;cancelled</title>
<path fill="none" stroke="black" d="M135.84,-70.79C207.86,-68.68 374.33,-66.55 512.5,-85.38 514.81,-85.69 517.15,-86.06 519.52,-86.47"/>
<polygon fill="black" stroke="black" points="518.63,-89.86 529.12,-88.36 519.99,-82.99 518.63,-89.86"/>
<text text-anchor="start" x="215.5" y="-88.62" font-family="Helvetica,sans-Serif" font-size="10.00">Cancel Installation &#45; Cancel installation of installing cluster &#160;&#160;</text>
</g>
<!-- installing&#45;pending&#45;user&#45;action -->
<g id="node5" class="node state regular">
<title>installing&#45;pending&#45;user&#45;action</title>
<polygon fill="#ffffff" fill-opacity="0.003922" stroke="none" stroke-width="2" points="197.5,-36.25 0,-36.25 0,0 197.5,0 197.5,-36.25"/>
<text text-anchor="start" x="11" y="-13.85" font-family="Helvetica,sans-Serif" font-size="12.00">installing&#45;pending&#45;user&#45;action</text>
<path fill="none" stroke="black" stroke-width="2" d="M12.42,-1C12.42,-1 185.08,-1 185.08,-1 190.79,-1 196.5,-6.71 196.5,-12.42 196.5,-12.42 196.5,-23.83 196.5,-23.83 196.5,-29.54 190.79,-35.25 185.08,-35.25 185.08,-35.25 12.42,-35.25 12.42,-35.25 6.71,-35.25 1,-29.54 1,-23.83 1,-23.83 1,-12.42 1,-12.42 1,-6.71 6.71,-1 12.42,-1"/>
</g>
<!-- installing&#45;pending&#45;user&#45;action&#45;&gt;cancelled -->
<g id="edge6" class="edge transition">
<title>installing&#45;pending&#45;user&#45;action&#45;&gt;cancelled</title>
<path fill="none" stroke="black" d="M197.38,-10.12C283.51,-6.74 410.79,-10.92 512.5,-52.38 524.29,-57.18 535.5,-65.37 544.77,-73.56"/>
<polygon fill="black" stroke="black" points="542.24,-75.98 551.92,-80.27 547.03,-70.88 542.24,-75.98"/>
<text text-anchor="start" x="215.5" y="-55.62" font-family="Helvetica,sans-Serif" font-size="10.00">Cancel Installation &#45; Cancel installation of installing cluster &#160;&#160;</text>
</g>
</g>
</svg>
