<?xml version="1.0" encoding="UTF-8" standalone="no"?>
<!DOCTYPE svg PUBLIC "-//W3C//DTD SVG 1.1//EN"
 "http://www.w3.org/Graphics/SVG/1.1/DTD/svg11.dtd">
<!-- Generated by graphviz version 12.1.0 (20240811.2233)
 -->
<!-- Title: state transitions Pages: 1 -->
<svg width="685pt" height="288pt"
 viewBox="0.00 0.00 685.38 288.42" xmlns="http://www.w3.org/2000/svg" xmlns:xlink="http://www.w3.org/1999/xlink">
<g id="graph0" class="graph" transform="scale(1 1) rotate(0) translate(4 284.42)">
<title>state transitions</title>
<polygon fill="white" stroke="none" points="-4,4 -4,-284.42 681.38,-284.42 681.38,4 -4,4"/>
<!-- error -->
<g id="node1" class="node state regular">
<title>error</title>
<polygon fill="#ffffff" fill-opacity="0.003922" stroke="none" stroke-width="2" points="577.5,-161.81 521.5,-161.81 521.5,-125.56 577.5,-125.56 577.5,-161.81"/>
<text text-anchor="start" x="534.88" y="-139.41" font-family="Helvetica,sans-Serif" font-size="12.00">error</text>
<path fill="none" stroke="black" stroke-width="2" d="M533.92,-126.56C533.92,-126.56 565.08,-126.56 565.08,-126.56 570.79,-126.56 576.5,-132.27 576.5,-137.98 576.5,-137.98 576.5,-149.4 576.5,-149.4 576.5,-155.1 570.79,-160.81 565.08,-160.81 565.08,-160.81 533.92,-160.81 533.92,-160.81 528.21,-160.81 522.5,-155.1 522.5,-149.4 522.5,-149.4 522.5,-137.98 522.5,-137.98 522.5,-132.27 528.21,-126.56 533.92,-126.56"/>
</g>
<!-- error&#45;&gt;error -->
<g id="edge1" class="edge transition">
<title>error&#45;&gt;error</title>
<path fill="none" stroke="black" d="M532.42,-161.53C529.52,-171.1 535.21,-179.81 549.5,-179.81 557.54,-179.81 562.85,-177.05 565.45,-172.94"/>
<polygon fill="black" stroke="black" points="568.93,-173.33 566.43,-163.04 561.96,-172.64 568.93,-173.33"/>
<text text-anchor="start" x="421.62" y="-183.06" font-family="Helvetica,sans-Serif" font-size="10.00">RefreshStatus &#45; Log collection timeout during error &#160;&#160;</text>
</g>
<!-- error&#45;&gt;error -->
<g id="edge2" class="edge transition">
<title>error&#45;&gt;error</title>
<path fill="none" stroke="black" d="M521.7,-160.87C505.35,-178.35 514.62,-197.81 549.5,-197.81 578.11,-197.81 589.49,-184.72 583.63,-170.36"/>
<polygon fill="black" stroke="black" points="586.6,-168.5 578.14,-162.13 580.78,-172.39 586.6,-168.5"/>
<text text-anchor="start" x="457.62" y="-201.06" font-family="Helvetica,sans-Serif" font-size="10.00">RefreshStatus &#45; Maintain error state &#160;&#160;</text>
</g>
<!-- finalizing -->
<g id="node2" class="node state regular">
<title>finalizing</title>
<polygon fill="#ffffff" fill-opacity="0.003922" stroke="none" stroke-width="2" points="136,-233.81 61.5,-233.81 61.5,-197.56 136,-197.56 136,-233.81"/>
<text text-anchor="start" x="72.5" y="-211.41" font-family="Helvetica,sans-Serif" font-size="12.00">finalizing</text>
<path fill="none" stroke="black" stroke-width="2" d="M73.92,-198.56C73.92,-198.56 123.58,-198.56 123.58,-198.56 129.29,-198.56 135,-204.27 135,-209.98 135,-209.98 135,-221.4 135,-221.4 135,-227.1 129.29,-232.81 123.58,-232.81 123.58,-232.81 73.92,-232.81 73.92,-232.81 68.21,-232.81 62.5,-227.1 62.5,-221.4 62.5,-221.4 62.5,-209.98 62.5,-209.98 62.5,-204.27 68.21,-198.56 73.92,-198.56"/>
</g>
<!-- finalizing&#45;&gt;error -->
<g id="edge3" class="edge transition">
<title>finalizing&#45;&gt;error</title>
<path fill="none" stroke="black" d="M135.94,-229.17C210.82,-254.62 385.6,-301.06 503.5,-229.69 523.87,-217.36 535.46,-192.45 541.76,-172.59"/>
<polygon fill="black" stroke="black" points="545.09,-173.66 544.47,-163.08 538.36,-171.74 545.09,-173.66"/>
<text text-anchor="start" x="253" y="-270.92" font-family="Helvetica,sans-Serif" font-size="10.00">RefreshStatus &#45; Timed out while installing &#160;&#160;</text>
</g>
<!-- finalizing&#45;&gt;error -->
<g id="edge4" class="edge transition">
<title>finalizing&#45;&gt;error</title>
<path fill="none" stroke="black" d="M135.97,-214.46C232.02,-211.12 487.07,-201.54 503.5,-193.69 514.29,-188.52 523.65,-179.49 531,-170.51"/>
<polygon fill="black" stroke="black" points="533.77,-172.64 536.99,-162.54 528.18,-168.43 533.77,-172.64"/>
<text text-anchor="start" x="253" y="-214.42" font-family="Helvetica,sans-Serif" font-size="10.00">RefreshStatus &#45; Timed out while finalizing &#160;&#160;</text>
</g>
<!-- finalizing&#45;&gt;error -->
<g id="edge5" class="edge transition">
<title>finalizing&#45;&gt;error</title>
<path fill="none" stroke="black" d="M135.85,-200.94C158.37,-192.41 188.16,-182.33 215.5,-176.94 341.36,-152.09 377.38,-181.18 503.5,-157.69 505.83,-157.25 508.2,-156.74 510.58,-156.17"/>
<polygon fill="black" stroke="black" points="511.44,-159.56 520.17,-153.57 509.6,-152.81 511.44,-159.56"/>
<text text-anchor="start" x="215.5" y="-180.19" font-family="Helvetica,sans-Serif" font-size="10.00">RefreshStatus &#45; Finalizing stage timed out. &#160;Move to error &#160;&#160;</text>
</g>
<!-- installing -->
<g id="node3" class="node state regular">
<title>installing</title>
<polygon fill="#ffffff" fill-opacity="0.003922" stroke="none" stroke-width="2" points="136,-138.81 61.5,-138.81 61.5,-102.56 136,-102.56 136,-138.81"/>
<text text-anchor="start" x="72.5" y="-116.41" font-family="Helvetica,sans-Serif" font-size="12.00">installing</text>
<path fill="none" stroke="black" stroke-width="2" d="M73.92,-103.56C73.92,-103.56 123.58,-103.56 123.58,-103.56 129.29,-103.56 135,-109.27 135,-114.98 135,-114.98 135,-126.4 135,-126.4 135,-132.1 129.29,-137.81 123.58,-137.81 123.58,-137.81 73.92,-137.81 73.92,-137.81 68.21,-137.81 62.5,-132.1 62.5,-126.4 62.5,-126.4 62.5,-114.98 62.5,-114.98 62.5,-109.27 68.21,-103.56 73.92,-103.56"/>
</g>
<!-- installing&#45;&gt;error -->
<g id="edge6" class="edge transition">
<title>installing&#45;&gt;error</title>
<path fill="none" stroke="black" d="M135.71,-122.53C219.06,-126.8 424.8,-137.35 510.29,-141.73"/>
<polygon fill="black" stroke="black" points="510.09,-145.22 520.26,-142.24 510.45,-138.23 510.09,-145.22"/>
<text text-anchor="start" x="253" y="-144.54" font-family="Helvetica,sans-Serif" font-size="10.00">RefreshStatus &#45; Timed out while installing &#160;&#160;</text>
</g>
<!-- installing&#45;&gt;error -->
<g id="edge7" class="edge transition">
<title>installing&#45;&gt;error</title>
<path fill="none" stroke="black" d="M135.92,-116.46C158.72,-114.01 188.79,-111.17 215.5,-109.94 343.36,-104.01 382.07,-69.46 503.5,-109.94 509.79,-112.03 515.91,-115.39 521.51,-119.2"/>
<polygon fill="black" stroke="black" points="519.07,-121.74 529.16,-124.96 523.28,-116.15 519.07,-121.74"/>
<text text-anchor="start" x="275.5" y="-113.19" font-family="Helvetica,sans-Serif" font-size="10.00">RefreshStatus &#45; Installation error &#160;&#160;</text>
</g>
<!-- installing&#45;pending&#45;user&#45;action -->
<g id="node4" class="node state regular">
<title>installing&#45;pending&#45;user&#45;action</title>
<polygon fill="#ffffff" fill-opacity="0.003922" stroke="none" stroke-width="2" points="197.5,-75.81 0,-75.81 0,-39.56 197.5,-39.56 197.5,-75.81"/>
<text text-anchor="start" x="11" y="-53.41" font-family="Helvetica,sans-Serif" font-size="12.00">installing&#45;pending&#45;user&#45;action</text>
<path fill="none" stroke="black" stroke-width="2" d="M12.42,-40.56C12.42,-40.56 185.08,-40.56 185.08,-40.56 190.79,-40.56 196.5,-46.27 196.5,-51.98 196.5,-51.98 196.5,-63.4 196.5,-63.4 196.5,-69.1 190.79,-74.81 185.08,-74.81 185.08,-74.81 12.42,-74.81 12.42,-74.81 6.71,-74.81 1,-69.1 1,-63.4 1,-63.4 1,-51.98 1,-51.98 1,-46.27 6.71,-40.56 12.42,-40.56"/>
</g>
<!-- installing&#45;pending&#45;user&#45;action&#45;&gt;error -->
<g id="edge8" class="edge transition">
<title>installing&#45;pending&#45;user&#45;action&#45;&gt;error</title>
<path fill="none" stroke="black" d="M197.07,-56.95C308.06,-56.83 477.61,-59.15 503.5,-73.94 519.41,-83.03 530.62,-100.29 537.87,-115.37"/>
<polygon fill="black" stroke="black" points="534.62,-116.68 541.85,-124.43 541.03,-113.86 534.62,-116.68"/>
<text text-anchor="start" x="248.88" y="-77.19" font-family="Helvetica,sans-Serif" font-size="10.00">RefreshStatus &#45; TODO: Name this transition &#160;&#160;</text>
</g>
<!-- installing&#45;pending&#45;user&#45;action&#45;&gt;error -->
<g id="edge9" class="edge transition">
<title>installing&#45;pending&#45;user&#45;action&#45;&gt;error</title>
<path fill="none" stroke="black" d="M145.78,-39.61C225.84,-11.41 392.78,32.73 503.5,-39.94 528.47,-56.32 539.65,-89.86 544.62,-114.39"/>
<polygon fill="black" stroke="black" points="541.15,-114.86 546.33,-124.1 548.04,-113.65 541.15,-114.86"/>
<text text-anchor="start" x="237.25" y="-43.19" font-family="Helvetica,sans-Serif" font-size="10.00">RefreshStatus &#45; Timed out while waiting for user &#160;&#160;</text>
</g>
</g>
</svg>
