<?xml version="1.0" encoding="UTF-8" standalone="no"?>
<!DOCTYPE svg PUBLIC "-//W3C//DTD SVG 1.1//EN"
 "http://www.w3.org/Graphics/SVG/1.1/DTD/svg11.dtd">
<!-- Generated by graphviz version 12.1.0 (20240811.2233)
 -->
<!-- Title: state transitions Pages: 1 -->
<svg width="232pt" height="75pt"
 viewBox="0.00 0.00 231.50 75.00" xmlns="http://www.w3.org/2000/svg" xmlns:xlink="http://www.w3.org/1999/xlink">
<g id="graph0" class="graph" transform="scale(1 1) rotate(0) translate(4 71)">
<title>state transitions</title>
<polygon fill="white" stroke="none" points="-4,4 -4,-71 227.5,-71 227.5,4 -4,4"/>
<!-- adding&#45;hosts -->
<g id="node1" class="node state regular">
<title>adding&#45;hosts</title>
<polygon fill="#ffffff" fill-opacity="0.003922" stroke="none" stroke-width="2" points="161,-36.25 62.5,-36.25 62.5,0 161,0 161,-36.25"/>
<text text-anchor="start" x="73.5" y="-13.85" font-family="Helvetica,sans-Serif" font-size="12.00">adding&#45;hosts</text>
<path fill="none" stroke="black" stroke-width="2" d="M74.92,-1C74.92,-1 148.58,-1 148.58,-1 154.29,-1 160,-6.71 160,-12.42 160,-12.42 160,-23.83 160,-23.83 160,-29.54 154.29,-35.25 148.58,-35.25 148.58,-35.25 74.92,-35.25 74.92,-35.25 69.21,-35.25 63.5,-29.54 63.5,-23.83 63.5,-23.83 63.5,-12.42 63.5,-12.42 63.5,-6.71 69.21,-1 74.92,-1"/>
</g>
<!-- adding&#45;hosts&#45;&gt;adding&#45;hosts -->
<g id="edge1" class="edge transition">
<title>adding&#45;hosts&#45;&gt;adding&#45;hosts</title>
<path fill="none" stroke="black" d="M94.04,-35.97C91.03,-45.53 96.94,-54.25 111.75,-54.25 120.08,-54.25 125.6,-51.49 128.29,-47.38"/>
<polygon fill="black" stroke="black" points="131.77,-47.78 129.3,-37.47 124.8,-47.07 131.77,-47.78"/>
<text text-anchor="start" x="0" y="-57.5" font-family="Helvetica,sans-Serif" font-size="10.00">RefreshStatus &#45; Maintain adding&#45;hosts state &#160;&#160;</text>
</g>
</g>
</svg>
