<?xml version="1.0" encoding="UTF-8" standalone="no"?>
<!DOCTYPE svg PUBLIC "-//W3C//DTD SVG 1.1//EN"
 "http://www.w3.org/Graphics/SVG/1.1/DTD/svg11.dtd">
<!-- Generated by graphviz version 7.1.0 (0)
 -->
<!-- Title: state transitions Pages: 1 -->
<svg width="560pt" height="129pt"
 viewBox="0.00 0.00 559.50 129.00" xmlns="http://www.w3.org/2000/svg" xmlns:xlink="http://www.w3.org/1999/xlink">
<g id="graph0" class="graph" transform="scale(1 1) rotate(0) translate(4 125)">
<title>state transitions</title>
<polygon fill="white" stroke="none" points="-4,4 -4,-125 555.5,-125 555.5,4 -4,4"/>
<!-- finalizing -->
<g id="node1" class="node state regular">
<title>finalizing</title>
<polygon fill="#ffffff" fill-opacity="0.003922" stroke="none" stroke-width="2" points="490,-63 420,-63 420,-27 490,-27 490,-63"/>
<text text-anchor="start" x="431" y="-41.4" font-family="Helvetica,sans-Serif" font-size="12.00">finalizing</text>
<path fill="none" stroke="black" stroke-width="2" d="M432,-28.5C432,-28.5 478,-28.5 478,-28.5 483.5,-28.5 489,-34 489,-39.5 489,-39.5 489,-50.5 489,-50.5 489,-56 483.5,-61.5 478,-61.5 478,-61.5 432,-61.5 432,-61.5 426.5,-61.5 421,-56 421,-50.5 421,-50.5 421,-39.5 421,-39.5 421,-34 426.5,-28.5 432,-28.5"/>
</g>
<!-- finalizing&#45;&gt;finalizing -->
<g id="edge3" class="edge transition">
<title>finalizing&#45;&gt;finalizing</title>
<path fill="none" stroke="black" d="M441.11,-62.78C438.75,-72.31 443.38,-81 455,-81 461.53,-81 465.86,-78.25 467.97,-74.15"/>
<polygon fill="black" stroke="black" points="471.45,-74.54 468.77,-64.29 464.47,-73.98 471.45,-74.54"/>
<text text-anchor="start" x="358.5" y="-84" font-family="Helvetica,sans-Serif" font-size="10.00">RefreshStatus &#45; Update AMS subscription &#160;&#160;</text>
</g>
<!-- finalizing&#45;&gt;finalizing -->
<g id="edge4" class="edge transition">
<title>finalizing&#45;&gt;finalizing</title>
<path fill="none" stroke="black" d="M431.78,-62.98C419.35,-80.2 427.09,-99 455,-99 477.46,-99 486.86,-86.83 483.2,-73.1"/>
<polygon fill="black" stroke="black" points="486.44,-71.77 478.89,-64.34 480.16,-74.85 486.44,-71.77"/>
<text text-anchor="start" x="363.5" y="-102" font-family="Helvetica,sans-Serif" font-size="10.00">RefreshStatus &#45; Maintain finalizing state &#160;&#160;</text>
</g>
<!-- installing -->
<g id="node2" class="node state regular">
<title>installing</title>
<polygon fill="#ffffff" fill-opacity="0.003922" stroke="none" stroke-width="2" points="126,-90 55,-90 55,-54 126,-54 126,-90"/>
<text text-anchor="start" x="66.5" y="-68.4" font-family="Helvetica,sans-Serif" font-size="12.00">installing</text>
<path fill="none" stroke="black" stroke-width="2" d="M67,-55.5C67,-55.5 114,-55.5 114,-55.5 119.5,-55.5 125,-61 125,-66.5 125,-66.5 125,-77.5 125,-77.5 125,-83 119.5,-88.5 114,-88.5 114,-88.5 67,-88.5 67,-88.5 61.5,-88.5 56,-83 56,-77.5 56,-77.5 56,-66.5 56,-66.5 56,-61 61.5,-55.5 67,-55.5"/>
</g>
<!-- installing&#45;&gt;finalizing -->
<g id="edge2" class="edge transition">
<title>installing&#45;&gt;finalizing</title>
<path fill="none" stroke="black" d="M125.98,-69.84C183.31,-66.19 301.83,-58.36 402,-50 404.2,-49.82 406.46,-49.62 408.73,-49.42"/>
<polygon fill="black" stroke="black" points="409.02,-52.91 418.66,-48.52 408.38,-45.94 409.02,-52.91"/>
<text text-anchor="start" x="222.5" y="-67" font-family="Helvetica,sans-Serif" font-size="10.00">RefreshStatus &#45; Move to finalizing &#160;&#160;</text>
</g>
<!-- installing&#45;pending&#45;user&#45;action -->
<g id="node3" class="node state regular">
<title>installing&#45;pending&#45;user&#45;action</title>
<polygon fill="#ffffff" fill-opacity="0.003922" stroke="none" stroke-width="2" points="181,-36 0,-36 0,0 181,0 181,-36"/>
<text text-anchor="start" x="11.5" y="-14.4" font-family="Helvetica,sans-Serif" font-size="12.00">installing&#45;pending&#45;user&#45;action</text>
<path fill="none" stroke="black" stroke-width="2" d="M12,-1.5C12,-1.5 169,-1.5 169,-1.5 174.5,-1.5 180,-7 180,-12.5 180,-12.5 180,-23.5 180,-23.5 180,-29 174.5,-34.5 169,-34.5 169,-34.5 12,-34.5 12,-34.5 6.5,-34.5 1,-29 1,-23.5 1,-23.5 1,-12.5 1,-12.5 1,-7 6.5,-1.5 12,-1.5"/>
</g>
<!-- installing&#45;pending&#45;user&#45;action&#45;&gt;finalizing -->
<g id="edge1" class="edge transition">
<title>installing&#45;pending&#45;user&#45;action&#45;&gt;finalizing</title>
<path fill="none" stroke="black" d="M180.93,-22.92C243.02,-26.62 327.61,-32.2 402,-39 404.21,-39.2 406.46,-39.42 408.74,-39.65"/>
<polygon fill="black" stroke="black" points="408.36,-43.13 418.67,-40.7 409.1,-36.17 408.36,-43.13"/>
<text text-anchor="start" x="199" y="-42" font-family="Helvetica,sans-Serif" font-size="10.00">RefreshStatus &#45; TODO: Name this transition &#160;&#160;</text>
</g>
</g>
</svg>
