<?xml version="1.0" encoding="UTF-8" standalone="no"?>
<!DOCTYPE svg PUBLIC "-//W3C//DTD SVG 1.1//EN"
 "http://www.w3.org/Graphics/SVG/1.1/DTD/svg11.dtd">
<!-- Generated by graphviz version 12.1.0 (20240811.2233)
 -->
<!-- Title: state transitions Pages: 1 -->
<svg width="695pt" height="164pt"
 viewBox="0.00 0.00 694.62 163.50" xmlns="http://www.w3.org/2000/svg" xmlns:xlink="http://www.w3.org/1999/xlink">
<g id="graph0" class="graph" transform="scale(1 1) rotate(0) translate(4 159.5)">
<title>state transitions</title>
<polygon fill="white" stroke="none" points="-4,4 -4,-159.5 690.62,-159.5 690.62,4 -4,4"/>
<!-- finalizing -->
<g id="node1" class="node state regular">
<title>finalizing</title>
<polygon fill="#ffffff" fill-opacity="0.003922" stroke="none" stroke-width="2" points="530,-63.25 455.5,-63.25 455.5,-27 530,-27 530,-63.25"/>
<text text-anchor="start" x="466.5" y="-40.85" font-family="Helvetica,sans-Serif" font-size="12.00">finalizing</text>
<path fill="none" stroke="black" stroke-width="2" d="M467.92,-28C467.92,-28 517.58,-28 517.58,-28 523.29,-28 529,-33.71 529,-39.42 529,-39.42 529,-50.83 529,-50.83 529,-56.54 523.29,-62.25 517.58,-62.25 517.58,-62.25 467.92,-62.25 467.92,-62.25 462.21,-62.25 456.5,-56.54 456.5,-50.83 456.5,-50.83 456.5,-39.42 456.5,-39.42 456.5,-33.71 462.21,-28 467.92,-28"/>
</g>
<!-- finalizing&#45;&gt;finalizing -->
<g id="edge1" class="edge transition">
<title>finalizing&#45;&gt;finalizing</title>
<path fill="none" stroke="black" d="M482.81,-62.97C481.12,-72.53 484.43,-81.25 492.75,-81.25 497.43,-81.25 500.52,-78.49 502.03,-74.38"/>
<polygon fill="black" stroke="black" points="505.52,-74.66 502.6,-64.48 498.53,-74.26 505.52,-74.66"/>
<text text-anchor="start" x="298.88" y="-84.5" font-family="Helvetica,sans-Serif" font-size="10.00">RefreshStatus &#45; Finalizing stage is taking too long. &#160;Emit an appropriate event &#160;&#160;</text>
</g>
<!-- finalizing&#45;&gt;finalizing -->
<g id="edge2" class="edge transition">
<title>finalizing&#45;&gt;finalizing</title>
<path fill="none" stroke="black" d="M476.13,-63.14C467.23,-80.41 472.77,-99.25 492.75,-99.25 508.67,-99.25 515.42,-87.28 513.01,-73.69"/>
<polygon fill="black" stroke="black" points="516.43,-72.89 509.87,-64.58 509.82,-75.17 516.43,-72.89"/>
<text text-anchor="start" x="388.12" y="-102.5" font-family="Helvetica,sans-Serif" font-size="10.00">RefreshStatus &#45; Update AMS subscription &#160;&#160;</text>
</g>
<!-- finalizing&#45;&gt;finalizing -->
<g id="edge3" class="edge transition">
<title>finalizing&#45;&gt;finalizing</title>
<path fill="none" stroke="black" d="M471.76,-63.23C453.2,-87.61 460.19,-117.25 492.75,-117.25 521.11,-117.25 530.08,-94.76 519.64,-72.85"/>
<polygon fill="black" stroke="black" points="522.74,-71.21 514.53,-64.52 516.78,-74.88 522.74,-71.21"/>
<text text-anchor="start" x="390.38" y="-120.5" font-family="Helvetica,sans-Serif" font-size="10.00">RefreshStatus &#45; Maintain finalizing state &#160;&#160;</text>
</g>
<!-- installing -->
<g id="node2" class="node state regular">
<title>installing</title>
<polygon fill="#ffffff" fill-opacity="0.003922" stroke="none" stroke-width="2" points="136.38,-90.25 61.88,-90.25 61.88,-54 136.38,-54 136.38,-90.25"/>
<text text-anchor="start" x="72.88" y="-67.85" font-family="Helvetica,sans-Serif" font-size="12.00">installing</text>
<path fill="none" stroke="black" stroke-width="2" d="M74.29,-55C74.29,-55 123.96,-55 123.96,-55 129.67,-55 135.38,-60.71 135.38,-66.42 135.38,-66.42 135.38,-77.83 135.38,-77.83 135.38,-83.54 129.67,-89.25 123.96,-89.25 123.96,-89.25 74.29,-89.25 74.29,-89.25 68.58,-89.25 62.88,-83.54 62.88,-77.83 62.88,-77.83 62.88,-66.42 62.88,-66.42 62.88,-60.71 68.58,-55 74.29,-55"/>
</g>
<!-- installing&#45;&gt;finalizing -->
<g id="edge4" class="edge transition">
<title>installing&#45;&gt;finalizing</title>
<path fill="none" stroke="black" d="M136.27,-69.63C207.38,-64.73 365.41,-53.84 444.6,-48.38"/>
<polygon fill="black" stroke="black" points="444.45,-51.89 454.19,-47.71 443.97,-44.91 444.45,-51.89"/>
<text text-anchor="start" x="239.88" y="-66.64" font-family="Helvetica,sans-Serif" font-size="10.00">RefreshStatus &#45; Move to finalizing &#160;&#160;</text>
</g>
<!-- installing&#45;pending&#45;user&#45;action -->
<g id="node3" class="node state regular">
<title>installing&#45;pending&#45;user&#45;action</title>
<polygon fill="#ffffff" fill-opacity="0.003922" stroke="none" stroke-width="2" points="198.25,-36.25 0,-36.25 0,0 198.25,0 198.25,-36.25"/>
<text text-anchor="start" x="11" y="-13.85" font-family="Helvetica,sans-Serif" font-size="12.00">installing&#45;pending&#45;user&#45;action</text>
<path fill="none" stroke="black" stroke-width="2" d="M12.42,-1C12.42,-1 185.83,-1 185.83,-1 191.54,-1 197.25,-6.71 197.25,-12.42 197.25,-12.42 197.25,-23.83 197.25,-23.83 197.25,-29.54 191.54,-35.25 185.83,-35.25 185.83,-35.25 12.42,-35.25 12.42,-35.25 6.71,-35.25 1,-29.54 1,-23.83 1,-23.83 1,-12.42 1,-12.42 1,-6.71 6.71,-1 12.42,-1"/>
</g>
<!-- installing&#45;pending&#45;user&#45;action&#45;&gt;finalizing -->
<g id="edge5" class="edge transition">
<title>installing&#45;pending&#45;user&#45;action&#45;&gt;finalizing</title>
<path fill="none" stroke="black" d="M198,-17.4C265.58,-18.08 357.35,-21.36 437.5,-32.38 439.82,-32.69 442.19,-33.07 444.57,-33.48"/>
<polygon fill="black" stroke="black" points="443.77,-36.89 454.26,-35.37 445.11,-30.02 443.77,-36.89"/>
<text text-anchor="start" x="216.25" y="-35.62" font-family="Helvetica,sans-Serif" font-size="10.00">RefreshStatus &#45; TODO: Name this transition &#160;&#160;</text>
</g>
</g>
</svg>
