<?xml version="1.0" encoding="UTF-8" standalone="no"?>
<!DOCTYPE svg PUBLIC "-//W3C//DTD SVG 1.1//EN"
 "http://www.w3.org/Graphics/SVG/1.1/DTD/svg11.dtd">
<!-- Generated by graphviz version 12.1.0 (20240811.2233)
 -->
<!-- Title: state transitions Pages: 1 -->
<svg width="762pt" height="513pt"
 viewBox="0.00 0.00 762.12 512.79" xmlns="http://www.w3.org/2000/svg" xmlns:xlink="http://www.w3.org/1999/xlink">
<g id="graph0" class="graph" transform="scale(1 1) rotate(0) translate(4 508.79)">
<title>state transitions</title>
<polygon fill="white" stroke="none" points="-4,4 -4,-508.79 758.12,-508.79 758.12,4 -4,4"/>
<!-- cancelled -->
<g id="node1" class="node state regular">
<title>cancelled</title>
<polygon fill="#ffffff" fill-opacity="0.003922" stroke="none" stroke-width="2" points="138.25,-478.62 59.25,-478.62 59.25,-442.37 138.25,-442.37 138.25,-478.62"/>
<text text-anchor="start" x="70.25" y="-456.22" font-family="Helvetica,sans-Serif" font-size="12.00">cancelled</text>
<path fill="none" stroke="black" stroke-width="2" d="M71.67,-443.37C71.67,-443.37 125.83,-443.37 125.83,-443.37 131.54,-443.37 137.25,-449.08 137.25,-454.79 137.25,-454.79 137.25,-466.21 137.25,-466.21 137.25,-471.91 131.54,-477.62 125.83,-477.62 125.83,-477.62 71.67,-477.62 71.67,-477.62 65.96,-477.62 60.25,-471.91 60.25,-466.21 60.25,-466.21 60.25,-454.79 60.25,-454.79 60.25,-449.08 65.96,-443.37 71.67,-443.37"/>
</g>
<!-- insufficient -->
<g id="node2" class="node state regular">
<title>insufficient</title>
<polygon fill="#ffffff" fill-opacity="0.003922" stroke="none" stroke-width="2" points="638.75,-244.62 551.5,-244.62 551.5,-208.37 638.75,-208.37 638.75,-244.62"/>
<text text-anchor="start" x="562.5" y="-222.22" font-family="Helvetica,sans-Serif" font-size="12.00">insufficient</text>
<path fill="none" stroke="black" stroke-width="2" d="M563.92,-209.37C563.92,-209.37 626.33,-209.37 626.33,-209.37 632.04,-209.37 637.75,-215.08 637.75,-220.79 637.75,-220.79 637.75,-232.21 637.75,-232.21 637.75,-237.91 632.04,-243.62 626.33,-243.62 626.33,-243.62 563.92,-243.62 563.92,-243.62 558.21,-243.62 552.5,-237.91 552.5,-232.21 552.5,-232.21 552.5,-220.79 552.5,-220.79 552.5,-215.08 558.21,-209.37 563.92,-209.37"/>
</g>
<!-- cancelled&#45;&gt;insufficient -->
<g id="edge1" class="edge transition">
<title>cancelled&#45;&gt;insufficient</title>
<path fill="none" stroke="black" d="M138.19,-470.65C220.71,-489.97 416.77,-522.21 533.5,-428.5 585.94,-386.4 594.34,-300.74 594.9,-255.69"/>
<polygon fill="black" stroke="black" points="598.4,-255.89 594.89,-245.9 591.4,-255.9 598.4,-255.89"/>
<text text-anchor="start" x="289.75" y="-495.29" font-family="Helvetica,sans-Serif" font-size="10.00">Reset Cluster &#45; Reset installation &#160;&#160;</text>
</g>
<!-- insufficient&#45;&gt;insufficient -->
<g id="edge6" class="edge transition">
<title>insufficient&#45;&gt;insufficient</title>
<path fill="none" stroke="black" d="M575.29,-244.34C571.92,-253.91 578.54,-262.62 595.12,-262.62 604.46,-262.62 610.63,-259.86 613.65,-255.75"/>
<polygon fill="black" stroke="black" points="617.12,-256.18 614.78,-245.84 610.17,-255.38 617.12,-256.18"/>
<text text-anchor="start" x="436.12" y="-265.87" font-family="Helvetica,sans-Serif" font-size="10.00">RefreshStatus &#45; Refresh discovering cluster &#45; detect insufficient &#160;&#160;</text>
</g>
<!-- insufficient&#45;&gt;insufficient -->
<g id="edge7" class="edge transition">
<title>insufficient&#45;&gt;insufficient</title>
<path fill="none" stroke="black" d="M561.96,-244.52C544.21,-261.78 555.27,-280.62 595.12,-280.62 628.13,-280.62 641.39,-267.7 634.89,-253.45"/>
<polygon fill="black" stroke="black" points="637.94,-251.7 629.19,-245.73 632.31,-255.86 637.94,-251.7"/>
<text text-anchor="start" x="484.5" y="-283.87" font-family="Helvetica,sans-Serif" font-size="10.00">RefreshStatus &#45; TODO: Name this transition &#160;&#160;</text>
</g>
<!-- error -->
<g id="node3" class="node state regular">
<title>error</title>
<polygon fill="#ffffff" fill-opacity="0.003922" stroke="none" stroke-width="2" points="126.75,-424.62 70.75,-424.62 70.75,-388.37 126.75,-388.37 126.75,-424.62"/>
<text text-anchor="start" x="84.12" y="-402.22" font-family="Helvetica,sans-Serif" font-size="12.00">error</text>
<path fill="none" stroke="black" stroke-width="2" d="M83.17,-389.37C83.17,-389.37 114.33,-389.37 114.33,-389.37 120.04,-389.37 125.75,-395.08 125.75,-400.79 125.75,-400.79 125.75,-412.21 125.75,-412.21 125.75,-417.91 120.04,-423.62 114.33,-423.62 114.33,-423.62 83.17,-423.62 83.17,-423.62 77.46,-423.62 71.75,-417.91 71.75,-412.21 71.75,-412.21 71.75,-400.79 71.75,-400.79 71.75,-395.08 77.46,-389.37 83.17,-389.37"/>
</g>
<!-- error&#45;&gt;insufficient -->
<g id="edge2" class="edge transition">
<title>error&#45;&gt;insufficient</title>
<path fill="none" stroke="black" d="M126.55,-408C210.75,-412.19 468.33,-420.79 533.5,-373.5 571.57,-345.87 585.82,-289.89 591.09,-255.54"/>
<polygon fill="black" stroke="black" points="594.53,-256.26 592.41,-245.88 587.59,-255.31 594.53,-256.26"/>
<text text-anchor="start" x="289.75" y="-414.69" font-family="Helvetica,sans-Serif" font-size="10.00">Reset Cluster &#45; Reset installation &#160;&#160;</text>
</g>
<!-- finalizing -->
<g id="node4" class="node state regular">
<title>finalizing</title>
<polygon fill="#ffffff" fill-opacity="0.003922" stroke="none" stroke-width="2" points="136,-370.62 61.5,-370.62 61.5,-334.37 136,-334.37 136,-370.62"/>
<text text-anchor="start" x="72.5" y="-348.22" font-family="Helvetica,sans-Serif" font-size="12.00">finalizing</text>
<path fill="none" stroke="black" stroke-width="2" d="M73.92,-335.37C73.92,-335.37 123.58,-335.37 123.58,-335.37 129.29,-335.37 135,-341.08 135,-346.79 135,-346.79 135,-358.21 135,-358.21 135,-363.91 129.29,-369.62 123.58,-369.62 123.58,-369.62 73.92,-369.62 73.92,-369.62 68.21,-369.62 62.5,-363.91 62.5,-358.21 62.5,-358.21 62.5,-346.79 62.5,-346.79 62.5,-341.08 68.21,-335.37 73.92,-335.37"/>
</g>
<!-- finalizing&#45;&gt;insufficient -->
<g id="edge3" class="edge transition">
<title>finalizing&#45;&gt;insufficient</title>
<path fill="none" stroke="black" d="M135.97,-354.32C227.77,-358.28 467.02,-364.4 533.5,-324.5 559.3,-309.01 575.71,-277.9 584.86,-254.87"/>
<polygon fill="black" stroke="black" points="588.05,-256.32 588.25,-245.73 581.49,-253.89 588.05,-256.32"/>
<text text-anchor="start" x="289.75" y="-360.46" font-family="Helvetica,sans-Serif" font-size="10.00">Reset Cluster &#45; Reset installation &#160;&#160;</text>
</g>
<!-- installing -->
<g id="node5" class="node state regular">
<title>installing</title>
<polygon fill="#ffffff" fill-opacity="0.003922" stroke="none" stroke-width="2" points="136,-316.62 61.5,-316.62 61.5,-280.37 136,-280.37 136,-316.62"/>
<text text-anchor="start" x="72.5" y="-294.22" font-family="Helvetica,sans-Serif" font-size="12.00">installing</text>
<path fill="none" stroke="black" stroke-width="2" d="M73.92,-281.37C73.92,-281.37 123.58,-281.37 123.58,-281.37 129.29,-281.37 135,-287.08 135,-292.79 135,-292.79 135,-304.21 135,-304.21 135,-309.91 129.29,-315.62 123.58,-315.62 123.58,-315.62 73.92,-315.62 73.92,-315.62 68.21,-315.62 62.5,-309.91 62.5,-304.21 62.5,-304.21 62.5,-292.79 62.5,-292.79 62.5,-287.08 68.21,-281.37 73.92,-281.37"/>
</g>
<!-- installing&#45;&gt;insufficient -->
<g id="edge4" class="edge transition">
<title>installing&#45;&gt;insufficient</title>
<path fill="none" stroke="black" d="M135.89,-302.3C211.97,-308.96 393.18,-317.73 533.5,-268.5 544.65,-264.59 555.63,-258.04 565.12,-251.27"/>
<polygon fill="black" stroke="black" points="567,-254.24 572.86,-245.42 562.77,-248.65 567,-254.24"/>
<text text-anchor="start" x="289.75" y="-310.76" font-family="Helvetica,sans-Serif" font-size="10.00">Reset Cluster &#45; Reset installation &#160;&#160;</text>
</g>
<!-- installing&#45;pending&#45;user&#45;action -->
<g id="node6" class="node state regular">
<title>installing&#45;pending&#45;user&#45;action</title>
<polygon fill="#ffffff" fill-opacity="0.003922" stroke="none" stroke-width="2" points="197.5,-262.62 0,-262.62 0,-226.37 197.5,-226.37 197.5,-262.62"/>
<text text-anchor="start" x="11" y="-240.22" font-family="Helvetica,sans-Serif" font-size="12.00">installing&#45;pending&#45;user&#45;action</text>
<path fill="none" stroke="black" stroke-width="2" d="M12.42,-227.37C12.42,-227.37 185.08,-227.37 185.08,-227.37 190.79,-227.37 196.5,-233.08 196.5,-238.79 196.5,-238.79 196.5,-250.21 196.5,-250.21 196.5,-255.91 190.79,-261.62 185.08,-261.62 185.08,-261.62 12.42,-261.62 12.42,-261.62 6.71,-261.62 1,-255.91 1,-250.21 1,-250.21 1,-238.79 1,-238.79 1,-233.08 6.71,-227.37 12.42,-227.37"/>
</g>
<!-- installing&#45;pending&#45;user&#45;action&#45;&gt;insufficient -->
<g id="edge5" class="edge transition">
<title>installing&#45;pending&#45;user&#45;action&#45;&gt;insufficient</title>
<path fill="none" stroke="black" d="M197.47,-249.64C285.63,-252.84 418.71,-254.12 533.5,-240.5 535.8,-240.22 538.15,-239.9 540.51,-239.53"/>
<polygon fill="black" stroke="black" points="540.89,-243.02 550.11,-237.81 539.65,-236.13 540.89,-243.02"/>
<text text-anchor="start" x="289.75" y="-254.99" font-family="Helvetica,sans-Serif" font-size="10.00">Reset Cluster &#45; Reset installation &#160;&#160;</text>
</g>
<!-- pending&#45;for&#45;input -->
<g id="node7" class="node state regular">
<title>pending&#45;for&#45;input</title>
<polygon fill="#ffffff" fill-opacity="0.003922" stroke="none" stroke-width="2" points="161.12,-208.62 36.38,-208.62 36.38,-172.37 161.12,-172.37 161.12,-208.62"/>
<text text-anchor="start" x="47.38" y="-186.22" font-family="Helvetica,sans-Serif" font-size="12.00">pending&#45;for&#45;input</text>
<path fill="none" stroke="black" stroke-width="2" d="M48.79,-173.37C48.79,-173.37 148.71,-173.37 148.71,-173.37 154.42,-173.37 160.12,-179.08 160.12,-184.79 160.12,-184.79 160.12,-196.21 160.12,-196.21 160.12,-201.91 154.42,-207.62 148.71,-207.62 148.71,-207.62 48.79,-207.62 48.79,-207.62 43.08,-207.62 37.38,-201.91 37.38,-196.21 37.38,-196.21 37.38,-184.79 37.38,-184.79 37.38,-179.08 43.08,-173.37 48.79,-173.37"/>
</g>
<!-- pending&#45;for&#45;input&#45;&gt;insufficient -->
<g id="edge8" class="edge transition">
<title>pending&#45;for&#45;input&#45;&gt;insufficient</title>
<path fill="none" stroke="black" d="M160.95,-198.62C178.54,-200.76 197.76,-202.91 215.5,-204.5 276.93,-209.99 451.21,-219.23 540.28,-223.78"/>
<polygon fill="black" stroke="black" points="540.07,-227.28 550.23,-224.29 540.43,-220.29 540.07,-227.28"/>
<text text-anchor="start" x="215.5" y="-226.41" font-family="Helvetica,sans-Serif" font-size="10.00">RefreshStatus &#45; Refresh discovering cluster &#45; detect insufficient &#160;&#160;</text>
</g>
<!-- pending&#45;for&#45;input&#45;&gt;insufficient -->
<g id="edge9" class="edge transition">
<title>pending&#45;for&#45;input&#45;&gt;insufficient</title>
<path fill="none" stroke="black" d="M161.02,-188.77C178.61,-188.35 197.81,-187.96 215.5,-187.75 356.82,-186.07 397.84,-148.1 533.5,-187.75 543.89,-190.78 554.19,-196.21 563.28,-202.05"/>
<polygon fill="black" stroke="black" points="561.13,-204.82 571.35,-207.6 565.1,-199.05 561.13,-204.82"/>
<text text-anchor="start" x="263.88" y="-191" font-family="Helvetica,sans-Serif" font-size="10.00">RefreshStatus &#45; TODO: Name this transition &#160;&#160;</text>
</g>
<!-- preparing&#45;for&#45;installation -->
<g id="node8" class="node state regular">
<title>preparing&#45;for&#45;installation</title>
<polygon fill="#ffffff" fill-opacity="0.003922" stroke="none" stroke-width="2" points="183.25,-145.62 14.25,-145.62 14.25,-109.37 183.25,-109.37 183.25,-145.62"/>
<text text-anchor="start" x="25.25" y="-123.22" font-family="Helvetica,sans-Serif" font-size="12.00">preparing&#45;for&#45;installation</text>
<path fill="none" stroke="black" stroke-width="2" d="M26.67,-110.37C26.67,-110.37 170.83,-110.37 170.83,-110.37 176.54,-110.37 182.25,-116.08 182.25,-121.79 182.25,-121.79 182.25,-133.21 182.25,-133.21 182.25,-138.91 176.54,-144.62 170.83,-144.62 170.83,-144.62 26.67,-144.62 26.67,-144.62 20.96,-144.62 15.25,-138.91 15.25,-133.21 15.25,-133.21 15.25,-121.79 15.25,-121.79 15.25,-116.08 20.96,-110.37 26.67,-110.37"/>
</g>
<!-- preparing&#45;for&#45;installation&#45;&gt;insufficient -->
<g id="edge10" class="edge transition">
<title>preparing&#45;for&#45;installation&#45;&gt;insufficient</title>
<path fill="none" stroke="black" d="M183.06,-131.51C306.87,-137.58 525.8,-148.83 533.5,-152.75 553.2,-162.76 568.82,-182.35 579.27,-198.82"/>
<polygon fill="black" stroke="black" points="576.19,-200.48 584.32,-207.27 582.19,-196.89 576.19,-200.48"/>
<text text-anchor="start" x="237.25" y="-156" font-family="Helvetica,sans-Serif" font-size="10.00">RefreshStatus &#45; Refresh preparing cluster &#45; insufficient &#160;&#160;</text>
</g>
<!-- preparing&#45;for&#45;installation&#45;&gt;insufficient -->
<g id="edge11" class="edge transition">
<title>preparing&#45;for&#45;installation&#45;&gt;insufficient</title>
<path fill="none" stroke="black" d="M183.16,-115.2C292.28,-100.83 476.33,-83.01 533.5,-116.75 562.9,-134.09 579.03,-171.36 587.11,-197.64"/>
<polygon fill="black" stroke="black" points="583.68,-198.37 589.78,-207.03 590.41,-196.45 583.68,-198.37"/>
<text text-anchor="start" x="289.75" y="-120" font-family="Helvetica,sans-Serif" font-size="10.00">Reset Cluster &#45; Reset installation &#160;&#160;</text>
</g>
<!-- ready -->
<g id="node9" class="node state regular">
<title>ready</title>
<polygon fill="#ffffff" fill-opacity="0.003922" stroke="none" stroke-width="2" points="126.75,-82.62 70.75,-82.62 70.75,-46.37 126.75,-46.37 126.75,-82.62"/>
<text text-anchor="start" x="81.88" y="-60.22" font-family="Helvetica,sans-Serif" font-size="12.00">ready</text>
<path fill="none" stroke="black" stroke-width="2" d="M83.17,-47.37C83.17,-47.37 114.33,-47.37 114.33,-47.37 120.04,-47.37 125.75,-53.08 125.75,-58.79 125.75,-58.79 125.75,-70.21 125.75,-70.21 125.75,-75.91 120.04,-81.62 114.33,-81.62 114.33,-81.62 83.17,-81.62 83.17,-81.62 77.46,-81.62 71.75,-75.91 71.75,-70.21 71.75,-70.21 71.75,-58.79 71.75,-58.79 71.75,-53.08 77.46,-47.37 83.17,-47.37"/>
</g>
<!-- ready&#45;&gt;insufficient -->
<g id="edge12" class="edge transition">
<title>ready&#45;&gt;insufficient</title>
<path fill="none" stroke="black" d="M126.69,-63.84C216.24,-61.89 500.19,-57.62 533.5,-80.75 571.86,-107.39 586.01,-163.14 591.19,-197.45"/>
<polygon fill="black" stroke="black" points="587.69,-197.65 592.47,-207.1 594.62,-196.73 587.69,-197.65"/>
<text text-anchor="start" x="215.5" y="-84" font-family="Helvetica,sans-Serif" font-size="10.00">RefreshStatus &#45; Refresh discovering cluster &#45; detect insufficient &#160;&#160;</text>
</g>
<!-- ready&#45;&gt;insufficient -->
<g id="edge13" class="edge transition">
<title>ready&#45;&gt;insufficient</title>
<path fill="none" stroke="black" d="M126.62,-53.01C199.93,-23.63 406.38,45.69 533.5,-45.75 581.8,-80.49 592.16,-155.56 594.05,-197.19"/>
<polygon fill="black" stroke="black" points="590.54,-197.07 594.34,-206.96 597.54,-196.86 590.54,-197.07"/>
<text text-anchor="start" x="263.88" y="-49" font-family="Helvetica,sans-Serif" font-size="10.00">RefreshStatus &#45; TODO: Name this transition &#160;&#160;</text>
</g>
</g>
</svg>
