<?xml version="1.0" encoding="UTF-8" standalone="no"?>
<!DOCTYPE svg PUBLIC "-//W3C//DTD SVG 1.1//EN"
 "http://www.w3.org/Graphics/SVG/1.1/DTD/svg11.dtd">
<!-- Generated by graphviz version 5.0.0 (0)
 -->
<!-- Title: state transitions Pages: 1 -->
<svg width="625pt" height="154pt"
 viewBox="0.00 0.00 624.50 153.91" xmlns="http://www.w3.org/2000/svg" xmlns:xlink="http://www.w3.org/1999/xlink">
<g id="graph0" class="graph" transform="scale(1 1) rotate(0) translate(4 149.91)">
<title>state transitions</title>
<polygon fill="white" stroke="transparent" points="-4,4 -4,-149.91 620.5,-149.91 620.5,4 -4,4"/>
<!-- insufficient -->
<g id="node1" class="node state regular">
<title>insufficient</title>
<polygon fill="#ffffff" fill-opacity="0.003922" stroke="transparent" stroke-width="2" points="80,-117.91 0,-117.91 0,-81.91 80,-81.91 80,-117.91"/>
<text text-anchor="start" x="11" y="-96.31" font-family="Helvetica,sans-Serif" font-size="12.00">insufficient</text>
<path fill="none" stroke="black" stroke-width="2" d="M12,-83.41C12,-83.41 68,-83.41 68,-83.41 73.5,-83.41 79,-88.91 79,-94.41 79,-94.41 79,-105.41 79,-105.41 79,-110.91 73.5,-116.41 68,-116.41 68,-116.41 12,-116.41 12,-116.41 6.5,-116.41 1,-110.91 1,-105.41 1,-105.41 1,-94.41 1,-94.41 1,-88.91 6.5,-83.41 12,-83.41"/>
</g>
<!-- pending&#45;for&#45;input -->
<g id="node2" class="node state regular">
<title>pending&#45;for&#45;input</title>
<polygon fill="#ffffff" fill-opacity="0.003922" stroke="transparent" stroke-width="2" points="525,-87.91 412,-87.91 412,-51.91 525,-51.91 525,-87.91"/>
<text text-anchor="start" x="423.5" y="-66.31" font-family="Helvetica,sans-Serif" font-size="12.00">pending&#45;for&#45;input</text>
<path fill="none" stroke="black" stroke-width="2" d="M424,-53.41C424,-53.41 513,-53.41 513,-53.41 518.5,-53.41 524,-58.91 524,-64.41 524,-64.41 524,-75.41 524,-75.41 524,-80.91 518.5,-86.41 513,-86.41 513,-86.41 424,-86.41 424,-86.41 418.5,-86.41 413,-80.91 413,-75.41 413,-75.41 413,-64.41 413,-64.41 413,-58.91 418.5,-53.41 424,-53.41"/>
</g>
<!-- insufficient&#45;&gt;pending&#45;for&#45;input -->
<g id="edge3" class="edge transition">
<title>insufficient&#45;&gt;pending&#45;for&#45;input</title>
<path fill="none" stroke="black" d="M80.1,-104.49C145.7,-111.12 281.75,-120.42 394,-98.91 402.61,-97.26 411.51,-94.63 420.01,-91.6"/>
<polygon fill="black" stroke="black" points="421.28,-94.86 429.4,-88.05 418.81,-88.31 421.28,-94.86"/>
<text text-anchor="start" x="98" y="-114.91" font-family="Helvetica,sans-Serif" font-size="10.00">RefreshStatus &#45; Refresh discovering cluster &#45; detect required input &#160;&#160;</text>
</g>
<!-- insufficient&#45;&gt;pending&#45;for&#45;input -->
<g id="edge6" class="edge transition">
<title>insufficient&#45;&gt;pending&#45;for&#45;input</title>
<path fill="none" stroke="black" d="M80.05,-89.24C86.02,-87.93 92.15,-86.75 98,-85.91 203.48,-70.83 327.47,-68.58 401.65,-68.86"/>
<polygon fill="black" stroke="black" points="401.76,-72.36 411.78,-68.91 401.8,-65.36 401.76,-72.36"/>
<text text-anchor="start" x="144.5" y="-88.91" font-family="Helvetica,sans-Serif" font-size="10.00">RefreshStatus &#45; TODO: Name this transition &#160;&#160;</text>
</g>
<!-- pending&#45;for&#45;input&#45;&gt;pending&#45;for&#45;input -->
<g id="edge1" class="edge transition">
<title>pending&#45;for&#45;input&#45;&gt;pending&#45;for&#45;input</title>
<path fill="none" stroke="black" d="M448.42,-88.07C445.33,-97.45 452.02,-105.91 468.5,-105.91 478.54,-105.91 484.95,-102.77 487.72,-98.19"/>
<polygon fill="black" stroke="black" points="491.22,-98.33 488.58,-88.07 484.25,-97.73 491.22,-98.33"/>
<text text-anchor="start" x="320.5" y="-108.91" font-family="Helvetica,sans-Serif" font-size="10.00">RefreshStatus &#45; Refresh discovering cluster &#45; detect required input &#160;&#160;</text>
</g>
<!-- pending&#45;for&#45;input&#45;&gt;pending&#45;for&#45;input -->
<g id="edge4" class="edge transition">
<title>pending&#45;for&#45;input&#45;&gt;pending&#45;for&#45;input</title>
<path fill="none" stroke="black" d="M434.84,-88.17C417.39,-105.32 428.61,-123.91 468.5,-123.91 502.16,-123.91 515.4,-110.67 508.24,-96.24"/>
<polygon fill="black" stroke="black" points="510.97,-94.05 502.16,-88.17 505.38,-98.26 510.97,-94.05"/>
<text text-anchor="start" x="367" y="-126.91" font-family="Helvetica,sans-Serif" font-size="10.00">RefreshStatus &#45; TODO: Name this transition &#160;&#160;</text>
</g>
<!-- ready -->
<g id="node3" class="node state regular">
<title>ready</title>
<polygon fill="#ffffff" fill-opacity="0.003922" stroke="transparent" stroke-width="2" points="68,-56.91 12,-56.91 12,-20.91 68,-20.91 68,-56.91"/>
<text text-anchor="start" x="24.5" y="-35.31" font-family="Helvetica,sans-Serif" font-size="12.00">ready</text>
<path fill="none" stroke="black" stroke-width="2" d="M24,-22.41C24,-22.41 56,-22.41 56,-22.41 61.5,-22.41 67,-27.91 67,-33.41 67,-33.41 67,-44.41 67,-44.41 67,-49.91 61.5,-55.41 56,-55.41 56,-55.41 24,-55.41 24,-55.41 18.5,-55.41 13,-49.91 13,-44.41 13,-44.41 13,-33.41 13,-33.41 13,-27.91 18.5,-22.41 24,-22.41"/>
</g>
<!-- ready&#45;&gt;pending&#45;for&#45;input -->
<g id="edge2" class="edge transition">
<title>ready&#45;&gt;pending&#45;for&#45;input</title>
<path fill="none" stroke="black" d="M68.16,-38.26C127.56,-37.22 273.34,-36.71 394,-52.91 396.65,-53.27 399.34,-53.67 402.05,-54.12"/>
<polygon fill="black" stroke="black" points="401.46,-57.57 411.92,-55.9 402.7,-50.68 401.46,-57.57"/>
<text text-anchor="start" x="98" y="-55.91" font-family="Helvetica,sans-Serif" font-size="10.00">RefreshStatus &#45; Refresh discovering cluster &#45; detect required input &#160;&#160;</text>
</g>
<!-- ready&#45;&gt;pending&#45;for&#45;input -->
<g id="edge5" class="edge transition">
<title>ready&#45;&gt;pending&#45;for&#45;input</title>
<path fill="none" stroke="black" d="M68.18,-29.06C77.5,-26.15 88.09,-23.36 98,-21.91 228.18,-2.91 267.91,15.61 394,-21.91 410.18,-26.73 426.11,-36.36 438.99,-45.74"/>
<polygon fill="black" stroke="black" points="436.9,-48.55 446.98,-51.81 441.14,-42.98 436.9,-48.55"/>
<text text-anchor="start" x="144.5" y="-24.91" font-family="Helvetica,sans-Serif" font-size="10.00">RefreshStatus &#45; TODO: Name this transition &#160;&#160;</text>
</g>
</g>
</svg>
