<?xml version="1.0" encoding="UTF-8" standalone="no"?>
<!DOCTYPE svg PUBLIC "-//W3C//DTD SVG 1.1//EN"
 "http://www.w3.org/Graphics/SVG/1.1/DTD/svg11.dtd">
<!-- Generated by graphviz version 12.1.0 (20240811.2233)
 -->
<!-- Title: state transitions Pages: 1 -->
<svg width="691pt" height="163pt"
 viewBox="0.00 0.00 690.50 162.82" xmlns="http://www.w3.org/2000/svg" xmlns:xlink="http://www.w3.org/1999/xlink">
<g id="graph0" class="graph" transform="scale(1 1) rotate(0) translate(4 158.82)">
<title>state transitions</title>
<polygon fill="white" stroke="none" points="-4,4 -4,-158.82 686.5,-158.82 686.5,4 -4,4"/>
<!-- insufficient -->
<g id="node1" class="node state regular">
<title>insufficient</title>
<polygon fill="#ffffff" fill-opacity="0.003922" stroke="none" stroke-width="2" points="86.5,-124.32 0,-124.32 0,-88.07 86.5,-88.07 86.5,-124.32"/>
<text text-anchor="start" x="11" y="-101.92" font-family="Helvetica,sans-Serif" font-size="12.00">insufficient</text>
<path fill="none" stroke="black" stroke-width="2" d="M12.42,-89.07C12.42,-89.07 74.08,-89.07 74.08,-89.07 79.79,-89.07 85.5,-94.78 85.5,-100.49 85.5,-100.49 85.5,-111.9 85.5,-111.9 85.5,-117.61 79.79,-123.32 74.08,-123.32 74.08,-123.32 12.42,-123.32 12.42,-123.32 6.71,-123.32 1,-117.61 1,-111.9 1,-111.9 1,-100.49 1,-100.49 1,-94.78 6.71,-89.07 12.42,-89.07"/>
</g>
<!-- pending&#45;for&#45;input -->
<g id="node2" class="node state regular">
<title>pending&#45;for&#45;input</title>
<polygon fill="#ffffff" fill-opacity="0.003922" stroke="none" stroke-width="2" points="579.5,-93.32 454,-93.32 454,-57.07 579.5,-57.07 579.5,-93.32"/>
<text text-anchor="start" x="465" y="-70.92" font-family="Helvetica,sans-Serif" font-size="12.00">pending&#45;for&#45;input</text>
<path fill="none" stroke="black" stroke-width="2" d="M466.42,-58.07C466.42,-58.07 567.08,-58.07 567.08,-58.07 572.79,-58.07 578.5,-63.78 578.5,-69.49 578.5,-69.49 578.5,-80.9 578.5,-80.9 578.5,-86.61 572.79,-92.32 567.08,-92.32 567.08,-92.32 466.42,-92.32 466.42,-92.32 460.71,-92.32 455,-86.61 455,-80.9 455,-80.9 455,-69.49 455,-69.49 455,-63.78 460.71,-58.07 466.42,-58.07"/>
</g>
<!-- insufficient&#45;&gt;pending&#45;for&#45;input -->
<g id="edge1" class="edge transition">
<title>insufficient&#45;&gt;pending&#45;for&#45;input</title>
<path fill="none" stroke="black" d="M86.49,-111.57C158.84,-119.6 310.79,-131.38 436,-107.2 446.87,-105.1 458.14,-101.52 468.67,-97.51"/>
<polygon fill="black" stroke="black" points="469.95,-100.77 477.91,-93.78 467.33,-94.28 469.95,-100.77"/>
<text text-anchor="start" x="104.5" y="-124.86" font-family="Helvetica,sans-Serif" font-size="10.00">RefreshStatus &#45; Refresh discovering cluster &#45; detect required input &#160;&#160;</text>
</g>
<!-- insufficient&#45;&gt;pending&#45;for&#45;input -->
<g id="edge2" class="edge transition">
<title>insufficient&#45;&gt;pending&#45;for&#45;input</title>
<path fill="none" stroke="black" d="M86.47,-93.92C92.48,-92.54 98.62,-91.31 104.5,-90.45 221.96,-73.13 360.22,-71.87 442.78,-73.12"/>
<polygon fill="black" stroke="black" points="442.48,-76.61 452.54,-73.28 442.6,-69.61 442.48,-76.61"/>
<text text-anchor="start" x="159.62" y="-93.7" font-family="Helvetica,sans-Serif" font-size="10.00">RefreshStatus &#45; TODO: Name this transition &#160;&#160;</text>
</g>
<!-- pending&#45;for&#45;input&#45;&gt;pending&#45;for&#45;input -->
<g id="edge3" class="edge transition">
<title>pending&#45;for&#45;input&#45;&gt;pending&#45;for&#45;input</title>
<path fill="none" stroke="black" d="M494.59,-93.04C490.83,-102.61 498.21,-111.32 516.75,-111.32 527.18,-111.32 534.07,-108.56 537.44,-104.45"/>
<polygon fill="black" stroke="black" points="540.91,-104.9 538.71,-94.54 533.97,-104.02 540.91,-104.9"/>
<text text-anchor="start" x="351" y="-114.57" font-family="Helvetica,sans-Serif" font-size="10.00">RefreshStatus &#45; Refresh discovering cluster &#45; detect required input &#160;&#160;</text>
</g>
<!-- pending&#45;for&#45;input&#45;&gt;pending&#45;for&#45;input -->
<g id="edge4" class="edge transition">
<title>pending&#45;for&#45;input&#45;&gt;pending&#45;for&#45;input</title>
<path fill="none" stroke="black" d="M479.7,-93.22C459.87,-110.48 472.22,-129.32 516.75,-129.32 553.98,-129.32 568.72,-116.15 560.97,-101.75"/>
<polygon fill="black" stroke="black" points="563.89,-99.78 554.78,-94.38 558.52,-104.29 563.89,-99.78"/>
<text text-anchor="start" x="406.12" y="-132.57" font-family="Helvetica,sans-Serif" font-size="10.00">RefreshStatus &#45; TODO: Name this transition &#160;&#160;</text>
</g>
<!-- ready -->
<g id="node3" class="node state regular">
<title>ready</title>
<polygon fill="#ffffff" fill-opacity="0.003922" stroke="none" stroke-width="2" points="71.25,-61.32 15.25,-61.32 15.25,-25.07 71.25,-25.07 71.25,-61.32"/>
<text text-anchor="start" x="26.38" y="-38.92" font-family="Helvetica,sans-Serif" font-size="12.00">ready</text>
<path fill="none" stroke="black" stroke-width="2" d="M27.67,-26.07C27.67,-26.07 58.83,-26.07 58.83,-26.07 64.54,-26.07 70.25,-31.78 70.25,-37.49 70.25,-37.49 70.25,-48.9 70.25,-48.9 70.25,-54.61 64.54,-60.32 58.83,-60.32 58.83,-60.32 27.67,-60.32 27.67,-60.32 21.96,-60.32 16.25,-54.61 16.25,-48.9 16.25,-48.9 16.25,-37.49 16.25,-37.49 16.25,-31.78 21.96,-26.07 27.67,-26.07"/>
</g>
<!-- ready&#45;&gt;pending&#45;for&#45;input -->
<g id="edge5" class="edge transition">
<title>ready&#45;&gt;pending&#45;for&#45;input</title>
<path fill="none" stroke="black" d="M71,-42.29C134.6,-40.54 299.74,-38.3 436,-56.45 438.31,-56.75 440.66,-57.1 443.02,-57.48"/>
<polygon fill="black" stroke="black" points="442.2,-60.89 452.66,-59.18 443.42,-53.99 442.2,-60.89"/>
<text text-anchor="start" x="104.5" y="-59.7" font-family="Helvetica,sans-Serif" font-size="10.00">RefreshStatus &#45; Refresh discovering cluster &#45; detect required input &#160;&#160;</text>
</g>
<!-- ready&#45;&gt;pending&#45;for&#45;input -->
<g id="edge6" class="edge transition">
<title>ready&#45;&gt;pending&#45;for&#45;input</title>
<path fill="none" stroke="black" d="M71.13,-32.93C81.41,-29.51 93.34,-26.14 104.5,-24.45 250.16,-2.3 294.54,16.75 436,-24.45 453.8,-29.63 471.41,-40.12 485.54,-50.22"/>
<polygon fill="black" stroke="black" points="483.41,-52.99 493.51,-56.17 487.6,-47.39 483.41,-52.99"/>
<text text-anchor="start" x="159.62" y="-27.7" font-family="Helvetica,sans-Serif" font-size="10.00">RefreshStatus &#45; TODO: Name this transition &#160;&#160;</text>
</g>
</g>
</svg>
