<?xml version="1.0" encoding="UTF-8" standalone="no"?>
<!DOCTYPE svg PUBLIC "-//W3C//DTD SVG 1.1//EN"
 "http://www.w3.org/Graphics/SVG/1.1/DTD/svg11.dtd">
<!-- Generated by graphviz version 12.1.0 (20240811.2233)
 -->
<!-- Title: state transitions Pages: 1 -->
<svg width="719pt" height="211pt"
 viewBox="0.00 0.00 718.75 210.75" xmlns="http://www.w3.org/2000/svg" xmlns:xlink="http://www.w3.org/1999/xlink">
<g id="graph0" class="graph" transform="scale(1 1) rotate(0) translate(4 206.75)">
<title>state transitions</title>
<polygon fill="white" stroke="none" points="-4,4 -4,-206.75 714.75,-206.75 714.75,4 -4,4"/>
<!-- insufficient -->
<g id="node1" class="node state regular">
<title>insufficient</title>
<polygon fill="#ffffff" fill-opacity="0.003922" stroke="none" stroke-width="2" points="669.12,-178.37 582.62,-178.37 582.62,-142.12 669.12,-142.12 669.12,-178.37"/>
<text text-anchor="start" x="593.62" y="-155.97" font-family="Helvetica,sans-Serif" font-size="12.00">insufficient</text>
<path fill="none" stroke="black" stroke-width="2" d="M595.04,-143.12C595.04,-143.12 656.71,-143.12 656.71,-143.12 662.42,-143.12 668.12,-148.83 668.12,-154.54 668.12,-154.54 668.12,-165.95 668.12,-165.95 668.12,-171.66 662.42,-177.37 656.71,-177.37 656.71,-177.37 595.04,-177.37 595.04,-177.37 589.33,-177.37 583.62,-171.66 583.62,-165.95 583.62,-165.95 583.62,-154.54 583.62,-154.54 583.62,-148.83 589.33,-143.12 595.04,-143.12"/>
</g>
<!-- pending&#45;for&#45;input -->
<g id="node2" class="node state regular">
<title>pending&#45;for&#45;input</title>
<polygon fill="#ffffff" fill-opacity="0.003922" stroke="none" stroke-width="2" points="688.62,-111.37 563.12,-111.37 563.12,-75.12 688.62,-75.12 688.62,-111.37"/>
<text text-anchor="start" x="574.12" y="-88.97" font-family="Helvetica,sans-Serif" font-size="12.00">pending&#45;for&#45;input</text>
<path fill="none" stroke="black" stroke-width="2" d="M575.54,-76.12C575.54,-76.12 676.21,-76.12 676.21,-76.12 681.92,-76.12 687.62,-81.83 687.62,-87.54 687.62,-87.54 687.62,-98.95 687.62,-98.95 687.62,-104.66 681.92,-110.37 676.21,-110.37 676.21,-110.37 575.54,-110.37 575.54,-110.37 569.83,-110.37 564.12,-104.66 564.12,-98.95 564.12,-98.95 564.12,-87.54 564.12,-87.54 564.12,-81.83 569.83,-76.12 575.54,-76.12"/>
</g>
<!-- preparing&#45;for&#45;installation -->
<g id="node3" class="node state regular">
<title>preparing&#45;for&#45;installation</title>
<polygon fill="#ffffff" fill-opacity="0.003922" stroke="none" stroke-width="2" points="710.75,-48.37 541,-48.37 541,-12.12 710.75,-12.12 710.75,-48.37"/>
<text text-anchor="start" x="552" y="-25.97" font-family="Helvetica,sans-Serif" font-size="12.00">preparing&#45;for&#45;installation</text>
<path fill="none" stroke="black" stroke-width="2" d="M553.42,-13.12C553.42,-13.12 698.33,-13.12 698.33,-13.12 704.04,-13.12 709.75,-18.83 709.75,-24.54 709.75,-24.54 709.75,-35.95 709.75,-35.95 709.75,-41.66 704.04,-47.37 698.33,-47.37 698.33,-47.37 553.42,-47.37 553.42,-47.37 547.71,-47.37 542,-41.66 542,-35.95 542,-35.95 542,-24.54 542,-24.54 542,-18.83 547.71,-13.12 553.42,-13.12"/>
</g>
<!-- ready -->
<g id="node4" class="node state regular">
<title>ready</title>
<polygon fill="#ffffff" fill-opacity="0.003922" stroke="none" stroke-width="2" points="173.5,-120.37 117.5,-120.37 117.5,-84.12 173.5,-84.12 173.5,-120.37"/>
<text text-anchor="start" x="128.62" y="-97.97" font-family="Helvetica,sans-Serif" font-size="12.00">ready</text>
<path fill="none" stroke="black" stroke-width="2" d="M129.92,-85.12C129.92,-85.12 161.08,-85.12 161.08,-85.12 166.79,-85.12 172.5,-90.83 172.5,-96.54 172.5,-96.54 172.5,-107.95 172.5,-107.95 172.5,-113.66 166.79,-119.37 161.08,-119.37 161.08,-119.37 129.92,-119.37 129.92,-119.37 124.21,-119.37 118.5,-113.66 118.5,-107.95 118.5,-107.95 118.5,-96.54 118.5,-96.54 118.5,-90.83 124.21,-85.12 129.92,-85.12"/>
</g>
<!-- ready&#45;&gt;insufficient -->
<g id="edge3" class="edge transition">
<title>ready&#45;&gt;insufficient</title>
<path fill="none" stroke="black" d="M157.02,-120.05C164.91,-131.55 176.84,-145.55 191.5,-152.24 317.65,-209.83 486.75,-188.66 571.59,-172.27"/>
<polygon fill="black" stroke="black" points="572.14,-175.73 581.26,-170.35 570.77,-168.87 572.14,-175.73"/>
<text text-anchor="start" x="198.62" y="-193.25" font-family="Helvetica,sans-Serif" font-size="10.00">RefreshStatus &#45; Refresh discovering cluster &#45; detect insufficient &#160;&#160;</text>
</g>
<!-- ready&#45;&gt;insufficient -->
<g id="edge5" class="edge transition">
<title>ready&#45;&gt;insufficient</title>
<path fill="none" stroke="black" d="M173.36,-111.77C179.27,-113.53 185.54,-115.16 191.5,-116.24 336.7,-142.64 377.04,-113.71 523,-135.49 539.08,-137.89 556.34,-141.63 572,-145.48"/>
<polygon fill="black" stroke="black" points="571.06,-148.86 581.61,-147.92 572.78,-142.07 571.06,-148.86"/>
<text text-anchor="start" x="246.62" y="-138.74" font-family="Helvetica,sans-Serif" font-size="10.00">RefreshStatus &#45; TODO: Name this transition &#160;&#160;</text>
</g>
<!-- ready&#45;&gt;pending&#45;for&#45;input -->
<g id="edge2" class="edge transition">
<title>ready&#45;&gt;pending&#45;for&#45;input</title>
<path fill="none" stroke="black" d="M173.24,-101.74C244.91,-100.39 443.17,-96.66 551.64,-94.62"/>
<polygon fill="black" stroke="black" points="551.68,-98.12 561.61,-94.43 551.55,-91.12 551.68,-98.12"/>
<text text-anchor="start" x="191.5" y="-104.56" font-family="Helvetica,sans-Serif" font-size="10.00">RefreshStatus &#45; Refresh discovering cluster &#45; detect required input &#160;&#160;</text>
</g>
<!-- ready&#45;&gt;pending&#45;for&#45;input -->
<g id="edge4" class="edge transition">
<title>ready&#45;&gt;pending&#45;for&#45;input</title>
<path fill="none" stroke="black" d="M173.26,-85.44C179.07,-82.57 185.33,-80.02 191.5,-78.49 334.51,-43.07 376.05,-67.91 523,-78.49 532.42,-79.17 542.28,-80.2 552.02,-81.4"/>
<polygon fill="black" stroke="black" points="551.48,-84.86 561.85,-82.69 552.38,-77.92 551.48,-84.86"/>
<text text-anchor="start" x="246.62" y="-81.74" font-family="Helvetica,sans-Serif" font-size="10.00">RefreshStatus &#45; TODO: Name this transition &#160;&#160;</text>
</g>
<!-- ready&#45;&gt;preparing&#45;for&#45;installation -->
<g id="edge1" class="edge transition">
<title>ready&#45;&gt;preparing&#45;for&#45;installation</title>
<path fill="none" stroke="black" d="M154.74,-84.33C162.18,-70.45 174.58,-52.17 191.5,-43.49 297.43,10.83 437.88,3.09 529.77,-10.76"/>
<polygon fill="black" stroke="black" points="529.09,-14.2 539.51,-12.29 530.17,-7.28 529.09,-14.2"/>
<text text-anchor="start" x="253.75" y="-46.74" font-family="Helvetica,sans-Serif" font-size="10.00">PrepareForInstallation &#45; Start installation &#160;&#160;</text>
</g>
<!-- ready&#45;&gt;ready -->
<g id="edge6" class="edge transition">
<title>ready&#45;&gt;ready</title>
<path fill="none" stroke="black" d="M117.67,-111.86C95.28,-123.96 104.56,-138.37 145.5,-138.37 179.09,-138.37 191.36,-128.67 182.33,-118.51"/>
<polygon fill="black" stroke="black" points="184.67,-115.89 174.55,-112.76 180.51,-121.52 184.67,-115.89"/>
<text text-anchor="start" x="0" y="-141.62" font-family="Helvetica,sans-Serif" font-size="10.00">RefreshStatus &#45; Refresh discovering cluster &#45; detect ready &#160;&#160;</text>
</g>
</g>
</svg>
