<?xml version="1.0" encoding="UTF-8" standalone="no"?>
<!DOCTYPE svg PUBLIC "-//W3C//DTD SVG 1.1//EN"
 "http://www.w3.org/Graphics/SVG/1.1/DTD/svg11.dtd">
<!-- Generated by graphviz version 12.1.0 (20240811.2233)
 -->
<!-- Title: state transitions Pages: 1 -->
<svg width="655pt" height="238pt"
 viewBox="0.00 0.00 655.25 238.37" xmlns="http://www.w3.org/2000/svg" xmlns:xlink="http://www.w3.org/1999/xlink">
<g id="graph0" class="graph" transform="scale(1 1) rotate(0) translate(4 234.37)">
<title>state transitions</title>
<polygon fill="white" stroke="none" points="-4,4 -4,-234.37 651.25,-234.37 651.25,4 -4,4"/>
<!-- installing -->
<g id="node1" class="node state regular">
<title>installing</title>
<polygon fill="#ffffff" fill-opacity="0.003922" stroke="none" stroke-width="2" points="640.88,-230.37 566.38,-230.37 566.38,-194.12 640.88,-194.12 640.88,-230.37"/>
<text text-anchor="start" x="577.38" y="-207.97" font-family="Helvetica,sans-Serif" font-size="12.00">installing</text>
<path fill="none" stroke="black" stroke-width="2" d="M578.79,-195.12C578.79,-195.12 628.46,-195.12 628.46,-195.12 634.17,-195.12 639.88,-200.83 639.88,-206.54 639.88,-206.54 639.88,-217.96 639.88,-217.96 639.88,-223.67 634.17,-229.37 628.46,-229.37 628.46,-229.37 578.79,-229.37 578.79,-229.37 573.08,-229.37 567.38,-223.67 567.38,-217.96 567.38,-217.96 567.38,-206.54 567.38,-206.54 567.38,-200.83 573.08,-195.12 578.79,-195.12"/>
</g>
<!-- insufficient -->
<g id="node2" class="node state regular">
<title>insufficient</title>
<polygon fill="#ffffff" fill-opacity="0.003922" stroke="none" stroke-width="2" points="647.25,-167.37 560,-167.37 560,-131.12 647.25,-131.12 647.25,-167.37"/>
<text text-anchor="start" x="571" y="-144.97" font-family="Helvetica,sans-Serif" font-size="12.00">insufficient</text>
<path fill="none" stroke="black" stroke-width="2" d="M572.42,-132.12C572.42,-132.12 634.83,-132.12 634.83,-132.12 640.54,-132.12 646.25,-137.83 646.25,-143.54 646.25,-143.54 646.25,-154.96 646.25,-154.96 646.25,-160.67 640.54,-166.37 634.83,-166.37 634.83,-166.37 572.42,-166.37 572.42,-166.37 566.71,-166.37 561,-160.67 561,-154.96 561,-154.96 561,-143.54 561,-143.54 561,-137.83 566.71,-132.12 572.42,-132.12"/>
</g>
<!-- preparing&#45;for&#45;installation -->
<g id="node3" class="node state regular">
<title>preparing&#45;for&#45;installation</title>
<polygon fill="#ffffff" fill-opacity="0.003922" stroke="none" stroke-width="2" points="225.5,-140.37 56.5,-140.37 56.5,-104.12 225.5,-104.12 225.5,-140.37"/>
<text text-anchor="start" x="67.5" y="-117.97" font-family="Helvetica,sans-Serif" font-size="12.00">preparing&#45;for&#45;installation</text>
<path fill="none" stroke="black" stroke-width="2" d="M68.92,-105.12C68.92,-105.12 213.08,-105.12 213.08,-105.12 218.79,-105.12 224.5,-110.83 224.5,-116.54 224.5,-116.54 224.5,-127.96 224.5,-127.96 224.5,-133.67 218.79,-139.37 213.08,-139.37 213.08,-139.37 68.92,-139.37 68.92,-139.37 63.21,-139.37 57.5,-133.67 57.5,-127.96 57.5,-127.96 57.5,-116.54 57.5,-116.54 57.5,-110.83 63.21,-105.12 68.92,-105.12"/>
</g>
<!-- preparing&#45;for&#45;installation&#45;&gt;installing -->
<g id="edge3" class="edge transition">
<title>preparing&#45;for&#45;installation&#45;&gt;installing</title>
<path fill="none" stroke="black" d="M166.46,-140.26C186.19,-153.76 215.23,-171.38 243.5,-180.25 351.05,-213.99 485,-216.1 554.98,-214.38"/>
<polygon fill="black" stroke="black" points="555.06,-217.88 564.96,-214.09 554.86,-210.88 555.06,-217.88"/>
<text text-anchor="start" x="246.12" y="-218.05" font-family="Helvetica,sans-Serif" font-size="10.00">RefreshStatus &#45; Refresh preparing cluster &#45; done preparing &#160;&#160;</text>
</g>
<!-- preparing&#45;for&#45;installation&#45;&gt;insufficient -->
<g id="edge4" class="edge transition">
<title>preparing&#45;for&#45;installation&#45;&gt;insufficient</title>
<path fill="none" stroke="black" d="M189.05,-140.37C205.95,-146 225.33,-151.45 243.5,-154.25 350.77,-170.76 478.19,-162.51 548.77,-155.53"/>
<polygon fill="black" stroke="black" points="548.92,-159.04 558.51,-154.54 548.21,-152.07 548.92,-159.04"/>
<text text-anchor="start" x="255.5" y="-167.13" font-family="Helvetica,sans-Serif" font-size="10.00">RefreshStatus &#45; Refresh preparing cluster &#45; insufficient &#160;&#160;</text>
</g>
<!-- preparing&#45;for&#45;installation&#45;&gt;insufficient -->
<g id="edge7" class="edge transition">
<title>preparing&#45;for&#45;installation&#45;&gt;insufficient</title>
<path fill="none" stroke="black" d="M225.4,-121.72C306.52,-122.07 433.09,-124.94 542,-137.5 544.2,-137.75 546.43,-138.04 548.69,-138.36"/>
<polygon fill="black" stroke="black" points="548.11,-141.81 558.53,-139.91 549.2,-134.9 548.11,-141.81"/>
<text text-anchor="start" x="308" y="-140.75" font-family="Helvetica,sans-Serif" font-size="10.00">Reset Cluster &#45; Reset installation &#160;&#160;</text>
</g>
<!-- preparing&#45;for&#45;installation&#45;&gt;preparing&#45;for&#45;installation -->
<g id="edge6" class="edge transition">
<title>preparing&#45;for&#45;installation&#45;&gt;preparing&#45;for&#45;installation</title>
<path fill="none" stroke="black" d="M95.74,-140.09C88.05,-149.66 103.14,-158.37 141,-158.37 162.89,-158.37 177.16,-155.46 183.83,-151.16"/>
<polygon fill="black" stroke="black" points="187.21,-152.09 185.93,-141.57 180.37,-150.59 187.21,-152.09"/>
<text text-anchor="start" x="0" y="-161.62" font-family="Helvetica,sans-Serif" font-size="10.00">RefreshStatus &#45; Maintain preparing&#45;for&#45;installation state &#160;&#160;</text>
</g>
<!-- ready -->
<g id="node4" class="node state regular">
<title>ready</title>
<polygon fill="#ffffff" fill-opacity="0.003922" stroke="none" stroke-width="2" points="631.62,-86.37 575.62,-86.37 575.62,-50.12 631.62,-50.12 631.62,-86.37"/>
<text text-anchor="start" x="586.75" y="-63.97" font-family="Helvetica,sans-Serif" font-size="12.00">ready</text>
<path fill="none" stroke="black" stroke-width="2" d="M588.04,-51.12C588.04,-51.12 619.21,-51.12 619.21,-51.12 624.92,-51.12 630.62,-56.83 630.62,-62.54 630.62,-62.54 630.62,-73.96 630.62,-73.96 630.62,-79.67 624.92,-85.37 619.21,-85.37 619.21,-85.37 588.04,-85.37 588.04,-85.37 582.33,-85.37 576.62,-79.67 576.62,-73.96 576.62,-73.96 576.62,-62.54 576.62,-62.54 576.62,-56.83 582.33,-51.12 588.04,-51.12"/>
</g>
<!-- preparing&#45;for&#45;installation&#45;&gt;ready -->
<g id="edge1" class="edge transition">
<title>preparing&#45;for&#45;installation&#45;&gt;ready</title>
<path fill="none" stroke="black" d="M225.28,-107.92C231.44,-107.04 237.56,-106.22 243.5,-105.5 375.6,-89.48 410.47,-102.44 542,-82.25 549.37,-81.12 557.18,-79.58 564.65,-77.93"/>
<polygon fill="black" stroke="black" points="565.2,-81.4 574.16,-75.73 563.62,-74.58 565.2,-81.4"/>
<text text-anchor="start" x="243.5" y="-108.75" font-family="Helvetica,sans-Serif" font-size="10.00">Cancel Installation &#45; Cancel installation of preparing cluster &#160;&#160;</text>
</g>
<!-- preparing&#45;for&#45;installation&#45;&gt;ready -->
<g id="edge2" class="edge transition">
<title>preparing&#45;for&#45;installation&#45;&gt;ready</title>
<path fill="none" stroke="black" d="M165.91,-104.22C185.58,-90.58 214.78,-72.98 243.5,-65.5 357.34,-35.84 498.44,-51.39 564.79,-61.62"/>
<polygon fill="black" stroke="black" points="563.99,-65.04 574.42,-63.16 565.09,-58.13 563.99,-65.04"/>
<text text-anchor="start" x="246.88" y="-68.75" font-family="Helvetica,sans-Serif" font-size="10.00">RefreshStatus &#45; Refresh preparing cluster &#45; detect timeout &#160;&#160;</text>
</g>
<!-- preparing&#45;for&#45;installation&#45;&gt;ready -->
<g id="edge5" class="edge transition">
<title>preparing&#45;for&#45;installation&#45;&gt;ready</title>
<path fill="none" stroke="black" d="M155.04,-104.42C172.37,-82.4 205.3,-46.09 243.5,-31.5 367.44,15.83 414.23,4.2 542,-31.5 551.63,-34.19 561.25,-38.87 569.9,-44.01"/>
<polygon fill="black" stroke="black" points="567.96,-46.93 578.27,-49.35 571.72,-41.02 567.96,-46.93"/>
<text text-anchor="start" x="269" y="-34.75" font-family="Helvetica,sans-Serif" font-size="10.00">RefreshStatus &#45; Refresh preparing cluster &#45; failed &#160;&#160;</text>
</g>
</g>
</svg>
