<?xml version="1.0" encoding="UTF-8" standalone="no"?>
<!DOCTYPE svg PUBLIC "-//W3C//DTD SVG 1.1//EN"
 "http://www.w3.org/Graphics/SVG/1.1/DTD/svg11.dtd">
<!-- Generated by graphviz version 12.1.0 (20240811.2233)
 -->
<!-- Title: state transitions Pages: 1 -->
<svg width="676pt" height="142pt"
 viewBox="0.00 0.00 676.25 141.75" xmlns="http://www.w3.org/2000/svg" xmlns:xlink="http://www.w3.org/1999/xlink">
<g id="graph0" class="graph" transform="scale(1 1) rotate(0) translate(4 137.75)">
<title>state transitions</title>
<polygon fill="white" stroke="none" points="-4,4 -4,-137.75 672.25,-137.75 672.25,4 -4,4"/>
<!-- insufficient -->
<g id="node1" class="node state regular">
<title>insufficient</title>
<polygon fill="#ffffff" fill-opacity="0.003922" stroke="none" stroke-width="2" points="668.25,-99.25 581.75,-99.25 581.75,-63 668.25,-63 668.25,-99.25"/>
<text text-anchor="start" x="592.75" y="-76.85" font-family="Helvetica,sans-Serif" font-size="12.00">insufficient</text>
<path fill="none" stroke="black" stroke-width="2" d="M594.17,-64C594.17,-64 655.83,-64 655.83,-64 661.54,-64 667.25,-69.71 667.25,-75.42 667.25,-75.42 667.25,-86.83 667.25,-86.83 667.25,-92.54 661.54,-98.25 655.83,-98.25 655.83,-98.25 594.17,-98.25 594.17,-98.25 588.46,-98.25 582.75,-92.54 582.75,-86.83 582.75,-86.83 582.75,-75.42 582.75,-75.42 582.75,-69.71 588.46,-64 594.17,-64"/>
</g>
<!-- pending&#45;for&#45;input -->
<g id="node2" class="node state regular">
<title>pending&#45;for&#45;input</title>
<polygon fill="#ffffff" fill-opacity="0.003922" stroke="none" stroke-width="2" points="228.5,-72.25 103,-72.25 103,-36 228.5,-36 228.5,-72.25"/>
<text text-anchor="start" x="114" y="-49.85" font-family="Helvetica,sans-Serif" font-size="12.00">pending&#45;for&#45;input</text>
<path fill="none" stroke="black" stroke-width="2" d="M115.42,-37C115.42,-37 216.08,-37 216.08,-37 221.79,-37 227.5,-42.71 227.5,-48.42 227.5,-48.42 227.5,-59.83 227.5,-59.83 227.5,-65.54 221.79,-71.25 216.08,-71.25 216.08,-71.25 115.42,-71.25 115.42,-71.25 109.71,-71.25 104,-65.54 104,-59.83 104,-59.83 104,-48.42 104,-48.42 104,-42.71 109.71,-37 115.42,-37"/>
</g>
<!-- pending&#45;for&#45;input&#45;&gt;insufficient -->
<g id="edge2" class="edge transition">
<title>pending&#45;for&#45;input&#45;&gt;insufficient</title>
<path fill="none" stroke="black" d="M228.45,-65.83C234.54,-66.72 240.63,-67.51 246.5,-68.12 361.65,-80.16 497.53,-81.78 570.77,-81.62"/>
<polygon fill="black" stroke="black" points="570.47,-85.12 580.46,-81.59 570.45,-78.12 570.47,-85.12"/>
<text text-anchor="start" x="246.5" y="-84.88" font-family="Helvetica,sans-Serif" font-size="10.00">RefreshStatus &#45; Refresh discovering cluster &#45; detect insufficient &#160;&#160;</text>
</g>
<!-- pending&#45;for&#45;input&#45;&gt;insufficient -->
<g id="edge4" class="edge transition">
<title>pending&#45;for&#45;input&#45;&gt;insufficient</title>
<path fill="none" stroke="black" d="M228.27,-44.9C307.15,-35.05 447.63,-24.27 563.75,-51.38 570.61,-52.98 577.58,-55.48 584.24,-58.36"/>
<polygon fill="black" stroke="black" points="582.46,-61.4 593,-62.5 585.45,-55.07 582.46,-61.4"/>
<text text-anchor="start" x="294.5" y="-54.62" font-family="Helvetica,sans-Serif" font-size="10.00">RefreshStatus &#45; TODO: Name this transition &#160;&#160;</text>
</g>
<!-- pending&#45;for&#45;input&#45;&gt;pending&#45;for&#45;input -->
<g id="edge1" class="edge transition">
<title>pending&#45;for&#45;input&#45;&gt;pending&#45;for&#45;input</title>
<path fill="none" stroke="black" d="M144.23,-71.97C140.58,-81.53 147.75,-90.25 165.75,-90.25 175.87,-90.25 182.57,-87.49 185.85,-83.38"/>
<polygon fill="black" stroke="black" points="189.32,-83.83 187.08,-73.47 182.37,-82.96 189.32,-83.83"/>
<text text-anchor="start" x="0" y="-93.5" font-family="Helvetica,sans-Serif" font-size="10.00">RefreshStatus &#45; Refresh discovering cluster &#45; detect required input &#160;&#160;</text>
</g>
<!-- pending&#45;for&#45;input&#45;&gt;pending&#45;for&#45;input -->
<g id="edge3" class="edge transition">
<title>pending&#45;for&#45;input&#45;&gt;pending&#45;for&#45;input</title>
<path fill="none" stroke="black" d="M129.77,-72.14C110.51,-89.41 122.5,-108.25 165.75,-108.25 201.56,-108.25 215.94,-95.33 208.89,-81.08"/>
<polygon fill="black" stroke="black" points="211.66,-78.94 202.68,-73.33 206.2,-83.32 211.66,-78.94"/>
<text text-anchor="start" x="55.12" y="-111.5" font-family="Helvetica,sans-Serif" font-size="10.00">RefreshStatus &#45; TODO: Name this transition &#160;&#160;</text>
</g>
<!-- ready -->
<g id="node3" class="node state regular">
<title>ready</title>
<polygon fill="#ffffff" fill-opacity="0.003922" stroke="none" stroke-width="2" points="653,-36.25 597,-36.25 597,0 653,0 653,-36.25"/>
<text text-anchor="start" x="608.12" y="-13.85" font-family="Helvetica,sans-Serif" font-size="12.00">ready</text>
<path fill="none" stroke="black" stroke-width="2" d="M609.42,-1C609.42,-1 640.58,-1 640.58,-1 646.29,-1 652,-6.71 652,-12.42 652,-12.42 652,-23.83 652,-23.83 652,-29.54 646.29,-35.25 640.58,-35.25 640.58,-35.25 609.42,-35.25 609.42,-35.25 603.71,-35.25 598,-29.54 598,-23.83 598,-23.83 598,-12.42 598,-12.42 598,-6.71 603.71,-1 609.42,-1"/>
</g>
<!-- pending&#45;for&#45;input&#45;&gt;ready -->
<g id="edge5" class="edge transition">
<title>pending&#45;for&#45;input&#45;&gt;ready</title>
<path fill="none" stroke="black" d="M197.47,-36.18C211.85,-28.79 229.52,-21.1 246.5,-17.38 368.14,9.3 517.17,-4.03 585.93,-12.68"/>
<polygon fill="black" stroke="black" points="585.16,-16.11 595.53,-13.93 586.07,-9.17 585.16,-16.11"/>
<text text-anchor="start" x="259.62" y="-20.62" font-family="Helvetica,sans-Serif" font-size="10.00">RefreshStatus &#45; Refresh discovering cluster &#45; detect ready &#160;&#160;</text>
</g>
</g>
</svg>
