<?xml version="1.0" encoding="UTF-8" standalone="no"?>
<!DOCTYPE svg PUBLIC "-//W3C//DTD SVG 1.1//EN"
 "http://www.w3.org/Graphics/SVG/1.1/DTD/svg11.dtd">
<!-- Generated by graphviz version 12.1.0 (20240811.2233)
 -->
<!-- Title: state transitions Pages: 1 -->
<svg width="703pt" height="142pt"
 viewBox="0.00 0.00 702.88 141.79" xmlns="http://www.w3.org/2000/svg" xmlns:xlink="http://www.w3.org/1999/xlink">
<g id="graph0" class="graph" transform="scale(1 1) rotate(0) translate(4 137.79)">
<title>state transitions</title>
<polygon fill="white" stroke="none" points="-4,4 -4,-137.79 698.88,-137.79 698.88,4 -4,4"/>
<!-- insufficient -->
<g id="node1" class="node state regular">
<title>insufficient</title>
<polygon fill="#ffffff" fill-opacity="0.003922" stroke="none" stroke-width="2" points="202.62,-72.29 115.38,-72.29 115.38,-36.04 202.62,-36.04 202.62,-72.29"/>
<text text-anchor="start" x="126.38" y="-49.89" font-family="Helvetica,sans-Serif" font-size="12.00">insufficient</text>
<path fill="none" stroke="black" stroke-width="2" d="M127.79,-37.04C127.79,-37.04 190.21,-37.04 190.21,-37.04 195.92,-37.04 201.62,-42.74 201.62,-48.45 201.62,-48.45 201.62,-59.87 201.62,-59.87 201.62,-65.58 195.92,-71.29 190.21,-71.29 190.21,-71.29 127.79,-71.29 127.79,-71.29 122.08,-71.29 116.38,-65.58 116.38,-59.87 116.38,-59.87 116.38,-48.45 116.38,-48.45 116.38,-42.74 122.08,-37.04 127.79,-37.04"/>
</g>
<!-- insufficient&#45;&gt;insufficient -->
<g id="edge2" class="edge transition">
<title>insufficient&#45;&gt;insufficient</title>
<path fill="none" stroke="black" d="M138.56,-72C135.09,-81.57 141.9,-90.29 159,-90.29 168.62,-90.29 174.98,-87.53 178.09,-83.41"/>
<polygon fill="black" stroke="black" points="181.56,-83.85 179.26,-73.51 174.61,-83.03 181.56,-83.85"/>
<text text-anchor="start" x="0" y="-93.54" font-family="Helvetica,sans-Serif" font-size="10.00">RefreshStatus &#45; Refresh discovering cluster &#45; detect insufficient &#160;&#160;</text>
</g>
<!-- insufficient&#45;&gt;insufficient -->
<g id="edge4" class="edge transition">
<title>insufficient&#45;&gt;insufficient</title>
<path fill="none" stroke="black" d="M124.82,-72.18C106.53,-89.44 117.92,-108.29 159,-108.29 193.02,-108.29 206.68,-95.36 199.98,-81.12"/>
<polygon fill="black" stroke="black" points="202.94,-79.22 194.1,-73.38 197.37,-83.46 202.94,-79.22"/>
<text text-anchor="start" x="48.38" y="-111.54" font-family="Helvetica,sans-Serif" font-size="10.00">RefreshStatus &#45; TODO: Name this transition &#160;&#160;</text>
</g>
<!-- pending&#45;for&#45;input -->
<g id="node2" class="node state regular">
<title>pending&#45;for&#45;input</title>
<polygon fill="#ffffff" fill-opacity="0.003922" stroke="none" stroke-width="2" points="694.88,-99.29 570.12,-99.29 570.12,-63.04 694.88,-63.04 694.88,-99.29"/>
<text text-anchor="start" x="581.12" y="-76.89" font-family="Helvetica,sans-Serif" font-size="12.00">pending&#45;for&#45;input</text>
<path fill="none" stroke="black" stroke-width="2" d="M582.54,-64.04C582.54,-64.04 682.46,-64.04 682.46,-64.04 688.17,-64.04 693.88,-69.74 693.88,-75.45 693.88,-75.45 693.88,-86.87 693.88,-86.87 693.88,-92.58 688.17,-98.29 682.46,-98.29 682.46,-98.29 582.54,-98.29 582.54,-98.29 576.83,-98.29 571.12,-92.58 571.12,-86.87 571.12,-86.87 571.12,-75.45 571.12,-75.45 571.12,-69.74 576.83,-64.04 582.54,-64.04"/>
</g>
<!-- insufficient&#45;&gt;pending&#45;for&#45;input -->
<g id="edge1" class="edge transition">
<title>insufficient&#45;&gt;pending&#45;for&#45;input</title>
<path fill="none" stroke="black" d="M202.54,-65.08C208.58,-66.31 214.73,-67.39 220.62,-68.16 338.29,-83.46 476.41,-84.37 558.8,-83.13"/>
<polygon fill="black" stroke="black" points="558.84,-86.63 568.78,-82.96 558.72,-79.63 558.84,-86.63"/>
<text text-anchor="start" x="220.62" y="-86.77" font-family="Helvetica,sans-Serif" font-size="10.00">RefreshStatus &#45; Refresh discovering cluster &#45; detect required input &#160;&#160;</text>
</g>
<!-- insufficient&#45;&gt;pending&#45;for&#45;input -->
<g id="edge3" class="edge transition">
<title>insufficient&#45;&gt;pending&#45;for&#45;input</title>
<path fill="none" stroke="black" d="M202.51,-48.75C274.96,-40.67 426.69,-28.68 552.12,-51.41 561.8,-53.16 571.84,-56.03 581.39,-59.31"/>
<polygon fill="black" stroke="black" points="579.9,-62.49 590.49,-62.63 582.3,-55.91 579.9,-62.49"/>
<text text-anchor="start" x="275.75" y="-54.66" font-family="Helvetica,sans-Serif" font-size="10.00">RefreshStatus &#45; TODO: Name this transition &#160;&#160;</text>
</g>
<!-- ready -->
<g id="node3" class="node state regular">
<title>ready</title>
<polygon fill="#ffffff" fill-opacity="0.003922" stroke="none" stroke-width="2" points="660.5,-36.29 604.5,-36.29 604.5,-0.04 660.5,-0.04 660.5,-36.29"/>
<text text-anchor="start" x="615.62" y="-13.89" font-family="Helvetica,sans-Serif" font-size="12.00">ready</text>
<path fill="none" stroke="black" stroke-width="2" d="M616.92,-1.04C616.92,-1.04 648.08,-1.04 648.08,-1.04 653.79,-1.04 659.5,-6.74 659.5,-12.45 659.5,-12.45 659.5,-23.87 659.5,-23.87 659.5,-29.58 653.79,-35.29 648.08,-35.29 648.08,-35.29 616.92,-35.29 616.92,-35.29 611.21,-35.29 605.5,-29.58 605.5,-23.87 605.5,-23.87 605.5,-12.45 605.5,-12.45 605.5,-6.74 611.21,-1.04 616.92,-1.04"/>
</g>
<!-- insufficient&#45;&gt;ready -->
<g id="edge5" class="edge transition">
<title>insufficient&#45;&gt;ready</title>
<path fill="none" stroke="black" d="M186.59,-36.16C196.78,-30.26 208.81,-24.45 220.62,-21.41 354.13,12.91 520.2,-2.73 593.6,-12.46"/>
<polygon fill="black" stroke="black" points="593.09,-15.93 603.48,-13.82 594.04,-8.99 593.09,-15.93"/>
<text text-anchor="start" x="240.88" y="-24.66" font-family="Helvetica,sans-Serif" font-size="10.00">RefreshStatus &#45; Refresh discovering cluster &#45; detect ready &#160;&#160;</text>
</g>
</g>
</svg>
