<?xml version="1.0" encoding="UTF-8" standalone="no"?>
<!DOCTYPE svg PUBLIC "-//W3C//DTD SVG 1.1//EN"
 "http://www.w3.org/Graphics/SVG/1.1/DTD/svg11.dtd">
<!-- Generated by graphviz version 5.0.0 (0)
 -->
<!-- Title: state transitions Pages: 1 -->
<svg width="635pt" height="136pt"
 viewBox="0.00 0.00 635.00 136.00" xmlns="http://www.w3.org/2000/svg" xmlns:xlink="http://www.w3.org/1999/xlink">
<g id="graph0" class="graph" transform="scale(1 1) rotate(0) translate(4 132)">
<title>state transitions</title>
<polygon fill="white" stroke="transparent" points="-4,4 -4,-132 631,-132 631,4 -4,4"/>
<!-- insufficient -->
<g id="node1" class="node state regular">
<title>insufficient</title>
<polygon fill="#ffffff" fill-opacity="0.003922" stroke="transparent" stroke-width="2" points="182,-70 102,-70 102,-34 182,-34 182,-70"/>
<text text-anchor="start" x="113" y="-48.4" font-family="Helvetica,sans-Serif" font-size="12.00">insufficient</text>
<path fill="none" stroke="black" stroke-width="2" d="M114,-35.5C114,-35.5 170,-35.5 170,-35.5 175.5,-35.5 181,-41 181,-46.5 181,-46.5 181,-57.5 181,-57.5 181,-63 175.5,-68.5 170,-68.5 170,-68.5 114,-68.5 114,-68.5 108.5,-68.5 103,-63 103,-57.5 103,-57.5 103,-46.5 103,-46.5 103,-41 108.5,-35.5 114,-35.5"/>
</g>
<!-- insufficient&#45;&gt;insufficient -->
<g id="edge2" class="edge transition">
<title>insufficient&#45;&gt;insufficient</title>
<path fill="none" stroke="black" d="M123.37,-70.15C120.5,-79.54 126.71,-88 142,-88 151.32,-88 157.26,-84.86 159.84,-80.28"/>
<polygon fill="black" stroke="black" points="163.34,-80.4 160.63,-70.15 156.36,-79.85 163.34,-80.4"/>
<text text-anchor="start" x="0" y="-91" font-family="Helvetica,sans-Serif" font-size="10.00">RefreshStatus &#45; Refresh discovering cluster &#45; detect insufficient &#160;&#160;</text>
</g>
<!-- insufficient&#45;&gt;insufficient -->
<g id="edge4" class="edge transition">
<title>insufficient&#45;&gt;insufficient</title>
<path fill="none" stroke="black" d="M110.77,-70.26C94.57,-87.4 104.98,-106 142,-106 172.94,-106 185.29,-93 179.05,-78.72"/>
<polygon fill="black" stroke="black" points="181.78,-76.51 173.23,-70.26 176.01,-80.48 181.78,-76.51"/>
<text text-anchor="start" x="40.5" y="-109" font-family="Helvetica,sans-Serif" font-size="10.00">RefreshStatus &#45; TODO: Name this transition &#160;&#160;</text>
</g>
<!-- pending&#45;for&#45;input -->
<g id="node2" class="node state regular">
<title>pending&#45;for&#45;input</title>
<polygon fill="#ffffff" fill-opacity="0.003922" stroke="transparent" stroke-width="2" points="627,-97 514,-97 514,-61 627,-61 627,-97"/>
<text text-anchor="start" x="525.5" y="-75.4" font-family="Helvetica,sans-Serif" font-size="12.00">pending&#45;for&#45;input</text>
<path fill="none" stroke="black" stroke-width="2" d="M526,-62.5C526,-62.5 615,-62.5 615,-62.5 620.5,-62.5 626,-68 626,-73.5 626,-73.5 626,-84.5 626,-84.5 626,-90 620.5,-95.5 615,-95.5 615,-95.5 526,-95.5 526,-95.5 520.5,-95.5 515,-90 515,-84.5 515,-84.5 515,-73.5 515,-73.5 515,-68 520.5,-62.5 526,-62.5"/>
</g>
<!-- insufficient&#45;&gt;pending&#45;for&#45;input -->
<g id="edge1" class="edge transition">
<title>insufficient&#45;&gt;pending&#45;for&#45;input</title>
<path fill="none" stroke="black" d="M182.1,-61.13C188.07,-62.26 194.18,-63.27 200,-64 305.72,-77.18 429.64,-79.58 503.74,-79.63"/>
<polygon fill="black" stroke="black" points="503.86,-83.13 513.86,-79.62 503.86,-76.13 503.86,-83.13"/>
<text text-anchor="start" x="200" y="-82" font-family="Helvetica,sans-Serif" font-size="10.00">RefreshStatus &#45; Refresh discovering cluster &#45; detect required input &#160;&#160;</text>
</g>
<!-- insufficient&#45;&gt;pending&#45;for&#45;input -->
<g id="edge3" class="edge transition">
<title>insufficient&#45;&gt;pending&#45;for&#45;input</title>
<path fill="none" stroke="black" d="M182.07,-47.24C247.62,-40.3 383.59,-30.31 496,-51 504.02,-52.48 512.3,-54.79 520.28,-57.46"/>
<polygon fill="black" stroke="black" points="519.23,-60.81 529.82,-60.88 521.59,-54.21 519.23,-60.81"/>
<text text-anchor="start" x="246.5" y="-54" font-family="Helvetica,sans-Serif" font-size="10.00">RefreshStatus &#45; TODO: Name this transition &#160;&#160;</text>
</g>
<!-- ready -->
<g id="node3" class="node state regular">
<title>ready</title>
<polygon fill="#ffffff" fill-opacity="0.003922" stroke="transparent" stroke-width="2" points="598.5,-36 542.5,-36 542.5,0 598.5,0 598.5,-36"/>
<text text-anchor="start" x="555" y="-14.4" font-family="Helvetica,sans-Serif" font-size="12.00">ready</text>
<path fill="none" stroke="black" stroke-width="2" d="M554.5,-1.5C554.5,-1.5 586.5,-1.5 586.5,-1.5 592,-1.5 597.5,-7 597.5,-12.5 597.5,-12.5 597.5,-23.5 597.5,-23.5 597.5,-29 592,-34.5 586.5,-34.5 586.5,-34.5 554.5,-34.5 554.5,-34.5 549,-34.5 543.5,-29 543.5,-23.5 543.5,-23.5 543.5,-12.5 543.5,-12.5 543.5,-7 549,-1.5 554.5,-1.5"/>
</g>
<!-- insufficient&#45;&gt;ready -->
<g id="edge5" class="edge transition">
<title>insufficient&#45;&gt;ready</title>
<path fill="none" stroke="black" d="M172.17,-33.95C180.81,-29.5 190.51,-25.34 200,-23 318.24,6.2 464.32,-5.16 531.92,-12.98"/>
<polygon fill="black" stroke="black" points="531.73,-16.48 542.07,-14.2 532.56,-9.53 531.73,-16.48"/>
<text text-anchor="start" x="217" y="-26" font-family="Helvetica,sans-Serif" font-size="10.00">RefreshStatus &#45; Refresh discovering cluster &#45; detect ready &#160;&#160;</text>
</g>
</g>
</svg>
