<?xml version="1.0" encoding="UTF-8" standalone="no"?>
<!DOCTYPE svg PUBLIC "-//W3C//DTD SVG 1.1//EN"
 "http://www.w3.org/Graphics/SVG/1.1/DTD/svg11.dtd">
<!-- Generated by graphviz version 12.1.0 (20240811.2233)
 -->
<!-- Title: state transitions Pages: 1 -->
<svg width="584pt" height="133pt"
 viewBox="0.00 0.00 584.12 132.75" xmlns="http://www.w3.org/2000/svg" xmlns:xlink="http://www.w3.org/1999/xlink">
<g id="graph0" class="graph" transform="scale(1 1) rotate(0) translate(4 128.75)">
<title>state transitions</title>
<polygon fill="white" stroke="none" points="-4,4 -4,-128.75 580.12,-128.75 580.12,4 -4,4"/>
<!-- cancelled -->
<g id="node1" class="node state regular">
<title>cancelled</title>
<polygon fill="#ffffff" fill-opacity="0.003922" stroke="none" stroke-width="2" points="572,-90.25 493,-90.25 493,-54 572,-54 572,-90.25"/>
<text text-anchor="start" x="504" y="-67.85" font-family="Helvetica,sans-Serif" font-size="12.00">cancelled</text>
<path fill="none" stroke="black" stroke-width="2" d="M505.42,-55C505.42,-55 559.58,-55 559.58,-55 565.29,-55 571,-60.71 571,-66.42 571,-66.42 571,-77.83 571,-77.83 571,-83.54 565.29,-89.25 559.58,-89.25 559.58,-89.25 505.42,-89.25 505.42,-89.25 499.71,-89.25 494,-83.54 494,-77.83 494,-77.83 494,-66.42 494,-66.42 494,-60.71 499.71,-55 505.42,-55"/>
</g>
<!-- error -->
<g id="node2" class="node state regular">
<title>error</title>
<polygon fill="#ffffff" fill-opacity="0.003922" stroke="none" stroke-width="2" points="155.88,-63.25 99.88,-63.25 99.88,-27 155.88,-27 155.88,-63.25"/>
<text text-anchor="start" x="113.25" y="-40.85" font-family="Helvetica,sans-Serif" font-size="12.00">error</text>
<path fill="none" stroke="black" stroke-width="2" d="M112.29,-28C112.29,-28 143.46,-28 143.46,-28 149.17,-28 154.88,-33.71 154.88,-39.42 154.88,-39.42 154.88,-50.83 154.88,-50.83 154.88,-56.54 149.17,-62.25 143.46,-62.25 143.46,-62.25 112.29,-62.25 112.29,-62.25 106.58,-62.25 100.88,-56.54 100.88,-50.83 100.88,-50.83 100.88,-39.42 100.88,-39.42 100.88,-33.71 106.58,-28 112.29,-28"/>
</g>
<!-- error&#45;&gt;cancelled -->
<g id="edge1" class="edge transition">
<title>error&#45;&gt;cancelled</title>
<path fill="none" stroke="black" d="M155.6,-46.92C222.1,-51.38 395.79,-63.02 481.78,-68.79"/>
<polygon fill="black" stroke="black" points="481.35,-72.27 491.56,-69.45 481.81,-65.29 481.35,-72.27"/>
<text text-anchor="start" x="173.88" y="-70.85" font-family="Helvetica,sans-Serif" font-size="10.00">Cancel Installation &#45; Cancel installation of installing cluster &#160;&#160;</text>
</g>
<!-- error&#45;&gt;error -->
<g id="edge2" class="edge transition">
<title>error&#45;&gt;error</title>
<path fill="none" stroke="black" d="M110.39,-62.97C107.42,-72.53 113.25,-81.25 127.88,-81.25 136.1,-81.25 141.54,-78.49 144.2,-74.38"/>
<polygon fill="black" stroke="black" points="147.68,-74.78 145.2,-64.47 140.72,-74.07 147.68,-74.78"/>
<text text-anchor="start" x="0" y="-84.5" font-family="Helvetica,sans-Serif" font-size="10.00">RefreshStatus &#45; Log collection timeout during error &#160;&#160;</text>
</g>
<!-- error&#45;&gt;error -->
<g id="edge3" class="edge transition">
<title>error&#45;&gt;error</title>
<path fill="none" stroke="black" d="M99.96,-61.75C82.48,-79.37 91.79,-99.25 127.88,-99.25 157.76,-99.25 169.28,-85.62 162.43,-70.92"/>
<polygon fill="black" stroke="black" points="165.37,-69.02 156.67,-62.98 159.7,-73.13 165.37,-69.02"/>
<text text-anchor="start" x="36" y="-102.5" font-family="Helvetica,sans-Serif" font-size="10.00">RefreshStatus &#45; Maintain error state &#160;&#160;</text>
</g>
<!-- insufficient -->
<g id="node3" class="node state regular">
<title>insufficient</title>
<polygon fill="#ffffff" fill-opacity="0.003922" stroke="none" stroke-width="2" points="576.12,-36.25 488.88,-36.25 488.88,0 576.12,0 576.12,-36.25"/>
<text text-anchor="start" x="499.88" y="-13.85" font-family="Helvetica,sans-Serif" font-size="12.00">insufficient</text>
<path fill="none" stroke="black" stroke-width="2" d="M501.29,-1C501.29,-1 563.71,-1 563.71,-1 569.42,-1 575.12,-6.71 575.12,-12.42 575.12,-12.42 575.12,-23.83 575.12,-23.83 575.12,-29.54 569.42,-35.25 563.71,-35.25 563.71,-35.25 501.29,-35.25 501.29,-35.25 495.58,-35.25 489.88,-29.54 489.88,-23.83 489.88,-23.83 489.88,-12.42 489.88,-12.42 489.88,-6.71 495.58,-1 501.29,-1"/>
</g>
<!-- error&#45;&gt;insufficient -->
<g id="edge4" class="edge transition">
<title>error&#45;&gt;insufficient</title>
<path fill="none" stroke="black" d="M155.73,-35.68C161.64,-33.95 167.91,-32.38 173.88,-31.38 280.52,-13.42 407.47,-13.76 477.82,-15.81"/>
<polygon fill="black" stroke="black" points="477.4,-19.3 487.51,-16.12 477.63,-12.3 477.4,-19.3"/>
<text text-anchor="start" x="237.62" y="-34.62" font-family="Helvetica,sans-Serif" font-size="10.00">Reset Cluster &#45; Reset installation &#160;&#160;</text>
</g>
</g>
</svg>
