<?xml version="1.0" encoding="UTF-8" standalone="no"?>
<!DOCTYPE svg PUBLIC "-//W3C//DTD SVG 1.1//EN"
 "http://www.w3.org/Graphics/SVG/1.1/DTD/svg11.dtd">
<!-- Generated by graphviz version 5.0.0 (0)
 -->
<!-- Title: state transitions Pages: 1 -->
<svg width="579pt" height="260pt"
 viewBox="0.00 0.00 579.00 260.00" xmlns="http://www.w3.org/2000/svg" xmlns:xlink="http://www.w3.org/1999/xlink">
<g id="graph0" class="graph" transform="scale(1 1) rotate(0) translate(4 256)">
<title>state transitions</title>
<polygon fill="white" stroke="transparent" points="-4,4 -4,-256 575,-256 575,4 -4,4"/>
<!-- cancelled -->
<g id="node1" class="node state regular">
<title>cancelled</title>
<polygon fill="#ffffff" fill-opacity="0.003922" stroke="transparent" stroke-width="2" points="568,-252 494,-252 494,-216 568,-216 568,-252"/>
<text text-anchor="start" x="505" y="-230.4" font-family="Helvetica,sans-Serif" font-size="12.00">cancelled</text>
<path fill="none" stroke="black" stroke-width="2" d="M506,-217.5C506,-217.5 556,-217.5 556,-217.5 561.5,-217.5 567,-223 567,-228.5 567,-228.5 567,-239.5 567,-239.5 567,-245 561.5,-250.5 556,-250.5 556,-250.5 506,-250.5 506,-250.5 500.5,-250.5 495,-245 495,-239.5 495,-239.5 495,-228.5 495,-228.5 495,-223 500.5,-217.5 506,-217.5"/>
</g>
<!-- error -->
<g id="node2" class="node state regular">
<title>error</title>
<polygon fill="#ffffff" fill-opacity="0.003922" stroke="transparent" stroke-width="2" points="559,-198 503,-198 503,-162 559,-162 559,-198"/>
<text text-anchor="start" x="518.5" y="-176.4" font-family="Helvetica,sans-Serif" font-size="12.00">error</text>
<path fill="none" stroke="black" stroke-width="2" d="M515,-163.5C515,-163.5 547,-163.5 547,-163.5 552.5,-163.5 558,-169 558,-174.5 558,-174.5 558,-185.5 558,-185.5 558,-191 552.5,-196.5 547,-196.5 547,-196.5 515,-196.5 515,-196.5 509.5,-196.5 504,-191 504,-185.5 504,-185.5 504,-174.5 504,-174.5 504,-169 509.5,-163.5 515,-163.5"/>
</g>
<!-- finalizing -->
<g id="node3" class="node state regular">
<title>finalizing</title>
<polygon fill="#ffffff" fill-opacity="0.003922" stroke="transparent" stroke-width="2" points="566,-144 496,-144 496,-108 566,-108 566,-144"/>
<text text-anchor="start" x="507" y="-122.4" font-family="Helvetica,sans-Serif" font-size="12.00">finalizing</text>
<path fill="none" stroke="black" stroke-width="2" d="M508,-109.5C508,-109.5 554,-109.5 554,-109.5 559.5,-109.5 565,-115 565,-120.5 565,-120.5 565,-131.5 565,-131.5 565,-137 559.5,-142.5 554,-142.5 554,-142.5 508,-142.5 508,-142.5 502.5,-142.5 497,-137 497,-131.5 497,-131.5 497,-120.5 497,-120.5 497,-115 502.5,-109.5 508,-109.5"/>
</g>
<!-- installing -->
<g id="node4" class="node state regular">
<title>installing</title>
<polygon fill="#ffffff" fill-opacity="0.003922" stroke="transparent" stroke-width="2" points="566.5,-90 495.5,-90 495.5,-54 566.5,-54 566.5,-90"/>
<text text-anchor="start" x="507" y="-68.4" font-family="Helvetica,sans-Serif" font-size="12.00">installing</text>
<path fill="none" stroke="black" stroke-width="2" d="M507.5,-55.5C507.5,-55.5 554.5,-55.5 554.5,-55.5 560,-55.5 565.5,-61 565.5,-66.5 565.5,-66.5 565.5,-77.5 565.5,-77.5 565.5,-83 560,-88.5 554.5,-88.5 554.5,-88.5 507.5,-88.5 507.5,-88.5 502,-88.5 496.5,-83 496.5,-77.5 496.5,-77.5 496.5,-66.5 496.5,-66.5 496.5,-61 502,-55.5 507.5,-55.5"/>
</g>
<!-- installing&#45;pending&#45;user&#45;action -->
<g id="node5" class="node state regular">
<title>installing&#45;pending&#45;user&#45;action</title>
<polygon fill="#ffffff" fill-opacity="0.003922" stroke="transparent" stroke-width="2" points="192,-161 11,-161 11,-125 192,-125 192,-161"/>
<text text-anchor="start" x="22.5" y="-139.4" font-family="Helvetica,sans-Serif" font-size="12.00">installing&#45;pending&#45;user&#45;action</text>
<path fill="none" stroke="black" stroke-width="2" d="M23,-126.5C23,-126.5 180,-126.5 180,-126.5 185.5,-126.5 191,-132 191,-137.5 191,-137.5 191,-148.5 191,-148.5 191,-154 185.5,-159.5 180,-159.5 180,-159.5 23,-159.5 23,-159.5 17.5,-159.5 12,-154 12,-148.5 12,-148.5 12,-137.5 12,-137.5 12,-132 17.5,-126.5 23,-126.5"/>
</g>
<!-- installing&#45;pending&#45;user&#45;action&#45;&gt;cancelled -->
<g id="edge1" class="edge transition">
<title>installing&#45;pending&#45;user&#45;action&#45;&gt;cancelled</title>
<path fill="none" stroke="black" d="M130.95,-161.17C151.96,-173.66 181.7,-189.48 210,-198 304.32,-226.4 420.39,-232.76 483.59,-233.97"/>
<polygon fill="black" stroke="black" points="483.59,-237.47 493.64,-234.12 483.7,-230.47 483.59,-237.47"/>
<text text-anchor="start" x="210" y="-236" font-family="Helvetica,sans-Serif" font-size="10.00">Cancel Installation &#45; Cancel installation of installing cluster &#160;&#160;</text>
</g>
<!-- installing&#45;pending&#45;user&#45;action&#45;&gt;error -->
<g id="edge2" class="edge transition">
<title>installing&#45;pending&#45;user&#45;action&#45;&gt;error</title>
<path fill="none" stroke="black" d="M159.43,-161.07C175.61,-165.46 193.36,-169.58 210,-172 311.43,-186.73 432.79,-184.39 492.73,-181.93"/>
<polygon fill="black" stroke="black" points="493.01,-185.42 502.85,-181.49 492.7,-178.43 493.01,-185.42"/>
<text text-anchor="start" x="240" y="-186" font-family="Helvetica,sans-Serif" font-size="10.00">RefreshStatus &#45; TODO: Name this transition &#160;&#160;</text>
</g>
<!-- installing&#45;pending&#45;user&#45;action&#45;&gt;error -->
<g id="edge4" class="edge transition">
<title>installing&#45;pending&#45;user&#45;action&#45;&gt;error</title>
<path fill="none" stroke="black" d="M192.14,-139.18C267.76,-137.78 378.47,-140.03 473,-159 479.74,-160.35 486.74,-162.38 493.43,-164.64"/>
<polygon fill="black" stroke="black" points="492.36,-167.98 502.96,-168.09 494.74,-161.4 492.36,-167.98"/>
<text text-anchor="start" x="232" y="-162" font-family="Helvetica,sans-Serif" font-size="10.00">RefreshStatus &#45; Timed out while waiting for user &#160;&#160;</text>
</g>
<!-- installing&#45;pending&#45;user&#45;action&#45;&gt;finalizing -->
<g id="edge6" class="edge transition">
<title>installing&#45;pending&#45;user&#45;action&#45;&gt;finalizing</title>
<path fill="none" stroke="black" d="M192.14,-128.67C198.17,-128.01 204.17,-127.44 210,-127 308.19,-119.58 423.81,-121.95 485.66,-124.12"/>
<polygon fill="black" stroke="black" points="485.72,-127.62 495.84,-124.49 485.97,-120.63 485.72,-127.62"/>
<text text-anchor="start" x="240" y="-130" font-family="Helvetica,sans-Serif" font-size="10.00">RefreshStatus &#45; TODO: Name this transition &#160;&#160;</text>
</g>
<!-- installing&#45;pending&#45;user&#45;action&#45;&gt;installing -->
<g id="edge5" class="edge transition">
<title>installing&#45;pending&#45;user&#45;action&#45;&gt;installing</title>
<path fill="none" stroke="black" d="M147.62,-124.93C166.6,-118 189.09,-110.65 210,-106 306.67,-84.52 422.87,-76.48 485.23,-73.57"/>
<polygon fill="black" stroke="black" points="485.66,-77.06 495.49,-73.12 485.35,-70.07 485.66,-77.06"/>
<text text-anchor="start" x="240" y="-109" font-family="Helvetica,sans-Serif" font-size="10.00">RefreshStatus &#45; TODO: Name this transition &#160;&#160;</text>
</g>
<!-- installing&#45;pending&#45;user&#45;action&#45;&gt;installing&#45;pending&#45;user&#45;action -->
<g id="edge3" class="edge transition">
<title>installing&#45;pending&#45;user&#45;action&#45;&gt;installing&#45;pending&#45;user&#45;action</title>
<path fill="none" stroke="black" d="M58.08,-161.15C51.4,-170.54 65.88,-179 101.5,-179 123.21,-179 137.06,-175.86 143.06,-171.28"/>
<polygon fill="black" stroke="black" points="146.56,-171.62 144.92,-161.15 139.67,-170.36 146.56,-171.62"/>
<text text-anchor="start" x="0" y="-182" font-family="Helvetica,sans-Serif" font-size="10.00">RefreshStatus &#45; TODO: Name this transition &#160;&#160;</text>
</g>
<!-- insufficient -->
<g id="node6" class="node state regular">
<title>insufficient</title>
<polygon fill="#ffffff" fill-opacity="0.003922" stroke="transparent" stroke-width="2" points="571,-36 491,-36 491,0 571,0 571,-36"/>
<text text-anchor="start" x="502" y="-14.4" font-family="Helvetica,sans-Serif" font-size="12.00">insufficient</text>
<path fill="none" stroke="black" stroke-width="2" d="M503,-1.5C503,-1.5 559,-1.5 559,-1.5 564.5,-1.5 570,-7 570,-12.5 570,-12.5 570,-23.5 570,-23.5 570,-29 564.5,-34.5 559,-34.5 559,-34.5 503,-34.5 503,-34.5 497.5,-34.5 492,-29 492,-23.5 492,-23.5 492,-12.5 492,-12.5 492,-7 497.5,-1.5 503,-1.5"/>
</g>
<!-- installing&#45;pending&#45;user&#45;action&#45;&gt;insufficient -->
<g id="edge7" class="edge transition">
<title>installing&#45;pending&#45;user&#45;action&#45;&gt;insufficient</title>
<path fill="none" stroke="black" d="M119.56,-124.77C139.29,-104.97 173.72,-74.14 210,-59 300.09,-21.4 415.84,-15.99 480.55,-16.37"/>
<polygon fill="black" stroke="black" points="480.83,-19.88 490.87,-16.49 480.91,-12.88 480.83,-19.88"/>
<text text-anchor="start" x="264.5" y="-62" font-family="Helvetica,sans-Serif" font-size="10.00">Reset Cluster &#45; Reset installation &#160;&#160;</text>
</g>
</g>
</svg>
