<?xml version="1.0" encoding="UTF-8" standalone="no"?>
<!DOCTYPE svg PUBLIC "-//W3C//DTD SVG 1.1//EN"
 "http://www.w3.org/Graphics/SVG/1.1/DTD/svg11.dtd">
<!-- Generated by graphviz version 5.0.0 (0)
 -->
<!-- Title: state transitions Pages: 1 -->
<svg width="600pt" height="260pt"
 viewBox="0.00 0.00 600.00 260.00" xmlns="http://www.w3.org/2000/svg" xmlns:xlink="http://www.w3.org/1999/xlink">
<g id="graph0" class="graph" transform="scale(1 1) rotate(0) translate(4 256)">
<title>state transitions</title>
<polygon fill="white" stroke="transparent" points="-4,4 -4,-256 596,-256 596,4 -4,4"/>
<!-- cancelled -->
<g id="node1" class="node state regular">
<title>cancelled</title>
<polygon fill="#ffffff" fill-opacity="0.003922" stroke="transparent" stroke-width="2" points="538.5,-252 464.5,-252 464.5,-216 538.5,-216 538.5,-252"/>
<text text-anchor="start" x="475.5" y="-230.4" font-family="Helvetica,sans-Serif" font-size="12.00">cancelled</text>
<path fill="none" stroke="black" stroke-width="2" d="M476.5,-217.5C476.5,-217.5 526.5,-217.5 526.5,-217.5 532,-217.5 537.5,-223 537.5,-228.5 537.5,-228.5 537.5,-239.5 537.5,-239.5 537.5,-245 532,-250.5 526.5,-250.5 526.5,-250.5 476.5,-250.5 476.5,-250.5 471,-250.5 465.5,-245 465.5,-239.5 465.5,-239.5 465.5,-228.5 465.5,-228.5 465.5,-223 471,-217.5 476.5,-217.5"/>
</g>
<!-- error -->
<g id="node2" class="node state regular">
<title>error</title>
<polygon fill="#ffffff" fill-opacity="0.003922" stroke="transparent" stroke-width="2" points="529.5,-198 473.5,-198 473.5,-162 529.5,-162 529.5,-198"/>
<text text-anchor="start" x="489" y="-176.4" font-family="Helvetica,sans-Serif" font-size="12.00">error</text>
<path fill="none" stroke="black" stroke-width="2" d="M485.5,-163.5C485.5,-163.5 517.5,-163.5 517.5,-163.5 523,-163.5 528.5,-169 528.5,-174.5 528.5,-174.5 528.5,-185.5 528.5,-185.5 528.5,-191 523,-196.5 517.5,-196.5 517.5,-196.5 485.5,-196.5 485.5,-196.5 480,-196.5 474.5,-191 474.5,-185.5 474.5,-185.5 474.5,-174.5 474.5,-174.5 474.5,-169 480,-163.5 485.5,-163.5"/>
</g>
<!-- finalizing -->
<g id="node3" class="node state regular">
<title>finalizing</title>
<polygon fill="#ffffff" fill-opacity="0.003922" stroke="transparent" stroke-width="2" points="536.5,-144 466.5,-144 466.5,-108 536.5,-108 536.5,-144"/>
<text text-anchor="start" x="477.5" y="-122.4" font-family="Helvetica,sans-Serif" font-size="12.00">finalizing</text>
<path fill="none" stroke="black" stroke-width="2" d="M478.5,-109.5C478.5,-109.5 524.5,-109.5 524.5,-109.5 530,-109.5 535.5,-115 535.5,-120.5 535.5,-120.5 535.5,-131.5 535.5,-131.5 535.5,-137 530,-142.5 524.5,-142.5 524.5,-142.5 478.5,-142.5 478.5,-142.5 473,-142.5 467.5,-137 467.5,-131.5 467.5,-131.5 467.5,-120.5 467.5,-120.5 467.5,-115 473,-109.5 478.5,-109.5"/>
</g>
<!-- installing -->
<g id="node4" class="node state regular">
<title>installing</title>
<polygon fill="#ffffff" fill-opacity="0.003922" stroke="transparent" stroke-width="2" points="112,-144 41,-144 41,-108 112,-108 112,-144"/>
<text text-anchor="start" x="52.5" y="-122.4" font-family="Helvetica,sans-Serif" font-size="12.00">installing</text>
<path fill="none" stroke="black" stroke-width="2" d="M53,-109.5C53,-109.5 100,-109.5 100,-109.5 105.5,-109.5 111,-115 111,-120.5 111,-120.5 111,-131.5 111,-131.5 111,-137 105.5,-142.5 100,-142.5 100,-142.5 53,-142.5 53,-142.5 47.5,-142.5 42,-137 42,-131.5 42,-131.5 42,-120.5 42,-120.5 42,-115 47.5,-109.5 53,-109.5"/>
</g>
<!-- installing&#45;&gt;cancelled -->
<g id="edge1" class="edge transition">
<title>installing&#45;&gt;cancelled</title>
<path fill="none" stroke="black" d="M87.66,-144.2C96.76,-158.64 111.52,-178 130,-188 235.01,-244.8 380.71,-243.68 454.19,-238.58"/>
<polygon fill="black" stroke="black" points="454.78,-242.05 464.49,-237.81 454.26,-235.07 454.78,-242.05"/>
<text text-anchor="start" x="130" y="-243" font-family="Helvetica,sans-Serif" font-size="10.00">Cancel Installation &#45; Cancel installation of installing cluster &#160;&#160;</text>
</g>
<!-- installing&#45;&gt;error -->
<g id="edge5" class="edge transition">
<title>installing&#45;&gt;error</title>
<path fill="none" stroke="black" d="M112.03,-136.78C117.98,-138.38 124.14,-139.86 130,-141 250.54,-164.38 396.05,-174.53 463.21,-178.22"/>
<polygon fill="black" stroke="black" points="463.13,-181.72 473.3,-178.75 463.5,-174.73 463.13,-181.72"/>
<text text-anchor="start" x="186" y="-176" font-family="Helvetica,sans-Serif" font-size="10.00">RefreshStatus &#45; Installation error &#160;&#160;</text>
</g>
<!-- installing&#45;&gt;finalizing -->
<g id="edge3" class="edge transition">
<title>installing&#45;&gt;finalizing</title>
<path fill="none" stroke="black" d="M112.12,-126C188.54,-126 371.62,-126 456.24,-126"/>
<polygon fill="black" stroke="black" points="456.29,-129.5 466.29,-126 456.29,-122.5 456.29,-129.5"/>
<text text-anchor="start" x="183.5" y="-129" font-family="Helvetica,sans-Serif" font-size="10.00">RefreshStatus &#45; Move to finalizing &#160;&#160;</text>
</g>
<!-- installing&#45;&gt;installing -->
<g id="edge4" class="edge transition">
<title>installing&#45;&gt;installing</title>
<path fill="none" stroke="black" d="M43.21,-144.15C38.09,-153.54 49.19,-162 76.5,-162 93.14,-162 103.77,-158.86 108.36,-154.28"/>
<polygon fill="black" stroke="black" points="111.86,-154.54 109.79,-144.15 104.93,-153.57 111.86,-154.54"/>
<text text-anchor="start" x="0" y="-165" font-family="Helvetica,sans-Serif" font-size="10.00">RefreshStatus &#45; Stay in installing &#160;&#160;</text>
</g>
<!-- installing&#45;pending&#45;user&#45;action -->
<g id="node5" class="node state regular">
<title>installing&#45;pending&#45;user&#45;action</title>
<polygon fill="#ffffff" fill-opacity="0.003922" stroke="transparent" stroke-width="2" points="592,-90 411,-90 411,-54 592,-54 592,-90"/>
<text text-anchor="start" x="422.5" y="-68.4" font-family="Helvetica,sans-Serif" font-size="12.00">installing&#45;pending&#45;user&#45;action</text>
<path fill="none" stroke="black" stroke-width="2" d="M423,-55.5C423,-55.5 580,-55.5 580,-55.5 585.5,-55.5 591,-61 591,-66.5 591,-66.5 591,-77.5 591,-77.5 591,-83 585.5,-88.5 580,-88.5 580,-88.5 423,-88.5 423,-88.5 417.5,-88.5 412,-83 412,-77.5 412,-77.5 412,-66.5 412,-66.5 412,-61 417.5,-55.5 423,-55.5"/>
</g>
<!-- installing&#45;&gt;installing&#45;pending&#45;user&#45;action -->
<g id="edge2" class="edge transition">
<title>installing&#45;&gt;installing&#45;pending&#45;user&#45;action</title>
<path fill="none" stroke="black" d="M112.03,-115.22C117.98,-113.62 124.14,-112.14 130,-111 220.66,-93.41 325.45,-83.31 400.4,-77.82"/>
<polygon fill="black" stroke="black" points="401.05,-81.28 410.77,-77.07 400.55,-74.3 401.05,-81.28"/>
<text text-anchor="start" x="160" y="-114" font-family="Helvetica,sans-Serif" font-size="10.00">RefreshStatus &#45; TODO: Name this transition &#160;&#160;</text>
</g>
<!-- insufficient -->
<g id="node6" class="node state regular">
<title>insufficient</title>
<polygon fill="#ffffff" fill-opacity="0.003922" stroke="transparent" stroke-width="2" points="541.5,-36 461.5,-36 461.5,0 541.5,0 541.5,-36"/>
<text text-anchor="start" x="472.5" y="-14.4" font-family="Helvetica,sans-Serif" font-size="12.00">insufficient</text>
<path fill="none" stroke="black" stroke-width="2" d="M473.5,-1.5C473.5,-1.5 529.5,-1.5 529.5,-1.5 535,-1.5 540.5,-7 540.5,-12.5 540.5,-12.5 540.5,-23.5 540.5,-23.5 540.5,-29 535,-34.5 529.5,-34.5 529.5,-34.5 473.5,-34.5 473.5,-34.5 468,-34.5 462.5,-29 462.5,-23.5 462.5,-23.5 462.5,-12.5 462.5,-12.5 462.5,-7 468,-1.5 473.5,-1.5"/>
</g>
<!-- installing&#45;&gt;insufficient -->
<g id="edge6" class="edge transition">
<title>installing&#45;&gt;insufficient</title>
<path fill="none" stroke="black" d="M87.4,-107.79C96.44,-93.08 111.24,-73.21 130,-63 233.55,-6.64 377.05,-7.66 451.42,-12.97"/>
<polygon fill="black" stroke="black" points="451.2,-16.46 461.44,-13.74 451.74,-9.48 451.2,-16.46"/>
<text text-anchor="start" x="184.5" y="-66" font-family="Helvetica,sans-Serif" font-size="10.00">Reset Cluster &#45; Reset installation &#160;&#160;</text>
</g>
</g>
</svg>
