<?xml version="1.0" encoding="UTF-8" standalone="no"?>
<!DOCTYPE svg PUBLIC "-//W3C//DTD SVG 1.1//EN"
 "http://www.w3.org/Graphics/SVG/1.1/DTD/svg11.dtd">
<!-- Generated by graphviz version 7.1.0 (0)
 -->
<!-- Title: state transitions Pages: 1 -->
<svg width="635pt" height="136pt"
 viewBox="0.00 0.00 635.00 136.00" xmlns="http://www.w3.org/2000/svg" xmlns:xlink="http://www.w3.org/1999/xlink">
<g id="graph0" class="graph" transform="scale(1 1) rotate(0) translate(4 132)">
<title>state transitions</title>
<polygon fill="white" stroke="none" points="-4,4 -4,-132 631,-132 631,4 -4,4"/>
<!-- insufficient -->
<g id="node1" class="node state regular">
<title>insufficient</title>
<polygon fill="#ffffff" fill-opacity="0.003922" stroke="none" stroke-width="2" points="182,-70 102,-70 102,-34 182,-34 182,-70"/>
<text text-anchor="start" x="113" y="-48.4" font-family="Helvetica,sans-Serif" font-size="12.00">insufficient</text>
<path fill="none" stroke="black" stroke-width="2" d="M114,-35.5C114,-35.5 170,-35.5 170,-35.5 175.5,-35.5 181,-41 181,-46.5 181,-46.5 181,-57.5 181,-57.5 181,-63 175.5,-68.5 170,-68.5 170,-68.5 114,-68.5 114,-68.5 108.5,-68.5 103,-63 103,-57.5 103,-57.5 103,-46.5 103,-46.5 103,-41 108.5,-35.5 114,-35.5"/>
</g>
<!-- insufficient&#45;&gt;insufficient -->
<g id="edge2" class="edge transition">
<title>insufficient&#45;&gt;insufficient</title>
<path fill="none" stroke="black" d="M123.48,-69.78C120.34,-79.31 126.51,-88 142,-88 150.71,-88 156.48,-85.25 159.29,-81.15"/>
<polygon fill="black" stroke="black" points="162.77,-81.6 160.35,-71.29 155.81,-80.86 162.77,-81.6"/>
<text text-anchor="start" x="0" y="-91" font-family="Helvetica,sans-Serif" font-size="10.00">RefreshStatus &#45; Refresh discovering cluster &#45; detect insufficient &#160;&#160;</text>
</g>
<!-- insufficient&#45;&gt;insufficient -->
<g id="edge4" class="edge transition">
<title>insufficient&#45;&gt;insufficient</title>
<path fill="none" stroke="black" d="M111.03,-69.98C94.46,-87.2 104.78,-106 142,-106 172.53,-106 184.96,-93.35 179.29,-79.3"/>
<polygon fill="black" stroke="black" points="182.33,-77.54 173.82,-71.23 176.54,-81.47 182.33,-77.54"/>
<text text-anchor="start" x="40.5" y="-109" font-family="Helvetica,sans-Serif" font-size="10.00">RefreshStatus &#45; TODO: Name this transition &#160;&#160;</text>
</g>
<!-- pending&#45;for&#45;input -->
<g id="node2" class="node state regular">
<title>pending&#45;for&#45;input</title>
<polygon fill="#ffffff" fill-opacity="0.003922" stroke="none" stroke-width="2" points="627,-97 514,-97 514,-61 627,-61 627,-97"/>
<text text-anchor="start" x="525.5" y="-75.4" font-family="Helvetica,sans-Serif" font-size="12.00">pending&#45;for&#45;input</text>
<path fill="none" stroke="black" stroke-width="2" d="M526,-62.5C526,-62.5 615,-62.5 615,-62.5 620.5,-62.5 626,-68 626,-73.5 626,-73.5 626,-84.5 626,-84.5 626,-90 620.5,-95.5 615,-95.5 615,-95.5 526,-95.5 526,-95.5 520.5,-95.5 515,-90 515,-84.5 515,-84.5 515,-73.5 515,-73.5 515,-68 520.5,-62.5 526,-62.5"/>
</g>
<!-- insufficient&#45;&gt;pending&#45;for&#45;input -->
<g id="edge1" class="edge transition">
<title>insufficient&#45;&gt;pending&#45;for&#45;input</title>
<path fill="none" stroke="black" d="M181.79,-61.07C187.86,-62.23 194.08,-63.26 200,-64 305.22,-77.12 428.48,-79.55 502.69,-79.63"/>
<polygon fill="black" stroke="black" points="502.66,-83.13 512.66,-79.62 502.66,-76.13 502.66,-83.13"/>
<text text-anchor="start" x="200" y="-82" font-family="Helvetica,sans-Serif" font-size="10.00">RefreshStatus &#45; Refresh discovering cluster &#45; detect required input &#160;&#160;</text>
</g>
<!-- insufficient&#45;&gt;pending&#45;for&#45;input -->
<g id="edge3" class="edge transition">
<title>insufficient&#45;&gt;pending&#45;for&#45;input</title>
<path fill="none" stroke="black" d="M181.81,-47.27C247.25,-40.33 383.44,-30.29 496,-51 503.76,-52.43 511.76,-54.64 519.5,-57.2"/>
<polygon fill="black" stroke="black" points="518.19,-60.45 528.78,-60.51 520.54,-53.86 518.19,-60.45"/>
<text text-anchor="start" x="246.5" y="-54" font-family="Helvetica,sans-Serif" font-size="10.00">RefreshStatus &#45; TODO: Name this transition &#160;&#160;</text>
</g>
<!-- ready -->
<g id="node3" class="node state regular">
<title>ready</title>
<polygon fill="#ffffff" fill-opacity="0.003922" stroke="none" stroke-width="2" points="598.5,-36 542.5,-36 542.5,0 598.5,0 598.5,-36"/>
<text text-anchor="start" x="555" y="-14.4" font-family="Helvetica,sans-Serif" font-size="12.00">ready</text>
<path fill="none" stroke="black" stroke-width="2" d="M554.5,-1.5C554.5,-1.5 586.5,-1.5 586.5,-1.5 592,-1.5 597.5,-7 597.5,-12.5 597.5,-12.5 597.5,-23.5 597.5,-23.5 597.5,-29 592,-34.5 586.5,-34.5 586.5,-34.5 554.5,-34.5 554.5,-34.5 549,-34.5 543.5,-29 543.5,-23.5 543.5,-23.5 543.5,-12.5 543.5,-12.5 543.5,-7 549,-1.5 554.5,-1.5"/>
</g>
<!-- insufficient&#45;&gt;ready -->
<g id="edge5" class="edge transition">
<title>insufficient&#45;&gt;ready</title>
<path fill="none" stroke="black" d="M171.87,-34.1C180.59,-29.6 190.41,-25.37 200,-23 317.81,6.09 463.24,-5.08 531.16,-12.89"/>
<polygon fill="black" stroke="black" points="530.69,-16.36 541.04,-14.08 531.52,-9.41 530.69,-16.36"/>
<text text-anchor="start" x="217" y="-26" font-family="Helvetica,sans-Serif" font-size="10.00">RefreshStatus &#45; Refresh discovering cluster &#45; detect ready &#160;&#160;</text>
</g>
</g>
</svg>
