<?xml version="1.0" encoding="UTF-8" standalone="no"?>
<!DOCTYPE svg PUBLIC "-//W3C//DTD SVG 1.1//EN"
 "http://www.w3.org/Graphics/SVG/1.1/DTD/svg11.dtd">
<!-- Generated by graphviz version 5.0.0 (0)
 -->
<!-- Title: state transitions Pages: 1 -->
<svg width="590pt" height="221pt"
 viewBox="0.00 0.00 589.50 221.29" xmlns="http://www.w3.org/2000/svg" xmlns:xlink="http://www.w3.org/1999/xlink">
<g id="graph0" class="graph" transform="scale(1 1) rotate(0) translate(4 217.29)">
<title>state transitions</title>
<polygon fill="white" stroke="transparent" points="-4,4 -4,-217.29 585.5,-217.29 585.5,4 -4,4"/>
<!-- installing -->
<g id="node1" class="node state regular">
<title>installing</title>
<polygon fill="#ffffff" fill-opacity="0.003922" stroke="transparent" stroke-width="2" points="577,-213.29 506,-213.29 506,-177.29 577,-177.29 577,-213.29"/>
<text text-anchor="start" x="517.5" y="-191.69" font-family="Helvetica,sans-Serif" font-size="12.00">installing</text>
<path fill="none" stroke="black" stroke-width="2" d="M518,-178.79C518,-178.79 565,-178.79 565,-178.79 570.5,-178.79 576,-184.29 576,-189.79 576,-189.79 576,-200.79 576,-200.79 576,-206.29 570.5,-211.79 565,-211.79 565,-211.79 518,-211.79 518,-211.79 512.5,-211.79 507,-206.29 507,-200.79 507,-200.79 507,-189.79 507,-189.79 507,-184.29 512.5,-178.79 518,-178.79"/>
</g>
<!-- insufficient -->
<g id="node2" class="node state regular">
<title>insufficient</title>
<polygon fill="#ffffff" fill-opacity="0.003922" stroke="transparent" stroke-width="2" points="581.5,-152.29 501.5,-152.29 501.5,-116.29 581.5,-116.29 581.5,-152.29"/>
<text text-anchor="start" x="512.5" y="-130.69" font-family="Helvetica,sans-Serif" font-size="12.00">insufficient</text>
<path fill="none" stroke="black" stroke-width="2" d="M513.5,-117.79C513.5,-117.79 569.5,-117.79 569.5,-117.79 575,-117.79 580.5,-123.29 580.5,-128.79 580.5,-128.79 580.5,-139.79 580.5,-139.79 580.5,-145.29 575,-150.79 569.5,-150.79 569.5,-150.79 513.5,-150.79 513.5,-150.79 508,-150.79 502.5,-145.29 502.5,-139.79 502.5,-139.79 502.5,-128.79 502.5,-128.79 502.5,-123.29 508,-117.79 513.5,-117.79"/>
</g>
<!-- preparing&#45;for&#45;installation -->
<g id="node3" class="node state regular">
<title>preparing&#45;for&#45;installation</title>
<polygon fill="#ffffff" fill-opacity="0.003922" stroke="transparent" stroke-width="2" points="200.5,-128.29 48.5,-128.29 48.5,-92.29 200.5,-92.29 200.5,-128.29"/>
<text text-anchor="start" x="59.5" y="-106.69" font-family="Helvetica,sans-Serif" font-size="12.00">preparing&#45;for&#45;installation</text>
<path fill="none" stroke="black" stroke-width="2" d="M60.5,-93.79C60.5,-93.79 188.5,-93.79 188.5,-93.79 194,-93.79 199.5,-99.29 199.5,-104.79 199.5,-104.79 199.5,-115.79 199.5,-115.79 199.5,-121.29 194,-126.79 188.5,-126.79 188.5,-126.79 60.5,-126.79 60.5,-126.79 55,-126.79 49.5,-121.29 49.5,-115.79 49.5,-115.79 49.5,-104.79 49.5,-104.79 49.5,-99.29 55,-93.79 60.5,-93.79"/>
</g>
<!-- preparing&#45;for&#45;installation&#45;&gt;installing -->
<g id="edge3" class="edge transition">
<title>preparing&#45;for&#45;installation&#45;&gt;installing</title>
<path fill="none" stroke="black" d="M151.05,-128.35C169.03,-140.09 194.16,-154.6 218.5,-162.29 313.93,-192.44 432.41,-196.61 495.69,-196.36"/>
<polygon fill="black" stroke="black" points="495.76,-199.86 505.74,-196.28 495.71,-192.86 495.76,-199.86"/>
<text text-anchor="start" x="220" y="-199.29" font-family="Helvetica,sans-Serif" font-size="10.00">RefreshStatus &#45; Refresh preparing cluster &#45; done preparing &#160;&#160;</text>
</g>
<!-- preparing&#45;for&#45;installation&#45;&gt;insufficient -->
<g id="edge4" class="edge transition">
<title>preparing&#45;for&#45;installation&#45;&gt;insufficient</title>
<path fill="none" stroke="black" d="M173.6,-128.32C187.84,-132.83 203.62,-137.03 218.5,-139.29 314.05,-153.84 427.39,-146.46 490.92,-140.13"/>
<polygon fill="black" stroke="black" points="491.47,-143.6 501.06,-139.09 490.75,-136.63 491.47,-143.6"/>
<text text-anchor="start" x="228.5" y="-150.29" font-family="Helvetica,sans-Serif" font-size="10.00">RefreshStatus &#45; Refresh preparing cluster &#45; insufficient &#160;&#160;</text>
</g>
<!-- preparing&#45;for&#45;installation&#45;&gt;insufficient -->
<g id="edge7" class="edge transition">
<title>preparing&#45;for&#45;installation&#45;&gt;insufficient</title>
<path fill="none" stroke="black" d="M200.72,-111.58C273.27,-113.32 386.08,-117.3 483.5,-126.29 486.02,-126.52 488.61,-126.79 491.22,-127.08"/>
<polygon fill="black" stroke="black" points="490.96,-130.57 501.31,-128.29 491.8,-123.62 490.96,-130.57"/>
<text text-anchor="start" x="274" y="-129.29" font-family="Helvetica,sans-Serif" font-size="10.00">Reset Cluster &#45; Reset installation &#160;&#160;</text>
</g>
<!-- preparing&#45;for&#45;installation&#45;&gt;preparing&#45;for&#45;installation -->
<g id="edge6" class="edge transition">
<title>preparing&#45;for&#45;installation&#45;&gt;preparing&#45;for&#45;installation</title>
<path fill="none" stroke="black" d="M83.61,-128.44C77.32,-137.83 90.95,-146.29 124.5,-146.29 144.94,-146.29 157.99,-143.15 163.64,-138.57"/>
<polygon fill="black" stroke="black" points="167.13,-138.89 165.39,-128.44 160.24,-137.7 167.13,-138.89"/>
<text text-anchor="start" x="0" y="-149.29" font-family="Helvetica,sans-Serif" font-size="10.00">RefreshStatus &#45; Maintain preparing&#45;for&#45;installation state &#160;&#160;</text>
</g>
<!-- ready -->
<g id="node4" class="node state regular">
<title>ready</title>
<polygon fill="#ffffff" fill-opacity="0.003922" stroke="transparent" stroke-width="2" points="569.5,-77.29 513.5,-77.29 513.5,-41.29 569.5,-41.29 569.5,-77.29"/>
<text text-anchor="start" x="526" y="-55.69" font-family="Helvetica,sans-Serif" font-size="12.00">ready</text>
<path fill="none" stroke="black" stroke-width="2" d="M525.5,-42.79C525.5,-42.79 557.5,-42.79 557.5,-42.79 563,-42.79 568.5,-48.29 568.5,-53.79 568.5,-53.79 568.5,-64.79 568.5,-64.79 568.5,-70.29 563,-75.79 557.5,-75.79 557.5,-75.79 525.5,-75.79 525.5,-75.79 520,-75.79 514.5,-70.29 514.5,-64.79 514.5,-64.79 514.5,-53.79 514.5,-53.79 514.5,-48.29 520,-42.79 525.5,-42.79"/>
</g>
<!-- preparing&#45;for&#45;installation&#45;&gt;ready -->
<g id="edge1" class="edge transition">
<title>preparing&#45;for&#45;installation&#45;&gt;ready</title>
<path fill="none" stroke="black" d="M200.57,-98.63C206.63,-97.8 212.67,-97.01 218.5,-96.29 335.93,-81.93 366.54,-89.06 483.5,-71.29 489.93,-70.31 496.73,-69.07 503.3,-67.76"/>
<polygon fill="black" stroke="black" points="504.28,-71.13 513.36,-65.66 502.86,-64.27 504.28,-71.13"/>
<text text-anchor="start" x="218.5" y="-99.29" font-family="Helvetica,sans-Serif" font-size="10.00">Cancel Installation &#45; Cancel installation of preparing cluster &#160;&#160;</text>
</g>
<!-- preparing&#45;for&#45;installation&#45;&gt;ready -->
<g id="edge2" class="edge transition">
<title>preparing&#45;for&#45;installation&#45;&gt;ready</title>
<path fill="none" stroke="black" d="M149.66,-92.22C167.61,-79.98 193.26,-64.87 218.5,-58.29 318.73,-32.17 442.55,-44.39 503.31,-53.13"/>
<polygon fill="black" stroke="black" points="502.79,-56.59 513.2,-54.6 503.83,-49.66 502.79,-56.59"/>
<text text-anchor="start" x="220.5" y="-61.29" font-family="Helvetica,sans-Serif" font-size="10.00">RefreshStatus &#45; Refresh preparing cluster &#45; detect timeout &#160;&#160;</text>
</g>
<!-- preparing&#45;for&#45;installation&#45;&gt;ready -->
<g id="edge5" class="edge transition">
<title>preparing&#45;for&#45;installation&#45;&gt;ready</title>
<path fill="none" stroke="black" d="M138.87,-92.2C155.09,-71.94 184.53,-40.25 218.5,-27.29 328.55,14.67 369.55,2.51 483.5,-27.29 491.14,-29.29 498.84,-32.57 506.01,-36.28"/>
<polygon fill="black" stroke="black" points="504.31,-39.34 514.74,-41.15 507.72,-33.23 504.31,-39.34"/>
<text text-anchor="start" x="240" y="-30.29" font-family="Helvetica,sans-Serif" font-size="10.00">RefreshStatus &#45; Refresh preparing cluster &#45; failed &#160;&#160;</text>
</g>
</g>
</svg>
