<?xml version="1.0" encoding="UTF-8" standalone="no"?>
<!DOCTYPE svg PUBLIC "-//W3C//DTD SVG 1.1//EN"
 "http://www.w3.org/Graphics/SVG/1.1/DTD/svg11.dtd">
<!-- Generated by graphviz version 12.1.0 (20240811.2233)
 -->
<!-- Title: state transitions Pages: 1 -->
<svg width="211pt" height="75pt"
 viewBox="0.00 0.00 210.50 75.00" xmlns="http://www.w3.org/2000/svg" xmlns:xlink="http://www.w3.org/1999/xlink">
<g id="graph0" class="graph" transform="scale(1 1) rotate(0) translate(4 71)">
<title>state transitions</title>
<polygon fill="white" stroke="none" points="-4,4 -4,-71 206.5,-71 206.5,4 -4,4"/>
<!-- installed -->
<g id="node1" class="node state regular">
<title>installed</title>
<polygon fill="#ffffff" fill-opacity="0.003922" stroke="none" stroke-width="2" points="137,-36.25 65.5,-36.25 65.5,0 137,0 137,-36.25"/>
<text text-anchor="start" x="76.5" y="-13.85" font-family="Helvetica,sans-Serif" font-size="12.00">installed</text>
<path fill="none" stroke="black" stroke-width="2" d="M77.92,-1C77.92,-1 124.58,-1 124.58,-1 130.29,-1 136,-6.71 136,-12.42 136,-12.42 136,-23.83 136,-23.83 136,-29.54 130.29,-35.25 124.58,-35.25 124.58,-35.25 77.92,-35.25 77.92,-35.25 72.21,-35.25 66.5,-29.54 66.5,-23.83 66.5,-23.83 66.5,-12.42 66.5,-12.42 66.5,-6.71 72.21,-1 77.92,-1"/>
</g>
<!-- installed&#45;&gt;installed -->
<g id="edge1" class="edge transition">
<title>installed&#45;&gt;installed</title>
<path fill="none" stroke="black" d="M88.4,-35.97C86.21,-45.53 90.5,-54.25 101.25,-54.25 107.3,-54.25 111.3,-51.49 113.26,-47.38"/>
<polygon fill="black" stroke="black" points="116.74,-47.71 113.99,-37.48 109.76,-47.19 116.74,-47.71"/>
<text text-anchor="start" x="0" y="-57.5" font-family="Helvetica,sans-Serif" font-size="10.00">RefreshStatus &#45; Maintain installed state &#160;&#160;</text>
</g>
</g>
</svg>
