<?xml version="1.0" encoding="UTF-8" standalone="no"?>
<!DOCTYPE svg PUBLIC "-//W3C//DTD SVG 1.1//EN"
 "http://www.w3.org/Graphics/SVG/1.1/DTD/svg11.dtd">
<!-- Generated by graphviz version 7.1.0 (0)
 -->
<!-- Title: state transitions Pages: 1 -->
<svg width="613pt" height="136pt"
 viewBox="0.00 0.00 612.50 136.00" xmlns="http://www.w3.org/2000/svg" xmlns:xlink="http://www.w3.org/1999/xlink">
<g id="graph0" class="graph" transform="scale(1 1) rotate(0) translate(4 132)">
<title>state transitions</title>
<polygon fill="white" stroke="none" points="-4,4 -4,-132 608.5,-132 608.5,4 -4,4"/>
<!-- insufficient -->
<g id="node1" class="node state regular">
<title>insufficient</title>
<polygon fill="#ffffff" fill-opacity="0.003922" stroke="none" stroke-width="2" points="604.5,-97 524.5,-97 524.5,-61 604.5,-61 604.5,-97"/>
<text text-anchor="start" x="535.5" y="-75.4" font-family="Helvetica,sans-Serif" font-size="12.00">insufficient</text>
<path fill="none" stroke="black" stroke-width="2" d="M536.5,-62.5C536.5,-62.5 592.5,-62.5 592.5,-62.5 598,-62.5 603.5,-68 603.5,-73.5 603.5,-73.5 603.5,-84.5 603.5,-84.5 603.5,-90 598,-95.5 592.5,-95.5 592.5,-95.5 536.5,-95.5 536.5,-95.5 531,-95.5 525.5,-90 525.5,-84.5 525.5,-84.5 525.5,-73.5 525.5,-73.5 525.5,-68 531,-62.5 536.5,-62.5"/>
</g>
<!-- pending&#45;for&#45;input -->
<g id="node2" class="node state regular">
<title>pending&#45;for&#45;input</title>
<polygon fill="#ffffff" fill-opacity="0.003922" stroke="none" stroke-width="2" points="204.5,-70 91.5,-70 91.5,-34 204.5,-34 204.5,-70"/>
<text text-anchor="start" x="103" y="-48.4" font-family="Helvetica,sans-Serif" font-size="12.00">pending&#45;for&#45;input</text>
<path fill="none" stroke="black" stroke-width="2" d="M103.5,-35.5C103.5,-35.5 192.5,-35.5 192.5,-35.5 198,-35.5 203.5,-41 203.5,-46.5 203.5,-46.5 203.5,-57.5 203.5,-57.5 203.5,-63 198,-68.5 192.5,-68.5 192.5,-68.5 103.5,-68.5 103.5,-68.5 98,-68.5 92.5,-63 92.5,-57.5 92.5,-57.5 92.5,-46.5 92.5,-46.5 92.5,-41 98,-35.5 103.5,-35.5"/>
</g>
<!-- pending&#45;for&#45;input&#45;&gt;insufficient -->
<g id="edge2" class="edge transition">
<title>pending&#45;for&#45;input&#45;&gt;insufficient</title>
<path fill="none" stroke="black" d="M204.29,-61.74C210.42,-62.61 216.58,-63.39 222.5,-64 325.37,-74.62 446.46,-77.73 513.12,-78.64"/>
<polygon fill="black" stroke="black" points="512.97,-82.14 523.01,-78.76 513.05,-75.14 512.97,-82.14"/>
<text text-anchor="start" x="222.5" y="-81" font-family="Helvetica,sans-Serif" font-size="10.00">RefreshStatus &#45; Refresh discovering cluster &#45; detect insufficient &#160;&#160;</text>
</g>
<!-- pending&#45;for&#45;input&#45;&gt;insufficient -->
<g id="edge4" class="edge transition">
<title>pending&#45;for&#45;input&#45;&gt;insufficient</title>
<path fill="none" stroke="black" d="M204.39,-44.09C275.42,-35.7 401.91,-26.7 506.5,-51 512.06,-52.29 517.71,-54.21 523.17,-56.44"/>
<polygon fill="black" stroke="black" points="521.46,-59.51 532.02,-60.43 524.34,-53.13 521.46,-59.51"/>
<text text-anchor="start" x="263" y="-54" font-family="Helvetica,sans-Serif" font-size="10.00">RefreshStatus &#45; TODO: Name this transition &#160;&#160;</text>
</g>
<!-- pending&#45;for&#45;input&#45;&gt;pending&#45;for&#45;input -->
<g id="edge1" class="edge transition">
<title>pending&#45;for&#45;input&#45;&gt;pending&#45;for&#45;input</title>
<path fill="none" stroke="black" d="M128.54,-69.78C125.23,-79.31 131.72,-88 148,-88 157.16,-88 163.22,-85.25 166.18,-81.15"/>
<polygon fill="black" stroke="black" points="169.65,-81.62 167.29,-71.29 162.69,-80.83 169.65,-81.62"/>
<text text-anchor="start" x="0" y="-91" font-family="Helvetica,sans-Serif" font-size="10.00">RefreshStatus &#45; Refresh discovering cluster &#45; detect required input &#160;&#160;</text>
</g>
<!-- pending&#45;for&#45;input&#45;&gt;pending&#45;for&#45;input -->
<g id="edge3" class="edge transition">
<title>pending&#45;for&#45;input&#45;&gt;pending&#45;for&#45;input</title>
<path fill="none" stroke="black" d="M115.46,-69.98C98.04,-87.2 108.89,-106 148,-106 180.09,-106 193.15,-93.35 187.2,-79.3"/>
<polygon fill="black" stroke="black" points="190.08,-77.32 181.42,-71.21 184.38,-81.38 190.08,-77.32"/>
<text text-anchor="start" x="46.5" y="-109" font-family="Helvetica,sans-Serif" font-size="10.00">RefreshStatus &#45; TODO: Name this transition &#160;&#160;</text>
</g>
<!-- ready -->
<g id="node3" class="node state regular">
<title>ready</title>
<polygon fill="#ffffff" fill-opacity="0.003922" stroke="none" stroke-width="2" points="592.5,-36 536.5,-36 536.5,0 592.5,0 592.5,-36"/>
<text text-anchor="start" x="549" y="-14.4" font-family="Helvetica,sans-Serif" font-size="12.00">ready</text>
<path fill="none" stroke="black" stroke-width="2" d="M548.5,-1.5C548.5,-1.5 580.5,-1.5 580.5,-1.5 586,-1.5 591.5,-7 591.5,-12.5 591.5,-12.5 591.5,-23.5 591.5,-23.5 591.5,-29 586,-34.5 580.5,-34.5 580.5,-34.5 548.5,-34.5 548.5,-34.5 543,-34.5 537.5,-29 537.5,-23.5 537.5,-23.5 537.5,-12.5 537.5,-12.5 537.5,-7 543,-1.5 548.5,-1.5"/>
</g>
<!-- pending&#45;for&#45;input&#45;&gt;ready -->
<g id="edge5" class="edge transition">
<title>pending&#45;for&#45;input&#45;&gt;ready</title>
<path fill="none" stroke="black" d="M182.45,-34.04C194.69,-28.39 208.88,-22.88 222.5,-20 330.47,2.81 461.99,-6.53 525.53,-13.3"/>
<polygon fill="black" stroke="black" points="524.75,-16.74 535.08,-14.36 525.52,-9.78 524.75,-16.74"/>
<text text-anchor="start" x="233.5" y="-23" font-family="Helvetica,sans-Serif" font-size="10.00">RefreshStatus &#45; Refresh discovering cluster &#45; detect ready &#160;&#160;</text>
</g>
</g>
</svg>
