<?xml version="1.0" encoding="UTF-8" standalone="no"?>
<!DOCTYPE svg PUBLIC "-//W3C//DTD SVG 1.1//EN"
 "http://www.w3.org/Graphics/SVG/1.1/DTD/svg11.dtd">
<!-- Generated by graphviz version 5.0.0 (0)
 -->
<!-- Title: state transitions Pages: 1 -->
<svg width="529pt" height="129pt"
 viewBox="0.00 0.00 529.00 129.00" xmlns="http://www.w3.org/2000/svg" xmlns:xlink="http://www.w3.org/1999/xlink">
<g id="graph0" class="graph" transform="scale(1 1) rotate(0) translate(4 125)">
<title>state transitions</title>
<polygon fill="white" stroke="transparent" points="-4,4 -4,-125 525,-125 525,4 -4,4"/>
<!-- cancelled -->
<g id="node1" class="node state regular">
<title>cancelled</title>
<polygon fill="#ffffff" fill-opacity="0.003922" stroke="transparent" stroke-width="2" points="518,-90 444,-90 444,-54 518,-54 518,-90"/>
<text text-anchor="start" x="455" y="-68.4" font-family="Helvetica,sans-Serif" font-size="12.00">cancelled</text>
<path fill="none" stroke="black" stroke-width="2" d="M456,-55.5C456,-55.5 506,-55.5 506,-55.5 511.5,-55.5 517,-61 517,-66.5 517,-66.5 517,-77.5 517,-77.5 517,-83 511.5,-88.5 506,-88.5 506,-88.5 456,-88.5 456,-88.5 450.5,-88.5 445,-83 445,-77.5 445,-77.5 445,-66.5 445,-66.5 445,-61 450.5,-55.5 456,-55.5"/>
</g>
<!-- error -->
<g id="node2" class="node state regular">
<title>error</title>
<polygon fill="#ffffff" fill-opacity="0.003922" stroke="transparent" stroke-width="2" points="142,-63 86,-63 86,-27 142,-27 142,-63"/>
<text text-anchor="start" x="101.5" y="-41.4" font-family="Helvetica,sans-Serif" font-size="12.00">error</text>
<path fill="none" stroke="black" stroke-width="2" d="M98,-28.5C98,-28.5 130,-28.5 130,-28.5 135.5,-28.5 141,-34 141,-39.5 141,-39.5 141,-50.5 141,-50.5 141,-56 135.5,-61.5 130,-61.5 130,-61.5 98,-61.5 98,-61.5 92.5,-61.5 87,-56 87,-50.5 87,-50.5 87,-39.5 87,-39.5 87,-34 92.5,-28.5 98,-28.5"/>
</g>
<!-- error&#45;&gt;cancelled -->
<g id="edge1" class="edge transition">
<title>error&#45;&gt;cancelled</title>
<path fill="none" stroke="black" d="M142.14,-47.01C204.07,-51.59 356.43,-62.86 433.6,-68.57"/>
<polygon fill="black" stroke="black" points="433.74,-72.09 443.97,-69.34 434.26,-65.11 433.74,-72.09"/>
<text text-anchor="start" x="160" y="-70" font-family="Helvetica,sans-Serif" font-size="10.00">Cancel Installation &#45; Cancel installation of installing cluster &#160;&#160;</text>
</g>
<!-- error&#45;&gt;error -->
<g id="edge2" class="edge transition">
<title>error&#45;&gt;error</title>
<path fill="none" stroke="black" d="M98.08,-63.15C95.63,-72.54 100.94,-81 114,-81 121.96,-81 127.04,-77.86 129.24,-73.28"/>
<polygon fill="black" stroke="black" points="132.74,-73.36 129.92,-63.15 125.76,-72.9 132.74,-73.36"/>
<text text-anchor="start" x="0" y="-84" font-family="Helvetica,sans-Serif" font-size="10.00">RefreshStatus &#45; Log collection timeout during error &#160;&#160;</text>
</g>
<!-- error&#45;&gt;error -->
<g id="edge3" class="edge transition">
<title>error&#45;&gt;error</title>
<path fill="none" stroke="black" d="M87.32,-63.26C73.48,-80.4 82.38,-99 114,-99 140.19,-99 150.79,-86.25 145.8,-72.12"/>
<polygon fill="black" stroke="black" points="148.71,-70.17 140.68,-63.26 142.65,-73.67 148.71,-70.17"/>
<text text-anchor="start" x="31.5" y="-102" font-family="Helvetica,sans-Serif" font-size="10.00">RefreshStatus &#45; Maintain error state &#160;&#160;</text>
</g>
<!-- insufficient -->
<g id="node3" class="node state regular">
<title>insufficient</title>
<polygon fill="#ffffff" fill-opacity="0.003922" stroke="transparent" stroke-width="2" points="521,-36 441,-36 441,0 521,0 521,-36"/>
<text text-anchor="start" x="452" y="-14.4" font-family="Helvetica,sans-Serif" font-size="12.00">insufficient</text>
<path fill="none" stroke="black" stroke-width="2" d="M453,-1.5C453,-1.5 509,-1.5 509,-1.5 514.5,-1.5 520,-7 520,-12.5 520,-12.5 520,-23.5 520,-23.5 520,-29 514.5,-34.5 509,-34.5 509,-34.5 453,-34.5 453,-34.5 447.5,-34.5 442,-29 442,-23.5 442,-23.5 442,-12.5 442,-12.5 442,-7 447.5,-1.5 453,-1.5"/>
</g>
<!-- error&#45;&gt;insufficient -->
<g id="edge4" class="edge transition">
<title>error&#45;&gt;insufficient</title>
<path fill="none" stroke="black" d="M142.41,-36.7C148.17,-35.23 154.25,-33.89 160,-33 255.01,-18.28 367.63,-16.6 430.75,-17.06"/>
<polygon fill="black" stroke="black" points="430.78,-20.56 440.82,-17.16 430.85,-13.56 430.78,-20.56"/>
<text text-anchor="start" x="214.5" y="-36" font-family="Helvetica,sans-Serif" font-size="10.00">Reset Cluster &#45; Reset installation &#160;&#160;</text>
</g>
</g>
</svg>
