<?xml version="1.0" encoding="UTF-8" standalone="no"?>
<!DOCTYPE svg PUBLIC "-//W3C//DTD SVG 1.1//EN"
 "http://www.w3.org/Graphics/SVG/1.1/DTD/svg11.dtd">
<!-- Generated by graphviz version 7.1.0 (0)
 -->
<!-- Title: state transitions Pages: 1 -->
<svg width="440pt" height="102pt"
 viewBox="0.00 0.00 440.00 102.00" xmlns="http://www.w3.org/2000/svg" xmlns:xlink="http://www.w3.org/1999/xlink">
<g id="graph0" class="graph" transform="scale(1 1) rotate(0) translate(4 98)">
<title>state transitions</title>
<polygon fill="white" stroke="none" points="-4,4 -4,-98 436,-98 436,4 -4,4"/>
<!-- cancelled -->
<g id="node1" class="node state regular">
<title>cancelled</title>
<polygon fill="#ffffff" fill-opacity="0.003922" stroke="none" stroke-width="2" points="162,-36 88,-36 88,0 162,0 162,-36"/>
<text text-anchor="start" x="99" y="-14.4" font-family="Helvetica,sans-Serif" font-size="12.00">cancelled</text>
<path fill="none" stroke="black" stroke-width="2" d="M100,-1.5C100,-1.5 150,-1.5 150,-1.5 155.5,-1.5 161,-7 161,-12.5 161,-12.5 161,-23.5 161,-23.5 161,-29 155.5,-34.5 150,-34.5 150,-34.5 100,-34.5 100,-34.5 94.5,-34.5 89,-29 89,-23.5 89,-23.5 89,-12.5 89,-12.5 89,-7 94.5,-1.5 100,-1.5"/>
</g>
<!-- cancelled&#45;&gt;cancelled -->
<g id="edge1" class="edge transition">
<title>cancelled&#45;&gt;cancelled</title>
<path fill="none" stroke="black" d="M113.14,-35.78C111.12,-45.31 115.07,-54 125,-54 130.58,-54 134.28,-51.25 136.08,-47.15"/>
<polygon fill="black" stroke="black" points="139.57,-47.51 136.76,-37.29 132.58,-47.03 139.57,-47.51"/>
<text text-anchor="start" x="0" y="-57" font-family="Helvetica,sans-Serif" font-size="10.00">RefreshStatus &#45; Log collection timeout during cancelled &#160;&#160;</text>
</g>
<!-- cancelled&#45;&gt;cancelled -->
<g id="edge2" class="edge transition">
<title>cancelled&#45;&gt;cancelled</title>
<path fill="none" stroke="black" d="M105.16,-35.98C94.54,-53.2 101.15,-72 125,-72 144,-72 152.06,-60.06 149.18,-46.5"/>
<polygon fill="black" stroke="black" points="152.47,-45.29 145.42,-37.38 146,-47.96 152.47,-45.29"/>
<text text-anchor="start" x="31.5" y="-75" font-family="Helvetica,sans-Serif" font-size="10.00">RefreshStatus &#45; Maintain cancelled state &#160;&#160;</text>
</g>
<!-- insufficient -->
<g id="node2" class="node state regular">
<title>insufficient</title>
<polygon fill="#ffffff" fill-opacity="0.003922" stroke="none" stroke-width="2" points="432,-36 352,-36 352,0 432,0 432,-36"/>
<text text-anchor="start" x="363" y="-14.4" font-family="Helvetica,sans-Serif" font-size="12.00">insufficient</text>
<path fill="none" stroke="black" stroke-width="2" d="M364,-1.5C364,-1.5 420,-1.5 420,-1.5 425.5,-1.5 431,-7 431,-12.5 431,-12.5 431,-23.5 431,-23.5 431,-29 425.5,-34.5 420,-34.5 420,-34.5 364,-34.5 364,-34.5 358.5,-34.5 353,-29 353,-23.5 353,-23.5 353,-12.5 353,-12.5 353,-7 358.5,-1.5 364,-1.5"/>
</g>
<!-- cancelled&#45;&gt;insufficient -->
<g id="edge3" class="edge transition">
<title>cancelled&#45;&gt;insufficient</title>
<path fill="none" stroke="black" d="M161.74,-18C207.97,-18 288.76,-18 341.05,-18"/>
<polygon fill="black" stroke="black" points="340.88,-21.5 350.88,-18 340.88,-14.5 340.88,-21.5"/>
<text text-anchor="start" x="180" y="-21" font-family="Helvetica,sans-Serif" font-size="10.00">Reset Cluster &#45; Reset installation &#160;&#160;</text>
</g>
</g>
</svg>
