<?xml version="1.0" encoding="UTF-8" standalone="no"?>
<!DOCTYPE svg PUBLIC "-//W3C//DTD SVG 1.1//EN"
 "http://www.w3.org/Graphics/SVG/1.1/DTD/svg11.dtd">
<!-- Generated by graphviz version 7.1.0 (0)
 -->
<!-- Title: state transitions Pages: 1 -->
<svg width="590pt" height="221pt"
 viewBox="0.00 0.00 589.50 221.29" xmlns="http://www.w3.org/2000/svg" xmlns:xlink="http://www.w3.org/1999/xlink">
<g id="graph0" class="graph" transform="scale(1 1) rotate(0) translate(4 217.29)">
<title>state transitions</title>
<polygon fill="white" stroke="none" points="-4,4 -4,-217.29 585.5,-217.29 585.5,4 -4,4"/>
<!-- installing -->
<g id="node1" class="node state regular">
<title>installing</title>
<polygon fill="#ffffff" fill-opacity="0.003922" stroke="none" stroke-width="2" points="577,-213.29 506,-213.29 506,-177.29 577,-177.29 577,-213.29"/>
<text text-anchor="start" x="517.5" y="-191.69" font-family="Helvetica,sans-Serif" font-size="12.00">installing</text>
<path fill="none" stroke="black" stroke-width="2" d="M518,-178.79C518,-178.79 565,-178.79 565,-178.79 570.5,-178.79 576,-184.29 576,-189.79 576,-189.79 576,-200.79 576,-200.79 576,-206.29 570.5,-211.79 565,-211.79 565,-211.79 518,-211.79 518,-211.79 512.5,-211.79 507,-206.29 507,-200.79 507,-200.79 507,-189.79 507,-189.79 507,-184.29 512.5,-178.79 518,-178.79"/>
</g>
<!-- insufficient -->
<g id="node2" class="node state regular">
<title>insufficient</title>
<polygon fill="#ffffff" fill-opacity="0.003922" stroke="none" stroke-width="2" points="581.5,-152.29 501.5,-152.29 501.5,-116.29 581.5,-116.29 581.5,-152.29"/>
<text text-anchor="start" x="512.5" y="-130.69" font-family="Helvetica,sans-Serif" font-size="12.00">insufficient</text>
<path fill="none" stroke="black" stroke-width="2" d="M513.5,-117.79C513.5,-117.79 569.5,-117.79 569.5,-117.79 575,-117.79 580.5,-123.29 580.5,-128.79 580.5,-128.79 580.5,-139.79 580.5,-139.79 580.5,-145.29 575,-150.79 569.5,-150.79 569.5,-150.79 513.5,-150.79 513.5,-150.79 508,-150.79 502.5,-145.29 502.5,-139.79 502.5,-139.79 502.5,-128.79 502.5,-128.79 502.5,-123.29 508,-117.79 513.5,-117.79"/>
</g>
<!-- preparing&#45;for&#45;installation -->
<g id="node3" class="node state regular">
<title>preparing&#45;for&#45;installation</title>
<polygon fill="#ffffff" fill-opacity="0.003922" stroke="none" stroke-width="2" points="200.5,-128.29 48.5,-128.29 48.5,-92.29 200.5,-92.29 200.5,-128.29"/>
<text text-anchor="start" x="59.5" y="-106.69" font-family="Helvetica,sans-Serif" font-size="12.00">preparing&#45;for&#45;installation</text>
<path fill="none" stroke="black" stroke-width="2" d="M60.5,-93.79C60.5,-93.79 188.5,-93.79 188.5,-93.79 194,-93.79 199.5,-99.29 199.5,-104.79 199.5,-104.79 199.5,-115.79 199.5,-115.79 199.5,-121.29 194,-126.79 188.5,-126.79 188.5,-126.79 60.5,-126.79 60.5,-126.79 55,-126.79 49.5,-121.29 49.5,-115.79 49.5,-115.79 49.5,-104.79 49.5,-104.79 49.5,-99.29 55,-93.79 60.5,-93.79"/>
</g>
<!-- preparing&#45;for&#45;installation&#45;&gt;installing -->
<g id="edge3" class="edge transition">
<title>preparing&#45;for&#45;installation&#45;&gt;installing</title>
<path fill="none" stroke="black" d="M150.66,-128.09C168.67,-139.88 193.98,-154.55 218.5,-162.29 313.59,-192.33 431.57,-196.58 495.02,-196.36"/>
<polygon fill="black" stroke="black" points="494.73,-199.86 504.7,-196.29 494.67,-192.86 494.73,-199.86"/>
<text text-anchor="start" x="220" y="-199.29" font-family="Helvetica,sans-Serif" font-size="10.00">RefreshStatus &#45; Refresh preparing cluster &#45; done preparing &#160;&#160;</text>
</g>
<!-- preparing&#45;for&#45;installation&#45;&gt;insufficient -->
<g id="edge4" class="edge transition">
<title>preparing&#45;for&#45;installation&#45;&gt;insufficient</title>
<path fill="none" stroke="black" d="M173.12,-128.17C187.49,-132.74 203.45,-137 218.5,-139.29 313.72,-153.79 426.61,-146.51 490.26,-140.2"/>
<polygon fill="black" stroke="black" points="490.46,-143.7 500.05,-139.19 489.75,-136.73 490.46,-143.7"/>
<text text-anchor="start" x="228.5" y="-150.29" font-family="Helvetica,sans-Serif" font-size="10.00">RefreshStatus &#45; Refresh preparing cluster &#45; insufficient &#160;&#160;</text>
</g>
<!-- preparing&#45;for&#45;installation&#45;&gt;insufficient -->
<g id="edge7" class="edge transition">
<title>preparing&#45;for&#45;installation&#45;&gt;insufficient</title>
<path fill="none" stroke="black" d="M200.38,-111.57C272.91,-113.3 385.93,-117.28 483.5,-126.29 485.7,-126.49 487.95,-126.72 490.22,-126.97"/>
<polygon fill="black" stroke="black" points="489.77,-130.44 500.11,-128.15 490.6,-123.49 489.77,-130.44"/>
<text text-anchor="start" x="274" y="-129.29" font-family="Helvetica,sans-Serif" font-size="10.00">Reset Cluster &#45; Reset installation &#160;&#160;</text>
</g>
<!-- preparing&#45;for&#45;installation&#45;&gt;preparing&#45;for&#45;installation -->
<g id="edge6" class="edge transition">
<title>preparing&#45;for&#45;installation&#45;&gt;preparing&#45;for&#45;installation</title>
<path fill="none" stroke="black" d="M83.78,-128.07C76.86,-137.61 90.44,-146.29 124.5,-146.29 144.19,-146.29 157.04,-143.39 163.03,-139.1"/>
<polygon fill="black" stroke="black" points="166.41,-140.05 164.92,-129.56 159.55,-138.69 166.41,-140.05"/>
<text text-anchor="start" x="0" y="-149.29" font-family="Helvetica,sans-Serif" font-size="10.00">RefreshStatus &#45; Maintain preparing&#45;for&#45;installation state &#160;&#160;</text>
</g>
<!-- ready -->
<g id="node4" class="node state regular">
<title>ready</title>
<polygon fill="#ffffff" fill-opacity="0.003922" stroke="none" stroke-width="2" points="569.5,-77.29 513.5,-77.29 513.5,-41.29 569.5,-41.29 569.5,-77.29"/>
<text text-anchor="start" x="526" y="-55.69" font-family="Helvetica,sans-Serif" font-size="12.00">ready</text>
<path fill="none" stroke="black" stroke-width="2" d="M525.5,-42.79C525.5,-42.79 557.5,-42.79 557.5,-42.79 563,-42.79 568.5,-48.29 568.5,-53.79 568.5,-53.79 568.5,-64.79 568.5,-64.79 568.5,-70.29 563,-75.79 557.5,-75.79 557.5,-75.79 525.5,-75.79 525.5,-75.79 520,-75.79 514.5,-70.29 514.5,-64.79 514.5,-64.79 514.5,-53.79 514.5,-53.79 514.5,-48.29 520,-42.79 525.5,-42.79"/>
</g>
<!-- preparing&#45;for&#45;installation&#45;&gt;ready -->
<g id="edge1" class="edge transition">
<title>preparing&#45;for&#45;installation&#45;&gt;ready</title>
<path fill="none" stroke="black" d="M200.32,-98.66C206.47,-97.82 212.58,-97.02 218.5,-96.29 335.93,-81.93 366.54,-89.06 483.5,-71.29 489.69,-70.35 496.21,-69.17 502.55,-67.91"/>
<polygon fill="black" stroke="black" points="503.09,-71.37 512.17,-65.91 501.66,-64.52 503.09,-71.37"/>
<text text-anchor="start" x="218.5" y="-99.29" font-family="Helvetica,sans-Serif" font-size="10.00">Cancel Installation &#45; Cancel installation of preparing cluster &#160;&#160;</text>
</g>
<!-- preparing&#45;for&#45;installation&#45;&gt;ready -->
<g id="edge2" class="edge transition">
<title>preparing&#45;for&#45;installation&#45;&gt;ready</title>
<path fill="none" stroke="black" d="M149.28,-92.48C167.25,-80.19 193.08,-64.92 218.5,-58.29 318.16,-32.32 441.13,-44.25 502.25,-52.97"/>
<polygon fill="black" stroke="black" points="501.73,-56.43 512.13,-54.44 502.76,-49.51 501.73,-56.43"/>
<text text-anchor="start" x="220.5" y="-61.29" font-family="Helvetica,sans-Serif" font-size="10.00">RefreshStatus &#45; Refresh preparing cluster &#45; detect timeout &#160;&#160;</text>
</g>
<!-- preparing&#45;for&#45;installation&#45;&gt;ready -->
<g id="edge5" class="edge transition">
<title>preparing&#45;for&#45;installation&#45;&gt;ready</title>
<path fill="none" stroke="black" d="M138.58,-92.56C154.74,-72.32 184.33,-40.32 218.5,-27.29 328.55,14.67 369.55,2.51 483.5,-27.29 490.88,-29.22 498.31,-32.34 505.26,-35.9"/>
<polygon fill="black" stroke="black" points="503.26,-38.79 513.71,-40.59 506.66,-32.67 503.26,-38.79"/>
<text text-anchor="start" x="240" y="-30.29" font-family="Helvetica,sans-Serif" font-size="10.00">RefreshStatus &#45; Refresh preparing cluster &#45; failed &#160;&#160;</text>
</g>
</g>
</svg>
