<?xml version="1.0" encoding="UTF-8" standalone="no"?>
<!DOCTYPE svg PUBLIC "-//W3C//DTD SVG 1.1//EN"
 "http://www.w3.org/Graphics/SVG/1.1/DTD/svg11.dtd">
<!-- Generated by graphviz version 12.1.0 (20240811.2233)
 -->
<!-- Title: state transitions Pages: 1 -->
<svg width="770pt" height="324pt"
 viewBox="0.00 0.00 770.38 323.51" xmlns="http://www.w3.org/2000/svg" xmlns:xlink="http://www.w3.org/1999/xlink">
<g id="graph0" class="graph" transform="scale(1 1) rotate(0) translate(4 319.51)">
<title>state transitions</title>
<polygon fill="white" stroke="none" points="-4,4 -4,-319.51 766.38,-319.51 766.38,4 -4,4"/>
<!-- cancelled -->
<g id="node1" class="node state regular">
<title>cancelled</title>
<polygon fill="#ffffff" fill-opacity="0.003922" stroke="none" stroke-width="2" points="702.75,-300.1 623.75,-300.1 623.75,-263.85 702.75,-263.85 702.75,-300.1"/>
<text text-anchor="start" x="634.75" y="-277.7" font-family="Helvetica,sans-Serif" font-size="12.00">cancelled</text>
<path fill="none" stroke="black" stroke-width="2" d="M636.17,-264.85C636.17,-264.85 690.33,-264.85 690.33,-264.85 696.04,-264.85 701.75,-270.55 701.75,-276.26 701.75,-276.26 701.75,-287.68 701.75,-287.68 701.75,-293.39 696.04,-299.1 690.33,-299.1 690.33,-299.1 636.17,-299.1 636.17,-299.1 630.46,-299.1 624.75,-293.39 624.75,-287.68 624.75,-287.68 624.75,-276.26 624.75,-276.26 624.75,-270.55 630.46,-264.85 636.17,-264.85"/>
</g>
<!-- error -->
<g id="node2" class="node state regular">
<title>error</title>
<polygon fill="#ffffff" fill-opacity="0.003922" stroke="none" stroke-width="2" points="691.25,-228.1 635.25,-228.1 635.25,-191.85 691.25,-191.85 691.25,-228.1"/>
<text text-anchor="start" x="648.62" y="-205.7" font-family="Helvetica,sans-Serif" font-size="12.00">error</text>
<path fill="none" stroke="black" stroke-width="2" d="M647.67,-192.85C647.67,-192.85 678.83,-192.85 678.83,-192.85 684.54,-192.85 690.25,-198.55 690.25,-204.26 690.25,-204.26 690.25,-215.68 690.25,-215.68 690.25,-221.39 684.54,-227.1 678.83,-227.1 678.83,-227.1 647.67,-227.1 647.67,-227.1 641.96,-227.1 636.25,-221.39 636.25,-215.68 636.25,-215.68 636.25,-204.26 636.25,-204.26 636.25,-198.55 641.96,-192.85 647.67,-192.85"/>
</g>
<!-- finalizing -->
<g id="node3" class="node state regular">
<title>finalizing</title>
<polygon fill="#ffffff" fill-opacity="0.003922" stroke="none" stroke-width="2" points="231.12,-192.1 156.62,-192.1 156.62,-155.85 231.12,-155.85 231.12,-192.1"/>
<text text-anchor="start" x="167.62" y="-169.7" font-family="Helvetica,sans-Serif" font-size="12.00">finalizing</text>
<path fill="none" stroke="black" stroke-width="2" d="M169.04,-156.85C169.04,-156.85 218.71,-156.85 218.71,-156.85 224.42,-156.85 230.12,-162.55 230.12,-168.26 230.12,-168.26 230.12,-179.68 230.12,-179.68 230.12,-185.39 224.42,-191.1 218.71,-191.1 218.71,-191.1 169.04,-191.1 169.04,-191.1 163.33,-191.1 157.62,-185.39 157.62,-179.68 157.62,-179.68 157.62,-168.26 157.62,-168.26 157.62,-162.55 163.33,-156.85 169.04,-156.85"/>
</g>
<!-- finalizing&#45;&gt;cancelled -->
<g id="edge1" class="edge transition">
<title>finalizing&#45;&gt;cancelled</title>
<path fill="none" stroke="black" d="M201.68,-192C209.84,-210.81 225.44,-239.42 249.12,-252.97 365.24,-319.39 530.78,-304.58 612.58,-291.54"/>
<polygon fill="black" stroke="black" points="613,-295.01 622.3,-289.92 611.86,-288.11 613,-295.01"/>
<text text-anchor="start" x="249.12" y="-306.01" font-family="Helvetica,sans-Serif" font-size="10.00">Cancel Installation &#45; Cancel installation of installing cluster &#160;&#160;</text>
</g>
<!-- finalizing&#45;&gt;error -->
<g id="edge2" class="edge transition">
<title>finalizing&#45;&gt;error</title>
<path fill="none" stroke="black" d="M208.33,-191.95C218.18,-203.51 232.66,-217.54 249.12,-223.97 316.7,-250.36 535.2,-226.34 624.1,-215.07"/>
<polygon fill="black" stroke="black" points="624.29,-218.57 633.76,-213.83 623.4,-211.63 624.29,-218.57"/>
<text text-anchor="start" x="290.75" y="-239.15" font-family="Helvetica,sans-Serif" font-size="10.00">RefreshStatus &#45; Timed out while installing &#160;&#160;</text>
</g>
<!-- finalizing&#45;&gt;error -->
<g id="edge3" class="edge transition">
<title>finalizing&#45;&gt;error</title>
<path fill="none" stroke="black" d="M230.85,-184.32C236.91,-185.76 243.16,-187.05 249.12,-187.97 320.73,-199 536.01,-206.31 624.07,-208.91"/>
<polygon fill="black" stroke="black" points="623.77,-212.4 633.87,-209.2 623.98,-205.41 623.77,-212.4"/>
<text text-anchor="start" x="291.12" y="-209.51" font-family="Helvetica,sans-Serif" font-size="10.00">RefreshStatus &#45; Timed out while finalizing &#160;&#160;</text>
</g>
<!-- finalizing&#45;&gt;error -->
<g id="edge4" class="edge transition">
<title>finalizing&#45;&gt;error</title>
<path fill="none" stroke="black" d="M231.08,-169.71C295.12,-163.05 432.36,-152.74 546.12,-171.22 573.35,-175.64 602.81,-185.54 625.25,-194.22"/>
<polygon fill="black" stroke="black" points="623.66,-197.36 634.25,-197.8 626.25,-190.85 623.66,-197.36"/>
<text text-anchor="start" x="253.25" y="-174.47" font-family="Helvetica,sans-Serif" font-size="10.00">RefreshStatus &#45; Finalizing stage timed out. &#160;Move to error &#160;&#160;</text>
</g>
<!-- finalizing&#45;&gt;finalizing -->
<g id="edge5" class="edge transition">
<title>finalizing&#45;&gt;finalizing</title>
<path fill="none" stroke="black" d="M181.67,-191.81C179.59,-201.38 183.66,-210.1 193.88,-210.1 199.62,-210.1 203.42,-207.34 205.28,-203.22"/>
<polygon fill="black" stroke="black" points="208.76,-203.55 205.98,-193.32 201.78,-203.05 208.76,-203.55"/>
<text text-anchor="start" x="0" y="-213.35" font-family="Helvetica,sans-Serif" font-size="10.00">RefreshStatus &#45; Finalizing stage is taking too long. &#160;Emit an appropriate event &#160;&#160;</text>
</g>
<!-- finalizing&#45;&gt;finalizing -->
<g id="edge7" class="edge transition">
<title>finalizing&#45;&gt;finalizing</title>
<path fill="none" stroke="black" d="M173.46,-191.99C162.53,-209.25 169.33,-228.1 193.88,-228.1 213.43,-228.1 221.72,-216.13 218.76,-202.53"/>
<polygon fill="black" stroke="black" points="222.01,-201.23 214.88,-193.38 215.56,-203.96 222.01,-201.23"/>
<text text-anchor="start" x="89.25" y="-231.35" font-family="Helvetica,sans-Serif" font-size="10.00">RefreshStatus &#45; Update AMS subscription &#160;&#160;</text>
</g>
<!-- finalizing&#45;&gt;finalizing -->
<g id="edge9" class="edge transition">
<title>finalizing&#45;&gt;finalizing</title>
<path fill="none" stroke="black" d="M168.1,-192.08C145.29,-216.45 153.88,-246.1 193.88,-246.1 229.03,-246.1 239.92,-223.2 226.56,-201.1"/>
<polygon fill="black" stroke="black" points="229.43,-199.1 220.57,-193.28 223.87,-203.35 229.43,-199.1"/>
<text text-anchor="start" x="91.5" y="-249.35" font-family="Helvetica,sans-Serif" font-size="10.00">RefreshStatus &#45; Maintain finalizing state &#160;&#160;</text>
</g>
<!-- installing&#45;pending&#45;user&#45;action -->
<g id="node4" class="node state regular">
<title>installing&#45;pending&#45;user&#45;action</title>
<polygon fill="#ffffff" fill-opacity="0.003922" stroke="none" stroke-width="2" points="762.38,-165.1 564.12,-165.1 564.12,-128.85 762.38,-128.85 762.38,-165.1"/>
<text text-anchor="start" x="575.12" y="-142.7" font-family="Helvetica,sans-Serif" font-size="12.00">installing&#45;pending&#45;user&#45;action</text>
<path fill="none" stroke="black" stroke-width="2" d="M576.54,-129.85C576.54,-129.85 749.96,-129.85 749.96,-129.85 755.67,-129.85 761.38,-135.55 761.38,-141.26 761.38,-141.26 761.38,-152.68 761.38,-152.68 761.38,-158.39 755.67,-164.1 749.96,-164.1 749.96,-164.1 576.54,-164.1 576.54,-164.1 570.83,-164.1 565.12,-158.39 565.12,-152.68 565.12,-152.68 565.12,-141.26 565.12,-141.26 565.12,-135.55 570.83,-129.85 576.54,-129.85"/>
</g>
<!-- finalizing&#45;&gt;installing&#45;pending&#45;user&#45;action -->
<g id="edge6" class="edge transition">
<title>finalizing&#45;&gt;installing&#45;pending&#45;user&#45;action</title>
<path fill="none" stroke="black" d="M216.68,-155.96C226.07,-149.33 237.53,-142.62 249.12,-139.22 375.81,-102.13 414.2,-134.82 546.12,-139.22 548.36,-139.3 550.62,-139.38 552.89,-139.47"/>
<polygon fill="black" stroke="black" points="552.73,-142.96 562.87,-139.91 553.04,-135.97 552.73,-142.96"/>
<text text-anchor="start" x="287" y="-142.47" font-family="Helvetica,sans-Serif" font-size="10.00">RefreshStatus &#45; TODO: Name this transition &#160;&#160;</text>
</g>
<!-- installed -->
<g id="node5" class="node state regular">
<title>installed</title>
<polygon fill="#ffffff" fill-opacity="0.003922" stroke="none" stroke-width="2" points="699,-111.1 627.5,-111.1 627.5,-74.85 699,-74.85 699,-111.1"/>
<text text-anchor="start" x="638.5" y="-88.7" font-family="Helvetica,sans-Serif" font-size="12.00">installed</text>
<path fill="none" stroke="black" stroke-width="2" d="M639.92,-75.85C639.92,-75.85 686.58,-75.85 686.58,-75.85 692.29,-75.85 698,-81.55 698,-87.26 698,-87.26 698,-98.68 698,-98.68 698,-104.39 692.29,-110.1 686.58,-110.1 686.58,-110.1 639.92,-110.1 639.92,-110.1 634.21,-110.1 628.5,-104.39 628.5,-98.68 628.5,-98.68 628.5,-87.26 628.5,-87.26 628.5,-81.55 634.21,-75.85 639.92,-75.85"/>
</g>
<!-- finalizing&#45;&gt;installed -->
<g id="edge8" class="edge transition">
<title>finalizing&#45;&gt;installed</title>
<path fill="none" stroke="black" d="M203.37,-155.89C212.23,-139.38 227.8,-115.95 249.12,-105.22 369.94,-44.43 536.79,-66.51 616.41,-82.39"/>
<polygon fill="black" stroke="black" points="615.52,-85.78 626.02,-84.37 616.93,-78.93 615.52,-85.78"/>
<text text-anchor="start" x="306.5" y="-108.47" font-family="Helvetica,sans-Serif" font-size="10.00">RefreshStatus &#45; Finalizing complete &#160;&#160;</text>
</g>
<!-- insufficient -->
<g id="node6" class="node state regular">
<title>insufficient</title>
<polygon fill="#ffffff" fill-opacity="0.003922" stroke="none" stroke-width="2" points="706.5,-57.1 620,-57.1 620,-20.85 706.5,-20.85 706.5,-57.1"/>
<text text-anchor="start" x="631" y="-34.7" font-family="Helvetica,sans-Serif" font-size="12.00">insufficient</text>
<path fill="none" stroke="black" stroke-width="2" d="M632.42,-21.85C632.42,-21.85 694.08,-21.85 694.08,-21.85 699.79,-21.85 705.5,-27.55 705.5,-33.26 705.5,-33.26 705.5,-44.68 705.5,-44.68 705.5,-50.39 699.79,-56.1 694.08,-56.1 694.08,-56.1 632.42,-56.1 632.42,-56.1 626.71,-56.1 621,-50.39 621,-44.68 621,-44.68 621,-33.26 621,-33.26 621,-27.55 626.71,-21.85 632.42,-21.85"/>
</g>
<!-- finalizing&#45;&gt;insufficient -->
<g id="edge10" class="edge transition">
<title>finalizing&#45;&gt;insufficient</title>
<path fill="none" stroke="black" d="M196.66,-155.99C200.56,-127.53 212.65,-72.8 249.12,-48.22 358.76,25.66 524.63,-2.03 608.96,-23.35"/>
<polygon fill="black" stroke="black" points="608.03,-26.72 618.59,-25.85 609.8,-19.95 608.03,-26.72"/>
<text text-anchor="start" x="312.88" y="-51.47" font-family="Helvetica,sans-Serif" font-size="10.00">Reset Cluster &#45; Reset installation &#160;&#160;</text>
</g>
</g>
</svg>
