<?xml version="1.0" encoding="UTF-8" standalone="no"?>
<!DOCTYPE svg PUBLIC "-//W3C//DTD SVG 1.1//EN"
 "http://www.w3.org/Graphics/SVG/1.1/DTD/svg11.dtd">
<!-- Generated by graphviz version 5.0.0 (0)
 -->
<!-- Title: state transitions Pages: 1 -->
<svg width="613pt" height="136pt"
 viewBox="0.00 0.00 612.50 136.00" xmlns="http://www.w3.org/2000/svg" xmlns:xlink="http://www.w3.org/1999/xlink">
<g id="graph0" class="graph" transform="scale(1 1) rotate(0) translate(4 132)">
<title>state transitions</title>
<polygon fill="white" stroke="transparent" points="-4,4 -4,-132 608.5,-132 608.5,4 -4,4"/>
<!-- insufficient -->
<g id="node1" class="node state regular">
<title>insufficient</title>
<polygon fill="#ffffff" fill-opacity="0.003922" stroke="transparent" stroke-width="2" points="604.5,-97 524.5,-97 524.5,-61 604.5,-61 604.5,-97"/>
<text text-anchor="start" x="535.5" y="-75.4" font-family="Helvetica,sans-Serif" font-size="12.00">insufficient</text>
<path fill="none" stroke="black" stroke-width="2" d="M536.5,-62.5C536.5,-62.5 592.5,-62.5 592.5,-62.5 598,-62.5 603.5,-68 603.5,-73.5 603.5,-73.5 603.5,-84.5 603.5,-84.5 603.5,-90 598,-95.5 592.5,-95.5 592.5,-95.5 536.5,-95.5 536.5,-95.5 531,-95.5 525.5,-90 525.5,-84.5 525.5,-84.5 525.5,-73.5 525.5,-73.5 525.5,-68 531,-62.5 536.5,-62.5"/>
</g>
<!-- pending&#45;for&#45;input -->
<g id="node2" class="node state regular">
<title>pending&#45;for&#45;input</title>
<polygon fill="#ffffff" fill-opacity="0.003922" stroke="transparent" stroke-width="2" points="204.5,-70 91.5,-70 91.5,-34 204.5,-34 204.5,-70"/>
<text text-anchor="start" x="103" y="-48.4" font-family="Helvetica,sans-Serif" font-size="12.00">pending&#45;for&#45;input</text>
<path fill="none" stroke="black" stroke-width="2" d="M103.5,-35.5C103.5,-35.5 192.5,-35.5 192.5,-35.5 198,-35.5 203.5,-41 203.5,-46.5 203.5,-46.5 203.5,-57.5 203.5,-57.5 203.5,-63 198,-68.5 192.5,-68.5 192.5,-68.5 103.5,-68.5 103.5,-68.5 98,-68.5 92.5,-63 92.5,-57.5 92.5,-57.5 92.5,-46.5 92.5,-46.5 92.5,-41 98,-35.5 103.5,-35.5"/>
</g>
<!-- pending&#45;for&#45;input&#45;&gt;insufficient -->
<g id="edge2" class="edge transition">
<title>pending&#45;for&#45;input&#45;&gt;insufficient</title>
<path fill="none" stroke="black" d="M204.69,-61.8C210.69,-62.64 216.71,-63.4 222.5,-64 325.87,-74.67 447.64,-77.76 514.09,-78.65"/>
<polygon fill="black" stroke="black" points="514.22,-82.15 524.27,-78.77 514.31,-75.15 514.22,-82.15"/>
<text text-anchor="start" x="222.5" y="-81" font-family="Helvetica,sans-Serif" font-size="10.00">RefreshStatus &#45; Refresh discovering cluster &#45; detect insufficient &#160;&#160;</text>
</g>
<!-- pending&#45;for&#45;input&#45;&gt;insufficient -->
<g id="edge4" class="edge transition">
<title>pending&#45;for&#45;input&#45;&gt;insufficient</title>
<path fill="none" stroke="black" d="M204.7,-44.05C275.78,-35.67 402.06,-26.73 506.5,-51 512.28,-52.34 518.15,-54.36 523.81,-56.7"/>
<polygon fill="black" stroke="black" points="522.55,-59.97 533.1,-60.9 525.43,-53.6 522.55,-59.97"/>
<text text-anchor="start" x="263" y="-54" font-family="Helvetica,sans-Serif" font-size="10.00">RefreshStatus &#45; TODO: Name this transition &#160;&#160;</text>
</g>
<!-- pending&#45;for&#45;input&#45;&gt;pending&#45;for&#45;input -->
<g id="edge1" class="edge transition">
<title>pending&#45;for&#45;input&#45;&gt;pending&#45;for&#45;input</title>
<path fill="none" stroke="black" d="M128.46,-70.15C125.46,-79.54 131.97,-88 148,-88 157.77,-88 164,-84.86 166.7,-80.28"/>
<polygon fill="black" stroke="black" points="170.2,-80.41 167.54,-70.15 163.23,-79.83 170.2,-80.41"/>
<text text-anchor="start" x="0" y="-91" font-family="Helvetica,sans-Serif" font-size="10.00">RefreshStatus &#45; Refresh discovering cluster &#45; detect required input &#160;&#160;</text>
</g>
<!-- pending&#45;for&#45;input&#45;&gt;pending&#45;for&#45;input -->
<g id="edge3" class="edge transition">
<title>pending&#45;for&#45;input&#45;&gt;pending&#45;for&#45;input</title>
<path fill="none" stroke="black" d="M115.25,-70.26C98.27,-87.4 109.19,-106 148,-106 180.75,-106 193.64,-92.76 186.66,-78.32"/>
<polygon fill="black" stroke="black" points="189.48,-76.25 180.75,-70.26 183.84,-80.39 189.48,-76.25"/>
<text text-anchor="start" x="46.5" y="-109" font-family="Helvetica,sans-Serif" font-size="10.00">RefreshStatus &#45; TODO: Name this transition &#160;&#160;</text>
</g>
<!-- ready -->
<g id="node3" class="node state regular">
<title>ready</title>
<polygon fill="#ffffff" fill-opacity="0.003922" stroke="transparent" stroke-width="2" points="592.5,-36 536.5,-36 536.5,0 592.5,0 592.5,-36"/>
<text text-anchor="start" x="549" y="-14.4" font-family="Helvetica,sans-Serif" font-size="12.00">ready</text>
<path fill="none" stroke="black" stroke-width="2" d="M548.5,-1.5C548.5,-1.5 580.5,-1.5 580.5,-1.5 586,-1.5 591.5,-7 591.5,-12.5 591.5,-12.5 591.5,-23.5 591.5,-23.5 591.5,-29 586,-34.5 580.5,-34.5 580.5,-34.5 548.5,-34.5 548.5,-34.5 543,-34.5 537.5,-29 537.5,-23.5 537.5,-23.5 537.5,-12.5 537.5,-12.5 537.5,-7 543,-1.5 548.5,-1.5"/>
</g>
<!-- pending&#45;for&#45;input&#45;&gt;ready -->
<g id="edge5" class="edge transition">
<title>pending&#45;for&#45;input&#45;&gt;ready</title>
<path fill="none" stroke="black" d="M182.81,-33.87C194.97,-28.28 209.02,-22.85 222.5,-20 330.64,2.85 462.42,-6.56 525.84,-13.34"/>
<polygon fill="black" stroke="black" points="525.81,-16.86 536.14,-14.48 526.59,-9.9 525.81,-16.86"/>
<text text-anchor="start" x="233.5" y="-23" font-family="Helvetica,sans-Serif" font-size="10.00">RefreshStatus &#45; Refresh discovering cluster &#45; detect ready &#160;&#160;</text>
</g>
</g>
</svg>
