<?xml version="1.0" encoding="UTF-8" standalone="no"?>
<!DOCTYPE svg PUBLIC "-//W3C//DTD SVG 1.1//EN"
 "http://www.w3.org/Graphics/SVG/1.1/DTD/svg11.dtd">
<!-- Generated by graphviz version 5.0.0 (0)
 -->
<!-- Title: state transitions Pages: 1 -->
<svg width="440pt" height="102pt"
 viewBox="0.00 0.00 440.00 102.00" xmlns="http://www.w3.org/2000/svg" xmlns:xlink="http://www.w3.org/1999/xlink">
<g id="graph0" class="graph" transform="scale(1 1) rotate(0) translate(4 98)">
<title>state transitions</title>
<polygon fill="white" stroke="transparent" points="-4,4 -4,-98 436,-98 436,4 -4,4"/>
<!-- cancelled -->
<g id="node1" class="node state regular">
<title>cancelled</title>
<polygon fill="#ffffff" fill-opacity="0.003922" stroke="transparent" stroke-width="2" points="162,-36 88,-36 88,0 162,0 162,-36"/>
<text text-anchor="start" x="99" y="-14.4" font-family="Helvetica,sans-Serif" font-size="12.00">cancelled</text>
<path fill="none" stroke="black" stroke-width="2" d="M100,-1.5C100,-1.5 150,-1.5 150,-1.5 155.5,-1.5 161,-7 161,-12.5 161,-12.5 161,-23.5 161,-23.5 161,-29 155.5,-34.5 150,-34.5 150,-34.5 100,-34.5 100,-34.5 94.5,-34.5 89,-29 89,-23.5 89,-23.5 89,-12.5 89,-12.5 89,-7 94.5,-1.5 100,-1.5"/>
</g>
<!-- cancelled&#45;&gt;cancelled -->
<g id="edge1" class="edge transition">
<title>cancelled&#45;&gt;cancelled</title>
<path fill="none" stroke="black" d="M113.06,-36.15C111.22,-45.54 115.2,-54 125,-54 130.97,-54 134.78,-50.86 136.43,-46.28"/>
<polygon fill="black" stroke="black" points="139.93,-46.32 136.94,-36.15 132.94,-45.96 139.93,-46.32"/>
<text text-anchor="start" x="0" y="-57" font-family="Helvetica,sans-Serif" font-size="10.00">RefreshStatus &#45; Log collection timeout during cancelled &#160;&#160;</text>
</g>
<!-- cancelled&#45;&gt;cancelled -->
<g id="edge2" class="edge transition">
<title>cancelled&#45;&gt;cancelled</title>
<path fill="none" stroke="black" d="M104.99,-36.26C94.61,-53.4 101.28,-72 125,-72 144.46,-72 152.44,-59.49 148.96,-45.52"/>
<polygon fill="black" stroke="black" points="152.15,-44.09 145.01,-36.26 145.71,-46.83 152.15,-44.09"/>
<text text-anchor="start" x="31.5" y="-75" font-family="Helvetica,sans-Serif" font-size="10.00">RefreshStatus &#45; Maintain cancelled state &#160;&#160;</text>
</g>
<!-- insufficient -->
<g id="node2" class="node state regular">
<title>insufficient</title>
<polygon fill="#ffffff" fill-opacity="0.003922" stroke="transparent" stroke-width="2" points="432,-36 352,-36 352,0 432,0 432,-36"/>
<text text-anchor="start" x="363" y="-14.4" font-family="Helvetica,sans-Serif" font-size="12.00">insufficient</text>
<path fill="none" stroke="black" stroke-width="2" d="M364,-1.5C364,-1.5 420,-1.5 420,-1.5 425.5,-1.5 431,-7 431,-12.5 431,-12.5 431,-23.5 431,-23.5 431,-29 425.5,-34.5 420,-34.5 420,-34.5 364,-34.5 364,-34.5 358.5,-34.5 353,-29 353,-23.5 353,-23.5 353,-12.5 353,-12.5 353,-7 358.5,-1.5 364,-1.5"/>
</g>
<!-- cancelled&#45;&gt;insufficient -->
<g id="edge3" class="edge transition">
<title>cancelled&#45;&gt;insufficient</title>
<path fill="none" stroke="black" d="M162.01,-18C208.45,-18 289.41,-18 341.58,-18"/>
<polygon fill="black" stroke="black" points="341.61,-21.5 351.61,-18 341.61,-14.5 341.61,-21.5"/>
<text text-anchor="start" x="180" y="-21" font-family="Helvetica,sans-Serif" font-size="10.00">Reset Cluster &#45; Reset installation &#160;&#160;</text>
</g>
</g>
</svg>
