<?xml version="1.0" encoding="UTF-8" standalone="no"?>
<!DOCTYPE svg PUBLIC "-//W3C//DTD SVG 1.1//EN"
 "http://www.w3.org/Graphics/SVG/1.1/DTD/svg11.dtd">
<!-- Generated by graphviz version 5.0.0 (0)
 -->
<!-- Title: state transitions Pages: 1 -->
<svg width="651pt" height="189pt"
 viewBox="0.00 0.00 651.00 188.54" xmlns="http://www.w3.org/2000/svg" xmlns:xlink="http://www.w3.org/1999/xlink">
<g id="graph0" class="graph" transform="scale(1 1) rotate(0) translate(4 184.54)">
<title>state transitions</title>
<polygon fill="white" stroke="transparent" points="-4,4 -4,-184.54 647,-184.54 647,4 -4,4"/>
<!-- insufficient -->
<g id="node1" class="node state regular">
<title>insufficient</title>
<polygon fill="#ffffff" fill-opacity="0.003922" stroke="transparent" stroke-width="2" points="607,-165.54 527,-165.54 527,-129.54 607,-129.54 607,-165.54"/>
<text text-anchor="start" x="538" y="-143.94" font-family="Helvetica,sans-Serif" font-size="12.00">insufficient</text>
<path fill="none" stroke="black" stroke-width="2" d="M539,-131.04C539,-131.04 595,-131.04 595,-131.04 600.5,-131.04 606,-136.54 606,-142.04 606,-142.04 606,-153.04 606,-153.04 606,-158.54 600.5,-164.04 595,-164.04 595,-164.04 539,-164.04 539,-164.04 533.5,-164.04 528,-158.54 528,-153.04 528,-153.04 528,-142.04 528,-142.04 528,-136.54 533.5,-131.04 539,-131.04"/>
</g>
<!-- pending&#45;for&#45;input -->
<g id="node2" class="node state regular">
<title>pending&#45;for&#45;input</title>
<polygon fill="#ffffff" fill-opacity="0.003922" stroke="transparent" stroke-width="2" points="623.5,-101.54 510.5,-101.54 510.5,-65.54 623.5,-65.54 623.5,-101.54"/>
<text text-anchor="start" x="522" y="-79.94" font-family="Helvetica,sans-Serif" font-size="12.00">pending&#45;for&#45;input</text>
<path fill="none" stroke="black" stroke-width="2" d="M522.5,-67.04C522.5,-67.04 611.5,-67.04 611.5,-67.04 617,-67.04 622.5,-72.54 622.5,-78.04 622.5,-78.04 622.5,-89.04 622.5,-89.04 622.5,-94.54 617,-100.04 611.5,-100.04 611.5,-100.04 522.5,-100.04 522.5,-100.04 517,-100.04 511.5,-94.54 511.5,-89.04 511.5,-89.04 511.5,-78.04 511.5,-78.04 511.5,-72.54 517,-67.04 522.5,-67.04"/>
</g>
<!-- preparing&#45;for&#45;installation -->
<g id="node3" class="node state regular">
<title>preparing&#45;for&#45;installation</title>
<polygon fill="#ffffff" fill-opacity="0.003922" stroke="transparent" stroke-width="2" points="643,-40.54 491,-40.54 491,-4.54 643,-4.54 643,-40.54"/>
<text text-anchor="start" x="502" y="-18.94" font-family="Helvetica,sans-Serif" font-size="12.00">preparing&#45;for&#45;installation</text>
<path fill="none" stroke="black" stroke-width="2" d="M503,-6.04C503,-6.04 631,-6.04 631,-6.04 636.5,-6.04 642,-11.54 642,-17.04 642,-17.04 642,-28.04 642,-28.04 642,-33.54 636.5,-39.04 631,-39.04 631,-39.04 503,-39.04 503,-39.04 497.5,-39.04 492,-33.54 492,-28.04 492,-28.04 492,-17.04 492,-17.04 492,-11.54 497.5,-6.04 503,-6.04"/>
</g>
<!-- ready -->
<g id="node4" class="node state regular">
<title>ready</title>
<polygon fill="#ffffff" fill-opacity="0.003922" stroke="transparent" stroke-width="2" points="159,-108.54 103,-108.54 103,-72.54 159,-72.54 159,-108.54"/>
<text text-anchor="start" x="115.5" y="-86.94" font-family="Helvetica,sans-Serif" font-size="12.00">ready</text>
<path fill="none" stroke="black" stroke-width="2" d="M115,-74.04C115,-74.04 147,-74.04 147,-74.04 152.5,-74.04 158,-79.54 158,-85.04 158,-85.04 158,-96.04 158,-96.04 158,-101.54 152.5,-107.04 147,-107.04 147,-107.04 115,-107.04 115,-107.04 109.5,-107.04 104,-101.54 104,-96.04 104,-96.04 104,-85.04 104,-85.04 104,-79.54 109.5,-74.04 115,-74.04"/>
</g>
<!-- ready&#45;&gt;insufficient -->
<g id="edge3" class="edge transition">
<title>ready&#45;&gt;insufficient</title>
<path fill="none" stroke="black" d="M144.3,-108.77C152.3,-118.94 163.69,-130.72 177,-136.54 290.21,-186.06 440.21,-170.43 516.65,-157.47"/>
<polygon fill="black" stroke="black" points="517.69,-160.84 526.94,-155.67 516.48,-153.95 517.69,-160.84"/>
<text text-anchor="start" x="183" y="-172.54" font-family="Helvetica,sans-Serif" font-size="10.00">RefreshStatus &#45; Refresh discovering cluster &#45; detect insufficient &#160;&#160;</text>
</g>
<!-- ready&#45;&gt;insufficient -->
<g id="edge5" class="edge transition">
<title>ready&#45;&gt;insufficient</title>
<path fill="none" stroke="black" d="M159.42,-98.73C165.19,-100.21 171.26,-101.58 177,-102.54 307.08,-124.29 342.83,-102.3 473,-123.54 487.43,-125.89 502.9,-129.45 516.98,-133.11"/>
<polygon fill="black" stroke="black" points="516.4,-136.58 526.97,-135.78 518.21,-129.81 516.4,-136.58"/>
<text text-anchor="start" x="223.5" y="-126.54" font-family="Helvetica,sans-Serif" font-size="10.00">RefreshStatus &#45; TODO: Name this transition &#160;&#160;</text>
</g>
<!-- ready&#45;&gt;pending&#45;for&#45;input -->
<g id="edge2" class="edge transition">
<title>ready&#45;&gt;pending&#45;for&#45;input</title>
<path fill="none" stroke="black" d="M159.15,-90.1C226.56,-89.01 403.12,-86.16 500.01,-84.6"/>
<polygon fill="black" stroke="black" points="500.33,-88.1 510.28,-84.43 500.22,-81.1 500.33,-88.1"/>
<text text-anchor="start" x="177" y="-92.54" font-family="Helvetica,sans-Serif" font-size="10.00">RefreshStatus &#45; Refresh discovering cluster &#45; detect required input &#160;&#160;</text>
</g>
<!-- ready&#45;&gt;pending&#45;for&#45;input -->
<g id="edge4" class="edge transition">
<title>ready&#45;&gt;pending&#45;for&#45;input</title>
<path fill="none" stroke="black" d="M159.42,-75.46C165.07,-73.01 171.11,-70.84 177,-69.54 305.43,-41.04 341.81,-59.72 473,-69.54 481.75,-70.19 490.93,-71.19 499.97,-72.36"/>
<polygon fill="black" stroke="black" points="499.71,-75.85 510.09,-73.74 500.65,-68.92 499.71,-75.85"/>
<text text-anchor="start" x="223.5" y="-72.54" font-family="Helvetica,sans-Serif" font-size="10.00">RefreshStatus &#45; TODO: Name this transition &#160;&#160;</text>
</g>
<!-- ready&#45;&gt;preparing&#45;for&#45;installation -->
<g id="edge1" class="edge transition">
<title>ready&#45;&gt;preparing&#45;for&#45;installation</title>
<path fill="none" stroke="black" d="M142.24,-72.4C150.07,-60.45 162.05,-45.74 177,-38.54 273.14,7.82 398.69,3.08 480.78,-7.37"/>
<polygon fill="black" stroke="black" points="480.45,-10.85 490.82,-8.7 481.37,-3.91 480.45,-10.85"/>
<text text-anchor="start" x="232.5" y="-41.54" font-family="Helvetica,sans-Serif" font-size="10.00">PrepareForInstallation &#45; Start installation &#160;&#160;</text>
</g>
<!-- ready&#45;&gt;ready -->
<g id="edge6" class="edge transition">
<title>ready&#45;&gt;ready</title>
<path fill="none" stroke="black" d="M102.89,-101.78C85.82,-113.45 95.19,-126.54 131,-126.54 159.53,-126.54 171.28,-118.23 166.24,-108.95"/>
<polygon fill="black" stroke="black" points="168.65,-106.4 159.11,-101.78 163.68,-111.34 168.65,-106.4"/>
<text text-anchor="start" x="0" y="-129.54" font-family="Helvetica,sans-Serif" font-size="10.00">RefreshStatus &#45; Refresh discovering cluster &#45; detect ready &#160;&#160;</text>
</g>
</g>
</svg>
