<?xml version="1.0" encoding="UTF-8" standalone="no"?>
<!DOCTYPE svg PUBLIC "-//W3C//DTD SVG 1.1//EN"
 "http://www.w3.org/Graphics/SVG/1.1/DTD/svg11.dtd">
<!-- Generated by graphviz version 12.1.0 (20240811.2233)
 -->
<!-- Title: state transitions Pages: 1 -->
<svg width="703pt" height="142pt"
 viewBox="0.00 0.00 702.88 141.91" xmlns="http://www.w3.org/2000/svg" xmlns:xlink="http://www.w3.org/1999/xlink">
<g id="graph0" class="graph" transform="scale(1 1) rotate(0) translate(4 137.91)">
<title>state transitions</title>
<polygon fill="white" stroke="none" points="-4,4 -4,-137.91 698.88,-137.91 698.88,4 -4,4"/>
<!-- insufficient -->
<g id="node1" class="node state regular">
<title>insufficient</title>
<polygon fill="#ffffff" fill-opacity="0.003922" stroke="none" stroke-width="2" points="201.88,-72.41 115.38,-72.41 115.38,-36.16 201.88,-36.16 201.88,-72.41"/>
<text text-anchor="start" x="126.38" y="-50.01" font-family="Helvetica,sans-Serif" font-size="12.00">insufficient</text>
<path fill="none" stroke="black" stroke-width="2" d="M127.79,-37.16C127.79,-37.16 189.46,-37.16 189.46,-37.16 195.17,-37.16 200.88,-42.87 200.88,-48.57 200.88,-48.57 200.88,-59.99 200.88,-59.99 200.88,-65.7 195.17,-71.41 189.46,-71.41 189.46,-71.41 127.79,-71.41 127.79,-71.41 122.08,-71.41 116.38,-65.7 116.38,-59.99 116.38,-59.99 116.38,-48.57 116.38,-48.57 116.38,-42.87 122.08,-37.16 127.79,-37.16"/>
</g>
<!-- insufficient&#45;&gt;insufficient -->
<g id="edge2" class="edge transition">
<title>insufficient&#45;&gt;insufficient</title>
<path fill="none" stroke="black" d="M138.22,-72.13C134.75,-81.69 141.56,-90.41 158.62,-90.41 168.23,-90.41 174.58,-87.65 177.68,-83.54"/>
<polygon fill="black" stroke="black" points="181.16,-83.97 178.85,-73.63 174.2,-83.15 181.16,-83.97"/>
<text text-anchor="start" x="0" y="-93.66" font-family="Helvetica,sans-Serif" font-size="10.00">RefreshStatus &#45; Refresh discovering cluster &#45; detect insufficient &#160;&#160;</text>
</g>
<!-- insufficient&#45;&gt;insufficient -->
<g id="edge4" class="edge transition">
<title>insufficient&#45;&gt;insufficient</title>
<path fill="none" stroke="black" d="M124.5,-72.3C106.24,-89.56 117.61,-108.41 158.62,-108.41 192.59,-108.41 206.22,-95.49 199.54,-81.24"/>
<polygon fill="black" stroke="black" points="202.5,-79.35 193.66,-73.51 196.93,-83.59 202.5,-79.35"/>
<text text-anchor="start" x="48" y="-111.66" font-family="Helvetica,sans-Serif" font-size="10.00">RefreshStatus &#45; TODO: Name this transition &#160;&#160;</text>
</g>
<!-- pending&#45;for&#45;input -->
<g id="node2" class="node state regular">
<title>pending&#45;for&#45;input</title>
<polygon fill="#ffffff" fill-opacity="0.003922" stroke="none" stroke-width="2" points="694.88,-99.41 569.38,-99.41 569.38,-63.16 694.88,-63.16 694.88,-99.41"/>
<text text-anchor="start" x="580.38" y="-77.01" font-family="Helvetica,sans-Serif" font-size="12.00">pending&#45;for&#45;input</text>
<path fill="none" stroke="black" stroke-width="2" d="M581.79,-64.16C581.79,-64.16 682.46,-64.16 682.46,-64.16 688.17,-64.16 693.88,-69.87 693.88,-75.57 693.88,-75.57 693.88,-86.99 693.88,-86.99 693.88,-92.7 688.17,-98.41 682.46,-98.41 682.46,-98.41 581.79,-98.41 581.79,-98.41 576.08,-98.41 570.38,-92.7 570.38,-86.99 570.38,-86.99 570.38,-75.57 570.38,-75.57 570.38,-69.87 576.08,-64.16 581.79,-64.16"/>
</g>
<!-- insufficient&#45;&gt;pending&#45;for&#45;input -->
<g id="edge1" class="edge transition">
<title>insufficient&#45;&gt;pending&#45;for&#45;input</title>
<path fill="none" stroke="black" d="M201.57,-65.14C207.67,-66.4 213.91,-67.5 219.88,-68.28 337.58,-83.67 475.77,-84.56 558.25,-83.29"/>
<polygon fill="black" stroke="black" points="558.06,-86.79 567.99,-83.12 557.94,-79.79 558.06,-86.79"/>
<text text-anchor="start" x="219.88" y="-86.94" font-family="Helvetica,sans-Serif" font-size="10.00">RefreshStatus &#45; Refresh discovering cluster &#45; detect required input &#160;&#160;</text>
</g>
<!-- insufficient&#45;&gt;pending&#45;for&#45;input -->
<g id="edge3" class="edge transition">
<title>insufficient&#45;&gt;pending&#45;for&#45;input</title>
<path fill="none" stroke="black" d="M201.8,-48.93C274.06,-40.89 425.88,-28.89 551.38,-51.53 561.1,-53.29 571.18,-56.15 580.77,-59.43"/>
<polygon fill="black" stroke="black" points="579.33,-62.63 589.92,-62.75 581.72,-56.05 579.33,-62.63"/>
<text text-anchor="start" x="275" y="-54.78" font-family="Helvetica,sans-Serif" font-size="10.00">RefreshStatus &#45; TODO: Name this transition &#160;&#160;</text>
</g>
<!-- ready -->
<g id="node3" class="node state regular">
<title>ready</title>
<polygon fill="#ffffff" fill-opacity="0.003922" stroke="none" stroke-width="2" points="660.12,-36.41 604.12,-36.41 604.12,-0.16 660.12,-0.16 660.12,-36.41"/>
<text text-anchor="start" x="615.25" y="-14.01" font-family="Helvetica,sans-Serif" font-size="12.00">ready</text>
<path fill="none" stroke="black" stroke-width="2" d="M616.54,-1.16C616.54,-1.16 647.71,-1.16 647.71,-1.16 653.42,-1.16 659.12,-6.87 659.12,-12.57 659.12,-12.57 659.12,-23.99 659.12,-23.99 659.12,-29.7 653.42,-35.41 647.71,-35.41 647.71,-35.41 616.54,-35.41 616.54,-35.41 610.83,-35.41 605.12,-29.7 605.12,-23.99 605.12,-23.99 605.12,-12.57 605.12,-12.57 605.12,-6.87 610.83,-1.16 616.54,-1.16"/>
</g>
<!-- insufficient&#45;&gt;ready -->
<g id="edge5" class="edge transition">
<title>insufficient&#45;&gt;ready</title>
<path fill="none" stroke="black" d="M186.04,-36.29C196.16,-30.39 208.12,-24.57 219.88,-21.53 353.46,12.99 519.7,-2.76 593.18,-12.55"/>
<polygon fill="black" stroke="black" points="592.69,-16.01 603.07,-13.91 593.64,-9.08 592.69,-16.01"/>
<text text-anchor="start" x="240.12" y="-24.78" font-family="Helvetica,sans-Serif" font-size="10.00">RefreshStatus &#45; Refresh discovering cluster &#45; detect ready &#160;&#160;</text>
</g>
</g>
</svg>
