<?xml version="1.0" encoding="UTF-8" standalone="no"?>
<!DOCTYPE svg PUBLIC "-//W3C//DTD SVG 1.1//EN"
 "http://www.w3.org/Graphics/SVG/1.1/DTD/svg11.dtd">
<!-- Generated by graphviz version 7.1.0 (0)
 -->
<!-- Title: state transitions Pages: 1 -->
<svg width="564pt" height="260pt"
 viewBox="0.00 0.00 564.00 260.00" xmlns="http://www.w3.org/2000/svg" xmlns:xlink="http://www.w3.org/1999/xlink">
<g id="graph0" class="graph" transform="scale(1 1) rotate(0) translate(4 256)">
<title>state transitions</title>
<polygon fill="white" stroke="none" points="-4,4 -4,-256 560,-256 560,4 -4,4"/>
<!-- cancelled -->
<g id="node1" class="node state regular">
<title>cancelled</title>
<polygon fill="#ffffff" fill-opacity="0.003922" stroke="none" stroke-width="2" points="556,-117 482,-117 482,-81 556,-81 556,-117"/>
<text text-anchor="start" x="493" y="-95.4" font-family="Helvetica,sans-Serif" font-size="12.00">cancelled</text>
<path fill="none" stroke="black" stroke-width="2" d="M494,-82.5C494,-82.5 544,-82.5 544,-82.5 549.5,-82.5 555,-88 555,-93.5 555,-93.5 555,-104.5 555,-104.5 555,-110 549.5,-115.5 544,-115.5 544,-115.5 494,-115.5 494,-115.5 488.5,-115.5 483,-110 483,-104.5 483,-104.5 483,-93.5 483,-93.5 483,-88 488.5,-82.5 494,-82.5"/>
</g>
<!-- error -->
<g id="node2" class="node state regular">
<title>error</title>
<polygon fill="#ffffff" fill-opacity="0.003922" stroke="none" stroke-width="2" points="118.5,-198 62.5,-198 62.5,-162 118.5,-162 118.5,-198"/>
<text text-anchor="start" x="78" y="-176.4" font-family="Helvetica,sans-Serif" font-size="12.00">error</text>
<path fill="none" stroke="black" stroke-width="2" d="M74.5,-163.5C74.5,-163.5 106.5,-163.5 106.5,-163.5 112,-163.5 117.5,-169 117.5,-174.5 117.5,-174.5 117.5,-185.5 117.5,-185.5 117.5,-191 112,-196.5 106.5,-196.5 106.5,-196.5 74.5,-196.5 74.5,-196.5 69,-196.5 63.5,-191 63.5,-185.5 63.5,-185.5 63.5,-174.5 63.5,-174.5 63.5,-169 69,-163.5 74.5,-163.5"/>
</g>
<!-- error&#45;&gt;cancelled -->
<g id="edge3" class="edge transition">
<title>error&#45;&gt;cancelled</title>
<path fill="none" stroke="black" d="M118.26,-181.14C180.92,-182.9 341.16,-182.12 464,-136 472.3,-132.88 480.56,-128.23 488.03,-123.26"/>
<polygon fill="black" stroke="black" points="489.65,-126.41 495.78,-117.77 485.6,-120.7 489.65,-126.41"/>
<text text-anchor="start" x="200" y="-183" font-family="Helvetica,sans-Serif" font-size="10.00">Cancel Installation &#45; Cancel installation of installing cluster &#160;&#160;</text>
</g>
<!-- finalizing -->
<g id="node3" class="node state regular">
<title>finalizing</title>
<polygon fill="#ffffff" fill-opacity="0.003922" stroke="none" stroke-width="2" points="125.5,-144 55.5,-144 55.5,-108 125.5,-108 125.5,-144"/>
<text text-anchor="start" x="66.5" y="-122.4" font-family="Helvetica,sans-Serif" font-size="12.00">finalizing</text>
<path fill="none" stroke="black" stroke-width="2" d="M67.5,-109.5C67.5,-109.5 113.5,-109.5 113.5,-109.5 119,-109.5 124.5,-115 124.5,-120.5 124.5,-120.5 124.5,-131.5 124.5,-131.5 124.5,-137 119,-142.5 113.5,-142.5 113.5,-142.5 67.5,-142.5 67.5,-142.5 62,-142.5 56.5,-137 56.5,-131.5 56.5,-131.5 56.5,-120.5 56.5,-120.5 56.5,-115 62,-109.5 67.5,-109.5"/>
</g>
<!-- finalizing&#45;&gt;cancelled -->
<g id="edge4" class="edge transition">
<title>finalizing&#45;&gt;cancelled</title>
<path fill="none" stroke="black" d="M125.42,-124.38C190.92,-121.16 339.33,-113.45 464,-104 466.31,-103.82 468.68,-103.64 471.06,-103.44"/>
<polygon fill="black" stroke="black" points="471.12,-106.95 480.78,-102.61 470.52,-99.98 471.12,-106.95"/>
<text text-anchor="start" x="200" y="-124" font-family="Helvetica,sans-Serif" font-size="10.00">Cancel Installation &#45; Cancel installation of installing cluster &#160;&#160;</text>
</g>
<!-- installing -->
<g id="node4" class="node state regular">
<title>installing</title>
<polygon fill="#ffffff" fill-opacity="0.003922" stroke="none" stroke-width="2" points="126,-90 55,-90 55,-54 126,-54 126,-90"/>
<text text-anchor="start" x="66.5" y="-68.4" font-family="Helvetica,sans-Serif" font-size="12.00">installing</text>
<path fill="none" stroke="black" stroke-width="2" d="M67,-55.5C67,-55.5 114,-55.5 114,-55.5 119.5,-55.5 125,-61 125,-66.5 125,-66.5 125,-77.5 125,-77.5 125,-83 119.5,-88.5 114,-88.5 114,-88.5 67,-88.5 67,-88.5 61.5,-88.5 56,-83 56,-77.5 56,-77.5 56,-66.5 56,-66.5 56,-61 61.5,-55.5 67,-55.5"/>
</g>
<!-- installing&#45;&gt;cancelled -->
<g id="edge1" class="edge transition">
<title>installing&#45;&gt;cancelled</title>
<path fill="none" stroke="black" d="M125.95,-73.32C191.73,-75.97 339.75,-82.6 464,-93 466.19,-93.18 468.42,-93.38 470.67,-93.59"/>
<polygon fill="black" stroke="black" points="470.2,-97.06 480.5,-94.58 470.9,-90.1 470.2,-97.06"/>
<text text-anchor="start" x="200" y="-96" font-family="Helvetica,sans-Serif" font-size="10.00">Cancel Installation &#45; Cancel installation of installing cluster &#160;&#160;</text>
</g>
<!-- installing&#45;pending&#45;user&#45;action -->
<g id="node5" class="node state regular">
<title>installing&#45;pending&#45;user&#45;action</title>
<polygon fill="#ffffff" fill-opacity="0.003922" stroke="none" stroke-width="2" points="181,-36 0,-36 0,0 181,0 181,-36"/>
<text text-anchor="start" x="11.5" y="-14.4" font-family="Helvetica,sans-Serif" font-size="12.00">installing&#45;pending&#45;user&#45;action</text>
<path fill="none" stroke="black" stroke-width="2" d="M12,-1.5C12,-1.5 169,-1.5 169,-1.5 174.5,-1.5 180,-7 180,-12.5 180,-12.5 180,-23.5 180,-23.5 180,-29 174.5,-34.5 169,-34.5 169,-34.5 12,-34.5 12,-34.5 6.5,-34.5 1,-29 1,-23.5 1,-23.5 1,-12.5 1,-12.5 1,-7 6.5,-1.5 12,-1.5"/>
</g>
<!-- installing&#45;pending&#45;user&#45;action&#45;&gt;cancelled -->
<g id="edge2" class="edge transition">
<title>installing&#45;pending&#45;user&#45;action&#45;&gt;cancelled</title>
<path fill="none" stroke="black" d="M180.86,-16.68C258.14,-18.28 371.64,-27.32 464,-62 472.3,-65.12 480.56,-69.77 488.03,-74.74"/>
<polygon fill="black" stroke="black" points="485.6,-77.3 495.78,-80.23 489.65,-71.59 485.6,-77.3"/>
<text text-anchor="start" x="200" y="-65" font-family="Helvetica,sans-Serif" font-size="10.00">Cancel Installation &#45; Cancel installation of installing cluster &#160;&#160;</text>
</g>
<!-- preparing&#45;for&#45;installation -->
<g id="node6" class="node state regular">
<title>preparing&#45;for&#45;installation</title>
<polygon fill="#ffffff" fill-opacity="0.003922" stroke="none" stroke-width="2" points="166.5,-252 14.5,-252 14.5,-216 166.5,-216 166.5,-252"/>
<text text-anchor="start" x="25.5" y="-230.4" font-family="Helvetica,sans-Serif" font-size="12.00">preparing&#45;for&#45;installation</text>
<path fill="none" stroke="black" stroke-width="2" d="M26.5,-217.5C26.5,-217.5 154.5,-217.5 154.5,-217.5 160,-217.5 165.5,-223 165.5,-228.5 165.5,-228.5 165.5,-239.5 165.5,-239.5 165.5,-245 160,-250.5 154.5,-250.5 154.5,-250.5 26.5,-250.5 26.5,-250.5 21,-250.5 15.5,-245 15.5,-239.5 15.5,-239.5 15.5,-228.5 15.5,-228.5 15.5,-223 21,-217.5 26.5,-217.5"/>
</g>
<!-- ready -->
<g id="node7" class="node state regular">
<title>ready</title>
<polygon fill="#ffffff" fill-opacity="0.003922" stroke="none" stroke-width="2" points="547,-252 491,-252 491,-216 547,-216 547,-252"/>
<text text-anchor="start" x="503.5" y="-230.4" font-family="Helvetica,sans-Serif" font-size="12.00">ready</text>
<path fill="none" stroke="black" stroke-width="2" d="M503,-217.5C503,-217.5 535,-217.5 535,-217.5 540.5,-217.5 546,-223 546,-228.5 546,-228.5 546,-239.5 546,-239.5 546,-245 540.5,-250.5 535,-250.5 535,-250.5 503,-250.5 503,-250.5 497.5,-250.5 492,-245 492,-239.5 492,-239.5 492,-228.5 492,-228.5 492,-223 497.5,-217.5 503,-217.5"/>
</g>
<!-- preparing&#45;for&#45;installation&#45;&gt;ready -->
<g id="edge5" class="edge transition">
<title>preparing&#45;for&#45;installation&#45;&gt;ready</title>
<path fill="none" stroke="black" d="M166.28,-234C257.74,-234 409.08,-234 479.61,-234"/>
<polygon fill="black" stroke="black" points="479.5,-237.5 489.5,-234 479.5,-230.5 479.5,-237.5"/>
<text text-anchor="start" x="199" y="-237" font-family="Helvetica,sans-Serif" font-size="10.00">Cancel Installation &#45; Cancel installation of preparing cluster &#160;&#160;</text>
</g>
</g>
</svg>
