<?xml version="1.0" encoding="UTF-8" standalone="no"?>
<!DOCTYPE svg PUBLIC "-//W3C//DTD SVG 1.1//EN"
 "http://www.w3.org/Graphics/SVG/1.1/DTD/svg11.dtd">
<!-- Generated by graphviz version 12.1.0 (20240811.2233)
 -->
<!-- Title: state transitions Pages: 1 -->
<svg width="619pt" height="260pt"
 viewBox="0.00 0.00 619.00 260.25" xmlns="http://www.w3.org/2000/svg" xmlns:xlink="http://www.w3.org/1999/xlink">
<g id="graph0" class="graph" transform="scale(1 1) rotate(0) translate(4 256.25)">
<title>state transitions</title>
<polygon fill="white" stroke="none" points="-4,4 -4,-256.25 615,-256.25 615,4 -4,4"/>
<!-- cancelled -->
<g id="node1" class="node state regular">
<title>cancelled</title>
<polygon fill="#ffffff" fill-opacity="0.003922" stroke="none" stroke-width="2" points="611,-117.25 532,-117.25 532,-81 611,-81 611,-117.25"/>
<text text-anchor="start" x="543" y="-94.85" font-family="Helvetica,sans-Serif" font-size="12.00">cancelled</text>
<path fill="none" stroke="black" stroke-width="2" d="M544.42,-82C544.42,-82 598.58,-82 598.58,-82 604.29,-82 610,-87.71 610,-93.42 610,-93.42 610,-104.83 610,-104.83 610,-110.54 604.29,-116.25 598.58,-116.25 598.58,-116.25 544.42,-116.25 544.42,-116.25 538.71,-116.25 533,-110.54 533,-104.83 533,-104.83 533,-93.42 533,-93.42 533,-87.71 538.71,-82 544.42,-82"/>
</g>
<!-- error -->
<g id="node2" class="node state regular">
<title>error</title>
<polygon fill="#ffffff" fill-opacity="0.003922" stroke="none" stroke-width="2" points="126.75,-198.25 70.75,-198.25 70.75,-162 126.75,-162 126.75,-198.25"/>
<text text-anchor="start" x="84.12" y="-175.85" font-family="Helvetica,sans-Serif" font-size="12.00">error</text>
<path fill="none" stroke="black" stroke-width="2" d="M83.17,-163C83.17,-163 114.33,-163 114.33,-163 120.04,-163 125.75,-168.71 125.75,-174.42 125.75,-174.42 125.75,-185.83 125.75,-185.83 125.75,-191.54 120.04,-197.25 114.33,-197.25 114.33,-197.25 83.17,-197.25 83.17,-197.25 77.46,-197.25 71.75,-191.54 71.75,-185.83 71.75,-185.83 71.75,-174.42 71.75,-174.42 71.75,-168.71 77.46,-163 83.17,-163"/>
</g>
<!-- error&#45;&gt;cancelled -->
<g id="edge1" class="edge transition">
<title>error&#45;&gt;cancelled</title>
<path fill="none" stroke="black" d="M126.39,-181.54C193.61,-184.2 374.71,-185.84 514,-136.12 522.62,-133.05 531.23,-128.41 539.05,-123.45"/>
<polygon fill="black" stroke="black" points="540.88,-126.43 547.2,-117.93 536.96,-120.63 540.88,-126.43"/>
<text text-anchor="start" x="216.25" y="-185.34" font-family="Helvetica,sans-Serif" font-size="10.00">Cancel Installation &#45; Cancel installation of installing cluster &#160;&#160;</text>
</g>
<!-- finalizing -->
<g id="node3" class="node state regular">
<title>finalizing</title>
<polygon fill="#ffffff" fill-opacity="0.003922" stroke="none" stroke-width="2" points="136,-144.25 61.5,-144.25 61.5,-108 136,-108 136,-144.25"/>
<text text-anchor="start" x="72.5" y="-121.85" font-family="Helvetica,sans-Serif" font-size="12.00">finalizing</text>
<path fill="none" stroke="black" stroke-width="2" d="M73.92,-109C73.92,-109 123.58,-109 123.58,-109 129.29,-109 135,-114.71 135,-120.42 135,-120.42 135,-131.83 135,-131.83 135,-137.54 129.29,-143.25 123.58,-143.25 123.58,-143.25 73.92,-143.25 73.92,-143.25 68.21,-143.25 62.5,-137.54 62.5,-131.83 62.5,-131.83 62.5,-120.42 62.5,-120.42 62.5,-114.71 68.21,-109 73.92,-109"/>
</g>
<!-- finalizing&#45;&gt;cancelled -->
<g id="edge2" class="edge transition">
<title>finalizing&#45;&gt;cancelled</title>
<path fill="none" stroke="black" d="M135.91,-124.05C219.4,-119.26 425.76,-107.43 520.94,-101.97"/>
<polygon fill="black" stroke="black" points="520.96,-105.47 530.75,-101.41 520.56,-98.48 520.96,-105.47"/>
<text text-anchor="start" x="216.25" y="-122.13" font-family="Helvetica,sans-Serif" font-size="10.00">Cancel Installation &#45; Cancel installation of installing cluster &#160;&#160;</text>
</g>
<!-- installing -->
<g id="node4" class="node state regular">
<title>installing</title>
<polygon fill="#ffffff" fill-opacity="0.003922" stroke="none" stroke-width="2" points="136,-90.25 61.5,-90.25 61.5,-54 136,-54 136,-90.25"/>
<text text-anchor="start" x="72.5" y="-67.85" font-family="Helvetica,sans-Serif" font-size="12.00">installing</text>
<path fill="none" stroke="black" stroke-width="2" d="M73.92,-55C73.92,-55 123.58,-55 123.58,-55 129.29,-55 135,-60.71 135,-66.42 135,-66.42 135,-77.83 135,-77.83 135,-83.54 129.29,-89.25 123.58,-89.25 123.58,-89.25 73.92,-89.25 73.92,-89.25 68.21,-89.25 62.5,-83.54 62.5,-77.83 62.5,-77.83 62.5,-66.42 62.5,-66.42 62.5,-60.71 68.21,-55 73.92,-55"/>
</g>
<!-- installing&#45;&gt;cancelled -->
<g id="edge3" class="edge transition">
<title>installing&#45;&gt;cancelled</title>
<path fill="none" stroke="black" d="M135.98,-70.78C208.25,-68.65 375.33,-66.49 514,-85.38 516.31,-85.69 518.65,-86.06 521.02,-86.47"/>
<polygon fill="black" stroke="black" points="520.13,-89.86 530.62,-88.36 521.49,-82.99 520.13,-89.86"/>
<text text-anchor="start" x="216.25" y="-88.62" font-family="Helvetica,sans-Serif" font-size="10.00">Cancel Installation &#45; Cancel installation of installing cluster &#160;&#160;</text>
</g>
<!-- installing&#45;pending&#45;user&#45;action -->
<g id="node5" class="node state regular">
<title>installing&#45;pending&#45;user&#45;action</title>
<polygon fill="#ffffff" fill-opacity="0.003922" stroke="none" stroke-width="2" points="197.5,-36.25 0,-36.25 0,0 197.5,0 197.5,-36.25"/>
<text text-anchor="start" x="11" y="-13.85" font-family="Helvetica,sans-Serif" font-size="12.00">installing&#45;pending&#45;user&#45;action</text>
<path fill="none" stroke="black" stroke-width="2" d="M12.42,-1C12.42,-1 185.08,-1 185.08,-1 190.79,-1 196.5,-6.71 196.5,-12.42 196.5,-12.42 196.5,-23.83 196.5,-23.83 196.5,-29.54 190.79,-35.25 185.08,-35.25 185.08,-35.25 12.42,-35.25 12.42,-35.25 6.71,-35.25 1,-29.54 1,-23.83 1,-23.83 1,-12.42 1,-12.42 1,-6.71 6.71,-1 12.42,-1"/>
</g>
<!-- installing&#45;pending&#45;user&#45;action&#45;&gt;cancelled -->
<g id="edge4" class="edge transition">
<title>installing&#45;pending&#45;user&#45;action&#45;&gt;cancelled</title>
<path fill="none" stroke="black" d="M197.31,-10.07C283.75,-6.62 411.75,-10.72 514,-52.38 525.79,-57.18 537,-65.37 546.27,-73.56"/>
<polygon fill="black" stroke="black" points="543.74,-75.98 553.42,-80.27 548.53,-70.88 543.74,-75.98"/>
<text text-anchor="start" x="216.25" y="-55.62" font-family="Helvetica,sans-Serif" font-size="10.00">Cancel Installation &#45; Cancel installation of installing cluster &#160;&#160;</text>
</g>
<!-- preparing&#45;for&#45;installation -->
<g id="node6" class="node state regular">
<title>preparing&#45;for&#45;installation</title>
<polygon fill="#ffffff" fill-opacity="0.003922" stroke="none" stroke-width="2" points="183.25,-252.25 14.25,-252.25 14.25,-216 183.25,-216 183.25,-252.25"/>
<text text-anchor="start" x="25.25" y="-229.85" font-family="Helvetica,sans-Serif" font-size="12.00">preparing&#45;for&#45;installation</text>
<path fill="none" stroke="black" stroke-width="2" d="M26.67,-217C26.67,-217 170.83,-217 170.83,-217 176.54,-217 182.25,-222.71 182.25,-228.42 182.25,-228.42 182.25,-239.83 182.25,-239.83 182.25,-245.54 176.54,-251.25 170.83,-251.25 170.83,-251.25 26.67,-251.25 26.67,-251.25 20.96,-251.25 15.25,-245.54 15.25,-239.83 15.25,-239.83 15.25,-228.42 15.25,-228.42 15.25,-222.71 20.96,-217 26.67,-217"/>
</g>
<!-- ready -->
<g id="node7" class="node state regular">
<title>ready</title>
<polygon fill="#ffffff" fill-opacity="0.003922" stroke="none" stroke-width="2" points="599.5,-252.25 543.5,-252.25 543.5,-216 599.5,-216 599.5,-252.25"/>
<text text-anchor="start" x="554.62" y="-229.85" font-family="Helvetica,sans-Serif" font-size="12.00">ready</text>
<path fill="none" stroke="black" stroke-width="2" d="M555.92,-217C555.92,-217 587.08,-217 587.08,-217 592.79,-217 598.5,-222.71 598.5,-228.42 598.5,-228.42 598.5,-239.83 598.5,-239.83 598.5,-245.54 592.79,-251.25 587.08,-251.25 587.08,-251.25 555.92,-251.25 555.92,-251.25 550.21,-251.25 544.5,-245.54 544.5,-239.83 544.5,-239.83 544.5,-228.42 544.5,-228.42 544.5,-222.71 550.21,-217 555.92,-217"/>
</g>
<!-- preparing&#45;for&#45;installation&#45;&gt;ready -->
<g id="edge5" class="edge transition">
<title>preparing&#45;for&#45;installation&#45;&gt;ready</title>
<path fill="none" stroke="black" d="M183.1,-234.12C286,-234.12 456.65,-234.12 532.34,-234.12"/>
<polygon fill="black" stroke="black" points="532.13,-237.63 542.13,-234.13 532.13,-230.63 532.13,-237.63"/>
<text text-anchor="start" x="215.5" y="-237.38" font-family="Helvetica,sans-Serif" font-size="10.00">Cancel Installation &#45; Cancel installation of preparing cluster &#160;&#160;</text>
</g>
</g>
</svg>
