<?xml version="1.0" encoding="UTF-8" standalone="no"?>
<!DOCTYPE svg PUBLIC "-//W3C//DTD SVG 1.1//EN"
 "http://www.w3.org/Graphics/SVG/1.1/DTD/svg11.dtd">
<!-- Generated by graphviz version 12.1.0 (20240811.2233)
 -->
<!-- Title: state transitions Pages: 1 -->
<svg width="476pt" height="44pt"
 viewBox="0.00 0.00 476.00 44.25" xmlns="http://www.w3.org/2000/svg" xmlns:xlink="http://www.w3.org/1999/xlink">
<g id="graph0" class="graph" transform="scale(1 1) rotate(0) translate(4 40.25)">
<title>state transitions</title>
<polygon fill="white" stroke="none" points="-4,4 -4,-40.25 472,-40.25 472,4 -4,4"/>
<!-- preparing&#45;for&#45;installation -->
<g id="node1" class="node state regular">
<title>preparing&#45;for&#45;installation</title>
<polygon fill="#ffffff" fill-opacity="0.003922" stroke="none" stroke-width="2" points="468,-36.25 299,-36.25 299,0 468,0 468,-36.25"/>
<text text-anchor="start" x="310" y="-13.85" font-family="Helvetica,sans-Serif" font-size="12.00">preparing&#45;for&#45;installation</text>
<path fill="none" stroke="black" stroke-width="2" d="M311.42,-1C311.42,-1 455.58,-1 455.58,-1 461.29,-1 467,-6.71 467,-12.42 467,-12.42 467,-23.83 467,-23.83 467,-29.54 461.29,-35.25 455.58,-35.25 455.58,-35.25 311.42,-35.25 311.42,-35.25 305.71,-35.25 300,-29.54 300,-23.83 300,-23.83 300,-12.42 300,-12.42 300,-6.71 305.71,-1 311.42,-1"/>
</g>
<!-- ready -->
<g id="node2" class="node state regular">
<title>ready</title>
<polygon fill="#ffffff" fill-opacity="0.003922" stroke="none" stroke-width="2" points="56,-36.25 0,-36.25 0,0 56,0 56,-36.25"/>
<text text-anchor="start" x="11.12" y="-13.85" font-family="Helvetica,sans-Serif" font-size="12.00">ready</text>
<path fill="none" stroke="black" stroke-width="2" d="M12.42,-1C12.42,-1 43.58,-1 43.58,-1 49.29,-1 55,-6.71 55,-12.42 55,-12.42 55,-23.83 55,-23.83 55,-29.54 49.29,-35.25 43.58,-35.25 43.58,-35.25 12.42,-35.25 12.42,-35.25 6.71,-35.25 1,-29.54 1,-23.83 1,-23.83 1,-12.42 1,-12.42 1,-6.71 6.71,-1 12.42,-1"/>
</g>
<!-- ready&#45;&gt;preparing&#45;for&#45;installation -->
<g id="edge1" class="edge transition">
<title>ready&#45;&gt;preparing&#45;for&#45;installation</title>
<path fill="none" stroke="black" d="M55.86,-18.12C104.62,-18.12 209.85,-18.12 287.76,-18.12"/>
<polygon fill="black" stroke="black" points="287.53,-21.63 297.53,-18.13 287.53,-14.63 287.53,-21.63"/>
<text text-anchor="start" x="74" y="-21.38" font-family="Helvetica,sans-Serif" font-size="10.00">PrepareForInstallation &#45; Start installation &#160;&#160;</text>
</g>
</g>
</svg>
