<?xml version="1.0" encoding="UTF-8" standalone="no"?>
<!DOCTYPE svg PUBLIC "-//W3C//DTD SVG 1.1//EN"
 "http://www.w3.org/Graphics/SVG/1.1/DTD/svg11.dtd">
<!-- Generated by graphviz version 7.1.0 (0)
 -->
<!-- Title: state transitions Pages: 1 -->
<svg width="2223pt" height="629pt"
 viewBox="0.00 0.00 2223.00 628.54" xmlns="http://www.w3.org/2000/svg" xmlns:xlink="http://www.w3.org/1999/xlink">
<g id="graph0" class="graph" transform="scale(1 1) rotate(0) translate(4 624.54)">
<title>state transitions</title>
<polygon fill="white" stroke="none" points="-4,4 -4,-624.54 2219,-624.54 2219,4 -4,4"/>
<!-- adding&#45;hosts -->
<g id="node1" class="node state regular">
<title>adding&#45;hosts</title>
<polygon fill="#ffffff" fill-opacity="0.003922" stroke="none" stroke-width="2" points="171,-306.54 79,-306.54 79,-270.54 171,-270.54 171,-306.54"/>
<text text-anchor="start" x="90" y="-284.94" font-family="Helvetica,sans-Serif" font-size="12.00">adding&#45;hosts</text>
<path fill="none" stroke="black" stroke-width="2" d="M91,-272.04C91,-272.04 159,-272.04 159,-272.04 164.5,-272.04 170,-277.54 170,-283.04 170,-283.04 170,-294.04 170,-294.04 170,-299.54 164.5,-305.04 159,-305.04 159,-305.04 91,-305.04 91,-305.04 85.5,-305.04 80,-299.54 80,-294.04 80,-294.04 80,-283.04 80,-283.04 80,-277.54 85.5,-272.04 91,-272.04"/>
</g>
<!-- adding&#45;hosts&#45;&gt;adding&#45;hosts -->
<g id="edge40" class="edge transition">
<title>adding&#45;hosts&#45;&gt;adding&#45;hosts</title>
<path fill="none" stroke="black" d="M95.25,-306.32C90.19,-315.86 100.11,-324.54 125,-324.54 139.39,-324.54 148.77,-321.64 153.16,-317.35"/>
<polygon fill="black" stroke="black" points="156.57,-318.22 154.53,-307.82 149.64,-317.22 156.57,-318.22"/>
<text text-anchor="start" x="24.5" y="-327.54" font-family="Helvetica,sans-Serif" font-size="10.00">RefreshStatus &#45; Maintain adding&#45;hosts state &#160;&#160;</text>
</g>
<!-- cancelled -->
<g id="node2" class="node state regular">
<title>cancelled</title>
<polygon fill="#ffffff" fill-opacity="0.003922" stroke="none" stroke-width="2" points="162,-389.54 88,-389.54 88,-353.54 162,-353.54 162,-389.54"/>
<text text-anchor="start" x="99" y="-367.94" font-family="Helvetica,sans-Serif" font-size="12.00">cancelled</text>
<path fill="none" stroke="black" stroke-width="2" d="M100,-355.04C100,-355.04 150,-355.04 150,-355.04 155.5,-355.04 161,-360.54 161,-366.04 161,-366.04 161,-377.04 161,-377.04 161,-382.54 155.5,-388.04 150,-388.04 150,-388.04 100,-388.04 100,-388.04 94.5,-388.04 89,-382.54 89,-377.04 89,-377.04 89,-366.04 89,-366.04 89,-360.54 94.5,-355.04 100,-355.04"/>
</g>
<!-- cancelled&#45;&gt;cancelled -->
<g id="edge34" class="edge transition">
<title>cancelled&#45;&gt;cancelled</title>
<path fill="none" stroke="black" d="M110.12,-389.32C107.6,-398.86 112.56,-407.54 125,-407.54 132,-407.54 136.63,-404.79 138.89,-400.69"/>
<polygon fill="black" stroke="black" points="142.37,-401.1 139.75,-390.83 135.4,-400.49 142.37,-401.1"/>
<text text-anchor="start" x="0" y="-410.54" font-family="Helvetica,sans-Serif" font-size="10.00">RefreshStatus &#45; Log collection timeout during cancelled &#160;&#160;</text>
</g>
<!-- cancelled&#45;&gt;cancelled -->
<g id="edge39" class="edge transition">
<title>cancelled&#45;&gt;cancelled</title>
<path fill="none" stroke="black" d="M100.12,-389.52C86.81,-406.74 95.1,-425.54 125,-425.54 149.06,-425.54 159.13,-413.37 155.21,-399.64"/>
<polygon fill="black" stroke="black" points="158.34,-398.08 150.58,-390.86 152.15,-401.34 158.34,-398.08"/>
<text text-anchor="start" x="31.5" y="-428.54" font-family="Helvetica,sans-Serif" font-size="10.00">RefreshStatus &#45; Maintain cancelled state &#160;&#160;</text>
</g>
<!-- error -->
<g id="node3" class="node state regular">
<title>error</title>
<polygon fill="#ffffff" fill-opacity="0.003922" stroke="none" stroke-width="2" points="1610,-526.54 1554,-526.54 1554,-490.54 1610,-490.54 1610,-526.54"/>
<text text-anchor="start" x="1569.5" y="-504.94" font-family="Helvetica,sans-Serif" font-size="12.00">error</text>
<path fill="none" stroke="black" stroke-width="2" d="M1566,-492.04C1566,-492.04 1598,-492.04 1598,-492.04 1603.5,-492.04 1609,-497.54 1609,-503.04 1609,-503.04 1609,-514.04 1609,-514.04 1609,-519.54 1603.5,-525.04 1598,-525.04 1598,-525.04 1566,-525.04 1566,-525.04 1560.5,-525.04 1555,-519.54 1555,-514.04 1555,-514.04 1555,-503.04 1555,-503.04 1555,-497.54 1560.5,-492.04 1566,-492.04"/>
</g>
<!-- error&#45;&gt;error -->
<g id="edge33" class="edge transition">
<title>error&#45;&gt;error</title>
<path fill="none" stroke="black" d="M1554.32,-526.32C1549.61,-535.86 1558.84,-544.54 1582,-544.54 1595.39,-544.54 1604.12,-541.64 1608.2,-537.35"/>
<polygon fill="black" stroke="black" points="1611.62,-538.2 1609.48,-527.82 1604.68,-537.27 1611.62,-538.2"/>
<text text-anchor="start" x="1468" y="-547.54" font-family="Helvetica,sans-Serif" font-size="10.00">RefreshStatus &#45; Log collection timeout during error &#160;&#160;</text>
</g>
<!-- error&#45;&gt;error -->
<g id="edge38" class="edge transition">
<title>error&#45;&gt;error</title>
<path fill="none" stroke="black" d="M1554.08,-517.05C1506.52,-535.96 1515.83,-562.54 1582,-562.54 1643,-562.54 1655.68,-539.95 1620.02,-521.61"/>
<polygon fill="black" stroke="black" points="1621.85,-518.59 1611.3,-517.68 1618.97,-524.98 1621.85,-518.59"/>
<text text-anchor="start" x="1499.5" y="-565.54" font-family="Helvetica,sans-Serif" font-size="10.00">RefreshStatus &#45; Maintain error state &#160;&#160;</text>
</g>
<!-- finalizing -->
<g id="node4" class="node state regular">
<title>finalizing</title>
<polygon fill="#ffffff" fill-opacity="0.003922" stroke="none" stroke-width="2" points="160,-501.54 90,-501.54 90,-465.54 160,-465.54 160,-501.54"/>
<text text-anchor="start" x="101" y="-479.94" font-family="Helvetica,sans-Serif" font-size="12.00">finalizing</text>
<path fill="none" stroke="black" stroke-width="2" d="M102,-467.04C102,-467.04 148,-467.04 148,-467.04 153.5,-467.04 159,-472.54 159,-478.04 159,-478.04 159,-489.04 159,-489.04 159,-494.54 153.5,-500.04 148,-500.04 148,-500.04 102,-500.04 102,-500.04 96.5,-500.04 91,-494.54 91,-489.04 91,-489.04 91,-478.04 91,-478.04 91,-472.54 96.5,-467.04 102,-467.04"/>
</g>
<!-- finalizing&#45;&gt;error -->
<g id="edge22" class="edge transition">
<title>finalizing&#45;&gt;error</title>
<path fill="none" stroke="black" d="M144.12,-501.4C155.98,-512.17 172.34,-525.34 189,-533.54 279.81,-578.24 309.53,-576.23 410,-588.54 648.84,-617.82 899.48,-628.32 1422,-549.54 1464.24,-543.18 1511.5,-530.22 1543.44,-520.56"/>
<polygon fill="black" stroke="black" points="1544.08,-524.03 1552.61,-517.75 1542.03,-517.33 1544.08,-524.03"/>
<text text-anchor="start" x="645" y="-612.54" font-family="Helvetica,sans-Serif" font-size="10.00">RefreshStatus &#45; Timed out while finalizing &#160;&#160;</text>
</g>
<!-- finalizing&#45;&gt;finalizing -->
<g id="edge30" class="edge transition">
<title>finalizing&#45;&gt;finalizing</title>
<path fill="none" stroke="black" d="M110.12,-501.32C107.6,-510.86 112.56,-519.54 125,-519.54 132,-519.54 136.63,-516.79 138.89,-512.69"/>
<polygon fill="black" stroke="black" points="142.37,-513.1 139.75,-502.83 135.4,-512.49 142.37,-513.1"/>
<text text-anchor="start" x="28.5" y="-522.54" font-family="Helvetica,sans-Serif" font-size="10.00">RefreshStatus &#45; Update AMS subscription &#160;&#160;</text>
</g>
<!-- finalizing&#45;&gt;finalizing -->
<g id="edge36" class="edge transition">
<title>finalizing&#45;&gt;finalizing</title>
<path fill="none" stroke="black" d="M100.12,-501.52C86.81,-518.74 95.1,-537.54 125,-537.54 149.06,-537.54 159.13,-525.37 155.21,-511.64"/>
<polygon fill="black" stroke="black" points="158.34,-510.08 150.58,-502.86 152.15,-513.34 158.34,-510.08"/>
<text text-anchor="start" x="33.5" y="-540.54" font-family="Helvetica,sans-Serif" font-size="10.00">RefreshStatus &#45; Maintain finalizing state &#160;&#160;</text>
</g>
<!-- installed -->
<g id="node5" class="node state regular">
<title>installed</title>
<polygon fill="#ffffff" fill-opacity="0.003922" stroke="none" stroke-width="2" points="534.5,-550.54 466.5,-550.54 466.5,-514.54 534.5,-514.54 534.5,-550.54"/>
<text text-anchor="start" x="477.5" y="-528.94" font-family="Helvetica,sans-Serif" font-size="12.00">installed</text>
<path fill="none" stroke="black" stroke-width="2" d="M478.5,-516.04C478.5,-516.04 522.5,-516.04 522.5,-516.04 528,-516.04 533.5,-521.54 533.5,-527.04 533.5,-527.04 533.5,-538.04 533.5,-538.04 533.5,-543.54 528,-549.04 522.5,-549.04 522.5,-549.04 478.5,-549.04 478.5,-549.04 473,-549.04 467.5,-543.54 467.5,-538.04 467.5,-538.04 467.5,-527.04 467.5,-527.04 467.5,-521.54 473,-516.04 478.5,-516.04"/>
</g>
<!-- finalizing&#45;&gt;installed -->
<g id="edge31" class="edge transition">
<title>finalizing&#45;&gt;installed</title>
<path fill="none" stroke="black" d="M159.97,-489.14C169.37,-490.63 179.57,-492.2 189,-493.54 283.8,-507.02 395.24,-520.42 455.48,-527.47"/>
<polygon fill="black" stroke="black" points="454.98,-530.93 465.32,-528.62 455.79,-523.98 454.98,-530.93"/>
<text text-anchor="start" x="208.5" y="-521.54" font-family="Helvetica,sans-Serif" font-size="10.00">RefreshStatus &#45; Finalizing complete &#160;&#160;</text>
</g>
<!-- installing&#45;pending&#45;user&#45;action -->
<g id="node7" class="node state regular">
<title>installing&#45;pending&#45;user&#45;action</title>
<polygon fill="#ffffff" fill-opacity="0.003922" stroke="none" stroke-width="2" points="591,-467.54 410,-467.54 410,-431.54 591,-431.54 591,-467.54"/>
<text text-anchor="start" x="421.5" y="-445.94" font-family="Helvetica,sans-Serif" font-size="12.00">installing&#45;pending&#45;user&#45;action</text>
<path fill="none" stroke="black" stroke-width="2" d="M422,-433.04C422,-433.04 579,-433.04 579,-433.04 584.5,-433.04 590,-438.54 590,-444.04 590,-444.04 590,-455.04 590,-455.04 590,-460.54 584.5,-466.04 579,-466.04 579,-466.04 422,-466.04 422,-466.04 416.5,-466.04 411,-460.54 411,-455.04 411,-455.04 411,-444.04 411,-444.04 411,-438.54 416.5,-433.04 422,-433.04"/>
</g>
<!-- finalizing&#45;&gt;installing&#45;pending&#45;user&#45;action -->
<g id="edge27" class="edge transition">
<title>finalizing&#45;&gt;installing&#45;pending&#45;user&#45;action</title>
<path fill="none" stroke="black" d="M159.62,-481.07C210.11,-477.29 308.52,-469.65 392,-461.54 394.21,-461.33 396.44,-461.11 398.69,-460.88"/>
<polygon fill="black" stroke="black" points="398.97,-464.37 408.56,-459.88 398.26,-457.41 398.97,-464.37"/>
<text text-anchor="start" x="189" y="-481.54" font-family="Helvetica,sans-Serif" font-size="10.00">RefreshStatus &#45; TODO: Name this transition &#160;&#160;</text>
</g>
<!-- installed&#45;&gt;installed -->
<g id="edge37" class="edge transition">
<title>installed&#45;&gt;installed</title>
<path fill="none" stroke="black" d="M466.66,-546.21C453.13,-557.2 464.41,-568.54 500.5,-568.54 525.31,-568.54 538.4,-563.18 539.76,-556.26"/>
<polygon fill="black" stroke="black" points="542.88,-554.68 535.06,-547.54 536.72,-558 542.88,-554.68"/>
<text text-anchor="start" x="410" y="-571.54" font-family="Helvetica,sans-Serif" font-size="10.00">RefreshStatus &#45; Maintain installed state &#160;&#160;</text>
</g>
<!-- installing -->
<g id="node6" class="node state regular">
<title>installing</title>
<polygon fill="#ffffff" fill-opacity="0.003922" stroke="none" stroke-width="2" points="1034,-420.54 963,-420.54 963,-384.54 1034,-384.54 1034,-420.54"/>
<text text-anchor="start" x="974.5" y="-398.94" font-family="Helvetica,sans-Serif" font-size="12.00">installing</text>
<path fill="none" stroke="black" stroke-width="2" d="M975,-386.04C975,-386.04 1022,-386.04 1022,-386.04 1027.5,-386.04 1033,-391.54 1033,-397.04 1033,-397.04 1033,-408.04 1033,-408.04 1033,-413.54 1027.5,-419.04 1022,-419.04 1022,-419.04 975,-419.04 975,-419.04 969.5,-419.04 964,-413.54 964,-408.04 964,-408.04 964,-397.04 964,-397.04 964,-391.54 969.5,-386.04 975,-386.04"/>
</g>
<!-- installing&#45;&gt;error -->
<g id="edge32" class="edge transition">
<title>installing&#45;&gt;error</title>
<path fill="none" stroke="black" d="M1033.77,-405.41C1106.12,-411.87 1279.5,-429.45 1422,-460.54 1464.21,-469.75 1511.48,-484.62 1543.42,-495.38"/>
<polygon fill="black" stroke="black" points="1542.02,-498.6 1552.62,-498.5 1544.28,-491.97 1542.02,-498.6"/>
<text text-anchor="start" x="1198.5" y="-463.54" font-family="Helvetica,sans-Serif" font-size="10.00">RefreshStatus &#45; Installation error &#160;&#160;</text>
</g>
<!-- installing&#45;&gt;finalizing -->
<g id="edge28" class="edge transition">
<title>installing&#45;&gt;finalizing</title>
<path fill="none" stroke="black" d="M963.03,-402.11C872.38,-401.17 619.81,-399.9 410,-411.54 311.57,-417.01 274.28,-381.09 189,-430.54 176.84,-437.59 181.26,-446.93 171,-456.54 170.24,-457.25 169.47,-457.95 168.67,-458.64"/>
<polygon fill="black" stroke="black" points="166.6,-455.82 160.8,-464.68 170.86,-461.37 166.6,-455.82"/>
<text text-anchor="start" x="422.5" y="-414.54" font-family="Helvetica,sans-Serif" font-size="10.00">RefreshStatus &#45; Move to finalizing &#160;&#160;</text>
</g>
<!-- installing&#45;&gt;installing -->
<g id="edge29" class="edge transition">
<title>installing&#45;&gt;installing</title>
<path fill="none" stroke="black" d="M963.31,-412.68C937.54,-424.62 949.27,-438.54 998.5,-438.54 1039.65,-438.54 1054.6,-428.81 1043.34,-418.64"/>
<polygon fill="black" stroke="black" points="1045.32,-415.75 1034.98,-413.47 1041.64,-421.71 1045.32,-415.75"/>
<text text-anchor="start" x="922" y="-441.54" font-family="Helvetica,sans-Serif" font-size="10.00">RefreshStatus &#45; Stay in installing &#160;&#160;</text>
</g>
<!-- installing&#45;&gt;installing&#45;pending&#45;user&#45;action -->
<g id="edge26" class="edge transition">
<title>installing&#45;&gt;installing&#45;pending&#45;user&#45;action</title>
<path fill="none" stroke="black" d="M963,-402.51C894.95,-402.89 738.73,-405.93 609,-424.54 600.17,-425.81 590.99,-427.44 581.89,-429.27"/>
<polygon fill="black" stroke="black" points="581.4,-425.79 572.33,-431.27 582.84,-432.65 581.4,-425.79"/>
<text text-anchor="start" x="638.5" y="-427.54" font-family="Helvetica,sans-Serif" font-size="10.00">RefreshStatus &#45; TODO: Name this transition &#160;&#160;</text>
</g>
<!-- installing&#45;pending&#45;user&#45;action&#45;&gt;error -->
<g id="edge20" class="edge transition">
<title>installing&#45;pending&#45;user&#45;action&#45;&gt;error</title>
<path fill="none" stroke="black" d="M530.85,-467.38C551.8,-479.04 581.09,-493.23 609,-499.54 964.16,-579.82 1411.11,-531.17 1542.83,-513.9"/>
<polygon fill="black" stroke="black" points="1543.29,-517.37 1552.74,-512.57 1542.36,-510.43 1543.29,-517.37"/>
<text text-anchor="start" x="897" y="-546.54" font-family="Helvetica,sans-Serif" font-size="10.00">RefreshStatus &#45; TODO: Name this transition &#160;&#160;</text>
</g>
<!-- installing&#45;pending&#45;user&#45;action&#45;&gt;error -->
<g id="edge21" class="edge transition">
<title>installing&#45;pending&#45;user&#45;action&#45;&gt;error</title>
<path fill="none" stroke="black" d="M590.84,-465.36C596.97,-466.18 603.07,-466.92 609,-467.54 971.05,-505.34 1412.41,-508.56 1542.94,-508.63"/>
<polygon fill="black" stroke="black" points="1542.73,-512.13 1552.73,-508.63 1542.73,-505.13 1542.73,-512.13"/>
<text text-anchor="start" x="889" y="-502.54" font-family="Helvetica,sans-Serif" font-size="10.00">RefreshStatus &#45; Timed out while waiting for user &#160;&#160;</text>
</g>
<!-- installing&#45;pending&#45;user&#45;action&#45;&gt;finalizing -->
<g id="edge25" class="edge transition">
<title>installing&#45;pending&#45;user&#45;action&#45;&gt;finalizing</title>
<path fill="none" stroke="black" d="M410.13,-438.71C347.33,-433.78 261.86,-432.49 189,-450.54 180.32,-452.69 171.51,-456.27 163.34,-460.29"/>
<polygon fill="black" stroke="black" points="161.93,-457.07 154.72,-464.84 165.2,-463.26 161.93,-457.07"/>
<text text-anchor="start" x="189" y="-453.54" font-family="Helvetica,sans-Serif" font-size="10.00">RefreshStatus &#45; TODO: Name this transition &#160;&#160;</text>
</g>
<!-- installing&#45;pending&#45;user&#45;action&#45;&gt;installing -->
<g id="edge24" class="edge transition">
<title>installing&#45;pending&#45;user&#45;action&#45;&gt;installing</title>
<path fill="none" stroke="black" d="M590.89,-452.54C666.06,-453.66 776.14,-452 871,-437.54 898.42,-433.37 928.36,-425.25 952.23,-417.88"/>
<polygon fill="black" stroke="black" points="953.16,-421.26 961.64,-414.91 951.05,-414.58 953.16,-421.26"/>
<text text-anchor="start" x="638.5" y="-455.54" font-family="Helvetica,sans-Serif" font-size="10.00">RefreshStatus &#45; TODO: Name this transition &#160;&#160;</text>
</g>
<!-- installing&#45;pending&#45;user&#45;action&#45;&gt;installing&#45;pending&#45;user&#45;action -->
<g id="edge23" class="edge transition">
<title>installing&#45;pending&#45;user&#45;action&#45;&gt;installing&#45;pending&#45;user&#45;action</title>
<path fill="none" stroke="black" d="M462.75,-467.32C456.33,-476.86 468.92,-485.54 500.5,-485.54 518.76,-485.54 530.67,-482.64 536.23,-478.35"/>
<polygon fill="black" stroke="black" points="539.61,-479.28 537.98,-468.81 532.73,-478.02 539.61,-479.28"/>
<text text-anchor="start" x="399" y="-488.54" font-family="Helvetica,sans-Serif" font-size="10.00">RefreshStatus &#45; TODO: Name this transition &#160;&#160;</text>
</g>
<!-- insufficient -->
<g id="node8" class="node state regular">
<title>insufficient</title>
<polygon fill="#ffffff" fill-opacity="0.003922" stroke="none" stroke-width="2" points="1038.5,-167.54 958.5,-167.54 958.5,-131.54 1038.5,-131.54 1038.5,-167.54"/>
<text text-anchor="start" x="969.5" y="-145.94" font-family="Helvetica,sans-Serif" font-size="12.00">insufficient</text>
<path fill="none" stroke="black" stroke-width="2" d="M970.5,-133.04C970.5,-133.04 1026.5,-133.04 1026.5,-133.04 1032,-133.04 1037.5,-138.54 1037.5,-144.04 1037.5,-144.04 1037.5,-155.04 1037.5,-155.04 1037.5,-160.54 1032,-166.04 1026.5,-166.04 1026.5,-166.04 970.5,-166.04 970.5,-166.04 965,-166.04 959.5,-160.54 959.5,-155.04 959.5,-155.04 959.5,-144.04 959.5,-144.04 959.5,-138.54 965,-133.04 970.5,-133.04"/>
</g>
<!-- insufficient&#45;&gt;insufficient -->
<g id="edge6" class="edge transition">
<title>insufficient&#45;&gt;insufficient</title>
<path fill="none" stroke="black" d="M975.27,-167.32C971.32,-176.86 979.06,-185.54 998.5,-185.54 1009.43,-185.54 1016.67,-182.79 1020.2,-178.69"/>
<polygon fill="black" stroke="black" points="1023.67,-179.2 1021.53,-168.82 1016.73,-178.27 1023.67,-179.2"/>
<text text-anchor="start" x="856.5" y="-188.54" font-family="Helvetica,sans-Serif" font-size="10.00">RefreshStatus &#45; Refresh discovering cluster &#45; detect insufficient &#160;&#160;</text>
</g>
<!-- insufficient&#45;&gt;insufficient -->
<g id="edge12" class="edge transition">
<title>insufficient&#45;&gt;insufficient</title>
<path fill="none" stroke="black" d="M959.64,-167.52C938.85,-184.74 951.8,-203.54 998.5,-203.54 1037.54,-203.54 1053,-190.41 1044.87,-176.03"/>
<polygon fill="black" stroke="black" points="1047.6,-173.84 1038.36,-168.66 1042.35,-178.47 1047.6,-173.84"/>
<text text-anchor="start" x="897" y="-206.54" font-family="Helvetica,sans-Serif" font-size="10.00">RefreshStatus &#45; TODO: Name this transition &#160;&#160;</text>
</g>
<!-- pending&#45;for&#45;input -->
<g id="node9" class="node state regular">
<title>pending&#45;for&#45;input</title>
<polygon fill="#ffffff" fill-opacity="0.003922" stroke="none" stroke-width="2" points="1638.5,-68.54 1525.5,-68.54 1525.5,-32.54 1638.5,-32.54 1638.5,-68.54"/>
<text text-anchor="start" x="1537" y="-46.94" font-family="Helvetica,sans-Serif" font-size="12.00">pending&#45;for&#45;input</text>
<path fill="none" stroke="black" stroke-width="2" d="M1537.5,-34.04C1537.5,-34.04 1626.5,-34.04 1626.5,-34.04 1632,-34.04 1637.5,-39.54 1637.5,-45.04 1637.5,-45.04 1637.5,-56.04 1637.5,-56.04 1637.5,-61.54 1632,-67.04 1626.5,-67.04 1626.5,-67.04 1537.5,-67.04 1537.5,-67.04 1532,-67.04 1526.5,-61.54 1526.5,-56.04 1526.5,-56.04 1526.5,-45.04 1526.5,-45.04 1526.5,-39.54 1532,-34.04 1537.5,-34.04"/>
</g>
<!-- insufficient&#45;&gt;pending&#45;for&#45;input -->
<g id="edge3" class="edge transition">
<title>insufficient&#45;&gt;pending&#45;for&#45;input</title>
<path fill="none" stroke="black" d="M1038.29,-132.33C1062.91,-122.19 1095.74,-110.09 1126,-103.54 1254.97,-75.63 1291.2,-97.91 1422,-80.54 1452.61,-76.48 1486.24,-70.37 1514.66,-64.73"/>
<polygon fill="black" stroke="black" points="1515.09,-68.22 1524.2,-62.81 1513.71,-61.35 1515.09,-68.22"/>
<text text-anchor="start" x="1126" y="-106.54" font-family="Helvetica,sans-Serif" font-size="10.00">RefreshStatus &#45; Refresh discovering cluster &#45; detect required input &#160;&#160;</text>
</g>
<!-- insufficient&#45;&gt;pending&#45;for&#45;input -->
<g id="edge9" class="edge transition">
<title>insufficient&#45;&gt;pending&#45;for&#45;input</title>
<path fill="none" stroke="black" d="M1019.21,-131.83C1042.7,-111.97 1084.08,-80.8 1126,-67.54 1196.27,-45.33 1405.55,-46.45 1514.07,-48.71"/>
<polygon fill="black" stroke="black" points="1513.93,-52.2 1524,-48.92 1514.08,-45.21 1513.93,-52.2"/>
<text text-anchor="start" x="1172.5" y="-70.54" font-family="Helvetica,sans-Serif" font-size="10.00">RefreshStatus &#45; TODO: Name this transition &#160;&#160;</text>
</g>
<!-- ready -->
<g id="node11" class="node state regular">
<title>ready</title>
<polygon fill="#ffffff" fill-opacity="0.003922" stroke="none" stroke-width="2" points="2112,-203.54 2056,-203.54 2056,-167.54 2112,-167.54 2112,-203.54"/>
<text text-anchor="start" x="2068.5" y="-181.94" font-family="Helvetica,sans-Serif" font-size="12.00">ready</text>
<path fill="none" stroke="black" stroke-width="2" d="M2068,-169.04C2068,-169.04 2100,-169.04 2100,-169.04 2105.5,-169.04 2111,-174.54 2111,-180.04 2111,-180.04 2111,-191.04 2111,-191.04 2111,-196.54 2105.5,-202.04 2100,-202.04 2100,-202.04 2068,-202.04 2068,-202.04 2062.5,-202.04 2057,-196.54 2057,-191.04 2057,-191.04 2057,-180.04 2057,-180.04 2057,-174.54 2062.5,-169.04 2068,-169.04"/>
</g>
<!-- insufficient&#45;&gt;ready -->
<g id="edge15" class="edge transition">
<title>insufficient&#45;&gt;ready</title>
<path fill="none" stroke="black" d="M1034.74,-167.48C1059.56,-179.18 1093.96,-193.53 1126,-200.54 1385.71,-257.39 1458.16,-218.51 1724,-215.54 1863.58,-213.99 1902.66,-242.73 2038,-208.54 2040.58,-207.89 2043.19,-207.07 2045.77,-206.13"/>
<polygon fill="black" stroke="black" points="2046.94,-209.43 2054.78,-202.3 2044.2,-202.99 2046.94,-209.43"/>
<text text-anchor="start" x="1451" y="-232.54" font-family="Helvetica,sans-Serif" font-size="10.00">RefreshStatus &#45; Refresh discovering cluster &#45; detect ready &#160;&#160;</text>
</g>
<!-- pending&#45;for&#45;input&#45;&gt;insufficient -->
<g id="edge4" class="edge transition">
<title>pending&#45;for&#45;input&#45;&gt;insufficient</title>
<path fill="none" stroke="black" d="M1525.85,-35.36C1437.89,-14.04 1261.94,16.67 1126,-35.54 1080.62,-52.97 1041.36,-95.04 1019.06,-122.9"/>
<polygon fill="black" stroke="black" points="1016.49,-120.52 1013.1,-130.56 1022.01,-124.82 1016.49,-120.52"/>
<text text-anchor="start" x="1132" y="-38.54" font-family="Helvetica,sans-Serif" font-size="10.00">RefreshStatus &#45; Refresh discovering cluster &#45; detect insufficient &#160;&#160;</text>
</g>
<!-- pending&#45;for&#45;input&#45;&gt;insufficient -->
<g id="edge10" class="edge transition">
<title>pending&#45;for&#45;input&#45;&gt;insufficient</title>
<path fill="none" stroke="black" d="M1545.4,-68.54C1513.83,-83.6 1466.04,-104.23 1422,-114.54 1293.53,-144.64 1257.46,-126.2 1126,-137.54 1100.81,-139.72 1072.81,-142.35 1049.57,-144.59"/>
<polygon fill="black" stroke="black" points="1049.36,-141.1 1039.75,-145.55 1050.04,-148.07 1049.36,-141.1"/>
<text text-anchor="start" x="1172.5" y="-140.54" font-family="Helvetica,sans-Serif" font-size="10.00">RefreshStatus &#45; TODO: Name this transition &#160;&#160;</text>
</g>
<!-- pending&#45;for&#45;input&#45;&gt;pending&#45;for&#45;input -->
<g id="edge1" class="edge transition">
<title>pending&#45;for&#45;input&#45;&gt;pending&#45;for&#45;input</title>
<path fill="none" stroke="black" d="M1554.32,-68.32C1549.61,-77.86 1558.84,-86.54 1582,-86.54 1595.39,-86.54 1604.12,-83.64 1608.2,-79.35"/>
<polygon fill="black" stroke="black" points="1611.62,-80.2 1609.48,-69.82 1604.68,-79.27 1611.62,-80.2"/>
<text text-anchor="start" x="1434" y="-89.54" font-family="Helvetica,sans-Serif" font-size="10.00">RefreshStatus &#45; Refresh discovering cluster &#45; detect required input &#160;&#160;</text>
</g>
<!-- pending&#45;for&#45;input&#45;&gt;pending&#45;for&#45;input -->
<g id="edge7" class="edge transition">
<title>pending&#45;for&#45;input&#45;&gt;pending&#45;for&#45;input</title>
<path fill="none" stroke="black" d="M1535.7,-68.52C1510.92,-85.74 1526.36,-104.54 1582,-104.54 1629.38,-104.54 1647.61,-90.91 1636.67,-76.23"/>
<polygon fill="black" stroke="black" points="1639.14,-73.74 1629.41,-69.55 1634.4,-78.89 1639.14,-73.74"/>
<text text-anchor="start" x="1480.5" y="-107.54" font-family="Helvetica,sans-Serif" font-size="10.00">RefreshStatus &#45; TODO: Name this transition &#160;&#160;</text>
</g>
<!-- pending&#45;for&#45;input&#45;&gt;ready -->
<g id="edge13" class="edge transition">
<title>pending&#45;for&#45;input&#45;&gt;ready</title>
<path fill="none" stroke="black" d="M1619.94,-68.46C1651.56,-82.94 1698.71,-102.5 1742,-112.54 1806.3,-127.47 1978.59,-108.77 2038,-137.54 2048.12,-142.44 2057.11,-150.67 2064.34,-158.94"/>
<polygon fill="black" stroke="black" points="2061.51,-161.01 2070.52,-166.6 2066.96,-156.62 2061.51,-161.01"/>
<text text-anchor="start" x="1759" y="-140.54" font-family="Helvetica,sans-Serif" font-size="10.00">RefreshStatus &#45; Refresh discovering cluster &#45; detect ready &#160;&#160;</text>
</g>
<!-- preparing&#45;for&#45;installation -->
<g id="node10" class="node state regular">
<title>preparing&#45;for&#45;installation</title>
<polygon fill="#ffffff" fill-opacity="0.003922" stroke="none" stroke-width="2" points="576.5,-320.54 424.5,-320.54 424.5,-284.54 576.5,-284.54 576.5,-320.54"/>
<text text-anchor="start" x="435.5" y="-298.94" font-family="Helvetica,sans-Serif" font-size="12.00">preparing&#45;for&#45;installation</text>
<path fill="none" stroke="black" stroke-width="2" d="M436.5,-286.04C436.5,-286.04 564.5,-286.04 564.5,-286.04 570,-286.04 575.5,-291.54 575.5,-297.04 575.5,-297.04 575.5,-308.04 575.5,-308.04 575.5,-313.54 570,-319.04 564.5,-319.04 564.5,-319.04 436.5,-319.04 436.5,-319.04 431,-319.04 425.5,-313.54 425.5,-308.04 425.5,-308.04 425.5,-297.04 425.5,-297.04 425.5,-291.54 431,-286.04 436.5,-286.04"/>
</g>
<!-- preparing&#45;for&#45;installation&#45;&gt;installing -->
<g id="edge17" class="edge transition">
<title>preparing&#45;for&#45;installation&#45;&gt;installing</title>
<path fill="none" stroke="black" d="M539.46,-320.44C559.67,-329.17 585.2,-338.97 609,-344.54 722.81,-371.19 755.97,-346.76 871,-367.54 898.39,-372.49 928.45,-380.69 952.38,-387.9"/>
<polygon fill="black" stroke="black" points="951.23,-391.21 961.81,-390.8 953.28,-384.52 951.23,-391.21"/>
<text text-anchor="start" x="609" y="-370.54" font-family="Helvetica,sans-Serif" font-size="10.00">RefreshStatus &#45; Refresh preparing cluster &#45; done preparing &#160;&#160;</text>
</g>
<!-- preparing&#45;for&#45;installation&#45;&gt;insufficient -->
<g id="edge18" class="edge transition">
<title>preparing&#45;for&#45;installation&#45;&gt;insufficient</title>
<path fill="none" stroke="black" d="M559.37,-284.69C657.62,-254.39 855.36,-193.39 947.78,-164.88"/>
<polygon fill="black" stroke="black" points="948.81,-168.23 957.33,-161.93 946.74,-161.54 948.81,-168.23"/>
<text text-anchor="start" x="617.5" y="-269.54" font-family="Helvetica,sans-Serif" font-size="10.00">RefreshStatus &#45; Refresh preparing cluster &#45; insufficient &#160;&#160;</text>
</g>
<!-- preparing&#45;for&#45;installation&#45;&gt;preparing&#45;for&#45;installation -->
<g id="edge35" class="edge transition">
<title>preparing&#45;for&#45;installation&#45;&gt;preparing&#45;for&#45;installation</title>
<path fill="none" stroke="black" d="M462.75,-320.32C456.33,-329.86 468.92,-338.54 500.5,-338.54 518.76,-338.54 530.67,-335.64 536.23,-331.35"/>
<polygon fill="black" stroke="black" points="539.61,-332.28 537.98,-321.81 532.73,-331.02 539.61,-332.28"/>
<text text-anchor="start" x="376" y="-341.54" font-family="Helvetica,sans-Serif" font-size="10.00">RefreshStatus &#45; Maintain preparing&#45;for&#45;installation state &#160;&#160;</text>
</g>
<!-- preparing&#45;for&#45;installation&#45;&gt;ready -->
<g id="edge16" class="edge transition">
<title>preparing&#45;for&#45;installation&#45;&gt;ready</title>
<path fill="none" stroke="black" d="M576.36,-308.03C587.3,-308.65 598.44,-309.19 609,-309.54 838.65,-317.23 896.22,-310.32 1126,-310.54 1531.33,-310.93 1706.27,-542.46 2038,-309.54 2068.48,-288.15 2078.39,-243.91 2081.57,-214.47"/>
<polygon fill="black" stroke="black" points="2085.04,-215.02 2082.41,-204.76 2078.06,-214.42 2085.04,-215.02"/>
<text text-anchor="start" x="1143.5" y="-352.54" font-family="Helvetica,sans-Serif" font-size="10.00">RefreshStatus &#45; Refresh preparing cluster &#45; detect timeout &#160;&#160;</text>
</g>
<!-- preparing&#45;for&#45;installation&#45;&gt;ready -->
<g id="edge19" class="edge transition">
<title>preparing&#45;for&#45;installation&#45;&gt;ready</title>
<path fill="none" stroke="black" d="M576.16,-302.29C865.56,-300.87 1903.97,-291.6 2038,-231.54 2047.88,-227.11 2056.73,-219.44 2063.92,-211.62"/>
<polygon fill="black" stroke="black" points="2066.26,-214.27 2070.05,-204.38 2060.92,-209.75 2066.26,-214.27"/>
<text text-anchor="start" x="1163" y="-298.54" font-family="Helvetica,sans-Serif" font-size="10.00">RefreshStatus &#45; Refresh preparing cluster &#45; failed &#160;&#160;</text>
</g>
<!-- ready&#45;&gt;insufficient -->
<g id="edge5" class="edge transition">
<title>ready&#45;&gt;insufficient</title>
<path fill="none" stroke="black" d="M2056.24,-187.25C1943.07,-194.05 1492.64,-216.98 1126,-176.54 1100.49,-173.73 1072.54,-168.05 1049.42,-162.62"/>
<polygon fill="black" stroke="black" points="1050.5,-159.28 1039.96,-160.34 1048.86,-166.08 1050.5,-159.28"/>
<text text-anchor="start" x="1440" y="-203.54" font-family="Helvetica,sans-Serif" font-size="10.00">RefreshStatus &#45; Refresh discovering cluster &#45; detect insufficient &#160;&#160;</text>
</g>
<!-- ready&#45;&gt;insufficient -->
<g id="edge11" class="edge transition">
<title>ready&#45;&gt;insufficient</title>
<path fill="none" stroke="black" d="M2056.37,-184.66C1913.79,-179.92 1240.04,-157.53 1049.69,-151.21"/>
<polygon fill="black" stroke="black" points="1050.01,-147.72 1039.89,-150.88 1049.77,-154.72 1050.01,-147.72"/>
<text text-anchor="start" x="1480.5" y="-176.54" font-family="Helvetica,sans-Serif" font-size="10.00">RefreshStatus &#45; TODO: Name this transition &#160;&#160;</text>
</g>
<!-- ready&#45;&gt;pending&#45;for&#45;input -->
<g id="edge2" class="edge transition">
<title>ready&#45;&gt;pending&#45;for&#45;input</title>
<path fill="none" stroke="black" d="M2078.76,-167.76C2073.06,-148.06 2060.88,-117.03 2038,-101.54 1983.19,-64.44 1807.77,-75.93 1742,-68.54 1711.54,-65.12 1677.79,-61.3 1649.25,-58.07"/>
<polygon fill="black" stroke="black" points="1650.02,-54.63 1639.69,-56.98 1649.23,-61.59 1650.02,-54.63"/>
<text text-anchor="start" x="1742" y="-104.54" font-family="Helvetica,sans-Serif" font-size="10.00">RefreshStatus &#45; Refresh discovering cluster &#45; detect required input &#160;&#160;</text>
</g>
<!-- ready&#45;&gt;pending&#45;for&#45;input -->
<g id="edge8" class="edge transition">
<title>ready&#45;&gt;pending&#45;for&#45;input</title>
<path fill="none" stroke="black" d="M2082.96,-167.71C2081.81,-138.24 2074.73,-80.01 2038,-53.54 1922.26,29.86 1743.37,-2.92 1648.04,-29.46"/>
<polygon fill="black" stroke="black" points="1647.23,-26.06 1638.57,-32.16 1649.15,-32.79 1647.23,-26.06"/>
<text text-anchor="start" x="1788.5" y="-56.54" font-family="Helvetica,sans-Serif" font-size="10.00">RefreshStatus &#45; TODO: Name this transition &#160;&#160;</text>
</g>
<!-- ready&#45;&gt;ready -->
<g id="edge14" class="edge transition">
<title>ready&#45;&gt;ready</title>
<path fill="none" stroke="black" d="M2056.16,-196.6C2038.72,-208.32 2048,-221.54 2084,-221.54 2111.56,-221.54 2123.46,-213.79 2119.7,-204.9"/>
<polygon fill="black" stroke="black" points="2122.3,-202.56 2112.88,-197.7 2117.21,-207.37 2122.3,-202.56"/>
<text text-anchor="start" x="1953" y="-224.54" font-family="Helvetica,sans-Serif" font-size="10.00">RefreshStatus &#45; Refresh discovering cluster &#45; detect ready &#160;&#160;</text>
</g>
</g>
</svg>
