<?xml version="1.0" encoding="UTF-8" standalone="no"?>
<!DOCTYPE svg PUBLIC "-//W3C//DTD SVG 1.1//EN"
 "http://www.w3.org/Graphics/SVG/1.1/DTD/svg11.dtd">
<!-- Generated by graphviz version 5.0.0 (0)
 -->
<!-- Title: state transitions Pages: 1 -->
<svg width="2223pt" height="629pt"
 viewBox="0.00 0.00 2223.00 628.55" xmlns="http://www.w3.org/2000/svg" xmlns:xlink="http://www.w3.org/1999/xlink">
<g id="graph0" class="graph" transform="scale(1 1) rotate(0) translate(4 624.55)">
<title>state transitions</title>
<polygon fill="white" stroke="transparent" points="-4,4 -4,-624.55 2219,-624.55 2219,4 -4,4"/>
<!-- adding&#45;hosts -->
<g id="node1" class="node state regular">
<title>adding&#45;hosts</title>
<polygon fill="#ffffff" fill-opacity="0.003922" stroke="transparent" stroke-width="2" points="171,-306.55 79,-306.55 79,-270.55 171,-270.55 171,-306.55"/>
<text text-anchor="start" x="90" y="-284.95" font-family="Helvetica,sans-Serif" font-size="12.00">adding&#45;hosts</text>
<path fill="none" stroke="black" stroke-width="2" d="M91,-272.05C91,-272.05 159,-272.05 159,-272.05 164.5,-272.05 170,-277.55 170,-283.05 170,-283.05 170,-294.05 170,-294.05 170,-299.55 164.5,-305.05 159,-305.05 159,-305.05 91,-305.05 91,-305.05 85.5,-305.05 80,-299.55 80,-294.05 80,-294.05 80,-283.05 80,-283.05 80,-277.55 85.5,-272.05 91,-272.05"/>
</g>
<!-- adding&#45;hosts&#45;&gt;adding&#45;hosts -->
<g id="edge40" class="edge transition">
<title>adding&#45;hosts&#45;&gt;adding&#45;hosts</title>
<path fill="none" stroke="black" d="M95.33,-306.71C90.77,-316.09 100.66,-324.55 125,-324.55 139.83,-324.55 149.3,-321.41 153.4,-316.83"/>
<polygon fill="black" stroke="black" points="156.9,-317.06 154.67,-306.71 149.95,-316.19 156.9,-317.06"/>
<text text-anchor="start" x="24.5" y="-327.55" font-family="Helvetica,sans-Serif" font-size="10.00">RefreshStatus &#45; Maintain adding&#45;hosts state &#160;&#160;</text>
</g>
<!-- cancelled -->
<g id="node2" class="node state regular">
<title>cancelled</title>
<polygon fill="#ffffff" fill-opacity="0.003922" stroke="transparent" stroke-width="2" points="162,-389.55 88,-389.55 88,-353.55 162,-353.55 162,-389.55"/>
<text text-anchor="start" x="99" y="-367.95" font-family="Helvetica,sans-Serif" font-size="12.00">cancelled</text>
<path fill="none" stroke="black" stroke-width="2" d="M100,-355.05C100,-355.05 150,-355.05 150,-355.05 155.5,-355.05 161,-360.55 161,-366.05 161,-366.05 161,-377.05 161,-377.05 161,-382.55 155.5,-388.05 150,-388.05 150,-388.05 100,-388.05 100,-388.05 94.5,-388.05 89,-382.55 89,-377.05 89,-377.05 89,-366.05 89,-366.05 89,-360.55 94.5,-355.05 100,-355.05"/>
</g>
<!-- cancelled&#45;&gt;cancelled -->
<g id="edge34" class="edge transition">
<title>cancelled&#45;&gt;cancelled</title>
<path fill="none" stroke="black" d="M110.17,-389.71C107.88,-399.09 112.83,-407.55 125,-407.55 132.42,-407.55 137.15,-404.41 139.2,-399.83"/>
<polygon fill="black" stroke="black" points="142.7,-399.9 139.83,-389.71 135.72,-399.47 142.7,-399.9"/>
<text text-anchor="start" x="0" y="-410.55" font-family="Helvetica,sans-Serif" font-size="10.00">RefreshStatus &#45; Log collection timeout during cancelled &#160;&#160;</text>
</g>
<!-- cancelled&#45;&gt;cancelled -->
<g id="edge39" class="edge transition">
<title>cancelled&#45;&gt;cancelled</title>
<path fill="none" stroke="black" d="M100.14,-389.81C87.24,-406.96 95.53,-425.55 125,-425.55 149.4,-425.55 159.28,-412.8 154.63,-398.68"/>
<polygon fill="black" stroke="black" points="157.68,-396.96 149.86,-389.81 151.52,-400.28 157.68,-396.96"/>
<text text-anchor="start" x="31.5" y="-428.55" font-family="Helvetica,sans-Serif" font-size="10.00">RefreshStatus &#45; Maintain cancelled state &#160;&#160;</text>
</g>
<!-- error -->
<g id="node3" class="node state regular">
<title>error</title>
<polygon fill="#ffffff" fill-opacity="0.003922" stroke="transparent" stroke-width="2" points="1610,-526.55 1554,-526.55 1554,-490.55 1610,-490.55 1610,-526.55"/>
<text text-anchor="start" x="1569.5" y="-504.95" font-family="Helvetica,sans-Serif" font-size="12.00">error</text>
<path fill="none" stroke="black" stroke-width="2" d="M1566,-492.05C1566,-492.05 1598,-492.05 1598,-492.05 1603.5,-492.05 1609,-497.55 1609,-503.05 1609,-503.05 1609,-514.05 1609,-514.05 1609,-519.55 1603.5,-525.05 1598,-525.05 1598,-525.05 1566,-525.05 1566,-525.05 1560.5,-525.05 1555,-519.55 1555,-514.05 1555,-514.05 1555,-503.05 1555,-503.05 1555,-497.55 1560.5,-492.05 1566,-492.05"/>
</g>
<!-- error&#45;&gt;error -->
<g id="edge33" class="edge transition">
<title>error&#45;&gt;error</title>
<path fill="none" stroke="black" d="M1554.14,-526.71C1549.85,-536.09 1559.14,-544.55 1582,-544.55 1595.93,-544.55 1604.82,-541.41 1608.67,-536.83"/>
<polygon fill="black" stroke="black" points="1612.17,-537.05 1609.86,-526.71 1605.22,-536.23 1612.17,-537.05"/>
<text text-anchor="start" x="1468" y="-547.55" font-family="Helvetica,sans-Serif" font-size="10.00">RefreshStatus &#45; Log collection timeout during error &#160;&#160;</text>
</g>
<!-- error&#45;&gt;error -->
<g id="edge38" class="edge transition">
<title>error&#45;&gt;error</title>
<path fill="none" stroke="black" d="M1553.76,-517.19C1506.57,-536.09 1515.98,-562.55 1582,-562.55 1643.12,-562.55 1655.73,-539.87 1619.81,-521.51"/>
<polygon fill="black" stroke="black" points="1620.79,-518.11 1610.24,-517.19 1617.92,-524.5 1620.79,-518.11"/>
<text text-anchor="start" x="1499.5" y="-565.55" font-family="Helvetica,sans-Serif" font-size="10.00">RefreshStatus &#45; Maintain error state &#160;&#160;</text>
</g>
<!-- finalizing -->
<g id="node4" class="node state regular">
<title>finalizing</title>
<polygon fill="#ffffff" fill-opacity="0.003922" stroke="transparent" stroke-width="2" points="160,-501.55 90,-501.55 90,-465.55 160,-465.55 160,-501.55"/>
<text text-anchor="start" x="101" y="-479.95" font-family="Helvetica,sans-Serif" font-size="12.00">finalizing</text>
<path fill="none" stroke="black" stroke-width="2" d="M102,-467.05C102,-467.05 148,-467.05 148,-467.05 153.5,-467.05 159,-472.55 159,-478.05 159,-478.05 159,-489.05 159,-489.05 159,-494.55 153.5,-500.05 148,-500.05 148,-500.05 102,-500.05 102,-500.05 96.5,-500.05 91,-494.55 91,-489.05 91,-489.05 91,-478.05 91,-478.05 91,-472.55 96.5,-467.05 102,-467.05"/>
</g>
<!-- finalizing&#45;&gt;error -->
<g id="edge23" class="edge transition">
<title>finalizing&#45;&gt;error</title>
<path fill="none" stroke="black" d="M144.38,-501.65C156.23,-512.37 172.46,-525.41 189,-533.55 279.81,-578.25 309.53,-576.24 410,-588.55 648.84,-617.83 899.48,-628.33 1422,-549.55 1464.48,-543.15 1512.04,-530.08 1543.98,-520.41"/>
<polygon fill="black" stroke="black" points="1545.25,-523.68 1553.78,-517.4 1543.19,-516.99 1545.25,-523.68"/>
<text text-anchor="start" x="645" y="-612.55" font-family="Helvetica,sans-Serif" font-size="10.00">RefreshStatus &#45; Timed out while finalizing &#160;&#160;</text>
</g>
<!-- finalizing&#45;&gt;finalizing -->
<g id="edge30" class="edge transition">
<title>finalizing&#45;&gt;finalizing</title>
<path fill="none" stroke="black" d="M110.17,-501.71C107.88,-511.09 112.83,-519.55 125,-519.55 132.42,-519.55 137.15,-516.41 139.2,-511.83"/>
<polygon fill="black" stroke="black" points="142.7,-511.9 139.83,-501.71 135.72,-511.47 142.7,-511.9"/>
<text text-anchor="start" x="28.5" y="-522.55" font-family="Helvetica,sans-Serif" font-size="10.00">RefreshStatus &#45; Update AMS subscription &#160;&#160;</text>
</g>
<!-- finalizing&#45;&gt;finalizing -->
<g id="edge36" class="edge transition">
<title>finalizing&#45;&gt;finalizing</title>
<path fill="none" stroke="black" d="M100.14,-501.81C87.24,-518.96 95.53,-537.55 125,-537.55 149.4,-537.55 159.28,-524.8 154.63,-510.68"/>
<polygon fill="black" stroke="black" points="157.68,-508.96 149.86,-501.81 151.52,-512.28 157.68,-508.96"/>
<text text-anchor="start" x="33.5" y="-540.55" font-family="Helvetica,sans-Serif" font-size="10.00">RefreshStatus &#45; Maintain finalizing state &#160;&#160;</text>
</g>
<!-- installed -->
<g id="node5" class="node state regular">
<title>installed</title>
<polygon fill="#ffffff" fill-opacity="0.003922" stroke="transparent" stroke-width="2" points="534.5,-550.55 466.5,-550.55 466.5,-514.55 534.5,-514.55 534.5,-550.55"/>
<text text-anchor="start" x="477.5" y="-528.95" font-family="Helvetica,sans-Serif" font-size="12.00">installed</text>
<path fill="none" stroke="black" stroke-width="2" d="M478.5,-516.05C478.5,-516.05 522.5,-516.05 522.5,-516.05 528,-516.05 533.5,-521.55 533.5,-527.05 533.5,-527.05 533.5,-538.05 533.5,-538.05 533.5,-543.55 528,-549.05 522.5,-549.05 522.5,-549.05 478.5,-549.05 478.5,-549.05 473,-549.05 467.5,-543.55 467.5,-538.05 467.5,-538.05 467.5,-527.05 467.5,-527.05 467.5,-521.55 473,-516.05 478.5,-516.05"/>
</g>
<!-- finalizing&#45;&gt;installed -->
<g id="edge31" class="edge transition">
<title>finalizing&#45;&gt;installed</title>
<path fill="none" stroke="black" d="M160.3,-489.2C169.6,-490.68 179.68,-492.23 189,-493.55 284.14,-507.08 396.04,-520.53 456.12,-527.55"/>
<polygon fill="black" stroke="black" points="456.03,-531.07 466.37,-528.75 456.84,-524.11 456.03,-531.07"/>
<text text-anchor="start" x="208.5" y="-521.55" font-family="Helvetica,sans-Serif" font-size="10.00">RefreshStatus &#45; Finalizing complete &#160;&#160;</text>
</g>
<!-- installing&#45;pending&#45;user&#45;action -->
<g id="node7" class="node state regular">
<title>installing&#45;pending&#45;user&#45;action</title>
<polygon fill="#ffffff" fill-opacity="0.003922" stroke="transparent" stroke-width="2" points="591,-467.55 410,-467.55 410,-431.55 591,-431.55 591,-467.55"/>
<text text-anchor="start" x="421.5" y="-445.95" font-family="Helvetica,sans-Serif" font-size="12.00">installing&#45;pending&#45;user&#45;action</text>
<path fill="none" stroke="black" stroke-width="2" d="M422,-433.05C422,-433.05 579,-433.05 579,-433.05 584.5,-433.05 590,-438.55 590,-444.05 590,-444.05 590,-455.05 590,-455.05 590,-460.55 584.5,-466.05 579,-466.05 579,-466.05 422,-466.05 422,-466.05 416.5,-466.05 411,-460.55 411,-455.05 411,-455.05 411,-444.05 411,-444.05 411,-438.55 416.5,-433.05 422,-433.05"/>
</g>
<!-- finalizing&#45;&gt;installing&#45;pending&#45;user&#45;action -->
<g id="edge27" class="edge transition">
<title>finalizing&#45;&gt;installing&#45;pending&#45;user&#45;action</title>
<path fill="none" stroke="black" d="M160.04,-481.05C210.66,-477.26 308.75,-469.64 392,-461.55 394.53,-461.31 397.1,-461.05 399.69,-460.79"/>
<polygon fill="black" stroke="black" points="400.18,-464.26 409.78,-459.76 399.47,-457.3 400.18,-464.26"/>
<text text-anchor="start" x="189" y="-481.55" font-family="Helvetica,sans-Serif" font-size="10.00">RefreshStatus &#45; TODO: Name this transition &#160;&#160;</text>
</g>
<!-- installed&#45;&gt;installed -->
<g id="edge37" class="edge transition">
<title>installed&#45;&gt;installed</title>
<path fill="none" stroke="black" d="M466.21,-546.59C453.39,-557.47 464.82,-568.55 500.5,-568.55 526.15,-568.55 539.27,-562.83 539.85,-555.57"/>
<polygon fill="black" stroke="black" points="542.75,-553.58 534.79,-546.59 536.66,-557.02 542.75,-553.58"/>
<text text-anchor="start" x="410" y="-571.55" font-family="Helvetica,sans-Serif" font-size="10.00">RefreshStatus &#45; Maintain installed state &#160;&#160;</text>
</g>
<!-- installing -->
<g id="node6" class="node state regular">
<title>installing</title>
<polygon fill="#ffffff" fill-opacity="0.003922" stroke="transparent" stroke-width="2" points="1034,-420.55 963,-420.55 963,-384.55 1034,-384.55 1034,-420.55"/>
<text text-anchor="start" x="974.5" y="-398.95" font-family="Helvetica,sans-Serif" font-size="12.00">installing</text>
<path fill="none" stroke="black" stroke-width="2" d="M975,-386.05C975,-386.05 1022,-386.05 1022,-386.05 1027.5,-386.05 1033,-391.55 1033,-397.05 1033,-397.05 1033,-408.05 1033,-408.05 1033,-413.55 1027.5,-419.05 1022,-419.05 1022,-419.05 975,-419.05 975,-419.05 969.5,-419.05 964,-413.55 964,-408.05 964,-408.05 964,-397.05 964,-397.05 964,-391.55 969.5,-386.05 975,-386.05"/>
</g>
<!-- installing&#45;&gt;error -->
<g id="edge32" class="edge transition">
<title>installing&#45;&gt;error</title>
<path fill="none" stroke="black" d="M1034.05,-405.45C1106.56,-411.92 1279.68,-429.5 1422,-460.55 1464.45,-469.82 1512.02,-484.8 1543.97,-495.57"/>
<polygon fill="black" stroke="black" points="1543.17,-499 1553.77,-498.9 1545.43,-492.37 1543.17,-499"/>
<text text-anchor="start" x="1198.5" y="-463.55" font-family="Helvetica,sans-Serif" font-size="10.00">RefreshStatus &#45; Installation error &#160;&#160;</text>
</g>
<!-- installing&#45;&gt;finalizing -->
<g id="edge28" class="edge transition">
<title>installing&#45;&gt;finalizing</title>
<path fill="none" stroke="black" d="M962.7,-402.11C871.77,-401.17 619.56,-399.92 410,-411.55 311.57,-417.02 274.28,-381.1 189,-430.55 176.84,-437.6 181.26,-446.94 171,-456.55 170.07,-457.43 169.1,-458.29 168.1,-459.14"/>
<polygon fill="black" stroke="black" points="165.88,-456.43 160.06,-465.29 170.13,-461.99 165.88,-456.43"/>
<text text-anchor="start" x="422.5" y="-414.55" font-family="Helvetica,sans-Serif" font-size="10.00">RefreshStatus &#45; Move to finalizing &#160;&#160;</text>
</g>
<!-- installing&#45;&gt;installing -->
<g id="edge29" class="edge transition">
<title>installing&#45;&gt;installing</title>
<path fill="none" stroke="black" d="M962.99,-412.87C937.78,-424.77 949.62,-438.55 998.5,-438.55 1040.12,-438.55 1054.89,-428.56 1042.79,-418.24"/>
<polygon fill="black" stroke="black" points="1044.37,-415.11 1034.01,-412.87 1040.71,-421.08 1044.37,-415.11"/>
<text text-anchor="start" x="922" y="-441.55" font-family="Helvetica,sans-Serif" font-size="10.00">RefreshStatus &#45; Stay in installing &#160;&#160;</text>
</g>
<!-- installing&#45;&gt;installing&#45;pending&#45;user&#45;action -->
<g id="edge26" class="edge transition">
<title>installing&#45;&gt;installing&#45;pending&#45;user&#45;action</title>
<path fill="none" stroke="black" d="M962.74,-402.52C894.54,-402.91 738.56,-405.96 609,-424.55 599.95,-425.85 590.53,-427.54 581.2,-429.42"/>
<polygon fill="black" stroke="black" points="580.21,-426.05 571.14,-431.52 581.65,-432.9 580.21,-426.05"/>
<text text-anchor="start" x="638.5" y="-427.55" font-family="Helvetica,sans-Serif" font-size="10.00">RefreshStatus &#45; TODO: Name this transition &#160;&#160;</text>
</g>
<!-- installing&#45;pending&#45;user&#45;action&#45;&gt;error -->
<g id="edge20" class="edge transition">
<title>installing&#45;pending&#45;user&#45;action&#45;&gt;error</title>
<path fill="none" stroke="black" d="M531.3,-467.64C552.22,-479.25 581.29,-493.29 609,-499.55 964.83,-579.99 1412.8,-531 1543.58,-513.81"/>
<polygon fill="black" stroke="black" points="1544.4,-517.23 1553.85,-512.44 1543.47,-510.29 1544.4,-517.23"/>
<text text-anchor="start" x="897" y="-546.55" font-family="Helvetica,sans-Serif" font-size="10.00">RefreshStatus &#45; TODO: Name this transition &#160;&#160;</text>
</g>
<!-- installing&#45;pending&#45;user&#45;action&#45;&gt;error -->
<g id="edge22" class="edge transition">
<title>installing&#45;pending&#45;user&#45;action&#45;&gt;error</title>
<path fill="none" stroke="black" d="M591.13,-465.41C597.17,-466.22 603.17,-466.94 609,-467.55 971.73,-505.42 1414.08,-508.58 1543.67,-508.64"/>
<polygon fill="black" stroke="black" points="1543.85,-512.14 1553.85,-508.64 1543.85,-505.14 1543.85,-512.14"/>
<text text-anchor="start" x="889" y="-502.55" font-family="Helvetica,sans-Serif" font-size="10.00">RefreshStatus &#45; Timed out while waiting for user &#160;&#160;</text>
</g>
<!-- installing&#45;pending&#45;user&#45;action&#45;&gt;finalizing -->
<g id="edge25" class="edge transition">
<title>installing&#45;pending&#45;user&#45;action&#45;&gt;finalizing</title>
<path fill="none" stroke="black" d="M409.79,-438.7C347.02,-433.79 261.73,-432.53 189,-450.55 180.12,-452.75 171.1,-456.45 162.77,-460.58"/>
<polygon fill="black" stroke="black" points="160.9,-457.61 153.69,-465.38 164.17,-463.8 160.9,-457.61"/>
<text text-anchor="start" x="189" y="-453.55" font-family="Helvetica,sans-Serif" font-size="10.00">RefreshStatus &#45; TODO: Name this transition &#160;&#160;</text>
</g>
<!-- installing&#45;pending&#45;user&#45;action&#45;&gt;installing -->
<g id="edge24" class="edge transition">
<title>installing&#45;pending&#45;user&#45;action&#45;&gt;installing</title>
<path fill="none" stroke="black" d="M591.27,-452.56C666.43,-453.66 776.3,-451.98 871,-437.55 898.82,-433.31 929.23,-425.02 953.27,-417.57"/>
<polygon fill="black" stroke="black" points="954.33,-420.9 962.81,-414.55 952.22,-414.23 954.33,-420.9"/>
<text text-anchor="start" x="638.5" y="-455.55" font-family="Helvetica,sans-Serif" font-size="10.00">RefreshStatus &#45; TODO: Name this transition &#160;&#160;</text>
</g>
<!-- installing&#45;pending&#45;user&#45;action&#45;&gt;installing&#45;pending&#45;user&#45;action -->
<g id="edge21" class="edge transition">
<title>installing&#45;pending&#45;user&#45;action&#45;&gt;installing&#45;pending&#45;user&#45;action</title>
<path fill="none" stroke="black" d="M462.51,-467.71C456.66,-477.09 469.33,-485.55 500.5,-485.55 519.5,-485.55 531.62,-482.41 536.87,-477.83"/>
<polygon fill="black" stroke="black" points="540.36,-478.13 538.49,-467.71 533.45,-477.03 540.36,-478.13"/>
<text text-anchor="start" x="399" y="-488.55" font-family="Helvetica,sans-Serif" font-size="10.00">RefreshStatus &#45; TODO: Name this transition &#160;&#160;</text>
</g>
<!-- insufficient -->
<g id="node8" class="node state regular">
<title>insufficient</title>
<polygon fill="#ffffff" fill-opacity="0.003922" stroke="transparent" stroke-width="2" points="1038.5,-167.55 958.5,-167.55 958.5,-131.55 1038.5,-131.55 1038.5,-167.55"/>
<text text-anchor="start" x="969.5" y="-145.95" font-family="Helvetica,sans-Serif" font-size="12.00">insufficient</text>
<path fill="none" stroke="black" stroke-width="2" d="M970.5,-133.05C970.5,-133.05 1026.5,-133.05 1026.5,-133.05 1032,-133.05 1037.5,-138.55 1037.5,-144.05 1037.5,-144.05 1037.5,-155.05 1037.5,-155.05 1037.5,-160.55 1032,-166.05 1026.5,-166.05 1026.5,-166.05 970.5,-166.05 970.5,-166.05 965,-166.05 959.5,-160.55 959.5,-155.05 959.5,-155.05 959.5,-144.05 959.5,-144.05 959.5,-138.55 965,-133.05 970.5,-133.05"/>
</g>
<!-- insufficient&#45;&gt;insufficient -->
<g id="edge6" class="edge transition">
<title>insufficient&#45;&gt;insufficient</title>
<path fill="none" stroke="black" d="M975.16,-167.71C971.57,-177.09 979.35,-185.55 998.5,-185.55 1010.17,-185.55 1017.62,-182.41 1020.84,-177.83"/>
<polygon fill="black" stroke="black" points="1024.34,-178 1021.84,-167.71 1017.37,-177.31 1024.34,-178"/>
<text text-anchor="start" x="856.5" y="-188.55" font-family="Helvetica,sans-Serif" font-size="10.00">RefreshStatus &#45; Refresh discovering cluster &#45; detect insufficient &#160;&#160;</text>
</g>
<!-- insufficient&#45;&gt;insufficient -->
<g id="edge12" class="edge transition">
<title>insufficient&#45;&gt;insufficient</title>
<path fill="none" stroke="black" d="M959.38,-167.81C939.1,-184.96 952.14,-203.55 998.5,-203.55 1037.98,-203.55 1053.29,-190.07 1044.45,-175.48"/>
<polygon fill="black" stroke="black" points="1046.88,-172.95 1037.62,-167.81 1041.65,-177.61 1046.88,-172.95"/>
<text text-anchor="start" x="897" y="-206.55" font-family="Helvetica,sans-Serif" font-size="10.00">RefreshStatus &#45; TODO: Name this transition &#160;&#160;</text>
</g>
<!-- pending&#45;for&#45;input -->
<g id="node9" class="node state regular">
<title>pending&#45;for&#45;input</title>
<polygon fill="#ffffff" fill-opacity="0.003922" stroke="transparent" stroke-width="2" points="1638.5,-68.55 1525.5,-68.55 1525.5,-32.55 1638.5,-32.55 1638.5,-68.55"/>
<text text-anchor="start" x="1537" y="-46.95" font-family="Helvetica,sans-Serif" font-size="12.00">pending&#45;for&#45;input</text>
<path fill="none" stroke="black" stroke-width="2" d="M1537.5,-34.05C1537.5,-34.05 1626.5,-34.05 1626.5,-34.05 1632,-34.05 1637.5,-39.55 1637.5,-45.05 1637.5,-45.05 1637.5,-56.05 1637.5,-56.05 1637.5,-61.55 1632,-67.05 1626.5,-67.05 1626.5,-67.05 1537.5,-67.05 1537.5,-67.05 1532,-67.05 1526.5,-61.55 1526.5,-56.05 1526.5,-56.05 1526.5,-45.05 1526.5,-45.05 1526.5,-39.55 1532,-34.05 1537.5,-34.05"/>
</g>
<!-- insufficient&#45;&gt;pending&#45;for&#45;input -->
<g id="edge3" class="edge transition">
<title>insufficient&#45;&gt;pending&#45;for&#45;input</title>
<path fill="none" stroke="black" d="M1038.57,-132.22C1063.16,-122.1 1095.85,-110.08 1126,-103.55 1254.97,-75.64 1291.2,-97.92 1422,-80.55 1452.89,-76.45 1486.86,-70.27 1515.44,-64.59"/>
<polygon fill="black" stroke="black" points="1516.2,-68 1525.32,-62.6 1514.82,-61.14 1516.2,-68"/>
<text text-anchor="start" x="1126" y="-106.55" font-family="Helvetica,sans-Serif" font-size="10.00">RefreshStatus &#45; Refresh discovering cluster &#45; detect required input &#160;&#160;</text>
</g>
<!-- insufficient&#45;&gt;pending&#45;for&#45;input -->
<g id="edge9" class="edge transition">
<title>insufficient&#45;&gt;pending&#45;for&#45;input</title>
<path fill="none" stroke="black" d="M1019.63,-131.49C1043.19,-111.61 1084.33,-80.73 1126,-67.55 1196.46,-45.28 1406.7,-46.47 1514.96,-48.74"/>
<polygon fill="black" stroke="black" points="1515.04,-52.24 1525.11,-48.96 1515.19,-45.24 1515.04,-52.24"/>
<text text-anchor="start" x="1172.5" y="-70.55" font-family="Helvetica,sans-Serif" font-size="10.00">RefreshStatus &#45; TODO: Name this transition &#160;&#160;</text>
</g>
<!-- ready -->
<g id="node11" class="node state regular">
<title>ready</title>
<polygon fill="#ffffff" fill-opacity="0.003922" stroke="transparent" stroke-width="2" points="2112,-203.55 2056,-203.55 2056,-167.55 2112,-167.55 2112,-203.55"/>
<text text-anchor="start" x="2068.5" y="-181.95" font-family="Helvetica,sans-Serif" font-size="12.00">ready</text>
<path fill="none" stroke="black" stroke-width="2" d="M2068,-169.05C2068,-169.05 2100,-169.05 2100,-169.05 2105.5,-169.05 2111,-174.55 2111,-180.05 2111,-180.05 2111,-191.05 2111,-191.05 2111,-196.55 2105.5,-202.05 2100,-202.05 2100,-202.05 2068,-202.05 2068,-202.05 2062.5,-202.05 2057,-196.55 2057,-191.05 2057,-191.05 2057,-180.05 2057,-180.05 2057,-174.55 2062.5,-169.05 2068,-169.05"/>
</g>
<!-- insufficient&#45;&gt;ready -->
<g id="edge15" class="edge transition">
<title>insufficient&#45;&gt;ready</title>
<path fill="none" stroke="black" d="M1035.01,-167.62C1059.81,-179.29 1094.08,-193.57 1126,-200.55 1385.71,-257.4 1458.16,-218.52 1724,-215.55 1863.58,-214 1902.66,-242.74 2038,-208.55 2040.79,-207.85 2043.61,-206.95 2046.39,-205.91"/>
<polygon fill="black" stroke="black" points="2047.85,-209.09 2055.68,-201.95 2045.11,-202.65 2047.85,-209.09"/>
<text text-anchor="start" x="1451" y="-232.55" font-family="Helvetica,sans-Serif" font-size="10.00">RefreshStatus &#45; Refresh discovering cluster &#45; detect ready &#160;&#160;</text>
</g>
<!-- pending&#45;for&#45;input&#45;&gt;insufficient -->
<g id="edge4" class="edge transition">
<title>pending&#45;for&#45;input&#45;&gt;insufficient</title>
<path fill="none" stroke="black" d="M1525.49,-35.29C1437.42,-13.97 1261.76,16.59 1126,-35.55 1080.48,-53.04 1041.11,-95.31 1018.85,-123.18"/>
<polygon fill="black" stroke="black" points="1015.89,-121.28 1012.51,-131.32 1021.42,-125.58 1015.89,-121.28"/>
<text text-anchor="start" x="1132" y="-38.55" font-family="Helvetica,sans-Serif" font-size="10.00">RefreshStatus &#45; Refresh discovering cluster &#45; detect insufficient &#160;&#160;</text>
</g>
<!-- pending&#45;for&#45;input&#45;&gt;insufficient -->
<g id="edge10" class="edge transition">
<title>pending&#45;for&#45;input&#45;&gt;insufficient</title>
<path fill="none" stroke="black" d="M1545.09,-68.7C1513.52,-83.74 1465.89,-104.27 1422,-114.55 1293.53,-144.65 1257.46,-126.21 1126,-137.55 1100.44,-139.76 1072,-142.44 1048.57,-144.7"/>
<polygon fill="black" stroke="black" points="1048.13,-141.23 1038.52,-145.68 1048.81,-148.2 1048.13,-141.23"/>
<text text-anchor="start" x="1172.5" y="-140.55" font-family="Helvetica,sans-Serif" font-size="10.00">RefreshStatus &#45; TODO: Name this transition &#160;&#160;</text>
</g>
<!-- pending&#45;for&#45;input&#45;&gt;pending&#45;for&#45;input -->
<g id="edge1" class="edge transition">
<title>pending&#45;for&#45;input&#45;&gt;pending&#45;for&#45;input</title>
<path fill="none" stroke="black" d="M1554.14,-68.71C1549.85,-78.09 1559.14,-86.55 1582,-86.55 1595.93,-86.55 1604.82,-83.41 1608.67,-78.83"/>
<polygon fill="black" stroke="black" points="1612.17,-79.05 1609.86,-68.71 1605.22,-78.23 1612.17,-79.05"/>
<text text-anchor="start" x="1434" y="-89.55" font-family="Helvetica,sans-Serif" font-size="10.00">RefreshStatus &#45; Refresh discovering cluster &#45; detect required input &#160;&#160;</text>
</g>
<!-- pending&#45;for&#45;input&#45;&gt;pending&#45;for&#45;input -->
<g id="edge7" class="edge transition">
<title>pending&#45;for&#45;input&#45;&gt;pending&#45;for&#45;input</title>
<path fill="none" stroke="black" d="M1535.3,-68.81C1511.09,-85.96 1526.66,-104.55 1582,-104.55 1629.99,-104.55 1648.07,-90.57 1636.24,-75.67"/>
<polygon fill="black" stroke="black" points="1638.45,-72.95 1628.7,-68.81 1633.74,-78.13 1638.45,-72.95"/>
<text text-anchor="start" x="1480.5" y="-107.55" font-family="Helvetica,sans-Serif" font-size="10.00">RefreshStatus &#45; TODO: Name this transition &#160;&#160;</text>
</g>
<!-- pending&#45;for&#45;input&#45;&gt;ready -->
<g id="edge13" class="edge transition">
<title>pending&#45;for&#45;input&#45;&gt;ready</title>
<path fill="none" stroke="black" d="M1620.26,-68.62C1651.87,-83.08 1698.85,-102.54 1742,-112.55 1806.3,-127.48 1978.59,-108.78 2038,-137.55 2048.28,-142.53 2057.4,-150.95 2064.69,-159.36"/>
<polygon fill="black" stroke="black" points="2062.1,-161.72 2071.11,-167.3 2067.55,-157.32 2062.1,-161.72"/>
<text text-anchor="start" x="1759" y="-140.55" font-family="Helvetica,sans-Serif" font-size="10.00">RefreshStatus &#45; Refresh discovering cluster &#45; detect ready &#160;&#160;</text>
</g>
<!-- preparing&#45;for&#45;installation -->
<g id="node10" class="node state regular">
<title>preparing&#45;for&#45;installation</title>
<polygon fill="#ffffff" fill-opacity="0.003922" stroke="transparent" stroke-width="2" points="576.5,-320.55 424.5,-320.55 424.5,-284.55 576.5,-284.55 576.5,-320.55"/>
<text text-anchor="start" x="435.5" y="-298.95" font-family="Helvetica,sans-Serif" font-size="12.00">preparing&#45;for&#45;installation</text>
<path fill="none" stroke="black" stroke-width="2" d="M436.5,-286.05C436.5,-286.05 564.5,-286.05 564.5,-286.05 570,-286.05 575.5,-291.55 575.5,-297.05 575.5,-297.05 575.5,-308.05 575.5,-308.05 575.5,-313.55 570,-319.05 564.5,-319.05 564.5,-319.05 436.5,-319.05 436.5,-319.05 431,-319.05 425.5,-313.55 425.5,-308.05 425.5,-308.05 425.5,-297.05 425.5,-297.05 425.5,-291.55 431,-286.05 436.5,-286.05"/>
</g>
<!-- preparing&#45;for&#45;installation&#45;&gt;installing -->
<g id="edge17" class="edge transition">
<title>preparing&#45;for&#45;installation&#45;&gt;installing</title>
<path fill="none" stroke="black" d="M539.96,-320.66C560.09,-329.34 585.39,-339.03 609,-344.55 722.81,-371.2 755.97,-346.77 871,-367.55 898.79,-372.57 929.32,-380.94 953.42,-388.23"/>
<polygon fill="black" stroke="black" points="952.41,-391.58 962.99,-391.17 954.46,-384.89 952.41,-391.58"/>
<text text-anchor="start" x="609" y="-370.55" font-family="Helvetica,sans-Serif" font-size="10.00">RefreshStatus &#45; Refresh preparing cluster &#45; done preparing &#160;&#160;</text>
</g>
<!-- preparing&#45;for&#45;installation&#45;&gt;insufficient -->
<g id="edge18" class="edge transition">
<title>preparing&#45;for&#45;installation&#45;&gt;insufficient</title>
<path fill="none" stroke="black" d="M559.86,-284.55C658.56,-254.1 856.69,-192.99 948.6,-164.64"/>
<polygon fill="black" stroke="black" points="949.69,-167.96 958.22,-161.67 947.63,-161.27 949.69,-167.96"/>
<text text-anchor="start" x="617.5" y="-269.55" font-family="Helvetica,sans-Serif" font-size="10.00">RefreshStatus &#45; Refresh preparing cluster &#45; insufficient &#160;&#160;</text>
</g>
<!-- preparing&#45;for&#45;installation&#45;&gt;preparing&#45;for&#45;installation -->
<g id="edge35" class="edge transition">
<title>preparing&#45;for&#45;installation&#45;&gt;preparing&#45;for&#45;installation</title>
<path fill="none" stroke="black" d="M462.51,-320.71C456.66,-330.09 469.33,-338.55 500.5,-338.55 519.5,-338.55 531.62,-335.41 536.87,-330.83"/>
<polygon fill="black" stroke="black" points="540.36,-331.13 538.49,-320.71 533.45,-330.03 540.36,-331.13"/>
<text text-anchor="start" x="376" y="-341.55" font-family="Helvetica,sans-Serif" font-size="10.00">RefreshStatus &#45; Maintain preparing&#45;for&#45;installation state &#160;&#160;</text>
</g>
<!-- preparing&#45;for&#45;installation&#45;&gt;ready -->
<g id="edge16" class="edge transition">
<title>preparing&#45;for&#45;installation&#45;&gt;ready</title>
<path fill="none" stroke="black" d="M576.65,-308.05C587.5,-308.67 598.53,-309.2 609,-309.55 838.65,-317.24 896.22,-310.33 1126,-310.55 1531.33,-310.95 1706.27,-542.47 2038,-309.55 2068.72,-287.99 2078.55,-243.22 2081.64,-213.79"/>
<polygon fill="black" stroke="black" points="2085.14,-213.98 2082.51,-203.72 2078.17,-213.38 2085.14,-213.98"/>
<text text-anchor="start" x="1143.5" y="-352.55" font-family="Helvetica,sans-Serif" font-size="10.00">RefreshStatus &#45; Refresh preparing cluster &#45; detect timeout &#160;&#160;</text>
</g>
<!-- preparing&#45;for&#45;installation&#45;&gt;ready -->
<g id="edge19" class="edge transition">
<title>preparing&#45;for&#45;installation&#45;&gt;ready</title>
<path fill="none" stroke="black" d="M576.65,-302.3C866.74,-300.87 1904.05,-291.58 2038,-231.55 2047.94,-227.1 2056.84,-219.36 2064.04,-211.5"/>
<polygon fill="black" stroke="black" points="2066.86,-213.59 2070.66,-203.7 2061.52,-209.06 2066.86,-213.59"/>
<text text-anchor="start" x="1163" y="-298.55" font-family="Helvetica,sans-Serif" font-size="10.00">RefreshStatus &#45; Refresh preparing cluster &#45; failed &#160;&#160;</text>
</g>
<!-- ready&#45;&gt;insufficient -->
<g id="edge5" class="edge transition">
<title>ready&#45;&gt;insufficient</title>
<path fill="none" stroke="black" d="M2055.86,-187.28C1942.05,-194.11 1492.22,-216.94 1126,-176.55 1100.24,-173.71 1071.99,-167.94 1048.74,-162.47"/>
<polygon fill="black" stroke="black" points="1049.31,-159 1038.77,-160.06 1047.67,-165.81 1049.31,-159"/>
<text text-anchor="start" x="1440" y="-203.55" font-family="Helvetica,sans-Serif" font-size="10.00">RefreshStatus &#45; Refresh discovering cluster &#45; detect insufficient &#160;&#160;</text>
</g>
<!-- ready&#45;&gt;insufficient -->
<g id="edge11" class="edge transition">
<title>ready&#45;&gt;insufficient</title>
<path fill="none" stroke="black" d="M2055.92,-184.65C1912.18,-179.88 1237.96,-157.48 1048.9,-151.19"/>
<polygon fill="black" stroke="black" points="1048.81,-147.69 1038.7,-150.86 1048.58,-154.69 1048.81,-147.69"/>
<text text-anchor="start" x="1480.5" y="-176.55" font-family="Helvetica,sans-Serif" font-size="10.00">RefreshStatus &#45; TODO: Name this transition &#160;&#160;</text>
</g>
<!-- ready&#45;&gt;pending&#45;for&#45;input -->
<g id="edge2" class="edge transition">
<title>ready&#45;&gt;pending&#45;for&#45;input</title>
<path fill="none" stroke="black" d="M2078.66,-167.41C2072.91,-147.7 2060.74,-116.95 2038,-101.55 1983.19,-64.46 1807.77,-75.94 1742,-68.55 1711.39,-65.11 1677.47,-61.28 1648.84,-58.03"/>
<polygon fill="black" stroke="black" points="1648.88,-54.51 1638.55,-56.87 1648.09,-61.47 1648.88,-54.51"/>
<text text-anchor="start" x="1742" y="-104.55" font-family="Helvetica,sans-Serif" font-size="10.00">RefreshStatus &#45; Refresh discovering cluster &#45; detect required input &#160;&#160;</text>
</g>
<!-- ready&#45;&gt;pending&#45;for&#45;input -->
<g id="edge8" class="edge transition">
<title>ready&#45;&gt;pending&#45;for&#45;input</title>
<path fill="none" stroke="black" d="M2082.94,-167.25C2081.74,-137.63 2074.54,-79.88 2038,-53.55 1921.94,30.08 1742.4,-3.11 1647.26,-29.69"/>
<polygon fill="black" stroke="black" points="1646.14,-26.37 1637.49,-32.48 1648.06,-33.1 1646.14,-26.37"/>
<text text-anchor="start" x="1788.5" y="-56.55" font-family="Helvetica,sans-Serif" font-size="10.00">RefreshStatus &#45; TODO: Name this transition &#160;&#160;</text>
</g>
<!-- ready&#45;&gt;ready -->
<g id="edge14" class="edge transition">
<title>ready&#45;&gt;ready</title>
<path fill="none" stroke="black" d="M2055.89,-196.8C2038.82,-208.47 2048.19,-221.55 2084,-221.55 2112.53,-221.55 2124.28,-213.25 2119.24,-203.96"/>
<polygon fill="black" stroke="black" points="2121.65,-201.42 2112.11,-196.8 2116.68,-206.35 2121.65,-201.42"/>
<text text-anchor="start" x="1953" y="-224.55" font-family="Helvetica,sans-Serif" font-size="10.00">RefreshStatus &#45; Refresh discovering cluster &#45; detect ready &#160;&#160;</text>
</g>
</g>
</svg>
