<?xml version="1.0" encoding="UTF-8" standalone="no"?>
<!DOCTYPE svg PUBLIC "-//W3C//DTD SVG 1.1//EN"
 "http://www.w3.org/Graphics/SVG/1.1/DTD/svg11.dtd">
<!-- Generated by graphviz version 5.0.0 (0)
 -->
<!-- Title: state transitions Pages: 1 -->
<svg width="459pt" height="314pt"
 viewBox="0.00 0.00 459.00 314.00" xmlns="http://www.w3.org/2000/svg" xmlns:xlink="http://www.w3.org/1999/xlink">
<g id="graph0" class="graph" transform="scale(1 1) rotate(0) translate(4 310)">
<title>state transitions</title>
<polygon fill="white" stroke="transparent" points="-4,4 -4,-310 455,-310 455,4 -4,4"/>
<!-- cancelled -->
<g id="node1" class="node state regular">
<title>cancelled</title>
<polygon fill="#ffffff" fill-opacity="0.003922" stroke="transparent" stroke-width="2" points="127.5,-306 53.5,-306 53.5,-270 127.5,-270 127.5,-306"/>
<text text-anchor="start" x="64.5" y="-284.4" font-family="Helvetica,sans-Serif" font-size="12.00">cancelled</text>
<path fill="none" stroke="black" stroke-width="2" d="M65.5,-271.5C65.5,-271.5 115.5,-271.5 115.5,-271.5 121,-271.5 126.5,-277 126.5,-282.5 126.5,-282.5 126.5,-293.5 126.5,-293.5 126.5,-299 121,-304.5 115.5,-304.5 115.5,-304.5 65.5,-304.5 65.5,-304.5 60,-304.5 54.5,-299 54.5,-293.5 54.5,-293.5 54.5,-282.5 54.5,-282.5 54.5,-277 60,-271.5 65.5,-271.5"/>
</g>
<!-- insufficient -->
<g id="node6" class="node state regular">
<title>insufficient</title>
<polygon fill="#ffffff" fill-opacity="0.003922" stroke="transparent" stroke-width="2" points="451,-171 371,-171 371,-135 451,-135 451,-171"/>
<text text-anchor="start" x="382" y="-149.4" font-family="Helvetica,sans-Serif" font-size="12.00">insufficient</text>
<path fill="none" stroke="black" stroke-width="2" d="M383,-136.5C383,-136.5 439,-136.5 439,-136.5 444.5,-136.5 450,-142 450,-147.5 450,-147.5 450,-158.5 450,-158.5 450,-164 444.5,-169.5 439,-169.5 439,-169.5 383,-169.5 383,-169.5 377.5,-169.5 372,-164 372,-158.5 372,-158.5 372,-147.5 372,-147.5 372,-142 377.5,-136.5 383,-136.5"/>
</g>
<!-- cancelled&#45;&gt;insufficient -->
<g id="edge5" class="edge transition">
<title>cancelled&#45;&gt;insufficient</title>
<path fill="none" stroke="black" d="M127.67,-289.1C181.29,-289.01 283.04,-282.1 353,-236 373.38,-222.57 388.49,-199.09 398.01,-180.52"/>
<polygon fill="black" stroke="black" points="401.25,-181.87 402.48,-171.34 394.96,-178.8 401.25,-181.87"/>
<text text-anchor="start" x="199" y="-287" font-family="Helvetica,sans-Serif" font-size="10.00">Reset Cluster &#45; Reset installation &#160;&#160;</text>
</g>
<!-- error -->
<g id="node2" class="node state regular">
<title>error</title>
<polygon fill="#ffffff" fill-opacity="0.003922" stroke="transparent" stroke-width="2" points="118.5,-252 62.5,-252 62.5,-216 118.5,-216 118.5,-252"/>
<text text-anchor="start" x="78" y="-230.4" font-family="Helvetica,sans-Serif" font-size="12.00">error</text>
<path fill="none" stroke="black" stroke-width="2" d="M74.5,-217.5C74.5,-217.5 106.5,-217.5 106.5,-217.5 112,-217.5 117.5,-223 117.5,-228.5 117.5,-228.5 117.5,-239.5 117.5,-239.5 117.5,-245 112,-250.5 106.5,-250.5 106.5,-250.5 74.5,-250.5 74.5,-250.5 69,-250.5 63.5,-245 63.5,-239.5 63.5,-239.5 63.5,-228.5 63.5,-228.5 63.5,-223 69,-217.5 74.5,-217.5"/>
</g>
<!-- error&#45;&gt;insufficient -->
<g id="edge4" class="edge transition">
<title>error&#45;&gt;insufficient</title>
<path fill="none" stroke="black" d="M118.61,-231.85C166.97,-227.37 270.73,-214.88 353,-185 359.67,-182.58 366.47,-179.43 372.96,-176.06"/>
<polygon fill="black" stroke="black" points="375.08,-178.89 382.17,-171.02 371.72,-172.75 375.08,-178.89"/>
<text text-anchor="start" x="199" y="-224" font-family="Helvetica,sans-Serif" font-size="10.00">Reset Cluster &#45; Reset installation &#160;&#160;</text>
</g>
<!-- finalizing -->
<g id="node3" class="node state regular">
<title>finalizing</title>
<polygon fill="#ffffff" fill-opacity="0.003922" stroke="transparent" stroke-width="2" points="125.5,-198 55.5,-198 55.5,-162 125.5,-162 125.5,-198"/>
<text text-anchor="start" x="66.5" y="-176.4" font-family="Helvetica,sans-Serif" font-size="12.00">finalizing</text>
<path fill="none" stroke="black" stroke-width="2" d="M67.5,-163.5C67.5,-163.5 113.5,-163.5 113.5,-163.5 119,-163.5 124.5,-169 124.5,-174.5 124.5,-174.5 124.5,-185.5 124.5,-185.5 124.5,-191 119,-196.5 113.5,-196.5 113.5,-196.5 67.5,-196.5 67.5,-196.5 62,-196.5 56.5,-191 56.5,-185.5 56.5,-185.5 56.5,-174.5 56.5,-174.5 56.5,-169 62,-163.5 67.5,-163.5"/>
</g>
<!-- finalizing&#45;&gt;insufficient -->
<g id="edge6" class="edge transition">
<title>finalizing&#45;&gt;insufficient</title>
<path fill="none" stroke="black" d="M125.77,-177.16C175.74,-173 271.52,-165 353,-158 355.51,-157.78 358.09,-157.56 360.68,-157.34"/>
<polygon fill="black" stroke="black" points="361.09,-160.81 370.75,-156.46 360.49,-153.84 361.09,-160.81"/>
<text text-anchor="start" x="199" y="-173" font-family="Helvetica,sans-Serif" font-size="10.00">Reset Cluster &#45; Reset installation &#160;&#160;</text>
</g>
<!-- installing -->
<g id="node4" class="node state regular">
<title>installing</title>
<polygon fill="#ffffff" fill-opacity="0.003922" stroke="transparent" stroke-width="2" points="126,-144 55,-144 55,-108 126,-108 126,-144"/>
<text text-anchor="start" x="66.5" y="-122.4" font-family="Helvetica,sans-Serif" font-size="12.00">installing</text>
<path fill="none" stroke="black" stroke-width="2" d="M67,-109.5C67,-109.5 114,-109.5 114,-109.5 119.5,-109.5 125,-115 125,-120.5 125,-120.5 125,-131.5 125,-131.5 125,-137 119.5,-142.5 114,-142.5 114,-142.5 67,-142.5 67,-142.5 61.5,-142.5 56,-137 56,-131.5 56,-131.5 56,-120.5 56,-120.5 56,-115 61.5,-109.5 67,-109.5"/>
</g>
<!-- installing&#45;&gt;insufficient -->
<g id="edge2" class="edge transition">
<title>installing&#45;&gt;insufficient</title>
<path fill="none" stroke="black" d="M126.21,-128.51C176.32,-132.2 271.82,-139.47 353,-147 355.51,-147.23 358.09,-147.48 360.69,-147.73"/>
<polygon fill="black" stroke="black" points="360.47,-151.23 370.76,-148.74 361.16,-144.26 360.47,-151.23"/>
<text text-anchor="start" x="199" y="-150" font-family="Helvetica,sans-Serif" font-size="10.00">Reset Cluster &#45; Reset installation &#160;&#160;</text>
</g>
<!-- installing&#45;pending&#45;user&#45;action -->
<g id="node5" class="node state regular">
<title>installing&#45;pending&#45;user&#45;action</title>
<polygon fill="#ffffff" fill-opacity="0.003922" stroke="transparent" stroke-width="2" points="181,-90 0,-90 0,-54 181,-54 181,-90"/>
<text text-anchor="start" x="11.5" y="-68.4" font-family="Helvetica,sans-Serif" font-size="12.00">installing&#45;pending&#45;user&#45;action</text>
<path fill="none" stroke="black" stroke-width="2" d="M12,-55.5C12,-55.5 169,-55.5 169,-55.5 174.5,-55.5 180,-61 180,-66.5 180,-66.5 180,-77.5 180,-77.5 180,-83 174.5,-88.5 169,-88.5 169,-88.5 12,-88.5 12,-88.5 6.5,-88.5 1,-83 1,-77.5 1,-77.5 1,-66.5 1,-66.5 1,-61 6.5,-55.5 12,-55.5"/>
</g>
<!-- installing&#45;pending&#45;user&#45;action&#45;&gt;insufficient -->
<g id="edge3" class="edge transition">
<title>installing&#45;pending&#45;user&#45;action&#45;&gt;insufficient</title>
<path fill="none" stroke="black" d="M181.08,-80.03C232.58,-86.62 297.81,-98.36 353,-119 360.51,-121.81 368.15,-125.6 375.3,-129.64"/>
<polygon fill="black" stroke="black" points="373.65,-132.73 384.04,-134.83 377.22,-126.71 373.65,-132.73"/>
<text text-anchor="start" x="199" y="-122" font-family="Helvetica,sans-Serif" font-size="10.00">Reset Cluster &#45; Reset installation &#160;&#160;</text>
</g>
<!-- preparing&#45;for&#45;installation -->
<g id="node7" class="node state regular">
<title>preparing&#45;for&#45;installation</title>
<polygon fill="#ffffff" fill-opacity="0.003922" stroke="transparent" stroke-width="2" points="166.5,-36 14.5,-36 14.5,0 166.5,0 166.5,-36"/>
<text text-anchor="start" x="25.5" y="-14.4" font-family="Helvetica,sans-Serif" font-size="12.00">preparing&#45;for&#45;installation</text>
<path fill="none" stroke="black" stroke-width="2" d="M26.5,-1.5C26.5,-1.5 154.5,-1.5 154.5,-1.5 160,-1.5 165.5,-7 165.5,-12.5 165.5,-12.5 165.5,-23.5 165.5,-23.5 165.5,-29 160,-34.5 154.5,-34.5 154.5,-34.5 26.5,-34.5 26.5,-34.5 21,-34.5 15.5,-29 15.5,-23.5 15.5,-23.5 15.5,-12.5 15.5,-12.5 15.5,-7 21,-1.5 26.5,-1.5"/>
</g>
<!-- preparing&#45;for&#45;installation&#45;&gt;insufficient -->
<g id="edge1" class="edge transition">
<title>preparing&#45;for&#45;installation&#45;&gt;insufficient</title>
<path fill="none" stroke="black" d="M166.61,-16.86C222.28,-19.42 297.75,-30.38 353,-67 374.2,-81.05 389.42,-105.98 398.77,-125.39"/>
<polygon fill="black" stroke="black" points="395.67,-127.03 403.01,-134.68 402.04,-124.13 395.67,-127.03"/>
<text text-anchor="start" x="199" y="-70" font-family="Helvetica,sans-Serif" font-size="10.00">Reset Cluster &#45; Reset installation &#160;&#160;</text>
</g>
</g>
</svg>
