<?xml version="1.0" encoding="UTF-8" standalone="no"?>
<!DOCTYPE svg PUBLIC "-//W3C//DTD SVG 1.1//EN"
 "http://www.w3.org/Graphics/SVG/1.1/DTD/svg11.dtd">
<!-- Generated by graphviz version 12.1.0 (20240811.2233)
 -->
<!-- Title: state transitions Pages: 1 -->
<svg width="2507pt" height="629pt"
 viewBox="0.00 0.00 2506.88 629.32" xmlns="http://www.w3.org/2000/svg" xmlns:xlink="http://www.w3.org/1999/xlink">
<g id="graph0" class="graph" transform="scale(1 1) rotate(0) translate(4 625.32)">
<title>state transitions</title>
<polygon fill="white" stroke="none" points="-4,4 -4,-625.32 2502.88,-625.32 2502.88,4 -4,4"/>
<!-- adding&#45;hosts -->
<g id="node1" class="node state regular">
<title>adding&#45;hosts</title>
<polygon fill="#ffffff" fill-opacity="0.003922" stroke="none" stroke-width="2" points="243.12,-300.84 144.62,-300.84 144.62,-264.59 243.12,-264.59 243.12,-300.84"/>
<text text-anchor="start" x="155.62" y="-278.44" font-family="Helvetica,sans-Serif" font-size="12.00">adding&#45;hosts</text>
<path fill="none" stroke="black" stroke-width="2" d="M157.04,-265.59C157.04,-265.59 230.71,-265.59 230.71,-265.59 236.42,-265.59 242.12,-271.3 242.12,-277 242.12,-277 242.12,-288.42 242.12,-288.42 242.12,-294.13 236.42,-299.84 230.71,-299.84 230.71,-299.84 157.04,-299.84 157.04,-299.84 151.33,-299.84 145.62,-294.13 145.62,-288.42 145.62,-288.42 145.62,-277 145.62,-277 145.62,-271.3 151.33,-265.59 157.04,-265.59"/>
</g>
<!-- adding&#45;hosts&#45;&gt;adding&#45;hosts -->
<g id="edge1" class="edge transition">
<title>adding&#45;hosts&#45;&gt;adding&#45;hosts</title>
<path fill="none" stroke="black" d="M161.9,-300.56C156.47,-310.12 167.12,-318.84 193.88,-318.84 209.34,-318.84 219.43,-315.93 224.14,-311.62"/>
<polygon fill="black" stroke="black" points="227.55,-312.47 225.62,-302.05 220.63,-311.4 227.55,-312.47"/>
<text text-anchor="start" x="82.12" y="-322.09" font-family="Helvetica,sans-Serif" font-size="10.00">RefreshStatus &#45; Maintain adding&#45;hosts state &#160;&#160;</text>
</g>
<!-- cancelled -->
<g id="node2" class="node state regular">
<title>cancelled</title>
<polygon fill="#ffffff" fill-opacity="0.003922" stroke="none" stroke-width="2" points="233.38,-385.84 154.38,-385.84 154.38,-349.59 233.38,-349.59 233.38,-385.84"/>
<text text-anchor="start" x="165.38" y="-363.44" font-family="Helvetica,sans-Serif" font-size="12.00">cancelled</text>
<path fill="none" stroke="black" stroke-width="2" d="M166.79,-350.59C166.79,-350.59 220.96,-350.59 220.96,-350.59 226.67,-350.59 232.38,-356.3 232.38,-362 232.38,-362 232.38,-373.42 232.38,-373.42 232.38,-379.13 226.67,-384.84 220.96,-384.84 220.96,-384.84 166.79,-384.84 166.79,-384.84 161.08,-384.84 155.38,-379.13 155.38,-373.42 155.38,-373.42 155.38,-362 155.38,-362 155.38,-356.3 161.08,-350.59 166.79,-350.59"/>
</g>
<!-- cancelled&#45;&gt;cancelled -->
<g id="edge2" class="edge transition">
<title>cancelled&#45;&gt;cancelled</title>
<path fill="none" stroke="black" d="M177.89,-385.56C175.17,-395.12 180.5,-403.84 193.88,-403.84 201.4,-403.84 206.38,-401.08 208.81,-396.97"/>
<polygon fill="black" stroke="black" points="212.29,-397.34 209.72,-387.06 205.32,-396.7 212.29,-397.34"/>
<text text-anchor="start" x="54.38" y="-407.09" font-family="Helvetica,sans-Serif" font-size="10.00">RefreshStatus &#45; Log collection timeout during cancelled &#160;&#160;</text>
</g>
<!-- cancelled&#45;&gt;cancelled -->
<g id="edge3" class="edge transition">
<title>cancelled&#45;&gt;cancelled</title>
<path fill="none" stroke="black" d="M167.14,-385.73C152.83,-402.99 161.74,-421.84 193.88,-421.84 219.99,-421.84 230.76,-409.4 226.21,-395.47"/>
<polygon fill="black" stroke="black" points="229.39,-393.97 221.37,-387.05 223.32,-397.46 229.39,-393.97"/>
<text text-anchor="start" x="90.38" y="-425.09" font-family="Helvetica,sans-Serif" font-size="10.00">RefreshStatus &#45; Maintain cancelled state &#160;&#160;</text>
</g>
<!-- error -->
<g id="node3" class="node state regular">
<title>error</title>
<polygon fill="#ffffff" fill-opacity="0.003922" stroke="none" stroke-width="2" points="1827.25,-501.84 1771.25,-501.84 1771.25,-465.59 1827.25,-465.59 1827.25,-501.84"/>
<text text-anchor="start" x="1784.62" y="-479.44" font-family="Helvetica,sans-Serif" font-size="12.00">error</text>
<path fill="none" stroke="black" stroke-width="2" d="M1783.67,-466.59C1783.67,-466.59 1814.83,-466.59 1814.83,-466.59 1820.54,-466.59 1826.25,-472.3 1826.25,-478 1826.25,-478 1826.25,-489.42 1826.25,-489.42 1826.25,-495.13 1820.54,-500.84 1814.83,-500.84 1814.83,-500.84 1783.67,-500.84 1783.67,-500.84 1777.96,-500.84 1772.25,-495.13 1772.25,-489.42 1772.25,-489.42 1772.25,-478 1772.25,-478 1772.25,-472.3 1777.96,-466.59 1783.67,-466.59"/>
</g>
<!-- error&#45;&gt;error -->
<g id="edge4" class="edge transition">
<title>error&#45;&gt;error</title>
<path fill="none" stroke="black" d="M1771.3,-497.8C1760.84,-508.71 1770.16,-519.84 1799.25,-519.84 1818.34,-519.84 1828.91,-515.05 1830.97,-508.67"/>
<polygon fill="black" stroke="black" points="1834.28,-507.53 1827.7,-499.23 1827.67,-509.83 1834.28,-507.53"/>
<text text-anchor="start" x="1671.38" y="-523.09" font-family="Helvetica,sans-Serif" font-size="10.00">RefreshStatus &#45; Log collection timeout during error &#160;&#160;</text>
</g>
<!-- error&#45;&gt;error -->
<g id="edge5" class="edge transition">
<title>error&#45;&gt;error</title>
<path fill="none" stroke="black" d="M1771.54,-491.09C1714.95,-510.09 1724.19,-537.84 1799.25,-537.84 1869.18,-537.84 1881.98,-513.75 1837.64,-495.1"/>
<polygon fill="black" stroke="black" points="1838.97,-491.86 1828.38,-491.62 1836.51,-498.41 1838.97,-491.86"/>
<text text-anchor="start" x="1707.38" y="-541.09" font-family="Helvetica,sans-Serif" font-size="10.00">RefreshStatus &#45; Maintain error state &#160;&#160;</text>
</g>
<!-- finalizing -->
<g id="node4" class="node state regular">
<title>finalizing</title>
<polygon fill="#ffffff" fill-opacity="0.003922" stroke="none" stroke-width="2" points="231.12,-501.84 156.62,-501.84 156.62,-465.59 231.12,-465.59 231.12,-501.84"/>
<text text-anchor="start" x="167.62" y="-479.44" font-family="Helvetica,sans-Serif" font-size="12.00">finalizing</text>
<path fill="none" stroke="black" stroke-width="2" d="M169.04,-466.59C169.04,-466.59 218.71,-466.59 218.71,-466.59 224.42,-466.59 230.12,-472.3 230.12,-478 230.12,-478 230.12,-489.42 230.12,-489.42 230.12,-495.13 224.42,-500.84 218.71,-500.84 218.71,-500.84 169.04,-500.84 169.04,-500.84 163.33,-500.84 157.62,-495.13 157.62,-489.42 157.62,-489.42 157.62,-478 157.62,-478 157.62,-472.3 163.33,-466.59 169.04,-466.59"/>
</g>
<!-- finalizing&#45;&gt;error -->
<g id="edge6" class="edge transition">
<title>finalizing&#45;&gt;error</title>
<path fill="none" stroke="black" d="M201.65,-501.73C211.13,-524.01 230.68,-560.93 261.12,-576.71 440.87,-669.86 514.18,-578.27 716.62,-578.71 1119.29,-579.6 1231.99,-674.43 1622.62,-576.71 1675.63,-563.45 1730.27,-531.01 1764.23,-508.19"/>
<polygon fill="black" stroke="black" points="1766.13,-511.13 1772.41,-502.6 1762.18,-505.35 1766.13,-511.13"/>
<text text-anchor="start" x="756.38" y="-599.67" font-family="Helvetica,sans-Serif" font-size="10.00">RefreshStatus &#45; Timed out while installing &#160;&#160;</text>
</g>
<!-- finalizing&#45;&gt;error -->
<g id="edge7" class="edge transition">
<title>finalizing&#45;&gt;error</title>
<path fill="none" stroke="black" d="M209.95,-501.59C222.2,-514.65 240.75,-531.31 261.12,-538.71 451.39,-607.87 514.18,-540.27 716.62,-540.71 1119.29,-541.6 1224.68,-600.23 1622.62,-538.71 1671.63,-531.14 1725.77,-512.53 1760.8,-499.05"/>
<polygon fill="black" stroke="black" points="1762.03,-502.33 1770.06,-495.43 1759.48,-495.81 1762.03,-502.33"/>
<text text-anchor="start" x="756.75" y="-555.1" font-family="Helvetica,sans-Serif" font-size="10.00">RefreshStatus &#45; Timed out while finalizing &#160;&#160;</text>
</g>
<!-- finalizing&#45;&gt;error -->
<g id="edge8" class="edge transition">
<title>finalizing&#45;&gt;error</title>
<path fill="none" stroke="black" d="M230.85,-491.16C240.63,-492.93 251.25,-494.62 261.12,-495.71 366.9,-507.45 393.97,-503.49 500.38,-505.71 998.29,-516.11 1603.74,-492.16 1760.01,-485.42"/>
<polygon fill="black" stroke="black" points="1759.95,-488.92 1769.79,-484.99 1759.65,-481.93 1759.95,-488.92"/>
<text text-anchor="start" x="718.88" y="-511.54" font-family="Helvetica,sans-Serif" font-size="10.00">RefreshStatus &#45; Finalizing stage timed out. &#160;Move to error &#160;&#160;</text>
</g>
<!-- finalizing&#45;&gt;finalizing -->
<g id="edge9" class="edge transition">
<title>finalizing&#45;&gt;finalizing</title>
<path fill="none" stroke="black" d="M183.22,-501.56C181.41,-511.12 184.96,-519.84 193.88,-519.84 198.89,-519.84 202.21,-517.08 203.83,-512.97"/>
<polygon fill="black" stroke="black" points="207.32,-513.26 204.44,-503.07 200.33,-512.83 207.32,-513.26"/>
<text text-anchor="start" x="0" y="-523.09" font-family="Helvetica,sans-Serif" font-size="10.00">RefreshStatus &#45; Finalizing stage is taking too long. &#160;Emit an appropriate event &#160;&#160;</text>
</g>
<!-- finalizing&#45;&gt;finalizing -->
<g id="edge11" class="edge transition">
<title>finalizing&#45;&gt;finalizing</title>
<path fill="none" stroke="black" d="M176.05,-501.73C166.51,-518.99 172.45,-537.84 193.88,-537.84 210.95,-537.84 218.19,-525.87 215.6,-512.28"/>
<polygon fill="black" stroke="black" points="218.98,-511.32 212.23,-503.15 212.41,-513.75 218.98,-511.32"/>
<text text-anchor="start" x="89.25" y="-541.09" font-family="Helvetica,sans-Serif" font-size="10.00">RefreshStatus &#45; Update AMS subscription &#160;&#160;</text>
</g>
<!-- finalizing&#45;&gt;finalizing -->
<g id="edge13" class="edge transition">
<title>finalizing&#45;&gt;finalizing</title>
<path fill="none" stroke="black" d="M171.37,-501.82C151.46,-526.2 158.96,-555.84 193.88,-555.84 224.29,-555.84 233.9,-533.35 222.71,-511.44"/>
<polygon fill="black" stroke="black" points="225.64,-509.51 217.21,-503.09 219.79,-513.36 225.64,-509.51"/>
<text text-anchor="start" x="91.5" y="-559.09" font-family="Helvetica,sans-Serif" font-size="10.00">RefreshStatus &#45; Maintain finalizing state &#160;&#160;</text>
</g>
<!-- installing&#45;pending&#45;user&#45;action -->
<g id="node5" class="node state regular">
<title>installing&#45;pending&#45;user&#45;action</title>
<polygon fill="#ffffff" fill-opacity="0.003922" stroke="none" stroke-width="2" points="698.62,-465.84 500.38,-465.84 500.38,-429.59 698.62,-429.59 698.62,-465.84"/>
<text text-anchor="start" x="511.38" y="-443.44" font-family="Helvetica,sans-Serif" font-size="12.00">installing&#45;pending&#45;user&#45;action</text>
<path fill="none" stroke="black" stroke-width="2" d="M512.79,-430.59C512.79,-430.59 686.21,-430.59 686.21,-430.59 691.92,-430.59 697.62,-436.3 697.62,-442 697.62,-442 697.62,-453.42 697.62,-453.42 697.62,-459.13 691.92,-464.84 686.21,-464.84 686.21,-464.84 512.79,-464.84 512.79,-464.84 507.08,-464.84 501.38,-459.13 501.38,-453.42 501.38,-453.42 501.38,-442 501.38,-442 501.38,-436.3 507.08,-430.59 512.79,-430.59"/>
</g>
<!-- finalizing&#45;&gt;installing&#45;pending&#45;user&#45;action -->
<g id="edge10" class="edge transition">
<title>finalizing&#45;&gt;installing&#45;pending&#45;user&#45;action</title>
<path fill="none" stroke="black" d="M230.78,-481.47C285.23,-477.95 391.96,-470.62 482.38,-461.71 484.7,-461.48 487.06,-461.25 489.43,-461"/>
<polygon fill="black" stroke="black" points="489.56,-464.51 499.14,-459.98 488.83,-457.55 489.56,-464.51"/>
<text text-anchor="start" x="261.12" y="-482.44" font-family="Helvetica,sans-Serif" font-size="10.00">RefreshStatus &#45; TODO: Name this transition &#160;&#160;</text>
</g>
<!-- installed -->
<g id="node6" class="node state regular">
<title>installed</title>
<polygon fill="#ffffff" fill-opacity="0.003922" stroke="none" stroke-width="2" points="635.25,-380.84 563.75,-380.84 563.75,-344.59 635.25,-344.59 635.25,-380.84"/>
<text text-anchor="start" x="574.75" y="-358.44" font-family="Helvetica,sans-Serif" font-size="12.00">installed</text>
<path fill="none" stroke="black" stroke-width="2" d="M576.17,-345.59C576.17,-345.59 622.83,-345.59 622.83,-345.59 628.54,-345.59 634.25,-351.3 634.25,-357 634.25,-357 634.25,-368.42 634.25,-368.42 634.25,-374.13 628.54,-379.84 622.83,-379.84 622.83,-379.84 576.17,-379.84 576.17,-379.84 570.46,-379.84 564.75,-374.13 564.75,-368.42 564.75,-368.42 564.75,-357 564.75,-357 564.75,-351.3 570.46,-345.59 576.17,-345.59"/>
</g>
<!-- finalizing&#45;&gt;installed -->
<g id="edge12" class="edge transition">
<title>finalizing&#45;&gt;installed</title>
<path fill="none" stroke="black" d="M230.76,-467.46C235.32,-464.35 239.6,-460.78 243.12,-456.71 257.71,-439.89 243.69,-423.81 261.12,-409.96 345.91,-342.63 481.95,-347.43 552.59,-355.64"/>
<polygon fill="black" stroke="black" points="551.9,-359.08 562.26,-356.84 552.77,-352.13 551.9,-359.08"/>
<text text-anchor="start" x="280.62" y="-413.21" font-family="Helvetica,sans-Serif" font-size="10.00">RefreshStatus &#45; Finalizing complete &#160;&#160;</text>
</g>
<!-- installing&#45;pending&#45;user&#45;action&#45;&gt;error -->
<g id="edge20" class="edge transition">
<title>installing&#45;pending&#45;user&#45;action&#45;&gt;error</title>
<path fill="none" stroke="black" d="M698.52,-450.66C947.34,-458.14 1595.36,-477.62 1759.85,-482.56"/>
<polygon fill="black" stroke="black" points="1759.66,-486.05 1769.76,-482.86 1759.87,-479.06 1759.66,-486.05"/>
<text text-anchor="start" x="1039.88" y="-470.76" font-family="Helvetica,sans-Serif" font-size="10.00">RefreshStatus &#45; TODO: Name this transition &#160;&#160;</text>
</g>
<!-- installing&#45;pending&#45;user&#45;action&#45;&gt;error -->
<g id="edge21" class="edge transition">
<title>installing&#45;pending&#45;user&#45;action&#45;&gt;error</title>
<path fill="none" stroke="black" d="M698.52,-446.61C785.15,-445.69 914.91,-444.46 1027.88,-443.96 1136.87,-443.48 1164.17,-440.73 1273.12,-443.96 1428.66,-448.58 1467.56,-451.73 1622.62,-464.71 1670.13,-468.69 1724.69,-474.84 1760.23,-479.06"/>
<polygon fill="black" stroke="black" points="1759.66,-482.52 1770.01,-480.23 1760.49,-475.57 1759.66,-482.52"/>
<text text-anchor="start" x="1027.88" y="-447.21" font-family="Helvetica,sans-Serif" font-size="10.00">RefreshStatus &#45; Timed out while waiting for user &#160;&#160;</text>
</g>
<!-- installing&#45;pending&#45;user&#45;action&#45;&gt;finalizing -->
<g id="edge24" class="edge transition">
<title>installing&#45;pending&#45;user&#45;action&#45;&gt;finalizing</title>
<path fill="none" stroke="black" d="M500.4,-431.97C431.92,-424.55 339.16,-421.75 261.12,-444.96 251.97,-447.69 251.3,-451.77 243.12,-456.71 241.28,-457.83 239.38,-458.96 237.46,-460.09"/>
<polygon fill="black" stroke="black" points="235.96,-456.92 229.06,-464.95 239.47,-462.97 235.96,-456.92"/>
<text text-anchor="start" x="261.12" y="-448.21" font-family="Helvetica,sans-Serif" font-size="10.00">RefreshStatus &#45; TODO: Name this transition &#160;&#160;</text>
</g>
<!-- installing&#45;pending&#45;user&#45;action&#45;&gt;installing&#45;pending&#45;user&#45;action -->
<g id="edge22" class="edge transition">
<title>installing&#45;pending&#45;user&#45;action&#45;&gt;installing&#45;pending&#45;user&#45;action</title>
<path fill="none" stroke="black" d="M558.56,-465.56C551.6,-475.12 565.25,-483.84 599.5,-483.84 619.3,-483.84 632.22,-480.93 638.25,-476.62"/>
<polygon fill="black" stroke="black" points="641.63,-477.53 640.15,-467.04 634.77,-476.17 641.63,-477.53"/>
<text text-anchor="start" x="488.88" y="-487.09" font-family="Helvetica,sans-Serif" font-size="10.00">RefreshStatus &#45; TODO: Name this transition &#160;&#160;</text>
</g>
<!-- installing -->
<g id="node7" class="node state regular">
<title>installing</title>
<polygon fill="#ffffff" fill-opacity="0.003922" stroke="none" stroke-width="2" points="1187.75,-367.84 1113.25,-367.84 1113.25,-331.59 1187.75,-331.59 1187.75,-367.84"/>
<text text-anchor="start" x="1124.25" y="-345.44" font-family="Helvetica,sans-Serif" font-size="12.00">installing</text>
<path fill="none" stroke="black" stroke-width="2" d="M1125.67,-332.59C1125.67,-332.59 1175.33,-332.59 1175.33,-332.59 1181.04,-332.59 1186.75,-338.3 1186.75,-344 1186.75,-344 1186.75,-355.42 1186.75,-355.42 1186.75,-361.13 1181.04,-366.84 1175.33,-366.84 1175.33,-366.84 1125.67,-366.84 1125.67,-366.84 1119.96,-366.84 1114.25,-361.13 1114.25,-355.42 1114.25,-355.42 1114.25,-344 1114.25,-344 1114.25,-338.3 1119.96,-332.59 1125.67,-332.59"/>
</g>
<!-- installing&#45;pending&#45;user&#45;action&#45;&gt;installing -->
<g id="edge23" class="edge transition">
<title>installing&#45;pending&#45;user&#45;action&#45;&gt;installing</title>
<path fill="none" stroke="black" d="M676.73,-429.59C684.26,-426.96 691.68,-424 698.62,-420.71 707.48,-416.52 707.44,-411.38 716.62,-407.96 839.34,-362.31 880.48,-399.78 1009.88,-379.71 1040.85,-374.91 1075.29,-367.53 1102.21,-361.3"/>
<polygon fill="black" stroke="black" points="1102.85,-364.74 1111.79,-359.05 1101.25,-357.93 1102.85,-364.74"/>
<text text-anchor="start" x="752.62" y="-411.21" font-family="Helvetica,sans-Serif" font-size="10.00">RefreshStatus &#45; TODO: Name this transition &#160;&#160;</text>
</g>
<!-- installed&#45;&gt;installed -->
<g id="edge14" class="edge transition">
<title>installed&#45;&gt;installed</title>
<path fill="none" stroke="black" d="M563.84,-375.68C547.58,-386.93 559.47,-398.84 599.5,-398.84 628.9,-398.84 643.12,-392.42 642.16,-384.55"/>
<polygon fill="black" stroke="black" points="645.04,-382.55 636.09,-376.86 639.54,-386.88 645.04,-382.55"/>
<text text-anchor="start" x="498.25" y="-402.09" font-family="Helvetica,sans-Serif" font-size="10.00">RefreshStatus &#45; Maintain installed state &#160;&#160;</text>
</g>
<!-- installing&#45;&gt;error -->
<g id="edge15" class="edge transition">
<title>installing&#45;&gt;error</title>
<path fill="none" stroke="black" d="M1187.59,-360.62C1215.57,-368.62 1255.46,-379.04 1291.12,-384.71 1436.98,-407.93 1479.11,-373.05 1622.62,-407.96 1672.63,-420.13 1726.45,-445.32 1761.14,-463.31"/>
<polygon fill="black" stroke="black" points="1759.45,-466.38 1769.93,-467.94 1762.71,-460.18 1759.45,-466.38"/>
<text text-anchor="start" x="1350" y="-411.21" font-family="Helvetica,sans-Serif" font-size="10.00">RefreshStatus &#45; Timed out while installing &#160;&#160;</text>
</g>
<!-- installing&#45;&gt;error -->
<g id="edge19" class="edge transition">
<title>installing&#45;&gt;error</title>
<path fill="none" stroke="black" d="M1187.7,-350C1290.9,-350.96 1581.71,-354.82 1622.62,-367.96 1680.62,-386.59 1737.61,-430.09 1770.27,-458.14"/>
<polygon fill="black" stroke="black" points="1767.85,-460.67 1777.68,-464.61 1772.45,-455.4 1767.85,-460.67"/>
<text text-anchor="start" x="1372.88" y="-371.21" font-family="Helvetica,sans-Serif" font-size="10.00">RefreshStatus &#45; Installation error &#160;&#160;</text>
</g>
<!-- installing&#45;&gt;finalizing -->
<g id="edge17" class="edge transition">
<title>installing&#45;&gt;finalizing</title>
<path fill="none" stroke="black" d="M1113.44,-344.06C1085.31,-339.89 1045.21,-334.48 1009.88,-331.71 926.92,-325.22 321.8,-289.76 261.12,-346.71 225.01,-380.62 271.56,-416.15 243.12,-456.71 242.03,-458.28 240.81,-459.77 239.49,-461.18"/>
<polygon fill="black" stroke="black" points="237.52,-458.26 232.23,-467.44 242.09,-463.56 237.52,-458.26"/>
<text text-anchor="start" x="512.5" y="-320.08" font-family="Helvetica,sans-Serif" font-size="10.00">RefreshStatus &#45; Move to finalizing &#160;&#160;</text>
</g>
<!-- installing&#45;&gt;installing&#45;pending&#45;user&#45;action -->
<g id="edge16" class="edge transition">
<title>installing&#45;&gt;installing&#45;pending&#45;user&#45;action</title>
<path fill="none" stroke="black" d="M1113.5,-346.11C1021.13,-337.63 778.59,-320.47 716.62,-366.96 696.47,-382.08 716.92,-403.39 698.62,-420.71 697.73,-421.56 696.8,-422.39 695.86,-423.19"/>
<polygon fill="black" stroke="black" points="694.11,-420.14 688.04,-428.82 698.2,-425.81 694.11,-420.14"/>
<text text-anchor="start" x="752.62" y="-370.21" font-family="Helvetica,sans-Serif" font-size="10.00">RefreshStatus &#45; TODO: Name this transition &#160;&#160;</text>
</g>
<!-- installing&#45;&gt;installing -->
<g id="edge18" class="edge transition">
<title>installing&#45;&gt;installing</title>
<path fill="none" stroke="black" d="M1113.68,-358.97C1082.12,-371.14 1094.4,-385.84 1150.5,-385.84 1199.15,-385.84 1214.84,-374.78 1197.57,-363.91"/>
<polygon fill="black" stroke="black" points="1199.21,-360.81 1188.68,-359.62 1196.17,-367.12 1199.21,-360.81"/>
<text text-anchor="start" x="1066.12" y="-389.09" font-family="Helvetica,sans-Serif" font-size="10.00">RefreshStatus &#45; Stay in installing &#160;&#160;</text>
</g>
<!-- insufficient -->
<g id="node8" class="node state regular">
<title>insufficient</title>
<polygon fill="#ffffff" fill-opacity="0.003922" stroke="none" stroke-width="2" points="1193.75,-228.84 1107.25,-228.84 1107.25,-192.59 1193.75,-192.59 1193.75,-228.84"/>
<text text-anchor="start" x="1118.25" y="-206.44" font-family="Helvetica,sans-Serif" font-size="12.00">insufficient</text>
<path fill="none" stroke="black" stroke-width="2" d="M1119.67,-193.59C1119.67,-193.59 1181.33,-193.59 1181.33,-193.59 1187.04,-193.59 1192.75,-199.3 1192.75,-205 1192.75,-205 1192.75,-216.42 1192.75,-216.42 1192.75,-222.13 1187.04,-227.84 1181.33,-227.84 1181.33,-227.84 1119.67,-227.84 1119.67,-227.84 1113.96,-227.84 1108.25,-222.13 1108.25,-216.42 1108.25,-216.42 1108.25,-205 1108.25,-205 1108.25,-199.3 1113.96,-193.59 1119.67,-193.59"/>
</g>
<!-- insufficient&#45;&gt;insufficient -->
<g id="edge26" class="edge transition">
<title>insufficient&#45;&gt;insufficient</title>
<path fill="none" stroke="black" d="M1124.68,-228.56C1120.29,-238.12 1128.9,-246.84 1150.5,-246.84 1162.99,-246.84 1171.13,-243.93 1174.93,-239.62"/>
<polygon fill="black" stroke="black" points="1178.36,-240.42 1176.13,-230.06 1171.42,-239.55 1178.36,-240.42"/>
<text text-anchor="start" x="991.88" y="-250.09" font-family="Helvetica,sans-Serif" font-size="10.00">RefreshStatus &#45; Refresh discovering cluster &#45; detect insufficient &#160;&#160;</text>
</g>
<!-- insufficient&#45;&gt;insufficient -->
<g id="edge28" class="edge transition">
<title>insufficient&#45;&gt;insufficient</title>
<path fill="none" stroke="black" d="M1107.32,-228.73C1084.21,-245.99 1098.6,-264.84 1150.5,-264.84 1194.29,-264.84 1211.38,-251.42 1201.76,-236.86"/>
<polygon fill="black" stroke="black" points="1204.28,-234.43 1194.75,-229.81 1199.32,-239.36 1204.28,-234.43"/>
<text text-anchor="start" x="1039.88" y="-268.09" font-family="Helvetica,sans-Serif" font-size="10.00">RefreshStatus &#45; TODO: Name this transition &#160;&#160;</text>
</g>
<!-- pending&#45;for&#45;input -->
<g id="node9" class="node state regular">
<title>pending&#45;for&#45;input</title>
<polygon fill="#ffffff" fill-opacity="0.003922" stroke="none" stroke-width="2" points="1862,-286.84 1736.5,-286.84 1736.5,-250.59 1862,-250.59 1862,-286.84"/>
<text text-anchor="start" x="1747.5" y="-264.44" font-family="Helvetica,sans-Serif" font-size="12.00">pending&#45;for&#45;input</text>
<path fill="none" stroke="black" stroke-width="2" d="M1748.92,-251.59C1748.92,-251.59 1849.58,-251.59 1849.58,-251.59 1855.29,-251.59 1861,-257.3 1861,-263 1861,-263 1861,-274.42 1861,-274.42 1861,-280.13 1855.29,-285.84 1849.58,-285.84 1849.58,-285.84 1748.92,-285.84 1748.92,-285.84 1743.21,-285.84 1737.5,-280.13 1737.5,-274.42 1737.5,-274.42 1737.5,-263 1737.5,-263 1737.5,-257.3 1743.21,-251.59 1748.92,-251.59"/>
</g>
<!-- insufficient&#45;&gt;pending&#45;for&#45;input -->
<g id="edge25" class="edge transition">
<title>insufficient&#45;&gt;pending&#45;for&#45;input</title>
<path fill="none" stroke="black" d="M1168.34,-228.73C1192.67,-253.3 1240.33,-296.13 1291.12,-312.71 1444.02,-362.61 1635.81,-319.33 1733.93,-290.13"/>
<polygon fill="black" stroke="black" points="1734.85,-293.51 1743.4,-287.26 1732.82,-286.81 1734.85,-293.51"/>
<text text-anchor="start" x="1291.12" y="-338.77" font-family="Helvetica,sans-Serif" font-size="10.00">RefreshStatus &#45; Refresh discovering cluster &#45; detect required input &#160;&#160;</text>
</g>
<!-- insufficient&#45;&gt;pending&#45;for&#45;input -->
<g id="edge27" class="edge transition">
<title>insufficient&#45;&gt;pending&#45;for&#45;input</title>
<path fill="none" stroke="black" d="M1179.83,-228.71C1207.12,-244.9 1250.18,-267.52 1291.12,-276.71 1371.55,-294.76 1605.55,-282.14 1725.5,-274.05"/>
<polygon fill="black" stroke="black" points="1725.49,-277.55 1735.23,-273.38 1725.02,-270.57 1725.49,-277.55"/>
<text text-anchor="start" x="1346.25" y="-289.18" font-family="Helvetica,sans-Serif" font-size="10.00">RefreshStatus &#45; TODO: Name this transition &#160;&#160;</text>
</g>
<!-- ready -->
<g id="node10" class="node state regular">
<title>ready</title>
<polygon fill="#ffffff" fill-opacity="0.003922" stroke="none" stroke-width="2" points="2381.38,-198.84 2325.38,-198.84 2325.38,-162.59 2381.38,-162.59 2381.38,-198.84"/>
<text text-anchor="start" x="2336.5" y="-176.44" font-family="Helvetica,sans-Serif" font-size="12.00">ready</text>
<path fill="none" stroke="black" stroke-width="2" d="M2337.79,-163.59C2337.79,-163.59 2368.96,-163.59 2368.96,-163.59 2374.67,-163.59 2380.38,-169.3 2380.38,-175 2380.38,-175 2380.38,-186.42 2380.38,-186.42 2380.38,-192.13 2374.67,-197.84 2368.96,-197.84 2368.96,-197.84 2337.79,-197.84 2337.79,-197.84 2332.08,-197.84 2326.38,-192.13 2326.38,-186.42 2326.38,-186.42 2326.38,-175 2326.38,-175 2326.38,-169.3 2332.08,-163.59 2337.79,-163.59"/>
</g>
<!-- insufficient&#45;&gt;ready -->
<g id="edge29" class="edge transition">
<title>insufficient&#45;&gt;ready</title>
<path fill="none" stroke="black" d="M1193.54,-209.66C1380.51,-204.99 2135.3,-186.14 2314.21,-181.67"/>
<polygon fill="black" stroke="black" points="2314.19,-185.17 2324.1,-181.42 2314.02,-178.17 2314.19,-185.17"/>
<text text-anchor="start" x="1653.75" y="-201.45" font-family="Helvetica,sans-Serif" font-size="10.00">RefreshStatus &#45; Refresh discovering cluster &#45; detect ready &#160;&#160;</text>
</g>
<!-- pending&#45;for&#45;input&#45;&gt;insufficient -->
<g id="edge31" class="edge transition">
<title>pending&#45;for&#45;input&#45;&gt;insufficient</title>
<path fill="none" stroke="black" d="M1736.76,-265.58C1606.5,-258.89 1312.84,-243.63 1291.12,-240.71 1262.33,-236.85 1230.65,-230.24 1204.75,-224.2"/>
<polygon fill="black" stroke="black" points="1205.68,-220.83 1195.14,-221.92 1204.06,-227.64 1205.68,-220.83"/>
<text text-anchor="start" x="1298.25" y="-262.45" font-family="Helvetica,sans-Serif" font-size="10.00">RefreshStatus &#45; Refresh discovering cluster &#45; detect insufficient &#160;&#160;</text>
</g>
<!-- pending&#45;for&#45;input&#45;&gt;insufficient -->
<g id="edge33" class="edge transition">
<title>pending&#45;for&#45;input&#45;&gt;insufficient</title>
<path fill="none" stroke="black" d="M1740.75,-250.63C1706.76,-240.81 1662.67,-229.56 1622.62,-223.96 1472.36,-202.97 1292.61,-205.44 1204.92,-208.39"/>
<polygon fill="black" stroke="black" points="1205.05,-204.89 1195.18,-208.74 1205.3,-211.88 1205.05,-204.89"/>
<text text-anchor="start" x="1346.25" y="-227.21" font-family="Helvetica,sans-Serif" font-size="10.00">RefreshStatus &#45; TODO: Name this transition &#160;&#160;</text>
</g>
<!-- pending&#45;for&#45;input&#45;&gt;pending&#45;for&#45;input -->
<g id="edge30" class="edge transition">
<title>pending&#45;for&#45;input&#45;&gt;pending&#45;for&#45;input</title>
<path fill="none" stroke="black" d="M1768.48,-286.56C1763.25,-296.12 1773.51,-304.84 1799.25,-304.84 1814.13,-304.84 1823.84,-301.93 1828.37,-297.62"/>
<polygon fill="black" stroke="black" points="1831.79,-298.46 1829.8,-288.05 1824.86,-297.43 1831.79,-298.46"/>
<text text-anchor="start" x="1633.5" y="-308.09" font-family="Helvetica,sans-Serif" font-size="10.00">RefreshStatus &#45; Refresh discovering cluster &#45; detect required input &#160;&#160;</text>
</g>
<!-- pending&#45;for&#45;input&#45;&gt;pending&#45;for&#45;input -->
<g id="edge32" class="edge transition">
<title>pending&#45;for&#45;input&#45;&gt;pending&#45;for&#45;input</title>
<path fill="none" stroke="black" d="M1747.78,-286.73C1720.24,-303.99 1737.4,-322.84 1799.25,-322.84 1852.89,-322.84 1872.91,-308.67 1859.32,-293.65"/>
<polygon fill="black" stroke="black" points="1861.88,-291.21 1851.9,-287.68 1857.5,-296.67 1861.88,-291.21"/>
<text text-anchor="start" x="1688.62" y="-326.09" font-family="Helvetica,sans-Serif" font-size="10.00">RefreshStatus &#45; TODO: Name this transition &#160;&#160;</text>
</g>
<!-- pending&#45;for&#45;input&#45;&gt;ready -->
<g id="edge34" class="edge transition">
<title>pending&#45;for&#45;input&#45;&gt;ready</title>
<path fill="none" stroke="black" d="M1848.77,-286.82C1945.13,-319.43 2163.68,-376.38 2307.38,-282.71 2332.04,-266.64 2343.28,-233.65 2348.34,-209.53"/>
<polygon fill="black" stroke="black" points="2351.73,-210.47 2350.09,-200 2344.84,-209.21 2351.73,-210.47"/>
<text text-anchor="start" x="1996.12" y="-337.24" font-family="Helvetica,sans-Serif" font-size="10.00">RefreshStatus &#45; Refresh discovering cluster &#45; detect ready &#160;&#160;</text>
</g>
<!-- ready&#45;&gt;insufficient -->
<g id="edge41" class="edge transition">
<title>ready&#45;&gt;insufficient</title>
<path fill="none" stroke="black" d="M2325.74,-178.69C2319.7,-178.3 2313.32,-177.94 2307.38,-177.71 2152.15,-171.71 2113.22,-174.8 1957.88,-173.96 1661.4,-172.37 1586.49,-169.04 1291.12,-194.71 1262.54,-197.2 1230.75,-200.78 1204.74,-203.92"/>
<polygon fill="black" stroke="black" points="1204.6,-200.41 1195.1,-205.1 1205.45,-207.36 1204.6,-200.41"/>
<text text-anchor="start" x="1640.62" y="-177.21" font-family="Helvetica,sans-Serif" font-size="10.00">RefreshStatus &#45; Refresh discovering cluster &#45; detect insufficient &#160;&#160;</text>
</g>
<!-- ready&#45;&gt;insufficient -->
<g id="edge43" class="edge transition">
<title>ready&#45;&gt;insufficient</title>
<path fill="none" stroke="black" d="M2325.42,-173.19C2319.52,-171.81 2313.27,-170.54 2307.38,-169.71 2153.43,-148.09 2113.3,-159.02 1957.88,-155.96 1661.53,-150.14 1583.72,-123.32 1291.12,-170.71 1261.94,-175.44 1230.2,-184.23 1204.37,-192.37"/>
<polygon fill="black" stroke="black" points="1203.57,-188.94 1195.12,-195.34 1205.71,-195.61 1203.57,-188.94"/>
<text text-anchor="start" x="1688.62" y="-159.21" font-family="Helvetica,sans-Serif" font-size="10.00">RefreshStatus &#45; TODO: Name this transition &#160;&#160;</text>
</g>
<!-- ready&#45;&gt;pending&#45;for&#45;input -->
<g id="edge40" class="edge transition">
<title>ready&#45;&gt;pending&#45;for&#45;input</title>
<path fill="none" stroke="black" d="M2345.66,-198.54C2338.69,-214.27 2326.16,-236.26 2307.38,-246.71 2288.76,-257.07 2008.94,-264.33 1873.13,-267.27"/>
<polygon fill="black" stroke="black" points="1873.07,-263.77 1863.14,-267.48 1873.21,-270.77 1873.07,-263.77"/>
<text text-anchor="start" x="1975.88" y="-267.79" font-family="Helvetica,sans-Serif" font-size="10.00">RefreshStatus &#45; Refresh discovering cluster &#45; detect required input &#160;&#160;</text>
</g>
<!-- ready&#45;&gt;pending&#45;for&#45;input -->
<g id="edge42" class="edge transition">
<title>ready&#45;&gt;pending&#45;for&#45;input</title>
<path fill="none" stroke="black" d="M2330.26,-198.81C2323.33,-203.53 2315.39,-208.03 2307.38,-210.71 2237.4,-234.14 2048.97,-219.84 1975.88,-229.96 1941.71,-234.69 1904.32,-242.56 1872.86,-249.97"/>
<polygon fill="black" stroke="black" points="1872.38,-246.49 1863.47,-252.22 1874.01,-253.29 1872.38,-246.49"/>
<text text-anchor="start" x="2031" y="-233.21" font-family="Helvetica,sans-Serif" font-size="10.00">RefreshStatus &#45; TODO: Name this transition &#160;&#160;</text>
</g>
<!-- ready&#45;&gt;ready -->
<g id="edge44" class="edge transition">
<title>ready&#45;&gt;ready</title>
<path fill="none" stroke="black" d="M2325.55,-190.33C2303.15,-202.43 2312.43,-216.84 2353.38,-216.84 2386.96,-216.84 2399.24,-207.14 2390.21,-196.98"/>
<polygon fill="black" stroke="black" points="2392.54,-194.36 2382.42,-191.23 2388.39,-199.99 2392.54,-194.36"/>
<text text-anchor="start" x="2207.88" y="-220.09" font-family="Helvetica,sans-Serif" font-size="10.00">RefreshStatus &#45; Refresh discovering cluster &#45; detect ready &#160;&#160;</text>
</g>
<!-- preparing&#45;for&#45;installation -->
<g id="node11" class="node state regular">
<title>preparing&#45;for&#45;installation</title>
<polygon fill="#ffffff" fill-opacity="0.003922" stroke="none" stroke-width="2" points="684.38,-124.84 514.62,-124.84 514.62,-88.59 684.38,-88.59 684.38,-124.84"/>
<text text-anchor="start" x="525.62" y="-102.44" font-family="Helvetica,sans-Serif" font-size="12.00">preparing&#45;for&#45;installation</text>
<path fill="none" stroke="black" stroke-width="2" d="M527.04,-89.59C527.04,-89.59 671.96,-89.59 671.96,-89.59 677.67,-89.59 683.38,-95.3 683.38,-101 683.38,-101 683.38,-112.42 683.38,-112.42 683.38,-118.13 677.67,-123.84 671.96,-123.84 671.96,-123.84 527.04,-123.84 527.04,-123.84 521.33,-123.84 515.62,-118.13 515.62,-112.42 515.62,-112.42 515.62,-101 515.62,-101 515.62,-95.3 521.33,-89.59 527.04,-89.59"/>
</g>
<!-- preparing&#45;for&#45;installation&#45;&gt;installing -->
<g id="edge36" class="edge transition">
<title>preparing&#45;for&#45;installation&#45;&gt;installing</title>
<path fill="none" stroke="black" d="M618.22,-124.62C639.73,-145.42 677.95,-179.47 716.62,-199.71 837.1,-262.77 887.6,-227.48 1009.88,-286.96 1018.69,-291.25 1019.29,-294.99 1027.88,-299.71 1051.7,-312.83 1079.69,-324.56 1102.81,-333.37"/>
<polygon fill="black" stroke="black" points="1101.38,-336.57 1111.97,-336.79 1103.83,-330.01 1101.38,-336.57"/>
<text text-anchor="start" x="716.62" y="-290.21" font-family="Helvetica,sans-Serif" font-size="10.00">RefreshStatus &#45; Refresh preparing cluster &#45; done preparing &#160;&#160;</text>
</g>
<!-- preparing&#45;for&#45;installation&#45;&gt;insufficient -->
<g id="edge37" class="edge transition">
<title>preparing&#45;for&#45;installation&#45;&gt;insufficient</title>
<path fill="none" stroke="black" d="M684.18,-122.56C798.55,-144.23 1000.38,-182.47 1096.17,-200.61"/>
<polygon fill="black" stroke="black" points="1095.35,-204.02 1105.83,-202.44 1096.65,-197.14 1095.35,-204.02"/>
<text text-anchor="start" x="726.38" y="-186.07" font-family="Helvetica,sans-Serif" font-size="10.00">RefreshStatus &#45; Refresh preparing cluster &#45; insufficient &#160;&#160;</text>
</g>
<!-- preparing&#45;for&#45;installation&#45;&gt;ready -->
<g id="edge35" class="edge transition">
<title>preparing&#45;for&#45;installation&#45;&gt;ready</title>
<path fill="none" stroke="black" d="M684.32,-107.76C858.89,-110.06 1274.23,-116.13 1622.62,-125.96 1927.05,-134.55 2016.88,-60.25 2307.38,-151.71 2311.64,-153.06 2315.89,-154.92 2319.99,-157.06"/>
<polygon fill="black" stroke="black" points="2318.05,-159.98 2328.45,-162.04 2321.61,-153.95 2318.05,-159.98"/>
<text text-anchor="start" x="1311" y="-129.21" font-family="Helvetica,sans-Serif" font-size="10.00">RefreshStatus &#45; Refresh preparing cluster &#45; detect timeout &#160;&#160;</text>
</g>
<!-- preparing&#45;for&#45;installation&#45;&gt;ready -->
<g id="edge38" class="edge transition">
<title>preparing&#45;for&#45;installation&#45;&gt;ready</title>
<path fill="none" stroke="black" d="M684.22,-104.34C695.12,-104.09 706.14,-103.87 716.62,-103.71 971.93,-99.8 1035.79,-101.57 1291.12,-100.96 1742.79,-99.88 1917,125.47 2307.38,-101.71 2325.93,-112.51 2337.47,-134.13 2344.21,-152.03"/>
<polygon fill="black" stroke="black" points="2340.87,-153.06 2347.4,-161.4 2347.49,-150.8 2340.87,-153.06"/>
<text text-anchor="start" x="1333.12" y="-104.21" font-family="Helvetica,sans-Serif" font-size="10.00">RefreshStatus &#45; Refresh preparing cluster &#45; failed &#160;&#160;</text>
</g>
<!-- preparing&#45;for&#45;installation&#45;&gt;preparing&#45;for&#45;installation -->
<g id="edge39" class="edge transition">
<title>preparing&#45;for&#45;installation&#45;&gt;preparing&#45;for&#45;installation</title>
<path fill="none" stroke="black" d="M558.56,-124.56C551.6,-134.12 565.25,-142.84 599.5,-142.84 619.3,-142.84 632.22,-139.93 638.25,-135.62"/>
<polygon fill="black" stroke="black" points="641.63,-136.53 640.15,-126.04 634.77,-135.17 641.63,-136.53"/>
<text text-anchor="start" x="458.12" y="-146.09" font-family="Helvetica,sans-Serif" font-size="10.00">RefreshStatus &#45; Maintain preparing&#45;for&#45;installation state &#160;&#160;</text>
</g>
</g>
</svg>
