<?xml version="1.0" encoding="UTF-8" standalone="no"?>
<!DOCTYPE svg PUBLIC "-//W3C//DTD SVG 1.1//EN"
 "http://www.w3.org/Graphics/SVG/1.1/DTD/svg11.dtd">
<!-- Generated by graphviz version 12.1.0 (20240811.2233)
 -->
<!-- Title: state transitions Pages: 1 -->
<svg width="498pt" height="314pt"
 viewBox="0.00 0.00 498.25 314.25" xmlns="http://www.w3.org/2000/svg" xmlns:xlink="http://www.w3.org/1999/xlink">
<g id="graph0" class="graph" transform="scale(1 1) rotate(0) translate(4 310.25)">
<title>state transitions</title>
<polygon fill="white" stroke="none" points="-4,4 -4,-310.25 494.25,-310.25 494.25,4 -4,4"/>
<!-- cancelled -->
<g id="node1" class="node state regular">
<title>cancelled</title>
<polygon fill="#ffffff" fill-opacity="0.003922" stroke="none" stroke-width="2" points="138.62,-306.25 59.62,-306.25 59.62,-270 138.62,-270 138.62,-306.25"/>
<text text-anchor="start" x="70.62" y="-283.85" font-family="Helvetica,sans-Serif" font-size="12.00">cancelled</text>
<path fill="none" stroke="black" stroke-width="2" d="M72.04,-271C72.04,-271 126.21,-271 126.21,-271 131.92,-271 137.62,-276.71 137.62,-282.42 137.62,-282.42 137.62,-293.83 137.62,-293.83 137.62,-299.54 131.92,-305.25 126.21,-305.25 126.21,-305.25 72.04,-305.25 72.04,-305.25 66.33,-305.25 60.62,-299.54 60.62,-293.83 60.62,-293.83 60.62,-282.42 60.62,-282.42 60.62,-276.71 66.33,-271 72.04,-271"/>
</g>
<!-- insufficient -->
<g id="node2" class="node state regular">
<title>insufficient</title>
<polygon fill="#ffffff" fill-opacity="0.003922" stroke="none" stroke-width="2" points="490.25,-171.25 403.75,-171.25 403.75,-135 490.25,-135 490.25,-171.25"/>
<text text-anchor="start" x="414.75" y="-148.85" font-family="Helvetica,sans-Serif" font-size="12.00">insufficient</text>
<path fill="none" stroke="black" stroke-width="2" d="M416.17,-136C416.17,-136 477.83,-136 477.83,-136 483.54,-136 489.25,-141.71 489.25,-147.42 489.25,-147.42 489.25,-158.83 489.25,-158.83 489.25,-164.54 483.54,-170.25 477.83,-170.25 477.83,-170.25 416.17,-170.25 416.17,-170.25 410.46,-170.25 404.75,-164.54 404.75,-158.83 404.75,-158.83 404.75,-147.42 404.75,-147.42 404.75,-141.71 410.46,-136 416.17,-136"/>
</g>
<!-- cancelled&#45;&gt;insufficient -->
<g id="edge1" class="edge transition">
<title>cancelled&#45;&gt;insufficient</title>
<path fill="none" stroke="black" d="M138.58,-290.92C196.78,-293.27 308.59,-290.23 385.75,-241.12 408.02,-226.95 424.18,-201.26 434.12,-181.29"/>
<polygon fill="black" stroke="black" points="437.28,-182.8 438.36,-172.26 430.94,-179.82 437.28,-182.8"/>
<text text-anchor="start" x="216.25" y="-292.86" font-family="Helvetica,sans-Serif" font-size="10.00">Reset Cluster &#45; Reset installation &#160;&#160;</text>
</g>
<!-- error -->
<g id="node3" class="node state regular">
<title>error</title>
<polygon fill="#ffffff" fill-opacity="0.003922" stroke="none" stroke-width="2" points="127.12,-252.25 71.12,-252.25 71.12,-216 127.12,-216 127.12,-252.25"/>
<text text-anchor="start" x="84.5" y="-229.85" font-family="Helvetica,sans-Serif" font-size="12.00">error</text>
<path fill="none" stroke="black" stroke-width="2" d="M83.54,-217C83.54,-217 114.71,-217 114.71,-217 120.42,-217 126.12,-222.71 126.12,-228.42 126.12,-228.42 126.12,-239.83 126.12,-239.83 126.12,-245.54 120.42,-251.25 114.71,-251.25 114.71,-251.25 83.54,-251.25 83.54,-251.25 77.83,-251.25 72.12,-245.54 72.12,-239.83 72.12,-239.83 72.12,-228.42 72.12,-228.42 72.12,-222.71 77.83,-217 83.54,-217"/>
</g>
<!-- error&#45;&gt;insufficient -->
<g id="edge2" class="edge transition">
<title>error&#45;&gt;insufficient</title>
<path fill="none" stroke="black" d="M126.88,-232.84C178.38,-229.69 294.26,-219.33 385.75,-187.12 393.54,-184.38 401.49,-180.66 408.95,-176.69"/>
<polygon fill="black" stroke="black" points="410.44,-179.86 417.45,-171.91 407.02,-173.76 410.44,-179.86"/>
<text text-anchor="start" x="216.25" y="-227.35" font-family="Helvetica,sans-Serif" font-size="10.00">Reset Cluster &#45; Reset installation &#160;&#160;</text>
</g>
<!-- finalizing -->
<g id="node4" class="node state regular">
<title>finalizing</title>
<polygon fill="#ffffff" fill-opacity="0.003922" stroke="none" stroke-width="2" points="136.38,-198.25 61.88,-198.25 61.88,-162 136.38,-162 136.38,-198.25"/>
<text text-anchor="start" x="72.88" y="-175.85" font-family="Helvetica,sans-Serif" font-size="12.00">finalizing</text>
<path fill="none" stroke="black" stroke-width="2" d="M74.29,-163C74.29,-163 123.96,-163 123.96,-163 129.67,-163 135.38,-168.71 135.38,-174.42 135.38,-174.42 135.38,-185.83 135.38,-185.83 135.38,-191.54 129.67,-197.25 123.96,-197.25 123.96,-197.25 74.29,-197.25 74.29,-197.25 68.58,-197.25 62.88,-191.54 62.88,-185.83 62.88,-185.83 62.88,-174.42 62.88,-174.42 62.88,-168.71 68.58,-163 74.29,-163"/>
</g>
<!-- finalizing&#45;&gt;insufficient -->
<g id="edge3" class="edge transition">
<title>finalizing&#45;&gt;insufficient</title>
<path fill="none" stroke="black" d="M136.16,-177.31C197.21,-172.55 321.27,-162.86 392.5,-157.3"/>
<polygon fill="black" stroke="black" points="392.68,-160.8 402.38,-156.53 392.13,-153.82 392.68,-160.8"/>
<text text-anchor="start" x="216.25" y="-173.87" font-family="Helvetica,sans-Serif" font-size="10.00">Reset Cluster &#45; Reset installation &#160;&#160;</text>
</g>
<!-- installing -->
<g id="node5" class="node state regular">
<title>installing</title>
<polygon fill="#ffffff" fill-opacity="0.003922" stroke="none" stroke-width="2" points="136.38,-144.25 61.88,-144.25 61.88,-108 136.38,-108 136.38,-144.25"/>
<text text-anchor="start" x="72.88" y="-121.85" font-family="Helvetica,sans-Serif" font-size="12.00">installing</text>
<path fill="none" stroke="black" stroke-width="2" d="M74.29,-109C74.29,-109 123.96,-109 123.96,-109 129.67,-109 135.38,-114.71 135.38,-120.42 135.38,-120.42 135.38,-131.83 135.38,-131.83 135.38,-137.54 129.67,-143.25 123.96,-143.25 123.96,-143.25 74.29,-143.25 74.29,-143.25 68.58,-143.25 62.88,-137.54 62.88,-131.83 62.88,-131.83 62.88,-120.42 62.88,-120.42 62.88,-114.71 68.58,-109 74.29,-109"/>
</g>
<!-- installing&#45;&gt;insufficient -->
<g id="edge4" class="edge transition">
<title>installing&#45;&gt;insufficient</title>
<path fill="none" stroke="black" d="M136.34,-126.45C190.7,-127.29 296.55,-130.35 385.75,-141.38 388.06,-141.66 390.42,-141.98 392.8,-142.34"/>
<polygon fill="black" stroke="black" points="392.06,-145.76 402.49,-143.91 393.18,-138.85 392.06,-145.76"/>
<text text-anchor="start" x="216.25" y="-144.62" font-family="Helvetica,sans-Serif" font-size="10.00">Reset Cluster &#45; Reset installation &#160;&#160;</text>
</g>
<!-- installing&#45;pending&#45;user&#45;action -->
<g id="node6" class="node state regular">
<title>installing&#45;pending&#45;user&#45;action</title>
<polygon fill="#ffffff" fill-opacity="0.003922" stroke="none" stroke-width="2" points="198.25,-90.25 0,-90.25 0,-54 198.25,-54 198.25,-90.25"/>
<text text-anchor="start" x="11" y="-67.85" font-family="Helvetica,sans-Serif" font-size="12.00">installing&#45;pending&#45;user&#45;action</text>
<path fill="none" stroke="black" stroke-width="2" d="M12.42,-55C12.42,-55 185.83,-55 185.83,-55 191.54,-55 197.25,-60.71 197.25,-66.42 197.25,-66.42 197.25,-77.83 197.25,-77.83 197.25,-83.54 191.54,-89.25 185.83,-89.25 185.83,-89.25 12.42,-89.25 12.42,-89.25 6.71,-89.25 1,-83.54 1,-77.83 1,-77.83 1,-66.42 1,-66.42 1,-60.71 6.71,-55 12.42,-55"/>
</g>
<!-- installing&#45;pending&#45;user&#45;action&#45;&gt;insufficient -->
<g id="edge5" class="edge transition">
<title>installing&#45;pending&#45;user&#45;action&#45;&gt;insufficient</title>
<path fill="none" stroke="black" d="M198.07,-74.98C254.52,-79.29 325.93,-89.35 385.75,-112.38 395.96,-116.3 406.17,-122.24 415.19,-128.38"/>
<polygon fill="black" stroke="black" points="413.08,-131.17 423.25,-134.15 417.16,-125.48 413.08,-131.17"/>
<text text-anchor="start" x="216.25" y="-115.62" font-family="Helvetica,sans-Serif" font-size="10.00">Reset Cluster &#45; Reset installation &#160;&#160;</text>
</g>
<!-- preparing&#45;for&#45;installation -->
<g id="node7" class="node state regular">
<title>preparing&#45;for&#45;installation</title>
<polygon fill="#ffffff" fill-opacity="0.003922" stroke="none" stroke-width="2" points="184,-36.25 14.25,-36.25 14.25,0 184,0 184,-36.25"/>
<text text-anchor="start" x="25.25" y="-13.85" font-family="Helvetica,sans-Serif" font-size="12.00">preparing&#45;for&#45;installation</text>
<path fill="none" stroke="black" stroke-width="2" d="M26.67,-1C26.67,-1 171.58,-1 171.58,-1 177.29,-1 183,-6.71 183,-12.42 183,-12.42 183,-23.83 183,-23.83 183,-29.54 177.29,-35.25 171.58,-35.25 171.58,-35.25 26.67,-35.25 26.67,-35.25 20.96,-35.25 15.25,-29.54 15.25,-23.83 15.25,-23.83 15.25,-12.42 15.25,-12.42 15.25,-6.71 20.96,-1 26.67,-1"/>
</g>
<!-- preparing&#45;for&#45;installation&#45;&gt;insufficient -->
<g id="edge6" class="edge transition">
<title>preparing&#45;for&#45;installation&#45;&gt;insufficient</title>
<path fill="none" stroke="black" d="M183.97,-12.92C244.52,-13.12 325.85,-21.92 385.75,-60.38 409.28,-75.48 425.53,-103.41 435.18,-124.69"/>
<polygon fill="black" stroke="black" points="431.89,-125.89 439.03,-133.71 438.32,-123.14 431.89,-125.89"/>
<text text-anchor="start" x="216.25" y="-63.62" font-family="Helvetica,sans-Serif" font-size="10.00">Reset Cluster &#45; Reset installation &#160;&#160;</text>
</g>
</g>
</svg>
